<?xml version="1.0" encoding="utf-8"?>
<!-- Generator: Adobe Illustrator 18.1.1, SVG Export Plug-In . SVG Version: 6.00 Build 0)  -->
<svg version="1.1" xmlns="http://www.w3.org/2000/svg" xmlns:xlink="http://www.w3.org/1999/xlink" x="0px" y="0px"
	 viewBox="0 0 171.2 109.5" enable-background="new 0 0 171.2 109.5" xml:space="preserve">
<g id="ch04-02-1">
	<path fill="#4C3718" d="M170.2,49.1c-0.5-10.7-2.3-21.9,0.2-32.5c0.1-0.2,0.1-0.5,0.2-0.7c0,0,0-0.1,0-0.1c0.1-0.2,0.1-0.4,0.2-0.7
		c0.1-0.3,0.2-0.5,0.2-0.8c-0.7-0.1-1.5-0.1-2.2-0.2c-0.6-0.1-1.2-0.1-1.8-0.2c-13.8-1.7-27.6-4.6-41.4-7
		c-14.1-2.4-28.1-5.9-42.4-6.4c-0.6,0-1.2,0-1.8-0.1c0-0.2,0-0.3,0-0.5c-1.1,0.4-2.2,0.8-3.2,1.1C67.1,4.8,55,5.9,43.6,8.7
		c-12.4,3-25.2,6.6-38.1,6.5c-1,0-3.1,1.4-1.2,1.5c0,0,0,0,0,0c0,0-0.1,0.1-0.1,0.1c-0.5,0.2-0.9,0.5-0.8,0.9C7,27,3.5,38,1.6,47.5
		c-2.3,11.6-1.9,23.2-0.4,34.9v0c-0.4,0.2-0.6,0.5-0.4,0.7c3.3,2.1,6.8,2.8,10.6,3.6c5.3,1.2,10.2,3.3,15.3,5.2
		c9.8,3.7,20.3,5.7,30.5,8.3c9.8,2.6,19.7,4.7,29.7,6.6c4.2,0.8,10.3,3.7,14.5,2.2c0.7-0.2,0.9-0.5,0.8-0.7c0,0,0,0,0-0.1
		c0-0.1,0.1-0.2,0.1-0.2c9.1-0.2,18-5,26-8.7c12.6-5.9,25.4-12.1,38.6-16.4c0.2-0.1,0.4-0.1,0.7-0.2c0.7-0.2,1.5-0.5,2.2-0.7
		c0.1,0,0.2-0.1,0.3-0.1c0.2,0,0.3-0.1,0.5-0.2c0-0.4,0.1-0.7,0.1-1.1C171.8,70.2,170.7,59.4,170.2,49.1z"/>
	<g>
		<path fill="#4C3718" d="M170.2,49.1c-0.5-10.7-2.3-21.9,0.2-32.5c0.1-0.2,0.1-0.5,0.2-0.7c0,0,0-0.1,0-0.1
			c0.1-0.2,0.1-0.4,0.2-0.7c0.1-0.3,0.2-0.5,0.2-0.8c-0.7-0.1-1.5-0.1-2.2-0.2c-0.6-0.1-1.2-0.1-1.8-0.2c-13.8-1.7-27.6-4.6-41.4-7
			c-14.1-2.4-28.1-5.9-42.4-6.4c-0.6,0-1.2,0-1.8-0.1c0-0.2,0-0.3,0-0.5c-1.1,0.4-2.2,0.8-3.2,1.1C67.1,4.8,55,5.9,43.6,8.7
			c-12.4,3-25.2,6.6-38.1,6.5c-1,0-3.1,1.4-1.2,1.5c0,0,0,0,0,0c0,0-0.1,0.1-0.1,0.1c-0.5,0.2-0.9,0.5-0.8,0.9C7,27,3.5,38,1.6,47.5
			c-2.3,11.6-1.9,23.2-0.4,34.9v0c-0.4,0.2-0.6,0.5-0.4,0.7c3.3,2.1,6.8,2.8,10.6,3.6c5.3,1.2,10.2,3.3,15.3,5.2
			c9.8,3.7,20.3,5.7,30.5,8.3c9.8,2.6,19.7,4.7,29.7,6.6c4.2,0.8,10.3,3.7,14.5,2.2c0.7-0.2,0.9-0.5,0.8-0.7c0,0,0,0,0-0.1
			c0-0.1,0.1-0.2,0.1-0.2c9.1-0.2,18-5,26-8.7c12.6-5.9,25.4-12.1,38.6-16.4c0.2-0.1,0.4-0.1,0.7-0.2c0.7-0.2,1.5-0.5,2.2-0.7
			c0.1,0,0.2-0.1,0.3-0.1c0.2,0,0.3-0.1,0.5-0.2c0-0.4,0.1-0.7,0.1-1.1C171.8,70.2,170.7,59.4,170.2,49.1z M42.4,10.3
			C54.7,7.3,67.9,6.1,80,2c15.5,0.3,30.5,4.2,45.7,6.7c13.8,2.3,27.5,5.3,41.4,6.9c-12.2,1.6-23.3,7.5-35.5,9.3
			c-6.3,1-12.7,0.8-18.9,2.5c-3,0.8-5.8,2.1-8.6,3.3c-1.1,0.5-2.7,1.4-4.1,2c-0.4,0.2-0.8,0.3-1.2,0.4c-0.2-0.1-0.4-0.1-0.6-0.2
			c-5.9-2-12.1-3.1-18.2-4.1c-8.1-1.3-16.1-3.3-24.2-4.8c-15.3-2.8-30.8-4.4-46-7.4C20.7,15.9,31.7,13,42.4,10.3z M100.3,105.4
			c-0.1,0.4-0.2,0.8-0.3,1.2c-0.1,0.4-0.2,0.8-0.3,1.1c-0.1,0-0.2,0-0.3-0.1c-0.2,0-0.4,0-0.6-0.1c-0.5-0.1-1-0.1-1.2-0.1
			c-1.5-0.3-3.1-0.7-4.6-1c-2.6-0.6-5.1-1.1-7.8-1.5c-9.5-1.5-18.7-4.1-28-6.6c-9.4-2.5-19-4.3-28.2-7.7c-4.1-1.6-8.2-3.4-12.5-4.5
			c-4.3-1.2-8.9-1.5-12.8-3.9c-0.1-0.1-0.2-0.1-0.3-0.2c-0.2-0.1-0.4-0.2-0.7-0.1c0.4-0.1,0.9-0.2,1.3-0.2c-0.2-1.5-0.4-3-0.5-4.5
			c-1.1-11-0.8-21.8,1.4-32.8C6.8,36,9.5,26.2,6.6,17.7c15,3.1,30.2,4.7,45.3,7.3c7.5,1.3,14.9,3.2,22.4,4.5
			c7.7,1.3,15.4,2.4,22.8,5.1c0.8,0.5,0.8,0.5,1.5,0.6c-0.8,12.6,0.2,25.1,1,37.7C100.4,83.3,102.6,95,100.3,105.4z M168,79.1
			c0,0.5-0.1,1.1-0.1,1.6c0,0.1,0,0.3,0,0.5c-0.3,0.1-0.6,0.2-0.9,0.3c-0.1,0-0.2,0.1-0.3,0.1c-11.5,3.8-22.4,9.3-33.6,14.1
			c-9.4,4-19.7,10.8-30.3,10.9c2.7-9.9,0.6-20.7,0.1-30.7c-0.8-13.8-2.2-27.6-1.2-41.5c0-0.4-0.4-0.6-0.9-0.6c0,0,0,0-0.1,0
			c2.6-1,5.2-2.5,7.7-3.5c7.1-2.9,14.3-2.8,21.8-3.8c12.8-1.7,24.5-8.2,37.3-9.6c-2.4,9.7-1.1,20.1-0.5,30
			c0.4,5.8,0.4,11.6,0.7,17.4C168,69.2,168.3,74.2,168,79.1z"/>
		<path fill="#937031" d="M167.1,46.8c-0.6-9.9-1.9-20.2,0.5-30c-12.8,1.3-24.5,7.9-37.3,9.6c-7.5,1-14.7,0.9-21.8,3.8
			c-2.5,1-5.1,2.5-7.7,3.5c0,0,0,0,0.1,0c0.5,0,0.9,0.2,0.9,0.6c-0.9,13.8,0.5,27.6,1.2,41.5c0.6,10,2.6,20.8-0.1,30.7
			c10.6-0.1,20.9-6.8,30.3-10.9c11.1-4.8,22-10.2,33.6-14.1c0.1,0,0.2-0.1,0.3-0.1c0.3-0.1,0.6-0.2,0.9-0.3c0-0.2,0-0.3,0-0.5
			c0.1-0.5,0.1-1.1,0.1-1.6c0.3-5,0-9.9-0.3-14.9C167.4,58.4,167.5,52.6,167.1,46.8z"/>
		<path fill="#937031" d="M79.9,28.7c6.2,1,12.3,2.1,18.2,4.1c0.2,0.1,0.4,0.1,0.6,0.2c0.3-0.1,0.8-0.2,1.2-0.4c1.4-0.6,3-1.5,4.1-2
			c2.8-1.2,5.6-2.5,8.6-3.3c6.2-1.7,12.6-1.5,18.9-2.5c12.2-1.9,23.3-7.7,35.5-9.3c-13.9-1.6-27.6-4.6-41.4-6.9
			C110.5,6.2,95.5,2.2,80,2c-12.1,4.1-25.3,5.3-37.7,8.4C31.7,13,20.7,15.9,9.6,16.5c15.2,3,30.7,4.6,46,7.4
			C63.8,25.4,71.7,27.4,79.9,28.7z"/>
		<path fill="#937031" d="M98.8,35.2c-0.8-0.1-0.8-0.2-1.5-0.6c-7.4-2.7-15.1-3.7-22.8-5.1C66.9,28.3,59.5,26.3,52,25
			c-15.1-2.6-30.3-4.3-45.3-7.3C9.5,26.2,6.8,36,5.1,44.4c-2.3,11-2.5,21.8-1.4,32.8c0.2,1.5,0.3,3,0.5,4.5
			c-0.4,0.1-0.9,0.2-1.3,0.2c0.3,0,0.5,0,0.7,0.1c0.1,0.1,0.2,0.1,0.3,0.2c3.9,2.4,8.4,2.7,12.8,3.9c4.3,1.2,8.4,3,12.5,4.5
			c9.1,3.5,18.7,5.3,28.2,7.7c9.3,2.4,18.5,5,28,6.6c2.6,0.4,5.2,0.9,7.8,1.5c1.5,0.4,3.1,0.7,4.6,1c0.2,0,0.7,0.1,1.2,0.1
			c0.2,0,0.4,0.1,0.6,0.1c0.1,0,0.2,0,0.3,0.1c0.1-0.4,0.2-0.7,0.3-1.1c0.1-0.4,0.2-0.8,0.3-1.2c2.3-10.4,0.1-22.1-0.5-32.5
			C99,60.4,98,47.8,98.8,35.2z"/>
	</g>
</g>
<g id="facing_1_">
</g>
<g id="_x33_4down">
	<g id="safecopy_2">
	</g>
	<g id="stu_x27_s">
	</g>
	<g id="stu_x27_s_copy">
	</g>
</g>
<g id="Layer_7">
</g>
</svg>
