<?xml version="1.0" encoding="utf-8"?>
<!-- Generator: Adobe Illustrator 18.1.1, SVG Export Plug-In . SVG Version: 6.00 Build 0)  -->
<!DOCTYPE svg PUBLIC "-//W3C//DTD SVG 1.1//EN" "http://www.w3.org/Graphics/SVG/1.1/DTD/svg11.dtd">
<svg version="1.1" xmlns="http://www.w3.org/2000/svg" xmlns:xlink="http://www.w3.org/1999/xlink" x="0px" y="0px"
	 viewBox="0 0 208 393.6" enable-background="new 0 0 208 393.6" xml:space="preserve">
<g id="ch06-05-1">
	<g id="paths_backup" display="none">
	</g>
</g>
<g id="ch02A-08-2">
	<g id="bsf_contents">
		<g id="separation_gravel_copy">
		</g>
		<g id="sand_4_">
			<g id="sand_x5F_body_3_">
				<g id="XMLID_256_">
					<g>
						<path fill="#472905" d="M189,96.1c0.6-0.2,1.3-0.2,1.4,0.2c0,0.1,0.1,0.2,0.1,0.3c0.1,0.2-0.1,0.3-0.2,0.4
							c-0.2,0.1-0.4,0.2-0.6,0.3c0.4,0,0.7,0.1,0.7,0.3c0.1,28.1-0.7,56.2-0.7,84.2c0,7.5,0,15,0.4,22.5c0.4,7.1,0.9,14.2,0.8,21.3
							c-0.1,7.2-0.2,14.3-0.2,21.5c0,5.3-0.7,10.8,0.6,16c0,0,0.1,0.1,0.1,0.1c0.3,0.4,0.3,0.9,0.3,1.4c0,0.6-1.4,1.1-2,0.8
							c-4.4,2.9-9.8,4.1-14.6,6.1c-7.7,3.2-15.7,5.5-23.3,8.9c-8,3.6-15.8,7.5-23.9,10.7c-5.6,2.2-11.5,4.8-17.5,5.6
							c-2.3,1-7.4-0.9-8.9-1.3c-5.8-1.5-11.8-2.4-17.6-3.9c-9.3-2.4-18-6.8-26.9-10.2c-8.1-3-16.7-7.6-25.6-7.5
							c-0.5,0.4-1.5,0.6-1.8,0.2c0,0-0.1-0.1-0.1-0.1c-0.6,0-0.7-0.3-0.4-0.6c-0.1-0.1-0.1-0.1-0.2-0.2c-0.3-0.4,0.4-0.8,1-0.9
							c0.9-5.1-0.9-10.7-1.2-15.7c-0.5-7.1-1.5-14.3-1.5-21.4c-0.1-15,0.7-29.9,0.1-44.9c-0.6-14.4-1.3-28.6-0.5-43
							c0.4-7.7-0.1-15-0.3-22.7c-0.2-7.1,0.9-14.2,1-21.3c0,0-0.1,0-0.1,0c-0.3-0.1-0.2-0.3,0.1-0.5c0,0,0,0,0,0
							c0-0.6,1.2-0.9,1.9-0.8c7.1-1.9,14.1-4.3,21.2-6.3c6.8-1.9,13.7-3.2,20.6-4.9c6.9-1.8,13.8-3.8,20.6-5.9
							c6.8-2.1,14.2-3.6,20.6-6.9c-1.1-0.1,0.4-1.1,1.1-1.1c2.6-0.1,4.8,0.5,7.3,1.3c3.4,1.2,6.7,1.8,10.3,2.2
							c6.4,0.7,12.4,2.4,18.6,4.4c7,2.3,13.9,4.7,21,6.2c5.7,1.2,11.3,2.5,16.9,4.1c0.4-0.1,0.9-0.2,1.1,0c0.3,0.2,0.6,0.4,0.9,0.6
							C189.9,95.7,189.6,95.9,189,96.1z M188.9,96.1c-0.5,0.1-1,0.2-1.2,0.2c-12.4-3.6-25.1-5.9-37.4-9.9c-6.6-2.2-13.1-4.3-20-5.1
							c-2.7-0.3-5.4-0.6-8-1.3c-2.7-0.8-5.1-1.9-7.9-2.2c-0.1,0.1-0.2,0.2-0.4,0.3c-5.6,2.9-11.9,4.3-17.9,6.1
							c-7.3,2.3-14.5,4.5-21.9,6.5c-7.5,2-15.2,3.4-22.6,5.4c-7.1,1.9-14.1,4.3-21.2,6.2c6.1,1.8,11.7,4.7,17.6,7.1
							c6.7,2.8,13.8,4.3,20.9,5.9c7,1.5,14.1,2.9,21.1,4.6c5.3,1.3,10.9,2.3,16,4.2c13.2-6.1,27.5-8.3,41.1-12.8
							c3.4-1.1,41.1-14.2,41.1-14.6C188.2,96.5,188.5,96.3,188.9,96.1z M188.8,226.1c0.1-7.1-0.4-14.2-0.8-21.3
							c-0.4-7.5-0.4-15-0.4-22.5c0-28.1,0.7-56.1,0.7-84.2c-4.8,2.5-10.9,3.6-15.8,5.3c-7.1,2.4-14.1,5.2-21.2,7.7
							c-14.5,5-29.9,7.2-43.9,13.7c0.2,0.1,0,0.3-0.3,0.5c-0.6,56.7,3.3,113.4,3.5,170.1c0.3,0,0.5,0,0.7,0.1c6.5-1,12.9-4.1,19-6.5
							c7-2.9,13.9-6.3,20.8-9.4c7.2-3.2,14.7-5.3,21.9-8.3c5.3-2.3,11.6-3.5,16.2-7c-1.4-5.3-0.7-11.1-0.7-16.5
							C188.6,240.5,188.6,233.3,188.8,226.1z M107.3,295.2c0.4,0.1,0.8,0.1,1.2,0.2c-0.3-56.7-4.1-113.3-3.5-170v0
							c-6-2.4-12.7-3.6-19-5c-7-1.6-14.1-3-21.1-4.6c-6.3-1.4-12.6-2.9-18.6-5.4c-5.5-2.3-10.8-4.9-16.5-6.8
							c-0.2,6.7-1.1,13.4-0.9,20.1c0.2,7.2,0.7,14.3,0.3,21.5c-0.8,15.3-0.1,30.3,0.5,45.6c0.5,15-0.4,29.9-0.1,44.9
							c0.1,7.4,1,14.9,1.7,22.3c0.4,4.7,2,9.8,0.9,14.5c6.6-0.1,12.9,2.2,19,4.5c7.7,3,15.4,6.2,23.1,9.3c4.7,1.9,9.5,3.6,14.5,4.6
							c2.5,0.5,5,0.7,7.4,1.3c2.6,0.7,5.1,1.4,7.7,2.1C104.9,294.7,106.1,295,107.3,295.2z"/>
						<path fill="#5E4A30" d="M188,204.9c0.4,7.1,0.9,14.2,0.8,21.3c-0.1,7.2-0.2,14.3-0.2,21.5c0,5.4-0.7,11.2,0.7,16.5
							c-4.6,3.5-10.9,4.8-16.2,7c-7.2,3.1-14.8,5.1-21.9,8.3c-6.9,3.1-13.8,6.5-20.8,9.4c-6,2.5-12.5,5.5-19,6.5
							c-0.2-0.1-0.4-0.1-0.7-0.1c-0.2-56.7-4.1-113.3-3.5-170.1c0.3-0.2,0.4-0.4,0.3-0.5c14-6.5,29.4-8.6,43.9-13.7
							c7.1-2.5,14.1-5.3,21.2-7.7c4.9-1.6,11.1-2.7,15.8-5.3c0.1,28.1-0.7,56.1-0.7,84.2C187.6,189.9,187.6,197.4,188,204.9z"/>
						<path fill="#5E4A30" d="M188.9,96.1c-0.4,0.2-0.7,0.4-0.6,0.7c0,0.4-37.7,13.5-41.1,14.6c-13.7,4.5-28,6.7-41.1,12.8
							c-5.1-2-10.7-3-16-4.2c-7-1.7-14.1-3.1-21.1-4.6c-7.1-1.6-14.2-3.1-20.9-5.9c-5.9-2.4-11.5-5.3-17.6-7.1
							c7.1-2,14.1-4.3,21.2-6.2c7.5-2,15.1-3.5,22.6-5.4c7.4-2,14.6-4.2,21.9-6.5c6-1.9,12.2-3.2,17.9-6.1c0.2-0.1,0.3-0.2,0.4-0.3
							c2.7,0.3,5.2,1.5,7.9,2.2c2.6,0.7,5.3,1,8,1.3c6.9,0.8,13.4,2.9,20,5.1c12.3,4,24.9,6.3,37.4,9.9
							C187.9,96.4,188.4,96.3,188.9,96.1z"/>
						<path fill="#5E4A30" d="M108.4,295.4c-0.4-0.1-0.8-0.1-1.2-0.2c-1.2-0.2-2.4-0.5-3.5-0.9c-2.6-0.7-5.1-1.4-7.7-2.1
							c-2.5-0.6-5-0.8-7.4-1.3c-5-1-9.8-2.8-14.5-4.6c-7.7-3.1-15.4-6.2-23.1-9.3c-6.1-2.4-12.4-4.6-19-4.5
							c1.1-4.7-0.4-9.8-0.9-14.5c-0.7-7.4-1.5-14.9-1.7-22.3c-0.3-15,0.7-29.9,0.1-44.9c-0.6-15.3-1.3-30.3-0.5-45.6
							c0.4-7.2-0.1-14.3-0.3-21.5c-0.2-6.7,0.7-13.4,0.9-20.1c5.7,1.8,11,4.5,16.5,6.8c6,2.5,12.3,4,18.6,5.4c7,1.6,14.1,3,21.1,4.6
							c6.3,1.4,13,2.6,19,5v0C104.3,182.2,108.2,238.8,108.4,295.4z"/>
					</g>
				</g>
			</g>
			<g id="rocks_in_sand_3_">
				<path fill="#70613F" d="M41.6,264.6c0.3-0.2,0.5-0.7,0.3-1.1c-0.1-0.4-0.9-0.8-0.9-0.8c-0.2-0.1-0.5,0.2-0.6,0.4
					c-0.2,0.4-0.2,1,0.1,1.4C40.8,264.7,41.3,264.8,41.6,264.6z"/>
				<path fill="#53422C" d="M63.9,260.7c-0.3,0-0.5,0.3-0.5,0.5c0,0.3,0.6,0.8,0.6,0.8c0.2,0.1,0.4,0.1,0.6-0.1
					c0.2-0.2,0.4-0.5,0.3-0.8C64.6,260.8,64.2,260.6,63.9,260.7z"/>
				<path fill="#4E473A" d="M64.2,271c-0.3,0-0.6,0.2-0.7,0.5c-0.1,0.3,0,0.5,0.2,0.6c0.2,0.1,0.9-0.1,0.9-0.1
					c0.2-0.1,0.2-0.3,0.2-0.5C64.6,271.3,64.5,271,64.2,271z"/>
				<path fill="#4E473A" d="M74.4,277.9c-0.3,0-0.6,0.2-0.7,0.5c-0.1,0.3,0,0.5,0.2,0.6c0.2,0.1,0.9-0.1,0.9-0.1
					c0.2-0.1,0.2-0.3,0.2-0.5C74.9,278.2,74.7,277.9,74.4,277.9z"/>
				<path fill="#4E473A" d="M92.1,263.1c-0.3,0-0.6,0.2-0.7,0.5c-0.1,0.3,0,0.5,0.2,0.6c0.2,0.1,0.9-0.1,0.9-0.1
					c0.2-0.1,0.2-0.3,0.2-0.5C92.6,263.4,92.4,263.1,92.1,263.1z"/>
				<path fill="#4E473A" d="M97.9,266c-0.3,0-0.6,0.2-0.7,0.5c-0.1,0.3,0,0.5,0.2,0.6c0.2,0.1,0.9-0.1,0.9-0.1
					c0.2-0.1,0.2-0.3,0.2-0.5C98.4,266.3,98.2,266,97.9,266z"/>
				<path fill="#4E473A" d="M44.6,233.4c-0.3,0-0.6,0.2-0.7,0.5c-0.1,0.3,0,0.5,0.2,0.6c0.2,0.1,0.9-0.1,0.9-0.1
					c0.2-0.1,0.2-0.3,0.2-0.5C45.1,233.7,44.9,233.4,44.6,233.4z"/>
				<path fill="#4E473A" d="M50.6,223.6c-0.3,0-0.6,0.2-0.7,0.5c-0.1,0.3,0,0.5,0.2,0.6c0.2,0.1,0.9-0.1,0.9-0.1
					c0.2-0.1,0.2-0.3,0.2-0.5C51.1,223.9,50.9,223.6,50.6,223.6z"/>
				<path fill="#4E473A" d="M74.4,230.9c-0.3,0-0.6,0.2-0.7,0.5c-0.1,0.3,0,0.5,0.2,0.6c0.2,0.1,0.9-0.1,0.9-0.1
					c0.2-0.1,0.2-0.3,0.2-0.5C74.9,231.2,74.7,230.9,74.4,230.9z"/>
				<path fill="#4E473A" d="M31.6,199c-0.3,0-0.6,0.2-0.7,0.5c-0.1,0.3,0,0.5,0.2,0.6c0.2,0.1,0.9-0.1,0.9-0.1
					c0.2-0.1,0.2-0.3,0.2-0.5C32,199.3,31.9,199,31.6,199z"/>
				<path fill="#4E473A" d="M107.2,250.4c-0.3,0-0.6,0.2-0.7,0.5c-0.1,0.3,0,0.5,0.2,0.6c0.2,0.1,0.9-0.1,0.9-0.1
					c0.2-0.1,0.2-0.3,0.2-0.5C107.7,250.7,107.5,250.4,107.2,250.4z"/>
				<path fill="#4E473A" d="M95,205c-0.3,0-0.6,0.2-0.7,0.5c-0.1,0.3,0,0.5,0.2,0.6c0.2,0.1,0.9-0.1,0.9-0.1
					c0.2-0.1,0.2-0.3,0.2-0.5C95.5,205.3,95.4,205,95,205z"/>
				<path fill="#4E473A" d="M92.8,210.2c-0.3,0-0.6,0.2-0.7,0.5c-0.1,0.3,0,0.5,0.2,0.6c0.2,0.1,0.9-0.1,0.9-0.1
					c0.2-0.1,0.2-0.3,0.2-0.5C93.2,210.5,93.1,210.2,92.8,210.2z"/>
				<path fill="#4E473A" d="M77.8,207.7c-0.3,0-0.6,0.2-0.7,0.5c-0.1,0.3,0,0.5,0.2,0.6c0.2,0.1,0.9-0.1,0.9-0.1
					c0.2-0.1,0.2-0.3,0.2-0.5C78.2,207.9,78.1,207.7,77.8,207.7z"/>
				<path fill="#4E473A" d="M51.2,175c-0.3,0-0.6,0.2-0.7,0.5c-0.1,0.3,0,0.5,0.2,0.6c0.2,0.1,0.9-0.1,0.9-0.1
					c0.2-0.1,0.2-0.3,0.2-0.5C51.7,175.3,51.6,175,51.2,175z"/>
				<path fill="#4E473A" d="M35.3,153.4c-0.3,0-0.6,0.2-0.7,0.5c-0.1,0.3,0,0.5,0.2,0.6c0.2,0.1,0.9-0.1,0.9-0.1
					c0.2-0.1,0.2-0.3,0.2-0.5C35.8,153.7,35.7,153.4,35.3,153.4z"/>
				<path fill="#4E473A" d="M69.4,158.1c-0.3,0-0.6,0.2-0.7,0.5c-0.1,0.3,0,0.5,0.2,0.6c0.2,0.1,0.9-0.1,0.9-0.1
					c0.2-0.1,0.2-0.3,0.2-0.5C69.9,158.4,69.7,158.1,69.4,158.1z"/>
				<path fill="#4E473A" d="M80.6,159.3c-0.3,0-0.6,0.2-0.7,0.5c-0.1,0.3,0,0.5,0.2,0.6c0.2,0.1,0.9-0.1,0.9-0.1
					c0.2-0.1,0.2-0.3,0.2-0.5C81.1,159.6,80.9,159.3,80.6,159.3z"/>
				<path fill="#4E473A" d="M84.3,135.2c-0.3,0-0.6,0.2-0.7,0.5c-0.1,0.3,0,0.5,0.2,0.6c0.2,0.1,0.9-0.1,0.9-0.1
					c0.2-0.1,0.2-0.3,0.2-0.5C84.7,135.4,84.6,135.2,84.3,135.2z"/>
				<path fill="#4E473A" d="M81.3,128.7c-0.3,0-0.6,0.2-0.7,0.5c-0.1,0.3,0,0.5,0.2,0.6c0.2,0.1,0.9-0.1,0.9-0.1
					c0.2-0.1,0.2-0.3,0.2-0.5C81.7,128.9,81.6,128.7,81.3,128.7z"/>
				<path fill="#4E473A" d="M41.3,114.7c-0.3,0-0.6,0.2-0.7,0.5c-0.1,0.3,0,0.5,0.2,0.6c0.2,0.1,0.9-0.1,0.9-0.1
					c0.2-0.1,0.2-0.3,0.2-0.5C41.7,115,41.6,114.7,41.3,114.7z"/>
				<path fill="#4E473A" d="M34.7,115.9c-0.3,0-0.6,0.2-0.7,0.5c-0.1,0.3,0,0.5,0.2,0.6c0.2,0.1,0.9-0.1,0.9-0.1
					c0.2-0.1,0.2-0.3,0.2-0.5C35.2,116.2,35,115.9,34.7,115.9z"/>
				<path fill="#4E473A" d="M100.9,134.6c-0.3,0-0.6,0.2-0.7,0.5c-0.1,0.3,0,0.5,0.2,0.6c0.2,0.1,0.9-0.1,0.9-0.1
					c0.2-0.1,0.2-0.3,0.2-0.5C101.3,134.9,101.2,134.6,100.9,134.6z"/>
				<path fill="#4E473A" d="M115.8,224.2c-0.3,0-0.6,0.2-0.7,0.5c-0.1,0.3,0,0.5,0.2,0.6c0.2,0.1,0.9-0.1,0.9-0.1
					c0.2-0.1,0.2-0.3,0.2-0.5C116.3,224.5,116.1,224.2,115.8,224.2z"/>
				<path fill="#4E473A" d="M127.4,238.4c-0.3,0-0.6,0.2-0.7,0.5c-0.1,0.3,0,0.5,0.2,0.6c0.2,0.1,0.9-0.1,0.9-0.1
					c0.2-0.1,0.2-0.3,0.2-0.5C127.9,238.7,127.7,238.4,127.4,238.4z"/>
				<path fill="#4E473A" d="M135.1,239c-0.3,0-0.6,0.2-0.7,0.5c-0.1,0.3,0,0.5,0.2,0.6c0.2,0.1,0.9-0.1,0.9-0.1
					c0.2-0.1,0.2-0.3,0.2-0.5C135.6,239.3,135.4,239,135.1,239z"/>
				<path fill="#4E473A" d="M148.3,262.5c-0.3,0-0.6,0.2-0.7,0.5c-0.1,0.3,0,0.5,0.2,0.6c0.2,0.1,0.9-0.1,0.9-0.1
					c0.2-0.1,0.2-0.3,0.2-0.5C148.8,262.8,148.6,262.5,148.3,262.5z"/>
				<path fill="#4E473A" d="M128.7,283.5c-0.3,0-0.6,0.2-0.7,0.5c-0.1,0.3,0,0.5,0.2,0.6c0.2,0.1,0.9-0.1,0.9-0.1
					c0.2-0.1,0.2-0.3,0.2-0.5C129.2,283.8,129,283.5,128.7,283.5z"/>
				<path fill="#4E473A" d="M166.8,243.4c-0.3,0-0.6,0.2-0.7,0.5c-0.1,0.3,0,0.5,0.2,0.6c0.2,0.1,0.9-0.1,0.9-0.1
					c0.2-0.1,0.2-0.3,0.2-0.5C167.3,243.7,167.2,243.4,166.8,243.4z"/>
				<path fill="#4E473A" d="M180.3,234.6c-0.3,0-0.6,0.2-0.7,0.5c-0.1,0.3,0,0.5,0.2,0.6c0.2,0.1,0.9-0.1,0.9-0.1
					c0.2-0.1,0.2-0.3,0.2-0.5C180.8,234.9,180.7,234.6,180.3,234.6z"/>
				<path fill="#4E473A" d="M181,197.9c-0.3,0-0.6,0.2-0.7,0.5c-0.1,0.3,0,0.5,0.2,0.6c0.2,0.1,0.9-0.1,0.9-0.1
					c0.2-0.1,0.2-0.3,0.2-0.5C181.5,198.2,181.3,197.9,181,197.9z"/>
				<path fill="#4E473A" d="M166.2,228.2c-0.3,0-0.6,0.2-0.7,0.5c-0.1,0.3,0,0.5,0.2,0.6c0.2,0.1,0.9-0.1,0.9-0.1
					c0.2-0.1,0.2-0.3,0.2-0.5C166.7,228.4,166.5,228.2,166.2,228.2z"/>
				<path fill="#4E473A" d="M141.6,199c-0.3,0-0.6,0.2-0.7,0.5c-0.1,0.3,0,0.5,0.2,0.6c0.2,0.1,0.9-0.1,0.9-0.1
					c0.2-0.1,0.2-0.3,0.2-0.5C142.1,199.3,141.9,199,141.6,199z"/>
				<path fill="#4E473A" d="M153.9,191.7c-0.3,0-0.6,0.2-0.7,0.5c-0.1,0.3,0,0.5,0.2,0.6c0.2,0.1,0.9-0.1,0.9-0.1
					c0.2-0.1,0.2-0.3,0.2-0.5C154.4,191.9,154.2,191.7,153.9,191.7z"/>
				<path fill="#4E473A" d="M176.1,172.4c-0.3,0-0.6,0.2-0.7,0.5c-0.1,0.3,0,0.5,0.2,0.6c0.2,0.1,0.9-0.1,0.9-0.1
					c0.2-0.1,0.2-0.3,0.2-0.5C176.6,172.7,176.4,172.4,176.1,172.4z"/>
				<path fill="#4E473A" d="M127.4,167.7c-0.3,0-0.6,0.2-0.7,0.5c-0.1,0.3,0,0.5,0.2,0.6c0.2,0.1,0.9-0.1,0.9-0.1
					c0.2-0.1,0.2-0.3,0.2-0.5C127.9,168,127.7,167.7,127.4,167.7z"/>
				<path fill="#4E473A" d="M135.8,159.3c-0.3,0-0.6,0.2-0.7,0.5c-0.1,0.3,0,0.5,0.2,0.6c0.2,0.1,0.9-0.1,0.9-0.1
					c0.2-0.1,0.2-0.3,0.2-0.5C136.2,159.6,136.1,159.3,135.8,159.3z"/>
				<path fill="#4E473A" d="M169.9,119.4c-0.3,0-0.6,0.2-0.7,0.5c-0.1,0.3,0,0.5,0.2,0.6c0.2,0.1,0.9-0.1,0.9-0.1
					c0.2-0.1,0.2-0.3,0.2-0.5C170.4,119.7,170.2,119.4,169.9,119.4z"/>
				<path fill="#4E473A" d="M158.4,125.8c-0.3,0-0.6,0.2-0.7,0.5c-0.1,0.3,0,0.5,0.2,0.6c0.2,0.1,0.9-0.1,0.9-0.1
					c0.2-0.1,0.2-0.3,0.2-0.5C158.9,126.1,158.8,125.8,158.4,125.8z"/>
				<path fill="#4E473A" d="M180.3,148c-0.3,0-0.6,0.2-0.7,0.5c-0.1,0.3,0,0.5,0.2,0.6c0.2,0.1,0.9-0.1,0.9-0.1
					c0.2-0.1,0.2-0.3,0.2-0.5C180.8,148.3,180.7,148,180.3,148z"/>
				<path fill="#4E473A" d="M121.7,128.1c-0.3,0-0.6,0.2-0.7,0.5c-0.1,0.3,0,0.5,0.2,0.6c0.2,0.1,0.9-0.1,0.9-0.1
					c0.2-0.1,0.2-0.3,0.2-0.5C122.1,128.4,122,128.1,121.7,128.1z"/>
				<path fill="#4E473A" d="M133.8,118.3c-0.3,0-0.6,0.2-0.7,0.5c-0.1,0.3,0,0.5,0.2,0.6c0.2,0.1,0.9-0.1,0.9-0.1
					c0.2-0.1,0.2-0.3,0.2-0.5C134.2,118.5,134.1,118.3,133.8,118.3z"/>
				<path fill="#4E473A" d="M183.6,104.9c-0.3,0-0.6,0.2-0.7,0.5c-0.1,0.3,0,0.5,0.2,0.6c0.2,0.1,0.9-0.1,0.9-0.1
					c0.2-0.1,0.2-0.3,0.2-0.5C184.1,105.2,183.9,104.9,183.6,104.9z"/>
				<path fill="#4E473A" d="M184.3,259.5c-0.3,0-0.6,0.2-0.7,0.5c-0.1,0.3,0,0.5,0.2,0.6c0.2,0.1,0.9-0.1,0.9-0.1
					c0.2-0.1,0.2-0.3,0.2-0.5C184.7,259.8,184.6,259.5,184.3,259.5z"/>
				<path fill="#4E473A" d="M179.7,258.9c-0.3,0-0.6,0.2-0.7,0.5c-0.1,0.3,0,0.5,0.2,0.6c0.2,0.1,0.9-0.1,0.9-0.1
					c0.2-0.1,0.2-0.3,0.2-0.5C180.2,259.2,180,258.9,179.7,258.9z"/>
				<path fill="#4E473A" d="M106.5,113.5c-0.3,0-0.6,0.2-0.7,0.5c-0.1,0.3,0,0.5,0.2,0.6c0.2,0.1,0.9-0.1,0.9-0.1
					c0.2-0.1,0.2-0.3,0.2-0.5C107,113.8,106.8,113.5,106.5,113.5z"/>
				<path fill="#4E473A" d="M145.6,97.6c-0.3,0-0.6,0.2-0.7,0.5c-0.1,0.3,0,0.5,0.2,0.6c0.2,0.1,0.9-0.1,0.9-0.1
					c0.2-0.1,0.2-0.3,0.2-0.5C146.1,97.9,145.9,97.6,145.6,97.6z"/>
				<path fill="#4E473A" d="M81.9,97.6c-0.3,0-0.6,0.2-0.7,0.5c-0.1,0.3,0,0.5,0.2,0.6c0.2,0.1,0.9-0.1,0.9-0.1
					c0.2-0.1,0.2-0.3,0.2-0.5C82.4,97.9,82.2,97.6,81.9,97.6z"/>
				<path fill="#4E473A" d="M65.6,104.9c-0.3,0-0.6,0.2-0.7,0.5c-0.1,0.3,0,0.5,0.2,0.6c0.2,0.1,0.9-0.1,0.9-0.1
					c0.2-0.1,0.2-0.3,0.2-0.5C66.1,105.2,66,104.9,65.6,104.9z"/>
				<path fill="#4E473A" d="M70,93.4c-0.3,0-0.6,0.2-0.7,0.5c-0.1,0.3,0,0.5,0.2,0.6c0.2,0.1,0.9-0.1,0.9-0.1
					c0.2-0.1,0.2-0.3,0.2-0.5C70.5,93.7,70.4,93.4,70,93.4z"/>
				<path fill="#4E473A" d="M103.3,88.2c-0.3,0-0.6,0.2-0.7,0.5c-0.1,0.3,0,0.5,0.2,0.6c0.2,0.1,0.9-0.1,0.9-0.1
					c0.2-0.1,0.2-0.3,0.2-0.5C103.8,88.4,103.6,88.2,103.3,88.2z"/>
				<path fill="#4E473A" d="M133.1,88.7c-0.3,0-0.6,0.2-0.7,0.5c-0.1,0.3,0,0.5,0.2,0.6c0.2,0.1,0.9-0.1,0.9-0.1
					c0.2-0.1,0.2-0.3,0.2-0.5C133.6,89,133.4,88.8,133.1,88.7z"/>
				<path fill="#4E473A" d="M160.4,97c-0.3,0-0.6,0.2-0.7,0.5c-0.1,0.3,0,0.5,0.2,0.6c0.2,0.1,0.9-0.1,0.9-0.1
					c0.2-0.1,0.2-0.3,0.2-0.5C160.9,97.3,160.7,97,160.4,97z"/>
				<path fill="#4E473A" d="M126.7,106.1c-0.3,0-0.6,0.2-0.7,0.5c-0.1,0.3,0,0.5,0.2,0.6c0.2,0.1,0.9-0.1,0.9-0.1
					c0.2-0.1,0.2-0.3,0.2-0.5C127.2,106.4,127.1,106.1,126.7,106.1z"/>
				<path fill="#4E473A" d="M88.8,115.3c-0.3,0-0.6,0.2-0.7,0.5c-0.1,0.3,0,0.5,0.2,0.6c0.2,0.1,0.9-0.1,0.9-0.1
					c0.2-0.1,0.2-0.3,0.2-0.5C89.2,115.6,89.1,115.3,88.8,115.3z"/>
				<path fill="#70613F" d="M78.8,250.3c0.3-0.2,0.5-0.7,0.3-1.1c-0.1-0.4-0.9-0.8-0.9-0.8c-0.2-0.1-0.5,0.2-0.6,0.4
					c-0.2,0.4-0.2,1,0.1,1.4C77.9,250.5,78.5,250.5,78.8,250.3z"/>
				<path fill="#70613F" d="M41.6,229c0.3-0.2,0.5-0.7,0.3-1.1c-0.1-0.4-0.9-0.8-0.9-0.8c-0.2-0.1-0.5,0.2-0.6,0.4
					c-0.2,0.4-0.2,1,0.1,1.4C40.8,229.2,41.3,229.3,41.6,229z"/>
				<path fill="#70613F" d="M65.3,213.6c0.3-0.2,0.5-0.7,0.3-1.1c-0.1-0.4-0.9-0.8-0.9-0.8c-0.2-0.1-0.5,0.2-0.6,0.4
					c-0.2,0.4-0.2,1,0.1,1.4C64.5,213.8,65,213.8,65.3,213.6z"/>
				<path fill="#70613F" d="M165,254.9c0.3-0.2,0.5-0.7,0.3-1.1c-0.1-0.4-0.9-0.8-0.9-0.8c-0.2-0.1-0.5,0.2-0.6,0.4
					c-0.2,0.4-0.2,1,0.1,1.4C164.2,255.1,164.7,255.2,165,254.9z"/>
				<path fill="#70613F" d="M182,223.5c0.3-0.2,0.5-0.7,0.3-1.1c-0.1-0.4-0.9-0.8-0.9-0.8c-0.2-0.1-0.5,0.2-0.6,0.4
					c-0.2,0.4-0.2,1,0.1,1.4C181.2,223.7,181.7,223.7,182,223.5z"/>
				<path fill="#70613F" d="M121.3,223.5c0.3-0.2,0.5-0.7,0.3-1.1c-0.1-0.4-0.9-0.8-0.9-0.8c-0.2-0.1-0.5,0.2-0.6,0.4
					c-0.2,0.4-0.2,1,0.1,1.4C120.5,223.7,121,223.7,121.3,223.5z"/>
				<path fill="#70613F" d="M171.8,163.2c0.3-0.2,0.5-0.7,0.3-1.1c-0.1-0.4-0.9-0.8-0.9-0.8c-0.2-0.1-0.5,0.2-0.6,0.4
					c-0.2,0.4-0.2,1,0.1,1.4C170.9,163.4,171.4,163.5,171.8,163.2z"/>
				<path fill="#70613F" d="M132,277.8c0.3-0.2,0.5-0.7,0.3-1.1c-0.1-0.4-0.9-0.8-0.9-0.8c-0.2-0.1-0.5,0.2-0.6,0.4
					c-0.2,0.4-0.2,1,0.1,1.4C131.1,278,131.6,278,132,277.8z"/>
				<path fill="#70613F" d="M119.4,188.7c0.3-0.2,0.5-0.7,0.3-1.1c-0.1-0.4-0.9-0.8-0.9-0.8c-0.2-0.1-0.5,0.2-0.6,0.4
					c-0.2,0.4-0.2,1,0.1,1.4C118.5,188.9,119,188.9,119.4,188.7z"/>
				<path fill="#70613F" d="M107.5,157.9c0.3-0.2,0.5-0.7,0.3-1.1c-0.1-0.4-0.9-0.8-0.9-0.8c-0.2-0.1-0.5,0.2-0.6,0.4
					c-0.2,0.4-0.2,1,0.1,1.4C106.7,158.1,107.2,158.2,107.5,157.9z"/>
				<path fill="#70613F" d="M158.8,119.7c0.3-0.2,0.5-0.7,0.3-1.1c-0.1-0.4-0.9-0.8-0.9-0.8c-0.2-0.1-0.5,0.2-0.6,0.4
					c-0.2,0.4-0.2,1,0.1,1.4C157.9,119.9,158.5,120,158.8,119.7z"/>
				<path fill="#70613F" d="M184,130.7c0.3-0.2,0.5-0.7,0.3-1.1c-0.1-0.4-0.9-0.8-0.9-0.8c-0.2-0.1-0.5,0.2-0.6,0.4
					c-0.2,0.4-0.2,1,0.1,1.4C183.1,130.9,183.6,131,184,130.7z"/>
				<path fill="#70613F" d="M63.8,143.3c0.3-0.2,0.5-0.7,0.3-1.1c-0.1-0.4-0.9-0.8-0.9-0.8c-0.2-0.1-0.5,0.2-0.6,0.4
					c-0.2,0.4-0.2,1,0.1,1.4C63,143.5,63.5,143.5,63.8,143.3z"/>
				<path fill="#70613F" d="M98.3,180.2c0.3-0.2,0.5-0.7,0.3-1.1c-0.1-0.4-0.9-0.8-0.9-0.8c-0.2-0.1-0.5,0.2-0.6,0.4
					c-0.2,0.4-0.2,1,0.1,1.4C97.4,180.4,97.9,180.4,98.3,180.2z"/>
				<path fill="#70613F" d="M36.4,163.2c0.3-0.2,0.5-0.7,0.3-1.1c-0.1-0.4-0.9-0.8-0.9-0.8c-0.2-0.1-0.5,0.2-0.6,0.4
					c-0.2,0.4-0.2,1,0.1,1.4C35.5,163.4,36,163.5,36.4,163.2z"/>
				<path fill="#70613F" d="M86.1,109.2c0.3-0.2,0.5-0.7,0.3-1.1c-0.1-0.4-0.9-0.8-0.9-0.8c-0.2-0.1-0.5,0.2-0.6,0.4
					c-0.2,0.4-0.2,1,0.1,1.4C85.3,109.4,85.8,109.5,86.1,109.2z"/>
				<path fill="#70613F" d="M129.7,100.7c0.3-0.2,0.5-0.7,0.3-1.1c-0.1-0.4-0.9-0.8-0.9-0.8c-0.2-0.1-0.5,0.2-0.6,0.4
					c-0.2,0.4-0.2,1,0.1,1.4C128.9,100.9,129.4,101,129.7,100.7z"/>
				<path fill="#70613F" d="M51.6,99.7c0.3-0.2,0.5-0.7,0.3-1.1c-0.1-0.4-0.9-0.8-0.9-0.8c-0.2-0.1-0.5,0.2-0.6,0.4
					c-0.2,0.4-0.2,1,0.1,1.4C50.8,99.9,51.3,99.9,51.6,99.7z"/>
				<path fill="#53422C" d="M104.5,290.2c-0.3,0-0.5,0.3-0.5,0.5c0,0.3,0.6,0.8,0.6,0.8c0.2,0.1,0.4,0.1,0.6-0.1
					c0.2-0.2,0.4-0.5,0.3-0.8C105.3,290.3,104.9,290.1,104.5,290.2z"/>
				<path fill="#53422C" d="M152.9,237.7c-0.3,0-0.5,0.3-0.5,0.5c0,0.3,0.6,0.8,0.6,0.8c0.2,0.1,0.4,0.1,0.6-0.1
					c0.2-0.2,0.4-0.5,0.3-0.8C153.7,237.9,153.3,237.7,152.9,237.7z"/>
				<path fill="#53422C" d="M134.1,209.5c-0.3,0-0.5,0.3-0.5,0.5c0,0.3,0.6,0.8,0.6,0.8c0.2,0.1,0.4,0.1,0.6-0.1
					c0.2-0.2,0.4-0.5,0.3-0.8C134.8,209.7,134.4,209.5,134.1,209.5z"/>
				<path fill="#53422C" d="M174.4,184.4c-0.3,0-0.5,0.3-0.5,0.5c0,0.3,0.6,0.8,0.6,0.8c0.2,0.1,0.4,0.1,0.6-0.1
					c0.2-0.2,0.4-0.5,0.3-0.8C175.1,184.6,174.7,184.4,174.4,184.4z"/>
				<path fill="#53422C" d="M157.6,151.3c-0.3,0-0.5,0.3-0.5,0.5c0,0.3,0.6,0.8,0.6,0.8c0.2,0.1,0.4,0.1,0.6-0.1
					c0.2-0.2,0.4-0.5,0.3-0.8C158.3,151.4,157.9,151.2,157.6,151.3z"/>
				<path fill="#53422C" d="M132.1,146.6c-0.3,0-0.5,0.3-0.5,0.5c0,0.3,0.6,0.8,0.6,0.8c0.2,0.1,0.4,0.1,0.6-0.1
					c0.2-0.2,0.4-0.5,0.3-0.8C132.9,146.8,132.5,146.6,132.1,146.6z"/>
				<path fill="#53422C" d="M165.9,270.3c-0.3,0-0.5,0.3-0.5,0.5c0,0.3,0.6,0.8,0.6,0.8c0.2,0.1,0.4,0.1,0.6-0.1
					c0.2-0.2,0.4-0.5,0.3-0.8C166.6,270.5,166.2,270.3,165.9,270.3z"/>
				<path fill="#53422C" d="M165.2,133.9c-0.3,0-0.5,0.3-0.5,0.5c0,0.3,0.6,0.8,0.6,0.8c0.2,0.1,0.4,0.1,0.6-0.1
					c0.2-0.2,0.4-0.5,0.3-0.8C165.9,134,165.5,133.8,165.2,133.9z"/>
				<path fill="#53422C" d="M136.8,125.1c-0.3,0-0.5,0.3-0.5,0.5c0,0.3,0.6,0.8,0.6,0.8c0.2,0.1,0.4,0.1,0.6-0.1
					c0.2-0.2,0.4-0.5,0.3-0.8C137.6,125.3,137.2,125.1,136.8,125.1z"/>
				<path fill="#53422C" d="M177.7,113.4c-0.3,0-0.5,0.3-0.5,0.5c0,0.3,0.6,0.8,0.6,0.8c0.2,0.1,0.4,0.1,0.6-0.1
					c0.2-0.2,0.4-0.5,0.3-0.8C178.4,113.6,178,113.4,177.7,113.4z"/>
				<path fill="#53422C" d="M91.8,139.7c-0.3,0-0.5,0.3-0.5,0.5c0,0.3,0.6,0.8,0.6,0.8c0.2,0.1,0.4,0.1,0.6-0.1
					c0.2-0.2,0.4-0.5,0.3-0.8C92.5,139.9,92.1,139.7,91.8,139.7z"/>
				<path fill="#53422C" d="M40.3,128.6c-0.3,0-0.5,0.3-0.5,0.5c0,0.3,0.6,0.8,0.6,0.8c0.2,0.1,0.4,0.1,0.6-0.1
					c0.2-0.2,0.4-0.5,0.3-0.8C41,128.7,40.6,128.5,40.3,128.6z"/>
				<path fill="#53422C" d="M71.8,191.6c-0.3,0-0.5,0.3-0.5,0.5c0,0.3,0.6,0.8,0.6,0.8c0.2,0.1,0.4,0.1,0.6-0.1
					c0.2-0.2,0.4-0.5,0.3-0.8C72.6,191.7,72.1,191.5,71.8,191.6z"/>
				<path fill="#53422C" d="M101.9,227.1c-0.3,0-0.5,0.3-0.5,0.5c0,0.3,0.6,0.8,0.6,0.8c0.2,0.1,0.4,0.1,0.6-0.1
					c0.2-0.2,0.4-0.5,0.3-0.8C102.7,227.3,102.3,227.1,101.9,227.1z"/>
				<path fill="#53422C" d="M138.3,97.5c-0.3,0-0.5,0.3-0.5,0.5c0,0.3,0.6,0.8,0.6,0.8c0.2,0.1,0.4,0.1,0.6-0.1
					c0.2-0.2,0.4-0.5,0.3-0.8C139,97.7,138.6,97.5,138.3,97.5z"/>
				<path fill="#53422C" d="M95.2,93.9c-0.3,0-0.5,0.3-0.5,0.5c0,0.3,0.6,0.8,0.6,0.8c0.2,0.1,0.4,0.1,0.6-0.1
					c0.2-0.2,0.4-0.5,0.3-0.8C96,94.1,95.6,93.9,95.2,93.9z"/>
				<path fill="#53422C" d="M117.8,79.8c-0.3,0-0.5,0.3-0.5,0.5c0,0.3,0.6,0.8,0.6,0.8c0.2,0.1,0.4,0.1,0.6-0.1
					c0.2-0.2,0.4-0.5,0.3-0.8C118.6,80,118.2,79.8,117.8,79.8z"/>
				<path fill="#53422C" d="M46.4,106.6c-0.3,0-0.5,0.3-0.5,0.5c0,0.3,0.6,0.8,0.6,0.8c0.2,0.1,0.4,0.1,0.6-0.1
					c0.2-0.2,0.4-0.5,0.3-0.8C47.1,106.8,46.7,106.6,46.4,106.6z"/>
				<path fill="#53422C" d="M155.4,104.2c-0.3,0-0.5,0.3-0.5,0.5c0,0.3,0.6,0.8,0.6,0.8c0.2,0.1,0.4,0.1,0.6-0.1
					c0.2-0.2,0.4-0.5,0.3-0.8C156.2,104.4,155.8,104.2,155.4,104.2z"/>
				<path fill="#53422C" d="M108.2,119.9c-0.3,0-0.5,0.3-0.5,0.5c0,0.3,0.6,0.8,0.6,0.8c0.2,0.1,0.4,0.1,0.6-0.1
					c0.2-0.2,0.4-0.5,0.3-0.8C109,120.1,108.6,119.9,108.2,119.9z"/>
				<path fill="#53422C" d="M90.4,288.8c-0.3,0-0.5,0.3-0.5,0.5c0,0.3,0.6,0.8,0.6,0.8c0.2,0.1,0.4,0.1,0.6-0.1
					c0.2-0.2,0.4-0.5,0.3-0.8C91.1,289,90.7,288.8,90.4,288.8z"/>
				<path fill="#53422C" d="M35.1,243.9c-0.3,0-0.5,0.3-0.5,0.5c0,0.3,0.6,0.8,0.6,0.8c0.2,0.1,0.4,0.1,0.6-0.1
					c0.2-0.2,0.4-0.5,0.3-0.8C35.8,244.1,35.4,243.9,35.1,243.9z"/>
			</g>
		</g>
	</g>
</g>
<g id="ch06-02-3">
	<g id="Layer_28">
	</g>
	<g id="hand_1_" display="none">
	</g>
	<g id="hand_x5F_copy" display="none">
	</g>
	<g id="hand_new">
	</g>
	<g id="hand_new_copy">
	</g>
</g>
<g id="ch05-08-3">
	<g id="main_x5F_comp-path_backup_copy">
	</g>
	<g id="main_x5F_comp_2_">
	</g>
</g>
<g id="ch04-07-2">
	<g id="new_base_1_">
	</g>
	<g id="hand">
	</g>
</g>
<g id="ch04-06-1">
	<g id="paths_1_" display="none">
		<g id="Layer_15_copy" display="inline">
		</g>
	</g>
	<g id="hand_w_jug_x5F_comp">
	</g>
	<g id="hand_w_jug_copy">
	</g>
</g>
<g id="ch04-03-2">
	<g id="paths" display="none">
		<g id="nose_x5F_34_x5F_side_path_x5D_" display="inline">
		</g>
		<g id="nose_x5F_34_x5F_side_path_x5D__copy" display="inline">
		</g>
	</g>
	<g id="main_comp_1_">
		<g id="base">
		</g>
		<g id="nose_x5F_34_x5F_side">
		</g>
		<g id="LID">
		</g>
	</g>
	<g id="base_copy">
	</g>
	<g id="nose_x5F_34_x5F_side_copy">
	</g>
	<g id="LID_copy">
	</g>
</g>
<g id="ch04-02-1">
	<g id="backup">
	</g>
</g>
<g id="ch07-12-4">
	<g id="hand_x5F_far">
	</g>
	<g id="hand_x5F_close_1_">
	</g>
	<g id="hand_x5F_far_copy">
	</g>
	<g id="hand_x5F_close_copy">
	</g>
</g>
<g id="ch08-04-1">
</g>
<g id="ch08-11-1">
	<g id="safety_x5F_copy" display="none">
		<g id="nose_copy" display="inline">
		</g>
		<g id="spout_copy" display="inline">
		</g>
		<g id="water_copy_2" display="inline">
		</g>
		<g id="sand_copy_2" display="inline">
		</g>
		<g id="back_copy_2" display="inline">
		</g>
		<g id="side_copy" display="inline">
		</g>
	</g>
	<g id="back_2_">
	</g>
	<g id="water" opacity="0.5">
	</g>
	<g id="sand">
	</g>
	<g id="side">
	</g>
	<g id="nose_7_">
	</g>
	<g id="spout_1_">
	</g>
	<g id="water_copy" opacity="0.5">
	</g>
	<g id="sand_copy">
	</g>
	<g id="nose_copy_2">
	</g>
	<g id="nose_copy_3">
	</g>
	<g id="back_copy">
	</g>
	<g id="back_copy_3">
	</g>
	<g id="side_copy_2">
	</g>
	<g id="side_copy_3">
	</g>
	<g id="spout_copy_2">
	</g>
	<g id="spout_copy_3">
	</g>
</g>
<g id="ch03-30-7">
</g>
<g id="ch03-30-8">
</g>
</svg>
