<?xml version="1.0" encoding="iso-8859-1"?>
<!-- Generator: Adobe Illustrator 18.1.1, SVG Export Plug-In . SVG Version: 6.00 Build 0)  -->
<svg version="1.1" xmlns="http://www.w3.org/2000/svg" xmlns:xlink="http://www.w3.org/1999/xlink" x="0px" y="0px"
	 viewBox="0 0 279.3 590.8" enable-background="new 0 0 279.3 590.8" xml:space="preserve">
<g id="Layer_1" display="none">
	<g id="ch03-17-01_x5F_levels.psd_1_" display="inline">
		<defs>
			<rect id="SVGID_1_" x="-1617.9" y="-225.4" width="1820.1" height="1023.8"/>
		</defs>
		<clipPath id="SVGID_2_">
			<use xlink:href="#SVGID_1_"  overflow="visible"/>
		</clipPath>
	</g>
</g>
<g id="BSFM_copy">
	<g id="body_x5F_back_1_">
	</g>
	<g id="water_copy" opacity="0.7">
	</g>
	<g id="sand_copy">
	</g>
	<g id="gravel_x5F_top_1_">
	</g>
	<g id="gravel_x5F_bottom_1_">
	</g>
	<g id="concrete_x5F_body_1_">
	</g>
	<g id="bsfm_x5F_nose_x5F_side_1_">
	</g>
	<g id="eye_1_">
	</g>
	<g id="white_x5F_hose_1_">
		<path d="M253.8,81c-11.9-7.3-29.6-7.1-41.7,0.6c-3.3,2.1-6.2,4.8-8.4,8c-7.4,10.6-7.1,23.7-7.2,36c-0.3,20-0.9,40-1.2,60
			c-1.1,64.8-1,129.6-1,194.4c0,30.2-0.5,60.5,0.5,90.7c0.6,16.9,2.1,34.3,1,51.2c-1.1,15.9-20.3,17.9-32.8,18.3
			c-8.1,0.2-16.2-0.3-24.3-1.2c-0.2,0-0.6,0.2-0.9,0.4c0,0,0,0,0,0c-0.5,0.2-1,0.6-1.1,0.9c-0.5,2.1,0.4,5.2,0.7,7.3
			c0,0.1,0,0.1,0.1,0.2c12.8,1.4,26.3,1.3,39.1-1c7.3-1.4,14.9-3.6,20.7-8.4c5.7-4.7,7.1-10.5,7.5-17.6c1.7-29.6,0.2-59.4-0.3-89
			c-0.5-35.9-0.8-71.7-0.9-107.6c-0.1-22.3,0-44.6,0.2-66.9c0.3-38.3,0.5-76.5,1.3-114.8c0.2-11.5,0.1-23.1,1.2-34.6
			c0.7-7.6,4.9-15.2,11.3-19.6c0.9-0.6,1.9-1.2,2.9-1.7c9.9-4.7,27.9-3.1,33,8.1c2.2,4.8,2.4,10.3,2.7,15.5c0,0.2,0.1,0.2,0.3,0.2
			c3,0,6,0,9.1,0c0.1,0,0.2,0,0.3,0c0.5,0,1.8-0.7,1.9-1.3C268.1,98.4,263.1,86.8,253.8,81z"/>
		<g>
			<path fill="#F1F2F3" d="M265.1,107.2c-0.2-6.3-2.1-12.6-5.8-17.8c-6.5-9.1-17.8-12.1-28.5-12c-6.8,0.1-13.1,1.6-18.3,5
				c-4,2.6-7.4,6.3-9.7,11.2c-3.2,6.9-4.2,14.8-4.4,22.4c-1,45.1-1.8,90.2-2,135.3c-0.3,58.3-0.3,116.6-0.1,174.8
				c0.1,26,0.8,51.9,1.3,77.9c0.2,9.8,2.4,21.7-5.8,28.9c-4.6,4.1-10.8,6.2-16.8,7.3c-12,2.3-24.5,1.7-36.6,0.5c0,2,0.3,5.4,0.7,5.7
				c0.2,0.2,1,0,1.2,0.1c2.4,0.8,5.8,0.4,8.3,0.5c4.1,0.2,8.2,0.2,12.2,0c10-0.3,20.8-1.3,30-5.7c9.2-4.5,11.1-11.8,11.5-21.1
				c0.6-13.2,0.4-26.5,0.3-39.7c-0.5-61.2-1.7-122.4-1.6-183.5c0-26.4,0.3-52.9,0.5-79.3c0.3-34.8,0-69.8,1.8-104.6
				c0.6-10.2,5.2-19.9,13.3-25.4c3-2,6.5-3.5,10.4-4.2c9.7-1.7,23.4,0,28,10c2.1,4.6,1.7,9.2,2.6,14c0.3,1.8-0.3,1.2,1.5,1.5
				c0.9,0.2,2.1,0,3,0c0.9,0,1.9,0,2.8,0C265.1,108.5,265.1,107.9,265.1,107.2z"/>
			<path d="M253.8,81c-11.9-7.3-29.6-7.1-41.7,0.6c-3.3,2.1-6.2,4.8-8.4,8c-7.4,10.6-7.1,23.7-7.2,36c-0.3,20-0.9,40-1.2,60
				c-1.1,64.8-1,129.6-1,194.4c0,30.2-0.5,60.5,0.5,90.7c0.6,16.9,2.1,34.3,1,51.2c-1.1,15.9-20.3,17.9-32.8,18.3
				c-8.1,0.2-16.2-0.3-24.3-1.2c-0.2,0-0.6,0.2-0.9,0.4c0,0,0,0,0,0c-0.5,0.2-1,0.6-1.1,0.9c-0.5,2.1,0.4,5.2,0.7,7.3
				c0,0.1,0,0.1,0.1,0.2c12.8,1.4,26.3,1.3,39.1-1c7.3-1.4,14.9-3.6,20.7-8.4c5.7-4.7,7.1-10.5,7.5-17.6c1.7-29.6,0.2-59.4-0.3-89
				c-0.5-35.9-0.8-71.7-0.9-107.6c-0.1-22.3,0-44.6,0.2-66.9c0.3-38.3,0.5-76.5,1.3-114.8c0.2-11.5,0.1-23.1,1.2-34.6
				c0.7-7.6,4.9-15.2,11.3-19.6c0.9-0.6,1.9-1.2,2.9-1.7c9.9-4.7,27.9-3.1,33,8.1c2.2,4.8,2.4,10.3,2.7,15.5c0,0.2,0.1,0.2,0.3,0.2
				c3,0,6,0,9.1,0c0.1,0,0.2,0,0.3,0c0.5,0,1.8-0.7,1.9-1.3C268.1,98.4,263.1,86.8,253.8,81z M262.3,109.1c-1,0-2.1,0.2-3,0
				c-1.8-0.3-1.1,0.2-1.5-1.5c-0.9-4.8-0.5-9.4-2.6-14c-4.6-10-18.3-11.7-28-10c-3.9,0.7-7.4,2.2-10.4,4.2
				c-8.2,5.5-12.8,15.2-13.3,25.4c-1.8,34.8-1.5,69.8-1.8,104.6c-0.2,26.4-0.5,52.9-0.5,79.3c-0.1,61.2,1.1,122.4,1.6,183.5
				c0.1,13.2,0.3,26.5-0.3,39.7c-0.4,9.4-2.3,16.7-11.5,21.1c-9.1,4.4-20,5.4-30,5.7c-4.1,0.1-8.2,0.1-12.2,0
				c-2.5-0.1-5.9,0.2-8.3-0.5c-0.3-0.1-1,0.1-1.2-0.1c-0.4-0.3-0.7-3.6-0.7-5.7c12.1,1.2,24.6,1.9,36.6-0.5c6-1.2,12.1-3.2,16.8-7.3
				c8.2-7.2,6-19.1,5.8-28.9c-0.5-26-1.2-51.9-1.3-77.9c-0.2-58.3-0.2-116.6,0.1-174.8c0.2-45.1,1-90.2,2-135.3
				c0.2-7.6,1.1-15.4,4.4-22.4c2.3-4.9,5.6-8.6,9.7-11.2c5.2-3.3,11.5-4.9,18.3-5c10.7-0.1,22,2.9,28.5,12
				c3.7,5.1,5.5,11.5,5.8,17.8c0,0.6,0,1.2,0,1.9C264.2,109.1,263.2,109.1,262.3,109.1z"/>
		</g>
	</g>
	<g id="diffuser_1_">
	</g>
	<g id="Lid_1_">
	</g>
</g>
<g id="BSFM">
	<g id="body_x5F_back">
		<g id="gravel_1_">
		</g>
	</g>
	<g id="water" opacity="0.7">
	</g>
	<g id="sand">
	</g>
	<g id="gravel_x5F_top">
	</g>
	<g id="gravel_x5F_bottom">
		<g id="Layer_11">
		</g>
	</g>
	<g id="concrete_x5F_body">
		<g id="gravel">
		</g>
	</g>
	<g id="bsfm_x5F_nose_x5F_side">
	</g>
	<g id="eye">
	</g>
	<g id="white_x5F_hose">
	</g>
	<g id="diffuser">
	</g>
	<g id="Lid">
	</g>
</g>
<g id="Layer_20">
	<g id="water_x5F_LowLevel">
	</g>
	<g id="water_x5F_highLevel">
	</g>
	<g id="body">
	</g>
	<g id="lid">
	</g>
</g>
</svg>
