<?xml version="1.0" encoding="utf-8"?>
<!-- Generator: Adobe Illustrator 18.1.1, SVG Export Plug-In . SVG Version: 6.00 Build 0)  -->
<!DOCTYPE svg PUBLIC "-//W3C//DTD SVG 1.1//EN" "http://www.w3.org/Graphics/SVG/1.1/DTD/svg11.dtd">
<svg version="1.1" xmlns="http://www.w3.org/2000/svg" xmlns:xlink="http://www.w3.org/1999/xlink" x="0px" y="0px"
	 viewBox="0 0 184.3 381.3" enable-background="new 0 0 184.3 381.3" xml:space="preserve">
<g id="ch04-06-1">
</g>
<g id="ch04-03-2">
</g>
<g id="ch04-02-1">
	<g id="backup" display="none">
	</g>
	<g id="new_base_1_">
		<path d="M183.9,319.3c0-11.1,0-22.2,0-33.3c0-35.7,0-71.4,0-107.1c0-37.6,0-75.1,0-112.7c0-13.4,0-26.8,0-40.3c0-4.3,0-8.6,0-12.9
			c0-2,0.5-4.9,0-6.9c-0.1-0.3,0-0.6,0-0.9c0-0.2,0-0.3-0.1-0.3c0,0,0,0,0,0c-0.1-0.1-0.3-0.1-0.4,0c0,0-0.1,0-0.1,0
			c-26.1-1.6-52.2-3.2-78.3-4.8c-6.4-0.4-12.3,0.4-18.8,1.1C69.8,3,53.4,4.8,37.1,6.6C25.2,7.9,13.3,9.3,1.5,10.6
			c-0.1,0-0.1,0-0.2,0c-0.5,0-1.3,0.6-1.3,1.2c0,0,0,0.1,0,0.1C0,11.9,0,12,0,12c0,0,0,0,0,0c0,38,0,76.1,0,114.2
			c0,60.4,0,120.7,0,181.1c0,13.8,0,27.7,0,41.5c0,0.1,0.1,0.3,0.2,0.4c34.4,9.4,68.8,18.7,103.3,28c4.8,1.3,9.6,2.6,14.4,3.9
			c0,0.1,0.1,0.1,0.2,0.2c0.1,0.1,0.4,0.1,0.7-0.2c10.3-8.1,20.7-16.2,31-24.3c7.3-5.7,14.6-11.5,22-17.2c3.4-2.7,8.6-5.4,11.3-8.9
			C185.1,328.2,183.9,322.4,183.9,319.3z M79.6,3.2c6.8-0.8,14-2.3,20.9-1.9C114.7,2.2,129,3.1,143.2,4c11.5,0.7,23,1.4,34.5,2.1
			c-19.5,4.1-39,8.1-58.4,12.2c-0.1,0-0.1-0.1-0.2-0.1c-34.4-2.2-68.7-4.5-103-6.7c-2.4-0.2-4.7-0.3-7.1-0.5
			C32.4,8.4,56,5.8,79.6,3.2z M119.3,380.6c0,0,0.1-0.1,0.1-0.1C119.3,380.5,119.3,380.6,119.3,380.6z M118.7,381.1
			c-0.1,0-0.1,0.1-0.2,0.1C118.5,381.1,118.6,381.1,118.7,381.1z M22.5,353.3c-6.2-1.7-12.3-3.4-18.5-5c-0.5-0.1-2.2-0.8-2.3-0.5
			c-0.1-0.4,0-0.9,0-1.2c0-8.2,0-16.3,0-24.5c0-36.8,0-73.5,0-110.3c0-42.9,0-85.8,0-128.7c0-15.8,0-31.6,0-47.4
			c0-5.2,0-10.4,0-15.6c0-2.2,0.7-5.7,0.1-8c34.5,2.2,68.9,4.5,103.4,6.7c3,0.2,6.1,0.4,9.2,0.6c0.8,0.1,2.9-0.2,3.7,0.2
			c-0.7-0.3-0.3,2.8-0.3,3.8c0,10.4,0,20.7,0,31.1c0,39.7,0,79.3,0.1,119c0,44.5,0,89,0.1,133.5c0,0.9,0,1.8,0,2.8
			c0,8.8,0,17.6,0,26.4c0,9.9,0,19.8,0,29.8c0,2.3,0,4.5,0,6.8c-0.1,1.5-0.2,3.2-0.2,4.7c0,0,0,0,0,0c0,0.5,0,1,0,1.4
			C85.9,370.6,54.2,361.9,22.5,353.3z M172.1,337.9c-14.7,11.5-29.3,23-44,34.5c-2.9,2.2-5.7,4.5-8.5,6.7c0-11.7,0-23.3,0-35
			c0-19.7,0-39.3,0-59c0-19.5,0-38.9,0-58.4c0-39.3,0-78.6,0.1-117.9c0-26.6,0-53.2,0-79.8c0-2.7,0-5.4,0-8.2c0-0.2,0.1-0.8,0.1-1.2
			c2,0.1,5.1-1.1,7-1.5c4-0.9,8.1-1.7,12.1-2.5c9.5-2,19.1-4,28.7-6c3.6-0.8,7.3-1.5,10.9-2.3c0.7-0.2,2.8-1,4-1c0,0,0.1,0,0.1,0
			c0,0,0,0,0,0c0,0,0.1,0,0.1,0c-0.8,0-0.3,2.2-0.3,3.3c0,8.8,0,17.6,0,26.4c0,34.1,0,68.2,0,102.3c0,39.1,0,78.2,0,117.4
			c0,23.7,0,47.5,0,71.2c0,0.7-0.2,1.9,0,2.6c0.1,0.2,0.1,0.4,0.1,0.6c0,0,0,0,0,0C179.6,333.1,175.2,335.5,172.1,337.9z M182.6,6.4
			c0.1,0,0.1,0,0.2,0C182.8,6.4,182.7,6.4,182.6,6.4z"/>
		<path fill="none" stroke="#000000" stroke-width="0" stroke-linecap="round" stroke-linejoin="round" d="M182.6,6.4
			c0.1,0,0.1,0,0.2,0"/>
		<path fill="#1FA6AA" d="M182.3,330.1c0-0.1,0-0.3-0.1-0.6c-0.2-0.7,0-1.8,0-2.6c0-23.7,0-47.5,0-71.2c0-39.1,0-78.2,0-117.4
			c0-34.1,0-68.2,0-102.3c0-8.8,0-17.6,0-26.4c0-1.1-0.5-3.3,0.3-3.3c0,0-0.1,0-0.1,0c0,0,0,0,0,0c0,0-0.1,0-0.1,0
			c-1.1,0-3.2,0.8-4,1c-3.6,0.8-7.3,1.5-10.9,2.3c-9.5,2-19.1,4-28.7,6c-4,0.8-8.1,1.7-12.1,2.5c-1.9,0.4-4.9,1.7-7,1.5
			c0,0.5-0.1,1-0.1,1.2c0,2.7,0,5.4,0,8.2c0,26.6,0,53.2,0,79.8c0,39.3,0,78.6-0.1,117.9c0,19.5,0,38.9,0,58.4c0,19.7,0,39.3,0,59
			c0,11.7,0,23.3,0,35c2.8-2.2,5.7-4.5,8.5-6.7c14.7-11.5,29.3-23,44-34.5C175.2,335.5,179.6,333.1,182.3,330.1
			C182.3,330.1,182.3,330.1,182.3,330.1z"/>
		<path fill="none" stroke="#000000" stroke-width="0" stroke-linecap="round" stroke-linejoin="round" d="M182.3,6.4
			c0,0,0.1,0,0.1,0"/>
		<path fill="#B7BBBF" d="M119,18.2c0.1,0,0.2,0,0.2,0.1c19.5-4.1,39-8.1,58.4-12.2c-11.5-0.7-23-1.4-34.5-2.1
			c-14.2-0.9-28.5-1.8-42.7-2.6c-6.9-0.4-14,1.1-20.9,1.9C56,5.8,32.4,8.4,8.8,11c2.4,0.1,4.7,0.3,7.1,0.5
			C50.3,13.7,84.6,16,119,18.2z M18.9,10.2c0,0,0.1,0,0.1,0c9.8-1,19.6-1.9,29.5-2.9C62,6,75.5,4.6,89,3.3c3.7-0.3,7.2-0.8,10.8-0.9
			c0.2-0.2,0.4-0.2,0.5-0.1c0,0,0,0.1,0,0.1c1.3,0,2.6,0,4,0.1c21.6,1.2,43.2,2.4,64.8,3.6c0,0,0,0,0,0c0.2,0,0,0.4-0.3,0.7v0
			c0,0-0.1,0.1-0.1,0.2c0,0,0,0-0.1,0.1c-0.1,0.1-0.2,0.1-0.3,0.2c0,0-0.1,0-0.1,0c-12.1,2.4-24.2,4.8-36.3,7.2
			c-5.8,1.2-11.4,2.8-17.3,2.5c-4.4-0.3-8.9-0.5-13.3-0.8c-6.6-0.4-13.2-0.8-19.8-1.2c-21.1-1.2-42.3-2.4-63.4-3.7
			C17.7,11.3,18.6,10.2,18.9,10.2z"/>
		<path fill="none" stroke="#000000" stroke-width="0" stroke-linecap="round" stroke-linejoin="round" d="M168.6,7
			C168.6,7,168.6,7,168.6,7"/>
		<path fill="none" stroke="#000000" stroke-width="0" stroke-linecap="round" stroke-linejoin="round" d="M168.3,7.2
			c0.1,0,0.2-0.1,0.3-0.2"/>
		<path fill="#B7BBBF" d="M117.2,15.8c1.8,0.1,2.5,0,4.3-0.4c5.6-1.1,11.1-2.2,16.7-3.3c8.7-1.7,17.4-3.4,26.2-5.2
			c-9.5-0.5-19-1.1-28.5-1.6c-11.6-0.7-23.2-1.3-34.9-2c-0.2,0-0.4,0-0.6,0c0.6,3.8,1.3,7.7,1.9,11.5
			C107.3,15.3,112.2,15.5,117.2,15.8z"/>
		<path fill="none" stroke="#000000" stroke-width="0" stroke-linecap="round" stroke-linejoin="round" d="M119.3,380.5
			c0,0,0,0.1-0.1,0.1"/>
		<path fill="none" stroke="#000000" stroke-width="0" stroke-linecap="round" stroke-linejoin="round" d="M118.5,381.2
			c0.1,0,0.1-0.1,0.2-0.1"/>
		<path fill="#1FA6AA" d="M117.7,377.7C117.7,377.7,117.7,377.7,117.7,377.7c-0.1-1.6,0.1-3.2,0.2-4.8c0-2.3,0-4.6,0-6.8
			c0-9.9,0-19.8,0-29.8c0-8.8,0-17.6,0-26.4c0-0.9,0-1.9,0-2.8c0-44.5,0-89-0.1-133.5c0-39.7,0-79.4-0.1-119c0-10.4,0-20.8,0-31.1
			c0-1-0.4-4.1,0.3-3.8c-0.8-0.4-2.9-0.1-3.7-0.2c-3.1-0.2-6.1-0.4-9.2-0.6c-34.5-2.2-68.9-4.5-103.4-6.7c0.6,2.2-0.1,5.7-0.1,8
			c0,5.2,0,10.4,0,15.6c0,15.8,0,31.6,0,47.4c0,42.9,0,85.8,0,128.7c0,36.8,0,73.6,0,110.3c0,8.2,0,16.3,0,24.5c0,0.2-0.1,0.8,0,1.2
			c0.1-0.3,1.9,0.4,2.3,0.5c6.2,1.7,12.3,3.3,18.5,5c31.7,8.6,63.4,17.2,95.2,25.8C117.6,378.7,117.6,378.2,117.7,377.7z"/>
		<path d="M81.5,14.9c6.6,0.4,13.2,0.8,19.8,1.2c4.4,0.3,8.9,0.5,13.3,0.8c5.9,0.3,11.5-1.3,17.3-2.5c12.1-2.4,24.2-4.8,36.3-7.2
			c0,0,0,0,0.1,0c0.1,0,0.2-0.1,0.3-0.2c0,0,0.1,0,0.1-0.1c0.1,0,0.1-0.1,0.1-0.2v0c0.3-0.3,0.5-0.7,0.3-0.7c0,0,0,0,0,0
			c-21.6-1.2-43.2-2.4-64.8-3.6c-1.3-0.1-2.6-0.1-4-0.1c0,0,0,0,0-0.1c0-0.1-0.2-0.1-0.5,0.1C96.2,2.5,92.6,3,89,3.3
			C75.5,4.6,62,6,48.5,7.3c-9.8,1-19.6,1.9-29.5,2.9c0,0-0.1,0-0.1,0c-0.3,0-1.2,1.1-0.8,1.1C39.2,12.5,60.4,13.7,81.5,14.9z
			 M101,3.5c11.6,0.6,23.3,1.3,34.9,2c9.5,0.5,19,1.1,28.5,1.6c-8.7,1.7-17.4,3.4-26.2,5.2c-5.6,1.1-11.1,2.2-16.7,3.3
			c-1.8,0.4-2.6,0.5-4.3,0.4c-5-0.3-9.9-0.6-14.9-0.9c-0.6-3.8-1.3-7.7-1.9-11.5C100.6,3.5,100.8,3.5,101,3.5z M83.7,4.9
			c5-0.5,10.5-1.5,15.4-1.5c0.6,3.8,1.3,7.7,1.9,11.5c-18.8-1.1-37.6-2.2-56.4-3.3c-6.3-0.4-12.6-0.7-18.9-1.1
			C45,8.7,64.4,6.8,83.7,4.9z"/>
		<path fill="#B7BBBF" d="M101,14.9c-0.6-3.8-1.3-7.7-1.9-11.5c-5,0-10.4,1-15.4,1.5c-19.3,1.9-38.7,3.8-58,5.7
			c6.3,0.4,12.6,0.7,18.9,1.1C63.4,12.7,82.2,13.8,101,14.9z"/>
	</g>
</g>
</svg>
