<?xml version="1.0" encoding="utf-8"?>
<!-- Generator: Adobe Illustrator 18.1.1, SVG Export Plug-In . SVG Version: 6.00 Build 0)  -->
<svg version="1.0" id="Layer_1" xmlns="http://www.w3.org/2000/svg" xmlns:xlink="http://www.w3.org/1999/xlink" x="0px" y="0px"
	 viewBox="103.7 151.4 57.6 31.5" enable-background="new 103.7 151.4 57.6 31.5" xml:space="preserve">
<g id="body_x5F_back">
	<g id="gravel_1_">
	</g>
</g>
<g id="water" opacity="0.7">
</g>
<g id="sand">
</g>
<g id="gravel_x5F_top">
</g>
<g id="gravel_x5F_bottom">
	<g id="Layer_11">
	</g>
</g>
<g id="concrete_x5F_body">
	<g id="gravel">
	</g>
</g>
<g id="bsfm_x5F_nose_x5F_side">
</g>
<g id="eye">
</g>
<g id="white_x5F_hose">
</g>
<g id="diffuser">
</g>
<linearGradient id="SVGID_1_" gradientUnits="userSpaceOnUse" x1="132.3248" y1="177.922" x2="132.3248" y2="159.2538">
	<stop  offset="0" style="stop-color:#15DBFF"/>
	<stop  offset="0.7639" style="stop-color:#55EEFF;stop-opacity:0"/>
</linearGradient>
<path fill="url(#SVGID_1_)" d="M158.1,172.9c0.1,0.7,0.3,1.5,0.1,2.2c-0.2,0.9-1.1,1.5-1.9,1.9c-4.1,1.4-5-1.9-7.8-3.9
	c-1.2-0.8-2.7-1.3-4-0.7c-2.8,1.1-3,5-6.5,5.3c-5.9,0.4-3.5-7.8-8.4-8.4c-4.9-0.6-1.9,7.7-6.8,8.5c-5.5,0.8-4.6-4.8-6.5-7.9
	c-0.5-0.8-3.4-2.1-4.4-1.1c-2.2,2.1,1.7,6.6-1.8,8.8c-0.8,0.5-1.8,0.5-2.6,0c-2.2-1.4-1.1-14,0.8-17c1.8-3,16.9,0.4,24,0.3
	c7.1,0,23.1-2.5,24.5,0.7"/>
</svg>
