<?xml version="1.0" encoding="utf-8"?>
<!-- Generator: Adobe Illustrator 18.1.1, SVG Export Plug-In . SVG Version: 6.00 Build 0)  -->
<!DOCTYPE svg PUBLIC "-//W3C//DTD SVG 1.1//EN" "http://www.w3.org/Graphics/SVG/1.1/DTD/svg11.dtd">
<svg version="1.1" xmlns="http://www.w3.org/2000/svg" xmlns:xlink="http://www.w3.org/1999/xlink" x="0px" y="0px"
	 viewBox="0 0 108.5 100.8" enable-background="new 0 0 108.5 100.8" xml:space="preserve">
<g id="ch04-07-2">
	<g id="new_base_1_">
	</g>
	<g id="hand">
	</g>
	<g id="nose_6_">
		<g>
			<g id="XMLID_13_">
				<g>
					<path d="M108.2,42.8c0.1,0.3-0.1,0.6-0.3,0.8c-0.5-0.1-1.8,0.6-2,0.7c-0.2,0.2-0.4,0.3-0.6,0.5c-0.1,0-0.2-0.1-0.3-0.2
						c0,0,0,0-0.1-0.1c0,0,0-0.1,0-0.1c0.5-0.4,1-0.9,1.5-1.3c0.2-0.1,0.3-0.1,0.5-0.1c-0.5-0.3-1.8,0.5-2,0.9
						c0,0.1-0.1,0.2-0.1,0.3c-0.1,0.1-0.1,0.2,0,0.3c0,0,0,0.1,0.1,0.1c-0.3,0.8-3.6-1.8-3.6-1.8c-2.5-2.1-4.9-4.4-7.4-6.6
						c-4.5-4-8.9-7.9-13.4-11.8c-4.7-4.2-9.4-8.3-14.2-12.5C63.5,9.3,57.6,6,56.7,2c0.3-0.3,0.7-0.5,1-0.8c0,0,0,0,0,0
						c4.8,1.2,8.7,6.2,12.3,9.4c4,3.5,8,7,12,10.5c4.2,3.7,8.5,7.4,12.7,11.1c2.3,2,4.5,3.9,6.8,5.9c1.5,1.3,3.6,3.9,5.7,3.9
						c0.2,0,0.8,0,0.8,0.3C108.1,42.4,108.2,42.6,108.2,42.8z"/>
					<path d="M107.9,43.6c0.2,0,0.3,0.2,0.1,0.5c-2.3,4.7-7.5,9-11.4,12.5c-4.4,4-9,7.8-14,11.1c-4.9,3.4-10.1,6.3-15.5,9
						c-4,1.9-8.9,4.9-13.4,5.5c0.3-0.2,0.6-0.5,0.5-0.7c0-0.1-0.1-0.2-0.1-0.3c4-2.4,8.9-3.8,13.1-6c4.8-2.4,9.5-5.2,13.9-8.2
						c4.6-3.2,9.1-6.7,13.2-10.6c3.8-3.6,6.9-8,10.9-11.4c0.6,0.2,1.5-0.4,1.8-0.6c0.1-0.1,0.2-0.1,0.3-0.2
						C107.5,43.9,107.7,43.8,107.9,43.6z"/>
					<path d="M105.9,44.3c0.2-0.1,1.5-0.8,2-0.7c-0.2,0.2-0.4,0.3-0.5,0.5c-0.1,0.1-0.2,0.1-0.3,0.2c-0.3,0.2-1.2,0.7-1.8,0.6
						C105.5,44.6,105.7,44.5,105.9,44.3z"/>
					<path d="M107,43c-0.2,0-0.3,0.1-0.5,0.1c-0.5,0.4-1,0.9-1.5,1.3c0,0,0,0.1,0,0.1c0,0,0-0.1-0.1-0.1c0-0.1,0-0.2,0-0.3
						c0-0.1,0.1-0.2,0.1-0.3C105.2,43.5,106.6,42.6,107,43z"/>
					<path fill="#1FA6AA" d="M105,44.6c0.1,0.1,0.2,0.2,0.3,0.2c-4,3.4-7.1,7.8-10.9,11.4c-4.1,3.9-8.5,7.4-13.2,10.6
						c-4.4,3.1-9.1,5.8-13.9,8.2c-4.2,2.1-9,3.5-13.1,6c-1-3.2-3.9-5.8-6.1-8.4c-2.3-2.8-4.6-5.5-6.9-8.3c-4.6-5.5-9.2-11-13.8-16.5
						c-4.3-5.2-8.6-10.4-13.1-15.4C11.4,29.4,8,24.7,3.9,23c19.8-1.6,37.3-8.4,52.8-21c0.8,4,6.8,7.3,9.7,9.9
						c4.7,4.2,9.4,8.3,14.2,12.5c4.5,3.9,8.9,7.9,13.4,11.8c2.5,2.2,4.9,4.4,7.4,6.6C101.4,42.8,104.7,45.3,105,44.6
						C105,44.6,105,44.6,105,44.6z"/>
					<path d="M55.7,0.9c0.8-0.7,3.8-1.1,2.1,0.3c0,0,0,0,0,0c-0.3-0.1-0.6-0.1-1-0.2c0,0-0.2,0-0.2,0.1c0,0.3,0,0.6,0.1,0.9
						C41.2,14.6,23.7,21.4,3.9,23c-0.8-0.3-1.6-0.5-2.4-0.6c0,0-0.2,0-0.2,0.1c0,0.1,0,0.2,0,0.3c-0.1,0.1-0.1,0.3-0.2,0.4
						c-0.1,0-0.3,0-0.4,0c-1.4,0.1,0.7-1.5,1.4-1.5C22,20.3,40.6,14.5,55.7,0.9z"/>
					<path d="M57.7,1.2c-0.3,0.3-0.7,0.6-1,0.8c-0.1-0.3-0.1-0.6-0.1-0.9C56.6,1,56.7,1,56.8,1C57.1,1.1,57.4,1.1,57.7,1.2z"/>
					<path d="M54.3,81.3c0.1,0.2-0.2,0.5-0.5,0.7c0,0,0,0,0,0c0.4-0.4,0.6-0.8,0.4-1c0,0,0,0,0,0C54.3,81.1,54.3,81.2,54.3,81.3z"/>
					<path d="M54.3,81.1C54.2,81.1,54.2,81.1,54.3,81.1c-0.1-0.1-0.4-0.1-1,0c-0.8,0.2-1.5,0.3-2.3,0.5c-4.7-3.3-8.4-9.5-11.9-13.8
						c-4.6-5.5-9.2-11-13.9-16.5c-4.4-5.2-8.7-10.5-13.1-15.6c-2.1-2.4-4.2-4.8-6.4-7c-0.8-0.8-1.7-1.5-2.4-2.2
						c-0.2-1.2-0.6-2.3-1.3-3.2c0.7,0,1.3-0.1,2-0.1c4.1,1.7,7.5,6.4,10.3,9.5c4.5,5,8.8,10.2,13.1,15.4c4.6,5.5,9.2,11,13.8,16.5
						c2.3,2.7,4.6,5.5,6.9,8.3C50.3,75.3,53.2,77.8,54.3,81.1z"/>
					<path d="M54.2,81.1c0.2,0.2-0.1,0.6-0.4,1c-0.3,0-0.6,0.1-0.9,0.1c-0.3,0,0.1-0.3,0.2-0.3C53.4,81.6,53.8,81.3,54.2,81.1z"/>
					<path d="M54.2,81.1c-0.4,0.2-0.8,0.5-1.2,0.7c0,0-0.4,0.3-0.2,0.3c0.3,0,0.6,0,0.9-0.1c0,0,0,0,0,0.1l0,0
						c-0.4,0.3-1,0.4-1.2,0.3c-0.5-0.3-1-0.6-1.5-0.9c0.8-0.1,1.5-0.3,2.3-0.5C53.8,80.9,54.1,81,54.2,81.1z"/>
					<path d="M53.8,82.1C53.8,82.1,53.8,82.1,53.8,82.1C53.8,82.1,53.8,82.1,53.8,82.1C53.8,82.1,53.8,82.1,53.8,82.1z"/>
					<path d="M52.5,82.4c0.2,0.1,0.8,0,1.2-0.3c-0.4,0.4-1,0.8-1.4,0.9c-2.3,0.5-4.5,0.9-6.8,1.3c0-0.4-0.1-0.8-0.1-1.2
						c0-0.3-0.4-0.3-0.8-0.2l0-0.2c2.2-0.3,4.3-0.7,6.5-1.2C51.5,81.8,52,82.1,52.5,82.4z"/>
					<path fill="#1FA6AA" d="M39.1,67.7C42.6,72,46.4,78.2,51,81.5c-2.2,0.4-4.3,0.8-6.5,1.2C30.8,84.9,17,85.4,3,84.7
						c0,0-0.1,0-0.1,0c1.4-4.2,0.8-9.3,0.9-13.7c0.1-5.8,0.1-11.5,0.1-17.3c0-5.4-0.1-10.9-0.3-16.3c-0.1-3,0.5-7.6-0.3-11.2
						c0.7,0.7,1.6,1.4,2.4,2.2c2.2,2.3,4.3,4.6,6.4,7c4.5,5.1,8.8,10.4,13.1,15.6C29.8,56.7,34.4,62.2,39.1,67.7z"/>
					<path d="M44.5,82.9c0.4-0.1,0.8-0.1,0.8,0.2c0,0.4,0.1,0.8,0.1,1.2c-0.9,0.1-1.7,0.3-2.6,0.4c0-0.2,0-0.4-0.1-0.6
						C42.9,83.7,43.8,83.1,44.5,82.9z"/>
					<path d="M42.9,84.8c0.9-0.1,1.7-0.3,2.6-0.4c0.3,2.5,0.6,5.1,1.2,7.6c0.3,1.5,1.5,3.5,0.9,5.1c-0.9,2.1-4.4,3-6.4,3.3
						c-1.7,0.3-3.5,0.3-5.2,0c-0.9-0.2-3-0.5-3.4-1.4c-0.3-0.6,0.2-1.5,0.3-2.1c0.3-1.3,0.5-2.7,0.6-4.1c0.2-2.3,0.2-4.5,0.8-6.7
						c0.6-0.1,1.1-0.1,1.7-0.2c0.2,2.7-0.8,5.8-1,8.5c-0.2,3,0.7,3.9,3.6,4.2c1.9,0.2,4.1,0.1,5.8-0.8c0,0.2-0.1,0.4-0.1,0.6
						c0.3-0.3,0.6-0.7,0.9-1c-0.2,0.2-0.5,0.3-0.8,0.5c0.2-1.8-0.6-4.4-0.8-6.1C43.3,89.3,43.1,87,42.9,84.8z"/>
					<path d="M44.5,82.7l0,0.2c-0.7,0.2-1.7,0.8-1.6,1.2c0,0.2,0,0.4,0.1,0.6c-2.3,0.4-4.7,0.7-7,1c0-0.4-0.1-0.8-0.2-1.2
						c-0.1-0.3-1.2,0.4-1.2,0.6c-0.1,0.3-0.2,0.5-0.3,0.8C23.2,87.2,12,87.5,1,86.5c-0.5,0-0.3-0.4,0.2-0.8c0.1,0.2,0.2,0.4,0.3,0.6
						c0.1,0.3,1-0.3,1.1-0.5c0.1-0.3,0.3-0.7,0.4-1c0,0,0.1,0,0.1,0C17,85.4,30.8,84.9,44.5,82.7z"/>
					<path fill="#FFFFFF" d="M42.9,84.8c0.2,2.3,0.4,4.5,0.6,6.8c0.2,1.7,1,4.3,0.8,6.1c-1.7,0.9-4,1-5.8,0.8
						c-3-0.3-3.8-1.2-3.6-4.2c0.2-2.7,1.2-5.7,1-8.5C38.3,85.5,40.6,85.1,42.9,84.8z"/>
					<path d="M45.2,97.2c-0.3,0.3-0.6,0.7-0.9,1c0-0.2,0.1-0.4,0.1-0.6C44.7,97.5,44.9,97.3,45.2,97.2z"/>
					<path d="M35.7,84.6c0.1,0.4,0.2,0.8,0.2,1.2c-0.6,0.1-1.1,0.1-1.7,0.2c0.1-0.3,0.2-0.5,0.3-0.8C34.6,85,35.7,84.3,35.7,84.6z"
						/>
					<path d="M3.9,23c-0.7,0.1-1.3,0.1-2,0.1c-0.1-0.2-0.3-0.3-0.4-0.5c0,0-0.1,0-0.1,0.1c0,0,0,0,0,0c0-0.1,0-0.2,0-0.3
						c0-0.1,0.1-0.1,0.2-0.1C2.4,22.5,3.1,22.7,3.9,23z"/>
					<path d="M1.9,23.2c0.6,0.9,1,1.9,1.3,3.2c-0.9-0.9-1.7-1.8-1.8-3.1C1.6,23.2,1.7,23.2,1.9,23.2z"/>
					<path d="M1.9,23.2c-0.2,0-0.3,0-0.5,0c0-0.1,0-0.3,0-0.4c0,0,0,0,0,0c0,0,0.1-0.1,0.1-0.1C1.6,22.8,1.8,23,1.9,23.2z"/>
					<path d="M1.2,23.2c0-0.1,0.1-0.3,0.2-0.4c0,0.1,0,0.3,0,0.4C1.3,23.2,1.3,23.2,1.2,23.2z"/>
					<path d="M1.2,23.2c0.1,0,0.1,0,0.2,0c0.1,1.3,0.9,2.3,1.8,3.1c0.7,3.6,0.2,8.2,0.3,11.2C3.7,43,3.8,48.4,3.8,53.8
						c0,5.8,0,11.5-0.1,17.3c-0.1,4.4,0.5,9.4-0.9,13.7c-0.4,0.1-1.2,0.5-1.7,0.9C-0.5,81.6,0.9,75.5,1,71.2
						c0.1-5.4,0.1-10.9,0.1-16.3c0-5.8-0.2-11.5-0.3-17.3C0.6,33-0.5,27.6,1.2,23.2z"/>
					<path d="M1.1,85.7c0.5-0.4,1.3-0.9,1.7-0.9c-0.1,0.4-0.2,0.7-0.4,1c-0.1,0.2-0.9,0.8-1.1,0.5C1.3,86.1,1.2,85.9,1.1,85.7z"/>
				</g>
			</g>
		</g>
	</g>
</g>
<g id="ch04-06-1">
	<g id="paths_1_" display="none">
		<g id="Layer_15_copy" display="inline">
		</g>
	</g>
</g>
<g id="ch04-03-2">
	<g id="paths" display="none">
		<g id="nose_x5F_34_x5F_side_path_x5D_" display="inline">
		</g>
		<g id="nose_x5F_34_x5F_side_path_x5D__copy" display="inline">
		</g>
	</g>
	<g id="main_comp_1_">
		<g id="base">
		</g>
		<g id="nose_x5F_34_x5F_side">
		</g>
		<g id="LID">
		</g>
	</g>
	<g id="base_copy">
	</g>
	<g id="nose_x5F_34_x5F_side_copy">
	</g>
	<g id="LID_copy">
	</g>
</g>
<g id="ch04-02-1">
	<g id="backup" display="none">
	</g>
</g>
</svg>
