<?xml version="1.0" encoding="utf-8"?>
<!-- Generator: Adobe Illustrator 18.1.1, SVG Export Plug-In . SVG Version: 6.00 Build 0)  -->
<svg version="1.0" id="Layer_1" xmlns="http://www.w3.org/2000/svg" xmlns:xlink="http://www.w3.org/1999/xlink" x="0px" y="0px"
	 viewBox="0 0 256 256" enable-background="new 0 0 256 256" xml:space="preserve">
<g id="Layer_1_1_">
</g>
<g id="body_x5F_back_1_">
</g>
<g id="water_copy" opacity="0.7">
</g>
<g id="sand_copy">
</g>
<g id="gravel_x5F_top_1_">
</g>
<g id="gravel_x5F_bottom_1_">
</g>
<g id="bsfm_x5F_nose_x5F_side_1_" display="none">
	<path display="inline" fill="#1FA6AA" d="M187.5,40.3c-1.3-1-2.6-2.2-3.8-3.4c-3.2-3.1-6.3-6.4-9.3-9.7c-1.4-1.5-2.8-3.1-4.2-4.6
		c-0.6-0.6-1.2-1.7-1.9-2.1c-1-0.6-2.9-2.6-3.8-3.3c-1.9-1.5-3.8-4.5-5.5-4.6c-0.1,0,0,5.9-0.1,6s-0.3,0.2-0.3,0.3
		c-0.1,6.4-0.3,12.7-0.3,19.1c0,1.3-0.2,2.7,0,3.9c0.2,0.8,0,0.7,1,0.9c3.7,0.5,7.5,0.4,11.3,0.4c4.3,0,8.7-0.2,13-0.5
		c0.7,0,3.4,0,4.5-0.6c0.2-0.1,0.3-0.3,0.4-0.5C188.7,40.8,187.9,40.7,187.5,40.3z"/>
</g>
<g id="bsfm_x5F_nose_x5F_side_copy">
</g>
<g id="white_x5F_hose_1_">
</g>
<g id="Lid_1_">
</g>
<g id="BSFM">
	<g id="body_x5F_back">
		<g id="gravel_1_">
		</g>
	</g>
	<g id="water" opacity="0.7">
	</g>
	<g id="sand">
	</g>
	<g id="gravel_x5F_top">
	</g>
	<g id="gravel_x5F_bottom">
		<g id="Layer_11">
		</g>
	</g>
	<g id="concrete_x5F_body">
		<g id="gravel">
		</g>
	</g>
	<g id="bsfm_x5F_nose_x5F_side">
	</g>
	<g id="eye">
	</g>
	<g id="white_x5F_hose">
	</g>
	<g id="diffuser">
	</g>
	<g id="Lid">
	</g>
</g>
<g id="water_x5F_LowLevel">
</g>
<g id="water_x5F_highLevel">
</g>
<g id="body">
</g>
<g id="lid">
</g>
<g id="BSFM_copy">
	<g id="body_x5F_back_2_">
	</g>
	<g id="water_copy_1_" opacity="0.7">
	</g>
	<g id="sand_copy_1_">
	</g>
	<g id="gravel_x5F_top_2_">
	</g>
	<g id="gravel_x5F_bottom_2_">
	</g>
	<g id="concrete_x5F_body_1_">
	</g>
	<g id="white_x5F_hose_2_">
	</g>
	<g id="diffuser_1_">
	</g>
	<g id="Lid_2_">
	</g>
</g>
<path fill="#1FA6AA" d="M187.9,40.9c0-0.3-0.3-0.4-0.6-0.6c-0.2-0.1-0.3-0.2-0.5-0.3c-1.3-1-2.6-2.2-3.8-3.4
	c-3.2-3.1-6.2-6.4-9.3-9.7c-1.4-1.5-2.8-3.1-4.2-4.6c-0.6-0.6-1.2-1.7-1.9-2.1c-1-0.6-2.9-2.6-3.8-3.3c-1.5-1.1-2.9-3.2-4.3-4.1
	c0.1-3.7,0.3-0.4,0.4-4.1c0.2-3.5,0.6-4.9,0.5-8.4c0,0,0,0-0.1,0l-2.8,0.6c-0.1,0-0.3,0-0.3,0l-88.6,0c0-0.2,0-0.3,0-0.5
	c0-0.1-0.1-0.1-0.2-0.1l0,0h-0.1h0.1l0,0c0,0-0.1,0-0.2,0.1c0,0,0,0-0.1,0c0,0-0.1,0-0.1,0.1c-0.2,0.1-0.5,0.3-0.5,0.4
	c0.1,8.5,0.3,17,0.3,25.5c0.3,20.3,0.6,40.6,1,60.8c0.4,24.5,0.8,49,1.2,73.5c0.3,21.2,0.7,42.5,1,63.7c0.1,7,0.2,14,0.3,21.1
	c0,2.2,0,4.3,0.1,6.5c0,1-0.3,2.4,0,3.4c0,0.1,0,0.3,0,0.4c0,0.1,0,0.1,0.1,0.1c9.8,0,19.6,0,29.4,0c15.7,0,31.4,0,47.1,0
	c3.6,0,7.1,0,10.7,0l0,0h0.1c0.2,0,0.8-0.3,0.8-0.6c0-27.3,0.1-54.6,0.2-81.9c0-23.6,0.2-47.2-0.4-70.8c-0.5-17.7-0.8-42.4-0.7-60.2
	c2.2,0.3,4.5,0.4,6.8,0.4c0.5,0,0.9,0,1.4,0l0,0c1,0,1.9,0,2.9,0c0.1,0,0.2,0,0.3,0c4.2,0,8.5-0.1,12.7-0.5c0.7,0,3.4,0,4.5-0.6
	c0.1-0.1,0.2-0.2,0.3-0.2l0,0c0.1-0.1,0.1-0.1,0.1-0.2C187.9,41,187.9,40.9,187.9,40.9z M159.7,1.3c0,0.8-0.2,2.1-0.3,2.5
	c-0.3,5.9-0.5,2.7-0.8,8.4l0,0c0.2-5.7,0.5-2.6,0.8-8.5C159.5,3.3,159.7,2.1,159.7,1.3z M68.5,0.7v0.1l0,0
	C68.5,0.8,68.5,0.8,68.5,0.7z M72.2,233.1c-0.2-12.3-0.4-24.7-0.6-37c-0.3-15.6-0.5-31.2-0.7-46.8c-0.3-16.7-0.5-33.3-0.8-50
	c-0.3-15.3-0.5-30.5-0.7-45.8c-0.2-11.7-0.4-23.4-0.6-35C68.7,12.7,69,6.9,68.5,1.1l0,0c0.5,5.8,0.2,11.7,0.3,17.4
	c0.2,11.7,0.3,23.3,0.5,35C69.6,68.8,69.8,84,70,99.3c0.3,16.6,0.5,33.3,0.8,49.8c0.3,15.6,0.5,31.2,0.7,46.8
	c0.2,12.3,0.4,24.7,0.6,37c0,0.6,0,1.2,0,1.8C72.2,234.2,72.2,233.6,72.2,233.1z M159.7,255.2L159.7,255.2c-0.3,0-0.5,0-0.8,0
	c-9.2,0-18.5,0-27.8,0.1c-15.5,0-31,0-46.5,0c-3.9,0-7.9,0.4-11.7,0c-0.3,0-0.3,0-0.4,0c0,0,0,0,0-0.2c-0.2-0.4,0-1.3,0-1.7
	c0-0.5,0-1.1,0-1.6c0,0.5,0,1,0,1.4c0,0.5-0.1,1.3,0,1.7c0.1,0.1,0,0.2,0,0.2s0.1,0,0.4,0c3.8,0.4,7.9,0,11.7,0c15.5,0,31,0,46.5,0
	c9.3,0,18.5,0,27.8,0c0-10.5,0-21,0.1-31.5c0-21.6,0.1-43.2,0.2-64.7l0,0c0,21.6-0.1,43.2-0.2,64.7c0,10.5,0,21-0.1,31.5
	C159.2,255.2,159.5,255.2,159.7,255.2z M159.2,158.9c0-24.4-0.3-48.8-0.9-73.2C158.9,110.2,159.3,134.5,159.2,158.9z"/>
</svg>
