<?xml version="1.0" encoding="utf-8"?>
<!-- Generator: Adobe Illustrator 18.1.1, SVG Export Plug-In . SVG Version: 6.00 Build 0)  -->
<!DOCTYPE svg PUBLIC "-//W3C//DTD SVG 1.1//EN" "http://www.w3.org/Graphics/SVG/1.1/DTD/svg11.dtd">
<svg version="1.1" xmlns="http://www.w3.org/2000/svg" xmlns:xlink="http://www.w3.org/1999/xlink" x="0px" y="0px"
	 viewBox="0 0 88.1 64" enable-background="new 0 0 88.1 64" xml:space="preserve">
<g id="ch06-05-1">
	<g id="paths_backup" display="none">
	</g>
</g>
<g id="ch06-02-3">
	<g id="Layer_28">
	</g>
	<g id="hand_1_" display="none">
	</g>
	<g id="hand_x5F_copy" display="none">
	</g>
	<g id="hand_new">
	</g>
	<g id="hand_new_copy">
	</g>
</g>
<g id="ch05-08-3">
	<g id="main_x5F_comp-path_backup_copy">
	</g>
	<g id="main_x5F_comp_2_">
	</g>
</g>
<g id="ch04-07-2">
	<g id="new_base_1_">
	</g>
	<g id="hand">
	</g>
</g>
<g id="ch04-06-1">
	<g id="paths_1_" display="none">
		<g id="Layer_15_copy" display="inline">
		</g>
	</g>
	<g id="hand_w_jug_x5F_comp">
	</g>
	<g id="hand_w_jug_copy">
	</g>
</g>
<g id="ch04-03-2">
	<g id="paths" display="none">
		<g id="nose_x5F_34_x5F_side_path_x5D_" display="inline">
		</g>
		<g id="nose_x5F_34_x5F_side_path_x5D__copy" display="inline">
		</g>
	</g>
	<g id="main_comp_1_">
		<g id="base">
		</g>
		<g id="nose_x5F_34_x5F_side">
		</g>
		<g id="LID">
		</g>
	</g>
	<g id="base_copy">
	</g>
	<g id="nose_x5F_34_x5F_side_copy">
	</g>
	<g id="LID_copy">
	</g>
</g>
<g id="ch04-02-1">
	<g id="backup" display="none">
	</g>
</g>
<g id="ch08-04-1">
	<g id="spout_2_">
		<g id="XMLID_53_">
			<g>
				<path d="M51,62c0,0.3-0.7,0.6-1,0.7c-3.2,1-7.2,1.8-10.2,0c0,0-0.1,0-0.1-0.1c0-6.2,0.4-12.4,1-18.6c0-0.2,0.4-0.4,0.7-0.6
					c0.1-0.1,0.2-0.1,0.2-0.1c1.7-0.5,5-1.4,6.7-0.2c1.4,0.9,1.3,5.2,1.5,7C50.5,54,50.9,58,51,62z M49.8,62.1
					c-0.1-2.5-0.3-4.9-0.5-7.4c-0.3-3-0.5-6.3-1.1-9.4c-0.1-0.7-0.2-1.3-0.4-1.6c-0.2-0.2-0.4-0.2-0.7-0.3c-1.3-0.2-3.6,0-5.1,0.4
					c-0.4,4-0.7,8-0.9,12c-0.1,1.5-0.3,3.2-0.1,4.7c0.1,1.1,0,1.5,0.1,1.6c0.1,0.1,0,0,0.4,0.4C42.2,63,47,62.7,49.8,62.1z"/>
				<path fill="#FFFFFF" d="M49.2,54.8c0.2,2.4,0.5,4.9,0.5,7.4c-2.7,0.6-7.6,0.9-8.2,0.4c-0.5-0.4-0.4-0.3-0.4-0.4
					c-0.1-0.1,0-0.5-0.1-1.6c-0.1-1.5,0.1-3.2,0.1-4.7c0.2-4,0.4-8,0.9-12c1.5-0.3,3.7-0.6,5.1-0.4c0.3,0,0.5,0,0.7,0.3
					c0.2,0.3,0.3,0.9,0.4,1.6C48.8,48.5,48.9,51.7,49.2,54.8z"/>
			</g>
		</g>
	</g>
</g>
<g id="Layer_34">
</g>
</svg>
