<?xml version="1.0" encoding="utf-8"?>
<!-- Generator: Adobe Illustrator 18.1.1, SVG Export Plug-In . SVG Version: 6.00 Build 0)  -->
<!DOCTYPE svg PUBLIC "-//W3C//DTD SVG 1.1//EN" "http://www.w3.org/Graphics/SVG/1.1/DTD/svg11.dtd">
<svg version="1.1" xmlns="http://www.w3.org/2000/svg" xmlns:xlink="http://www.w3.org/1999/xlink" x="0px" y="0px"
	 viewBox="0 0 36.5 41.8" enable-background="new 0 0 36.5 41.8" xml:space="preserve">
<g id="ch04-06-1">
</g>
<g id="ch04-03-2">
</g>
<g id="ch04-02-1">
	<g id="backup" display="none">
	</g>
	<g id="eye_x5F_close_1_">
		<g id="XMLID_1_">
			<g>
				<path fill="#FFFFFF" d="M19.3,1.6c9,0.7,14.4,8.8,15.5,17v0C35.7,29.4,28.5,42,16.1,40C7.9,38.7,2.6,31,1.7,23.1
					C0.6,12.7,7.7,0.7,19.3,1.6z"/>
				<path d="M1.7,23.1C2.6,31,7.9,38.7,16.1,40c12.3,2,19.5-10.6,18.7-21.3v0c-1.1-8.3-6.6-16.3-15.5-17C7.7,0.7,0.6,12.7,1.7,23.1z
					 M14,0.8c11.5-3.7,20.9,5.9,22.4,16.7c0,0,0,0,0,0c0,0,0,0.1,0,0.1c0.7,9.7-4.1,20.1-13.9,23.3C11.2,44.6,1.3,35.1,0.1,24.2
					C-0.9,14.6,4.4,3.9,14,0.8z"/>
			</g>
		</g>
	</g>
</g>
</svg>
