<?xml version="1.0" encoding="utf-8"?>
<!-- Generator: Adobe Illustrator 18.1.1, SVG Export Plug-In . SVG Version: 6.00 Build 0)  -->
<svg version="1.0" id="Layer_1" xmlns="http://www.w3.org/2000/svg" xmlns:xlink="http://www.w3.org/1999/xlink" x="0px" y="0px"
	 viewBox="-1.2 88.6 258.6 79.1" enable-background="new -1.2 88.6 258.6 79.1" xml:space="preserve">
<g id="ch04-06-1" display="none">
</g>
<g id="ch04-03-2" display="none">
</g>
<g id="backup" display="none">
</g>
<path fill="#34FF03" stroke="#00FF48" stroke-width="2" stroke-miterlimit="10" d="M255.9,119.4c-0.1,0-0.3,0-0.4-0.1h-0.1
	c-29.2-6.8-59-11-88.8-12.3c-0.9-4.8-2.6-9.4-5.4-13.6c-0.3-0.3-0.6-0.5-1-0.8c-0.1-0.1-0.3-0.1-0.3-0.3c-0.1,0-0.1-0.1-0.3-0.1
	c-0.1-0.1-0.1-0.1-0.3-0.3c-0.1,0-0.1-0.1-0.3-0.1c0,0-0.1,0-0.1-0.1c-1.4-0.6-2.6-1.3-4-1.9c-0.1,0-0.3,0-0.4,0c-0.3,0-0.4,0-0.6,0
	c-0.4,0-0.6,0-1,0c-16.5-0.6-33,0.3-49.3,3c-4.7,0.8-10.5,1-13.2,5.4c-1.4,2.1-2,5-2.8,7.6c-0.4,1.3-0.8,2.4-1.1,3.7
	c-27.7,2.9-55.1,8.3-82,15.9c-1.5,0.4-3,0.8-4.5,1.1c1.1,4.5,2.3,8.9,3.4,13.5c0.4,2.5,0.6,5,0.9,7.6c-0.1,0.3-0.1,0.5,0,0.5
	c48.8-7.4,100-6.2,144.6,17.8c0.1,0,0.3,0.1,0.4,0.1c0.1,0,0.3,0.1,0.4,0.1c0.3,0,0.5,0.1,0.9,0.3c0.1,0,0.3,0,0.4,0.1
	c0.3,0.1,0.6,0.1,0.9,0.3c31-12.9,63-22.4,95.6-28.6c0.1-0.3,0.3-0.5,0.4-0.8c0,0,0-0.1,0.1-0.1c0.1-0.3,0.4-0.5,0.5-0.8
	c0.1-0.1,0.1-0.3,0.3-0.4c0,0,0-0.1,0.1-0.1c0-0.1,0-0.1,0-0.3c2.5-4.5,4.7-9.2,6.6-14.1c0,0,0,0,0-0.1c0.3-0.5,0.4-1,0.6-1.5
	c0-0.1,0-0.1,0.1-0.3C256,119.4,255.9,119.4,255.9,119.4z"/>
</svg>
