<?xml version="1.0" encoding="iso-8859-1"?>
<!-- Generator: Adobe Illustrator 18.1.1, SVG Export Plug-In . SVG Version: 6.00 Build 0)  -->
<!DOCTYPE svg PUBLIC "-//W3C//DTD SVG 1.1//EN" "http://www.w3.org/Graphics/SVG/1.1/DTD/svg11.dtd">
<svg version="1.1" xmlns="http://www.w3.org/2000/svg" xmlns:xlink="http://www.w3.org/1999/xlink" x="0px" y="0px"
	 viewBox="0 0 279.3 590.8" enable-background="new 0 0 279.3 590.8" xml:space="preserve">
<g id="Layer_1">
</g>
<g id="BSFM_copy">
	<g id="body_x5F_back_1_">
	</g>
	<g id="water_copy" opacity="0.7">
	</g>
	<g id="sand_copy">
	</g>
	<g id="gravel_x5F_top_1_">
	</g>
	<g id="gravel_x5F_bottom_1_">
	</g>
	<g id="concrete_x5F_body_1_">
	</g>
	<g id="bsfm_x5F_nose_x5F_side_1_" display="none">
	</g>
	<g id="bsfm_x5F_nose_x5F_side_copy">
	</g>
	<g id="white_x5F_hose_1_">
		<path d="M253.8,81c-11.9-7.3-29.6-7.1-41.7,0.6c-3.3,2.1-6.2,4.8-8.4,8c-7.4,10.6-7.1,23.7-7.2,36c-0.3,20-0.9,40-1.3,60
			c-1.1,64.8-1,129.6-1,194.4c0,30.2-0.5,60.5,0.5,90.7c0.6,16.9,2.1,34.3,1,51.2c-1.1,15.9-20.3,17.9-32.8,18.3
			c-8.1,0.2-16.2-0.3-24.3-1.2c-0.3,0-0.6,0.2-0.9,0.4c0,0,0,0,0,0c-0.5,0.2-1,0.6-1.1,0.9c-0.5,2.1,0.4,5.2,0.7,7.3
			c0,0.1,0,0.1,0.1,0.2c12.8,1.4,26.3,1.3,39.1-1c7.3-1.4,14.9-3.6,20.7-8.4c5.7-4.7,7.1-10.5,7.5-17.6c1.7-29.6,0.2-59.4-0.3-89
			c-0.5-35.9-0.8-71.7-0.9-107.6c-0.1-22.3,0-44.6,0.2-66.9c0.3-38.3,0.5-76.5,1.3-114.8c0.2-11.5,0.1-23.1,1.2-34.6
			c0.7-7.6,4.9-15.3,11.3-19.6c0.9-0.6,1.9-1.2,2.9-1.7c9.9-4.7,27.9-3.1,33,8.1c2.2,4.8,2.4,10.3,2.7,15.5c0,0.2,0.1,0.2,0.3,0.2
			c3,0,6,0,9.1,0c0.1,0,0.2,0,0.3,0c0.5,0,1.8-0.7,1.9-1.3C268.1,98.4,263.2,86.8,253.8,81z"/>
		<g>
			<path fill="#F1F2F3" d="M265.1,107.2c-0.3-6.3-2.1-12.6-5.8-17.8c-6.5-9.1-17.8-12.1-28.5-12c-6.8,0.1-13.1,1.6-18.3,5
				c-4,2.6-7.4,6.3-9.7,11.2c-3.3,6.9-4.2,14.8-4.4,22.4c-1,45.1-1.8,90.2-2,135.3c-0.3,58.3-0.3,116.6-0.1,174.8
				c0.1,26,0.8,51.9,1.3,77.9c0.2,9.8,2.4,21.7-5.8,28.9c-4.6,4.1-10.8,6.2-16.8,7.3c-12,2.3-24.5,1.7-36.6,0.5c0,2,0.3,5.4,0.7,5.7
				c0.3,0.2,1,0,1.3,0.1c2.4,0.8,5.8,0.4,8.3,0.5c4.1,0.2,8.2,0.2,12.2,0c10-0.3,20.8-1.3,30-5.7c9.2-4.5,11.1-11.8,11.5-21.1
				c0.6-13.2,0.4-26.5,0.3-39.7c-0.5-61.2-1.7-122.4-1.6-183.5c0-26.4,0.3-52.9,0.5-79.3c0.3-34.8,0-69.8,1.8-104.6
				c0.6-10.2,5.2-19.9,13.3-25.4c3-2,6.5-3.5,10.4-4.2c9.7-1.7,23.4,0,28,10c2.1,4.6,1.7,9.2,2.6,14c0.3,1.8-0.3,1.3,1.5,1.5
				c0.9,0.2,2.1,0,3,0c0.9,0,1.9,0,2.8,0C265.1,108.5,265.1,107.9,265.1,107.2z"/>
			<path d="M253.8,81c-11.9-7.3-29.6-7.1-41.7,0.6c-3.3,2.1-6.2,4.8-8.4,8c-7.4,10.6-7.1,23.7-7.2,36c-0.3,20-0.9,40-1.3,60
				c-1.1,64.8-1,129.6-1,194.4c0,30.2-0.5,60.5,0.5,90.7c0.6,16.9,2.1,34.3,1,51.2c-1.1,15.9-20.3,17.9-32.8,18.3
				c-8.1,0.2-16.2-0.3-24.3-1.2c-0.3,0-0.6,0.2-0.9,0.4c0,0,0,0,0,0c-0.5,0.2-1,0.6-1.1,0.9c-0.5,2.1,0.4,5.2,0.7,7.3
				c0,0.1,0,0.1,0.1,0.2c12.8,1.4,26.3,1.3,39.1-1c7.3-1.4,14.9-3.6,20.7-8.4c5.7-4.7,7.1-10.5,7.5-17.6c1.7-29.6,0.2-59.4-0.3-89
				c-0.5-35.9-0.8-71.7-0.9-107.6c-0.1-22.3,0-44.6,0.2-66.9c0.3-38.3,0.5-76.5,1.3-114.8c0.2-11.5,0.1-23.1,1.2-34.6
				c0.7-7.6,4.9-15.3,11.3-19.6c0.9-0.6,1.9-1.2,2.9-1.7c9.9-4.7,27.9-3.1,33,8.1c2.2,4.8,2.4,10.3,2.7,15.5c0,0.2,0.1,0.2,0.3,0.2
				c3,0,6,0,9.1,0c0.1,0,0.2,0,0.3,0c0.5,0,1.8-0.7,1.9-1.3C268.1,98.4,263.2,86.8,253.8,81z M262.3,109.1c-1,0-2.1,0.2-3,0
				c-1.8-0.3-1.1,0.3-1.5-1.5c-0.9-4.8-0.5-9.4-2.6-14c-4.6-10-18.3-11.7-28-10c-3.9,0.7-7.4,2.2-10.4,4.2
				c-8.2,5.5-12.8,15.2-13.3,25.4c-1.8,34.8-1.5,69.8-1.8,104.6c-0.2,26.4-0.5,52.9-0.5,79.3c-0.1,61.2,1.1,122.4,1.6,183.5
				c0.1,13.2,0.3,26.5-0.3,39.7c-0.4,9.4-2.3,16.7-11.5,21.1c-9.1,4.4-20,5.4-30,5.7c-4.1,0.1-8.2,0.1-12.2,0
				c-2.5-0.1-5.9,0.3-8.3-0.5c-0.3-0.1-1,0.1-1.3-0.1c-0.4-0.3-0.7-3.6-0.7-5.7c12.1,1.2,24.6,1.9,36.6-0.5c6-1.2,12.1-3.2,16.8-7.3
				c8.2-7.2,6-19.1,5.8-28.9c-0.5-26-1.2-51.9-1.3-77.9c-0.2-58.3-0.2-116.6,0.1-174.8c0.3-45.1,1-90.3,2-135.3
				c0.2-7.6,1.1-15.4,4.4-22.4c2.3-4.9,5.6-8.6,9.7-11.2c5.2-3.3,11.5-4.9,18.3-5c10.7-0.1,22,2.9,28.5,12
				c3.7,5.1,5.5,11.5,5.8,17.8c0,0.6,0,1.2,0,1.9C264.2,109.1,263.2,109.1,262.3,109.1z"/>
		</g>
	</g>
	<g id="diffuser_1_">
	</g>
	<g id="Lid_1_">
	</g>
</g>
<g id="BSFM">
	<g id="body_x5F_back">
		<g id="gravel_1_">
		</g>
	</g>
	<g id="water" opacity="0.7">
	</g>
	<g id="sand">
	</g>
	<g id="gravel_x5F_top">
	</g>
	<g id="gravel_x5F_bottom">
		<g id="Layer_11">
		</g>
	</g>
	<g id="concrete_x5F_body">
		<g id="gravel">
		</g>
	</g>
	<g id="bsfm_x5F_nose_x5F_side">
	</g>
	<g id="eye">
	</g>
	<g id="white_x5F_hose">
	</g>
	<g id="diffuser">
	</g>
	<g id="Lid">
	</g>
</g>
<g id="Layer_20">
	<g id="water_x5F_LowLevel">
	</g>
	<g id="water_x5F_highLevel">
	</g>
	<g id="body">
	</g>
	<g id="lid">
	</g>
</g>
<g id="glow_fx">
	<g id="glow_-_tube_1_">
		<path fill="#00B919" d="M153.5,556.2c-7.6,0-14.3-0.7-19.9-2.1l-2.4-0.6l-2.2-21l4.2,0.4c0.1,0,12.1,1.1,24.4,1.1
			c12.8,0,18.9-1.1,21.8-2.1l0.3-0.1l0.3,0c0.2,0,5-1,8.5-7.1c0.4-1.9,1.7-9.5,1-18.8c0-0.5-2.2-43.4-2-68.8c0.2-25.2,0-87.5,0-88.2
			l0.5-88.7l1.4-86.9l1.3-65.8c0.1-1.1,0.7-10.7,4.3-16.1c1-1.9,6.9-12.2,12.9-15.4c1.5-0.9,10.8-6.7,21.4-6.7
			c1.6,0,3.2,0.1,4.7,0.4c2.2-0.1,10.6-0.3,18.9,3.7c0.9,0.4,8.6,3.9,12.8,10.4c1.6,1.5,6.8,7,8.8,15.9l0,0.3c0,0.3,1,6.7,0.8,14.8
			l-0.1,3.4h-27.6l0.9-4.2c0-0.1,1.4-7-0.1-13l0,0c0,0-1.1-3.8-4.3-6.2c-1.1-0.4-5.1-1.9-9.4-2l-0.2,0c0,0-0.4,0-1,0
			c-1.7,0-7.4,0.2-10.6,2.4l-0.1,0.1c0,0-5.4,3.5-8.2,9.6l-0.2,0.3l0,0c0,0-2.1,4.2-2.9,17l-0.7,21.7l-0.6,88.6l0.2,102.1l0.6,85.6
			l0,104c-0.1,1.3-0.8,12.7-6.9,18.8c-0.8,0.8-6,6.2-15.7,9.3l-0.2,0.1c-0.2,0.1-6.1,1.5-17.3,2.6
			C170.3,555.2,162.8,556.2,153.5,556.2z M137.7,547.9c4.6,0.9,9.9,1.3,15.8,1.3c9.2,0,16.6-1.1,16.6-1.1l0.2,0
			c9.9-1.1,15.5-2.3,16.4-2.5c8.3-2.7,12.6-7.3,12.6-7.4l0.2-0.2c3.6-3.5,4.8-11.3,4.9-14.1V420.3l-0.6-85.6l-0.2-102.2l0.6-88.7
			l0.7-21.9c0.8-13.6,3.1-18.8,3.7-20c3.6-7.7,10-12,10.7-12.5c4.6-3.1,11.1-3.5,14.5-3.5c0.7,0,1.1,0,1.3,0
			c6.6,0.1,12.2,2.6,12.4,2.7l0.3,0.1l0.3,0.2c5.5,3.9,7.2,10,7.3,10.3c1.1,4.4,1,8.9,0.8,12h12.4c-0.1-5.3-0.6-9.4-0.7-10.1
			c-1.8-7.8-6.9-12.3-6.9-12.3l-0.4-0.4l-0.3-0.5c-3.2-5.1-9.9-8.1-10-8.2l-0.1-0.1c-5.5-2.7-11.2-3.1-14.1-3.1
			c-1.1,0-1.7,0.1-1.7,0.1l-0.5,0l-0.5-0.1c-1.2-0.2-2.5-0.4-3.9-0.4c-9.2,0-17.6,5.6-17.7,5.6l-0.4,0.2c-3.3,1.7-8,8.7-10.2,12.8
			l-0.2,0.4c-2,2.8-3,9.1-3.2,12.6l-1.3,65.6l-1.4,86.9l-0.5,88.6c0,0.6,0.2,62.9,0,88.2c-0.2,25.1,2,67.9,2,68.3
			c0.8,11.7-1.2,20.8-1.3,21.2l-0.1,0.5l-0.2,0.4c-4.7,8.7-11.8,10.7-13.5,11.1c-4.9,1.6-12.9,2.4-23.8,2.4
			c-8.2,0-16.1-0.4-20.8-0.8L137.7,547.9z"/>
	</g>
	<text transform="matrix(1 0 0 1 100.2954 39.7786)" font-family="'MyriadPro-Regular'" font-size="24">COMP</text>
</g>
</svg>
