<?xml version="1.0" encoding="iso-8859-1"?>
<!-- Generator: Adobe Illustrator 18.1.1, SVG Export Plug-In . SVG Version: 6.00 Build 0)  -->
<svg version="1.1" xmlns="http://www.w3.org/2000/svg" xmlns:xlink="http://www.w3.org/1999/xlink" x="0px" y="0px"
	 viewBox="0 0 233.5 52.2" enable-background="new 0 0 233.5 52.2" xml:space="preserve">
<g id="Layer_1" display="none">
	<g id="ch03-17-01_x5F_levels.psd_1_" display="inline">
		<defs>
			<rect id="SVGID_1_" x="-1627.7" y="-9.4" width="1820.1" height="1023.8"/>
		</defs>
		<clipPath id="SVGID_2_">
			<use xlink:href="#SVGID_1_"  overflow="visible"/>
		</clipPath>
	</g>
</g>
<g id="BSFM_copy">
	<g id="body_x5F_back_1_">
	</g>
	<g id="water_copy" opacity="0.7">
	</g>
	<g id="sand_copy">
	</g>
	<g id="gravel_x5F_top_1_">
	</g>
	<g id="gravel_x5F_bottom_1_">
	</g>
	<g id="concrete_x5F_body_1_">
	</g>
	<g id="bsfm_x5F_nose_x5F_side_1_">
	</g>
	<g id="eye_1_">
	</g>
	<g id="white_x5F_hose_1_">
	</g>
	<g id="diffuser_1_">
	</g>
	<g id="Lid_1_">
		<path d="M233.2,27.5c0-0.2-0.1-0.2-0.3-0.2c-21.1-0.3-42.2-0.6-63.4-0.9c0-0.1,0-0.1,0-0.2c0-4,0-7.9,0-11.9
			c0-2.2,1.1-8.3-0.2-10.2c-1.1-1.7-5.2-2-6.9-2.3c-4.5-0.8-9.1-1.1-13.7-1.3c-11.2-0.6-22.4-0.7-33.7-0.4
			c-3.9,0.1-7.8,0.2-11.6,0.5c-1.3,0.1-3.1,0.1-4.2,1c-0.1,0.1-0.1,0.1-0.2,0.2c-0.6,0.7-0.7,1.9-0.9,2.7c-0.8,2.6-1.9,5.2-2.9,7.7
			c-1.8,4.4-3.6,8.7-5.5,13c-19.8-0.3-39.7-0.6-59.5-0.8c-9.5-0.1-18.9-0.3-28.4-0.4c-0.1,0-0.2,0-0.3,0.1c0,0,0,0,0,0
			c-0.1,0-0.3,0.1-0.4,0.1c-0.1,0-0.3,0-0.4,0c0,0-0.1,0-0.1,0c0,0,0,0,0,0c0,0,0,0.1,0,0.2c0,0,0,0,0,0.1C0.3,24.9,0,25.2,0,25.4
			C1,34.3,2,43.1,2.9,52c0,0.2,0.1,0.2,0.3,0.2c25.8-0.3,51.6-0.6,77.4-1c40.9-0.5,81.8-1,122.7-1.5c9.2-0.1,18.4-0.2,27.6-0.3
			c0,0,0,0,0.1,0c0.2,0,0.4,0,0.6,0c0.1,0,0.2,0,0.3,0c0.1,0,0.2,0,0.3-0.1c0.1,0,0.3,0,0.4,0c0.1,0,0.1-0.2,0.1-0.2c0,0,0,0,0,0
			c0.5-0.3,0.9-0.6,0.9-0.9C233.4,41.2,233.3,34.4,233.2,27.5z M154.8,26.2c-18.3-0.2-36.6-0.5-54.9-0.8c0.1-0.1,0.2-0.2,0.2-0.3
			c0.8-2.9,1.8-5.8,2.9-8.6c0.7-1.6,1.9-5.4,3.5-6.4c0.7-0.5,2.1-0.5,3-0.6c7.8-0.9,15.7-0.9,23.5-0.8c4.1,0,8.3,0.1,12.4,0.3
			c2.5,0.1,6.6-0.2,8.9,0.9c2.7,1.3,2.6,5.9,2.9,8.6c0.3,2.5,0.2,5.2,0.5,7.7C156.8,26.3,155.8,26.3,154.8,26.2z"/>
		<g>
			<path fill="#1FA6AA" d="M107.3,8.8c2.2-0.9,4.9-0.8,7.2-1c4.7-0.3,9.5-0.5,14.2-0.5c8.5-0.1,17.8-0.7,26.2,0.9
				c6.4,1.2,4.2,13.1,5.1,18.1c2.5,0,5,0.1,7.5,0.1c0-3.8,0-7.6,0-11.4c0-2.6,1.1-8.3-0.9-10c-1.8-1.5-5.9-1.7-8.1-2
				c-4.7-0.6-9.4-0.9-14.2-1.1c-10.1-0.5-20.3-0.5-30.4-0.3c-3.6,0.1-7.2,0.2-10.9,0.4c-0.4,0-1.5,0.3-2.3,0.3
				c-0.1,0.5-0.5,1.2-0.5,1.4c-2.4,7.4-5.7,14.5-8.8,21.6c2.2,0,4.5,0.1,6.7,0.1C99.6,20,101.8,11.1,107.3,8.8z"/>
			<path fill="#1FA6AA" d="M231.3,28.8c-0.2,0-0.4,0-0.6,0c0,0-0.1,0-0.2,0c-0.7,0-1.4-0.2-1.8-0.2c-0.2,0-0.5,0-0.7,0
				c-0.8,0.1-1.6,0.1-2.2,0.1c-3,0-6-0.1-9-0.1c-19.5-0.3-39-0.5-58.6-0.8c-0.1,0-0.2,0-0.3,0c-22.8-0.3-45.6-0.6-68.4-1
				C60.5,26.4,31.4,26,2.3,25.6c0.5,4.3,0.9,8.6,1.4,12.9c0.3,3,0.7,6,1,9c0,0.5,0.4,2.9,0.2,3.1c0.6,0,1.3,0,1.9,0.1h0
				c0.4,0,0.7-0.1,0.9-0.1c2.5,0,4.9-0.1,7.4-0.1C57.1,50,99,49.5,140.9,49c30.2-0.4,60.3-0.8,90.4-1.1c0-4.7-0.1-9.5-0.2-14.2
				C231.1,33,231.2,28.8,231.3,28.8C231.3,28.8,231.3,28.8,231.3,28.8z"/>
			<path fill="none" d="M154.3,9.9c-2.3-1.2-6.4-0.8-8.9-0.9c-4.1-0.2-8.3-0.3-12.4-0.3c-7.8,0-15.7,0-23.5,0.8
				c-0.9,0.1-2.2,0.1-3,0.6c-1.6,1.1-2.8,4.8-3.5,6.4c-1.1,2.8-2.1,5.7-2.9,8.6c0,0.1-0.1,0.2-0.2,0.3c18.3,0.3,36.6,0.5,54.9,0.8
				c1,0,2,0,2.9,0c-0.3-2.5-0.3-5.2-0.5-7.7C156.9,15.9,157,11.3,154.3,9.9z"/>
			<path d="M233.2,27.5c0-0.2-0.1-0.2-0.3-0.2c-21.1-0.3-42.2-0.6-63.4-0.9c0-0.1,0-0.1,0-0.2c0-4,0-7.9,0-11.9
				c0-2.2,1.1-8.3-0.2-10.2c-1.1-1.7-5.2-2-6.9-2.3c-4.5-0.8-9.1-1.1-13.7-1.3c-11.2-0.6-22.4-0.7-33.7-0.4
				c-3.9,0.1-7.8,0.2-11.6,0.5c-1.3,0.1-3.1,0.1-4.2,1c-0.1,0.1-0.1,0.1-0.2,0.2c-0.6,0.7-0.7,1.9-0.9,2.7c-0.8,2.6-1.9,5.2-2.9,7.7
				c-1.8,4.4-3.6,8.7-5.5,13c-19.8-0.3-39.7-0.6-59.5-0.8c-9.5-0.1-18.9-0.3-28.4-0.4c-0.1,0-0.2,0-0.3,0.1c0,0,0,0,0,0
				c-0.1,0-0.3,0.1-0.4,0.1c-0.1,0-0.3,0-0.4,0c0,0-0.1,0-0.1,0c0,0,0,0,0,0c0,0,0,0.1,0,0.2c0,0,0,0,0,0.1C0.3,24.9,0,25.2,0,25.4
				C1,34.3,2,43.1,2.9,52c0,0.2,0.1,0.2,0.3,0.2c25.8-0.3,51.6-0.6,77.4-1c40.9-0.5,81.8-1,122.7-1.5c9.2-0.1,18.4-0.2,27.6-0.3
				c0,0,0,0,0.1,0c0.2,0,0.4,0,0.6,0c0.1,0,0.2,0,0.3,0c0.1,0,0.2,0,0.3-0.1c0.1,0,0.3,0,0.4,0c0.1,0,0.1-0.2,0.1-0.2c0,0,0,0,0,0
				c0.5-0.3,0.9-0.6,0.9-0.9C233.4,41.2,233.3,34.4,233.2,27.5z M100.3,3.8c0.1-0.2,0.4-0.9,0.5-1.4c0.8-0.1,1.9-0.3,2.3-0.3
				c3.6-0.3,7.2-0.3,10.9-0.4c10.1-0.2,20.3-0.2,30.4,0.3c4.7,0.2,9.5,0.5,14.2,1.1c2.2,0.3,6.3,0.4,8.1,2c2,1.7,0.9,7.4,0.9,10
				c0,3.8,0,7.6,0,11.4c-2.5,0-5-0.1-7.5-0.1c-0.9-4.9,1.3-16.8-5.1-18.1c-8.4-1.6-17.7-1-26.2-0.9c-4.7,0.1-9.5,0.2-14.2,0.5
				c-2.3,0.2-5,0.1-7.2,1c-5.5,2.3-7.7,11.2-9.1,16.7c-2.2,0-4.5-0.1-6.7-0.1C94.6,18.3,97.9,11.1,100.3,3.8z M157.7,26.3
				c-1,0-2,0-2.9,0c-18.3-0.2-36.6-0.5-54.9-0.8c0.1-0.1,0.2-0.2,0.2-0.3c0.8-2.9,1.8-5.8,2.9-8.6c0.7-1.6,1.9-5.4,3.5-6.4
				c0.7-0.5,2.1-0.5,3-0.6c7.8-0.9,15.7-0.9,23.5-0.8c4.1,0,8.3,0.1,12.4,0.3c2.5,0.1,6.6-0.2,8.9,0.9c2.7,1.3,2.6,5.9,2.9,8.6
				C157.5,21.1,157.4,23.7,157.7,26.3z M231.2,33.6c0.1,4.7,0.1,9.5,0.2,14.2c-30.1,0.4-60.3,0.8-90.4,1.1
				C99,49.5,57.1,50,15.1,50.6c-2.4,0-4.9,0.1-7.4,0.1c-0.2,0-0.5,0-0.9,0.1h0c-0.6,0-1.3-0.1-1.9-0.1c0.2-0.2-0.2-2.6-0.2-3.1
				c-0.3-3-0.7-6-1-9c-0.5-4.3-1-8.6-1.4-12.9c29.1,0.4,58.2,0.8,87.2,1.2c22.8,0.3,45.6,0.6,68.4,1c0,0,0.1,0,0.3,0
				c19.5,0.3,39,0.5,58.6,0.8c3,0,6,0.1,9,0.1c0.6,0,1.4-0.1,2.2-0.1c0.2,0,0.5,0,0.7,0c0.4,0,1.1,0.1,1.8,0.2c0.1,0,0.1,0,0.2,0
				c0.2,0,0.4,0,0.6,0c0,0,0,0,0,0C231.2,28.8,231.1,33,231.2,33.6z"/>
		</g>
	</g>
</g>
<g id="BSFM">
	<g id="body_x5F_back">
		<g id="gravel_1_">
		</g>
	</g>
	<g id="water" opacity="0.7">
	</g>
	<g id="sand">
	</g>
	<g id="gravel_x5F_top">
	</g>
	<g id="gravel_x5F_bottom">
		<g id="Layer_11">
		</g>
	</g>
	<g id="concrete_x5F_body">
		<g id="gravel">
		</g>
	</g>
	<g id="bsfm_x5F_nose_x5F_side">
	</g>
	<g id="eye">
	</g>
	<g id="white_x5F_hose">
	</g>
	<g id="diffuser">
	</g>
	<g id="Lid">
	</g>
</g>
<g id="Layer_20">
	<g id="water_x5F_LowLevel">
	</g>
	<g id="water_x5F_highLevel">
	</g>
	<g id="body">
	</g>
	<g id="lid">
	</g>
</g>
</svg>
