<?xml version="1.0" encoding="utf-8"?>
<!-- Generator: Adobe Illustrator 18.1.1, SVG Export Plug-In . SVG Version: 6.00 Build 0)  -->
<!DOCTYPE svg PUBLIC "-//W3C//DTD SVG 1.1//EN" "http://www.w3.org/Graphics/SVG/1.1/DTD/svg11.dtd">
<svg version="1.1" xmlns="http://www.w3.org/2000/svg" xmlns:xlink="http://www.w3.org/1999/xlink" x="0px" y="0px"
	 viewBox="0 0 105 78.4" enable-background="new 0 0 105 78.4" xml:space="preserve">
<g id="ch05-08-3">
	<g id="main_x5F_comp-path_backup_copy">
	</g>
	<g id="main_x5F_comp_2_">
	</g>
	<g id="nose_4_">
		<path fill="#1FA6AA" d="M2.7,39.8c0,5.5-0.1,10.9-0.1,16.4c0,3.5-0.6,7.5,0,11c0.1,0.3,0.1,0.6,0.1,0.7c0.1-0.1,0.2-0.1,0.4-0.1
			c2.4,0,5-1.2,7.4-1.3c5.8-0.4,11.6,0.4,17.3,1.6c5.3,1.1,10.6,2.7,15.7,4.5c1.9,0.7,4.1,1.8,6.2,2.7C39.8,53.8,23.3,33.1,2.8,21.1
			C2.8,27.3,2.8,33.6,2.7,39.8z"/>
		<path fill="#1FA6AA" d="M97.4,42c-6.6-11.2-14.7-21.8-24.6-30.3c-3.1-2.6-6.3-5-9.8-7c-1.3-0.7-3.4-2.4-5-2.5
			c-1.2-0.1-1.7,0.5-3,1.2c-3.3,1.8-7,3.1-10.6,4.5c-7.5,3-15.1,5.5-22.9,7.6c-5.4,1.5-11,2.8-16.6,3.7
			c21.5,12.6,38.6,34.7,48.4,57.1c2.7,0.3,6.4-1,9-1.7c4-1,7.9-2.2,11.7-3.7c6.7-2.7,13-6.2,18.7-10.7c3-2.4,5.8-4.9,8.3-7.8
			c0.3-0.3,1.4-1.3,1.4-1.7c0-0.3-1.8-2.9-2.1-3.4C99.4,45.4,98.4,43.7,97.4,42z"/>
		<path d="M66.7,3.7c-1.8-1.1-5-3.6-7.2-3.7c-1.8-0.1-3.9,1.6-5.4,2.3c-4,1.8-8.1,3.5-12.3,5.1c-6.2,2.4-12.5,4.4-19,6.2
			C16.2,15.3,9.3,17,2.4,17.7c-0.1,0-0.2,0-0.3,0c0,0,0,0,0,0c-0.5,0.1-1.1,0.5-1.5,0.9c-0.1,0.1-0.1,0.2-0.2,0.2c0,0,0,0.1-0.1,0.1
			c0,0.1-0.1,0.1-0.1,0.2c0,0,0,0.1,0,0.1c0,0,0,0,0,0C0.1,36.2,0.1,53.1,0,69.9c0,0.5,0.7,0.3,1,0.2c0.7-0.2,1.3-0.5,2-0.6
			c11.4-3.3,24.6,0.4,35.4,3.9c3.8,1.3,7.5,2.8,11.3,4.2c0.4,0.2,0.9,0.3,1.3,0.4c0,0.1,0.1,0.1,0.1,0.2c0.1,0.3,0.6,0.2,1.2,0
			c3,0.2,6.1-0.9,9-1.6c16-3.8,33.9-12.5,43.6-26.4c0.1-0.2,0.2-0.4,0.1-0.6C95.9,31.9,83.8,14.4,66.7,3.7z M43.5,72.5
			c-5.1-1.8-10.4-3.3-15.7-4.5c-5.7-1.2-11.5-2-17.3-1.6c-2.4,0.2-5.1,1.3-7.4,1.3c-0.2,0-0.3,0-0.4,0.1c0-0.1,0-0.4-0.1-0.7
			c-0.6-3.5,0-7.5,0-11c0-5.5,0-10.9,0.1-16.4c0-6.3,0-12.5,0.1-18.8c20.5,12,36.9,32.8,46.9,54.1C47.6,74.3,45.5,73.2,43.5,72.5z
			 M102.5,50.6c0,0.5-1.1,1.4-1.4,1.7c-2.5,2.9-5.3,5.5-8.3,7.8c-5.7,4.5-12,8-18.7,10.7c-3.8,1.5-7.7,2.7-11.7,3.7
			c-2.6,0.6-6.3,1.9-9,1.7C43.6,53.9,26.5,31.8,5,19.2c5.6-0.8,11.1-2.2,16.6-3.7c7.8-2.1,15.4-4.6,22.9-7.6C48,6.5,51.7,5.2,55,3.4
			c1.3-0.7,1.8-1.3,3-1.2c1.5,0.1,3.7,1.8,5,2.5c3.5,2,6.7,4.4,9.8,7c10,8.4,18,19.1,24.6,30.3c1,1.7,2,3.5,2.9,5.3
			C100.7,47.8,102.5,50.4,102.5,50.6z"/>
		<path fill="none" stroke="#000000" stroke-width="0" stroke-linecap="round" stroke-linejoin="round" d="M0.3,19.1
			c0,0,0-0.1,0.1-0.1"/>
		<path fill="none" stroke="#000000" stroke-width="0" stroke-linecap="round" stroke-linejoin="round" d="M0.2,19.4
			c0,0,0-0.1,0-0.1"/>
	</g>
</g>
<g id="ch04-07-2">
	<g id="new_base_1_">
	</g>
	<g id="hand">
	</g>
</g>
<g id="ch04-06-1">
	<g id="paths_1_" display="none">
		<g id="Layer_15_copy" display="inline">
		</g>
	</g>
</g>
<g id="ch04-03-2">
	<g id="paths" display="none">
		<g id="nose_x5F_34_x5F_side_path_x5D_" display="inline">
		</g>
		<g id="nose_x5F_34_x5F_side_path_x5D__copy" display="inline">
		</g>
	</g>
	<g id="main_comp_1_">
		<g id="base">
		</g>
		<g id="nose_x5F_34_x5F_side">
		</g>
		<g id="LID">
		</g>
	</g>
	<g id="base_copy">
	</g>
	<g id="nose_x5F_34_x5F_side_copy">
	</g>
	<g id="LID_copy">
	</g>
</g>
<g id="ch04-02-1">
	<g id="backup" display="none">
	</g>
</g>
</svg>
