<?xml version="1.0" encoding="utf-8"?>
<!-- Generator: Adobe Illustrator 18.1.1, SVG Export Plug-In . SVG Version: 6.00 Build 0)  -->
<!DOCTYPE svg PUBLIC "-//W3C//DTD SVG 1.1//EN" "http://www.w3.org/Graphics/SVG/1.1/DTD/svg11.dtd">
<svg version="1.1" xmlns="http://www.w3.org/2000/svg" xmlns:xlink="http://www.w3.org/1999/xlink" x="0px" y="0px"
	 viewBox="0 0 208.3 393.8" enable-background="new 0 0 208.3 393.8" xml:space="preserve">
<g id="ch06-05-1">
	<g id="paths_backup" display="none">
	</g>
	<g>
		<g id="XMLID_28_">
			<g>
				<path d="M207.3,238.3c0.3,37.2,0.5,74.3,0.8,111.5c0,0.3-0.3,0.5-0.6,0.6c-4.3,1.8-8.5,3.6-12.8,5.3
					c-29.8,12.5-59.6,24.9-89.3,37.4l-0.1-0.3c0-0.2,0-0.4,0-0.7c0.4-0.2,0.9-0.4,1.3-0.5c31.7-13.2,63.3-26.5,95-39.7
					c1.5-0.6,3.3-1.1,4.6-1.9c0,0.8,1.1-0.7,0.1,0c0,0-0.1,0-0.1,0c0,0,0,0,0-0.1c0.2-2.1,0-4.4,0-6.5c-0.1-10.9-0.2-21.8-0.2-32.8
					c-0.3-38-0.5-76-0.8-114c-0.3-40-0.6-80-0.9-120c-0.1-18.4-0.3-36.8-0.4-55.2c0.4-0.1,0.7-0.2,1.1-0.3c1.1-0.3,1-1,0-0.9
					c0.4-0.1,0.9,0,0.9,0.2c0.1,13.5,0.2,26.9,0.3,40.3C206.4,120,206.9,179.2,207.3,238.3z"/>
				<path d="M206.2,349.9C207.2,349.3,206.1,350.8,206.2,349.9C206.2,350,206.2,349.9,206.2,349.9z"/>
				<path fill="#1FA6AA" d="M206.1,343.4c0,2.1,0.2,4.4,0,6.5c0,0,0,0.1,0,0.1c-1.3,0.9-3.2,1.3-4.6,1.9
					c-31.7,13.2-63.3,26.5-95,39.7c-0.4,0.2-0.9,0.4-1.3,0.5c0-18.3,0-36.6,0-54.9c0-40.7,0-81.3,0-122c0-39.9,0-79.9,0-119.8
					c0-12.7,0-25.4,0-38.1c0-3.3,0-6.6,0-9.9c0-0.7,0.1-1.4,0-2.1c5.3-0.6,10.8-2.6,15.9-3.9c9.7-2.3,19.4-4.7,29.1-7
					c17.2-4.1,34.3-8.3,51.5-12.4c0.7-0.2,1.4-0.3,2.1-0.5c0.1,18.4,0.3,36.8,0.4,55.2c0.3,40,0.6,80,0.9,120c0.3,38,0.6,76,0.8,114
					C205.9,321.6,206,332.5,206.1,343.4z"/>
				<path d="M204.9,20.3c0.9-0.1,1.1,0.6,0,0.9c-0.4,0.1-0.7,0.2-1.1,0.3c0-0.1,0-0.3,0-0.4c0-0.1,0-0.2,0.1-0.3
					c0.1-0.2,0.4-0.3,0.6-0.4c0,0,0.1,0,0.1,0c0,0,0.1,0,0.1,0C204.7,20.3,204.8,20.3,204.9,20.3z"/>
				<path d="M203.4,20.7c0.4-0.1,0.7-0.2,1.1-0.3c-0.3,0.1-0.5,0.2-0.6,0.4h-1L203.4,20.7z"/>
				<path d="M202.9,20.8h1c-0.1,0.1-0.1,0.2-0.1,0.3c0,0.1,0,0.3,0,0.4c-0.7,0.2-1.4,0.3-2.1,0.5c-17.2,4.1-34.3,8.3-51.5,12.4
					c-9.7,2.4-19.4,4.7-29.1,7c-5.1,1.2-10.7,3.3-15.9,3.9c0,0,0-0.1,0-0.1c-0.1-0.5-0.7-0.2-0.7-0.1l-0.2-0.1l0-0.5
					c4.1-1,8.3-2,12.4-3C145.5,34.7,174.2,27.7,202.9,20.8z"/>
				<path fill="#D5D7D9" d="M203.4,20.7l-0.5,0.1h-6l-0.1-0.4l0.1-0.1l2.4-0.4C199.3,19.9,199.8,19.7,203.4,20.7z"/>
				<path fill="#D5D7D9" d="M202.9,20.8c-28.7,6.9-57.4,13.9-86.2,20.8c-4.1,1-8.3,2-12.4,3l0.2-2.5l0.1,0.4
					c0.8-0.2,79.4-18,92.4-21.3l-0.1-0.4H202.9z"/>
				<path fill="#3E3E3F" d="M196.9,20.8l0.1,0.4c-13,3.3-91.6,21.1-92.4,21.3l-0.1-0.4C104.5,42.1,183.8,24.1,196.9,20.8z"/>
				<path fill="#3E3E3F" d="M196.8,20.4l0.1,0.4c-13.1,3.4-92.4,21.3-92.4,21.3l-0.1-0.4C105.2,41.5,183.8,23.7,196.8,20.4z"/>
				<path d="M105.2,392.8l0.1,0.3c-0.2,0.1-0.5,0.2-0.7,0.3c-0.1,0.1-1.3,0.4-1.3-0.1c0-0.1,0.1-0.5,0-0.6c-0.5-1,0-3.6,0-4.7
					c0-3,0-6,0-8.9c0-9.6,0-19.1,0-28.7c0-29,0-58,0-87c0-33.6,0-67.1,0-100.6c0-27.6,0-55.2,0-82.8c0-11.6,0-23.1,0-34.7
					c0-0.4,0.5-0.6,0.9-0.7c0,0,0.1,0,0.2,0l0,0.5l0.2,0.1c-0.1,0.1,0.1,0.2,0.5,0.2c0.1,0,0.1,0,0.2,0c0.1,0.7,0,1.4,0,2.1
					c0,3.3,0,6.6,0,9.9c0,12.7,0,25.4,0,38.1c0,39.9,0,79.9,0,119.8c0,40.7,0,81.3,0,122c0,18.3,0,36.6,0,54.9
					c-0.4,0.2-0.9,0.4-1.3,0.6C104.4,392.7,104.8,392.8,105.2,392.8z"/>
				<path d="M105.2,45.2C105.2,45.2,105.3,45.3,105.2,45.2c-0.1,0.1-0.1,0.1-0.2,0.1c-0.5,0-0.6,0-0.5-0.2
					C104.6,45,105.2,44.7,105.2,45.2z"/>
				<path d="M105.2,392.2c0,0.2,0,0.4,0,0.7c-0.4,0-0.9-0.1-1.3-0.1C104.4,392.5,104.8,392.3,105.2,392.2z"/>
			</g>
		</g>
	</g>
</g>
<g id="ch06-02-3">
	<g id="Layer_28">
	</g>
	<g id="hand_1_" display="none">
	</g>
	<g id="hand_x5F_copy" display="none">
	</g>
	<g id="hand_new">
	</g>
	<g id="hand_new_copy">
	</g>
</g>
<g id="ch05-08-3">
	<g id="main_x5F_comp-path_backup_copy">
	</g>
	<g id="main_x5F_comp_2_">
	</g>
</g>
<g id="ch04-07-2">
	<g id="new_base_1_">
	</g>
	<g id="hand">
	</g>
</g>
<g id="ch04-06-1">
	<g id="paths_1_" display="none">
		<g id="Layer_15_copy" display="inline">
		</g>
	</g>
	<g id="hand_w_jug_x5F_comp">
	</g>
	<g id="hand_w_jug_copy">
	</g>
</g>
<g id="ch04-03-2">
	<g id="paths" display="none">
		<g id="nose_x5F_34_x5F_side_path_x5D_" display="inline">
		</g>
		<g id="nose_x5F_34_x5F_side_path_x5D__copy" display="inline">
		</g>
	</g>
	<g id="main_comp_1_">
		<g id="base">
		</g>
		<g id="nose_x5F_34_x5F_side">
		</g>
		<g id="LID">
		</g>
	</g>
	<g id="base_copy">
	</g>
	<g id="nose_x5F_34_x5F_side_copy">
	</g>
	<g id="LID_copy">
	</g>
</g>
<g id="ch04-02-1">
	<g id="backup" display="none">
	</g>
</g>
</svg>
