<?xml version="1.0" encoding="utf-8"?>
<!-- Generator: Adobe Illustrator 18.1.1, SVG Export Plug-In . SVG Version: 6.00 Build 0)  -->
<!DOCTYPE svg PUBLIC "-//W3C//DTD SVG 1.1//EN" "http://www.w3.org/Graphics/SVG/1.1/DTD/svg11.dtd">
<svg version="1.1" xmlns="http://www.w3.org/2000/svg" xmlns:xlink="http://www.w3.org/1999/xlink" x="0px" y="0px"
	 viewBox="0 0 250.3 93.8" enable-background="new 0 0 250.3 93.8" xml:space="preserve">
<g id="ch05-08-3">
	<g id="main_x5F_comp-path_backup_copy">
	</g>
	<g id="main_x5F_comp_2_">
	</g>
	<g id="lid_3_">
		<path fill="none" d="M129.1,15.3c-1.3-0.3-2.6-0.6-3.7-0.9c-3.1-1-6.2-1.9-9.3-2.9l0,0c-0.1,0-0.1,0-0.2,0
			c-3.9-0.9-5.8,2.9-6.6,7.2c3.2-0.4,6.5-0.9,9.7-1.3C122,16.9,125.7,15.7,129.1,15.3z"/>
		<path fill="#1FA6AA" d="M99.3,72.3c0.5-3.7-0.1-4.3-3.8-5.2c-10.3-2.4-20.4-5.7-30.3-9.5C43.8,49.4,23.2,39.1,3.4,27.8
			c-0.1,2.2-0.2,4.4-0.3,6.6c-0.1,2.7-0.8,5.9-0.4,8.5c0.7,4.7,8.7,6,12.8,7.7c9.4,3.7,18.6,7.7,27.8,11.9
			c18.3,8.4,36,17.8,53.1,28.2c0.8-4,1.5-8,2-12.1C98.8,76.5,99,74.4,99.3,72.3z"/>
		<path fill="#1FA6AA" d="M107.3,27.4C106.8,27.8,107.6,28.6,107.3,27.4L107.3,27.4z"/>
		<path fill="#1FA6AA" d="M102.2,66.2c11.6,0,23.3-1.7,34.8-3.5c36.2-5.7,72.1-13.9,107.6-23c-22.3-3.8-44.5-8.1-66.7-12.6
			c-2.9-0.6-5.9-1.2-8.8-1.8c2.2,8,3.4,16.4,3.7,24.5c0,0.4-0.3,1.3-0.8,1.3c-0.2,0-0.3,0-0.5,0.1c-7.8,1.2-15.7,2.3-23.5,3.5
			c-0.1,0-0.2,0-0.3-0.1c0,0-0.1,0-0.1-0.1c0,0,0,0-0.1,0c-5-2.1-10.1-4.3-15.1-6.4c-0.7-0.3,0.1-1.2,0.4-1.4
			c0.2-0.1,0.4-0.3,0.6-0.5c3.9-3.5,4.8-10.6,4.7-15.4c0-3.4-0.6-6.8-1.3-10.2c-0.3-1.3-0.3-1.9-0.5-2.3c-0.6-0.1-1.2-0.2-1.8-0.4
			c-4.8-1-7.7-0.3-12.8,0.5c-4.2,0.7-8.4,1.3-12.6,1.8c-0.4,2.9-0.4,5.8-0.4,7.5c0,0.4-0.2,1.1-0.7,1.1c-5.2,0.7-10.4,1.5-15.6,2.2
			c-0.2,0-0.3,0-0.4-0.2c0,0-0.1,0-0.1,0c-3.6-1.5-7.2-3-10.8-4.5c-0.4-0.2-0.2-0.7,0-1c0.5-0.8,1-1.5,1.5-2.3
			c-25.1,2.2-50.5,3.4-75.7,3.2C36.5,43.6,68.5,59,102.2,66.2z"/>
		<path fill="#1FA6AA" d="M178,56.8c-24.6,5.2-50.3,11-75.6,11.4c-1.1,7.8-2,15.7-3.6,23.5c3.6-1.1,7.2-2.3,10.8-3.4
			c44.7-13.7,90.1-26.5,136.3-34.2c0.5-4.4,0.5-9.3,1.7-13.4c-1,0.3-2,0.5-3,0.8C222.4,46.9,200.2,52.1,178,56.8z"/>
		<path d="M250,38.5C250,38.5,250,38.5,250,38.5c-0.1,0-0.1,0-0.1,0c-27.3-4.6-54.4-9.9-81.6-15.5c-1.7-5.7-3.9-11.3-6.7-16.4
			c-0.1-0.2-0.3-0.2-0.5-0.1c-0.7,0.1-1.5,0.3-2.2,0.4c-10.2,0.2-20.7-2.5-30.4-5.5c-7.4-2.3-16.3-1-24-0.7c-0.5,0-0.7,0.2-0.7,0.4
			c-0.5,0.2-1,0.4-1.5,0.7C94.8,6.1,88.7,14,83.7,21.4c-15.4,1.3-30.8,2.2-46.2,2.7c-11.4,0.4-22.8,0.6-34.3,0.5
			c-0.8-0.3-2.3,0.8-2.3,1.5C0.6,33.1,0.3,40,0,47c0,0.1,0.1,0.2,0.2,0.3C33.5,60,65.7,75,96.1,93.7l0,0l0,0c0,0,0.1,0.1,0.3,0.1
			c0,0,0.1,0,0.1,0c0.2,0,0.4-0.1,0.6-0.2l0,0c34.2-11,69-20.6,104-28.8c14.8-3.5,29.6-6.6,44.5-9.1c0.2,0,0.4-0.1,0.6-0.1
			c0.7-0.1,1.9-0.7,2-1.5c0.6-5.1,1.3-10.2,1.9-15.2C250.3,38.6,250.2,38.5,250,38.5z M160.7,8.2c0.1,0,0.1,0,0.1,0
			c0.8,0.3,2.6,6,3,7.1c4.3,10.7,6.8,22.6,7.4,34.2c-7.5,1.1-15,2.2-22.5,3.4c0.8-11.3,1.1-23.2-2-34.2c-0.6-2.3-1.5-5.3-3-7.4
			c3-0.5,6.1-1,9.1-1.6c2.1-0.4,4.5-1.1,6.6-1.1C159.7,8.5,160.4,8.2,160.7,8.2z M119,1.6c4.8,0,7.6,0.5,12.1,1.7
			c7.1,2,14.5,3.8,22,4.4c-3.7,0.6-7.3,1.3-11,1.9c0,0,0,0,0,0c-9.8-2.1-19.6-4.5-29.3-7.1c-0.9-0.3-1.8-0.6-2.7-0.8
			C113.1,1.6,116.1,1.6,119,1.6z M94.7,9.8c2.2-2.4,6-7,9.3-7.6c0.3,0,0.6,0,0.9,0c1.3,0.1,3,0.8,4.2,1.2c10.7,3,21.5,5.6,32.3,8
			c2.1,1.9,3.1,5.2,3.8,7.8c3.2,10.6,2.9,22.4,2.2,33.4c-4.4-1.9-8.8-3.7-13.2-5.6c2.1-2.1,3.4-5.1,4.2-7.8
			c1.2-4.1,1.3-8.5,0.9-12.8c-0.3-3-0.4-8.8-2.8-10.4c-2.2-1.5-6.1-1.9-8.6-2.7c-3.8-1.2-7.6-2.4-11.5-3.5c-0.1-0.1-0.1-0.1-0.3-0.2
			c-0.2,0-0.4-0.1-0.6-0.1c0,0,0,0,0,0c-3.2-1-5.9-2.6-9.1-1.4C98,10.9,94.1,21.1,91.9,29.1c-1.8-0.7-3.5-1.5-5.3-2.2
			c-1.3-0.5-2.6-1.3-3.9-1.6c0,0,0,0-0.1,0C86,19.8,90.3,14.5,94.7,9.8z M103.5,27.8c-3.4,0.5-6.7,1-10.1,1.4
			c1.8-6.7,6.2-20.3,14.8-20.1c0.9,0,2.6,0.7,3.9,1.2c-3.9,2.7-4.5,11.3-4.7,15.1c0,0.5-0.2,1.3-0.1,1.9
			C106,27.4,104.7,27.6,103.5,27.8z M107.3,27.4C107.6,28.6,106.8,27.8,107.3,27.4L107.3,27.4z M115.8,11.5c0.1,0,0.2,0,0.2,0l0,0
			c3.1,1,6.2,1.9,9.3,2.9c1.1,0.3,2.4,0.6,3.7,0.9c-3.4,0.4-7.1,1.5-10.2,2c-3.2,0.5-6.5,0.9-9.7,1.3
			C110.1,14.4,111.9,10.6,115.8,11.5z M82.4,23.3c-0.5,0.8-1,1.5-1.5,2.3c-0.2,0.3-0.4,0.8,0,1c3.6,1.5,7.2,3,10.8,4.5
			c0,0,0.1,0,0.1,0c0.1,0.1,0.2,0.2,0.4,0.2c5.2-0.7,10.4-1.5,15.6-2.2c0.4-0.1,0.7-0.8,0.7-1.1c0-1.7,0-4.6,0.4-7.5
			c4.2-0.6,8.4-1.1,12.6-1.8c5.1-0.8,8-1.5,12.8-0.5c0.6,0.1,1.2,0.2,1.8,0.4c0.2,0.4,0.2,1,0.5,2.3c0.7,3.4,1.2,6.7,1.3,10.2
			c0,4.8-0.8,11.9-4.7,15.4c-0.2,0.2-0.4,0.3-0.6,0.5c-0.3,0.2-1,1.1-0.4,1.4c5,2.1,10.1,4.3,15.1,6.4c0,0,0,0,0.1,0
			c0,0,0,0.1,0.1,0.1c0.1,0.1,0.2,0.1,0.3,0.1c7.8-1.2,15.7-2.3,23.5-3.5c0.2,0,0.3,0,0.5-0.1c0.5-0.1,0.9-0.9,0.8-1.3
			c-0.4-8.1-1.6-16.4-3.7-24.5c2.9,0.6,5.9,1.2,8.8,1.8c22.2,4.5,44.4,8.8,66.7,12.6c-35.5,9.1-71.4,17.4-107.6,23
			c-11.5,1.8-23.1,3.5-34.8,3.5C68.5,59,36.5,43.6,6.7,26.5C31.9,26.7,57.3,25.5,82.4,23.3z M43.4,62.5c-9.2-4.2-18.4-8.2-27.8-11.9
			C11.5,49,3.5,47.7,2.8,42.9c-0.4-2.6,0.2-5.9,0.4-8.5c0.1-2.2,0.2-4.4,0.3-6.6c19.8,11.3,40.4,21.7,61.7,29.8
			c9.9,3.8,20,7,30.3,9.5c3.7,0.9,4.3,1.5,3.8,5.2c-0.3,2.1-0.5,4.3-0.8,6.4c-0.5,4.1-1.2,8.1-2,12.1C79.4,80.3,61.6,70.9,43.4,62.5
			z M245.8,54c-46.1,7.8-91.6,20.6-136.3,34.2c-3.6,1.1-7.2,2.2-10.8,3.4c1.6-7.8,2.5-15.6,3.6-23.5c25.3-0.3,50.9-6.2,75.6-11.4
			c22.3-4.7,44.5-9.9,66.6-15.5c1-0.3,2.1-0.4,3-0.8C246.3,44.7,246.3,49.6,245.8,54z"/>
		<path fill="#1FA6AA" d="M143.8,11.1c1.5,2.2,2.4,5.1,3,7.4c3.1,11,2.8,22.9,2,34.2c7.5-1.1,15-2.2,22.5-3.4
			c-0.6-11.6-3.1-23.5-7.4-34.2c-0.4-1.1-2.3-6.7-3-7.1c0,0-0.1,0-0.1,0c-0.4,0-1,0.3-1.3,0.3c-2.1,0-4.5,0.8-6.6,1.1
			C149.8,10.1,146.8,10.6,143.8,11.1z"/>
		<path fill="#1FA6AA" d="M142.1,9.7C142.1,9.7,142.1,9.7,142.1,9.7c3.7-0.6,7.4-1.3,11-1.9c-7.5-0.6-14.9-2.4-22-4.4
			c-4.4-1.2-7.2-1.7-12.1-1.7c-3,0-5.9,0-8.9,0.1c0.8,0.3,1.7,0.6,2.7,0.8C122.5,5.2,132.3,7.5,142.1,9.7z"/>
		<path fill="#1FA6AA" d="M82.6,25.3C82.6,25.3,82.6,25.3,82.6,25.3c1.4,0.3,2.7,1.1,4,1.6c1.8,0.7,3.5,1.5,5.3,2.2
			c2.2-8,6.1-18.2,14.6-21.1c3.2-1.1,6,0.5,9.1,1.4c0,0,0,0,0,0c0.2,0,0.4,0.1,0.6,0.1c0.1,0,0.2,0.1,0.3,0.2
			c3.8,1.2,7.6,2.4,11.5,3.5c2.5,0.8,6.4,1.2,8.6,2.7c2.4,1.6,2.5,7.5,2.8,10.4c0.4,4.3,0.3,8.7-0.9,12.8c-0.8,2.7-2.1,5.7-4.2,7.8
			c4.4,1.8,8.8,3.7,13.2,5.6c0.7-11,1-22.7-2.2-33.4c-0.8-2.6-1.8-5.9-3.8-7.8c-10.9-2.3-21.6-5-32.3-8c-1.2-0.3-2.8-1-4.2-1.2
			c-0.3,0-0.6,0-0.9,0c-3.4,0.6-7.1,5.2-9.3,7.6C90.3,14.5,86,19.8,82.6,25.3z"/>
		<path fill="#167679" d="M107.4,25.3c0.2-3.8,0.8-12.3,4.7-15.1c-1.4-0.5-3.1-1.1-3.9-1.2c-8.6-0.2-13,13.5-14.8,20.1
			c3.4-0.5,6.7-1,10.1-1.4c1.3-0.2,2.5-0.4,3.8-0.6C107.2,26.7,107.3,25.9,107.4,25.3z"/>
	</g>
</g>
<g id="ch04-07-2">
	<g id="new_base_1_">
	</g>
	<g id="hand">
	</g>
</g>
<g id="ch04-06-1">
	<g id="paths_1_" display="none">
		<g id="Layer_15_copy" display="inline">
		</g>
	</g>
</g>
<g id="ch04-03-2">
	<g id="paths" display="none">
		<g id="nose_x5F_34_x5F_side_path_x5D_" display="inline">
		</g>
		<g id="nose_x5F_34_x5F_side_path_x5D__copy" display="inline">
		</g>
	</g>
	<g id="main_comp_1_">
		<g id="base">
		</g>
		<g id="nose_x5F_34_x5F_side">
		</g>
		<g id="LID">
		</g>
	</g>
	<g id="base_copy">
	</g>
	<g id="nose_x5F_34_x5F_side_copy">
	</g>
	<g id="LID_copy">
	</g>
</g>
<g id="ch04-02-1">
	<g id="backup" display="none">
	</g>
</g>
</svg>
