<?xml version="1.0" encoding="utf-8"?>
<!-- Generator: Adobe Illustrator 18.1.1, SVG Export Plug-In . SVG Version: 6.00 Build 0)  -->
<svg version="1.0" id="Layer_1" xmlns="http://www.w3.org/2000/svg" xmlns:xlink="http://www.w3.org/1999/xlink" x="0px" y="0px"
	 viewBox="76.7 32.8 56.9 205" enable-background="new 76.7 32.8 56.9 205" xml:space="preserve">
<g>
	<path fill="#35EEFF" d="M132.4,46.5c-0.1-2.7-0.9-5.5-2.5-7.7c-2.8-3.9-7.7-5.2-12.3-5.2c-2.9,0-5.7,0.7-7.9,2.2
		c-1.7,1.1-3.2,2.7-4.2,4.9c-1.4,3-1.8,6.4-1.9,9.7c-0.4,19.5-0.8,39.1-0.9,58.6c-0.1,25.3-0.1,50.5,0,75.7
		c0,11.3,0.3,22.5,0.6,33.8c0.1,4.2,1,9.4-2.5,12.5c-2,1.8-4.7,2.7-7.3,3.2c-5.2,1-10.6,0.7-15.9,0.2c0,0.9,0.1,2.3,0.3,2.5
		c0.1,0.1,0.4,0,0.5,0c1,0.3,2.5,0.2,3.6,0.2c1.8,0.1,3.6,0.1,5.3,0c4.3-0.1,9-0.6,13-2.5c4-1.9,4.8-5.1,5-9.1
		c0.3-5.7,0.2-11.5,0.1-17.2c-0.2-26.5-0.7-53-0.7-79.5c0-11.4,0.1-22.9,0.2-34.4c0.1-15.1,0-30.2,0.8-45.3c0.3-4.4,2.3-8.6,5.8-11
		c1.3-0.9,2.8-1.5,4.5-1.8c4.2-0.7,10.1,0,12.1,4.3c0.9,2,0.7,4,1.1,6.1c0.1,0.8-0.1,0.5,0.6,0.6c0.4,0.1,0.9,0,1.3,0
		c0.4,0,0.8,0,1.2,0C132.4,47,132.4,46.8,132.4,46.5z"/>
	<path fill="#35EEFF" d="M127.5,35.1c-5.2-3.2-12.8-3.1-18.1,0.3c-1.4,0.9-2.7,2.1-3.6,3.5c-3.2,4.6-3.1,10.3-3.1,15.6
		c-0.1,8.7-0.4,17.3-0.5,26c-0.5,28.1-0.4,56.2-0.4,84.2c0,13.1-0.2,26.2,0.2,39.3c0.3,7.3,0.9,14.9,0.4,22.2
		c-0.5,6.9-8.8,7.8-14.2,7.9c-3.5,0.1-7-0.1-10.5-0.5c-0.1,0-0.3,0.1-0.4,0.2l0,0c-0.2,0.1-0.4,0.3-0.5,0.4
		c-0.2,0.9,0.2,2.3,0.3,3.2c0,0,0,0,0,0.1c5.5,0.6,11.4,0.6,16.9-0.4c3.2-0.6,6.5-1.6,9-3.6c2.5-2,3.1-4.5,3.2-7.6
		c0.7-12.8,0.1-25.7-0.1-38.6c-0.2-15.6-0.3-31.1-0.4-46.6c0-9.7,0-19.3,0.1-29c0.1-16.6,0.2-33.1,0.6-49.7c0.1-5,0-10,0.5-15
		c0.3-3.3,2.1-6.6,4.9-8.5c0.4-0.3,0.8-0.5,1.3-0.7c4.3-2,12.1-1.3,14.3,3.5c1,2.1,1,4.5,1.2,6.7c0,0.1,0,0.1,0.1,0.1
		c1.3,0,2.6,0,3.9,0c0,0,0.1,0,0.1,0c0.2,0,0.8-0.3,0.8-0.6C133.7,42.6,131.5,37.6,127.5,35.1z M131.1,47.3c-0.4,0-0.9,0.1-1.3,0
		c-0.8-0.1-0.5,0.1-0.6-0.6c-0.4-2.1-0.2-4.1-1.1-6.1c-2-4.3-7.9-5.1-12.1-4.3c-1.7,0.3-3.2,1-4.5,1.8c-3.6,2.4-5.5,6.6-5.8,11
		c-0.8,15.1-0.6,30.2-0.8,45.3c-0.1,11.4-0.2,22.9-0.2,34.4c0,26.5,0.5,53,0.7,79.5c0,5.7,0.1,11.5-0.1,17.2c-0.2,4.1-1,7.2-5,9.1
		c-3.9,1.9-8.7,2.3-13,2.5c-1.8,0-3.6,0-5.3,0c-1.1,0-2.6,0.1-3.6-0.2c-0.1,0-0.4,0-0.5,0c-0.2-0.1-0.3-1.6-0.3-2.5
		c5.2,0.5,10.7,0.8,15.9-0.2c2.6-0.5,5.2-1.4,7.3-3.2c3.6-3.1,2.6-8.3,2.5-12.5c-0.2-11.3-0.5-22.5-0.6-33.8
		c-0.1-25.3-0.1-50.5,0-75.7c0.1-19.5,0.4-39.1,0.9-58.6c0.1-3.3,0.5-6.7,1.9-9.7c1-2.1,2.4-3.7,4.2-4.9c2.3-1.4,5-2.1,7.9-2.2
		c4.6,0,9.5,1.3,12.3,5.2c1.6,2.2,2.4,5,2.5,7.7c0,0.3,0,0.5,0,0.8C132,47.3,131.5,47.3,131.1,47.3z"/>
</g>
<g id="BSFM">
	<g id="body_x5F_back">
		<g id="gravel_1_">
		</g>
	</g>
	<g id="water" opacity="0.7">
	</g>
	<g id="sand">
	</g>
	<g id="gravel_x5F_top">
	</g>
	<g id="gravel_x5F_bottom">
		<g id="Layer_11">
		</g>
	</g>
	<g id="concrete_x5F_body">
		<g id="gravel">
		</g>
	</g>
	<g id="bsfm_x5F_nose_x5F_side">
	</g>
	<g id="eye">
	</g>
	<g id="white_x5F_hose">
	</g>
	<g id="diffuser">
	</g>
	<g id="Lid">
	</g>
</g>
<g id="Layer_20">
	<g id="water_x5F_LowLevel">
	</g>
	<g id="water_x5F_highLevel">
	</g>
	<g id="body">
	</g>
	<g id="lid">
	</g>
</g>
</svg>
