<?xml version="1.0" encoding="utf-8"?>
<!-- Generator: Adobe Illustrator 18.1.1, SVG Export Plug-In . SVG Version: 6.00 Build 0)  -->
<svg version="1.1" xmlns="http://www.w3.org/2000/svg" xmlns:xlink="http://www.w3.org/1999/xlink" x="0px" y="0px"
	 viewBox="0 0 214.9 66.4" enable-background="new 0 0 214.9 66.4" xml:space="preserve">
<g id="ch06-05-1">
	<g id="paths_backup">
	</g>
</g>
<g id="bsf_x5F_lid">
	<path opacity="0.5" fill="#00B919" d="M212.9,24.8l-85.5-14.1l-0.9-2.5L126.2,8c-10.8-5.4-30-5.6-32.2-5.6c-0.4,0-1.3,0-1.6,0
		c-1,0.1-10.1,1.9-10.5,2l-0.3,0.1l-4.8,8.9L2.5,26.6l0.6,0.1l-0.5,0v10.6l100.1,26.4l0.2,0.1l109.5-27.6V24.9h-0.2L212.9,24.8z"/>
	<path fill="none" stroke="#00B919" stroke-width="5" stroke-miterlimit="10" d="M2.6,37.4L2.5,26.6l74.3-13.1l4.8-8.9
		c0,0,4.9-2.1,10.8-2.1c6,0.1,26.6-0.6,34.1,5.6l0.9,2.5l84.8,14.3l0.2,11.4L103,63.9L2.6,37.4z"/>
</g>
<g id="ch02A-08-2">
	<g id="bsf_contents">
		<g id="separation_gravel_copy">
		</g>
	</g>
</g>
<g id="ch06-02-3">
	<g id="Layer_28">
	</g>
	<g id="hand_1_">
	</g>
	<g id="hand_x5F_copy">
	</g>
	<g id="hand_new">
	</g>
	<g id="hand_new_copy">
	</g>
</g>
<g id="ch05-08-3">
	<g id="main_x5F_comp-path_backup_copy">
	</g>
	<g id="main_x5F_comp_2_">
	</g>
</g>
<g id="ch04-07-2">
	<g id="new_base_1_">
	</g>
	<g id="hand">
	</g>
</g>
<g id="ch04-06-1">
	<g id="paths_1_">
		<g id="Layer_15_copy">
		</g>
	</g>
	<g id="hand_w_jug_x5F_comp">
	</g>
	<g id="hand_w_jug_copy">
	</g>
</g>
<g id="ch04-03-2">
	<g id="paths">
		<g id="nose_x5F_34_x5F_side_path_x5D_">
		</g>
		<g id="nose_x5F_34_x5F_side_path_x5D__copy">
		</g>
	</g>
	<g id="main_comp_1_">
		<g id="base">
		</g>
		<g id="nose_x5F_34_x5F_side">
		</g>
		<g id="LID">
		</g>
	</g>
	<g id="base_copy">
	</g>
	<g id="nose_x5F_34_x5F_side_copy">
	</g>
	<g id="LID_copy">
	</g>
</g>
<g id="ch04-02-1">
	<g id="backup">
	</g>
</g>
<g id="ch07-12-4">
	<g id="hand_x5F_far">
	</g>
	<g id="hand_x5F_close_1_">
	</g>
	<g id="hand_x5F_far_copy">
	</g>
	<g id="hand_x5F_close_copy">
	</g>
</g>
<g id="ch08-04-1">
</g>
<g id="ch08-11-1">
	<g id="safety_x5F_copy">
		<g id="nose_copy">
		</g>
		<g id="spout_copy">
		</g>
		<g id="water_copy_2">
		</g>
		<g id="sand_copy_2">
		</g>
		<g id="back_copy_2">
		</g>
		<g id="side_copy">
		</g>
	</g>
	<g id="back_2_">
	</g>
	<g id="water" opacity="0.5">
	</g>
	<g id="sand">
	</g>
	<g id="side">
	</g>
	<g id="nose_7_">
	</g>
	<g id="spout_1_">
	</g>
	<g id="water_copy" opacity="0.5">
	</g>
	<g id="sand_copy">
	</g>
	<g id="nose_copy_2">
	</g>
	<g id="nose_copy_3">
	</g>
	<g id="back_copy">
	</g>
	<g id="back_copy_3">
	</g>
	<g id="side_copy_2">
	</g>
	<g id="side_copy_3">
	</g>
	<g id="spout_copy_2">
	</g>
	<g id="spout_copy_3">
	</g>
</g>
<g id="ch03-30-7">
</g>
<g id="ch03-30-8">
</g>
</svg>
