<?xml version="1.0" encoding="utf-8"?>
<!-- Generator: Adobe Illustrator 18.1.1, SVG Export Plug-In . SVG Version: 6.00 Build 0)  -->
<!DOCTYPE svg PUBLIC "-//W3C//DTD SVG 1.1//EN" "http://www.w3.org/Graphics/SVG/1.1/DTD/svg11.dtd">
<svg version="1.1" xmlns="http://www.w3.org/2000/svg" xmlns:xlink="http://www.w3.org/1999/xlink" x="0px" y="0px"
	 viewBox="0 0 208.3 393.8" enable-background="new 0 0 208.3 393.8" xml:space="preserve">
<g id="ch06-05-1">
	<g id="paths_backup" display="none">
	</g>
	<g id="back_4_">
		<line fill="none" x1="196.9" y1="20.8" x2="204.8" y2="20.8"/>
		<line fill="none" x1="3.5" y1="20.8" x2="15.9" y2="20.8"/>
		<g>
			<g id="XMLID_33_">
				<g>
					<path fill="#3E3E3F" d="M207.6,317c0.1,11,0.2,21.9,0.2,32.9c0,0,0,0,0,0h0c0-0.1-0.1-0.1-0.3-0.2c-0.4-0.1-0.8-0.2-1.2-0.3
						c0-0.1,0-0.2,0-0.4c-0.1-1.3,0-2.6,0-3.9c-0.1-12.6-0.2-25.2-0.3-37.8c-0.1-20.9-0.3-41.7-0.4-62.6
						c-0.2-24.7-0.4-49.4-0.5-74.1c-0.2-23.7-0.3-47.3-0.5-71c-0.1-18.2-0.3-36.4-0.4-54.6c0-5.5-0.1-11.1-0.1-16.6
						c0-1.6,0-3.3,0-4.9c0-0.5,0.3-1.9,0-2.4c-0.3-0.5-1.9-0.9-3.4-1.1c0-0.2,0-0.3,0-0.5c0-0.1-0.1-0.2-0.3-0.2l0-0.1
						c1.6,0.4,3.2,0.8,4.9,1.2c0.1,0,0.3,0.1,0.3,0.2c0,0.2-0.1,0.4,0,0.6c0.4,1.1,0,3.2,0,4.4c0,2.8,0,5.6,0.1,8.4
						c0.1,9.1,0.1,18.1,0.2,27.2c0.2,27.4,0.4,54.8,0.6,82.2c0.2,31.8,0.5,63.6,0.7,95.4C207.2,264.8,207.4,290.9,207.6,317z"/>
					<path fill="#3E3E3F" d="M207.8,349.9L207.8,349.9c0,0.2-0.3,0.4-0.4,0.4c-14.3,6-28.5,11.9-42.8,17.9
						c-17.6,7.4-35.2,14.7-52.8,22.1c-2.1,0.9-5.7,3.3-8.1,3c-1.1-0.1-2.5-1.1-3.5-1.5c-2.7-1.1-5.4-2.3-8.2-3.4
						c-30.5-12.7-60.9-25.4-91.4-38.1c-0.1,0-0.1-0.1-0.1-0.1c0,0,0-0.1,0-0.2l0.2,0c0,0.1,0.1,0.2,0.5,0.2c0.4,0,0.8-0.1,1.2-0.2
						c0.3,0.1,0.7,0.3,1.1,0.5c2.6,1.1,5.3,2.2,7.9,3.3c9.5,4,19,7.9,28.5,11.9c19.8,8.3,39.7,16.5,59.5,24.8c1.7,0.7,3.4,1.3,5,2.1
						c0,0-0.1,0.1-0.2,0.1c-0.8,0.4,0.9,0.2,0.3,0c0,0-0.1,0-0.1-0.1c0.6-0.3,1.2-0.5,1.8-0.8c7.2-3,14.5-6.1,21.7-9.1
						c21.5-9,42.9-17.9,64.4-26.9c3.4-1.4,6.7-2.8,10.1-4.2c0.8-0.4,2.6-0.7,3.6-1.3c0.2,0.1,0.3,0.1,0.5,0.1
						C207,350.5,207.8,350.1,207.8,349.9z"/>
					<path fill="#3E3E3F" d="M206.4,350.1c-0.1,0-0.1-0.4,0-0.8c0.4,0.1,0.8,0.2,1.2,0.3c0.2,0,0.3,0.1,0.3,0.2
						c0,0.3-0.8,0.6-1.2,0.5c-0.2,0-0.3-0.1-0.5-0.1C206.2,350.2,206.3,350.2,206.4,350.1z M206.4,350.1c0.1,0,0.2-0.1,0.4-0.3
						C206.7,349.9,206.6,350,206.4,350.1z"/>
					<path fill="#3E3E3F" d="M206.4,350.1c0.1-0.1,0.3-0.2,0.4-0.3C206.6,350,206.5,350.1,206.4,350.1z"/>
					<path fill="#939393" d="M206.4,349c0,0.1,0,0.2,0,0.4c-0.7-0.2-1.4-0.4-2-0.6c-1.3-0.4-2.4-1.2-3.8-1.6
						c0.7-5.8,0.7-11.9,0.2-17.7c-0.2-3-0.6-5.9-0.6-8.9c0-1.8,0.1-3.8-0.9-5.3c0.1-0.1,0.1-0.1,0.1-0.2c0-0.6-0.1-1.1-0.2-1.6
						c0-0.1,0-0.1-0.1-0.1c-0.6-5.6-0.1-11.4-0.2-17c-0.1-6.1-0.2-12.3-0.3-18.4c-0.1-13-0.4-25.9-0.4-38.9
						c0.1-12.8,0.9-25.6,0.2-38.4c-0.7-12.4,0.3-24.6,0.3-37c0.1-0.1,0.2-0.2,0.2-0.3c-1.2-24.3,0.2-48.7,0.3-73
						c0.1-11.5,1.2-23,1.4-34.5c0.1-6.4-0.6-12.7-0.7-19.1c-0.1-5.5,0.9-11.1,0.5-16.6c1.5,0.3,3.1,0.6,3.4,1.1c0.3,0.5,0,1.9,0,2.4
						c0,1.6,0,3.3,0,4.9c0,5.5,0.1,11.1,0.1,16.6c0.1,18.2,0.3,36.4,0.4,54.6c0.2,23.7,0.3,47.3,0.5,71c0.2,24.7,0.4,49.4,0.5,74.1
						c0.1,20.9,0.3,41.8,0.4,62.6c0.1,12.6,0.2,25.2,0.3,37.8C206.4,346.4,206.3,347.7,206.4,349z"/>
					<path fill="#3E3E3F" d="M206.4,349.4c0,0.4-0.1,0.8,0,0.8c-0.1,0.1-0.2,0.1-0.3,0.1c-0.9-0.3-1.8-0.5-2.7-0.8
						c-1.3-0.4-2.5-1.2-3.8-1.6c0.1,0,0.2-0.1,0.3-0.1c0.3-0.1,0.6-0.2,0.6-0.4c0-0.1,0-0.1,0-0.2c1.3,0.4,2.4,1.2,3.8,1.6
						C205,349,205.7,349.2,206.4,349.4z"/>
					<path fill="#939393" d="M206.2,350.3c-1.1,0.6-2.8,1-3.6,1.3c-3.4,1.4-6.7,2.8-10.1,4.2c-21.5,9-42.9,17.9-64.4,26.9
						c-7.2,3-14.5,6.1-21.7,9.1c-0.6,0.3-1.2,0.5-1.8,0.8c-1.7-0.8-3.4-1.4-5-2.1c-19.8-8.3-39.7-16.5-59.5-24.8
						c-9.5-4-19-7.9-28.5-11.9c-2.6-1.1-5.3-2.2-7.9-3.3c-0.4-0.2-0.8-0.3-1.1-0.5c1.7-0.5,3.4-1.4,5-2.1c0.9-0.4,3-1,4-1.8
						c2.1,0.7,3.8,2.2,5.7,3.2c2.3,1.1,4.7,2.2,7,3.1c5.1,2,9.8,4.6,14.8,6.7c5.4,2.2,10.9,3.9,16.3,5.9c5.7,2.1,11,5,16.8,6.9h0
						c4.8,3.1,10.4,3.7,15.5,6.1c2.8,1.3,5.7,2.5,8.6,3.8c2.6,1.1,5.4,1.7,7.9,3c0,0,0,0,0,0v0c0,0,0.1,0.1,0.1,0.1c0,0,0.1,0,0.1,0
						c0,0,0.1,0,0.2,0c3,0.2,5.1-2,8-2.8c1.8-0.5,3.6-0.6,5.4-1.2c2.1-0.8,4-1.9,6.1-2.8c4.1-1.7,8-3.9,12.2-5.5
						c4.5-1.8,9.3-2.9,13.7-4.9c4.3-1.9,8.6-3.2,13-4.7c3.4-1.2,5.9-2.9,8.8-4.9c4.5-2.9,10.3-3.8,15.2-5.8
						c4.2-1.8,8.6-2.8,12.8-4.4c1.3,0.5,2.5,1.2,3.8,1.6C204.4,349.8,205.3,350,206.2,350.3z"/>
					<path fill="#3E3E3F" d="M200.8,329.4c0.4,5.8,0.5,11.9-0.2,17.7c-0.1,0-0.1,0-0.2-0.1c-0.1,0-0.2,0-0.3,0c0,0,0,0,0,0
						c-0.2,0-0.3,0-0.5,0.1c-0.1,0.1-0.3,0.1-0.4,0.2c0.7-5.8,0.7-11.7,0.2-17.5c-0.2-2.7-0.6-5.4-0.6-8.1c0-2.1,0.4-4.7-1.1-6.4
						c-0.1-0.1,0-0.3,0.2-0.4c0,0.2,0,0.3,0.1,0.5c0.1,0.4,1.1,0.2,1.4-0.2c1,1.5,0.9,3.5,0.9,5.3
						C200.3,323.5,200.6,326.5,200.8,329.4z"/>
					<path fill="#3E3E3F" d="M200.1,36.6c0.1,6.4,0.8,12.7,0.7,19.1c-0.2,11.5-1.3,23-1.4,34.5c-0.2,24.3-1.5,48.7-0.3,73
						c-0.1-0.1-0.1-0.2-0.2-0.4c0-0.1,0-0.2,0-0.3c0-0.2-0.3-0.2-0.6-0.2c0,0,0,0,0,0c-0.2,0-0.5,0.1-0.7,0.2
						c-1.1-23.9,0.2-48,0.4-72c0.1-11.8,1.3-23.5,1.4-35.2c0.1-6.1-0.6-12.2-0.7-18.4c-0.1-5.5,0.9-10.9,0.5-16.4c0,0,0.1,0,0.1,0
						c0.2,0,0.6-0.2,0.6-0.5c0-0.1-0.1-0.1-0.1-0.2c0.3,0,0.5,0.1,0.8,0.1C201,25.6,200,31.1,200.1,36.6z"/>
					<path fill="#3E3E3F" d="M200.6,19.5c0,0.2,0,0.3,0,0.5c-0.3,0-0.6-0.1-0.8-0.1c0,0,0,0,0,0c-0.1,0-0.2-0.1-0.3-0.1
						c-0.1,0-0.2,0-0.3,0c0.1-0.3,0.8-0.5,1.2-0.5C200.5,19.4,200.6,19.4,200.6,19.5z"/>
					<path fill="#3E3E3F" d="M200.6,347.1c0,0.1,0,0.1,0,0.2c0,0.2-0.3,0.4-0.6,0.4c0.1,0,0.1,0,0.2-0.1c0.7-0.3,0.4-0.6,0-0.6
						c0.1,0,0.3,0,0.3,0C200.5,347.1,200.6,347.1,200.6,347.1z"/>
					<path fill="#3E3E3F" d="M200.4,19.2L200.4,19.2c-0.4,0-1.1,0.2-1.2,0.5c-0.6-0.1-1-0.2-1.3-0.2c-5.8-1.4-11.7-2.8-17.6-4.2
						c-9.7-2.2-19.4-4.4-29.2-6.4c-12.5-2.6-25-5-37.5-7c-2.1-0.3-4.4-1-6.6-1c-2.5,0-6.7,1.3-9.7,1.9c-12.5,2.5-25.1,4.9-37.6,7.4
						c-15.8,3.1-31.7,6.1-47.5,9.2c-0.3,0-0.6,0-0.9-0.1c-0.3,0-1.2,0.1-1.2,0.5c0,0,0,0,0,0c-2,0.4-4,0.8-5.9,1.1
						c0-0.1,0-0.3,0-0.4c0-0.2-0.3-0.2-0.6-0.2c9.6-1.8,19.2-3.7,28.8-5.6c15.6-3,31.1-6,46.7-9.1c6.5-1.3,13-2.5,19.5-3.8
						c3-0.6,6.5-1.8,9.5-1.7c3,0.2,6.2,1,9.2,1.5c6.8,1.1,13.5,2.4,20.3,3.7C158.7,9.5,179.6,14.1,200.4,19.2z"/>
					<path fill="#3E3E3F" d="M200.1,347.1c0.4,0,0.7,0.3,0,0.6c-0.1,0-0.1,0-0.2,0.1c-0.2,0.1-0.4,0.1-0.5,0c0,0-0.1,0-0.1,0
						c0,0,0,0,0,0c-0.1,0-0.1-0.1-0.1-0.1C199.2,347.4,199.7,347.1,200.1,347.1C200.1,347.1,200.1,347.1,200.1,347.1z"/>
					<path fill="#3E3E3F" d="M199.6,347.1c0.2-0.1,0.3-0.1,0.5-0.1c-0.4,0.1-0.9,0.3-0.9,0.5c0,0,0,0,0-0.1c0-0.1,0-0.1,0-0.2
						C199.3,347.2,199.4,347.2,199.6,347.1z"/>
					<path fill="#3E3E3F" d="M200,347.7c-0.1,0-0.2,0.1-0.3,0.1c-0.1,0-0.1-0.1-0.2-0.1C199.6,347.8,199.8,347.8,200,347.7z"/>
					<path fill="#3E3E3F" d="M199.8,19.9c0.1,0,0.1,0.1,0.1,0.2c0,0.3-0.5,0.4-0.6,0.5c0,0-0.1,0-0.1,0c0-0.2,0-0.4,0-0.7
						c0,0,0,0,0,0c0,0,0,0,0.1,0c0,0,0,0,0,0c0,0,0.1,0,0.1,0c0,0,0,0,0,0c0,0,0.1,0,0.1,0C199.6,19.9,199.7,19.9,199.8,19.9
						C199.8,19.9,199.8,19.9,199.8,19.9z"/>
					<path fill="#3E3E3F" d="M199.8,19.9c-0.1,0-0.2,0-0.3-0.1C199.6,19.8,199.7,19.9,199.8,19.9z"/>
					<path fill="#3E3E3F" d="M199.4,347.8c0.1,0,0.2,0,0.2,0.1c-4.2,1.6-8.6,2.6-12.8,4.4c-4.9,2.1-10.7,2.9-15.2,5.8
						c-3,1.9-5.4,3.7-8.8,4.9c-4.4,1.5-8.7,2.8-13,4.7c-4.4,2-9.2,3.1-13.7,4.9c-4.1,1.7-8,3.8-12.2,5.5c-2.1,0.9-4,2-6.1,2.8
						c-1.7,0.6-3.6,0.7-5.4,1.2c-2.9,0.8-5,2.9-8,2.8c0.4,0,1-0.2,1-0.5c0,0,0,0,0,0c0-0.1,0-0.1,0-0.2c1.8,0,3.9-1.8,5.6-2.4
						c2-0.7,4.2-0.8,6.2-1.6c4.1-1.5,8.3-3.5,12.3-5.4c7.6-3.7,15.6-6.2,23.3-9.4c4.4-1.8,9.2-2.5,13.5-4.8c3.1-1.6,5.4-3.8,8.8-5
						c4.1-1.5,8.3-2.7,12.3-4.5c3.8-1.6,7.8-2.4,11.6-3.9c0,0.1,0,0.1,0,0.2c0,0,0,0.1,0,0.1c0,0.1,0,0.1,0.1,0.1c0,0,0,0,0,0
						C199.3,347.7,199.4,347.7,199.4,347.8z"/>
					<path fill="#B7BBBF" d="M199.4,329.8c0.4,5.8,0.5,11.7-0.2,17.5c-3.8,1.5-7.9,2.3-11.6,3.9c-4,1.7-8.2,3-12.3,4.5
						c-3.4,1.2-5.7,3.4-8.8,5c-4.3,2.2-9.1,2.9-13.5,4.8c-7.7,3.2-15.8,5.7-23.3,9.4c-4,1.9-8.2,3.9-12.3,5.4
						c-2,0.8-4.1,0.9-6.2,1.6c-1.7,0.6-3.8,2.3-5.6,2.4c0.1-6-0.3-11.8-0.2-17.8c0.1-2.4,0.5-5.1,0.2-7.5c-0.3-2.1-0.8-3.9-0.9-6
						c3.2-0.3,6.5-1.4,9.6-2.1c3.9-0.8,7.5-2.6,11.3-3.8c7.8-2.4,15.5-5.7,23-8.9c3.5-1.5,6.7-3.4,10.1-5c3.9-1.8,7.9-2,11.9-3.3
						c3.9-1.3,7.7-2.8,11.5-4.2c3.2-1.2,6.5-2,9.6-3.5c0.1,0,0.1-0.1,0.2-0.1c0.2-0.1,0.2-0.2,0.2-0.3c0,0,0,0,0,0c0,0,0,0,0,0
						c0-3.4-1.7-6.3-1.7-9.7c-0.1-4.8,0.2-9.6,0.4-14.4c0.2-3.2-0.2-6.1-0.4-9.3c-0.3-4.2,0.8-8.4,1-12.5
						c0.8-17.2-1.9-34.3-1.1-51.5c0.3-7.6,0.7-15.3,0.5-22.9c-0.1-3.9-0.3-7.8-0.4-11.7c0-4.3,0.5-8.6,0.6-12.9
						c0.3-17.2-1.3-34.4-0.8-51.7c0.3-9.9,0.7-19.8,0.8-29.8c0-4.8,0.4-9.6,0.1-14.4c-0.2-4.7-0.8-9.2-0.1-13.9
						c1.5-1.1,3.2-2.1,4.2-3.6c0.3-0.2,0.6-0.4,0.3-0.5c0.2-0.4,0.4-0.8,0.5-1.3c0.7-4.4,1-8.9,1.2-13.3c0.4-9.1,0.5-18.2,0.5-27.3
						c0.2,0,0.3-0.1,0.5-0.1c0.3-0.1,0.7-0.1,1-0.2c0,0,0.1,0,0.1,0c0.3,5.5-0.6,10.9-0.5,16.4c0.1,6.1,0.8,12.2,0.7,18.4
						c-0.1,11.7-1.3,23.5-1.4,35.2c-0.2,24-1.5,48-0.4,72c-0.2,0.1-0.4,0.3-0.3,0.4c0.1,0.1,0.1,0.2,0.2,0.3c0,12.6-1,25.1-0.4,37.7
						c0.7,12.8-0.1,25.6-0.2,38.4c-0.1,13,0.2,25.9,0.4,38.9c0.1,6.1,0.2,12.3,0.3,18.4c0.1,6.1-0.6,12.3,0.3,18.3
						c-0.2,0.1-0.3,0.3-0.2,0.4c1.5,1.8,1.1,4.3,1.1,6.4C198.8,324.4,199.2,327.1,199.4,329.8z"/>
					<path fill="#3E3E3F" d="M199.4,315c0,0.1,0,0.1-0.1,0.2c0-0.1-0.1-0.1-0.1-0.2C199.3,315,199.4,315,199.4,315z"/>
					<path fill="#3E3E3F" d="M199.2,19.9C199.2,19.9,199.2,19.9,199.2,19.9C199.2,19.9,199.2,19.9,199.2,19.9
						C199.1,19.9,199.1,19.8,199.2,19.9c0.1-0.1,0.2,0,0.3,0c-0.1,0-0.1,0-0.1,0C199.3,19.9,199.3,19.9,199.2,19.9
						C199.3,19.9,199.2,19.9,199.2,19.9L199.2,19.9z"/>
					<path fill="#3E3E3F" d="M199.4,315c-0.1,0-0.1,0-0.2,0c-0.1-0.1-0.1-0.2-0.2-0.3c-0.2-0.2-0.7-0.1-1.1,0.1
						c0-0.4-0.1-0.8-0.1-1.1c-0.1-0.4,1.1-0.7,1.4-0.5C199.2,313.8,199.3,314.4,199.4,315z"/>
					<path fill="#3E3E3F" d="M199.3,313.4c0.1,0.5,0.1,1.1,0.2,1.6c-0.1-0.6-0.2-1.2-0.2-1.8C199.2,313.3,199.2,313.3,199.3,313.4z"
						/>
					<path fill="#3E3E3F" d="M199.2,315.1c0,0.1,0.1,0.1,0.1,0.2c-0.3,0.4-1.3,0.5-1.4,0.2C198.4,315.3,198.8,315.2,199.2,315.1z"/>
					<path fill="#3E3E3F" d="M199,314.8c0.1,0.1,0.1,0.2,0.2,0.3c-0.4,0.1-0.8,0.2-1.3,0.3c0-0.2,0-0.4,0-0.5
						C198.3,314.7,198.9,314.6,199,314.8z"/>
					<path fill="#3E3E3F" d="M199.2,19.9L199.2,19.9C199.2,19.9,199.2,19.9,199.2,19.9C199.2,19.9,199.2,19.9,199.2,19.9z"/>
					<path fill="#3E3E3F" d="M199.2,347.6c0,0.1,0,0.1,0.1,0.1C199.2,347.7,199.1,347.6,199.2,347.6z"/>
					<path fill="#B7BBBF" d="M199.1,19.9c0,0.2,0,0.4,0,0.7c0,0,0,0-0.1,0C199.1,20.3,199.1,20.1,199.1,19.9z"/>
					<path fill="#D5D7D9" d="M199.2,19.8c0,0,0,0.1,0,0.1c0,0,0,0,0,0c0,0-0.1,0-0.1,0c-0.2,0-0.5,0.1-0.7,0.1
						c-0.2,0-0.4,0.1-0.7,0.1c-0.1,0-0.5,0-0.2,0c0,0-0.1,0-0.1,0c-0.1,0-0.1,0-0.2,0.1c-0.1,0-0.2,0-0.2,0.1
						c-20.2-4.6-40.5-8.9-60.9-12.6c-9-1.7-18.2-3.7-27.3-4.6c-0.2,0-0.3,0-0.5,0c-0.1-0.1-0.4-0.1-0.7,0c-2.1,0-4.2,0.4-6.3,0.7
						c-5.9,0.8-11.7,1.9-17.6,2.9C69.7,9.3,55.8,12.1,42,14.9c-8.4,1.7-16.7,3.5-25.1,5.3c-0.1-0.1-0.3-0.1-0.6,0
						c-0.8-0.1-1.5-0.4-2.3-0.6c-0.4-0.1-0.7-0.1-1.1-0.1c-0.1,0-0.3,0-0.5,0c-0.1,0-0.1,0-0.2,0c15.9-3.1,31.7-6.1,47.5-9.2
						c12.5-2.4,25.1-4.9,37.6-7.4c2.9-0.6,7.2-1.9,9.7-1.9c2.1,0,4.5,0.7,6.6,1c12.6,2.1,25.1,4.5,37.5,7c9.8,2,19.5,4.1,29.2,6.4
						c5.9,1.4,11.7,2.7,17.6,4.2C198.2,19.6,198.6,19.7,199.2,19.8z"/>
					<path fill="#B7BBBF" d="M199.1,19.9C199.1,19.9,199.1,19.9,199.1,19.9c0,0.2,0,0.4,0,0.7c0,0,0,0,0,0c-0.2,0-0.6,0-0.6-0.3
						C198.5,20.1,198.8,20,199.1,19.9C199.1,19.9,199.1,19.9,199.1,19.9z"/>
					<path fill="#3E3E3F" d="M199.1,163.2c0,0.1-0.1,0.3-0.2,0.3c0-0.1,0-0.2,0-0.3C199,163.2,199,163.2,199.1,163.2z"/>
					<path fill="#3E3E3F" d="M198.9,162.8c0.1,0.1,0.1,0.2,0.2,0.4c-0.1,0-0.1,0-0.2,0.1C198.9,163.1,198.9,163,198.9,162.8z"/>
					<path fill="#B7BBBF" d="M199.1,20.6C199.1,20.6,199.1,20.6,199.1,20.6c-0.3,0.1-0.7,0.1-1,0.2c-0.2,0-0.3,0.1-0.5,0.1
						c0,0,0,0,0-0.1c0.2-0.1,0.3-0.2,0.3-0.3c0-0.3-0.3-0.3-0.5-0.3c0,0,0,0,0,0c-0.2,0,0.1,0,0.2,0c0.2,0,0.4-0.1,0.7-0.1
						c0.2,0,0.5-0.1,0.7-0.1c0,0,0,0,0.1,0c-0.3,0.1-0.6,0.2-0.6,0.4C198.4,20.6,198.9,20.6,199.1,20.6z"/>
					<path fill="#3E3E3F" d="M199,296.2c0.1,5.6-0.5,11.4,0.2,17c-0.3-0.2-1.4,0-1.4,0.5c0.1,0.4,0.1,0.7,0.1,1.1c0,0,0,0,0,0
						c-0.9-6-0.2-12.3-0.3-18.3c-0.1-6.1-0.2-12.3-0.3-18.4c-0.2-13-0.4-25.9-0.4-38.9c0.1-12.8,0.9-25.6,0.2-38.4
						c-0.7-12.6,0.3-25.1,0.4-37.7c0.1,0.1,0.1,0.2,0.2,0.3c0.2,0.3,0.9,0.2,1.3,0c0,12.4-1,24.6-0.3,37c0.7,12.8-0.1,25.6-0.2,38.4
						c-0.1,13,0.2,25.9,0.4,38.9C198.8,283.9,198.9,290.1,199,296.2z"/>
					<path fill="#3E3E3F" d="M198.9,162.5c0,0.1,0,0.2,0,0.3c0-0.1-0.1-0.2-0.2-0.3c-0.1-0.1-0.2-0.2-0.4-0.2
						C198.7,162.3,198.9,162.4,198.9,162.5z"/>
					<path fill="#3E3E3F" d="M198.9,162.8c0,0.1,0,0.3,0,0.4c-0.4,0.1-0.8,0.2-1.3,0.3c0-0.3,0-0.6,0-0.9c0.2-0.2,0.4-0.2,0.7-0.3
						c0,0,0,0,0,0c0.2,0,0.3,0.1,0.4,0.2C198.8,162.6,198.9,162.7,198.9,162.8z"/>
					<path fill="#3E3E3F" d="M198.9,163.2c0,0.1,0,0.2,0,0.3c-0.4,0.3-1.1,0.3-1.3,0C198.1,163.4,198.5,163.3,198.9,163.2z"/>
					<path fill="#3E3E3F" d="M197.9,314.9c0,0.2,0,0.3,0,0.5C197.9,315.2,197.9,315.1,197.9,314.9
						C197.9,314.9,197.9,314.9,197.9,314.9z"/>
					<path fill="#B7BBBF" d="M197.4,20.2c0.2,0,0.5,0,0.5,0.3c0,0.1-0.2,0.2-0.3,0.3c0,0,0,0,0-0.1l0,0c0.1-0.1,0-0.2-0.2-0.3
						C197.4,20.4,197.4,20.3,197.4,20.2C197.4,20.2,197.4,20.2,197.4,20.2z"/>
					<path fill="#3E3E3F" d="M198.3,162.4c-0.3,0-0.5,0.1-0.7,0.3c0,0,0-0.1,0-0.1C197.8,162.4,198.1,162.4,198.3,162.4z"/>
					<path fill="#3E3E3F" d="M197.6,162.6c0,0.3,0,0.6,0,0.9c-0.1-0.1-0.1-0.2-0.2-0.3c0-0.1,0-0.2,0-0.3
						C197.5,162.8,197.5,162.7,197.6,162.6z"/>
					<path fill="#3E3E3F" d="M197.6,162.5c0,0,0,0.1,0,0.1c-0.1,0.1-0.2,0.2-0.2,0.3c0,0.1,0,0.2,0,0.3c-0.1-0.1-0.1-0.2-0.2-0.3
						C197.2,162.8,197.4,162.6,197.6,162.5z"/>
					<path fill="#B7BBBF" d="M197.4,20.4c0.2,0.1,0.3,0.1,0.2,0.3C197.6,20.6,197.5,20.6,197.4,20.4
						C197.4,20.5,197.4,20.5,197.4,20.4z"/>
					<path fill="#3E3E3F" d="M197.6,20.7L197.6,20.7C197.6,20.7,197.6,20.8,197.6,20.7c0,0.1-0.1,0.1-0.1,0.1
						C197.5,20.8,197.6,20.7,197.6,20.7z"/>
					<path fill="#3E3E3F" d="M197.6,20.8C197.6,20.8,197.6,20.8,197.6,20.8c-0.1,0.1-0.2,0.1-0.2,0.1c0,0,0.1,0,0.1-0.1
						C197.5,20.8,197.5,20.8,197.6,20.8z"/>
					<path fill="#3E3E3F" d="M197.4,20.9c0.1,0,0.1,0,0.2,0c0,9.1-0.1,18.2-0.5,27.3c-0.2,4.4-0.5,9-1.2,13.3
						c-0.1,0.5-0.2,0.9-0.5,1.3c-0.1,0-0.2,0-0.3,0c-0.4,0-0.7,0-1.1,0c0.5-1.1,0.5-2.5,0.7-3.7c0.6-4.2,0.8-8.3,1-12.5
						c0.3-8.4,0.4-16.9,0.4-25.4c0.1,0,0.2,0,0.3,0.1C196.7,21.2,197.1,21.1,197.4,20.9z"/>
					<path fill="#3E3E3F" d="M197.6,20.7c0,0-0.1,0.1-0.1,0.1c-0.1,0-0.2,0.1-0.3,0.1c0,0,0.1,0,0.1,0c0-0.1,0.1-0.2,0.1-0.4
						C197.5,20.6,197.6,20.6,197.6,20.7z"/>
					<path fill="#B7BBBF" d="M197.5,20.2c0,0.1-0.1,0.2-0.1,0.3c0,0,0,0,0,0c-0.2,0-0.3-0.1-0.5-0.1c0.1,0,0.2-0.1,0.2-0.1
						c0.1,0,0.1,0,0.2-0.1C197.3,20.2,197.4,20.2,197.5,20.2C197.4,20.2,197.4,20.2,197.5,20.2C197.4,20.2,197.4,20.2,197.5,20.2z"
						/>
					<path fill="#3E3E3F" d="M197.5,20.8C197.4,20.8,197.4,20.9,197.5,20.8c-0.2,0.1-0.3,0.1-0.4,0.1c0,0,0.1,0,0.1,0
						C197.3,20.9,197.4,20.9,197.5,20.8z"/>
					<path fill="#3E3E3F" d="M197.4,20.4C197.4,20.5,197.4,20.5,197.4,20.4c-0.3,0-0.6,0.1-0.9,0.2c0-0.1,0.2-0.3,0.4-0.3
						C197,20.4,197.2,20.4,197.4,20.4C197.4,20.4,197.4,20.4,197.4,20.4z"/>
					<path fill="#3E3E3F" d="M197.4,20.5c0,0.1-0.1,0.2-0.1,0.4c0,0-0.1,0-0.1,0c0,0-0.1,0-0.1,0c-0.1,0-0.1,0-0.2,0
						c-0.3,0-0.4-0.1-0.4-0.3C196.8,20.5,197.1,20.5,197.4,20.5z"/>
					<path fill="#3E3E3F" d="M197.1,20.9c0.1,0,0.2,0,0.3,0c-0.3,0.2-0.7,0.3-0.9,0.3c-0.1,0-0.2-0.1-0.3-0.1c0-0.2,0.2-0.3,0.4-0.4
						c0,0.1,0.1,0.2,0.4,0.3C196.9,20.9,197,20.9,197.1,20.9z"/>
					<path fill="#3E3E3F" d="M196.9,20.3c-0.2,0.1-0.3,0.2-0.4,0.3c-0.2,0.1-0.4,0.2-0.4,0.4c-21.9-5-43.9-9.6-66-13.6
						c-5.3-0.9-10.6-1.9-15.9-2.7c-1.9-0.3-3.9-0.8-5.9-1c0-0.2,0-0.4,0-0.6c0-0.1,0-0.1-0.1-0.1c0.2,0,0.3,0,0.5,0
						C117.8,4,127,6.1,136,7.7C156.4,11.4,176.7,15.7,196.9,20.3z"/>
					<path fill="#B7BBBF" d="M196.1,21.1c0,8.5-0.1,17-0.4,25.4c-0.1,4.2-0.4,8.4-1,12.5c-0.2,1.2-0.2,2.6-0.7,3.7
						c-3.8-0.3-7.3-2.1-10.8-3.4c-3.3-1.2-6.4-1.6-9.8-2c-4.2-0.5-7.6-2.1-11.6-3.4c-3.5-1.2-7.2-1.7-10.8-2.5
						c-3.9-0.9-7.9-1.8-11.8-2.6c-4.3-0.8-8.3-2.2-12.5-3.4c-3.3-0.9-6.8-1.7-10.1-2.5c-2.1-0.5-3.9-0.6-5.9-0.2
						c-1.4-5.8-1.5-11.9-1.6-17.8c-0.1-7-0.7-14-0.8-21.1c2,0.2,4,0.7,5.9,1c5.3,0.8,10.6,1.8,15.9,2.7
						C152.2,11.5,174.2,16.1,196.1,21.1z"/>
					<path fill="#3E3E3F" d="M195.4,62.8c0.3,0.1,0,0.4-0.3,0.5C195.2,63.1,195.4,63,195.4,62.8z"/>
					<path fill="#3E3E3F" d="M195.2,62.7c0.1,0,0.2,0,0.3,0c-0.1,0.2-0.2,0.4-0.3,0.5c-0.2,0.1-0.4,0.2-0.6,0.2c-0.3,0-0.6,0-0.9,0
						c0.2-0.2,0.3-0.5,0.4-0.8C194.4,62.7,194.8,62.8,195.2,62.7z"/>
					<path fill="#3E3E3F" d="M194.6,63.5c0.2,0,0.4-0.1,0.6-0.2c-1,1.4-2.8,2.4-4.2,3.6c0,0,0-0.1,0-0.1c0-0.1,0-0.1-0.1-0.2
						c0-0.1-0.1-0.1-0.2-0.1c0,0-0.1,0-0.2,0c0,0,0,0,0,0c-0.2,0-0.3,0-0.5,0c1.2-0.9,2.7-1.8,3.5-2.9c0,0,0.1-0.1,0.1-0.1
						C193.9,63.5,194.3,63.5,194.6,63.5z"/>
					<path fill="#3E3E3F" d="M194.1,62.7c-0.1,0.3-0.3,0.5-0.4,0.8c-6.1-0.3-11.3-4.1-17.3-5c-3.2-0.5-6.5-0.5-9.6-1.5
						c-3.5-1.2-6.8-2.7-10.4-3.5c-7.6-1.6-15.3-3-22.8-4.9c-3.7-1-7.3-2.5-11.1-3.2c-3.7-0.7-8.2-3-12-1.9c0.2-0.1,0.4-0.3,0.3-0.4
						c0-0.1,0-0.2-0.1-0.3c2-0.5,3.8-0.3,5.9,0.2c3.4,0.8,6.8,1.6,10.1,2.5c4.2,1.2,8.2,2.6,12.5,3.4c4,0.8,7.9,1.7,11.8,2.6
						c3.6,0.8,7.3,1.3,10.8,2.5c3.9,1.3,7.4,3,11.6,3.4c3.4,0.4,6.6,0.8,9.8,2C186.8,60.6,190.3,62.5,194.1,62.7z"/>
					<path fill="#D5D7D9" d="M193.7,63.5c0,0-0.1,0.1-0.1,0.1c-0.9,1.1-2.4,2-3.5,2.9c-6.8-0.4-12.8-3.5-19.2-5.4
						c-2.8-0.8-5.7-1-8.5-1.5c-3.1-0.6-6.1-1.8-9.2-2.5c-6.6-1.5-12.9-4-19.5-5.4c-7.3-1.6-14.1-4.2-21.2-6.4c0,0,0,0-0.1,0
						c-0.1,0-0.2,0-0.4,0c-7,0.9-13.6,3.4-20.3,5.4C83.8,52.9,76,55,68.2,57.3c-6.9,2-13.4,4.4-20,7c-3,1.2-6.1,2.1-9.2,3.1
						c-3.3,1.1-6.8,3-10.4,3.2c-1.2-0.6-2.6-0.9-3.8-1.4c-0.3-0.1-0.5-0.3-0.7-0.4c6.9-3.3,14.3-5.3,21.6-7.5
						C50,59.8,54.1,58,58.4,57c4.2-1,8.5-1.7,12.6-3c6.7-2.1,13.4-4.6,20.3-6.2c6.2-1.4,12.3-2.8,18.5-4.2h0c0.2,0,0.4-0.1,0.6-0.2
						c3.8-1.2,8.3,1.2,12,1.9c3.8,0.8,7.4,2.2,11.1,3.2c7.5,2,15.3,3.3,22.8,4.9c3.7,0.8,6.9,2.3,10.4,3.5c3.1,1,6.4,1,9.6,1.5
						C182.3,59.4,187.6,63.2,193.7,63.5z"/>
					<path fill="#3E3E3F" d="M190.2,312c0.1,3.4,1.7,6.4,1.7,9.7c0,0,0,0,0,0c0,0,0-0.1-0.1-0.2c-0.5-0.3-0.9-0.5-1.4-0.8
						c-0.2-1.4-0.7-2.7-1.2-4.2c-0.6-2.1-0.5-4.3-0.5-6.4c0.1-4.6,0.3-9.3,0.5-13.9c0.2-4.1-0.8-8.1-0.3-12.3c0.5-5,1-9.9,1-14.9
						c0-8.6-0.8-17.1-1.1-25.7c-0.4-8.7-0.1-17.3,0.2-26c0.3-7.8,0.3-15.6,0-23.4c-0.3-8.5,0.6-16.9,0.2-25.4
						c-0.7-17.7-0.8-35.3-0.2-52.9c0.3-8.9,0.4-17.7,0.6-26.6c0.2-7.3-1.2-14.7-0.2-21.9c0.2,0,0.3,0,0.5,0c0.1,0,0.3,0,0.5-0.1
						c0,0,0,0,0,0c0.2,0,0.3-0.1,0.4-0.1c0.1,0,0.1-0.1,0.1-0.1c-0.7,4.7-0.1,9.2,0.1,13.9c0.3,4.8-0.1,9.6-0.1,14.4
						c-0.1,9.9-0.4,19.8-0.8,29.8c-0.5,17.3,1.1,34.4,0.8,51.7c-0.1,4.3-0.7,8.6-0.6,12.9c0,3.9,0.3,7.8,0.4,11.7
						c0.1,7.7-0.2,15.3-0.5,22.9c-0.8,17.2,1.9,34.3,1.1,51.5c-0.2,4.2-1.3,8.4-1,12.5c0.2,3.2,0.6,6.1,0.4,9.3
						C190.4,302.3,190.2,307.2,190.2,312z"/>
					<path fill="#3E3E3F" d="M192,321.7c0,0.1,0,0.2-0.2,0.3C191.9,321.9,191.9,321.8,192,321.7z"/>
					<path fill="#3E3E3F" d="M192,321.7C192,321.7,192,321.7,192,321.7C191.9,321.7,191.9,321.7,192,321.7
						C192,321.7,192,321.7,192,321.7z"/>
					<path fill="#3E3E3F" d="M192,321.7C192,321.7,192,321.7,192,321.7c-0.1-0.1-0.9-0.2-1.2,0c-0.1,0-0.2,0.1-0.3,0.1
						c0-0.4,0-0.7-0.1-1.1c0.5,0.3,0.9,0.5,1.4,0.8C191.9,321.6,192,321.6,192,321.7z"/>
					<path fill="#3E3E3F" d="M191.9,321.7C191.9,321.7,191.9,321.7,191.9,321.7c0,0.1-0.1,0.2-0.2,0.3c-0.1,0-0.1,0.1-0.2,0.1
						c-0.4,0.2-0.9,0.2-1,0c0,0,0.1,0,0.1,0.1C191,322.3,191.9,322,191.9,321.7z"/>
					<path fill="#3E3E3F" d="M190.8,321.7c0.3-0.1,1-0.1,1.1,0c-0.1,0.3-1,0.6-1.3,0.5c0,0-0.1,0-0.1-0.1c0,0,0-0.1,0-0.1
						c0-0.1,0-0.2,0-0.2C190.6,321.8,190.7,321.7,190.8,321.7z"/>
					<path fill="#3E3E3F" d="M190.5,322.1c0.1,0.2,0.7,0.1,1,0c-3,1.5-6.4,2.3-9.6,3.5c-3.8,1.4-7.6,3-11.5,4.2
						c-4.1,1.3-8,1.5-11.9,3.3c-3.4,1.6-6.6,3.5-10.1,5c-7.5,3.2-15.2,6.5-23,8.9c-3.8,1.2-7.4,3-11.3,3.8c-3.2,0.6-6.4,1.8-9.6,2.1
						c0-0.2,0-0.3,0-0.5c0-0.1-0.1-0.2-0.2-0.2h0c0,0,0,0,0,0c2.3-0.1,4.4-1.1,6.7-1.6c1.9-0.4,3.8-0.6,5.6-1.1
						c3.8-1.2,7.5-2.6,11.3-3.9c3.9-1.3,7.7-3.2,11.5-4.7c3.8-1.4,7.7-2.8,11.3-4.6c3.2-1.5,6.2-3.4,9.4-4.8c2.9-1.3,5.9-1.1,8.8-2
						c3.8-1.1,7.5-2.7,11.2-4.1c3.2-1.2,6.9-2.1,10-3.5C190.3,322,190.4,322.1,190.5,322.1z"/>
					<path fill="#3E3E3F" d="M190.9,66.6c0.1,0,0.1,0.1,0.1,0.2c0,0,0,0.1,0,0.1c-0.1,0-0.1,0.1-0.1,0.1c-0.1,0.1-0.2,0.1-0.4,0.1
						C190.7,67,191,66.8,190.9,66.6z"/>
					<path fill="#3E3E3F" d="M190.9,66.6c0.1,0.1-0.1,0.3-0.4,0.5c0,0,0,0,0,0c-0.4,0.1-0.9,0.1-0.9-0.1c0,0,0,0,0,0c0,0,0,0,0,0
						c0,0,0.1-0.1,0.1-0.2c0.1,0,0.1-0.1,0.2-0.1c0.2-0.1,0.5-0.2,0.7-0.2c0,0,0,0,0,0c0.1,0,0.1,0,0.2,0
						C190.7,66.5,190.8,66.6,190.9,66.6z"/>
					<path fill="#3E3E3F" d="M190.7,66.5c0,0-0.1,0-0.2,0C190.6,66.5,190.6,66.5,190.7,66.5z"/>
					<path fill="#3E3E3F" d="M190.5,322C190.5,322.1,190.5,322.1,190.5,322c-0.1,0-0.2,0-0.3-0.1c0.1,0,0.2-0.1,0.3-0.1
						C190.5,321.9,190.5,322,190.5,322z"/>
					<path fill="#3E3E3F" d="M190.5,321.8c-0.1,0.1-0.2,0.1-0.3,0.1c-5.3-2.9-10.3-6.2-16.2-7.8c-3-0.8-6.1-1.4-9-2.4
						c-3-1-5.8-2.4-8.8-3.5c-6.7-2.3-13.7-3.3-20.5-5.1c-6.5-1.7-12.9-3.6-19.4-5.2c0.1,0,0.2-0.1,0.3-0.1c0,0,0.1,0,0.1,0
						c0,0,0.1,0,0.1,0c0.2-0.1,0.3-0.2,0.3-0.3c0,0,0,0,0,0c0,0,0-0.1,0-0.1c0,0,0-0.1,0-0.1c6.9,1.7,13.8,3.8,20.7,5.6
						c6,1.6,12.2,2.5,18.2,4.4c3.4,1.1,6.7,2.7,10.1,3.9c3.3,1.1,6.7,1.7,10.1,2.7c5.1,1.4,9.6,4.4,14.2,6.9
						C190.5,321.1,190.5,321.4,190.5,321.8z"/>
					<path fill="#3E3E3F" d="M190,66.5c0.2,0,0.3,0,0.5,0c-0.2,0-0.5,0.1-0.7,0.2C189.9,66.6,189.9,66.5,190,66.5z"/>
					<path fill="#3E3E3F" d="M189.5,67c0,0.2,0.5,0.2,0.9,0.1c-0.2,0.1-0.3,0.1-0.5,0.1c-0.2,0-0.3,0-0.5,0
						C189.4,67.2,189.5,67.1,189.5,67z"/>
					<path fill="#3E3E3F" d="M190,66.5c-0.1,0.1-0.1,0.1-0.2,0.2c-0.2,0.1-0.3,0.2-0.3,0.3c0,0,0,0,0,0c0,0,0,0,0,0
						c0,0.1,0,0.2,0,0.2c-6.1-0.3-11.7-2.7-17.4-4.6c-3.5-1.2-7-1.7-10.7-2.3c-3.2-0.5-6.1-1.8-9.2-2.5c-7.2-1.6-14.1-4.3-21.4-5.8
						c-3.2-0.7-6.5-1.3-9.5-2.7c-2.7-1.2-5.3-2-8-2.8c-0.6-0.2-1.1-0.3-1.7-0.5c0.1,0,0.2,0,0.3,0c0.5-0.1,1-0.6,0.7-0.7
						c0,0,0,0,0.1,0c7.1,2.2,13.9,4.8,21.2,6.4c6.6,1.5,12.9,3.9,19.5,5.4c3.1,0.7,6.1,1.9,9.2,2.5c2.9,0.5,5.7,0.7,8.5,1.5
						C177.2,63,183.2,66.1,190,66.5z"/>
					<path fill="#939393" d="M188.9,243.4c0.4,8.6,1.2,17.1,1.1,25.7c0,5-0.5,9.9-1,14.9c-0.4,4.2,0.5,8.1,0.3,12.3
						c-0.2,4.6-0.5,9.2-0.5,13.9c0,2.2-0.1,4.3,0.5,6.4c0.4,1.5,1,2.7,1.2,4.2c-4.6-2.6-9.1-5.5-14.2-6.9c-3.3-0.9-6.8-1.5-10.1-2.7
						c-3.4-1.2-6.6-2.8-10.1-3.9c-5.9-2-12.1-2.9-18.2-4.4c-6.9-1.8-13.8-3.9-20.7-5.6c-1.5-14.2-0.9-28.4-1.3-42.6
						c-0.2-8-1.3-15.8-0.9-23.8c0.4-7.7,0.2-15.5,0.2-23.2c0-17.2,0.6-34.4,0.8-51.6c0.1-8.2-2-16.1-2.4-24.3
						c-0.4-8.6,0.3-17.1,0.3-25.7c0.2-19.7-0.7-39.4-0.7-59.1c0-0.1-0.1-0.2-0.2-0.2l0.1-0.4c2.7,0.8,5.4,1.7,8,2.8
						c3,1.4,6.3,2,9.5,2.7c7.3,1.5,14.2,4.2,21.4,5.8c3.1,0.7,6.1,2,9.2,2.5c3.7,0.6,7.2,1,10.7,2.3c5.7,2,11.3,4.3,17.4,4.6
						c-1,7.2,0.4,14.6,0.2,21.9c-0.2,8.9-0.3,17.7-0.6,26.6c-0.6,17.7-0.5,35.3,0.2,52.9c0.3,8.5-0.6,16.9-0.2,25.4
						c0.3,7.8,0.3,15.6,0,23.4C188.7,226.1,188.5,234.7,188.9,243.4z"/>
					<path fill="#3E3E3F" d="M189.8,66.7c-0.1,0-0.1,0.1-0.2,0.1c-0.1,0.1-0.1,0.1-0.1,0.2C189.5,66.8,189.6,66.7,189.8,66.7z"/>
					<path fill="#939393" d="M190.2,321.9c-3.1,1.4-6.8,2.3-10,3.5c-3.7,1.4-7.4,3-11.2,4.1c-3,0.8-6,0.7-8.8,2
						c-3.2,1.4-6.3,3.2-9.4,4.8c-3.7,1.8-7.5,3.1-11.3,4.6c-3.9,1.5-7.6,3.4-11.5,4.7c-3.8,1.2-7.5,2.7-11.3,3.9
						c-1.9,0.6-3.7,0.8-5.6,1.1c-2.3,0.5-4.3,1.5-6.7,1.6c-5.5-2.7-11.1-3.5-17-5c-6.5-1.7-12.5-4.2-18.8-6.5
						c-5.9-2.2-11.6-4.5-17.4-7c-5.9-2.5-11.5-3.9-17.6-5.4c5.4-2.2,10.8-4.5,16.4-6.1c7.7-2.3,15.2-4.8,22.5-8
						c7.3-3.3,14.5-6.8,22.1-9.3c7.2-2.4,14.5-4.4,21.6-6.9c6.5,1.6,12.9,3.5,19.4,5.2c6.8,1.8,13.8,2.8,20.5,5.1
						c3,1,5.8,2.4,8.8,3.5c2.9,1,6,1.6,9,2.4C179.9,315.7,184.9,319,190.2,321.9z"/>
					<path fill="#3E3E3F" d="M117.2,297.4c0,0,0,0.1,0,0.1c0-0.2-0.3-0.3-0.7-0.2c0.2,0,0.3-0.1,0.4,0c0.1,0,0.2,0,0.3,0.1
						C117.2,297.3,117.2,297.3,117.2,297.4z"/>
					<path fill="#3E3E3F" d="M117.2,297.3c-0.1,0-0.2-0.1-0.3-0.1c-0.1,0-0.3,0-0.4,0c-0.1,0-0.2,0-0.3,0.1
						c-0.2,0.1-0.3,0.1-0.5,0.2c-1.7-16.4-0.3-32.9-1.5-49.4c-0.3-3.6-0.9-7.2-0.9-10.9c0-3.6,0.3-7.1,0.4-10.7
						c0.2-8.5,0-17.1,0-25.7c0-8.6,0-17.1,0.2-25.7c0.2-8.5,1.1-17.1,0.2-25.5c-0.8-8.3-2.2-16.3-2.2-24.6c0-8.6,0.6-17.2,0.4-25.8
						c-0.2-17.3-0.6-34.5-0.6-51.8c0-0.4,0.8-0.6,1.2-0.5c0.1,0,0.2,0.1,0.2,0.2c0,19.7,0.9,39.4,0.7,59.1
						c-0.1,8.6-0.8,17.1-0.3,25.7c0.4,8.1,2.5,16.1,2.4,24.3c-0.2,17.2-0.8,34.4-0.8,51.6c0,7.7,0.2,15.5-0.2,23.2
						c-0.4,8,0.7,15.8,0.9,23.8C116.2,268.9,115.7,283.1,117.2,297.3z"/>
					<path fill="#3E3E3F" d="M117.2,297.5C117.2,297.5,117.2,297.5,117.2,297.5c-0.1,0.1-0.2,0.2-0.3,0.3c0,0-0.1,0-0.1,0
						c0,0-0.1,0-0.1,0c-0.2,0.1-0.4,0.1-0.5,0.1c0,0,0,0-0.1,0c-0.6-0.1,0-0.5,0.5-0.7C116.8,297.2,117.1,297.3,117.2,297.5z"/>
					<path fill="#3E3E3F" d="M116.9,297.8c0.1-0.1,0.2-0.2,0.3-0.3C117.1,297.6,117.1,297.7,116.9,297.8z"/>
					<path fill="#3E3E3F" d="M116.6,297.9c-0.1,0-0.2,0.1-0.3,0.1c-0.1,0-0.1,0-0.2-0.1C116.2,297.9,116.4,297.9,116.6,297.9z"/>
					<path fill="#3E3E3F" d="M116.2,297.3c0.1,0,0.2-0.1,0.3-0.1c-0.5,0.1-1.1,0.5-0.5,0.7c0,0,0,0,0.1,0c-0.2,0-0.3-0.1-0.3-0.2
						c0-0.1,0-0.2,0-0.3C115.9,297.4,116,297.4,116.2,297.3z"/>
					<path fill="#3E3E3F" d="M116.1,297.9c0.1,0,0.1,0,0.2,0.1c-7.1,2.6-14.4,4.5-21.6,6.9c-7.6,2.5-14.8,6-22.1,9.3
						c-7.4,3.3-14.8,5.8-22.5,8c-5.6,1.6-11,4-16.4,6.1c-0.2-0.1-0.4-0.1-0.6-0.1c0-0.1,0-0.2,0-0.4c4.9-2,9.8-4.1,14.9-5.7
						c8.3-2.5,16.3-5,24.2-8.5c7.5-3.3,14.9-6.9,22.8-9.5c7-2.3,14.1-4.3,21-6.7c0,0.1,0,0.2,0,0.3
						C115.7,297.9,115.9,297.9,116.1,297.9z"/>
					<path fill="#939393" d="M114.2,248.1c1.2,16.4-0.2,32.9,1.5,49.4c-6.9,2.5-14,4.5-21,6.7c-7.8,2.5-15.3,6.1-22.8,9.5
						c-7.9,3.5-15.9,6-24.2,8.5c-5.1,1.6-10,3.7-14.9,5.7c0-4.5-0.5-9-0.8-13.6c-0.4-5.1,0-10.3,0-15.4c-0.1-9.6-0.9-19.1-1.5-28.6
						c-1.3-19.2-1.8-38.3-2.1-57.5c-0.3-17.5-0.8-34.9-1.2-52.3c-0.2-10,1.2-20,0.4-30c-0.8-9.8,0.8-19.3,1.2-29.1
						c0.2-5-0.3-9.9-0.7-14.9c-0.2-3.1-0.4-6.1-0.4-9.2c0-0.6-0.2-3.8,0.2-5.3c0.5-0.1,1.2-0.6,0.7-0.7c4.7-0.4,9.3-2.8,13.7-4.2
						c7.4-2.2,14.5-5.6,21.9-7.9c7.8-2.3,15.6-4.4,23.4-6.7c7.8-2.3,15.7-5.4,23.7-6.5c0.6,0.2,1.2,0.3,1.7,0.5l-0.1,0.4
						c-0.4-0.1-1.2,0.2-1.2,0.5c0,17.3,0.4,34.5,0.6,51.8c0.1,8.6-0.4,17.2-0.4,25.8c-0.1,8.3,1.3,16.3,2.2,24.6
						c0.8,8.4-0.1,17.1-0.2,25.5c-0.2,8.6-0.2,17.2-0.2,25.7c0,8.6,0.2,17.1,0,25.7c-0.1,3.6-0.4,7.1-0.4,10.7
						C113.3,240.9,114,244.4,114.2,248.1z"/>
					<path fill="#3E3E3F" d="M112.3,45.2c0.4,0.1-0.1,0.6-0.7,0.7c-0.1,0-0.2,0-0.3,0c-0.1,0-0.1,0-0.2-0.1
						C110.7,45.7,111.9,45.2,112.3,45.2z"/>
					<path fill="#3E3E3F" d="M112.3,45.2c-0.5-0.1-1.6,0.5-1.1,0.7c0.1,0,0.1,0,0.2,0.1c-8.1,1.1-15.9,4.2-23.7,6.5
						c-7.8,2.2-15.6,4.3-23.4,6.7c-7.5,2.3-14.5,5.6-21.9,7.9c-4.4,1.3-9,3.8-13.7,4.2c0,0,0,0,0,0c0,0-0.1,0-0.2,0c0,0-0.1,0-0.1,0
						c0,0,0.1-0.1,0.1-0.1c0.3-0.1,0.4-0.2,0.4-0.3c0,0,0,0,0,0c0.1-0.1,0-0.2-0.1-0.2c0,0-0.1,0-0.1-0.1c3.6-0.2,7.1-2.1,10.4-3.2
						c3.1-1,6.2-1.9,9.2-3.1c6.6-2.6,13.2-5,20-7c7.8-2.3,15.6-4.3,23.4-6.6c6.7-2,13.3-4.5,20.3-5.4
						C112.1,45.2,112.2,45.2,112.3,45.2z"/>
					<path fill="#3E3E3F" d="M110.8,43c0,0.2-0.1,0.3-0.3,0.4c0,0,0,0,0,0c0.6-0.3,0.4-0.7-0.3-0.6c0.2-0.1,0.4-0.1,0.7-0.2
						C110.7,42.8,110.7,42.9,110.8,43z"/>
					<path fill="#3E3E3F" d="M110.7,42.7c-0.2,0-0.4,0.1-0.7,0.2c0,0-0.1,0-0.1,0c-0.2,0-0.5,0.1-0.7,0.2
						c-1.3-5.8-1.5-11.8-1.6-17.8c-0.1-7.2-0.8-14.3-0.8-21.5c0.2,0,0.3,0,0.5,0c0.3,0,0.7,0,1,0.1c0.1,7,0.8,14,0.8,21.1
						C109.1,30.9,109.3,36.9,110.7,42.7z"/>
					<path fill="#3E3E3F" d="M110,42.9c0.7-0.1,0.9,0.3,0.3,0.6c0,0,0,0-0.1,0c-0.6,0.2-1.5-0.2-0.5-0.5
						C109.8,42.9,109.9,42.9,110,42.9z"/>
					<path fill="#3E3E3F" d="M110.4,43.5C110.4,43.5,110.4,43.5,110.4,43.5c-0.1,0.1-0.3,0.1-0.5,0.1c0.1,0,0.2,0,0.3-0.1
						C110.2,43.5,110.2,43.5,110.4,43.5C110.3,43.5,110.3,43.5,110.4,43.5z"/>
					<path fill="#3E3E3F" d="M110.3,43.5c-0.1,0-0.1,0-0.2,0.1c-0.1,0-0.2,0-0.3,0.1h0c-0.3,0-0.5,0-0.5-0.2c0-0.1,0-0.2-0.1-0.3
						c0.2,0,0.5-0.1,0.7-0.2c0,0,0.1,0,0.1,0c-0.1,0-0.2,0-0.3,0.1C108.8,43.3,109.7,43.7,110.3,43.5z"/>
					<path fill="#3E3E3F" d="M109.3,43.4c0,0.2,0.3,0.2,0.5,0.2c-6.2,1.4-12.3,2.8-18.5,4.2c-6.9,1.5-13.6,4-20.3,6.2
						c-4.1,1.3-8.4,2-12.6,3c-4.3,1-8.4,2.8-12.6,4.1c-7.3,2.2-14.7,4.3-21.6,7.5c-0.2-0.2-0.4-0.3-0.5-0.5c6.2-2.9,12.9-5,19.5-6.9
						c4.2-1.3,8.3-3,12.6-4.2c4.4-1.2,8.9-1.8,13.2-3.1c7.1-2.1,14.1-4.8,21.4-6.6c6.3-1.5,12.7-2.9,19-4.3
						C109.2,43.2,109.3,43.3,109.3,43.4z"/>
					<path fill="#3E3E3F" d="M108.3,3.2c0,0.2,0,0.4,0,0.6c-0.3,0-0.7-0.1-1-0.1c-0.2,0-0.3,0-0.5,0c0-0.1,0-0.1,0-0.2
						c0-0.2,0.3-0.4,0.7-0.5c0.2,0,0.5,0,0.7,0C108.2,3.1,108.3,3.1,108.3,3.2z"/>
					<path fill="#B7BBBF" d="M107.6,25.3c0,5.9,0.2,12,1.6,17.8c-6.3,1.4-12.7,2.8-19,4.3C83,49.1,76,51.9,68.9,53.9
						c-4.3,1.3-8.8,1.9-13.2,3.1c-4.2,1.2-8.3,2.9-12.6,4.2c-6.6,1.9-13.2,4-19.5,6.9c-1-1.2-1-3-1.2-4.8c-0.6-4.9-1.4-9.7-2.1-14.5
						c-0.7-4.6-0.3-9.3-0.9-14c-0.6-4.7-1.5-9.3-2.3-14c20.4-4.4,40.8-8.6,61.2-12.5c6.1-1.1,12.2-2.3,18.3-3.2
						c3.3-0.5,6.9-1.4,10.2-1.4C106.9,11,107.6,18.1,107.6,25.3z"/>
					<path fill="#3E3E3F" d="M108.2,3.1c-0.2,0-0.5,0-0.7,0C107.7,3,108,3,108.2,3.1z"/>
					<path fill="#3E3E3F" d="M101.2,3.8c2.1-0.3,4.2-0.7,6.3-0.7c-0.3,0.1-0.7,0.3-0.7,0.5c0,0.1,0,0.1,0,0.2
						c-3.3,0-6.9,0.9-10.2,1.4c-6.1,1-12.2,2.1-18.3,3.2c-20.5,3.8-40.9,8.1-61.2,12.5c0-0.2,0-0.3-0.1-0.5c0-0.1,0-0.1-0.1-0.1
						c8.4-1.8,16.7-3.6,25.1-5.3c13.9-2.9,27.7-5.7,41.6-8.2C89.4,5.7,95.3,4.6,101.2,3.8z"/>
					<path fill="#3E3E3F" d="M105.5,358.9c0.3,2.4-0.1,5.2-0.2,7.5c-0.2,6,0.3,11.8,0.2,17.8c-0.1,0-0.2,0-0.2,0c0,0,0,0,0,0
						c-0.4-0.2-0.8-0.4-1.2-0.6c0.1-5.6-0.4-11.2-0.2-16.9c0.1-2.4,0.5-5.2,0.2-7.5c-0.3-2.3-0.8-4.1-0.9-6.4c0,0,0,0,0.1,0
						c0,0.1,0.1,0.1,0.4,0.1c0.4,0,0.7,0,1-0.1C104.7,355,105.2,356.8,105.5,358.9z"/>
					<path fill="#3E3E3F" d="M105.5,384.2c0,0,0,0.1,0,0.2c0,0,0,0,0,0c0-0.1,0-0.1-0.1-0.1c0,0,0,0-0.1,0
						C105.4,384.2,105.4,384.2,105.5,384.2z"/>
					<path fill="#3E3E3F" d="M105.4,384.2c0.1,0,0.1,0.1,0.1,0.1c0,0.2-0.7,0.5-1.1,0.5c0,0-0.1,0-0.1,0c0,0-0.1,0-0.1,0
						c0,0-0.1,0-0.1,0v0c-0.1-0.2,0.8-0.6,1.2-0.6C105.2,384.2,105.3,384.2,105.4,384.2C105.3,384.2,105.3,384.2,105.4,384.2
						C105.3,384.2,105.3,384.2,105.4,384.2z"/>
					<path fill="#3E3E3F" d="M105.3,384.2C105.3,384.2,105.2,384.2,105.3,384.2c-0.4,0-1.3,0.4-1.2,0.6c0,0,0,0,0,0c0,0,0-0.1,0-0.1
						c0-0.4,0-0.8,0-1.1C104.5,383.8,104.9,384,105.3,384.2z"/>
					<path fill="#3E3E3F" d="M104.6,392.6c0.6,0.3-1.1,0.4-0.3,0c0,0,0.1,0,0.2-0.1C104.6,392.6,104.6,392.6,104.6,392.6z"/>
					<path fill="#3E3E3F" d="M104.6,352.4c0,0.2,0,0.3,0,0.5c-0.3,0-0.7,0.1-1,0.1c-0.2,0-0.3,0-0.4-0.1c0,0,0,0,0.1,0
						c0.4,0.2,1.7-0.4,1.2-0.6c0,0-0.1,0-0.1-0.1C104.5,352.2,104.6,352.3,104.6,352.4z"/>
					<path fill="#3E3E3F" d="M105.5,384.4c0,0.3-0.6,0.5-1,0.5c0,0-0.1,0-0.1,0C104.8,384.9,105.5,384.6,105.5,384.4z"/>
					<path fill="#3E3E3F" d="M104.5,352.2c0.5,0.3-0.8,0.8-1.2,0.6c0,0-0.1,0-0.1,0c-0.1-0.2,0.6-0.6,1-0.6c0,0,0.1,0,0.1,0
						c0,0,0.1,0,0.1,0L104.5,352.2C104.4,352.2,104.5,352.2,104.5,352.2z"/>
					<path fill="#3E3E3F" d="M104.5,384.9c-0.1,0-0.1,0-0.2,0C104.3,384.9,104.4,384.9,104.5,384.9
						C104.4,384.9,104.5,384.9,104.5,384.9z"/>
					<path fill="#3E3E3F" d="M104.4,384.9C104.4,384.9,104.3,384.9,104.4,384.9c-0.1,0-0.1,0-0.1,0
						C104.3,384.9,104.4,384.9,104.4,384.9z"/>
					<path fill="#3E3E3F" d="M104.4,352.2C104.4,352.2,104.3,352.2,104.4,352.2C104.3,352.2,104.3,352.2,104.4,352.2
						C104.4,352.2,104.4,352.2,104.4,352.2z"/>
					<path fill="#3E3E3F" d="M104.4,352.2C104.3,352.2,104.3,352.2,104.4,352.2c-0.5,0-1.2,0.2-1.2,0.6c0,0,0,0,0,0.1
						c-5.8-2.8-11.9-3.6-18.1-5.3c-5.7-1.5-11-3.6-16.5-5.8c-5.8-2.3-11.6-4.4-17.4-6.9c-6.4-2.7-12.7-4.4-19.5-6c0.1,0,0.3,0,0.4,0
						c0,0,0,0,0,0c0.1,0,0.2,0,0.3-0.1c0.3-0.1,0.7-0.3,1-0.4c6.1,1.4,11.8,2.9,17.6,5.4c5.8,2.4,11.5,4.8,17.4,7
						c6.3,2.3,12.3,4.8,18.8,6.5C93.3,348.7,98.8,349.5,104.4,352.2z"/>
					<path fill="#3E3E3F" d="M104.3,384.9C104.3,384.9,104.3,384.9,104.3,384.9C104.3,384.9,104.2,384.9,104.3,384.9
						C104.2,384.9,104.2,384.9,104.3,384.9z"/>
					<path fill="#3E3E3F" d="M104.3,352.2C104.3,352.2,104.2,352.2,104.3,352.2c-0.5,0-1.2,0.5-1.1,0.7c0,0,0,0-0.1,0c0,0,0,0,0-0.1
						C103.2,352.4,103.9,352.2,104.3,352.2z"/>
					<path fill="#3E3E3F" d="M104.3,384.9C104.2,384.9,104.2,384.9,104.3,384.9c-0.1,0-0.2,0-0.2-0.1
						C104.1,384.8,104.2,384.9,104.3,384.9C104.2,384.9,104.2,384.9,104.3,384.9z"/>
					<path fill="#B7BBBF" d="M104.1,359.2c0.3,2.3-0.1,5.2-0.2,7.5c-0.2,5.7,0.3,11.2,0.2,16.9c-4.6-2-9.7-3.3-14.2-5.5
						c-5.3-2.7-11.5-3.3-16.5-6.7c0,0-0.1-0.1-0.1-0.1c-5.7-1.9-11.1-4.8-16.7-6.9c-5.8-2.2-11.8-4-17.5-6.4
						c-5.4-2.3-10.6-4.9-15.9-7.3c-2.4-1.1-4.7-2.1-7-3.5c-1.3-0.8-2.6-1.6-4-2c-0.5-5.6-0.9-10.8-0.5-16.5c0.2-2.6,0.4-5.1,0.5-7.7
						c0-0.8,0.4-2.2,0-2.9c-0.1-0.1-0.2-0.2-0.3-0.2c0-1.2,0.4-2.8,0.5-3.6c0.3-2.9,0.7-5.8,0.4-8.7c0.1-0.1,0.1-0.2,0.1-0.2
						c0-0.3,0-0.6,0-0.9c0-0.1-0.1-0.1-0.2-0.2c-0.6-4.2,0-8.9,0-13.1c0-2.5-0.1-4.9-0.2-7.4c-0.5-7.6,0.4-15.4,0.1-23
						c-0.4-10.7-0.1-21.8,0.9-32.5c0.5-5,0.6-9.8,0.1-14.8c-0.5-5.1-1-10.3-1.2-15.4c0.1-0.1,0.2-0.2,0.2-0.3
						c0.2-10.8,0-21.5,0.1-32.3c0-3.8,0.2-7.7,0.3-11.5c0.1-4.5-0.5-9-0.3-13.5c0.1-3.6-0.2-7.1-0.1-10.7c0.1-3,0.5-6.1-0.3-9.1
						c0.2-0.1,0.3-0.3,0.3-0.4c0.2-7.2,0.9-14.3,0.6-21.5c-0.4-7.1-1.6-14-1.3-21.1c0.3-9.2,1-18.4,1.3-27.6
						c0.2-4.9-0.5-9.8-0.5-14.7c0-5.1,0.3-10.1,0.4-15.2c0.1,0,0.2,0,0.3,0c0.7,0.2,1.3,0.4,1.9,0.5c0,0.1,0.1,0.3,0.4,0.3
						c1.3,8,2.6,15.8,2.9,23.8c0.1,4,1.2,7.8,1.7,11.7c0.6,4.1,0.9,8.3,1.6,12.4c0,0,0,0.1,0,0.1c0,0.1,0.2,0.1,0.3,0.2
						c1.8,0.3,3.5,0.9,5.2,1.7c-1.5,1.5-0.9,5.7-0.9,7.3c0,5.2,0.5,10.3,0.9,15.5c0.6,7.7-0.5,15.3-1,23c-0.7,9.8,0.5,19.5,0,29.4
						c-0.6,10.2-0.1,20.4,0.3,30.6c0.4,8.7,0.3,17.4,0.4,26.2c0.2,19,0.6,37.9,1.6,56.8c0.6,11.3,1.6,22.6,2,33.9
						c0.2,5.8-0.2,11.6-0.1,17.4c0.1,5.9,1.1,11.7,1,17.6c0,0.1,0.1,0.2,0.3,0.2c0,0,0,0,0,0c6.8,1.6,13,3.3,19.5,6
						c5.7,2.4,11.5,4.6,17.4,6.9c5.5,2.1,10.8,4.2,16.5,5.8c6.2,1.7,12.3,2.4,18.1,5.3C103.2,355.1,103.7,357,104.1,359.2z"/>
					<path fill="#3E3E3F" d="M104,384.7C104,384.8,104.1,384.8,104,384.7c-2.5-1.1-5.3-1.8-7.9-2.9c-2.9-1.3-5.8-2.5-8.6-3.8
						c-5.1-2.4-10.7-3-15.5-6.1c0.4,0.1,1.4-0.3,1.3-0.6c5.1,3.3,11.2,4,16.5,6.7c4.5,2.3,9.6,3.5,14.2,5.5
						C104.1,384,104.1,384.4,104,384.7z"/>
					<path fill="#3E3E3F" d="M73.3,371.4c0.2,0.2-0.9,0.7-1.3,0.6h0c0,0-0.1,0-0.1-0.1C71.6,371.7,72.9,371.2,73.3,371.4
						C73.3,371.4,73.3,371.4,73.3,371.4z"/>
					<path fill="#3E3E3F" d="M73.3,371.4C73.3,371.4,73.3,371.4,73.3,371.4c-0.4-0.3-1.7,0.3-1.4,0.5c0,0,0.1,0,0.1,0.1
						c-5.7-1.9-11.1-4.8-16.8-6.9c-5.4-2.1-10.9-3.7-16.3-5.9c-5-2.1-9.8-4.7-14.8-6.7c-2.3-0.9-4.7-2-7-3.1c-2-1-3.7-2.5-5.7-3.2
						c0.2-0.2,0.4-0.4,0.5-0.6c0,0,0,0,0,0c0,0,0,0,0,0c0,0,0-0.1,0-0.1c0,0,0,0,0,0c0,0,0-0.1,0-0.1c1.5,0.4,2.7,1.2,4,2
						c2.3,1.4,4.6,2.4,7,3.5c5.3,2.4,10.6,5,15.9,7.3c5.7,2.5,11.7,4.2,17.5,6.4c5.7,2.2,11,5,16.7,6.9
						C73.3,371.4,73.3,371.4,73.3,371.4z"/>
					<path fill="#3E3E3F" d="M33.5,328.4c-0.4,0.1-0.7,0.3-1,0.4c-0.1,0-0.2,0.1-0.3,0.1c0.3-0.1,0.7-0.3,0.7-0.5c0,0,0-0.1,0-0.1
						C33.1,328.3,33.3,328.3,33.5,328.4z"/>
					<path fill="#3E3E3F" d="M32.1,314.3c0.3,4.5,0.9,9,0.8,13.6c-0.3,0.1-0.7,0.3-1,0.4c-0.3,0.1-0.4,0.3-0.4,0.4c0,0,0,0,0,0
						c0,0.1,0,0.2,0.2,0.2c-0.2,0-0.3-0.1-0.3-0.2c0.1-5.9-0.9-11.7-1-17.6c-0.1-5.8,0.3-11.6,0.1-17.4c-0.4-11.3-1.5-22.6-2-33.9
						c-1-18.9-1.4-37.9-1.6-56.8c-0.1-8.7,0-17.4-0.4-26.2c-0.4-10.2-0.9-20.4-0.3-30.6c0.5-9.8-0.7-19.6,0-29.4
						c0.6-7.7,1.6-15.3,1-23c-0.4-5.2-0.8-10.3-0.9-15.5c0-1.6-0.6-5.8,0.9-7.3c0.1,0,0.2,0.1,0.3,0.1c0,0.1,0.1,0.1,0.4,0.1
						c0.1,0,0.2,0,0.4,0c-0.5,0.2-1.2,0.7-0.4,0.7c0,0,0.1,0,0.1,0c-0.4,1.5-0.2,4.8-0.2,5.3c0,3.1,0.2,6.1,0.4,9.2
						c0.3,5,0.9,9.9,0.7,14.9c-0.4,9.7-2,19.3-1.2,29.1c0.8,10-0.6,20-0.4,30c0.4,17.5,0.9,34.9,1.2,52.3
						c0.3,19.2,0.8,38.4,2.1,57.5c0.6,9.5,1.5,19.1,1.5,28.6C32.1,304.1,31.7,309.2,32.1,314.3z"/>
					<path fill="#3E3E3F" d="M32.9,327.9c0,0.1,0,0.2,0,0.4c-0.1,0-0.2,0-0.3-0.1c-0.3-0.1-1,0.2-1.1,0.5c0-0.1,0.1-0.3,0.4-0.4
						C32.2,328.2,32.6,328,32.9,327.9z"/>
					<path fill="#3E3E3F" d="M32.9,328.3c0,0,0,0.1,0,0.1c0,0.3-0.4,0.4-0.7,0.5c0,0,0,0,0,0c-0.3,0-0.6-0.1-0.7-0.2c0,0,0,0,0,0
						c0.1-0.2,0.9-0.5,1.1-0.5C32.7,328.2,32.8,328.2,32.9,328.3z"/>
					<path fill="#3E3E3F" d="M31.5,328.7c0.1,0.1,0.4,0.2,0.7,0.2c-0.2,0-0.3,0-0.4,0c0,0,0,0,0,0C31.5,328.9,31.5,328.8,31.5,328.7
						z"/>
					<path fill="#3E3E3F" d="M28.8,70.6c0.1,0.1,0.2,0.2,0.1,0.2c0-0.2-0.3-0.3-0.6-0.2c0.1,0,0.2,0,0.3,0c0.1,0,0.1,0,0.2,0
						C28.7,70.5,28.7,70.5,28.8,70.6z"/>
					<path fill="#3E3E3F" d="M28.9,70.8c0,0.1-0.1,0.2-0.4,0.3c0,0-0.1,0-0.1,0.1c0,0-0.1,0-0.1,0c-0.1,0-0.2,0-0.4,0
						c-0.2,0-0.3,0-0.4-0.1c0,0,0,0,0.1,0C27.9,71.3,28.7,71.1,28.9,70.8z"/>
					<path fill="#3E3E3F" d="M28.9,70.8C28.9,70.8,28.9,70.8,28.9,70.8c-0.2,0.3-1,0.6-1.3,0.4c0,0-0.1,0-0.1,0
						c-0.1-0.2,0.4-0.5,0.7-0.6C28.6,70.5,28.8,70.6,28.9,70.8z"/>
					<path fill="#3E3E3F" d="M28.7,71.2c0.6,0.1-0.2,0.6-0.7,0.7c0.1-0.3,0.2-0.6,0.3-0.7C28.4,71.2,28.6,71.2,28.7,71.2
						C28.7,71.2,28.7,71.2,28.7,71.2z"/>
					<path fill="#3E3E3F" d="M28.7,71.2c-0.1,0-0.2,0-0.3,0c0,0,0,0,0,0c0,0,0.1,0,0.1,0C28.6,71.2,28.6,71.2,28.7,71.2z"/>
					<path fill="#3E3E3F" d="M28.6,70.5c0,0-0.1,0-0.2,0c-0.1,0-0.2,0-0.3,0c-0.1,0-0.2,0-0.3,0.1c-0.3,0.1-0.5,0.2-0.6,0.4
						c-1.6-0.8-3.4-1.3-5.2-1.7c-0.1,0-0.3-0.1-0.3-0.2c0,0,0-0.1,0-0.1h0c0,0.2,0.8,0.3,1.2,0.1c0.4-0.2,0.8-0.4,1.2-0.6
						c0.2,0.2,0.5,0.3,0.7,0.4C26.1,69.6,27.4,69.9,28.6,70.5z"/>
					<path fill="#3E3E3F" d="M28.4,71.2C28.4,71.2,28.3,71.2,28.4,71.2c0,0-0.1,0-0.1,0C28.3,71.2,28.3,71.2,28.4,71.2z"/>
					<path fill="#3E3E3F" d="M28.3,71.2C28.3,71.2,28.3,71.2,28.3,71.2c-0.1,0.1-0.2,0.4-0.3,0.7c0,0-0.1,0-0.1,0
						C27.1,71.9,27.7,71.4,28.3,71.2z"/>
					<path fill="#3E3E3F" d="M27.9,70.6c0.1,0,0.2-0.1,0.3-0.1c-0.4,0.1-0.8,0.5-0.7,0.6c-0.1,0-0.2-0.1-0.3-0.1
						C27.5,70.9,27.7,70.7,27.9,70.6z"/>
					<path fill="#3E3E3F" d="M24.2,68.6c-0.4,0.2-0.8,0.4-1.2,0.6c-0.3,0.2-1.2,0.1-1.2-0.1c0-0.1,0.1-0.2,0.3-0.3
						c0.5-0.3,1-0.5,1.5-0.7C23.8,68.3,24,68.5,24.2,68.6z"/>
					<path fill="#3E3E3F" d="M23.6,68.1c-0.5,0.2-1,0.5-1.5,0.7c-0.2,0.1-0.3,0.2-0.3,0.3h0c-0.7-4.1-1-8.3-1.6-12.4
						c-0.6-3.9-1.6-7.7-1.7-11.7c-0.2-8.1-1.5-15.9-2.9-23.8c0.1,0,0.2,0,0.3,0c0.4-0.1,0.8-0.2,1.1-0.3c0.8,4.7,1.6,9.3,2.3,14
						c0.6,4.6,0.3,9.3,0.9,14c0.7,4.8,1.5,9.6,2.1,14.5C22.7,65.1,22.7,66.9,23.6,68.1z"/>
					<path fill="#3E3E3F" d="M17,20.4c0,0.2,0,0.3,0.1,0.5c-0.4,0.1-0.8,0.2-1.1,0.3c-0.1,0-0.2,0-0.3,0c0-0.1,0-0.1,0-0.2
						c0.3,0,0.7-0.1,0.9-0.3c0.1-0.1,0.2-0.3,0.1-0.4c0.1,0,0.2,0,0.3-0.1C17,20.3,17,20.3,17,20.4z"/>
					<path fill="#3E3E3F" d="M16.9,20.2c-0.1,0-0.2,0-0.3,0.1c0,0-0.1-0.1-0.2-0.1c0,0,0,0,0,0C16.5,20.1,16.8,20.2,16.9,20.2z"/>
					<path fill="#3E3E3F" d="M16.6,20.3c0.1,0.1,0,0.2-0.1,0.4c-0.2,0.2-0.6,0.3-0.9,0.3c0-0.1,0-0.1,0-0.2c0-0.1,0-0.2,0.1-0.2
						c0,0,0.1,0,0.1,0C16,20.4,16.3,20.4,16.6,20.3z"/>
					<path fill="#3E3E3F" d="M16.6,20.3c-0.3,0-0.5,0.1-0.8,0.2c-0.1,0-0.1,0-0.1,0c0.1-0.2,0.4-0.3,0.7-0.3c0,0,0,0,0,0
						C16.5,20.2,16.5,20.3,16.6,20.3z"/>
					<path fill="#B7BBBF" d="M16.3,20.2c-0.3,0-0.6,0.2-0.7,0.3c-0.3,0.1-0.4,0.2-0.4,0.4c-0.7-0.1-1.3-0.4-1.9-0.5
						c-0.1,0-0.2,0-0.3,0c0-0.2,0-0.5,0-0.7c0-0.1-0.1-0.1-0.1-0.1c0.4,0,0.7,0,1.1,0.1C14.8,19.8,15.5,20.1,16.3,20.2z"/>
					<path fill="#3E3E3F" d="M15.6,20.9c0,0.1,0,0.1,0,0.2c-0.3,0-0.4-0.1-0.4-0.3c0.1,0,0.2,0,0.3,0C15.5,20.9,15.5,20.9,15.6,20.9
						z"/>
					<path fill="#3E3E3F" d="M15.6,20.5c-0.1,0.1-0.1,0.2-0.1,0.2c0,0.1,0,0.1,0,0.2c0,0-0.1,0-0.1,0c-0.1,0-0.2,0-0.3,0
						C15.2,20.7,15.3,20.6,15.6,20.5z"/>
					<path fill="#3E3E3F" d="M13.5,213.7c0.5,5,0.4,9.8-0.1,14.8c-1,10.7-1.2,21.8-0.9,32.5c0.3,7.7-0.7,15.4-0.1,23
						c0.2,2.5,0.3,4.9,0.2,7.4c0,4.1-0.6,8.9,0,13.1c-0.1,0-0.2,0-0.3,0c-0.3-0.1-0.9,0.1-1.1,0.3c-0.6-4.2,0-8.8,0-13
						c0-2.5-0.1-5-0.3-7.6c-0.5-7.6,0.4-15.2,0.1-22.8c-0.3-10.2-0.2-20.6,0.7-30.7c0.5-5.6,0.8-11,0.3-16.6
						c-0.5-5.4-1.1-10.9-1.2-16.3c0-0.1,0.1-0.2,0.1-0.3c0,0,0,0,0,0c0,0.3,0.1,0.6,0.1,0.8c0.1,0.3,0.8,0.2,1.2-0.1
						C12.5,203.4,13.1,208.6,13.5,213.7z"/>
					<path fill="#3E3E3F" d="M13.2,98.9c0.4,7.2-0.4,14.3-0.6,21.5c-0.1-0.2-0.3-0.5-0.4-0.7c-0.1-0.3-0.6-0.2-1-0.1
						c0.2-6.9,0.9-13.7,0.5-20.6c-0.4-7-1.5-13.9-1.3-20.9c0.3-9.4,1.1-18.9,1.4-28.3c0.1-4.9-0.6-9.8-0.5-14.7c0-5,0.3-10,0.4-15
						c0.5,0,1,0,1.4,0.1c-0.1,5.1-0.4,10.1-0.4,15.2c0,4.9,0.7,9.8,0.5,14.7c-0.3,9.2-1,18.4-1.3,27.6
						C11.6,84.9,12.8,91.9,13.2,98.9z"/>
					<path fill="#3E3E3F" d="M13,19.6c0,0.2,0,0.5,0,0.7c-0.5-0.1-1-0.1-1.4-0.1c0,0,0-0.1,0-0.1c0,0,0-0.1,0-0.1c0,0,0-0.1,0-0.1
						c0.1-0.2,0.5-0.4,0.8-0.4c0.2,0,0.3,0,0.5,0C13,19.5,13,19.5,13,19.6z"/>
					<path fill="#3E3E3F" d="M12.6,140.6c-0.2,4.5,0.4,8.9,0.3,13.5c-0.1,3.8-0.2,7.7-0.3,11.5c-0.1,10.8,0.1,21.5-0.1,32.3
						c0-0.3-0.1-0.6-0.1-0.8c-0.1-0.3-1-0.2-1.3,0.1c0.1-10.4,0-20.8,0-31.2c0-4.1,0.2-8.2,0.3-12.3c0.1-3.9-0.5-7.8-0.4-11.6
						c0.1-4-0.2-8,0-12.1c0.1-3.2,0.6-6.4-0.4-9.5c0-0.1,0.1-0.3,0.2-0.3c0.1,0.2,0.2,0.4,0.3,0.6c0.1,0.3,0.7,0.2,1.1,0
						c0.8,3,0.3,6.1,0.3,9.1C12.4,133.5,12.7,137.1,12.6,140.6z"/>
					<path fill="#3E3E3F" d="M12.8,304.6c0,0.3,0,0.6,0,0.9c-0.1-0.3-0.1-0.7-0.2-1C12.8,304.5,12.8,304.5,12.8,304.6z"/>
					<path fill="#3E3E3F" d="M12.8,305.5c0,0-0.1,0-0.1,0c0-0.3-0.1-0.6-0.1-0.9c0-0.1-0.1-0.2-0.2-0.2c0.1,0,0.2,0,0.3,0
						C12.7,304.8,12.8,305.1,12.8,305.5z"/>
					<path fill="#3E3E3F" d="M12.7,305.5c0,0,0.1,0,0.1,0c0,0.1-0.1,0.2-0.1,0.2C12.7,305.6,12.7,305.6,12.7,305.5z"/>
					<path fill="#3E3E3F" d="M12.4,19.4c0.2,0,0.4,0,0.5,0C12.8,19.5,12.6,19.5,12.4,19.4z"/>
					<path fill="#3E3E3F" d="M12.7,305.7c0.3,2.9-0.1,5.8-0.4,8.7c-0.1,0.8-0.5,2.4-0.5,3.6c-0.3,0-0.7,0.1-0.9,0.2
						c-0.4,0.2-0.3,0.5-0.5,0.9c0.1,0,0.2,0,0.3-0.1c0,0.1,0,0.2,0,0.4c-0.2,0-0.3-0.1-0.3-0.2c-0.2-0.6,0.2-1.9,0.2-2.6
						c0.4-3.9,1-7.7,0.5-11.6c0-0.1,0-0.2,0.1-0.2c0,0.4,0.1,0.7,0.2,1c0,0,0,0,0,0C11.4,306.2,12.4,306,12.7,305.7z"/>
					<path fill="#3E3E3F" d="M12.7,305.5c0,0.1,0,0.1,0,0.2c-0.3,0.3-1.3,0.5-1.3,0.1C11.8,305.7,12.2,305.6,12.7,305.5z"/>
					<path fill="#3E3E3F" d="M12.7,305.5c-0.4,0.1-0.9,0.2-1.3,0.3c0,0,0,0,0,0c0-0.3,0-0.5,0-0.8c0-0.3,0.5-0.5,1-0.5
						c0.1,0,0.2,0.1,0.2,0.2C12.6,304.9,12.7,305.2,12.7,305.5z"/>
					<path fill="#3E3E3F" d="M12.2,119.7c0.1,0.2,0.3,0.5,0.4,0.7c-0.1,0-0.3,0.1-0.4,0.1c0-0.1-0.1-0.2-0.1-0.3
						c-0.1-0.3-0.5-0.2-0.9-0.1c0-0.2,0-0.3,0-0.4C11.6,119.5,12.1,119.5,12.2,119.7z"/>
					<path fill="#3E3E3F" d="M12.5,197.1c0,0.3,0.1,0.6,0.1,0.8c-0.1,0-0.2,0-0.2,0.1c0-0.2,0-0.4,0-0.6c0-0.3-0.8-0.2-1.2,0
						c0-0.1,0-0.1,0-0.2C11.5,196.9,12.4,196.8,12.5,197.1z"/>
					<path fill="#3E3E3F" d="M12.2,120.6c0.1,0,0.3-0.1,0.4-0.1c0,0.2-0.1,0.3-0.3,0.4C12.2,120.8,12.2,120.7,12.2,120.6z"/>
					<path fill="#3E3E3F" d="M12.4,198c0.1,0,0.1,0,0.2-0.1c0,0.1-0.1,0.2-0.2,0.3C12.4,198.2,12.4,198.1,12.4,198z"/>
					<path fill="#3E3E3F" d="M12.4,198c0,0.1,0,0.2,0,0.3c-0.4,0.3-1.2,0.4-1.2,0.1C11.5,198.2,12,198.1,12.4,198z"/>
					<path fill="#939393" d="M12.3,19.4c0.1,0,0.1,0,0.2,0c-0.3,0.1-0.7,0.2-0.8,0.4c0-0.1,0-0.2,0-0.2c-0.4,0.1-0.8,0.3-1.2,0.5
						c0.3,0.1,0.7,0.1,1,0.1c-0.4,0.3-1.3,0.4-1.3,0c0-0.1,0-0.2,0-0.3C10.9,19.7,11.6,19.6,12.3,19.4z"/>
					<path fill="#3E3E3F" d="M12.3,197.4c0,0.2,0,0.4,0,0.6c-0.4,0.1-0.8,0.2-1.2,0.3c0-0.3,0-0.6,0-0.9
						C11.6,197.1,12.3,197.1,12.3,197.4z"/>
					<path fill="#3E3E3F" d="M11.2,304.8c0.2-0.3,0.8-0.4,1.1-0.3c-0.4,0-1,0.2-1,0.5c0,0.3,0,0.6,0,0.8
						C11.3,305.5,11.2,305.1,11.2,304.8z"/>
					<path fill="#3E3E3F" d="M12.3,19.4c-0.7,0.1-1.4,0.3-2.1,0.4c0,0,0,0,0,0c0-0.4,0.9-0.5,1.2-0.5C11.7,19.4,12,19.4,12.3,19.4z"
						/>
					<path fill="#3E3E3F" d="M12.2,120.6c0,0.1,0.1,0.2,0.1,0.3c-0.4,0.2-1,0.2-1.1,0C11.5,120.7,11.8,120.6,12.2,120.6z"/>
					<path fill="#939393" d="M12.1,214c0.5,5.6,0.2,11-0.3,16.6c-0.9,10.1-1,20.6-0.7,30.7c0.3,7.6-0.6,15.3-0.1,22.8
						c0.2,2.5,0.3,5,0.3,7.6c0,4.2-0.6,8.8,0,13c-0.1,0.1-0.1,0.1-0.1,0.2c0.6,3.9-0.1,7.7-0.5,11.6c-0.1,0.6-0.5,1.9-0.2,2.6
						c0,0.1,0.2,0.2,0.3,0.2c0,0.6-0.1,1.2-0.1,1.6c-0.1,3.6-0.5,7.1-0.8,10.7c-0.3,4.7,0.3,9.2,0.7,13.9c-0.1,0.3-1.4,0.7-1.7,0.9
						c-0.9,0.4-1.8,0.9-2.7,1.3c-1.3,0.6-2.9,1.4-4.3,1.7c-0.6-1.7,0.1-5.3,0.1-7c0-5.5,0.1-11.1,0.1-16.6
						c0.1-18.2,0.3-36.4,0.4-54.6c0.2-23.7,0.3-47.3,0.5-71c0.2-24.7,0.4-49.4,0.5-74.1C3.7,105.2,3.8,84.4,4,63.5
						c0.1-12.6,0.2-25.2,0.3-37.8c0-1.6,0-3.1,0-4.7c2-0.4,4-0.8,5.9-1.1c0,0.1,0,0.2,0,0.3c0,0.4,0.9,0.3,1.3,0c0,0,0.1,0,0.1,0
						c-0.1,5-0.3,10-0.4,15c0,4.9,0.6,9.8,0.5,14.7c-0.2,9.4-1.1,18.9-1.4,28.3c-0.2,7,0.9,13.9,1.3,20.9c0.4,6.9-0.3,13.7-0.5,20.6
						c-0.3,0.1-0.5,0.3-0.4,0.4c0,0.1,0.1,0.1,0.1,0.2c-0.2,0.1-0.3,0.2-0.2,0.3c1,3.1,0.5,6.3,0.4,9.5c-0.1,4,0.1,8,0,12.1
						c-0.1,3.9,0.4,7.7,0.4,11.6c0,4.1-0.2,8.2-0.3,12.3c-0.1,10.4,0.1,20.8,0,31.2c-0.1,0.1-0.1,0.2-0.1,0.3
						c-0.1,0.1-0.1,0.2-0.1,0.3C11,203.1,11.6,208.7,12.1,214z"/>
					<path fill="#3E3E3F" d="M12.1,120.2c0,0.1,0.1,0.2,0.1,0.3c-0.4,0.1-0.7,0.2-1,0.3c0-0.2,0-0.5,0-0.7
						C11.5,120,12,120,12.1,120.2z"/>
					<path fill="#3E3E3F" d="M12.1,318.2c0.4,0.7,0,2.1,0,2.9c-0.1,2.6-0.3,5.1-0.5,7.7c-0.5,5.7,0,10.9,0.5,16.5
						c-0.1,0-0.2-0.1-0.3-0.1c-0.1,0-0.4,0-0.7,0.1c-0.2,0.1-0.4,0.2-0.5,0.3l0,0c-0.4-4.7-1-9.2-0.7-13.9c0.2-3.6,0.7-7.1,0.8-10.7
						c0-0.4,0.1-1.1,0.1-1.6c0.4,0,1-0.2,1.1-0.5c0.1-0.3,0.3-0.5-0.1-0.4c0-0.2,0-0.3,0-0.5C11.9,318,12,318.1,12.1,318.2z"/>
					<path fill="#3E3E3F" d="M12,345.4C12,345.4,12,345.4,12,345.4c0,0.1,0,0.1,0,0.1C12,345.5,12,345.4,12,345.4z"/>
					<path fill="#3E3E3F" d="M12,345.4C12,345.4,12,345.4,12,345.4c0-0.2-0.5-0.2-0.9,0c0.2-0.1,0.5-0.2,0.7-0.1
						C11.8,345.2,11.9,345.2,12,345.4C12,345.3,12,345.3,12,345.4z"/>
					<path fill="#3E3E3F" d="M12,345.4c0,0,0,0.1,0,0.1c0,0,0,0,0,0c-0.2,0.3-0.7,0.4-1,0.4h0c0,0-0.1,0-0.1,0
						c-0.5-0.1-0.2-0.4,0.2-0.6C11.5,345.2,12,345.2,12,345.4z"/>
					<path fill="#3E3E3F" d="M11.8,318.6c0.3-0.2,0.2,0,0.1,0.4c-0.1,0.3-0.7,0.5-1.1,0.5c0-0.1,0-0.2,0-0.4
						c0.4-0.1,0.8-0.1,1.1-0.2C11.9,318.7,11.8,318.7,11.8,318.6z"/>
					<path fill="#3E3E3F" d="M11.9,318.8c-0.4,0.1-0.8,0.1-1.1,0.2c0-0.2-0.1-0.3-0.1-0.5c0.4,0,0.8,0,1.2,0c0,0,0,0,0,0
						C11.8,318.7,11.9,318.7,11.9,318.8z"/>
					<path fill="#3E3E3F" d="M11.8,318.6C11.8,318.6,11.8,318.6,11.8,318.6c-0.4,0-0.8,0-1.2,0c0.1,0.1,0.1,0.3,0.1,0.5
						c-0.1,0-0.2,0-0.3,0.1c0.1-0.4,0.1-0.7,0.5-0.9c0.2-0.1,0.6-0.2,0.9-0.2C11.8,318.2,11.8,318.4,11.8,318.6z"/>
					<path fill="#939393" d="M11.6,19.6c0,0.1,0,0.1,0,0.2c0,0,0,0.1,0,0.1c0,0,0,0,0,0.1c0,0-0.1,0.1-0.1,0.1c-0.3,0-0.7,0-1-0.1
						C10.9,19.9,11.2,19.8,11.6,19.6z"/>
					<path fill="#3E3E3F" d="M11.6,19.9c0,0,0,0.1,0,0.1c0,0,0,0.1,0,0.1c0,0,0,0,0-0.1C11.6,19.9,11.6,19.9,11.6,19.9z"/>
					<path fill="#3E3E3F" d="M11.6,20.1c0,0,0,0.1,0,0.1c0,0-0.1,0-0.1,0C11.5,20.1,11.6,20.1,11.6,20.1z"/>
					<path fill="#3E3E3F" d="M12,345.5c-0.1,0.2-0.3,0.4-0.5,0.6c-0.2-0.1-0.4-0.1-0.5-0.2C11.3,346,11.8,345.8,12,345.5z"/>
					<path fill="#3E3E3F" d="M10.9,345.9c0.2,0,0.4,0.1,0.5,0.2c-1,0.8-3.1,1.4-4,1.8c-1.6,0.7-3.3,1.6-5,2.1
						c-0.3-0.1-0.5-0.3-0.6-0.3c0-0.1-0.1-0.1-0.1-0.2c1.5-0.3,3-1.1,4.3-1.7c0.9-0.4,1.8-0.8,2.7-1.3c0.3-0.1,1.5-0.6,1.7-0.9
						c0,0,0,0.1,0,0.1C10.6,345.9,10.7,345.9,10.9,345.9L10.9,345.9z"/>
					<path fill="#3E3E3F" d="M11.2,119.7c0,0.2,0,0.3,0,0.4c-0.1,0-0.2,0.1-0.3,0.1c0,0-0.1-0.1-0.1-0.2
						C10.7,120,10.9,119.8,11.2,119.7z"/>
					<path fill="#3E3E3F" d="M11.2,120.1c0,0.2,0,0.5,0,0.7c-0.1-0.2-0.2-0.4-0.3-0.6C10.9,120.2,11,120.2,11.2,120.1z"/>
					<path fill="#3E3E3F" d="M11.2,197.2c0,0,0,0.1,0,0.2c-0.1,0-0.1,0.1-0.1,0.1C11,197.4,11.1,197.3,11.2,197.2z"/>
					<path fill="#3E3E3F" d="M11.2,197.4c0,0.3,0,0.6,0,0.9c0-0.3-0.1-0.6-0.1-0.8c0,0,0,0,0,0C11.1,197.4,11.1,197.4,11.2,197.4z"
						/>
					<path fill="#3E3E3F" d="M10.8,345.9C10.9,345.9,10.9,345.9,10.8,345.9c-0.1,0-0.3,0-0.3-0.2c0,0,0-0.1,0-0.1l0,0
						c0.1-0.2,0.3-0.3,0.5-0.3C10.7,345.5,10.3,345.8,10.8,345.9z"/>
					<path fill="#3E3E3F" d="M4.3,20.6c0,0.1,0,0.3,0,0.4c-0.3,0-0.6,0.1-0.8,0.2c-1,0.2-0.4-0.6,0.2-0.7c0,0,0,0,0.1,0
						C4,20.4,4.3,20.4,4.3,20.6z"/>
					<path fill="#3E3E3F" d="M4.3,21c0,1.6,0,3.1,0,4.7C4.1,38.3,4.1,50.9,4,63.5c-0.2,20.9-0.3,41.7-0.5,62.6
						c-0.2,24.7-0.4,49.4-0.5,74.1c-0.2,23.7-0.3,47.3-0.5,71c-0.1,18.2-0.3,36.4-0.4,54.6c0,5.5-0.1,11.1-0.1,16.6
						c0,1.7-0.8,5.3-0.1,7c-0.1,0-0.2,0.1-0.4,0.1c-0.4,0-0.8,0.3-0.8,0.5l-0.2,0c0-0.1,0-0.3,0-0.4c-0.4-1.2,0-3.2,0-4.4
						c0-2.8,0-5.6,0.1-8.4c0.1-9.1,0.1-18.1,0.2-27.2c0.2-27.4,0.4-54.8,0.6-82.1c0.2-31.8,0.5-63.6,0.7-95.4
						C2.2,106.1,2.4,80,2.6,53.9c0.1-11,0.2-21.9,0.2-32.9c0-0.3,0.5-0.5,0.8-0.5c-0.6,0.1-1.2,0.9-0.2,0.7C3.7,21.1,4,21,4.3,21z"
						/>
					<path fill="#3E3E3F" d="M1.9,349.7c0,0.1,0.2,0.2,0.6,0.3c-0.4,0.1-0.8,0.2-1.2,0.2c-0.4,0.1-0.5,0-0.5-0.2
						c0-0.2,0.4-0.5,0.8-0.5c0.1,0,0.2,0,0.4-0.1C1.9,349.5,1.9,349.6,1.9,349.7z"/>
				</g>
				<g>
					<line fill="none" stroke="#3E3E3F" stroke-miterlimit="10" x1="0.5" y1="350.1" x2="0.7" y2="350.1"/>
					<line fill="none" stroke="#3E3E3F" stroke-miterlimit="10" x1="21.8" y1="69.1" x2="21.8" y2="69.1"/>
					<line fill="none" stroke="#3E3E3F" stroke-miterlimit="10" x1="113" y1="46.9" x2="113.1" y2="46.5"/>
					<line fill="none" stroke="#3E3E3F" stroke-miterlimit="10" x1="200.3" y1="19.3" x2="200.4" y2="19.2"/>
					<line fill="none" stroke="#3E3E3F" stroke-miterlimit="10" x1="207.8" y1="349.9" x2="207.8" y2="349.9"/>
				</g>
			</g>
		</g>
	</g>
</g>
<g id="ch06-02-3">
	<g id="Layer_28">
	</g>
	<g id="hand_1_" display="none">
	</g>
	<g id="hand_x5F_copy" display="none">
	</g>
	<g id="hand_new">
	</g>
	<g id="hand_new_copy">
	</g>
</g>
<g id="ch05-08-3">
	<g id="main_x5F_comp-path_backup_copy">
	</g>
	<g id="main_x5F_comp_2_">
	</g>
</g>
<g id="ch04-07-2">
	<g id="new_base_1_">
	</g>
	<g id="hand">
	</g>
</g>
<g id="ch04-06-1">
	<g id="paths_1_" display="none">
		<g id="Layer_15_copy" display="inline">
		</g>
	</g>
	<g id="hand_w_jug_x5F_comp">
	</g>
	<g id="hand_w_jug_copy">
	</g>
</g>
<g id="ch04-03-2">
	<g id="paths" display="none">
		<g id="nose_x5F_34_x5F_side_path_x5D_" display="inline">
		</g>
		<g id="nose_x5F_34_x5F_side_path_x5D__copy" display="inline">
		</g>
	</g>
	<g id="main_comp_1_">
		<g id="base">
		</g>
		<g id="nose_x5F_34_x5F_side">
		</g>
		<g id="LID">
		</g>
	</g>
	<g id="base_copy">
	</g>
	<g id="nose_x5F_34_x5F_side_copy">
	</g>
	<g id="LID_copy">
	</g>
</g>
<g id="ch04-02-1">
	<g id="backup" display="none">
	</g>
</g>
</svg>
