<?xml version="1.0" encoding="utf-8"?>
<!-- Generator: Adobe Illustrator 18.1.1, SVG Export Plug-In . SVG Version: 6.00 Build 0)  -->
<!DOCTYPE svg PUBLIC "-//W3C//DTD SVG 1.1//EN" "http://www.w3.org/Graphics/SVG/1.1/DTD/svg11.dtd">
<svg version="1.1" xmlns="http://www.w3.org/2000/svg" xmlns:xlink="http://www.w3.org/1999/xlink" x="0px" y="0px"
	 viewBox="0 0 208 393.6" enable-background="new 0 0 208 393.6" xml:space="preserve">
<g id="ch06-05-1">
	<g id="paths_backup" display="none">
	</g>
</g>
<g id="ch02A-08-2">
	<g id="bsf_contents">
		<g id="separation_gravel_copy">
		</g>
		<g id="spout_8_">
			<g id="XMLID_84_">
				<g>
					<path d="M178.5,73.6c1.8,6.1,2.4,13.6,1.1,19.9c0,0.1,0,0.2-0.1,0.2c-2,0.4-6.6,1.5-7.9-1.1c-0.3-0.7-0.2-1.5-0.1-2.3
						c0.2-3.3,0.2-6.5,0-9.8c-0.3-3.8-1.3-7.7-5.5-9c-2.9-0.9-6.1-0.8-8.9,0.2c-4.3,1.4-5.4,5.4-6.1,9.6c-0.6,4-0.4,8.1-0.4,12.1
						c0,21.3-0.1,42.8-0.1,64.1c0,28.8-0.4,57.5-0.4,86.4c0,20.5,0.5,41.1,0.5,61.6c0,5.5-0.6,13.6-1.8,16.1
						c-1.3,2.8-2.4,6.4-5.3,7.6c-2,0.8-4.2,0.5-6.2,0.5c-1.8,0-3.6,0-5.4,0c-0.6,0-2,0.3-2.5,0c-2-1.1-1.2-5.1-0.2-6.5
						c-0.2,0.3-0.2,1.5,0.2,1.5c0,0,0,0,0,0c-0.6,0.8-0.9,2.8,0,3.4c0.2,0.1,1,0,1.2,0c1.4,0,2.8,0,4.2,0c2.2,0,4.5,0.2,6.6,0
						c8.4-0.8,8.2-13.1,8.2-19.7c0-6.5,0-13,0-19.5c0-23.9,0.1-47.8,0.1-71.7c0-27,0.1-54.1,0.1-81.1c0-16.4,0.1-32.9,0.1-49.3
						c0-6.2,0.2-14.5,7.1-16.9c5.5-1.9,12.9-0.6,14.4,6c0.6,2.6,0.6,5.5,0.6,8.2c0,1.5,0,3,0,4.5c0,0.3-0.3,2.2-0.3,2.3
						c0.3,0.9,1.7,1.2,2.4,1.3c1.2,0.2,4.5,0.3,5.1-0.5c0.5-0.7,0.3-3.2,0.4-4c0.2-4.7,0-10.5-1.9-14.7c-2.8-6.3-11.4-7.9-17.4-6.8
						c-6.3,1.1-14.1,4.1-14.6,11.3c-0.5,8.5-0.9,16.2-0.9,24.3c0,12.8-0.1,25.9-0.2,38.7c-0.1,26.6-0.3,53.2-0.4,79.8
						c-0.1,23.8-0.2,47.6-0.3,71.4c0,5.9-0.1,11.8-0.1,17.6c0,2,0.1,2.9,0,5.1c-0.1,3.4-0.3,6.5-3,8.8c-3,2.5-8,1.7-11.6,1.4
						c0,0,0,0,0,0c0.3-0.3-0.1-1.5-0.2-1.5c0,0,0,0,0,0c4,0.3,9.3,1.2,12.3-2.1c3.1-3.3,2-11.6,2-16.4c0-7.7,0.1-15.4,0.1-23.2
						c0.1-25.3,0.2-50.5,0.4-75.8c0.1-25.2,0.2-50.3,0.4-75.5c0.1-15.3-0.4-30.9,0.5-46.1c0.3-5.8,0.3-11.6,5.3-15.4
						c4.8-3.7,12.6-5.4,18.3-3.9C173,66.3,177.1,68.9,178.5,73.6z"/>
					<path fill="#FFFFFF" d="M177.8,73.4c1.9,4.2,2.1,10,1.9,14.7c0,0.8,0.2,3.3-0.4,4c-0.6,0.8-3.9,0.8-5.1,0.5
						c-0.8-0.1-2.2-0.4-2.4-1.3c-0.1-0.2,0.2-2.1,0.3-2.3c0.1-1.5,0.1-3,0-4.5c-0.1-2.7,0-5.5-0.6-8.2c-1.5-6.6-8.9-7.9-14.4-6
						c-6.9,2.3-7.1,10.6-7.1,16.9c0,16.4-0.1,32.9-0.1,49.3c0,27.1-0.1,54.1-0.1,81.1c0,23.9-0.1,47.8-0.1,71.7c0,6.5,0,13,0,19.5
						c0,6.6,0.1,18.9-8.2,19.7c-2.2,0.2-4.5,0-6.6,0c-1.4,0-2.8,0-4.2,0c-0.2,0-1,0.1-1.2,0c-0.9-0.6-0.6-2.6,0-3.4
						c3.6,0.3,8.6,1.1,11.6-1.4c2.7-2.3,2.9-5.4,3-8.8c0.1-2.1,0-3.1,0-5.1c0-5.9,0.1-11.8,0.1-17.6c0.1-23.8,0.2-47.6,0.3-71.4
						c0.1-26.6,0.3-53.2,0.4-79.8c0.1-12.8,0.2-25.9,0.2-38.7c0-8.1,0.3-15.9,0.9-24.3c0.5-7.2,8.3-10.1,14.6-11.3
						C166.5,65.5,175,67.1,177.8,73.4z"/>
					<path d="M129.2,323.4c0.1,0,0.4,1.2,0.2,1.5c0,0,0,0,0,0c0,0,0,0,0,0C129,325,129,323.7,129.2,323.4
						C129.1,323.5,129.2,323.4,129.2,323.4C129.2,323.4,129.2,323.4,129.2,323.4z"/>
				</g>
			</g>
			<g id="XMLID_83_">
				<g>
					<path d="M178.5,73.6c1.8,6.1,2.4,13.6,1.1,19.9c0,0.1,0,0.2-0.1,0.2c-2,0.4-6.6,1.5-7.9-1.1c-0.3-0.7-0.2-1.5-0.1-2.3
						c0.2-3.3,0.2-6.5,0-9.8c-0.3-3.8-1.3-7.7-5.5-9c-2.2-0.7-4.6-0.8-6.8-0.3c-0.3-0.5-0.4-1-0.4-1.5c5.2-1.1,11.3,0.6,12.6,6.5
						c0.6,2.6,0.6,5.5,0.6,8.2c0,1.5,0,3,0,4.5c0,0.3-0.3,2.2-0.3,2.3c0.3,0.9,1.7,1.2,2.4,1.3c1.2,0.2,4.5,0.3,5.1-0.5
						c0.5-0.7,0.3-3.2,0.4-4c0.2-4.7,0-10.5-1.9-14.7c-2.8-6.3-11.4-7.9-17.4-6.8c-0.3,0-0.6,0.1-0.9,0.2c0.4-0.7,0.9-1.4,1.5-2
						c2.6-0.3,5.2-0.3,7.5,0.4C173,66.3,177.1,68.9,178.5,73.6z"/>
					<path fill="#FFFFFF" d="M177.8,73.4c1.9,4.2,2.1,10,1.9,14.7c0,0.8,0.2,3.3-0.4,4c-0.6,0.8-3.9,0.8-5.1,0.5
						c-0.8-0.1-2.2-0.4-2.4-1.3c-0.1-0.2,0.2-2.1,0.3-2.3c0.1-1.5,0.1-3,0-4.5c-0.1-2.7,0-5.5-0.6-8.2c-1.3-5.9-7.4-7.6-12.6-6.5
						c-0.1-1,0.2-2.1,0.7-3.1c0.3-0.1,0.6-0.1,0.9-0.2C166.5,65.5,175,67.1,177.8,73.4z"/>
				</g>
			</g>
		</g>
	</g>
</g>
<g id="ch06-02-3">
	<g id="Layer_28">
	</g>
	<g id="hand_1_" display="none">
	</g>
	<g id="hand_x5F_copy" display="none">
	</g>
	<g id="hand_new">
	</g>
	<g id="hand_new_copy">
	</g>
</g>
<g id="ch05-08-3">
	<g id="main_x5F_comp-path_backup_copy">
	</g>
	<g id="main_x5F_comp_2_">
	</g>
</g>
<g id="ch04-07-2">
	<g id="new_base_1_">
	</g>
	<g id="hand">
	</g>
</g>
<g id="ch04-06-1">
	<g id="paths_1_" display="none">
		<g id="Layer_15_copy" display="inline">
		</g>
	</g>
	<g id="hand_w_jug_x5F_comp">
	</g>
	<g id="hand_w_jug_copy">
	</g>
</g>
<g id="ch04-03-2">
	<g id="paths" display="none">
		<g id="nose_x5F_34_x5F_side_path_x5D_" display="inline">
		</g>
		<g id="nose_x5F_34_x5F_side_path_x5D__copy" display="inline">
		</g>
	</g>
	<g id="main_comp_1_">
		<g id="base">
		</g>
		<g id="nose_x5F_34_x5F_side">
		</g>
		<g id="LID">
		</g>
	</g>
	<g id="base_copy">
	</g>
	<g id="nose_x5F_34_x5F_side_copy">
	</g>
	<g id="LID_copy">
	</g>
</g>
<g id="ch04-02-1">
	<g id="backup">
	</g>
</g>
<g id="ch07-12-4">
	<g id="hand_x5F_far">
	</g>
	<g id="hand_x5F_close_1_">
	</g>
	<g id="hand_x5F_far_copy">
	</g>
	<g id="hand_x5F_close_copy">
	</g>
</g>
<g id="ch08-04-1">
</g>
<g id="ch08-11-1">
	<g id="safety_x5F_copy" display="none">
		<g id="nose_copy" display="inline">
		</g>
		<g id="spout_copy" display="inline">
		</g>
		<g id="water_copy_2" display="inline">
		</g>
		<g id="sand_copy_2" display="inline">
		</g>
		<g id="back_copy_2" display="inline">
		</g>
		<g id="side_copy" display="inline">
		</g>
	</g>
	<g id="back_2_">
	</g>
	<g id="water" opacity="0.5">
	</g>
	<g id="sand">
	</g>
	<g id="side">
	</g>
	<g id="nose_7_">
	</g>
	<g id="spout_1_">
	</g>
	<g id="water_copy" opacity="0.5">
	</g>
	<g id="sand_copy">
	</g>
	<g id="nose_copy_2">
	</g>
	<g id="nose_copy_3">
	</g>
	<g id="back_copy">
	</g>
	<g id="back_copy_3">
	</g>
	<g id="side_copy_2">
	</g>
	<g id="side_copy_3">
	</g>
	<g id="spout_copy_2">
	</g>
	<g id="spout_copy_3">
	</g>
</g>
<g id="ch03-30-7">
</g>
<g id="ch03-30-8">
</g>
</svg>
