<?xml version="1.0" encoding="utf-8"?>
<!-- Generator: Adobe Illustrator 18.1.1, SVG Export Plug-In . SVG Version: 6.00 Build 0)  -->
<!DOCTYPE svg PUBLIC "-//W3C//DTD SVG 1.1//EN" "http://www.w3.org/Graphics/SVG/1.1/DTD/svg11.dtd">
<svg version="1.1" xmlns="http://www.w3.org/2000/svg" xmlns:xlink="http://www.w3.org/1999/xlink" x="0px" y="0px"
	 viewBox="0 0 208.3 393.8" enable-background="new 0 0 208.3 393.8" xml:space="preserve">
<g id="ch06-05-1">
	<g id="paths_backup">
	</g>
	<g id="nose_14_">
		<path d="M197.8,72.5c0-0.1,0-0.2,0-0.3c-8-13-16.1-26-24.1-39c-0.2-0.3-0.5-0.2-0.8,0.1c0,0,0,0,0,0c-11,3.1-22,6.2-32.9,9.3
			c-0.1,0-0.3,0-0.4,0.1c-0.1,0-0.3,0.1-0.4,0.1c-0.2,0.1-0.2,0.2-0.2,0.3c0,0,0,0,0,0.1c0,12.2,0,24.4,0,36.7
			c0,0.3,0.2,0.4,0.5,0.4c0.1,0.1,0.2,0.2,0.3,0.2c9.2,2.1,18.5,4.1,27.7,6.2c0.3,0.1,0.4-0.1,0.4-0.3c9.9-4.4,19.9-8.8,29.8-13.2
			C197.9,72.9,197.9,72.7,197.8,72.5z"/>
		<g id="XMLID_82_">
			<g>
				<path d="M197.8,72.5c0.1,0.2,0.1,0.4-0.3,0.5c-9.9,4.4-19.9,8.8-29.8,13.2c0,0.2-0.1,0.4-0.4,0.3c-9.2-2.1-18.4-4.1-27.7-6.2
					c-0.1,0-0.2-0.1-0.3-0.2c-0.3,0-0.5-0.2-0.5-0.4c0-12.2,0-24.5,0-36.7c0,0,0,0,0-0.1c0-0.1,0.1-0.2,0.2-0.3
					c0.1-0.1,0.2-0.1,0.4-0.2c0.1-0.1,0.3-0.1,0.4-0.1c11-3.1,22-6.2,32.9-9.3c0,0,0,0,0,0c0.3-0.2,0.7-0.3,0.8-0.1
					c8,13,16.1,26,24.1,39C197.8,72.3,197.8,72.4,197.8,72.5z M196.2,72.5c-7.9-12.8-15.8-25.5-23.7-38.3c-10.7,3-21.3,6-32,9
					c9,14,18.1,27.9,27.1,41.9C177.1,80.9,186.7,76.7,196.2,72.5z M165.6,84.9c-8.5-13.1-16.9-26.2-25.4-39.3c0,11.2,0,22.4,0,33.6
					C148.7,81.1,157.2,83,165.6,84.9z"/>
				<path fill="#1FA6AA" d="M172.5,34.2c7.9,12.8,15.8,25.5,23.7,38.3c-9.5,4.2-19.1,8.4-28.6,12.6c-9-14-18.1-28-27.1-41.9
					C151.2,40.2,161.9,37.2,172.5,34.2z"/>
				<path fill="#167679" d="M140.3,45.6c8.5,13.1,16.9,26.2,25.4,39.3c-8.5-1.9-16.9-3.8-25.4-5.7C140.3,68,140.3,56.8,140.3,45.6z"
					/>
			</g>
		</g>
	</g>
</g>
<g id="bsf_x5F_lid">
</g>
<g id="Layer_69">
</g>
<g id="ch02A-08-2">
	<g id="bsf_contents">
		<g id="separation_gravel_copy">
		</g>
	</g>
</g>
<g id="ch06-02-3">
	<g id="Layer_28">
	</g>
	<g id="hand_1_">
	</g>
	<g id="hand_x5F_copy">
	</g>
	<g id="hand_new">
	</g>
	<g id="hand_new_copy">
	</g>
</g>
<g id="ch05-08-3">
	<g id="main_x5F_comp-path_backup_copy">
	</g>
	<g id="main_x5F_comp_2_">
	</g>
</g>
<g id="ch04-07-2">
	<g id="new_base_1_">
	</g>
	<g id="hand">
	</g>
</g>
<g id="ch04-06-1">
	<g id="paths_1_">
		<g id="Layer_15_copy">
		</g>
	</g>
	<g id="hand_w_jug_x5F_comp">
	</g>
	<g id="hand_w_jug_copy">
	</g>
</g>
<g id="ch04-03-2">
	<g id="paths">
		<g id="nose_x5F_34_x5F_side_path_x5D_">
		</g>
		<g id="nose_x5F_34_x5F_side_path_x5D__copy">
		</g>
	</g>
	<g id="main_comp_1_">
		<g id="base">
		</g>
		<g id="nose_x5F_34_x5F_side">
		</g>
		<g id="LID">
		</g>
	</g>
	<g id="base_copy">
	</g>
	<g id="nose_x5F_34_x5F_side_copy">
	</g>
	<g id="LID_copy">
	</g>
</g>
<g id="ch04-02-1">
	<g id="backup">
	</g>
</g>
<g id="ch07-12-4">
	<g id="hand_x5F_far">
	</g>
	<g id="hand_x5F_close_1_">
	</g>
	<g id="hand_x5F_far_copy">
	</g>
	<g id="hand_x5F_close_copy">
	</g>
</g>
<g id="ch08-04-1">
</g>
<g id="ch08-11-1">
	<g id="safety_x5F_copy">
		<g id="nose_copy">
		</g>
		<g id="spout_copy">
		</g>
		<g id="water_copy_2">
		</g>
		<g id="sand_copy_2">
		</g>
		<g id="back_copy_2">
		</g>
		<g id="side_copy">
		</g>
	</g>
	<g id="back_2_">
	</g>
	<g id="water" opacity="0.5">
	</g>
	<g id="sand">
	</g>
	<g id="side">
	</g>
	<g id="nose_7_">
	</g>
	<g id="spout_1_">
	</g>
	<g id="water_copy" opacity="0.5">
	</g>
	<g id="sand_copy">
	</g>
	<g id="nose_copy_2">
	</g>
	<g id="nose_copy_3">
	</g>
	<g id="back_copy">
	</g>
	<g id="back_copy_3">
	</g>
	<g id="side_copy_2">
	</g>
	<g id="side_copy_3">
	</g>
	<g id="spout_copy_2">
	</g>
	<g id="spout_copy_3">
	</g>
</g>
<g id="ch03-30-7">
</g>
<g id="ch03-30-8">
</g>
<g id="_x33_4plastic">
</g>
</svg>
