<?xml version="1.0" encoding="utf-8"?>
<!-- Generator: Adobe Illustrator 18.1.1, SVG Export Plug-In . SVG Version: 6.00 Build 0)  -->
<svg version="1.1" xmlns="http://www.w3.org/2000/svg" xmlns:xlink="http://www.w3.org/1999/xlink" x="0px" y="0px"
	 viewBox="0 0 213.4 396" enable-background="new 0 0 213.4 396" xml:space="preserve">
<g id="ch06-05-1">
	<g id="paths_backup">
	</g>
	<g>
		<g opacity="0.5">
			<g>
				<polygon fill="#00B919" points="104.4,46.1 4.9,21.2 3.5,349.8 105.3,393.5 209.4,350.6 206.9,20.6 				"/>
			</g>
			<g>
				<path fill="#00B919" d="M105.3,394.1l-0.2-0.1L3,350.1l0-0.3l1.3-329l0.4-0.1l99.7,24.9l103-25.4l0,0.4l2.5,330.3l-0.3,0.1
					L105.3,394.1z M4,349.5L105.3,393l103.6-42.8L206.4,21l-102,25.6l-99.1-25L4,349.5z"/>
			</g>
		</g>
		<g>
			<polygon fill="none" points="103.9,49.8 8.8,26.8 7,344.5 106.5,388.4 206.4,345.6 204,25.7 			"/>
			<path fill="#00B919" d="M210.9,18.7l-0.1,0v-1.5l-6.9,1.6h0v0l-100,22.8L1.9,16.9v1.8l-0.1,0L0,349.1L106.4,396l107-45.8
				L210.9,18.7z M106.5,388.4L7,344.5L8.8,26.8l95.1,23L204,25.7l2.4,319.9L106.5,388.4z"/>
		</g>
	</g>
</g>
<g id="bsf_x5F_lid">
	
		<image display="none" overflow="visible" width="1100" height="2000" xlink:href="../Creative Cloud Files/bsf_builds/builds/01Characters/C-01_bsfm/34symetrical_comp_with-lid.jpg"  transform="matrix(0.2454 0 0 0.2454 45.3325 -90.6772)">
	</image>
</g>
<g id="Layer_69">
</g>
<g id="ch02A-08-2">
	<g id="bsf_contents">
		<g id="separation_gravel_copy">
		</g>
	</g>
</g>
<g id="ch06-02-3">
	<g id="Layer_28">
	</g>
	<g id="hand_1_">
	</g>
	<g id="hand_x5F_copy">
	</g>
	<g id="hand_new">
	</g>
	<g id="hand_new_copy">
	</g>
</g>
<g id="ch05-08-3">
	<g id="main_x5F_comp-path_backup_copy">
	</g>
	<g id="main_x5F_comp_2_">
	</g>
</g>
<g id="ch04-07-2">
	<g id="new_base_1_">
	</g>
	<g id="hand">
	</g>
</g>
<g id="ch04-06-1">
	<g id="paths_1_">
		<g id="Layer_15_copy">
		</g>
	</g>
	<g id="hand_w_jug_x5F_comp">
	</g>
	<g id="hand_w_jug_copy">
	</g>
</g>
<g id="ch04-03-2">
	<g id="paths">
		<g id="nose_x5F_34_x5F_side_path_x5D_">
		</g>
		<g id="nose_x5F_34_x5F_side_path_x5D__copy">
		</g>
	</g>
	<g id="main_comp_1_">
		<g id="base">
		</g>
		<g id="nose_x5F_34_x5F_side">
		</g>
		<g id="LID">
		</g>
	</g>
	<g id="base_copy">
	</g>
	<g id="nose_x5F_34_x5F_side_copy">
	</g>
	<g id="LID_copy">
	</g>
</g>
<g id="ch04-02-1">
	<g id="backup">
	</g>
</g>
<g id="ch07-12-4">
	<g id="hand_x5F_far">
	</g>
	<g id="hand_x5F_close_1_">
	</g>
	<g id="hand_x5F_far_copy">
	</g>
	<g id="hand_x5F_close_copy">
	</g>
</g>
<g id="ch08-04-1">
</g>
<g id="ch08-11-1">
	<g id="safety_x5F_copy">
		<g id="nose_copy">
		</g>
		<g id="spout_copy">
		</g>
		<g id="water_copy_2">
		</g>
		<g id="sand_copy_2">
		</g>
		<g id="back_copy_2">
		</g>
		<g id="side_copy">
		</g>
	</g>
	<g id="back_2_">
	</g>
	<g id="water" opacity="0.5">
	</g>
	<g id="sand">
	</g>
	<g id="side">
	</g>
	<g id="nose_7_">
	</g>
	<g id="spout_1_">
	</g>
	<g id="water_copy" opacity="0.5">
	</g>
	<g id="sand_copy">
	</g>
	<g id="nose_copy_2">
	</g>
	<g id="nose_copy_3">
	</g>
	<g id="back_copy">
	</g>
	<g id="back_copy_3">
	</g>
	<g id="side_copy_2">
	</g>
	<g id="side_copy_3">
	</g>
	<g id="spout_copy_2">
	</g>
	<g id="spout_copy_3">
	</g>
</g>
<g id="ch03-30-7">
</g>
<g id="ch03-30-8">
</g>
</svg>
