<?xml version="1.0" encoding="utf-8"?>
<!-- Generator: Adobe Illustrator 18.1.1, SVG Export Plug-In . SVG Version: 6.00 Build 0)  -->
<!DOCTYPE svg PUBLIC "-//W3C//DTD SVG 1.1//EN" "http://www.w3.org/Graphics/SVG/1.1/DTD/svg11.dtd">
<svg version="1.1" xmlns="http://www.w3.org/2000/svg" xmlns:xlink="http://www.w3.org/1999/xlink" x="0px" y="0px"
	 viewBox="0 0 208 393.6" enable-background="new 0 0 208 393.6" xml:space="preserve">
<g id="ch06-05-1">
	<g id="paths_backup" display="none">
	</g>
</g>
<g id="ch02A-08-2">
	<g id="bsf_contents">
		<g id="separation_gravel_copy">
		</g>
		<g id="drainage_gravel_4_">
			<path fill="none" d="M96.2,319.9c-0.4,0.3-1,0.4-1.5,0.4c0.7,0.7,1.2,1.6,1.3,2.4c0.5-0.2,0.9-0.3,1.4-0.4
				c-0.9-0.5-1.8-1.2-1.2-2.3l0,0c0,0,0,0,0,0C96.2,320.1,96.2,320,96.2,319.9C96.2,320,96.2,320,96.2,319.9
				c0.1-0.1,0.2-0.2,0.3-0.3C96.4,319.8,96.3,319.9,96.2,319.9z"/>
			<path fill="none" d="M76.8,335c0-0.2,0.1-0.4,0.1-0.6c-0.3,0.1-0.6,0.3-0.9,0.4c0.1,0,0.2,0.1,0.3,0.1
				C76.5,335,76.7,335,76.8,335z"/>
			<path fill="none" d="M69.7,334c-0.4-0.7-0.7-1.6-0.8-2.4c-0.1-0.4-0.1-0.7-0.1-1.1c0,0-0.1,0.1-0.1,0.1c-0.6,0.7-1.4,1.4-2.3,1.8
				c0.1,0,0.2,0,0.3,0.1c0.7,0.2,2.3,0.7,2.3,1.6C69.2,334.1,69.4,334.1,69.7,334z"/>
			<path fill="none" d="M65.7,312.9c0.1-0.2,0.1-0.3,0.2-0.4c-0.2,0.1-0.4,0.2-0.6,0.3C65.4,312.8,65.6,312.8,65.7,312.9z"/>
			<path fill="none" d="M78,315.4c0.2,0.1,0.3,0.1,0.5,0.2c0,0,0,0,0,0c0-0.2,0.1-0.4,0.2-0.6C78.5,315.1,78.2,315.2,78,315.4z"/>
			<path fill="none" d="M74.9,320.1C74.9,320.1,74.9,320.1,74.9,320.1C75,320.1,75,320.1,74.9,320.1C75,320.1,75,320.1,74.9,320.1z"
				/>
			<path fill="none" d="M46.3,315.9c-0.1,0.1-0.2,0.1-0.3,0.2c0,0,0,0,0.1,0.1c0.2-0.1,0.4-0.3,0.7-0.4c1-0.5,2-0.7,3-0.6
				c-0.1,0-0.2-0.1-0.3-0.1c-0.8-0.4-1.3-1.1-1.6-1.9C47.7,314.2,47.1,315.3,46.3,315.9z"/>
			<path fill="none" d="M67.1,318.2c-0.9-0.4-1.4-1.3-1.6-2.3c-0.3,0.1-0.6,0.2-0.9,0.2c0,0-0.1,0-0.1,0c0.6,0.5,1.1,1,1.7,1.6
				c1.1,1.1,2.3,2.8,1.5,4.3c0.4,0,0.8,0,1.2,0.1c-1-2.6,1.9-5.6,4.7-4.1c0-0.4,0.2-0.8,0.4-1.1c0-0.1,0.1-0.1,0.1-0.1
				c-1,0.5-2.1,0.8-3.2,1.1C69.7,318.1,68.3,318.8,67.1,318.2z"/>
			<path fill="none" d="M66.3,336C66.3,336,66.3,336,66.3,336C66.3,336,66.3,336,66.3,336C66.3,336,66.3,336,66.3,336z"/>
			<path fill="none" d="M43.4,324.7c-0.1,0-0.1,0-0.2,0c0,0.1,0,0.2,0,0.3C43.3,325,43.3,324.8,43.4,324.7z"/>
			<path fill="none" d="M76.2,315.2c0-0.1-0.1-0.2-0.1-0.3c-0.1,0.1-0.2,0.3-0.3,0.4C76,315.3,76.1,315.2,76.2,315.2z"/>
			<path fill="none" d="M101.7,324.8c0,0.5-0.2,1-0.4,1.3c0.5-0.2,1-0.4,1.5-0.6C102.4,325.4,102,325.2,101.7,324.8z"/>
			<path fill="none" d="M134.1,332C134.1,332,134.1,332,134.1,332c0,0,0-0.1,0-0.2c-0.1,0-0.1,0.1-0.2,0.1
				C134,332,134,332,134.1,332z"/>
			<path fill="none" d="M88.9,327.2c-0.6,0-1.1-0.1-1.7-0.1c0.3,0.3,0.6,0.7,0.9,1.2C88.3,327.8,88.6,327.5,88.9,327.2z"/>
			<path fill="none" d="M98.8,342.8c-0.1,0.1-0.2,0.2-0.3,0.3c0.1,0.1,0.2,0.1,0.3,0.2C98.8,343.1,98.8,343,98.8,342.8z"/>
			<path fill="none" d="M129.5,338.8c-0.5,0-1,0-1.4,0c-0.3,0-0.7-0.1-1-0.2c0.1,0.6,0.2,1.2,0.1,1.8c0.5,0,1,0.1,1.3,0.2
				c0.1,0,0.3,0.1,0.4,0.2c0-0.2,0-0.5,0.1-0.8C129.1,339.5,129.3,339.1,129.5,338.8z"/>
			<path fill="none" d="M121.9,328.9c-0.2-0.1-0.3-0.2-0.5-0.3c-0.1,0.1-0.1,0.2-0.2,0.3c0,0,0,0,0,0
				C121.5,328.9,121.7,328.9,121.9,328.9z"/>
			<path fill="none" d="M101.7,333c0.2-0.1,0.3-0.2,0.5-0.2c0,0,0,0,0.1-0.1C102,332.8,101.8,333,101.7,333
				C101.7,333,101.7,333,101.7,333z"/>
			<path fill="none" d="M106.3,324.7c-0.3,0.3-0.6,0.5-1,0.7c0.3,0.1,0.6,0.1,0.9,0.3C106.2,325.3,106.2,325,106.3,324.7z"/>
			<path fill="none" d="M105,331.4c0.1,0,0.2,0,0.3-0.1c1.1-0.2,1.7-0.1,2.9-0.6c0.9-0.3,1.2-0.6,1.8-1c-0.8-0.2-1.5-0.5-2.2-1.1
				C107.4,329.9,106.2,330.7,105,331.4z"/>
			<path fill="none" d="M94.3,331.9c-0.2,1.6-1.3,3.2-2.8,3.7c0.2,0.2,0.5,0.4,0.8,0.6c0.2-0.7,0.6-1.3,1-1.8
				c0.5-0.6,1.3-1.2,2.1-1.6c-0.5-1.3,0.4-2.7,1.6-3.8c0,0,0,0,0.1-0.1c0,0,0.1-0.1,0.1-0.1c0,0,0,0,0,0c-1.1,0.3-2.1,0.3-3,0.1
				c-0.1,0-0.1,0-0.2-0.1C94.3,329.8,94.4,331,94.3,331.9z"/>
			<path fill="none" d="M125.4,323.7c-0.1,0-0.2,0-0.4-0.1C125.1,323.7,125.3,323.7,125.4,323.7
				C125.4,323.7,125.4,323.7,125.4,323.7z"/>
			<path fill="none" d="M37.7,320c-0.1-0.1-0.2-0.3-0.2-0.5c-0.1,0.2-0.3,0.3-0.4,0.5C37.3,320,37.5,320,37.7,320z"/>
			<path fill="none" d="M64.2,334c0.1-0.3,0.3-0.6,0.5-0.9c-0.5,0.1-0.9,0.1-1.4,0c-0.1,0.3-0.2,0.5-0.3,0.8
				c-0.1,0.2-0.2,0.3-0.3,0.5c0.5,0,1,0.1,1.5,0.3c0,0,0,0,0,0c0,0,0,0,0,0C64.1,334.5,64.1,334.2,64.2,334z"/>
			<path fill="none" d="M149.5,336.9c-1,0.5-2,0.9-3,1.3C147.5,337.9,148.6,337.5,149.5,336.9z"/>
			<path fill="none" d="M41.4,307.9c-0.5,0.1-1,0-1.6-0.2c0,0.1-0.1,0.3-0.2,0.4c0.4,0,0.7,0.2,1,0.5c0,0,0,0.1,0,0.1
				c0,0,0.2,0.1,0.3,0.2c0-0.3,0-0.5,0.2-0.8C41.3,308,41.3,308,41.4,307.9z"/>
			<path fill="none" d="M43.3,306.7c0.2,0,0.3-0.1,0.5-0.1c-0.1-0.1-0.1-0.3-0.2-0.4c-0.1,0.1-0.1,0.2-0.2,0.3
				C43.4,306.6,43.3,306.7,43.3,306.7z"/>
			<path fill="none" d="M144.8,318.2c-0.9,0.2-1.9,0.2-2.8,0.1c-0.2,2-1.5,4.4-2.4,5.4c-1.7,2-4.8,3.5-7.2,1.7
				c-0.3-0.2-0.5-0.5-0.7-0.7c-1,0.3-2,0.4-2.8,0.4c-0.2,0-0.3,0-0.5,0c0.3,0.4,0.4,0.9,0.4,1.4c0,0,0,0,0,0
				c2.2-0.6,4.5,0.3,6.7,0.8c0.1,0,0,0.2-0.1,0.3c0.4,0.3,0.6,0.7,0.7,1.2c0.7-0.2,1.5-0.1,2.3,0.1c-0.2-3.2,1.7-6.5,4.7-7.3
				c0.9-0.2,1.8-0.2,2.6-0.1C145,320.5,144.6,319.3,144.8,318.2z"/>
			<path fill="none" d="M149.1,315.8C149.1,315.8,149.1,315.8,149.1,315.8C149.1,315.8,149.1,315.8,149.1,315.8
				C149.1,315.8,149.1,315.8,149.1,315.8z"/>
			<path fill="none" d="M152.3,329.8c0-0.1-0.1-0.2-0.1-0.3c-0.2-0.7-0.2-1.3,0.1-1.7c-0.3-0.1-0.6-0.2-0.8-0.3
				c-0.1,0.9-0.5,1.7-1.2,2.4C151,329.6,151.7,329.6,152.3,329.8z"/>
			<path fill="none" d="M74.8,323.5c-0.1-0.2-0.2-0.4-0.2-0.6c0,0.1-0.1,0.2-0.1,0.3c-0.1,0.2-0.2,0.3-0.3,0.4
				C74.5,323.5,74.7,323.5,74.8,323.5z"/>
			<path fill="none" d="M149.9,316.3c0.7,0.5,1.2,1.2,1.7,1.9c0.3,0.4,0.6,0.7,0.9,0.9c0.8-0.2,1.6-0.2,2.4-0.3
				c-1-0.7-1.7-1.7-2.1-2.7c-0.4,0.2-0.9,0.4-1.4,0.4C150.7,316.6,150.3,316.5,149.9,316.3z"/>
			<path fill="none" d="M60.4,328c-1.2,0.7-2.9,1-4.1,1c-0.2,0-0.3,0-0.5,0c0.1,0.1,0.2,0.2,0.3,0.4c0.7-0.2,1.4-0.1,1.9,0.4
				c0,0,0,0.1,0,0.1c0,0.1,0.6,0.3,0.9,0.4c0.4-0.2,0.8-0.3,1.2-0.4C60.1,329.3,60.2,328.7,60.4,328z"/>
			<path fill="none" d="M56,320.2c0.2,0,0.4,0,0.7,0.1c-0.2-0.1-0.4-0.2-0.6-0.4C56,320,56,320.1,56,320.2z"/>
			<path fill="none" d="M72.2,324.2c-0.4,0-0.8-0.1-1.1-0.3c0.1,0.3,0.1,0.7,0,1.1C71.4,324.8,71.8,324.5,72.2,324.2z"/>
			<path fill="none" d="M55.8,311.9c0.4,0.9,0.5,1.8-0.4,2.7c-0.8,0.8-2,1.1-3.1,1c0.6,0.2,1.2,0.6,1.8,0.9c0-0.1,0-0.2,0.1-0.3
				c0.8-2.3,4.4-2.5,6.3-2.3c0.7,0.1,1.3,0.3,1.9,0.6c0-0.2,0-0.4,0-0.6c0.1-0.3,0.2-0.5,0.3-0.7c-0.4,0-0.8,0.1-1.2,0.1
				c-1.3,0.1-3.3,0-4.1-1.2c-0.2-0.3-0.3-0.7-0.3-1c-0.3,0.3-0.7,0.5-1.1,0.6C56,311.9,55.9,311.9,55.8,311.9z"/>
			<path fill="none" d="M64.5,323.3c-1.8-0.2-3.7-1.2-4.8-1.7c-0.1,0-0.2-0.1-0.3-0.1c1.5,1,2.6,2.4,2.6,3.9
				C62.8,324.6,63.6,323.9,64.5,323.3z"/>
			<path fill="none" d="M82.3,331.4c-0.2-0.9-0.1-1.8,0.2-2.7c-0.2,0-0.4,0-0.7-0.1c0.1,0.9-0.1,1.6-0.5,2.3
				C81.6,331.1,82,331.2,82.3,331.4z"/>
			<path fill="none" d="M53.4,328.2c-0.5-0.4-1-0.9-1.3-1.5c-0.5-0.9-1.1-2.3-1-3.4c-1.3,0.2-2.7,0.1-3.9-0.3c0,0.1,0,0.2-0.1,0.3
				c-0.1,0.2-0.2,0.3-0.3,0.5c0.7,0.1,1.4,0.3,2,0.6c1.3,0.9,4.4,2.1,2.1,3.7c-0.2,0.2-0.5,0.3-0.8,0.4c0.2,0.2,0.3,0.5,0.4,0.8
				c0,0,0.1,0,0.1,0c0.2,0.1,0.3,0.1,0.5,0.2C51.8,328.8,52.5,328.3,53.4,328.2z"/>
			<path fill="none" d="M43.2,325.3c-0.1,0.3-0.2,0.6-0.5,0.9c0.7,0.2,1.4,0.4,1.9,0.6c0.1,0,0.3,0.1,0.5,0.1
				C44.4,326.6,43.2,326,43.2,325.3z"/>
			<path fill="none" d="M40.9,323c-0.1-0.3-0.1-0.6-0.1-1c0,0-0.1,0-0.1,0c-0.2,0-0.4,0-0.6-0.1c0,0.3-0.1,0.6-0.2,0.8
				C40.2,322.8,40.5,322.9,40.9,323z"/>
			<path fill="none" d="M49.2,309.1c-0.4-0.1-0.8-0.3-1.1-0.5c-0.3,0.4-0.7,0.7-1.3,0.7c0.3,0.6,0.7,1.2,0.9,1.9
				c0.1-0.3,0.2-0.7,0.3-1C48.3,309.6,48.7,309.3,49.2,309.1z"/>
			<path fill="none" d="M86.4,335.8c0.1,0.3,0.2,0.6,0.2,0.9c0,0,0,0,0,0c0.1-0.3,0.3-0.6,0.5-0.8C86.9,335.9,86.6,335.8,86.4,335.8
				z"/>
			<path fill="none" d="M178.5,300.5c0,0.1,0,0.2,0,0.4c0.6-0.1,1.1-0.1,1.6-0.1c-0.2-0.3-0.3-0.6-0.4-1
				C179.4,300.1,179,300.4,178.5,300.5z"/>
			<path fill="none" d="M79.6,316.8c0.3,0.7,0.1,1.5-0.3,2.3c0,0,0,0,0,0.1c0,0,0.1,0,0.1,0.1c0.3,0.3,0.6,0.5,0.9,0.8
				c0.1-0.2,0.3-0.4,0.5-0.6c0.8-0.9,2-1.4,3.2-1.7c-0.7-0.1-1.4-0.2-1.8-0.3C81.8,317.4,80.6,317.2,79.6,316.8z"/>
			<path fill="none" d="M183.4,302.2c0.2,0.2,0.3,0.4,0.5,0.7c0.1-0.2,0.3-0.5,0.4-0.7C184,302.2,183.7,302.2,183.4,302.2z"/>
			<path fill="none" d="M109.9,342.8c-0.1,0.1-0.1,0.2-0.2,0.3c-0.2,0.3-0.5,0.6-0.8,0.8c0.7-0.4,1.6-0.5,2.4-0.5
				C110.8,343.3,110.3,343.1,109.9,342.8z"/>
			<path fill="none" d="M172.8,324.6C172.8,324.5,172.8,324.5,172.8,324.6c0.5-0.6,1.1-1.1,1.8-1.5c-0.8-0.3-2.1-0.8-3.2-1.4
				C172.1,322.6,172.6,323.6,172.8,324.6z"/>
			<path fill="none" d="M94.7,338.8c-0.1-0.2-0.2-0.4-0.2-0.6c-0.1,0-0.2,0-0.3,0c0.2,0.3,0.3,0.6,0.3,0.8
				C94.5,339,94.6,338.9,94.7,338.8z"/>
			<path fill="none" d="M123.8,321.6c-0.8,1.2-2.4,2-4,2.4c0.3,0.2,0.5,0.4,0.7,0.6c1-1.1,2.9-1.4,4.6-1.2c-0.1-0.2-0.3-0.4-0.4-0.6
				c-0.2-0.4-0.5-1-0.7-1.6C124,321.4,123.9,321.5,123.8,321.6z"/>
			<path fill="none" d="M121.8,342.7c-1.4-0.9-2.2-1.8-3.7-1.9c0.4,0.5,0.7,1.2,0.5,1.7c1,0.2,2.1,0.5,3.1,0.9
				C121.7,343.1,121.7,342.9,121.8,342.7z"/>
			<path fill="none" d="M183.2,305.2C183.2,305.2,183.2,305.2,183.2,305.2c-0.9,0.5-1.9,0.5-3,0.4c0.2,0.3,0.3,0.6,0.3,0.9
				c0.8-0.3,1.7-0.4,2.6-0.5C183.2,305.8,183.2,305.5,183.2,305.2z"/>
			<path fill="none" d="M175.2,310.2c-0.7-0.1-1.4-0.2-2.1-0.4c-0.1,0.2-0.2,0.4-0.3,0.6c0.4,0.2,0.8,0.5,1.1,1c0,0.1,0,0.1,0.1,0.2
				C174.2,310.9,174.6,310.5,175.2,310.2z"/>
			<path fill="none" d="M174.8,303.9C174.8,303.9,174.8,303.9,174.8,303.9C174.8,304,174.8,304,174.8,303.9
				C174.8,303.9,174.8,303.9,174.8,303.9z"/>
			<path fill="none" d="M169.2,317.5c-0.8,0.8-1.9,1.3-3,1.6c0.8,0.2,1.7,0.4,2.5,0.7c0.1,0,0.1-0.1,0.2,0c0.1,0,0.3,0.1,0.4,0.2
				c-0.4-0.6-0.5-1.3-0.2-2.1C169.1,317.7,169.1,317.6,169.2,317.5z"/>
			<path fill="none" d="M180.9,312.1c0.4,0.4,0.7,0.9,0.9,1.4c0.6-0.6,1.2-1.2,1.8-1.6C182.7,312,181.7,312.1,180.9,312.1z"/>
			<path fill="none" d="M169.9,316.6c1.4-1.2,3.9-1.3,5.5-1.1c1.6,0.2,2.8,0.9,3.9,1.8c0.1-0.3,0.2-0.6,0.4-0.9
				c-0.7,0-1.5-0.2-2.2-0.5c-1-0.4-2.5-1.3-3.2-2.4c0,0.2-0.1,0.4-0.2,0.5c-0.6,1.3-2.1,1.5-3.4,1.3c-0.1,0-0.2,0-0.4-0.1
				C170.2,315.7,170.1,316.1,169.9,316.6z"/>
			<path fill="none" d="M126.1,329.9c0-0.1,0-0.3,0-0.4c-0.3,0.1-0.5,0.1-0.8,0.1C125.6,329.7,125.8,329.8,126.1,329.9z"/>
			<path fill="none" d="M164.5,310.2C164.5,310.3,164.5,310.3,164.5,310.2C164.5,310.3,164.5,310.3,164.5,310.2
				C164.5,310.3,164.5,310.3,164.5,310.2z"/>
			<path fill="none" d="M167.9,305.9c0.1,0,0.1,0,0.2,0c0-0.1,0-0.1,0-0.2C168,305.8,168,305.9,167.9,305.9z"/>
			<path fill="none" d="M165.2,307.5c0.1-0.2,0.3-0.4,0.5-0.6c-0.3,0-0.6-0.1-0.9-0.3C165,306.8,165.2,307.1,165.2,307.5z"/>
			<path fill="none" d="M160.5,303.5c0.3,0.1,0.6,0.1,0.9,0.2C161.1,303.5,160.8,303.5,160.5,303.5z"/>
			<path fill="none" d="M124.5,334.5c0.2,0.2,0.4,0.4,0.6,0.6c0.1-0.1,0.1-0.3,0.2-0.4C125.1,334.6,124.8,334.5,124.5,334.5z"/>
			<path fill="#6D777A" d="M114.4,330.7c-0.2,0-0.3,0-0.5-0.1c0.6,0.8,0.7,1.6,0.5,2.4c1.4-0.5,2.9-0.5,4.4-0.3c0,0,0-0.1,0-0.1
				c-0.2-0.1-0.3-0.3-0.4-0.5c-0.3-0.7-0.3-1.2,0-1.7c0,0-0.1,0-0.1,0C117,330.7,115.8,330.8,114.4,330.7z"/>
			<path fill="#828079" d="M111,336.3C111,336.3,111,336.3,111,336.3c-0.3,0.2-0.6,0.3-0.9,0.4c0.7,1.1,0.9,2.2,0.2,3.3
				c0,0,0.1,0,0.1,0c0.4-0.3,1-0.6,1.6-0.8C111.3,338.5,110.9,337.4,111,336.3z"/>
			<path fill="#AD9383" d="M100.4,326.7c0.3-0.4,0.6-0.8,0.7-1.3c0.1-0.5,0-1.3-0.4-1.7c-1.2-1.1-3.2-0.9-4.7-0.3
				c-0.1,0.7-0.4,1.3-1.2,1.9c-0.6,0.5-1.2,0.9-1.9,1.2c0,0.5,0.1,0.9,0.6,1.3c0.8,0.8,2.1,0.7,3.1,0.5c0.6-0.1,1.3-0.3,1.9-0.5
				c0.3-0.2,0.6-0.4,0.8-0.5C99.7,327.1,100,326.9,100.4,326.7z"/>
			<path fill="#8F8E8D" d="M98.2,342.9c0.3-0.2,0.5-0.4,0.8-0.6c0-0.1,0.1-0.2,0.1-0.3c-1.6-0.6-3.3-1.5-4.1-2.7
				c-0.1,0.2-0.3,0.4-0.4,0.6c0,0.4-0.2,0.7-0.5,1.1c-0.1,0.1-0.1,0.1-0.2,0.2c-0.2,0.4-0.3,0.8-0.3,1.1c0,0,0,0.1-0.1,0.1
				c0,0.3,0.1,0.5,0.2,0.7c0.1-0.1,0.1-0.1,0.1-0.2C94.9,341.7,96.8,342.1,98.2,342.9z"/>
			<path fill="#B7BCC0" d="M80.6,337.6c1.5-0.5,3.5-0.1,5.2,0.4c0-1.2-0.3-2.2-1-3.2c-0.7-0.5-1.3-1.1-1.7-1.7
				c-0.7-0.6-1.5-1.2-2.3-1.6c-0.8,1-1.9,1.8-3.1,2.4c-0.1,0.4-0.2,0.9-0.2,1.3C78.7,335.8,79.9,336.6,80.6,337.6z"/>
			<path fill="#BFA58A" d="M66.1,331.6c1.4-0.6,2.2-1.2,2.8-2.2c0.1-0.9,0.4-1.8,0.9-2.6c0.3-1.5,0.3-3.4-1.1-3.9
				c-0.5-0.1-1.1,0-1.6,0.1c-0.5,0.4-1.1,0.5-1.8,0.5c-1.8,0.8-3.4,2.3-3.9,4.1c-0.2,0.8-0.3,1.8,0,2.6c0.4,0.1,0.7,0.2,1,0.5
				c0.6,0.4,0.9,1,1,1.6C64.2,332.3,65.1,332.1,66.1,331.6z"/>
			<path fill="#514E4E" d="M62.5,312.9c0.2,0,0.5,0,0.8-0.1c0.4-0.3,0.9-0.4,1.4-0.3c0.3-0.1,0.6-0.2,0.9-0.4c1.8-1.3-1.2-2.7-2.3-3
				c-1.5-0.5-3.8-1.5-5-0.4c0,0.7-0.3,1.3-0.7,1.9C57.7,313,60.7,313.1,62.5,312.9z"/>
			<path fill="#B7BCC0" d="M67.1,314.7c-0.2,0.3-0.5,0.6-0.8,0.8c0.2,0.6,0.4,1.1,0.8,1.4c1.4,1.4,3.6,0.2,5.2-0.2
				c0.4-0.1,0.9-0.2,1.3-0.4c0.8-0.8,1.6-1.7,2.3-2.5c-0.1-0.2-0.3-0.4-0.4-0.5c-0.3-0.3-0.9-0.4-1.3-0.7c-1.8-0.6-4.3-1.7-6.2-1.2
				c-0.9,0.2-1.5,0.9-1.7,1.8C67,313.5,67.5,314,67.1,314.7z"/>
			<path fill="#5C5550" d="M76.7,314.3c0.1,0.6,0.7,0.7,1.2,0.6c0.4-0.1,1.3-0.5,1.3-1c-0.1-0.4-0.5-0.5-0.8-0.7
				c-0.3-0.4-0.8-0.7-1.3-0.3C76.8,313.2,76.6,313.9,76.7,314.3z"/>
			<path fill="#636362" d="M93.6,319.4c0.7,0.3,1.4,0.4,1.9,0.3c2.1-0.7-1.5-2.4-2.2-2.8c-0.8-0.3-1.6-0.7-2.5-0.7
				c-0.2,0-1.7,0-1.8,0.4c-0.1,0.3,0.8,0.8,1.4,1.2C91.4,318.1,92.6,318.7,93.6,319.4z"/>
			<path fill="#AA9080" d="M62.7,314.3c0,0.2,0.1,0.3,0.1,0.5c0.5,0.3,1,0.6,1.4,1c0.3,0.1,0.7,0.1,1,0c0.8-0.1,2.4-1.1,1.5-2
				c-0.5-0.5-1.3-0.7-2-0.9c-0.3-0.1-0.8-0.2-1.1,0C63.2,313.1,62.6,313.8,62.7,314.3z"/>
			<path fill="#AD9383" d="M59.9,327.7c1-0.6,0.9-0.7,1.2-2c0.3-1.5,0.4-1.4-0.5-2.3c-1.3-1.3-2.9-2.6-4.8-2.6
				c-0.4,0.8-1.2,1.6-2.3,2c-0.6,0.2-1.2,0.4-1.8,0.5c0,0.4,0,0.8,0.1,1.2c0.5,2.3,2.3,4.1,4.7,3.8
				C57.7,328.4,58.8,328.4,59.9,327.7z"/>
			<path fill="#6D6359" d="M54.6,321.4c0.5-0.7,0.7-1.3,0.7-1.9c-0.8-0.6-1.3-1.4-1.3-2.3c-0.2-0.2-0.4-0.4-0.7-0.5
				c-2-1.4-5.2-1.7-7,0.2c0.2,1,0.1,2.1-0.5,2.9c0.4,0.2,0.8,0.5,1.1,1c0.4,0.7,0.5,1.4,0.4,2.1C49.5,323.6,53.2,323.3,54.6,321.4z"
				/>
			<path fill="#8F8E8D" d="M66.7,319c-1.5-2-4.1-4.2-6.6-4.5c-2.2-0.3-7.5,0.6-5,3.9c1.1,1.5,3.2,2.2,4.9,2.8c0,0,0,0,0,0
				c0,0,0,0,0,0c1.6,0.8,2.9,1.5,4.7,1.6C67,322.9,68,320.7,66.7,319z"/>
			<path fill="#B7BCC0" d="M79.6,320.3c-0.2-0.2-0.5-0.4-0.7-0.6c-0.4,0.5-1,0.9-1.6,1c-0.7,0.1-1.3-0.1-1.9-0.5
				c-0.1,0.2-0.1,0.3-0.2,0.5c-0.2,0.9,0,1.8,0.5,2.7c2.2,0.2,4.2,1.3,5.5,3.4c0.2,0.4,0.4,0.8,0.5,1.1c0.3,0.1,0.7,0.1,1,0.1
				c0.3-0.7,0.7-1.3,1.2-1.7c0.1-0.1,0.1-0.1,0.2-0.1c0,0,0,0,0,0c-2.6-0.9-5.5-3-4.3-5.6C79.8,320.6,79.7,320.5,79.6,320.3z"/>
			<path fill="#969692" d="M80.4,331.6c1.6-2.4-0.3-4.8-2.1-6.2c-1.6-1.2-3.1-1.5-5.1-1.1c-0.1,0-0.1,0-0.2,0c-3.4,1-4,6.3-2.6,9
				c0.1,0.3,0.3,0.5,0.5,0.7c1.5,0,3.1,0.4,4.7,0.8C77.6,334.2,79.5,332.9,80.4,331.6z"/>
			<path fill="#D6CDC2" d="M50.8,309.5c-0.7,0-1.7,0-2.2,0.5c-0.2,0.9-0.4,1.8-0.6,2.7c0.1,0.3,0.3,0.6,0.5,0.8
				c0.3,0.4,0.7,0.7,1.2,1c1,0.4,2.2,0.6,3.3,0.6c0.6,0,1.1,0,1.7-0.3c0.6-0.3,1.3-1.3,1.3-1.9c0-0.2-0.2-0.5-0.4-0.8
				c-1.4,0.2-3-0.5-4.1-1.4c-0.3-0.3-0.4-0.7-0.4-1.1C50.9,309.5,50.8,309.5,50.8,309.5z"/>
			<path fill="#B7BCC0" d="M95.6,333.2c-1.1,0.3-2.1,1.4-2.5,2.5c-0.3,0.9,0,1.7,1,1.9c0.1,0,0.2,0,0.3,0.1c0-0.8,0.3-1.7,1.2-2.6
				c0.3-0.3,0.7-0.6,1.1-0.9c-0.3-0.1-0.5-0.2-0.7-0.4C95.8,333.6,95.7,333.4,95.6,333.2z"/>
			<path fill="#D6CDC2" d="M97,329C97,329,97,329,97,329C97,329,97,328.9,97,329C97.1,328.9,97,328.9,97,329z"/>
			<path fill="#D6CDC2" d="M100.2,327c-1.6,0.9-4,2.3-4.2,4.3c-0.1,1.1,0.2,2,1.3,2.5c0.1,0,0.2,0.1,0.2,0.1
				c1.2-0.5,2.7-0.8,4.1-0.8c0.2-0.1,0.4-0.2,0.6-0.3c0.5-0.5,1.3-0.9,2-1.1c0.2-0.2,0.5-0.3,0.7-0.4c1.3-0.8,2.4-1.7,2.2-3
				c-0.2-0.2-0.3-0.4-0.5-0.7c-0.2-0.3-0.3-0.6-0.4-0.9C104.6,325.1,102.1,325.9,100.2,327z"/>
			<path fill="#020000" d="M102,333.1c0.1-0.1,0.1-0.2,0.2-0.2c-0.2,0.1-0.3,0.2-0.5,0.2C101.8,333,101.9,333.1,102,333.1z"/>
			<path fill="#020000" d="M105,331.2c-0.2,0.1-0.4,0.3-0.7,0.4c0.2-0.1,0.5-0.1,0.7-0.2c1.2-0.7,2.4-1.5,2.8-2.7
				c-0.2-0.2-0.4-0.4-0.6-0.6C107.3,329.5,106.2,330.4,105,331.2z"/>
			<path fill="#020000" d="M96.9,329c-1.2,1.1-2.1,2.5-1.6,3.8c0.1,0.1,0.1,0.2,0.2,0.4c0.1,0.2,0.3,0.4,0.5,0.6
				c0.2,0.2,0.4,0.3,0.7,0.4c0.3-0.2,0.5-0.3,0.8-0.4c-0.1,0-0.2,0-0.2-0.1c-1-0.5-1.4-1.4-1.3-2.5c0.2-2,2.5-3.4,4.2-4.3
				c1.9-1,4.4-1.9,6.1-0.4c-0.1-0.3-0.1-0.6-0.2-1c-0.3-0.1-0.6-0.2-0.9-0.3c-0.7,0.3-1.4,0.5-2.2,0.4c-0.1,0-0.2-0.1-0.3-0.1
				c-0.5,0.2-1,0.4-1.5,0.6c-0.3,0.2-0.6,0.3-1,0.5c-0.4,0.2-0.7,0.4-1,0.6c-0.2,0.1-0.5,0.3-0.8,0.5c-0.5,0.3-0.9,0.7-1.4,1.1
				c0,0,0,0,0,0C97,328.9,97,329,96.9,329z"/>
			<path fill="#9F8D84" d="M93.7,340.1c0.3-0.8,0-1.4-0.5-2.1c-0.7-0.8-1.4-1.6-2.2-2.3c-0.1,0-0.2,0.1-0.4,0.1
				c-0.6,0-1.1-0.1-1.6-0.3c-1.4,0.4-2.2,1.7-1.6,3.1c0.1,0,0.2,0.1,0.4,0.1c0,0,0,0,0,0c0,0,0,0,0,0c0.9,0.6,1.8,0.7,1.7,1.9
				c0.4,0.2,0.8,0.4,1.2,0.7c0.1,0,0.1,0,0.2,0.1C92.2,341.7,93.2,341.3,93.7,340.1z"/>
			<path fill="#CFBDA7" d="M51.7,309.8c0,0.6,0.5,0.9,1,1.2c1.7,1,3.8,0.7,4.6-1.2c0.4-1,0.3-2-0.3-2.8c-0.7-0.6-2.5-1-3.3-0.7
				c-0.2,0.1-0.4,0.2-0.6,0.4c-0.5,0.4-0.7,1-0.9,1.6C52,308.7,51.7,309.3,51.7,309.8z"/>
			<path fill="#BDA388" d="M48.3,305.6c0,0.1,0.1,0.2,0.1,0.4c0.2,0.6,0.2,1.4,0,2.1c0.2,0.2,0.4,0.4,0.6,0.5
				c0.8,0.5,1.6,0.4,2.2-0.4c0.6-0.8,0.7-1.4,0.5-2.4c-0.3-0.9-1.7-0.9-2.5-0.8C48.7,305.1,48.5,305.3,48.3,305.6z"/>
			<path fill="#42403F" d="M43.4,316.8c0.3,0.7,0.4,1.5,0.3,2.3c0.2,0,0.4,0,0.5,0c0,0,0,0,0,0c0.5,0.1,0.9,0.2,1.4,0.4
				c0.6-0.7,0.4-2.2,0.2-2.9c-0.1-0.1-0.2-0.2-0.3-0.2C44.8,316.6,44.1,316.8,43.4,316.8z"/>
			<path fill="#968B82" d="M46.3,323.8c0.6-0.5,0.6-1.3,0.3-2c-0.5-1.3-1.4-1.6-2.6-1.9c0,0-0.1,0-0.1,0c-0.2-0.1-0.3-0.1-0.5-0.1
				c-0.4,0.9-1,1.8-2,2.1c0,0.2-0.1,0.4,0,0.5c0.1,0.5,0.4,0.8,0.8,1.1c0.1,0.1,0.2,0.1,0.3,0.2c0.5,0.3,1.2,0.5,1.8,0.5
				C44.9,323.8,45.6,323.7,46.3,323.8z"/>
			<path fill="#A88E82" d="M38.5,319.8c0.1,0.1,0.3,0.3,0.4,0.4c0.5,0.2,0.8,0.4,1,0.9c0.8,0.5,1.6,0.3,2.2-0.3
				c0.5-0.4,0.6-0.7,0.9-1.3c0.2-1.1,0-2-0.8-2.8c-0.2-0.1-0.4-0.1-0.5-0.3c-0.1-0.1-0.2-0.2-0.3-0.3c-1.2-0.6-2.5,0-3.1,1.4
				c0,0.3-0.1,0.7-0.3,1.1C38,319,38.2,319.4,38.5,319.8z"/>
			<path fill="#6D777A" d="M44.6,316.4c1.8-0.6,3.1-2.4,2.9-4.3c-0.1-1.1-0.6-2-1.2-3c-1-0.3-1.9-1.3-2.4-2.3
				c-0.4,0.1-0.8,0.2-1.1,0.4c-0.1,0.1-0.2,0.1-0.2,0.2c-0.6,0.5-0.9,1.1-0.9,1.8c0,0,0.1,0,0.1,0c0.4,0.3,0.7,0.7,0.8,1.2
				c0.1,0.3,0.1,0.5,0.1,0.8c0.1,0.1,0.1,0.3,0.1,0.4c0.1,1-0.8,1.8-1,2.8C41.3,316.3,42.8,317,44.6,316.4z"/>
			<path fill="#8D847A" d="M40,306.7c0.1,0.1,0.2,0.1,0.2,0.2c1.3,0.9,2.6,0.3,2.9-1.2c0.2-0.8,0.1-1.8-0.7-2.3
				c-1.1-0.6-2.3-1.3-3.2,0.1c-0.3,0.4-0.4,0.8-0.4,1.2c0.2,0.1,0.4,0.3,0.5,0.4C39.8,305.6,40,306.1,40,306.7z"/>
			<path fill="#B7BCC0" d="M43.7,306.1c0.4,1,1.5,2.4,2.6,2.6c2,0.4,2.2-2.1,1.5-3.4c-0.5-0.9-1.3-1.5-2.2-1.9
				C44,302.8,43.2,304.8,43.7,306.1z"/>
			<path fill="#B7BCC0" d="M41.9,310.6c-0.3-0.7-0.7-0.8-1.3-1.1c-0.1-0.1-0.4-0.1-0.4-0.3c0,0,0,0,0,0c-0.3-0.3-0.6-0.4-0.9-0.5
				c-0.4,0.6-1,1-1.8,1.2c-0.1,0-0.1,0-0.2,0c0.4,0.3,0.7,0.6,0.8,1c0.2,0.7-0.2,1.3-0.6,1.9c-0.3,0.3-0.7,0.6-1.1,0.9
				c0.4,0.6,1,1,2,1C40.6,314.9,42.9,312.8,41.9,310.6z"/>
			<path fill="#393736" d="M36.9,319.7c0.8-0.7,1.2-2.2,0.6-3.1c-0.6-0.9-1.6-1.1-2.5-0.8C32.1,316.7,35,321.2,36.9,319.7z"/>
			<path fill="#B7BCC0" d="M93.3,333.1c0.7-1.7-0.1-5-1.9-6.1c-0.5,0.1-1.1,0.2-1.6,0.2c-0.6,0.4-0.9,1.1-1.2,1.8
				c0.9,1.8,1.3,4,0.7,5.5c0.3,0.3,0.7,0.5,1.1,0.6C90.9,335.2,93.1,333.6,93.3,333.1z"/>
			<path fill="#110905" d="M90.9,335.7c0.2,0,0.4-0.1,0.6-0.1c1.5-0.6,2.7-2.2,2.8-3.7c0.1-0.9,0-2-0.3-3c-0.1-0.2-0.2-0.5-0.3-0.7
				c-0.3-0.5-0.7-1.1-1.3-1.6c-0.4,0.1-0.7,0.2-1.1,0.3c1.8,1.1,2.6,4.4,1.9,6.1c-0.2,0.6-2.4,2.1-3,2c-0.4,0-0.8-0.3-1.1-0.6
				c-0.1,0.3-0.3,0.6-0.5,0.8c0.1,0.1,0.2,0.1,0.3,0.2c0.4,0.2,0.9,0.3,1.6,0.3C90.7,335.8,90.8,335.8,90.9,335.7z"/>
			<path fill="#110905" d="M89.7,327.2c-0.3,0-0.6,0-0.8,0c-0.3,0.3-0.6,0.6-0.8,1c0.2,0.3,0.3,0.5,0.4,0.8
				C88.8,328.3,89.2,327.6,89.7,327.2z"/>
			<path fill="#504D4C" d="M84.2,326.7c-1.2,1.1-1.4,4.1-0.6,5.4c0.5,0.8,1.2,1.5,2,2.1c0.4,0.3,2,1.5,2.6,1.1
				c1-0.6,0.3-3.2,0.1-4.1c-0.1-0.5-0.3-1-0.6-1.4C87.2,328.7,85.7,326.3,84.2,326.7z"/>
			<path fill="#B7BCC0" d="M101.8,323.1c0,0.8,1.2,1.9,1.9,2.1c1.3,0.4,3.3-0.7,3-2.2c-0.2-0.9-1.1-1.3-1.9-1.7
				C103.5,320.8,101.9,321.5,101.8,323.1z"/>
			<path fill="#B7BCC0" d="M98.2,322.1c0.4,0.1,0.8,0.3,1.2,0.3c0.9,0.1,2.1-0.6,1.9-1.6c-0.1-0.7-0.7-1.2-1.3-1.6
				c-1.2-0.6-2.6-0.4-3.5,0.7C96,321,97.4,321.8,98.2,322.1z"/>
			<path fill="#B7BCC0" d="M105.2,333.5c1.5,0.4,3.5,1.5,4.6,3c0.4-0.2,0.9-0.4,1.3-0.6c0.1-0.5,0.4-0.9,0.8-1.3
				c0.5-0.5,1-0.8,1.6-1.1c0.3-0.8,0.1-1.8-0.8-2.7c-0.1,0-0.2,0.1-0.2,0c-0.5-0.3-1-0.4-1.5-0.6c-0.1,0-0.2,0-0.3,0.1
				c0,0-0.1,0-0.1,0c-0.8,0.3-1.5,1.1-2.4,1.4c-1.2,0.5-2.5,0-3.7,0.4c-0.8,0.2-1.4,0.6-1.7,1.1
				C103.7,333.1,104.5,333.3,105.2,333.5z"/>
			<path fill="#8D847A" d="M107,325.7c0.1,2.4,2.5,3.1,4.5,3.7c0.7-0.1,1.4,0.3,2.1,0.4c1.5,0.3,3.1,0.2,4.6,0
				c1.1-0.2,2.2-0.7,2.5-1.8c-0.3-0.4-0.6-0.8-0.7-1.3c-0.1-0.4,0-0.8,0.1-1.1c-0.1-0.1-0.2-0.2-0.2-0.3c-0.3-0.4-0.7-0.7-1.1-0.9
				c-0.7,0.1-1.3,0.1-1.9-0.1c-0.8-0.2-1.3-0.6-1.6-1.1c-0.9-0.3-1.9-0.5-2.8-0.7C110.2,322.2,106.9,322.9,107,325.7z"/>
			<path fill="#BFADA1" d="M125,335.8c-0.3-0.5-0.7-1-1.3-1.3c-3.1-1.1-5.9-2-9.3-0.8c-0.6,0.2-1.4,0.4-1.8,0.8
				c-1.8,1.5-1,3.2-0.1,4.5c0.1,0.1,0.1,0.1,0.2,0.2c1.2-0.2,2.5-0.2,3.5,0c0.5,0.2,1.1,0.5,1.6,0.9c1.6-0.1,2.5,0.7,4,1.5
				c0.2,0.1,0.4,0.2,0.7,0.3c1-1.1,2.8-1.6,4.5-1.6c0-0.7-0.2-1.5-0.5-2.1C125.4,337.7,124.9,336.8,125,335.8z"/>
			<path fill="#504D4C" d="M127.9,332c-0.7-0.4-1.2-0.8-1.5-1.4c-1.3-0.6-3.1-0.9-4.4-1.2c-1-0.3-1.8,0-2.3,1c-1,0.4-1.3,1-0.6,1.7
				c0.3,0.3,0.8,0.5,1.2,0.6c0.9,0.4,1.9,0.5,2.9,0.8c0.8,0.2,1.7,0.6,2.5,0.7c0.1-0.1,0.2-0.2,0.3-0.4c0.5-0.7,1.3-1.1,2.1-1.5
				C127.9,332.2,127.9,332.1,127.9,332z"/>
			<path fill="#B7BCC0" d="M125.4,323.8c-0.1,0-0.3,0-0.4-0.1c-2.1-0.2-4.6,0.8-4.3,3c0.6,2.2,3.4,3,5.4,2.3
				c0.1-0.6,0.5-1.1,1.1-1.6c0.2-0.2,0.5-0.3,0.7-0.5c0-0.1,0.1-0.2,0.1-0.3c0.1-0.7-0.1-1.2-0.4-1.6
				C126.8,324.8,126,324.4,125.4,323.8z"/>
			<path fill="#9F8D84" d="M126.9,330.3c0.2,0.5,0.7,0.9,1.1,1.1c0.4,0.2,0.8,0.4,1.2,0.5c1.3-0.3,2.8-0.3,4,0
				c0.3-0.1,0.6-0.2,0.8-0.3c0.1-0.8,0.4-1.6,1-2.2c0.1-0.2,0.3-0.3,0.5-0.4c-0.2-0.7-0.7-1.2-1.4-1.4c0,0,0,0,0,0
				c-1-0.3-2-0.7-3.1-0.7C129.6,326.7,125.3,327,126.9,330.3z"/>
			<path fill="#AD9383" d="M135.3,335.6c-0.1-0.1-0.1-0.1-0.2-0.2c-0.6-0.8-1-2-1-3.1c-0.2-0.1-0.3-0.1-0.5-0.2
				c-2.8-0.8-6.9,0.1-7.8,3.2c-0.8,2.6,1.6,3.2,3.9,3c0.9-1,2.3-1.2,3.8-1.2C134.2,336.8,134.9,336.3,135.3,335.6z"/>
			<path fill="#AD9383" d="M38.3,328.2c0.1-0.4,0.3-0.8,0.5-1.1c0.8-1.2,2-1.3,3.3-1.1c0.4-0.5,0.6-1,0.4-1.6
				c-0.2-0.8-1-1.1-1.7-1.3c-0.3-0.1-0.6-0.1-1-0.2c0,0.1-0.1,0.1-0.1,0.2c-0.4,0.7-0.8,1.2-1.6,1.3c-0.8,0.1-1.7-0.1-2.4-0.5
				c-0.6,0.5-1.1,1.1-1.3,1.8C33.7,328.2,36.3,328.5,38.3,328.2z"/>
			<path fill="#CFBDA7" d="M132.1,337.8c-1.4,0.2-3.4,1.2-2.9,3.1c0.6,0.4,1.3,1,1.6,1.6c1.3,0.5,2.9,0.5,4,0.5c0.7,0,1.3,0,2-0.3
				c1.1-0.6,2.1-2.5,1.2-3.5c-0.7-0.8-2-1.2-3-1.3C134,337.8,133.1,337.7,132.1,337.8z"/>
			<path fill="#828079" d="M128.1,340.9c-1.1-0.3-2.7-0.3-3.8,0.1c-1,0.4-2.6,1.4-1.6,2.6c0.8,0.9,2.5,1,3.5,1.1
				c0.9,0.1,2.1,0.3,3.1,0.1C132.2,344.4,129.6,341.4,128.1,340.9z"/>
			<path fill="#6D777A" d="M138.5,329.6c-0.3-0.1-0.6-0.2-0.8-0.3c-1-0.2-1.4-0.3-2.2,0.5c-1.2,1.3-1.1,3.4-0.1,4.8
				c0.3,0.5,0.8,1.1,1.2,1.4c0.5,0.4,1,0.4,1.5,0.3c-0.1-1.2,0.2-2.5,1-3.3c0.2-0.2,0.4-0.4,0.7-0.5
				C139,331.8,138.6,330.7,138.5,329.6z"/>
			<path fill="#6D6359" d="M80.7,322.2c0.5,2,3.1,3,4.8,3.6c2.6,0.8,10.7,1.9,8.9-3.4c-0.7-2.2-2.9-3.3-5-3.8
				C87.2,318,79.6,317.8,80.7,322.2z"/>
			<path fill="#514E4E" d="M73.7,318.4c-1.1-0.5-2.4-0.4-3.4,0.4c-1.6,1.2-1.8,3.7,0.3,4.6c0.8,0.3,1.8,0.4,2.6,0.1
				c0.7-0.2,0.8-0.7,1.1-1.3c0.3-0.8,0.4-1.5,0.2-2.3C74.1,319.5,73.8,319,73.7,318.4z"/>
			<path fill="#9F8D84" d="M78.6,316c-0.9-0.5-2.1-0.5-3-0.1c-1.1,0.6-2.6,2.5-1,3.5c1,0.6,2,1.2,3.2,0.5c1-0.5,2.3-2.3,1.6-3.4
				C79,316.5,78.7,316.3,78.6,316z"/>
			<path fill="#CFBDA7" d="M79,315.3c-0.5,0.7,0.5,0.9,1.2,1.1c0.8,0.3,1.5,0.5,2.3,0.6c0.8,0.2,5.2,0.6,3.5-1.3
				c-0.6-0.6-1.5-0.8-2.1-1.3C82.7,313.9,79.8,314.1,79,315.3z"/>
			<path fill="#6D6359" d="M109.2,337.9c-0.7-2.2-2.9-3.3-5-3.8c-2.2-0.6-9.9-0.8-8.8,3.6c0.4,1.7,2.4,2.7,4.1,3.3
				c0,0,0.1-0.1,0.1-0.1c1.7-2.2,5.7-2.4,8.3-1.7c0,0,0,0,0.1,0c0,0,0,0,0,0c0.5,0.2,1,0.4,1.4,0.7
				C109.5,339.3,109.5,338.7,109.2,337.9z"/>
			<path fill="#969692" d="M149.7,329.9c0.1-0.1,0.2-0.3,0.3-0.4c0.6-0.8,0.7-1.7,0.5-2.5c-1.6-0.9-3-2.1-3-3.6
				c-0.4-0.3-0.8-0.7-1.1-1c-1.2-0.5-2.4-0.5-3.8-0.2c-3.4,1-4,6.3-2.6,9c0.3,0.5,0.6,0.9,1,1.2c0.7,0,1.5,0.3,2.1,0.6
				c0.4,0,0.8,0,1.2-0.1c0.6-0.5,1.3-1,1.8-1.2C147.2,331,148.4,330.3,149.7,329.9z"/>
			<path fill="#6D777A" d="M143.4,333.8c-0.6-0.4-1.2-0.7-1.9-0.8c-1-0.2-1.4-0.3-2.2,0.5c-1.2,1.3-1.1,3.4-0.1,4.8
				c0.3,0.5,0.8,1.1,1.2,1.4c1.2,0.9,2.4,0,3.1-1.1c-0.3-0.1-0.5-0.3-0.8-0.5C141.3,336.7,142.1,335.1,143.4,333.8z"/>
			<path fill="#828079" d="M187.3,318.7c-0.7-0.2-1.5-0.3-2.4-0.2c-0.2,0.1-0.3,0.3-0.5,0.4c-0.8,0.6-1.6,1-2.4,1.2
				c0.4,0.6,0.8,1.3,0.9,1.9c0.8,0.3,1.8,0.4,2.5,0.4c0.9,0.1,2.1,0.3,3.1,0.1C191.5,322.2,188.8,319.2,187.3,318.7z"/>
			<path fill="#AD9383" d="M116.1,323c0.8,0.8,2.1,0.7,3.1,0.5c1.6-0.3,4.2-1,4.4-3c0.1-0.5,0-1.3-0.4-1.7c-1.5-1.3-4.3-0.7-5.8,0.3
				C116.1,319.9,114.7,321.7,116.1,323z"/>
			<path fill="#8F8E8D" d="M185.9,310.9c-0.3,0.2-0.6,0.3-0.9,0.5c-0.5,0.3-0.9,0.6-1.1,0.8c-0.6,0.5-1.3,1.1-1.9,1.8
				c0.1,0.6,0,1.1-0.4,1.7c-0.4,0.5-0.8,0.7-1.3,0.8c-0.2,0.5-0.4,0.9-0.4,1.4c0.5,0.4,0.9,0.9,1.4,1.3c0.1,0.1,0.2,0.2,0.3,0.3
				c0.3,0,0.5,0,0.7,0c1.7-0.1,3.6-1.8,4.4-3.2c0.8-1.3,1.1-3,1.4-4.4c0.1-0.3,0.1-0.5,0-0.7c-0.4-0.1-0.9-0.3-1.3-0.5
				C186.4,310.6,186.1,310.7,185.9,310.9z"/>
			<path fill="#B7BCC0" d="M155,312.6c-0.1,1.1-0.7,2.2-1.6,3c0.3,1,0.9,1.7,1.8,2.4c0.5,0.4,1,0.7,1.5,1c0.6,0.1,1.1,0.2,1.6,0.3
				c0.2,0.1,0.4,0.1,0.7,0.2c0.7-0.4,1.5-0.6,2.3-0.8c-0.8-0.6-1.2-1.6-0.7-2.8c-0.1,0-0.2,0-0.2-0.1c-2.1-0.8-3-2.8-1.6-4.3
				c-0.9-0.7-1.8-1.5-2.9-1.7c-0.4,0-0.8,0.2-1.1,0.4C155.1,311,155.1,311.8,155,312.6z"/>
			<path fill="#BFA58A" d="M132.9,324.1c0.1,0.1,0.1,0.2,0.2,0.3c1.3,1.3,2.4,0.9,3.9,0.3c1.8-0.8,2.7-1.7,3.3-3.5
				c0.2-0.5,0.4-1.2,0.4-2c-1.5,0.8-3.7,0.3-5.1-0.2c-0.1,0-0.1-0.1-0.2-0.1c-0.2,0.5-0.7,0.7-1.4,0.8c0.4,0.7,0.6,1.4,0.6,2.1
				C134.6,322.8,133.9,323.6,132.9,324.1z"/>
			<path fill="#514E4E" d="M43.5,331c0.3,0,0.8-0.1,1.2-0.1c-0.1-0.9,0.2-1.8,1-2.5c0.1-0.1,0.2-0.2,0.3-0.3
				c-0.6-0.4-1.3-0.7-1.7-0.8c-1.9-0.6-5.1-2.1-5.6,1C38.2,331,41.6,331.2,43.5,331z"/>
			<path fill="#B7BCC0" d="M83.2,344.3c-0.2-0.3-0.3-0.6-0.4-0.9c-0.3-2.7,3.1-3.7,5.8-3.1c0-0.1-0.1-0.1-0.1-0.2
				c-0.3-0.3-0.9-0.4-1.3-0.7c-1.8-0.6-4.3-1.7-6.2-1.2c0.4,0.9,0.4,1.9-0.2,2.9c-0.4,0.6-1,1-1.6,1.2c0.2,0.6,0.4,1.1,0.8,1.5
				C80.8,344.8,82,344.6,83.2,344.3z"/>
			<path fill="#5C5550" d="M90.6,346c-0.1-0.1-0.2-0.2-0.3-0.3c-0.4,0.2-0.8,0.4-1.3,0.5c-0.1,0.3-0.2,0.6-0.1,0.9
				c0.1,0.6,0.7,0.7,1.2,0.6c0.4-0.1,1.3-0.5,1.3-1C91.3,346.3,90.8,346.2,90.6,346z"/>
			<path fill="#636362" d="M50.3,327.9c2.1-0.7-1.5-2.4-2.2-2.8c-0.8-0.3-1.6-0.7-2.5-0.7c-0.2,0-1.7,0-1.8,0.4
				c-0.1,0.4,1.7,1.4,2.1,1.5c0.5,0.3,1.3,0.7,2.1,1.1c0.5,0,0.9,0.2,1.3,0.4C49.7,328,50,328,50.3,327.9z"/>
			<path fill="#AA9080" d="M66.6,335.7c0.6-0.7,1.4-1.2,2.1-1.4c0-0.2-0.1-0.4-0.3-0.6c-0.5-0.5-1.3-0.7-2-0.9
				c-0.3-0.1-0.8-0.2-1.1,0c-0.4,0.2-1,0.9-0.9,1.4c0,0.4,0.2,0.7,0.5,0.9c0.1,0.1,0.2,0.1,0.2,0.2c0.1,0.1,0.3,0.1,0.4,0.2
				C65.8,335.7,66.2,335.7,66.6,335.7z"/>
			<path fill="#AD9383" d="M129.1,324.5c1.3,0,2.4,0,3.4-0.7c1-0.6,0.9-0.7,1.2-2c0.3-1.4,0.4-1.4-0.4-2.1c-0.9,0-1.9-0.2-2.3-0.3
				c-0.9-0.2-3.8-0.6-3.8-2c0-0.1,0-0.3,0.1-0.4c-0.6,0.1-1.2,0.2-1.8,0.5c-1.4,0.7-1.6,1.8-1.3,3.2
				C124.8,323,126.6,324.7,129.1,324.5z"/>
			<path fill="#6D6359" d="M146.7,311.5c-2.3-1.5-5.9-1.8-7.5,0.8c-0.2,0.3-0.3,0.6-0.5,0.9c0.7,0.2,1.3,0.6,1.8,0.9
				c1.2,1,2.3,2.4,1.6,3.9c0.9,0.1,1.9,0.1,2.8-0.1c0.5-1.8,2-2.8,3.6-2.4c0.1-0.2,0.1-0.3,0.2-0.5c-0.3-0.7-0.5-1.5-0.5-2.4
				C147.8,312.3,147.3,311.9,146.7,311.5z"/>
			<path fill="#8F8E8D" d="M181.6,320.5c-1.5-2-4.1-4.2-6.6-4.5c-2.2-0.3-7.5,0.6-5,3.9c1.1,1.5,3.2,2.2,4.9,2.8c0,0,0,0,0,0
				c0,0,0,0,0,0c0.1,0.1,0.2,0.1,0.3,0.1c0.6-0.2,1.3-0.3,2,0c0.6,0.3,0.8,0.7,0.9,1.2c0.5,0.1,1,0.2,1.5,0.3
				C181.9,324.3,182.9,322.2,181.6,320.5z"/>
			<path fill="#B7BCC0" d="M147.7,322.5c0.2-0.5,0.5-1.1,1.1-1.7c0.7-0.7,1.6-1.2,2.7-1.5c-0.6-0.6-1-1.5-1.6-2.1
				c-1.3-1.3-3.9-2.2-4.4,0.5C145.1,319.5,146.3,321.2,147.7,322.5z"/>
			<path fill="#D6CDC2" d="M135.5,318.1c0.1,0.1,0.2,0.2,0.3,0.2c1,0.4,2.2,0.6,3.3,0.6c0.6,0,1.1,0,1.7-0.3
				c0.6-0.3,1.3-1.3,1.3-1.9c0-0.4-0.5-0.8-0.7-1.1c-1.1-1.3-2.7-2.1-4.4-2.2c-0.7,0-1.7,0-2.2,0.5c-0.2,0.9-0.4,1.8-0.6,2.7
				c0,0.1,0.1,0.2,0.2,0.3C134.9,317.2,135.3,317.6,135.5,318.1z"/>
			<path fill="#B7BCC0" d="M176.5,323.3c-1.5-0.5-2.9,0.6-3.6,1.9c0.1,0.7,0,1.3-0.2,1.9c0.2,0.3,0.5,0.5,0.9,0.6
				c1.3,0.4,2.8-0.5,3.4-1.6C177.5,325.1,177.6,323.9,176.5,323.3z"/>
			<path fill="#D6CDC2" d="M147,331.4c-1.6,0.9-4,2.3-4.2,4.3c-0.1,1.1,0.2,2,1.3,2.5c0.7,0.3,1.5,0.3,2.4,0c1-0.4,2-0.8,3-1.3
				c0.9-0.5,1.6-1,2.2-1.4c1.5-1,2.9-2,1.9-4C152,329.2,149.1,330.2,147,331.4z"/>
			<path fill="#D6CDC2" d="M143.9,333.3C143.9,333.3,143.8,333.3,143.9,333.3c-0.1,0.1-0.1,0.1-0.2,0.1
				C143.8,333.4,143.8,333.3,143.9,333.3z"/>
			<path fill="#020000" d="M152.3,329.8c-0.7-0.2-1.3-0.1-2.1,0c-0.2,0-0.4,0.1-0.6,0.1c-1.3,0.4-2.5,1.1-3.5,1.7
				c-0.5,0.3-1.2,0.7-1.8,1.2c-0.2,0.1-0.3,0.3-0.5,0.4c-0.1,0-0.1,0.1-0.2,0.1c-0.1,0.1-0.2,0.2-0.4,0.3c-1.3,1.3-2.1,2.9-0.5,4.4
				c0.2,0.2,0.5,0.4,0.8,0.5c0.1,0,0.2,0.1,0.3,0.1c2.2,0.5,5.6-1.6,7.1-2.5c1.8-1.1,4.1-2.3,3.5-4.5
				C153.5,331.4,152.8,330.8,152.3,329.8z M153.7,331.6c1,2-0.4,3-1.9,4c-0.6,0.4-1.4,0.9-2.2,1.4c-1,0.5-2,1-3,1.3
				c-0.9,0.2-1.7,0.3-2.4,0c-1-0.5-1.4-1.4-1.3-2.5c0.2-2,2.5-3.4,4.2-4.3C149.1,330.2,152,329.2,153.7,331.6z"/>
			<path fill="#9F8D84" d="M180.6,312.7c-0.2-0.3-0.5-0.6-0.7-0.8c-1-0.3-1.7-0.9-1.8-1.7c0,0-0.1,0-0.1,0c-0.4,0.1-0.8,0.2-1.3,0.1
				c-0.1,0-0.2,0-0.4,0c-1.4,0.5-2.2,1.9-1.2,3.4c0.7,1,2,2,3.2,2.3c1.3,0.3,2.3-0.1,2.8-1.2C181.4,314,181.1,313.4,180.6,312.7z"/>
			<path fill="#CFBDA7" d="M36.2,309.4c0.1,0.1,0.3,0.1,0.4,0.2c0.9-0.1,1.8-0.6,2.3-1.6c0.5-1,0.4-2.1-0.3-3
				c-0.5-0.5-1.4-0.8-2.2-0.8c-0.4,0.4-1,0.5-1.6,0.5c-0.3,0.3-0.6,0.6-0.8,1c-0.2,0.5-0.4,1.1-0.5,1.6c-0.2,0.8,0.2,1.3,0.9,1.7
				c0.1,0.1,0.3,0.2,0.4,0.2C35.3,309.2,35.8,309.3,36.2,309.4z"/>
			<path fill="#BDA388" d="M36.5,323.9c0.8,0.5,1.6,0.4,2.2-0.4c0.6-0.8,0.7-1.4,0.5-2.4c-0.3-0.9-1.7-0.9-2.5-0.8
				c-1,0.2-1.3,1.3-1.2,2.2C35.6,323.2,36,323.6,36.5,323.9z"/>
			<path fill="#42403F" d="M170.3,307.5c0.3,0.7,0.4,1.5,0.3,2.3c0.2,0,0.4,0,0.5,0c0,0,0,0,0,0c0.5,0.1,0.9,0.2,1.4,0.4
				c0.1-0.1,0.2-0.3,0.3-0.5c-1-0.4-1.8-1.1-1.9-2.2C170.7,307.5,170.5,307.5,170.3,307.5z"/>
			<path fill="#968B82" d="M173.2,314.5c0.7-0.5,0.6-1.4,0.3-2.1c-0.5-1.3-1.4-1.6-2.6-1.9c0,0-0.1,0-0.1,0
				c-0.2-0.1-0.3-0.1-0.5-0.1c-0.4,0.9-1,1.8-2,2.1c0,0.2,0,0.4,0,0.5c0.1,0.5,0.4,0.8,0.8,1.1c0.1,0.1,0.2,0.1,0.3,0.2
				c0.6,0.4,1.4,0.5,2.1,0.6C172.1,314.9,172.7,314.9,173.2,314.5z"/>
			<path fill="#A88E82" d="M167.6,311.4c0.2,0.2,0.4,0.4,0.5,0.7c0.4-0.1,0.7-0.3,1-0.6c0.5-0.4,0.6-0.7,0.9-1.3
				c0.2-1.1,0-2-0.8-2.8c-0.2-0.1-0.4-0.1-0.5-0.3c-0.1-0.1-0.2-0.2-0.3-0.3c-1.2-0.6-2.5,0-3.1,1.4c0,0.3-0.1,0.7-0.3,1.1
				c0,0.4,0.1,0.8,0.5,1.2c0,0,0,0,0,0c0.7,0.2,1.4,0.4,2.1,0.5C167.7,311.1,167.7,311.2,167.6,311.4z"/>
			<path fill="#6D777A" d="M169.6,302c0,0.1,0.1,0.2,0.1,0.3c0,0.5-0.2,1-0.4,1.4c-0.1,0.5-0.3,0.9-0.6,1.3c0,0,0,0.1,0,0.1
				c-0.4,1.7,0.7,2.4,2.2,2.1c0-0.2,0-0.3,0.1-0.5c0.4-1.9,1.7-2.5,3.3-2.7c0-0.2,0.1-0.4,0.1-0.7c-0.5-0.2-1-0.5-1.3-0.8
				c-1-1.2-1-2.6-0.4-3.7c-0.1-0.2-0.1-0.3-0.2-0.5h0c-1-1.9-4-0.3-3.9,1.5c0.1,0.1,0.2,0.1,0.2,0.2
				C169.8,300.9,169.8,300.9,169.6,302z"/>
			<path fill="#8D847A" d="M48.8,332.5c-0.1-0.2-0.2-0.4-0.2-0.6c-0.3-1,0.1-2.3,1-2.7c-0.1-0.2-0.3-0.4-0.5-0.5
				c-1.1-0.6-2.3-1.3-3.2,0.1c-0.9,1.2-0.1,2.8,1,3.5C47.6,332.8,48.3,332.8,48.8,332.5z"/>
			<path fill="#B7BCC0" d="M53.2,332.5c-0.1,0-0.2,0-0.2-0.1c-1.1-0.4-2.8-1.2-2.1-2.6c0,0,0,0,0,0c0,0,0,0,0,0c0,0,0,0,0,0
				c0,0-0.1,0-0.1-0.1c-1.6-0.6-2.5,1.3-1.9,2.7c0.4,1,1.5,2.4,2.6,2.6c0.6,0.1,1.1,0,1.4-0.3C52.9,334,53,333.2,53.2,332.5z"/>
			<path fill="#B7BCC0" d="M55.9,336c1,0,2-0.4,2.8-1.1c-0.1-0.1-0.2-0.1-0.3-0.1c0,0,0,0,0,0c0,0,0,0,0,0c-1.1-0.7-1.2-2.1-0.6-3.1
				c0.2-0.3,0.3-0.5,0.5-0.7c-0.1-0.1-0.2-0.1-0.3-0.2c-0.1-0.1-0.4-0.1-0.4-0.3c0,0,0,0,0,0c-0.3-0.4-0.7-0.5-1.1-0.5
				c0.1,0.4,0.1,0.8-0.2,1.3c-0.5,1-1.5,1.4-2.6,1.3c0,0.1-0.1,0.2-0.1,0.3C53.2,334.7,54,335.9,55.9,336z"/>
			<path fill="#393736" d="M164,310.2c0.7-0.7,1-2.1,0.4-2.9c-0.1-0.1-0.1-0.2-0.2-0.2c-0.4,1.4-1.7,2.1-3.1,2.3
				c0.2,0.3,0.4,0.6,0.7,0.8C162.5,310,163.2,310.1,164,310.2z"/>
			<path fill="#B7BCC0" d="M149.8,315.1c0.3,0.3,0.8,0.6,1.2,0.7c0.6,0.1,2.8-1.5,3-2c0.7-1.8-0.3-5.7-2.5-6.3
				c-1.5,0.2-2.2,1.6-2.4,2.9c-0.1,0.8-0.2,1.7-0.2,2.5C149,313.7,149.2,314.5,149.8,315.1z"/>
			<path fill="#110905" d="M148.1,312.7c0,0.9,0.2,1.7,0.5,2.4c0.1,0.3,0.3,0.5,0.5,0.7c0,0,0,0,0,0c0.2,0.2,0.4,0.3,0.7,0.5
				c0.4,0.2,0.9,0.3,1.4,0.2c0.5,0,1-0.2,1.4-0.4c0.3-0.1,0.5-0.3,0.8-0.5c0.9-0.8,1.5-1.9,1.6-3c0.1-0.7,0-1.6-0.2-2.4
				c0-0.1,0-0.2-0.1-0.4c-0.1-0.3-0.2-0.6-0.4-0.8c-0.4-0.7-1.3-1.9-2.1-2.1c0,0,0,0,0,0c0,0,0,0,0,0c0,0,0,0,0,0c0,0,0,0,0,0
				c-1.8,0.2-3,1-3.6,2.7c-0.2,0.6-0.4,1.4-0.4,2.2C148.1,312.2,148.1,312.4,148.1,312.7z M149,312.8c-0.1-0.8,0-1.7,0.2-2.5
				c0.2-1.3,1-2.7,2.4-2.9c2.2,0.6,3.2,4.5,2.5,6.3c-0.2,0.6-2.4,2.1-3,2c-0.4,0-0.9-0.4-1.2-0.7C149.2,314.5,149,313.7,149,312.8z"
				/>
			<path fill="#504D4C" d="M186.1,302c-0.4,0.1-0.9,0.2-1.3,0.2c-0.7,1-0.9,2.7-0.7,4c0.5,0,1,0.1,1.4,0.2c0,0,0,0,0.1,0
				c0,0,0,0,0,0c1.6,0.5,2.7,1.5,1.4,3.2c0,0,0,0,0,0.1c0.6,0.4,1.6,1,2,0.7c0.9-0.6,0.3-3.2,0.1-4.1c-0.1-0.5-0.3-1-0.6-1.4
				C188.3,304.1,187.3,302.5,186.1,302z"/>
			<path fill="#B7BCC0" d="M37.4,311.6c-0.2-0.9-1.1-1.3-1.9-1.7c-1.3-0.5-2.9,0.2-3,1.8c0,0.8,1.2,1.9,1.9,2.1
				C35.7,314.2,37.7,313.1,37.4,311.6z"/>
			<path fill="#B7BCC0" d="M51.3,329.7c-0.6,1,0.9,1.8,1.6,2.1c0.4,0.1,0.8,0.3,1.2,0.3c0.9,0.1,2.1-0.6,1.9-1.6
				c-0.1-0.7-0.7-1.2-1.3-1.6C53.5,328.4,52.2,328.6,51.3,329.7z"/>
			<path fill="#8D847A" d="M80.3,339.5c0-0.6-0.7-1.6-1-2c-0.9-1.1-2.1-1.5-3.5-1.8c-1.3-0.3-2.6-0.8-3.9-1
				c-1.8-0.2-4.2,0.2-5.1,1.7c0.2,0.2,0.3,0.5,0.3,0.8c0,0.5-0.2,0.8-0.7,1c0.3,2.1,2.5,2.8,4.5,3.4c0.7-0.1,1.4,0.3,2.1,0.4
				c1.5,0.3,3.1,0.2,4.6,0C79,341.9,80.3,341.1,80.3,339.5z"/>
			<path fill="#BFADA1" d="M171.3,322.9c-0.5-1-1-1.9-1.9-2.4c-1.5-0.5-2.9-1-4.4-1.2c-0.7,0.1-1.3,0.1-2,0.1
				c-0.3,0-0.5-0.1-0.8-0.1c-0.7,0.1-1.4,0.2-2.2,0.5c-0.1,0-0.2,0.1-0.3,0.1c1.9,0.9,4,2.7,4.1,4.6c0.8,0.7,1.1,1.4,1.1,2.1
				c0.7,0.3,1.4,0.8,2.3,1.2c0.9,0.5,2.9,1,3.9,0.6C173.6,327.3,172,324.1,171.3,322.9z"/>
			<path fill="#504D4C" d="M121.1,347.5c1.5,0.1,2.9-1.8,1.6-2.9c-1-0.9-2.8-1.3-4.3-1.6c-0.2,0.2-0.4,0.4-0.7,0.6
				c-0.8,0.4-1.8,0.5-2.7,0.4c1.1,0.4,1.9,1.2,1.9,2.4c0.5,0.1,1,0.2,1.5,0.4C119.3,347,120.2,347.4,121.1,347.5z"/>
			<path fill="#B7BCC0" d="M83.6,343.5c0.9,3.3,6.8,3.6,7.3-0.1C91.4,339.4,83.1,339.4,83.6,343.5z"/>
			<path fill="#9F8D84" d="M107.2,347.2c-1-0.3-1.9-0.6-2.9-0.7c-1.5-0.1-5.8,0.2-4.2,3.5c0.2,0.5,0.7,0.9,1.1,1.1
				c1.3,0.8,3.2,0.9,4.6,0.6c1.1-0.2,2.7-0.6,3-2c0-0.2,0.1-0.4,0-0.6C108,348.7,107.4,348.2,107.2,347.2z"/>
			<path fill="#AD9383" d="M109.4,342.3c-0.2-0.4-0.2-0.8,0.2-1.4c-0.2-1-1.3-1.3-2.1-1.6c-2.8-0.8-6.9,0.1-7.8,3.2
				c-0.2,0.6-0.2,1.1-0.1,1.5c0.2,0.2,0.3,0.4,0.3,0.6c1.1,1.4,4.3,1.1,6,0.5C107,344.7,108.8,343.6,109.4,342.3z"/>
			<path fill="#AD9383" d="M166.3,318.6c1.2-0.4,3.5-1.8,3.1-3.4c-0.2-0.7-0.8-1-1.5-1.2c-0.2,0.4-0.5,0.7-0.8,1.1
				c-1.4,1.3-3.8,1.6-5.7,1.2c0,0.1-0.1,0.2-0.1,0.3C160.5,319.4,164.4,319.3,166.3,318.6z"/>
			<path fill="#CFBDA7" d="M116.2,345.4c-0.7-0.8-2-1.2-3-1.3c-1-0.1-1.9-0.2-2.9-0.1c-1.5,0.2-3.5,1.3-2.8,3.2
				c0.7,1.9,3.9,1.8,5.5,1.9c0.7,0,1.3,0,2-0.3C116.1,348.4,117.1,346.4,116.2,345.4z"/>
			<path fill="#828079" d="M116.8,343.5c3-0.5,0.3-3.4-1.2-3.9c-1.1-0.3-2.7-0.3-3.8,0.1c-1,0.4-2.6,1.4-1.6,2.6
				c0.8,0.9,2.5,1,3.5,1.1C114.6,343.5,115.8,343.7,116.8,343.5z"/>
			<path fill="#6D777A" d="M98.6,343.9c-0.7-0.5-1.4-0.9-2.2-1.1c-1-0.2-1.4-0.3-2.2,0.5c-1.2,1.3-1.1,3.4-0.1,4.8
				c0.3,0.5,0.8,1.1,1.2,1.4c1.7,1.3,3.5-1.1,3.9-2.6c0.1-0.5,0.4-1.5,0.3-2C99.4,344.4,99,344.2,98.6,343.9z"/>
			<path fill="#6D6359" d="M155.8,325.6c1.1-0.2,1.7-0.1,2.9-0.6c1.1-0.4,1.2-0.7,2.1-1.1c0.5-0.3,1.1-0.4,1.6-0.3
				c-0.8-2.1-2.9-3.1-4.9-3.6c-2.2-0.6-9.9-0.8-8.8,3.6c0.4,1.8,2.5,2.8,4.2,3.3C153.6,326.2,154.8,325.8,155.8,325.6z"/>
			<path fill="#514E4E" d="M36.7,302.6c0.4-1.1,0.5-2.1-0.1-3.2c-0.1-0.1-0.1-0.2-0.2-0.3c-1.2-0.8-2.6-0.7-3.8,0.1
				c-1.6,1.2-1.8,3.7,0.3,4.6c0.8,0.3,1.8,0.4,2.6,0.1C36.4,303.7,36.5,303.2,36.7,302.6z"/>
			<path fill="#9F8D84" d="M60.1,335.1c0.2-0.1,0.4-0.2,0.5-0.2c0.4-0.2,0.9-0.3,1.3-0.4c0.9-0.8,1.8-2.3,0.9-3.2
				c-0.9-0.9-2.5-1.1-3.6-0.5c-1.1,0.6-2.6,2.5-1,3.5C58.9,334.6,59.5,335,60.1,335.1z"/>
			<path fill="#CFBDA7" d="M66.4,336.5c-0.6-0.6-1.5-0.8-2.1-1.3c-1.1-0.6-4-0.3-4.8,0.9c-0.5,0.7,0.5,0.9,1.2,1.1
				c0.8,0.3,1.5,0.5,2.3,0.6C63.8,338,68.2,338.4,66.4,336.5z"/>
			<path fill="#B7BCC0" d="M162.9,324.7c-1.7-1-2.7,0.7-4.2,1.2c-1.2,0.5-2.5,0-3.7,0.4c-2.7,0.8-2.4,3-0.6,4.4
				c1.4,1,3.2,0.8,4.8,0.4C162.1,330.4,166.2,327.5,162.9,324.7z"/>
			<path fill="#B7BCC0" d="M163.5,306.4c0.2-1.5-0.8-2.4-2.1-2.8c-0.3-0.1-0.6-0.1-0.9-0.2c-2.1-0.2-4.6,0.8-4.3,3
				C157.1,309.7,163,310.1,163.5,306.4z"/>
			<path fill="#9F8D84" d="M164.7,315.8c1.1-0.2,2.7-0.6,3-2c0.3-1.2-0.4-2.1-1.4-2.4c0,0,0,0,0,0c-1-0.3-2-0.7-3.1-0.7
				c-1.5-0.1-5.8,0.2-4.2,3.5c0.2,0.5,0.7,0.9,1.1,1.1C161.4,315.9,163.3,316,164.7,315.8z"/>
			<path fill="#AD9383" d="M190.6,297.2c-0.2-1-1.3-1.3-2.1-1.6c-0.1,0-0.3-0.1-0.4-0.1c-0.2,0.1-0.3,0.2-0.5,0.3
				c-1.5,0.8-3.9,1.5-5.9,1.3c-0.5,0.5-0.8,1-1,1.7c-0.3,0.9-0.2,1.5,0.2,2c0.3,0,0.5,0.1,0.7,0.1c0.5,0.2,1,0.5,1.4,0.9
				c1.3,0.1,2.8-0.1,3.8-0.5C188.3,300.8,191,299.1,190.6,297.2z"/>
			<path d="M190.7,299.3c1.5-2.1,0.2-3.2-1.7-3.9c0,0,0,0,0,0c0,0,0,0-0.1,0c-0.2,0-0.4-0.1-0.6-0.1c2.3-1.4,4.2-3.7,1.5-6.1
				c0,0,0,0,0,0c0,0,0,0,0,0c-1-0.6-1.9-0.7-2.9-0.2c-0.9,0.5-1,0.7-2.1,1.1c-1.1,0.4-1.7,0.4-2.9,0.6c-1.9,0.3-4.4,1.5-3.6,3.9
				c0,0.1,0.1,0.2,0.1,0.3c-1.2-0.2-2.4,0.4-3.2,1.6c-0.1,0.1-0.2,0.3-0.2,0.5c-0.8,0.2-1.5,0.7-2,1.4c0,0,0,0,0,0c0,0,0,0,0,0
				c-0.9-1.8-4.1-1-4.8,0.5c-0.1,0.2-0.2,0.4-0.2,0.7c-1.4-0.8-3.2-1.2-4.3,0c-1.1,1.1-1.2,3-0.7,4.6c-2.6-1.6-8-1-7.5,2.4
				c0.5,1.9,2.7,2.9,4.8,3c0.1,0.3,0.3,0.6,0.6,0.9c-0.4,0.1-0.8,0.3-1.1,0.5c-0.9-0.8-2-1.4-3-1.6c0,0,0,0,0,0c0,0,0,0,0,0
				c-0.7,0-1.4,0.2-1.9,0.6c0,0.1,0.1,0.2,0.1,0.4c0.3-0.2,0.7-0.3,1.1-0.4c1,0.3,2,1,2.9,1.7c-1.4,1.5-0.5,3.5,1.6,4.3
				c0.1,0,0.2,0,0.2,0.1c-0.5,1.1-0.2,2.1,0.7,2.8c-0.8,0.1-1.6,0.4-2.3,0.8c-0.2-0.1-0.5-0.2-0.7-0.2c-0.5-0.1-1-0.2-1.6-0.3
				c-0.5-0.3-1.1-0.6-1.5-1c-0.9-0.7-1.6-1.4-1.8-2.4c-0.2,0.2-0.5,0.4-0.8,0.5c0.4,1.1,1.1,2,2.1,2.7c-0.8,0-1.6,0.1-2.4,0.3
				c-0.3-0.2-0.6-0.5-0.9-0.9c-0.5-0.7-1-1.4-1.7-1.9c-0.3-0.1-0.5-0.3-0.7-0.5c0,0,0,0,0,0c0,0,0,0,0,0c-0.2-0.2-0.4-0.4-0.5-0.7
				c0,0.1-0.1,0.3-0.2,0.5c-1.6-0.4-3.1,0.5-3.6,2.4c-0.9,0.2-1.9,0.2-2.8,0.1c0.7-1.4-0.4-2.9-1.6-3.9c-0.4-0.4-1.1-0.7-1.8-0.9
				c0.1-0.3,0.3-0.6,0.5-0.9c1.7-2.6,5.3-2.3,7.5-0.8c0.6,0.4,1,0.8,1.4,1.3c0-0.3,0-0.6,0-0.9c-0.1-0.1-0.3-0.3-0.5-0.4
				c-2.1-1.5-5-2.1-7.5-0.9c-1.1,0.5-1.9,1.4-2.3,2.4c-1.5-0.3-3-0.2-3.7,1.1c-0.4,0.9-0.5,1.8-0.3,2.6c-0.5-0.3-1-0.5-1.3-0.8
				c0,0,0,0-0.1,0c0,0,0,0,0,0c-1.1-0.6-2.5-0.3-3.6,0.1c-0.2,0.1-0.5,0.2-0.8,0.4c-1.5,0.1-3.5,0.7-4.2,2.2c0,0-0.1-0.1-0.1-0.1
				c-2-1.8-5.6-0.5-7.4,0.9c-0.9,0.8-1.6,1.9-1.5,2.9c-2.6-0.6-5.4-1.1-7.5,0.9c0-0.2,0-0.4,0-0.7c-0.3-0.9-1.2-1.2-1.9-1.6
				c-1.3-0.5-3,0-3.9,1.2c-0.2,0.3-0.4,0.7-0.5,1.1c-0.2-0.2-0.4-0.3-0.7-0.4c0.4-0.2,0.8-0.6,1.1-1c0.7-1.3-0.2-2.4-1.5-2.9
				c-1.3-0.5-2.5,0-3.4,0.9c1.2-1.4-1.4-2.5-2.6-3.3c-1.7-0.6-3.6-1.2-5.1,0.1c-0.6,0.4-0.6,0.8-0.4,1.2c-0.7-0.1-1.4-0.1-2.2-0.1
				c0.3-0.2,0.4-0.5,0.4-0.9c-0.1-1.5-2.1-1.7-2.9-2.6c0,0,0,0-0.1,0c0,0,0,0,0,0c-1.1-0.6-2.5-0.3-3.6,0.1
				c-0.3,0.1-0.6,0.2-0.9,0.4c0.3-0.3,0.5-0.7,0.6-1.1c0-0.5-0.5-0.6-0.8-0.9c-0.8-1-1.7-0.3-2.3,0.5c-0.2-0.7-1-0.9-1.7-1.3
				c0,0,0,0,0,0c0,0,0,0,0,0c-2.1-0.8-6.1-2.3-8.2-0.5c0.1-1.2-1.9-2.2-3-2.5c-1.6-0.5-3.9-1.6-5.4-0.4c-0.1-0.5-0.2-1-0.6-1.4
				c-1.1-1.1-3-1.4-4.5-1c-0.3,0.1-0.5,0.2-0.7,0.4c0-0.2,0-0.4-0.1-0.6c-0.4-1.2-2-1.2-3-1.1c-0.5,0-1.1,0.1-1.5,0.3
				c-0.6-0.9-1.4-1.6-2.4-2c-0.7-0.3-1.3,0-1.7,0.4c-0.1-0.3-0.3-0.5-0.6-0.7c-0.7-0.4-1.3-0.8-2.1-0.7c-0.8,0.1-1.4,0.4-2,0.9
				c-0.5,0.4-0.7,0.9-0.9,1.3c-0.5-0.2-1-0.3-1.5-0.4c0.1-0.1,0.2-0.2,0.2-0.4c0.4-1,0.7-2.1,0.4-3.2c-0.1-0.5-0.6-1.2-0.7-1.5
				c0-0.1-0.1-0.1-0.1-0.2c0-0.1-0.1-0.1-0.1-0.1c-3.2-2.2-7,2-4.4,4.9c0.4,0.5,1.2,0.9,2,1.1c-0.2,0.2-0.5,0.5-0.6,0.8
				c-0.4,0.8-1.2,2.4-0.5,3.2c0.3,0.4,0.7,0.7,1.2,0.9c-0.7,0.2-1.3,0.6-1.7,1.2c-0.3,0.5-0.7,1.3-0.6,1.8c0.1,0.8,1.3,1.8,2.1,1.9
				c0.6,0.1,1.2,0,1.8-0.2c0.2,0.5,0.6,0.9,1.3,1.1c1.6,0.5,3.2-0.1,4.3-1.2c-0.2,0.4-0.3,0.8-0.3,1.2c-1.2-0.2-2.2,0.6-2.8,1.6
				c-0.3-1.5-1.8-2-3.2-1.6c-1.1,0.4-2,1.5-2,2.7c0,1,1,2.3,2.2,2.7c-0.5,0.5-0.6,1.3-0.6,1.9c0,0.4,0.3,0.8,0.6,1.1
				c-0.4,0.2-0.7,0.5-1,0.8c-1.6,2-0.4,4,1.9,4.2c0.6,0.1,1.3,0,2-0.1c-0.1,0.6-0.1,1.3,0.3,1.8c0.9,1.2,2.9,1.2,4.1,1.2
				c0.6,0,1.4-0.1,2.2-0.2c0.2,0.7,0.7,1.4,1.5,1.8c0.9,0.5,1.9,0.4,2.7-0.1c0.6,1.1,1.6,2.3,2.7,2.5c0.6,0.1,1,0,1.4-0.3
				c0.2,0.6,0.6,1,1.4,1.3c1.7,0.5,3.4-0.1,4.5-1.4c0.2,0.1,0.4,0.2,0.6,0.3c-0.3,0.2-0.6,0.5-0.6,0.9c0,1.3,3,1.8,3.8,2
				c0.5,0.1,1.9,0.4,3,0.3c0.1,0.4,0.2,0.8,0.5,1.2c1,1.8,2.4,2.2,3.9,2.6c-0.1,0.1-0.1,0.2,0,0.2c0.1,0,0.2-0.1,0.3-0.1
				c0.5,0.2,1,0.3,1.5,0.6c0.1,0.1,0.4-0.1,0.5-0.3c0.5,0.1,1.1,0.3,1.5,0.3c1.3,0.1,2.6,0,3.9-0.3c0.2,0,0.3-0.1,0.5-0.1
				c0.2,1.1,0.7,2,1.6,2.5c1.1,0.6,2.4,0,3.6-0.4c1.2,1.2,3.2,1.8,5,1.6c-0.1,0.2-0.1,0.3-0.2,0.5c-0.1,0.5-0.2,1.2,0.3,1.5
				c0.7,0.4,1.8-0.2,2.3-0.6c0.4-0.3,0.9-0.8,0.9-1.3c0-0.5-0.5-0.6-0.8-0.9c-0.1-0.1-0.1-0.1-0.2-0.2c0.4-0.5,0.7-1.1,0.8-1.9
				c0-0.6-0.2-1.2-0.6-1.6c0.7,0.2,1.4,0.2,2-0.1c-0.1,0.2-0.1,0.4-0.2,0.6c0,0,0,0,0,0.1c-0.3,0.8-0.2,1.3,0.3,1.6
				c-0.7,1.6-0.3,3.7,0.7,5c0.7,0.9,1.4,1.7,2.7,1.3c0.8-0.2,1.5-0.8,2.1-1.5c0.8-0.9,1-2,1.1-3.2c0-0.2,0-0.3,0.1-0.4
				c0.5,0.4,1.2,0.7,2,0.7c2,0.2,4.4-0.2,6.2-1.4c-0.4,0.4-0.6,0.9-0.8,1.6c0,0.2-0.1,0.4-0.1,0.5c-2.3-0.6-4.7-1.2-6.8,0.4
				c-2,1.6-1.2,3.9,1.1,4.8c2,0.8,5.1,0.7,6.7-0.9c0.5-0.5,0.9-1.1,1-1.7c1.2,0.4,2.6,0.5,3.7,0.5c1.9,0.1,3.5-1,3.9-2.9
				c0.2,0,0.4,0.1,0.6,0.1c1.5,0.4,3.2,1.3,4.8,0.7c1.3-0.5,2.1-1.9,1.5-3.1c0.7,0.2,1.4,0.3,1.9,0.4c1.4,0.2,3.4,0.5,4.7-0.3
				c0.8-0.5,1-1.1,0.9-1.7c1.2,0.4,2.6,0.5,3.6,0.5c2,0.1,3.8-1.1,4-3.3c0.2-1.9-1.9-2.8-3.6-3c-0.2,0-0.4,0-0.6,0
				c0.5-0.3,0.9-0.7,1.2-1.1c0.5,0.6,1.2,0.9,2.1,0.7c0.1,0,0.2-0.1,0.3-0.1c0.1,0.9,0.5,1.8,1,2.4c0.7,0.9,1.4,1.7,2.7,1.3
				c0.8-0.2,1.5-0.8,2.1-1.5c0.1-0.1,0.1-0.1,0.1-0.2c-0.1,0-0.2-0.1-0.3-0.1c-0.8,1.1-2,1.9-3.1,1.1c-0.5-0.3-0.9-1-1.2-1.4
				c-0.9-1.5-1.1-3.5,0.1-4.8c0.7-0.8,1.2-0.7,2.2-0.5c0.7,0.2,1.3,0.4,1.9,0.8c0.1-0.1,0.2-0.2,0.4-0.3c0,0,0,0,0.1-0.1
				c0,0,0.1-0.1,0.1-0.1c0.2-0.1,0.3-0.3,0.5-0.4c-0.4,0.1-0.8,0.1-1.2,0.1c-0.7-0.3-1.4-0.6-2.1-0.6c-0.4-0.3-0.8-0.7-1-1.2
				c-1.4-2.7-0.7-8,2.6-9c1.4-0.3,2.7-0.2,3.8,0.2c0.3,0.4,0.7,0.7,1.1,1c0,1.5,1.4,2.7,3,3.6c0.2,0.8,0,1.7-0.5,2.5
				c-0.1,0.1-0.2,0.3-0.3,0.4c0.2-0.1,0.4-0.1,0.6-0.1c0.6-0.7,1.1-1.5,1.2-2.4c0.3,0.1,0.6,0.2,0.8,0.3c-0.2,0.5-0.3,1.1-0.1,1.7
				c0,0.1,0.1,0.2,0.1,0.3c0.4,1,1.2,1.7,2.2,2c2.2,0.7,5.3-0.2,7-1.1c1.6-0.8,3.2-2.1,3.5-3.6c1,0.4,1.7,1.2,2.9,1.9
				c1.3,0.8,3.1,0.3,4.2-0.8c0,0,0.1-0.1,0.1-0.1c0.2,0.1,0.4,0.2,0.7,0.3c1.4,0.4,3.1-0.4,4.1-1.4c0.6-0.6,1.1-1.5,1.2-2.3
				c1.7,0.5,3.5,0.5,4.4-0.9c0.2-0.4,0.3-0.8,0.3-1.2c0.7,0.2,1.4,0.3,1.8,0.3c1.4,0.2,3.4,0.5,4.7-0.3c2.2-1.2,0-3.7-1.7-4.3
				c-0.7-0.2-1.5-0.3-2.4-0.2c1.8-1.7,2.6-4,3.1-6.5c0-0.2,0.1-0.4,0.1-0.6c0.2,0,0.5-0.1,0.7-0.2c2.5-1.6,0.8-7.7-1.9-9.3
				C188.7,301.1,189.9,300.4,190.7,299.3z M183,301.8c-0.4-0.4-1-0.7-1.4-0.9c-0.2-0.1-0.5-0.1-0.7-0.1c-0.3-0.5-0.5-1.1-0.2-2
				c0.2-0.7,0.6-1.2,1-1.7c2,0.2,4.5-0.6,5.9-1.3c0.2-0.1,0.3-0.2,0.5-0.3c0.1,0,0.3,0.1,0.4,0.1c0.9,0.3,1.9,0.6,2.1,1.6
				c0.4,2-2.3,3.6-3.8,4.2C185.8,301.7,184.3,301.9,183,301.8z M189.3,306.4c0.2,0.8,0.8,3.5-0.1,4.1c-0.4,0.3-1.4-0.3-2-0.7
				c0,0,0,0,0-0.1c1.3-1.7,0.2-2.7-1.4-3.2c0,0,0,0,0,0c0,0,0,0-0.1,0c-0.4-0.1-0.9-0.2-1.4-0.2c-0.2-1.3,0-3,0.7-4
				c0.4,0,0.9-0.1,1.3-0.2c1.1,0.5,2.1,2.2,2.6,3C188.9,305.4,189.1,305.9,189.3,306.4z M187.9,311.8c-0.3,1.5-0.7,3.1-1.4,4.4
				c-0.8,1.4-2.6,3.1-4.4,3.2c-0.2,0-0.5,0-0.7,0c-0.1-0.1-0.2-0.2-0.3-0.3c-0.5-0.5-0.9-0.9-1.4-1.3c0.1-0.5,0.2-0.9,0.4-1.4
				c0.5-0.1,0.9-0.4,1.3-0.8c0.4-0.5,0.5-1.1,0.4-1.7c0.6-0.7,1.3-1.3,1.9-1.8c0.2-0.2,0.7-0.5,1.1-0.8c0.3-0.1,0.6-0.3,0.9-0.5
				c0.3-0.1,0.5-0.2,0.7-0.3c0.4,0.3,0.9,0.4,1.3,0.5C187.9,311.3,187.9,311.5,187.9,311.8z M188.5,322.6c-1,0.2-2.1,0-3.1-0.1
				c-0.7-0.1-1.7-0.1-2.5-0.4c-0.1-0.7-0.4-1.4-0.9-1.9c0.8-0.1,1.6-0.6,2.4-1.2c0.2-0.1,0.3-0.3,0.5-0.4c0.8-0.1,1.7,0,2.4,0.2
				C188.8,319.2,191.5,322.2,188.5,322.6z M178.2,324c-0.1-0.5-0.4-0.9-0.9-1.2c-0.7-0.2-1.3-0.2-2,0c-0.1-0.1-0.2-0.1-0.3-0.1
				c0,0,0,0,0,0c0,0,0,0,0,0c-1.7-0.6-3.8-1.3-4.9-2.8c-2.4-3.2,2.8-4.1,5-3.9c2.5,0.3,5.1,2.5,6.6,4.5c1.3,1.7,0.2,3.8-1.9,3.7
				C179.2,324.2,178.7,324.1,178.2,324z M177,326.1c-0.6,1.2-2.1,2-3.4,1.6c-0.4-0.1-0.7-0.4-0.9-0.6c0.2-0.6,0.3-1.2,0.2-1.9
				c0.7-1.3,2.1-2.4,3.6-1.9C177.6,323.9,177.5,325.1,177,326.1z M171.3,328.2c-1.1,0.4-3-0.1-3.9-0.6c-0.9-0.5-1.5-0.9-2.3-1.2
				c0-0.7-0.4-1.4-1.1-2.1c-0.1-1.9-2.2-3.6-4.1-4.6c0.1,0,0.2-0.1,0.3-0.1c0.8-0.3,1.5-0.4,2.2-0.5c0.2,0.1,0.5,0.1,0.8,0.1
				c0.6,0.1,1.3,0,2-0.1c1.4,0.2,2.9,0.7,4.4,1.2c0.9,0.5,1.4,1.4,1.9,2.4C172,324.1,173.6,327.3,171.3,328.2z M159.1,331.1
				c-1.6,0.4-3.4,0.6-4.8-0.4c-1.8-1.3-2-3.6,0.6-4.4c1.2-0.4,2.5,0.1,3.7-0.4c1.4-0.6,2.5-2.3,4.2-1.2
				C166.2,327.5,162.1,330.4,159.1,331.1z M148.7,323.6c-1.1-4.4,6.5-4.2,8.8-3.6c2,0.5,4.2,1.5,4.9,3.6c-0.5-0.1-1,0-1.6,0.3
				c-0.9,0.5-1,0.7-2.1,1.1c-1.1,0.4-1.7,0.4-2.9,0.6c-1,0.2-2.2,0.6-3,1.3C151.2,326.3,149.1,325.4,148.7,323.6z M143.1,321.6
				c-3.1,0.9-4.9,4.2-4.7,7.3c-0.8-0.3-1.6-0.3-2.3-0.1c-0.1-0.4-0.3-0.8-0.7-1.2c0.1-0.1,0.2-0.3,0.1-0.3c-2.2-0.5-4.5-1.4-6.7-0.8
				c0,0,0,0,0,0c0-0.5-0.1-1-0.4-1.4c0.2,0,0.3,0,0.5,0c0.8,0,1.9-0.1,2.8-0.4c0.2,0.3,0.4,0.5,0.7,0.7c2.4,1.8,5.5,0.3,7.2-1.7
				c0.9-1,2.1-3.4,2.4-5.4c0.9,0.1,1.9,0,2.8-0.1c-0.2,1.1,0.2,2.3,0.9,3.3C144.9,321.4,144,321.4,143.1,321.6z M138.1,336.3
				c-0.5,0.1-1,0.1-1.5-0.3c-0.5-0.3-0.9-1-1.2-1.4c-0.9-1.5-1.1-3.5,0.1-4.8c0.7-0.8,1.2-0.7,2.2-0.5c0.3,0.1,0.6,0.2,0.8,0.3
				c0.2,1.1,0.5,2.2,1.2,3c-0.2,0.1-0.5,0.3-0.7,0.5C138.2,333.9,137.9,335.1,138.1,336.3z M135,337.9c1,0.1,2.3,0.5,3,1.3
				c0.9,1-0.1,2.9-1.2,3.5c-0.7,0.3-1.2,0.3-2,0.3c-1-0.1-2.7-0.1-4-0.5c-0.4-0.6-1-1.2-1.6-1.6c-0.5-1.9,1.4-2.9,2.9-3.1
				C133.1,337.7,134,337.8,135,337.9z M129.2,344.8c-1,0.2-2.1,0-3.1-0.1c-1.1-0.1-2.8-0.2-3.5-1.1c-0.9-1.1,0.7-2.2,1.6-2.6
				c1.1-0.5,2.7-0.5,3.8-0.1C129.6,341.4,132.2,344.4,129.2,344.8z M116.9,346.4c0-1.2-0.8-2-1.9-2.4c1,0,1.9,0,2.7-0.4
				c0.3-0.2,0.5-0.4,0.7-0.6c1.5,0.3,3.3,0.7,4.3,1.6c1.3,1.1-0.2,3-1.6,2.9c-0.9,0-1.8-0.4-2.7-0.7
				C117.9,346.6,117.4,346.5,116.9,346.4z M113.1,349.2c-1.6-0.1-4.8,0-5.5-1.9c-0.7-2,1.3-3.1,2.8-3.2c1-0.1,1.9,0,2.9,0.1
				c1,0.1,2.3,0.5,3,1.3c0.9,1-0.1,2.9-1.2,3.5C114.4,349.2,113.8,349.2,113.1,349.2z M108.8,349.7c-0.3,1.4-1.8,1.8-3,2
				c-1.4,0.2-3.3,0.1-4.6-0.6c-0.4-0.3-0.9-0.7-1.1-1.1c-1.6-3.3,2.7-3.6,4.2-3.5c1,0.1,2,0.4,2.9,0.7c0.1,0.9,0.8,1.5,1.6,1.9
				C108.9,349.3,108.9,349.5,108.8,349.7z M99.9,344.6c0-0.2-0.1-0.4-0.3-0.6c-0.1-0.4-0.1-0.9,0.1-1.5c0.9-3.1,5-4,7.8-3.2
				c0.8,0.3,1.9,0.6,2.1,1.6c-0.4,0.6-0.4,1-0.2,1.4c-0.6,1.3-2.4,2.4-3.6,2.8C104.1,345.7,100.9,346,99.9,344.6z M99.1,347
				c-0.4,1.4-2.2,3.8-3.9,2.6c-0.5-0.3-0.9-1-1.2-1.4c-0.9-1.5-1.1-3.5,0.1-4.8c0.7-0.8,1.2-0.7,2.2-0.5c0.8,0.2,1.6,0.5,2.2,1.1
				c0.4,0.4,0.8,0.6,0.9,1.1C99.5,345.5,99.3,346.5,99.1,347z M93.5,342.3c0,0,0-0.1,0.1-0.1c0-0.4,0.2-0.8,0.3-1.1
				c0.1-0.1,0.1-0.1,0.2-0.2c0.3-0.4,0.4-0.7,0.5-1.1c0.1-0.2,0.3-0.4,0.4-0.6c0.9,1.2,2.5,2.2,4.1,2.7c0,0.1-0.1,0.2-0.1,0.3
				c-0.2,0.2-0.5,0.4-0.8,0.6c-1.4-0.8-3.2-1.2-4.3,0c-0.1,0.1-0.1,0.1-0.1,0.2C93.5,342.9,93.5,342.6,93.5,342.3z M90.9,343.4
				c-0.5,3.7-6.4,3.3-7.3,0.1C83.1,339.4,91.4,339.4,90.9,343.4z M90.1,347.7c-0.5,0.2-1.1,0.1-1.2-0.6c0-0.3,0-0.6,0.1-0.9
				c0.5-0.1,0.9-0.3,1.3-0.5c0.1,0.1,0.2,0.2,0.3,0.3c0.3,0.2,0.7,0.3,0.8,0.7C91.4,347.2,90.5,347.5,90.1,347.7z M73,342.1
				c-0.6-0.1-1.4-0.5-2.1-0.4c-1.9-0.6-4.2-1.2-4.5-3.4c0.4-0.2,0.7-0.5,0.7-1c0-0.3-0.2-0.6-0.3-0.8c0.9-1.6,3.3-2,5.1-1.7
				c1.3,0.2,2.6,0.7,3.9,1c1.4,0.3,2.6,0.7,3.5,1.8c0.4,0.4,1,1.4,1,2c-0.1,1.6-1.4,2.3-2.7,2.5C76.1,342.3,74.6,342.4,73,342.1z
				 M63,337.8c-0.8-0.1-1.6-0.3-2.3-0.6c-0.6-0.2-1.6-0.4-1.2-1.1c0.8-1.2,3.7-1.5,4.8-0.9c0.6,0.6,1.5,0.7,2.1,1.3
				C68.2,338.4,63.8,338,63,337.8z M51.6,335c-1.1-0.2-2.2-1.6-2.6-2.6c-0.6-1.3,0.3-3.3,1.9-2.7c0,0,0.1,0,0.1,0.1c0,0,0,0,0,0
				c0,0,0,0,0,0c0,0,0,0,0,0c-0.7,1.4,0.9,2.3,2.1,2.6c0.1,0,0.2,0,0.2,0.1c-0.2,0.7-0.4,1.5-0.3,2.1C52.6,335,52.2,335.1,51.6,335z
				 M45.8,328.8c1-1.4,2.1-0.7,3.2-0.1c0.2,0.1,0.4,0.3,0.5,0.5c-0.9,0.4-1.2,1.7-1,2.7c0,0.2,0.1,0.4,0.2,0.6
				c-0.5,0.3-1.2,0.3-1.9-0.2C45.7,331.6,44.9,330.1,45.8,328.8z M38.7,328.3c0.5-3.1,3.8-1.6,5.6-1c0.4,0.1,1.1,0.4,1.7,0.8
				c-0.1,0.1-0.2,0.2-0.3,0.3c-0.8,0.7-1.2,1.6-1,2.5c-0.4,0.1-0.9,0.1-1.2,0.1C41.6,331.2,38.2,331,38.7,328.3z M34.4,325.8
				c0.2-0.8,0.7-1.4,1.3-1.8c0.7,0.5,1.7,0.7,2.4,0.5c0.8-0.1,1.2-0.7,1.6-1.3c0-0.1,0.1-0.1,0.1-0.2c0.3,0,0.7,0.1,1,0.2
				c0.7,0.2,1.6,0.5,1.7,1.3c0.1,0.6-0.1,1.1-0.4,1.6c-1.3-0.3-2.5-0.2-3.3,1.1c-0.2,0.3-0.4,0.7-0.5,1.1
				C36.3,328.5,33.7,328.2,34.4,325.8z M36.7,320.4c0.8-0.2,2.2-0.1,2.5,0.8c0.2,1,0.1,1.5-0.5,2.4c-0.6,0.8-1.3,0.8-2.2,0.4
				c-0.5-0.3-0.9-0.7-1-1.3C35.3,321.7,35.7,320.6,36.7,320.4z M34.9,315.7c1-0.2,1.9-0.1,2.5,0.8c0.6,0.9,0.3,2.4-0.6,3.1
				C35,321.2,32.1,316.7,34.9,315.7z M41.4,316.2c0.1,0.1,0.2,0.2,0.3,0.3c0.2,0.1,0.3,0.2,0.5,0.3c0.8,0.8,1,1.7,0.8,2.8
				c-0.2,0.6-0.4,0.8-0.9,1.3c-0.7,0.6-1.5,0.8-2.2,0.3c-0.2-0.5-0.5-0.7-1-0.9c-0.1-0.1-0.3-0.3-0.4-0.4c-0.4-0.4-0.5-0.8-0.5-1.2
				c0.1-0.4,0.2-0.7,0.3-1.1C38.9,316.1,40.2,315.6,41.4,316.2z M38.5,314.8c-1,0-1.7-0.4-2-1c0.4-0.2,0.8-0.5,1.1-0.9
				c0.5-0.5,0.9-1.1,0.6-1.9c-0.1-0.5-0.5-0.8-0.8-1c0.1,0,0.1,0,0.2,0c0.7-0.2,1.3-0.6,1.8-1.2c0.3,0,0.7,0.2,0.9,0.5c0,0,0,0,0,0
				c0.1,0.2,0.3,0.2,0.4,0.3c0.6,0.3,1,0.4,1.3,1.1C42.9,312.8,40.6,314.9,38.5,314.8z M32.6,311.7c0.1-1.5,1.7-2.3,3-1.8
				c0.8,0.4,1.7,0.7,1.9,1.7c0.3,1.5-1.7,2.6-3,2.2C33.7,313.6,32.5,312.6,32.6,311.7z M33.5,307.3c0.1-0.5,0.3-1.1,0.5-1.6
				c0.2-0.4,0.4-0.8,0.8-1c0.6,0,1.2-0.1,1.6-0.5c0.8,0,1.7,0.3,2.2,0.8c0.7,0.9,0.8,2,0.3,3c-0.5,1-1.3,1.5-2.3,1.6
				c-0.1-0.1-0.3-0.1-0.4-0.2c-0.5-0.2-1-0.2-1.5-0.2c-0.2-0.1-0.3-0.1-0.4-0.2C33.6,308.6,33.2,308.1,33.5,307.3z M33,303.8
				c-2.1-0.9-1.9-3.3-0.3-4.6c1.1-0.9,2.6-0.9,3.8-0.1c0.1,0.1,0.1,0.2,0.2,0.3c0.6,1.1,0.5,2.1,0.1,3.2c-0.2,0.6-0.4,1.1-1.1,1.3
				C34.8,304.1,33.8,304.1,33,303.8z M39.2,303.4c1-1.4,2.1-0.7,3.2-0.1c0.8,0.5,0.8,1.5,0.7,2.3c-0.3,1.5-1.6,2.1-2.9,1.2
				c-0.1-0.1-0.2-0.1-0.2-0.2c0-0.6-0.2-1.2-0.6-1.7c-0.2-0.2-0.4-0.3-0.5-0.4C38.8,304.2,38.9,303.8,39.2,303.4z M45.6,303.5
				c0.9,0.4,1.7,1,2.2,1.9c0.7,1.2,0.5,3.8-1.5,3.4c-1.1-0.2-2.2-1.6-2.6-2.6C43.2,304.8,44,302.8,45.6,303.5z M51.7,305.8
				c0.2,1,0.1,1.5-0.5,2.4c-0.6,0.8-1.3,0.8-2.2,0.4c-0.3-0.1-0.5-0.3-0.6-0.5c0.2-0.7,0.2-1.5,0-2.1c0-0.1-0.1-0.2-0.1-0.4
				c0.2-0.3,0.5-0.6,0.9-0.6C50,304.8,51.4,304.9,51.7,305.8z M53.7,306.3c0.8-0.3,2.6,0,3.3,0.7c0.7,0.8,0.7,1.8,0.3,2.8
				c-0.7,2-2.9,2.2-4.6,1.2c-0.5-0.3-1-0.6-1-1.2c0-0.5,0.3-1.1,0.5-1.6c0.2-0.6,0.4-1.2,0.9-1.6C53.3,306.5,53.5,306.4,53.7,306.3z
				 M63.4,309.2c1.1,0.3,4.1,1.7,2.3,3c-0.2,0.2-0.5,0.3-0.9,0.4c-0.5-0.1-1,0-1.4,0.3c-0.3,0-0.6,0.1-0.8,0.1
				c-1.8,0.2-4.9,0.1-4.9-2.2c0.4-0.5,0.7-1.2,0.7-1.9C59.6,307.7,61.9,308.8,63.4,309.2z M68.1,311.4c1.9-0.5,4.5,0.6,6.2,1.2
				c0.4,0.2,1,0.4,1.3,0.7c0.1,0.2,0.3,0.4,0.4,0.5c-0.8,0.8-1.6,1.7-2.3,2.5c-0.4,0.2-0.9,0.3-1.3,0.4c-1.6,0.5-3.9,1.7-5.2,0.2
				c-0.4-0.4-0.6-0.9-0.8-1.4c0.3-0.2,0.6-0.5,0.8-0.8c0.4-0.7-0.1-1.2-0.8-1.5C66.6,312.3,67.2,311.6,68.1,311.4z M78.4,313.2
				c0.3,0.2,0.7,0.3,0.8,0.7c0.1,0.6-0.8,0.9-1.3,1c-0.5,0.2-1.1,0.1-1.2-0.6c-0.1-0.5,0.1-1.1,0.4-1.4
				C77.5,312.5,78.1,312.8,78.4,313.2z M83.8,314.4c0.6,0.6,1.5,0.7,2.1,1.3c1.8,1.9-2.6,1.5-3.5,1.3c-0.8-0.1-1.6-0.3-2.3-0.6
				c-0.6-0.2-1.6-0.4-1.2-1.1C79.8,314.1,82.7,313.9,83.8,314.4z M89,316.7c0.1-0.4,1.5-0.4,1.8-0.4c0.9,0,1.6,0.4,2.5,0.7
				c0.6,0.4,4.3,2.1,2.2,2.8c-0.5,0.2-1.2,0-1.9-0.3c-1-0.8-2.2-1.3-3.1-1.6C89.8,317.5,89,317,89,316.7z M100,319.3
				c0.6,0.3,1.2,0.8,1.3,1.6c0.1,1-1,1.7-1.9,1.6c-0.4,0-0.8-0.2-1.2-0.3c-0.8-0.3-2.2-1.1-1.6-2.1C97.4,318.9,98.8,318.6,100,319.3
				z M37.7,320c-0.2,0-0.4,0-0.6,0c0.1-0.1,0.3-0.3,0.4-0.5C37.6,319.7,37.6,319.9,37.7,320z M43.8,306.6c-0.2,0-0.3,0-0.5,0.1
				c0,0,0.1-0.1,0.1-0.1c0.1-0.1,0.1-0.2,0.2-0.3C43.6,306.4,43.7,306.5,43.8,306.6z M41.1,308.9c-0.2-0.1-0.3-0.2-0.3-0.2
				c0,0,0-0.1,0-0.1c-0.3-0.3-0.7-0.5-1-0.5c0.1-0.1,0.1-0.3,0.2-0.4c0.5,0.2,1,0.3,1.6,0.2c-0.1,0.1-0.1,0.2-0.1,0.2
				C41.1,308.4,41.1,308.7,41.1,308.9z M77.7,320c-1.2,0.6-2.1,0-3.2-0.5c-1.6-1,0-3,1-3.5c0.9-0.5,2.1-0.4,3,0.1
				c0.2,0.3,0.4,0.5,0.8,0.6C80.1,317.8,78.7,319.5,77.7,320z M87.7,329.8c0.2,0.5,0.4,0.9,0.6,1.4c0.2,0.8,0.8,3.5-0.1,4.1
				c-0.6,0.4-2.2-0.8-2.6-1.1c-0.8-0.6-1.5-1.3-2-2.1c-0.8-1.3-0.6-4.3,0.6-5.4C85.7,326.3,87.2,328.7,87.7,329.8z M70.9,333.9
				c-0.2-0.2-0.4-0.5-0.5-0.7c-1.4-2.6-0.7-8,2.6-9c0.1,0,0.1,0,0.2,0c2-0.4,3.5-0.1,5.1,1.1c1.8,1.4,3.7,3.9,2.1,6.2
				c-0.9,1.3-2.9,2.6-4.9,3.2C74,334.4,72.4,334,70.9,333.9z M65.1,335.4c-0.1-0.1-0.2-0.1-0.2-0.2c-0.3-0.2-0.5-0.6-0.5-0.9
				c0-0.5,0.5-1.2,0.9-1.4c0.3-0.2,0.8-0.1,1.1,0c0.7,0.2,1.5,0.4,2,0.9c0.2,0.2,0.3,0.4,0.3,0.6c-0.8,0.3-1.5,0.7-2.1,1.4
				c-0.4,0-0.7,0-1.1-0.2C65.3,335.5,65.2,335.4,65.1,335.4z M64.2,334.7c-0.5-0.2-1-0.3-1.5-0.3c0.1-0.2,0.2-0.3,0.3-0.5
				c0.1-0.3,0.2-0.5,0.3-0.8c0.5,0.1,0.9,0.1,1.4,0c-0.2,0.2-0.4,0.5-0.5,0.9C64.1,334.2,64.1,334.5,64.2,334.7
				C64.2,334.7,64.2,334.7,64.2,334.7C64.2,334.7,64.2,334.7,64.2,334.7z M62.5,330.6c-0.3-0.2-0.7-0.4-1-0.5
				c-0.3-0.8-0.2-1.7,0-2.6c0.5-1.8,2.1-3.3,3.9-4.1c0.7,0,1.3-0.2,1.8-0.5c0.6-0.1,1.1-0.1,1.6-0.1c1.3,0.6,1.3,2.4,1.1,3.9
				c-0.5,0.8-0.8,1.7-0.9,2.6c-0.6,1-1.4,1.7-2.8,2.2c-1,0.4-1.8,0.7-2.6,0.5C63.4,331.5,63.1,331,62.5,330.6z M59,330.4
				c-0.3-0.1-0.9-0.4-0.9-0.4c0,0,0-0.1,0-0.1c-0.5-0.6-1.2-0.6-1.9-0.4c-0.1-0.1-0.2-0.3-0.3-0.4c0.2,0,0.3,0,0.5,0
				c1.2,0,2.9-0.3,4.1-1c-0.2,0.7-0.3,1.3-0.2,2C59.8,330,59.4,330.2,59,330.4z M56.1,330.6c0.1,1-1,1.7-1.9,1.6
				c-0.4,0-0.8-0.2-1.2-0.3c-0.8-0.3-2.2-1.1-1.6-2.1c0.9-1.1,2.2-1.4,3.5-0.7C55.4,329.3,56,329.9,56.1,330.6z M50.6,329.2
				c-0.1-0.3-0.2-0.5-0.4-0.8c0.3-0.1,0.5-0.2,0.8-0.4c2.3-1.6-0.8-2.8-2.1-3.7c-0.7-0.2-1.3-0.4-2-0.6c0.1-0.1,0.2-0.3,0.3-0.5
				c0-0.1,0.1-0.2,0.1-0.3c1.2,0.4,2.6,0.4,3.9,0.3c0,1.1,0.6,2.4,1,3.4c0.3,0.6,0.7,1.1,1.3,1.5c-0.8,0.1-1.6,0.6-2.2,1.3
				c-0.2-0.1-0.3-0.2-0.5-0.2C50.7,329.3,50.6,329.3,50.6,329.2z M48,327.5c-0.8-0.4-1.7-0.8-2.1-1.1c-0.3-0.2-2.2-1.1-2.1-1.5
				c0.1-0.4,1.5-0.4,1.8-0.4c0.9,0,1.6,0.4,2.5,0.7c0.6,0.4,4.3,2.1,2.2,2.8c-0.3,0.1-0.6,0.1-0.9,0C48.9,327.7,48.5,327.5,48,327.5
				z M44.7,326.9c-0.6-0.2-1.3-0.4-1.9-0.6c0.2-0.3,0.4-0.6,0.5-0.9c0,0.7,1.2,1.3,1.9,1.7C45,327,44.8,326.9,44.7,326.9z
				 M42.2,323.4c-0.4-0.3-0.7-0.7-0.8-1.1c0-0.1,0-0.3,0-0.5c0.9-0.3,1.5-1.2,2-2.1c0.2,0,0.3,0,0.5,0.1c0,0,0.1,0,0.1,0
				c1.2,0.3,2.2,0.6,2.6,1.9c0.3,0.7,0.4,1.5-0.3,2c-0.7-0.1-1.4,0-2,0.3c-0.6-0.1-1.2-0.2-1.8-0.5
				C42.4,323.6,42.3,323.5,42.2,323.4z M40.7,322c0,0,0.1,0,0.1,0c-0.1,0.4,0,0.7,0.1,1c-0.3-0.1-0.6-0.1-1-0.2
				c0.1-0.3,0.2-0.6,0.2-0.8C40.2,322,40.4,322,40.7,322z M46.8,309.2c0.6,0,1-0.2,1.3-0.7c0.3,0.2,0.7,0.4,1.1,0.5
				c-0.5,0.2-0.9,0.5-1.2,1.1c-0.2,0.3-0.3,0.7-0.3,1C47.5,310.5,47.2,309.8,46.8,309.2z M51.4,310.6c1,0.9,2.6,1.6,4.1,1.4
				c0.2,0.2,0.4,0.5,0.4,0.8c0,0.7-0.7,1.6-1.3,1.9c-0.6,0.3-1.1,0.3-1.7,0.3c-1.1,0-2.3-0.2-3.3-0.6c-0.5-0.3-0.8-0.6-1.2-1
				c-0.2-0.2-0.4-0.5-0.5-0.8c0.2-0.9,0.4-1.8,0.6-2.7c0.5-0.5,1.5-0.5,2.2-0.5c0.1,0,0.1,0,0.2,0C51,309.9,51.1,310.3,51.4,310.6z
				 M57.2,311.2c0,0.4,0.1,0.7,0.3,1c0.9,1.2,2.9,1.2,4.1,1.2c0.3,0,0.7,0,1.2-0.1c-0.2,0.2-0.3,0.4-0.3,0.7c-0.1,0.2-0.1,0.4,0,0.6
				c-0.6-0.3-1.2-0.5-1.9-0.6c-2-0.2-5.5-0.1-6.3,2.3c0,0.1,0,0.2-0.1,0.3c-0.6-0.4-1.2-0.7-1.8-0.9c1.2,0.1,2.4-0.1,3.1-1
				c0.8-0.9,0.8-1.8,0.4-2.7c0.1,0,0.2,0,0.2-0.1C56.5,311.7,56.9,311.5,57.2,311.2z M63.6,312.9c0.3-0.2,0.8-0.1,1.1,0
				c0.7,0.2,1.5,0.4,2,0.9c0.9,0.9-0.7,1.8-1.5,2c-0.3,0.1-0.6,0-1,0c-0.5-0.4-0.9-0.7-1.4-1c-0.1-0.1-0.1-0.3-0.1-0.5
				C62.6,313.8,63.2,313.1,63.6,312.9z M81.8,328.6c0.2,0,0.5,0,0.7,0.1c-0.3,0.9-0.3,1.8-0.2,2.7c-0.3-0.2-0.6-0.3-1-0.4
				C81.7,330.2,81.9,329.5,81.8,328.6z M56.4,328.4c-2.5,0.2-4.3-1.5-4.7-3.8c-0.1-0.4-0.1-0.9-0.1-1.2c0.6-0.1,1.3-0.3,1.8-0.5
				c1.2-0.4,2-1.2,2.3-2c2,0,3.5,1.3,4.8,2.6c0.9,0.9,0.8,0.8,0.5,2.3c-0.3,1.3-0.2,1.4-1.2,2C58.8,328.4,57.7,328.4,56.4,328.4z
				 M46.9,320.7c-0.3-0.5-0.6-0.8-1.1-1c0.6-0.7,0.7-1.9,0.5-2.9c1.8-1.9,5-1.6,7-0.2c0.2,0.2,0.5,0.3,0.7,0.5
				c0,0.9,0.5,1.7,1.3,2.3c0,0.6-0.2,1.3-0.7,1.9c-1.5,1.9-5.1,2.3-7.4,1.4C47.4,322.1,47.3,321.4,46.9,320.7z M56,320.2
				c0-0.1,0-0.2,0-0.3c0.2,0.1,0.4,0.2,0.6,0.4C56.4,320.3,56.2,320.2,56,320.2z M59.4,321.5c0.1,0,0.2,0.1,0.3,0.1
				c1.1,0.5,3,1.5,4.8,1.7c-0.9,0.6-1.7,1.3-2.5,2C62,323.9,60.9,322.5,59.4,321.5z M64.8,322.7c-1.8-0.1-3.1-0.8-4.7-1.6
				c0,0,0,0,0,0c0,0,0,0,0,0c-1.7-0.6-3.8-1.3-4.9-2.8c-2.4-3.2,2.8-4.1,5-3.9c2.5,0.3,5.1,2.5,6.6,4.5
				C68,320.7,67,322.9,64.8,322.7z M71,324c0.4,0.1,0.8,0.2,1.1,0.3c-0.4,0.2-0.8,0.5-1.1,0.8C71.1,324.7,71.1,324.3,71,324z
				 M74.5,323.1c0-0.1,0.1-0.2,0.1-0.3c0.1,0.2,0.1,0.4,0.2,0.6c-0.2,0-0.4,0-0.6,0.1C74.4,323.4,74.5,323.3,74.5,323.1z
				 M74.9,320.1C75,320.1,75,320.1,74.9,320.1C75,320.1,75,320.1,74.9,320.1C74.9,320.1,74.9,320.1,74.9,320.1z M74.4,322.2
				c-0.2,0.6-0.4,1.1-1.1,1.3c-0.8,0.2-1.9,0.2-2.6-0.1c-2.1-0.9-1.9-3.3-0.3-4.6c1-0.8,2.3-0.9,3.4-0.4c0.1,0.6,0.4,1.1,0.9,1.5
				C74.8,320.6,74.7,321.4,74.4,322.2z M74.1,316.8c-0.2,0.4-0.3,0.8-0.4,1.1c-2.7-1.5-5.7,1.4-4.7,4.1c-0.4-0.1-0.9-0.1-1.2-0.1
				c0.7-1.6-0.4-3.3-1.5-4.3c-0.6-0.6-1.1-1.1-1.7-1.6c0,0,0.1,0,0.1,0c0.3,0,0.6-0.1,0.9-0.2c0.2,1,0.7,1.9,1.6,2.3
				c1.2,0.6,2.6-0.1,3.8-0.5c1.1-0.3,2.2-0.6,3.2-1.1C74.1,316.7,74.1,316.7,74.1,316.8z M49.5,315c0.1,0,0.2,0.1,0.3,0.1
				c-1,0-2.1,0.2-3,0.6c-0.2,0.1-0.5,0.3-0.7,0.4c0,0,0,0-0.1-0.1c0.1-0.1,0.2-0.1,0.3-0.2c0.8-0.6,1.4-1.7,1.5-2.8
				C48.2,313.9,48.7,314.5,49.5,315z M45.8,316.6c0.2,0.7,0.4,2.3-0.2,2.9c-0.4-0.2-0.9-0.3-1.4-0.4c0,0,0,0,0,0
				c-0.2-0.1-0.4-0.1-0.5,0c0.2-0.8,0.1-1.6-0.3-2.3c0.7,0,1.5-0.2,2.1-0.5C45.6,316.4,45.7,316.5,45.8,316.6z M43.4,324.7
				c-0.1,0.1-0.2,0.2-0.2,0.3c0-0.1,0-0.2,0-0.3C43.3,324.7,43.4,324.7,43.4,324.7z M66.3,336C66.3,336,66.3,336,66.3,336
				C66.3,336,66.3,336,66.3,336C66.3,336,66.3,336,66.3,336z M66.7,332.6c-0.1,0-0.2,0-0.3-0.1c0.9-0.5,1.7-1.1,2.3-1.8
				c0,0,0.1-0.1,0.1-0.1c0,0.4,0,0.7,0.1,1.1c0.1,0.8,0.4,1.7,0.8,2.4c-0.2,0-0.5,0.1-0.7,0.2C69,333.3,67.4,332.8,66.7,332.6z
				 M76.9,334.4c-0.1,0.2-0.1,0.4-0.1,0.6c-0.1,0-0.3-0.1-0.4-0.1c-0.1,0-0.2-0.1-0.3-0.1C76.3,334.7,76.6,334.6,76.9,334.4z
				 M77.8,334c1.1-0.6,2.3-1.4,3.1-2.4c0.8,0.4,1.6,1,2.3,1.6c0.4,0.5,1,1.2,1.7,1.7c0.6,0.9,0.9,2,1,3.2c-1.7-0.5-3.7-1-5.2-0.4
				c-0.7-1-1.9-1.8-3-2.3C77.6,334.9,77.7,334.5,77.8,334z M86.6,336.6c0-0.3-0.1-0.6-0.2-0.9c0.3,0.1,0.5,0.2,0.8,0.2
				C86.9,336.1,86.7,336.4,86.6,336.6C86.6,336.7,86.6,336.7,86.6,336.6z M84.2,326.3C84.2,326.3,84.1,326.3,84.2,326.3
				c-0.1,0.1-0.2,0.1-0.3,0.1c-0.5,0.4-0.9,1-1.2,1.7c-0.3,0-0.7-0.1-1-0.1c-0.1-0.4-0.3-0.7-0.5-1.1c-1.3-2.1-3.3-3.2-5.5-3.4
				c-0.5-0.8-0.7-1.8-0.5-2.7c0-0.2,0.1-0.4,0.2-0.5c0.6,0.3,1.2,0.6,1.9,0.5c0.6-0.1,1.2-0.5,1.6-1c0.3,0.2,0.5,0.4,0.7,0.6
				c0.1,0.1,0.2,0.3,0.3,0.4C78.6,323.3,81.5,325.3,84.2,326.3z M96.2,320C96.2,320,96.2,320,96.2,320C96.2,320,96.2,320.1,96.2,320
				c-0.1,0.1-0.1,0.1-0.1,0.1l0,0c-0.6,1,0.3,1.8,1.2,2.3c-0.5,0.1-1,0.2-1.4,0.4c-0.1-0.9-0.6-1.7-1.3-2.4
				C95.2,320.4,95.7,320.3,96.2,320c0.1-0.2,0.2-0.2,0.3-0.3C96.4,319.8,96.3,319.9,96.2,320z M89.5,318.6c2.1,0.5,4.3,1.6,5,3.8
				c1.8,5.4-6.3,4.2-8.9,3.4c-1.8-0.6-4.3-1.5-4.8-3.6C79.6,317.8,87.2,318,89.5,318.6z M78.5,315.6c-0.2-0.1-0.3-0.2-0.5-0.2
				c0.3-0.1,0.5-0.3,0.7-0.4C78.5,315.1,78.4,315.3,78.5,315.6C78.5,315.6,78.5,315.6,78.5,315.6z M76.2,315.2
				c-0.1,0-0.3,0.1-0.4,0.1c0.1-0.1,0.2-0.3,0.3-0.4C76.2,315,76.2,315.1,76.2,315.2z M65.7,312.9c-0.1-0.1-0.3-0.1-0.4-0.1
				c0.2-0.1,0.4-0.2,0.6-0.3C65.8,312.6,65.8,312.7,65.7,312.9z M42.8,311.6c0-0.2-0.1-0.3-0.1-0.4c0-0.3,0-0.5-0.1-0.8
				c-0.1-0.5-0.4-0.9-0.8-1.2c0,0,0,0-0.1,0c-0.1-0.7,0.3-1.3,0.9-1.8c0.1-0.1,0.2-0.1,0.2-0.2c0.3-0.2,0.7-0.4,1.1-0.4
				c0.6,1,1.5,2,2.4,2.3c0.5,0.9,1,1.8,1.2,3c0.2,1.9-1.1,3.8-2.9,4.3c-1.8,0.6-3.2-0.1-2.8-2C42,313.4,42.8,312.6,42.8,311.6z
				 M53.6,332.9c0-0.1,0.1-0.2,0.1-0.3c1,0.1,2-0.3,2.6-1.3c0.3-0.5,0.3-0.9,0.2-1.3c0.4,0,0.8,0.1,1.1,0.5c0,0,0,0,0,0
				c0.1,0.2,0.3,0.2,0.4,0.3c0.1,0.1,0.2,0.1,0.3,0.2c-0.2,0.2-0.4,0.4-0.5,0.7c-0.6,1.1-0.5,2.4,0.6,3.1c0,0,0,0,0,0c0,0,0,0,0,0
				c0.1,0,0.2,0.1,0.3,0.1c-0.7,0.7-1.7,1.1-2.8,1.1C54,335.9,53.2,334.7,53.6,332.9z M58.3,334.3c-1.6-1,0-3,1-3.5
				c1.1-0.6,2.7-0.4,3.6,0.5c0.9,0.9,0,2.4-0.9,3.2c-0.5,0.1-0.9,0.2-1.3,0.4c-0.2,0.1-0.3,0.1-0.5,0.2
				C59.5,335,58.9,334.6,58.3,334.3z M80.8,341.2c0.6-1.1,0.6-2.1,0.2-2.9c1.9-0.5,4.4,0.6,6.2,1.2c0.4,0.2,1,0.4,1.3,0.7
				c0,0.1,0.1,0.1,0.1,0.2c-2.7-0.6-6.1,0.4-5.8,3.1c0.1,0.3,0.2,0.6,0.4,0.9c-1.2,0.3-2.4,0.5-3.2-0.4c-0.4-0.4-0.6-0.9-0.8-1.5
				C79.8,342.2,80.4,341.9,80.8,341.2z M90.7,341.3c-0.3-0.3-0.7-0.5-1.2-0.7c0.1-1.1-0.8-1.3-1.7-1.9c0,0,0,0,0,0c0,0,0,0,0,0
				c-0.1,0-0.2-0.1-0.4-0.1c-0.6-1.4,0.2-2.7,1.6-3.1c-0.1-0.1-0.2-0.1-0.3-0.2c0.2-0.2,0.4-0.5,0.5-0.8c0.6-1.5,0.2-3.7-0.7-5.5
				c-0.1-0.3-0.3-0.5-0.4-0.8c-0.3-0.4-0.6-0.8-0.9-1.2c0.6,0.1,1.1,0.1,1.7,0.1c0.3,0,0.6,0,0.8,0c0.6,0,1.1-0.1,1.6-0.2
				c0.4-0.1,0.7-0.2,1.1-0.3c0.5,0.5,1,1.1,1.3,1.6c0.1,0.2,0.2,0.4,0.3,0.7c0.1,0,0.1,0,0.2,0.1c0.8,0.2,1.9,0.1,3-0.1
				c0.5-0.4,0.9-0.8,1.4-1.1c-0.7,0.2-1.4,0.4-1.9,0.5c-1,0.2-2.3,0.3-3.1-0.5c-0.4-0.4-0.6-0.9-0.6-1.3c0.7-0.3,1.3-0.7,1.9-1.2
				c0.7-0.6,1.1-1.3,1.2-1.9c1.5-0.6,3.5-0.8,4.7,0.3c0.4,0.4,0.5,1.2,0.4,1.7c-0.1,0.5-0.3,1-0.7,1.3c0.3-0.2,0.6-0.3,1-0.5
				c0.2-0.4,0.4-0.9,0.4-1.3c0.3,0.3,0.7,0.6,1.1,0.8c0.1,0,0.2,0.1,0.3,0.1c0.7,0.2,1.5,0,2.2-0.4c0.4-0.2,0.7-0.4,1-0.7
				c-0.1,0.3-0.1,0.6-0.1,0.9c0,0.3,0.1,0.6,0.2,1c0.1,0.3,0.2,0.6,0.4,0.9c0.1,0.3,0.3,0.5,0.5,0.7c0.2,0.2,0.4,0.4,0.6,0.6
				c0.7,0.6,1.4,0.9,2.2,1.1c-0.6,0.4-0.9,0.6-1.8,1c-1.1,0.4-1.7,0.4-2.9,0.6c-0.1,0-0.2,0-0.3,0.1c-0.2,0-0.5,0.1-0.7,0.2
				c-0.8,0.2-1.5,0.6-2,1.1c0,0,0,0-0.1,0.1c-0.1,0.1-0.1,0.2-0.2,0.2c-0.1,0-0.2,0-0.3,0c0,0-0.1,0-0.1,0c-1.4,0-2.8,0.2-4.1,0.8
				c-0.3,0.1-0.5,0.3-0.8,0.4c-0.4,0.2-0.8,0.5-1.1,0.9c-0.9,0.9-1.3,1.8-1.2,2.6c-0.1,0-0.2,0-0.3-0.1c-0.9-0.3-1.3-1.1-1-1.9
				c0.4-1.1,1.3-2.2,2.5-2.5c-0.1-0.1-0.2-0.2-0.2-0.4c-0.8,0.4-1.5,0.9-2.1,1.6c-0.4,0.5-0.8,1.1-1,1.8c-0.3-0.2-0.5-0.4-0.8-0.6
				c-0.2,0.1-0.4,0.1-0.6,0.1c0.8,0.7,1.6,1.5,2.2,2.3c0.5,0.6,0.9,1.3,0.5,2.1c-0.5,1.1-1.5,1.6-2.8,1.2
				C90.8,341.3,90.8,341.3,90.7,341.3z M104.8,321.3c0.8,0.4,1.7,0.7,1.9,1.7c0.3,1.5-1.7,2.6-3,2.2c-0.7-0.2-1.9-1.2-1.9-2.1
				C101.9,321.5,103.5,320.8,104.8,321.3z M112.4,322.5c0.9,0.1,1.9,0.4,2.8,0.7c0.3,0.5,0.8,0.9,1.6,1.1c0.6,0.1,1.2,0.1,1.9,0.1
				c0.4,0.2,0.8,0.5,1.1,0.9c0.1,0.1,0.1,0.2,0.2,0.3c-0.1,0.3-0.2,0.7-0.1,1.1c0.1,0.5,0.4,0.9,0.7,1.3c-0.4,1.1-1.4,1.7-2.5,1.8
				c-1.5,0.2-3.1,0.3-4.6,0c-0.6-0.1-1.4-0.5-2.1-0.4c-2-0.6-4.4-1.3-4.5-3.7C106.9,322.9,110.2,322.2,112.4,322.5z M117.4,319.1
				c1.5-0.9,4.4-1.6,5.8-0.3c0.4,0.4,0.5,1.2,0.4,1.7c-0.2,2-2.8,2.6-4.4,3c-1,0.2-2.3,0.3-3.1-0.5
				C114.7,321.7,116.1,319.9,117.4,319.1z M125.6,317.5c0.5-0.3,1.2-0.4,1.8-0.5c-0.1,0.1-0.1,0.3-0.1,0.4c0,1.3,3,1.8,3.8,2
				c0.4,0.1,1.3,0.3,2.3,0.3c0.7,0.7,0.7,0.8,0.4,2.1c-0.3,1.3-0.2,1.4-1.2,2c-1.1,0.7-2.2,0.7-3.4,0.7c-2.5,0.2-4.3-1.5-4.7-3.8
				C124.1,319.2,124.3,318.1,125.6,317.5z M132.7,316.2c0.6,0.6,1.5,0.7,2.1,1.3c1.8,1.9-2.6,1.5-3.5,1.3c-0.8-0.1-1.6-0.3-2.3-0.6
				c-0.6-0.2-1.6-0.4-1.2-1.1C128.6,315.9,131.5,315.7,132.7,316.2z M134.2,316.6c0.2-0.9,0.4-1.8,0.6-2.7c0.5-0.5,1.5-0.5,2.2-0.5
				c1.7,0.1,3.3,0.9,4.4,2.2c0.2,0.3,0.7,0.7,0.7,1.1c0,0.7-0.7,1.6-1.3,1.9c-0.6,0.3-1.1,0.3-1.7,0.3c-1.1,0-2.3-0.2-3.3-0.6
				c-0.1-0.1-0.2-0.2-0.3-0.2c-0.2-0.6-0.6-0.9-1.1-1.2C134.3,316.8,134.2,316.7,134.2,316.6z M110.1,342.3
				c-0.9-1.1,0.7-2.2,1.6-2.6c1.1-0.5,2.7-0.5,3.8-0.1c1.5,0.5,4.2,3.5,1.2,3.9c-1,0.2-2.1,0-3.1-0.1
				C112.6,343.3,110.9,343.2,110.1,342.3z M128,326.6c0,0.1,0,0.2-0.1,0.3c-0.2,0.1-0.5,0.3-0.7,0.5c-0.6,0.5-1,1.1-1.1,1.6
				c-2,0.8-4.8-0.1-5.4-2.3c-0.3-2.3,2.1-3.3,4.3-3c0.1,0,0.2,0,0.4,0.1c0,0,0,0,0,0c0.6,0.6,1.4,1.1,2.2,1.2
				C128,325.4,128.1,326,128,326.6z M134.2,327.5C134.2,327.5,134.2,327.6,134.2,327.5c0.7,0.3,1.2,0.8,1.4,1.5
				c-0.2,0.1-0.3,0.2-0.5,0.4c-0.6,0.6-0.9,1.4-1,2.2c-0.3,0.1-0.5,0.2-0.8,0.3c-1.2-0.2-2.7-0.3-4,0c-0.5-0.1-0.9-0.3-1.2-0.5
				c-0.4-0.3-0.9-0.7-1.1-1.1c-1.6-3.3,2.7-3.6,4.2-3.5C132.2,326.9,133.2,327.2,134.2,327.5z M134.1,332.1
				C134.1,332,134.1,332,134.1,332.1c-0.1,0-0.2,0-0.2-0.1c0.1,0,0.1-0.1,0.2-0.1C134.1,331.9,134.1,332,134.1,332.1z M129,340.7
				c-0.1-0.1-0.3-0.1-0.4-0.2c-0.4-0.1-0.9-0.2-1.3-0.2c0.1-0.6,0-1.2-0.1-1.8c0.3,0.1,0.6,0.2,1,0.2c0.5,0,0.9,0,1.4,0
				c-0.2,0.3-0.3,0.7-0.4,1.2C129,340.2,129,340.5,129,340.7z M126.7,340.3c-1.6,0-3.5,0.5-4.5,1.6c-0.3-0.1-0.5-0.2-0.7-0.3
				c-1.5-0.8-2.4-1.6-4-1.5c-0.5-0.4-1-0.8-1.6-0.9c-0.9-0.3-2.2-0.3-3.5,0c-0.1-0.1-0.1-0.1-0.2-0.2c-0.9-1.3-1.6-3,0.1-4.5
				c0.5-0.4,1.2-0.6,1.8-0.8c3.4-1.2,6.2-0.2,9.3,0.8c0.5,0.3,0.9,0.8,1.3,1.3c-0.1,1,0.4,1.9,1.2,2.4
				C126.5,338.9,126.7,339.6,126.7,340.3z M108,339.2C108,339.2,108,339.2,108,339.2C107.9,339.2,107.9,339.2,108,339.2
				c-2.6-0.7-6.6-0.5-8.3,1.7c0,0-0.1,0.1-0.1,0.1c-1.7-0.6-3.6-1.5-4.1-3.3c-1.1-4.4,6.5-4.2,8.8-3.6c2.1,0.5,4.3,1.6,5,3.8
				c0.3,0.8,0.3,1.4,0.2,1.9C109,339.6,108.5,339.4,108,339.2z M98.5,343.1c0.1-0.1,0.2-0.2,0.3-0.3c0,0.2,0,0.3,0,0.5
				C98.7,343.2,98.6,343.2,98.5,343.1z M104.4,332c1.2-0.4,2.5,0.1,3.7-0.4c0.9-0.3,1.6-1.1,2.4-1.4c0,0,0,0,0.1,0
				c0.1,0,0.2-0.1,0.3-0.1c0.5,0.2,1,0.3,1.5,0.6c0.1,0,0.1,0,0.2,0c0.9,0.9,1.1,1.8,0.8,2.7c-0.5,0.3-1.1,0.6-1.6,1.1
				c-0.4,0.4-0.7,0.8-0.8,1.3c-0.4,0.2-0.8,0.4-1.3,0.6c-1.1-1.4-3.1-2.6-4.6-3c-0.7-0.2-1.6-0.3-2.4-0.4
				C103.1,332.6,103.6,332.3,104.4,332z M121.5,328.6c0.2,0.1,0.3,0.2,0.5,0.3c-0.2,0-0.4,0-0.6,0.1c0,0,0,0,0,0
				C121.4,328.8,121.4,328.7,121.5,328.6z M126.1,329.5c0,0.1,0,0.3,0,0.4c-0.3-0.1-0.6-0.2-0.9-0.3
				C125.5,329.6,125.8,329.5,126.1,329.5z M110.3,340.1c0.7-1.1,0.5-2.3-0.2-3.3c0.3-0.1,0.6-0.3,0.9-0.4c0,0,0,0,0,0
				c-0.1,1,0.3,2.1,0.9,3C111.3,339.5,110.8,339.8,110.3,340.1C110.3,340.1,110.3,340.1,110.3,340.1z M118.4,330.4
				c-0.3,0.5-0.4,1,0,1.7c0.1,0.2,0.2,0.3,0.4,0.5c0,0,0,0.1,0,0.1c-1.5-0.2-3-0.2-4.4,0.3c0.2-0.8,0.1-1.6-0.5-2.4
				c0.2,0,0.4,0.1,0.5,0.1C115.8,330.8,117,330.7,118.4,330.4C118.4,330.4,118.4,330.4,118.4,330.4z M124.5,334.5
				c0.3,0.1,0.5,0.1,0.8,0.1c-0.1,0.2-0.1,0.3-0.2,0.4C124.9,334.8,124.7,334.6,124.5,334.5z M125.6,334.1c-0.9-0.1-1.7-0.4-2.5-0.7
				c-0.9-0.3-1.9-0.5-2.9-0.8c-0.4-0.1-0.9-0.3-1.2-0.6c-0.6-0.7-0.4-1.3,0.6-1.7c0.5-1,1.3-1.3,2.3-1c1.2,0.3,3,0.6,4.4,1.2
				c0.3,0.6,0.8,1,1.5,1.4c0,0.1,0,0.2,0,0.4c-0.8,0.3-1.6,0.8-2.1,1.5C125.8,333.9,125.7,334,125.6,334.1z M124.7,322.8
				c0.1,0.2,0.3,0.4,0.4,0.6c-1.7-0.2-3.6,0.2-4.6,1.2c-0.2-0.2-0.5-0.4-0.7-0.6c1.6-0.4,3.2-1.3,4-2.4c0.1-0.1,0.1-0.2,0.2-0.4
				C124.2,321.8,124.5,322.4,124.7,322.8z M94.5,338.3c0.1,0.2,0.1,0.4,0.2,0.6c-0.1,0.1-0.1,0.2-0.2,0.3c-0.1-0.3-0.2-0.6-0.3-0.8
				C94.2,338.3,94.4,338.3,94.5,338.3z M118.6,342.4c0.1-0.6-0.1-1.2-0.5-1.7c1.5,0.1,2.3,1,3.7,1.9c-0.1,0.2-0.1,0.5-0.1,0.7
				C120.8,342.9,119.7,342.7,118.6,342.4z M134.1,319.6c0.7-0.1,1.2-0.3,1.4-0.8c0.1,0,0.1,0.1,0.2,0.1c1.5,0.6,3.6,1,5.1,0.2
				c-0.1,0.8-0.3,1.5-0.4,2c-0.6,1.8-1.5,2.7-3.3,3.5c-1.5,0.6-2.6,1-3.9-0.3c-0.1-0.1-0.1-0.2-0.2-0.3c0.9-0.5,1.6-1.3,1.7-2.4
				C134.7,321,134.5,320.2,134.1,319.6z M129.8,338.4c-2.3,0.2-4.7-0.4-3.9-3c0.9-3.1,5-4,7.8-3.2c0.1,0,0.3,0.1,0.5,0.2
				c0,1.2,0.4,2.3,1,3.1c0.1,0.1,0.1,0.1,0.2,0.2c-0.4,0.6-1.1,1.2-1.8,1.6C132.1,337.2,130.6,337.4,129.8,338.4z M149.8,317.2
				c0.6,0.6,1,1.5,1.6,2.1c-1,0.3-1.9,0.8-2.7,1.5c-0.6,0.6-0.9,1.1-1.1,1.7c-1.4-1.3-2.6-3-2.2-4.8
				C146,315,148.5,315.9,149.8,317.2z M161.4,316.5c0-0.1,0.1-0.2,0.1-0.3c1.9,0.4,4.3,0.1,5.7-1.2c0.3-0.3,0.6-0.7,0.8-1.1
				c0.6,0.2,1.3,0.5,1.5,1.2c0.4,1.6-1.9,3-3.1,3.4C164.4,319.3,160.5,319.4,161.4,316.5z M159,314c-1.6-3.3,2.7-3.6,4.2-3.5
				c1.1,0.1,2.1,0.4,3.1,0.7c0,0,0,0,0,0c1,0.4,1.7,1.3,1.4,2.4c-0.3,1.4-1.8,1.8-3,2c-1.4,0.2-3.3,0.1-4.6-0.6
				C159.8,314.9,159.3,314.5,159,314z M161.1,309.3c1.5-0.2,2.7-0.9,3.1-2.3c0.1,0.1,0.1,0.1,0.2,0.2c0.6,0.9,0.3,2.2-0.4,2.9
				c-0.8-0.1-1.5-0.2-2.2-0.1C161.5,309.9,161.3,309.6,161.1,309.3z M156.2,306.5c-0.3-2.3,2.1-3.3,4.3-3c0.3,0,0.6,0.1,0.9,0.2
				c1.3,0.4,2.3,1.3,2.1,2.8C163,310.1,157.1,309.7,156.2,306.5z M166.2,299.4c0.8,0.2,1.6,0.5,2.2,1.1c0.4,0.4,0.8,0.6,0.9,1.1
				c0.1,0.5-0.2,1.5-0.3,2c-0.4,1.4-2.2,3.8-3.9,2.6c-0.5-0.3-0.9-1-1.2-1.4c-0.9-1.5-1.1-3.5,0.1-4.8
				C164.8,299.1,165.2,299.1,166.2,299.4z M172.5,298.3L172.5,298.3c0.1,0.2,0.1,0.3,0.2,0.5c-0.6,1.1-0.6,2.5,0.4,3.7
				c0.3,0.3,0.7,0.6,1.3,0.8c0,0.2,0,0.5-0.1,0.7c-1.6,0.2-2.9,0.8-3.3,2.7c0,0.2-0.1,0.4-0.1,0.5c-1.5,0.2-2.6-0.5-2.2-2.1
				c0,0,0-0.1,0-0.1c0.3-0.4,0.5-0.8,0.6-1.3c0.2-0.4,0.4-0.9,0.4-1.4c0-0.1,0-0.2-0.1-0.3c0.2-1.2,0.2-1.2-0.8-2
				c-0.1-0.1-0.2-0.1-0.2-0.2C168.5,298,171.5,296.4,172.5,298.3z M181,291.4c1.2-0.4,2.5,0.1,3.7-0.4c1.4-0.6,2.5-2.3,4.2-1.2
				c3.4,2.9-0.8,5.7-3.7,6.4c-1.6,0.4-3.4,0.6-4.8-0.4C178.6,294.4,178.4,292.2,181,291.4z M181.1,301.3c1.5,0.5,4.2,3.5,1.2,3.9
				c-1,0.2-2.1,0-3.1-0.1c-1.1-0.1-2.8-0.2-3.5-1.1c-0.1-0.1-0.2-0.3-0.2-0.4c1.1,0.2,2.2-0.1,2.6-1.1c0.2-0.4,0.3-0.9,0.4-1.4
				C179.3,301,180.3,301.1,181.1,301.3z M185.2,306.6c0.7,0.2,1.6,0.5,1.7,1.3c0.4,1.6-1.9,3-3.1,3.4c-1.7,0.6-5.2,0.8-5.1-1.4
				c1-0.5,1.7-1.5,1.8-2.8C181.9,306.3,183.8,306.2,185.2,306.6z M178.3,316c-1.2-0.3-2.5-1.3-3.2-2.3c-1-1.5-0.2-3,1.2-3.4
				c0.1,0,0.3,0,0.4,0c0.5,0,0.9,0,1.3-0.1c0,0,0.1,0,0.1,0c0.2,0.8,0.8,1.5,1.8,1.7c0.2,0.3,0.5,0.5,0.7,0.8
				c0.5,0.6,0.9,1.3,0.5,2.1C180.6,315.9,179.6,316.4,178.3,316z M169.3,319.9c-0.1-0.1-0.3-0.1-0.4-0.2c-0.1,0-0.1,0-0.2,0
				c-0.8-0.3-1.6-0.5-2.5-0.7c1.1-0.3,2.2-0.8,3-1.6c0,0.1-0.1,0.2-0.1,0.3C168.8,318.6,168.9,319.3,169.3,319.9z M169.1,314.1
				c-0.4-0.3-0.7-0.7-0.8-1.1c0-0.1,0-0.3,0-0.5c0.9-0.3,1.5-1.2,2-2.1c0.2,0,0.3,0,0.5,0.1c0,0,0.1,0,0.1,0
				c1.2,0.3,2.2,0.6,2.6,1.9c0.3,0.7,0.4,1.6-0.3,2.1c-0.5,0.4-1.1,0.4-1.7,0.4c-0.7,0-1.5-0.2-2.1-0.6
				C169.3,314.2,169.2,314.2,169.1,314.1z M167.7,311.1c-0.7-0.2-1.4-0.4-2.1-0.5c0,0,0,0,0,0c-0.4-0.4-0.5-0.8-0.5-1.2
				c0.1-0.4,0.2-0.7,0.3-1.1c0.6-1.4,1.9-1.9,3.1-1.4c0.1,0.1,0.2,0.2,0.3,0.3c0.2,0.1,0.3,0.2,0.5,0.3c0.8,0.8,1,1.7,0.8,2.8
				c-0.2,0.6-0.4,0.8-0.9,1.3c-0.3,0.3-0.7,0.5-1,0.6c-0.1-0.2-0.3-0.5-0.5-0.7C167.7,311.2,167.7,311.1,167.7,311.1z M164.5,310.2
				C164.5,310.3,164.5,310.3,164.5,310.2C164.5,310.3,164.5,310.3,164.5,310.2C164.5,310.3,164.5,310.3,164.5,310.2z M168.1,305.9
				c-0.1,0-0.1,0-0.2,0c0.1-0.1,0.1-0.1,0.2-0.2C168.1,305.8,168.1,305.9,168.1,305.9z M165.2,307.5c-0.1-0.4-0.2-0.7-0.4-0.9
				c0.3,0.2,0.6,0.3,0.9,0.3C165.6,307.1,165.4,307.3,165.2,307.5z M174,304.5c0.4,0,0.9,0,1.3,0c0.8,0.6,2.4,0.9,3.2,1
				c0.3,0,0.7,0.1,1,0.1c0.1,0.1,0.3,0.2,0.4,0.3c0.9,1-0.1,2.9-1.2,3.5c-0.7,0.3-1.2,0.3-2,0.3c-1.6-0.1-4.8,0-5.5-1.9
				C170.5,305.8,172.6,304.7,174,304.5z M173.8,311.4c-0.3-0.5-0.6-0.8-1.1-1c0.1-0.2,0.2-0.4,0.3-0.6c0.7,0.2,1.4,0.3,2.1,0.4
				c-0.5,0.3-1,0.7-1.3,1.4C173.9,311.5,173.9,311.4,173.8,311.4z M174.8,303.9C174.8,303.9,174.8,303.9,174.8,303.9
				C174.8,304,174.8,304,174.8,303.9C174.8,303.9,174.8,303.9,174.8,303.9z M172.8,309.7c-0.1,0.2-0.2,0.4-0.3,0.5
				c-0.4-0.2-0.9-0.3-1.4-0.4c0,0,0,0,0,0c-0.2-0.1-0.4-0.1-0.5,0c0.2-0.8,0.1-1.6-0.3-2.3c0.2,0,0.4,0,0.6-0.1
				C171,308.6,171.7,309.3,172.8,309.7z M170.6,315.5c1.3,0.2,2.8,0,3.4-1.3c0.1-0.2,0.1-0.4,0.2-0.5c0.7,1.1,2.2,2,3.2,2.4
				c0.7,0.3,1.5,0.5,2.2,0.5c-0.1,0.3-0.3,0.6-0.4,0.9c-1.1-0.9-2.3-1.6-3.9-1.8c-1.6-0.2-4.1-0.1-5.5,1.1c0.3-0.4,0.3-0.8,0.3-1.2
				C170.3,315.4,170.4,315.4,170.6,315.5z M180.9,312.1c0.9,0,1.8,0,2.7-0.3c-0.6,0.5-1.2,1-1.8,1.6
				C181.6,313,181.3,312.5,180.9,312.1z M180.6,306.6c0-0.4-0.1-0.7-0.3-0.9c1,0.1,2.1,0,3-0.4c0,0,0,0,0,0c0,0.3,0,0.6,0,0.9
				C182.3,306.1,181.4,306.3,180.6,306.6z M183.4,302.2c0.3,0,0.6,0,0.9,0c-0.2,0.2-0.3,0.4-0.4,0.7
				C183.8,302.6,183.6,302.4,183.4,302.2z M178.5,300.8c0-0.1,0-0.2,0-0.4c0.5-0.1,0.9-0.4,1.3-0.7c0,0.4,0.2,0.7,0.4,1
				C179.6,300.7,179,300.8,178.5,300.8z M174.6,323.1c-0.7,0.4-1.3,0.9-1.8,1.4c0,0,0,0,0,0.1c-0.2-1-0.7-2-1.4-2.8
				C172.5,322.3,173.8,322.8,174.6,323.1z M180.7,296.9c0.2,1.1-1,2.4-1.8,2.9c-1.2,0.6-2.1,0-3.2-0.5c-1.6-1,0-3,1-3.5
				c0.5-0.3,1.2-0.4,1.8-0.3C179.1,296.2,179.8,296.7,180.7,296.9z M175.8,299.7C175.8,299.7,175.8,299.7,175.8,299.7
				C175.8,299.7,175.8,299.7,175.8,299.7c0.7,0.4,1.5,0.9,2.3,0.9c-0.1,0.3-0.1,0.7-0.3,1c-0.2,0.6-0.4,1.1-1.1,1.3
				c-0.8,0.2-1.9,0.2-2.6-0.1c-2.1-0.9-1.9-3.3-0.3-4.6c0.3-0.3,0.7-0.4,1.1-0.5C174.8,298.4,175.1,299.2,175.8,299.7z M80.8,319.5
				c-0.2,0.2-0.4,0.4-0.5,0.6c-0.3-0.3-0.6-0.6-0.9-0.8c0,0-0.1,0-0.1-0.1c0,0,0,0,0-0.1c0.4-0.8,0.6-1.6,0.3-2.3
				c0.9,0.4,2.1,0.6,2.6,0.7c0.3,0.1,1,0.2,1.8,0.3C82.8,318.1,81.7,318.6,80.8,319.5z M109.7,343.1c0.1-0.1,0.1-0.2,0.2-0.3
				c0.4,0.3,0.9,0.5,1.5,0.6c-0.9,0-1.7,0.1-2.4,0.5C109.2,343.7,109.5,343.4,109.7,343.1z"/>
			<path fill="#AD9383" d="M180.6,307.1c-0.1,1.3-0.8,2.2-1.8,2.8c-0.1,2.2,3.4,2.1,5.1,1.4c1.2-0.4,3.5-1.8,3.1-3.4
				c-0.2-0.8-1-1.1-1.7-1.3C183.8,306.2,181.9,306.3,180.6,307.1z"/>
			<path fill="#CFBDA7" d="M171.2,307.8c0.7,1.9,3.9,1.8,5.5,1.9c0.7,0,1.3,0,2-0.3c1.1-0.6,2.1-2.5,1.2-3.5
				c-0.1-0.1-0.3-0.2-0.4-0.3c-0.4,0-0.7-0.1-1-0.1c-0.8-0.1-2.3-0.3-3.2-1c-0.4,0-0.9,0-1.3,0C172.6,304.7,170.5,305.8,171.2,307.8
				z"/>
			<path fill="#828079" d="M178.4,301.2c-0.1,0.5-0.2,0.9-0.4,1.4c-0.4,1-1.5,1.3-2.6,1.1c0,0.1,0.1,0.3,0.2,0.4
				c0.8,0.9,2.5,1,3.5,1.1c0.9,0.1,2.1,0.3,3.1,0.1c3-0.5,0.3-3.4-1.2-3.9C180.3,301.1,179.3,301,178.4,301.2z"/>
			<path fill="#6D777A" d="M163.9,304.7c0.3,0.5,0.8,1.1,1.2,1.4c1.7,1.3,3.5-1.1,3.9-2.6c0.1-0.5,0.4-1.5,0.3-2
				c-0.1-0.5-0.5-0.7-0.9-1.1c-0.7-0.5-1.4-0.9-2.2-1.1c-1-0.2-1.4-0.3-2.2,0.5C162.8,301.2,163,303.2,163.9,304.7z"/>
			<path fill="#514E4E" d="M173.8,298.2c-1.6,1.2-1.8,3.7,0.3,4.6c0.8,0.3,1.8,0.4,2.6,0.1c0.7-0.2,0.8-0.7,1.1-1.3
				c0.1-0.4,0.2-0.7,0.3-1c-0.8,0-1.6-0.5-2.3-0.9c0,0,0,0,0,0c0,0,0,0,0,0c-0.7-0.5-1-1.2-0.9-2
				C174.5,297.8,174.2,297.9,173.8,298.2z"/>
			<path fill="#9F8D84" d="M176.8,295.7c-1.1,0.6-2.6,2.5-1,3.5c1,0.6,2,1.2,3.2,0.5c0.8-0.4,2-1.8,1.8-2.9
				c-0.9-0.2-1.6-0.7-2.1-1.5C178,295.3,177.3,295.4,176.8,295.7z"/>
			<path fill="#CFBDA7" d="M127.8,317.1c-0.5,0.7,0.5,0.9,1.2,1.1c0.8,0.3,1.5,0.5,2.3,0.6c0.8,0.2,5.2,0.6,3.5-1.3
				c-0.6-0.6-1.5-0.8-2.1-1.3C131.5,315.7,128.6,315.9,127.8,317.1z"/>
			<path fill="#B7BCC0" d="M180.4,295.8c1.4,1,3.2,0.8,4.8,0.4c3-0.7,7.1-3.5,3.7-6.4c-1.7-1-2.7,0.7-4.2,1.2
				c-1.2,0.5-2.5,0-3.7,0.4C178.4,292.2,178.6,294.4,180.4,295.8z"/>
		</g>
	</g>
</g>
<g id="ch06-02-3">
	<g id="Layer_28">
	</g>
	<g id="hand_1_" display="none">
	</g>
	<g id="hand_x5F_copy" display="none">
	</g>
	<g id="hand_new">
	</g>
	<g id="hand_new_copy">
	</g>
</g>
<g id="ch05-08-3">
	<g id="main_x5F_comp-path_backup_copy">
	</g>
	<g id="main_x5F_comp_2_">
	</g>
</g>
<g id="ch04-07-2">
	<g id="new_base_1_">
	</g>
	<g id="hand">
	</g>
</g>
<g id="ch04-06-1">
	<g id="paths_1_" display="none">
		<g id="Layer_15_copy" display="inline">
		</g>
	</g>
	<g id="hand_w_jug_x5F_comp">
	</g>
	<g id="hand_w_jug_copy">
	</g>
</g>
<g id="ch04-03-2">
	<g id="paths" display="none">
		<g id="nose_x5F_34_x5F_side_path_x5D_" display="inline">
		</g>
		<g id="nose_x5F_34_x5F_side_path_x5D__copy" display="inline">
		</g>
	</g>
	<g id="main_comp_1_">
		<g id="base">
		</g>
		<g id="nose_x5F_34_x5F_side">
		</g>
		<g id="LID">
		</g>
	</g>
	<g id="base_copy">
	</g>
	<g id="nose_x5F_34_x5F_side_copy">
	</g>
	<g id="LID_copy">
	</g>
</g>
<g id="ch04-02-1">
	<g id="backup">
	</g>
</g>
<g id="ch07-12-4">
	<g id="hand_x5F_far">
	</g>
	<g id="hand_x5F_close_1_">
	</g>
	<g id="hand_x5F_far_copy">
	</g>
	<g id="hand_x5F_close_copy">
	</g>
</g>
<g id="ch08-04-1">
</g>
<g id="ch08-11-1">
	<g id="safety_x5F_copy" display="none">
		<g id="nose_copy" display="inline">
		</g>
		<g id="spout_copy" display="inline">
		</g>
		<g id="water_copy_2" display="inline">
		</g>
		<g id="sand_copy_2" display="inline">
		</g>
		<g id="back_copy_2" display="inline">
		</g>
		<g id="side_copy" display="inline">
		</g>
	</g>
	<g id="back_2_">
	</g>
	<g id="water" opacity="0.5">
	</g>
	<g id="sand">
	</g>
	<g id="side">
	</g>
	<g id="nose_7_">
	</g>
	<g id="spout_1_">
	</g>
	<g id="water_copy" opacity="0.5">
	</g>
	<g id="sand_copy">
	</g>
	<g id="nose_copy_2">
	</g>
	<g id="nose_copy_3">
	</g>
	<g id="back_copy">
	</g>
	<g id="back_copy_3">
	</g>
	<g id="side_copy_2">
	</g>
	<g id="side_copy_3">
	</g>
	<g id="spout_copy_2">
	</g>
	<g id="spout_copy_3">
	</g>
</g>
<g id="ch03-30-7">
</g>
<g id="ch03-30-8">
</g>
</svg>
