<?xml version="1.0" encoding="utf-8"?>
<!-- Generator: Adobe Illustrator 18.1.1, SVG Export Plug-In . SVG Version: 6.00 Build 0)  -->
<!DOCTYPE svg PUBLIC "-//W3C//DTD SVG 1.1//EN" "http://www.w3.org/Graphics/SVG/1.1/DTD/svg11.dtd">
<svg version="1.1" xmlns="http://www.w3.org/2000/svg" xmlns:xlink="http://www.w3.org/1999/xlink" x="0px" y="0px"
	 viewBox="0 0 1428.3 479.2" enable-background="new 0 0 1428.3 479.2" xml:space="preserve">
<g id="Capa_1">
</g>
<g id="back_x5F_bubbles">
</g>
<g id="middle_x5F_bubbles">
	<g>
		<g opacity="0.5">
			<circle fill="#C4CABF" cx="464.2" cy="168.6" r="25.9"/>
			<path fill="#B1C5BA" d="M457.5,183.8c-2.6-0.2-5.3-0.7-7.6-2.1s-3.9-4-3.6-6.6c1.3,0.1,2.6,0.1,3.9,0.2c2.9,3.2,5.9,6.2,9.2,9.1"
				/>
			<path fill="#B1C5BA" d="M446.4,155.8c-0.6-1-0.6-2.4,0-3.4s1.7-1.7,2.9-1.8c0.5,1,0.5,2.3-0.2,3.2s-1.8,1.4-2.9,1.3"/>
			<g>
				<g>
					<path fill="#93BDAF" d="M462.6,140.7c-22.3,3-34.7,33.6-16.9,49.5c9.5,8.4,24.2,8.6,33.9,0.5c7.1-6,12.2-16.2,11.7-25.5
						C490.5,150.2,477.3,139.5,462.6,140.7c-1.2,0.1-1.9,4.3-2.5,4.3c11.6-1,22.7,5.4,27,16.4c2.6,6.8,2.6,16-2.1,21.9
						c-4,5-10.4,8.1-16.7,8.8c-11.5,1.2-22.8-5.5-27-16.4c-2.6-6.8-2.6-16,2.1-21.9c4.1-5.1,10.4-7.9,16.7-8.8
						C461.4,144.9,462,140.8,462.6,140.7z"/>
				</g>
			</g>
			<path fill="#D5E0DA" d="M478.3,151.6c-3.9-1.9-8.2-3.2-12.5-3.8c-2.2-0.3-5-0.2-5.9,1.9c-0.7,1.5,0.2,3.3,1.4,4.4
				c1.2,1.1,2.8,1.8,4.1,2.8c3.7,2.7,5.2,7.5,6.5,11.9c0.6,2,1.1,4.2,0.1,6.1c-0.6,1-1.5,1.7-2.4,2.4c-2.1,1.6-4.2,3.1-6.3,4.7
				c4.5,1.5,9.3,2.2,14,2.1c2.7-0.1,5.5-0.5,7.6-2.2c1-0.8,1.8-1.9,2.6-3c1.5-2.2,3-4.4,3.6-6.9c1.1-4.2-0.2-8.8-2.7-12.3
				C485.9,156.1,482.2,153.5,478.3,151.6z"/>
		</g>
		<g opacity="0.5">
			<circle fill="#C4CABF" cx="1316.3" cy="153.8" r="13.1"/>
			<path fill="#B1C5BA" d="M1318.7,161.9c-1.1,0.8-2.3,1.5-3.6,1.7c-1.3,0.2-2.8-0.3-3.6-1.4c0.5-0.4,1-0.8,1.5-1.2
				c2.2,0.3,4.4,0.4,6.5,0.5"/>
			<path fill="#B1C5BA" d="M1305.2,154.7c-0.6-0.2-1-0.7-1.1-1.3s0.1-1.2,0.5-1.6c0.5,0.2,0.9,0.7,1,1.3c0.1,0.6-0.2,1.2-0.7,1.5"/>
			<g>
				<g>
					<path fill="#93BDAF" d="M1307.7,142.9c-4.5,5.2-7.8,12.7-4.2,19.4c4.3,7.9,15.3,9.1,21.4,2.6c4.5-4.8,7.6-12.2,4.7-18.5
						c-3.9-8.8-15.2-10-21.7-3.6c-1,1-1.7,3.6-2.3,4.3c4.2-4.2,10.6-5.4,15.9-2.5c4.9,2.8,9.4,11.1,5.4,16.3
						c-3.7,4.7-11.4,5-16.2,2.1c-4.5-2.8-9.1-11.3-5-16.1c0.7-0.8,1.4-1.9,1.8-2.9C1307.6,143.6,1308.3,142.1,1307.7,142.9z"/>
				</g>
			</g>
			<path fill="#D5E0DA" d="M1316.1,142.6c-2.2,0.6-4.2,1.5-6.1,2.7c-1,0.6-2,1.6-1.6,2.7c0.2,0.8,1.2,1.2,2,1.2
				c0.8,0,1.7-0.2,2.5-0.3c2.3-0.2,4.5,1.2,6.4,2.5c0.9,0.6,1.8,1.3,2.1,2.3c0.1,0.6,0,1.2-0.1,1.7c-0.3,1.3-0.6,2.6-0.9,3.9
				c2.2-0.9,4.3-2.2,6.1-3.8c1-0.9,2-2,2.2-3.4c0.1-0.7,0.1-1.4,0-2c-0.1-1.3-0.3-2.7-0.9-3.9c-1-2-3-3.3-5.1-3.8
				C1320.5,141.8,1318.3,142,1316.1,142.6z"/>
		</g>
		<g opacity="0.5">
			<circle fill="#C4CABF" cx="483.5" cy="99" r="11.9"/>
			<g>
				<g>
					<path fill="#93BDAF" d="M471.1,99.9c0.5,8.4,8.8,14.6,16.9,10.9c4.6-2.1,8-7.6,8-12.6c0-8.5-9.1-14.5-16.9-10.9
						C474.3,89.4,471.3,94.8,471.1,99.9c0-0.3,1-1.1,1.1-1.7c0.8-15.1,22.8-11.9,22.8,1.7c0,7.1-7.1,11.3-13.5,9.9
						c-5.6-1.2-9.1-6.1-9.4-11.6C472.1,98.4,471,99.3,471.1,99.9z"/>
				</g>
			</g>
			<path fill="#B1C5BA" d="M489.9,100c0-1.7-0.8-1.9-2.2-3c-0.7-0.6-1.6-1-2.3-1.6s-1.3-1.5-1.1-2.4c0.2-1,1.3-1.7,2.4-1.8
				c2.9-0.3,5.1,2.3,6.8,4.6c0.5,0.7,1,1.4,1.2,2.3c0.2,1.2-0.6,2.4-1.7,2.8S490.6,101,489.9,100"/>
		</g>
		<g opacity="0.5">
			<circle fill="#C4CABF" cx="136.3" cy="372.5" r="8.1"/>
			<g>
				<g>
					<path fill="#93BDAF" d="M130.8,377.2c-2.8-3.4-3.1-8.7,1.2-11c3.2-1.7,7.3-1,9.8,1.6c3,3.3,2.9,8.7-1.2,11
						C137.2,380.6,133.4,379.8,130.8,377.2c0,0-1.1,1.3-0.9,1.5c3.8,3.8,9.8,3.2,12.8-1.2c2.4-3.4,2.9-7.9-0.1-11.2
						c-7.6-8.2-19.5,4.4-12.7,12.4C129.9,378.6,131,377.4,130.8,377.2z"/>
				</g>
			</g>
			<path fill="#B1C5BA" d="M139,369.1c0.8,0.9,0.5,1.3,0.3,2.5c-0.1,0.6-0.3,1.2-0.4,1.8c-0.1,0.6,0.1,1.3,0.6,1.7
				c0.6,0.4,1.4,0.2,2-0.2c1.5-1.2,1.5-3.5,1.2-5.4c-0.1-0.6-0.1-1.2-0.5-1.7c-0.5-0.7-1.4-0.9-2.1-0.6
				C139.4,367.5,138.9,368.3,139,369.1"/>
		</g>
		<g opacity="0.5">
			<circle fill="#C4CABF" cx="767.3" cy="59.7" r="15.9"/>
			<g>
				<g>
					<path fill="#93BDAF" d="M751.1,57.4c-1.8,11.1,7.6,21.3,19.1,18.8c6.7-1.5,11.9-7.6,13.3-14.3c2.2-11.1-8-21.3-19.1-18.8
						C757.4,44.7,752.7,50.8,751.1,57.4c0.1-0.4,1-1.2,1.1-1.8c4.8-19.3,34.1-10.2,30.1,8.2c-2.1,9.5-13.4,13.2-21.5,9.3
						c-6.6-3.2-9.7-10.3-8.6-17.4C752.1,56,751.2,56.8,751.1,57.4z"/>
				</g>
			</g>
			<path fill="#B2C5BB" d="M775.4,62.7c0.5-2.3-0.6-2.7-2-4.5c-0.8-1-1.8-1.7-2.6-2.7s-1.2-2.3-0.8-3.5c0.6-1.3,2.2-1.9,3.6-1.7
				c3.8,0.4,6,4.4,7.6,7.9c0.5,1,1,2.1,0.9,3.3c-0.1,1.6-1.4,3-2.9,3.3S776,64.1,775.4,62.7"/>
		</g>
		<g opacity="0.5">
			<circle fill="#C4CABF" cx="1037.5" cy="20.4" r="11.9"/>
			<g>
				<g>
					<path fill="#93BDAF" d="M1026.5,26.4c4.1,7.2,14,8.8,19.7,2.4c3.4-3.9,4.6-9.5,2.2-14.3c-3.8-7.5-14.2-8.6-19.7-2.4
						C1025.2,16.1,1024.3,21.5,1026.5,26.4c-0.1-0.1,0.7-0.8,0.6-1c-3.2-7.1,0.8-15.5,8.9-16.3c4.8-0.5,9.6,2.1,11.8,6.4
						c3.5,7-1,15.5-8.9,16.3c-5,0.5-9.3-2.2-11.8-6.4C1027.2,25.4,1026.4,26.1,1026.5,26.4z"/>
				</g>
			</g>
			<path fill="#B2C5BB" d="M1043.6,18.4c-0.8-1.5-1.6-1.3-3.3-1.7c-0.9-0.2-1.9-0.2-2.8-0.4c-0.9-0.2-1.8-0.8-2.1-1.7
				c-0.3-1,0.4-2.1,1.3-2.7c2.4-1.5,5.6-0.3,8.1,1c0.8,0.4,1.6,0.8,2.1,1.5c0.7,1,0.6,2.4-0.2,3.3
				C1046,18.7,1044.6,18.9,1043.6,18.4"/>
		</g>
		<g opacity="0.5">
			<circle fill="#C4CABF" cx="923" cy="190.7" r="12.7"/>
			<g>
				<g>
					<path fill="#93BDAF" d="M922.7,204.1c5.7-0.4,10.1-3.8,12.3-9c3.5-8.4-2.5-18-11.7-17.9c-5.6,0-10.2,3.9-12.3,8.9
						C907.3,194.8,913.5,203.7,922.7,204.1c0.4,0,0.7-1.5,0.9-1.5c-5.2-0.2-9.8-2.9-11.9-7.9c-3.1-7.7,2.6-15.8,10.7-15.9
						c4.9-0.1,9.6,2.9,11.6,7.3c3.8,8.1-2.1,16-10.5,16.5C923.2,202.6,922.9,204.1,922.7,204.1z"/>
				</g>
			</g>
			<path fill="#D5E0DA" d="M923.9,183.9c-1.8,0-2,0.9-3.1,2.3c-0.6,0.8-1,1.7-1.7,2.4c-0.6,0.8-1.6,1.4-2.6,1.2
				c-1.1-0.2-1.8-1.4-1.9-2.5c-0.3-3,2.4-5.4,4.8-7.3c0.7-0.5,1.5-1.1,2.4-1.3c1.2-0.2,2.6,0.6,3,1.7
				C925.4,181.7,925,183.1,923.9,183.9"/>
		</g>
		<g opacity="0.5">
			<circle fill="#C4CABF" cx="541.5" cy="117.4" r="11.9"/>
			<g>
				<g>
					<path fill="#93BDAF" d="M531.1,111.7c3.5-4.9,10-6.6,15.3-3.8c5.4,2.9,8.1,9.7,4.9,15.1c-7.2,12.1-26.8,0-19.7-12.2
						c0.8-1.3,0.6-1.5-0.2-0.1c-3.3,5.6-3.5,12.7,2.1,17.1c5.9,4.7,14,2.5,17.9-3.5c3.3-5.2,4-11.8-0.6-16.5
						c-5.7-5.8-14.4-4.1-18.9,2.1C531.6,110.3,530.5,112.6,531.1,111.7z"/>
				</g>
			</g>
			<path fill="#B2C5BB" d="M547.3,120c-0.9,1.4-1.7,1.1-3.4,1.3c-0.9,0.1-1.9,0-2.8,0.1s-1.9,0.6-2.2,1.5c-0.4,1,0.2,2.1,1,2.8
				c2.3,1.8,5.5,0.8,8.2-0.2c0.8-0.3,1.6-0.6,2.2-1.3c0.8-0.9,0.8-2.3,0.2-3.3C549.8,120,548.4,119.6,547.3,120"/>
		</g>
		<g opacity="0.5">
			<circle fill="#C4CABF" cx="685.4" cy="13.9" r="11.9"/>
			<g>
				<g>
					<path fill="#93BDAF" d="M678.9,22.3c-4.9-4-7.2-12.2-1.4-16.8c4.1-3.3,10.2-3.2,14.4-0.1c5.1,3.8,7,12.4,1.4,16.8
						C689,25.6,683.2,25.3,678.9,22.3c-0.1-0.1-1.5,2.1-1.3,2.2c13.3,9,28.2-11.8,15.5-21.3c-13-9.8-27.7,11.4-15.5,21.3
						C677.6,24.6,679.1,22.6,678.9,22.3z"/>
				</g>
			</g>
			<path fill="#B2C5BB" d="M688.4,8.2c1.4,1,1,1.8,1.1,3.5c0,0.9-0.1,1.9-0.1,2.8c0.1,0.9,0.5,1.9,1.3,2.3c1,0.5,2.1-0.1,2.9-0.8
				c1.9-2.1,1.2-5.5,0.3-8.2c-0.3-0.8-0.5-1.7-1.1-2.3c-0.8-0.8-2.3-1-3.3-0.4C688.5,5.7,688,7.1,688.4,8.2"/>
		</g>
		<g opacity="0.5">
			<circle fill="#C4CABF" cx="388.5" cy="80.1" r="20.2"/>
			<g>
				<g>
					<path fill="#93BDAF" d="M367.7,81.1c0.5,13.6,13.5,23.7,26.8,19.1c8.5-3,14.8-12.2,14.8-21.2c0-13.6-13.9-23.7-26.8-19.1
						C373.8,63,368,72,367.7,81.1c0-0.4,1.3-1.4,1.3-2.1c0.4-12.2,11.9-20.3,23.6-17.4c9,2.2,15.4,10.3,15.5,19.6
						c0,12-11.7,19.9-23,17.6c-9.5-1.9-15.8-10.3-16.1-19.7C369,79.3,367.7,80.4,367.7,81.1z"/>
				</g>
			</g>
			<path fill="#D5E0DA" d="M397.1,68.4c-1.6-0.6-3.7-0.9-4.8,0.4c-0.4,0.5-0.6,1.1-0.7,1.7c-0.3,1.8-0.1,3.7,0.7,5.3
				c0.4,0.9,1,1.7,1.5,2.6c1.1,2.1,1.6,4.5,1.3,6.9c-0.3,2.1-1,4.7,0.7,6.1c2.5,0.3,5-1.3,6.4-3.5c1.4-2.2,1.8-4.7,2.1-7.3
				c0.3-3,0.3-6.3-1.6-8.7C401.3,70.1,399.2,69.1,397.1,68.4z"/>
			<path fill="#B1C5BA" d="M383.8,73.4c-1.1-0.3-1.7-1.8-1.1-2.8c2-0.2,3.8,2.1,3.1,4c-0.6,0.1-1.3,0.3-1.9,0s-1-1.1-0.6-1.6"/>
			<path fill="#B2C2B3" d="M392.5,69.1c-1.3,0.4-2.8,0.6-4.2,0.3c-0.9-0.7-1-2.1-0.3-3s2-1.2,3.1-1c0.9,0.2,1.9,0.8,2.1,1.7
				s-0.4,2.1-1.4,2.1"/>
		</g>
		<g opacity="0.5">
			<circle fill="#C4CABF" cx="842.7" cy="44.2" r="25.9"/>
			<g>
				<g>
					<path fill="#93BDAF" d="M816.4,44.8c0.3,12.6,9.2,23.7,21.9,25.7c10.7,1.7,21.2-3.6,26.7-12.8c5.3-8.8,5.5-19.9-0.3-28.5
						c-6.9-10.4-20.6-14.4-32-9.4C822.8,24,816.7,34.2,816.4,44.8c0-0.2,0.8-0.8,0.8-1.3c0.4-16,15.1-27.3,30.6-24.1
						c11.8,2.5,20.6,13.3,20.5,25.3c0,16-15.3,27.3-30.6,24.1c-12.1-2.5-20.2-13.2-20.5-25.3C817.2,43.7,816.4,44.4,816.4,44.8z"/>
				</g>
			</g>
			<path fill="#D5E0DA" d="M853.8,29.1c-2.1-0.7-4.8-1.2-6.2,0.5c-0.5,0.6-0.7,1.4-0.9,2.1c-0.4,2.3-0.1,4.7,0.9,6.8
				c0.6,1.2,1.3,2.2,1.9,3.3c1.4,2.7,2,5.8,1.6,8.8c-0.4,2.7-1.3,6.1,0.9,7.8c3.3,0.4,6.4-1.7,8.2-4.5c1.8-2.8,2.4-6.1,2.7-9.4
				c0.4-3.9,0.4-8.1-2-11.2C859.1,31.3,856.4,30.1,853.8,29.1z"/>
			<path fill="#B1C5BA" d="M836.6,35.6c-1.5-0.4-2.2-2.3-1.4-3.6c2.5-0.3,4.8,2.7,3.9,5.1c-0.8,0.2-1.7,0.4-2.4,0.1
				c-0.8-0.3-1.3-1.4-0.7-2"/>
			<path fill="#B2C2B3" d="M847.8,30c-1.7,0.6-3.6,0.7-5.3,0.4c-1.2-0.9-1.2-2.7-0.3-3.9c0.9-1.1,2.5-1.5,3.9-1.2
				c1.2,0.3,2.4,1,2.7,2.2c0.3,1.2-0.5,2.7-1.8,2.7"/>
		</g>
		<g opacity="0.5">
			<circle fill="#C4CABF" cx="1225.8" cy="46.4" r="19.8"/>
			<g>
				<g>
					<path fill="#93BDAF" d="M1205.5,47.1c0.4,13.3,13.3,23.3,26.3,18.8c8.3-2.9,14.2-11.5,14.2-20.3c0-13.4-13.6-23.2-26.3-18.8
						C1211.3,29.8,1205.8,38.4,1205.5,47.1c0-0.3,0.9-1,0.9-1.5c0.4-12.2,11.8-20.5,23.5-17.7c8.8,2.1,15.1,10.2,15.2,19.2
						c0,12-11.6,20.2-22.9,17.9c-9.3-1.9-15.5-10.1-15.8-19.4C1206.5,45.9,1205.5,46.7,1205.5,47.1z"/>
				</g>
			</g>
			<path fill="#D5E0DA" d="M1234.3,34.9c-1.6-0.6-3.7-0.9-4.8,0.4c-0.4,0.5-0.6,1-0.7,1.6c-0.3,1.8-0.1,3.6,0.7,5.2
				c0.4,0.9,1,1.7,1.5,2.6c1.1,2.1,1.5,4.4,1.2,6.7c-0.3,2.1-1,4.6,0.7,6c2.5,0.3,4.9-1.3,6.3-3.4c1.4-2.1,1.8-4.7,2.1-7.2
				c0.3-3,0.3-6.2-1.5-8.5C1238.4,36.6,1236.3,35.7,1234.3,34.9z"/>
			<path fill="#B1C5BA" d="M1221.1,39.9c-1.1-0.3-1.7-1.8-1.1-2.8c1.9-0.2,3.7,2.1,3,3.9c-0.6,0.1-1.3,0.3-1.9,0
				c-0.6-0.2-1-1-0.6-1.5"/>
			<path fill="#B2C2B3" d="M1229.7,35.6c-1.3,0.4-2.7,0.5-4.1,0.3c-0.9-0.7-1-2.1-0.3-3c0.7-0.9,1.9-1.2,3-0.9
				c0.9,0.2,1.8,0.8,2.1,1.7c0.3,0.9-0.4,2-1.3,2"/>
		</g>
		<g opacity="0.5">
			<circle fill="#C4CABF" cx="336.4" cy="100.3" r="11.8"/>
			<g>
				<g>
					<path fill="#93BDAF" d="M324.2,101c0.4,8.3,8.6,14.4,16.7,10.7c4.5-2,7.8-7.4,7.8-12.3c0-8.4-9-14.2-16.7-10.8
						C327.3,90.9,324.4,96,324.2,101c0-0.3,0.9-1,1-1.6c0.8-15,22.6-12,22.6,1.6c0,7.1-7,11.3-13.3,9.9c-5.5-1.2-8.9-6-9.2-11.5
						C325.1,99.7,324.1,100.5,324.2,101z"/>
				</g>
			</g>
			<path fill="#D5E0DA" d="M343.1,96c-0.8-0.6-1.2-0.1-1.4,0.2c-0.5,0.9,0.1,1.6,0.9,2.7c0.4,0.5,0.8,1.5,0.9,2.1
				c0.2,1.4-0.5,3.1-1.5,4c-0.9,0.9-4.4,2.4-3.7,3.5c1.4,0.6,3,0.1,4.2-0.8c1.1-1,1.9-2.3,2.5-3.7c0.7-1.6,1.3-3.5,0.7-5.1
				C345.1,97.6,344.1,96.7,343.1,96z"/>
			<path fill="#B1C6B5" d="M332.6,98.3c-0.7-0.2-1-1.1-0.7-1.7c1.2-0.1,2.2,1.2,1.8,2.3c-0.4,0.1-0.8,0.2-1.1,0
				c-0.3-0.1-0.6-0.6-0.3-0.9"/>
		</g>
		<g opacity="0.5">
			<circle fill="#C4CABF" cx="418.3" cy="214.6" r="3.5"/>
			<g>
				<g>
					<path fill="#93BDAF" d="M414.3,215.4c0.1,2.5,2.6,4.3,5,3.2c1.6-0.7,3-3.1,3-4.8c0-2.5-2.6-4.3-4.9-3.2
						C415.6,211.3,414.4,213.6,414.3,215.4c0-0.3,0.9-1,1-1.6c0.1-1.6,2-2.1,3.4-1.7c1.5,0.4,2.5,1.8,2.6,3.3c0,1.6-1.9,2.1-3.3,1.8
						c-1.6-0.4-2.6-1.7-2.7-3.4C415.3,214,414.3,214.8,414.3,215.4z"/>
				</g>
			</g>
			<path fill="#D5E0DA" d="M420.2,213.3c-0.2-0.2-0.4,0-0.4,0c-0.1,0.3,0,0.5,0.3,0.8c0.1,0.1,0.2,0.4,0.3,0.6
				c0.1,0.4-0.2,0.9-0.5,1.2c-0.3,0.3-1.3,0.7-1.1,1c0.4,0.2,0.9,0,1.2-0.2s0.6-0.7,0.7-1.1c0.2-0.5,0.4-1,0.2-1.5
				C420.8,213.8,420.5,213.5,420.2,213.3z"/>
			<path fill="#B1C6B5" d="M417.1,214c-0.2-0.1-0.3-0.3-0.2-0.5c0.3,0,0.6,0.4,0.5,0.7c-0.1,0-0.2,0.1-0.3,0
				C417,214.1,417,214,417.1,214"/>
		</g>
		<g opacity="0.5">
			<circle fill="#C4CABF" cx="573.3" cy="237.1" r="4.9"/>
			<g>
				<g>
					<path fill="#93BDAF" d="M568.5,241c2.1,2.9,6.1,2.8,8.3,0c1.7-2.2,3-5.2,1.2-7.8c-2-3-6.2-2.7-8.3,0
						C568,235.5,566.9,238.4,568.5,241c-0.1-0.2,1.6-1.8,1.3-2.3c-0.6-1-1-2.1-0.8-3.2c0.1-0.7,0.2-0.9,0.9-1.3
						c0.5-0.3,1-0.6,1.5-0.7c2-0.5,4.1,0.3,5.3,2c0.6,0.9,1,2.1,0.8,3.2c-0.1,0.7,0.2,0.5-0.5,1.1c-0.6,0.5-1.2,0.8-1.9,1
						c-2,0.5-4-0.4-5.3-2C570,238.9,568.2,240.6,568.5,241z"/>
				</g>
			</g>
			<path fill="#D5E0DA" d="M574.6,234.1c-0.4,0-0.5,0.2-0.5,0.4c0,0.4,0.4,0.5,0.9,0.7c0.2,0.1,0.6,0.3,0.8,0.5
				c0.4,0.4,0.5,1.2,0.4,1.8c-0.1,0.5-1,1.9-0.5,2.1c0.6-0.1,1.1-0.7,1.3-1.3c0.2-0.6,0.1-1.2,0-1.9c-0.1-0.7-0.4-1.5-1-1.9
				C575.7,234.2,575.1,234.1,574.6,234.1z"/>
			<path fill="#B1C6B5" d="M571.5,237.3c-0.3,0.1-0.6-0.1-0.6-0.4c0.4-0.3,1-0.1,1.2,0.4c-0.1,0.1-0.2,0.2-0.4,0.3
				c-0.2,0-0.3-0.1-0.3-0.2"/>
		</g>
		<g opacity="0.5">
			<circle fill="#C4CABF" cx="716.1" cy="32.3" r="9.5"/>
			<g>
				<g>
					<path fill="#93BDAF" d="M706.1,33.1c0.4,6.7,6.9,11.6,13.4,8.6c3.7-1.7,6.5-6.3,6.5-10.3c0-6.8-7.2-11.5-13.4-8.7
						C708.8,24.5,706.3,29,706.1,33.1c0-0.3,1-1.1,1-1.7c0.6-11.7,17.9-8.9,17.9,1.7c0,5.5-5.5,8.6-10.5,7.5c-4.4-1-7.2-4.8-7.4-9.2
						C707.1,31.7,706.1,32.6,706.1,33.1z"/>
				</g>
			</g>
			<path fill="#D5E0DA" d="M721.4,28.8c-0.6-0.5-1-0.1-1.1,0.1c-0.4,0.7,0,1.3,0.7,2.2c0.3,0.4,0.7,1.2,0.8,1.7
				c0.2,1.1-0.4,2.5-1.2,3.2c-0.7,0.7-3.5,2-3,2.8c1.1,0.5,2.4,0.1,3.3-0.6s1.5-1.9,2-3c0.6-1.3,1-2.8,0.5-4.1
				C723,30.2,722.2,29.4,721.4,28.8z"/>
			<path fill="#B1C6B5" d="M713,30.7c-0.5-0.1-0.8-0.9-0.5-1.3c0.9-0.1,1.8,1,1.4,1.9c-0.3,0.1-0.6,0.1-0.9,0s-0.5-0.5-0.3-0.7"/>
		</g>
		<g opacity="0.5">
			<circle fill="#C4CABF" cx="197.3" cy="40.3" r="15.2"/>
			<g>
				<g>
					<path fill="#93BDAF" d="M183.8,33.5c9.3-16.5,35.3-2.8,26.1,13.8c-9.1,16.4-33.3,2.4-25.8-14.4c0.3-0.6-0.6,0.8-0.7,1
						c-3.8,8.5-0.3,18.8,9.2,21.6c7.6,2.2,15.1-1.9,18.5-8.7c3.9-7.8,1-17.5-7.2-21.2c-8.1-3.6-16.2,0.5-20.3,7.7
						C183.2,34.3,183.3,34.4,183.8,33.5z"/>
				</g>
			</g>
			<path fill="#D5E0DA" d="M202.5,49.1c-1.3,0.2-1.5-0.6-1.5-1c0-1.4,1-1.8,2.6-2.6c0.7-0.3,1.8-1.2,2.3-1.8
				c1.1-1.4,1.2-3.8,0.6-5.5c-0.5-1.5-3.6-5.4-2.3-6.2c1.9,0.1,3.6,1.6,4.3,3.3c0.8,1.8,0.8,3.7,0.7,5.7c-0.1,2.3-0.5,4.7-2.2,6.3
				C205.8,48.3,204.1,48.8,202.5,49.1z"/>
			<path fill="#B1C6B5" d="M191.8,40.3c-0.9-0.2-1.8,0.6-1.7,1.5c1.3,0.8,3.2-0.1,3.4-1.6c-0.4-0.3-0.8-0.6-1.3-0.7
				c-0.5,0-1,0.4-0.9,0.8"/>
		</g>
		<g opacity="0.5">
			<circle fill="#C4CABF" cx="635.7" cy="129.4" r="16.4"/>
			<g>
				<g>
					<path fill="#93BDAF" d="M618.7,130.4c0.5,11.4,11.8,19.8,22.8,15.1c6.5-2.7,11.2-10.1,11.2-17.1c0-11.5-12.1-19.6-22.8-15.1
						C623.2,116,619,123.3,618.7,130.4c0-0.3,1.2-1.3,1.2-2c0.8-20.7,31.5-17.1,31.5,2c0,10-10,16.1-19.1,13.9
						c-7.4-1.8-12.1-8.4-12.4-15.8C619.9,128.7,618.7,129.7,618.7,130.4z"/>
				</g>
			</g>
			<path fill="#D5E0DA" d="M645,123.4c-1.1-0.8-1.7-0.2-2,0.2c-0.7,1.3,0.1,2.3,1.2,3.8c0.5,0.6,1.2,2.1,1.3,2.9
				c0.3,1.9-0.7,4.3-2.1,5.6c-1.2,1.2-6.1,3.4-5.2,4.9c1.9,0.9,4.2,0.2,5.8-1.1s2.6-3.2,3.4-5.1c1-2.2,1.8-4.8,0.9-7.1
				C647.8,125.7,646.4,124.5,645,123.4z"/>
			<path fill="#B1C6B5" d="M630.4,126.6c-0.9-0.3-1.4-1.5-0.9-2.3c1.6-0.2,3,1.7,2.5,3.2c-0.5,0.1-1.1,0.2-1.5,0s-0.8-0.9-0.5-1.3"
				/>
		</g>
		<g opacity="0.5">
			<circle fill="#C4CABF" cx="1225.8" cy="129.5" r="6.8"/>
			<g>
				<g>
					<path fill="#93BDAF" d="M1218.3,130.6c0.3,4.9,5,8.4,9.7,6.3c2.9-1.3,5.3-5.3,5.3-8.4c0-4.9-5.2-8.3-9.7-6.3
						C1220.6,123.5,1218.5,127.4,1218.3,130.6c0-0.4,1.3-1.4,1.3-2.2c0.2-3.7,4-5.2,7.3-4.3c2.9,0.8,5,3.5,5,6.5
						c0,3.6-3.9,5.1-7,4.4c-3.2-0.7-5.2-3.5-5.4-6.6C1219.7,128.8,1218.3,129.9,1218.3,130.6z"/>
				</g>
			</g>
			<path fill="#D5E0DA" d="M1229.7,127c-0.5-0.4-0.7-0.1-0.8,0.1c-0.3,0.5,0,0.9,0.5,1.6c0.2,0.3,0.5,0.9,0.5,1.2
				c0.1,0.8-0.3,1.8-0.9,2.3c-0.5,0.5-2.6,1.4-2.2,2c0.8,0.4,1.8,0.1,2.4-0.5c0.7-0.6,1.1-1.3,1.4-2.1c0.4-0.9,0.7-2,0.4-3
				C1230.8,128,1230.3,127.5,1229.7,127z"/>
			<path fill="#B1C6B5" d="M1223.6,128.4c-0.4-0.1-0.6-0.6-0.4-1c0.7-0.1,1.3,0.7,1,1.3c-0.2,0-0.4,0.1-0.6,0
				c-0.2-0.1-0.3-0.4-0.2-0.5"/>
		</g>
		<g opacity="0.5">
			<circle fill="#C4CABF" cx="1260.7" cy="175.5" r="9.6"/>
			<g>
				<g>
					<path fill="#93BDAF" d="M1252.4,182.3c4.1,5,11.5,5,15.5-0.2c3-3.9,4.2-9.2,1-13.4c-3.9-5.2-11.6-4.8-15.5,0.2
						C1250.4,172.9,1249.5,177.9,1252.4,182.3c-0.1-0.1,1.5-1.7,1.2-2.1c-3.2-4.7-2.2-11.1,3.7-12.9c3.8-1.1,8,0.3,10.4,3.4
						c3.4,4.5,2.1,11.2-3.7,12.9c-3.9,1.1-7.8-0.3-10.4-3.4C1253.7,180.3,1252.2,182,1252.4,182.3z"/>
				</g>
			</g>
			<path fill="#D5E0DA" d="M1262.9,169.5c-0.8,0-0.9,0.5-0.8,0.8c0.1,0.9,0.8,1,1.9,1.3c0.5,0.1,1.3,0.6,1.6,0.9
				c0.8,0.8,1.2,2.3,1,3.4c-0.2,1-1.7,3.7-0.7,4.1c1.2-0.3,2-1.4,2.3-2.6s0.1-2.4-0.2-3.6c-0.3-1.4-0.9-2.9-2.1-3.7
				C1265.1,169.6,1264,169.5,1262.9,169.5z"/>
			<path fill="#B1C6B5" d="M1257.3,176.1c-0.5,0.2-1.2-0.2-1.2-0.8c0.7-0.6,2-0.3,2.3,0.6c-0.2,0.2-0.4,0.5-0.7,0.6
				c-0.3,0.1-0.7-0.1-0.7-0.4"/>
		</g>
		<g opacity="0.5">
			<circle fill="#C4CABF" cx="1000.9" cy="117.4" r="7.3"/>
			<g>
				<g>
					<path fill="#93BDAF" d="M1007.1,121.4c2-3.5,2.2-7.8-1.2-10.5c-3.6-2.8-8.5-1.5-10.9,2.2c-2,3.2-2.5,7.2,0.3,10.1
						c3.5,3.5,8.8,2.5,11.5-1.3c0.1-0.2,0.9-1.7,0.5-1.2c-2.1,3-6,4-9.3,2.3c-3.3-1.7-4.9-5.9-3-9.1c4.3-7.3,16.2,0.1,11.9,7.4
						C1006.4,122.1,1006.6,122.3,1007.1,121.4z"/>
				</g>
			</g>
			<path fill="#D5E0DA" d="M996,117.4c0.2,0.6,0.6,0.5,0.8,0.4c0.6-0.3,0.5-0.9,0.5-1.7c0-0.4,0.1-1,0.2-1.4
				c0.3-0.8,1.3-1.4,2.1-1.6c0.8-0.1,3.1,0.2,3.1-0.6c-0.5-0.8-1.5-1.1-2.4-1c-0.9,0.1-1.7,0.6-2.5,1.1c-0.9,0.6-1.8,1.4-2.1,2.4
				C995.6,115.8,995.8,116.6,996,117.4z"/>
			<path fill="#B1C6B5" d="M1002.2,119.7c0.3,0.3,0.2,0.9-0.2,1.1c-0.6-0.3-0.7-1.4-0.1-1.8c0.2,0.1,0.4,0.2,0.6,0.4
				c0.1,0.2,0.1,0.5-0.1,0.6"/>
		</g>
		<g opacity="0.5">
			<circle fill="#C4CABF" cx="846.5" cy="258.5" r="7.3"/>
			<g>
				<g>
					<path fill="#93BDAF" d="M839.6,262.9c2.7,4.4,8.7,5.1,12.1,1.1c2.3-2.7,3.4-6.5,1.7-9.7c-2.5-4.6-8.8-4.9-12.1-1.1
						C839,255.9,838,259.5,839.6,262.9c-0.1-0.2,1.2-1.3,1-1.7c-1.9-3.9-0.2-8.4,4.5-9c2.9-0.4,5.9,1.1,7.3,3.7
						c2.1,3.9,0.1,8.4-4.5,9c-3,0.4-5.7-1.2-7.3-3.7C840.7,261.3,839.4,262.5,839.6,262.9z"/>
				</g>
			</g>
			<path fill="#D5E0DA" d="M848.8,254.3c-0.6-0.1-0.7,0.3-0.7,0.5c0,0.7,0.5,0.9,1.3,1.2c0.3,0.1,0.9,0.6,1.1,0.8
				c0.5,0.7,0.6,1.8,0.4,2.6c-0.2,0.7-1.7,2.6-1,3c0.9-0.1,1.7-0.8,2-1.7s0.3-1.8,0.2-2.7c-0.1-1.1-0.3-2.2-1.2-3
				C850.4,254.6,849.6,254.4,848.8,254.3z"/>
			<path fill="#B1C6B5" d="M843.9,258.6c-0.4,0.1-0.9-0.3-0.8-0.7c0.6-0.4,1.5,0,1.6,0.7c-0.2,0.2-0.4,0.3-0.6,0.3s-0.5-0.2-0.5-0.4
				"/>
		</g>
		<g opacity="0.5">
			<circle fill="#C4CABF" cx="866.8" cy="123.5" r="4.5"/>
			<g>
				<g>
					<path fill="#93BDAF" d="M862.6,126.1c1.7,2.7,5.4,3.2,7.5,0.7c1.4-1.6,2-3.9,0.9-5.9c-1.5-2.8-5.5-3.1-7.5-0.7
						C862.1,121.9,861.6,124.1,862.6,126.1c-0.1-0.1,0.6-0.7,0.5-0.9c-1.2-2.5-0.1-5.4,2.9-5.8c1.8-0.2,3.7,0.7,4.5,2.3
						c1.3,2.5,0,5.4-2.9,5.8c-1.9,0.2-3.6-0.7-4.5-2.3C863.2,125.3,862.5,125.9,862.6,126.1z"/>
				</g>
			</g>
			<path fill="#D5E0DA" d="M868.3,120.8c-0.4-0.1-0.4,0.2-0.4,0.3c0,0.4,0.3,0.5,0.8,0.8c0.2,0.1,0.6,0.3,0.7,0.5
				c0.3,0.4,0.4,1.1,0.2,1.6c-0.1,0.5-1,1.6-0.6,1.9c0.6,0,1-0.5,1.3-1c0.2-0.5,0.2-1.1,0.1-1.7c-0.1-0.7-0.2-1.4-0.7-1.8
				C869.3,121,868.8,120.9,868.3,120.8z"/>
			<path fill="#B1C6B5" d="M865.2,123.5c-0.3,0.1-0.5-0.2-0.5-0.4c0.4-0.3,1,0,1,0.4c-0.1,0.1-0.2,0.2-0.4,0.2
				c-0.1,0-0.3-0.1-0.3-0.2"/>
		</g>
		<g opacity="0.5">
			<circle fill="#C4CABF" cx="1384.7" cy="38.9" r="4.5"/>
			<g>
				<g>
					<path fill="#93BDAF" d="M1380.2,42c1.7,2.8,5.4,3.1,7.6,0.6c1.5-1.8,2.6-4.5,1.4-6.7c-1.6-2.9-5.5-3-7.6-0.6
						C1380,37.2,1379.1,39.7,1380.2,42c-0.1-0.2,1.2-1.3,1-1.8c-0.4-0.9-0.8-2.2-0.4-3.2c0.4-1,1.8-1.6,2.8-1.7
						c1.8-0.2,3.7,0.7,4.5,2.3c0.4,0.8,0.7,1.9,0.5,2.8c-0.3,1.3-1.7,2-2.9,2.1c-1.9,0.2-3.6-0.7-4.5-2.3
						C1381.4,40.4,1380,41.6,1380.2,42z"/>
				</g>
			</g>
			<path fill="#D5E0DA" d="M1386.2,36.3c-0.4-0.1-0.4,0.2-0.4,0.3c0,0.4,0.3,0.5,0.8,0.8c0.2,0.1,0.6,0.3,0.7,0.5
				c0.3,0.4,0.4,1.1,0.2,1.6c-0.1,0.5-1,1.6-0.6,1.9c0.6,0,1-0.5,1.3-1c0.2-0.5,0.2-1.1,0.1-1.7c-0.1-0.7-0.2-1.4-0.7-1.8
				C1387.2,36.5,1386.7,36.3,1386.2,36.3z"/>
			<path fill="#B1C6B5" d="M1383.1,39c-0.3,0.1-0.5-0.2-0.5-0.4c0.4-0.3,1,0,1,0.4c-0.1,0.1-0.2,0.2-0.4,0.2c-0.1,0-0.3-0.1-0.3-0.2
				"/>
		</g>
		<g opacity="0.5">
			<circle fill="#C4CABF" cx="1151.6" cy="108.9" r="7.4"/>
			<g>
				<g>
					<path fill="#93BDAF" d="M1144.6,113.3c2.7,4.5,8.9,5.2,12.3,1.1c2.3-2.7,3.5-6.6,1.7-9.9c-2.5-4.7-9-5-12.3-1.1
						C1143.9,106.2,1142.9,109.9,1144.6,113.3c-0.1-0.2,1.2-1.3,1-1.7c-2-4-0.2-8.6,4.6-9.2c3-0.4,6,1.2,7.4,3.8
						c2.2,4,0,8.6-4.6,9.2c-3.1,0.4-5.9-1.2-7.4-3.8C1145.7,111.8,1144.4,113,1144.6,113.3z"/>
				</g>
			</g>
			<path fill="#D5E0DA" d="M1154,104.5c-0.6-0.1-0.7,0.3-0.7,0.5c0,0.7,0.5,0.9,1.3,1.2c0.3,0.2,0.9,0.6,1.1,0.9
				c0.5,0.7,0.6,1.9,0.4,2.7c-0.2,0.8-1.7,2.7-1,3.1c0.9-0.1,1.7-0.8,2.1-1.7c0.3-0.9,0.3-1.8,0.2-2.8c-0.1-1.1-0.3-2.3-1.2-3
				C1155.6,104.8,1154.8,104.6,1154,104.5z"/>
			<path fill="#B1C6B5" d="M1148.9,109c-0.4,0.1-0.9-0.3-0.9-0.7c0.6-0.4,1.6,0,1.7,0.7c-0.2,0.2-0.4,0.3-0.6,0.3s-0.5-0.2-0.5-0.4"
				/>
		</g>
		<g opacity="0.5">
			<circle fill="#C4CABF" cx="657.7" cy="363.2" r="7.3"/>
			<g>
				<g>
					<path fill="#93BDAF" d="M663.9,367.2c2.1-3.6,2.6-8-1.1-10.9c-3.8-3-8.7-1.3-11.1,2.4c-2.1,3.3-3,7.5,0.1,10.7
						c3.5,3.6,8.8,2.4,11.6-1.4c0.3-0.5,0.8-1.1,0.9-1.6c0.1-0.4,0.2-0.5-0.2-0.1c-2.1,2.9-6,3.9-9.2,2.2c-2.9-1.5-5.1-5.7-3.2-8.7
						c4-6.8,15.9,0.5,11.9,7.3C662.9,368.4,663.1,368.6,663.9,367.2z"/>
				</g>
			</g>
			<path fill="#D5E0DA" d="M652.8,363.2c0.2,0.6,0.6,0.5,0.8,0.4c0.6-0.3,0.5-0.9,0.5-1.7c0-0.4,0.1-1,0.2-1.4
				c0.3-0.8,1.3-1.4,2.1-1.6c0.8-0.1,3.1,0.2,3.1-0.6c-0.5-0.8-1.5-1.1-2.4-1c-0.9,0.1-1.7,0.6-2.5,1.1c-0.9,0.6-1.8,1.4-2.1,2.4
				C652.3,361.7,652.5,362.5,652.8,363.2z"/>
			<path fill="#B1C6B5" d="M659,365.5c0.3,0.3,0.2,0.9-0.2,1.1c-0.6-0.3-0.7-1.4-0.1-1.8c0.2,0.1,0.4,0.2,0.6,0.4
				c0.1,0.2,0.1,0.5-0.1,0.6"/>
		</g>
		<g opacity="0.5">
			<circle fill="#C4CABF" cx="8.8" cy="88.5" r="7.3"/>
			<g>
				<g>
					<path fill="#93BDAF" d="M2.2,93.4c3,4.2,8.9,4.4,12,0.3c2.2-2.9,3.3-6.7,1.2-10c-2.8-4.3-9-4.2-12-0.3
						C1.1,86.3,0.2,90,2.2,93.4c-0.1-0.2,1.3-1.4,1-1.8c-2.2-3.7-1-8.2,3.5-9.2c2.9-0.7,6,0.6,7.7,3.1c2.3,3.6,0.9,8.2-3.5,9.2
						c-3,0.7-5.9-0.7-7.7-3.1C3.3,91.7,1.9,93,2.2,93.4z"/>
				</g>
			</g>
			<path fill="#D5E0DA" d="M10.8,84.1c-0.6,0-0.7,0.3-0.7,0.6c0.1,0.6,0.6,0.8,1.4,1.1c0.3,0.1,0.9,0.5,1.2,0.7
				c0.6,0.6,0.8,1.8,0.6,2.6c-0.2,0.7-1.5,2.7-0.8,3.1c0.9-0.1,1.6-0.9,1.9-1.8s0.2-1.8,0-2.7c-0.2-1.1-0.5-2.2-1.4-2.9
				C12.4,84.3,11.6,84.1,10.8,84.1z"/>
			<path fill="#B1C6B5" d="M6.1,88.8c-0.4,0.1-0.9-0.2-0.9-0.6c0.6-0.5,1.5-0.1,1.7,0.6c-0.2,0.2-0.3,0.3-0.6,0.4
				c-0.2,0-0.5-0.1-0.5-0.4"/>
		</g>
		<g opacity="0.5">
			<circle fill="#C4CABF" cx="117.1" cy="23.3" r="7.3"/>
			<g>
				<g>
					<path fill="#93BDAF" d="M123.3,27.2c2-3.4,2.1-7.7-1.3-10.4c-3.6-2.8-8.5-1.5-10.9,2.2c-2,3.1-2.4,7.2,0.4,10
						c3.5,3.5,8.8,2.5,11.4-1.3c0.1-0.2,0.8-1.6,0.5-1.1c-2.1,3-6,4-9.3,2.3c-3.3-1.7-4.9-5.9-3-9.2c4.4-7.4,16.3,0,12,7.4
						C122.7,28,122.8,28.1,123.3,27.2z"/>
				</g>
			</g>
			<path fill="#D5E0DA" d="M112.3,23.3c0.2,0.6,0.6,0.5,0.8,0.4c0.6-0.3,0.5-0.9,0.5-1.7c0-0.4,0.1-1,0.2-1.4
				c0.3-0.8,1.3-1.4,2.1-1.6c0.8-0.1,3.1,0.2,3.1-0.6c-0.5-0.8-1.5-1.1-2.4-1c-0.9,0.1-1.7,0.6-2.5,1.1c-0.9,0.6-1.8,1.4-2.1,2.4
				C111.8,21.7,112,22.5,112.3,23.3z"/>
			<path fill="#B1C6B5" d="M118.5,25.6c0.3,0.3,0.2,0.9-0.2,1.1c-0.6-0.3-0.7-1.4-0.1-1.8c0.2,0.1,0.4,0.2,0.6,0.4
				c0.1,0.2,0.1,0.5-0.1,0.6"/>
		</g>
		<g opacity="0.5">
			<circle fill="#C4CABF" cx="633.8" cy="49" r="18.9"/>
			<g>
				<g>
					<path fill="#93BDAF" d="M641.2,30.3c-23.3-8.1-38.5,28.2-14.9,37.4c9.6,3.7,19.6-1.1,24.3-9.8C656.2,47.4,652.2,35,641.2,30.3
						c-0.3-0.1-1.3,2.1-1.2,2.1c7.8,3.4,12.9,11,11.9,19.7c-0.8,6.8-6,12.1-12.4,14c-3.9,1.1-8.2,0.9-12-0.6c-7.7-3-12.6-10.8-12-19
						c0.5-7.1,5.9-12.8,12.5-14.7c4-1.1,8.1-0.8,12,0.6C640.3,32.5,641.2,30.3,641.2,30.3z"/>
				</g>
			</g>
			<path fill="#B2C5BA" d="M641.5,35.1c-1.5-1-3.2-1.8-5-2.3c-1.5-0.5-3.2-0.7-4.7-0.2c-1.5,0.5-2.8,1.9-2.6,3.5
				c0.1,1.2,1,2.2,1.8,3.1c0.5,0.5,1,1,1.4,1.5c0.5,0.6,1,1.1,1.6,1.6c1.6,1.5,3.5,2.6,5.5,3.3c1.1,0.4,2.3,0.6,3.4,0.3
				c2.2-0.6,3.4-3.4,2.8-5.6S643.5,36.4,641.5,35.1z"/>
			<path fill="#B1C5BA" d="M626.3,55.9c0.4-1.1,1.8-1.6,3-1.7c2.9-0.4,5.9-0.4,8.9-0.4c0.6,0,1.2,0,1.6,0.3s0.8,0.9,0.5,1.4
				c-0.2,0.3-0.5,0.4-0.8,0.6c-2.9,1.3-6,2.7-9.2,2.9c-1,0.1-2,0-2.9-0.5C626.6,58,626,56.9,626.3,55.9z"/>
			<path fill="#B4D5C9" d="M635.3,39.1c0.3,0.9,1.1,1.6,1.7,2.3c2.8,3.1,2.8,7.7,2.7,11.9c0,0.8-0.1,1.8-0.9,2.1
				c0.8,0.9,1.7,1.9,2.9,1.7c1.2-0.2,1.9-1.5,2.2-2.6c1.1-3.7,0.6-7.9-1.2-11.3C641.3,40.6,638.2,38.2,635.3,39.1z"/>
		</g>
		<g opacity="0.5">
			<circle fill="#C4CABF" cx="863.1" cy="198.2" r="6.6"/>
			<g>
				<g>
					<path fill="#93BDAF" d="M866.2,190.8c-8.3-2.8-15,11.4-6.2,14.8C868.2,208.9,874.7,194.6,866.2,190.8c-0.3-0.1-1.6,2.5-1.4,2.5
						c2.5,1.1,4.5,3.6,4.2,6.5c-0.4,3.4-4.7,4.3-7.5,3.3c-2.5-1-4.6-3.8-4.2-6.5c0.5-3.6,4.7-4.2,7.5-3.3
						C865.1,193.5,866.2,190.8,866.2,190.8z"/>
				</g>
			</g>
			<path fill="#B2C5BA" d="M865.8,193.4c-0.5-0.3-1.1-0.6-1.7-0.8c-0.5-0.2-1.1-0.3-1.6-0.1c-0.5,0.2-1,0.7-0.9,1.2
				c0,0.4,0.3,0.8,0.6,1.1c0.2,0.2,0.3,0.4,0.5,0.5c0.2,0.2,0.4,0.4,0.6,0.6c0.6,0.5,1.2,0.9,1.9,1.2c0.4,0.1,0.8,0.2,1.2,0.1
				c0.8-0.2,1.2-1.2,1-2C867.1,194.5,866.4,193.8,865.8,193.4z"/>
			<path fill="#B1C5BA" d="M860.5,200.7c0.1-0.4,0.6-0.5,1-0.6c1-0.2,2.1-0.2,3.1-0.1c0.2,0,0.4,0,0.6,0.1s0.3,0.3,0.2,0.5
				c-0.1,0.1-0.2,0.2-0.3,0.2c-1,0.5-2.1,0.9-3.2,1c-0.3,0-0.7,0-1-0.2C860.6,201.4,860.3,201,860.5,200.7z"/>
			<path fill="#B4D5C9" d="M863.6,194.8c0.1,0.3,0.4,0.5,0.6,0.8c1,1.1,1,2.7,1,4.1c0,0.3,0,0.6-0.3,0.8c0.3,0.3,0.6,0.7,1,0.6
				c0.4-0.1,0.7-0.5,0.8-0.9c0.4-1.3,0.2-2.7-0.4-3.9C865.7,195.3,864.6,194.5,863.6,194.8z"/>
		</g>
		<g opacity="0.5">
			<circle fill="#C4CABF" cx="14.5" cy="39.1" r="14.4"/>
			<g>
				<g>
					<path fill="#93BDAF" d="M20,25.2C2.3,19.3-8.8,46,9.1,53C26.7,59.9,37.3,32.9,20,25.2c-0.1,0-0.6,0.9-0.5,0.9
						c5.9,2.6,9.6,8.1,9.1,14.6c-0.7,9.4-10.9,14.4-19,11.3c-5.8-2.3-9.7-8.3-9.1-14.6c0.9-9.9,10.7-14,19-11.3
						C19.6,26.2,20,25.2,20,25.2z"/>
				</g>
			</g>
			<path fill="#B2C5BA" d="M20.4,28.6c-1.2-0.8-2.4-1.4-3.8-1.8c-1.2-0.3-2.4-0.5-3.5-0.2s-2.1,1.5-2,2.7c0.1,0.9,0.7,1.7,1.4,2.3
				c0.4,0.4,0.7,0.8,1.1,1.2c0.4,0.4,0.8,0.8,1.2,1.2c1.2,1.1,2.6,2,4.2,2.5c0.8,0.3,1.7,0.5,2.6,0.3c1.7-0.5,2.6-2.6,2.1-4.3
				S21.9,29.5,20.4,28.6z"/>
			<path fill="#B1C5BA" d="M8.8,44.4c0.3-0.9,1.3-1.2,2.2-1.3c2.2-0.3,4.5-0.3,6.8-0.3c0.4,0,0.9,0,1.2,0.2c0.4,0.2,0.6,0.7,0.4,1.1
				c-0.1,0.2-0.4,0.3-0.6,0.4c-2.2,1-4.5,2-7,2.2c-0.8,0.1-1.6,0-2.2-0.4C9.1,45.9,8.6,45.1,8.8,44.4z"/>
			<path fill="#B4D5C9" d="M15.7,31.6c0.2,0.7,0.8,1.2,1.3,1.7c2.1,2.4,2.1,5.9,2.1,9c0,0.6-0.1,1.4-0.7,1.6
				c0.6,0.7,1.3,1.5,2.2,1.3c0.9-0.1,1.4-1.1,1.7-2c0.8-2.8,0.5-6-0.9-8.6C20.2,32.7,17.9,30.9,15.7,31.6z"/>
		</g>
		<g opacity="0.5">
			<circle fill="#C4CABF" cx="278.1" cy="130.6" r="6.8"/>
			<g>
				<g>
					<path fill="#93BDAF" d="M281.2,123.1c-8.6-2.8-15.3,11.6-6.3,15.1C283.4,141.5,290,127,281.2,123.1c-0.3-0.1-1.5,2.4-1.4,2.4
						c2.6,1.1,4.7,3.7,4.3,6.7c-0.4,3.6-4.9,4.6-7.8,3.5c-2.6-1-4.7-3.9-4.3-6.7c0.5-3.8,4.8-4.5,7.8-3.5
						C280.2,125.6,281.2,123.1,281.2,123.1z"/>
				</g>
			</g>
			<path fill="#B2C5BA" d="M280.8,125.6c-0.6-0.4-1.2-0.6-1.8-0.8c-0.5-0.2-1.1-0.3-1.7-0.1c-0.5,0.2-1,0.7-0.9,1.3
				c0,0.4,0.4,0.8,0.6,1.1c0.2,0.2,0.3,0.4,0.5,0.6c0.2,0.2,0.4,0.4,0.6,0.6c0.6,0.5,1.2,0.9,2,1.2c0.4,0.1,0.8,0.2,1.2,0.1
				c0.8-0.2,1.2-1.2,1-2S281.5,126.1,280.8,125.6z"/>
			<path fill="#B1C5BA" d="M275.4,133.1c0.1-0.4,0.6-0.6,1.1-0.6c1.1-0.2,2.1-0.2,3.2-0.2c0.2,0,0.4,0,0.6,0.1s0.3,0.3,0.2,0.5
				c-0.1,0.1-0.2,0.2-0.3,0.2c-1.1,0.5-2.1,1-3.3,1c-0.4,0-0.7,0-1-0.2C275.5,133.8,275.3,133.4,275.4,133.1z"/>
			<path fill="#B4D5C9" d="M278.6,127.1c0.1,0.3,0.4,0.6,0.6,0.8c1,1.1,1,2.8,1,4.3c0,0.3,0,0.6-0.3,0.8c0.3,0.3,0.6,0.7,1,0.6
				c0.4-0.1,0.7-0.5,0.8-0.9c0.4-1.3,0.2-2.8-0.4-4C280.8,127.6,279.7,126.7,278.6,127.1z"/>
		</g>
		<g opacity="0.5">
			<circle fill="#C4CABF" cx="344.5" cy="317" r="7.9"/>
			<g>
				<g>
					<path fill="#93BDAF" d="M347.8,309c-9.8-3.2-16.5,12.2-6.5,16.1C351,328.9,357.5,313.3,347.8,309c-0.2-0.1-0.9,1.4-0.8,1.4
						c3,1.4,5.4,4.3,5,7.8c-0.5,4.8-5.7,7-9.8,5.4c-3.1-1.2-5.3-4.5-5-7.8c0.5-5.1,5.7-6.7,9.8-5.4C347.1,310.5,347.8,309,347.8,309
						z"/>
				</g>
			</g>
			<path fill="#B2C5BA" d="M347.7,311.3c-0.6-0.4-1.3-0.7-2.1-1c-0.6-0.2-1.3-0.3-1.9-0.1s-1.2,0.8-1.1,1.5c0,0.5,0.4,0.9,0.7,1.3
				c0.2,0.2,0.4,0.4,0.6,0.6c0.2,0.2,0.4,0.5,0.7,0.7c0.7,0.6,1.4,1.1,2.3,1.4c0.5,0.2,1,0.3,1.4,0.1c0.9-0.3,1.4-1.4,1.2-2.3
				C349.3,312.5,348.5,311.8,347.7,311.3z"/>
			<path fill="#B1C5BA" d="M341.4,319.9c0.2-0.5,0.7-0.6,1.2-0.7c1.2-0.2,2.5-0.2,3.7-0.2c0.2,0,0.5,0,0.7,0.1
				c0.2,0.1,0.3,0.4,0.2,0.6c-0.1,0.1-0.2,0.2-0.3,0.2c-1.2,0.6-2.5,1.1-3.8,1.2c-0.4,0-0.9,0-1.2-0.2
				C341.5,320.7,341.3,320.3,341.4,319.9z"/>
			<path fill="#B4D5C9" d="M345.1,312.9c0.1,0.4,0.5,0.7,0.7,1c1.2,1.3,1.2,3.2,1.1,4.9c0,0.3-0.1,0.7-0.4,0.9
				c0.3,0.4,0.7,0.8,1.2,0.7c0.5-0.1,0.8-0.6,0.9-1.1c0.4-1.5,0.3-3.3-0.5-4.7C347.6,313.5,346.4,312.5,345.1,312.9z"/>
		</g>
		<g opacity="0.5">
			<circle fill="#C4CABF" cx="341.4" cy="175" r="7.9"/>
			<g>
				<g>
					<path fill="#93BDAF" d="M348.4,178.2c-3.5,8.8-18.4,1.6-13.5-6.9c2-3.5,6.6-4.3,10-2.3C348.2,170.9,349.4,174.7,348.4,178.2
						c0.1-0.2,0.7-0.9,0.9-1.4c1.6-5.5-2.8-11.3-8.8-10.3c-3.4,0.6-5.9,3.5-7,6.7c-1.7,5.2,2.4,10.8,8,10.4c3.9-0.3,6.4-3.3,7.7-6.7
						C349.3,176.8,348.5,177.8,348.4,178.2z"/>
				</g>
			</g>
			<path fill="#B2C5BA" d="M347.8,176.2c-0.1,0.8-0.3,1.5-0.6,2.2c-0.3,0.6-0.6,1.2-1.2,1.5c-0.6,0.3-1.4,0.4-1.8-0.1
				c-0.4-0.4-0.4-0.9-0.5-1.4c0-0.3-0.1-0.6-0.1-0.9c0-0.3-0.1-0.6-0.1-0.9c-0.1-0.9,0.1-1.8,0.4-2.6c0.2-0.5,0.4-0.9,0.8-1.2
				c0.8-0.6,2-0.2,2.5,0.6S347.9,175.3,347.8,176.2z"/>
			<path fill="#B1C5BA" d="M337.1,175.6c0.5,0.2,1-0.1,1.3-0.5c0.9-0.8,1.7-1.8,2.5-2.7c0.1-0.2,0.3-0.4,0.3-0.6
				c0-0.2-0.1-0.5-0.3-0.5c-0.1,0-0.3,0-0.4,0.1c-1.2,0.6-2.4,1.2-3.4,2.2c-0.3,0.3-0.5,0.7-0.6,1.1S336.8,175.4,337.1,175.6z"/>
			<path fill="#B4D5C9" d="M344.9,177.2c-0.2-0.3-0.2-0.8-0.3-1.2c-0.3-1.7-1.7-3-3.1-4c-0.3-0.2-0.6-0.4-0.9-0.3
				c-0.1-0.5-0.1-1.1,0.2-1.4c0.4-0.3,1-0.2,1.4,0c1.5,0.6,2.7,1.9,3.3,3.4C346,174.9,346,176.5,344.9,177.2z"/>
		</g>
		<g opacity="0.5">
			<circle fill="#C4CABF" cx="255.7" cy="304.7" r="11.6"/>
			<g>
				<g>
					<path fill="#93BDAF" d="M265.7,297.3c-4.9-6.5-14.2-6.6-19.1-0.1c-3.2,4.3-4.1,10.1-1,14.8c4.6,6.7,14.4,6.4,19.1,0.1
						C268.1,307.6,268.7,302.1,265.7,297.3c0.1,0.1-1.2,1.3-1,1.7c3.8,6.1,1.7,14.2-5.8,16.1c-4.6,1.2-9.6-0.8-12.3-4.7
						c-4.1-6-1.5-14.3,5.8-16.1c4.8-1.2,9.4,0.8,12.3,4.7C264.7,298.9,266,297.6,265.7,297.3z"/>
				</g>
			</g>
			<path fill="#B2C5BA" d="M264.4,300.4c-0.4-1-1-2-1.7-2.9c-0.6-0.8-1.3-1.5-2.3-1.7s-2.1,0-2.5,0.9c-0.4,0.6-0.3,1.4-0.2,2.2
				c0.1,0.4,0.1,0.8,0.2,1.3c0.1,0.5,0.1,0.9,0.2,1.4c0.3,1.3,0.8,2.5,1.6,3.6c0.4,0.6,0.9,1.1,1.6,1.4c1.3,0.5,2.9-0.5,3.4-1.9
				C265.2,303.2,264.9,301.7,264.4,300.4z"/>
			<path fill="#B1C5BA" d="M249.5,305.6c0.6-0.4,1.4-0.2,2.1,0.1c1.6,0.8,3.1,1.8,4.6,2.9c0.3,0.2,0.6,0.4,0.7,0.7
				c0.1,0.3,0.1,0.8-0.2,0.9c-0.2,0.1-0.4,0.1-0.6,0c-1.9-0.4-3.9-0.7-5.6-1.7c-0.5-0.3-1-0.7-1.3-1.3S249,306,249.5,305.6z"/>
			<path fill="#B4D5C9" d="M259.9,300.2c-0.2,0.6,0,1.2,0.1,1.8c0.3,2.5-1.2,4.9-2.7,6.9c-0.3,0.4-0.7,0.9-1.2,0.8
				c0.1,0.7,0.2,1.6,0.9,1.9c0.7,0.3,1.4-0.1,2-0.6c1.8-1.5,3-3.8,3.3-6.1C262.4,303,261.7,300.8,259.9,300.2z"/>
		</g>
		<g opacity="0.5">
			<circle fill="#C4CABF" cx="114.1" cy="242.1" r="7.5"/>
			<g>
				<g>
					<path fill="#93BDAF" d="M120.7,237.2c-3.1-4.2-9.2-4.3-12.3,0c-2.1,2.9-2.9,6.7-0.8,9.8c3,4.4,9.3,4.1,12.3,0
						C122.1,244.1,122.7,240.5,120.7,237.2c0.1,0.1-1,1.1-0.8,1.4c2.4,3.9,1.2,8.9-3.6,10.1c-3,0.7-6.2-0.5-7.9-3
						c-2.6-3.8-1-8.9,3.6-10.1c3.1-0.8,6.1,0.5,7.9,3C119.8,238.5,120.9,237.5,120.7,237.2z"/>
				</g>
			</g>
			<path fill="#B2C5BA" d="M119.7,239.3c-0.3-0.7-0.6-1.3-1.1-1.9c-0.4-0.5-0.9-0.9-1.5-1.1c-0.6-0.2-1.3,0-1.6,0.6
				c-0.2,0.4-0.2,0.9-0.1,1.4c0,0.3,0.1,0.5,0.1,0.8c0,0.3,0.1,0.6,0.2,0.9c0.2,0.8,0.5,1.6,1,2.3c0.3,0.4,0.6,0.7,1,0.9
				c0.9,0.3,1.8-0.3,2.2-1.2C120.3,241.2,120.1,240.2,119.7,239.3z"/>
			<path fill="#B1C5BA" d="M110.1,242.7c0.4-0.3,0.9-0.1,1.3,0.1c1.1,0.5,2,1.2,3,1.9c0.2,0.1,0.4,0.3,0.5,0.5s0,0.5-0.2,0.6
				c-0.1,0.1-0.3,0-0.4,0c-1.3-0.2-2.5-0.5-3.6-1.1c-0.3-0.2-0.7-0.5-0.8-0.8C109.8,243.4,109.8,242.9,110.1,242.7z"/>
			<path fill="#B4D5C9" d="M116.8,239.2c-0.1,0.4,0,0.8,0,1.1c0.2,1.6-0.8,3.1-1.8,4.5c-0.2,0.3-0.4,0.6-0.8,0.5
				c0,0.5,0.1,1,0.6,1.2c0.4,0.2,0.9-0.1,1.3-0.4c1.2-1,2-2.4,2.1-3.9C118.4,241.1,118,239.6,116.8,239.2z"/>
		</g>
		<g opacity="0.5">
			<circle fill="#C4CABF" cx="1142.5" cy="251.3" r="15.2"/>
			<g>
				<g>
					<path fill="#93BDAF" d="M1148.4,236.4c-18.8-6.3-30.8,22.4-11.8,29.8C1155.2,273.5,1166.8,244.5,1148.4,236.4
						c-0.2-0.1-0.9,1.4-0.8,1.4c6.2,2.7,10.4,8.7,9.7,15.7c-1.1,9.7-11.4,14.6-19.8,11.3c-6-2.3-10.7-9.1-9.7-15.7
						c1.5-9.8,11.1-14.3,19.8-11.3C1147.8,237.9,1148.4,236.4,1148.4,236.4z"/>
				</g>
			</g>
			<path fill="#B2C5BA" d="M1148.7,240.1c-1.2-0.8-2.6-1.4-4-1.9c-1.2-0.4-2.5-0.6-3.8-0.2c-1.2,0.4-2.2,1.6-2.1,2.8
				c0.1,1,0.8,1.8,1.5,2.5c0.4,0.4,0.8,0.8,1.2,1.2c0.4,0.4,0.8,0.9,1.3,1.3c1.3,1.2,2.8,2.1,4.4,2.7c0.9,0.3,1.9,0.5,2.8,0.3
				c1.8-0.5,2.7-2.7,2.3-4.5S1150.3,241.2,1148.7,240.1z"/>
			<path fill="#B1C5BA" d="M1136.4,256.9c0.3-0.9,1.4-1.3,2.4-1.4c2.4-0.4,4.8-0.3,7.2-0.3c0.5,0,0.9,0,1.3,0.2
				c0.4,0.2,0.6,0.8,0.4,1.1c-0.1,0.2-0.4,0.3-0.6,0.5c-2.4,1.1-4.8,2.2-7.4,2.3c-0.8,0.1-1.7,0-2.3-0.4
				C1136.7,258.5,1136.2,257.7,1136.4,256.9z"/>
			<path fill="#B4D5C9" d="M1143.7,243.4c0.2,0.7,0.9,1.3,1.4,1.8c2.2,2.5,2.3,6.2,2.2,9.6c0,0.7-0.1,1.4-0.7,1.7
				c0.6,0.7,1.4,1.5,2.4,1.4c1-0.1,1.5-1.2,1.8-2.1c0.9-3,0.5-6.3-1-9.1C1148.5,244.5,1146.1,242.6,1143.7,243.4z"/>
		</g>
		<g opacity="0.5">
			<circle fill="#C4CABF" cx="246.2" cy="65.4" r="16.3"/>
			<g>
				<g>
					<path fill="#93BDAF" d="M229.5,65.9c0.4,11.3,11.6,19.7,22.5,15.2c6.3-2.6,10.8-9.4,10.8-16.2c0.1-11.4-11.9-19.5-22.5-15.2
						C233.8,52.4,229.9,59.1,229.5,65.9c0-0.2,0.8-0.8,0.8-1.3c1-21,31.8-18,31.7,1.5c-0.1,10.2-10.1,16.7-19.5,14.3
						c-7.4-1.9-12-8.4-12.2-15.8C230.3,64.8,229.5,65.5,229.5,65.9z"/>
				</g>
			</g>
			<path fill="#96BAB0" d="M252.8,51.9c1.9,0.5,3.3,2,4.6,3.5c1.3,1.4,2.7,2.9,3.5,4.7c0.5,1.1,0.7,2.2,0.9,3.4
				c0.4,2.3,0.3,4.6-0.4,6.8c-0.8,2.2-2.4,4.1-4.6,4.8c-0.3-0.3-0.6-0.7-0.6-1.1c0.2-0.1,0.4-0.2,0.6-0.2c2.8-4.6,2.1-11.1-1.6-15.1
				c-1.5-1.6-3.4-2.8-4.5-4.7c-0.2-0.2-0.3-0.5-0.3-0.8C250.2,52.1,251.7,51.6,252.8,51.9z"/>
			<path fill="#D5E0DA" d="M259.4,56.6c1.7,3.2,0.7,7.4-2.2,9.6c-1.4,1-3,1.6-4.6,2.1c-0.4,0.1-0.9,0.3-1.3,0.4
				c-0.1-3.3-1.5-6.6-3.8-8.9c-2.3-2.3-5.5-4.2-6.1-7.4c2-1.5,4.3-3,6.8-2.8c1.2,0.1,2.3,0.6,3.3,1.1
				C254.5,52,257.8,53.6,259.4,56.6z"/>
			<path fill="#B1C5BA" d="M248.1,71.9c-1.5,1.6-4.1,2-6.1,1c-2-1-3.1-3.3-2.9-5.5c0.3-2.6,2.6-4.7,5.1-5.1c0.5-0.1,1-0.1,1.5,0.1
				c0.5,0.2,0.9,0.6,0.9,1.1c0.1,0.9-0.8,1.5-1.7,1.8c-0.8,0.2-1.8,0.3-2.5,0.9c-0.8,0.7-0.8,2-0.2,2.9c0.6,0.9,1.7,1.4,2.8,1.4
				c1.1,0,2.1-0.3,3.1-0.8c0.2,0.4,0.5,0.9,0.4,1.4C248.5,71.5,248.3,71.7,248.1,71.9z"/>
		</g>
		<g opacity="0.5">
			<circle fill="#C4CABF" cx="333.2" cy="44.5" r="11.3"/>
			<g>
				<g>
					<path fill="#93BDAF" d="M321.4,45.3c0.4,8,8.3,13.8,16,10.3c4.4-2,7.7-7.3,7.7-12.1c0-8.1-8.6-13.7-16-10.3
						C324.5,35.3,321.6,40.5,321.4,45.3c0-0.3,1.1-1.2,1.1-1.8c0.8-14.2,21.5-11,21.5,1.8c0,6.7-6.7,10.5-12.6,9.2
						c-5.3-1.2-8.6-5.7-8.9-11C322.5,43.8,321.3,44.8,321.4,45.3z"/>
				</g>
			</g>
			<path fill="#D5E0DA" d="M342.3,38.3c1.2,2.2,0.5,5.2-1.5,6.7c-0.9,0.7-2.1,1.1-3.2,1.5c-0.3,0.1-0.6,0.2-0.9,0.3
				c-0.1-2.3-1.1-4.5-2.7-6.2c-1.6-1.6-3.9-2.9-4.3-5.1c1.4-1,3-2.1,4.7-2c0.8,0.1,1.6,0.4,2.3,0.7
				C338.9,35.1,341.2,36.2,342.3,38.3z"/>
		</g>
		<g opacity="0.5">
			<circle fill="#C4CABF" cx="578.4" cy="80.1" r="11.3"/>
			<g>
				<g>
					<path fill="#93BDAF" d="M569.8,72.6c-3.2,4.7-4.6,10.6-0.7,15.4c4.7,5.9,13.6,5.5,18.1-0.3c3.3-4.3,4.4-10,1.3-14.8
						c-4.4-6.7-13.7-6.4-18.6-0.5c-0.3,0.3-0.9,1.8-0.8,1.7c3.4-4.2,9.2-5.6,14.1-3.1c5.3,2.7,7.7,9.3,4.7,14.5
						c-2.9,5-9.4,6.3-14.4,3.5c-4.9-2.8-7.7-10-4.2-15C569.3,73.7,570.2,71.9,569.8,72.6z"/>
				</g>
			</g>
			<path fill="#D5E0DA" d="M589.5,80.7c-0.4,2.4-2.7,4.4-5.2,4.4c-1.2,0-2.3-0.4-3.4-0.8c-0.3-0.1-0.6-0.2-0.9-0.3
				c1.3-1.9,1.9-4.3,1.6-6.6c-0.3-2.2-1.3-4.6-0.3-6.6c1.7,0,3.7,0.1,5,1.3c0.6,0.5,1,1.3,1.4,2C588.7,76.1,589.8,78.3,589.5,80.7z"
				/>
		</g>
		<g opacity="0.5">
			<circle fill="#C4CABF" cx="363.8" cy="417.7" r="11.3"/>
			<g>
				<g>
					<path fill="#93BDAF" d="M352,418.5c0.4,8,8.3,13.8,16,10.3c4.4-2,7.7-7.3,7.7-12.1c0-8.1-8.6-13.7-16-10.3
						C355.1,408.5,352.3,413.7,352,418.5c0-0.3,1.1-1.2,1.1-1.8c0.8-14.2,21.5-11,21.5,1.8c0,6.7-6.7,10.5-12.6,9.2
						c-5.3-1.2-8.6-5.7-8.9-11C353.1,417,352,418,352,418.5z"/>
				</g>
			</g>
			<path fill="#D5E0DA" d="M373,411.5c1.2,2.2,0.5,5.2-1.5,6.7c-0.9,0.7-2.1,1.1-3.2,1.5c-0.3,0.1-0.6,0.2-0.9,0.3
				c-0.1-2.3-1.1-4.5-2.7-6.2c-1.6-1.6-3.9-2.9-4.3-5.1c1.4-1,3-2.1,4.7-2c0.8,0.1,1.6,0.4,2.3,0.7
				C369.6,408.3,371.9,409.4,373,411.5z"/>
		</g>
		<g opacity="0.5">
			<circle fill="#C4CABF" cx="951.3" cy="292.6" r="11.3"/>
			<g>
				<g>
					<path fill="#93BDAF" d="M946.6,281.6c-4.4,2.5-7.6,7.8-7.1,13c0.8,7.9,9.5,12.6,16.5,8.9c4.4-2.3,7.6-8,7.1-13
						C962.3,282.4,953.7,278.3,946.6,281.6c-0.5,0.2-0.8,1.7-1,1.8c4.5-2.1,9.8-1.4,13.3,2.3c4.4,4.7,4.2,12.8-2,16
						c-11.3,5.8-23.7-11.1-11.4-18.3C946.1,283.1,946.4,281.7,946.6,281.6z"/>
				</g>
			</g>
			<path fill="#D5E0DA" d="M961,297.8c-1.4,2-4.4,2.8-6.6,1.8c-1.1-0.5-1.9-1.4-2.8-2.2c-0.2-0.2-0.5-0.5-0.7-0.7
				c2-1.2,3.5-3.1,4.3-5.2c0.7-2.1,0.8-4.8,2.6-6.1c1.6,0.8,3.2,1.7,3.9,3.3c0.3,0.8,0.4,1.6,0.4,2.4
				C962.2,293.4,962.3,295.9,961,297.8z"/>
		</g>
		<g opacity="0.5">
			<circle fill="#C4CABF" cx="180.2" cy="138.6" r="18.6"/>
			<g>
				<g>
					<path fill="#93BDAF" d="M161.1,139.4c0.5,12.7,12.9,22.1,25.2,17.4c7.5-2.9,13-11.1,13-19.1c0-12.8-13.2-22-25.2-17.4
						C166.3,123.3,161.4,131.3,161.1,139.4c0-0.3,1-1.1,1-1.7c0.4-11.6,11.4-19.2,22.3-16.3c8.1,2.1,13.8,9.6,13.9,17.9
						c0.1,11.4-11.2,18.8-21.7,16.4c-8.6-1.9-14.2-9.5-14.5-18.1C162.1,138,161.1,138.9,161.1,139.4z"/>
				</g>
			</g>
			<path fill="#96BAB0" d="M187.7,123.1c2.2,0.6,3.8,2.3,5.3,3.9c1.5,1.6,3.1,3.3,4,5.4c0.6,1.2,0.9,2.5,1.1,3.8
				c0.4,2.6,0.4,5.3-0.5,7.8c-0.9,2.5-2.7,4.7-5.2,5.6c-0.4-0.3-0.7-0.8-0.7-1.3c0.2-0.1,0.4-0.2,0.7-0.2c3.2-5.3,2.3-12.7-1.9-17.3
				c-1.7-1.8-3.9-3.2-5.2-5.3c-0.2-0.3-0.3-0.6-0.4-0.9C184.7,123.3,186.5,122.8,187.7,123.1z"/>
			<path fill="#CBDCD7" d="M184.8,125.4c-0.2,1.8-0.2,3.6,0.5,5.2c0.7,1.6,2.4,3,4.1,2.7c1.5-0.2,2.7-1.6,3-3.1s-0.2-3.1-0.9-4.4
				c-1.7-2.8-4.7-4.5-7.8-5.3c-3.1-0.8-6.4-0.7-9.6-0.5c-0.5,0.2-0.6,0.9-0.3,1.3s0.8,0.6,1.3,0.8c3.3,1.2,6.6,2.3,9.8,3.5"/>
			<path fill="#B1C5BA" d="M185,146.9c-1.3,0-2.6-0.3-3.7-0.9c-1.4-0.8-2.6-2.1-3.2-3.6c-1.5-3.7,0.8-8.6,4.7-9.6
				c3.9-1.1,8.4,1.8,9,5.8C192.5,142.7,189.1,146.8,185,146.9z"/>
			<path fill="none" d="M169.3,128.7c1.7,1.6,2.3,4.2,1.4,6.3c-0.4,1-1.1,1.9-1.1,3c0,1.1,1.6,2,2.2,1.1c2.4-1.6,3.7-4.6,3.2-7.4
				c-0.5-2.8-2.8-5.2-5.6-5.9c-0.3,1-0.5,1.9-0.8,2.9"/>
		</g>
		<g opacity="0.5">
			<circle fill="#C4CABF" cx="245" cy="160.3" r="18.6"/>
			<g>
				<g>
					<path fill="#93BDAF" d="M230.2,170.1c-6.3-9.8-2.8-23.4,9.1-26.8c7.6-2.2,15.9,0.7,20.4,7.2c6.5,9.4,2.8,22.9-8.4,26.6
						C243.4,179.7,235.1,176.6,230.2,170.1c0.1,0.1-1.3,1.4-1,1.8c7.5,9.9,22.1,10.6,30,0.8c5.5-6.8,6.7-16.5,1.5-23.9
						c-7.1-10.2-22.3-10.4-30-0.8c-5.6,7-6.5,16.2-1.5,23.9C229.1,171.7,230.4,170.4,230.2,170.1z"/>
				</g>
			</g>
			<path fill="#96BAB0" d="M260,168.7c1.5-1.7,1.8-4,2.1-6.3c0.3-2.2,0.6-4.5,0.2-6.7c-0.2-1.3-0.7-2.6-1.3-3.8
				c-1.1-2.4-2.7-4.6-4.8-6.1c-2.1-1.5-4.9-2.3-7.4-1.6c-0.1,0.5-0.1,1,0.2,1.5c0.2,0,0.5-0.1,0.7-0.2c5.6,2.6,9.2,9.1,8.3,15.2
				c-0.4,2.5-1.3,4.9-1.2,7.4c0,0.3,0.1,0.7,0.2,0.9C257.4,170.2,259.1,169.7,260,168.7z"/>
			<path fill="#CBDCD7" d="M256.2,168.5c-1.1-1.4-2.2-2.8-2.6-4.6c-0.4-1.7,0.3-3.8,1.8-4.6c1.4-0.7,3.1-0.3,4.2,0.8
				c1.1,1.1,1.6,2.6,1.7,4.1c0.2,3.2-1.2,6.4-3.4,8.8c-2.1,2.4-4.9,4.2-7.6,5.9c-0.5,0.1-1-0.4-1-1s0.3-1,0.6-1.4
				c2-2.8,4-5.7,6.1-8.5"/>
			<path fill="#B1C5BA" d="M244.2,150.7c-1.1,0.7-2,1.7-2.5,2.8c-0.7,1.5-0.9,3.2-0.6,4.8c0.9,3.9,5.6,6.5,9.4,5.2s5.8-6.3,4-10
				C252.7,149.9,247.5,148.5,244.2,150.7z"/>
			<path fill="none" d="M241.7,174.7c0.5-2.2-0.5-4.8-2.5-6c-0.9-0.6-2-0.9-2.6-1.8s0.1-2.5,1.1-2.2c2.9-0.1,5.7,1.7,6.9,4.3
				c1.2,2.6,0.7,5.9-1.2,8c-0.8-0.6-1.5-1.3-2.3-1.9"/>
		</g>
		<g opacity="0.5">
			<circle fill="#C4CABF" cx="567.4" cy="187.8" r="11.4"/>
			<g>
				<g>
					<path fill="#93BDAF" d="M556.5,187.9c-0.4-14.7,20.6-12.9,21.6-0.1c0.6,7.5-6.9,12.1-13.5,10.1
						C560,196.5,557.2,192.5,556.5,187.9c0.1,0.4-1.1,1.1-1,1.7c1.1,8.4,10.6,13.5,17.9,8.4c3.6-2.6,6.1-7.5,5.8-12
						c-0.6-8.2-9.8-13-16.9-9c-4.4,2.4-6.9,7.7-6.8,12.6C555.5,189.3,556.6,188.5,556.5,187.9z"/>
				</g>
			</g>
			<path fill="#96BAB0" d="M572.7,196.9c1.3-0.4,2.2-1.6,3-2.7c0.8-1.1,1.7-2.2,2.2-3.5c0.3-0.8,0.4-1.6,0.5-2.4
				c0.1-1.6,0-3.3-0.7-4.7c-0.7-1.5-1.9-2.7-3.4-3.1c-0.2,0.2-0.4,0.5-0.4,0.8c0.1,0.1,0.3,0.1,0.4,0.1c2.2,3.1,2.1,7.6-0.3,10.6
				c-1,1.2-2.2,2.2-2.9,3.5c-0.1,0.2-0.2,0.4-0.2,0.6C570.9,196.9,572,197.2,572.7,196.9z"/>
			<path fill="#CBDCD7" d="M570.8,195.6c-0.2-1.1-0.3-2.2,0-3.2s1.3-1.9,2.4-1.9c0.9,0.1,1.7,0.8,2,1.7c0.3,0.9,0.1,1.9-0.4,2.7
				c-0.9,1.8-2.6,3-4.5,3.6c-1.9,0.6-3.9,0.7-5.8,0.8c-0.3-0.1-0.4-0.5-0.2-0.8c0.2-0.3,0.5-0.4,0.8-0.6c1.9-0.9,3.9-1.7,5.8-2.6"/>
			<path fill="#B1C5BA" d="M569.9,182.5c-0.8,0-1.6,0.3-2.2,0.7c-0.8,0.5-1.5,1.4-1.8,2.3c-0.8,2.4,0.9,5.2,3.4,5.7
				c2.4,0.5,5-1.5,5.2-4S572.4,182.4,569.9,182.5z"/>
			<path fill="none" d="M561.2,194.4c1-1,1.2-2.7,0.5-3.9c-0.3-0.6-0.8-1.1-0.8-1.8c0-0.7,0.9-1.3,1.3-0.8c1.5,0.8,2.5,2.6,2.3,4.4
				s-1.4,3.3-3.1,3.9c-0.2-0.6-0.4-1.2-0.6-1.7"/>
		</g>
		<g opacity="0.5">
			<circle fill="#C4CABF" cx="678.5" cy="311.3" r="13.5"/>
			<g>
				<g>
					<path fill="#93BDAF" d="M664.4,312.1c0.5,9.4,9.7,16.4,18.9,12.5c5.3-2.3,9.2-8.4,9.2-14.2c0-9.6-10-16.2-18.9-12.5
						C668.1,300.3,664.7,306.3,664.4,312.1c0-0.3,1-1.1,1-1.7c0.4-8.5,8.8-13.6,16.5-11.2c5.6,1.7,9.5,7.1,9.5,12.9
						c0,8.7-9,13.6-16.5,11.2c-5.8-1.8-9.2-7-9.5-12.9C665.4,310.7,664.4,311.6,664.4,312.1z"/>
				</g>
			</g>
			<path fill="#96BAB0" d="M683.9,300c1.6,0.4,2.8,1.7,3.9,2.9c1.1,1.2,2.2,2.4,2.9,3.9c0.4,0.9,0.6,1.8,0.8,2.8
				c0.3,1.9,0.3,3.9-0.3,5.7c-0.6,1.8-2,3.4-3.8,4c-0.3-0.2-0.5-0.6-0.5-1c0.1-0.1,0.3-0.2,0.5-0.2c2.3-3.9,1.7-9.3-1.4-12.6
				c-1.2-1.3-2.8-2.3-3.8-3.9c-0.1-0.2-0.2-0.4-0.3-0.7C681.7,300.2,683,299.8,683.9,300z"/>
			<path fill="#CBDCD7" d="M681.8,301.7c-0.1,1.3-0.2,2.6,0.4,3.8c0.5,1.2,1.7,2.1,3,2c1.1-0.2,2-1.2,2.2-2.3
				c0.2-1.1-0.1-2.2-0.7-3.2c-1.2-2-3.4-3.3-5.7-3.8c-2.3-0.6-4.7-0.5-7-0.3c-0.4,0.1-0.4,0.7-0.2,1c0.2,0.3,0.6,0.5,1,0.6
				c2.4,0.8,4.8,1.7,7.2,2.5"/>
			<path fill="#B1C5BA" d="M682,317.3c-0.9,0-1.9-0.2-2.7-0.6c-1-0.6-1.9-1.5-2.3-2.6c-1.1-2.7,0.6-6.2,3.4-7s6.1,1.3,6.6,4.3
				C687.4,314.2,684.9,317.2,682,317.3z"/>
			<path fill="none" d="M670.5,304c1.2,1.1,1.7,3.1,1,4.6c-0.3,0.7-0.8,1.4-0.8,2.2s1.1,1.4,1.6,0.8c1.7-1.1,2.7-3.4,2.3-5.4
				c-0.4-2.1-2-3.8-4.1-4.3c-0.2,0.7-0.4,1.4-0.6,2.1"/>
		</g>
		<g opacity="0.5">
			<circle fill="#C4CABF" cx="108.7" cy="79.8" r="8.7"/>
			<g>
				<g>
					<path fill="#93BDAF" d="M99.5,80.7c0.3,6.2,6.4,10.6,12.3,7.9c3.4-1.5,6.1-5.9,6.1-9.6c0-6.2-6.6-10.5-12.3-8
						C102,72.7,99.7,76.8,99.5,80.7c0-0.3,1-1.1,1-1.7c0.6-10.7,16.4-7.9,16.4,1.7c0,5-5.1,7.8-9.5,6.8c-4.1-0.9-6.6-4.4-6.8-8.5
						C100.5,79.2,99.4,80.1,99.5,80.7z"/>
				</g>
			</g>
			<path fill="#96BAB0" d="M112.2,72.6c1,0.3,1.8,1.1,2.5,1.8c0.7,0.8,1.4,1.6,1.9,2.5c0.3,0.6,0.4,1.2,0.5,1.8
				c0.2,1.2,0.2,2.5-0.2,3.6s-1.3,2.2-2.4,2.6c-0.2-0.1-0.3-0.4-0.3-0.6c0.1-0.1,0.2-0.1,0.3-0.1c1.5-2.5,1.1-5.9-0.9-8.1
				c-0.8-0.9-1.8-1.5-2.4-2.5c-0.1-0.1-0.2-0.3-0.2-0.4C110.8,72.7,111.6,72.4,112.2,72.6z"/>
			<path fill="#CBDCD7" d="M110.8,73.7c-0.1,0.8-0.1,1.7,0.2,2.4c0.3,0.8,1.1,1.4,1.9,1.3c0.7-0.1,1.3-0.7,1.4-1.4s-0.1-1.4-0.4-2.1
				c-0.8-1.3-2.2-2.1-3.6-2.5c-1.5-0.4-3-0.3-4.5-0.2c-0.2,0.1-0.3,0.4-0.1,0.6c0.1,0.2,0.4,0.3,0.6,0.4c1.5,0.5,3.1,1.1,4.6,1.6"/>
			<path fill="#B1C5BA" d="M110.9,83.7c-0.6,0-1.2-0.1-1.7-0.4c-0.7-0.4-1.2-1-1.5-1.7c-0.7-1.8,0.4-4,2.2-4.5s3.9,0.9,4.2,2.7
				C114.4,81.7,112.8,83.7,110.9,83.7z"/>
			<path fill="none" d="M103.6,75.2c0.8,0.7,1.1,2,0.6,3c-0.2,0.5-0.5,0.9-0.5,1.4c0,0.5,0.7,0.9,1,0.5c1.1-0.7,1.7-2.2,1.5-3.5
				c-0.2-1.3-1.3-2.4-2.6-2.8c-0.1,0.5-0.2,0.9-0.4,1.4"/>
		</g>
		<g opacity="0.5">
			<circle fill="#C4CABF" cx="1343.7" cy="26.7" r="13.5"/>
			<g>
				<g>
					<path fill="#93BDAF" d="M1336.8,39.5c16.1,7.7,29.8-17,13.8-25.6C1334.7,5.3,1321.4,30.3,1336.8,39.5c0.1,0.1,1.2-1.7,1-1.8
						c-5-3-8.2-8.7-6.8-14.7c1.9-8.2,11.9-11.1,18.6-7.4c4.9,2.6,8.6,9.1,6.8,14.7c-2.6,8.3-11.4,10.8-18.6,7.4
						C1337.6,37.7,1336.7,39.5,1336.8,39.5z"/>
				</g>
			</g>
			<path fill="#96BAB0" d="M1336.3,16.6c1.1-1.2,2.8-1.6,4.3-2c1.6-0.4,3.2-0.8,4.8-0.7c1,0.1,1.9,0.3,2.8,0.6
				c1.8,0.6,3.5,1.6,4.8,3c1.3,1.4,2.1,3.4,1.8,5.2c-0.3,0.1-0.7,0.2-1.1,0c0-0.2,0-0.4,0.1-0.5c-2.3-3.9-7.3-5.9-11.7-4.7
				c-1.8,0.5-3.4,1.4-5.2,1.5c-0.2,0-0.5,0-0.7-0.1C1335.5,18.6,1335.7,17.3,1336.3,16.6z"/>
			<path fill="#CBDCD7" d="M1336.8,19.3c1.1,0.7,2.2,1.4,3.5,1.5s2.7-0.5,3.2-1.7c0.4-1-0.1-2.3-0.9-3c-0.9-0.7-2-1-3.1-0.9
				c-2.3,0.1-4.5,1.4-6.1,3.2c-1.6,1.7-2.6,3.9-3.6,6c-0.1,0.4,0.4,0.7,0.8,0.6c0.4,0,0.7-0.3,1-0.6c1.9-1.7,3.8-3.4,5.6-5.1"/>
			<path fill="#B1C5BA" d="M1350.7,26.5c-0.4,0.8-1.1,1.6-1.8,2.1c-1,0.6-2.2,0.9-3.4,0.8c-2.9-0.3-5.2-3.5-4.5-6.4s4.1-4.8,6.9-3.8
				C1350.5,20.2,1352,23.9,1350.7,26.5z"/>
			<path fill="none" d="M1333.5,30.3c1.6-0.6,3.5,0,4.5,1.3c0.5,0.6,0.8,1.4,1.5,1.7c0.7,0.3,1.8-0.3,1.5-1c-0.2-2.1-1.7-4-3.7-4.6
				c-2-0.7-4.3,0-5.7,1.5c0.5,0.5,1.1,1,1.6,1.5"/>
		</g>
		<g opacity="0.5">
			<circle fill="#C4CABF" cx="500.6" cy="53.8" r="11"/>
			<g>
				<g>
					<path fill="#93BDAF" d="M490.2,49.7c-2.7,6.5,0.2,14.3,7.6,15.9c5.8,1.2,10.8-2.4,13.2-7.5c2.8-6,0.5-13.3-6-15.6
						c-6.3-2.3-11.7,1.5-14.5,6.8c-0.7,1.4,0.1,0.2,0.5-0.4c6.1-11.4,24.9-1.8,18.9,9.9c-6.1,11.8-23.6,1.6-18.7-10.3
						C491.4,47.6,490.3,49.4,490.2,49.7z"/>
				</g>
			</g>
			<path fill="#A8C0B7" d="M498.5,46.9c0.8,1.6,1.8,3.1,3,4.5c0.5,0.6,1.1,1.2,1.9,1.4c0.8,0.3,1.7,0.2,2.2-0.5
				c0.8-0.9,0.6-2.6,1.7-2.9c0.6-0.2,1.2,0.3,1.8,0.7s1.4,0.6,1.8,0.1c-1.2-4.3-5.6-7.5-10.1-7.4c-0.9,0-2,0.2-2.5,1
				C497.7,44.7,498.1,45.9,498.5,46.9z"/>
			<path fill="#B3D2C6" d="M496.5,59.3c-0.1,0.2-0.2,0.4-0.2,0.6c-0.6,1.4-2.5,2-3.7,1c-1.1-1-0.8-3.1,0.6-3.6
				c1-0.3,2.2,0.4,2.5,1.4c0.3,0.1,0.6,0.1,0.9,0.2"/>
		</g>
		<g opacity="0.5">
			<circle fill="#C4CABF" cx="148.3" cy="59.3" r="7"/>
			<g>
				<g>
					<path fill="#93BDAF" d="M141.4,57.1c-1.8,4.2-0.1,9.2,4.8,10.2c4.1,0.9,7.2-2,8.8-5.5c1.9-3.9,0.6-8.7-3.7-10.2
						c-4.4-1.6-7.7,1.4-9.7,4.9c-0.9,1.6,0.2,0.3,0.6-0.5c1.5-2.8,5.9-3.1,8.4-1.9c2.9,1.4,5,5.2,3.5,8.3c-1.5,3-5.7,3.4-8.5,1.9
						c-3.1-1.7-4.5-5.5-3.1-8.8C142.9,54.6,141.5,56.7,141.4,57.1z"/>
				</g>
			</g>
			<path fill="#A8C0B7" d="M147,54.9c0.5,1,1.1,2,1.9,2.8c0.3,0.4,0.7,0.7,1.2,0.9c0.5,0.2,1.1,0.1,1.4-0.3c0.5-0.6,0.4-1.7,1.1-1.9
				c0.4-0.1,0.8,0.2,1.1,0.4c0.3,0.2,0.9,0.4,1.1,0.1c-0.8-2.7-3.6-4.8-6.4-4.7c-0.6,0-1.3,0.2-1.6,0.7
				C146.4,53.5,146.7,54.3,147,54.9z"/>
			<path fill="#B3D2C6" d="M145.7,62.8c-0.1,0.1-0.1,0.3-0.2,0.4c-0.4,0.9-1.6,1.2-2.3,0.6c-0.7-0.6-0.5-2,0.4-2.3
				c0.6-0.2,1.4,0.2,1.6,0.9c0.2,0,0.4,0.1,0.5,0.1"/>
		</g>
		<g opacity="0.5">
			<circle fill="#C4CABF" cx="161.6" cy="15.8" r="13.3"/>
			<g>
				<g>
					<path fill="#93BDAF" d="M147.1,16.4c0.4,8.2,7,15,15.6,14c7.5-0.8,13.4-7.8,13.4-15.3c-0.1-8.3-7.2-14.9-15.6-14
						C152.6,1.9,147.5,8.9,147.1,16.4c-0.1,1.8,2.2-0.1,2.3-1.3c0.8-15.7,24.4-13.7,24.3,1.3c0,7.2-6.8,12.1-13.6,11.1
						c-6.2-1-10.4-6.2-10.7-12.3C149.3,13.2,147.1,15.2,147.1,16.4z"/>
				</g>
			</g>
			<path fill="#A6C6BD" d="M166.9,4.7c1.5,0.4,2.7,1.6,3.8,2.8c1.1,1.2,2.2,2.4,2.9,3.8c0.4,0.9,0.6,1.8,0.8,2.7
				c0.3,1.9,0.3,3.8-0.3,5.6c-0.6,1.8-2,3.3-3.7,4c-0.3-0.2-0.5-0.6-0.5-0.9c0.1-0.1,0.3-0.2,0.5-0.2c2.3-3.8,1.7-9.1-1.4-12.3
				c-1.2-1.3-2.8-2.3-3.7-3.8c-0.1-0.2-0.2-0.4-0.3-0.6C164.8,4.8,166.1,4.4,166.9,4.7z"/>
			<path fill="#CBDCD7" d="M163.6,8.6c-1.7-2.1-1.8-5.3,0.4-4.8c2.2,0.5,4.4,1.8,5.6,3.8c0.6,0.9,0.9,2.1,0.7,3.1s-1.1,2.1-2.2,2.2
				c-1.3,0.2-2.5-0.8-3-1.9S164.3,9.1,163.6,8.6"/>
		</g>
		<g opacity="0.5">
			<circle fill="#C4CABF" cx="271.9" cy="164" r="6.9"/>
			<g>
				<g>
					<path fill="#93BDAF" d="M263.9,164.6c0.2,4.5,3.8,8.3,8.6,7.7c4.3-0.5,7.6-4.7,7.6-9c0-4.5-3.9-8.2-8.4-7.7
						C267,156.2,264.1,160.3,263.9,164.6c-0.1,1.8,2.2-0.1,2.3-1.3c0.4-7.4,11.6-5.5,11.6,1.3c0,3.3-3.3,5.3-6.4,4.7
						c-3-0.5-5.1-3-5.2-6C266,161.5,263.8,163.4,263.9,164.6z"/>
				</g>
			</g>
			<path fill="#A6C6BD" d="M274.7,158.2c0.8,0.2,1.4,0.8,2,1.5c0.6,0.6,1.1,1.2,1.5,2c0.2,0.5,0.3,0.9,0.4,1.4c0.2,1,0.2,2-0.2,2.9
				c-0.3,0.9-1,1.7-1.9,2.1c-0.1-0.1-0.2-0.3-0.3-0.5c0.1-0.1,0.2-0.1,0.3-0.1c1.2-2,0.9-4.7-0.7-6.4c-0.6-0.7-1.5-1.2-2-2
				c-0.1-0.1-0.1-0.2-0.1-0.3C273.6,158.3,274.3,158.1,274.7,158.2z"/>
			<path fill="#CBDCD7" d="M273,160.3c-0.9-1.1-0.9-2.8,0.2-2.5s2.3,0.9,2.9,2c0.3,0.5,0.5,1.1,0.4,1.6c-0.1,0.6-0.6,1.1-1.1,1.2
				c-0.7,0.1-1.3-0.4-1.5-1C273.5,161,273.3,160.6,273,160.3"/>
		</g>
		<g opacity="0.5">
			<circle fill="#C4CABF" cx="302.3" cy="350" r="9.2"/>
			<g>
				<g>
					<path fill="#93BDAF" d="M292,350.7c0.3,5.9,4.9,10.6,11.1,9.9c5.4-0.6,9.6-5.8,9.6-11.2c0-5.8-5-10.6-10.9-9.9
						C296,340.1,292.3,345.2,292,350.7c-0.1,1.8,2.2-0.1,2.3-1.3c0.6-10.4,16.1-8.3,16.1,1.3c0,4.7-4.6,7.7-9,7
						c-4.1-0.7-6.9-4.1-7.1-8.2C294.2,347.5,291.9,349.5,292,350.7z"/>
				</g>
			</g>
			<path fill="#A6C6BD" d="M306,342.4c1.1,0.3,1.9,1.1,2.6,1.9c0.7,0.8,1.5,1.6,2,2.6c0.3,0.6,0.4,1.2,0.5,1.9
				c0.2,1.3,0.2,2.6-0.2,3.8c-0.4,1.2-1.3,2.3-2.6,2.7c-0.2-0.2-0.3-0.4-0.4-0.6c0.1-0.1,0.2-0.1,0.3-0.1c1.6-2.6,1.2-6.3-0.9-8.5
				c-0.8-0.9-1.9-1.6-2.6-2.6c-0.1-0.1-0.2-0.3-0.2-0.4C304.5,342.5,305.4,342.2,306,342.4z"/>
			<path fill="#CBDCD7" d="M303.7,345.1c-1.2-1.4-1.2-3.7,0.3-3.3s3,1.2,3.8,2.6c0.4,0.6,0.6,1.4,0.5,2.2c-0.1,0.7-0.7,1.4-1.5,1.5
				c-0.9,0.1-1.7-0.5-2-1.3C304.4,346,304.1,345.5,303.7,345.1"/>
		</g>
		<g opacity="0.5">
			<circle fill="#C4CABF" cx="51" cy="401.1" r="9.4"/>
			<g>
				<g>
					<path fill="#93BDAF" d="M40.5,401.7c0.3,6,5,10.9,11.3,10.1c5.5-0.7,9.8-5.9,9.8-11.4c0-5.9-5.2-10.8-11.1-10.1
						C44.6,391,40.8,396.1,40.5,401.7c-0.1,1.8,2.2-0.1,2.3-1.3c0.6-10.7,16.5-8.6,16.5,1.3c0,4.8-4.7,7.9-9.2,7.2
						c-4.2-0.7-7-4.3-7.3-8.4C42.7,398.6,40.4,400.5,40.5,401.7z"/>
				</g>
			</g>
			<path fill="#A6C6BD" d="M54.8,393.3c1.1,0.3,1.9,1.1,2.7,2c0.8,0.8,1.5,1.7,2,2.7c0.3,0.6,0.4,1.3,0.5,1.9
				c0.2,1.3,0.2,2.7-0.2,3.9c-0.4,1.2-1.4,2.4-2.6,2.8c-0.2-0.2-0.3-0.4-0.4-0.7c0.1-0.1,0.2-0.1,0.3-0.1c1.6-2.7,1.2-6.4-1-8.7
				c-0.9-0.9-2-1.6-2.6-2.7c-0.1-0.1-0.2-0.3-0.2-0.5C53.3,393.4,54.2,393.1,54.8,393.3z"/>
			<path fill="#CBDCD7" d="M52.5,396.1c-1.2-1.5-1.3-3.7,0.3-3.4c1.6,0.4,3.1,1.3,3.9,2.7c0.4,0.7,0.6,1.5,0.5,2.2
				c-0.2,0.8-0.8,1.5-1.5,1.6c-0.9,0.1-1.7-0.5-2.1-1.4C53.2,397,52.9,396.4,52.5,396.1"/>
		</g>
		<g opacity="0.5">
			<circle fill="#C4CABF" cx="60.4" cy="43.5" r="9.4"/>
			<g>
				<g>
					<path fill="#93BDAF" d="M54.4,35c-4.3,3.6-6,9.9-2.8,14.8c3.2,5.1,10.3,5.9,14.9,2.2c4.4-3.5,5.9-10,2.8-14.8
						C65.9,32,59.2,31.6,54.4,35c-1.1,0.8-1.1,3.4,0.6,2.2c3.5-2.5,8.4-2,11.4,1.1c3,3.2,3.2,8.7-0.5,11.5C57.9,55.9,47,44,55,37.2
						C56,36.3,56,33.7,54.4,35z"/>
				</g>
			</g>
			<path fill="#A6C6BD" d="M68.9,41.7c0.4,1,0.3,2.2,0.1,3.3c-0.2,1.1-0.4,2.2-0.9,3.2c-0.3,0.6-0.7,1.1-1.2,1.6
				c-0.9,1-2,1.8-3.2,2.2c-1.3,0.4-2.7,0.4-3.8-0.4c0-0.3,0.1-0.5,0.3-0.7c0.1,0,0.2,0.1,0.3,0.2c3.1-0.4,5.8-3,6.3-6.1
				c0.2-1.2,0.1-2.5,0.5-3.7c0.1-0.2,0.1-0.3,0.2-0.4C67.9,40.6,68.7,41.1,68.9,41.7z"/>
			<path fill="#CBDCD7" d="M65.3,41.6c0.4-1.9,2.2-3.3,2.8-1.8s0.9,3.2,0.3,4.7c-0.3,0.7-0.8,1.4-1.5,1.7s-1.6,0.3-2.2-0.2
				c-0.6-0.6-0.6-1.7-0.2-2.5S65.3,42.2,65.3,41.6"/>
		</g>
		<g opacity="0.5">
			<circle fill="#C4CABF" cx="247.8" cy="97.5" r="7.6"/>
			<g>
				<g>
					<path fill="#93BDAF" d="M242.8,90.4c-3.6,3-5.1,8.3-2.4,12.5c2.7,4.2,8.6,4.8,12.4,1.8c3.7-2.9,5-8.4,2.4-12.5
						C252.4,87.8,246.8,87.6,242.8,90.4c-1.1,0.8-1.1,3.4,0.6,2.2c2.8-2,6.7-1.5,9,1c2.3,2.5,2.7,6.7-0.3,8.9
						c-6.2,4.6-15-4.6-8.7-9.8C244.5,91.7,244.4,89.1,242.8,90.4z"/>
				</g>
			</g>
			<path fill="#A6C6BD" d="M254.7,96.1c0.4,0.8,0.2,1.8,0.1,2.7c-0.2,0.9-0.3,1.8-0.7,2.6c-0.3,0.5-0.6,0.9-1,1.3
				c-0.7,0.8-1.6,1.5-2.6,1.8s-2.2,0.3-3.1-0.3c0-0.2,0.1-0.4,0.2-0.6c0.1,0,0.2,0.1,0.2,0.2c2.5-0.3,4.7-2.4,5.1-4.9
				c0.2-1,0.1-2.1,0.4-3c0-0.1,0.1-0.3,0.2-0.3C253.9,95.2,254.5,95.6,254.7,96.1z"/>
			<path fill="#CBDCD7" d="M251.8,96c0.3-1.5,1.8-2.7,2.3-1.5c0.5,1.2,0.7,2.6,0.2,3.8c-0.2,0.6-0.6,1.1-1.2,1.4
				c-0.6,0.3-1.3,0.2-1.8-0.2c-0.5-0.5-0.5-1.4-0.2-2S251.8,96.4,251.8,96"/>
		</g>
		<g opacity="0.5">
			<circle fill="#C4CABF" cx="314" cy="38.7" r="5.5"/>
			<g>
				<g>
					<path fill="#93BDAF" d="M310.3,33.3c-2.7,2.3-4,6.4-1.9,9.6c2,3.2,6.4,3.5,9.2,1.3c2.8-2.2,3.9-6.5,1.9-9.6
						C317.4,31.2,313.3,31.2,310.3,33.3c-1.1,0.8-1.1,3.4,0.6,2.2c1.9-1.3,4.5-0.9,6.1,0.7c1.5,1.5,1.9,4.3,0,5.7
						c-4,2.9-10.1-3-6.1-6.4C312,34.6,311.9,31.9,310.3,33.3z"/>
				</g>
			</g>
			<path fill="#A6C6BD" d="M318.9,37.6c0.3,0.6,0.2,1.3,0,1.9c-0.1,0.6-0.2,1.3-0.5,1.9c-0.2,0.3-0.4,0.7-0.7,0.9
				c-0.5,0.6-1.2,1-1.9,1.3c-0.7,0.2-1.6,0.2-2.2-0.2c0-0.2,0.1-0.3,0.2-0.4c0.1,0,0.1,0.1,0.2,0.1c1.8-0.2,3.4-1.7,3.7-3.5
				c0.1-0.7,0-1.5,0.3-2.2c0-0.1,0.1-0.2,0.1-0.2C318.4,37,318.8,37.3,318.9,37.6z"/>
			<path fill="#CBDCD7" d="M316.8,37.5c0.2-1.1,1.3-1.9,1.7-1.1c0.4,0.9,0.5,1.9,0.2,2.8c-0.2,0.4-0.4,0.8-0.8,1
				c-0.4,0.2-0.9,0.2-1.3-0.1c-0.4-0.4-0.4-1-0.1-1.4C316.7,38.2,316.8,37.9,316.8,37.5"/>
		</g>
		<g opacity="0.5">
			<circle fill="#C4CABF" cx="1396.3" cy="165.9" r="16.5"/>
			<path fill="#B1C5BA" d="M1391.9,156.2c-1.7,0.1-3.4,0.5-4.8,1.4c-1.4,0.9-2.5,2.6-2.2,4.3c0.8,0,1.6-0.1,2.5-0.1
				c1.8-2.1,3.8-4,5.8-5.8"/>
			<path fill="#B1C5BA" d="M1385,174.2c-0.4,0.7-0.3,1.5,0,2.2c0.4,0.7,1.1,1.1,1.9,1.1c0.3-0.6,0.3-1.4-0.1-2s-1.2-0.9-1.9-0.8"/>
			<g>
				<g>
					<path fill="#93BDAF" d="M1395.9,180.1c-7-1-12.9-5.7-14.5-12.8c-2.2-9.7,5.9-16.7,15.3-15.7c7,0.7,12.9,6,14.5,12.8
						C1413.4,174.4,1405.3,180.7,1395.9,180.1c-1-0.1-2.1,4.4-2.5,4.3c9.2,0.6,15.8-5.5,19.2-13.6c4.3-10.2-1.9-22.4-13.3-23.6
						c-9.2-0.9-15.8,5.8-19.2,13.6c-4.5,10.6,2,21.9,13.3,23.6C1394.3,184.6,1395.6,180.1,1395.9,180.1z"/>
				</g>
			</g>
			<path fill="#D5E0DA" d="M1405.4,176.6c-2.5,1.2-5.2,2.1-8,2.5c-1.4,0.2-3.2,0.1-3.8-1.2c-0.4-1,0.1-2.1,0.9-2.8s1.8-1.1,2.6-1.8
				c2.4-1.8,3.3-4.8,4.1-7.7c0.4-1.3,0.7-2.7,0-3.9c-0.4-0.6-1-1.1-1.6-1.5c-1.3-1-2.7-2-4-2.9c2.9-1,5.9-1.5,8.9-1.4
				c1.7,0,3.5,0.3,4.9,1.3c0.7,0.5,1.2,1.2,1.7,1.9c1,1.4,1.9,2.8,2.3,4.4c0.7,2.7-0.1,5.6-1.7,7.9S1407.8,175.4,1405.4,176.6z"/>
		</g>
		<g opacity="0.5">
			<circle fill="#C4CABF" cx="707.7" cy="224.5" r="13.5"/>
			<path fill="#B1C5BA" d="M704.1,216.6c-1.4,0.1-2.8,0.4-3.9,1.1c-1.2,0.8-2,2.1-1.8,3.5c0.7,0,1.3-0.1,2-0.1
				c1.5-1.7,3.1-3.3,4.8-4.8"/>
			<path fill="#B1C5BA" d="M698.5,231.3c-0.3,0.5-0.3,1.2,0,1.8c0.3,0.5,0.9,0.9,1.5,0.9c0.3-0.5,0.2-1.2-0.1-1.7
				c-0.3-0.5-1-0.7-1.5-0.7"/>
			<g>
				<g>
					<path fill="#93BDAF" d="M707.6,235.8c-5.3-0.8-10-4.1-11.6-9.5c-2.3-8,4-13.9,11.8-13.1c5.3,0.5,10,4.4,11.6,9.5
						C722,230.9,715.4,236.2,707.6,235.8c-1.1-0.1-2.1,4.4-2.5,4.3c17.4,0.9,25.3-29.2,5.2-31.3c-7.8-0.8-13.3,5.2-16.1,11.8
						c-3.7,8.8,1.5,18.1,10.9,19.5C706,240.2,707.4,235.7,707.6,235.8z"/>
				</g>
			</g>
			<path fill="#D5E0DA" d="M715.2,233.3c-2.1,1-4.3,1.7-6.5,2.1c-1.1,0.2-2.6,0.1-3.1-0.9c-0.4-0.8,0.1-1.7,0.7-2.3s1.4-0.9,2.1-1.5
				c1.9-1.4,2.7-3.9,3.3-6.3c0.3-1,0.6-2.2,0-3.2c-0.3-0.5-0.8-0.9-1.3-1.3c-1.1-0.8-2.2-1.6-3.3-2.4c2.4-0.8,4.8-1.2,7.3-1.2
				c1.4,0,2.9,0.2,4,1.1c0.5,0.4,1,1,1.4,1.6c0.8,1.1,1.6,2.3,1.9,3.6c0.6,2.2-0.1,4.6-1.4,6.4C719.1,230.9,717.2,232.3,715.2,233.3
				z"/>
		</g>
		<g opacity="0.5">
			<circle fill="#C4CABF" cx="1138.6" cy="378.4" r="7"/>
			<g>
				<g>
					<path fill="#93BDAF" d="M1132.3,377.3c0.2-3.7,4-5.3,7.4-4.4c3,0.8,5.1,3.5,5.2,6.6c0,3.6-3.9,5.2-7,4.5
						C1134.6,383.3,1132.5,380.5,1132.3,377.3c0,0.3-1.5,1.6-1.4,2.3c0.3,5,5.2,8.5,10,6.3c3-1.4,5.4-5.5,5.4-8.8
						c0-5-5.4-8.4-10-6.3c-3.1,1.4-5.3,5.5-5.4,8.8C1130.9,379.2,1132.3,378.1,1132.3,377.3z"/>
				</g>
			</g>
			<path fill="#B1C5BA" d="M1142.3,377.8c0,1-0.5,1.1-1.2,1.7c-0.4,0.3-0.9,0.6-1.3,0.9s-0.7,0.9-0.6,1.4c0.1,0.6,0.8,1,1.4,1
				c1.7,0.1,3-1.4,3.9-2.7c0.3-0.4,0.6-0.8,0.7-1.3c0.1-0.7-0.3-1.4-1-1.6S1142.7,377.2,1142.3,377.8"/>
		</g>
		<g opacity="0.5">
			<circle fill="#C4CABF" cx="1224.2" cy="369" r="6.6"/>
			<g>
				<g>
					<path fill="#93BDAF" d="M1218.4,366.1c3.5-6.3,14.7-0.4,11.3,6c-1.5,2.8-5.5,3.1-8.1,1.6c-2.9-1.7-4.2-5.3-2.8-8.4
						c0.4-0.9-0.9,1.1-1,1.4c-1.7,3.8-0.3,8.5,4,9.7c4,1.1,7-1.5,8.7-4.8c1.8-3.6,1-8-3-9.8c-4-1.8-7.4,0.7-9.3,4.1
						C1217.5,367.2,1217.7,367.3,1218.4,366.1z"/>
				</g>
			</g>
			<path fill="#B2C5BB" d="M1227.6,370.1c-0.4,0.9-0.9,0.7-1.8,0.9c-0.5,0.1-1,0.1-1.5,0.2c-0.5,0.1-1,0.4-1.1,0.9
				c-0.2,0.6,0.2,1.2,0.7,1.5c1.4,0.8,3.1,0.1,4.5-0.6c0.4-0.2,0.9-0.5,1.1-0.8c0.4-0.5,0.3-1.3-0.1-1.8
				C1229,369.9,1228.2,369.8,1227.6,370.1"/>
		</g>
		<g opacity="0.5">
			<circle fill="#C4CABF" cx="1241.4" cy="91.2" r="6.6"/>
			<g>
				<g>
					<path fill="#93BDAF" d="M1235.5,88.3c3.5-6.3,14.7-0.4,11.3,6c-1.5,2.8-5.5,3.1-8.1,1.6c-2.9-1.7-4.2-5.3-2.8-8.4
						c0.4-0.9-0.9,1.1-1,1.4c-1.7,3.8-0.3,8.5,4,9.7c4,1.1,7-1.5,8.7-4.8c1.8-3.6,1-8-3-9.8c-4-1.8-7.4,0.7-9.3,4.1
						C1234.6,89.4,1234.8,89.5,1235.5,88.3z"/>
				</g>
			</g>
			<path fill="#B2C5BB" d="M1244.8,92.3c-0.4,0.9-0.9,0.7-1.8,0.9c-0.5,0.1-1,0.1-1.5,0.2c-0.5,0.1-1,0.4-1.1,0.9
				c-0.2,0.6,0.2,1.2,0.7,1.5c1.4,0.8,3.1,0.1,4.5-0.6c0.4-0.2,0.9-0.5,1.1-0.8c0.4-0.5,0.3-1.3-0.1-1.8
				C1246.1,92.1,1245.3,92,1244.8,92.3"/>
		</g>
		<g opacity="0.5">
			<circle fill="#C4CABF" cx="1146.3" cy="191.2" r="8.7"/>
			<g>
				<g>
					<path fill="#93BDAF" d="M1138.2,190.4c0.5-10.7,16.3-8,16.4,1.6c0,5-5,7.7-9.4,6.8C1141,198,1138.4,194.4,1138.2,190.4
						c0,0.3-1.1,1.2-1.1,1.8c0.4,6.2,6.5,10.6,12.4,7.9c3.4-1.6,6.1-6,6.1-9.8c0-6.3-6.7-10.5-12.4-7.9c-3.6,1.7-5.9,5.9-6.1,9.8
						C1137.1,191.9,1138.1,191,1138.2,190.4z"/>
				</g>
			</g>
			<path fill="#D5E0DA" d="M1150.1,196.2c-0.7,0.3-1.6,0.4-2.1-0.2c-0.2-0.2-0.2-0.5-0.3-0.7c-0.2-0.8-0.1-1.6,0.3-2.3
				c0.2-0.4,0.4-0.7,0.6-1.1c0.5-0.9,0.7-2,0.5-3c-0.1-0.9-0.4-2,0.3-2.6c1.1-0.1,2.2,0.6,2.8,1.5s0.8,2,0.9,3.1
				c0.1,1.3,0.1,2.7-0.6,3.8C1151.9,195.5,1151,195.9,1150.1,196.2z"/>
			<path fill="#B1C5BA" d="M1144.3,194.1c-0.5,0.1-0.7,0.8-0.5,1.2c0.9,0.1,1.6-0.9,1.3-1.7c-0.3-0.1-0.6-0.1-0.8,0
				c-0.3,0.1-0.4,0.5-0.2,0.7"/>
			<path fill="#B2C2B3" d="M1148.1,195.9c-0.6-0.2-1.2-0.2-1.8-0.1c-0.4,0.3-0.4,0.9-0.1,1.3c0.3,0.4,0.9,0.5,1.3,0.4
				c0.4-0.1,0.8-0.4,0.9-0.8c0.1-0.4-0.2-0.9-0.6-0.9"/>
		</g>
		<g opacity="0.5">
			<circle fill="#C4CABF" cx="1392.9" cy="278.2" r="7.9"/>
			<g>
				<g>
					<path fill="#93BDAF" d="M1385.6,277.3c0.4-9.2,14.4-6.3,14.4,1.9c0,4.3-4.4,6.4-8.2,5.6
						C1388.2,284.1,1385.9,280.9,1385.6,277.3c0,0.3-1.3,1.4-1.3,2.1c0.3,5.6,5.9,9.6,11.2,7.1c3.2-1.5,5.8-5.8,5.8-9.3
						c0-5.6-6.1-9.5-11.2-7.1c-3.4,1.6-5.6,5.7-5.8,9.3C1384.4,279,1385.6,278,1385.6,277.3z"/>
				</g>
			</g>
			<path fill="#D5E0DA" d="M1397.3,281.1c-0.5,0.4-0.8,0.1-0.9-0.1c-0.3-0.6,0-1.1,0.6-1.8c0.2-0.3,0.6-1,0.6-1.4
				c0.2-0.9-0.4-2-1-2.7c-0.6-0.6-3-1.6-2.5-2.3c0.9-0.4,2-0.1,2.8,0.5c0.8,0.6,1.3,1.5,1.7,2.4c0.5,1.1,0.9,2.3,0.5,3.4
				C1398.7,279.9,1398,280.6,1397.3,281.1z"/>
			<path fill="#B1C6B5" d="M1390.3,279.6c-0.4,0.1-0.7,0.7-0.4,1.1c0.8,0.1,1.5-0.8,1.2-1.6c-0.2-0.1-0.5-0.1-0.7,0
				c-0.2,0.1-0.4,0.4-0.2,0.6"/>
		</g>
		<g opacity="0.5">
			<circle fill="#C4CABF" cx="1398.2" cy="101.2" r="15.6"/>
			<g>
				<g>
					<path fill="#93BDAF" d="M1383.2,100.3c0.7-19.8,29.7-16.1,29.9,1.8c0.1,9.6-9.5,15.3-18.1,13.1
						C1388,113.5,1383.6,107.4,1383.2,100.3c0,0.3-1.3,1.4-1.3,2.1c0.6,11,11.6,18.9,22.1,14.1c6-2.7,10.4-9.8,10.4-16.4
						c-0.1-11.1-11.9-18.7-22.1-14.1c-6.2,2.8-10.1,9.8-10.4,16.4C1382,102.1,1383.2,101,1383.2,100.3z"/>
				</g>
			</g>
			<path fill="#D5E0DA" d="M1407,106.8c-1.1,0.8-1.6,0.2-1.9-0.2c-0.7-1.2,0.1-2.1,1.1-3.6c0.5-0.6,1.1-2,1.2-2.7
				c0.3-1.8-0.7-4.1-2.1-5.3c-1.2-1.1-5.9-3.2-5-4.6c1.8-0.8,4-0.2,5.5,1c1.5,1.2,2.5,3,3.3,4.8c0.9,2.1,1.7,4.6,0.9,6.8
				C1409.7,104.6,1408.4,105.8,1407,106.8z"/>
			<path fill="#B1C6B5" d="M1393.1,103.9c-0.9,0.3-1.3,1.4-0.8,2.2c1.5,0.1,2.9-1.6,2.3-3.1c-0.5-0.1-1-0.2-1.5,0
				c-0.5,0.2-0.8,0.8-0.4,1.2"/>
		</g>
		<g opacity="0.5">
			<circle fill="#C4CABF" cx="1348.2" cy="419.2" r="6"/>
			<g>
				<g>
					<path fill="#93BDAF" d="M1350.8,424c-2.3,0.8-4.8,0.4-6.5-1.4c-2.5-2.5-2.4-6.9,1.2-8.3C1351.5,411.9,1357.5,420.9,1350.8,424
						c-0.4,0.2-0.7,1.4-0.8,1.5c2.5-1.2,4.6-4.1,4.7-6.9c0.1-4.3-4.3-7.4-8.3-5.8c-2.4,1-4.3,3.8-4.6,6.4c-0.6,4.6,4,7.8,8.2,6.4
						C1350.4,425.4,1350.5,424.1,1350.8,424z"/>
				</g>
			</g>
			<path fill="#B2C5BA" d="M1350.7,423.6c-0.5,0.3-1,0.6-1.6,0.8c-0.5,0.1-1,0.2-1.5,0.1c-0.5-0.2-0.9-0.6-0.8-1.1
				c0-0.4,0.3-0.7,0.6-1c0.2-0.2,0.3-0.3,0.5-0.5c0.2-0.2,0.3-0.4,0.5-0.5c0.5-0.5,1.1-0.8,1.7-1.1c0.4-0.1,0.7-0.2,1.1-0.1
				c0.7,0.2,1.1,1.1,0.9,1.8C1351.9,422.6,1351.3,423.1,1350.7,423.6z"/>
			<path fill="#B1C5BA" d="M1345.7,416.9c0.1,0.4,0.6,0.5,0.9,0.5c0.9,0.1,1.9,0.1,2.9,0.1c0.2,0,0.4,0,0.5-0.1
				c0.2-0.1,0.3-0.3,0.2-0.5c-0.1-0.1-0.2-0.1-0.3-0.2c-0.9-0.4-1.9-0.8-2.9-0.9c-0.3,0-0.7,0-0.9,0.2
				C1345.8,416.3,1345.6,416.6,1345.7,416.9z"/>
			<path fill="#B4D5C9" d="M1348.7,422.3c0.1-0.3,0.3-0.5,0.5-0.7c0.9-1,0.9-2.5,0.8-3.8c0-0.3,0-0.6-0.3-0.7
				c0.2-0.3,0.6-0.6,0.9-0.6c0.4,0.1,0.6,0.5,0.7,0.8c0.4,1.2,0.2,2.5-0.4,3.6C1350.6,421.8,1349.6,422.6,1348.7,422.3z"/>
		</g>
		<g opacity="0.5">
			<circle fill="#C4CABF" cx="1325.4" cy="322.8" r="5.7"/>
			<g>
				<g>
					<path fill="#93BDAF" d="M1328.1,327.2c-2.2,0.7-4.5,0.4-6.2-1.3c-2.2-2.2-2.4-6.1,0.9-7.4c2.2-0.9,4.7-0.3,6.3,1.5
						C1331.2,322.3,1331.1,325.8,1328.1,327.2c-0.6,0.3-0.8,1.8-1,1.9c2.5-1.1,4.6-4.2,4.6-7c0.1-4-4.1-7-7.8-5.5
						c-2.4,1-4.3,3.9-4.6,6.4c-0.5,4.4,3.8,7.4,7.8,6C1327.6,328.8,1327.7,327.3,1328.1,327.2z"/>
				</g>
			</g>
			<path fill="#B2C5BA" d="M1327.8,327c-0.5,0.3-1,0.5-1.5,0.7c-0.5,0.1-1,0.2-1.4,0.1c-0.5-0.1-0.8-0.6-0.8-1.1
				c0-0.4,0.3-0.7,0.5-0.9c0.1-0.2,0.3-0.3,0.4-0.5c0.2-0.2,0.3-0.3,0.5-0.5c0.5-0.4,1-0.8,1.6-1c0.3-0.1,0.7-0.2,1-0.1
				c0.7,0.2,1,1,0.9,1.7C1328.9,326,1328.4,326.6,1327.8,327z"/>
			<path fill="#B1C5BA" d="M1323.1,320.7c0.1,0.3,0.5,0.5,0.9,0.5c0.9,0.1,1.8,0.1,2.7,0.1c0.2,0,0.3,0,0.5-0.1
				c0.1-0.1,0.2-0.3,0.2-0.4c-0.1-0.1-0.1-0.1-0.2-0.2c-0.9-0.4-1.8-0.8-2.8-0.8c-0.3,0-0.6,0-0.9,0.2
				C1323.2,320.1,1323,320.4,1323.1,320.7z"/>
			<path fill="#B4D5C9" d="M1325.9,325.8c0.1-0.3,0.3-0.5,0.5-0.7c0.8-0.9,0.8-2.3,0.8-3.6c0-0.2,0-0.5-0.3-0.6
				c0.2-0.3,0.5-0.6,0.9-0.5c0.4,0,0.6,0.4,0.7,0.8c0.3,1.1,0.2,2.4-0.3,3.4C1327.7,325.3,1326.8,326,1325.9,325.8z"/>
		</g>
		<g opacity="0.5">
			<circle fill="#C4CABF" cx="777" cy="165.3" r="19.6"/>
			<g>
				<g>
					<path fill="#93BDAF" d="M757.9,164.9c0.2-12.1,11.5-20.5,23.1-17.8c8.6,2,15,9.9,15.1,18.7c0.1,11.9-11.2,20.2-22.5,17.9
						C764.5,181.9,758.4,174,757.9,164.9c0,0.2-0.9,1-0.9,1.5c0.7,13.2,13.7,22.9,26.5,18c8-3,13.6-11.6,13.5-20.1
						c-0.2-13.4-14-22.8-26.5-18c-8.2,3.1-13.3,11.6-13.5,20.1C757,166.1,757.9,165.4,757.9,164.9z"/>
				</g>
			</g>
			<path fill="#96BAB0" d="M785.1,181.5c2.3-0.6,4-2.5,5.5-4.2c1.6-1.8,3.2-3.6,4.1-5.7c0.6-1.3,0.9-2.7,1.1-4.1
				c0.4-2.7,0.4-5.6-0.6-8.2c-1-2.6-2.9-4.9-5.5-5.8c-0.4,0.3-0.7,0.9-0.7,1.4c0.2,0.1,0.5,0.2,0.7,0.2c3.4,5.6,2.7,13.3-1.7,18.2
				c-1.8,1.9-4,3.4-5.4,5.7c-0.2,0.3-0.3,0.6-0.4,1C782,181.3,783.9,181.9,785.1,181.5z"/>
			<path fill="#D5E0DA" d="M793,175.8c2-3.8,0.7-9-2.7-11.5c-1.7-1.2-3.7-1.8-5.6-2.4c-0.5-0.2-1.1-0.3-1.6-0.5
				c-0.1,4-1.8,7.9-4.5,10.8c-2.7,2.8-6.6,5.1-7.3,8.9c2.5,1.7,5.2,3.6,8.3,3.3c1.4-0.1,2.7-0.7,4-1.3
				C787.2,181.4,791.1,179.4,793,175.8z"/>
			<path fill="#B1C5BA" d="M779.3,157.4c-1.8-1.9-5-2.4-7.3-1.2s-3.7,4-3.4,6.7c0.4,3.1,3.1,5.6,6.2,6c0.6,0.1,1.3,0.1,1.8-0.1
				s1.1-0.8,1.1-1.4c0.1-1.1-1-1.8-2-2.1c-1-0.3-2.2-0.4-3-1.1c-1-0.9-1-2.5-0.3-3.5s2-1.6,3.3-1.7c1.3,0,2.6,0.4,3.7,0.9
				c0.3-0.5,0.5-1.1,0.4-1.7C779.8,158,779.6,157.7,779.3,157.4z"/>
		</g>
		<g opacity="0.5">
			<circle fill="#C4CABF" cx="221.8" cy="367.2" r="13.7"/>
			<g>
				<g>
					<path fill="#93BDAF" d="M208.6,366.6c0.6-17.7,26.3-14.9,26.5,1.1c0.1,8.8-8.6,14-16.4,11.9C212.6,378,208.9,372.7,208.6,366.6
						c0,0.2-1,1-0.9,1.5c0.6,9.4,9.8,16.3,19,12.5c5.5-2.3,9.4-8.5,9.4-14.4c-0.1-9.5-10.2-16.2-19-12.5c-5.7,2.4-9.2,8.4-9.4,14.4
						C207.6,367.9,208.5,367.1,208.6,366.6z"/>
				</g>
			</g>
			<path fill="#96BAB0" d="M227.5,378.5c1.6-0.4,2.8-1.7,3.9-2.9c1.1-1.2,2.2-2.5,2.9-4c0.4-0.9,0.6-1.9,0.8-2.8
				c0.3-1.9,0.3-3.9-0.4-5.7c-0.7-1.8-2.1-3.4-3.9-4c-0.3,0.2-0.5,0.6-0.5,1c0.1,0.1,0.3,0.2,0.5,0.1c2.4,3.9,1.9,9.4-1.2,12.7
				c-1.2,1.4-2.8,2.4-3.8,4c-0.1,0.2-0.2,0.4-0.3,0.7C225.3,378.4,226.6,378.8,227.5,378.5z"/>
			<path fill="#D5E0DA" d="M233,374.5c1.4-2.7,0.5-6.3-1.9-8.1c-1.2-0.9-2.6-1.3-3.9-1.7c-0.4-0.1-0.7-0.2-1.1-0.3
				c-0.1,2.8-1.2,5.5-3.2,7.6c-1.9,2-4.6,3.6-5.1,6.3c1.7,1.2,3.7,2.5,5.8,2.3c1-0.1,1.9-0.5,2.8-0.9
				C228.9,378.4,231.7,377.1,233,374.5z"/>
			<path fill="#B1C5BA" d="M223.4,361.6c-1.3-1.4-3.5-1.7-5.1-0.8s-2.6,2.8-2.4,4.7c0.3,2.2,2.2,3.9,4.3,4.2
				c0.4,0.1,0.9,0.1,1.3-0.1c0.4-0.2,0.7-0.5,0.8-1c0.1-0.7-0.7-1.3-1.4-1.5s-1.5-0.2-2.1-0.7c-0.7-0.6-0.7-1.7-0.2-2.5
				c0.5-0.8,1.4-1.2,2.3-1.2s1.8,0.3,2.6,0.7c0.2-0.4,0.4-0.8,0.3-1.2C223.7,362,223.6,361.8,223.4,361.6z"/>
		</g>
		<g opacity="0.5">
			<circle fill="#C4CABF" cx="391.4" cy="157.2" r="21.2"/>
			<g>
				<g>
					<path fill="#93BDAF" d="M380.1,138.8c-7.7,5.5-12.2,15.3-9.7,24.7c3.7,13.8,20.3,20,32.2,12.2c7.8-5.2,12.1-15.6,9.7-24.7
						C408.5,136.8,392.2,131.4,380.1,138.8c-0.4,0.3-0.6,1.4-0.8,1.6c8.3-5.1,19-4.5,26.2,2.3c9.1,8.6,8.9,24.2-2,31.4
						c-7.9,5.2-18.7,4.4-25.7-1.9c-9.7-8.7-9.3-24.2,1.5-31.9C379.7,140,379.9,138.9,380.1,138.8z"/>
				</g>
			</g>
			<path fill="#96BAB0" d="M410.8,154.5c0.8,2.4,0.2,5-0.4,7.5c-0.6,2.5-1.2,5-2.6,7.2c-0.8,1.3-1.8,2.4-3,3.4
				c-2.2,2-4.8,3.7-7.7,4.4c-2.9,0.7-6.1,0.3-8.5-1.4c0.1-0.6,0.3-1.1,0.8-1.5c0.3,0.1,0.5,0.3,0.6,0.5c7.1-0.4,13.5-5.8,15.2-12.6
				c0.7-2.8,0.6-5.7,1.8-8.3c0.2-0.3,0.3-0.7,0.6-0.9C408.7,151.9,410.3,153.2,410.8,154.5z"/>
			<path fill="#D5E0DA" d="M410.5,165.1c-2.2,4.1-7.6,6.1-11.9,4.6c-2.1-0.7-3.9-2.1-5.6-3.5c-0.5-0.4-0.9-0.8-1.4-1.1
				c3.5-2.5,6-6.4,6.9-10.6c0.9-4.1,0.5-9,3.5-12c3.1,1.2,6.4,2.5,7.9,5.4c0.7,1.3,1,2.9,1.3,4.4
				C411.9,156.5,412.6,161.2,410.5,165.1z"/>
			<path fill="#B1C5BA" d="M385.7,164.1c-2.8-0.4-5.2-3-5.5-5.8s1.3-5.8,3.9-7.1c3-1.5,6.9-0.6,9.2,1.8c0.5,0.5,0.9,1.1,1,1.7
				c0.1,0.7,0,1.4-0.5,1.8c-0.9,0.7-2.2,0.2-3.1-0.5c-0.9-0.7-1.6-1.7-2.8-2c-1.4-0.3-2.8,0.6-3.4,1.9c-0.5,1.3-0.2,2.8,0.5,4
				c0.7,1.2,1.9,2,3.1,2.7c-0.3,0.6-0.6,1.2-1.2,1.4C386.5,164.1,386.1,164.1,385.7,164.1z"/>
		</g>
		<g opacity="0.5">
			<circle fill="#C4CABF" cx="691.7" cy="91.5" r="21.4"/>
			<g>
				<g>
					<path fill="#93BDAF" d="M670.7,91.1c0.2-13.1,12.1-22.4,24.8-19.8c9.8,2,16.9,10.7,17.1,20.6c0.3,12.9-12,22-24.2,19.9
						C678.2,110,671.2,101.2,670.7,91.1c0,0.2-0.9,1-0.9,1.5c0.7,14.2,14.4,24.7,28.3,20c9.1-3.1,15.7-12.6,15.5-22.2
						c-0.2-14.3-14.7-24.6-28.3-20c-9.4,3.1-15.4,12.5-15.5,22.2C669.8,92.3,670.7,91.6,670.7,91.1z"/>
				</g>
			</g>
			<path fill="#96BAB0" d="M700.5,109.2c2.5-0.7,4.3-2.7,6-4.6c1.7-1.9,3.5-3.9,4.5-6.3c0.6-1.4,1-2.9,1.2-4.4
				c0.4-3,0.4-6.1-0.7-8.9c-1.1-2.8-3.2-5.3-6.1-6.3c-0.5,0.4-0.8,0.9-0.8,1.5c0.2,0.2,0.5,0.2,0.8,0.2c3.7,6.1,2.9,14.6-1.9,19.9
				c-1.9,2.1-4.4,3.8-5.9,6.2c-0.2,0.3-0.4,0.7-0.4,1C697.1,109,699.1,109.6,700.5,109.2z"/>
			<path fill="#D5E0DA" d="M709.1,103c2.1-4.2,0.8-9.8-3-12.6c-1.8-1.3-4-2-6.1-2.7c-0.6-0.2-1.2-0.4-1.7-0.5
				c-0.1,4.4-1.9,8.7-4.9,11.8c-3,3.1-7.2,5.6-8,9.8c2.7,1.9,5.7,3.9,9,3.6c1.5-0.2,3-0.8,4.4-1.5C702.8,109,707.1,106.9,709.1,103z
				"/>
			<path fill="#B1C5BA" d="M694.2,82.8c-2-2.1-5.5-2.7-8-1.3c-2.6,1.4-4.1,4.4-3.7,7.3c0.5,3.4,3.4,6.2,6.8,6.6
				c0.7,0.1,1.4,0.1,2-0.2c0.6-0.3,1.2-0.8,1.2-1.5c0.1-1.2-1.1-2-2.2-2.3c-1.1-0.3-2.4-0.4-3.3-1.2c-1.1-0.9-1.1-2.7-0.4-3.9
				c0.8-1.2,2.2-1.8,3.6-1.8c1.4,0,2.8,0.4,4.1,1c0.3-0.6,0.6-1.2,0.5-1.8C694.7,83.4,694.4,83.1,694.2,82.8z"/>
		</g>
		<g opacity="0.5">
			<circle fill="#C4CABF" cx="40.1" cy="283.6" r="4.3"/>
			<g>
				<g>
					<path fill="#93BDAF" d="M36.3,282.9c0.1-2.3,2.5-3.2,4.5-2.7c1.8,0.5,3.2,2.2,3.2,4.1c0,2.2-2.4,3.2-4.3,2.8
						C37.7,286.6,36.4,284.9,36.3,282.9c0,0.2-1,1-0.9,1.5c0.2,3.1,3.3,5.3,6.2,3.9c1.8-0.9,3.4-3.5,3.4-5.5c0-3.1-3.4-5.2-6.2-3.9
						c-1.9,0.9-3.3,3.4-3.4,5.5C35.4,284.1,36.3,283.4,36.3,282.9z"/>
				</g>
			</g>
			<path fill="#96BAB0" d="M41.9,287.2c0.5-0.1,0.9-0.5,1.2-0.9c0.3-0.4,0.7-0.8,0.9-1.3c0.1-0.3,0.2-0.6,0.2-0.9
				c0.1-0.6,0.1-1.2-0.1-1.8c-0.2-0.6-0.7-1.1-1.2-1.3c-0.1,0.1-0.2,0.2-0.2,0.3c0,0,0.1,0,0.2,0c0.8,1.2,0.6,3-0.4,4
				c-0.4,0.4-0.9,0.8-1.2,1.3c0,0.1-0.1,0.1-0.1,0.2C41.3,287.1,41.7,287.2,41.9,287.2z"/>
			<path fill="#D5E0DA" d="M43.7,285.9c0.4-0.8,0.2-2-0.6-2.5c-0.4-0.3-0.8-0.4-1.2-0.5c-0.1,0-0.2-0.1-0.4-0.1c0,0.9-0.4,1.7-1,2.4
				c-0.6,0.6-1.5,1.1-1.6,2c0.5,0.4,1.2,0.8,1.8,0.7c0.3,0,0.6-0.2,0.9-0.3C42.4,287.1,43.3,286.7,43.7,285.9z"/>
			<path fill="#B1C5BA" d="M40.7,281.8c-0.4-0.4-1.1-0.5-1.6-0.3s-0.8,0.9-0.8,1.5c0.1,0.7,0.7,1.2,1.4,1.3c0.1,0,0.3,0,0.4,0
				c0.1-0.1,0.2-0.2,0.3-0.3c0-0.2-0.2-0.4-0.4-0.5s-0.5-0.1-0.7-0.2c-0.2-0.2-0.2-0.5-0.1-0.8c0.2-0.2,0.4-0.4,0.7-0.4
				c0.3,0,0.6,0.1,0.8,0.2c0.1-0.1,0.1-0.2,0.1-0.4C40.8,282,40.7,281.9,40.7,281.8z"/>
		</g>
		<g opacity="0.5">
			<circle fill="#C4CABF" cx="211.5" cy="219.6" r="4.3"/>
			<g>
				<g>
					<path fill="#93BDAF" d="M207.7,218.9c0.1-2.3,2.5-3.2,4.5-2.7c1.8,0.5,3.2,2.2,3.2,4.1c0,2.2-2.4,3.2-4.3,2.8
						C209.1,222.6,207.8,220.9,207.7,218.9c0,0.2-1,1-0.9,1.5c0.2,3.1,3.3,5.3,6.2,3.9c1.8-0.9,3.4-3.5,3.4-5.5
						c0-3.1-3.4-5.2-6.2-3.9c-1.9,0.9-3.3,3.4-3.4,5.5C206.7,220.1,207.6,219.4,207.7,218.9z"/>
				</g>
			</g>
			<path fill="#D5E0DA" d="M212.9,218.7"/>
			<path fill="#D5E0DA" d="M210.3,223.1c0.5,0.4,1.2,0.8,1.8,0.7c0.3,0,0.6-0.2,0.9-0.3c0.8-0.4,1.7-0.8,2.1-1.6"/>
		</g>
		<g opacity="0.5">
			<circle fill="#C4CABF" cx="97.7" cy="135.1" r="2.6"/>
			<g>
				<g>
					<path fill="#93BDAF" d="M97.5,136.8c-1-0.3-1.8-1.1-2-2.1c-0.1-0.8,0-1.1,0.7-1.3c0.5-0.2,1.1-0.3,1.6-0.1c1,0.2,1.8,1.1,2,2.1
						c0.1,0.6,0.1,1-0.5,1.2C98.8,136.9,98.1,137,97.5,136.8c-0.3-0.1-0.9,1.6-0.9,1.6c3.4,0.7,6.2-5.7,2.2-6.7
						c-3.4-0.9-6.1,5.5-2.2,6.7C96.8,138.5,97.5,136.8,97.5,136.8z"/>
				</g>
			</g>
			<path fill="#D5E0DA" d="M97.4,134.1"/>
			<path fill="#D5E0DA" d="M99.5,136.4c0.3-0.3,0.7-0.6,0.7-1c0-0.2,0-0.4,0-0.6c-0.1-0.5-0.2-1.1-0.6-1.5"/>
		</g>
		<g opacity="0.5">
			<circle fill="#C4CABF" cx="118.9" cy="128.4" r="2.6"/>
			<g>
				<g>
					<path fill="#93BDAF" d="M120,130.2c-1,0.2-2.1-0.1-2.7-0.9c-0.4-0.5-0.6-1.1-0.6-1.7c0-0.6,0.5-0.8,1.1-1
						c1-0.3,2.1,0.1,2.7,0.9c0.3,0.4,0.6,1,0.6,1.5C121.1,129.8,120.7,130,120,130.2c-0.2,0.1-0.4,0.6-0.5,0.7
						c-0.1,0.1-0.3,0.8-0.4,0.8c1.4-0.4,2.4-2,2.8-3.4c0.5-1.9-1.2-3.8-3.2-3.4c-1.4,0.3-2.4,2-2.8,3.3c-0.6,2,1.2,3.8,3.2,3.4
						c0.2,0,0.4-0.6,0.5-0.7C119.7,130.9,120,130.2,120,130.2z"/>
				</g>
			</g>
			<path fill="#D5E0DA" d="M118.2,127.7"/>
			<path fill="#D5E0DA" d="M121.2,128.7c0.2-0.4,0.3-0.8,0.2-1.2c-0.1-0.2-0.2-0.3-0.3-0.5c-0.3-0.4-0.7-0.9-1.2-1"/>
		</g>
		<g opacity="0.5">
			<circle fill="#C4CABF" cx="1056.6" cy="67.5" r="16.3"/>
			<g>
				<g>
					<path fill="#93BDAF" d="M1040.8,67c0.5-20.9,31.3-18.3,31.6,1c0.2,10.1-9.7,16.7-19,14.5C1046,80.8,1041.2,74.4,1040.8,67
						c0,0.2-1,1-0.9,1.5c0.6,11.3,12,19.4,22.8,14.7c6.3-2.8,10.7-9.8,10.6-16.7c-0.2-11.4-12.3-19.3-22.8-14.7
						c-6.5,2.8-10.4,9.8-10.6,16.7C1039.9,68.2,1040.8,67.5,1040.8,67z"/>
				</g>
			</g>
			<path fill="#96BAB0" d="M1063.3,80.9c1.9-0.5,3.3-2,4.6-3.5c1.3-1.5,2.6-3,3.4-4.7c0.5-1.1,0.7-2.2,0.9-3.4
				c0.3-2.3,0.3-4.6-0.5-6.8s-2.4-4-4.6-4.8c-0.3,0.3-0.6,0.7-0.6,1.2c0.2,0.1,0.4,0.2,0.6,0.2c2.8,4.6,2.2,11.1-1.4,15.1
				c-1.5,1.6-3.4,2.9-4.5,4.7c-0.2,0.2-0.3,0.5-0.3,0.8C1060.8,80.8,1062.3,81.2,1063.3,80.9z"/>
			<path fill="#D5E0DA" d="M1069.9,76.2c1.6-3.2,0.6-7.4-2.3-9.6c-1.4-1-3-1.5-4.7-2c-0.4-0.1-0.9-0.3-1.3-0.4
				c-0.1,3.3-1.5,6.6-3.7,9c-2.2,2.4-5.5,4.2-6,7.4c2.1,1.4,4.4,3,6.9,2.7c1.2-0.1,2.3-0.6,3.3-1.1
				C1065.1,80.8,1068.3,79.2,1069.9,76.2z"/>
			<path fill="#B1C5BA" d="M1058.5,60.9c-1.5-1.6-4.1-2-6.1-1c-2,1-3.1,3.4-2.8,5.5c0.3,2.5,2.6,4.7,5.1,5c0.5,0.1,1.1,0.1,1.5-0.1
				s0.9-0.6,0.9-1.1c0.1-0.9-0.8-1.5-1.7-1.8c-0.9-0.2-1.8-0.3-2.5-0.9c-0.8-0.7-0.9-2-0.3-2.9c0.6-0.9,1.7-1.4,2.8-1.4
				c1.1,0,2.1,0.3,3.1,0.8c0.2-0.4,0.5-0.9,0.3-1.4C1058.9,61.4,1058.7,61.1,1058.5,60.9z"/>
		</g>
		<g opacity="0.5">
			<circle fill="#C4CABF" cx="1286.8" cy="75.2" r="10.4"/>
			<g>
				<g>
					<path fill="#93BDAF" d="M1281.9,83.3c-4.7-3.2-7.3-10.3-2.6-15c3.2-3.2,8.6-3.6,12.3-1.2c4.9,3,7.1,10.5,2.6,15
						C1290.9,85.3,1285.8,85.4,1281.9,83.3c-0.1-0.1-1,1.5-0.9,1.6c12.1,6.5,23.5-12.2,11.6-19.4c-11.9-7.2-23,11.7-11.6,19.4
						C1281.1,84.9,1282.1,83.4,1281.9,83.3z"/>
				</g>
			</g>
			<path fill="#96BAB0" d="M1296.4,76.1c0.4-1.2,0-2.5-0.3-3.7c-0.4-1.2-0.7-2.4-1.4-3.4c-0.4-0.6-1-1.1-1.5-1.6
				c-1.1-0.9-2.4-1.7-3.8-2c-1.4-0.3-3,0-4.2,0.9c0,0.3,0.2,0.5,0.4,0.7c0.1-0.1,0.2-0.1,0.3-0.3c3.5,0,6.8,2.5,7.7,5.9
				c0.4,1.3,0.4,2.8,1,4c0.1,0.2,0.2,0.3,0.3,0.4C1295.4,77.4,1296.2,76.7,1296.4,76.1z"/>
			<path fill="#D5E0DA" d="M1296,70.9c-1.2-1.9-3.8-2.8-5.9-2c-1,0.4-1.9,1.1-2.7,1.8c-0.2,0.2-0.4,0.4-0.7,0.6
				c1.8,1.2,3.1,3,3.6,5.1c0.5,2,0.4,4.4,2,5.8c1.5-0.6,3.1-1.4,3.8-2.8c0.3-0.7,0.4-1.4,0.5-2.2C1296.9,75.1,1297.1,72.8,1296,70.9
				z"/>
			<path fill="#B1C5BA" d="M1283.9,71.9c-1.4,0.3-2.5,1.6-2.6,3c-0.1,1.4,0.8,2.8,2.1,3.4c1.5,0.7,3.4,0.2,4.5-1.1
				c0.2-0.3,0.4-0.5,0.5-0.9c0.1-0.3,0-0.7-0.3-0.9c-0.4-0.3-1.1-0.1-1.5,0.3c-0.4,0.4-0.8,0.9-1.3,1c-0.7,0.2-1.4-0.2-1.7-0.8
				c-0.3-0.6-0.2-1.4,0.2-2c0.3-0.6,0.9-1,1.5-1.4c-0.2-0.3-0.3-0.6-0.6-0.7C1284.3,71.9,1284.1,71.9,1283.9,71.9z"/>
		</g>
		<g opacity="0.5">
			<circle fill="#C4CABF" cx="934.6" cy="24" r="6.8"/>
			<g>
				<g>
					<path fill="#93BDAF" d="M931.5,29.1c-2.8-1.9-4.8-6.4-2-9.3c2.1-2.1,5.7-2.3,8.1-0.8c2.9,1.8,4.7,6.5,2,9.3
						C937.4,30.5,934,30.5,931.5,29.1c-0.1-0.1-1,1.5-0.9,1.6c8.1,4.4,15.9-8.5,8-13.3c-7.9-4.8-15.6,8.2-8,13.3
						C930.6,30.7,931.6,29.2,931.5,29.1z"/>
				</g>
			</g>
			<path fill="#96BAB0" d="M940.9,24.6c0.2-0.8,0-1.6-0.2-2.4c-0.2-0.8-0.5-1.6-0.9-2.3c-0.3-0.4-0.6-0.8-1-1.1
				c-0.7-0.6-1.6-1.1-2.5-1.3s-2,0-2.7,0.6c0,0.2,0.1,0.4,0.3,0.5c0.1,0,0.2-0.1,0.2-0.2c2.3,0,4.5,1.7,5.1,3.9
				c0.2,0.9,0.3,1.8,0.7,2.7c0.1,0.1,0.1,0.2,0.2,0.3C940.2,25.5,940.7,25.1,940.9,24.6z"/>
			<path fill="#D5E0DA" d="M940.6,21.2c-0.8-1.3-2.5-1.9-3.9-1.3c-0.7,0.3-1.2,0.7-1.8,1.2c-0.1,0.1-0.3,0.3-0.4,0.4
				c1.2,0.8,2,2,2.4,3.3c0.3,1.3,0.3,2.9,1.3,3.8c1-0.4,2-0.9,2.5-1.8c0.2-0.4,0.3-0.9,0.3-1.4C941.2,24,941.3,22.5,940.6,21.2z"/>
			<path fill="#B1C5BA" d="M932.6,21.9c-0.9,0.2-1.6,1-1.7,2c-0.1,0.9,0.5,1.9,1.4,2.2c1,0.4,2.2,0.1,2.9-0.7
				c0.1-0.2,0.3-0.4,0.3-0.6c0-0.2,0-0.5-0.2-0.6c-0.3-0.2-0.7,0-1,0.2s-0.5,0.6-0.9,0.7c-0.4,0.1-0.9-0.1-1.1-0.6
				c-0.2-0.4-0.1-0.9,0.1-1.3s0.6-0.7,1-0.9c-0.1-0.2-0.2-0.4-0.4-0.4C932.9,21.8,932.8,21.9,932.6,21.9z"/>
		</g>
		<g opacity="0.5">
			<circle fill="#C4CABF" cx="1324.2" cy="97.9" r="6.8"/>
			<g>
				<g>
					<path fill="#93BDAF" d="M1321.1,102.9c-2.8-1.9-4.8-6.4-2-9.3c2.1-2.1,5.7-2.3,8.1-0.8c2.9,1.8,4.7,6.5,2,9.3
						C1327.1,104.3,1323.7,104.3,1321.1,102.9c-0.1-0.1-1,1.5-0.9,1.6c8.1,4.4,15.9-8.5,8-13.3c-7.9-4.8-15.6,8.2-8,13.3
						C1320.3,104.6,1321.3,103,1321.1,102.9z"/>
				</g>
			</g>
			<path fill="#96BAB0" d="M1330.5,98.5c0.2-0.8,0-1.6-0.2-2.4c-0.2-0.8-0.5-1.6-0.9-2.3c-0.3-0.4-0.6-0.8-1-1.1
				c-0.7-0.6-1.6-1.1-2.5-1.3s-2,0-2.7,0.6c0,0.2,0.1,0.4,0.3,0.5c0.1,0,0.2-0.1,0.2-0.2c2.3,0,4.5,1.7,5.1,3.9
				c0.2,0.9,0.3,1.8,0.7,2.7c0.1,0.1,0.1,0.2,0.2,0.3C1329.9,99.3,1330.4,98.9,1330.5,98.5z"/>
			<path fill="#D5E0DA" d="M1330.3,95.1c-0.8-1.3-2.5-1.9-3.9-1.3c-0.7,0.3-1.2,0.7-1.8,1.2c-0.1,0.1-0.3,0.3-0.4,0.4
				c1.2,0.8,2,2,2.4,3.3c0.3,1.3,0.3,2.9,1.3,3.8c1-0.4,2-0.9,2.5-1.8c0.2-0.4,0.3-0.9,0.3-1.4C1330.8,97.8,1331,96.3,1330.3,95.1z"
				/>
			<path fill="#B1C5BA" d="M1322.3,95.7c-0.9,0.2-1.6,1-1.7,2c-0.1,0.9,0.5,1.9,1.4,2.2c1,0.4,2.2,0.1,2.9-0.7
				c0.1-0.2,0.3-0.4,0.3-0.6s0-0.5-0.2-0.6c-0.3-0.2-0.7,0-1,0.2c-0.3,0.3-0.5,0.6-0.9,0.7c-0.4,0.1-0.9-0.1-1.1-0.6
				s-0.1-0.9,0.1-1.3c0.2-0.4,0.6-0.7,1-0.9c-0.1-0.2-0.2-0.4-0.4-0.4C1322.5,95.7,1322.4,95.7,1322.3,95.7z"/>
		</g>
		<g opacity="0.5">
			<circle fill="#C4CABF" cx="1282.6" cy="121.4" r="11.6"/>
			<g>
				<g>
					<path fill="#93BDAF" d="M1277.1,130.6c-5.4-3.6-8.1-11.7-2.7-16.9c3.6-3.5,9.6-3.9,13.8-1.4c5.6,3.4,7.9,11.8,2.7,16.9
						C1287.1,132.8,1281.5,132.9,1277.1,130.6c-0.1-0.1-1,1.5-0.9,1.6c13.5,7.3,26.1-13.4,12.9-21.4c-13.2-8.1-25.6,12.9-12.9,21.4
						C1276.2,132.2,1277.2,130.6,1277.1,130.6z"/>
				</g>
			</g>
			<path fill="#96BAB0" d="M1293.3,122.5c0.4-1.3,0-2.8-0.4-4.1c-0.4-1.3-0.8-2.7-1.6-3.9c-0.5-0.7-1.1-1.3-1.7-1.8
				c-1.2-1.1-2.7-1.9-4.3-2.3c-1.6-0.3-3.4-0.1-4.6,1c0,0.3,0.2,0.6,0.5,0.8c0.1-0.1,0.3-0.2,0.3-0.3c3.9,0,7.5,2.9,8.6,6.6
				c0.4,1.5,0.5,3.1,1.1,4.5c0.1,0.2,0.2,0.4,0.4,0.5C1292.2,123.9,1293.1,123.2,1293.3,122.5z"/>
			<path fill="#D5E0DA" d="M1292.9,116.7c-1.3-2.2-4.3-3.2-6.6-2.3c-1.1,0.4-2.1,1.3-3,2.1c-0.2,0.2-0.5,0.4-0.7,0.6
				c2,1.3,3.4,3.4,4,5.7c0.6,2.2,0.5,4.9,2.2,6.5c1.6-0.7,3.4-1.5,4.2-3.1c0.4-0.7,0.5-1.6,0.6-2.4
				C1293.9,121.4,1294.1,118.8,1292.9,116.7z"/>
			<path fill="#B1C5BA" d="M1279.4,117.8c-1.5,0.3-2.8,1.7-2.9,3.3c-0.1,1.6,0.9,3.2,2.3,3.8c1.7,0.8,3.8,0.2,5-1.2
				c0.2-0.3,0.4-0.6,0.5-1c0.1-0.4,0-0.8-0.3-1c-0.5-0.4-1.2-0.1-1.7,0.3c-0.5,0.4-0.9,1-1.5,1.2c-0.7,0.2-1.6-0.2-1.9-0.9
				s-0.2-1.5,0.2-2.2c0.4-0.7,1-1.2,1.6-1.6c-0.2-0.3-0.4-0.6-0.7-0.7C1279.8,117.7,1279.6,117.8,1279.4,117.8z"/>
		</g>
		<g opacity="0.5">
			<circle fill="#C4CABF" cx="1081.2" cy="347.7" r="5.3"/>
			<g>
				<g>
					<path fill="#93BDAF" d="M1076.3,347c0.3-6.2,9.6-4.2,9.7,1.3c0,2.9-3,4.3-5.5,3.8C1078.1,351.6,1076.5,349.4,1076.3,347
						c0,0.2-0.9,0.9-0.9,1.4c0.2,3.7,3.9,6.4,7.5,4.8c2.1-1,3.9-3.9,3.9-6.2c0-3.8-4.1-6.4-7.5-4.8c-2.3,1-3.8,3.8-3.9,6.3
						C1075.5,348.2,1076.3,347.5,1076.3,347z"/>
				</g>
			</g>
			<path fill="#D5E0DA" d="M1085.4,350.5c0.5-1,0.2-2.4-0.7-3.1c-0.4-0.3-1-0.5-1.5-0.7c-0.1,0-0.3-0.1-0.4-0.1
				c0,1.1-0.5,2.1-1.2,2.9c-0.7,0.8-1.8,1.4-2,2.4c0.7,0.5,1.4,1,2.2,0.9c0.4,0,0.7-0.2,1.1-0.3
				C1083.9,352,1084.9,351.5,1085.4,350.5z"/>
		</g>
		<g opacity="0.5">
			<circle fill="#C4CABF" cx="1229" cy="203.3" r="5.3"/>
			<g>
				<g>
					<path fill="#93BDAF" d="M1224.2,202.7c0.3-6.2,9.6-4.2,9.7,1.3c0,2.9-3,4.3-5.5,3.8C1225.9,207.2,1224.4,205.1,1224.2,202.7
						c0,0.2-0.9,0.9-0.9,1.4c0.2,3.7,3.9,6.4,7.5,4.8c2.1-1,3.9-3.9,3.9-6.2c0-3.8-4.1-6.4-7.5-4.8c-2.3,1-3.8,3.8-3.9,6.3
						C1223.3,203.8,1224.2,203.2,1224.2,202.7z"/>
				</g>
			</g>
			<path fill="#D5E0DA" d="M1233.3,206.2c0.5-1,0.2-2.4-0.7-3.1c-0.4-0.3-1-0.5-1.5-0.7c-0.1,0-0.3-0.1-0.4-0.1
				c0,1.1-0.5,2.1-1.2,2.9c-0.7,0.8-1.8,1.4-2,2.4c0.7,0.5,1.4,1,2.2,0.9c0.4,0,0.7-0.2,1.1-0.3
				C1231.7,207.7,1232.8,207.2,1233.3,206.2z"/>
		</g>
		<g opacity="0.5">
			<circle fill="#C4CABF" cx="1284.8" cy="15" r="5.3"/>
			<g>
				<g>
					<path fill="#93BDAF" d="M1280,14.3c0.3-6.2,9.6-4.2,9.7,1.3c0,2.9-3,4.3-5.5,3.8C1281.7,18.8,1280.1,16.7,1280,14.3
						c0,0.2-0.9,0.9-0.9,1.4c0.2,3.7,3.9,6.4,7.5,4.8c2.1-1,3.9-3.9,3.9-6.2c0-3.8-4.1-6.4-7.5-4.8c-2.3,1-3.8,3.8-3.9,6.3
						C1279.1,15.5,1279.9,14.8,1280,14.3z"/>
				</g>
			</g>
			<path fill="#D5E0DA" d="M1289.1,17.8c0.5-1,0.2-2.4-0.7-3.1c-0.4-0.3-1-0.5-1.5-0.7c-0.1,0-0.3-0.1-0.4-0.1
				c0,1.1-0.5,2.1-1.2,2.9c-0.7,0.8-1.8,1.4-2,2.4c0.7,0.5,1.4,1,2.2,0.9c0.4,0,0.7-0.2,1.1-0.3
				C1287.5,19.3,1288.6,18.8,1289.1,17.8z"/>
		</g>
		<g opacity="0.5">
			<circle fill="#C4CABF" cx="772.3" cy="394.5" r="18.6"/>
			<g>
				<g>
					<path fill="#93BDAF" d="M754.2,393.8c0.3-11.2,10.6-19,21.5-16.6c8.4,1.8,14.6,9.4,14.7,18c0.1,11-10.4,18.6-20.8,16.8
						C760.7,410.3,754.6,402.7,754.2,393.8c0,0.2-1,1.1-1,1.7c0.6,12.7,13.1,22,25.4,17.2c7.5-2.9,12.9-11.2,12.8-19.2
						c-0.2-12.8-13.4-21.9-25.4-17.2c-7.7,3-12.6,11.1-12.8,19.2C753.2,395.2,754.2,394.4,754.2,393.8z"/>
				</g>
			</g>
			<path fill="#96BAB0" d="M779.9,409.9c2.2-0.6,3.8-2.3,5.3-4c1.5-1.7,3-3.4,3.9-5.4c0.5-1.2,0.9-2.5,1.1-3.8
				c0.4-2.6,0.4-5.3-0.5-7.8s-2.8-4.7-5.2-5.5c-0.4,0.3-0.7,0.8-0.7,1.3c0.2,0.1,0.4,0.2,0.7,0.2c3.2,5.3,2.4,12.7-1.8,17.3
				c-1.7,1.8-3.9,3.3-5.2,5.4c-0.2,0.3-0.3,0.6-0.4,0.9C777,409.7,778.7,410.3,779.9,409.9z"/>
			<path fill="#CBDCD7" d="M777,407.6c-0.2-1.8-0.2-3.6,0.4-5.2c0.7-1.6,2.4-3,4.1-2.7c1.5,0.2,2.7,1.6,3,3.1
				c0.3,1.5-0.1,3.1-0.9,4.4c-1.6,2.8-4.6,4.5-7.7,5.3c-3.1,0.8-6.4,0.7-9.6,0.5c-0.5-0.2-0.6-0.9-0.3-1.3c0.3-0.4,0.8-0.6,1.3-0.8
				c3.3-1.2,6.5-2.4,9.8-3.6"/>
			<path fill="#B1C5BA" d="M777.1,386.1c-1.3,0-2.6,0.3-3.7,0.9c-1.4,0.8-2.6,2.1-3.2,3.6c-1.5,3.8,0.9,8.6,4.8,9.6s8.4-1.9,9-5.9
				C784.6,390.3,781.1,386.2,777.1,386.1z"/>
			<path fill="none" d="M761.5,404.5c1.7-1.6,2.2-4.2,1.3-6.3c-0.4-1-1.2-1.9-1.1-3c0-1.1,1.5-2,2.2-1.1c2.4,1.5,3.8,4.6,3.3,7.4
				s-2.7,5.3-5.5,5.9c-0.3-1-0.5-1.9-0.8-2.9"/>
		</g>
		<g opacity="0.5">
			<circle fill="#C4CABF" cx="989.5" cy="34.3" r="9.4"/>
			<g>
				<g>
					<path fill="#93BDAF" d="M980.6,33.6c0.5-11.6,17.6-9,17.7,1.5c0.1,5.5-5.4,8.6-10.3,7.6C983.7,41.7,980.9,37.9,980.6,33.6
						c0,0.2-1.1,1.1-1,1.7c0.4,6.6,7,11.4,13.4,8.5c3.7-1.7,6.4-6.3,6.4-10.3c-0.1-6.7-7.2-11.3-13.4-8.5c-3.8,1.8-6.2,6.2-6.4,10.3
						C979.6,34.9,980.6,34.1,980.6,33.6z"/>
				</g>
			</g>
			<path fill="#96BAB0" d="M993.3,42.1c1.1-0.3,1.9-1.2,2.7-2c0.8-0.8,1.5-1.7,2-2.7c0.3-0.6,0.4-1.3,0.5-1.9
				c0.2-1.3,0.2-2.7-0.3-3.9s-1.4-2.3-2.6-2.8c-0.2,0.2-0.3,0.4-0.4,0.7c0.1,0.1,0.2,0.1,0.3,0.1c1.6,2.7,1.2,6.4-0.9,8.7
				c-0.9,0.9-2,1.6-2.6,2.7c-0.1,0.1-0.2,0.3-0.2,0.5C991.8,42,992.7,42.3,993.3,42.1z"/>
			<path fill="#CBDCD7" d="M991.8,40.9c-0.1-0.9-0.1-1.8,0.2-2.6c0.3-0.8,1.2-1.5,2.1-1.4c0.8,0.1,1.4,0.8,1.5,1.5
				c0.2,0.8-0.1,1.6-0.5,2.2c-0.8,1.4-2.3,2.3-3.9,2.7c-1.6,0.4-3.2,0.4-4.8,0.3c-0.2-0.1-0.3-0.5-0.1-0.7c0.2-0.2,0.4-0.3,0.7-0.4
				c1.7-0.6,3.3-1.2,5-1.8"/>
			<path fill="#B1C5BA" d="M991.9,30.1c-0.6,0-1.3,0.1-1.9,0.5c-0.7,0.4-1.3,1.1-1.6,1.8c-0.8,1.9,0.5,4.3,2.4,4.8
				c2,0.5,4.2-1,4.5-3C995.7,32.2,993.9,30.1,991.9,30.1z"/>
			<path fill="none" d="M984,39.4c0.9-0.8,1.1-2.1,0.7-3.2c-0.2-0.5-0.6-1-0.6-1.5c0-0.5,0.8-1,1.1-0.6c1.2,0.8,1.9,2.3,1.7,3.7
				c-0.2,1.4-1.4,2.7-2.8,3c-0.1-0.5-0.3-1-0.4-1.5"/>
		</g>
		<g opacity="0.5">
			<circle fill="#C4CABF" cx="1363.4" cy="36.9" r="7.5"/>
			<g>
				<g>
					<path fill="#93BDAF" d="M1356.3,36.1c0.4-9.1,14-6.6,14.1,1.5c0,4.3-4.3,6.5-8.1,5.7C1358.8,42.6,1356.5,39.6,1356.3,36.1
						c0,0.2-1.1,1.1-1,1.7c0.3,5.4,5.6,9.2,10.8,6.8c3-1.4,5.4-5.3,5.3-8.6c0-5.4-5.8-9.1-10.7-6.8c-3.2,1.5-5.2,5.2-5.4,8.6
						C1355.3,37.5,1356.3,36.7,1356.3,36.1z"/>
				</g>
			</g>
			<path fill="#96BAB0" d="M1366.4,43.1c0.9-0.2,1.5-0.9,2.1-1.6c0.6-0.7,1.2-1.4,1.6-2.2c0.2-0.5,0.3-1,0.4-1.6
				c0.2-1.1,0.2-2.1-0.2-3.1c-0.4-1-1.1-1.9-2.1-2.2c-0.2,0.1-0.3,0.3-0.3,0.5c0.1,0.1,0.2,0.1,0.3,0.1c1.3,2.2,1,5.2-0.7,7
				c-0.7,0.7-1.6,1.3-2.1,2.2c-0.1,0.1-0.1,0.2-0.1,0.4C1365.2,43,1365.9,43.3,1366.4,43.1z"/>
			<path fill="#CBDCD7" d="M1365.2,42.2c-0.1-0.7-0.1-1.5,0.2-2.1c0.3-0.7,1-1.2,1.7-1.1c0.6,0.1,1.1,0.6,1.2,1.2
				c0.1,0.6-0.1,1.3-0.4,1.8c-0.7,1.1-1.9,1.8-3.1,2.2c-1.3,0.3-2.6,0.3-3.9,0.2c-0.2-0.1-0.2-0.4-0.1-0.5c0.1-0.2,0.3-0.3,0.5-0.3
				c1.3-0.5,2.7-1,4-1.5"/>
			<path fill="#B1C5BA" d="M1365.3,33.5c-0.5,0-1,0.1-1.5,0.4c-0.6,0.3-1,0.8-1.3,1.5c-0.6,1.5,0.4,3.5,2,3.9s3.4-0.8,3.6-2.4
				S1366.9,33.5,1365.3,33.5z"/>
			<path fill="none" d="M1359,40.9c0.7-0.6,0.9-1.7,0.5-2.6c-0.2-0.4-0.5-0.8-0.4-1.2c0-0.4,0.6-0.8,0.9-0.5c1,0.6,1.5,1.9,1.3,3
				c-0.2,1.1-1.1,2.1-2.2,2.4c-0.1-0.4-0.2-0.8-0.3-1.2"/>
		</g>
		<g opacity="0.5">
			<circle fill="#C4CABF" cx="1152.5" cy="61.3" r="15.8"/>
			<g>
				<g>
					<path fill="#93BDAF" d="M1142.5,72.3c-6.5-6.3-7.7-17.5,0.8-23.2c5.9-3.9,13.9-3.3,19.2,1.4c6.8,6.1,7.4,17.7-0.8,23.2
						C1155.7,77.7,1148,76.8,1142.5,72.3c0,0-1.2,1.6-1,1.8c7.8,6.4,18.8,4.6,24.3-3.8c4.4-6.8,4.1-15.9-2.2-21.5
						c-16-14.1-36.8,11-22,25.4C1141.5,74,1142.7,72.5,1142.5,72.3z"/>
				</g>
			</g>
			<path fill="#96BAB0" d="M1166.6,65.4c0.9-1.7,0.7-3.7,0.5-5.6c-0.2-1.9-0.4-3.8-1.2-5.6c-0.5-1-1.1-2-1.8-2.9
				c-1.4-1.7-3.1-3.3-5.2-4.1c-2.1-0.8-4.5-0.9-6.5,0.2c0,0.4,0.1,0.9,0.4,1.2c0.2,0,0.4-0.2,0.5-0.3c5.2,1,9.4,5.7,9.9,11
				c0.2,2.1-0.2,4.3,0.4,6.3c0.1,0.3,0.2,0.5,0.4,0.7C1164.8,67.1,1166.1,66.3,1166.6,65.4z"/>
			<path fill="#CBDCD7" d="M1163.4,65.9c-1.2-0.9-2.4-1.9-3-3.3c-0.6-1.4-0.5-3.2,0.6-4.2c1-0.8,2.5-0.8,3.7-0.2
				c1.1,0.7,1.9,1.8,2.3,3.1c0.8,2.6,0.2,5.5-1.1,7.9c-1.3,2.4-3.2,4.4-5.1,6.4c-0.4,0.2-0.9-0.2-1-0.6c-0.1-0.4,0.1-0.9,0.2-1.3
				c1.1-2.7,2.2-5.5,3.3-8.2"/>
			<path fill="#B1C5BA" d="M1150,53.6c-0.8,0.8-1.3,1.8-1.5,2.8c-0.3,1.3-0.1,2.8,0.5,4c1.5,3.1,5.9,4.3,8.8,2.4
				c2.9-1.9,3.6-6.4,1.4-9C1156.9,51.2,1152.3,51.1,1150,53.6z"/>
			<path fill="none" d="M1152.6,73.9c0-2-1.4-3.8-3.2-4.5c-0.9-0.3-1.9-0.4-2.5-1c-0.7-0.6-0.4-2.1,0.5-2c2.3-0.6,5,0.3,6.5,2.2
				c1.5,1.9,1.7,4.7,0.6,6.9c-0.8-0.4-1.5-0.8-2.3-1.1"/>
		</g>
		<g opacity="0.5">
			<circle fill="#C4CABF" cx="1322" cy="249" r="13.5"/>
			<g>
				<g>
					<path fill="#93BDAF" d="M1309,248.3c0.4-8.5,8.6-13.7,16.4-11.4c5.6,1.7,9.6,7,9.6,12.8c0.1,8.7-8.8,13.7-16.4,11.4
						C1312.9,259.4,1309.4,254.2,1309,248.3c0,0.2-1.1,1.1-1,1.7c0.6,9.4,9.8,16.3,19,12.3c5.3-2.3,9.2-8.5,9.1-14.2
						c-0.1-9.6-10.2-16.1-19-12.3c-5.5,2.4-8.9,8.4-9.1,14.2C1308,249.7,1309,248.9,1309,248.3z"/>
				</g>
			</g>
			<path fill="#96BAB0" d="M1327.6,260.3c1.6-0.4,2.7-1.7,3.8-2.9c1.1-1.2,2.2-2.4,2.9-3.9c0.4-0.9,0.6-1.8,0.8-2.8
				c0.3-1.9,0.3-3.9-0.4-5.6c-0.7-1.8-2-3.4-3.8-4c-0.3,0.2-0.5,0.6-0.5,1c0.1,0.1,0.3,0.2,0.5,0.1c2.3,3.9,1.8,9.2-1.3,12.6
				c-1.2,1.3-2.8,2.4-3.8,3.9c-0.1,0.2-0.2,0.4-0.3,0.7C1325.4,260.1,1326.7,260.5,1327.6,260.3z"/>
			<path fill="#CBDCD7" d="M1325.4,258.6c-0.1-1.3-0.2-2.6,0.3-3.8c0.5-1.2,1.7-2.2,3-2c1.1,0.1,2,1.1,2.2,2.2
				c0.2,1.1-0.1,2.2-0.7,3.2c-1.2,2-3.4,3.3-5.6,3.9s-4.6,0.5-7,0.4c-0.4-0.1-0.4-0.7-0.2-1c0.2-0.3,0.6-0.5,1-0.6
				c2.4-0.9,4.8-1.7,7.1-2.6"/>
			<path fill="#B1C5BA" d="M1325.5,242.9c-0.9,0-1.9,0.2-2.7,0.7c-1,0.6-1.9,1.5-2.3,2.6c-1.1,2.7,0.7,6.2,3.5,7
				c2.8,0.8,6.1-1.4,6.5-4.3C1331,246,1328.5,243,1325.5,242.9z"/>
			<path fill="none" d="M1314.1,256.3c1.2-1.1,1.6-3.1,1-4.6c-0.3-0.7-0.8-1.4-0.8-2.2c0-0.8,1.1-1.5,1.6-0.8
				c1.8,1.1,2.7,3.3,2.4,5.4c-0.3,2.1-2,3.8-4,4.3c-0.2-0.7-0.4-1.4-0.6-2.1"/>
		</g>
		<g opacity="0.5">
			<circle fill="#C4CABF" cx="1260.4" cy="325.8" r="4.5"/>
			<g>
				<g>
					<path fill="#93BDAF" d="M1257.1,326.5c-0.3-0.7-0.7-2.2-0.4-2.7c0.4-0.7,1.8-1.1,2.6-1.1c1.8-0.1,3.6,0.9,4.3,2.5
						c0.4,0.7,0.7,2,0.4,2.8c-0.3,0.6-1.8,1-2.5,1.1C1259.6,329.1,1258,328.1,1257.1,326.5c0.1,0.3-1.8,2-1.5,2.6
						c1.5,2.8,5.3,3.3,7.5,0.9c1.7-1.9,3.2-4.9,2-7.4c-1.4-2.9-5.3-3.2-7.5-0.9c-1.8,1.9-3.1,4.8-2,7.4c0,0,0.8-1.1,0.9-1.2
						C1256.7,327.6,1257.3,326.8,1257.1,326.5z"/>
				</g>
			</g>
			<path fill="#A8C0B7" d="M1259.6,328.6c0.3-0.7,0.7-1.3,1.2-1.8c0.2-0.2,0.5-0.5,0.8-0.6c0.3-0.1,0.7-0.1,0.9,0.2
				c0.3,0.4,0.2,1.1,0.7,1.2c0.3,0.1,0.5-0.1,0.7-0.3s0.5-0.2,0.7,0c-0.5,1.8-2.2,3.1-4.1,3c-0.4,0-0.8-0.1-1-0.4
				C1259.3,329.5,1259.4,329,1259.6,328.6z"/>
			<path fill="#B3D2C6" d="M1258.7,323.6c0-0.1-0.1-0.2-0.1-0.3c-0.2-0.6-1-0.8-1.5-0.4c-0.5,0.4-0.3,1.3,0.3,1.4
				c0.4,0.1,0.9-0.2,1-0.6c0.1,0,0.2-0.1,0.3-0.1"/>
		</g>
		<g opacity="0.5">
			<circle fill="#C4CABF" cx="1151.2" cy="300" r="11"/>
			<g>
				<g>
					<path fill="#93BDAF" d="M1142,303.6c-2.7-6.2,0.6-12.7,7.6-13.3c4.5-0.3,8.8,2.2,10.8,6.2c3,6.1-0.8,12.8-7.6,13.3
						C1148.1,310.1,1144.1,307.6,1142,303.6c0.1,0.3-1.8,2-1.5,2.6c3.7,6.8,12.9,8.4,18.2,2.5c3.6-3.9,5.5-9.7,3.1-14.7
						c-3.4-7-13-8.2-18.2-2.5c-3.7,4-5.3,9.6-3.1,14.7C1140.4,305.8,1142.3,304.3,1142,303.6z"/>
				</g>
			</g>
			<path fill="#A8C0B7" d="M1149.2,306.9c0.8-1.6,1.8-3.1,3-4.5c0.5-0.6,1.1-1.2,1.9-1.4s1.7-0.2,2.2,0.4c0.8,0.9,0.6,2.6,1.7,2.9
				c0.6,0.1,1.2-0.3,1.8-0.7c0.5-0.4,1.3-0.6,1.8-0.1c-1.2,4.3-5.6,7.6-10.1,7.5c-0.9,0-2-0.2-2.5-1
				C1148.3,309.2,1148.7,307.9,1149.2,306.9z"/>
			<path fill="#B3D2C6" d="M1147.1,294.6c-0.1-0.2-0.2-0.4-0.2-0.6c-0.6-1.4-2.6-1.9-3.7-1c-1.1,1-0.8,3.2,0.7,3.6
				c1,0.3,2.2-0.4,2.5-1.4c0.3-0.1,0.6-0.1,0.9-0.2"/>
		</g>
		<g opacity="0.5">
			<circle fill="#C4CABF" cx="529.7" cy="372.8" r="10.2"/>
			<g>
				<g>
					<path fill="#93BDAF" d="M524.1,379.3c-3.4-3.2-4.9-8.5-1.5-12.4c3.3-3.8,9.2-3.8,12.9-0.6c3.7,3.2,4.7,9.1,1,12.7
						c-3.5,3.5-8.9,3-12.5,0.1c-1-0.8-2.6,1.9-1.6,2.8c5.2,4.1,12.4,2.9,16.3-2.4c3.6-4.8,3.3-11.8-1.4-15.8
						c-4.8-4.1-11.9-3.1-15.9,1.6c-4.1,4.9-4,12,0.7,16.4C523.2,382.7,525,380.1,524.1,379.3z"/>
				</g>
			</g>
			<path fill="#A6C6BD" d="M538.9,375.2c0.5-1.1,0.4-2.4,0.3-3.6c-0.1-1.2-0.3-2.5-0.8-3.6c-0.3-0.7-0.7-1.3-1.2-1.8
				c-0.9-1.1-2.1-2.1-3.4-2.6c-1.3-0.5-2.9-0.5-4.2,0.2c0,0.3,0.1,0.6,0.3,0.8c0.1,0,0.2-0.1,0.3-0.2c3.4,0.6,6.1,3.6,6.5,6.9
				c0.2,1.4,0,2.8,0.4,4.1c0.1,0.2,0.1,0.3,0.2,0.5C537.7,376.3,538.6,375.8,538.9,375.2z"/>
			<path fill="#CBDCD7" d="M534.9,375.1c0.4,2,2.2,3.7,3,2.1c0.8-1.6,1.1-3.5,0.6-5.1c-0.3-0.8-0.8-1.6-1.5-2
				c-0.7-0.4-1.7-0.4-2.4,0.2c-0.7,0.6-0.8,1.8-0.3,2.7C534.7,373.9,534.9,374.5,534.9,375.1"/>
		</g>
		<g opacity="0.5">
			<circle fill="#C4CABF" cx="612.3" cy="240.1" r="5.2"/>
			<g>
				<g>
					<path fill="#93BDAF" d="M609.9,242.9c-1.4-1.3-2.4-3.7-1-5.4c1.5-1.7,4.3-1.5,5.9-0.1c1.5,1.3,2.3,3.9,0.7,5.4
						c-1.7,1.6-4.2,1.1-5.8-0.1c-1-0.8-2.6,1.9-1.6,2.8c6.4,5,14.5-5.5,8.5-10.6c-6.2-5.4-14.4,5.1-8.7,10.4
						C609,246.3,610.7,243.7,609.9,242.9z"/>
				</g>
			</g>
			<path fill="#A6C6BD" d="M617,241.3c0.3-0.6,0.2-1.2,0.1-1.9c-0.1-0.6-0.2-1.3-0.4-1.8c-0.2-0.3-0.4-0.6-0.6-0.9
				c-0.5-0.6-1.1-1.1-1.7-1.3c-0.7-0.3-1.5-0.3-2.1,0.1c0,0.1,0,0.3,0.1,0.4c0.1,0,0.1-0.1,0.2-0.1c1.7,0.3,3.1,1.8,3.3,3.6
				c0.1,0.7,0,1.4,0.2,2.1c0,0.1,0.1,0.2,0.1,0.2C616.4,241.9,616.8,241.6,617,241.3z"/>
			<path fill="#CBDCD7" d="M614.9,241.3c0.2,1,1.1,1.9,1.5,1.1s0.6-1.8,0.3-2.6c-0.1-0.4-0.4-0.8-0.8-1c-0.4-0.2-0.9-0.2-1.2,0.1
				c-0.4,0.3-0.4,0.9-0.2,1.4C614.8,240.6,614.9,241,614.9,241.3"/>
		</g>
		<g opacity="0.5">
			<circle fill="#C4CABF" cx="782.8" cy="275.4" r="8"/>
			<g>
				<g>
					<path fill="#93BDAF" d="M778.6,280.2c-2.5-2.3-3.8-6.3-1.3-9.2c2.5-2.9,7-2.7,9.8-0.4c2.7,2.3,3.6,6.8,0.9,9.5
						c-2.7,2.6-6.7,2.2-9.5,0c-1-0.8-2.6,1.9-1.6,2.8c9.2,7.2,20.7-7.3,12.1-14.8c-8.9-7.7-20.6,6.8-12.2,14.6
						C777.7,283.6,779.5,281,778.6,280.2z"/>
				</g>
			</g>
			<path fill="#A6C6BD" d="M790,277.2c0.4-0.9,0.3-1.9,0.2-2.8c-0.1-1-0.2-1.9-0.6-2.8c-0.2-0.5-0.6-1-0.9-1.4
				c-0.7-0.9-1.6-1.6-2.7-2s-2.3-0.4-3.3,0.1c0,0.2,0.1,0.4,0.2,0.6c0.1,0,0.2-0.1,0.3-0.2c2.6,0.5,4.8,2.8,5.1,5.4
				c0.1,1.1,0,2.2,0.3,3.2c0,0.1,0.1,0.3,0.2,0.4C789.1,278.1,789.7,277.7,790,277.2z"/>
			<path fill="#CBDCD7" d="M786.8,277.2c0.3,1.6,1.7,2.9,2.3,1.7s0.9-2.7,0.5-4c-0.2-0.6-0.6-1.2-1.2-1.5s-1.4-0.3-1.8,0.1
				c-0.6,0.5-0.6,1.4-0.3,2.1C786.7,276.2,786.9,276.7,786.8,277.2"/>
		</g>
		<g opacity="0.5">
			<circle fill="#C4CABF" cx="1106.7" cy="21.2" r="11.3"/>
			<g>
				<g>
					<path fill="#93BDAF" d="M1100.4,28.5c-3.8-3.6-5.4-9.5-1.6-13.9c3.7-4.2,10.3-4.2,14.4-0.7c4.2,3.6,5.2,10.2,1,14.3
						c-3.9,3.9-9.8,3.4-13.9,0.2c-1-0.8-2.6,1.9-1.6,2.8c5.7,4.4,13.6,3.2,17.9-2.6c3.9-5.2,3.5-12.9-1.5-17.2
						c-5.2-4.5-13-3.4-17.3,1.7c-4.5,5.3-4.3,13.1,0.8,17.9C1099.5,31.9,1101.3,29.3,1100.4,28.5z"/>
				</g>
			</g>
			<path fill="#A6C6BD" d="M1116.8,23.8c0.6-1.2,0.4-2.6,0.3-4c-0.2-1.3-0.3-2.7-0.9-3.9c-0.3-0.7-0.8-1.4-1.3-2
				c-1-1.2-2.3-2.3-3.8-2.8c-1.5-0.6-3.2-0.6-4.6,0.2c0,0.3,0.1,0.6,0.3,0.8c0.1,0,0.3-0.1,0.4-0.2c3.7,0.7,6.8,3.9,7.2,7.7
				c0.2,1.5-0.1,3.1,0.4,4.5c0.1,0.2,0.1,0.4,0.3,0.5C1115.5,25.1,1116.5,24.5,1116.8,23.8z"/>
			<path fill="#CBDCD7" d="M1112.4,23.8c0.4,2.3,2.4,4.1,3.3,2.3s1.3-3.8,0.6-5.7c-0.3-0.9-0.8-1.7-1.7-2.2s-1.9-0.4-2.6,0.2
				c-0.8,0.7-0.9,2-0.4,3C1112.2,22.4,1112.4,23.1,1112.4,23.8"/>
		</g>
	</g>
</g>
<g id="front_x5F_bubbles">
</g>
</svg>
