<?xml version="1.0" encoding="utf-8"?>
<!-- Generator: Adobe Illustrator 18.1.1, SVG Export Plug-In . SVG Version: 6.00 Build 0)  -->
<!DOCTYPE svg PUBLIC "-//W3C//DTD SVG 1.1//EN" "http://www.w3.org/Graphics/SVG/1.1/DTD/svg11.dtd">
<svg version="1.1" xmlns="http://www.w3.org/2000/svg" xmlns:xlink="http://www.w3.org/1999/xlink" x="0px" y="0px"
	 viewBox="0 0 470.8 152" enable-background="new 0 0 470.8 152" xml:space="preserve">
<g id="_x33_4up">
	<g id="Layer_12" display="none">
	</g>
	<g id="_x33_4up_1_">
	</g>
	<g id="_x33_4up_copy">
	</g>
	<g id="_x33_4up_copy_2">
	</g>
</g>
<g id="_x33_4">
	<g id="_x33_4back">
	</g>
	<g id="_x33_4front">
	</g>
	<g id="_x33_4back_copy">
	</g>
	<g id="_x33_4front_copy">
	</g>
</g>
<g id="_x33_4down">
	<g id="info">
	</g>
	<g id="_x33_4down_safecopy" display="none">
	</g>
</g>
<g id="_x33_4down_highlight">
</g>
<g id="concept_ref">
</g>
<g id="ch02A-09-2">
	<g id="_x33_4back_copy_2">
	</g>
	<g id="_x33_4front_copy_2">
	</g>
</g>
<g id="ch02A-13-1_x5F_diffuser_plate">
	<g>
		<g>
			<g id="XMLID_11_">
				<g>
					<polygon fill="#B6BCC0" points="469.8,61 469.8,77.7 240,151 240,134.9 					"/>
					<polygon fill="#B6BCC0" points="469.8,61 240,134.9 1,77.7 235.4,1 					"/>
					<polygon fill="#7C8185" points="240,134.9 240,151 239.8,151 1,92.1 1,77.7 					"/>
				</g>
				<g>
					<polygon fill="none" stroke="#000000" stroke-width="2" stroke-miterlimit="10" points="1,77.7 1,92.1 239.8,151 240,151 
						469.8,77.7 469.8,61 235.4,1 					"/>
					<polyline fill="none" stroke="#000000" stroke-width="2" stroke-miterlimit="10" points="1,77.7 240,134.9 469.8,61 					"/>
					<polyline fill="none" stroke="#000000" stroke-width="2" stroke-miterlimit="10" points="240,134.9 240,151 240,151 					"/>
				</g>
			</g>
		</g>
		<g>
			<path d="M220.6,25.7c0.1-0.1,0.3-0.2,0.5-0.4c-0.1,0-0.1,0.1-0.2,0.1c-1.6,1.1,1.8-0.2,2.9-1c0.1,0,0.2-0.1,0.2-0.2
				c-3.8,3.3,1.3,4.8,3.5,4.1c4.3-1.3,4.1-4.8,3.6-5.2c-0.6-0.4-3.9-1.1-7,1c0,0,0,0,0.1-0.1c0.9-0.7-1.6,0.2-3,1.1
				c8.7-6.1,21-6.5,11.2,1.2c-5.6,4.4-9.5,4.1-10.9,3.8C220.3,30.1,216.5,29.3,220.6,25.7"/>
			<path d="M223.8,24.5c-1.1,0.8-4.5,2.1-2.9,1c0.1-0.1,0.1-0.1,0.2-0.1c1.4-0.9,3.9-1.8,3-1.1c0,0,0,0-0.1,0.1
				C224,24.4,223.9,24.4,223.8,24.5"/>
			<path fill="#232323" d="M224,24.3c3.1-2.1,6.5-1.4,7-1c0.5,0.4,0.7,3.8-3.6,5.2C225.4,29.1,220.2,27.7,224,24.3"/>
		</g>
		<g>
			<path d="M192.5,34.3c0.1-0.1,0.3-0.2,0.5-0.4c-0.1,0-0.1,0.1-0.2,0.1c-1.6,1.1,1.8-0.2,2.9-1c0.1,0,0.2-0.1,0.2-0.2
				c-3.8,3.3,1.3,4.8,3.4,4.1c4.3-1.3,4.1-4.8,3.6-5.2c-0.6-0.4-3.9-1.1-7,1c0,0,0,0,0.1-0.1c0.9-0.7-1.6,0.2-3,1.1
				c8.7-6.1,21-6.5,11.2,1.2c-5.6,4.4-9.5,4.1-10.9,3.8C192.2,38.7,188.4,37.9,192.5,34.3"/>
			<path d="M195.8,33.1c-1.1,0.8-4.5,2.1-2.9,1c0.1-0.1,0.1-0.1,0.2-0.1c1.4-0.9,3.9-1.8,3-1.1c0,0,0,0-0.1,0.1
				C195.9,33,195.8,33,195.8,33.1"/>
			<path fill="#232323" d="M196,32.9c3.1-2.1,6.5-1.4,7-1c0.5,0.4,0.7,3.8-3.6,5.2C197.3,37.7,192.2,36.3,196,32.9"/>
		</g>
		<g>
			<path d="M163.9,42.9c0.1-0.1,0.3-0.2,0.5-0.4c-0.1,0-0.1,0.1-0.2,0.1c-1.6,1.1,1.8-0.1,3-0.9c0.1,0,0.2-0.1,0.2-0.2
				c-3.8,3.4,1.7,5.3,3.9,4.7c4.4-1.2,4-4.9,3.4-5.4c-0.6-0.5-4.2-1.4-7.3,0.7c0,0,0,0,0.1-0.1c0.9-0.8-1.7,0.1-3.1,1
				c8.8-6.1,21.6-5.8,11.8,2c-5.6,4.4-9.7,3.9-11.2,3.5C163.9,47.6,159.9,46.5,163.9,42.9"/>
			<path d="M167.2,41.7c-1.2,0.8-4.5,2-3,0.9c0.1-0.1,0.1-0.1,0.2-0.1c1.4-0.9,3.9-1.8,3.1-1c0,0,0,0-0.1,0.1
				C167.4,41.6,167.3,41.7,167.2,41.7"/>
			<path fill="#232323" d="M167.5,41.6c3.1-2.1,6.7-1.2,7.3-0.7c0.5,0.4,1,4.2-3.4,5.4C169.1,46.9,163.7,45,167.5,41.6"/>
		</g>
		<g>
			<path d="M124.5,55c0.1-0.1,0.3-0.2,0.5-0.4c-0.1,0-0.1,0.1-0.2,0.1c-1.6,1.1,1.8-0.1,3-1c0.1,0,0.2-0.1,0.2-0.2
				c-3.8,3.4,1.6,5.1,3.7,4.5c4.4-1.2,4-4.9,3.5-5.3c-0.6-0.4-4.1-1.3-7.2,0.8c0,0,0,0,0.1-0.1c0.9-0.8-1.7,0.1-3,1
				c8.7-6.1,21.4-6,11.6,1.8c-5.6,4.4-9.6,4-11.1,3.6C124.3,59.7,120.4,58.6,124.5,55"/>
			<path d="M127.7,53.8c-1.1,0.8-4.5,2.1-3,1c0.1,0,0.1-0.1,0.2-0.1c1.4-0.9,3.9-1.8,3-1c0,0,0,0-0.1,0.1
				C127.9,53.7,127.8,53.8,127.7,53.8"/>
			<path fill="#232323" d="M128,53.7c3.1-2.1,6.6-1.2,7.2-0.8c0.5,0.4,0.9,4.1-3.5,5.3C129.5,58.8,124.2,57.1,128,53.7"/>
		</g>
		<g>
			<path d="M92.5,64.9c0.1-0.1,0.3-0.2,0.5-0.4c-0.1,0-0.1,0.1-0.2,0.1c-1.6,1.1,1.8-0.2,2.9-1c0.1,0,0.2-0.1,0.2-0.2
				c-3.8,3.4,1.4,4.9,3.5,4.2c4.3-1.3,4-4.8,3.6-5.2c-0.6-0.4-4-1.1-7.1,1c0,0,0,0,0.1-0.1c0.9-0.7-1.6,0.2-3,1.1
				c8.7-6.1,21.1-6.4,11.3,1.4c-5.6,4.4-9.5,4.1-11,3.7C92.2,69.4,88.4,68.5,92.5,64.9"/>
			<path d="M95.7,63.7c-1.1,0.8-4.5,2.1-2.9,1c0.1-0.1,0.1-0.1,0.2-0.1c1.4-0.9,3.9-1.8,3-1.1c0,0,0,0-0.1,0.1
				C95.9,63.6,95.8,63.6,95.7,63.7"/>
			<path fill="#232323" d="M95.9,63.5c3.1-2.1,6.5-1.4,7.1-1c0.5,0.4,0.7,3.9-3.6,5.2C97.3,68.4,92.1,66.9,95.9,63.5"/>
		</g>
		<g>
			<path d="M60.2,74.9c0.1-0.1,0.3-0.2,0.5-0.4c-0.1,0-0.1,0.1-0.2,0.1c-1.5,1.1,1.7-0.2,2.9-1c0.1,0,0.2-0.1,0.2-0.2
				c-3.8,3.3,1.3,4.7,3.4,4.1c4.3-1.4,4.1-4.8,3.6-5.1c-0.6-0.4-3.9-1-7,1.1c0,0,0,0,0.1-0.1c0.9-0.7-1.6,0.2-3,1.1
				c8.7-6.1,21-6.6,11.2,1.1c-5.6,4.4-9.5,4.2-10.9,3.8C59.8,79.2,56,78.4,60.2,74.9"/>
			<path d="M63.4,73.6c-1.1,0.8-4.4,2.1-2.9,1c0.1,0,0.1-0.1,0.2-0.1c1.4-0.9,3.8-1.8,3-1.1c0,0,0,0-0.1,0.1
				C63.5,73.5,63.4,73.6,63.4,73.6"/>
			<path fill="#232323" d="M63.6,73.5c3.1-2.1,6.4-1.5,7-1.1c0.5,0.4,0.7,3.8-3.6,5.1C64.9,78.2,59.8,76.8,63.6,73.5"/>
		</g>
		<g>
			<path d="M137.8,71.3c0.1-0.1,0.3-0.2,0.5-0.4c-0.1,0-0.1,0.1-0.2,0.1c-1.6,1.1,1.8-0.2,2.9-1c0.1,0,0.2-0.1,0.2-0.2
				c-3.8,3.4,1.4,4.9,3.5,4.2c4.3-1.3,4-4.8,3.6-5.2c-0.6-0.4-4-1.1-7.1,1c0,0,0,0,0.1-0.1c0.9-0.7-1.6,0.2-3,1.1
				c8.7-6.1,21.1-6.4,11.3,1.4c-5.6,4.4-9.5,4.1-11,3.7C137.5,75.8,133.7,74.9,137.8,71.3"/>
			<path d="M141,70.1c-1.1,0.8-4.5,2.1-2.9,1c0.1,0,0.1-0.1,0.2-0.1c1.4-0.9,3.9-1.8,3-1.1c0,0,0,0-0.1,0.1
				C141.2,70,141.1,70,141,70.1"/>
			<path fill="#232323" d="M141.3,69.9c3.1-2.1,6.5-1.4,7.1-1c0.5,0.4,0.7,3.9-3.6,5.2C142.6,74.8,137.5,73.3,141.3,69.9"/>
		</g>
		<g>
			<path d="M105.5,81.3c0.1-0.1,0.3-0.2,0.5-0.4c-0.1,0-0.1,0.1-0.2,0.1c-1.5,1.1,1.7-0.2,2.9-1c0.1,0,0.2-0.1,0.2-0.2
				c-3.8,3.3,1.3,4.7,3.4,4.1c4.3-1.4,4.1-4.8,3.6-5.1c-0.6-0.4-3.9-1-7,1.1c0,0,0,0,0.1-0.1c0.9-0.7-1.6,0.2-3,1.1
				c8.7-6.1,21-6.6,11.2,1.1c-5.6,4.4-9.5,4.2-10.9,3.8C105.1,85.6,101.4,84.8,105.5,81.3"/>
			<path d="M108.7,80c-1.1,0.8-4.4,2.1-2.9,1c0.1,0,0.1-0.1,0.2-0.1c1.4-0.9,3.8-1.8,3-1.1c0,0,0,0-0.1,0.1
				C108.8,79.9,108.7,80,108.7,80"/>
			<path fill="#232323" d="M108.9,79.9c3.1-2.1,6.4-1.5,7-1.1c0.5,0.4,0.7,3.8-3.6,5.1C110.2,84.6,105.1,83.2,108.9,79.9"/>
		</g>
		<g>
			<path d="M304.8,41.9c0.1-0.1,0.3-0.2,0.5-0.4c-0.1,0-0.1,0.1-0.2,0.1c-1.6,1.1,1.8-0.2,2.9-1c0.1,0,0.2-0.1,0.2-0.2
				c-3.8,3.3,1.3,4.8,3.5,4.1c4.3-1.3,4.1-4.8,3.6-5.2c-0.6-0.4-3.9-1.1-7,1c0,0,0,0,0.1-0.1c0.9-0.7-1.6,0.2-3,1.1
				c8.7-6.1,21-6.5,11.2,1.3c-5.6,4.4-9.5,4.1-10.9,3.8C304.5,46.3,300.7,45.5,304.8,41.9"/>
			<path d="M308,40.7c-1.1,0.8-4.5,2.1-2.9,1c0.1-0.1,0.1-0.1,0.2-0.1c1.4-0.9,3.9-1.8,3-1.1c0,0,0,0-0.1,0.1
				C308.2,40.6,308.1,40.7,308,40.7"/>
			<path fill="#232323" d="M308.3,40.5c3.1-2.1,6.5-1.4,7-1c0.5,0.4,0.7,3.8-3.6,5.2C309.6,45.4,304.5,43.9,308.3,40.5"/>
		</g>
		<g>
			<path d="M248.2,59.1c0.1-0.1,0.3-0.2,0.5-0.4c-0.1,0-0.1,0.1-0.2,0.1c-1.6,1.1,1.8-0.1,3-0.9c0.1,0,0.2-0.1,0.2-0.2
				c-3.8,3.4,1.7,5.3,3.9,4.7c4.4-1.2,4-4.9,3.4-5.4c-0.6-0.5-4.2-1.4-7.3,0.7c0,0,0,0,0.1-0.1c0.9-0.8-1.7,0.1-3.1,1
				c8.8-6.1,21.6-5.8,11.8,2c-5.6,4.4-9.7,3.9-11.2,3.5C248.1,63.8,244.1,62.7,248.2,59.1"/>
			<path d="M251.4,58c-1.2,0.8-4.5,2-3,0.9c0.1-0.1,0.1-0.1,0.2-0.1c1.4-0.9,3.9-1.7,3.1-1c0,0,0,0-0.1,0.1
				C251.6,57.9,251.5,57.9,251.4,58"/>
			<path fill="#232323" d="M251.7,57.8c3.1-2.1,6.7-1.1,7.3-0.7c0.5,0.4,1,4.2-3.4,5.4C253.3,63.1,247.9,61.2,251.7,57.8"/>
		</g>
		<g>
			<path d="M208.7,71.3c0.1-0.1,0.3-0.2,0.5-0.4c-0.1,0-0.1,0.1-0.2,0.1c-1.6,1.1,1.8-0.1,3-1c0.1,0,0.2-0.1,0.2-0.2
				c-3.8,3.4,1.6,5.1,3.7,4.5c4.4-1.2,4-4.9,3.5-5.3c-0.6-0.4-4.1-1.3-7.2,0.8c0,0,0,0,0.1-0.1c0.9-0.8-1.7,0.1-3,1
				c8.7-6.1,21.4-6,11.6,1.8c-5.6,4.4-9.6,4-11.1,3.6C208.5,75.9,204.6,74.8,208.7,71.3"/>
			<path d="M211.9,70.1c-1.2,0.8-4.5,2.1-3,1c0.1,0,0.1-0.1,0.2-0.1c1.4-0.9,3.9-1.8,3-1c0,0,0,0-0.1,0.1
				C212.1,70,212,70,211.9,70.1"/>
			<path fill="#232323" d="M212.2,69.9c3.1-2.1,6.6-1.2,7.2-0.8c0.5,0.4,0.9,4.1-3.5,5.3C213.7,75.1,208.4,73.3,212.2,69.9"/>
		</g>
		<g>
			<path d="M144.4,91.1c0.1-0.1,0.3-0.2,0.5-0.4c-0.1,0-0.1,0.1-0.2,0.1c-1.6,1.1,1.7-0.2,2.9-1c0.1,0,0.2-0.1,0.2-0.2
				c-3.8,3.3,1.3,4.7,3.4,4.1c4.3-1.4,4.1-4.8,3.6-5.1c-0.6-0.4-3.9-1-7,1.1c0,0,0,0,0.1-0.1c0.9-0.7-1.6,0.2-3,1.1
				c8.7-6.1,21-6.6,11.2,1.1c-5.6,4.4-9.5,4.2-10.9,3.8C144,95.4,140.2,94.6,144.4,91.1"/>
			<path d="M147.6,89.8c-1.1,0.8-4.4,2.1-2.9,1c0.1,0,0.1-0.1,0.2-0.1c1.4-0.9,3.8-1.8,3-1.1c0,0,0,0-0.1,0.1
				C147.7,89.7,147.6,89.8,147.6,89.8"/>
			<path fill="#232323" d="M147.8,89.7c3.1-2.1,6.4-1.5,7-1.1c0.5,0.4,0.7,3.8-3.6,5.1C149.1,94.4,144,93,147.8,89.7"/>
		</g>
		<g>
			<path d="M350.1,51.6c0.1-0.1,0.3-0.2,0.5-0.4c-0.1,0-0.1,0.1-0.2,0.1c-1.6,1.1,1.8-0.2,2.9-1c0.1,0,0.2-0.1,0.2-0.2
				c-3.8,3.3,1.3,4.8,3.5,4.1c4.3-1.3,4.1-4.8,3.6-5.2c-0.6-0.4-3.9-1.1-7,1c0,0,0,0,0.1-0.1c0.9-0.7-1.6,0.2-3,1.1
				c8.7-6.1,21-6.5,11.2,1.3c-5.6,4.4-9.5,4.1-10.9,3.8C349.8,55.9,346,55.1,350.1,51.6"/>
			<path d="M353.4,50.3c-1.1,0.8-4.5,2.1-2.9,1c0.1-0.1,0.1-0.1,0.2-0.1c1.4-0.9,3.9-1.8,3-1.1c0,0,0,0-0.1,0.1
				C353.5,50.2,353.4,50.3,353.4,50.3"/>
			<path fill="#232323" d="M353.6,50.1c3.1-2.1,6.5-1.4,7-1c0.5,0.4,0.7,3.8-3.6,5.2C354.9,55,349.8,53.5,353.6,50.1"/>
		</g>
		<g>
			<path d="M322.1,60.1c0.1-0.1,0.3-0.2,0.5-0.4c-0.1,0-0.1,0.1-0.2,0.1c-1.6,1.1,1.8-0.2,2.9-1c0.1,0,0.2-0.1,0.2-0.2
				c-3.8,3.3,1.3,4.8,3.4,4.1c4.3-1.3,4.1-4.8,3.6-5.2c-0.6-0.4-3.9-1.1-7,1c0,0,0,0,0.1-0.1c0.9-0.7-1.6,0.2-3,1.1
				c8.7-6.1,21-6.5,11.2,1.2c-5.6,4.4-9.5,4.2-10.9,3.8C321.8,64.5,318,63.7,322.1,60.1"/>
			<path d="M325.3,58.9c-1.1,0.8-4.5,2.1-2.9,1c0.1-0.1,0.1-0.1,0.2-0.1c1.4-0.9,3.9-1.8,3-1.1c0,0,0,0-0.1,0.1
				C325.4,58.8,325.4,58.8,325.3,58.9"/>
			<path fill="#232323" d="M325.5,58.7c3.1-2.1,6.5-1.4,7-1c0.5,0.4,0.7,3.8-3.6,5.2C326.8,63.5,321.7,62.1,325.5,58.7"/>
		</g>
		<g>
			<path d="M293.5,68.7c0.1-0.1,0.3-0.2,0.5-0.4c-0.1,0-0.1,0.1-0.2,0.1c-1.6,1.1,1.8-0.1,3-0.9c0.1,0,0.2-0.1,0.2-0.2
				c-3.8,3.4,1.7,5.3,3.9,4.7c4.4-1.2,4-4.9,3.4-5.4c-0.6-0.5-4.2-1.4-7.3,0.7c0,0,0,0,0.1-0.1c0.9-0.8-1.7,0.1-3.1,1
				c8.8-6.1,21.6-5.8,11.8,2c-5.6,4.4-9.7,3.9-11.2,3.5C293.4,73.4,289.4,72.3,293.5,68.7"/>
			<path d="M296.8,67.6c-1.1,0.8-4.5,2-3,0.9c0.1,0,0.1-0.1,0.2-0.1c1.4-0.9,3.9-1.8,3.1-1c0,0,0,0-0.1,0.1
				C296.9,67.5,296.8,67.5,296.8,67.6"/>
			<path fill="#232323" d="M297,67.4c3.1-2.1,6.7-1.1,7.3-0.7c0.5,0.4,1,4.2-3.4,5.4C298.7,72.7,293.2,70.8,297,67.4"/>
		</g>
		<g>
			<path d="M254,80.9c0.1-0.1,0.3-0.2,0.5-0.4c-0.1,0-0.1,0.1-0.2,0.1c-1.6,1.1,1.8-0.1,3-1c0.1,0,0.2-0.1,0.2-0.2
				c-3.8,3.4,1.6,5.1,3.7,4.5c4.4-1.2,4-4.9,3.5-5.3c-0.6-0.4-4.1-1.3-7.2,0.8c0,0,0,0,0.1-0.1c0.9-0.8-1.7,0.1-3,1
				c8.7-6.1,21.4-6,11.6,1.8c-5.6,4.4-9.6,4-11.1,3.5C253.9,85.5,249.9,84.4,254,80.9"/>
			<path d="M257.3,79.7c-1.2,0.8-4.5,2.1-3,1c0.1,0,0.1-0.1,0.2-0.1c1.4-0.9,3.9-1.8,3-1c0,0,0,0-0.1,0.1
				C257.4,79.6,257.3,79.6,257.3,79.7"/>
			<path fill="#232323" d="M257.5,79.5c3.1-2.1,6.6-1.2,7.2-0.8c0.5,0.4,0.9,4.1-3.5,5.3C259.1,84.7,253.7,82.9,257.5,79.5"/>
		</g>
		<g>
			<path d="M222,90.7c0.1-0.1,0.3-0.2,0.5-0.4c-0.1,0-0.1,0.1-0.2,0.1c-1.6,1.1,1.8-0.2,2.9-1c0.1,0,0.2-0.1,0.2-0.2
				c-3.8,3.4,1.4,4.9,3.5,4.2c4.3-1.3,4-4.8,3.6-5.2c-0.6-0.4-4-1.1-7.1,1c0,0,0,0,0.1-0.1c0.9-0.7-1.6,0.2-3,1.1
				c8.7-6.1,21.1-6.4,11.3,1.4c-5.6,4.4-9.5,4.1-11,3.7C221.8,95.2,217.9,94.3,222,90.7"/>
			<path d="M225.2,89.5c-1.1,0.8-4.5,2.1-2.9,1c0.1,0,0.1-0.1,0.2-0.1c1.4-0.9,3.9-1.8,3-1.1c0,0,0,0-0.1,0.1
				C225.4,89.4,225.3,89.5,225.2,89.5"/>
			<path fill="#232323" d="M225.5,89.3c3.1-2.1,6.5-1.4,7.1-1c0.5,0.4,0.7,3.9-3.6,5.2C226.9,94.2,221.7,92.7,225.5,89.3"/>
		</g>
		<g>
			<path d="M189.7,100.7c0.1-0.1,0.3-0.2,0.5-0.4c-0.1,0-0.1,0.1-0.2,0.1c-1.5,1.1,1.7-0.2,2.9-1c0.1,0,0.2-0.1,0.2-0.2
				c-3.8,3.3,1.3,4.7,3.4,4.1c4.3-1.4,4.1-4.8,3.6-5.1c-0.6-0.4-3.9-1-7,1.1c0,0,0,0,0.1-0.1c0.9-0.7-1.6,0.2-3,1.1
				c8.7-6.1,21-6.6,11.2,1.1c-5.6,4.4-9.5,4.2-10.9,3.8C189.3,105,185.6,104.3,189.7,100.7"/>
			<path d="M192.9,99.4c-1.1,0.8-4.4,2.1-2.9,1c0.1,0,0.1-0.1,0.2-0.1c1.4-0.9,3.8-1.8,3-1.1c0,0,0,0-0.1,0.1
				C193.1,99.3,193,99.4,192.9,99.4"/>
			<path fill="#232323" d="M193.1,99.3c3.1-2.1,6.4-1.5,7-1.1c0.5,0.4,0.7,3.8-3.6,5.1C194.4,104,189.3,102.6,193.1,99.3"/>
		</g>
		<g>
			<path d="M393.7,59.1c0.1-0.1,0.3-0.2,0.5-0.4c-0.1,0-0.1,0.1-0.2,0.1c-1.6,1.1,1.8-0.2,2.9-1c0.1,0,0.2-0.1,0.2-0.2
				c-3.8,3.3,1.3,4.8,3.5,4.1c4.3-1.3,4.1-4.8,3.6-5.2c-0.6-0.4-3.9-1.1-7,1c0,0,0,0,0.1-0.1c0.9-0.7-1.6,0.2-3,1.1
				c8.7-6.1,21-6.5,11.2,1.2c-5.6,4.4-9.5,4.1-10.9,3.8C393.4,63.4,389.5,62.6,393.7,59.1"/>
			<path d="M396.9,57.8c-1.1,0.8-4.5,2.1-2.9,1c0.1-0.1,0.1-0.1,0.2-0.1c1.4-0.9,3.9-1.8,3-1.1c0,0,0,0-0.1,0.1
				C397,57.7,396.9,57.8,396.9,57.8"/>
			<path fill="#232323" d="M397.1,57.7c3.1-2.1,6.5-1.4,7-1c0.5,0.4,0.7,3.8-3.6,5.2C398.4,62.5,393.3,61,397.1,57.7"/>
		</g>
		<g>
			<path d="M365.6,67.7c0.1-0.1,0.3-0.2,0.5-0.4c-0.1,0-0.1,0.1-0.2,0.1c-1.5,1.1,1.8-0.2,2.9-1c0.1,0,0.2-0.1,0.2-0.2
				c-3.8,3.3,1.3,4.8,3.4,4.1c4.3-1.3,4.1-4.8,3.6-5.2c-0.6-0.4-3.9-1.1-7,1c0,0,0,0,0.1-0.1c0.9-0.7-1.6,0.2-3,1.1
				c8.7-6.1,21-6.5,11.2,1.2c-5.6,4.4-9.5,4.1-10.9,3.8C365.3,72,361.5,71.2,365.6,67.7"/>
			<path d="M368.8,66.4c-1.1,0.8-4.5,2.1-2.9,1c0.1-0.1,0.1-0.1,0.2-0.1c1.4-0.9,3.9-1.8,3-1.1c0,0,0,0-0.1,0.1
				C369,66.3,368.9,66.4,368.8,66.4"/>
			<path fill="#232323" d="M369,66.2c3.1-2.1,6.5-1.4,7-1c0.5,0.4,0.7,3.8-3.6,5.2C370.4,71,365.2,69.6,369,66.2"/>
		</g>
		<g>
			<path d="M337,76.2c0.1-0.1,0.3-0.2,0.5-0.4c-0.1,0-0.1,0.1-0.2,0.1c-1.6,1.1,1.8-0.1,3-0.9c0.1,0,0.2-0.1,0.2-0.2
				c-3.8,3.4,1.7,5.3,3.9,4.7c4.4-1.2,4-4.9,3.4-5.4c-0.6-0.5-4.2-1.4-7.3,0.7c0,0,0,0,0.1-0.1c0.9-0.8-1.7,0.1-3.1,1
				c8.8-6.1,21.6-5.8,11.8,2c-5.6,4.4-9.7,3.9-11.2,3.5C336.9,80.9,332.9,79.8,337,76.2"/>
			<path d="M340.3,75.1c-1.2,0.8-4.5,2-3,0.9c0.1-0.1,0.1-0.1,0.2-0.1c1.4-0.9,3.9-1.8,3.1-1c0,0,0,0-0.1,0.1
				C340.4,75,340.4,75,340.3,75.1"/>
			<path fill="#232323" d="M340.5,74.9c3.1-2.1,6.7-1.1,7.3-0.7c0.5,0.4,1,4.2-3.4,5.4C342.2,80.2,336.7,78.3,340.5,74.9"/>
		</g>
		<g>
			<path d="M297.5,88.4c0.1-0.1,0.3-0.2,0.5-0.4c-0.1,0-0.1,0.1-0.2,0.1c-1.6,1.1,1.8-0.1,3-1c0.1,0,0.2-0.1,0.2-0.2
				c-3.8,3.4,1.6,5.1,3.7,4.5c4.4-1.2,4-4.9,3.5-5.3c-0.6-0.4-4.1-1.3-7.2,0.8c0,0,0,0,0.1-0.1c0.9-0.8-1.7,0.1-3,1
				c8.7-6.1,21.4-6,11.6,1.8c-5.6,4.4-9.6,4-11.1,3.6C297.4,93,293.4,92,297.5,88.4"/>
			<path d="M300.8,87.2c-1.2,0.8-4.5,2.1-3,1c0.1,0,0.1-0.1,0.2-0.1c1.4-0.9,3.9-1.8,3-1c0,0,0,0-0.1,0.1
				C300.9,87.1,300.9,87.1,300.8,87.2"/>
			<path fill="#232323" d="M301,87c3.1-2.1,6.6-1.2,7.2-0.8c0.5,0.4,0.9,4.1-3.5,5.3C302.6,92.2,297.2,90.4,301,87"/>
		</g>
		<g>
			<path d="M265.5,98.2c0.1-0.1,0.3-0.2,0.5-0.4c-0.1,0-0.1,0.1-0.2,0.1c-1.6,1.1,1.8-0.2,2.9-1c0.1,0,0.2-0.1,0.2-0.2
				c-3.8,3.4,1.4,4.9,3.5,4.2c4.3-1.3,4-4.8,3.6-5.2c-0.6-0.4-4-1.1-7.1,1c0,0,0,0,0.1-0.1c0.9-0.7-1.6,0.2-3,1.1
				c8.7-6.1,21.1-6.4,11.3,1.4c-5.6,4.4-9.5,4.1-11,3.7C265.3,102.7,261.4,101.8,265.5,98.2"/>
			<path d="M268.8,97c-1.1,0.8-4.5,2.1-2.9,1c0.1-0.1,0.1-0.1,0.2-0.1c1.4-0.9,3.9-1.8,3-1.1c0,0,0,0-0.1,0.1
				C268.9,96.9,268.8,97,268.8,97"/>
			<path fill="#232323" d="M269,96.9c3.1-2.1,6.5-1.4,7.1-1c0.5,0.4,0.7,3.9-3.6,5.2C270.4,101.7,265.2,100.2,269,96.9"/>
		</g>
		<g>
			<path d="M233.2,108.2c0.1-0.1,0.3-0.2,0.5-0.4c-0.1,0-0.1,0.1-0.2,0.1c-1.5,1.1,1.7-0.2,2.9-1c0.1,0,0.2-0.1,0.2-0.2
				c-3.8,3.3,1.3,4.7,3.4,4.1c4.3-1.4,4.1-4.8,3.6-5.1c-0.6-0.4-3.9-1-7,1.1c0,0,0,0,0.1-0.1c0.9-0.7-1.6,0.2-3,1.1
				c8.7-6.1,21-6.6,11.2,1.1c-5.6,4.4-9.5,4.2-10.9,3.8C232.9,112.5,229.1,111.8,233.2,108.2"/>
			<path d="M236.4,106.9c-1.1,0.8-4.4,2.1-2.9,1c0.1,0,0.1-0.1,0.2-0.1c1.4-0.9,3.8-1.8,3-1.1c0,0,0,0-0.1,0.1
				C236.6,106.8,236.5,106.9,236.4,106.9"/>
			<path fill="#232323" d="M236.6,106.8c3.1-2.1,6.4-1.5,7-1.1c0.5,0.4,0.7,3.8-3.6,5.1C237.9,111.5,232.8,110.1,236.6,106.8"/>
		</g>
		<g>
			<g id="XMLID_10_">
				<g>
					<path fill="#B6BCC0" d="M300.1,46L272,57.8l-33-9.4l23.9-11l0.4,9.8c0,5.3,15.1,6.4,14.6,0.2c0,0,0-4.2-0.1-8.4L300.1,46z"/>
					<path fill="#B6BCC0" d="M277.3,30.8c0.3,1,0.5,4.7,0.6,8.3c0.1,4.2,0.1,8.4,0.1,8.4c0.5,6.3-14.6,5.1-14.6-0.2l-0.4-9.8
						l-0.1-1.3L194,63.9c-2.2,1.2-2.9,2.2-2.7,6.6c0,0,0.3,4.6,0.7,8.7c0.3,3.6,0.5,7,0.5,7c0.6,6.9-20.7,6.9-20.9,0.8l-0.4-8.9
						l-0.6-14.7c0.4-4.9,3.5-8.6,13.6-12.9c10-4.3,74.2-29.5,74.2-29.5C267.2,18.7,277,16.9,277.3,30.8z"/>
					<polygon fill="#7C8185" points="272,57.8 272.3,63 239.3,53.6 239.1,48.4 					"/>
					<path fill="#B6BCC0" d="M214.1,84.2L186,96.1l-33-9.4l18.2-8.5l0.4,8.9c0.2,6.1,21.5,6.1,20.9-0.8c0,0-0.3-3.3-0.5-7
						L214.1,84.2z"/>
					<polygon fill="#7C8185" points="186,96.1 186.2,101.3 153.2,91.9 153,86.7 					"/>
				</g>
				<g>
					<line fill="none" stroke="#000000" stroke-width="2" stroke-miterlimit="10" x1="186" y1="96.1" x2="186.2" y2="101.3"/>
					<polygon fill="none" stroke="#000000" stroke-width="2" stroke-miterlimit="10" points="153,86.7 153.2,91.9 186.2,101.3 
						214.3,89.4 214.1,84.2 186,96.1 					"/>
					<line fill="none" stroke="#000000" stroke-width="2" stroke-miterlimit="10" x1="191.9" y1="79.3" x2="214.1" y2="84.2"/>
					<line fill="none" stroke="#000000" stroke-width="2" stroke-miterlimit="10" x1="153" y1="86.7" x2="171.2" y2="78.1"/>
					<polygon fill="none" stroke="#000000" stroke-width="2" stroke-miterlimit="10" points="239.1,48.4 239.3,53.6 272.3,63 
						300.3,51.2 300.1,46 272,57.8 					"/>
					<line fill="none" stroke="#000000" stroke-width="2" stroke-miterlimit="10" x1="272" y1="57.8" x2="272.3" y2="63"/>
					<line fill="none" stroke="#000000" stroke-width="2" stroke-miterlimit="10" x1="277.8" y1="39.1" x2="300.1" y2="46"/>
					<line fill="none" stroke="#000000" stroke-width="2" stroke-miterlimit="10" x1="239.1" y1="48.4" x2="262.9" y2="37.5"/>
					<path fill="none" stroke="#000000" stroke-width="2" stroke-miterlimit="10" d="M191.9,79.3c0.3,3.6,0.5,7,0.5,7
						c0.6,6.9-20.7,6.9-20.9,0.8l-0.4-8.9l-0.6-14.7c0.4-4.9,3.5-8.6,13.6-12.9c10-4.3,74.2-29.5,74.2-29.5
						c8.8-2.4,18.6-4.2,18.9,9.7c0.3,1,0.5,4.7,0.6,8.3c0.1,4.2,0.1,8.4,0.1,8.4c0.5,6.3-14.6,5.1-14.6-0.2l-0.4-9.8l-0.1-1.3
						L194,63.9c-2.2,1.2-2.9,2.2-2.7,6.6C191.3,70.5,191.6,75.1,191.9,79.3z"/>
				</g>
			</g>
		</g>
	</g>
</g>
</svg>
