<?xml version="1.0" encoding="utf-8"?>
<!-- Generator: Adobe Illustrator 18.1.1, SVG Export Plug-In . SVG Version: 6.00 Build 0)  -->
<svg version="1.1" xmlns="http://www.w3.org/2000/svg" xmlns:xlink="http://www.w3.org/1999/xlink" x="0px" y="0px"
	 viewBox="0 0 353.429 238.049" enable-background="new 0 0 353.429 238.049" xml:space="preserve">
<g id="Layer_1">
</g>
<g id="_x33_4down_safecopy" display="none">
</g>
<g id="_x33_4down">
</g>
<g id="_x33_4down_copy">
	<g>
		<g id="XMLID_2_">
			<g>
				<path d="M353.026,77.933c0.18,0.09,0.19,0.22,0.08,0.34c0.15-0.31-0.45-0.52-0.95-0.28c-0.27,0.13-0.53,0.25-0.8,0.38
					c-50.25-25.87-100.79-51.16-151.05-77.04c0.14-0.05,0.29-0.1,0.43-0.16c0.59-0.23,0.47-0.64,0.1-0.82
					c0.06,0,0.11,0.02,0.15,0.04C251.566,26.433,302.446,51.883,353.026,77.933z"/>
				<path d="M352.156,77.993c0.5-0.24,1.1-0.03,0.95,0.28c-0.01,0.01-0.02,0.03-0.04,0.05c-0.26,0.24-0.92,0.45-1.2,0.31
					c-0.17-0.09-0.34-0.17-0.51-0.26C351.626,78.243,351.886,78.123,352.156,77.993z"/>
				<path d="M353.066,78.323c-0.05,0.08-0.16,0.16-0.34,0.25c-9.95,4.73-19.87,9.52-29.77,14.36c0.01-0.06,0.03-0.13,0.05-0.19
					c0.1-0.34-0.58-0.34-1.05-0.15l-0.02-0.03c9.78-4.78,19.59-9.51,29.42-14.19c0.17,0.09,0.34,0.17,0.51,0.26
					C352.146,78.773,352.806,78.563,353.066,78.323z"/>
				<path fill="#B3B3B3" d="M351.356,78.373c-9.83,4.68-19.64,9.41-29.42,14.19c-54.01,26.38-107.42,54-161.72,79.8
					c-49.55-25.79-96.75-55.76-144.79-84.2c-0.05-0.08-0.15-0.14-0.27-0.17c0,0-0.01,0-0.02,0c-4.32-2.56-8.64-5.11-12.98-7.63
					c64.45-30.13,131.84-53.4,198.15-79.03C250.566,27.213,301.106,52.503,351.356,78.373z M327.746,74.973
					c0.05-0.11,0.01-0.21-0.15-0.3c-0.04-0.02-0.09-0.05-0.13-0.07c-41.31-22.39-84.1-41.78-126.48-62.02
					c-0.28-0.14-0.85,0.04-1.13,0.27c-59.25,21.71-117.53,45.99-174.68,72.76c-0.87,0.41,0.47,0.45,0.86,0.27
					c0.16-0.08,0.33-0.15,0.49-0.23c0.03,0.05,0.09,0.1,0.17,0.15c44.63,23.76,88.14,49.58,132.77,73.34
					c0.05,0.02,0.1,0.04,0.16,0.04c0.01,0,0.02,0,0.02,0.01c0.2,0.08,0.46,0.1,0.71-0.01c56.91-25.37,111.38-55.7,167-83.7
					C327.646,75.333,327.756,75.153,327.746,74.973z"/>
				<path d="M327.596,74.673c0.16,0.09,0.2,0.19,0.15,0.3c-0.01-0.15-0.12-0.29-0.28-0.37
					C327.506,74.623,327.556,74.653,327.596,74.673z"/>
				<path d="M327.746,74.973c0.01,0.18-0.1,0.36-0.39,0.51c-55.62,28-110.09,58.33-167,83.7c-0.25,0.11-0.51,0.09-0.71,0.01
					c0.59,0.09,1.57-0.53,0.95-0.85c-0.15-0.08-0.3-0.16-0.45-0.24c25.05-11.18,49.64-23.32,74.06-35.8
					c0.01,0.01,0.03,0.02,0.04,0.03c0.37,0.25,1.64-0.33,1.36-0.52c-0.06-0.04-0.13-0.08-0.19-0.13
					c30.18-15.43,60.11-31.36,90.38-46.61c0.22,0.11,0.44,0.23,0.66,0.35C326.806,75.613,327.636,75.293,327.746,74.973z"/>
				<path d="M327.466,74.603c0.16,0.08,0.27,0.22,0.28,0.37c-0.11,0.32-0.94,0.64-1.29,0.45c-0.22-0.12-0.44-0.24-0.66-0.35
					c0.3-0.15,0.61-0.31,0.91-0.46C326.976,74.473,327.256,74.493,327.466,74.603z"/>
				<path d="M327.466,74.603c-0.21-0.11-0.49-0.13-0.76,0.01c-0.3,0.15-0.61,0.31-0.91,0.46c-40.76-22.08-82.97-41.23-124.78-61.19
					c0.04-0.37,0.08-0.75,0.12-1.12c0.01-0.06-0.14-0.08-0.34-0.08c0,0,0,0-0.01,0c-0.19-0.03-0.43-0.01-0.64,0.06
					c-0.1,0.04-0.19,0.07-0.29,0.11c0.28-0.23,0.85-0.41,1.13-0.27C243.366,32.823,286.156,52.213,327.466,74.603z"/>
				<path d="M321.956,92.593c0.47-0.19,1.15-0.19,1.05,0.15c-0.02,0.06-0.04,0.13-0.05,0.19c-0.54,0.26-1.08,0.52-1.61,0.78
					c0.08-0.26,0.15-0.51,0.22-0.77C321.606,92.803,321.766,92.683,321.956,92.593z"/>
				<path d="M321.346,93.713c0.53-0.26,1.07-0.52,1.61-0.78c-8.08,29-19.22,57.01-28.22,85.71c-0.08,0.25-0.52,0.42-0.89,0.46
					c0.19-0.1,0.39-0.2,0.58-0.29c0.85-0.41-0.5-0.3-0.83-0.14c-0.1,0.05-0.2,0.1-0.3,0.15
					C302.246,150.313,313.276,122.493,321.346,93.713z"/>
				<path d="M321.936,92.563l0.02,0.03c-0.19,0.09-0.35,0.21-0.39,0.35c-0.07,0.26-0.14,0.51-0.22,0.77
					c-53.61,26.2-106.63,53.61-160.53,79.22c-0.02-0.08-0.04-0.16-0.06-0.24c-0.03-0.14-0.17-0.22-0.36-0.23
					c-0.06-0.04-0.12-0.07-0.18-0.1C214.516,146.563,267.926,118.943,321.936,92.563z"/>
				<path fill="#B3B3B3" d="M321.346,93.713c-8.07,28.78-19.1,56.6-28.05,85.11c-38.89,18.78-76.22,40.72-116.2,57.24
					c-4.83-21.21-11.11-42.01-16.28-63.13C214.716,147.323,267.736,119.913,321.346,93.713z"/>
				<path d="M293.596,178.673c0.33-0.16,1.68-0.27,0.83,0.14c-0.19,0.09-0.39,0.19-0.58,0.29c0,0-0.01-0.01-0.01,0
					c-0.34,0.04-0.62-0.04-0.55-0.26c0-0.01,0-0.01,0.01-0.02C293.396,178.773,293.496,178.723,293.596,178.673z"/>
				<path d="M293.286,178.843c-0.07,0.22,0.21,0.3,0.55,0.26c-39.03,18.88-76.5,40.89-116.64,57.41c-0.03-0.15-0.07-0.3-0.1-0.45
					c39.98-16.52,77.31-38.46,116.2-57.24C293.286,178.833,293.286,178.833,293.286,178.843z"/>
				<path fill="#B3B3B3" d="M201.016,13.883c41.81,19.96,84.02,39.11,124.78,61.19c-30.27,15.25-60.2,31.18-90.38,46.61
					c-14.37-9.64-29.53-18.05-43.9-27.71c-0.09-0.07-0.25-0.07-0.43-0.05C193.866,67.173,198.206,40.623,201.016,13.883z"/>
				<path d="M235.606,121.813c0.28,0.19-0.99,0.77-1.36,0.52c-0.01-0.01-0.03-0.02-0.04-0.03c0.4-0.2,0.81-0.41,1.21-0.62
					C235.476,121.733,235.546,121.773,235.606,121.813z"/>
				<path d="M235.416,121.683c-0.4,0.21-0.81,0.42-1.21,0.62c-14.25-9.57-29.27-17.92-43.52-27.46c0.18-0.07,0.31-0.17,0.33-0.3
					c0.02-0.21,0.04-0.41,0.07-0.62c0.18-0.02,0.34-0.02,0.43,0.05C205.886,103.633,221.046,112.043,235.416,121.683z"/>
				<path fill="#B3B3B3" d="M190.686,94.843c14.25,9.54,29.27,17.89,43.52,27.46c-24.42,12.48-49.01,24.62-74.06,35.8
					c-17.66-9.41-35.15-19.14-52.6-28.94l0.28-0.49c0.25,0.13,0.79,0.14,1.07,0c26.13-13.54,53.13-25.29,80.83-35.19
					c-0.06,0.48-0.11,0.97-0.16,1.45C189.556,95.063,190.256,95.023,190.686,94.843z M192.886,116.583
					c1.86-1.15,2.75-3.83,1.27-5.65c-1.82-2.21-5.04-1.47-7.05-0.04c-0.15,0.11-0.23,0.21-0.25,0.31c-1.62,0.84-2.18,2.9-0.81,4.49
					C187.676,117.593,190.806,117.873,192.886,116.583z M180.296,107.613c1.55-1.06,2.53-3.82,0.65-5.07
					c-1.25-0.84-3.28-0.52-4.17,0.7c-1.72,0.36-2.88,2.3-1.9,3.92C175.976,108.983,178.786,108.633,180.296,107.613z
					 M166.756,132.453c1.74-0.38,3.59-1.65,3.42-3.66c-0.21-2.31-2.65-3.59-4.74-3.12c-0.08,0.02-0.17,0.05-0.25,0.08
					c-0.01,0.01-0.02,0.01-0.02,0.01c-0.11,0.01-0.23,0.04-0.34,0.08c-1.74,0.72-2.86,2.42-2.45,4.34
					C162.826,132.243,164.896,132.853,166.756,132.453z M154.666,122.203c1.6-1.29,1.87-4.1-0.14-5.19c-1.42-0.77-3.49-0.28-4.46,1
					c-0.09,0.01-0.18,0.03-0.26,0.06c-1.93,0.68-2.53,3.05-0.87,4.41C150.536,123.803,153.126,123.453,154.666,122.203z
					 M151.646,145.353c1.67-1.37,2.28-4.12,0.38-5.62c-1.54-1.22-4.11-0.61-4.99,1.11c-2.33,0.18-3.77,2.74-2.05,4.64
					C146.676,147.353,149.886,146.813,151.646,145.353z M131.576,134.773c1.69-1.28,2.19-4.08,0.47-5.55
					c-1.32-1.13-3.37-1.11-4.8-0.17c-2.2,0.48-3.17,2.91-1.79,4.85C126.806,135.803,129.746,136.163,131.576,134.773z"/>
				<path d="M201.136,12.763c-0.04,0.37-0.08,0.75-0.12,1.12c-0.33-0.16-0.67-0.32-1-0.48c0.22-0.08,0.44-0.16,0.66-0.24
					c0.62-0.23,0.47-0.42,0.12-0.48C200.996,12.683,201.146,12.703,201.136,12.763z"/>
				<path d="M200.016,13.403c0.33,0.16,0.67,0.32,1,0.48c-2.81,26.74-7.15,53.29-9.93,80.04c-0.5,0.08-1.13,0.43-0.92,0.57
					c0.17,0.12,0.35,0.23,0.52,0.35c-0.43,0.18-1.13,0.22-1.12,0.09c0.05-0.48,0.1-0.97,0.16-1.45c0.31-0.12,0.62-0.23,0.93-0.34
					c0.95-0.34,0.09-0.83-0.57-0.6c-0.09,0.03-0.18,0.06-0.27,0.1c2.81-26.42,7.08-52.67,9.83-79.1
					C199.766,13.493,199.896,13.453,200.016,13.403z"/>
				<path d="M200.836,0.353c0.37,0.18,0.49,0.59-0.1,0.82c-0.14,0.06-0.29,0.11-0.43,0.16c-0.16-0.08-0.31-0.16-0.47-0.24
					C199.296,0.813,200.316,0.293,200.836,0.353z"/>
				<path d="M200.796,12.683c0.35,0.06,0.5,0.25-0.12,0.48c-0.22,0.08-0.44,0.16-0.66,0.24c-0.06-0.03-0.11-0.05-0.17-0.08
					c-0.09-0.04-0.14-0.1-0.16-0.15v-0.01c0-0.01,0-0.01,0-0.02c0.04-0.28,0.69-0.44,1.1-0.46
					C200.796,12.683,200.796,12.683,200.796,12.683z"/>
				<path d="M200.836,0.353c-0.52-0.06-1.54,0.46-1,0.74c0.16,0.08,0.31,0.16,0.47,0.24c-66.31,25.63-133.7,48.9-198.15,79.03
					c-0.17-0.1-0.34-0.2-0.51-0.3c-0.33-0.19-1.22,0.17-1.37,0.4c-0.07-0.19,0.03-0.41,0.37-0.57
					c64.86-30.39,132.71-53.78,199.45-79.58C200.366,0.213,200.636,0.243,200.836,0.353z"/>
				<path d="M200.146,12.743c0.21-0.07,0.45-0.09,0.64-0.06c-0.41,0.02-1.06,0.18-1.1,0.46c0,0.01,0,0.01,0,0.02
					c-0.04-0.1,0.04-0.21,0.17-0.31C199.956,12.813,200.046,12.783,200.146,12.743z"/>
				<path d="M200.016,13.403c-0.12,0.05-0.25,0.09-0.37,0.14c0.01-0.12,0.02-0.25,0.04-0.37c0.02,0.05,0.07,0.11,0.16,0.15
					C199.906,13.353,199.956,13.373,200.016,13.403z"/>
				<path d="M199.856,12.853c-0.13,0.1-0.21,0.21-0.17,0.31v0.01c-0.02,0.12-0.03,0.25-0.04,0.37
					c-58.25,21.37-115.56,45.21-171.77,71.48c-0.02-0.01-0.04-0.02-0.06-0.03c-0.46-0.25-1.5,0.28-1.29,0.66
					c-0.16,0.08-0.33,0.15-0.49,0.23c-0.39,0.18-1.73,0.14-0.86-0.27C82.326,58.843,140.606,34.563,199.856,12.853z"/>
				<path fill="#B3B3B3" d="M199.646,13.543c-2.75,26.43-7.02,52.68-9.83,79.1c-28.06,10-55.37,21.89-81.82,35.6
					c-0.36,0.19-0.34,0.34-0.17,0.43l-0.28,0.49c-26.47-14.86-52.87-29.87-79.67-44.14C84.086,58.753,141.396,34.913,199.646,13.543
					z"/>
				<path d="M194.156,110.933c1.48,1.82,0.59,4.5-1.27,5.65c-2.08,1.29-5.21,1.01-6.84-0.89c-1.37-1.59-0.81-3.65,0.81-4.49
					c-0.13,0.41,0.74,0.68,1.21,0.35c0.15-0.11,0.31-0.21,0.47-0.3c-0.03,0.28-0.32,0.61-0.74,0.67c-1.06,0.15-1.25,1.51-0.95,2.31
					c0.28,0.77,0.93,1.29,1.63,1.64c1.42,0.7,3.28,0.62,4.31-0.71c0.8-1.03,0.91-2.57,0.04-3.59c-1.15-1.35-2.92-1.11-4.29-0.32
					c0.02-0.25-0.15-0.46-0.61-0.39c-0.39,0.06-0.75,0.17-1.07,0.34c0.02-0.1,0.1-0.2,0.25-0.31
					C189.116,109.463,192.336,108.723,194.156,110.933z"/>
				<path d="M192.826,111.573c0.87,1.02,0.76,2.56-0.04,3.59c-1.03,1.33-2.89,1.41-4.31,0.71c-0.7-0.35-1.35-0.87-1.63-1.64
					c-0.3-0.8-0.11-2.16,0.95-2.31c0.42-0.06,0.71-0.39,0.74-0.67C189.906,110.463,191.676,110.223,192.826,111.573z"/>
				<path d="M191.086,93.923c-0.03,0.21-0.05,0.41-0.07,0.62c-0.02,0.13-0.15,0.23-0.33,0.3c-0.17-0.12-0.35-0.23-0.52-0.35
					C189.956,94.353,190.586,94.003,191.086,93.923z"/>
				<path d="M190.086,92.543c0.66-0.23,1.52,0.26,0.57,0.6c-0.31,0.11-0.62,0.22-0.93,0.34c0.02-0.28,0.05-0.56,0.09-0.84
					C189.906,92.603,189.996,92.573,190.086,92.543z"/>
				<path d="M189.816,92.643c-0.04,0.28-0.07,0.56-0.09,0.84c-27.7,9.9-54.7,21.65-80.83,35.19c-0.28,0.14-0.82,0.13-1.07,0
					c-0.17-0.09-0.19-0.24,0.17-0.43C134.446,114.533,161.756,102.643,189.816,92.643z"/>
				<path d="M187.926,110.863c0.46-0.07,0.63,0.14,0.61,0.39c-0.16,0.09-0.32,0.19-0.47,0.3c-0.47,0.33-1.34,0.06-1.21-0.35
					C187.176,111.033,187.536,110.923,187.926,110.863z"/>
				<path d="M180.946,102.543c1.88,1.25,0.9,4.01-0.65,5.07c-1.51,1.02-4.32,1.37-5.42-0.45c-0.98-1.62,0.18-3.56,1.9-3.92
					c-0.09,0.12-0.17,0.26-0.23,0.4c-0.09,0.19,0.2,0.26,0.53,0.23c-0.04,0.02-0.08,0.03-0.12,0.04c-1.01,0.21-1.13,1.82-0.78,2.59
					c0.5,1.1,2,1.49,3.01,0.87c1.04-0.63,1.59-2.09,1.21-3.24c-0.31-0.92-1.83-1.95-2.41-0.68c-0.1,0.23-0.53,0.39-0.9,0.42
					c0.73-0.22,0.51-0.81-0.31-0.63C177.666,102.023,179.696,101.703,180.946,102.543z"/>
				<path d="M180.396,104.133c0.38,1.15-0.17,2.61-1.21,3.24c-1.01,0.62-2.51,0.23-3.01-0.87c-0.35-0.77-0.23-2.38,0.78-2.59
					c0.04-0.01,0.08-0.02,0.12-0.04c0,0,0.01,0.01,0.01,0c0.37-0.03,0.8-0.19,0.9-0.42
					C178.566,102.183,180.086,103.213,180.396,104.133z"/>
				<path d="M177.346,237.173c0.12,0.5-1.25,0.87-1.43,0.43c0.01,0,0.01,0.01,0.02,0.01c0.38,0.17,1.49-0.43,1.37-0.49
					c-0.25-0.11-0.5-0.23-0.75-0.35c0.21-0.08,0.43-0.17,0.64-0.26C177.246,236.733,177.296,236.953,177.346,237.173z"/>
				<path d="M177.306,237.123c0.12,0.06-0.99,0.66-1.37,0.49c-0.01,0-0.01-0.01-0.02-0.01c-0.01-0.01-0.02-0.02-0.02-0.04
					c-0.04-0.19-0.09-0.38-0.13-0.57c0.2-0.02,0.39-0.05,0.49-0.09c0.1-0.04,0.2-0.08,0.3-0.13
					C176.806,236.893,177.056,237.013,177.306,237.123z"/>
				<path d="M176.776,103.243c0.82-0.18,1.04,0.41,0.31,0.63c0,0.01-0.01,0-0.01,0c-0.33,0.03-0.62-0.04-0.53-0.23
					C176.606,103.503,176.686,103.363,176.776,103.243z"/>
				<path d="M177.096,236.063c0.03,0.15,0.07,0.3,0.1,0.45c-0.21,0.09-0.43,0.18-0.64,0.26c-0.19-0.08-0.38-0.17-0.56-0.26
					C176.366,236.373,176.726,236.213,177.096,236.063z"/>
				<path d="M177.096,236.063c-0.37,0.15-0.73,0.31-1.1,0.45c-0.13-0.05-0.26-0.11-0.38-0.17c-4.84-21.23-11.13-42.07-16.3-63.21
					c0.04,0.02,0.09,0.05,0.13,0.07c0.04,0.03,0.1,0.04,0.18,0.04c0.19,0.05,0.45,0.04,0.69-0.07c0.17-0.08,0.33-0.16,0.5-0.24
					C165.986,194.053,172.266,214.853,177.096,236.063z"/>
				<path d="M176.556,236.773c-0.1,0.05-0.2,0.09-0.3,0.13c-0.1,0.04-0.29,0.07-0.49,0.09c-0.03-0.12-0.05-0.23-0.08-0.35
					c0.1-0.04,0.21-0.08,0.31-0.13C176.176,236.603,176.366,236.693,176.556,236.773z"/>
				<path d="M175.996,236.513c-0.1,0.05-0.21,0.09-0.31,0.13c-0.02-0.1-0.04-0.2-0.07-0.3
					C175.736,236.403,175.866,236.463,175.996,236.513z"/>
				<path d="M175.896,237.563c0,0.02,0.01,0.03,0.02,0.04c-44.61-20.37-84.98-49.12-126.37-75.14c0.48,0.12,1.35-0.25,1.18-0.58
					c-0.01-0.01-0.01-0.03-0.02-0.04c40.95,25.73,80.89,54.16,124.91,74.5c0.03,0.1,0.05,0.2,0.07,0.3
					c-0.09,0.04-0.17,0.07-0.26,0.11c-0.61,0.25-0.12,0.29,0.34,0.24C175.806,237.183,175.856,237.373,175.896,237.563z"/>
				<path d="M175.686,236.643c0.03,0.12,0.05,0.23,0.08,0.35c-0.46,0.05-0.95,0.01-0.34-0.24
					C175.516,236.713,175.596,236.683,175.686,236.643z"/>
				<path d="M170.176,128.793c0.17,2.01-1.68,3.28-3.42,3.66c-1.86,0.4-3.93-0.21-4.38-2.27c-0.41-1.92,0.71-3.62,2.45-4.34
					c0.11-0.04,0.23-0.07,0.34-0.08c-0.48,0.21-0.85,0.64,0,0.45c0.05-0.01,0.1-0.02,0.15-0.03c-2.58,1.07-1.85,5.74,1.01,5.81
					c1.58,0.03,2.63-1.65,2.36-3.09c-0.28-1.47-1.79-2.95-3.36-2.72c0.76-0.31,0.34-0.49-0.14-0.43c0.08-0.03,0.17-0.06,0.25-0.08
					C167.526,125.203,169.966,126.483,170.176,128.793z"/>
				<path fill="#B3B3B3" d="M159.316,173.133c5.17,21.14,11.46,41.98,16.3,63.21c-44.02-20.34-83.96-48.77-124.91-74.5
					c-11.64-23.87-23.27-47.73-34.41-71.83C63.716,118.143,110.366,147.673,159.316,173.133z"/>
				<path d="M168.686,128.903c0.27,1.44-0.78,3.12-2.36,3.09c-2.86-0.07-3.59-4.74-1.01-5.81h0.01
					C166.896,125.953,168.406,127.433,168.686,128.903z"/>
				<path d="M165.186,125.753c0.48-0.06,0.9,0.12,0.14,0.43h-0.01c-0.05,0.01-0.1,0.02-0.15,0.03c-0.85,0.19-0.48-0.24,0-0.45
					C165.166,125.763,165.176,125.763,165.186,125.753z"/>
				<path d="M160.756,172.693c0.02,0.08,0.04,0.16,0.06,0.24c-0.17,0.08-0.33,0.16-0.5,0.24c-0.24,0.11-0.5,0.12-0.69,0.07
					c0.48,0.02,1.45-0.43,0.99-0.67c-0.07-0.04-0.15-0.08-0.22-0.11C160.586,172.473,160.726,172.553,160.756,172.693z"/>
				<path d="M160.596,158.343c0.62,0.32-0.36,0.94-0.95,0.85c0-0.01-0.01-0.01-0.02-0.01c-0.37-0.18-0.51-0.62,0.08-0.88
					c0.15-0.07,0.29-0.13,0.44-0.2C160.296,158.183,160.446,158.263,160.596,158.343z"/>
				<path d="M160.616,172.573c0.46,0.24-0.51,0.69-0.99,0.67c-0.33-0.09-0.46-0.38,0.12-0.65c0.07-0.03,0.14-0.07,0.21-0.1
					c0.16-0.03,0.31-0.05,0.44-0.03C160.466,172.493,160.546,172.533,160.616,172.573z"/>
				<path d="M160.216,172.363c0.06,0.03,0.12,0.06,0.18,0.1c-0.13-0.02-0.28,0-0.44,0.03
					C160.046,172.453,160.126,172.413,160.216,172.363z"/>
				<path d="M160.216,172.363c-0.09,0.05-0.17,0.09-0.26,0.13c-0.36,0.1-0.71,0.32-0.65,0.59c0,0.02,0.01,0.03,0.01,0.05
					c-48.95-25.46-95.6-54.99-143.02-83.12c-0.28-0.6-0.56-1.21-0.84-1.81c-0.01-0.02-0.02-0.03-0.03-0.04
					C63.466,116.603,110.666,146.573,160.216,172.363z"/>
				<path d="M160.146,158.103c-0.15,0.07-0.29,0.13-0.44,0.2c-0.59,0.26-0.45,0.7-0.08,0.88c-0.06,0-0.11-0.02-0.16-0.04
					c-44.63-23.76-88.14-49.58-132.77-73.34c-0.08-0.05-0.14-0.1-0.17-0.15c0.45-0.21,0.9-0.42,1.35-0.63
					c26.8,14.27,53.2,29.28,79.67,44.14C124.996,138.963,142.486,148.693,160.146,158.103z"/>
				<path d="M159.956,172.493c-0.07,0.03-0.14,0.07-0.21,0.1c-0.58,0.27-0.45,0.56-0.12,0.65c-0.08,0-0.14-0.01-0.18-0.04
					c-0.04-0.02-0.09-0.05-0.13-0.07c0-0.02-0.01-0.03-0.01-0.05C159.246,172.813,159.596,172.593,159.956,172.493z"/>
				<path d="M154.526,117.013c2.01,1.09,1.74,3.9,0.14,5.19c-1.54,1.25-4.13,1.6-5.73,0.28c-1.66-1.36-1.06-3.73,0.87-4.41
					c0.08-0.03,0.17-0.05,0.26-0.06c-0.06,0.07-0.11,0.15-0.16,0.23c-0.16,0.25,0.1,0.33,0.44,0.31c-1.33,0.48-1.09,2.36-0.31,3.16
					c1.04,1.09,2.89,1.16,3.87-0.05c0.67-0.83,0.78-2,0.34-2.97c-0.58-1.23-2.19-1.83-3.01-0.48c-0.11,0.18-0.53,0.32-0.88,0.34
					c0.83-0.29,0.28-0.6-0.29-0.54C151.036,116.733,153.106,116.243,154.526,117.013z"/>
				<path d="M154.246,118.693c0.44,0.97,0.33,2.14-0.34,2.97c-0.98,1.21-2.83,1.14-3.87,0.05c-0.78-0.8-1.02-2.68,0.31-3.16h0.01
					c0.35-0.02,0.77-0.16,0.88-0.34C152.056,116.863,153.666,117.463,154.246,118.693z"/>
				<path d="M152.026,139.733c1.9,1.5,1.29,4.25-0.38,5.62c-1.76,1.46-4.97,2-6.66,0.13c-1.72-1.9-0.28-4.46,2.05-4.64
					c-0.02,0.02-0.04,0.05-0.05,0.08c-0.18,0.39,0.24,0.51,0.66,0.45c-0.12,0.18-0.36,0.33-0.67,0.34
					c-1.57,0.08-1.49,1.95-0.93,2.83c0.36,0.55,0.92,0.95,1.55,1.12c1.4,0.39,2.96-0.31,3.71-1.52c0.56-0.91,0.59-2.04,0.08-2.98
					c-0.67-1.23-2.32-1.68-3.04-0.16c-0.09,0.2-0.4,0.33-0.7,0.37c0.19-0.26,0.1-0.56-0.5-0.54c-0.04,0-0.07,0-0.11,0.01
					C147.916,139.123,150.486,138.513,152.026,139.733z"/>
				<path d="M151.386,141.163c0.51,0.94,0.48,2.07-0.08,2.98c-0.75,1.21-2.31,1.91-3.71,1.52c-0.63-0.17-1.19-0.57-1.55-1.12
					c-0.56-0.88-0.64-2.75,0.93-2.83c0.31-0.01,0.55-0.16,0.67-0.34c0.3-0.04,0.61-0.17,0.7-0.37
					C149.066,139.483,150.716,139.933,151.386,141.163z"/>
				<path d="M150.066,118.013c0.57-0.06,1.12,0.25,0.29,0.54h-0.01c-0.34,0.02-0.6-0.06-0.44-0.31
					C149.956,118.163,150.006,118.083,150.066,118.013z"/>
				<path d="M147.146,140.833c0.6-0.02,0.69,0.28,0.5,0.54c-0.42,0.06-0.84-0.06-0.66-0.45c0.01-0.03,0.03-0.06,0.05-0.08
					C147.076,140.833,147.106,140.833,147.146,140.833z"/>
				<path d="M132.046,129.223c1.72,1.47,1.22,4.27-0.47,5.55c-1.83,1.39-4.77,1.03-6.12-0.87c-1.38-1.94-0.41-4.37,1.79-4.85
					c-0.3,0.18-0.57,0.42-0.8,0.69c-0.26,0.31-0.11,0.5,0.17,0.57c-0.87,0.86-0.01,2.98,0.8,3.63c1.19,0.95,2.96,1.01,3.8-0.42
					c0.62-1.05,0.62-2.53-0.25-3.45c-0.91-0.97-2.46-1-3.33,0.01c-0.2,0.24-0.7,0.32-1.02,0.23c0.2-0.21,0.48-0.34,0.86-0.38
					c0.76-0.08,1.15-1.06,0.16-0.95c-0.13,0.01-0.26,0.04-0.39,0.07C128.676,128.113,130.726,128.093,132.046,129.223z"/>
				<path d="M130.966,130.073c0.87,0.92,0.87,2.4,0.25,3.45c-0.84,1.43-2.61,1.37-3.8,0.42c-0.81-0.65-1.67-2.77-0.8-3.63
					c0.32,0.09,0.82,0.01,1.02-0.23C128.506,129.073,130.056,129.103,130.966,130.073z"/>
				<path d="M127.636,128.983c0.99-0.11,0.6,0.87-0.16,0.95c-0.38,0.04-0.66,0.17-0.86,0.38c-0.28-0.07-0.43-0.26-0.17-0.57
					c0.23-0.27,0.5-0.51,0.8-0.69C127.376,129.023,127.506,128.993,127.636,128.983z"/>
				<path d="M50.726,161.883c0.17,0.33-0.7,0.7-1.18,0.58c-0.08-0.05-0.15-0.1-0.23-0.15c-0.16-0.1,1.03-0.69,1.37-0.48
					c0.01,0,0.01,0.01,0.02,0.01C50.716,161.853,50.716,161.873,50.726,161.883z"/>
				<path d="M50.706,161.843c-0.01,0-0.01-0.01-0.02-0.01c-0.34-0.21-1.53,0.38-1.37,0.48c0.08,0.05,0.15,0.1,0.23,0.15
					c-0.13-0.03-0.22-0.09-0.27-0.19c-11.93-24.45-23.84-48.9-35.23-73.6c0.75,0.44,1.5,0.89,2.25,1.34
					C27.436,114.113,39.066,137.973,50.706,161.843z"/>
				<path d="M27.876,85.023c-0.45,0.21-0.9,0.42-1.35,0.63c-0.21-0.38,0.83-0.91,1.29-0.66
					C27.836,85.003,27.856,85.013,27.876,85.023z"/>
				<path d="M15.456,88.203c0.28,0.6,0.56,1.21,0.84,1.81c-0.75-0.45-1.5-0.9-2.25-1.34c-0.02-0.03-0.03-0.05-0.04-0.08
					c-0.15-0.33,0.65-0.68,1.13-0.6c0.01,0,0.02,0,0.02,0c0.09,0.06,0.18,0.11,0.27,0.17C15.436,88.173,15.446,88.183,15.456,88.203
					z"/>
				<path d="M15.426,88.163c-0.09-0.06-0.18-0.11-0.27-0.17C15.276,88.023,15.376,88.083,15.426,88.163z"/>
				<path d="M15.136,87.993c-0.48-0.08-1.28,0.27-1.13,0.6c0.01,0.03,0.02,0.05,0.04,0.08c-4.46-2.64-8.92-5.26-13.39-7.87
					c0.19,0.06,0.42,0.06,0.64-0.04c0.29-0.13,0.57-0.27,0.86-0.4C6.496,82.883,10.816,85.433,15.136,87.993z"/>
				<path d="M2.156,80.363c-0.29,0.13-0.57,0.27-0.86,0.4c-0.22,0.1-0.45,0.1-0.64,0.04c0,0,0,0-0.01,0
					c-0.06-0.04-0.13-0.08-0.19-0.11c-0.02-0.01-0.02-0.01-0.03-0.03c-0.08-0.05-0.13-0.12-0.15-0.2c0.15-0.23,1.04-0.59,1.37-0.4
					C1.816,80.163,1.986,80.263,2.156,80.363z"/>
				<path d="M0.456,80.693c0.06,0.03,0.13,0.07,0.19,0.11C0.576,80.773,0.506,80.743,0.456,80.693z"/>
				<path d="M0.426,80.663c-0.04-0.02-0.09-0.04-0.13-0.07c-0.06-0.03-0.06-0.08-0.02-0.13C0.296,80.543,0.346,80.613,0.426,80.663z
					"/>
			</g>
		</g>
	</g>
</g>
<g id="reference">
</g>
</svg>
