<?xml version="1.0" encoding="utf-8"?>
<!-- Generator: Adobe Illustrator 18.1.1, SVG Export Plug-In . SVG Version: 6.00 Build 0)  -->
<svg version="1.1" xmlns="http://www.w3.org/2000/svg" xmlns:xlink="http://www.w3.org/1999/xlink" x="0px" y="0px"
	 viewBox="0 0 456.1 195.6" enable-background="new 0 0 456.1 195.6" xml:space="preserve">
<g id="_x33_4up">
	<g id="notes" opacity="0.21">
	</g>
	<g id="Layer_12" display="none">
	</g>
	<g id="_x33_4up_1_">
	</g>
	<g id="_x33_4up_copy">
		<path d="M455.9,79.2c-0.3-0.6-0.4-1.5-0.3-2.3c0,0,0,0,0,0c0-0.1,0-0.1,0-0.2c0-0.1,0-0.2,0-0.3c-0.1-0.2-0.3-0.1-0.5,0
			c-5.7-3.9-13.5-6-19.7-8.6c-14.4-6-28.8-11.8-43.2-17.6c-32.4-13.1-64.9-26-97.2-39.3c-7.9-3.2-17.2-5.8-24.5-10.4
			c0-0.1,0-0.2,0-0.2c0-0.2-0.1-0.2-0.3-0.1h0c0,0,0,0,0,0c-9.2,2.7-18.6,4.6-27.9,6.9c-21.1,5.2-42.2,10.3-63.3,15.5
			C131.6,34.2,84.2,45.7,36.7,57.2C25.3,60,13.8,63.1,2.3,65.5c0,0-0.1,0-0.1,0c0,0,0,0,0,0c-0.1,0-0.2,0.1-0.3,0.2c0,0,0,0,0,0
			c-0.1,0.1-0.2,0.1-0.2,0.1C1.3,66.1,1,66.5,1,67c0,0.5,0,1.1,0,1.6c-0.5,0.4-0.9,1.2-0.7,1.3C0.5,69.9,0.8,70,1,70.1
			c0,0.1,0.1,0.1,0.1,0.1c8.4,3.5,17.1,6.8,25.2,11c0.1,0.1,0.2,0,0.4,0c3.3,8.1,6,16.7,9,24.8c6,16,11.9,32,17.9,47.9
			c1.4,3.8,2.6,8.2,4.6,11.7c0,0,0.1,0.1,0.1,0.1c4.6,1.1,9.3,2,14,2.9c14.3,2.8,28.6,5,42.9,7.5c26.2,4.6,52.3,9.2,78.4,14
			c8.8,1.6,17.7,3.2,26.3,5.3c0,0,0,0,0,0h0c0.1,0,0.1,0,0.2,0c6.5-0.4,13.3-2.2,19.7-3.4c14.3-2.7,28.7-5.4,43-8.2
			c32.6-6.3,65.2-12.6,97.7-19c8.3-1.6,16.5-3.3,24.7-4.8h0c0.3,0.1,1-0.7,1.2-1.2c0,0,0,0,0,0c8.9-24.5,20.4-48.2,31.7-71.7
			c2.1-0.3,4-1.3,5.9-2.1c3.5-1.6,7-3.2,10.7-4.2c0,0,0.1,0,0.1-0.1C455.4,80.3,456,79.5,455.9,79.2z"/>
	</g>
	<g id="_x33_4up_copy_2">
		<g>
			<g id="XMLID_13_">
				<g>
					<path d="M455.9,79.2c0.1,0.3-0.5,1.1-1,1.4c0.1-0.1,0.3-0.3,0.4-0.4c0,0,0,0,0,0c0.1-0.1,0.1-0.1,0.1-0.2c0,0,0-0.1,0.1-0.1
						c0,0,0.1-0.1,0.1-0.2c0.2-0.4,0.3-0.7,0-0.6c-0.1,0-0.1,0-0.2,0.1c-0.4-0.2-0.8-0.5-1.2-0.7c0-0.3,0-0.5,0-0.8c0,0,0,0,0,0
						c0,0,0,0,0,0c0,0.4,0.4,0.2,0.6,0.1c0.3-0.2,0.6-0.6,0.8-0.9C455.5,77.6,455.6,78.6,455.9,79.2z"/>
					<path d="M455.6,79.1c0.3-0.1,0.2,0.2,0,0.6c0.1-0.2,0.1-0.3,0-0.4c-0.1-0.1-0.2-0.1-0.3-0.2C455.5,79.1,455.5,79.1,455.6,79.1z
						"/>
					<path d="M455.6,79.3c0.1,0,0.1,0.2,0,0.4c0,0.1-0.1,0.1-0.1,0.2c0,0,0,0.1-0.1,0.1c0,0.1-0.1,0.1-0.1,0.2c0,0,0,0,0,0
						c-0.2,0.2-0.5,0.4-0.7,0.3c-0.1-0.1-0.2-0.1-0.3-0.2c-0.1-0.2-0.1-0.5-0.1-0.7c0.4-0.1,0.8-0.3,1.2-0.4
						C455.5,79.2,455.6,79.2,455.6,79.3z"/>
					<path d="M455.6,76.4c0,0.1,0,0.2,0,0.3c0,0.1,0,0.1,0,0.2c0-0.1,0-0.3,0.1-0.4c-0.1,0.1-0.1,0.1-0.2,0.2c0,0,0,0,0,0
						c-0.1-0.1-0.2-0.2-0.3-0.2C455.2,76.3,455.5,76.1,455.6,76.4z"/>
					<path d="M455.6,76.5c0,0.1,0,0.2-0.1,0.4c0,0,0,0,0,0c-0.1,0.3-0.5,0.7-0.8,0.9c-0.2,0.1-0.6,0.4-0.6-0.1c0,0,0,0,0,0
						c0,0,0,0,0,0c0.1,0,0.1,0.1,0.2,0.1c0.3,0.2,1.2-0.8,1-1.1C455.5,76.6,455.5,76.6,455.6,76.5z"/>
					<path d="M455.5,79.9C455.5,79.9,455.5,79.8,455.5,79.9C455.5,79.8,455.5,79.9,455.5,79.9z"/>
					<path d="M455.4,76.7c0.2,0.3-0.7,1.3-1,1.1c0,0-0.1-0.1-0.2-0.1C454.6,77.3,455,77,455.4,76.7z"/>
					<path d="M455.4,76.6C455.4,76.6,455.4,76.7,455.4,76.6c-0.4,0.4-0.8,0.7-1.1,1c0,0,0,0-0.1,0c0,0,0,0,0-0.1
						c0.1-0.4,0.4-0.8,0.7-1c0,0,0.1-0.1,0.2-0.1C455.2,76.5,455.3,76.6,455.4,76.6z"/>
					<path d="M455.3,80.1c0-0.1,0.1-0.1,0.1-0.2C455.4,80,455.4,80,455.3,80.1z"/>
					<path d="M455.3,80.1c-0.1,0.2-0.3,0.3-0.4,0.4c-0.2,0.1-0.4,0.1-0.4,0c0-0.1-0.1-0.2-0.1-0.3c0.1,0.1,0.2,0.1,0.3,0.2
						C454.8,80.5,455.1,80.4,455.3,80.1z"/>
					<path d="M455,76.4c-0.1,0.1-0.1,0.1-0.2,0.1c-0.3,0.3-0.6,0.6-0.7,1c0,0,0,0,0,0.1c-2.2-1.5-4.9-2.3-7.3-3.4
						c-5.7-2.5-11.4-4.8-17.1-7.2c-32.3-13.3-64.8-26.3-97.2-39.3c-14.4-5.8-28.9-11.6-43.3-17.5c-6.1-2.5-13.1-4.6-18.9-7.9
						c0-0.6,0-1.2,0-1.7c7.3,4.6,16.6,7.2,24.5,10.4c32.3,13.2,64.8,26.2,97.2,39.3c14.4,5.8,28.8,11.6,43.2,17.6
						C441.6,70.4,449.4,72.6,455,76.4z"/>
					<path d="M454.9,80.6c0,0-0.1,0.1-0.1,0.1c-3.7,1.1-7.1,2.7-10.7,4.2c-1.9,0.8-3.8,1.8-5.9,2.1c0.3-0.5,0.5-1,0.7-1.5
						c2.8-0.3,5.6-1.9,8.1-3c2.1-1,4.3-1.9,6.5-2.6c0.3,0.2,0.6,0.3,0.9,0.5c0,0.1,0.1,0.2,0.1,0.3
						C454.5,80.7,454.7,80.7,454.9,80.6z"/>
					<path d="M455.4,79.1c-0.4,0.1-0.8,0.2-1.2,0.4c0-0.3-0.1-0.5-0.1-0.8c0-0.1,0-0.2,0-0.3C454.6,78.7,455,78.9,455.4,79.1z"/>
					<path d="M454.3,80.2c-0.3-0.2-0.6-0.3-0.9-0.5c0.2-0.1,0.5-0.2,0.7-0.2C454.2,79.8,454.3,80,454.3,80.2z"/>
					<path d="M454.2,77.6C454.2,77.6,454.2,77.6,454.2,77.6C454.2,77.7,454.2,77.7,454.2,77.6C454.2,77.7,454.2,77.7,454.2,77.6
						C454.2,77.6,454.2,77.6,454.2,77.6z"/>
					<path d="M454.2,79.5c-0.2,0.1-0.5,0.1-0.7,0.2c-7.2-4-15.6-6.6-23.1-9.7c-32.2-13.4-64.6-26.5-96.9-39.7
						c-14.5-5.9-29.1-11.8-43.6-17.6c-6.7-2.7-13.3-5.7-20.1-8c0.3-0.3,0.7-0.8,0.7-1c0-0.1,0-0.1,0-0.2c8.1,2.7,16,6.3,24,9.5
						c32.5,13,65,26.2,97.4,39.5c14.6,6,29.2,12,43.8,18.1c6.1,2.5,12.8,4.6,18.6,7.8c0,0.1,0,0.2,0,0.3
						C454.2,79,454.2,79.2,454.2,79.5z"/>
					<path fill="#B3B3B3" d="M454.2,77.6C454.2,77.6,454.2,77.6,454.2,77.6c0,0.3,0,0.6,0,0.8c-5.8-3.2-12.5-5.3-18.6-7.8
						c-14.6-6.1-29.2-12.1-43.8-18.1c-32.4-13.3-64.9-26.4-97.4-39.5c-7.9-3.2-15.8-6.8-24-9.5c0,0,0,0,0,0c0-0.3,0-0.6,0-0.7
						c0,0,0,0,0,0c0-0.2,0-0.3,0-0.5c5.8,3.3,12.8,5.4,18.9,7.9c14.4,5.9,28.8,11.7,43.3,17.5c32.4,13.1,64.9,26,97.2,39.3
						c5.7,2.3,11.4,4.7,17.1,7.2C449.2,75.3,452,76.2,454.2,77.6z"/>
					<path fill="#7E8087" d="M453.5,79.8c-2.2,0.8-4.4,1.7-6.5,2.6c-2.5,1.1-5.3,2.8-8.1,3c0.5-1,1-2,1.5-3c0,0,0,0,0,0
						c0.3-0.3,0.6-0.8,0.4-0.9c-6-1.4-12-4.3-17.7-6.4c-13.5-4.9-26.9-9.9-40.4-14.9c-30.4-11.2-60.9-22.5-91.3-33.6
						c-5.1-1.9-10.3-3.7-15.4-5.6c-1.9-0.7-4.1-1.8-6.2-2.1c0,0,0-0.1,0-0.1c0,0,0-0.1-0.1-0.1c0-0.1-0.1-0.1-0.2-0.1
						c-28.7,5.1-57.2,12-85.8,18.2c-41.5,9-83,18-124.5,27c-11.7,2.5-23.3,5.1-35,7.5c-0.1-0.1-0.1-0.2-0.2-0.4
						c-0.3-0.5-1.6,0.9-1.4,1.3c1.1,2.1,2.1,4.3,3,6.5c-6.8-3.4-14-6.2-21-9.1c8.7-1,17.6-4.2,25.8-6.2c20.7-5,41.4-10.1,62-15.1
						c47.4-11.6,94.8-23.2,142.2-34.8c11.4-2.8,22.9-5.6,34.3-8.4c0,0,0,0.1,0,0.1c0.1,0.3,0.4,0.1,0.7-0.2c6.8,2.3,13.5,5.3,20.1,8
						c14.6,5.8,29.1,11.7,43.6,17.6c32.4,13.1,64.7,26.3,96.9,39.7C437.9,73.1,446.3,75.7,453.5,79.8z"/>
					<path d="M440.8,81.5c0.3,0.1,0,0.6-0.4,0.9c0.5-1-0.5-0.4-1,0.1c-7.2-1.8-14.4-5.2-21.3-7.8c-30.5-11.2-60.9-22.5-91.3-33.7
						c-13.5-5-26.9-9.9-40.4-14.8c-4.3-1.5-8.5-3.1-12.8-4.6c-1.2-0.4-2.5-1.1-3.8-1.4c0-0.5,0-0.9,0-1.4c2,0.3,4.3,1.5,6.2,2.1
						c5.2,1.8,10.3,3.7,15.4,5.6c30.5,11.1,60.9,22.4,91.3,33.6c13.5,5,26.9,9.9,40.4,14.9C428.8,77.2,434.8,80,440.8,81.5z"/>
					<path d="M439.4,82.5c0.4-0.5,1.5-1.1,1-0.1c0,0,0,0,0,0c-0.2,0.2-0.3,0.3-0.5,0.2C439.8,82.6,439.6,82.6,439.4,82.5z"/>
					<path d="M440.4,82.4c-0.5,1-1,2-1.5,3c-0.1,0-0.2,0-0.3,0c-0.6,0-1.5,1.6-1.1,1.6c0.2,0,0.5,0,0.7-0.1
						c-11.3,23.5-22.8,47.2-31.7,71.7c0-0.1,0-0.2,0-0.3c0,0,0-0.1-0.1-0.1c0,0,0,0,0,0c-0.2-0.1-0.5-0.2-0.7-0.2
						c9.5-25.7,21.7-50.6,33.6-75.3c0-0.1,0.1-0.1,0.1-0.2c0.2,0.1,0.3,0.1,0.5,0.1C440.1,82.7,440.2,82.6,440.4,82.4z"/>
					<path fill="#B3B3B3" d="M439.4,82.5c-0.1,0.1-0.1,0.2-0.1,0.2c-11.9,24.7-24.1,49.6-33.6,75.3c-37.6-13.1-75.9-24-113.9-36
						c-7-2.2-14-4.4-21-6.7c0-15.7,0.3-31.4-0.1-47.1c-0.4-16-1-32-1.1-48c1.3,0.4,2.6,1,3.8,1.4c4.3,1.5,8.5,3.1,12.8,4.6
						c13.5,4.9,27,9.8,40.4,14.8c30.4,11.2,60.9,22.5,91.3,33.7C425,77.3,432.2,80.7,439.4,82.5z"/>
					<path d="M438.9,85.4c-0.2,0.5-0.5,1-0.7,1.5c-0.2,0-0.5,0.1-0.7,0.1c-0.4,0,0.5-1.6,1.1-1.6C438.7,85.4,438.8,85.4,438.9,85.4z
						"/>
					<path d="M406.5,158.3c0.1,0.1,0.1,0.2,0,0.3c0,0,0,0,0,0.1c0,0.1-0.2,0.3-0.3,0.4c0.1-0.1,0.1-0.2,0.2-0.3c0,0,0,0,0,0
						c0,0,0-0.1,0-0.1c0-0.1,0.1-0.2,0.1-0.2C406.5,158.4,406.5,158.3,406.5,158.3z"/>
					<path d="M406.5,158.3c0,0,0,0.1,0,0.1c0-0.1,0-0.2-0.1-0.2C406.4,158.3,406.4,158.3,406.5,158.3
						C406.4,158.3,406.4,158.3,406.5,158.3C406.5,158.3,406.5,158.3,406.5,158.3z"/>
					<path d="M406.5,158.4c0,0.1,0,0.1-0.1,0.2c0,0,0,0.1,0,0.1c0,0,0,0,0,0c-0.1,0.1-0.1,0.2-0.2,0.3c0,0,0,0,0,0
						c-0.3,0.3-0.8,0.7-1,0.6c0-0.3,0.6-1.3,1.1-1.5c0,0,0,0,0.1,0C406.5,158.3,406.5,158.3,406.5,158.4z"/>
					<path d="M406.4,158.3C406.5,158.3,406.5,158.3,406.4,158.3C406.5,158.3,406.5,158.3,406.4,158.3z"/>
					<path d="M406.4,158.8c0,0,0-0.1,0-0.1C406.4,158.7,406.4,158.7,406.4,158.8z"/>
					<path d="M406.4,158.3C406.4,158.3,406.4,158.3,406.4,158.3c-0.1,0-0.1,0-0.1,0c-0.2,0-0.5,0.1-0.7,0.1c0-0.1,0.1-0.3,0.1-0.4
						C405.9,158.1,406.2,158.2,406.4,158.3z"/>
					<path d="M406.2,159.1c0.1-0.2,0.3-0.3,0.3-0.4c-0.2,0.5-0.9,1.3-1.2,1.2c0,0,0.1,0,0.1,0C405.6,159.8,406,159.4,406.2,159.1z"
						/>
					<path d="M405.6,158.4c0.2-0.1,0.5-0.1,0.7-0.1c-0.5,0.2-1.1,1.1-1.1,1.5c-0.1,0-0.1-0.1,0-0.3
						C405.3,159.1,405.4,158.7,405.6,158.4z"/>
					<path d="M406.4,158.8c0,0.1-0.1,0.2-0.2,0.3c0,0,0,0,0,0C406.2,159,406.3,158.9,406.4,158.8z"/>
					<path d="M406.2,159.1C406.2,159.1,406.2,159.1,406.2,159.1c-0.2,0.3-0.5,0.7-0.8,0.7C405.7,159.7,405.9,159.4,406.2,159.1
						C406.2,159.1,406.2,159.1,406.2,159.1z"/>
					<path d="M405.7,158c-0.1,0.1-0.1,0.3-0.1,0.4c-1,0.2-1.9,0.4-2.9,0.5c-6.6-2.3-13.3-4.3-19.9-6.4
						c-37.7-12-75.8-22.8-113.2-35.7c0,0,0.1,0,0.1,0c0.3,0,0.7-0.5,0.9-0.9c0,0,0,0,0,0c0.1-0.2,0.2-0.3,0.2-0.5c0,0,0,0,0-0.1
						c6.9,2.4,14,4.5,21,6.7C329.8,134,368.2,144.9,405.7,158z"/>
					<path d="M405.6,158.4c-0.1,0.3-0.3,0.7-0.4,1c-0.1,0.2-0.1,0.3,0,0.3c0,0,0,0.1,0,0.1c-0.8-0.3-1.7-0.6-2.5-0.9
						C403.7,158.8,404.6,158.6,405.6,158.4z"/>
					<path d="M406.2,159.1c-0.2,0.3-0.5,0.6-0.8,0.7c0,0-0.1,0-0.1,0h0c0,0-0.1,0-0.1,0c0,0,0,0,0-0.1
						C405.3,159.8,405.8,159.5,406.2,159.1z"/>
					<path d="M405.2,159.8C405.2,159.8,405.2,159.8,405.2,159.8c-8.2,1.6-16.4,3.3-24.6,4.9c-32.6,6.4-65.1,12.8-97.7,19
						c-14.3,2.8-28.7,5.5-43,8.2c-6.4,1.2-13.1,3.1-19.7,3.4c0.5-0.2,1.2-1.2,1-1.5c0,0,0-0.1-0.1-0.1c8.3-0.4,16.9-2.9,25.1-4.4
						c32.3-6.1,64.6-12.4,96.9-18.7c19.9-3.9,39.7-7.9,59.6-11.7C403.5,159.2,404.4,159.5,405.2,159.8z"/>
					<path fill="#7E8087" d="M382.8,152.5c6.6,2.1,13.3,4.2,19.9,6.4c-19.9,3.7-39.7,7.8-59.6,11.7c-32.3,6.3-64.6,12.6-96.9,18.7
						c-8.2,1.5-16.8,4-25.1,4.4c-19.3-4.7-39.2-7.7-58.8-11.1c-26-4.6-51.9-9.1-77.9-13.9c-3.6-0.7-7.3-1.3-11-2c0,0,0,0-0.1,0
						c0,0,0,0-0.1,0c-3.8-0.7-7.5-1.4-11.3-2.2c23-6.2,46.5-10.9,69.7-16.3c36.2-8.4,72.5-16.7,108.8-24.9
						c9.7-2.2,19.3-4.6,29.1-6.5h0C307,129.7,345.1,140.5,382.8,152.5z M375.2,156.4c0-0.1,0-0.1,0-0.2c-0.3-1.2-2.5-0.7-3.3-0.6
						c-1.2,0.3-3.2,1.3-3,2.8c0.2,1.6,2.4,1.3,3.4,0.9C373.4,158.9,375.1,157.8,375.2,156.4C375.2,156.5,375.2,156.4,375.2,156.4z
						 M359.5,151.3c0-0.1,0-0.1,0-0.2c-0.4-1.3-2.9-0.8-3.8-0.6c-1.3,0.3-3.5,1.3-3.2,3c0.2,1.8,2.8,1.4,3.9,0.9
						C357.5,153.9,359.4,152.7,359.5,151.3C359.5,151.3,359.5,151.3,359.5,151.3z M340.2,163.5c0-0.1,0-0.1,0-0.1
						c-0.3-1.1-2.5-0.7-3.3-0.6c-1.2,0.3-3.2,1.3-3,2.8c0.2,1.6,2.4,1.3,3.4,0.9C338.5,166,340.2,164.9,340.2,163.5
						C340.2,163.6,340.2,163.5,340.2,163.5C340.2,163.5,340.2,163.5,340.2,163.5z M330.9,143.1c0-0.1,0-0.2,0-0.3
						c-0.4-1.5-3.3-0.9-4.4-0.7c-1.4,0.3-3.8,1.4-3.6,3.3c0.2,2,3.2,1.7,4.5,1.1C328.7,146,330.7,144.7,330.9,143.1
						C330.9,143.2,330.9,143.1,330.9,143.1z M325.2,158.5c0-0.1,0-0.1,0-0.2c-0.4-1.3-2.9-0.8-3.8-0.6c-1.3,0.3-3.5,1.3-3.2,3
						c0.2,1.8,2.8,1.4,3.9,1C323.3,161.2,325.1,160,325.2,158.5C325.2,158.5,325.2,158.5,325.2,158.5z M312.4,170.1c0,0,0-0.1,0-0.1
						c-0.3-1.1-2.5-0.7-3.3-0.6c-1.2,0.3-3.2,1.3-3,2.8c0.2,1.6,2.4,1.3,3.4,0.9C310.6,172.6,312.3,171.5,312.4,170.1
						C312.4,170.1,312.4,170.1,312.4,170.1C312.4,170.1,312.4,170.1,312.4,170.1z M299.4,133c0-0.1,0-0.2,0-0.3
						c-0.5-1.7-3.7-1-4.9-0.8c-1.6,0.3-4.2,1.5-3.9,3.5c0.3,2.3,3.6,1.9,5.1,1.2C297.1,136.1,299.3,134.7,299.4,133z M299,149.3
						c0-0.1,0-0.2,0-0.2c-0.4-1.5-3.3-0.9-4.3-0.7c-1.4,0.3-3.8,1.4-3.6,3.3c0.2,2,3.2,1.7,4.5,1.1
						C296.8,152.2,298.9,150.9,299,149.3z M297.7,164.5c0-0.1,0-0.1,0-0.2c-0.4-1.3-2.9-0.8-3.8-0.6c-1.3,0.3-3.4,1.3-3.2,3
						c0.2,1.8,2.8,1.4,3.9,0.9C295.7,167.2,297.6,166,297.7,164.5C297.7,164.6,297.7,164.5,297.7,164.5z M284.7,176.1
						c0-0.1,0-0.1,0-0.2c-0.3-1.1-2.5-0.7-3.3-0.6c-1.2,0.3-3.2,1.3-3,2.8c0.2,1.6,2.4,1.3,3.4,0.9
						C282.9,178.6,284.6,177.5,284.7,176.1C284.7,176.1,284.7,176.1,284.7,176.1z M275,124.5c0-0.1,0-0.2,0-0.2
						c-0.6-2-5.2-1-6.6-0.8c-1.8,0.3-5.7,1.4-5.3,4C263.6,132,274.5,128.4,275,124.5z M274.3,155c0-0.1,0-0.2,0-0.3
						c-0.4-1.5-3.3-0.9-4.4-0.7c-1.4,0.3-3.8,1.4-3.6,3.3c0.2,2,3.2,1.7,4.5,1.1C272.1,157.8,274.2,156.6,274.3,155
						C274.3,155,274.3,155,274.3,155z M271,139.9c0-0.1,0-0.1,0-0.1c-0.5-1.6-3.7-1-4.9-0.7c-1.5,0.3-4.2,1.5-3.9,3.5
						c0.3,2.3,3.6,1.9,5.1,1.2C268.7,143.2,271,141.7,271,139.9C271,140,271,140,271,139.9C271,140,271,139.9,271,139.9z
						 M270.1,170.4c0-0.1,0-0.1,0-0.2c-0.4-1.3-2.8-0.8-3.8-0.6c-1.3,0.3-3.5,1.3-3.2,3c0.2,1.8,2.8,1.4,3.9,0.9
						C268.2,173.1,270,171.9,270.1,170.4C270.1,170.4,270.1,170.4,270.1,170.4z M259.1,181.5c0-0.1,0-0.2,0-0.3
						c-0.3-1.1-2.5-0.7-3.3-0.5c-1.2,0.3-3.2,1.3-3,2.8c0.2,1.6,2.4,1.3,3.4,0.9C257.3,183.9,259,182.8,259.1,181.5z M246.8,145.4
						c0-0.1,0-0.1,0-0.2c-0.5-1.6-3.7-1-4.9-0.8c-1.6,0.3-4.2,1.5-3.9,3.5c0.3,2.3,3.6,1.9,5.1,1.2
						C244.5,148.6,246.7,147.2,246.8,145.4C246.8,145.4,246.8,145.4,246.8,145.4z M246.6,130.3c0-0.1,0-0.2,0-0.2
						c-0.6-2-5.2-1-6.6-0.8c-1.8,0.3-5.7,1.4-5.3,4C235.2,137.8,246.2,134.2,246.6,130.3z M246.4,161.7c0-0.1,0-0.2,0-0.3
						c-0.4-1.5-3.3-0.9-4.4-0.7c-1.4,0.3-3.8,1.4-3.6,3.3c0.2,2,3.2,1.7,4.5,1.1C244.2,164.5,246.2,163.3,246.4,161.7
						C246.4,161.7,246.4,161.7,246.4,161.7z M244.3,176c0-0.1,0-0.1,0-0.1c-0.4-1.3-2.9-0.8-3.8-0.6c-1.3,0.3-3.4,1.3-3.2,3
						c0.2,1.8,2.8,1.4,3.9,0.9C242.3,178.7,244.2,177.5,244.3,176C244.3,176.1,244.3,176.1,244.3,176C244.3,176,244.3,176,244.3,176
						z M240.4,185.1c0-0.1,0-0.2,0-0.2c-0.3-1.2-2.5-0.7-3.3-0.6c-1.2,0.3-3.2,1.3-3,2.8c0.2,1.6,2.4,1.3,3.4,0.9
						C238.6,187.6,240.3,186.4,240.4,185.1z M227.2,188.4c0-0.1,0-0.2,0-0.2c-0.3-1.2-2.5-0.7-3.3-0.6c-1.2,0.3-3.2,1.3-3,2.8
						c0.2,1.6,2.4,1.3,3.4,0.9C225.4,190.8,227.1,189.7,227.2,188.4z M222.8,135.7c0-0.1,0-0.2,0-0.2c-0.6-2-5.2-1-6.6-0.8
						c-1.8,0.3-5.7,1.4-5.3,4C211.5,143.2,222.4,139.6,222.8,135.7z M222.2,180.6c0-0.1,0-0.2,0-0.2c-0.4-1.3-2.9-0.8-3.8-0.6
						c-1.3,0.3-3.4,1.3-3.2,3c0.2,1.8,2.8,1.4,3.9,0.9C220.2,183.2,222.1,182,222.2,180.6z M220.9,168.5c0-0.1,0-0.1,0-0.2
						c-0.4-1.5-3.3-0.9-4.4-0.7c-1.4,0.3-3.8,1.4-3.6,3.3c0.3,2,3.2,1.7,4.5,1.1C218.7,171.5,220.8,170.2,220.9,168.5
						C220.9,168.5,220.9,168.5,220.9,168.5z M220.3,151.2c0-0.1,0-0.2,0-0.3c-0.5-1.6-3.7-1-4.9-0.8c-1.6,0.3-4.2,1.5-3.9,3.5
						c0.3,2.3,3.6,1.9,5.1,1.2C217.9,154.3,220.2,152.9,220.3,151.2z M207.3,183.8c0,0,0-0.1,0-0.1c-0.4-1.3-2.8-0.8-3.8-0.6
						c-1.3,0.3-3.4,1.3-3.2,3c0.2,1.8,2.8,1.4,3.9,0.9C205.4,186.5,207.2,185.3,207.3,183.8C207.3,183.8,207.3,183.8,207.3,183.8
						C207.3,183.8,207.3,183.8,207.3,183.8z M198.2,141.7c0-0.1,0-0.2,0-0.2c-0.6-2-5.2-1-6.6-0.8c-1.8,0.3-5.7,1.4-5.3,4
						C186.9,149.2,197.8,145.6,198.2,141.7z M196.2,172.9c0-0.1,0-0.1,0-0.2c-0.4-1.5-3.3-0.9-4.4-0.7c-1.4,0.3-3.8,1.4-3.6,3.3
						c0.3,2,3.2,1.7,4.5,1.1C194.1,175.8,196.1,174.5,196.2,172.9C196.2,172.9,196.2,172.9,196.2,172.9z M193,158.5
						c0-0.1,0-0.1,0-0.2c-0.5-1.6-3.7-1-4.9-0.8c-1.5,0.3-4.2,1.5-3.9,3.5c0.3,2.3,3.6,1.9,5.1,1.2
						C190.6,161.7,192.8,160.3,193,158.5C193,158.5,193,158.5,193,158.5z M177.5,177.5c0-0.1,0-0.1,0-0.2c-0.4-1.5-3.3-0.9-4.4-0.7
						c-1.4,0.3-3.8,1.4-3.6,3.3c0.3,2,3.2,1.7,4.5,1.1C175.3,180.5,177.4,179.2,177.5,177.5C177.5,177.6,177.5,177.5,177.5,177.5z
						 M168.6,148.2c0-0.1,0-0.2,0-0.2c-0.6-2-5.2-1-6.6-0.8c-1.8,0.3-5.7,1.4-5.3,4C157.3,155.7,168.2,152.1,168.6,148.2z
						 M164.9,163.9c0-0.1,0-0.1,0-0.2c-0.5-1.7-3.7-1-4.9-0.8c-1.6,0.3-4.2,1.5-3.9,3.5c0.3,2.3,3.6,1.9,5.1,1.2
						C162.5,167.1,164.8,165.6,164.9,163.9C164.9,163.9,164.9,163.9,164.9,163.9z M144.1,168.9c0-0.1,0-0.1,0-0.2
						c-0.5-1.6-3.7-1-4.9-0.8c-1.6,0.3-4.2,1.5-3.9,3.5c0.3,2.3,3.6,1.9,5.1,1.2C141.7,172.1,144,170.7,144.1,168.9
						C144.1,168.9,144.1,168.9,144.1,168.9z M139,154.3c0-0.1,0-0.2,0-0.2c-0.6-2-5.2-1-6.6-0.8c-1.8,0.3-5.7,1.4-5.3,4
						C127.6,161.8,138.5,158.1,139,154.3z M112.9,161.2c0-0.1,0-0.2,0-0.2c-0.6-2-5.2-1-6.6-0.8c-1.8,0.3-5.7,1.4-5.3,4
						C101.5,168.7,112.4,165.1,112.9,161.2z"/>
					<path fill="#1E1E1E" d="M370.3,157.2c-0.1,0.1-0.2,0.2-0.3,0.3c0.1,0,0.2-0.1,0.3-0.1h0c0.1,0.1,0.2,0.3,0.2,0.3
						c0.1,0.1,0.3,0.2,0.4,0.3c0.4,0.2,0.9,0.2,1.3,0.2c0.4-0.1,0.8-0.2,1.2-0.4c0.1-0.1,0.3-0.1,0.4-0.2c0,0,0,0,0,0
						c0.1,0.4,1.3-0.5,1.4-1.1c-0.1,1.3-1.8,2.5-2.9,2.9c-1,0.4-3.2,0.7-3.4-0.9c-0.2-1.5,1.8-2.6,3-2.8c0.8-0.2,3-0.6,3.3,0.6
						c0,0.1,0,0.1,0,0.2c0,0,0,0,0-0.1c0-0.7-1.4,0.6-1.4,1.1c0,0,0,0.1,0,0.1c0,0,0,0,0,0c-0.2-0.5-1.3-0.5-1.8-0.4
						c-0.4,0-0.7,0.1-1.1,0.2c-0.2,0-0.3,0.1-0.5,0.2C370.3,157.3,370.3,157.2,370.3,157.2z"/>
					<path d="M373.8,157.5C373.8,157.5,373.8,157.5,373.8,157.5C373.8,157.5,373.8,157.5,373.8,157.5c-0.1-0.5,1.3-1.8,1.3-1.1
						c0,0,0,0,0,0.1c0,0,0,0,0,0c-0.1,0.6-1.3,1.5-1.4,1.1c0,0,0,0,0,0C373.7,157.5,373.8,157.5,373.8,157.5
						C373.8,157.6,373.8,157.5,373.8,157.5z"/>
					<path d="M373.8,157.5C373.8,157.5,373.8,157.5,373.8,157.5C373.8,157.5,373.8,157.6,373.8,157.5z"/>
					<path fill="#1E1E1E" d="M373.7,157.5c-0.1,0.1-0.3,0.2-0.4,0.2c-0.4,0.2-0.8,0.4-1.2,0.4c-0.4,0-0.9,0-1.3-0.2
						c-0.1-0.1-0.3-0.1-0.4-0.3c0,0-0.1-0.2-0.2-0.3c0.2,0,0.4-0.1,0.5-0.2c0.4-0.1,0.7-0.1,1.1-0.2
						C372.4,157.1,373.5,157,373.7,157.5z"/>
					<path d="M370.3,157.4L370.3,157.4c-0.1,0-0.2,0.1-0.4,0.1c0.1-0.1,0.2-0.2,0.3-0.3C370.3,157.2,370.3,157.3,370.3,157.4z"/>
					<path d="M358.1,152.4C358.1,152.4,358.1,152.4,358.1,152.4c0.1,0.4,1.3-0.5,1.4-1.1c-0.1,1.4-1.9,2.6-3.1,3.1
						c-1.1,0.5-3.7,0.8-3.9-0.9c-0.2-1.7,1.9-2.7,3.2-3c0.9-0.2,3.4-0.7,3.8,0.6c0,0.1,0,0.1,0,0.2c0,0,0,0,0-0.1
						c0-0.7-1.4,0.6-1.4,1.1C358.1,152.3,358.1,152.4,358.1,152.4L358.1,152.4c-0.2-0.7-1.5-0.5-2.1-0.5c-0.4,0-0.8,0.1-1.3,0.2
						c-0.3,0.1-0.9,0.4-0.9,0.2c-0.1,0.9,1.7,1.1,2.2,1c0.5-0.1,0.9-0.2,1.4-0.5C357.6,152.7,357.9,152.5,358.1,152.4
						C358.1,152.4,358.1,152.4,358.1,152.4z"/>
					<path d="M358.1,152.3c0-0.5,1.4-1.8,1.4-1.1c0,0,0,0,0,0.1c0,0,0,0,0,0c-0.1,0.6-1.3,1.5-1.4,1.1c0,0,0,0,0,0
						C358.1,152.4,358.1,152.4,358.1,152.3C358.1,152.4,358.1,152.4,358.1,152.3C358.1,152.4,358.1,152.3,358.1,152.3z"/>
					<path d="M358.1,152.4C358.1,152.4,358.1,152.4,358.1,152.4C358.1,152.4,358.1,152.4,358.1,152.4
						C358.1,152.4,358.1,152.4,358.1,152.4L358.1,152.4z"/>
					<path fill="#1E1E1E" d="M358.1,152.4c-0.2,0.2-0.4,0.3-0.6,0.4c-0.4,0.2-0.9,0.4-1.4,0.5c-0.5,0.1-2.4-0.1-2.2-1
						c0,0.2,0.6-0.1,0.9-0.2c0.4-0.1,0.8-0.1,1.3-0.2C356.5,151.8,357.8,151.7,358.1,152.4z"/>
					<path fill="#1E1E1E" d="M335.3,164.3c-0.1,0.1-0.2,0.2-0.3,0.3c0.1-0.1,0.2-0.1,0.3-0.1c0.1,0.1,0.2,0.3,0.2,0.3
						c0.1,0.1,0.3,0.2,0.4,0.3c0.4,0.2,0.9,0.2,1.3,0.2c0.4-0.1,0.8-0.2,1.2-0.4c0.1-0.1,0.3-0.1,0.4-0.2c0,0,0,0,0,0.1
						c0.1,0.4,1.3-0.5,1.4-1.1c-0.1,1.3-1.8,2.5-2.9,3c-1,0.4-3.2,0.7-3.4-0.9c-0.2-1.5,1.8-2.6,3-2.8c0.8-0.2,3-0.6,3.3,0.6
						c0,0,0,0.1,0,0.1c0-0.7-1.4,0.6-1.4,1.1c0,0,0,0,0,0.1c0,0,0,0,0,0c-0.2-0.5-1.3-0.4-1.8-0.4c-0.4,0-0.7,0.1-1.1,0.1
						c-0.2,0.1-0.4,0.1-0.6,0.2C335.4,164.4,335.3,164.4,335.3,164.3z"/>
					<path d="M340.2,163.5C340.2,163.5,340.2,163.5,340.2,163.5C340.2,163.5,340.2,163.6,340.2,163.5c-0.1,0.7-1.3,1.6-1.4,1.2
						c0,0,0,0,0-0.1c0,0,0,0,0,0c0,0.1,0,0,0.1-0.1c0,0-0.1,0.1-0.1,0.1c0,0,0,0,0-0.1C338.8,164.1,340.3,162.8,340.2,163.5z"/>
					<path d="M338.8,164.6c0,0,0.1-0.1,0.1-0.1C338.9,164.6,338.8,164.8,338.8,164.6z"/>
					<path fill="#1E1E1E" d="M338.8,164.6c-0.1,0.1-0.3,0.2-0.4,0.2c-0.4,0.2-0.8,0.4-1.2,0.4c-0.4,0-0.9,0-1.3-0.2
						c-0.1-0.1-0.3-0.2-0.4-0.3c0,0-0.1-0.2-0.2-0.3c0.2,0,0.4-0.1,0.6-0.2c0.4-0.1,0.7-0.1,1.1-0.1
						C337.5,164.2,338.6,164.1,338.8,164.6z"/>
					<path d="M335.4,164.5c-0.1,0.1-0.2,0.1-0.3,0.1c0.1-0.1,0.2-0.2,0.3-0.3C335.3,164.4,335.4,164.4,335.4,164.5z"/>
					<path d="M330.9,142.9c0,0.1,0,0.2,0,0.3c0,0,0-0.1,0-0.1c0-0.7-1.4,0.6-1.4,1.1c0,0,0,0.1,0,0.1c-0.3-0.8-1.8-0.7-2.4-0.6
						c-0.4,0-2.5,0.1-2.7,0.6c-0.2,0.4,0.6,0.9,0.9,1.1c0.5,0.2,1.1,0.3,1.7,0.2c0.6-0.1,2.4-0.6,2.5-1.3c0,0,0,0,0,0
						c0.1,0.4,1.2-0.5,1.4-1c-0.1,1.6-2.2,2.8-3.4,3.4c-1.3,0.6-4.3,0.9-4.5-1.1c-0.2-1.9,2.2-2.9,3.6-3.3
						C327.6,142,330.5,141.4,330.9,142.9z"/>
					<path d="M329.5,144.1c0-0.5,1.4-1.8,1.4-1.1c0,0.1,0,0.1,0,0.1c0,0,0,0,0,0c-0.2,0.6-1.3,1.4-1.4,1
						C329.5,144.2,329.5,144.2,329.5,144.1C329.5,144.1,329.5,144.1,329.5,144.1z"/>
					<path fill="#1E1E1E" d="M329.5,144.2c-0.2,0.7-2,1.2-2.5,1.3c-0.6,0.1-1.2,0-1.7-0.2c-0.3-0.1-1.1-0.6-0.9-1.1
						c0.2-0.4,2.3-0.6,2.7-0.6C327.7,143.5,329.2,143.4,329.5,144.2z"/>
					<path d="M319.6,159.5c-0.1,0.9,1.7,1.1,2.2,1c0.5,0,0.9-0.2,1.4-0.5c0.2-0.1,0.5-0.2,0.6-0.4v0c0,0,0,0,0,0l0,0
						c0.1,0.4,1.3-0.5,1.4-1.1c-0.1,1.4-1.9,2.7-3.1,3.2c-1.1,0.5-3.7,0.8-3.9-1c-0.2-1.7,1.9-2.7,3.2-3c0.9-0.2,3.4-0.7,3.8,0.6
						c0,0,0,0.1,0,0.2c0,0,0,0,0-0.1c0-0.7-1.4,0.6-1.4,1.1c0,0,0,0.1,0,0.1c0,0,0,0,0,0c-0.2-0.7-1.5-0.5-2.1-0.5
						c-0.4,0-0.8,0.1-1.3,0.2C320.2,159.4,319.6,159.7,319.6,159.5z"/>
					<path d="M323.8,159.5c0-0.5,1.4-1.8,1.4-1.1c0,0,0,0,0,0.1c0,0,0,0,0,0c-0.1,0.6-1.3,1.5-1.4,1.1l0,0c0,0,0,0,0,0
						C323.8,159.6,323.8,159.6,323.8,159.5C323.8,159.6,323.8,159.6,323.8,159.5C323.8,159.6,323.8,159.6,323.8,159.5z"/>
					<path d="M323.8,159.6C323.8,159.6,323.8,159.6,323.8,159.6C323.8,159.6,323.8,159.6,323.8,159.6L323.8,159.6
						C323.8,159.6,323.8,159.6,323.8,159.6z"/>
					<path fill="#1E1E1E" d="M323.8,159.6c-0.2,0.2-0.4,0.3-0.6,0.4c-0.4,0.2-0.9,0.4-1.4,0.5c-0.5,0.1-2.4-0.1-2.2-1
						c0,0.2,0.6-0.1,0.9-0.2c0.4-0.1,0.8-0.2,1.3-0.2C322.3,159.1,323.6,159,323.8,159.6z"/>
					<path d="M307.4,170.9c-0.1,0.1-0.2,0.2-0.3,0.3c0.1,0,0.2-0.1,0.3-0.1h0c0.1,0.1,0.2,0.3,0.2,0.3c0.1,0.1,0.3,0.2,0.4,0.3
						c0.4,0.2,0.9,0.2,1.3,0.2s0.8-0.2,1.2-0.4c0.1-0.1,0.3-0.1,0.4-0.2c0,0,0,0,0,0.1c0.1,0.4,1.3-0.5,1.4-1.1
						c-0.1,1.3-1.8,2.5-2.9,3c-1,0.5-3.2,0.7-3.4-0.9c-0.2-1.5,1.8-2.6,3-2.8c0.8-0.2,3-0.6,3.3,0.6c0,0,0,0.1,0,0.1
						c0-0.7-1.4,0.6-1.4,1.1c0,0,0,0,0,0.1c0,0,0,0,0,0c-0.2-0.5-1.3-0.4-1.8-0.4c-0.4,0-0.7,0.1-1.1,0.2c-0.2,0-0.4,0.1-0.5,0.2
						C307.5,171,307.4,170.9,307.4,170.9z"/>
					<path d="M312.4,170.1C312.4,170.1,312.4,170.1,312.4,170.1C312.4,170.1,312.4,170.1,312.4,170.1c-0.1,0.7-1.3,1.6-1.4,1.2
						c0,0,0,0,0-0.1c0,0,0,0,0,0c0,0.1,0,0,0.1-0.1c0,0-0.1,0.1-0.1,0.1c0,0,0,0,0-0.1C311,170.6,312.4,169.4,312.4,170.1z"/>
					<path d="M311,171.2c0,0,0.1-0.1,0.1-0.1C311,171.2,311,171.3,311,171.2z"/>
					<path fill="#1E1E1E" d="M310.9,171.2c-0.1,0.1-0.3,0.2-0.4,0.2c-0.4,0.2-0.8,0.4-1.2,0.4s-0.9,0-1.3-0.2
						c-0.1-0.1-0.3-0.1-0.4-0.3c0,0-0.1-0.2-0.2-0.3c0.2-0.1,0.4-0.1,0.5-0.2c0.4-0.1,0.7-0.1,1.1-0.2
						C309.6,170.8,310.7,170.7,310.9,171.2z"/>
					<path d="M307.5,171.1L307.5,171.1c-0.1,0-0.2,0.1-0.4,0.1c0.1-0.1,0.2-0.2,0.3-0.3C307.4,170.9,307.5,171,307.5,171.1z"/>
					<path d="M299.5,132.7c0,0.1,0,0.2,0,0.3c0,0,0-0.1,0-0.1c0-0.7-1.4,0.6-1.4,1.1c0,0,0,0.1,0,0.1c-0.3-0.9-2-0.8-2.8-0.7
						c-0.6,0-3,0.2-3.2,0.9c-0.2,0.5,0.7,1.1,1,1.2c0.6,0.3,1.3,0.3,2,0.2c0.7-0.1,2.9-0.7,3-1.6c0,0,0,0,0,0
						c0.1,0.4,1.2-0.5,1.4-1.1c-0.1,1.7-2.4,3.1-3.8,3.7c-1.5,0.6-4.8,1.1-5.1-1.2c-0.2-2,2.4-3.2,3.9-3.5
						C295.7,131.7,299,131.1,299.5,132.7z"/>
					<path d="M298,133.9c0-0.5,1.4-1.8,1.4-1.1c0,0,0,0.1,0,0.1c-0.2,0.6-1.3,1.5-1.4,1.1C298,134.1,298,134,298,133.9
						C298,134,298,134,298,133.9z"/>
					<path d="M299,149c0,0.1,0,0.1,0,0.2c0,0,0-0.1,0-0.1c0-0.7-1.4,0.6-1.4,1.1c0,0,0,0.1,0,0.1c-0.3-0.8-1.8-0.7-2.4-0.6
						c-0.4,0-2.5,0.2-2.7,0.6c-0.2,0.4,0.6,0.9,0.9,1.1c0.5,0.2,1.1,0.3,1.7,0.2c0.6-0.1,2.3-0.6,2.5-1.3c0,0,0,0,0,0
						c0.1,0.4,1.3-0.5,1.4-1.1c-0.1,1.6-2.2,2.9-3.4,3.5c-1.3,0.6-4.3,1-4.5-1.1c-0.2-1.8,2.2-2.9,3.6-3.3
						C295.7,148.1,298.6,147.6,299,149z"/>
					<path d="M297.6,150.2c0-0.5,1.4-1.8,1.4-1.1c0,0,0,0.1,0,0.1c-0.1,0.6-1.3,1.5-1.4,1.1c0,0,0,0,0,0
						C297.6,150.3,297.6,150.3,297.6,150.2z"/>
					<path d="M292.1,165.5c-0.1,0.9,1.7,1.1,2.2,1c0.5-0.1,0.9-0.2,1.4-0.5c0.2-0.1,0.5-0.2,0.6-0.4c0,0,0,0,0,0c0,0,0,0,0,0
						c0.1,0.4,1.3-0.5,1.4-1.1c-0.1,1.4-2,2.6-3.1,3.1c-1.1,0.5-3.7,0.8-3.9-0.9c-0.2-1.7,1.9-2.7,3.2-3c0.9-0.2,3.4-0.7,3.8,0.6
						c0,0.1,0,0.1,0,0.2c0,0,0,0,0-0.1c0-0.7-1.4,0.6-1.4,1.1c0,0,0,0.1,0,0.1v0c-0.2-0.7-1.5-0.5-2.1-0.5c-0.4,0-0.9,0.1-1.3,0.2
						C292.7,165.4,292.1,165.7,292.1,165.5z"/>
					<path d="M296.3,165.6C296.3,165.6,296.3,165.6,296.3,165.6C296.3,165.6,296.3,165.6,296.3,165.6c0-0.6,1.4-1.9,1.4-1.2
						c0,0,0,0,0,0.1c0,0,0,0,0,0C297.5,165.2,296.4,166.1,296.3,165.6C296.3,165.7,296.3,165.7,296.3,165.6
						C296.3,165.7,296.3,165.7,296.3,165.6C296.3,165.7,296.3,165.6,296.3,165.6z"/>
					<path fill="#1E1E1E" d="M298,134c-0.2,0.9-2.3,1.5-3,1.6c-0.6,0.1-1.4,0-2-0.2c-0.4-0.2-1.2-0.7-1-1.2c0.3-0.7,2.6-0.8,3.2-0.9
						C296,133.3,297.7,133.1,298,134z"/>
					<path fill="#1E1E1E" d="M297.6,150.3c-0.2,0.7-1.9,1.2-2.5,1.3c-0.6,0.1-1.2,0-1.7-0.2c-0.3-0.1-1.1-0.7-0.9-1.1
						c0.2-0.4,2.3-0.6,2.7-0.6C295.8,149.7,297.3,149.6,297.6,150.3z"/>
					<path d="M296.3,165.6C296.3,165.6,296.3,165.7,296.3,165.6L296.3,165.6C296.3,165.6,296.3,165.6,296.3,165.6z"/>
					<path fill="#1E1E1E" d="M296.3,165.7c-0.2,0.2-0.4,0.3-0.6,0.4c-0.4,0.2-0.9,0.4-1.4,0.5c-0.5,0.1-2.4-0.1-2.2-1
						c0,0.2,0.6-0.1,0.9-0.2c0.4-0.1,0.8-0.1,1.3-0.2C294.7,165.1,296,165,296.3,165.7z"/>
					<path d="M279.8,176.9c-0.1,0.1-0.2,0.2-0.3,0.3c0.1,0,0.2-0.1,0.3-0.1c0.1,0.1,0.2,0.3,0.2,0.3c0.1,0.1,0.3,0.2,0.4,0.3
						c0.4,0.2,0.9,0.2,1.3,0.2c0.4-0.1,0.8-0.2,1.2-0.4c0.1-0.1,0.3-0.1,0.4-0.2c0,0,0,0,0,0.1c0.1,0.4,1.3-0.5,1.4-1.1
						c-0.1,1.3-1.8,2.5-2.9,3c-1,0.5-3.2,0.7-3.4-0.9c-0.2-1.5,1.8-2.6,3-2.8c0.8-0.2,3-0.6,3.3,0.6c0,0.1,0,0.1,0,0.2
						c0,0,0,0,0-0.1c0-0.7-1.4,0.6-1.4,1.1c0,0,0,0,0,0.1c0,0,0,0,0,0c-0.2-0.5-1.3-0.4-1.8-0.4c-0.4,0-0.7,0.1-1.1,0.2
						c-0.2,0-0.4,0.1-0.5,0.2C279.8,177,279.8,176.9,279.8,176.9z"/>
					<path d="M283.3,177.1c0-0.5,1.4-1.8,1.4-1.1c0,0,0,0,0,0.1c0,0,0,0,0,0c-0.1,0.6-1.3,1.5-1.4,1.1
						C283.3,177.3,283.2,177.2,283.3,177.1C283.2,177.2,283.3,177.2,283.3,177.1c0,0.2,0,0.1,0.1,0
						C283.3,177.1,283.3,177.2,283.3,177.1C283.3,177.2,283.3,177.2,283.3,177.1z"/>
					<path d="M283.3,177.2c0,0,0.1-0.1,0.1-0.1C283.3,177.2,283.3,177.3,283.3,177.2z"/>
					<path fill="#1E1E1E" d="M283.2,177.2c-0.1,0.1-0.3,0.2-0.4,0.2c-0.4,0.2-0.8,0.4-1.2,0.4c-0.4,0.1-0.9,0-1.3-0.2
						c-0.1-0.1-0.3-0.1-0.4-0.3c0,0-0.1-0.2-0.2-0.3c0.2,0,0.4-0.1,0.5-0.2c0.4-0.1,0.7-0.1,1.1-0.2
						C281.9,176.8,283,176.7,283.2,177.2z"/>
					<path d="M279.8,177.1c-0.1,0.1-0.2,0.1-0.3,0.1c0.1-0.1,0.2-0.2,0.3-0.3C279.8,176.9,279.8,177,279.8,177.1z"/>
					<path d="M275,124.3c0,0.1,0,0.1,0,0.2c0,0,0-0.1,0-0.1c0-0.7-1.4,0.5-1.4,1.1c0,0,0,0.1,0,0.1c-0.7-1.8-7.2-0.7-8.3,0.1
						c-2.3,1.5,2.2,2.2,3.1,2.2c1-0.1,4.9-0.9,5.2-2.3c0,0,0,0,0,0c0.1,0.4,1.2-0.5,1.4-1.1c-0.4,3.8-11.3,7.5-11.9,3
						c-0.3-2.6,3.6-3.6,5.3-4C269.8,123.3,274.3,122.3,275,124.3z"/>
					<path d="M273.6,125.5c0-0.5,1.4-1.8,1.4-1.1c0,0,0,0.1,0,0.1c-0.2,0.6-1.3,1.5-1.4,1.1C273.6,125.6,273.5,125.6,273.6,125.5
						C273.5,125.6,273.6,125.5,273.6,125.5z"/>
					<path d="M274.3,154.7c0,0.1,0,0.2,0,0.3c0,0,0-0.1,0-0.1c0-0.7-1.4,0.6-1.4,1.1c0,0,0,0.1,0,0.1c-0.3-0.8-1.8-0.6-2.4-0.6
						c-0.4,0-2.5,0.1-2.7,0.6c-0.2,0.4,0.6,1,0.9,1.1c0.5,0.2,1.1,0.3,1.7,0.2c0.6-0.1,2.4-0.6,2.5-1.3c0,0,0,0,0,0
						c0.1,0.4,1.2-0.5,1.4-1c-0.1,1.6-2.2,2.8-3.4,3.4c-1.3,0.6-4.3,0.9-4.5-1.1c-0.2-1.9,2.2-2.9,3.6-3.3
						C271,153.8,273.9,153.2,274.3,154.7z"/>
					<path d="M272.9,155.9c0-0.5,1.4-1.8,1.4-1.1c0,0,0,0.1,0,0.1c0,0,0,0,0,0c-0.2,0.6-1.3,1.4-1.4,1
						C272.9,156,272.9,156,272.9,155.9C272.9,156,272.9,155.9,272.9,155.9z"/>
					<path fill="#1E1E1E" d="M272.9,156c-0.2,0.7-2,1.2-2.5,1.3c-0.6,0.1-1.2,0-1.7-0.2c-0.3-0.1-1.1-0.7-0.9-1.1
						c0.2-0.4,2.3-0.6,2.7-0.6C271.1,155.4,272.6,155.2,272.9,156z"/>
					<path fill="#1E1E1E" d="M273.5,125.6c-0.3,1.3-4.2,2.2-5.2,2.3c-0.9,0.1-5.4-0.6-3.1-2.2C266.4,125,272.9,123.8,273.5,125.6z"
						/>
					<path d="M271,139.8c0,0,0,0.1,0,0.1c0-0.7-1.4,0.6-1.4,1.1c0,0,0,0.1,0,0.1c-0.3-0.9-2-0.8-2.8-0.7c-0.6,0-3,0.2-3.2,0.9
						c-0.2,0.5,0.7,1.1,1,1.2c0.6,0.3,1.3,0.3,2,0.2c0.7-0.1,2.9-0.7,3-1.6c0,0,0,0,0,0c0.1,0.4,1.3-0.5,1.4-1.1
						c-0.1,1.8-2.4,3.2-3.8,3.8c-1.5,0.6-4.8,1.1-5.1-1.2c-0.2-2,2.4-3.2,3.9-3.5C267.3,138.8,270.6,138.1,271,139.8z"/>
					<path d="M271,139.9C271,139.9,271,140,271,139.9C271,140,271,140,271,139.9c-0.1,0.6-1.3,1.6-1.4,1.2c0,0,0,0,0,0
						c0,0,0-0.1,0-0.1C269.6,140.5,271.1,139.2,271,139.9z"/>
					<path d="M270.8,68.2c0.4,15.7,0.1,31.4,0.1,47.1c0,0-0.1,0-0.1-0.1c-0.1,0-0.2,0-0.3,0.1c-0.3,0.1-0.7,0.1-1,0.2
						c0-15.3,0.3-30.6-0.1-46c-0.4-16.5-1.1-32.9-1.1-49.3c0.1,0,0.2,0,0.3,0c0.1,0,0.2-0.1,0.3-0.1c0.3,0,0.6,0.1,0.9,0.2
						C269.8,36.2,270.4,52.2,270.8,68.2z"/>
					<path d="M270.9,115.3C270.9,115.3,270.9,115.4,270.9,115.3c0,0.2-0.1,0.4-0.2,0.6c0.2-0.3,0.2-0.7-0.1-0.6c0,0-0.1,0-0.1,0
						c0.1-0.1,0.2-0.1,0.3-0.1C270.8,115.3,270.8,115.3,270.9,115.3z"/>
					<path d="M270.6,115.3c0.3-0.1,0.3,0.2,0.1,0.6c0,0,0,0,0,0c-0.3,0.4-1,0.9-1.1,0.8c-0.2-0.3,0.5-1.2,0.9-1.4
						C270.5,115.3,270.6,115.3,270.6,115.3z"/>
					<path d="M269.5,115.5c0.3-0.1,0.7-0.1,1-0.2c-0.5,0.2-1.1,1.1-0.9,1.4c0,0,0,0,0-0.1C269.5,116.3,269.5,115.9,269.5,115.5z"/>
					<path d="M270.4,2.8c0.1,0.2,0.1,0.5,0,0.7c0,0,0,0,0,0c0,0,0,0,0,0c0,0,0,0,0,0c0-0.1,0-0.3,0-0.4c0,0,0,0,0,0
						c0-0.1,0-0.2,0-0.1C270.4,2.9,270.4,2.9,270.4,2.8C270.4,2.8,270.4,2.8,270.4,2.8z"/>
					<path d="M270.4,3.6C270.4,3.6,270.4,3.6,270.4,3.6c0,0.1,0,0.2,0,0.2c0,0.2-0.3,0.7-0.7,1c-0.1,0-0.2-0.1-0.3-0.1
						c0,0,0.1-0.1,0.1-0.1c0.2-0.2,0.6-0.5,0.7-0.9c0,0,0,0,0.1-0.1C270.4,3.6,270.4,3.6,270.4,3.6C270.4,3.6,270.4,3.6,270.4,3.6z"
						/>
					<path d="M270.4,0.4c0,0.1,0,0.2,0,0.2c0,0-0.1,0-0.1-0.1c0.1-0.2,0-0.3-0.1-0.3C270.3,0.2,270.4,0.2,270.4,0.4z"/>
					<path d="M270.4,3C270.4,2.9,270.4,3,270.4,3C270.4,3.1,270.4,3,270.4,3C270.4,3,270.4,3,270.4,3L270.4,3z"/>
					<path d="M270.4,0.6c0,0.6,0,1.2,0,1.7c-0.3-0.2-0.7-0.4-1-0.6c0.3-0.2,0.8-0.8,0.9-1.2C270.3,0.6,270.4,0.6,270.4,0.6z"/>
					<path d="M270.4,3.7C270.4,3.7,270.4,3.7,270.4,3.7c0,0,0-0.1,0-0.1h0C270.4,3.6,270.4,3.6,270.4,3.7z"/>
					<path d="M270.4,3L270.4,3C270.4,3,270.4,3,270.4,3c0,0,0,0.1,0,0.1c-0.1,0-0.1,0.1-0.2,0.1h0c0,0,0,0-0.1,0
						c-0.3,0.1-0.5,0.1-0.8,0.2c0.3-0.4,0.9-1,1.1-0.7C270.4,2.9,270.4,2.9,270.4,3z"/>
					<path d="M270.4,2.3c0,0.1,0,0.3,0,0.5c-0.2-0.4-0.8,0.2-1.1,0.7c-0.1,0-0.2,0-0.3,0.1c0-0.5,0-1.1,0-1.7c0.1,0,0.2-0.1,0.3-0.1
						c0,0,0.1,0,0.1-0.1c0,0,0,0,0,0C269.7,1.9,270.1,2.1,270.4,2.3z"/>
					<path d="M270.4,3.1c0,0.1,0,0.3,0,0.4C270.4,3.4,270.4,3.2,270.4,3.1z"/>
					<path d="M270.4,3.1C270.4,3.1,270.4,3.1,270.4,3.1c0,0.1,0,0.3,0,0.4c0,0,0,0,0,0l0,0c0,0,0,0-0.1,0c0-0.2,0-0.3-0.1-0.3
						C270.2,3.2,270.3,3.2,270.4,3.1C270.4,3.1,270.4,3,270.4,3.1C270.4,3,270.4,3.1,270.4,3.1z"/>
					<path d="M270.4,3.5C270.4,3.5,270.4,3.5,270.4,3.5L270.4,3.5L270.4,3.5L270.4,3.5z"/>
					<path d="M270.4,3.5L270.4,3.5c0,0.1,0,0.1,0,0.2c-0.1,0.1-0.1,0.1-0.2,0.2C270.2,3.8,270.3,3.6,270.4,3.5
						C270.3,3.5,270.3,3.5,270.4,3.5z"/>
					<path d="M270.1,3.9c0.1,0,0.1-0.1,0.2-0.2c-0.1,0.3-0.5,0.7-0.7,0.9c0,0-0.1,0-0.1,0.1C269.7,4.5,269.9,4.2,270.1,3.9z"/>
					<path d="M270.2,0.3c0.2,0,0.2,0.1,0.1,0.3c0,0-0.1-0.1-0.1-0.1c-0.4-0.2-1.3,1-1,1.1c0.1,0,0.1,0.1,0.2,0.1
						c0,0-0.1,0.1-0.1,0.1c-0.1,0-0.2,0-0.3,0.1c0-0.1,0-0.1,0-0.2c0-0.4,0.3-0.8,0.6-1.1C269.6,0.6,269.9,0.4,270.2,0.3L270.2,0.3z
						"/>
					<path d="M270.2,3.3c0.1,0,0.2,0.1,0.1,0.3c-0.1,0-0.1,0-0.2-0.1c-0.1,0-0.1,0-0.2,0C270,3.4,270.1,3.4,270.2,3.3L270.2,3.3z"/>
					<path d="M270.2,0.5c0,0,0.1,0,0.1,0.1c-0.1,0.4-0.6,1-0.9,1.2c0,0,0,0,0,0c-0.1,0-0.1-0.1-0.2-0.1
						C268.9,1.4,269.8,0.3,270.2,0.5z"/>
					<path d="M270.1,3.5c0.1,0,0.1,0,0.2,0.1c0,0.1-0.1,0.3-0.2,0.4c-0.3,0.2-0.6,0.5-0.9,0.7h0c-0.3-0.1,0-0.6,0.4-0.9
						c0,0,0.1,0,0.1-0.1c0,0,0.1-0.1,0.1-0.1c0,0,0,0,0,0C269.9,3.5,270,3.4,270.1,3.5z"/>
					<path d="M270.2,3.3c-0.1,0.1-0.2,0.2-0.3,0.2c0,0,0,0,0,0c0,0-0.1,0-0.1,0.1c0,0-0.1,0.1-0.1,0.1c-0.2,0.2-0.4,0.3-0.6,0.5
						c0,0.1,0,0.3,0,0.4c0,0.2,0,0.1,0,0.2c0,0,0-0.1,0-0.2c0,0,0,0,0-0.1c0-0.1,0-0.1,0-0.2c0-0.1,0-0.1,0-0.2c0,0,0,0,0,0v0
						c0-0.1,0-0.2,0.1-0.3c0-0.1,0.1-0.2,0.3-0.4C269.6,3.4,269.8,3.3,270.2,3.3C270.1,3.3,270.1,3.3,270.2,3.3z"/>
					<path d="M270.1,0.3C270.1,0.3,270.1,0.3,270.1,0.3c-0.2,0.1-0.5,0.3-0.5,0.3c-0.3,0.3-0.6,0.7-0.6,1.1c0,0.1,0,0.1,0,0.2
						c-11.3,3.3-22.8,5.7-34.2,8.4C187.4,21.9,140,33.5,92.6,45c-30,7.3-59.9,15.6-90.2,21.8c0-0.4,0-0.8,0-1.2
						c0-0.1-0.1-0.1-0.1-0.1c11.6-2.4,23-5.5,34.4-8.3c47.4-11.5,94.8-23,142.3-34.6c21.1-5.1,42.2-10.3,63.3-15.4
						C251.5,4.9,261,2.9,270.1,0.3z"/>
					<path d="M264.5,171.4c-0.1,0.9,1.7,1.1,2.2,1c0.5-0.1,0.9-0.2,1.4-0.5c0.2-0.1,0.5-0.2,0.6-0.4v0c0,0,0,0,0,0l0,0
						c0.1,0.4,1.3-0.5,1.4-1.1c-0.1,1.4-2,2.6-3.1,3.1c-1.1,0.5-3.7,0.8-3.9-0.9c-0.2-1.7,1.9-2.7,3.2-3c0.9-0.2,3.4-0.7,3.8,0.6
						c0,0.1,0,0.1,0,0.2c0,0,0,0,0-0.1c0-0.7-1.4,0.6-1.4,1.1c0,0,0,0.1,0,0.1c0,0,0,0,0,0c-0.2-0.7-1.5-0.5-2.1-0.5
						c-0.4,0-0.9,0.1-1.3,0.2C265.1,171.3,264.5,171.6,264.5,171.4z"/>
					<path d="M268.7,171.4c0-0.5,1.4-1.8,1.4-1.1c0,0,0,0,0,0.1c0,0,0,0,0,0c-0.2,0.6-1.3,1.5-1.4,1.1l0,0c0,0,0,0,0,0
						C268.7,171.5,268.7,171.5,268.7,171.4c0,0.1,0,0.1,0,0.1C268.7,171.5,268.7,171.5,268.7,171.4z"/>
					<path d="M269.3,4.6c0.3-0.2,0.6-0.5,0.9-0.7c-0.2,0.3-0.4,0.6-0.7,0.8h0C269.4,4.7,269.3,4.7,269.3,4.6L269.3,4.6z"/>
					<path d="M269.8,3.5c0,0-0.1,0.1-0.1,0.1C269.8,3.6,269.8,3.5,269.8,3.5z"/>
					<path d="M270.7,115.9c-0.2,0.4-0.6,0.9-0.9,0.9c0,0-0.1,0-0.1,0h0c-0.1,0-0.1,0-0.1-0.1C269.7,116.8,270.3,116.4,270.7,115.9z"
						/>
					<path d="M269.7,18.8c0,0.5,0,0.9,0,1.4c-0.3-0.1-0.6-0.1-0.9-0.2C269.2,19.8,269.6,19.1,269.7,18.8
						C269.7,18.8,269.7,18.8,269.7,18.8z"/>
					<path d="M269.5,4.7c0.1,0,0.2,0.1,0.3,0.1c-0.3,0.3-0.6,0.5-0.7,0.2c0,0,0-0.1,0-0.1c0.1,0,0.2,0,0.3-0.1l0,0
						C269.3,4.8,269.4,4.8,269.5,4.7L269.5,4.7z"/>
					<path d="M269.7,18.7c0,0,0,0.1,0,0.1c0,0,0,0-0.1,0C269.7,18.7,269.7,18.7,269.7,18.7C269.7,18.7,269.7,18.7,269.7,18.7z"/>
					<path d="M269.6,18.7c0,0,0,0.1,0,0.2c-0.1,0-0.1,0-0.2,0c0,0-0.1,0-0.1,0C269.5,18.7,269.6,18.7,269.6,18.7z"/>
					<path d="M269.4,18.8c0.1,0,0.2,0,0.2,0c0,0.3-0.5,0.9-0.8,1.2c-0.1,0-0.2,0-0.2,0c-0.1,0-0.1-0.3,0.1-0.5l0.4-0.1
						c-0.1,0-0.2,0-0.3,0.1c0-0.1,0.1-0.2,0.1-0.2c0,0,0,0,0,0c0.2-0.1,0.3-0.3,0.4-0.4C269.4,18.8,269.4,18.8,269.4,18.8z"/>
					<path d="M269,4.2c0.2-0.2,0.4-0.3,0.6-0.5c-0.3,0.3-0.6,0.9-0.4,0.9h0v0c-0.1,0.1-0.1,0.1-0.2,0.2c0,0,0,0-0.1-0.1
						c0,0,0,0,0-0.2C269,4.4,269,4.3,269,4.2z"/>
					<path d="M269.5,116.8c0,0,0,0.1,0.1,0.1c-9.8,1.8-19.4,4.3-29.1,6.5c-36.3,8.2-72.5,16.6-108.8,24.9
						c-23.2,5.4-46.7,10.1-69.7,16.3c-0.8-0.2-1.7-0.4-2.5-0.6c0,0,0,0,0,0c9.7-2.7,19.6-4.7,29.4-7c36.3-8.5,72.6-16.9,108.9-25.2
						c23.9-5.5,47.7-11.7,71.8-16.2C269.5,115.9,269.5,116.3,269.5,116.8C269.5,116.7,269.5,116.8,269.5,116.8z"/>
					<path d="M269.4,18.6c0.1,0,0.2,0,0.2,0.1c-0.1,0-0.2,0.1-0.3,0.1c-0.1,0-0.3,0.2-0.4,0.4c0,0,0,0,0,0c-0.1,0.1-0.2,0.2-0.2,0.3
						C251.1,22.7,90.1,57.7,38.4,68.9c-0.9,0.2-1.7,0.4-2.5,0.5c-0.9,0.2-1.8,0.4-2.6,0.6l-2.2,0.5c-0.4,0.1-0.7,0.2-1,0.2l-1.9,0.4
						c-0.3,0.1-0.6,0.1-0.8,0.2l-1.5,0.3l-1.2,0.3c0,0-0.1,0-0.1,0c-0.1-0.2-0.2-0.4-0.3-0.6c11.7-2.4,23.3-5,35-7.5
						c41.5-9,83-18,124.5-27C212.2,30.6,240.7,23.7,269.4,18.6z"/>
					<path fill="#B3B3B3" d="M269.4,69.5c0.4,15.3,0.1,30.6,0.1,46c-24.1,4.6-47.9,10.8-71.8,16.2c-36.3,8.3-72.6,16.7-108.9,25.2
						c-9.8,2.3-19.7,4.4-29.4,7c-1.8-3.1-2.8-6.8-4-10.1c-2.7-7-5.3-14.1-7.9-21.1c-6-16.1-11.9-32.2-18.1-48.2
						c-0.6-1.6-1.2-3.2-1.8-4.8c-0.9-2.4-1.8-4.9-2.9-7.2c28-5.9,56-12.1,84-18.2c41.5-9,83-18,124.5-26.8
						c11.6-2.5,23.2-5.2,34.9-7.3C268.3,36.7,269,53.1,269.4,69.5z"/>
					<path d="M269.5,4.7c-0.1,0.1-0.1,0.1-0.2,0.1s-0.1,0-0.2,0c0.1-0.1,0.1-0.1,0.2-0.2C269.3,4.7,269.4,4.7,269.5,4.7z"/>
					<path d="M269,3.6c0.1,0,0.2-0.1,0.3-0.1c-0.1,0.2-0.2,0.3-0.3,0.4c0,0.1-0.1,0.2-0.1,0.3C269,3.9,269,3.7,269,3.6z"/>
					<path d="M269.3,4.8L269.3,4.8c-0.1,0-0.2,0.1-0.3,0.1c0-0.1,0-0.2,0-0.3c0,0.1,0,0.1,0,0.2c0,0,0,0,0,0.1c0,0,0.1,0,0.1-0.1
						C269.1,4.8,269.2,4.8,269.3,4.8z"/>
					<path d="M269.1,4.8C269,4.8,269,4.8,269.1,4.8C269,4.8,269,4.8,269.1,4.8C269,4.8,269,4.8,269.1,4.8z"/>
					<path d="M269,19.4l-0.4,0.1c0,0,0,0,0,0C268.8,19.4,268.9,19.4,269,19.4z"/>
					<path fill="#B3B3B3" d="M269,1.9c0,0.5,0,1.1,0,1.7c-30,7.4-59.9,14.7-89.9,22.1C132.3,37.1,85.5,48.6,38.7,60
						c-7.8,1.9-15.6,3.8-23.5,5.7c-4.2,1-8.5,2.3-12.8,2.6c0-0.5,0-0.9,0-1.4C32.6,60.6,62.6,52.3,92.6,45
						c47.4-11.5,94.8-23.1,142.2-34.7C246.2,7.5,257.7,5.1,269,1.9z"/>
					<path d="M269,4.1L269,4.1C269,4.1,269,4.1,269,4.1c0,0.2,0,0.3,0,0.4c0,0,0,0,0,0.1c0,0.1,0,0.2,0,0.3
						c-11.4,2.8-22.9,5.6-34.3,8.4c-47.4,11.6-94.8,23.2-142.2,34.8c-20.7,5-41.3,10.1-62,15.1c-8.3,2-17.1,5.2-25.8,6.2
						c-0.7-0.3-1.5-0.6-2.2-0.9c0-0.1,0-0.3,0-0.4c4.3-0.3,8.6-1.5,12.8-2.6c7.8-1.9,15.6-3.8,23.5-5.7
						c46.8-11.4,93.6-22.9,140.4-34.3C209.1,18.3,239,11,269,3.6C269,3.7,269,3.9,269,4.1z"/>
					<path d="M269,4.2c0,0.1,0,0.1,0,0.2c0,0.1,0,0.1,0,0.2C269,4.4,269,4.3,269,4.2z"/>
					<path d="M269.3,18.8c-0.1,0.1-0.3,0.2-0.4,0.4C269,19,269.2,18.8,269.3,18.8z"/>
					<path d="M268.6,20c0.1,0,0.2,0,0.2,0c-0.1,0.1-0.2,0.1-0.3,0.1c-0.1,0-0.2,0-0.3,0c0,0,0-0.1,0-0.1c0-0.2,0.1-0.4,0.3-0.6
						l0.1,0C268.5,19.7,268.4,20,268.6,20z"/>
					<path d="M268.7,171.5C268.7,171.5,268.7,171.5,268.7,171.5C268.7,171.5,268.7,171.5,268.7,171.5L268.7,171.5
						C268.7,171.5,268.7,171.5,268.7,171.5z"/>
					<path d="M268.8,19.2c-0.1,0.1-0.1,0.1-0.1,0.2c0,0-0.1,0-0.1,0C268.7,19.4,268.7,19.3,268.8,19.2z"/>
					<path d="M268.7,19.4C268.7,19.4,268.7,19.4,268.7,19.4L268.7,19.4C268.6,19.5,268.6,19.5,268.7,19.4
						C268.6,19.4,268.6,19.4,268.7,19.4z"/>
					<path fill="#1E1E1E" d="M269.6,141.1c-0.2,0.9-2.3,1.5-3,1.6c-0.6,0.1-1.4,0-2-0.2c-0.3-0.2-1.2-0.7-1-1.2
						c0.3-0.7,2.6-0.8,3.2-0.9C267.6,140.3,269.3,140.2,269.6,141.1z"/>
					<path d="M268.6,19.5C268.6,19.5,268.6,19.5,268.6,19.5L38.4,68.9C90.1,57.7,251.1,22.7,268.6,19.5z"/>
					<path d="M38.4,68.9l230.2-49.4c-0.2,0.2-0.3,0.4-0.3,0.6c0,0.1,0,0.1,0,0.1c-11.7,2.1-23.3,4.8-34.9,7.3
						c-41.5,8.8-83,17.9-124.5,26.8c-28,6.1-56,12.3-84,18.2c-0.1-0.2-0.2-0.4-0.3-0.6c0,0,0.1,0,0.1,0c0.4-0.1,0.8-0.2,1.2-0.3
						c0.5-0.1,1-0.2,1.5-0.3c0.3-0.1,0.5-0.1,0.8-0.2c0.6-0.1,1.2-0.3,1.9-0.4c0.3-0.1,0.7-0.1,1-0.2c0.7-0.2,1.4-0.3,2.2-0.5
						c0.8-0.2,1.7-0.4,2.6-0.6L38.4,68.9z"/>
					<path fill="#1E1E1E" d="M268.7,171.5c-0.2,0.2-0.4,0.3-0.6,0.4c-0.4,0.2-0.9,0.4-1.4,0.5c-0.6,0.1-2.4-0.1-2.2-1
						c0,0.2,0.6-0.1,0.9-0.2c0.4-0.1,0.8-0.1,1.3-0.2C267.2,171,268.5,170.9,268.7,171.5z"/>
					<path d="M257.7,182.5C257.7,182.5,257.7,182.6,257.7,182.5c0.1,0.4,1.2-0.4,1.4-1c-0.1,1.3-1.8,2.4-2.9,2.9
						c-1,0.4-3.2,0.7-3.4-0.9c-0.2-1.5,1.8-2.6,3-2.8c0.8-0.2,3-0.6,3.3,0.5c0,0.1,0,0.2,0,0.3c0,0,0-0.1,0-0.1
						C259.1,180.7,257.7,182,257.7,182.5C257.7,182.5,257.7,182.5,257.7,182.5C257.7,182.5,257.7,182.5,257.7,182.5z M254.2,182.2
						c-0.1,0.1-0.2,0.2-0.3,0.3c0.1-0.1,0.2-0.1,0.3-0.1c0.1,0.1,0.2,0.3,0.2,0.3c0.1,0.1,0.3,0.2,0.4,0.3c0.4,0.2,0.9,0.2,1.3,0.2
						s0.8-0.2,1.2-0.4c0.1-0.1,0.3-0.1,0.4-0.2c-0.2-0.5-1.3-0.5-1.8-0.4c-0.4,0-0.7,0.1-1.1,0.2c-0.2,0.1-0.4,0.1-0.6,0.2
						C254.2,182.3,254.2,182.3,254.2,182.2z"/>
					<path d="M257.7,182.5c0-0.5,1.4-1.8,1.4-1.1c0,0,0,0.1,0,0.1c-0.2,0.6-1.3,1.5-1.4,1.1C257.7,182.6,257.7,182.5,257.7,182.5
						C257.7,182.5,257.7,182.5,257.7,182.5c0,0.2,0,0,0.1-0.1C257.8,182.4,257.8,182.5,257.7,182.5
						C257.7,182.5,257.7,182.5,257.7,182.5z"/>
					<path d="M257.7,182.5c0,0,0.1-0.1,0.1-0.1C257.7,182.5,257.7,182.7,257.7,182.5z"/>
					<path fill="#1E1E1E" d="M257.7,182.5c-0.1,0.1-0.3,0.2-0.4,0.2c-0.4,0.2-0.8,0.4-1.2,0.4s-0.9,0-1.3-0.2
						c-0.1-0.1-0.3-0.1-0.4-0.3c0,0-0.1-0.2-0.2-0.3c0.2,0,0.4-0.1,0.6-0.2c0.4-0.1,0.7-0.1,1.1-0.2
						C256.4,182.1,257.5,182,257.7,182.5z"/>
					<path d="M254.3,182.4c-0.1,0-0.2,0.1-0.3,0.1c0.1-0.1,0.2-0.2,0.3-0.3C254.2,182.3,254.2,182.3,254.3,182.4z"/>
					<path d="M246.8,145.2c0,0.1,0,0.1,0,0.2c0,0,0,0,0-0.1c0-0.7-1.4,0.6-1.4,1.1c0,0,0,0.1,0,0.1c-0.3-0.9-2-0.8-2.8-0.7
						c-0.6,0-3,0.2-3.2,0.9c-0.2,0.5,0.7,1.1,1,1.2c0.6,0.3,1.3,0.3,2,0.2c0.7-0.1,2.9-0.7,3-1.6c0,0,0,0,0,0
						c0.1,0.4,1.3-0.5,1.4-1.1c-0.1,1.8-2.4,3.2-3.8,3.8c-1.5,0.6-4.8,1.1-5.1-1.2c-0.2-2,2.4-3.2,3.9-3.5
						C243.1,144.2,246.4,143.5,246.8,145.2z"/>
					<path d="M245.4,146.4c0-0.5,1.4-1.8,1.4-1.1c0,0,0,0,0,0.1c0,0,0,0,0,0c-0.2,0.6-1.3,1.5-1.4,1.1c0,0,0,0,0,0
						C245.4,146.5,245.4,146.4,245.4,146.4z"/>
					<path d="M246.6,130.1c0,0.1,0,0.1,0,0.2c0,0,0-0.1,0-0.1c0-0.7-1.4,0.6-1.4,1.1c0,0,0,0.1,0,0.1c-0.6-1.8-7.2-0.7-8.3,0.1
						c-2.3,1.5,2.2,2.2,3.1,2.1c1-0.1,4.9-0.9,5.2-2.3c0,0,0,0,0,0c0.1,0.4,1.3-0.5,1.4-1.1c-0.4,3.9-11.3,7.5-11.9,3
						c-0.3-2.6,3.6-3.6,5.3-4C241.4,129.1,245.9,128.1,246.6,130.1z"/>
					<path d="M245.2,131.3c0-0.5,1.4-1.7,1.4-1.1c0,0,0,0.1,0,0.1c-0.1,0.6-1.3,1.5-1.4,1.1c0,0,0,0,0,0
						C245.1,131.4,245.2,131.3,245.2,131.3z"/>
					<path d="M246.4,161.4c0,0.1,0,0.2,0,0.3c0,0,0-0.1,0-0.1c0-0.7-1.4,0.6-1.4,1.1c0,0,0,0.1,0,0.1c-0.3-0.8-1.8-0.6-2.4-0.6
						c-0.4,0-2.5,0.1-2.7,0.6c-0.2,0.4,0.6,0.9,0.9,1.1c0.5,0.2,1.1,0.3,1.7,0.2c0.6-0.1,2.4-0.6,2.5-1.3c0,0,0,0,0,0
						c0.1,0.4,1.2-0.5,1.4-1c-0.2,1.6-2.2,2.8-3.4,3.4c-1.3,0.6-4.3,0.9-4.5-1.1c-0.2-1.9,2.2-2.9,3.6-3.3
						C243.1,160.5,246,159.9,246.4,161.4z"/>
					<path d="M245,162.6c0-0.5,1.4-1.8,1.4-1.1c0,0.1,0,0.1,0,0.1c0,0,0,0,0,0c-0.2,0.6-1.3,1.4-1.4,1
						C245,162.7,245,162.7,245,162.6C245,162.7,245,162.6,245,162.6z"/>
					<path fill="#1E1E1E" d="M245.4,146.5c-0.2,0.9-2.3,1.5-3,1.6c-0.7,0.1-1.4,0-2-0.2c-0.4-0.2-1.2-0.7-1-1.2
						c0.3-0.7,2.6-0.8,3.2-0.9C243.4,145.7,245.1,145.6,245.4,146.5z"/>
					<path d="M238.7,177c-0.1,0.9,1.7,1.1,2.2,1c0.5-0.1,0.9-0.3,1.4-0.5c0.2-0.1,0.4-0.2,0.6-0.4c0,0,0,0,0,0l0,0
						c0.1,0.4,1.3-0.5,1.4-1.1c-0.1,1.4-2,2.6-3.1,3.1c-1.1,0.5-3.7,0.8-3.9-0.9c-0.2-1.7,1.9-2.7,3.2-3c0.9-0.2,3.4-0.7,3.8,0.6
						c0,0,0,0.1,0,0.1c0-0.7-1.4,0.6-1.4,1.1c0,0,0,0.1,0,0.1v0c0,0,0,0,0,0c-0.2-0.7-1.5-0.6-2.1-0.5c-0.4,0-0.9,0.1-1.3,0.2
						C239.3,176.9,238.7,177.2,238.7,177z"/>
					<path d="M242.9,177.1C242.9,177.1,242.9,177.2,242.9,177.1C242.9,177.1,242.9,177.1,242.9,177.1c0-0.6,1.4-1.8,1.4-1.1
						c0,0,0,0,0,0.1c0,0,0,0,0,0C244.1,176.7,243,177.6,242.9,177.1L242.9,177.1C242.9,177.2,242.9,177.2,242.9,177.1
						C242.9,177.2,242.9,177.2,242.9,177.1C242.9,177.2,242.9,177.1,242.9,177.1z"/>
					<path fill="#1E1E1E" d="M245,162.7c-0.2,0.7-1.9,1.2-2.5,1.3c-0.6,0.1-1.2,0-1.7-0.2c-0.3-0.1-1.1-0.6-0.9-1.1
						c0.2-0.4,2.3-0.6,2.7-0.6C243.2,162,244.7,161.9,245,162.7z"/>
					<path fill="#1E1E1E" d="M245.1,131.4c-0.3,1.4-4.2,2.2-5.2,2.3c-0.9,0.1-5.4-0.6-3.1-2.1C238,130.8,244.5,129.6,245.1,131.4z"
						/>
					<path d="M242.9,177.1C242.9,177.1,242.9,177.2,242.9,177.1L242.9,177.1C242.9,177.2,242.9,177.1,242.9,177.1z"/>
					<path fill="#1E1E1E" d="M242.9,177.2c-0.2,0.2-0.4,0.3-0.6,0.4c-0.4,0.2-0.9,0.4-1.4,0.5c-0.5,0.1-2.4-0.1-2.2-1
						c0,0.2,0.6-0.1,0.9-0.2c0.4-0.1,0.8-0.2,1.3-0.2C241.3,176.6,242.6,176.5,242.9,177.2z"/>
					<path d="M235.5,185.8c-0.1,0.1-0.2,0.2-0.3,0.3c0.1,0,0.2-0.1,0.3-0.1h0c0.1,0.1,0.2,0.3,0.2,0.3c0.1,0.1,0.2,0.2,0.4,0.3
						c0.4,0.2,0.9,0.2,1.3,0.2c0.4,0,0.8-0.2,1.2-0.4c0.1-0.1,0.3-0.1,0.4-0.2c0,0,0,0,0,0.1c0.1,0.4,1.2-0.5,1.4-1.1
						c-0.1,1.3-1.8,2.5-2.9,2.9c-1,0.4-3.2,0.7-3.4-0.9c-0.2-1.5,1.8-2.6,3-2.8c0.8-0.2,3-0.6,3.3,0.6c0,0.1,0,0.1,0,0.2
						c0,0,0-0.1,0-0.1c0-0.7-1.4,0.6-1.4,1.1c0,0,0,0.1,0,0.1c0,0,0,0,0,0c-0.2-0.5-1.3-0.5-1.8-0.4c-0.4,0-0.7,0.1-1.1,0.2
						c-0.2,0-0.4,0.1-0.5,0.2C235.5,185.9,235.5,185.9,235.5,185.8z"/>
					<path d="M239.1,186.1C239.1,186.1,239,186.1,239.1,186.1C239,186.1,239,186.1,239.1,186.1c-0.1-0.5,1.3-1.8,1.3-1.1
						c0,0,0,0.1,0,0.1c-0.2,0.6-1.3,1.5-1.4,1.1c0,0,0,0,0-0.1C239,186.1,239,186.1,239.1,186.1C239,186.2,239,186.2,239.1,186.1z"
						/>
					<path d="M239,186.1C239,186.1,239.1,186.1,239,186.1C239,186.2,239,186.2,239,186.1z"/>
					<path fill="#1E1E1E" d="M239,186.1c-0.1,0.1-0.3,0.2-0.4,0.2c-0.4,0.2-0.8,0.4-1.2,0.4c-0.4,0-0.9,0-1.3-0.2
						c-0.1-0.1-0.3-0.1-0.4-0.3c0,0-0.1-0.2-0.2-0.3c0.2,0,0.3-0.1,0.5-0.2c0.4-0.1,0.7-0.1,1.1-0.2
						C237.7,185.7,238.8,185.6,239,186.1z"/>
					<path d="M235.6,186L235.6,186c-0.1,0-0.2,0.1-0.4,0.1c0.1-0.1,0.2-0.2,0.3-0.3C235.5,185.9,235.5,185.9,235.6,186z"/>
					<path d="M222.3,189.1c-0.1,0.1-0.2,0.2-0.3,0.3c0.1,0,0.2-0.1,0.3-0.1h0c0.1,0.1,0.2,0.3,0.2,0.3c0.1,0.1,0.3,0.2,0.4,0.3
						c0.4,0.2,0.9,0.2,1.3,0.2s0.8-0.2,1.2-0.4c0.1-0.1,0.3-0.1,0.4-0.2c0,0,0,0,0,0c0.1,0.4,1.2-0.5,1.4-1.1
						c-0.1,1.3-1.8,2.4-2.9,2.9c-1,0.4-3.2,0.7-3.4-0.9c-0.2-1.5,1.8-2.6,3-2.8c0.8-0.2,3-0.6,3.3,0.6c0,0.1,0,0.2,0,0.2
						c0,0,0-0.1,0-0.1c0-0.7-1.4,0.6-1.4,1.1c0,0,0,0.1,0,0.1c0,0,0,0,0,0c-0.2-0.5-1.3-0.5-1.8-0.4c-0.4,0-0.7,0.1-1.1,0.2
						c-0.2,0-0.4,0.1-0.5,0.2C222.3,189.2,222.3,189.1,222.3,189.1z"/>
					<path d="M225.9,189.3C225.9,189.4,225.8,189.4,225.9,189.3C225.8,189.4,225.8,189.4,225.9,189.3c-0.1-0.5,1.3-1.8,1.3-1.1
						c0,0,0,0.1,0,0.1c-0.2,0.6-1.3,1.5-1.4,1.1c0,0,0,0,0,0C225.8,189.4,225.8,189.4,225.9,189.3
						C225.8,189.5,225.8,189.4,225.9,189.3z"/>
					<path d="M225.8,189.4C225.8,189.4,225.9,189.4,225.8,189.4C225.8,189.4,225.8,189.5,225.8,189.4z"/>
					<path fill="#1E1E1E" d="M225.8,189.4c-0.1,0.1-0.3,0.2-0.4,0.2c-0.4,0.2-0.8,0.4-1.2,0.4s-0.9,0-1.3-0.2
						c-0.1-0.1-0.3-0.1-0.4-0.3c0,0-0.1-0.2-0.2-0.3c0.2,0,0.4-0.1,0.5-0.2c0.4-0.1,0.7-0.1,1.1-0.2
						C224.5,189,225.6,188.9,225.8,189.4z"/>
					<path d="M222.9,135.5c0,0.1,0,0.1,0,0.2c0,0,0-0.1,0-0.1c0-0.7-1.4,0.6-1.4,1.1c0,0,0,0.1,0,0.1c-0.7-1.8-7.2-0.7-8.3,0.1
						c-2.3,1.5,2.2,2.2,3.1,2.1c1-0.1,4.9-0.9,5.2-2.3c0,0,0,0,0,0c0.1,0.4,1.2-0.5,1.4-1.1c-0.4,3.9-11.3,7.5-11.9,3
						c-0.3-2.6,3.6-3.6,5.3-4C217.7,134.5,222.2,133.6,222.9,135.5z"/>
					<path d="M221.4,136.7c0-0.5,1.4-1.8,1.4-1.1c0,0,0,0.1,0,0.1c-0.2,0.6-1.3,1.5-1.4,1.1c0,0,0,0,0,0
						C221.4,136.8,221.4,136.7,221.4,136.7z"/>
					<path d="M222.4,189.3L222.4,189.3c-0.1,0-0.2,0.1-0.3,0.1c0.1-0.1,0.2-0.2,0.3-0.3C222.3,189.1,222.3,189.2,222.4,189.3z"/>
					<path d="M216.6,181.5c-0.1,0.9,1.7,1.1,2.2,1c0.5-0.1,0.9-0.2,1.4-0.5c0.2-0.1,0.4-0.2,0.6-0.4c0,0,0,0,0,0c0,0,0,0,0,0
						c0.1,0.4,1.2-0.5,1.4-1.1c-0.1,1.4-2,2.6-3.1,3.1c-1.1,0.5-3.7,0.8-3.9-0.9c-0.2-1.7,1.9-2.7,3.2-3c0.9-0.2,3.4-0.7,3.8,0.6
						c0,0.1,0,0.1,0,0.2c0,0,0-0.1,0-0.1c0-0.7-1.4,0.6-1.4,1.1c0,0.1,0,0.1,0,0.1c0,0,0,0,0,0c-0.2-0.7-1.5-0.5-2.1-0.5
						c-0.4,0-0.9,0.1-1.3,0.2C217.2,181.4,216.6,181.7,216.6,181.5z"/>
					<path d="M220.8,181.5c0-0.5,1.4-1.8,1.4-1.1c0,0,0,0.1,0,0.1c-0.2,0.6-1.3,1.5-1.4,1.1c0,0,0,0,0,0
						C220.8,181.6,220.8,181.6,220.8,181.5c0,0.1,0,0.1,0,0.1C220.8,181.6,220.8,181.6,220.8,181.5z"/>
					<path d="M220.1,195.3c0.5-0.1,1.2-1.2,1.1-1.5c0.2,0.3-0.5,1.3-1,1.5C220.1,195.3,220.1,195.3,220.1,195.3z"/>
					<path d="M221.2,193.8c0.1,0.3-0.6,1.4-1.1,1.5c0,0-0.1,0-0.1,0h0c0,0,0,0,0,0c0,0,0,0,0,0C219.7,195.1,220.6,193.8,221.2,193.8
						C221.1,193.8,221.2,193.8,221.2,193.8z"/>
					<path d="M221.2,193.8C221.2,193.8,221.1,193.8,221.2,193.8C221.1,193.8,221.2,193.8,221.2,193.8z"/>
					<path d="M220.9,168.3c0,0,0,0.1,0,0.2c0,0,0,0,0-0.1c0-0.7-1.4,0.6-1.4,1.1c0,0,0,0.1,0,0.1c-0.3-0.8-1.8-0.6-2.4-0.6
						c-0.4,0-2.5,0.2-2.7,0.6c-0.2,0.4,0.6,0.9,0.9,1.1c0.5,0.2,1.2,0.3,1.7,0.2c0.6-0.1,2.3-0.6,2.5-1.3c0,0,0,0,0,0
						c0.1,0.4,1.3-0.5,1.4-1.1c-0.1,1.6-2.2,2.9-3.4,3.5c-1.3,0.6-4.2,0.9-4.5-1.1c-0.2-1.9,2.2-2.9,3.6-3.3
						C217.6,167.4,220.5,166.9,220.9,168.3z"/>
					<path d="M219.5,169.5c0-0.5,1.4-1.8,1.4-1.1c0,0,0,0,0,0.1c0,0,0,0,0,0c-0.1,0.6-1.3,1.5-1.4,1.1
						C219.5,169.7,219.5,169.7,219.5,169.5C219.5,169.6,219.5,169.6,219.5,169.5z"/>
					<path d="M220.8,181.6C220.8,181.6,220.8,181.6,220.8,181.6C220.8,181.6,220.8,181.6,220.8,181.6
						C220.8,181.6,220.8,181.6,220.8,181.6z"/>
					<path d="M220.8,181.6C220.8,181.6,220.8,181.6,220.8,181.6C220.8,181.7,220.8,181.7,220.8,181.6
						C220.8,181.6,220.8,181.6,220.8,181.6z"/>
					<path fill="#1E1E1E" d="M220.8,181.6c-0.2,0.2-0.4,0.3-0.6,0.4c-0.4,0.2-0.9,0.4-1.4,0.5c-0.5,0.1-2.4-0.1-2.2-1
						c0,0.2,0.6-0.1,0.9-0.2c0.4-0.1,0.8-0.2,1.3-0.2C219.2,181.1,220.5,181,220.8,181.6z"/>
					<path d="M220.3,150.9c0,0.1,0,0.2,0,0.3c0,0,0-0.1,0-0.1c0-0.7-1.4,0.6-1.4,1.1c0,0,0,0.1,0,0.1c-0.3-0.9-2-0.8-2.8-0.7
						c-0.6,0-3,0.2-3.2,0.9c-0.2,0.5,0.7,1.1,1,1.2c0.6,0.3,1.3,0.3,2,0.2c0.7-0.1,2.9-0.7,3-1.6c0,0,0,0,0,0
						c0.1,0.4,1.2-0.5,1.4-1.1c-0.1,1.7-2.4,3.1-3.8,3.7c-1.5,0.6-4.8,1.1-5.1-1.2c-0.2-2,2.4-3.2,3.9-3.5
						C216.6,149.9,219.8,149.3,220.3,150.9z"/>
					<path d="M218.9,152.1c0-0.5,1.4-1.8,1.4-1.1c0,0,0,0.1,0,0.1c-0.2,0.6-1.3,1.5-1.4,1.1C218.9,152.2,218.9,152.2,218.9,152.1
						C218.9,152.2,218.9,152.1,218.9,152.1z"/>
					<path d="M220.1,195.3c0,0,0.1,0,0.1,0C220.1,195.3,220,195.3,220.1,195.3C220,195.3,220,195.3,220.1,195.3z"/>
					<path d="M219.9,195.3C219.9,195.3,220,195.3,219.9,195.3C220,195.3,219.9,195.3,219.9,195.3z"/>
					<path d="M219.9,195.3C219.9,195.3,219.9,195.3,219.9,195.3c-8.7-2.1-17.5-3.6-26.3-5.3c-26.1-4.9-52.3-9.4-78.4-14
						c-14.3-2.5-28.7-4.8-42.9-7.5l0-0.2c0.5,0,1.4-1.3,1.2-1.5c3.7,0.7,7.3,1.3,11,2c25.9,4.7,51.9,9.2,77.9,13.9
						c19.6,3.5,39.4,6.4,58.8,11.1C220.6,193.8,219.7,195.1,219.9,195.3z"/>
					<path d="M221.1,193.8c-0.5,0-1.4,1.3-1.2,1.6C219.7,195.1,220.6,193.8,221.1,193.8z"/>
					<path fill="#1E1E1E" d="M221.4,136.8c-0.3,1.3-4.2,2.2-5.2,2.3c-0.9,0.1-5.4-0.6-3.1-2.1C214.2,136.2,220.8,135,221.4,136.8z"
						/>
					<path fill="#1E1E1E" d="M219.4,169.6c-0.2,0.7-1.9,1.2-2.5,1.3c-0.6,0.1-1.2,0-1.7-0.2c-0.3-0.1-1.1-0.7-0.9-1.1
						c0.2-0.4,2.3-0.6,2.7-0.6C217.7,169,219.2,168.9,219.4,169.6z"/>
					<path fill="#1E1E1E" d="M218.9,152.2c-0.2,0.9-2.3,1.5-3,1.6c-0.7,0.1-1.4,0-2-0.2c-0.4-0.2-1.2-0.7-1-1.2
						c0.3-0.7,2.6-0.8,3.2-0.9C216.8,151.4,218.6,151.3,218.9,152.2z"/>
					<path d="M201.7,184.8c-0.1,0.9,1.7,1.1,2.2,1c0.5-0.1,0.9-0.3,1.4-0.5c0.2-0.1,0.4-0.2,0.6-0.4c0,0,0,0,0,0c0,0,0,0,0,0l0,0
						c0.1,0.4,1.3-0.5,1.4-1.1c-0.1,1.4-1.9,2.6-3.1,3.1c-1.1,0.5-3.7,0.8-3.9-0.9c-0.2-1.7,1.9-2.7,3.2-3c0.9-0.2,3.4-0.7,3.8,0.6
						c0,0,0,0.1,0,0.1c0-0.7-1.4,0.6-1.4,1.1c0,0,0,0.1,0,0.1c0,0,0,0,0,0c-0.2-0.6-1.5-0.5-2.1-0.5c-0.4,0-0.9,0.1-1.3,0.2
						C202.3,184.7,201.8,185,201.7,184.8z"/>
					<path d="M207.3,183.8C207.3,183.8,207.3,183.8,207.3,183.8C207.3,183.8,207.3,183.8,207.3,183.8c-0.2,0.7-1.3,1.6-1.4,1.2l0,0
						c0,0,0,0,0,0c0,0,0,0,0.1-0.1c0,0,0,0-0.1,0c0,0,0-0.1,0-0.1C205.9,184.3,207.3,183.1,207.3,183.8z"/>
					<path d="M205.9,184.9C205.9,184.9,206,184.9,205.9,184.9C205.9,184.9,205.9,184.9,205.9,184.9
						C205.9,184.9,205.9,184.9,205.9,184.9C205.9,184.9,205.9,184.9,205.9,184.9z"/>
					<path fill="#1E1E1E" d="M205.9,184.9c-0.2,0.2-0.4,0.3-0.6,0.4c-0.4,0.2-0.9,0.4-1.4,0.5c-0.6,0.1-2.3-0.1-2.2-1
						c0,0.2,0.6-0.1,0.9-0.2c0.4-0.1,0.8-0.2,1.3-0.2C204.4,184.4,205.7,184.3,205.9,184.9z"/>
					<path d="M198.2,141.5c0,0.1,0,0.1,0,0.2c0,0,0-0.1,0-0.1c0-0.7-1.4,0.6-1.4,1.1c0,0,0,0.1,0,0.1c-0.6-1.8-7.2-0.7-8.3,0.1
						c-2.3,1.5,2.2,2.2,3.1,2.1c1-0.1,4.9-0.9,5.2-2.3c0,0,0,0,0,0c0.1,0.4,1.3-0.5,1.4-1.1c-0.4,3.9-11.3,7.5-11.9,3
						c-0.3-2.6,3.6-3.6,5.3-4C193.1,140.5,197.6,139.5,198.2,141.5z"/>
					<path d="M196.8,142.7c0-0.5,1.4-1.7,1.4-1.1c0,0,0,0.1,0,0.1c-0.1,0.6-1.3,1.5-1.4,1.1c0,0,0,0,0,0
						C196.8,142.8,196.8,142.7,196.8,142.7z"/>
					<path d="M196.2,172.7c0,0.1,0,0.1,0,0.2c0,0,0,0,0,0c0-0.7-1.4,0.6-1.4,1.1c0,0,0,0.1,0,0.1c-0.3-0.8-1.8-0.6-2.4-0.6
						c-0.4,0-2.5,0.2-2.7,0.6c-0.2,0.4,0.6,1,0.9,1.1c0.5,0.2,1.2,0.3,1.7,0.2c0.6-0.1,2.3-0.6,2.5-1.3c0,0,0,0,0,0
						c0.1,0.4,1.3-0.5,1.4-1.1c-0.1,1.6-2.2,2.9-3.4,3.5c-1.3,0.6-4.2,0.9-4.5-1.1c-0.2-1.8,2.2-2.9,3.6-3.3
						C192.9,171.8,195.8,171.3,196.2,172.7z"/>
					<path d="M194.8,173.9c0-0.5,1.4-1.8,1.4-1.1c0,0,0,0,0,0c0,0,0,0,0,0c-0.1,0.6-1.3,1.5-1.4,1.1
						C194.8,174,194.8,174,194.8,173.9C194.8,174,194.8,173.9,194.8,173.9z"/>
					<path fill="#1E1E1E" d="M196.8,142.8c-0.3,1.3-4.2,2.2-5.2,2.3c-0.9,0.1-5.4-0.6-3.1-2.1C189.6,142.1,196.1,141,196.8,142.8z"
						/>
					<path fill="#1E1E1E" d="M194.8,174c-0.2,0.7-1.9,1.2-2.5,1.3c-0.6,0.1-1.2,0-1.7-0.2c-0.3-0.1-1.1-0.7-0.9-1.1
						c0.2-0.4,2.3-0.5,2.7-0.6C193,173.4,194.5,173.2,194.8,174z"/>
					<path d="M193,158.3c0,0.1,0,0.1,0,0.2c0,0,0,0,0-0.1c0-0.7-1.4,0.6-1.4,1.1c0,0,0,0.1,0,0.1c-0.3-0.9-2-0.8-2.8-0.7
						c-0.6,0-3,0.2-3.2,0.9c-0.2,0.5,0.7,1.1,1,1.2c0.6,0.3,1.3,0.3,1.9,0.2c0.7-0.1,2.9-0.7,3-1.6c0,0,0,0,0,0
						c0.1,0.4,1.3-0.5,1.4-1.1c-0.1,1.8-2.4,3.2-3.8,3.8c-1.5,0.6-4.8,1.1-5.1-1.2c-0.2-2,2.4-3.2,3.9-3.5
						C189.2,157.3,192.5,156.6,193,158.3z"/>
					<path d="M191.6,159.5c0-0.5,1.4-1.8,1.4-1.1c0,0,0,0,0,0.1c0,0,0,0,0,0c-0.1,0.6-1.3,1.5-1.4,1.1c0,0,0,0,0,0
						C191.5,159.6,191.6,159.5,191.6,159.5z"/>
					<path fill="#1E1E1E" d="M191.5,159.6c-0.2,0.9-2.3,1.5-3,1.6c-0.6,0.1-1.4,0-1.9-0.2c-0.4-0.2-1.2-0.7-1-1.2
						c0.3-0.7,2.6-0.8,3.2-0.9C189.5,158.8,191.2,158.7,191.5,159.6z"/>
					<path d="M177.5,177.4c0,0.1,0,0.1,0,0.2c0,0,0,0,0-0.1c0-0.7-1.4,0.6-1.4,1.1c0,0,0,0.1,0,0.1c-0.3-0.8-1.8-0.7-2.4-0.6
						c-0.4,0-2.5,0.1-2.7,0.6c-0.2,0.4,0.6,1,0.9,1.1c0.5,0.2,1.1,0.3,1.7,0.2c0.6-0.1,2.3-0.6,2.5-1.3c0,0,0,0,0,0
						c0.1,0.4,1.3-0.5,1.4-1.1c-0.1,1.6-2.2,2.9-3.5,3.5c-1.3,0.6-4.2,0.9-4.5-1.1c-0.2-1.8,2.2-2.9,3.6-3.3
						C174.2,176.4,177.1,175.9,177.5,177.4z"/>
					<path d="M176.1,178.6c0-0.5,1.4-1.8,1.4-1.1c0,0,0,0,0,0.1c0,0,0,0,0,0c-0.2,0.6-1.3,1.5-1.4,1.1c0,0,0,0,0,0
						C176.1,178.6,176.1,178.6,176.1,178.6z"/>
					<path fill="#1E1E1E" d="M176.1,178.7c-0.2,0.7-1.9,1.2-2.5,1.3c-0.6,0.1-1.2,0-1.7-0.2c-0.3-0.1-1.1-0.7-0.9-1.1
						c0.2-0.4,2.3-0.5,2.7-0.6C174.3,178,175.8,177.9,176.1,178.7z"/>
					<path d="M168.6,148c0,0.1,0,0.1,0,0.2c0,0,0-0.1,0-0.1c0-0.7-1.4,0.6-1.4,1.1c0,0,0,0.1,0,0.1c-0.6-1.8-7.2-0.7-8.3,0.1
						c-2.3,1.5,2.2,2.2,3.1,2.1c1-0.1,4.9-0.9,5.2-2.3c0,0,0,0,0,0c0.1,0.4,1.3-0.5,1.4-1.1c-0.4,3.9-11.3,7.5-11.9,3
						c-0.3-2.6,3.6-3.6,5.3-4C163.5,147,168,146,168.6,148z"/>
					<path d="M167.2,149.2c0-0.5,1.4-1.7,1.4-1.1c0,0,0,0.1,0,0.1c-0.1,0.6-1.3,1.5-1.4,1.1c0,0,0,0,0,0
						C167.2,149.3,167.2,149.2,167.2,149.2z"/>
					<path fill="#1E1E1E" d="M167.2,149.3c-0.3,1.3-4.2,2.2-5.2,2.3c-0.9,0.1-5.4-0.6-3.1-2.1C160,148.6,166.5,147.5,167.2,149.3z"
						/>
					<path d="M164.9,163.7c0,0,0,0.1,0,0.2c0,0,0,0,0-0.1c0-0.7-1.4,0.6-1.4,1.1c0,0,0,0.1,0,0.1c-0.3-0.9-2-0.8-2.8-0.7
						c-0.6,0-3,0.2-3.2,0.9c-0.2,0.5,0.7,1.1,1,1.2c0.6,0.3,1.3,0.3,2,0.2c0.7-0.1,2.9-0.7,3-1.6c0,0,0,0,0,0
						c0.1,0.4,1.3-0.5,1.4-1.1c-0.1,1.8-2.4,3.2-3.8,3.8c-1.5,0.6-4.8,1.1-5.1-1.2c-0.2-2,2.4-3.2,3.9-3.5
						C161.1,162.7,164.4,162,164.9,163.7z"/>
					<path d="M163.5,164.9c0-0.5,1.4-1.8,1.4-1.1c0,0,0,0,0,0.1c0,0,0,0,0,0c-0.2,0.6-1.3,1.5-1.4,1.1c0,0,0,0,0,0
						C163.5,164.9,163.5,164.9,163.5,164.9z"/>
					<path fill="#1E1E1E" d="M163.5,165c-0.2,0.9-2.3,1.5-3,1.6c-0.6,0.1-1.4,0-2-0.2c-0.4-0.2-1.2-0.7-1-1.2
						c0.3-0.7,2.6-0.8,3.2-0.9C161.4,164.2,163.2,164.1,163.5,165z"/>
					<path fill="#1E1E1E" d="M144.1,168.7c0,0.1,0,0.1,0,0.2c0,0,0,0,0-0.1c0-0.7-1.4,0.6-1.4,1.1c0,0,0,0.1,0,0.1
						c-0.3-0.9-2-0.8-2.8-0.7c-0.6,0-3,0.2-3.2,0.9c-0.2,0.5,0.7,1.1,1,1.2c0.6,0.3,1.3,0.3,2,0.2c0.7-0.1,2.9-0.7,3-1.6
						c0,0,0,0,0,0c0.1,0.4,1.3-0.5,1.4-1.1c-0.1,1.8-2.4,3.1-3.8,3.8c-1.4,0.6-4.8,1.1-5.1-1.2c-0.2-2,2.4-3.2,3.9-3.5
						C140.4,167.7,143.6,167.1,144.1,168.7z"/>
					<path d="M142.7,169.9c0-0.5,1.4-1.8,1.4-1.1c0,0,0,0,0,0.1c0,0,0,0,0,0c-0.2,0.6-1.3,1.5-1.4,1.1
						C142.7,170,142.7,170,142.7,169.9C142.7,170,142.7,169.9,142.7,169.9z"/>
					<path fill="#1E1E1E" d="M142.7,170c-0.2,0.9-2.3,1.5-3,1.6c-0.6,0.1-1.4,0-2-0.2c-0.4-0.2-1.2-0.7-1-1.2
						c0.3-0.7,2.6-0.8,3.2-0.9C140.6,169.2,142.4,169.1,142.7,170z"/>
					<path d="M139,154.1c0,0.1,0,0.1,0,0.2c0,0,0-0.1,0-0.1c0-0.7-1.4,0.6-1.4,1.1c0,0,0,0.1,0,0.1c-0.7-1.8-7.2-0.6-8.3,0.1
						c-2.3,1.5,2.2,2.2,3.1,2.1c1-0.1,4.9-0.9,5.2-2.3c0,0,0,0,0,0c0.1,0.4,1.2-0.5,1.4-1.1c-0.4,3.8-11.3,7.5-11.9,3
						c-0.3-2.6,3.6-3.6,5.3-4C133.8,153,138.3,152.1,139,154.1z"/>
					<path d="M137.6,155.3c0-0.5,1.4-1.8,1.4-1.1c0,0,0,0.1,0,0.1c-0.2,0.6-1.3,1.5-1.4,1.1c0,0,0,0,0,0
						C137.5,155.3,137.6,155.3,137.6,155.3z"/>
					<path fill="#1E1E1E" d="M137.5,155.4c-0.3,1.4-4.2,2.2-5.2,2.3c-0.9,0.1-5.4-0.6-3.1-2.1C130.4,154.7,136.9,153.5,137.5,155.4z
						"/>
					<path d="M112.9,161c0,0.1,0,0.1,0,0.2c0,0,0-0.1,0-0.1c0-0.7-1.4,0.6-1.4,1.1c0,0,0,0.1,0,0.1c-0.7-1.8-7.2-0.7-8.3,0.1
						c-2.3,1.5,2.2,2.2,3.1,2.1c1-0.1,4.9-0.9,5.2-2.3c0,0,0,0,0,0c0.1,0.4,1.3-0.5,1.4-1.1c-0.4,3.9-11.3,7.5-11.9,3
						c-0.3-2.6,3.6-3.6,5.3-4C107.7,159.9,112.2,159,112.9,161z"/>
					<path d="M111.5,162.2c0-0.5,1.4-1.7,1.4-1.1c0,0,0,0.1,0,0.1c-0.2,0.6-1.3,1.5-1.4,1.1c0,0,0,0,0,0
						C111.4,162.2,111.5,162.2,111.5,162.2z"/>
					<path fill="#1E1E1E" d="M111.4,162.3c-0.3,1.3-4.2,2.2-5.2,2.3c-0.9,0.1-5.4-0.6-3.1-2.1C104.3,161.6,110.8,160.5,111.4,162.3z
						"/>
					<path d="M73.5,166.8c0.2,0.2-0.7,1.5-1.2,1.5c-0.4,0,0.5-1.4,1-1.6C73.4,166.8,73.4,166.8,73.5,166.8z"/>
					<path d="M73.5,166.8c0,0-0.1,0-0.2,0C73.4,166.8,73.4,166.8,73.5,166.8C73.4,166.8,73.5,166.8,73.5,166.8z"/>
					<path d="M72.3,168.3l0,0.2c-4.7-0.9-9.3-1.9-14-2.9c0,0,0,0,0.1,0c0,0,0,0,0,0c1.2-0.3,2.4-0.7,3.6-1c3.7,0.8,7.5,1.5,11.3,2.2
						C72.8,166.9,71.9,168.3,72.3,168.3z"/>
					<path d="M59.5,164c0.8,0.2,1.7,0.4,2.5,0.6c-1.2,0.3-2.4,0.6-3.6,1c0.1,0,0.2-0.1,0.3-0.2C59.2,165,59.7,164.3,59.5,164
						C59.5,164,59.5,164,59.5,164z"/>
					<path d="M59.5,164c0.2,0.4-0.3,1-0.8,1.3C59.2,164.9,59.7,164,59.5,164C59.4,164,59.5,164,59.5,164C59.5,164,59.5,164,59.5,164
						z"/>
					<path d="M59.5,163.9C59.5,163.9,59.5,164,59.5,163.9C59.5,164,59.4,164,59.5,163.9C59.4,164,59.4,164,59.5,163.9
						C59.4,163.9,59.4,163.9,59.5,163.9z"/>
					<path d="M59.4,164c0.3,0-0.2,0.9-0.7,1.4c-0.1,0.1-0.2,0.2-0.3,0.2c0,0,0,0,0,0c-0.4,0.1,0-0.8,0.5-1.3c0,0,0.1-0.1,0.1-0.1
						C59.1,164.1,59.2,164,59.4,164C59.3,164,59.4,164,59.4,164z"/>
					<path d="M59.5,163.9C59.4,163.9,59.4,163.9,59.5,163.9c-0.6,0-1.5,1.3-1.3,1.6l0,0c0,0,0,0,0,0c0,0,0,0,0,0c0,0,0,0,0,0
						c-0.1,0-0.1,0-0.1-0.1c-2-3.5-3.2-7.9-4.6-11.7c-6-16-11.9-32-17.9-47.9c-3-8.1-5.7-16.7-9-24.8c0.5-0.3,1.1-1.2,1-1.4l0.1,0
						c0.6,1.6,1.2,3.2,1.8,4.8c6.1,16,12.1,32.1,18.1,48.2c2.6,7,5.3,14.1,7.9,21.1C56.7,157.1,57.7,160.9,59.5,163.9z"/>
					<path d="M59.4,164C59.4,164,59.3,164,59.4,164C59.3,164,59.4,164,59.4,164C59.4,164,59.4,164,59.4,164z"/>
					<path d="M59.4,163.9C59.4,164,59.3,164,59.4,163.9c-0.2,0.1-0.3,0.1-0.4,0.3c0,0-0.1,0.1-0.1,0.1c-0.4,0.4-0.8,1-0.7,1.2
						C58,165.2,58.9,163.9,59.4,163.9z"/>
					<path d="M59,164.2C58.9,164.2,58.9,164.3,59,164.2C58.9,164.2,58.9,164.2,59,164.2z"/>
					<path d="M58.4,165.5C58.3,165.5,58.3,165.5,58.4,165.5c-0.1,0-0.1,0-0.1,0c0,0,0,0,0,0l0,0c-0.1-0.2,0.3-0.8,0.7-1.2
						C58.4,164.8,58,165.6,58.4,165.5z"/>
					<path d="M58.3,165.5C58.3,165.5,58.3,165.5,58.3,165.5C58.3,165.5,58.3,165.6,58.3,165.5C58.3,165.5,58.3,165.5,58.3,165.5z"/>
					<path d="M58.2,165.5C58.2,165.5,58.2,165.5,58.2,165.5C58.2,165.5,58.2,165.5,58.2,165.5z"/>
					<path d="M38.4,68.9l-2.5,0.5C36.7,69.2,37.6,69.1,38.4,68.9z"/>
					<path d="M31.1,70.5l2.2-0.5C32.5,70.2,31.8,70.3,31.1,70.5z"/>
					<path d="M28.2,71.1l1.9-0.4C29.4,70.8,28.7,71,28.2,71.1z"/>
					<path d="M27.7,79.7L27.7,79.7c-0.1,0-0.1,0-0.1,0c-0.6-0.3-1.3-0.7-2-1c-0.9-2.2-1.9-4.3-3-6.5c-0.2-0.4,1.1-1.8,1.4-1.3
						c0.1,0.1,0.1,0.2,0.2,0.4c0,0-0.1,0-0.1,0c-0.5,0.1-1.5,1.7-0.9,1.5c0.5-0.1,1.1-0.2,1.6-0.3C25.9,74.8,26.8,77.2,27.7,79.7z"
						/>
					<path d="M27.7,79.7c0.1,0.3-0.5,1.2-1,1.4c-0.3-0.8-0.7-1.7-1-2.5C26.3,79,27,79.3,27.7,79.7C27.6,79.7,27.7,79.7,27.7,79.7z"
						/>
					<path d="M25.8,71.6l1.5-0.3C26.8,71.4,26.3,71.5,25.8,71.6z"/>
					<path d="M26.7,81.1c-0.1,0.1-0.3,0.1-0.4,0c-8.1-4.2-16.7-7.5-25.2-11c0.2,0,0.6-0.3,0.6-0.4c1,0,1.9-0.1,2.8-0.3
						c7.1,2.9,14.2,5.7,21,9.1C26,79.5,26.4,80.3,26.7,81.1z"/>
					<path d="M24.6,71.8l1.2-0.3C25.4,71.7,25,71.8,24.6,71.8z"/>
					<path d="M24.5,71.9c0.1,0.2,0.2,0.4,0.3,0.6c-0.5,0.1-1.1,0.2-1.6,0.3c-0.7,0.1,0.4-1.4,0.9-1.5c0,0,0.1,0,0.1,0
						C24.3,71.4,24.4,71.7,24.5,71.9z"/>
					<path d="M2.4,68.6c0.7,0.3,1.5,0.6,2.2,0.9c-0.9,0.1-1.9,0.2-2.8,0.3C2.1,69.5,2.4,69.1,2.4,68.6C2.4,68.7,2.4,68.6,2.4,68.6z"
						/>
					<path d="M2.4,65.6c0,0.4,0,0.8,0,1.2C2,66.9,1.7,67,1.3,67.1c-0.5,0.1,0-0.9,0.5-1.3c0,0,0,0,0,0c0.1-0.1,0.2-0.2,0.4-0.2
						c0,0,0.1,0,0.1,0C2.4,65.5,2.4,65.5,2.4,65.6z"/>
					<path d="M1.3,67.1C1.7,67,2,66.9,2.4,66.8c0,0.5,0,0.9,0,1.4c-0.3,0-0.6,0-0.8,0c0,0-0.1,0-0.1,0c0,0,0,0,0,0
						c-0.1,0-0.3,0.1-0.5,0.3c0-0.5,0-1,0-1.6c0-0.4,0.3-0.8,0.6-1.1c0,0,0.1-0.1,0.2-0.1C1.3,66.2,0.7,67.2,1.3,67.1z"/>
					<path d="M2.4,68.2c0,0.1,0,0.3,0,0.4c-0.3-0.1-0.5-0.2-0.8-0.3c0,0-0.1,0-0.1,0c0,0,0,0,0.1,0C1.8,68.2,2.1,68.2,2.4,68.2z"/>
					<path d="M2.4,68.6C2.4,68.6,2.4,68.7,2.4,68.6c0,0.5-0.3,0.9-0.6,1.2c-0.3,0-0.5,0-0.8,0c0-0.4,0-0.8,0-1.2
						c0.2-0.2,0.3-0.3,0.5-0.4c0,0,0,0,0,0c0,0,0.1,0,0.1,0C1.9,68.4,2.1,68.5,2.4,68.6z"/>
					<path d="M2.1,65.5C2.2,65.5,2.2,65.5,2.1,65.5c-0.1,0-0.2,0.1-0.3,0.2C1.9,65.6,2,65.5,2.1,65.5z"/>
					<path d="M1,69.8c0.3,0,0.5,0,0.8,0c0,0.1-0.4,0.3-0.6,0.4c0,0-0.1,0-0.1-0.1c0,0,0,0,0-0.1C1,69.9,1,69.9,1,69.8z"/>
					<path d="M1.1,70.1c-0.1,0-0.1,0-0.1-0.1C1,70.1,1.1,70.1,1.1,70.1z"/>
					<path d="M1,68.5c0.2-0.1,0.3-0.2,0.5-0.3c-0.2,0.1-0.3,0.2-0.5,0.4C1,68.6,1,68.6,1,68.5z"/>
					<path d="M1,70C1,70,1,70.1,1,70c-0.2,0-0.4-0.1-0.7-0.2c-0.2-0.1,0.2-0.9,0.7-1.3c0,0,0,0.1,0,0.1c-0.4,0.5-0.8,1.2-0.5,1.2
						c0.2,0,0.3,0,0.5,0C1,69.9,1,69.9,1,70z"/>
					<path d="M1,68.6c0,0.4,0,0.8,0,1.2c-0.2,0-0.4,0-0.5,0C0.2,69.8,0.5,69.1,1,68.6z"/>
				</g>
			</g>
		</g>
	</g>
</g>
<g id="_x33_4">
	<g id="_x33_4back">
	</g>
	<g id="_x33_4front">
	</g>
	<g id="_x33_4back_copy">
	</g>
	<g id="_x33_4front_copy">
	</g>
</g>
<g id="_x33_4down">
	<g id="info">
	</g>
	<g id="_x33_4down_safecopy" display="none">
	</g>
</g>
<g id="concept_ref">
</g>
</svg>
