<?xml version="1.0" encoding="utf-8"?>
<!-- Generator: Adobe Illustrator 18.1.1, SVG Export Plug-In . SVG Version: 6.00 Build 0)  -->
<svg version="1.1" xmlns="http://www.w3.org/2000/svg" xmlns:xlink="http://www.w3.org/1999/xlink" x="0px" y="0px"
	 viewBox="0 0 433.285 205.225" enable-background="new 0 0 433.285 205.225" xml:space="preserve">
<g id="_x33_4up">
</g>
<g id="_x33_4">
	<g id="_x33_4back">
	</g>
	<g id="_x33_4front">
	</g>
	<g id="_x33_4back_copy">
		<g id="XMLID_8_">
			<g>
				<path d="M429.265,33.25c-9-1.62-18.06-2.92-27.09-4.35c-35.02-5.55-70.07-10.99-105.11-16.48c-23.57-3.69-47.3-6.89-70.77-11.26
					c0.43-0.14,0.55-0.46,0.43-0.68c9.75,1.82,19.59,3.22,29.39,4.78c35.03,5.54,70.08,10.98,105.12,16.47
					c23.84,3.73,47.84,6.97,71.57,11.41c0.36,0.07-0.87,0.6-1.2,0.54C430.825,33.53,430.045,33.39,429.265,33.25z"/>
				<path fill="#B3B3B3" d="M429.265,33.25c-6.55-0.76-13.92-1.81-19.74,0.88l-0.24-0.52c0.37-0.22,0.6-0.52,0.11-0.61
					c-61.16-10.74-122.88-18.04-183.92-29.5c-0.22-0.04-0.58,0.09-0.84,0.26c-4.45,0.98-8.9,1.97-13.36,2.94l-0.39-1.8
					c5.15-1.11,10.27-2.31,15.33-3.71c0.03-0.01,0.05-0.02,0.08-0.03c23.47,4.37,47.2,7.57,70.77,11.26
					c35.04,5.49,70.09,10.93,105.11,16.48C411.205,30.33,420.265,31.63,429.265,33.25z"/>
				<path fill="#B3B3B3" d="M409.285,33.61l0.24,0.52c-2.72,1.25-5.1,3.31-6.9,6.61c-9,20-19.51,37.67-34.51,54.67c-7,6-15,10-24,13
					c-35.4,7.96-69.23,9.66-103.49,9.35c-0.01,0-0.01,0-0.02,0c-32.83-2.65-125.66-5.35-158.65-7.35c-8,0-16-3-22-9
					c-11-13-15-29-22-44c-4-8-7.99-10.25-15.98-11.25l0.2-1.45c0.08,0,0.18-0.01,0.31-0.03c67.71-11.46,134.94-25.56,201.97-40.4
					h0.01c0.04,0.02,0.08,0.03,0.13,0.04c0.26,0.05,0.51,0.1,0.77,0.14c-0.1,26.72,0.24,53.43,0,80.14c0,0.25,1.45,0.05,1.45-0.38
					c0.24-26.5-0.09-52.99,0-79.49c60.32,11.22,121.28,18.48,181.7,29.09C408.715,33.85,409.035,33.75,409.285,33.61z"/>
				<path d="M409.395,33c0.49,0.09,0.26,0.39-0.11,0.61c-0.25,0.14-0.57,0.24-0.77,0.21c-60.42-10.61-121.38-17.87-181.7-29.09
					c0-0.27,0-0.55,0-0.82c0-0.25-1.44-0.04-1.45,0.39c0,0.05,0,0.11,0,0.16c-0.26-0.04-0.51-0.09-0.77-0.14
					c-0.05-0.01-0.09-0.02-0.13-0.04c0.14-0.04,0.29-0.07,0.43-0.1c0.57-0.12,1.28-0.77,0.27-0.54c-0.18,0.04-0.35,0.08-0.53,0.12
					c0.26-0.17,0.62-0.3,0.84-0.26C286.515,14.96,348.235,22.26,409.395,33z"/>
				<path d="M226.815,4.73c-0.09,26.5,0.24,52.99,0,79.49c0,0.43-1.45,0.63-1.45,0.38c0.24-26.71-0.1-53.42,0-80.14
					C225.845,4.55,226.335,4.65,226.815,4.73z"/>
				<path d="M226.815,3.91c0,0.27,0,0.55,0,0.82c-0.48-0.08-0.97-0.18-1.45-0.27c0-0.05,0-0.11,0-0.16
					C225.375,3.87,226.815,3.66,226.815,3.91z"/>
				<path d="M226.725,0.48c0.12,0.22,0,0.54-0.43,0.68c-0.27-0.05-0.53-0.1-0.8-0.15c-0.37-0.06,0.87-0.6,1.2-0.54
					C226.705,0.47,226.715,0.47,226.725,0.48z"/>
				<path d="M2.595,44.74c-0.56,0.1-1.13,0.2-1.69,0.29c-0.99,0.17-0.61-0.84,0.15-0.97c11.94-2,23.84-4.25,35.75-6.44
					c36.73-6.77,73.44-13.7,110.1-20.84c26.3-5.13,53.21-9.35,79.07-16.49c0.39-0.1,0.65,0.01,0.75,0.19
					c-0.01-0.01-0.02-0.01-0.03-0.01c-0.33-0.06-1.57,0.48-1.2,0.54c0.27,0.05,0.53,0.1,0.8,0.15c-0.03,0.01-0.05,0.02-0.08,0.03
					c-5.06,1.4-10.18,2.6-15.33,3.71c-6.62,1.43-13.27,2.71-19.88,4.06c-36.73,7.51-73.57,14.51-110.42,21.44
					C54.615,35.29,28.645,40.34,2.595,44.74z"/>
				<path d="M225.165,3.64c1.01-0.23,0.3,0.42-0.27,0.54c-0.14,0.03-0.29,0.06-0.43,0.1h-0.01c-0.28-0.11-0.11-0.34,0.18-0.52
					C224.815,3.72,224.985,3.68,225.165,3.64z"/>
				<path d="M224.635,3.76c-0.29,0.18-0.46,0.41-0.18,0.52c-67.03,14.84-134.26,28.94-201.97,40.4c-0.13,0.02-0.23,0.03-0.31,0.03
					c-0.53,0,0.07-0.48,0.58-0.57c63.18-10.7,125.94-23.69,188.52-37.44C215.735,5.73,220.185,4.74,224.635,3.76z"/>
				<path fill="#B3B3B3" d="M210.885,4.9l0.39,1.8c-62.58,13.75-125.34,26.74-188.52,37.44c-0.51,0.09-1.11,0.57-0.58,0.57
					l-0.2,1.45h-0.01c-5.48-0.91-13.47-0.78-19.37-1.42c26.05-4.4,52.02-9.45,77.99-14.34c36.85-6.93,73.69-13.93,110.42-21.44
					C197.615,7.61,204.265,6.33,210.885,4.9z"/>
			</g>
		</g>
	</g>
	<g id="_x33_4front_copy">
	</g>
</g>
<g id="_x33_4down">
	<g id="info">
	</g>
	<g id="_x33_4down_safecopy" display="none">
	</g>
</g>
<g id="concept_ref">
</g>
</svg>
