<?xml version="1.0" encoding="utf-8"?>
<!-- Generator: Adobe Illustrator 18.1.1, SVG Export Plug-In . SVG Version: 6.00 Build 0)  -->
<!DOCTYPE svg PUBLIC "-//W3C//DTD SVG 1.1//EN" "http://www.w3.org/Graphics/SVG/1.1/DTD/svg11.dtd">
<svg version="1.1" xmlns="http://www.w3.org/2000/svg" xmlns:xlink="http://www.w3.org/1999/xlink" x="0px" y="0px"
	 viewBox="0 0 488.1 239.5" enable-background="new 0 0 488.1 239.5" xml:space="preserve">
<g id="_x33_4up">
	<g id="Layer_12" display="none">
	</g>
	<g id="_x33_4up_1_">
	</g>
	<g id="_x33_4up_copy">
	</g>
	<g id="_x33_4up_copy_2">
	</g>
</g>
<g id="_x33_4">
	<path opacity="0.5" fill="#19C839" d="M255.9,0c0,0-178.4,35.8-221.4,43.7C20.5,46.3,14,48.9,0,51.2v22.4l13.4,3.6
		c0,0.1,34.6,107.7,34.5,107.5v0c0,0.1,0,0.2,0.2,0.2c22.6,7.9,197.3,54.5,197.3,54.5h0c0.2,0.1,190.1-61.4,200-64.7
		c-0.4,0,27.2-106.6,27.2-106.6c0-0.1,15.6-5.5,15.6-5.5c0-0.4,0-23.5,0-23.8C488.1,39,256.3-0.1,255.9,0z"/>
	<g id="_x33_4back">
	</g>
	<g id="_x33_4front">
	</g>
	<g id="_x33_4back_copy">
	</g>
	<g id="_x33_4front_copy">
	</g>
</g>
<g id="_x33_4down">
	<g id="info">
	</g>
	<g id="_x33_4down_safecopy" display="none">
	</g>
</g>
<g id="_x33_4down_highlight">
</g>
<g id="concept_ref">
</g>
<g id="ch02A-09-2">
	<g id="_x33_4back_copy_2">
	</g>
	<g id="_x33_4front_copy_2">
	</g>
</g>
<g id="ch02A-13-1_x5F_diffuser_plate">
</g>
</svg>
