<?xml version="1.0" encoding="utf-8"?>
<!-- Generator: Adobe Illustrator 18.1.1, SVG Export Plug-In . SVG Version: 6.00 Build 0)  -->
<svg version="1.0" id="Layer_1" xmlns="http://www.w3.org/2000/svg" xmlns:xlink="http://www.w3.org/1999/xlink" x="0px" y="0px"
	 viewBox="0 0 5.1 3.6" enable-background="new 0 0 5.1 3.6" xml:space="preserve">
<path fill="#FFFFFF" stroke="#010101" stroke-width="0.25" stroke-miterlimit="10" d="M3.3,2.8c0.1,0,0.3,0,0.4,0
	c0.5-0.2,0.9-0.5,1.1-0.9c0.2-0.4,0.3-1.7-0.4-1.8C3.7,0.1,3.1,1,2.9,1.6C2.8,2.1,2.9,2.7,3.3,2.8z"/>
<path fill="#FFFFFF" stroke="#010101" stroke-width="0.25" stroke-miterlimit="10" d="M2.9,3.1C2.8,3.2,2.7,3.3,2.5,3.4
	c-0.5,0.2-1,0.2-1.5,0C0.6,3.2-0.3,2.2,0.3,1.7C0.9,1.3,1.9,1.6,2.4,2C2.8,2.2,3.1,2.8,2.9,3.1z"/>
</svg>
