<?xml version="1.0" encoding="utf-8"?>
<!-- Generator: Adobe Illustrator 18.1.1, SVG Export Plug-In . SVG Version: 6.00 Build 0)  -->
<svg version="1.1" xmlns="http://www.w3.org/2000/svg" xmlns:xlink="http://www.w3.org/1999/xlink" x="0px" y="0px"
	 viewBox="1454.4 2381.5 98 61.3" enable-background="new 1454.4 2381.5 98 61.3" xml:space="preserve">
<g id="additional_reference">
</g>
<g id="ch07-09-1">
</g>
<g id="ch04-05-1">
</g>
<g id="ch04-11-2">
</g>
<g id="ch04-06-1">
	<g id="older_version">
		<g id="head_3_" display="none">
			<g id="hair_3_">
			</g>
		</g>
		<g id="hands" display="none">
		</g>
		<g id="head_4_" display="none">
		</g>
		<g id="new_path" display="none">
		</g>
		<g id="handback" display="none">
		</g>
		<g id="handFront">
		</g>
		<g id="Layer_21" display="none">
		</g>
	</g>
	<g id="path_copy-with_stroke">
		<g id="handBack_copy">
		</g>
		<g id="head_copy">
		</g>
		<g id="neck_copy">
		</g>
		<g id="sleeve_copy">
		</g>
		<g id="handFront_copy">
		</g>
		<g id="skirt_copy">
		</g>
		<g id="torso_copy">
		</g>
	</g>
	<g id="comp_layer">
		<g id="skirt_copy_3">
			<g id="skirt_copy_3_2_">
			</g>
			<g id="skirt_copy_3_1_">
			</g>
		</g>
		<g id="torso_copy_2">
		</g>
		<g id="sleeve_copy_2">
		</g>
		<g id="neck_5_">
		</g>
		<g id="head_copy_2">
			<g id="head-silo_copy">
			</g>
		</g>
		<g id="head_copy_3">
			<g id="head-silo_copy_2">
			</g>
		</g>
		<g id="handFront_copy_2">
		</g>
		<g id="handBack_copy_2">
		</g>
	</g>
	<g id="skirt_5_">
		<g id="skirt_4_">
		</g>
		<g id="skirt_copy_2">
		</g>
	</g>
	<g id="torso_copy_3">
	</g>
	<g id="sleeve">
	</g>
	<g id="neck_6_">
	</g>
	<g id="handBack">
	</g>
	<g id="handFront_1_">
	</g>
</g>
<g id="ch04-03-2">
	<g>
		<path fill="#49301C" d="M1552.3,2395.8c-0.5-2.8-4.6-2.6-6.5-2.7c-4.1-0.2-8,0-12-0.9c0,0,0,0,0,0l0,0c-0.3-0.3-0.7-0.6-1-0.9
			c-2.5-1.7-6.1-1.4-9-1.9c-4.5-0.8-9-1.9-13.4-3c-0.7-1-1.5-1.9-2.3-2.7c-1.5-1.3-3.3-1.9-5.2-1.8c-2.1,0.1-5.6,2.2-7.4,1.2
			c-0.1-0.1-0.3,0-0.5,0.1c-15.2-6.8-26.3,7.8-30,12.1c-4.9,5.7-8.5,11.9-10,19.4c-0.6,3.1-1.2,5.1,0.8,7.5c2.4,3,5.2,5.6,7.5,8.9
			c1.6,2.3,3.6,5.9,6.4,7c3.1,1.2,8,0.1,11.3,0.7c2.2,0.4,4.4,0.9,6.5,1.6c1.8,0.6,4.1,2.2,5.9,2.4c1.5,0.1,3.1-0.8,4.3-1.5
			c3.8-2.2,3.2-7.1,0.2-10.1c-3.6-3.6-8.2-3.2-12.8-3.6c-1.2-0.3-2-1.2-2.5-2.3l2.9-1.9c3.9-4.2,8.6-6.8,11-10.8
			c2.2,1.6,4.3,2.3,5.2,5.4c0.6,2.4,0.1,4.8,0.7,7.2c0.7,3,2.3,5.9,4,8.3c3,4.4,6.2,3.9,11,4c0.1,0,0.3-0.1,0.4-0.3c0,0,0,0,0,0
			c2-2.8,0.3-4.9-1.2-7.7c-2.3-4.4-3.3-9.3-4.4-14.1c-1-4.5-2.2-9.1-4.7-12.9c-0.7-1.1-1.5-2-2.3-2.7c3.8,1.5,7.8,2.5,10.6,5.6
			c1.7,1.9,1.9,4,2.7,6.4c0.9,2.8,2.4,5.2,4.3,7.2c2.3,2.4,10.9,9.4,13,2.8c0.8-2.4-1.7-4.5-2.8-6.2c-1.8-2.6-3.4-5.3-4.8-8.2
			c-1.2-2.7-2-5-3.1-7.1c6.9,0.8,9.7,13.2,17.2,13.5c1.9,0.1,4.2-1.3,3.9-3.7c-0.2-2.4-5.8-6.9-7.4-9.1
			C1543.5,2401.4,1553.3,2401.4,1552.3,2395.8z"/>
	</g>
	<g id="assets_2_">
		<g id="torso_x5F_34down_2_">
			<g id="XMLID_19_">
				<g>
					<path fill="#734E27" d="M1489.5,2429.2c2.7,0.5,5.3,1.5,7.2,3.7c0.8,0.9,1.4,2.1,1.7,3.3c0.1,1,0.1,1.9,0.2,2.9
						c-1.7,0.7-3.4,1.4-5.1,2.2c-2,0-5-2.1-7.1-2.6c-2.4-0.6-4.9-1.1-7.4-1.3c-2.3-0.2-5.9,0.5-8-0.3c-2.2-0.9-4-3.8-5.3-5.6
						c-1.4-1.9-2.6-3.9-4.1-5.7c-1.4-1.8-3.3-3-4.7-4.7c-2.8-3.4,0.7-11.9,2.4-15.3c4.6-9.2,22.3-28.5,33.7-21.9
						c0.3,0.2,0.6,0.3,0.9,0.3c-0.1,0.1-0.1,0.2,0,0.2c3.5,2,5.9-2.1,9.8-1c1.8,0.5,3.5,2,5,3.8c-0.2,0.2-0.2,0.4-0.2,0.4
						c0.2,0,0.4,0.1,0.6,0.1c1.7,2,3.3,4.1,5,5.4c2.8,2.2,6.9,4,9,7.1c-0.1,0.1-0.1,0.2,0.1,0.2c0,0,0,0,0.1,0c0,0,0,0,0,0
						c2.5,4,3.3,9.1,5.8,13.2c0.8,1.3,4.2,4.7,4.3,6.1c0.2,6.8-6.5,0.5-7.8-0.6c-3-2.7-4.7-5.7-5.9-9.7c-2.7-9-12.7-9.3-19.2-13.9
						c0,0,0,0,0,0c-0.7-1.1-1.2-2.5-1.3-4.5c0-0.2-0.8-3.4-1.2-3.2c-0.5,0.2-0.1,1.5-0.1,1.8l0.3,1.7c0.2,3.5,0.9,4.5,2.5,6.3
						c0.5,0.6,1.1,1.2,1.7,2c2.9,3.4,5.1,6.6,6.5,11c1.3,4.2,2,8.6,3.1,12.8c0.9,3.2,5.5,9.4,4.7,12.8c-2.6,0.1-4.7,0.4-6.8-1.4
						c-1.8-1.5-3.2-4.1-4.3-6.3c-2.3-4.6-0.3-11.5-4.2-14.8c-1.4-1.2-3.1-2-4.5-3.2c-0.2-0.1-0.3-0.3-0.4-0.4
						c-1.7-1.6-2.7-3.8-4.1-5.7c-1.1-1.4-1.7-1.7-3.3-2.3c-2.9-1-3.2-0.2-7-2.1c-0.2-0.1-1.9-1.3-2.2-1.1c-0.2,0.1-0.1,0.4,0.1,0.6
						l-0.1,0.1c-0.4,0.4,0.5,3.1,0.9,4.1c-0.1,0-0.2,0-0.2,0c-0.4,0.3,0.5,1.2,0.6,1.4l0.4,0.7c1.5,2.5,1.2,3.8,0.9,6.8
						c-0.2,2.5-1.8,4.7-2.3,7.1c0,0.2-0.1,0.4-0.1,0.6c-0.2,1.9-0.1,4.7,0.9,6.4c-0.6-0.2-1.2-0.4-1.8-0.7c-0.2-0.1-2.1-0.5-2.5-0.2
						c-0.4,0.3,2.8,1.7,2.9,1.8l1.1,0.3C1484.9,2430.2,1484.9,2428.4,1489.5,2429.2z"/>
					<path fill="#734E27" d="M1524.3,2399.2c-0.9-1.3-2-2.6-3.6-3.8c-2.8-2-5.7-3.8-8.2-6.3c-0.3-0.3-0.5-0.5-0.7-0.8
						c5,1.2,10,2.1,15.1,2.9c2.2,0.3,3.7,1.2,4.9,2.4c1.9,1.8,3,4.4,4.4,7c0,0.1,0,0.1,0.1,0.2c0.6,1.1,1.3,2.2,2.1,3.2
						c1.4,1.8,5.7,4.9,4.6,6.9c-1.2,2.1-2.8,0-4.3-1.2c-1.3-1.1-2.6-2.3-3.7-3.6c-3.1-3.4-5.5-7.9-10.5-7.1
						C1524.4,2399.2,1524.3,2399.2,1524.3,2399.2L1524.3,2399.2z"/>
					<path fill="#604222" d="M1489.2,2404.3l-0.2,0.3c-0.4,0-1.5,0.6-1.4,0.9c0.3,3-0.2,5.9-1.7,8.6c-1,1.7-2.4,2.9-3.8,4.1
						c0.3-1.4,0.6-2.7,0.9-3.5c1.6-4.3,0.7-6.4-1.7-10.2c-0.1-0.1-0.4-0.7-0.8-0.7c-0.4-1-1.3-3.7-0.9-4.1l0.1-0.1
						c0.3,0.4,0.8,0.8,0.8,0.9l0.8,0.6c1.8,0.7,1.7,1.1,3.7,1.7c0.9,0.3,1.4,0.4,2.3,0.6C1488.2,2403.8,1488.8,2404,1489.2,2404.3z"
						/>
					<path fill="#734E27" d="M1548.3,2399.4c-3,1.2-7.3,0.6-10.4,0.4c-0.9-1.9-1.7-4-2.8-5.8c3.8,0.4,7.5,0.1,11.4,0.6
						C1548.9,2394.9,1553.7,2397.3,1548.3,2399.4z"/>
					<path fill="#604222" d="M1489.3,2404.4c0.8,0.6,1.4,1.4,2.2,2.5c1.3,1.8,2.4,3.7,4,5.1c-2.2,4.9-9.1,7.5-13.3,12.6
						c-0.5-1.6-0.4-3.5-0.2-5.3c1.9-2,4.1-3.2,5.5-5.8c1.5-2.7,2.1-5.7,1.7-8.8c0-0.1-0.1-0.1-0.2-0.1L1489.3,2404.4
						C1489.3,2404.3,1489.3,2404.4,1489.3,2404.4z"/>
					<path fill="#49301C" d="M1537.9,2399.8c3.1,0.2,7.5,0.8,10.4-0.4c5.4-2.1,0.7-4.5-1.8-4.8c-3.9-0.5-7.6-0.2-11.4-0.6
						C1536.1,2395.7,1536.9,2397.9,1537.9,2399.8z M1512.5,2389.2c2.5,2.5,5.4,4.3,8.2,6.3c1.6,1.2,2.7,2.4,3.6,3.8h0
						c0.1,0,0.1-0.1,0.2-0.1c5-0.8,7.3,3.7,10.5,7.1c1.2,1.3,2.4,2.5,3.7,3.6c1.5,1.3,3.1,3.3,4.3,1.2c1.2-2-3.2-5.1-4.6-6.9
						c-0.8-1-1.5-2.1-2.1-3.2c-0.1,0-0.1-0.1-0.1-0.2c-1.4-2.6-2.5-5.2-4.4-7c-1.2-1.2-2.8-2.1-4.9-2.4c-5.1-0.8-10.1-1.8-15.1-2.9
						C1512,2388.7,1512.2,2389,1512.5,2389.2z M1496.5,2412.8c-2.4,4-7.2,6.6-11.1,10.8l-2.9,1.9c0.5,1.1,1.3,1.9,2.5,2.3
						c4.6,0.4,9.2,0,12.8,3.6c3,3,3.6,7.9-0.2,10.1c-1.2,0.7-2.8,1.6-4.3,1.5c-1.8-0.1-4.2-1.8-5.9-2.4c-2.1-0.7-4.3-1.2-6.5-1.6
						c-3.3-0.5-8.2,0.6-11.3-0.7c-2.8-1.1-4.8-4.7-6.4-7c-2.3-3.3-5-5.8-7.5-8.8c-1.9-2.4-1.4-4.4-0.8-7.5c1.5-7.5,5.1-13.7,10-19.4
						c3.7-4.3,14.8-18.9,30-12.1c0.2-0.1,0.4-0.1,0.5-0.1c1.8,1,5.3-1.1,7.4-1.2c1.9-0.1,3.6,0.5,5.2,1.8c0.9,0.7,1.6,1.7,2.3,2.7
						c4.4,1.1,8.9,2.3,13.4,3c2.9,0.5,6.5,0.2,9,1.9c0.4,0.3,0.7,0.5,1,0.8l0,0c0,0,0,0,0,0c4.1,0.9,7.9,0.7,12,0.9
						c1.9,0.1,6-0.1,6.5,2.7c1,5.6-8.8,5.6-13.7,5.3c1.6,2.2,7.2,6.7,7.4,9.1c0.2,2.4-2,3.7-3.9,3.7c-7.5-0.2-10.2-12.6-17.2-13.5
						c1.1,2.1,1.9,4.4,3.1,7.1c1.3,2.9,3,5.7,4.8,8.2c1.1,1.6,3.6,3.8,2.8,6.2c-2.1,6.7-10.6-0.3-13-2.8c-2-2-3.5-4.4-4.3-7.2
						c-0.8-2.4-1-4.5-2.7-6.4c-2.8-3.1-6.9-4.1-10.6-5.6c0.8,0.7,1.6,1.6,2.3,2.7c2.5,3.8,3.7,8.4,4.7,12.9c1.1,4.9,2,9.8,4.4,14.1
						c1.5,2.8,3.2,4.9,1.2,7.7c0,0,0,0,0,0c-0.1,0.2-0.3,0.3-0.4,0.3c-4.8,0-8,0.5-11-4c-1.7-2.4-3.3-5.3-4-8.3
						c-0.5-2.4,0-4.8-0.7-7.2C1500.8,2415.1,1498.6,2414.4,1496.5,2412.8z M1482.2,2424.6c4.2-5.2,11.1-7.7,13.3-12.6
						c-1.6-1.4-2.7-3.3-4-5.1c-0.8-1.1-1.4-2-2.2-2.5c0,0,0,0-0.1-0.1c-0.5-0.3-1-0.6-1.7-0.8c-0.9-0.3-1.4-0.3-2.3-0.6
						c-2-0.6-1.9-1-3.7-1.7l-0.8-0.6c-0.1-0.1-0.6-0.5-0.8-0.9c-0.2-0.3-0.3-0.5-0.1-0.6c0.4-0.2,2.1,1,2.2,1.1
						c3.7,1.9,4.1,1.1,7,2.1c1.6,0.5,2.3,0.9,3.3,2.3c1.4,1.9,2.4,4,4.1,5.7c0.1,0.1,0.3,0.3,0.4,0.4c1.4,1.2,3.1,2,4.5,3.2
						c3.9,3.4,1.9,10.2,4.2,14.8c1.1,2.2,2.4,4.8,4.3,6.3c2.2,1.8,4.3,1.5,6.8,1.4c0.7-3.4-3.9-9.6-4.7-12.8
						c-1.2-4.2-1.8-8.6-3.1-12.8c-1.4-4.4-3.6-7.6-6.5-11c-0.7-0.8-1.2-1.4-1.7-2c-1.6-1.7-2.3-2.8-2.5-6.3l-0.3-1.7
						c0-0.3-0.4-1.6,0.1-1.8c0.4-0.2,1.2,3,1.2,3.2c0.1,2,0.6,3.4,1.3,4.5c0,0,0,0,0,0c6.4,4.6,16.5,4.8,19.2,13.9
						c1.2,4,2.9,7,5.9,9.7c1.2,1.1,8,7.5,7.8,0.6c0-1.4-3.5-4.8-4.3-6.1c-2.5-4.1-3.3-9.3-5.8-13.2c0,0,0,0,0,0c0,0-0.1,0-0.1,0
						c-0.1,0-0.1-0.1-0.1-0.2c-2.1-3.1-6.2-4.9-9-7.1c-1.7-1.3-3.3-3.4-5-5.4c-0.2-0.1-0.4-0.1-0.6-0.1c-0.1,0,0-0.2,0.2-0.4
						c-1.6-1.8-3.2-3.3-5-3.8c-3.9-1.1-6.3,3-9.8,1c-0.1,0-0.1-0.1,0-0.2c-0.3,0-0.6-0.1-0.9-0.3c-11.5-6.7-29.1,12.6-33.7,21.9
						c-1.7,3.4-5.2,11.8-2.4,15.3c1.4,1.7,3.3,2.9,4.7,4.7c1.4,1.8,2.7,3.8,4.1,5.7c1.3,1.8,3.2,4.8,5.3,5.6c2.1,0.8,5.7,0.1,8,0.3
						c2.5,0.2,5,0.6,7.4,1.3c2,0.5,5.1,2.6,7.1,2.6c1.7-0.7,3.4-1.4,5.1-2.2c-0.1-1-0.1-2-0.2-2.9c-0.3-1.2-0.9-2.4-1.7-3.3
						c-1.9-2.2-4.5-3.2-7.2-3.7c-4.6-0.8-4.6,1-8.9-1.1l-1.1-0.3c-0.2-0.1-3.3-1.5-2.9-1.8c0.3-0.3,2.3,0.1,2.5,0.2
						c0.6,0.3,1.2,0.5,1.8,0.7c-1.1-1.7-1.2-4.6-0.9-6.4c0-0.2,0.1-0.4,0.1-0.6c0.5-2.4,2.1-4.6,2.3-7.1c0.3-3,0.6-4.3-0.9-6.8
						l-0.4-0.7c-0.1-0.2-1-1.1-0.6-1.4c0.1,0,0.2,0,0.2,0c0.3,0.1,0.7,0.6,0.8,0.7c2.3,3.8,3.3,5.9,1.7,10.2
						c-0.3,0.8-0.6,2.1-0.9,3.5c1.4-1.2,2.8-2.4,3.8-4.1c1.5-2.7,2-5.6,1.7-8.6c0-0.4,1-0.9,1.4-0.9c0.1,0,0.2,0,0.2,0.1
						c0.3,3.1-0.2,6.1-1.7,8.8c-1.4,2.5-3.6,3.8-5.5,5.8C1481.8,2421.1,1481.8,2423.1,1482.2,2424.6z"/>
				</g>
			</g>
		</g>
	</g>
</g>
<g id="ch04-02-2_safe_copy" display="none">
	<g id="mainComp_x5F_paths-back-up_copy">
		<g id="eye_x5F_close_x5F_comp_copy_2_1_" display="inline">
		</g>
		<g id="eye_x5F_far_x5F_comp_copy_2_1_" display="inline">
		</g>
	</g>
	<g id="mainComp_copy" display="inline">
		<g id="eye_x5F_close_x5F_comp_copy_2">
		</g>
		<g id="eye_x5F_far_x5F_comp_copy_2">
		</g>
	</g>
	<g id="eye_x5F_close_copy" display="inline">
	</g>
	<g id="eye_x5F_far_copy" display="inline">
	</g>
	<g id="pupil_copy" display="inline">
	</g>
</g>
<g id="ch04-02-1">
	<g id="mainComp_x5F_paths-back-up" display="none">
		<g id="eye_x5F_close_x5F_comp_copy" display="inline">
		</g>
		<g id="eye_x5F_far_x5F_comp_copy" display="inline">
		</g>
	</g>
	<g id="mainComp">
		<g id="eye_x5F_close_x5F_comp">
		</g>
		<g id="eye_x5F_far_x5F_comp">
		</g>
	</g>
	<g id="eye_x5F_close_copy_2">
	</g>
	<g id="eye_x5F_close">
	</g>
	<g id="eye_x5F_far_copy_2">
	</g>
	<g id="eye_x5F_far">
	</g>
	<g id="pupil_copy_2">
	</g>
	<g id="pupil_4_">
	</g>
</g>
<g id="ch05-07-1">
	<g id="main_x5F_comp_1_">
		<g id="hand_washing_copy">
		</g>
	</g>
	<g id="assets">
	</g>
	<g id="hand_washing">
	</g>
</g>
</svg>
