<?xml version="1.0" encoding="utf-8"?>
<!-- Generator: Adobe Illustrator 18.1.1, SVG Export Plug-In . SVG Version: 6.00 Build 0)  -->
<svg version="1.1" xmlns="http://www.w3.org/2000/svg" xmlns:xlink="http://www.w3.org/1999/xlink" x="0px" y="0px"
	 viewBox="1573.5 933 35.7 47.1" enable-background="new 1573.5 933 35.7 47.1" xml:space="preserve">
<g id="additional_reference">
</g>
<g id="ch07-09-1">
</g>
<g id="ch04-05-1">
</g>
<g id="ch04-11-2">
</g>
<g id="ch04-06-1">
	<g id="older_version">
		<g id="head_3_" display="none">
			<g id="hair_3_">
			</g>
		</g>
		<g id="hands" display="none">
		</g>
		<g id="head_4_" display="none">
		</g>
		<g id="new_path" display="none">
		</g>
		<g id="handback" display="none">
		</g>
		<g id="handFront">
		</g>
		<g id="Layer_21" display="none">
		</g>
	</g>
	<g id="path_copy-with_stroke">
		<g id="handBack_copy">
		</g>
		<g id="head_copy">
		</g>
		<g id="neck_copy">
		</g>
		<g id="sleeve_copy">
		</g>
		<g id="handFront_copy">
		</g>
		<g id="skirt_copy">
		</g>
		<g id="torso_copy">
		</g>
	</g>
	<g id="comp_layer">
		<g id="skirt_copy_3">
			<g id="skirt_copy_3_2_">
			</g>
			<g id="skirt_copy_3_1_">
			</g>
		</g>
		<g id="torso_copy_2">
		</g>
		<g id="sleeve_copy_2">
		</g>
		<g id="neck_5_">
		</g>
		<g id="head_copy_2">
			<g id="head-silo_copy">
			</g>
		</g>
		<g id="head_copy_3">
			<g id="head-silo_copy_2">
			</g>
		</g>
		<g id="handFront_copy_2">
		</g>
		<g id="handBack_copy_2">
		</g>
	</g>
	<g id="skirt_5_">
		<g id="skirt_4_">
		</g>
		<g id="skirt_copy_2">
		</g>
	</g>
	<g id="torso_copy_3">
	</g>
	<g id="sleeve">
	</g>
	<g id="neck_6_">
	</g>
	<g id="handBack">
	</g>
	<g id="handFront_1_">
	</g>
</g>
<g id="ch04-03-2">
</g>
<g id="ch04-02-2_safe_copy" display="none">
	<g id="mainComp_x5F_paths-back-up_copy">
		<g id="eye_x5F_close_x5F_comp_copy_2_1_" display="inline">
		</g>
		<g id="eye_x5F_far_x5F_comp_copy_2_1_" display="inline">
		</g>
	</g>
	<g id="mainComp_copy" display="inline">
		<g id="eye_x5F_close_x5F_comp_copy_2">
		</g>
		<g id="eye_x5F_far_x5F_comp_copy_2">
		</g>
	</g>
	<g id="eye_x5F_close_copy" display="inline">
	</g>
	<g id="eye_x5F_far_copy" display="inline">
	</g>
	<g id="torso_x2B_sleeves_1_" display="inline">
		<g id="sleeve_far_3_">
			<g>
				<path d="M1608.6,960.5C1608.5,960.5,1608.5,960.5,1608.6,960.5c-3.5-2.8-3-7.9-4.2-11.9c-0.9-2.9-2.2-6-4.2-8.3
					c-4.1-4.8-11.5-7.1-17.6-7.1c0,0,0,0-0.1,0.1c0,0,0,0,0,0c-8.5,13-10.4,30.4-7.5,45.5c0,0.1,0.2,1.1,0.4,1
					c6.2-4.6,8.4-12.6,15-16.6c6-3.7,12-0.5,18.4-0.7C1609.2,962.5,1608.8,960.7,1608.6,960.5z"/>
			</g>
			<g id="sleeve_far_6_">
				<g>
					<path d="M1608.6,960.5c0.2,0.2,0.6,1.9,0.3,2c-6.5,0.1-12.5-3-18.5,0.7c-6.5,4-8.8,12-15,16.6c-0.2,0.1-0.4-0.9-0.4-1
						c-2.9-15.1-1-32.5,7.5-45.5c-0.1,0.3,0,1.9,0.4,1.9c0,0,0,0,0,0c-5.6,8.6-8.1,18.7-8.4,28.9c-0.1,3.8,0,7.5,0.4,11.3
						c0.1,0.6,0,2.3,0.4,2.8c0.8,0.9,1.7-1.7,2.7-2.8c4.2-4.8,6.7-11,12.4-14.4c5.3-3.1,10.8-0.9,16.4-0.5c0.5,0.6,1.1,1.3,2,2
						C1608.7,961.8,1608.6,961.1,1608.6,960.5L1608.6,960.5C1608.5,960.5,1608.5,960.5,1608.6,960.5z"/>
					<path d="M1608.5,960.5c0.1,0.6,0.2,1.3,0.3,2c-0.9-0.7-1.5-1.4-2-2C1607.3,960.5,1607.9,960.5,1608.5,960.5z"/>
					<path d="M1608.5,960.5L1608.5,960.5c-0.6,0-1.2,0-1.8,0c-0.7-1-1-2.2-1.3-4c-0.9-4.9-1.7-10.2-5.1-14.2c-4-4.7-11.4-7.1-17.4-7
						c0,0,0,0,0,0c0.3-0.4-0.4-2-0.4-1.9c0,0,0,0,0.1,0c6.1,0,13.5,2.3,17.6,7.1c2,2.3,3.2,5.4,4.2,8.3
						C1605.6,952.6,1605.1,957.7,1608.5,960.5z"/>
					<path fill="#C1C18A" d="M1605.4,956.4c0.3,1.9,0.6,3,1.3,4c-5.6-0.3-11.1-2.6-16.4,0.5c-5.6,3.4-8.1,9.6-12.4,14.4
						c-0.9,1.1-1.9,3.7-2.7,2.8c-0.4-0.5-0.3-2.2-0.4-2.8c-0.4-3.7-0.6-7.5-0.4-11.3c0.3-10.2,2.8-20.3,8.4-28.9
						c6,0,13.4,2.3,17.4,7C1603.7,946.2,1604.6,951.5,1605.4,956.4z"/>
					<path d="M1582.5,933.3c0.1-0.1,0.7,1.4,0.4,1.9c0,0,0,0,0,0c0,0,0,0,0,0C1582.5,935.2,1582.4,933.6,1582.5,933.3
						C1582.5,933.3,1582.5,933.3,1582.5,933.3z"/>
				</g>
			</g>
		</g>
	</g>
	<g id="pupil_copy" display="inline">
	</g>
</g>
<g id="ch04-02-1">
	<g id="mainComp_x5F_paths-back-up" display="none">
		<g id="eye_x5F_close_x5F_comp_copy" display="inline">
		</g>
		<g id="eye_x5F_far_x5F_comp_copy" display="inline">
		</g>
	</g>
	<g id="mainComp">
		<g id="eye_x5F_close_x5F_comp">
		</g>
		<g id="eye_x5F_far_x5F_comp">
		</g>
	</g>
	<g id="eye_x5F_close_copy_2">
	</g>
	<g id="eye_x5F_close">
	</g>
	<g id="eye_x5F_far_copy_2">
	</g>
	<g id="eye_x5F_far">
	</g>
	<g>
		<path fill="#ADAB5C" d="M1608.6,960.5C1608.5,960.5,1608.5,960.5,1608.6,960.5c-0.3-0.2-0.5-0.4-0.6-0.6c-0.7-0.8-1.3-1.7-1.6-2.6
			c-0.1-0.2-0.2-0.4-0.2-0.6c-0.8-2.5-0.9-5.5-1.7-8c-0.9-2.8-2.2-6-4.1-8.3c-4.1-4.7-11.5-7.1-17.6-7.1c0,0,0,0,0,0l0,0
			c0,0,0,0,0,0l0,0c-1.4,2.2-2.7,4.5-3.8,6.9c-0.2,0.5-0.4,1-0.6,1.5c-4.7,11.6-5.4,25.1-3.1,37.1c0,0.1,0.2,1.1,0.4,0.9
			c6.2-4.6,8.4-12.6,15-16.6c6-3.7,12-0.6,18.4-0.7C1609.2,962.5,1608.8,960.7,1608.6,960.5z"/>
	</g>
	<g id="torso_x2B_sleeves_2_">
		<g id="sleeve_far_4_">
			<g id="torso_3_">
				<g>
					<path fill="#ADAB5C" d="M1582.9,935.2c-0.4,0-0.5-1.5-0.4-1.9l0,0c0,0,0,0,0,0s0,0,0,0C1582.6,933.3,1583.2,934.8,1582.9,935.2
						C1583,935.2,1582.9,935.2,1582.9,935.2C1582.9,935.2,1582.9,935.2,1582.9,935.2z"/>
					<path fill="#ADAB5C" d="M1578.1,941.8c0.2-0.5,0.4-1,0.6-1.5C1578.5,940.8,1578.3,941.3,1578.1,941.8z"/>
					<path fill="#ADAB5C" d="M1608.8,962.4c-0.9-0.7-1.6-1.3-2-2c0.6,0,1.1,0,1.7,0C1608.6,961.1,1608.7,961.8,1608.8,962.4z"/>
					<path fill="#ADAB5C" d="M1600.4,942.3c-4-4.7-11.4-7.1-17.4-7c0,0,0,0,0,0c0.3-0.4-0.3-1.9-0.4-1.9c0,0,0,0,0,0c0,0,0,0,0,0
						c6.1,0,13.5,2.3,17.6,7.1c2,2.3,3.2,5.4,4.1,8.3c0.8,2.5,0.9,5.5,1.7,8c0.1,0.2,0.1,0.4,0.2,0.6c0.4,1,0.9,1.9,1.6,2.6
						c0.2,0.2,0.4,0.4,0.6,0.5l0,0c-0.6,0-1.2,0-1.7,0l0,0c-0.7-1-1-2.2-1.3-4C1604.6,951.5,1603.7,946.2,1600.4,942.3z"/>
					<path fill="#C1C18A" d="M1582.9,935.2c6,0,13.4,2.3,17.4,7c3.4,3.9,4.2,9.3,5.1,14.2c0.3,1.9,0.6,3,1.3,4
						c-5.6-0.3-11.1-2.6-16.4,0.5c-5.6,3.4-8.1,9.6-12.3,14.4c-0.9,1.1-1.9,3.7-2.7,2.8c-0.4-0.5-0.3-2.2-0.4-2.8
						c-0.4-3.7-0.6-7.5-0.4-11.3C1574.9,953.9,1577.3,943.8,1582.9,935.2z"/>
					<path fill="#ADAB5C" d="M1607.9,959.9c0.2,0.2,0.4,0.4,0.6,0.5l0,0C1608.3,960.3,1608.1,960.1,1607.9,959.9z"/>
					<path fill="#ADAB5C" d="M1590.4,961c5.3-3.1,10.8-0.9,16.4-0.5l0,0c0.4,0.6,1.1,1.3,2,2c-0.1-0.6-0.2-1.3-0.3-2l0,0
						c0,0,0,0,0.1,0c0.2,0.2,0.6,1.9,0.3,2c-6.4,0.1-12.5-3-18.4,0.7c-6.5,4-8.8,12-15,16.6c-0.2,0.1-0.4-0.9-0.4-0.9
						c-2.3-12-1.6-25.5,3.1-37.1c0.2-0.5,0.4-1,0.6-1.5c1.1-2.4,2.3-4.7,3.8-6.9c-0.1,0.3,0,1.9,0.4,1.9c0,0,0,0,0,0
						c-5.6,8.6-8.1,18.7-8.4,28.9c-0.1,3.8,0,7.5,0.4,11.3c0.1,0.6,0,2.3,0.4,2.8c0.8,0.9,1.7-1.7,2.7-2.8
						C1582.2,970.6,1584.7,964.4,1590.4,961z"/>
					<path fill="#ADAB5C" d="M1608.6,960.5C1608.5,960.5,1608.5,960.5,1608.6,960.5L1608.6,960.5
						C1608.5,960.5,1608.5,960.5,1608.6,960.5z"/>
					<path fill="#ADAB5C" d="M1582.5,933.3L1582.5,933.3C1582.5,933.3,1582.5,933.3,1582.5,933.3
						C1582.5,933.3,1582.5,933.3,1582.5,933.3z"/>
				</g>
			</g>
		</g>
	</g>
	<g id="pupil_copy_2">
	</g>
	<g id="pupil_4_">
	</g>
</g>
<g id="ch05-07-1">
	<g id="main_x5F_comp_1_">
		<g id="hand_washing_copy">
		</g>
	</g>
	<g id="assets">
	</g>
	<g id="hand_washing">
	</g>
</g>
</svg>
