<?xml version="1.0" encoding="utf-8"?>
<!-- Generator: Adobe Illustrator 18.1.1, SVG Export Plug-In . SVG Version: 6.00 Build 0)  -->
<svg version="1.1" xmlns="http://www.w3.org/2000/svg" xmlns:xlink="http://www.w3.org/1999/xlink" x="0px" y="0px"
	 viewBox="6544 667.9 83.2 115.9" enable-background="new 6544 667.9 83.2 115.9" xml:space="preserve">
<g id="additional_reference">
</g>
<g id="ch07-09-1">
	<g id="palm_3_">
	</g>
	<g id="fingers_1_">
	</g>
	<g id="palm_copy_2">
	</g>
	<g id="palm_copy">
	</g>
	<g id="fingers_copy_2">
	</g>
	<g id="fingers_copy">
	</g>
	<g id="tumb">
	</g>
	<g id="bottlefinger">
	</g>
	<g id="tumb_copy_2">
	</g>
	<g id="tumb_copy">
	</g>
	<g id="bottlefinger_copy">
	</g>
	<g id="bottlefinger_copy_2">
	</g>
</g>
<g id="ch06-12-1">
	<g id="diffuser_box">
	</g>
	<g id="hand_holding">
	</g>
	<g id="hand_holding_copy">
	</g>
	<g id="hand_holding_copy_2">
	</g>
	<g id="hand_open_copy">
	</g>
	<g id="hand_open_copy_4">
	</g>
	<g id="hand_open_copy_5">
	</g>
</g>
<g id="ch04-05-1">
</g>
<g id="ch04-11-2">
</g>
<g id="ch04-06-1">
	<g id="older_version">
		<g id="head_3_" display="none">
			<g id="hair_3_">
			</g>
		</g>
		<g id="hands" display="none">
		</g>
		<g id="head_4_" display="none">
		</g>
		<g id="new_path" display="none">
		</g>
		<g id="handback" display="none">
		</g>
		<g id="handFront">
		</g>
		<g id="Layer_21" display="none">
		</g>
	</g>
	<g id="path_copy-with_stroke">
		<g id="handBack_copy">
		</g>
		<g id="head_copy">
		</g>
		<g id="neck_copy">
		</g>
		<g id="sleeve_copy">
		</g>
		<g id="handFront_copy">
		</g>
		<g id="skirt_copy">
		</g>
		<g id="torso_copy">
		</g>
	</g>
	<g id="comp_layer">
		<g id="skirt_copy_3">
			<g id="skirt_copy_3_2_">
			</g>
			<g id="skirt_copy_3_1_">
			</g>
		</g>
		<g id="torso_copy_2">
		</g>
		<g id="sleeve_copy_2">
		</g>
		<g id="neck_5_">
		</g>
		<g id="head_copy_2">
			<g id="head-silo_copy">
			</g>
		</g>
		<g id="head_copy_3">
			<g id="head-silo_copy_2">
			</g>
		</g>
		<g id="head_copy_4">
			<g id="head-silo_copy_3">
			</g>
		</g>
		<g id="handFront_copy_2">
		</g>
		<g id="handBack_copy_2">
		</g>
	</g>
	<g id="skirt_copy_4">
		<g id="skirt_copy_4_2_">
		</g>
		<g id="skirt_copy_4_1_">
		</g>
	</g>
	<g id="skirt_5_">
		<g id="skirt_4_">
		</g>
		<g id="skirt_copy_2">
		</g>
	</g>
	<g id="torso_copy_3">
	</g>
	<g id="torso_copy_4">
	</g>
	<g id="sleeve_copy_3">
	</g>
	<g id="sleeve">
	</g>
	<g id="neck_6_">
	</g>
	<g id="neck_copy_2">
	</g>
	<g id="handBack_copy_3">
	</g>
	<g id="handBack">
	</g>
	<g id="handFront_copy_3">
	</g>
	<g id="handFront_1_">
	</g>
</g>
<g id="ch04-03-2">
</g>
<g id="ch04-02-2_safe_copy" display="none">
	<g id="mainComp_x5F_paths-back-up_copy">
		<g id="eye_x5F_close_x5F_comp_copy_2_1_" display="inline">
		</g>
		<g id="eye_x5F_far_x5F_comp_copy_2_1_" display="inline">
		</g>
	</g>
	<g id="mainComp_copy" display="inline">
		<g id="eye_x5F_close_x5F_comp_copy_2">
		</g>
		<g id="eye_x5F_far_x5F_comp_copy_2">
		</g>
	</g>
	<g id="eye_x5F_close_copy" display="inline">
	</g>
	<g id="eye_x5F_far_copy" display="inline">
	</g>
	<g id="pupil_copy" display="inline">
	</g>
</g>
<g id="ch04-02-1">
	<g id="mainComp_x5F_paths-back-up" display="none">
		<g id="eye_x5F_close_x5F_comp_copy" display="inline">
		</g>
		<g id="eye_x5F_far_x5F_comp_copy" display="inline">
		</g>
	</g>
	<g id="mainComp">
		<g id="eye_x5F_close_x5F_comp">
		</g>
		<g id="eye_x5F_far_x5F_comp">
		</g>
	</g>
	<g id="eye_x5F_close_copy_2">
	</g>
	<g id="eye_x5F_close">
	</g>
	<g id="eye_x5F_far_copy_2">
	</g>
	<g id="eye_x5F_far">
	</g>
	<g id="pupil_copy_2">
	</g>
	<g id="pupil_4_">
	</g>
</g>
<g id="ch05-07-1">
	<g id="main_x5F_comp_1_">
		<g id="hand_washing_copy">
		</g>
	</g>
	<g id="assets">
	</g>
	<g id="hand_washing">
	</g>
</g>
<g id="ch08-04-1">
	<g id="Layer_104_copy">
	</g>
	<g id="Layer_104_copy_2">
	</g>
	<g id="Layer_104_copy_3">
	</g>
</g>
<g id="ch07-04-1">
	<g id="safecopy" display="none">
		<g id="handfront_copy" display="inline">
		</g>
		<g id="handback_copy" display="inline">
		</g>
	</g>
	<g id="Layer_121">
	</g>
	<g id="Layer_120">
	</g>
	<g id="handback_thumb">
	</g>
	<g id="handback_thumb_copy">
	</g>
	<g id="handback_thumb_copy_2">
	</g>
	<g id="handback_fingers">
	</g>
	<g id="handback_fingers_copy">
	</g>
	<g id="handback_fingers_copy_2">
	</g>
	<g id="handfront">
	</g>
	<g id="handfront_copy_2">
	</g>
	<g id="handfront_copy_3">
	</g>
	<g id="arm_11_">
	</g>
	<g id="forearm_3_">
	</g>
	<g id="forearm_copy">
	</g>
	<g id="forearm_copy_2">
	</g>
</g>
<g id="ch08-09-01">
	<g id="Layer_115">
	</g>
	<g id="Layer_115_copy">
	</g>
	<g id="Layer_115_copy_2">
	</g>
</g>
<g id="ch08-11">
	<g id="_x30_8-11-03">
		<g id="Layer_145">
		</g>
		<g id="Layer_145_copy">
		</g>
		<g id="Layer_145_copy_2">
		</g>
	</g>
	<g id="_x30_8-11-02">
		<g id="Layer_139">
		</g>
		<g id="Layer_140">
		</g>
		<g id="Layer_138">
		</g>
		<g id="Layer_139_copy">
		</g>
		<g id="Layer_139_copy_2">
		</g>
		<g id="Layer_140_copy">
		</g>
		<g id="Layer_140_copy_2">
		</g>
		<g id="Layer_138_copy">
		</g>
		<g id="Layer_138_copy_2">
		</g>
	</g>
	<g id="_x30_8-11-01">
		<g id="Layer_134">
		</g>
		<g id="Layer_134_copy">
		</g>
		<g id="Layer_134_copy_2">
		</g>
	</g>
</g>
<g id="ch08-10-1">
	<g id="Layer_132">
	</g>
	<g id="Layer_132_copy">
	</g>
	<g id="Layer_132_copy_2">
	</g>
</g>
<g id="ch08-12-01">
	<g id="Layer_154">
	</g>
	<g id="Layer_160">
	</g>
	<g id="Layer_160_copy">
		<path fill="#49301C" d="M6626.3,758.9c0-0.1,0-0.2-0.1-0.3c0-0.1,0-0.3-0.1-0.4c0-0.1-0.1-0.2-0.1-0.3c0,0,0,0,0,0
			c-0.7-2.8-1.3-5.6-1.5-8.5c0-0.5,0-1.1,0-1.7c0.1-3.4,0.9-6.7,0.6-10.1c-0.3-3.4-1.8-6.5-2.2-9.9c-0.8-7.1,0.7-14.7-2.2-21.5
			c-3-7-9.8-11.7-13.4-18.4c-0.2-0.3-0.4-0.4-0.7-0.4c-1.1-2-2.4-4.5-3.7-6.4c-6.1-9-20.9-17.8-31.2-9.9c-0.4-0.3-1-0.3-1.2,0.3
			c-1.6,5.5-5.5,10.6-8.2,15.6c-2.4,4.5-4.6,9.1-6.6,13.8c-4.1,9.9-7.1,20.2-9.5,30.6c-1.8,8.1-4.3,18.3,1.7,25.4
			c3.8,4.5,9.7,4.7,15.1,5.7c2.2,2,5.5,5,8.8,4.2c0.2,0.5,0.4,1.1,0.5,1.6c1.3,3.9,2.5,8.7,5,12c3.9,5.1,9.8,3,13.5-1
			c0.6,0.7,1.4,1.4,2.3,1.8c5.7,2.9,16-1.8,16.4-8.4c0-0.5-0.4-0.8-0.7-0.7c0.2-2.9-3.5-5.6-5.9-6c0.4-1.2,0.7-2.4,1-3.7
			c0.6-2.8,0.8-5.7,1.4-8.4c0.5,4,1.7,7.8,4.4,11.5c1.9,2.7,4.4,5.2,7.9,4.8c3.4-0.4,8.1-3.4,8.9-6.9
			C6627.1,762,6626.7,760.4,6626.3,758.9z"/>
	</g>
	<g id="Layer_160_copy_2">
		<g id="XMLID_126_">
			<g>
				<path fill="#49301C" d="M6606.7,687.4c0.3,0,0.5,0.1,0.7,0.4c3.6,6.7,10.3,11.4,13.4,18.4c2.9,6.8,1.4,14.4,2.2,21.5
					c0.4,3.4,1.9,6.5,2.2,9.9c0.3,3.4-0.5,6.7-0.6,10.1c0,0.6,0,1.1,0,1.7l-0.1,0c0-0.3-0.3-0.6-0.7-0.6c-0.2,0-0.4,0-0.7,0
					c0.1-3.5,0.8-7,0.6-10.6c-0.2-3.2-1.7-6.2-2.2-9.4c-0.4-2.7-0.4-5.4-0.4-8.2c-0.1-7.2-0.5-13.3-5.1-19.1c-3.4-4.3-7.3-8.1-10-13
					C6605.7,688,6606.2,687.5,6606.7,687.4z"/>
				<path fill="#734E27" d="M6616,701.6c4.6,5.9,5.1,11.9,5.1,19.1c0,2.7,0,5.5,0.4,8.2c0.5,3.2,2,6.1,2.2,9.4
					c0.2,3.6-0.4,7-0.6,10.6c-2.1,0.2-4.4,1.3-5.9,2.5c-2,1.6-1.6,3.2-0.6,5.2c0.9,1.8,2,4.1,4.1,4.7c1.6,0.5,3.1-0.3,4.4-1.3
					c0.4,2.3,0.1,4.5-1.9,6.3c-5.9,5.5-11.1,1.2-14.1-4.7c-2-3.7-2.3-7.4-2.2-11.1c0-2.5,0.2-5,0.1-7.7c-0.2-5.8-3.4-10.9-3.6-16.6
					c0-1-1.5-1-1.5,0c0.1,3.2,1,6.1,2,9.1c1.3,4.1,1.7,7.9,1.4,12.2c0,0.9-0.1,1.8-0.1,2.7c-1.7,3.9-1.6,8-2.6,12.1
					c-0.9,4.1-2.7,7.8-2.4,12.1c0.1,1,1.6,1,1.5,0.1c-0.2-2.8,0.6-5.4,1.3-8c2.5,0.4,6.1,3.1,5.9,6c-0.4,0-0.7,0.2-0.8,0.7
					c-0.3,4.6-6.7,7.8-10.8,7.9c-2.6,0-4.4-1.1-5.7-2.9c-1-1.4-1.7-3.2-2.3-5c-2.2-7.4-2.3-15.3-3.5-22.9c-0.2-1-1.6-0.6-1.5,0.3
					c1.1,6.8,1.3,13.7,2.8,20.5c0.6,2.5,1.3,5.3,2.7,7.5c-2.1,2.4-5.2,4.7-8.6,3.5c-3.9-1.3-5.3-7.1-6.5-10.5
					c-2.3-6.4-4.1-13-5.5-19.7c-0.2-1-1.7-0.6-1.5,0.3c0.9,4.5,2.1,9,3.4,13.4c-2.5,0.4-5.2-1.7-7.3-3.7c-0.1-0.2-0.2-0.4-0.4-0.4
					c-0.6-0.6-1.1-1.2-1.6-1.6c-2.3-2.4-4.6-5.1-6.3-8c-0.5-0.8-1.8-0.1-1.3,0.7c1.8,3,4.1,5.9,6.7,8.4c-5-0.8-10.1-1.5-13.1-6.3
					c-5.6-9.1-0.7-21.9,1.8-31.4c2.4-9,5.4-17.8,9.3-26.3c2.1-4.5,4.4-8.9,6.8-13.2c2.1-3.7,4.8-7.6,6-11.7c0.1-0.3,0-0.6-0.2-0.7
					c10.3-7.9,25.1,0.9,31.2,9.9c1.3,1.9,2.6,4.4,3.7,6.4c-0.5,0-0.9,0.5-0.6,1.1C6608.7,693.4,6612.6,697.2,6616,701.6z"/>
				<path fill="#49301C" d="M6624.5,749.4L6624.5,749.4c0.2,2.9,0.8,5.6,1.5,8.5c-0.1-0.2-0.2-0.4-0.3-0.6c-0.3-0.5-1-0.4-1.3,0
					c-0.4-1.6-0.9-3.2-1.1-4.7c-0.1-0.8-0.2-1.5-0.2-2.2c0.2,0,0.4,0,0.6,0C6624.3,750.3,6624.5,749.8,6624.5,749.4z"/>
				<path fill="#49301C" d="M6623.8,748.8c0.4,0,0.7,0.3,0.7,0.6c0,0.4-0.2,0.9-0.7,0.9c-0.2,0-0.4,0-0.6,0c0-0.5,0-1,0-1.5
					C6623.4,748.8,6623.6,748.8,6623.8,748.8z"/>
				<path fill="#49301C" d="M6623.1,748.8c0,0.5,0,1,0,1.5c-1.5,0.2-3,0.9-4.3,1.7c-0.7,0.4-1.7,1.1-1.7,2c0,0.7,0.6,1.6,0.9,2.3
					c0.6,1.2,1.5,3.1,2.9,3.5c1.3,0.4,2.6-0.6,3.5-1.5c0.1,0.2,0.2,0.4,0.2,0.5c0,0,0,0,0-0.1c0.1,0.4,0.1,0.7,0.2,1.1
					c-1.3,1-2.8,1.8-4.4,1.3c-2-0.6-3.2-2.9-4.1-4.7c-1-2.1-1.4-3.7,0.6-5.2C6618.8,750.1,6621.1,749,6623.1,748.8z"/>
				<path fill="#936E50" d="M6623.1,750.3c0,0.7,0.1,1.5,0.2,2.2c0.2,1.5,0.7,3.1,1.1,4.7c-0.1,0.2-0.2,0.5,0,0.7
					c0.1,0.1,0.1,0.2,0.2,0.3c-1,0.9-2.2,1.9-3.5,1.5c-1.5-0.4-2.3-2.3-2.9-3.5c-0.3-0.7-0.9-1.5-0.9-2.3c0-1,0.9-1.6,1.7-2
					C6620.1,751.2,6621.6,750.5,6623.1,750.3z"/>
				<path fill="#49301C" d="M6625.7,757.3c0.1,0.2,0.2,0.4,0.3,0.6c0,0,0,0,0,0c0.1,0.2,0.1,0.5,0.2,0.7c0,0.2-0.1,0.3-0.2,0.5
					c-0.3,0.3-0.6,0.6-1,0.8c-0.1-0.4-0.1-0.7-0.2-1.1c0.1-0.3,0.1-0.6,0.1-0.8c-0.1,0.1-0.2,0.2-0.3,0.3c-0.1-0.3-0.2-0.6-0.3-1
					C6624.7,756.9,6625.4,756.7,6625.7,757.3z"/>
				<path fill="#49301C" d="M6626,757.9c0,0.1,0.1,0.2,0.1,0.3c0.1,0.1,0.1,0.3,0.1,0.4C6626.1,758.4,6626.1,758.1,6626,757.9z"/>
				<path fill="#49301C" d="M6626.2,758.6c0,0.1,0,0.2,0.1,0.3c0.4,1.5,0.8,3.1,0.5,4.7c-0.8,3.5-5.5,6.6-8.9,6.9
					c-3.5,0.4-6-2.2-7.9-4.8c-2.7-3.7-4-7.4-4.4-11.5c0.3-1.1,0.6-2.3,1.1-3.4c0.1-0.1,0.1-0.3,0.1-0.4l0.3,0
					c0,3.7,0.3,7.4,2.2,11.1c3,5.8,8.2,10.2,14.1,4.7c2-1.8,2.2-4,1.9-6.3c0.3-0.3,0.7-0.6,1-0.8
					C6626.1,758.9,6626.2,758.8,6626.2,758.6z"/>
				<path fill="#49301C" d="M6625,758c0,0.3-0.1,0.6-0.1,0.8c0-0.2-0.1-0.4-0.1-0.6l0,0C6624.8,758.1,6624.9,758.1,6625,758z"/>
				<path fill="#49301C" d="M6624.4,757.3c0.1,0.3,0.2,0.7,0.3,1l0,0c0,0-0.1,0.1-0.1,0.1c-0.1-0.1-0.1-0.2-0.2-0.3
					C6624.2,757.7,6624.3,757.5,6624.4,757.3z"/>
				<path fill="#49301C" d="M6624.7,758.2c0.1,0.2,0.1,0.4,0.1,0.6c0,0,0,0,0,0.1C6624.8,758.7,6624.7,758.5,6624.7,758.2
					C6624.6,758.3,6624.6,758.3,6624.7,758.2z"/>
				<path fill="#49301C" d="M6601.8,726c0-1,1.5-0.9,1.5,0c0.2,5.8,3.4,10.9,3.6,16.6c0.1,2.7,0,5.2-0.1,7.7l-0.3,0
					c0-0.7-1-1.2-1.4-0.4c0,0,0,0,0,0.1c0-0.9,0-1.8,0.1-2.7c0.2-4.3-0.1-8.1-1.4-12.2C6602.9,732.1,6601.9,729.2,6601.8,726z"/>
				<path fill="#49301C" d="M6571.8,671.2c0.2,0.2,0.3,0.4,0.2,0.7c-1.2,4.1-3.9,8-6,11.7c-2.4,4.3-4.7,8.7-6.8,13.2
					c-3.9,8.5-6.9,17.3-9.3,26.3c-2.5,9.4-7.4,22.3-1.8,31.4c3,4.8,8.1,5.5,13.1,6.3c0.6,0.6,1.2,1.2,1.9,1.8c0,0,0,0,0,0
					c-5.4-1-11.2-1.2-15.1-5.7c-6-7.1-3.6-17.4-1.7-25.4c2.4-10.4,5.3-20.7,9.5-30.6c2-4.7,4.2-9.3,6.6-13.8
					c2.7-5,6.6-10.2,8.2-15.6C6570.7,670.9,6571.4,670.9,6571.8,671.2z"/>
				<path fill="#49301C" d="M6605.2,750c0.3-0.8,1.3-0.3,1.4,0.4c0,0.1,0,0.2-0.1,0.4c-0.5,1.1-0.8,2.2-1.1,3.4
					C6605.3,752.8,6605.2,751.5,6605.2,750C6605.2,750.1,6605.2,750,6605.2,750z"/>
				<path fill="#49301C" d="M6603.1,766.3c-0.8,2.6-1.5,5.2-1.3,8c0.1,1-1.4,0.9-1.5-0.1c-0.3-4.3,1.5-8,2.4-12.1
					c0.9-4.1,0.9-8.2,2.6-12.1c0,1.4,0.1,2.8,0.2,4.1c-0.6,2.8-0.7,5.6-1.4,8.4C6603.8,763.8,6603.4,765.1,6603.1,766.3z"/>
				<path fill="#49301C" d="M6609,772.2c0.4,0,0.8,0.2,0.7,0.7c-0.4,6.6-10.8,11.4-16.4,8.4c-0.9-0.5-1.7-1.1-2.3-1.8
					c0.1-0.1,0.2-0.3,0.4-0.4c0.3-0.3,0.2-0.7,0-1l0.4-0.2c1.3,1.7,3.1,2.9,5.7,2.9c4.1-0.1,10.5-3.3,10.8-7.9
					C6608.3,772.5,6608.6,772.3,6609,772.2z"/>
				<path fill="#49301C" d="M6584.6,750.3c-0.2-1,1.3-1.3,1.5-0.3c1.2,7.6,1.3,15.5,3.5,22.9c0.5,1.8,1.2,3.6,2.3,5l-0.4,0.2
					c-0.3-0.3-0.7-0.5-1.1-0.1c-0.1,0.1-0.2,0.2-0.2,0.3c-1.4-2.2-2.1-5.1-2.7-7.5C6585.8,764.1,6585.6,757.1,6584.6,750.3z"/>
				<path fill="#49301C" d="M6591.4,778.2c0.2,0.3,0.3,0.7,0,1c-0.1,0.1-0.2,0.3-0.4,0.4c-0.3-0.4-0.6-0.8-0.9-1.2
					c0.1-0.1,0.2-0.2,0.2-0.3C6590.7,777.7,6591.1,777.8,6591.4,778.2z"/>
				<path fill="#49301C" d="M6590.1,778.3c0.3,0.4,0.6,0.8,0.9,1.2c-3.7,4-9.7,6.1-13.5,1c-2.5-3.3-3.7-8.1-5-12
					c-0.2-0.5-0.4-1.1-0.5-1.6c0.1,0,0.1,0,0.2,0c0.9-0.2,0.6-1.7-0.3-1.5c-0.1,0-0.2,0-0.3,0.1c-1.4-4.4-2.5-8.9-3.4-13.4
					c-0.2-0.9,1.3-1.3,1.5-0.3c1.4,6.7,3.2,13.3,5.5,19.7c1.2,3.4,2.6,9.1,6.5,10.5C6584.9,783,6587.9,780.7,6590.1,778.3z"/>
				<path fill="#49301C" d="M6571.8,765.4c0.9-0.2,1.3,1.2,0.3,1.5c-0.1,0-0.1,0-0.2,0c-0.2-0.5-0.3-1-0.4-1.4
					C6571.6,765.4,6571.7,765.4,6571.8,765.4z"/>
				<path fill="#49301C" d="M6571.5,765.4c0.1,0.5,0.3,1,0.4,1.4c-3.3,0.7-6.5-2.2-8.8-4.2c0,0,0.1,0,0.1,0c0.6,0.1,1.1-0.5,0.9-1
					C6566.3,763.7,6569,765.9,6571.5,765.4z"/>
				<path fill="#49301C" d="M6563.8,761.3c0.3,0.1,0.4,0.2,0.4,0.4C6564.1,761.6,6563.9,761.4,6563.8,761.3z"/>
				<path fill="#49301C" d="M6563.8,761.3c0.1,0.1,0.3,0.3,0.4,0.4c0.1,0.5-0.3,1.1-0.9,1c0,0-0.1,0-0.1,0c0,0,0,0,0,0
					c-0.6-0.6-1.3-1.2-1.9-1.8C6562.1,761,6562.9,761.1,6563.8,761.3C6563.7,761.3,6563.8,761.3,6563.8,761.3z"/>
				<path fill="#49301C" d="M6563.8,761.3C6563.8,761.3,6563.7,761.3,6563.8,761.3c-0.9-0.2-1.7-0.3-2.6-0.5
					c-2.5-2.5-4.9-5.4-6.7-8.4c-0.5-0.8,0.8-1.5,1.3-0.7c1.7,2.9,4,5.5,6.3,8C6562.6,760.1,6563.2,760.7,6563.8,761.3z"/>
			</g>
		</g>
	</g>
</g>
<g id="ch08-12-02">
	<g id="Layer_158_copy">
	</g>
	<g id="Layer_159">
	</g>
	<g id="Layer_158">
	</g>
	<g id="Layer_158_copy_2">
	</g>
</g>
</svg>
