<?xml version="1.0" encoding="utf-8"?>
<!-- Generator: Adobe Illustrator 18.1.1, SVG Export Plug-In . SVG Version: 6.00 Build 0)  -->
<svg version="1.1" xmlns="http://www.w3.org/2000/svg" xmlns:xlink="http://www.w3.org/1999/xlink" x="0px" y="0px"
	 viewBox="1232.4 2198.5 58 51.8" enable-background="new 1232.4 2198.5 58 51.8" xml:space="preserve">
<g id="additional_reference">
</g>
<g id="ch07-09-1">
</g>
<g id="ch04-05-1">
</g>
<g id="ch04-11-2">
</g>
<g id="ch04-06-1">
	<g id="older_version">
		<g id="head_3_" display="none">
			<g id="hair_3_">
			</g>
		</g>
		<g id="hands" display="none">
		</g>
		<g id="head_4_" display="none">
		</g>
		<g id="new_path" display="none">
		</g>
		<g id="handback" display="none">
		</g>
		<g id="handFront">
		</g>
		<g id="Layer_21" display="none">
		</g>
	</g>
	<g id="path_copy-with_stroke">
		<g id="handBack_copy">
		</g>
		<g id="head_copy">
		</g>
		<g id="neck_copy">
		</g>
		<g id="sleeve_copy">
		</g>
		<g id="handFront_copy">
		</g>
		<g id="skirt_copy">
		</g>
		<g id="torso_copy">
		</g>
	</g>
	<g id="comp_layer">
		<g id="skirt_copy_3">
			<g id="skirt_copy_3_2_">
			</g>
			<g id="skirt_copy_3_1_">
			</g>
		</g>
		<g id="torso_copy_2">
		</g>
		<g id="sleeve_copy_2">
		</g>
		<g id="neck_5_">
		</g>
		<g id="head_copy_2">
			<g id="head-silo_copy">
			</g>
		</g>
		<g id="head_copy_3">
			<g id="head-silo_copy_2">
			</g>
		</g>
		<g id="handFront_copy_2">
		</g>
		<g id="handBack_copy_2">
		</g>
	</g>
	<g id="skirt_5_">
		<g id="skirt_4_">
		</g>
		<g id="skirt_copy_2">
		</g>
	</g>
	<g id="torso_copy_3">
	</g>
	<g id="sleeve">
	</g>
	<g id="neck_6_">
	</g>
	<g id="handBack">
	</g>
	<g id="handFront_1_">
	</g>
</g>
<g id="ch04-03-2">
	<g>
		<path fill="#49301C" d="M1290.1,2215c1.2-2.5-2.8-11.2-2.8-11.2l0-0.5c0.2,0,0.3,0,0.4,0c0.3-0.3-3.1-2-3.2-2.1l-1.2-0.6
			c-8.4-3.8-13.5-1.6-21.9-0.5c-4,0.5-7.9,1.7-11.4,3.6c-1.1,0.6-2.6,1.4-4,3.2c0,0-11.4,10-12.6,19.2c-0.4,0.2-0.8,3.3-0.8,3.6
			l-0.2,2.1c0.3,7.1,1.3,11.9,8.6,15c7.5,3.1,15.3,4.7,23.3,2.8c11.9-2.9,26.2-17,26-31.7C1290.3,2217.6,1290.5,2214.8,1290.1,2215z
			"/>
	</g>
	<g id="assets_2_">
		<g id="torso_x5F_34down_2_">
			<g id="XMLID_19_">
				<g>
					<path fill="#49301C" d="M1233.4,2226c0.4-0.2,0.1,4.3,0.1,4.4c0.2,5,1,9.3,5,12.9c4.6,4.2,14.5,6.1,20.5,5.4
						c14-1.8,30.6-16.4,30.6-31.1c0-0.2,0.2-2.4,0.6-2.6c0.4-0.2,0.2,2.6,0.2,2.8c0.2,14.7-14.2,28.7-26,31.7
						c-8.1,2-15.8,0.4-23.3-2.8c-7.3-3-8.2-7.8-8.6-15l0.2-2.1C1232.6,2229.3,1233,2226.2,1233.4,2226z"/>
					<path fill="#49301C" d="M1259.1,2201.5c-1.7,0.4-3.3,1.1-4.9,1.8c-1.1,0.4-8,3.6-8.2,3.6c1.4-1.8,2.9-2.6,4-3.2
						c3.5-1.9,7.5-3,11.4-3.6c8.4-1.1,13.5-3.3,21.9,0.5l1.2,0.6c0.2,0.1,3.6,1.8,3.2,2.1c-0.1,0-0.2,0-0.4,0
						c-1.1-0.1-4-1.1-4.1-1.2c-5.6-2.5-8-1.9-14.1-1.8C1265.7,2200.3,1262.3,2200.7,1259.1,2201.5z"/>
					<path fill="#734E27" d="M1269,2200.3c6.2-0.1,8.5-0.7,14.1,1.8c0.2,0.1,3.1,1.1,4.1,1.2l0,0.5c0,0,4,8.7,2.8,11.2
						c-0.4,0.2-0.6,2.4-0.6,2.6c0.1,14.7-16.6,29.3-30.6,31.1c-6,0.8-15.8-1.2-20.5-5.4c-4-3.6-4.7-7.9-5-12.9
						c0-0.2,0.3-4.6-0.1-4.4c1.3-9.2,12.6-19.2,12.6-19.2c0.2,0,7.1-3.2,8.2-3.6c1.6-0.6,3.3-1.3,4.9-1.8
						C1262.3,2200.7,1265.7,2200.3,1269,2200.3z"/>
				</g>
			</g>
		</g>
	</g>
</g>
<g id="ch04-02-2_safe_copy" display="none">
	<g id="mainComp_x5F_paths-back-up_copy">
		<g id="eye_x5F_close_x5F_comp_copy_2_1_" display="inline">
		</g>
		<g id="eye_x5F_far_x5F_comp_copy_2_1_" display="inline">
		</g>
	</g>
	<g id="mainComp_copy" display="inline">
		<g id="eye_x5F_close_x5F_comp_copy_2">
		</g>
		<g id="eye_x5F_far_x5F_comp_copy_2">
		</g>
	</g>
	<g id="eye_x5F_close_copy" display="inline">
	</g>
	<g id="eye_x5F_far_copy" display="inline">
	</g>
	<g id="pupil_copy" display="inline">
	</g>
</g>
<g id="ch04-02-1">
	<g id="mainComp_x5F_paths-back-up" display="none">
		<g id="eye_x5F_close_x5F_comp_copy" display="inline">
		</g>
		<g id="eye_x5F_far_x5F_comp_copy" display="inline">
		</g>
	</g>
	<g id="mainComp">
		<g id="eye_x5F_close_x5F_comp">
		</g>
		<g id="eye_x5F_far_x5F_comp">
		</g>
	</g>
	<g id="eye_x5F_close_copy_2">
	</g>
	<g id="eye_x5F_close">
	</g>
	<g id="eye_x5F_far_copy_2">
	</g>
	<g id="eye_x5F_far">
	</g>
	<g id="pupil_copy_2">
	</g>
	<g id="pupil_4_">
	</g>
</g>
<g id="ch05-07-1">
	<g id="main_x5F_comp_1_">
		<g id="hand_washing_copy">
		</g>
	</g>
	<g id="assets">
	</g>
	<g id="hand_washing">
	</g>
</g>
</svg>
