<?xml version="1.0" encoding="utf-8"?>
<!-- Generator: Adobe Illustrator 18.1.1, SVG Export Plug-In . SVG Version: 6.00 Build 0)  -->
<svg version="1.1" xmlns="http://www.w3.org/2000/svg" xmlns:xlink="http://www.w3.org/1999/xlink" x="0px" y="0px"
	 viewBox="1209.1 559.2 30.6 6.5" enable-background="new 1209.1 559.2 30.6 6.5" xml:space="preserve">
<g id="additional_reference">
</g>
<g id="ch07-09-1">
</g>
<g id="ch04-05-1">
</g>
<g id="ch04-11-2">
</g>
<g id="ch04-06-1">
	<g id="older_version">
		<g id="head_3_" display="none">
			<g id="hair_3_">
			</g>
		</g>
		<g id="hands" display="none">
		</g>
		<g id="head_4_" display="none">
		</g>
		<g id="new_path" display="none">
		</g>
		<g id="handback" display="none">
		</g>
		<g id="handFront">
		</g>
		<g id="Layer_21" display="none">
		</g>
	</g>
	<g id="path_copy-with_stroke">
		<g id="handBack_copy">
		</g>
		<g id="head_copy">
		</g>
		<g id="neck_copy">
		</g>
		<g id="sleeve_copy">
		</g>
		<g id="handFront_copy">
		</g>
		<g id="skirt_copy">
		</g>
		<g id="torso_copy">
		</g>
	</g>
	<g id="comp_layer">
		<g id="skirt_copy_3">
			<g id="skirt_copy_3_2_">
			</g>
			<g id="skirt_copy_3_1_">
			</g>
		</g>
		<g id="torso_copy_2">
		</g>
		<g id="sleeve_copy_2">
		</g>
		<g id="neck_5_">
		</g>
		<g id="head_copy_2">
			<g id="head-silo_copy">
			</g>
		</g>
		<g id="head_copy_3">
			<g id="head-silo_copy_2">
			</g>
		</g>
		<g id="handFront_copy_2">
		</g>
		<g id="handBack_copy_2">
		</g>
	</g>
	<g id="skirt_5_">
		<g id="skirt_4_">
		</g>
		<g id="skirt_copy_2">
		</g>
	</g>
	<g id="torso_copy_3">
	</g>
	<g id="sleeve">
	</g>
	<g id="neck_6_">
	</g>
	<g id="handBack">
	</g>
	<g id="handFront_1_">
	</g>
</g>
<g id="ch04-03-2">
</g>
<g id="ch04-02-2_safe_copy" display="none">
	<g id="mainComp_x5F_paths-back-up_copy">
		<g id="eye_x5F_close_x5F_comp_copy_2_1_" display="inline">
		</g>
		<g id="eye_x5F_far_x5F_comp_copy_2_1_" display="inline">
		</g>
	</g>
	<g id="mainComp_copy" display="inline">
		<g id="eye_x5F_close_x5F_comp_copy_2">
		</g>
		<g id="eye_x5F_far_x5F_comp_copy_2">
		</g>
	</g>
	<g id="eyebrows_3_" display="inline">
		<path d="M1238.6,560.3c-5.6,2.9-9.6-0.6-15.2-1.1c-4-0.3-8.5,0.6-11.5,3.4c0,0,0,0,0,0l0,0c-0.9,1-1.9,2-2.8,3c0,0,0,0,0.1,0
			l3.8-1.3c3.9-1.3,10.3-2.8,14.3-1c3.5,1.6,10.8,4.9,12.3-1.3c0,0,0,0,0-0.1C1239.7,561.7,1239,560.2,1238.6,560.3z"/>
		<g id="XMLID_47_">
			<g>
				<path fill="#25211E" d="M1237.4,562.8c-3,3.5-9.6-1.2-13.2-1.3c-4.1-0.2-7.4,0.4-10.3,1.6c1.6-1.8,5.1-3,11.1-2.2
					C1229.1,561.3,1233.5,563.5,1237.4,562.8z"/>
				<path d="M1238.6,560.3c-5.6,2.9-9.6-0.6-15.2-1.1c-4-0.3-8.5,0.6-11.5,3.4c0,0,0,0,0,0l0,0c-0.9,1-1.9,2-2.8,3c0,0,0,0,0.1,0
					l3.8-1.3c3.9-1.3,10.3-2.8,14.3-1c3.5,1.6,10.8,4.9,12.3-1.3c0,0,0,0,0-0.1C1239.7,561.7,1239,560.2,1238.6,560.3z
					 M1224.2,561.5c-4.1-0.2-7.4,0.4-10.3,1.6c1.6-1.8,5.1-3,11.1-2.2c4.1,0.5,8.5,2.7,12.5,2
					C1234.5,566.2,1227.8,561.6,1224.2,561.5z"/>
			</g>
		</g>
	</g>
	<g id="eye_x5F_close_copy" display="inline">
	</g>
	<g id="eye_x5F_far_copy" display="inline">
	</g>
	<g id="pupil_copy" display="inline">
	</g>
</g>
<g id="ch04-02-1">
	<g id="mainComp_x5F_paths-back-up" display="none">
		<g id="eye_x5F_close_x5F_comp_copy" display="inline">
		</g>
		<g id="eye_x5F_far_x5F_comp_copy" display="inline">
		</g>
	</g>
	<g id="mainComp">
		<g id="eye_x5F_close_x5F_comp">
		</g>
		<g id="eye_x5F_far_x5F_comp">
		</g>
	</g>
	<path d="M1238.6,560.3c-5.6,2.9-9.6-0.6-15.2-1.1c-4-0.3-8.5,0.6-11.5,3.4c0,0,0,0,0,0l0,0c-0.9,1-1.9,2-2.8,3c0,0,0,0,0.1,0
		l3.8-1.3c3.9-1.3,10.3-2.8,14.3-1c3.5,1.6,10.8,4.9,12.3-1.3c0,0,0,0,0-0.1C1239.7,561.7,1239,560.2,1238.6,560.3z"/>
	<g id="eyebrows_6_">
		<path d="M1238.6,560.3c-5.6,2.9-9.6-0.6-15.2-1.1c-4-0.3-8.5,0.6-11.5,3.4c0,0,0,0,0,0l0,0c-0.9,1-1.9,2-2.8,3c0,0,0,0,0.1,0
			l3.8-1.3c3.9-1.3,10.3-2.8,14.3-1c3.5,1.6,10.8,4.9,12.3-1.3c0,0,0,0,0-0.1C1239.7,561.7,1239,560.2,1238.6,560.3z"/>
		<g id="XMLID_10_">
			<g>
				<path fill="#25211E" d="M1237.4,562.8c-3,3.5-9.6-1.2-13.2-1.3c-4.1-0.2-7.4,0.4-10.3,1.6c1.6-1.8,5.1-3,11.1-2.2
					C1229.1,561.3,1233.5,563.5,1237.4,562.8z"/>
				<path d="M1238.6,560.3c-5.6,2.9-9.6-0.6-15.2-1.1c-4-0.3-8.5,0.6-11.5,3.4c0,0,0,0,0,0l0,0c-0.9,1-1.9,2-2.8,3c0,0,0,0,0.1,0
					l3.8-1.3c3.9-1.3,10.3-2.8,14.3-1c3.5,1.6,10.8,4.9,12.3-1.3c0,0,0,0,0-0.1C1239.7,561.7,1239,560.2,1238.6,560.3z
					 M1224.2,561.5c-4.1-0.2-7.4,0.4-10.3,1.6c1.6-1.8,5.1-3,11.1-2.2c4.1,0.5,8.5,2.7,12.5,2
					C1234.5,566.2,1227.8,561.6,1224.2,561.5z"/>
			</g>
		</g>
	</g>
	<g id="eye_x5F_close_copy_2">
	</g>
	<g id="eye_x5F_close">
	</g>
	<g id="eye_x5F_far_copy_2">
	</g>
	<g id="eye_x5F_far">
	</g>
	<g id="pupil_copy_2">
	</g>
	<g id="pupil_4_">
	</g>
</g>
<g id="ch05-07-1">
	<g id="main_x5F_comp_1_">
		<g id="hand_washing_copy">
		</g>
	</g>
	<g id="assets">
	</g>
	<g id="hand_washing">
	</g>
</g>
</svg>
