<?xml version="1.0" encoding="utf-8"?>
<!-- Generator: Adobe Illustrator 18.1.1, SVG Export Plug-In . SVG Version: 6.00 Build 0)  -->
<svg version="1.1" xmlns="http://www.w3.org/2000/svg" xmlns:xlink="http://www.w3.org/1999/xlink" x="0px" y="0px"
	 viewBox="1463.3 1376.9 116.5 223.3" enable-background="new 1463.3 1376.9 116.5 223.3" xml:space="preserve">
<g id="additional_reference">
</g>
<g id="ch07-09-1">
</g>
<g id="ch04-05-1">
</g>
<g id="ch04-11-2">
</g>
<g id="ch04-06-1">
	<g id="older_version">
		<g id="head_3_" display="none">
			<g id="hair_3_">
			</g>
		</g>
		<g id="hands" display="none">
		</g>
		<g id="head_4_" display="none">
		</g>
		<g id="new_path" display="none">
		</g>
		<g id="handback" display="none">
		</g>
		<g id="handFront">
		</g>
		<g id="Layer_21" display="none">
		</g>
	</g>
	<g id="path_copy-with_stroke">
		<g id="handBack_copy">
		</g>
		<g id="head_copy">
		</g>
		<g id="neck_copy">
		</g>
		<g id="sleeve_copy">
		</g>
		<g id="handFront_copy">
		</g>
		<g id="skirt_copy">
		</g>
		<g id="torso_copy">
		</g>
	</g>
	<g id="comp_layer">
		<g id="skirt_copy_3">
			<g id="skirt_copy_3_2_">
			</g>
			<g id="skirt_copy_3_1_">
			</g>
		</g>
		<g id="torso_copy_2">
		</g>
		<g id="sleeve_copy_2">
		</g>
		<g id="neck_5_">
		</g>
		<g id="head_copy_2">
			<g id="head-silo_copy">
			</g>
		</g>
		<g id="head_copy_3">
			<g id="head-silo_copy_2">
			</g>
		</g>
		<g id="handFront_copy_2">
		</g>
		<g id="handBack_copy_2">
		</g>
	</g>
	<g id="skirt_5_">
		<g id="skirt_4_">
		</g>
		<g id="skirt_copy_2">
		</g>
	</g>
	<g id="torso_copy_3">
	</g>
	<g id="sleeve">
	</g>
	<g id="neck_6_">
	</g>
	<g id="handBack">
	</g>
	<g id="handFront_1_">
	</g>
</g>
<g id="ch04-03-2">
</g>
<g id="ch04-02-2_safe_copy" display="none">
	<g id="mainComp_x5F_paths-back-up_copy">
		<g id="eye_x5F_close_x5F_comp_copy_2_1_" display="inline">
		</g>
		<g id="eye_x5F_far_x5F_comp_copy_2_1_" display="inline">
		</g>
	</g>
	<g id="mainComp_copy" display="inline">
		<g id="eye_x5F_close_x5F_comp_copy_2">
		</g>
		<g id="eye_x5F_far_x5F_comp_copy_2">
		</g>
	</g>
	<g id="_x33_4front_leg_x5F_NEW_1_" display="inline">
		<path d="M1579.1,1572.6c0.1-0.2,0.2-0.4,0.3-0.7c0,0-0.2,0.1-0.4,0.2c-0.4-1.6-1.2-3-2.2-4.1c0,0-0.1,0-0.1,0
			c0-0.8-0.4-1.7-1.3-2.4c-1.1-0.9-3.8-1.2-4.6-2.1c-0.1-0.1,0.1-0.7,0-0.9c-1.4-2.1-3.1-2.8-5.6-3.3c-12-2.3-24.8-3.4-35.1-10.9
			c-5-3.6-10.5-6.3-14.8-10.8c-4.4-4.5-7-11.2-8.6-17.2c-1.5-5.4-1.6-10.6-1.8-16.1c-0.3-8.2-0.4-16.3-0.2-24.5
			c0.3-15.5,3.1-31.1,1.3-46.6c0.4-2.5,1.8-4.8,2.1-7.5c0.4-3.3,0.7-6.7,0.6-10c-0.1-2.9-0.5-5.4-0.2-8.3c0.4-4.6,0.6-9.1,0.5-13.7
			c-0.2-5.9-1.9-11.1-7.4-14.3c-4.5-2.6-10.8-3.2-15.7-1.4c-8.8,3.2-12.3,12.4-13.7,20.8c-1.3,7.6-2.3,15-2.3,22.6
			c0,4.1,0.6,8.7,0,12.8c-0.3,1.8-1,3.6-1.5,5.4c-3.8,16-3.2,32.4,1.4,48.1c3.6,12.3,9.3,24.4,9.4,37.5c0,5.5-1.8,11.5-3.4,16.7
			c-0.8,2.6-1.7,5-3.2,7.2c-1.2,1.8-2.2,4-2.3,6.2v0c-1.7,0.6-3.3,2.2-4.4,3.5c0,0,0,0,0,0c-0.1,0.1-0.1,0.1-0.1,0.2
			c-1.1,3.1-3.5,10-1.4,12.8c0.6,0.8,2.5,1.4,3.4,1.8c2.4,1.1,5,1.9,7.5,2.6c5.9,1.6,11.8,1.5,17.7,2.9c5.2,1.2,9.2,3.8,13.4,7
			c4.9,3.8,10.7,6.6,16.6,8.4c5.9,1.8,11.4,4.1,17.6,4.8c9.1,1.1,18.2,0.6,26-4.7c4.4-3,10-7.5,12-12.7
			C1579.5,1579.4,1579.8,1575.8,1579.1,1572.6z"/>
		<g id="XMLID_46_">
			<g>
				<path fill="#58719A" d="M1576.1,1577c0.8-1.6,0.3-3.9-1-6.1c0.4-0.4,0.8-0.8,1.1-1.3c0.8,1.1,1.4,2.4,1.8,3.9
					c-0.4,1.2-1,2.4-1.6,3.7L1576.1,1577z"/>
				<path d="M1575.7,1568.7c0.2-0.3,0.7-0.7,1-0.7c0,0.6-0.2,1.1-0.5,1.6c-0.1-0.2-0.3-0.3-0.4-0.5
					C1575.7,1569,1575.7,1568.9,1575.7,1568.7z"/>
				<path d="M1575.7,1568.7c0,0.1,0,0.3,0,0.4c0,0-0.1-0.1-0.1-0.1C1575.6,1569,1575.6,1568.9,1575.7,1568.7z"/>
				<path d="M1566,1576.4C1566.1,1576.5,1566.1,1576.5,1566,1576.4C1566.1,1576.5,1566,1576.5,1566,1576.4z"/>
				<path d="M1565,1576.2c0.4,0.1,0.8,0.1,0.9,0.2C1565.8,1576.4,1565.4,1576.3,1565,1576.2z"/>
				<path d="M1574.5,1571c0.9-0.6,1.2-1.3,1.3-1.8c0.2,0.2,0.3,0.3,0.4,0.5c-0.3,0.5-0.6,0.9-1.1,1.3c1.3,2.2,1.8,4.5,1,6.1
					c-0.5,0.9-1.4,1.6-2.7,2.1c-0.6,4.1-4.9,6-8.9,5.2c0.3-0.3,0.6-0.7,0.8-1.1c3,0.7,6.1,0.1,6.3-3.7c0-0.3,0.7-0.9,1-0.9
					c3.8-0.7,2.7-4.5,1.2-6.8C1573.7,1571.5,1574.4,1571.1,1574.5,1571z"/>
				<path d="M1563.9,1584.1c-0.2-0.1,0.7-1.1,1-1c0.1,0,0.2,0.1,0.3,0.1c-0.3,0.4-0.5,0.7-0.8,1.1
					C1564.3,1584.2,1564.1,1584.2,1563.9,1584.1z"/>
				<path d="M1563.4,1575.9c0,0,0.7,0.1,1.4,0.3c-0.6-0.1-1.1-0.1-1.3-0.1c-0.2,0-0.3-0.1-0.5-0.1
					C1563.2,1575.9,1563.3,1575.9,1563.4,1575.9z"/>
				<path fill="#B2987B" d="M1563.1,1575.9c-3.4,0.2-8.4,1.1-10.6,4c-2.1-0.4-5.2-1.4-5.3-3.4c-0.1-2.6,8.6-2.4,9.9-2.4c0,0,0,0,0,0
					C1559.1,1574.9,1561.1,1575.5,1563.1,1575.9z"/>
				<path fill="#604222" d="M1507.7,1391.9c0.3,4.9,0.2,9.9-0.2,14.9c-0.2,3.1-0.2,5.5,0,8.6c0,0.3,0,0.7,0,1
					c-18.7,7.4-36,2.3-36.5,2.1c0.2-5.9,0.8-11.7,1.8-17.7c1.1-6.7,2-13.6,7.3-18.5C1489,1374,1506.9,1378.8,1507.7,1391.9z"/>
				<path fill="#734E27" d="M1507.6,1416.4c0.1,3-0.2,6-0.5,9c-0.3,2.2-0.5,4.4-1.3,6.5c-0.3,0.7-0.7,1.4-0.9,2.1c0,0.1,0,0.1,0,0.2
					c1.3,11.5,0.3,23.3-0.8,34.8c-1.2,13.6-0.8,27.4-0.2,41.1c0.4,9.6,3,20.6,9.6,28c4.1,4.5,9.4,7.3,14.4,10.7
					c4.8,3.2,9.5,5.6,15.1,7.4c5.6,1.8,11.4,3.1,17.2,3.9c2.1,0.3,10.5,0.7,9.4,4.6c0,0.1,0,0.1,0.1,0.1c1.4,0.5,5.7,2.2,6,4.2
					c-0.1,0.1-0.1,0.2-0.1,0.3c0,0,0.1,0.1,0.1,0.1c0,0.6-0.4,1.2-1.3,1.8c-0.1,0.1-0.7,0.5-0.6,0.8c1.4,2.3,2.6,6.2-1.2,6.8
					c-0.3,0.1-1,0.6-1,0.9c-0.2,3.8-3.3,4.4-6.3,3.7c1.4-2.1,2.1-4.7,2-7.6c0-0.1,0-0.1-0.1-0.1c-3.9-0.6-8-1.6-11.4-3.6
					c-0.3-0.2-1.3,0.9-1.2,1c0.2,0.1,0.4,0.2,0.6,0.3c-3.3,0.1-7.6,0.7-8.8,3.3c-1.3,2.9,5.4,4.6,7.5,5c0.3,0.1,0.9-0.6,1.1-0.8
					c1.2-2.6,8.6-4,11.1-4.2c1.1,1.3-0.9,5.1-1.7,6.3c-4.3,5.8-12,5.4-18.1,3.2c-2.8-1-3.3-1.1-6.5-1.2c-3.8-0.1-7.9-0.8-11.4-2.3
					c-5.6-2.3-10.3-6.1-15.4-9.2c-11.1-6.7-25-3.4-36-9.9c-3.3-2-5.2-4.9-5.3-8.1c-0.1-2.1,0.5-4.4,1.9-6.5
					c3.1-4.6,4.3-10.4,5.5-15.8c1.1-5.3,1.5-9.7,0.7-15.1c-0.8-4.9-1.9-9.9-3.4-14.6c-4.3-13.3-9-26.4-9.4-40.5
					c-0.2-8,0.8-16.1,2.6-23.9c0.4-1.7,1.1-3.5,1.4-5.3c0.6-3.5,0.1-7.6,0.1-11.2c0-1.3,0-2.7,0.1-4
					C1471.6,1418.7,1488.9,1423.8,1507.6,1416.4z"/>
				<path d="M1566,1576.4c-0.2-0.1-0.5-0.2-0.9-0.2C1565.4,1576.3,1565.8,1576.4,1566,1576.4z M1564.9,1583.1c-0.3-0.1-1.2,1-1,1
					c0.2,0,0.4,0.1,0.5,0.1c-1.1,1.2-2.4,2.2-4,3c-8.3,4-11.7,0.9-17.3-0.7c-2-0.6-4.2-0.3-6.3-0.5c-2.1-0.2-4.3-0.9-6.4-1.5
					c-3.4-0.9-6.5-2.5-9.5-4.3c-3-1.7-5.8-3.8-8.7-5.7c-3.8-2.5-8.6-3.7-13-4.7c-6.6-1.4-13.1-1.2-19.4-3.7c-4.5-1.8-9.4-4.6-9.6-10
					c0,0,0,0,0.1,0c0.3,0,0.6-0.3,0.8-0.5c0,0,0.3-0.3,0.3-0.5l0.2,0c0.2,3.2,2,6.2,5.3,8.1c11,6.5,24.9,3.2,36,9.9
					c5.1,3.1,9.8,6.9,15.4,9.2c3.6,1.5,7.6,2.2,11.4,2.3c3.2,0.1,3.7,0.1,6.5,1.2c6.1,2.2,13.8,2.6,18.1-3.2c0.8-1.1,2.9-5,1.7-6.3
					c0.1,0,0,0-0.1-0.1c0,0,0.1,0,0.1,0.1c-2.5,0.2-9.9,1.6-11.1,4.2c-0.1,0.3-0.7,0.9-1.1,0.8c-2.1-0.4-8.8-2.1-7.5-5
					c1.2-2.7,5.4-3.2,8.8-3.3c-0.2-0.1-0.4-0.2-0.6-0.3c-0.1-0.1,0.8-1.2,1.2-1c3.4,2,7.5,3,11.4,3.6c0,0,0.1,0,0.1,0.1
					c0.1,3-0.6,5.6-2,7.6C1565.1,1583.2,1565,1583.2,1564.9,1583.1z M1557.2,1574.2c-1.3,0-10.1-0.2-9.9,2.4c0.1,2,3.1,2.9,5.3,3.4
					c2.2-2.9,7.2-3.8,10.6-4c0.2,0,0.3,0.1,0.5,0.1c0.1,0,0.7,0.1,1.3,0.1c-0.7-0.2-1.4-0.3-1.4-0.3c-0.1,0-0.2,0-0.3,0
					C1561.1,1575.5,1559.1,1574.9,1557.2,1574.2C1557.2,1574.2,1557.2,1574.2,1557.2,1574.2z"/>
				<path d="M1470.2,1556.1c0-0.2,0-0.4,0-0.7c0,0,0,0,0,0c0.4-0.1,0.7-0.2,1.1-0.2c0,0,0.1,0,0.1,0c0,0.1-0.3,0.4-0.3,0.5
					c-0.2,0.2-0.5,0.5-0.8,0.5c0,0,0,0-0.1,0C1470.2,1556.2,1470.2,1556.1,1470.2,1556.1z"/>
				<path fill="#58719A" d="M1481.2,1570.2c-6.9-1.1-15.1-6-12.2-13.5c0.4-0.2,0.9-0.4,1.3-0.4c0.2,5.4,5.1,8.3,9.6,10
					c6.3,2.5,12.9,2.3,19.4,3.7c4.4,0.9,9.2,2.2,13,4.7c2.9,1.9,5.7,3.9,8.7,5.7c3,1.8,6.1,3.4,9.5,4.3c2.1,0.6,4.3,1.3,6.4,1.5
					c2.1,0.2,4.4-0.1,6.3,0.5c5.6,1.6,8.9,4.7,17.3,0.7c1.6-0.8,2.9-1.8,4-3c4,0.8,8.3-1.1,8.9-5.2c1.4-0.4,2.3-1.1,2.7-2.1l0.3,0.1
					c-2,4-4.9,7.8-8.3,10.4c-2.8,2.1-6.8,3.2-10.1,4.2c-9.5,3-20.3,1.1-29.5-1.9c-4.2-1.3-7.9-3.2-11.8-5.2
					c-3.4-1.8-6.2-4.6-9.5-6.6C1499.1,1573.3,1490.2,1571.6,1481.2,1570.2z"/>
				<path fill="#58719A" d="M1466.2,1571.4c-2.9-2.5-0.6-9.6,0.6-12.9c0.3-0.4,0.8-0.9,1.2-1.3c-2.6,6.9,3.3,12.4,10,13.5
					c9.8,1.6,19.5,3,28.2,8.5c2.2,1.4,4,3.4,6.1,4.9c1.8,1.3,4.1,2.2,6,3.1c4,2,8.2,3.5,12.5,4.7c9.7,2.7,19.9,4.1,29.5,0.7
					c3.9-1.4,7.8-3.5,10.4-6.1c3.4-3.4,5.2-7.3,7.2-11.7c0.3,2.6,0,5.4-0.7,7.6c-1.8,5.6-8.2,9.6-13.2,12.3
					c-8.8,4.8-19.4,4.5-28.8,2.1c-5-1.3-11.4-2.8-16.1-4.8c-4.4-1.8-7.4-4.2-11.1-7.2c-3.8-3-7.3-5.6-12-6.8c-3.9-1-9.1-1.7-13-2.2
					c-3.6-0.4-7.8-0.6-11.2-1.8C1470.3,1573.4,1467.7,1572.7,1466.2,1571.4z"/>
				<path d="M1479.7,1517.9c0.8,5.4,0.4,9.8-0.7,15.1c-1.2,5.3-2.4,11.2-5.5,15.8c-1.4,2.1-2,4.4-1.9,6.5l-0.2,0c0,0,0,0-0.1,0
					c-0.4,0-0.7,0.1-1.1,0.2c0.1-2.2,1.1-4.4,2.3-6.2c1.5-2.2,2.3-4.6,3.2-7.2c1.7-5.2,3.5-11.1,3.4-16.7c0-13-5.8-25.2-9.4-37.5
					c-4.6-15.7-5.2-32.1-1.4-48.1c0.4-1.8,1.2-3.6,1.5-5.4c0.6-4.1,0-8.6,0-12.8c0-7.7,1-15.1,2.3-22.6c1.5-8.4,4.9-17.7,13.7-20.8
					c4.9-1.8,11.2-1.1,15.7,1.4c5.5,3.2,7.3,8.4,7.4,14.3c0.1,4.6-0.1,9.2-0.5,13.7c-0.3,2.9,0.1,5.4,0.2,8.3
					c0.1,3.3-0.3,6.7-0.6,10c-0.3,2.7-1.7,4.9-2.2,7.5c1.7,15.5-1,31.1-1.3,46.6c-0.2,8.2-0.1,16.3,0.2,24.5
					c0.2,5.5,0.3,10.7,1.8,16.1c1.7,6,4.2,12.6,8.6,17.2c4.3,4.5,9.9,7.2,14.8,10.8c10.3,7.5,23,8.6,35.1,10.9
					c2.5,0.5,4.2,1.2,5.6,3.3c0.1,0.2-0.1,0.8,0,0.9c0.8,0.9,3.5,1.1,4.6,2.1c0.9,0.8,1.3,1.6,1.3,2.4c-0.2,0-0.7,0.4-1,0.7
					c-0.4-2.1-4.6-3.8-6-4.2c-0.1,0-0.1,0-0.1-0.1c1.1-3.9-7.3-4.3-9.4-4.6c-5.8-0.8-11.6-2.1-17.2-3.9c-5.6-1.7-10.2-4.2-15.1-7.4
					c-5-3.3-10.3-6.1-14.4-10.7c-6.6-7.3-9.2-18.4-9.6-28c-0.6-13.6-1-27.5,0.2-41.1c1-11.5,2-23.3,0.8-34.8c0,0,0-0.1,0-0.2
					c0.2-0.7,0.6-1.4,0.9-2.1c0.8-2.1,1.1-4.2,1.3-6.5c0.4-3,0.6-6,0.5-9c0-0.3,0-0.7,0-1c-0.2-3.1-0.3-5.5,0-8.6
					c0.4-4.9,0.5-9.9,0.2-14.9c-0.9-13.1-18.7-17.9-27.6-9.5c-5.2,4.9-6.2,11.8-7.3,18.5c-1,6-1.6,11.7-1.8,17.7
					c-0.1,1.3-0.1,2.6-0.1,4c0,3.6,0.5,7.7-0.1,11.2c-0.3,1.8-1,3.5-1.4,5.3c-1.8,7.8-2.8,15.8-2.6,23.9c0.4,14.1,5.1,27.3,9.4,40.5
					C1477.8,1508,1478.9,1512.9,1479.7,1517.9z"/>
				<path d="M1570.9,1586.6c-2.7,2.6-6.5,4.7-10.4,6.1c-9.7,3.4-19.8,2-29.5-0.7c-4.3-1.2-8.5-2.7-12.5-4.7c-2-1-4.2-1.9-6-3.1
					c-2.1-1.5-3.9-3.5-6.1-4.9c-8.7-5.4-18.4-6.8-28.2-8.5c-6.8-1.1-12.6-6.6-10-13.5c-0.5,0.4-0.9,0.8-1.2,1.3
					c-1.2,3.3-3.6,10.4-0.6,12.9c1.5,1.3,4.1,2,5.8,2.6c3.4,1.2,7.6,1.4,11.2,1.8c3.9,0.5,9.1,1.2,13,2.2c4.7,1.2,8.2,3.8,12,6.8
					c3.7,2.9,6.7,5.4,11.1,7.2c4.8,2,11.2,3.5,16.1,4.8c9.4,2.5,20.1,2.7,28.8-2.1c5-2.7,11.4-6.7,13.2-12.3c0.7-2.2,1-5,0.7-7.6
					C1576.1,1579.3,1574.4,1583.2,1570.9,1586.6z M1468.9,1556.6c-2.8,7.5,5.3,12.4,12.2,13.5c9.1,1.5,17.9,3.1,25.9,7.9
					c3.3,2,6.1,4.8,9.5,6.6c3.9,2,7.6,3.9,11.8,5.2c9.3,3,20,5,29.5,1.9c3.3-1,7.3-2.1,10.1-4.2c3.3-2.6,6.3-6.4,8.3-10.4
					c0.6-1.2,1.2-2.4,1.6-3.7c-0.3-1.4-0.9-2.8-1.8-3.9c0.3-0.5,0.5-1.1,0.5-1.6c0,0,0.1,0,0.1,0c1.1,1.1,1.8,2.5,2.2,4.1
					c0.2-0.1,0.4-0.2,0.4-0.2c-0.1,0.2-0.2,0.5-0.3,0.7c0.8,3.2,0.4,6.8-0.6,9.5c-1.9,5.1-7.5,9.7-12,12.7c-7.8,5.2-16.9,5.7-26,4.7
					c-6.3-0.7-11.7-3-17.6-4.8c-5.9-1.8-11.6-4.6-16.6-8.4c-4.2-3.2-8.2-5.8-13.4-7c-5.9-1.4-11.8-1.3-17.7-2.9
					c-2.6-0.7-5.1-1.5-7.5-2.6c-0.9-0.4-2.8-1-3.4-1.8c-2.1-2.8,0.3-9.8,1.4-12.8c0-0.1,0.1-0.1,0.1-0.2c0,0,0,0,0,0
					c1.1-1.3,2.6-2.9,4.4-3.5c0,0.2,0,0.4,0,0.7c0,0,0,0.1,0,0.2C1469.8,1556.3,1469.3,1556.4,1468.9,1556.6z"/>
			</g>
		</g>
		<g>
			<path d="M1572.2,1573.2C1572.2,1573.2,1572.2,1573.2,1572.2,1573.2c-0.1-0.1-0.1-0.1-0.2-0.1c-0.4-0.2-0.8-0.2-1.2-0.3
				c-2.7-0.7-5.4-1.4-8.1-2.1c-0.3-0.1-1.2,1-1,1c1.9,0.5,3.8,1,5.7,1.5c-1.2,0.3-2.2,0.9-2.7,2c-0.1,0.3,1-0.4,1.1-0.7
				c0.4-0.8,2.7-0.6,3.4-0.6c0.6,0,1.2,0.1,1.7,0.2c0.1,0,0.2,0.1,0.3,0.1c1.5,1.2,0.8,3.8,0.3,5.2c0,0,1-0.5,1.2-0.9
				c0.5-1.4,1.1-3.9-0.3-5.2C1572.4,1573.4,1572.3,1573.3,1572.2,1573.2z"/>
			<path d="M1575,1570.8c-0.5-0.5-1.1-1.4-1.7-1.7c0,0,0,0-0.1,0c-0.5-0.3-1.5-0.2-2.1-0.2c-2.1-0.2-4.1-0.5-6.2-0.7
				c-0.4,0-1.2,1-1,1c1.9,0.2,3.8,0.5,5.7,0.7c-0.9,0.4-1.8,1.1-1.8,2c0,0.2,1.2-0.5,1.2-0.9c0-0.1,0-0.2,0-0.3
				c0.1-0.1,0.3-0.1,0.4-0.1c0.4-0.1,0.9-0.2,1.3-0.3c0.5-0.1,0.9-0.1,1.4-0.1c0.6,0.3,1.2,1.2,1.7,1.7
				C1574.1,1571.9,1575.2,1570.9,1575,1570.8z"/>
			<path d="M1571.5,1563.8c-2.2,0-4.4,0-6.6,0c-0.4,0-1.1,1-1,1c2.2,0,4.4,0,6.6,0C1570.9,1564.8,1571.6,1563.8,1571.5,1563.8z"/>
			<polygon points="1570.2,1566 1570.2,1566 1570.2,1566 			"/>
			<path d="M1568.8,1568.1c0,0.2,0.5-0.1,0.5-0.2c0.2-0.1,0.6-0.4,0.6-0.7c0-0.4,0-0.8,0.2-1.1c0,0,0,0,0-0.1c0,0,0,0-0.1,0
				c0,0,0,0,0.1,0c0-0.1,0,0,0,0c0,0,0.1,0,0.1,0c0.3-0.1,0.5-0.1,0.8-0.1c0.3,0,0.6-0.3,0.8-0.5c0,0,0.5-0.5,0.3-0.5
				C1570.5,1564.8,1568.8,1566.4,1568.8,1568.1z"/>
			<path d="M1486,1526.1c0-0.1-1.1,0.5-1.2,0.9c-0.4,3.4-1.2,6.5-2.2,9.7c-1.2,4-0.3,5.9,2.2,9.1c0.2,0.2,1.3-0.7,1.1-1
				c-2.7-3.5-3.2-5.7-1.8-10.1C1485.1,1531.9,1485.7,1529,1486,1526.1z"/>
			<path d="M1497.9,1435.8c-6.1,3.5-13.4,3.1-17.9-2.5c-0.2-0.2-1.3,0.7-1.1,1c4.9,6,12.4,5.9,18.7,2.3
				C1497.9,1436.4,1498.8,1435.4,1497.9,1435.8z"/>
		</g>
		<g id="XMLID_45_">
			<g>
				<path d="M1558.3,1573.2c0.2,0.3-0.9,1-1.1,1c-7.1,0-16.2-2.2-22.1,2.8c-2.9,2.5-4.6,6.8-4.6,10.7c0,0.4-1.2,1-1.2,0.9
					c0-4.4,1-9.5,4.3-12.4c6-5.1,15.3-3.2,22.7-3c-2.4-3.3-4.1-7.3-4.6-11.3c-0.1-0.9,0.4-5.2,0.1-5.6c-0.3-0.4-1.8-0.5-2.2-0.6
					c-1.4-0.4-2.8-0.7-4.2-1.1c-1.2,4.1-1.4,8.6,0.3,12.6c0.1,0.3-0.8,1-1.1,1c-8.5,0.5-19.9,3.2-22.8,13.9c-0.1,0.3-1,0.9-1.2,0.9
					c0,0,0,0,0,0c0.4-10.9,14.3-14.8,23.6-15.7c-1.5-4.1-1.1-8.8,0.3-12.9c0.1-0.3,0.8-1,1.1-0.9c2.4,0.6,4.9,1.2,7.3,1.8
					c0,0,0.1,0,0.1,0.1C1552.1,1561.6,1554.3,1568.2,1558.3,1573.2z"/>
				<path fill="#58719A" d="M1551.7,1561.8c0.5,4,2.3,8,4.6,11.3c-7.4-0.2-16.7-2.1-22.7,3c-3.4,2.8-4.4,7.9-4.3,12.4
					c-4.4-1-8.4-5.3-8.7-5.6c0.1,0.1,1.1-0.5,1.2-0.9c2.8-10.7,14.3-13.4,22.8-13.9c0.3,0,1.2-0.7,1.1-1c-1.7-3.9-1.5-8.5-0.3-12.6
					c1.4,0.3,2.8,0.7,4.2,1.1c0.4,0.1,1.9,0.2,2.2,0.6C1552.2,1556.7,1551.6,1560.9,1551.7,1561.8z"/>
			</g>
		</g>
	</g>
	<g id="eye_x5F_close_copy" display="inline">
	</g>
	<g id="eye_x5F_far_copy" display="inline">
	</g>
	<g id="legs_1_" display="inline">
	</g>
	<g id="pupil_copy" display="inline">
	</g>
</g>
<g id="ch04-02-1">
	<g id="mainComp_x5F_paths-back-up" display="none">
		<g id="eye_x5F_close_x5F_comp_copy" display="inline">
		</g>
		<g id="eye_x5F_far_x5F_comp_copy" display="inline">
		</g>
	</g>
	<g id="mainComp">
		<g id="eye_x5F_close_x5F_comp">
		</g>
		<g id="eye_x5F_far_x5F_comp">
		</g>
	</g>
	<path fill="#49301C" d="M1579.1,1572.6c0.1-0.2,0.2-0.4,0.3-0.7c0,0-0.2,0.1-0.4,0.2c-0.4-1.6-1.1-3-2.2-4.1c0,0,0,0-0.1,0
		c0,0,0,0,0,0c0-0.8-0.4-1.6-1.3-2.4c-0.9-0.7-2.9-1-4-1.6c0.1-0.1,0.2-0.2,0.1-0.2c-0.2,0-0.3,0-0.5,0c-0.1-0.1-0.2-0.1-0.2-0.2
		c-0.1-0.1,0.1-0.7,0-0.9c-1.4-2.1-3.1-2.8-5.6-3.3c-4.1-0.8-8.3-1.4-12.4-2.3c0-0.6,0.1-1.2,0.2-1.8c0-0.1,0-0.1-0.1-0.1
		c-2.4-0.6-4.9-1.2-7.3-1.8c-0.3-0.1-1,0.7-1.1,0.9c-0.1,0.3-0.2,0.5-0.3,0.8c-5-1.4-9.8-3.5-14.2-6.6c-5-3.6-10.5-6.3-14.8-10.8
		c-4.4-4.5-7-11.2-8.6-17.2c-1.5-5.4-1.6-10.6-1.8-16.1c-0.3-8.2-0.4-16.3-0.2-24.5c0.3-15.5,3.1-31.1,1.3-46.6
		c0.4-2.5,1.8-4.8,2.2-7.5c0.4-3.3,0.7-6.7,0.6-10c-0.1-2.9-0.5-5.4-0.2-8.3c0.4-4.6,0.6-9.1,0.5-13.7c-0.2-5.9-1.9-11.1-7.4-14.3
		c-4.5-2.6-10.8-3.2-15.7-1.4c-8.8,3.2-12.3,12.4-13.7,20.8c-1.3,7.6-2.3,15-2.3,22.6c0,4.1,0.6,8.7,0,12.8c-0.3,1.8-1,3.6-1.5,5.4
		c-3.8,16-3.2,32.4,1.4,48.1c3.6,12.3,9.3,24.4,9.4,37.5c0,5.5-1.8,11.5-3.5,16.7c-0.8,2.6-1.7,5-3.2,7.2c-0.4,0.6-0.8,1.3-1.1,1.9
		c-0.1,0.1-0.1,0.3-0.2,0.4c-0.1,0.3-0.3,0.7-0.4,1c-0.1,0.2-0.2,0.4-0.2,0.7c0,0.1-0.1,0.3-0.1,0.4c0,0.1,0,0.2-0.1,0.3
		c0,0.2-0.1,0.3-0.1,0.5c0,0.1,0,0.2,0,0.3c0,0.2-0.1,0.5-0.1,0.7c0,0,0,0,0,0c0,0,0,0,0,0c-0.1,0-0.2,0.1-0.3,0.1
		c-0.1,0.1-0.2,0.1-0.3,0.1c-0.1,0.1-0.2,0.1-0.3,0.2c-0.1,0-0.2,0.1-0.3,0.2c-0.5,0.3-0.9,0.6-1.4,1c-0.1,0.1-0.1,0.1-0.2,0.2
		c-0.6,0.5-1.1,1.1-1.5,1.6c0,0,0,0,0,0.1c-0.1,0.1-0.1,0.1-0.1,0.2c-1.1,3.1-3.5,10-1.4,12.8c0.6,0.8,2.5,1.4,3.4,1.8
		c2.4,1.1,5,1.9,7.5,2.6c5.9,1.6,11.8,1.5,17.7,2.9c5.2,1.2,9.2,3.8,13.4,7c4.9,3.8,10.6,6.6,16.5,8.4c5.9,1.8,11.4,4.1,17.6,4.8
		c9.1,1,18.2,0.5,26-4.7c4.4-3,10-7.5,12-12.7C1579.5,1579.4,1579.8,1575.8,1579.1,1572.6z"/>
	<g id="_x33_4front_leg_x5F_NEW_3_">
		<g id="XMLID_61_">
			<g>
				<path fill="#3D5270" d="M1579.3,1571.9c-0.1,0.2-0.2,0.5-0.3,0.7c0.8,3.2,0.4,6.8-0.6,9.5c-1.9,5.1-7.5,9.7-12,12.7
					c-7.8,5.2-16.9,5.7-26,4.7c-6.3-0.7-11.7-3-17.6-4.8c-5.9-1.8-11.6-4.6-16.6-8.4c-4.2-3.2-8.2-5.8-13.4-7
					c-5.9-1.4-11.8-1.3-17.7-2.9c-2.6-0.7-5.1-1.5-7.5-2.6c-0.9-0.4-2.8-1-3.4-1.8c-2.1-2.8,0.3-9.8,1.4-12.8c0-0.1,0.1-0.1,0.1-0.2
					c0,0,0,0,0,0c0.4-0.5,1-1.1,1.5-1.7c0.1-0.1,0.1-0.1,0.2-0.2c0.4-0.4,0.9-0.7,1.4-1c0.1-0.1,0.2-0.1,0.3-0.2
					c0.1-0.1,0.2-0.1,0.3-0.2c0.1,0,0.2-0.1,0.3-0.1c0.1,0,0.2-0.1,0.3-0.1c0,0.2,0,0.4,0,0.7c0,0,0,0.1,0,0.2
					c-0.5,0-0.9,0.2-1.3,0.4c-2.8,7.5,5.3,12.4,12.2,13.5c9.1,1.5,17.9,3.1,25.9,7.9c3.3,2,6.1,4.8,9.5,6.6c3.7,1.9,7.1,3.6,11,4.9
					c0.3,0.1,0.6,0.2,0.8,0.3c9.3,3,20,5,29.5,1.9c3.3-1,7.3-2.1,10.1-4.2c3.3-2.6,6.3-6.4,8.3-10.4c0.6-1.2,1.2-2.4,1.6-3.7
					c-0.3-1.4-0.9-2.8-1.8-3.9c0.3-0.5,0.5-1.1,0.5-1.6c0,0,0,0,0,0c0,0,0,0,0.1,0c1.1,1.1,1.8,2.5,2.2,4.1
					C1579.2,1572,1579.3,1571.9,1579.3,1571.9z M1577.5,1582.4c0.7-2.2,1-5,0.7-7.6c-2,4.4-3.8,8.3-7.2,11.7
					c-2.7,2.6-6.5,4.7-10.4,6.1c-9.7,3.4-19.8,2-29.5-0.7c-4.3-1.2-8.5-2.7-12.5-4.7c-2-1-4.2-1.9-6-3.1c-2.1-1.5-3.9-3.5-6.1-4.9
					c-8.7-5.4-18.4-6.8-28.2-8.5c-6.8-1.1-12.6-6.6-10-13.5c-0.5,0.4-0.9,0.8-1.2,1.3c-1.2,3.3-3.6,10.4-0.6,12.9
					c1.5,1.3,4.1,2,5.8,2.6c3.4,1.2,7.6,1.4,11.2,1.8c3.9,0.5,9.1,1.2,13,2.2c4.7,1.2,8.2,3.8,12,6.8c3.7,2.9,6.7,5.4,11.1,7.2
					c4.8,2,11.2,3.5,16.1,4.8c9.4,2.5,20.1,2.7,28.8-2.1C1569.3,1592,1575.6,1588,1577.5,1582.4z"/>
				<path fill="#58719A" d="M1578.2,1574.9c0.3,2.6,0,5.4-0.7,7.6c-1.8,5.6-8.2,9.6-13.2,12.3c-8.8,4.8-19.4,4.5-28.8,2.1
					c-5-1.3-11.4-2.8-16.1-4.8c-4.4-1.8-7.4-4.2-11.1-7.2c-3.8-3-7.3-5.6-12-6.8c-3.9-1-9.1-1.7-13-2.2c-3.6-0.4-7.8-0.6-11.2-1.8
					c-1.7-0.6-4.3-1.3-5.8-2.6c-2.9-2.5-0.6-9.6,0.6-12.9c0.3-0.4,0.8-0.9,1.2-1.3c-2.6,6.9,3.3,12.4,10,13.5
					c9.8,1.6,19.5,3,28.2,8.5c2.2,1.4,4,3.4,6.1,4.9c1.8,1.3,4.1,2.2,6,3.1c4,2,8.2,3.5,12.5,4.7c9.7,2.7,19.9,4.1,29.5,0.7
					c3.9-1.4,7.8-3.5,10.4-6.1C1574.4,1583.2,1576.1,1579.3,1578.2,1574.9z"/>
				<path d="M1576.7,1568C1576.7,1568,1576.7,1568,1576.7,1568C1576.7,1568,1576.7,1568,1576.7,1568L1576.7,1568z"/>
				<path fill="#58719A" d="M1577.9,1573.5c-0.4,1.2-1,2.4-1.6,3.7l-0.3-0.1c0.8-1.6,0.3-3.9-1-6.1c0.4-0.4,0.8-0.8,1.1-1.3
					C1577,1570.7,1577.6,1572.1,1577.9,1573.5z"/>
				<path fill="#49301C" d="M1576.7,1568L1576.7,1568c-0.2,0-0.7,0.4-1,0.7c-0.3-1.3-2.1-2.5-3.8-3.3c0,0,0,0,0,0
					c0-0.1,0.5-0.5,0.3-0.5c-0.4,0-0.8,0.1-1.1,0.2c-0.3-0.1-0.5-0.2-0.7-0.3c0,0,0.1,0,0.1,0c0.3,0,0.7-0.5,0.9-0.8
					c1.1,0.6,3.1,0.9,4,1.6C1576.3,1566.4,1576.7,1567.2,1576.7,1568z"/>
				<path fill="#58719A" d="M1576.1,1577l0.3,0.1c-2,4-4.9,7.8-8.3,10.4c-2.8,2.1-6.8,3.2-10.1,4.2c-9.5,3-20.3,1.1-29.5-1.9
					c-0.3-0.1-0.6-0.2-0.8-0.3l0.5-1.4c0.4,0.2,0.8,0.3,1.3,0.4c0,0.2,1.2-0.5,1.2-0.9c0-1,0.1-2,0.3-3c1.9,0.5,4,1.2,6,1.4
					c2.1,0.2,4.4-0.1,6.3,0.5c5.6,1.6,8.9,4.7,17.3,0.7c1.6-0.8,2.9-1.8,4-3c4,0.8,8.3-1.1,8.9-5.2
					C1574.7,1578.7,1575.6,1577.9,1576.1,1577z"/>
				<path fill="#49301C" d="M1576.7,1568c0,0.6-0.2,1.1-0.5,1.6c-0.1-0.2-0.3-0.3-0.4-0.5c0-0.1,0-0.3,0-0.4
					C1575.9,1568.5,1576.4,1568,1576.7,1568z"/>
				<path fill="#49301C" d="M1575.1,1570.9c1.3,2.2,1.8,4.5,1,6.1c-0.5,0.9-1.4,1.6-2.7,2.1c-0.6,4.1-4.9,6-8.9,5.2
					c0.3-0.3,0.6-0.7,0.8-1.1c3,0.7,6.1,0.1,6.3-3.7c0,0,1-0.5,1.2-0.8c0,0,0-0.1,0-0.1c3.6-0.8,2.4-4.5,1.1-6.8
					c0.2,0.2,1.3-0.8,1.2-1c0,0-0.1-0.1-0.1-0.1v0c0.6-0.5,0.8-1,0.8-1.5c0.2,0.2,0.3,0.3,0.4,0.5
					C1575.9,1570.1,1575.5,1570.5,1575.1,1570.9z"/>
				<path fill="#54381E" d="M1575.7,1568.7c0,0.1,0,0.3,0,0.4c0,0-0.1-0.1-0.1-0.1C1575.6,1569,1575.6,1568.9,1575.7,1568.7z"/>
				<path fill="#734E27" d="M1575.6,1569c0,0,0.1,0.1,0.1,0.1c0,0.5-0.3,1-0.8,1.5c-0.5-0.5-1-1.3-1.6-1.6c0,0,0,0-0.1,0
					c-0.5-0.3-1.5-0.2-2.1-0.3c-0.8-0.1-1.5-0.2-2.3-0.3l0-0.3c0.1,0,0.4-0.2,0.5-0.2c0.2-0.1,0.6-0.4,0.6-0.7c0-0.4,0-0.8,0.2-1.1
					c0,0,0,0,0-0.1c0,0,0,0,0,0c0,0,0.1,0,0.1,0c0.3-0.1,0.5-0.1,0.8-0.1c0.3,0,0.6-0.3,0.8-0.5c1.7,0.8,3.6,2,3.8,3.3
					C1575.6,1568.9,1575.6,1569,1575.6,1569z"/>
				<path fill="#54381E" d="M1575,1570.8c0.2,0.2-0.9,1.2-1.2,1c-0.1-0.2,0.5-0.7,0.6-0.8c0.2-0.1,0.3-0.2,0.4-0.3
					C1574.9,1570.7,1575,1570.7,1575,1570.8z"/>
				<path fill="#49301C" d="M1574.9,1570.6L1574.9,1570.6c-0.1,0.1-0.3,0.2-0.4,0.3c-0.1,0.1-0.7,0.5-0.6,0.8
					c-0.5-0.5-1.1-1.4-1.7-1.7c-0.5,0-0.9,0.1-1.4,0.1c-0.4,0.1-0.9,0.1-1.3,0.3c-0.1,0-0.3,0.1-0.4,0.1c0,0,0,0.1,0,0.3
					c0,0.3-0.9,0.9-1.1,0.9c0,0,0,0,0,0c0-0.9,0.9-1.6,1.8-2c-1.9-0.2-3.8-0.5-5.7-0.7c-0.1,0,0.7-1,1-1c1.3,0.2,2.6,0.3,3.9,0.5
					c0.8,0.1,1.5,0.2,2.3,0.3c0.6,0.1,1.6,0,2.1,0.3c0,0,0.1,0,0.1,0C1573.9,1569.3,1574.4,1570.1,1574.9,1570.6z"/>
				<path fill="#734E27" d="M1573.8,1571.7c1.4,2.3,2.6,6-1.1,6.8c0.5-1.4,1-3.9-0.3-5.1c-0.1-0.1-0.2-0.2-0.3-0.2c0,0,0-0.1,0-0.1
					c-0.1,0-0.1,0-0.2,0c-0.4-0.2-0.8-0.2-1.2-0.3c-1-0.3-2-0.5-2.9-0.8l0.1-0.3c0.2,0,1.1-0.5,1.1-0.9c0-0.1,0-0.2,0-0.3
					c0.1-0.1,0.3-0.1,0.4-0.1c0.4-0.1,0.9-0.2,1.3-0.3c0.5-0.1,0.9-0.1,1.4-0.1C1572.8,1570.3,1573.4,1571.2,1573.8,1571.7z"/>
				<path fill="#49301C" d="M1572.5,1573.5c1.3,1.2,0.8,3.7,0.3,5.1c-0.1,0-0.1,0-0.2,0c-0.3,0-0.8,0.4-1,0.8c0.5-1.4,1-3.9-0.4-5.1
					c-0.1-0.1-0.2-0.1-0.3-0.1c-0.6-0.1-1.2-0.1-1.7-0.2c-0.7,0-3.1-0.2-3.4,0.6c-0.1,0.2-0.4,0.4-0.7,0.6c-0.1,0-0.2,0-0.3-0.1
					c0.5-1,1.5-1.6,2.6-1.9c-1.9-0.5-3.8-1-5.7-1.5c-0.2-0.1,0.7-1.1,1-1c1.7,0.4,3.4,0.9,5.1,1.3c1,0.3,2,0.5,2.9,0.8
					c0.4,0.1,0.8,0.2,1.2,0.3c0.1,0,0.1,0,0.2,0c0,0,0,0,0,0.1C1572.3,1573.3,1572.4,1573.4,1572.5,1573.5z"/>
				<path fill="#54381E" d="M1572.8,1578.5c0,0,0,0.1,0,0.1c-0.1,0.4-1.1,0.8-1.2,0.8c0-0.1,0-0.1,0.1-0.1c0.2-0.3,0.7-0.7,1-0.8
					C1572.7,1578.6,1572.7,1578.6,1572.8,1578.5z"/>
				<path fill="#54381E" d="M1572.2,1564.8c0.2,0-0.2,0.5-0.3,0.5c0,0,0,0,0,0c-0.3-0.1-0.6-0.3-0.8-0.3
					C1571.4,1564.9,1571.8,1564.8,1572.2,1564.8z"/>
				<path fill="#734E27" d="M1571.3,1574.3c1.4,1.1,0.9,3.6,0.4,5.1c0,0-0.1,0.1-0.1,0.1c-0.2,3.8-3.3,4.4-6.3,3.7
					c1.4-2.1,2.1-4.7,2-7.6c0-0.1,0-0.1-0.1-0.1c-0.7-0.1-1.4-0.2-2.1-0.3c0.3-0.2,0.6-0.4,0.7-0.6c0.4-0.8,2.7-0.6,3.4-0.6
					c0.6,0,1.2,0.1,1.7,0.2C1571.1,1574.2,1571.2,1574.2,1571.3,1574.3z"/>
				<path fill="#54381E" d="M1571.5,1563.8c0,0,0,0.1-0.1,0.2c-0.1-0.1-0.3-0.2-0.4-0.2C1571.2,1563.8,1571.3,1563.8,1571.5,1563.8z
					"/>
				<path fill="#49301C" d="M1570.2,1566C1570.2,1566,1570.2,1566,1570.2,1566C1570.2,1566.1,1570.2,1566.1,1570.2,1566
					c-0.2,0.4-0.2,0.8-0.2,1.2c0,0.3-0.5,0.6-0.6,0.7c-0.1,0-0.3,0.2-0.5,0.2c-0.1,0-0.1,0-0.1-0.1c0-1.3,1-2.6,2.2-3.1
					c0.3,0.1,0.5,0.2,0.8,0.3c-0.2,0.2-0.5,0.5-0.8,0.5c-0.3,0-0.6,0-0.8,0.1C1570.3,1566,1570.3,1566,1570.2,1566z M1570.2,1566.1
					C1570.2,1566.1,1570.2,1566.1,1570.2,1566.1C1570.2,1566.1,1570.2,1566.1,1570.2,1566.1z"/>
				<path fill="#54381E" d="M1571,1563.8c0.1,0.1,0.2,0.2,0.4,0.2c-0.2,0.3-0.6,0.8-0.9,0.8c0,0-0.1,0-0.1,0h0
					c-0.3-0.1-0.5-0.2-0.7-0.3c-0.1,0-0.1,0-0.1-0.1c0.1-0.2,0.1-0.5,0.1-0.7C1570.1,1563.8,1570.6,1563.8,1571,1563.8z"/>
				<path fill="#49301C" d="M1571,1563.8c-0.4,0-0.9,0-1.3,0c0-3.3-7.5-3.6-9.5-3.9c-2.5-0.3-4.9-0.8-7.4-1.3c0-0.5,0-0.9,0-1.4
					c4.1,0.8,8.3,1.5,12.4,2.3c2.5,0.5,4.2,1.2,5.6,3.3c0.1,0.2-0.1,0.8,0,0.9C1570.8,1563.6,1570.9,1563.7,1571,1563.8z"/>
				<path fill="#734E27" d="M1570.4,1564.8c0.2,0.1,0.4,0.2,0.7,0.3c-1.3,0.5-2.3,1.7-2.2,3.1c0,0.1,0,0.1,0.1,0.1l0,0.3
					c-1.3-0.2-2.6-0.3-3.9-0.5c-0.4,0-1.2,1-1,1c1.9,0.2,3.8,0.5,5.7,0.7c-0.9,0.4-1.8,1.1-1.8,2c0,0,0,0,0,0l-0.1,0.3
					c-1.7-0.4-3.4-0.9-5.1-1.3c-0.4-0.1-1.2,1-1,1c1.9,0.5,3.8,1,5.7,1.5c-1.1,0.3-2,0.9-2.6,1.9c-2.2-0.4-4.4-1-6.5-1.9
					c-3.3-4.1-5.4-9.3-5.5-14.6c2.4,0.5,4.9,1,7.4,1.3c2,0.3,9.5,0.6,9.5,3.9c-1.6,0-3.2,0-4.8,0c-0.4,0-1.1,1-1,1
					C1566.1,1564.8,1568.2,1564.8,1570.4,1564.8L1570.4,1564.8z"/>
				<path fill="#49301C" d="M1570.4,1564.8c-2.2,0-4.3,0-6.5,0c-0.1,0,0.6-1,1-1c1.6,0,3.2,0,4.8,0c0,0.2,0,0.4-0.1,0.7
					c0,0.1,0,0.1,0.1,0.1C1569.9,1564.6,1570.1,1564.7,1570.4,1564.8z"/>
				<path fill="#734E27" d="M1570.2,1566C1570.2,1566.1,1570.2,1566.1,1570.2,1566C1570.2,1566.1,1570.2,1566.1,1570.2,1566z"/>
				<path fill="#49301C" d="M1567.3,1575.6c0.1,3-0.6,5.6-2,7.6c-0.1,0-0.2-0.1-0.3-0.1c-0.3-0.1-1.2,1-1,1c0.2,0,0.4,0.1,0.5,0.1
					c-1.1,1.2-2.4,2.2-4,3c-8.3,4-11.7,0.9-17.3-0.7c-2-0.6-4.2-0.3-6.3-0.5c-2-0.2-4.1-0.9-6-1.4c0.1-0.4,0.2-0.8,0.3-1.2
					c2.8,0.8,5.8,1.2,8.7,1.3c3.2,0.1,3.7,0.1,6.5,1.2c6.1,2.2,13.8,2.6,18.1-3.2c0.8-1.1,2.9-5,1.7-6.3c0.1,0,0,0-0.1-0.1l0,0
					c0,0,0,0,0,0c-0.2-0.1-0.5-0.2-0.9-0.2c0,0-0.1,0-0.1,0c0,0-0.1,0-0.1,0c-0.7-0.1-1.4-0.3-1.4-0.3c-0.1,0-0.2,0-0.3,0
					c-2-0.4-4-1-5.8-1.8c0.3-0.1,1.2-0.7,1.1-1c0,0,0,0,0,0c2.1,0.9,4.3,1.5,6.5,1.9c0,0.1-0.1,0.1-0.1,0.2
					c-0.1,0.1,0.2,0.1,0.4-0.1C1565.8,1575.3,1566.5,1575.4,1567.3,1575.6C1567.2,1575.5,1567.3,1575.5,1567.3,1575.6z"/>
				<path fill="#734E27" d="M1566.1,1576.5c1.1,1.3-0.9,5.1-1.7,6.3c-4.3,5.8-12,5.4-18.1,3.2c-2.8-1-3.3-1.1-6.5-1.2
					c-2.9-0.1-5.8-0.5-8.7-1.3c0.7-2.5,2.1-4.9,4-6.5c4.1-3.5,9.7-3.5,15.1-3.2c-1.7,0.5-3.2,1.3-3.8,2.7c-1.3,2.9,5.4,4.6,7.5,5
					c0.3,0.1,0.9-0.6,1.1-0.8C1556.2,1578.1,1563.5,1576.6,1566.1,1576.5z"/>
				<path fill="#54381E" d="M1566,1576.4C1566.1,1576.5,1566.1,1576.5,1566,1576.4C1566.1,1576.5,1566,1576.5,1566,1576.4z"/>
				<path fill="#49301C" d="M1566,1576.4C1566,1576.5,1566.1,1576.5,1566,1576.4c-2.5,0.2-9.8,1.7-11,4.2c-0.1,0.3-0.7,0.9-1.1,0.8
					c-2.1-0.4-8.8-2.1-7.5-5c0.6-1.4,2-2.2,3.8-2.7c2.1,0.1,4.2,0.3,6.2,0.3c-2.6,0-9.2,0.1-9.1,2.4c0.1,2,3.1,2.9,5.3,3.4
					c2.2-2.9,7.2-3.8,10.6-4c0.2,0,0.3,0.1,0.5,0.1c0.1,0,0.7,0.1,1.3,0.1c0.1,0,0.1,0,0.1,0c0,0,0,0,0.1,0
					C1565.4,1576.3,1565.8,1576.4,1566,1576.4C1566,1576.4,1566,1576.4,1566,1576.4L1566,1576.4z"/>
				<path fill="#54381E" d="M1566,1576.4c-0.2,0-0.5-0.1-0.9-0.2C1565.4,1576.3,1565.8,1576.3,1566,1576.4z"/>
				<path fill="#54381E" d="M1564.9,1583.1c0.1,0,0.2,0.1,0.3,0.1c-0.3,0.4-0.5,0.7-0.8,1.1c-0.2,0-0.4-0.1-0.5-0.1
					C1563.7,1584.1,1564.6,1583,1564.9,1583.1z"/>
				<path fill="#54381E" d="M1564.8,1575.1c0.1,0,0.2,0,0.3,0.1c-0.3,0.2-0.5,0.3-0.4,0.1
					C1564.7,1575.2,1564.8,1575.1,1564.8,1575.1z"/>
				<path fill="#54381E" d="M1564.8,1576.2c-0.6-0.1-1.1-0.1-1.3-0.1c-0.2,0-0.3-0.1-0.5-0.1c0.1,0,0.2,0,0.3,0
					C1563.5,1575.9,1564.2,1576,1564.8,1576.2z"/>
				<path fill="#3D5270" d="M1558.3,1573.2c0.2,0.2-0.8,0.9-1.1,1h0c0,0,0,0,0,0c-0.2,0-0.5,0-0.8,0c-1.9,0-4-0.2-6.2-0.3
					c1.6-0.4,3.4-0.6,5-0.6c-0.1,0-0.1-0.1-0.2-0.1c0.5,0,0.9,0.1,1.4,0.1c-0.3-0.4-0.6-0.8-0.8-1.2c0.1,0,0.2,0,0.2,0
					C1556.6,1572.4,1557.4,1572.8,1558.3,1573.2C1558.3,1573.2,1558.3,1573.2,1558.3,1573.2z"/>
				<path fill="#B2987B" d="M1563.1,1575.9c-3.4,0.2-8.4,1.1-10.6,4c-2.1-0.4-5.2-1.4-5.3-3.4c-0.1-2.3,6.5-2.4,9.1-2.4
					c0.4,0,0.7,0,0.8,0c0,0,0,0,0,0h0C1559.1,1574.9,1561.1,1575.5,1563.1,1575.9z"/>
				<path fill="#3D5270" d="M1558.3,1573.2c-0.9-0.4-1.7-0.8-2.5-1.3c0,0-0.1,0-0.2,0c-1.9-3-3.3-6.6-3.8-10.1
					c-0.1-0.5,0.1-2.1,0.1-3.4c0.3,0.1,0.6,0.1,0.9,0.2C1552.9,1563.8,1555,1569.1,1558.3,1573.2z"/>
				<path fill="#58719A" d="M1555.5,1571.9c0.3,0.4,0.5,0.8,0.8,1.2c-0.5,0-0.9,0-1.4-0.1c-0.1-0.1-0.3-0.1-0.4-0.2
					C1554.5,1572.8,1555.1,1572,1555.5,1571.9z"/>
				<path fill="#3D5270" d="M1555,1573.1c0.1,0,0.1,0.1,0.2,0.1c-1.6,0.1-3.4,0.2-5,0.6c-5.4-0.3-11-0.3-15.1,3.2
					c-1.9,1.6-3.3,4-4,6.5c-0.4-0.1-0.8-0.3-1.2-0.4c0.6-2.7,1.8-5.2,3.8-6.9C1539.3,1571.3,1547.9,1572.7,1555,1573.1z"/>
				<path fill="#58719A" d="M1554.6,1572.8c0.1,0.1,0.3,0.2,0.4,0.2c-7.1-0.4-15.7-1.7-21.3,3.1c-2,1.7-3.2,4.2-3.8,6.9
					c-0.5-0.2-1-0.4-1.5-0.6c-2-0.8-3.8-1.8-5.6-2.9c3.8-8.7,14.1-11,21.9-11.5c0.3,0,1.2-0.7,1.1-1c-1.4-3.3-1.5-7.1-0.8-10.6
					c2.3,0.7,4.6,1.3,7,1.8c-0.1,1.3-0.2,2.9-0.1,3.4c0.5,3.5,1.9,7,3.8,10.1C1555.1,1572,1554.5,1572.8,1554.6,1572.8z"/>
				<path fill="#3D5270" d="M1552.9,1555.3C1553,1555.3,1553,1555.3,1552.9,1555.3c0,0.7-0.1,1.3-0.1,1.9c-0.3,0-0.6-0.1-0.9-0.2
					c0-0.4,0-0.6-0.1-0.7c-0.3-0.4-1.8-0.5-2.2-0.6c-1.4-0.4-2.8-0.7-4.2-1.1c-0.1,0.3-0.1,0.5-0.2,0.8c-0.3-0.1-0.6-0.2-0.9-0.3
					c0.1-0.3,0.2-0.5,0.3-0.8c0.1-0.3,0.8-1,1.1-0.9C1548.1,1554,1550.5,1554.7,1552.9,1555.3z"/>
				<path fill="#3D5270" d="M1551.9,1557c0.3,0.1,0.6,0.1,0.9,0.2c0,0.5,0,1,0,1.4c-0.3-0.1-0.6-0.1-0.9-0.2
					C1551.9,1557.9,1551.9,1557.4,1551.9,1557z"/>
				<path fill="#58719A" d="M1551.9,1557c0,0.4,0,0.9,0,1.4c-2.3-0.5-4.7-1.1-7-1.8c0.1-0.4,0.2-0.8,0.3-1.2
					C1547.4,1556,1549.6,1556.5,1551.9,1557z"/>
				<path fill="#58719A" d="M1551.8,1556.3c0.1,0.1,0.1,0.3,0.1,0.7c-2.3-0.5-4.5-1-6.8-1.6c0.1-0.3,0.1-0.5,0.2-0.8
					c1.4,0.3,2.8,0.7,4.2,1.1C1550,1555.8,1551.5,1555.9,1551.8,1556.3z"/>
				<path fill="#3D5270" d="M1545.7,1567.2c0.1,0.3-0.8,1-1.1,1c-7.8,0.5-18.1,2.8-21.9,11.5c-0.4-0.2-0.8-0.5-1.2-0.7
					c3.2-7.9,14.7-10.9,22.7-11.6c-1.3-3.5-1.2-7.4-0.3-11c0.3,0.1,0.6,0.2,0.9,0.3C1544.2,1560.1,1544.3,1563.9,1545.7,1567.2z"/>
				<path fill="#3D5270" d="M1545.2,1555.4c-0.1,0.4-0.2,0.8-0.3,1.2c-0.3-0.1-0.6-0.2-0.9-0.3c0.1-0.4,0.2-0.8,0.3-1.2
					C1544.6,1555.2,1544.9,1555.3,1545.2,1555.4z"/>
				<path fill="#49301C" d="M1471.1,1418.5c-0.1,1.3-0.1,2.6-0.1,4c0,3.6,0.5,7.7-0.1,11.2c-0.3,1.8-1,3.5-1.4,5.3
					c-1.8,7.8-2.8,15.8-2.6,23.9c0.4,14.1,5.1,27.3,9.4,40.5c1.5,4.8,2.7,9.7,3.4,14.6c0.8,5.4,0.4,9.8-0.7,15.1
					c-1.2,5.3-2.4,11.2-5.5,15.8c-1.4,2.1-2,4.4-1.9,6.5l-0.2,0c0,0,0,0-0.1,0c-0.4,0-0.7,0.1-1.1,0.2c0,0,0,0,0,0
					c0-0.2,0-0.5,0.1-0.7c0-0.1,0-0.2,0-0.3c0-0.2,0.1-0.3,0.1-0.5c0-0.1,0-0.2,0.1-0.3c0-0.1,0.1-0.3,0.1-0.4
					c0.1-0.2,0.1-0.5,0.2-0.7c0.1-0.3,0.3-0.7,0.4-1c0.1-0.1,0.1-0.3,0.2-0.4c0.3-0.7,0.7-1.3,1.1-1.9c1.5-2.2,2.3-4.6,3.2-7.2
					c1.7-5.2,3.5-11.1,3.4-16.7c0-13-5.8-25.2-9.4-37.5c-4.6-15.7-5.2-32.1-1.4-48.1c0.4-1.8,1.2-3.6,1.5-5.4c0.6-4.1,0-8.6,0-12.8
					c0-7.7,1-15.1,2.3-22.6c1.5-8.4,4.9-17.7,13.7-20.8c4.9-1.8,11.2-1.1,15.7,1.4c5.5,3.2,7.3,8.4,7.4,14.3
					c0.1,4.6-0.1,9.2-0.5,13.7c-0.3,2.9,0.1,5.4,0.2,8.3c0.1,3.3-0.3,6.7-0.6,10c-0.3,2.7-1.7,4.9-2.2,7.5c1.7,15.5-1,31.1-1.3,46.6
					c-0.2,8.2-0.1,16.3,0.2,24.5c0.2,5.5,0.3,10.7,1.8,16.1c1.7,6,4.2,12.6,8.6,17.2c4.3,4.5,9.9,7.2,14.8,10.8
					c4.3,3.2,9.2,5.2,14.2,6.6c-0.1,0.4-0.2,0.8-0.3,1.2c-0.3-0.1-0.6-0.2-1-0.3c-5.6-1.7-10.2-4.2-15.1-7.4
					c-5-3.3-10.3-6.1-14.4-10.7c-6.6-7.3-9.2-18.4-9.6-28c-0.6-13.6-1-27.5,0.2-41.1c1-11.5,2-23.3,0.8-34.8c0,0,0-0.1,0-0.2
					c0.2-0.7,0.6-1.4,0.9-2.1c0.8-2.1,1.1-4.2,1.3-6.5c0.4-3,0.6-6,0.5-9c0-0.3,0-0.7,0-1c-0.2-3.1-0.3-5.5,0-8.6
					c0.4-4.9,0.5-9.9,0.2-14.9c-0.9-13.1-18.7-17.9-27.6-9.5c-5.2,4.9-6.2,11.8-7.3,18.5C1471.9,1406.8,1471.3,1412.6,1471.1,1418.5
					z"/>
				<path fill="#734E27" d="M1543,1556c0.3,0.1,0.7,0.2,1,0.3c-0.9,3.6-1,7.5,0.3,11c-8,0.7-19.5,3.7-22.7,11.6
					c-2.9-1.8-5.7-3.8-8.6-5.6c-11.1-6.7-25-3.4-36-9.9c-3.3-2-5.2-4.9-5.3-8.1c-0.1-2.1,0.5-4.4,1.9-6.5c3.1-4.6,4.3-10.4,5.5-15.8
					c1.1-5.3,1.5-9.7,0.7-15.1c-0.8-4.9-1.9-9.9-3.4-14.6c-4.3-13.3-9-26.4-9.4-40.5c-0.2-8,0.8-16.1,2.6-23.9
					c0.4-1.7,1.1-3.5,1.4-5.3c0.6-3.5,0.1-7.6,0.1-11.2c0-1.3,0-2.7,0.1-4c0.5,0.1,17.9,5.3,36.5-2.1c0.1,3-0.2,6-0.5,9
					c-0.3,2.2-0.5,4.4-1.3,6.5c-0.3,0.7-0.7,1.4-0.9,2.1c0,0.1,0,0.1,0,0.2c1.3,11.5,0.3,23.3-0.8,34.8c-1.2,13.6-0.8,27.4-0.2,41.1
					c0.4,9.6,3,20.6,9.6,28c4.1,4.5,9.4,7.3,14.4,10.7C1532.7,1551.8,1537.4,1554.3,1543,1556z M1497.6,1436.6
					c0.3-0.2,1.2-1.2,0.4-0.7c-6.1,3.5-13.4,3.1-17.9-2.5c-0.2-0.2-1.3,0.8-1.2,1C1483.7,1440.2,1491.2,1440.2,1497.6,1436.6z
					 M1484.8,1545.8c0.2,0.2,1.3-0.7,1.2-1c-2.7-3.5-3.2-5.8-1.8-10.1c0.9-2.8,1.5-5.7,1.8-8.6c0-0.1-1.1,0.4-1.2,0.9
					c-0.4,3.3-1.2,6.5-2.2,9.7C1481.5,1540.6,1482.3,1542.5,1484.8,1545.8z"/>
				<path fill="#3D5270" d="M1529.9,1583.1c0.4,0.2,0.8,0.3,1.2,0.4c-0.1,0.4-0.2,0.8-0.3,1.2c-0.1,0-0.2-0.1-0.3-0.1
					c-0.3-0.1-0.5-0.2-0.8-0.2C1529.7,1583.9,1529.8,1583.5,1529.9,1583.1z"/>
				<path fill="#3D5270" d="M1530.5,1584.6c0.1,0,0.2,0.1,0.3,0.1c-0.2,1-0.3,2-0.3,3c0,0.4-1.2,1-1.2,0.9c0-1.4,0.1-2.8,0.3-4.2
					C1529.9,1584.4,1530.2,1584.5,1530.5,1584.6z"/>
				<path fill="#58719A" d="M1528.3,1582.5c0.5,0.2,1,0.4,1.5,0.6c-0.1,0.4-0.2,0.8-0.2,1.3c-2.6-0.8-5.1-2-7.5-3.4
					c0.2-0.5,0.3-0.9,0.5-1.4C1524.5,1580.7,1526.4,1581.7,1528.3,1582.5z"/>
				<path fill="#58719A" d="M1529.6,1584.3c-0.2,1.4-0.3,2.8-0.3,4.2c-0.4-0.1-0.8-0.2-1.3-0.4c-3.9-1.4-7.2-4.9-7.4-5.2
					c0.1,0.1,1.1-0.5,1.2-0.9c0.1-0.4,0.2-0.8,0.3-1.1C1524.6,1582.3,1527,1583.6,1529.6,1584.3z"/>
				<path fill="#58719A" d="M1528.1,1588.1l-0.5,1.4c-3.9-1.3-7.3-3-11-4.9c-3.4-1.8-6.2-4.6-9.5-6.6c-8-4.8-16.8-6.4-25.9-7.9
					c-6.9-1.1-15.1-6-12.2-13.5c0.4-0.2,0.9-0.4,1.3-0.4c0.2,5.4,5.1,8.3,9.6,10c6.3,2.5,12.9,2.3,19.4,3.7c4.4,0.9,9.2,2.2,13,4.7
					c2.9,1.9,5.7,3.9,8.7,5.7c0,0,0.1,0,0.1,0.1c-0.2,0.8-0.4,1.7-0.4,2.6c0,0,0,0,0,0C1520.9,1583.2,1524.2,1586.7,1528.1,1588.1z"
					/>
				<path fill="#3D5270" d="M1522.7,1579.6c-0.2,0.4-0.4,0.9-0.5,1.4c-0.4-0.2-0.8-0.4-1.1-0.6c0.1-0.5,0.3-1,0.5-1.4
					C1521.9,1579.2,1522.3,1579.4,1522.7,1579.6z"/>
				<path fill="#3D5270" d="M1522.2,1581c-0.1,0.4-0.2,0.7-0.3,1.1c-0.1,0.3-1,0.9-1.2,0.9c0,0,0,0,0,0c0-0.9,0.2-1.8,0.4-2.6
					C1521.4,1580.6,1521.8,1580.8,1522.2,1581z"/>
				<path fill="#49301C" d="M1512.9,1573.3c2.9,1.8,5.7,3.8,8.6,5.6c-0.2,0.5-0.4,0.9-0.5,1.4c0,0-0.1,0-0.1-0.1
					c-3-1.7-5.8-3.8-8.7-5.7c-3.8-2.5-8.6-3.7-13-4.7c-6.6-1.4-13.1-1.2-19.4-3.7c-4.5-1.8-9.4-4.6-9.6-10c0,0,0,0,0.1,0
					c0.3,0,0.6-0.3,0.8-0.5c0,0,0.3-0.3,0.3-0.5l0.2,0c0.2,3.2,2,6.2,5.3,8.1C1488,1569.9,1501.9,1566.6,1512.9,1573.3z"/>
				<path fill="#604222" d="M1507.7,1391.9c0.3,4.9,0.2,9.9-0.2,14.9c-0.2,3.1-0.2,5.5,0,8.6c0,0.3,0,0.7,0,1
					c-18.7,7.4-36,2.3-36.5,2.1c0.2-5.9,0.8-11.7,1.8-17.7c1.1-6.7,2-13.6,7.3-18.5C1489,1374,1506.9,1378.8,1507.7,1391.9z"/>
				<path fill="#49301C" d="M1497.9,1435.8c0.8-0.5-0.1,0.6-0.4,0.7c-6.4,3.6-13.9,3.7-18.7-2.3c-0.2-0.2,1-1.2,1.2-1
					C1484.6,1438.9,1491.8,1439.3,1497.9,1435.8z"/>
				<path fill="#49301C" d="M1486,1544.8c0.2,0.2-1,1.2-1.2,1c-2.5-3.2-3.3-5.1-2.2-9.1c0.9-3.2,1.8-6.3,2.2-9.7
					c0.1-0.4,1.2-1,1.2-0.9c-0.3,2.9-0.9,5.8-1.8,8.6C1482.8,1539,1483.3,1541.3,1486,1544.8z"/>
				<path d="M1471.4,1551.1c-0.1,0.1-0.1,0.3-0.2,0.4C1471.3,1551.4,1471.4,1551.3,1471.4,1551.1z"/>
				<path fill="#54381E" d="M1471.4,1555.2C1471.4,1555.2,1471.4,1555.3,1471.4,1555.2c0.1,0.2-0.2,0.5-0.3,0.5
					c-0.2,0.2-0.5,0.5-0.8,0.5c0,0,0,0-0.1,0c0-0.1,0-0.1,0-0.2c0-0.2,0-0.4,0-0.7c0,0,0,0,0,0
					C1470.6,1555.3,1471,1555.2,1471.4,1555.2z"/>
				<path d="M1470.8,1552.6c-0.1,0.2-0.1,0.4-0.2,0.7C1470.7,1553,1470.8,1552.8,1470.8,1552.6z"/>
				<path d="M1470.5,1553.7c0,0.1,0,0.2-0.1,0.3C1470.5,1553.8,1470.5,1553.8,1470.5,1553.7z"/>
				<path fill="#54381E" d="M1470.5,1553.9c0,0.2-0.1,0.3-0.1,0.5C1470.4,1554.3,1470.4,1554.1,1470.5,1553.9z"/>
				<path fill="#54381E" d="M1470.3,1554.7c0,0.2-0.1,0.5-0.1,0.7C1470.3,1555.2,1470.3,1554.9,1470.3,1554.7z"/>
				<path d="M1470.3,1555.4c-0.1,0-0.2,0.1-0.3,0.1C1470,1555.5,1470.1,1555.5,1470.3,1555.4z"/>
				<path d="M1469.9,1555.5c-0.1,0.1-0.2,0.1-0.3,0.1C1469.7,1555.6,1469.8,1555.6,1469.9,1555.5z"/>
				<path d="M1469.3,1555.8c-0.1,0-0.2,0.1-0.3,0.2C1469.1,1556,1469.2,1555.9,1469.3,1555.8z"/>
				<path d="M1467.6,1557.1c-0.1,0.1-0.1,0.1-0.2,0.2C1467.5,1557.2,1467.6,1557.1,1467.6,1557.1z"/>
			</g>
		</g>
	</g>
	<g id="eye_x5F_close_copy_2">
	</g>
	<g id="eye_x5F_close">
	</g>
	<g id="eye_x5F_far_copy_2">
	</g>
	<g id="eye_x5F_far">
	</g>
	<g>
	</g>
	<g id="legs_2_">
		<g id="_x33_4front_leg_6_">
			<g id="XMLID_27_">
				<g>
					<g id="XMLID_81_">
						<g>
						</g>
					</g>
				</g>
			</g>
		</g>
	</g>
	<g id="pupil_copy_2">
	</g>
	<g id="pupil_4_">
	</g>
</g>
<g id="ch05-07-1">
	<g id="main_x5F_comp_1_">
		<g id="hand_washing_copy">
		</g>
	</g>
	<g id="assets">
	</g>
	<g id="hand_washing">
	</g>
</g>
</svg>
