<?xml version="1.0" encoding="utf-8"?>
<!-- Generator: Adobe Illustrator 18.1.1, SVG Export Plug-In . SVG Version: 6.00 Build 0)  -->
<svg version="1.1" xmlns="http://www.w3.org/2000/svg" xmlns:xlink="http://www.w3.org/1999/xlink" x="0px" y="0px"
	 viewBox="995.4 1145.7 55.8 71.1" enable-background="new 995.4 1145.7 55.8 71.1" xml:space="preserve">
<g id="additional_reference">
</g>
<g id="ch07-09-1">
</g>
<g id="ch04-05-1">
</g>
<g id="ch04-11-2">
</g>
<g id="ch04-06-1">
	<g id="older_version">
		<g id="head_3_" display="none">
			<g id="hair_3_">
			</g>
		</g>
		<g id="hands" display="none">
		</g>
		<g id="head_4_" display="none">
		</g>
		<g id="new_path" display="none">
		</g>
		<g id="handback" display="none">
		</g>
		<g id="handFront">
		</g>
		<g id="Layer_21" display="none">
		</g>
	</g>
	<g id="path_copy-with_stroke">
		<g id="handBack_copy">
		</g>
		<g id="head_copy">
		</g>
		<g id="neck_copy">
		</g>
		<g id="sleeve_copy">
		</g>
		<g id="handFront_copy">
		</g>
		<g id="skirt_copy">
		</g>
		<g id="torso_copy">
		</g>
	</g>
	<g id="comp_layer">
		<g id="skirt_copy_3">
			<g id="skirt_copy_3_2_">
			</g>
			<g id="skirt_copy_3_1_">
			</g>
		</g>
		<g id="torso_copy_2">
		</g>
		<g id="sleeve_copy_2">
		</g>
		<g id="neck_5_">
		</g>
		<g id="head_copy_2">
			<g id="head-silo_copy">
			</g>
		</g>
		<g id="head_copy_3">
			<g id="head-silo_copy_2">
			</g>
		</g>
		<g id="handFront_copy_2">
		</g>
		<g id="handBack_copy_2">
		</g>
	</g>
	<g id="skirt_5_">
		<g id="skirt_4_">
		</g>
		<g id="skirt_copy_2">
		</g>
	</g>
	<g id="torso_copy_3">
	</g>
	<g id="sleeve">
	</g>
	<g id="neck_6_">
	</g>
	<g id="handBack">
	</g>
	<g id="handFront_1_">
	</g>
</g>
<g id="ch04-03-2">
</g>
<g id="ch04-02-2_safe_copy" display="none">
	<g id="mainComp_x5F_paths-back-up_copy">
		<g id="eye_x5F_close_x5F_comp_copy_2_1_" display="inline">
		</g>
		<g id="eye_x5F_far_x5F_comp_copy_2_1_" display="inline">
		</g>
	</g>
	<g id="mainComp_copy" display="inline">
		<g id="eye_x5F_close_x5F_comp_copy_2">
		</g>
		<g id="eye_x5F_far_x5F_comp_copy_2">
		</g>
	</g>
	<g id="eye_x5F_close_copy" display="inline">
	</g>
	<g id="eye_x5F_far_copy" display="inline">
	</g>
	<g id="handRelaxedBack_1_" display="inline">
		<path d="M1050,1160.3c-1.8-5.1-5.6-9.4-10.1-12.4c-0.2-0.1-0.4-0.3-0.7-0.4c-4.3-2.7-10.1-1.3-14.6,0.1c-0.3,0.1-0.6,0.3-0.7,0.6
			c0,0,0,0,0,0c-14.6,11.5-28.3,31.4-28.3,50.6c0,0.2,0.1,0.2,0.3,0.3c2.2,0.7,4.3-0.8,5.2-2.8c2-4.7,0.5-8.1,4.7-11.4
			c-0.1,3.6,0.3,6.6,1.7,10.3c1,2.7,6,16.8,8.2,12.2c0.8,1.6,1.9,2.6,3.4,2.4c0.4,3.8,1.8,8.6,6.1,6.1c2.6-1.5,1.6-7,1.8-9.3
			c0.2-4.3,0.6-8.6,1.4-12.9c0.8-4.2,1.5-8.5,4.2-11.8c2.8-3.5,5.5-7,7.7-10.9c2,5-0.4,11.7,0.7,16.8c0.9,4.5,5.1,5.8,8.7,3.3
			c0.3-0.2,0.7-0.6,0.5-1.1C1045.5,1180,1053.5,1170.3,1050,1160.3z"/>
		<g id="hand_x5F_relaxed_x5F_back_2_">
			<path fill="#734E27" d="M1047.3,1176.7c1.6-6.5,3.1-11.4,0-17.8c-0.9-1.9-2.2-3.7-3.7-5.4l-3.6-5.6c0,0,0,0,0,0
				c-0.2-0.1-0.4-0.3-0.7-0.4c-4.3-2.7-10.1-1.3-14.6,0.1c-0.3,0.1-0.6,0.3-0.7,0.6c0,0,0,0,0,0l-4.8,5.6
				c-7.9,7.9-14,17.8-18.5,27.8c-1.5,3.3-2.2,7-2.8,10.5c-0.2,1.2-0.9,3.5-0.4,4.7c0,0.1-0.1,1-0.1,1c2,1.1,1.9-1.8,2.2-2.5
				c1.2-2.9,0.5-5.6,2.3-8.3c1.1-1.6,2.3-2.4,3.8-3.4c0,0,0,0,0,0c0.1-1.5,0.2-3.2,0.4-5c0.2-0.5,2.1-0.4,1.9,0.2
				c-0.5,1.5-0.7,3.1-0.7,4.8c0,2.2,0.2,4.4,0.4,6.4c0.3,2.4,0.8,4.8,1.5,7c0.6,2.1,1.1,3.7,1.5,4.2c0.8,1.2,2.7,6.7,3.4,4.7
				c0.1-0.2,0.4-0.2,0.7-0.1c-1.1-3-1.4-7-1.7-8.7c-1-6.1-2-12.6-1-18.8c0.2-1.3,1.4-0.1,1.3,0.7c-0.8,4.5-0.2,9,0.3,13.5
				c0.3,2.8,0.7,5.6,1.3,8.3c0.4,2,0.8,7.4,3.6,6.7c0-0.6,0-1.1-0.1-1.4c-0.1-4.2,0.1-8.5,0.3-12.7c0.3-4.3-0.1-9.7,1.4-13.8
				c0.2-0.6,2.1-0.1,2,0.4c-1.2,3.2-1,7.4-1.2,10.8c-0.2,3-0.4,6-0.5,9c-0.1,2.3-0.1,4.5,0,6.8c0,0.5,0,1.1-0.1,1.7c0,0,0,0,0,0
				c0,0.1,0,0.3,0,0.4c0,0,0,0,0,0c-0.1,1.5-0.1,3.3,0.5,4.3c3.3,5.4,3.6-2.9,3.6-4.8c0.3-7.4,0.9-15.1,3.2-22.1
				c0.8-2.6,1.5-3.7,3.2-5.6c3.2-3.6,5.8-7.7,8-12c0.1-0.2,0.3-0.3,0.5-0.3c0.4-0.3,1.1-0.5,1.3-0.1c3.4,5.3,0.3,12.8,1.6,18.6
				c0.4,1.8,1.2,3.4,3.1,3.9c2.9,0.8,2.1-0.7,1.6-2.6C1046.5,1184.5,1046.5,1180.3,1047.3,1176.7z"/>
			<path d="M1050,1160.3c-1.8-5.1-5.6-9.4-10.1-12.4c0,0,0,0,0,0l3.6,5.6c1.5,1.6,2.8,3.5,3.7,5.4c3.1,6.3,1.6,11.3,0,17.8
				c-0.9,3.6-0.8,7.8,0.1,11.5c0.4,1.8,1.3,3.3-1.6,2.6c-1.9-0.5-2.8-2.1-3.1-3.9c-1.3-5.8,1.8-13.2-1.6-18.6
				c-0.3-0.4-0.9-0.2-1.3,0.1c-0.2,0-0.4,0.1-0.5,0.3c-2.2,4.3-4.8,8.4-8,12c-1.7,1.9-2.4,3-3.2,5.6c-2.3,7.1-2.9,14.8-3.2,22.1
				c-0.1,1.9-0.4,10.2-3.6,4.8c-0.6-1-0.6-2.7-0.5-4.3c0,0,0,0,0,0c0-0.1,0-0.3,0-0.4c0,0,0,0,0,0c0-0.7,0.1-1.3,0.1-1.7
				c-0.1-2.3,0-4.5,0-6.8c0.1-3,0.3-6,0.5-9c0.2-3.4,0-7.6,1.2-10.8c0.2-0.5-1.7-1-2-0.4c-1.5,4.1-1.2,9.5-1.4,13.8
				c-0.3,4.2-0.4,8.4-0.3,12.7c0,0.4,0,0.8,0.1,1.4c-2.8,0.7-3.1-4.7-3.6-6.7c-0.6-2.8-1-5.6-1.3-8.3c-0.5-4.5-1.1-9-0.3-13.5
				c0.2-0.9-1-2-1.3-0.7c-1.1,6.1,0,12.6,1,18.8c0.3,1.7,0.6,5.7,1.7,8.7c-0.3-0.1-0.6-0.1-0.7,0.1c-0.7,2-2.6-3.5-3.4-4.7
				c-0.3-0.5-0.8-2.1-1.5-4.2c-0.7-2.2-1.2-4.7-1.5-7c-0.3-2-0.5-4.3-0.4-6.4c0-1.7,0.2-3.3,0.7-4.8c0.2-0.7-1.8-0.7-1.9-0.2
				c-0.2,1.8-0.3,3.5-0.4,5c0,0,0,0,0,0c-1.5,1-2.8,1.9-3.8,3.4c-1.8,2.7-1.2,5.3-2.3,8.3c-0.3,0.7-0.2,3.6-2.2,2.5c0,0,0.1-1,0.1-1
				c-0.5-1.2,0.2-3.5,0.4-4.7c0.6-3.6,1.3-7.2,2.8-10.5c4.5-10,10.7-19.9,18.5-27.8l4.8-5.6c-14.6,11.5-28.3,31.4-28.3,50.6
				c0,0.2,0.1,0.2,0.3,0.3c2.2,0.7,4.3-0.8,5.2-2.8c2-4.7,0.5-8.1,4.7-11.4c-0.1,3.6,0.3,6.6,1.7,10.3c1,2.7,6,16.8,8.2,12.2
				c0.8,1.6,1.9,2.6,3.4,2.4c0.4,3.8,1.8,8.6,6.1,6.1c2.6-1.5,1.6-7,1.8-9.3c0.2-4.3,0.6-8.6,1.4-12.9c0.8-4.2,1.5-8.5,4.2-11.8
				c2.8-3.5,5.5-7,7.7-10.9c2,5-0.4,11.7,0.7,16.8c0.9,4.5,5.1,5.8,8.7,3.3c0.3-0.2,0.7-0.6,0.5-1.1
				C1045.5,1180,1053.5,1170.3,1050,1160.3z"/>
		</g>
	</g>
	<g id="pupil_copy" display="inline">
	</g>
</g>
<g id="ch04-02-1">
	<g id="mainComp_x5F_paths-back-up" display="none">
		<g id="eye_x5F_close_x5F_comp_copy" display="inline">
		</g>
		<g id="eye_x5F_far_x5F_comp_copy" display="inline">
		</g>
	</g>
	<g id="mainComp">
		<g id="eye_x5F_close_x5F_comp">
		</g>
		<g id="eye_x5F_far_x5F_comp">
		</g>
	</g>
	<g id="eye_x5F_close_copy_2">
	</g>
	<g id="eye_x5F_close">
	</g>
	<g id="eye_x5F_far_copy_2">
	</g>
	<g id="eye_x5F_far">
	</g>
	<path fill="#49301C" d="M1050,1160.3c-1.8-5.1-5.6-9.4-10.1-12.4c-0.2-0.1-0.4-0.3-0.7-0.4c-4.3-2.7-10.1-1.3-14.6,0.1
		c-0.3,0.1-0.6,0.3-0.7,0.6c0,0,0,0,0,0c-14.6,11.5-28.3,31.4-28.3,50.6c0,0.2,0.1,0.2,0.3,0.3c2.2,0.7,4.3-0.8,5.2-2.8
		c2-4.7,0.5-8.1,4.7-11.4c-0.1,3.6,0.3,6.6,1.7,10.3c1,2.7,6,16.8,8.2,12.2c0.8,1.6,1.9,2.6,3.4,2.4c0.4,3.8,1.8,8.6,6.1,6.1
		c2.6-1.5,1.6-7,1.8-9.3c0.2-4.3,0.6-8.6,1.4-12.9c0.8-4.2,1.5-8.5,4.2-11.8c2.8-3.5,5.5-7,7.7-10.9c2,5.1-0.4,11.7,0.7,16.8
		c0.9,4.5,5.1,5.8,8.7,3.3c0.3-0.2,0.7-0.6,0.5-1.1C1045.5,1180,1053.5,1170.3,1050,1160.3z"/>
	<g id="hand_x5F_relaxed_x5F_back_6_">
		<g id="XMLID_62_">
			<g>
				<path fill="#49301C" d="M1050,1160.3c3.5,10-4.5,19.7,0.1,29.7c0.2,0.4-0.2,0.8-0.5,1.1c-3.7,2.5-7.8,1.2-8.7-3.3
					c-1.1-5.2,1.3-11.8-0.7-16.8c-2.2,3.9-4.8,7.4-7.7,10.9c-2.7,3.3-3.5,7.7-4.2,11.8c-0.8,4.3-1.2,8.6-1.4,12.9
					c-0.1,2.3,0.8,7.8-1.8,9.3c-4.4,2.5-5.7-2.3-6.1-6.1c-1.5,0.2-2.6-0.8-3.4-2.4c-2.2,4.6-7.2-9.5-8.2-12.2
					c-1.4-3.7-1.8-6.7-1.7-10.3c-4.2,3.4-2.7,6.8-4.7,11.4c-0.9,2-3,3.5-5.2,2.8c-0.1-0.1-0.3-0.1-0.3-0.3c0-19.1,13.7-39,28.3-50.6
					l-4.8,5.6c-7.9,7.9-14,17.8-18.5,27.8c-1.5,3.3-2.2,7-2.8,10.5c-0.2,1.2-0.9,3.5-0.4,4.7c0,0.1-0.1,1.1-0.1,1.1
					c2,1.1,1.9-1.8,2.2-2.5c1.2-2.9,0.5-5.6,2.3-8.3c1.1-1.6,2.3-2.4,3.8-3.4c0,0,0,0,0,0c0.1-1.5,0.2-3.2,0.4-5
					c0.2-0.5,2.1-0.5,1.9,0.2c-0.5,1.5-0.6,3.1-0.7,4.8c0,2.2,0.2,4.4,0.4,6.4c0.3,2.3,0.8,4.8,1.5,7c0.6,2.1,1.1,3.7,1.5,4.2
					c0.8,1.2,2.7,6.7,3.4,4.7c0.1-0.2,0.4-0.2,0.7-0.1c-1-3-1.4-7-1.7-8.7c-1-6.1-2-12.6-1-18.8c0.2-1.3,1.4-0.1,1.3,0.7
					c-0.8,4.5-0.2,9,0.3,13.5c0.3,2.8,0.7,5.6,1.3,8.3c0.4,2,0.8,7.4,3.6,6.7c0-0.6,0-1-0.1-1.4c-0.1-4.2,0.1-8.5,0.4-12.7
					c0.3-4.3-0.1-9.7,1.4-13.8c0.2-0.6,2.2-0.2,2,0.4c-1.2,3.2-1,7.4-1.2,10.8c-0.2,3-0.4,6-0.5,9c-0.1,2.3-0.1,4.5,0,6.8
					c0,0.5,0,1.1-0.1,1.7c0,0,0,0,0,0c0,0.1,0,0.3,0,0.4c0,0,0,0,0,0c-0.1,1.6-0.1,3.3,0.5,4.3c3.3,5.4,3.6-2.9,3.6-4.8
					c0.3-7.4,0.9-15.1,3.2-22.1c0.8-2.6,1.5-3.7,3.2-5.6c3.2-3.6,5.8-7.7,8-12c0.1-0.2,0.3-0.3,0.5-0.3c0.4-0.3,1.1-0.5,1.3-0.1
					c3.4,5.3,0.3,12.8,1.6,18.6c0.4,1.8,1.2,3.4,3.1,3.9c2.9,0.8,2.1-0.7,1.6-2.6c-0.9-3.7-1-7.9-0.1-11.5c1.6-6.5,3.1-11.5,0-17.8
					c-0.9-1.9-2.2-3.7-3.7-5.4l-3.6-5.6c0,0,0,0,0,0C1044.4,1150.9,1048.3,1155.2,1050,1160.3z"/>
				<path fill="#734E27" d="M1047.3,1158.9c3.1,6.3,1.6,11.3,0,17.8c-0.9,3.6-0.8,7.8,0.1,11.5c0.4,1.8,1.3,3.3-1.6,2.6
					c-1.9-0.5-2.8-2.1-3.1-3.9c-1.3-5.8,1.8-13.2-1.6-18.6c-0.3-0.4-0.9-0.2-1.3,0.1c-0.2,0-0.4,0.1-0.5,0.3c-2.2,4.3-4.8,8.4-8,12
					c-1.7,1.9-2.4,3-3.2,5.6c-2.3,7.1-2.9,14.8-3.2,22.1c-0.1,1.9-0.4,10.2-3.6,4.8c-0.6-1-0.6-2.7-0.5-4.3c0,0,0,0,0,0
					c0-0.1,0-0.3,0-0.4c0,0,0,0,0,0c0-0.7,0.1-1.3,0.1-1.7c0-2.3,0-4.5,0-6.8c0.1-3,0.3-6,0.5-9c0.2-3.4,0-7.6,1.2-10.8
					c0.2-0.5-1.7-1-2-0.4c-1.5,4.1-1.2,9.5-1.4,13.8c-0.3,4.2-0.5,8.5-0.4,12.7c0,0.4,0,0.8,0.1,1.4c-2.8,0.7-3.1-4.7-3.6-6.7
					c-0.6-2.8-1-5.5-1.3-8.3c-0.5-4.5-1.1-9-0.3-13.5c0.2-0.9-1-2-1.3-0.7c-1.1,6.1,0,12.6,1,18.8c0.3,1.7,0.6,5.7,1.7,8.7
					c-0.3-0.1-0.6-0.1-0.7,0.1c-0.7,2-2.6-3.5-3.4-4.7c-0.3-0.5-0.8-2.1-1.5-4.2c-0.7-2.2-1.2-4.7-1.5-7c-0.3-2-0.5-4.3-0.4-6.4
					c0-1.7,0.2-3.3,0.7-4.8c0.2-0.7-1.8-0.7-1.9-0.2c-0.2,1.8-0.3,3.5-0.4,5c0,0,0,0,0,0c-1.5,1-2.8,1.9-3.8,3.4
					c-1.8,2.7-1.2,5.3-2.3,8.3c-0.3,0.7-0.2,3.6-2.2,2.5c0,0,0.1-1,0.1-1.1c-0.5-1.2,0.2-3.5,0.4-4.7c0.6-3.5,1.3-7.2,2.8-10.5
					c4.5-10,10.6-19.9,18.5-27.8l4.8-5.6c0,0,0,0,0,0c0.2-0.3,0.4-0.5,0.7-0.6c4.5-1.4,10.3-2.8,14.6-0.1c0.2,0.1,0.4,0.3,0.7,0.4
					c0,0,0,0,0,0l3.6,5.6C1045.1,1155.2,1046.4,1157,1047.3,1158.9z"/>
			</g>
		</g>
	</g>
	<g id="pupil_copy_2">
	</g>
	<g id="pupil_4_">
	</g>
</g>
<g id="ch05-07-1">
	<g id="main_x5F_comp_1_">
		<g id="hand_washing_copy">
		</g>
	</g>
	<g id="assets">
	</g>
	<g id="hand_washing">
	</g>
</g>
</svg>
