<?xml version="1.0" encoding="utf-8"?>
<!-- Generator: Adobe Illustrator 18.1.1, SVG Export Plug-In . SVG Version: 6.00 Build 0)  -->
<svg version="1.1" xmlns="http://www.w3.org/2000/svg" xmlns:xlink="http://www.w3.org/1999/xlink" x="0px" y="0px"
	 viewBox="1083.2 1846.6 42.6 7.2" enable-background="new 1083.2 1846.6 42.6 7.2" xml:space="preserve">
<g id="additional_reference">
</g>
<g id="ch07-09-1">
</g>
<g id="ch04-05-1">
</g>
<g id="ch04-11-2">
</g>
<g id="ch04-06-1">
	<g id="older_version">
		<g id="head_3_" display="none">
			<g id="hair_3_">
			</g>
		</g>
		<g id="hands" display="none">
		</g>
		<g id="head_4_" display="none">
		</g>
		<g id="new_path" display="none">
		</g>
		<g id="handback" display="none">
		</g>
		<g id="handFront">
		</g>
		<g id="Layer_21" display="none">
		</g>
	</g>
	<g id="path_copy-with_stroke">
		<g id="handBack_copy">
		</g>
		<g id="head_copy">
		</g>
		<g id="neck_copy">
		</g>
		<g id="sleeve_copy">
		</g>
		<g id="handFront_copy">
		</g>
		<g id="skirt_copy">
		</g>
		<g id="torso_copy">
		</g>
	</g>
	<g id="comp_layer">
		<g id="skirt_copy_3">
			<g id="skirt_copy_3_2_">
			</g>
			<g id="skirt_copy_3_1_">
			</g>
		</g>
		<g id="torso_copy_2">
		</g>
		<g id="sleeve_copy_2">
		</g>
		<g id="neck_5_">
		</g>
		<g id="head_copy_2">
			<g id="head-silo_copy">
			</g>
		</g>
		<g id="head_copy_3">
			<g id="head-silo_copy_2">
			</g>
		</g>
		<g id="handFront_copy_2">
		</g>
		<g id="handBack_copy_2">
		</g>
	</g>
	<g id="skirt_5_">
		<g id="skirt_4_">
		</g>
		<g id="skirt_copy_2">
		</g>
	</g>
	<g id="torso_copy_3">
	</g>
	<g id="sleeve">
	</g>
	<g id="neck_6_">
	</g>
	<g id="handBack">
	</g>
	<g id="handFront_1_">
	</g>
</g>
<g id="ch04-03-2">
	<g>
		<path d="M1083.3,1853.5c0.2,0,0.7-0.1,1-0.3c9.3-6.7,17.8-2.2,27.4,0c5,1.1,8.6,0.8,13.2-1.4c0.2-0.1,1.4-1,0.5-0.9
			c-1,0.2-2,0.3-3,0.2c-4.8-0.1-9.1-2.3-13.8-3.4c-4.5-1.1-9.2-1.4-13.8-0.7c-4.3,0.7-9.3,2.3-11.6,6.2c0,0,0,0,0,0
			c0,0-0.1,0.1-0.1,0.1c0,0,0,0,0,0C1083.2,1853.4,1083.2,1853.5,1083.3,1853.5z"/>
	</g>
	<g id="assets_2_">
		<g id="torso_x5F_34down_2_">
			<g id="XMLID_19_">
				<g>
					<path d="M1113.2,1852c-10.2-2.4-18.6-5.8-27.8-0.3c3.9-4.6,13.3-4.4,18.2-3.7c3.4,0.5,6.6,1.5,9.9,2.6c2.5,0.8,4.7,1,7.1,1.3
						c-0.4,0.2-0.9,0.5-1.5,0.9C1117.3,1853,1115.1,1852.5,1113.2,1852z"/>
					<path d="M1103.7,1848.1c-5-0.7-14.4-0.9-18.2,3.7c9.1-5.5,17.6-2,27.8,0.3c1.9,0.4,4,0.9,6,0.8c0.6-0.4,1.1-0.7,1.5-0.9
						c-2.4-0.3-4.6-0.5-7.1-1.3C1110.3,1849.6,1107.1,1848.6,1103.7,1848.1z M1111.8,1853.1c-9.6-2.2-18.1-6.7-27.4,0
						c-0.3,0.2-0.8,0.4-1,0.3c-0.1,0-0.2,0-0.1-0.1c0,0,0,0,0,0c0,0,0.1-0.1,0.1-0.1c0,0,0,0,0,0c2.4-3.9,7.4-5.5,11.6-6.2
						c4.6-0.8,9.3-0.4,13.8,0.7c4.7,1.1,9,3.3,13.8,3.4c1,0,2-0.1,3-0.2c0.9-0.2-0.3,0.8-0.5,0.9
						C1120.4,1853.9,1116.8,1854.2,1111.8,1853.1z"/>
				</g>
				<g>
					<path fill="none" stroke="#000000" stroke-width="0" stroke-linecap="round" stroke-linejoin="round" d="M1083.3,1853.2
						c0,0-0.1,0.1-0.1,0.1"/>
				</g>
			</g>
		</g>
	</g>
</g>
<g id="ch04-02-2_safe_copy" display="none">
	<g id="mainComp_x5F_paths-back-up_copy">
		<g id="eye_x5F_close_x5F_comp_copy_2_1_" display="inline">
		</g>
		<g id="eye_x5F_far_x5F_comp_copy_2_1_" display="inline">
		</g>
	</g>
	<g id="mainComp_copy" display="inline">
		<g id="eye_x5F_close_x5F_comp_copy_2">
		</g>
		<g id="eye_x5F_far_x5F_comp_copy_2">
		</g>
	</g>
	<g id="eye_x5F_close_copy" display="inline">
	</g>
	<g id="eye_x5F_far_copy" display="inline">
	</g>
	<g id="pupil_copy" display="inline">
	</g>
</g>
<g id="ch04-02-1">
	<g id="mainComp_x5F_paths-back-up" display="none">
		<g id="eye_x5F_close_x5F_comp_copy" display="inline">
		</g>
		<g id="eye_x5F_far_x5F_comp_copy" display="inline">
		</g>
	</g>
	<g id="mainComp">
		<g id="eye_x5F_close_x5F_comp">
		</g>
		<g id="eye_x5F_far_x5F_comp">
		</g>
	</g>
	<g id="eye_x5F_close_copy_2">
	</g>
	<g id="eye_x5F_close">
	</g>
	<g id="eye_x5F_far_copy_2">
	</g>
	<g id="eye_x5F_far">
	</g>
	<g id="pupil_copy_2">
	</g>
	<g id="pupil_4_">
	</g>
</g>
<g id="ch05-07-1">
	<g id="main_x5F_comp_1_">
		<g id="hand_washing_copy">
		</g>
	</g>
	<g id="assets">
	</g>
	<g id="hand_washing">
	</g>
</g>
</svg>
