<?xml version="1.0" encoding="utf-8"?>
<!-- Generator: Adobe Illustrator 18.1.1, SVG Export Plug-In . SVG Version: 6.00 Build 0)  -->
<svg version="1.1" xmlns="http://www.w3.org/2000/svg" xmlns:xlink="http://www.w3.org/1999/xlink" x="0px" y="0px"
	 viewBox="1470.4 775.8 51.5 42.2" enable-background="new 1470.4 775.8 51.5 42.2" xml:space="preserve">
<g id="additional_reference">
</g>
<g id="ch07-09-1">
</g>
<g id="ch04-05-1">
</g>
<g id="ch04-11-2">
</g>
<g id="ch04-06-1">
	<g id="older_version">
		<g id="head_3_" display="none">
			<g id="hair_3_">
			</g>
		</g>
		<g id="hands" display="none">
		</g>
		<g id="head_4_" display="none">
		</g>
		<g id="new_path" display="none">
		</g>
		<g id="handback" display="none">
		</g>
		<g id="handFront">
		</g>
		<g id="Layer_21" display="none">
		</g>
	</g>
	<g id="path_copy-with_stroke">
		<g id="handBack_copy">
		</g>
		<g id="head_copy">
		</g>
		<g id="neck_copy">
		</g>
		<g id="sleeve_copy">
		</g>
		<g id="handFront_copy">
		</g>
		<g id="skirt_copy">
		</g>
		<g id="torso_copy">
		</g>
	</g>
	<g id="comp_layer">
		<g id="skirt_copy_3">
			<g id="skirt_copy_3_2_">
			</g>
			<g id="skirt_copy_3_1_">
			</g>
		</g>
		<g id="torso_copy_2">
		</g>
		<g id="sleeve_copy_2">
		</g>
		<g id="neck_5_">
		</g>
		<g id="head_copy_2">
			<g id="head-silo_copy">
			</g>
		</g>
		<g id="head_copy_3">
			<g id="head-silo_copy_2">
			</g>
		</g>
		<g id="handFront_copy_2">
		</g>
		<g id="handBack_copy_2">
		</g>
	</g>
	<g id="skirt_5_">
		<g id="skirt_4_">
		</g>
		<g id="skirt_copy_2">
		</g>
	</g>
	<g id="torso_copy_3">
	</g>
	<g id="sleeve">
	</g>
	<g id="neck_6_">
	</g>
	<g id="handBack">
	</g>
	<g id="handFront_1_">
	</g>
</g>
<g id="ch04-03-2">
</g>
<g id="ch04-02-2_safe_copy" display="none">
	<g id="mainComp_x5F_paths-back-up_copy">
		<g id="eye_x5F_close_x5F_comp_copy_2_1_" display="inline">
		</g>
		<g id="eye_x5F_far_x5F_comp_copy_2_1_" display="inline">
		</g>
	</g>
	<g id="mainComp_copy" display="inline">
		<g id="eye_x5F_close_x5F_comp_copy_2">
		</g>
		<g id="eye_x5F_far_x5F_comp_copy_2">
		</g>
	</g>
	<g id="eye_x5F_close_copy" display="inline">
	</g>
	<g id="eye_x5F_far_copy" display="inline">
	</g>
	<g id="torso_x2B_sleeves_1_" display="inline">
		<g id="sleeve_close_1_">
			<path fill="#C1C18A" d="M1521.3,803.4C1521.4,803.9,1521.9,806.5,1521.3,803.4c-0.7-2.1-1.4-4.1-3-5.6c0,0.3,0,0.5,0.1,0.8
				c-0.7-1.6-1.5-3.1-2.8-4.6c-1-1.2-1.9-2.5-3.1-3.5c0.2,0.2,0.4,0.3,0.6,0.5c-3.8-7.4-15.2-20.7-24.1-12.7c-4.7,4.3-5.7,10-8,15.6
				c-2.2,5.4-7.4,8.9-10.6,13.7c0.6-0.6,0.3,0.4,0.5,0.5c0.5,0.1,1.3-0.5,1.8-0.7c1.5-0.6,2.9-1.2,4.5-1.7c3-0.9,6.2-1.5,9.4-1.2
				c6.9,0.6,10.1,6,15.7,9.2c3.8,2.2,10.2,5,14.8,4.2C1523,816.8,1522.1,807.7,1521.3,803.4z"/>
			<g>
				<path fill="#C1C18A" d="M1519.8,802.9c-0.9-3.5-1.9-6.1-4.2-8.9c-1-1.2-2-2.5-3.1-3.6c-3.7-3.6-7.5-7.5-11.7-10.5
					c-2.5-1.8-5.7-4.3-8.9-2.7c-3.1,1.5-5.4,5.6-6.7,8.7c-1.5,3.5-1.8,7.4-3.9,10.6c-2.2,3.4-5.6,6-8.1,9.2c5.5-2.5,12.2-4.3,18.1-2
					c5,2,8.6,6.6,13.4,9c3.5,1.8,8.3,3.6,12.3,3.1C1522.8,815,1520.8,806.8,1519.8,802.9C1519.3,801,1520.8,806.8,1519.8,802.9z"/>
				<path d="M1521.3,803.3c-0.7-2-1.4-4-3-5.5c0,2.4,1.7,5.4,2.1,7.8c0.5,2.6,1.1,6.4-0.6,8.7c-2.4,3.2-8.9,0.9-11.9-0.2
					c-5.9-2.2-9.7-6.8-15-9.7c-6.2-3.4-13.7-1.5-19.8,1.2c4-5,8.6-8.4,10.4-14.8c1.3-4.7,3.8-12.7,9.3-14.1
					c4.9-1.2,11.2,5.6,14.2,8.7c1.9,2,4,3.7,6,5.5c-3.8-7.4-15.2-20.7-24.1-12.7c-4.7,4.3-5.7,10-8,15.6c-2.2,5.4-7.4,8.9-10.6,13.7
					c0.6-0.6,0.3,0.4,0.5,0.5c0.5,0.1,1.3-0.5,1.8-0.7c1.5-0.6,2.9-1.2,4.5-1.7c3-0.9,6.2-1.5,9.4-1.2c6.9,0.6,10.1,6,15.7,9.2
					c3.8,2.2,10.2,5,14.8,4.2C1523,816.8,1522.1,807.5,1521.3,803.3C1521.3,803.3,1521.9,806.8,1521.3,803.3z"/>
			</g>
		</g>
	</g>
	<g id="pupil_copy" display="inline">
	</g>
</g>
<g id="ch04-02-1">
	<g id="mainComp_x5F_paths-back-up" display="none">
		<g id="eye_x5F_close_x5F_comp_copy" display="inline">
		</g>
		<g id="eye_x5F_far_x5F_comp_copy" display="inline">
		</g>
	</g>
	<g id="mainComp">
		<g id="eye_x5F_close_x5F_comp">
		</g>
		<g id="eye_x5F_far_x5F_comp">
		</g>
	</g>
	<g id="eye_x5F_close_copy_2">
	</g>
	<g id="eye_x5F_close">
	</g>
	<g id="eye_x5F_far_copy_2">
	</g>
	<g id="eye_x5F_far">
	</g>
	<g>
		<path fill="#ADAB5C" d="M1521.5,804.8C1521.5,804.8,1521.5,804.7,1521.5,804.8C1521.5,804.7,1521.5,804.7,1521.5,804.8
			C1521.5,804.7,1521.5,804.8,1521.5,804.8z"/>
		<path fill="#ADAB5C" d="M1521.5,804.6C1521.5,804.6,1521.5,804.7,1521.5,804.6C1521.5,804.6,1521.5,804.6,1521.5,804.6
			c0-0.1,0-0.1,0-0.2c0,0,0,0,0,0C1521.5,804.6,1521.5,804.6,1521.5,804.6z"/>
		<path fill="#ADAB5C" d="M1521.5,804.7c0,0,0-0.1,0-0.1l0,0c0,0,0-0.1,0-0.1c0,0,0,0,0-0.1l0,0c0,0,0,0,0,0s0,0,0,0c0,0,0,0,0,0.1
			c0,0,0,0,0,0c0-0.1,0-0.3-0.1-0.4c0,0,0,0,0-0.1c0,0,0,0,0,0c0,0,0-0.1,0-0.1l0,0c0,0,0-0.1,0-0.2c0-0.1-0.1-0.2-0.1-0.4
			c-0.7-2-1.4-4-3-5.5c0,0.1,0,0.2,0,0.3c0,0.1,0,0.1,0,0.2c0,0,0,0,0,0.1c0,0.1,0,0.1,0,0.2c-0.1-0.2-0.2-0.4-0.3-0.6
			c-0.1-0.2-0.2-0.4-0.3-0.5c-0.1-0.2-0.2-0.4-0.3-0.6c-0.1-0.2-0.2-0.4-0.3-0.6c-0.5-0.8-1-1.5-1.6-2.3c-0.5-0.6-1-1.2-1.5-1.8
			c-0.5-0.6-1-1.2-1.5-1.7c0.2,0.2,0.4,0.3,0.6,0.5c-3.6-6.9-13.8-19.1-22.4-13.9c-0.6,0.3-1.1,0.7-1.7,1.2c-4.7,4.3-5.7,10-8,15.6
			c-2.2,5.4-7.4,8.9-10.6,13.7c0.6-0.6,0.3,0.3,0.5,0.5c0,0,0,0,0.1,0c0,0,0,0,0.1,0c0.1,0,0.2,0,0.3,0c0.1,0,0.1,0,0.2-0.1
			c0.4-0.2,0.9-0.5,1.3-0.6c1.5-0.6,2.9-1.2,4.5-1.7c3-0.9,6.2-1.5,9.4-1.2c6.9,0.6,10.1,6,15.7,9.2c3.8,2.2,10.2,5,14.8,4.2
			c0.3-0.1,0.6-0.1,0.9-0.3c0.2-0.1,0.4-0.2,0.6-0.3c0.6-0.3,1.1-0.8,1.5-1.4c0.1-0.2,0.2-0.3,0.3-0.5c0.2-0.3,0.4-0.7,0.5-1.1
			c0,0,0,0,0,0c0.1-0.2,0.1-0.4,0.2-0.5c0.1-0.2,0.1-0.4,0.2-0.5c0.1-0.6,0.3-1.2,0.3-1.8c0-0.1,0-0.3,0-0.4c0-0.3,0.1-0.6,0.1-0.9
			c0-0.5,0-1,0-1.5c0-1.4-0.2-2.7-0.3-3.8C1521.5,804.8,1521.5,804.7,1521.5,804.7z"/>
	</g>
	<g id="torso_x2B_sleeves_2_">
		<g id="sleeve_far_4_">
			<g id="torso_3_">
				<g>
					<path fill="#C1C18A" d="M1473.1,805.7c3.7-4.7,8-8,10.1-13.6c-0.5,1.6-1.1,3.1-2,4.5C1479,799.9,1475.7,802.5,1473.1,805.7z"/>
					<path d="M1521.8,810.2c0-0.5,0-1,0-1.5C1521.9,809.2,1521.9,809.7,1521.8,810.2z"/>
					<path fill="#C1C18A" d="M1518,817.6c0.2-0.1,0.4-0.2,0.6-0.3C1518.4,817.4,1518.2,817.5,1518,817.6z"/>
					<path fill="#C1C18A" d="M1521.5,804.7C1521.5,804.7,1521.5,804.8,1521.5,804.7C1521.5,804.8,1521.5,804.7,1521.5,804.7
						C1521.5,804.7,1521.5,804.7,1521.5,804.7z"/>
					<path d="M1521.3,803.7C1521.3,803.7,1521.3,803.7,1521.3,803.7C1521.3,803.7,1521.3,803.7,1521.3,803.7
						C1521.3,803.6,1521.3,803.7,1521.3,803.7z"/>
					<path fill="#ADAB5C" d="M1521.5,804.5c0,0,0,0.1,0,0.1C1521.5,804.6,1521.5,804.6,1521.5,804.5z"/>
					<path fill="#ADAB5C" d="M1490.7,777.1c8.6-5.2,18.9,7,22.4,13.9c-0.2-0.2-0.4-0.3-0.6-0.5c0,0,0,0-0.1-0.1
						c-2.4-2.3-4.8-4.7-7.3-6.9c0,0,0,0,0,0c-3.3-3.3-8.2-7.7-12.3-6.7c-0.7,0.2-1.3,0.4-1.9,0.8L1490.7,777.1z"/>
					<path fill="#C1C18A" d="M1521.5,804.5c0,0,0,0.1,0,0.1C1521.5,804.6,1521.5,804.5,1521.5,804.5
						C1521.5,804.5,1521.5,804.5,1521.5,804.5z"/>
					<path fill="#C1C18A" d="M1521.5,804.6C1521.5,804.6,1521.5,804.6,1521.5,804.6C1521.5,804.7,1521.5,804.6,1521.5,804.6
						C1521.5,804.6,1521.5,804.6,1521.5,804.6z"/>
					<path fill="#ADAB5C" d="M1521.5,804.5c0-0.2-0.1-0.5-0.1-0.7c0,0,0,0,0,0l0,0c0,0,0,0.1,0,0.1c0,0,0,0,0,0c0,0,0,0,0,0.1
						c0,0,0,0.1,0,0.1c0,0,0,0,0,0c0,0,0,0,0,0c0,0,0,0,0,0.1C1521.5,804.4,1521.5,804.5,1521.5,804.5z"/>
					<path fill="#ADAB5C" d="M1521.3,803.3c0,0.1,0.1,0.3,0.1,0.4c0,0,0,0,0,0C1521.3,803.6,1521.3,803.4,1521.3,803.3z"/>
					<path d="M1521.8,808.7c0-1.4-0.2-2.7-0.3-3.8C1521.7,806,1521.8,807.4,1521.8,808.7z"/>
					<path fill="#ADAB5C" d="M1521.3,803.5c0,0,0,0.1,0,0.1C1521.3,803.6,1521.3,803.5,1521.3,803.5
						C1521.3,803.5,1521.3,803.5,1521.3,803.5z"/>
					<path fill="#C1C18A" d="M1500.7,779.9c-2.5-1.8-5.7-4.3-8.9-2.7c-2.5,1.2-4.4,4.1-5.8,6.7c1.2-2.6,2.8-5,5-6.3
						c0.6-0.4,1.2-0.6,1.9-0.8c4-1,8.9,3.4,12.3,6.7C1503.7,782.3,1502.2,781,1500.7,779.9z"/>
					<path fill="#C1C18A" d="M1521.4,804L1521.4,804C1521.4,804.1,1521.4,804.1,1521.4,804C1521.4,804.1,1521.4,804.1,1521.4,804z"
						/>
					<path d="M1520,803.5C1520,803.5,1520,803.5,1520,803.5S1520,803.5,1520,803.5C1520,803.5,1520,803.5,1520,803.5z"/>
					<path fill="#C1C18A" d="M1520.9,809.1c0.1,1.9,0,3.9-1.1,5.2c-1.6,2.1-4.9,1.8-7.9,1.1c1.7,0.4,3.4,0.5,4.9,0.4
						C1520.4,815.3,1521.1,812.3,1520.9,809.1z"/>
					<path fill="#ADAB5C" d="M1471.5,808c-0.1,0-0.1,0.1-0.2,0.1C1471.4,808.1,1471.4,808,1471.5,808z"/>
					<path fill="#C1C18A" d="M1521.2,813.9c0.1-0.2,0.1-0.4,0.2-0.5C1521.3,813.5,1521.3,813.7,1521.2,813.9z"/>
					<path fill="#C1C18A" d="M1494.9,805.6c-0.6-0.4-1.3-0.8-1.9-1.2c-0.2-0.1-0.4-0.2-0.6-0.3
						C1493.3,804.5,1494.1,805,1494.9,805.6z"/>
					<path d="M1519.8,803c0-0.1,0-0.1,0-0.2C1519.8,802.9,1519.8,803,1519.8,803z"/>
					<path fill="#ADAB5C" d="M1519.8,802.9c0,0.1,0,0.1,0,0.2c0,0.1,0.1,0.3,0.1,0.4c0,0,0,0,0,0.1c0,0,0,0,0,0c0,0,0,0,0,0.1
						c0,0,0,0,0,0.1c0,0.1,0,0.2,0.1,0.3c0,0,0,0.1,0,0.1c0.3,1.3,0.7,3,0.8,4.6c-0.1-1.1-0.3-2.1-0.5-3c-0.4-2.2-1.8-4.8-2.1-7
						c0.5,1.2,0.9,2.5,1.3,3.9c0,0,0,0,0,0c0,0,0,0,0,0.1c0,0,0,0.1,0,0.2C1519.8,802.8,1519.8,802.8,1519.8,802.9z"/>
					<path d="M1520,803.7c0,0.1,0,0.1,0,0.1C1520,803.8,1520,803.8,1520,803.7z"/>
					<path fill="#C1C18A" d="M1521.5,804.5C1521.5,804.5,1521.5,804.4,1521.5,804.5c0-0.1,0-0.1,0-0.1c0,0,0,0,0,0c0,0,0,0,0-0.1
						c0,0,0-0.1,0-0.1c0,0,0,0,0-0.1C1521.4,804.2,1521.5,804.4,1521.5,804.5z"/>
					<path fill="#ADAB5C" d="M1521.3,803.6C1521.3,803.6,1521.3,803.6,1521.3,803.6C1521.3,803.7,1521.3,803.6,1521.3,803.6
						C1521.3,803.6,1521.3,803.6,1521.3,803.6z"/>
					<path fill="#ADAB5C" d="M1518.3,798.4c0,0.1,0,0.2,0,0.2l0,0C1518.4,798.5,1518.3,798.5,1518.3,798.4z"/>
					<path fill="#C1C18A" d="M1518.3,798.3c0-0.1,0-0.1,0-0.2C1518.3,798.2,1518.3,798.2,1518.3,798.3z"/>
					<path fill="#ADAB5C" d="M1521.4,804C1521.4,804,1521.4,804,1521.4,804C1521.4,804,1521.4,804,1521.4,804
						C1521.4,804,1521.4,804,1521.4,804z"/>
					<path d="M1520.5,815.5c-0.1,0.2-0.2,0.3-0.3,0.5C1520.3,815.8,1520.4,815.6,1520.5,815.5z"/>
					<path d="M1520.1,804c0,0,0,0.1,0,0.1C1520.1,804.1,1520.1,804.1,1520.1,804C1520.1,804,1520.1,804,1520.1,804z"/>
					<path fill="#ADAB5C" d="M1470.9,808.1c0.1,0,0.2,0,0.4,0C1471.2,808.1,1471,808.1,1470.9,808.1
						C1470.9,808.1,1470.9,808.1,1470.9,808.1C1470.9,808.1,1470.9,808.1,1470.9,808.1z"/>
					<path d="M1521.4,804.2C1521.4,804.3,1521.5,804.3,1521.4,804.2C1521.5,804.3,1521.4,804.3,1521.4,804.2
						C1521.4,804.2,1521.4,804.2,1521.4,804.2z"/>
					<path d="M1521.7,811.5c0-0.1,0-0.3,0-0.4C1521.8,811.2,1521.7,811.4,1521.7,811.5z"/>
					<path fill="#C1C18A" d="M1521.4,804.3C1521.4,804.3,1521.5,804.3,1521.4,804.3L1521.4,804.3
						C1521.4,804.3,1521.4,804.3,1521.4,804.3z"/>
					<path fill="#C1C18A" d="M1477.5,804c-0.7,0.2-1.3,0.4-1.9,0.7C1476.2,804.4,1476.9,804.2,1477.5,804z"/>
					<path d="M1521.5,804.6C1521.5,804.6,1521.5,804.6,1521.5,804.6C1521.5,804.6,1521.5,804.6,1521.5,804.6
						C1521.5,804.5,1521.5,804.6,1521.5,804.6z"/>
					<path fill="#ADAB5C" d="M1519.9,803.5C1520,803.5,1520,803.5,1519.9,803.5C1520,803.5,1520,803.5,1519.9,803.5
						C1519.9,803.5,1519.9,803.5,1519.9,803.5z"/>
					<path fill="#C1C18A" d="M1521.5,804.4C1521.5,804.4,1521.5,804.4,1521.5,804.4C1521.5,804.4,1521.5,804.3,1521.5,804.4
						C1521.5,804.4,1521.5,804.4,1521.5,804.4z"/>
					<path fill="#C1C18A" d="M1514.1,792.2c-0.5-0.6-1-1.2-1.5-1.7C1513.1,791,1513.6,791.6,1514.1,792.2z"/>
					<path fill="#C1C18A" d="M1492.4,804.1c-0.2-0.1-0.4-0.2-0.5-0.3C1492,804,1492.2,804,1492.4,804.1z"/>
					<path fill="#ADAB5C" d="M1486,783.9c-1.1,2.4-1.9,5-2.4,6.9c-0.1,0.4-0.2,0.7-0.4,1.1c0.6-2,1.1-4.1,1.9-6.1
						C1485.4,785.3,1485.7,784.6,1486,783.9z"/>
					<path fill="#ADAB5C" d="M1483.2,792c-2,5.7-6.3,8.9-10.1,13.6c0.8-0.4,1.6-0.7,2.5-1c0.6-0.2,1.3-0.5,1.9-0.7
						c0.2-0.1,0.5-0.1,0.7-0.2c4.1-1.2,8.4-1.7,12.4-0.3c0.4,0.1,0.8,0.3,1.2,0.5c0.2,0.1,0.4,0.2,0.5,0.3c0.2,0.1,0.4,0.2,0.6,0.3
						c0.7,0.4,1.3,0.8,1.9,1.2c0.2,0.2,0.5,0.3,0.7,0.5c3,2.2,5.7,4.9,9,6.6c2.1,1.1,4.7,2.2,7.3,2.8c3,0.7,6.3,1,7.9-1.1
						c1-1.4,1.2-3.3,1.1-5.2c0-0.2,0-0.3,0-0.5c-0.1-1.6-0.5-3.2-0.8-4.6c0,0,0,0,0,0c0,0,0-0.1,0-0.1c0,0,0-0.1,0-0.1
						c0,0,0-0.1,0-0.1c0,0,0,0,0-0.1c0,0,0,0,0-0.1c0,0,0,0,0,0c0,0,0-0.1,0-0.1c0-0.1-0.1-0.3-0.1-0.4c0-0.1,0-0.1,0-0.2
						c0,0,0-0.1,0-0.1c0-0.1,0-0.1,0-0.2c0,0,0-0.1,0-0.1c0,0,0,0,0,0c-0.4-1.4-0.8-2.7-1.3-3.9l0,0c0-0.1,0-0.1,0-0.2
						c0,0,0,0,0-0.1c0-0.1,0-0.1,0-0.2c0-0.1,0-0.2,0-0.3c1.6,1.4,2.3,3.5,3,5.5c0,0,0,0,0,0.2c0,0,0,0,0,0.1c0,0,0,0.1,0,0.1
						c0,0,0,0,0,0.1c0,0,0,0,0,0c0,0,0,0,0,0c0,0,0,0,0,0.1c0,0.2,0.1,0.4,0.1,0.7l0,0c0,0,0,0.1,0,0.1c0,0.1,0,0.1,0,0.2
						c0.2,1.1,0.3,2.5,0.3,3.8c0,0.5,0,1,0,1.5c0,0.3,0,0.6-0.1,0.9c0,0.1,0,0.3,0,0.4c-0.1,0.6-0.2,1.2-0.3,1.8
						c0,0.2-0.1,0.4-0.2,0.5c-0.1,0.2-0.1,0.4-0.2,0.5c0,0,0,0,0,0c-0.1,0.4-0.3,0.7-0.5,1.1c-0.1,0.2-0.2,0.3-0.3,0.5
						c-0.4,0.6-0.9,1-1.5,1.4c-0.2,0.1-0.4,0.2-0.6,0.3c-0.3,0.1-0.6,0.2-0.9,0.3c-4.6,0.8-11-2-14.8-4.2c-5.6-3.2-8.7-8.6-15.7-9.2
						c-3.2-0.3-6.4,0.3-9.4,1.2c-1.5,0.5-3,1.1-4.5,1.7c-0.3,0.2-0.8,0.5-1.3,0.6c-0.1,0-0.1,0-0.2,0.1c-0.1,0-0.3,0.1-0.4,0
						c0,0,0,0-0.1,0c-0.2-0.2,0.1-1.1-0.5-0.5c3.3-4.8,8.4-8.2,10.6-13.7c2.3-5.6,3.3-11.3,8-15.6c0.5-0.5,1.1-0.9,1.7-1.2l0.3,0.5
						c-2.2,1.3-3.8,3.7-5,6.3c-0.3,0.7-0.6,1.3-0.9,1.9C1484.3,787.8,1483.8,789.9,1483.2,792C1483.2,792,1483.2,792,1483.2,792z"/>
					<path d="M1519.7,802.5C1519.7,802.5,1519.7,802.5,1519.7,802.5C1519.7,802.5,1519.7,802.5,1519.7,802.5z"/>
					<path fill="#C1C18A" d="M1478.2,803.7c-0.2,0.1-0.5,0.1-0.7,0.2C1477.8,803.9,1478,803.8,1478.2,803.7z"/>
					<path d="M1521.3,803.3c0,0,0,0.1,0,0.2C1521.3,803.4,1521.3,803.3,1521.3,803.3z"/>
					<path d="M1521.4,803.8C1521.4,803.8,1521.4,803.8,1521.4,803.8C1521.3,803.8,1521.3,803.8,1521.4,803.8
						C1521.4,803.7,1521.4,803.8,1521.4,803.8z"/>
					<path d="M1521,814.4C1521,814.4,1521,814.4,1521,814.4C1521,814.4,1521,814.4,1521,814.4z"/>
					<path fill="#C1C18A" d="M1517.5,796.9c-0.1-0.2-0.2-0.4-0.3-0.6C1517.3,796.5,1517.4,796.7,1517.5,796.9z"/>
					<path d="M1521.3,803.7C1521.3,803.7,1521.4,803.7,1521.3,803.7C1521.4,803.8,1521.4,803.7,1521.3,803.7
						C1521.3,803.7,1521.3,803.7,1521.3,803.7z"/>
					<path fill="#C1C18A" d="M1490.6,803.4c-4-1.3-8.3-0.9-12.4,0.3C1482.3,802.5,1486.6,802,1490.6,803.4z"/>
					<path fill="#C1C18A" d="M1517.8,797.5c0.1,0.2,0.2,0.4,0.3,0.5C1518,797.8,1517.9,797.7,1517.8,797.5z"/>
					<path fill="#ADAB5C" d="M1521.3,803.7C1521.3,803.7,1521.3,803.7,1521.3,803.7C1521.3,803.7,1521.3,803.7,1521.3,803.7
						C1521.3,803.7,1521.3,803.7,1521.3,803.7c0,0.1,0,0.1,0,0.2c0,0,0,0,0,0C1521.4,803.8,1521.4,803.8,1521.3,803.7
						C1521.4,803.7,1521.3,803.7,1521.3,803.7z"/>
					<path fill="#C1C18A" d="M1491.8,777.2c3.2-1.6,6.4,0.9,8.9,2.7c1.5,1.1,3,2.3,4.4,3.6c0,0,0,0,0,0c0.7,0.7,1.4,1.4,1.9,1.9
						c1.7,1.8,3.5,3.3,5.4,4.9c0,0,0,0,0.1,0.1c0.5,0.5,1.1,1.1,1.5,1.7c0.5,0.6,1,1.2,1.5,1.8c0.6,0.8,1.2,1.5,1.6,2.3
						c0.1,0.2,0.2,0.4,0.3,0.6c0.1,0.2,0.2,0.4,0.3,0.6c0.1,0.2,0.2,0.4,0.3,0.5c0.1,0.2,0.2,0.4,0.3,0.6l0,0l0,0
						c0.3,2.3,1.6,4.9,2.1,7c0.2,0.9,0.4,1.9,0.5,3c0,0.2,0,0.3,0,0.5c0.2,3.2-0.6,6.2-4.1,6.7c-1.6,0.2-3.3,0-4.9-0.4
						c-1.5-0.4-3-0.9-4-1.3c-4.9-1.8-8.3-5.3-12.4-8.1c-0.2-0.2-0.5-0.3-0.7-0.5c-0.8-0.5-1.6-1-2.5-1.5c-0.2-0.1-0.4-0.2-0.5-0.3
						c-0.4-0.2-0.8-0.3-1.2-0.5c-4-1.4-8.3-0.9-12.4,0.3c-0.2,0.1-0.4,0.1-0.7,0.2c-0.6,0.2-1.3,0.4-1.9,0.7c-0.8,0.3-1.7,0.7-2.5,1
						c2.5-3.2,5.9-5.7,8.1-9.2c0.9-1.4,1.5-2.9,2-4.5c0,0,0-0.1,0-0.1c0.1-0.4,0.2-0.7,0.4-1.1c0.6-1.9,1.3-4.5,2.4-6.9
						C1487.4,781.3,1489.3,778.4,1491.8,777.2z"/>
					<path fill="#ADAB5C" d="M1520,803.8c0,0,0,0.1,0,0.1c0-0.1-0.1-0.2-0.1-0.3C1520,803.8,1520,803.8,1520,803.8z"/>
					<path fill="#ADAB5C" d="M1504.6,812.6c-3.3-1.7-6-4.4-9-6.6c4.1,2.8,7.5,6.2,12.4,8.1c1,0.4,2.5,0.9,4,1.3
						C1509.3,814.8,1506.7,813.7,1504.6,812.6z"/>
					<path fill="#ADAB5C" d="M1505.2,783.6c2.5,2.2,4.9,4.6,7.3,6.9c-1.8-1.6-3.7-3.2-5.4-4.9
						C1506.5,784.9,1505.9,784.3,1505.2,783.6z"/>
					<path fill="#ADAB5C" d="M1521.4,804C1521.4,804,1521.4,804,1521.4,804L1521.4,804C1521.4,804,1521.4,804,1521.4,804z"/>
					<path fill="#ADAB5C" d="M1521.3,803.3c0,0.1,0,0.2,0.1,0.4c0,0,0-0.1,0-0.1c0,0,0-0.1,0-0.1
						C1521.3,803.4,1521.3,803.4,1521.3,803.3z"/>
					<path d="M1521.3,803.6C1521.3,803.6,1521.3,803.6,1521.3,803.6C1521.3,803.6,1521.3,803.6,1521.3,803.6
						C1521.3,803.5,1521.3,803.6,1521.3,803.6z"/>
				</g>
			</g>
		</g>
	</g>
	<g id="pupil_copy_2">
	</g>
	<g id="pupil_4_">
	</g>
</g>
<g id="ch05-07-1">
	<g id="main_x5F_comp_1_">
		<g id="hand_washing_copy">
		</g>
	</g>
	<g id="assets">
	</g>
	<g id="hand_washing">
	</g>
</g>
</svg>
