<?xml version="1.0" encoding="utf-8"?>
<!-- Generator: Adobe Illustrator 18.1.1, SVG Export Plug-In . SVG Version: 6.00 Build 0)  -->
<svg version="1.1" xmlns="http://www.w3.org/2000/svg" xmlns:xlink="http://www.w3.org/1999/xlink" x="0px" y="0px"
	 viewBox="621.1 3810.4 38.3 40.4" enable-background="new 621.1 3810.4 38.3 40.4" xml:space="preserve">
<g id="additional_reference">
</g>
<g id="ch07-09-1">
</g>
<g id="ch04-05-1">
</g>
<g id="ch04-11-2">
	<path fill="#49301C" d="M656.4,3820.8c0,0-0.1,0-0.1,0h0l-0.1-0.1c-0.2,0-0.5-0.1-0.9-0.1c0.6-2.4-0.7-3.4-2.5-3.7c0,0,0-0.1,0-0.1
		c-0.2-3.2-3-3.4-5.6-2.8c1-5.5-12-3.2-14.7-1.2c-0.9,0.7-2,2.1-0.5,3c1.3,0.8,3.1-0.3,4.4-0.7c2.6-0.9,4.9-0.8,7.3,0h0
		c-2.1,0.9-4,1.7-6,3c-0.7,0.4-2.1,0.9-2.5,1.8c-0.8,2,2.2,2,3.4,1.5c0.5-0.3,1-0.7,1.5-1c0.7-0.4,1.8-0.5,2.8-0.8
		c-0.8,0.7-1.7,1.5-2.8,2.4c-0.1,0.1-0.9,1-0.8,1.7c0,1.6,1.1,1.4,2.4,0.8c0.6-0.3,1-0.6,1.5-1c1.1-0.7,2.1-1.2,3.2-1.5
		c-1.7,0.9-4.7,2.5-5.2,4.3c-0.5,1.8,1,2.4,2.5,1.9c1.7-0.7,3.1-2,4.9-2.6c0.7-0.2,1.4-0.3,2-0.4l0.2,0.4c0.6,1.1,1.7,2,3,1.8
		c0,0.4,0.2,0.9,0.3,1.1c0.3,0.6,0.5,1.4,0.9,2c0.6,0.9,1.4,1.9,2.2,2.8c0.1,0.1,0.3,0.3,0.4,0.4c-0.1,0.2-0.2,0.4-0.3,0.7
		c-0.2,0.4,0.5-0.3,0.6-0.4C659.8,3830,659.6,3824.3,656.4,3820.8z"/>
	<g id="fingers_4_">
		<g>
			<g id="XMLID_83_">
				<g>
					<path fill="#49301C" d="M657.7,3833.9c1.4-3.9,1-9.1-1.9-12.3c0.2,0.2,0.7-0.8,0.5-0.8c0.1,0,0.1,0,0.1,0
						c3.2,3.4,3.4,9.1,1.6,13.3c-0.1,0.2-0.8,0.9-0.6,0.4C657.5,3834.3,657.6,3834.1,657.7,3833.9z"/>
					<path fill="#734E27" d="M655.1,3824.2c-2,0.6-4.1,0.2-6.1,0.8c-2,0.6-3.5,2.6-5.6,2.6c-1.8,0.6-2.5-1-0.3-2.6
						c0.5-0.4,1.1-0.8,1.6-1.1c1.5-1,2.9-1.7,4.6-2.1c2.3-0.5,5.8-0.7,6.3-0.2c3,3.2,3.3,8.3,1.9,12.3c-0.2-0.1-0.3-0.3-0.4-0.4
						c-0.8-0.8-1.6-1.8-2.2-2.8c-0.4-0.6-0.6-1.4-0.9-2c-0.1-0.2-0.3-0.7-0.3-1.1c0.2,0,0.5-0.1,0.7-0.2c0.1-0.1,1.1-0.6,0.9-0.6
						c0,0-0.1,0-0.1,0c0,0,0,0,0,0c-0.4,0.2-0.8,0.2-1.3,0.2c-1.2-0.1-2.4-0.8-2.5-1.7c0.8-0.1,1.6-0.2,2.6-0.5
						C654.3,3824.8,655,3824.3,655.1,3824.2z"/>
					<path fill="#49301C" d="M656.3,3820.8c0.2,0-0.3,1-0.5,0.8C655.7,3821.5,656.1,3820.9,656.3,3820.8L656.3,3820.8z"/>
					<path fill="#49301C" d="M656.2,3820.7l0.1,0.1c-0.2,0.1-0.6,0.6-0.5,0.8c-0.5-0.6-4.1-0.3-6.3,0.2c-1.8,0.4-3.1,1.1-4.6,2.1
						c-0.6,0.3-1.1,0.7-1.6,1.1c-2.2,1.6-1.5,3.2,0.3,2.6c2.1-0.1,3.6-2,5.6-2.6c2-0.6,4.1-0.2,6.1-0.8c-0.1,0.1-0.8,0.6-1.1,0.6
						c-0.9,0.3-1.8,0.4-2.6,0.5c0-0.1,0-0.2,0-0.3c0-0.1-1,0.1-0.9,0.3l0.1,0.1c-0.7,0.1-1.3,0.2-2,0.4c-1.8,0.6-3.1,1.9-4.9,2.6
						c-1.5,0.6-3-0.1-2.5-1.9c0.5-1.9,3.5-3.4,5.2-4.3c0.7-0.2,1.5-0.4,2.3-0.4c0.3,0,1.2-0.7,1.1-0.7c-0.2,0-0.4,0-0.6,0
						c2-0.5,4.2-0.6,5.6-0.6c0,0.2-0.1,0.4-0.1,0.5c-0.1,0.5,0.5-0.2,0.6-0.4c0,0,0-0.1,0-0.1C655.7,3820.6,656,3820.7,656.2,3820.7
						z"/>
					<path fill="#49301C" d="M655.3,3826.9c0,0,0.1,0,0.1,0c0.2,0-0.8,0.5-0.9,0.6c0.1-0.1,0.2-0.2,0.3-0.3
						C655,3827.1,655.2,3826.9,655.3,3826.9C655.3,3826.9,655.3,3826.8,655.3,3826.9z"/>
					<path fill="#49301C" d="M643.9,3819.4c0.1,0,0.1-0.1,0.2-0.1c0.3-0.2,0.7-0.5,1-0.8c0.3-0.2,0.2-0.2,0-0.2
						c1-0.5,2.1-0.9,3.6-1.2c1-0.2,2.2-0.3,3.3-0.3h0c0,0.2,0.1,0.4,0.1,0.6c0,0.1,0.6-0.2,0.7-0.5c1.8,0.3,3.2,1.3,2.5,3.7
						c-0.1,0-0.3,0-0.5,0c0.6-3.5-4.4-3.2-6.7-2.7c-2.7,0.6-6,2.1-7.6,4.7c-2.8,4.5,4-0.4,4.8-0.8c1.1-0.5,2.6-0.5,3.9-0.6
						c-0.9,0.2-1.7,0.5-2.4,0.9c-0.1,0.1-0.3,0.1-0.4,0.2c-1.1,0.3-2,0.8-3.2,1.5c-0.5,0.3-1,0.7-1.5,0.9c-1.3,0.6-2.4,0.8-2.4-0.8
						c0-0.8,0.7-1.6,0.8-1.7c1.1-1,1.9-1.8,2.8-2.4C643.3,3819.6,643.6,3819.5,643.9,3819.4z"/>
					<path fill="#49301C" d="M655.3,3820.6C655.3,3820.6,655.3,3820.7,655.3,3820.6c-0.1,0.3-0.7,1-0.6,0.5c0-0.2,0.1-0.4,0.1-0.5
						C655,3820.6,655.2,3820.6,655.3,3820.6z"/>
					<path fill="#49301C" d="M655.3,3826.9c-0.2,0.1-0.4,0.3-0.5,0.3c-0.1,0-0.2,0.2-0.3,0.3c-0.2,0.1-0.5,0.2-0.7,0.2
						c0-0.3,0-0.5,0.2-0.6C654.5,3827.1,654.9,3827,655.3,3826.9z"/>
					<path fill="#734E27" d="M648.1,3817.9c2.3-0.5,7.3-0.8,6.7,2.7c-1.4,0-3.6,0.1-5.6,0.6c0,0,0,0,0,0c-1.3,0.1-2.9,0.1-3.9,0.6
						c-0.8,0.4-7.6,5.3-4.8,0.8C642.1,3820.1,645.4,3818.5,648.1,3817.9z"/>
					<path fill="#49301C" d="M654,3827c-0.2,0.1-0.2,0.3-0.2,0.6c-1.3,0.2-2.4-0.7-3-1.8l-0.2-0.4c0.3,0,0.5-0.1,0.8-0.1
						C651.7,3826.3,652.9,3826.9,654,3827z"/>
					<path fill="#49301C" d="M652.8,3816.8C652.8,3816.9,652.8,3816.9,652.8,3816.8c-0.3,0-0.5,0-0.8,0h0
						c-1.2-5.3-12.4,0.4-15.1,2.3c-0.6,0.4-1.2,0.5-0.7,1.5c0.8,1.6,3.5-0.4,4.3-0.8c0.4-0.2,3.3-1.2,3.8-1.3
						c0.1-0.1,0.5-0.2,0.8-0.2c-0.8,0.4-1.4,0.8-2.1,1.4c-1,0.2-2.1,0.4-2.8,0.8c-0.5,0.3-1,0.7-1.5,1c-1.2,0.6-4.2,0.6-3.4-1.5
						c0.4-0.9,1.8-1.3,2.5-1.8c2-1.3,3.9-2.1,6-3c0.3,0.1,0.8-0.3,0.8-0.3c0,0,0,0,0,0c0.6-0.3,1.3-0.5,2-0.7c0,0.1,0,0.3-0.1,0.5
						c0,0.1,0.1,0.1,0.3,0.1c0.2-0.1,0.3-0.1,0.5-0.2c0.1,0,0.1-0.1,0.1-0.1l-0.1,0.1c0-0.2,0.1-0.3,0.1-0.5
						C649.8,3813.4,652.6,3813.7,652.8,3816.8z"/>
					<path fill="#49301C" d="M652.8,3816.9c-0.1,0.3-0.7,0.6-0.7,0.5c0-0.2,0-0.4-0.1-0.6C652.2,3816.9,652.5,3816.9,652.8,3816.9z"
						/>
					<path fill="#734E27" d="M652,3816.8c-1.1-0.1-2.4,0.1-3.3,0.3c-1.5,0.3-2.7,0.7-3.6,1.2c0,0,0,0,0,0c-0.3,0-0.7,0.2-0.8,0.2
						c-0.5,0.1-3.4,1.1-3.8,1.3c-0.8,0.4-3.5,2.4-4.3,0.8c-0.5-1,0.1-1.1,0.7-1.5C639.5,3817.2,650.8,3811.5,652,3816.8z"/>
					<path fill="#49301C" d="M651.4,3825c0,0.1,0,0.2,0,0.3c-0.3,0-0.6,0.1-0.8,0.1l-0.1-0.1C650.4,3825.1,651.5,3824.9,651.4,3825z
						"/>
					<path fill="#49301C" d="M649.8,3821.1c0.1,0-0.8,0.6-1.1,0.7c-0.8,0.1-1.6,0.2-2.3,0.4c0.1-0.1,0.3-0.1,0.4-0.2
						c0.7-0.4,1.5-0.7,2.4-0.9c0,0,0,0,0,0C649.5,3821.2,649.6,3821.2,649.8,3821.1z"/>
					<path fill="#49301C" d="M632.5,3812.9c2.6-2,15.7-4.3,14.7,1.2c-0.3,0.1-0.5,0.1-0.7,0.2c0.7-4.6-10.7-3-13.1-1.3
						c-3.5,2.4,0.8,2.5,2.1,2c0.8-0.3,1.5-0.5,2.3-0.6c2.5-0.5,4.3-0.2,6.7,0.7c0,0-0.1,0.1-0.2,0.1c-0.2,0.1-0.4,0.2-0.6,0.3h0
						c-2.4-0.9-4.8-0.9-7.3,0c-1.3,0.4-3,1.5-4.4,0.7C630.5,3815,631.6,3813.6,632.5,3812.9z"/>
					<path fill="#49301C" d="M647.1,3814.5l0.1-0.1C647.2,3814.4,647.1,3814.5,647.1,3814.5z"/>
					<path fill="#49301C" d="M646.6,3814.7c-0.2,0.1-0.3,0-0.3-0.1c0.1-0.2,0.1-0.3,0.1-0.5c0.2-0.1,0.5-0.1,0.7-0.2
						c0,0.1-0.1,0.3-0.1,0.5C647,3814.6,646.8,3814.7,646.6,3814.7z"/>
					<path fill="#734E27" d="M633.4,3812.9c2.4-1.7,13.8-3.3,13.1,1.3c-0.7,0.2-1.4,0.5-2,0.7c-2.3-0.8-4.1-1.1-6.7-0.7
						c-0.9,0.1-1.5,0.3-2.3,0.6C634.2,3815.4,629.8,3815.3,633.4,3812.9z"/>
					<path fill="#49301C" d="M645,3818.3c0.2,0,0.3,0,0,0.2c-0.3,0.2-0.7,0.6-1,0.8c-0.1,0-0.1,0.1-0.2,0.1c-0.3,0.1-0.6,0.2-1,0.3
						C643.6,3819.2,644.2,3818.7,645,3818.3C645,3818.3,645,3818.3,645,3818.3z"/>
					<path fill="#49301C" d="M644.5,3814.9c0.1,0-0.5,0.4-0.8,0.3c0.2-0.1,0.4-0.2,0.6-0.3C644.3,3815,644.4,3815,644.5,3814.9
						C644.5,3814.9,644.5,3814.9,644.5,3814.9z"/>
				</g>
			</g>
		</g>
	</g>
	<path fill="#49301C" d="M633.1,3846.3c-0.3,0-0.5,0-0.8,0c-0.1-0.2-0.3-0.4-0.4-0.5c-0.3-0.3-0.7-0.6-1.1-0.8
		c-0.5-0.4-0.9-0.8-1.2-1.3c-0.5-0.8-1-1.5-1.3-2.4c0,0,0,0,0,0c0-1.6-0.2-3.3-0.9-4.6c-0.8-1.4-2.7-2.8-4.4-2.3
		c-0.7,0.2-1.2,0.9-1.4,1.6c-0.5,1.9,0.9,4.2,1.1,6.2c0,0,0,0,0,0.1c1.2,4.7,5.9,4.9,10,4.9C632.8,3847.1,633.3,3846.3,633.1,3846.3
		z"/>
	<g id="thumb_5_">
		<g>
			<g id="XMLID_82_">
				<g>
					<path fill="#49301C" d="M632.3,3846.3c0.3,0,0.5,0,0.8,0c0.2,0-0.3,0.8-0.5,0.8c-4.1,0-8.8-0.3-10-4.9c0,0.1,0.6-0.4,0.6-0.7
						C624.3,3845.8,628.5,3846.2,632.3,3846.3z"/>
					<path fill="#734E27" d="M631.9,3845.8c0.2,0.2,0.3,0.3,0.4,0.6c-3.8-0.1-8-0.5-9.1-4.8v0c-0.4-1.2-0.8-2.7-1.1-4.1
						c-0.2-0.8-0.3-1.8,0.7-2.2c0.5-0.2,1.7-0.1,2.2,0.2c2.6,1.4,2.8,5.4,2.6,8.1c0,0.3,0.5-0.8,0.5-1c0-0.4,0.1-0.8,0.1-1.2
						c0.3,0.8,0.8,1.6,1.3,2.4c0.3,0.5,0.7,0.9,1.2,1.3C631.2,3845.2,631.6,3845.4,631.9,3845.8z"/>
					<path fill="#49301C" d="M628.3,3841.3C628.3,3841.3,628.3,3841.3,628.3,3841.3c0,0.4,0,0.8-0.1,1.2c0,0.2-0.6,1.3-0.5,1
						c0.2-2.6,0-6.7-2.6-8.1c-0.5-0.3-1.7-0.4-2.2-0.2c-1,0.4-0.9,1.5-0.7,2.2c0.3,1.5,0.7,2.9,1.1,4.1c0-0.1-0.6,0.4-0.7,0.7
						c-0.1-2-1.5-4.3-1.1-6.2c0.2-0.7,0.7-1.4,1.4-1.6c1.7-0.5,3.6,0.9,4.4,2.3C628.1,3838,628.3,3839.7,628.3,3841.3z"/>
					<path fill="#49301C" d="M623.2,3841.5L623.2,3841.5c0,0.3-0.6,0.8-0.6,0.7c0,0,0,0,0-0.1
						C622.6,3841.9,623.2,3841.4,623.2,3841.5z"/>
					<path fill="#49301C" d="M622.6,3842.2C622.6,3842.2,622.6,3842.2,622.6,3842.2C622.6,3842.2,622.6,3842.2,622.6,3842.2z"/>
				</g>
			</g>
		</g>
	</g>
</g>
<g id="ch04-06-1">
	<g id="older_version">
		<g id="head_3_" display="none">
			<g id="hair_3_">
			</g>
		</g>
		<g id="hands" display="none">
		</g>
		<g id="head_4_" display="none">
		</g>
		<g id="new_path" display="none">
		</g>
		<g id="handback" display="none">
		</g>
		<g id="handFront">
		</g>
		<g id="Layer_21" display="none">
		</g>
	</g>
	<g id="path_copy-with_stroke">
		<g id="handBack_copy">
		</g>
		<g id="head_copy">
		</g>
		<g id="neck_copy">
		</g>
		<g id="sleeve_copy">
		</g>
		<g id="handFront_copy">
		</g>
		<g id="skirt_copy">
		</g>
		<g id="torso_copy">
		</g>
	</g>
	<g id="comp_layer">
		<g id="skirt_copy_3">
			<g id="skirt_copy_3_2_">
			</g>
			<g id="skirt_copy_3_1_">
			</g>
		</g>
		<g id="torso_copy_2">
		</g>
		<g id="sleeve_copy_2">
		</g>
		<g id="neck_5_">
		</g>
		<g id="head_copy_2">
			<g id="head-silo_copy">
			</g>
		</g>
		<g id="head_copy_3">
			<g id="head-silo_copy_2">
			</g>
		</g>
		<g id="head_copy_4">
			<g id="head-silo_copy_3">
			</g>
		</g>
		<g id="handFront_copy_2">
		</g>
		<g id="handBack_copy_2">
		</g>
	</g>
	<g id="skirt_copy_4">
		<g id="skirt_copy_4_2_">
		</g>
		<g id="skirt_copy_4_1_">
		</g>
	</g>
	<g id="skirt_5_">
		<g id="skirt_4_">
		</g>
		<g id="skirt_copy_2">
		</g>
	</g>
	<g id="torso_copy_3">
	</g>
	<g id="torso_copy_4">
	</g>
	<g id="sleeve_copy_3">
	</g>
	<g id="sleeve">
	</g>
	<g id="neck_6_">
	</g>
	<g id="neck_copy_2">
	</g>
	<g id="handBack_copy_3">
	</g>
	<g id="handBack">
	</g>
	<g id="handFront_copy_3">
	</g>
	<g id="handFront_1_">
	</g>
</g>
<g id="ch04-03-2">
</g>
<g id="ch04-02-2_safe_copy" display="none">
	<g id="mainComp_x5F_paths-back-up_copy">
		<g id="eye_x5F_close_x5F_comp_copy_2_1_" display="inline">
		</g>
		<g id="eye_x5F_far_x5F_comp_copy_2_1_" display="inline">
		</g>
	</g>
	<g id="mainComp_copy" display="inline">
		<g id="eye_x5F_close_x5F_comp_copy_2">
		</g>
		<g id="eye_x5F_far_x5F_comp_copy_2">
		</g>
	</g>
	<g id="eye_x5F_close_copy" display="inline">
	</g>
	<g id="eye_x5F_far_copy" display="inline">
	</g>
	<g id="pupil_copy" display="inline">
	</g>
</g>
<g id="ch04-02-1">
	<g id="mainComp_x5F_paths-back-up" display="none">
		<g id="eye_x5F_close_x5F_comp_copy" display="inline">
		</g>
		<g id="eye_x5F_far_x5F_comp_copy" display="inline">
		</g>
	</g>
	<g id="mainComp">
		<g id="eye_x5F_close_x5F_comp">
		</g>
		<g id="eye_x5F_far_x5F_comp">
		</g>
	</g>
	<g id="eye_x5F_close_copy_2">
	</g>
	<g id="eye_x5F_close">
	</g>
	<g id="eye_x5F_far_copy_2">
	</g>
	<g id="eye_x5F_far">
	</g>
	<g id="pupil_copy_2">
	</g>
	<g id="pupil_4_">
	</g>
</g>
<g id="ch05-07-1">
	<g id="main_x5F_comp_1_">
		<g id="hand_washing_copy">
		</g>
	</g>
	<g id="assets">
	</g>
	<g id="hand_washing">
	</g>
</g>
</svg>
