<?xml version="1.0" encoding="utf-8"?>
<!-- Generator: Adobe Illustrator 18.1.1, SVG Export Plug-In . SVG Version: 6.00 Build 0)  -->
<svg version="1.1" xmlns="http://www.w3.org/2000/svg" xmlns:xlink="http://www.w3.org/1999/xlink" x="0px" y="0px"
	 viewBox="1269.5 585 112.7 140.3" enable-background="new 1269.5 585 112.7 140.3" xml:space="preserve">
<g id="additional_reference">
</g>
<g id="ch07-09-1">
</g>
<g id="ch04-05-1">
</g>
<g id="ch04-11-2">
</g>
<g id="ch04-06-1">
	<g id="older_version">
		<g id="head_3_" display="none">
			<g id="hair_3_">
			</g>
		</g>
		<g id="hands" display="none">
		</g>
		<g id="head_4_" display="none">
		</g>
		<g id="new_path" display="none">
		</g>
		<g id="handback" display="none">
		</g>
		<g id="handFront">
		</g>
		<g id="Layer_21" display="none">
		</g>
	</g>
	<g id="path_copy-with_stroke">
		<g id="handBack_copy">
		</g>
		<g id="head_copy">
		</g>
		<g id="neck_copy">
		</g>
		<g id="sleeve_copy">
		</g>
		<g id="handFront_copy">
		</g>
		<g id="skirt_copy">
		</g>
		<g id="torso_copy">
		</g>
	</g>
	<g id="comp_layer">
		<g id="skirt_copy_3">
			<g id="skirt_copy_3_2_">
			</g>
			<g id="skirt_copy_3_1_">
			</g>
		</g>
		<g id="torso_copy_2">
		</g>
		<g id="sleeve_copy_2">
		</g>
		<g id="neck_5_">
		</g>
		<g id="head_copy_2">
			<g id="head-silo_copy">
			</g>
		</g>
		<g id="head_copy_3">
			<g id="head-silo_copy_2">
			</g>
		</g>
		<g id="handFront_copy_2">
		</g>
		<g id="handBack_copy_2">
		</g>
	</g>
	<g id="skirt_5_">
		<g id="skirt_4_">
		</g>
		<g id="skirt_copy_2">
		</g>
	</g>
	<g id="torso_copy_3">
	</g>
	<g id="sleeve">
	</g>
	<g id="neck_6_">
	</g>
	<g id="handBack">
	</g>
	<g id="handFront_1_">
	</g>
</g>
<g id="ch04-03-2">
</g>
<g id="ch04-02-2_safe_copy" display="none">
	<g id="mainComp_x5F_paths-back-up_copy">
		<g id="eye_x5F_close_x5F_comp_copy_2_1_" display="inline">
		</g>
		<g id="eye_x5F_far_x5F_comp_copy_2_1_" display="inline">
		</g>
	</g>
	<g id="mainComp_copy" display="inline">
		<g id="eye_x5F_close_x5F_comp_copy_2">
		</g>
		<g id="eye_x5F_far_x5F_comp_copy_2">
		</g>
	</g>
	<g id="head_5_" display="inline">
		<path d="M1379.7,667.2c-1.1-6.5,1.9-12.5,1.7-19c-0.1-3.5-0.7-7-1.1-10.4c-0.2-1.9-1.5-6.6-3.2-11.4c-0.2-0.5-0.5-1-0.7-1.5
			c0.2,0,0.4,0,0.6,0l0.3,0l0.1-0.2c0.1-0.2,2.4-4.4,0.8-7.4c0.3-0.6,0.8-2.2,0.2-3.6c-0.4-0.9-1.1-1.7-2.2-2.2
			c-0.1-1.2-0.9-5.4-4.7-7.1c-0.3-1.2-1.6-5.7-6.5-5.7c-0.4,0-0.8,0-1.3,0.1c-0.1-2-1.1-5-4.6-5.4c-0.5-1.3-2.7-6.1-7.6-6.1
			c-0.6,0-1.3,0.1-2,0.2c-0.5-0.6-1.8-1.8-4.4-1.8c-1.4,0-3,0.4-4.7,1.1c-0.4-0.6-1.5-1.6-3.7-1.6c-1.5,0-3.2,0.4-5.2,1.3
			c-0.4-0.1-1.5-0.4-2.9-0.4c-2.2,0-4.3,0.7-6.1,2c-0.5-0.4-1.4-1.1-2.6-1.1c-1.2,0-2.4,0.7-3.5,2c-0.3-0.2-0.8-0.3-1.4-0.3
			c-1.4,0-2.8,0.9-4.2,2.6c-0.6-0.3-1.8-0.8-3.3-0.8c-2.1,0-3.9,0.9-5.4,2.7c-0.9,0-3.6,0.4-5.8,3.3c-0.4-0.1-0.9-0.2-1.5-0.2
			c-1.1,0-2.4,0.4-3.3,2.1c-0.2-0.1-0.5-0.1-0.8-0.1c-1.2,0-2.3,1-3.3,2.9c-0.9,0.1-3.5,0.6-4.1,3.3c-0.8,0-2.3,0.1-3.4,1.2
			c-0.7,0.7-1,1.7-1,2.9c-0.6,0.2-1.7,0.8-2.3,1.9c-0.5,0.9-0.5,2-0.1,3.1c-1,0.5-3.5,2.1-4.4,4.8c-0.7,1.9-0.4,4,0.7,6.3
			c-0.6,0.4-1.6,1.1-2.2,2.5c-0.6,1.5-0.4,3.3,0.6,5.3c-0.8,1.2-3.6,6.1,0.8,11.9c-0.4,0.3-1,0.8-1.2,1.7c-0.2,1.1,0.3,2.3,1.5,3.6
			c-0.4,1.1-1.1,4.5,2.4,8.4c-0.3,0.7-0.9,2.4-0.2,3.9c0.5,1.1,1.7,1.9,3.4,2.3c0,1,0.1,3.4,1.2,4.7c0.5,0.5,1.1,0.8,1.9,0.8
			c0.2,0,0.4,0,0.6,0c-0.2,0.8-0.4,1.9,0,3.1c0.4,1.2,1.4,2.1,2.8,2.7c1,1.9,2.2,3.5,3.6,4.7c1.3,1,3,1.4,4.2,2.4
			c1,0.8,1.1,2.2,2.1,3.1c2.1,2,5.2,0.5,7-1.4c0.8,1.6,3.4,6.6,3.8,7.6l0.5,1.6c0,0,0,0,0,0c2.9,12.5,7.3,18.4,20.5,22
			c2.4,0.6,4.8,1.2,7.1,2.2c3.3,1.4,5.8,3.8,8.8,5.6c4.1,2.4,9.9,2.6,14.3,1.4c3-0.8,6.3-3,8.2-5.5c1.7-2.3,1.8-5.5,2.9-8.1
			c1.3-3.1,3.2-6.2,5-9c3.3-5,6.7-9.5,8.5-15.3C1383.2,679.2,1380.9,674.2,1379.7,667.2z"/>
		<g id="XMLID_44_">
			<g>
				<path d="M1380.3,637.8c0.4,3.5,1,6.9,1.1,10.4c0.2,6.5-2.9,12.5-1.7,19c1.2,7,3.5,12,1.2,19.2c-1.8,5.8-5.2,10.2-8.5,15.3
					c-1.8,2.8-3.7,5.9-5,9c-1.1,2.6-1.2,5.8-2.9,8.1c-1.9,2.5-5.3,4.7-8.2,5.5c-4.4,1.2-10.2,0.9-14.3-1.4c-3.1-1.8-5.5-4.2-8.8-5.6
					c-2.3-1-4.7-1.6-7.1-2.2c-13.2-3.6-17.6-9.5-20.5-22l-1.7-5.8c0.1,0,0.1-0.4,0.1-0.8c2.9,12.2,11.9,24.8,24.5,28.1
					c5.3,1.4,9.4,3.5,13.8,6.6c5.2,3.7,13.3,3.8,18.6-0.1c3-2.2,3-5.6,4.3-8.9c0.8-1.9,1.8-3.8,2.8-5.6c2.6-4.6,6.1-8.7,8.5-13.4
					c3-5.8,4.5-11.9,3.2-18.4c-1.1-5.4-2.9-9.9-1.6-15.4c1.2-5.1,0.4-9.7,1.2-15c0.7-4.8-3.2-17.8-5.4-23.9c1.2,1.7,2.2,3.6,3.2,5.7
					C1378.8,631.2,1380.1,635.9,1380.3,637.8z"/>
				<path fill="#734E27" d="M1373.9,620.6c2.2,6.1,6,19.1,5.4,23.9c-0.7,5.3,0.1,9.9-1.2,15c-1.3,5.5,0.5,10,1.6,15.4
					c1.3,6.4-0.2,12.6-3.2,18.4c-2.4,4.7-5.9,8.8-8.5,13.4c-1,1.8-2.1,3.6-2.8,5.6c-1.2,3.2-1.2,6.7-4.3,8.9
					c-5.3,3.9-13.5,3.7-18.6,0.1c-4.4-3.1-8.6-5.2-13.8-6.6c-12.7-3.3-20.4-10.6-23.3-22.8c0,0-4.2-8.2-4.2-8.2s-12.1-7.8-14.1-10.7
					c-11.1-15.2-8.1-43.2,0.3-57.2c0,0,12.5-15.4,34.1-17.3c0,0,24.1-4.4,35.7,6.8C1357.1,605.2,1366.6,609.6,1373.9,620.6z"/>
			</g>
		</g>
		<g>
			<path d="M1372.8,682.8c-0.2-1-2.9-1.6-3.3-1.8c0.8,0.4,1.4,1.2,1.7,2.1c0.1,0.4-0.1,2.3-2.5,1.6c-0.4-0.1-0.8-0.4-1.1-0.7
				c0.4-0.7,0.6-1.4,0.7-2.3c0-0.2,0-0.4,0-0.6c-0.3-2.8-5.1-5.4-4.8-5c1.1,1.3,3,2.4,3.5,4.1c0.5,1.6,0.3,2.3-0.9,3.5
				c-2.2,2.1-4.6,1.8-6.9-0.2c-0.5-0.4-2.4,0.2-2.4,0.2c2.7,2.3,5.8,3.7,8.9,2.2c0.2-0.1,0.4-0.2,0.6-0.4c1.4,1.1,3.4,0.8,4.8-0.2
				C1372,684.7,1373,684,1372.8,682.8z"/>
			<path d="M1363.7,672.8c-1.5-2.6-1.9-6-1.8-8.9c0-0.6-1.8-1.1-1.9-0.7c-0.2,3.2,0.3,6.6,1.9,9.4
				C1362.2,673,1364,673.4,1363.7,672.8z"/>
			<path d="M1345,684.2c-1.5,0.5-2.1-1-0.7-4c0.2-0.4-5.7,2-3.9,4.1c3.3,3.7,8-3.2,11.9-0.9c0,0,2-0.9,1.7-1.1
				C1351.3,680.8,1347.3,683.5,1345,684.2z"/>
		</g>
		<path d="M1378.2,617.2c0.3-0.6,0.8-2.2,0.2-3.6c-0.4-0.9-1.1-1.7-2.2-2.2c-0.1-1.2-0.9-5.4-4.7-7.1c-0.3-1.2-1.6-5.7-6.5-5.7
			c-0.4,0-0.8,0-1.3,0.1c-0.1-2-1.1-5-4.6-5.4c-0.5-1.3-2.7-6.1-7.6-6.1c-0.6,0-1.3,0.1-2,0.2c-0.5-0.6-1.8-1.8-4.4-1.8
			c-1.4,0-3,0.4-4.7,1.1c-0.4-0.6-1.5-1.6-3.7-1.6c-1.5,0-3.2,0.4-5.2,1.3c-0.4-0.1-1.5-0.4-2.9-0.4c-2.2,0-4.3,0.7-6.1,2
			c-0.5-0.4-1.4-1.1-2.6-1.1c-1.2,0-2.4,0.7-3.5,2c-0.3-0.2-0.8-0.3-1.4-0.3c-1.4,0-2.8,0.9-4.2,2.6c-0.6-0.3-1.8-0.8-3.3-0.8
			c-2.1,0-3.9,0.9-5.4,2.7c-0.9,0-3.6,0.4-5.8,3.3c-0.4-0.1-0.9-0.2-1.5-0.2c-1.1,0-2.4,0.4-3.3,2.1c-0.2-0.1-0.5-0.1-0.8-0.1
			c-1.2,0-2.3,1-3.3,2.9c-0.9,0.1-3.5,0.6-4.1,3.3c-0.8,0-2.3,0.1-3.4,1.2c-0.7,0.7-1,1.7-1,2.9c-0.6,0.2-1.7,0.8-2.3,1.9
			c-0.5,0.9-0.5,2-0.1,3.1c-1,0.5-3.5,2.1-4.4,4.8c-0.7,1.9-0.4,4,0.7,6.3c-0.6,0.4-1.6,1.1-2.2,2.5c-0.6,1.5-0.4,3.3,0.6,5.3
			c-0.8,1.2-3.6,6.1,0.8,11.9c-0.4,0.3-1,0.8-1.2,1.7c-0.2,1.1,0.3,2.3,1.5,3.6c-0.4,1.1-1.1,4.5,2.4,8.4c-0.3,0.7-0.9,2.4-0.2,3.9
			c0.5,1.1,1.7,1.9,3.4,2.3c0,1,0.1,3.4,1.2,4.7c0.5,0.5,1.1,0.8,1.9,0.8c0.2,0,0.4,0,0.6,0c-0.2,0.8-0.4,1.9,0,3.1
			c0.5,1.3,1.6,2.3,3.2,2.9l0.2,0.1l13.8-8.4c0.5,0,2.1-0.4,2.4-3c0.4-0.5,1.6-2.1,1.3-3.9c-0.2-1.1-0.8-2.1-2-2.9
			c0.4-0.9,1.1-2.9,0.5-4.5c-0.2-0.7-0.7-1.3-1.4-1.7c0.3-1.4,0.9-5.7-0.9-6.9c0.1-0.8,0.1-2.6-0.9-3.8c-0.3-0.4-0.7-0.7-1.1-0.9
			c0.4-0.5,0.8-1.1,0.9-2c0.1-0.8-0.2-1.5-0.7-2.2c0.7-0.9,2.5-3.3,1.8-4.9c0.7-1,2.7-4.4,1.3-6.2c1-0.9,3.3-3.4,3.4-5.3
			c0-0.2,0-0.5-0.1-0.7c1.6-0.3,5.6-1.5,6.7-4.6c1.3-0.3,6.6-1.7,7.1-4.5c0.4,0.1,1,0.2,1.7,0.2c1.3,0,3.1-0.4,4.4-2.3
			c0.6,0.8,1.6,2,3.2,2c1.1,0,2.1-0.6,3.2-1.7c1,0.8,3.7,2.8,6.1,2.8c0.9,0,1.6-0.3,2.2-0.8c0.7,0.8,2.3,2.4,4.1,2.4
			c0.7,0,1.3-0.2,1.9-0.6c0.7,1.1,2.3,3.3,4.5,3.3c0.3,0,0.6,0,0.9-0.1c0.5,0.9,1.6,2.9,3.5,2.9c0.3,0,0.5,0,0.8-0.1
			c0.4,0.2,1.5,0.7,2.7,0.7c1.4,0,2.6-0.6,3.5-1.8c0.4,0.3,1.1,0.7,1.9,0.7c0.7,0,1.7-0.3,2.6-1.7c0.7,0.2,2.3,0.4,3.6-1
			c0.3,1.2,1.1,2.9,2.7,2.9c0.3,1,1.3,3.4,3.4,3.9c0,0.8,0,2.4,0.8,3.3c0.5,0.6,1.2,0.8,2.2,0.7l0.3,0l0.1-0.2
			C1377.5,624.4,1379.8,620.2,1378.2,617.2z"/>
		<g id="ear_4_">
			<path fill="#734E27" d="M1301.9,682.6c-1.3,1.9-3.3,2.9-5.1,2.7c-1.3-0.2-2.3-1-2.4-1.2c-1.1-1-0.9-1.8-1.8-2.8
				c-1.1-1.2-2.3-0.9-3.8-1.6c-1.6-0.7-2.4-2.1-3.8-4.8c-0.2-0.3-3-5.6-3.3-12.6c-0.1-1.2,0-2.5,0.8-3.6c1.1-1.3,2-1.5,3.4-1.5
				c1.4,0,6.3,2.7,6.3,2.7s6,4.3,8.3,11C1301.8,674.9,1303.5,679.4,1301.9,682.6z"/>
			<g>
				<path d="M1293.4,672.3c0.8-0.3,2,0.1,2.7,0.5c0.1,0.1,0.3,0.1,0.4,0.1c0.6,1.5,1.1,3.1,1.3,4.5c0,0.2,0.8-2.2,0.7-2.8
					c-0.9-5-3.7-10.9-8.7-13c-7.2-3.1-6,4.8-5,8.7c0.1,0.5,0.7-2.1,0.5-2.6c-0.6-1.8-0.6-4.8,1.1-5.3c-1.6,2.4,0.2,5.6,2.1,8.2
					c0.1,0.1-0.5-1.7-0.7-2c-1-1.3-1.3-2.7-1.1-4.4c0.1-0.5,0.6-1.3,0.8-1.7c0.4,0.1,0.8,0.3,1.3,0.6c1.6,1,2.7,2.1,3.9,3.5
					c0.9,1,1.8,2.4,2.6,4c-1-0.2-2,0-2.8,0.6c-2.1,1.5-2.4,4.8-1.1,6.9c0.2,0.4,0.4,0.6,0.6,0.6c0.5,0.2,0.6-0.9,0.4-1.5
					C1292.2,675.8,1291.8,672.9,1293.4,672.3z"/>
				<path d="M1295.4,684c-1.5-0.9-1.8-2.8-3.2-3.8c-0.5-0.4-1-0.7-1.5-1c-1.5-0.9-3.2-1.6-4.3-3.1s-2-3.5-2.7-5.5
					c-0.4-1.2-0.7-2.4-1-3.5c-0.6-2.2-1.2-4.5-0.9-6.3c0.3-1.8,1.5-2.9,4.5-2.8c4,0.2,10.3,6,12.8,10c-0.7-2.2-1.3-3.8-1.5-4.3
					c0-0.1-0.1-0.1-0.1-0.1c-2.9-6.3-14.9-11.1-16.2-2.8c-0.1,0.5-0.1,1.1-0.1,1.7c0,5.6,2.3,13.9,6.7,17.5c1.3,1,3,1.4,4.2,2.4
					c1,0.8,1.1,2.2,2.1,3.1c2.3,2.1,5.7,0.3,7.3-1.8c0.4-0.5,0.1-1.5,0.4-2C1300.6,683.4,1297.7,685.3,1295.4,684z"/>
			</g>
		</g>
	</g>
	<g id="eye_x5F_close_copy" display="inline">
	</g>
	<g id="eye_x5F_far_copy" display="inline">
	</g>
	<g id="pupil_copy" display="inline">
	</g>
</g>
<g id="ch04-02-1">
	<g id="mainComp_x5F_paths-back-up" display="none">
		<g id="eye_x5F_close_x5F_comp_copy" display="inline">
		</g>
		<g id="eye_x5F_far_x5F_comp_copy" display="inline">
		</g>
	</g>
	<g id="mainComp">
		<g id="eye_x5F_close_x5F_comp">
		</g>
		<g id="eye_x5F_far_x5F_comp">
		</g>
	</g>
	<path fill="#49301C" d="M1379.7,667.2c-1.1-6.5,1.9-12.4,1.7-19c-0.1-3.5-0.7-7-1.1-10.4c-0.2-1.9-1.5-6.6-3.2-11.5
		c-0.2-0.5-0.5-1-0.7-1.5c0.2,0,0.4,0,0.6,0l0.3,0l0.1-0.2c0.1-0.2,2.4-4.4,0.8-7.4c0.3-0.6,0.8-2.2,0.2-3.6c-0.4-1-1.1-1.7-2.2-2.2
		c-0.1-1.2-0.9-5.4-4.7-7.1c-0.3-1.2-1.6-5.7-6.5-5.7c-0.4,0-0.8,0-1.3,0.1c-0.1-2-1.1-5-4.6-5.4c-0.5-1.3-2.7-6.1-7.6-6.1
		c-0.6,0-1.3,0.1-2,0.2c-0.5-0.6-1.8-1.8-4.4-1.8c-1.4,0-3,0.4-4.8,1.1c-0.4-0.6-1.5-1.6-3.7-1.6c-1.5,0-3.2,0.4-5.2,1.3
		c-0.4-0.1-1.5-0.4-2.9-0.4c-2.2,0-4.3,0.7-6.1,2c-0.5-0.4-1.4-1.1-2.6-1.1c-1.2,0-2.4,0.7-3.6,2c-0.3-0.2-0.8-0.3-1.4-0.3
		c-1.4,0-2.8,0.9-4.2,2.6c-0.6-0.3-1.8-0.8-3.3-0.8c-2.1,0-3.9,0.9-5.4,2.7c-0.9,0-3.6,0.4-5.8,3.3c-0.3-0.1-0.9-0.3-1.5-0.3
		c-1.1,0-2.4,0.4-3.3,2.1c-0.2-0.1-0.5-0.1-0.8-0.1c-1.2,0-2.4,1-3.3,2.9c-0.9,0.1-3.5,0.6-4.1,3.3c-0.8,0-2.3,0.1-3.4,1.2
		c-0.7,0.7-1,1.7-1,2.9c-0.6,0.2-1.7,0.8-2.3,2c-0.5,0.9-0.5,2-0.1,3.1c-1,0.5-3.5,2-4.4,4.8c-0.7,1.9-0.4,4,0.7,6.3
		c-0.6,0.3-1.6,1.1-2.2,2.5c-0.6,1.5-0.4,3.3,0.6,5.3c-0.8,1.2-3.6,6.1,0.8,11.9c-0.4,0.3-1,0.8-1.2,1.7c-0.2,1.1,0.3,2.3,1.5,3.6
		c-0.4,1.1-1.1,4.5,2.4,8.4c-0.3,0.7-0.9,2.4-0.2,3.9c0.5,1.1,1.7,1.9,3.4,2.3c0,1,0.1,3.4,1.2,4.7c0.5,0.5,1.1,0.8,1.9,0.8
		c0.2,0,0.4,0,0.6,0c-0.3,0.8-0.4,1.9,0,3.1c0.1,0.3,0.2,0.6,0.4,0.8c0.1,0.1,0.2,0.3,0.3,0.4c0.1,0.1,0.2,0.3,0.3,0.4
		c0.1,0.1,0.3,0.2,0.4,0.3c0.1,0.1,0.3,0.2,0.4,0.3c0.2,0.1,0.3,0.2,0.5,0.3c0,0,0,0,0,0c0.2,0.1,0.3,0.2,0.5,0.2h0
		c0.1,0.2,0.2,0.3,0.3,0.5c0.3,0.5,0.6,1.1,1,1.6c0.1,0.2,0.3,0.4,0.4,0.6c0.3,0.3,0.5,0.7,0.8,0.9c0.1,0.1,0.3,0.3,0.4,0.4
		c0.1,0.1,0.3,0.3,0.4,0.4c0.1,0.1,0.3,0.2,0.4,0.3c1.3,1,3,1.4,4.2,2.4c1.1,0.8,1.1,2.1,2.1,3c0.8,0.7,1.7,1,2.6,0.9
		c0.1,0,0.3,0,0.4,0c0.4,0,0.7-0.2,1.1-0.3c0.1,0,0.2-0.1,0.3-0.1c0.9-0.4,1.8-1.1,2.5-1.8c0.2,0.3,0.4,0.7,0.6,1.2
		c0.1,0.1,0.2,0.3,0.2,0.5c0.4,0.7,0.8,1.6,1.2,2.4c0.1,0.3,0.3,0.5,0.4,0.7c0.2,0.3,0.3,0.7,0.5,1c0.1,0.1,0.2,0.3,0.2,0.4
		c0.1,0.2,0.2,0.4,0.3,0.6c0,0.1,0.1,0.2,0.1,0.3c0.1,0.2,0.2,0.4,0.3,0.5c0,0,0,0,0,0l0.3,0.9c0,0,0,0,0,0.1c0.1,0.3,0.2,0.7,0.3,1
		c2.9,12.2,7.4,18.1,20.4,21.6c2.4,0.6,4.8,1.2,7.1,2.2c3.3,1.4,5.8,3.8,8.8,5.6c4.1,2.4,9.9,2.6,14.3,1.4c3-0.8,6.3-3,8.2-5.5
		c1.7-2.3,1.8-5.5,2.9-8.1c1.3-3.1,3.2-6.2,5-9c3.3-5,6.7-9.5,8.5-15.3C1383.2,679.2,1380.9,674.2,1379.7,667.2z"/>
	<g id="head_9_">
		<g>
			<g id="XMLID_77_">
				<g>
					<path fill="#49301C" d="M1381.4,648.3c0.2,6.5-2.9,12.5-1.7,19c1.2,7,3.5,12,1.2,19.2c-1.8,5.8-5.2,10.2-8.5,15.3
						c-1.8,2.9-3.7,5.9-5,9c-1.1,2.6-1.2,5.8-2.9,8.1c-1.9,2.5-5.3,4.7-8.2,5.5c-4.4,1.2-10.2,0.9-14.3-1.4
						c-3.1-1.8-5.5-4.2-8.8-5.6c-2.3-1-4.7-1.6-7.1-2.2c-13-3.5-17.5-9.4-20.4-21.6c3.2,11,10.7,17.8,22.5,20.9c0.1,0,0.2,0,0.3,0.1
						c5.3,1.3,9.4,3.5,13.8,6.6c5.2,3.7,13.3,3.8,18.6,0c3-2.2,3-5.6,4.3-8.9c0.8-1.9,1.8-3.8,2.8-5.5c2.6-4.6,6.1-8.7,8.5-13.4
						c3-5.8,4.4-11.9,3.2-18.4c-1.1-5.4-2.9-9.9-1.6-15.4c1.3-5.1,0.4-9.7,1.2-15c0.5-3.9-2-13.4-4.1-20.1c0.3,0.3,0.7,0.4,1.2,0.4
						c0.3,0.5,0.5,1,0.7,1.5c1.7,4.9,3,9.6,3.2,11.5C1380.7,641.3,1381.3,644.7,1381.4,648.3z"/>
					<path fill="#734E27" d="M1379.7,674.9c1.3,6.4-0.2,12.6-3.2,18.4c-2.4,4.7-5.9,8.8-8.5,13.4c-1,1.8-2.1,3.6-2.8,5.5
						c-1.3,3.2-1.2,6.7-4.3,8.9c-5.3,3.9-13.5,3.7-18.6,0c-4.4-3.1-8.5-5.2-13.8-6.6c-0.1,0-0.2,0-0.3-0.1
						c-12.5-3.4-21.4-15.9-24.2-28c0.1,0.5,0.1,0.8-0.1,0.9l1.2,4.2c-0.1-0.1-0.2-0.3-0.3-0.6c0-0.1-0.1-0.2-0.1-0.3
						c-0.1-0.2-0.2-0.4-0.3-0.6c-0.1-0.1-0.1-0.3-0.2-0.4c-0.1-0.3-0.3-0.6-0.5-1c-0.1-0.2-0.3-0.5-0.4-0.7
						c-0.4-0.8-0.8-1.6-1.2-2.4c-0.1-0.2-0.2-0.3-0.2-0.5c-0.3-0.5-0.5-0.9-0.6-1.2c0.1-0.1,0.2-0.3,0.3-0.4
						c0.2-0.2,0.2-0.5,0.2-0.9c0,0,0.1-0.1,0.1-0.1c1.6-3.2-0.1-7.7-1.4-11.6c-0.4-1.2-0.9-2.3-1.5-3.3c-0.1-0.2-0.1-0.4-0.2-0.6
						c0.5-0.1,2.1-0.4,2.4-3c0.4-0.5,1.6-2.1,1.3-3.9c-0.2-1.1-0.8-2.1-2-2.9c0.4-0.9,1.1-2.9,0.5-4.5c-0.3-0.7-0.7-1.3-1.4-1.7
						c0.3-1.4,0.9-5.7-0.9-6.9c0.1-0.8,0.1-2.6-0.9-3.8c-0.3-0.4-0.7-0.7-1.1-0.9c0.4-0.5,0.8-1.1,0.9-2c0.1-0.8-0.2-1.5-0.7-2.2
						c0.7-0.9,2.5-3.3,1.8-4.9c0.7-1,2.7-4.4,1.3-6.2c1-0.9,3.3-3.4,3.4-5.3c0-0.2,0-0.5-0.1-0.7c1.6-0.3,5.6-1.4,6.7-4.5
						c1.3-0.3,6.6-1.6,7-4.5c0.4,0.1,1,0.2,1.7,0.2c1.3,0,3.1-0.4,4.4-2.3c0.6,0.8,1.6,2,3.2,2c1.1,0,2.2-0.6,3.2-1.7
						c1,0.8,3.8,2.8,6.2,2.8c0.9,0,1.6-0.3,2.2-0.8c0.7,0.8,2.3,2.4,4.1,2.4c0.7,0,1.3-0.2,1.9-0.6c0.7,1.1,2.3,3.3,4.5,3.3
						c0.3,0,0.6,0,0.9-0.1c0.4,0.9,1.6,2.9,3.5,2.9c0.3,0,0.5,0,0.8-0.1c0.4,0.2,1.5,0.7,2.7,0.7c1.4,0,2.6-0.6,3.5-1.8
						c0.4,0.3,1.1,0.6,1.9,0.6c0.7,0,1.7-0.3,2.6-1.7c0.7,0.2,2.3,0.4,3.6-1c0.3,1.2,1.1,3,2.7,2.9c0.3,1,1.2,3.4,3.3,3.9
						c0,0,0,0.1,0.1,0.1c0,0.8,0,2.3,0.8,3.2c0.1,0.1,0.2,0.2,0.3,0.3c2.1,6.7,4.6,16.2,4.1,20.1c-0.7,5.3,0.1,9.9-1.2,15
						C1376.7,665,1378.6,669.6,1379.7,674.9z M1371.1,685.3c0.9-0.6,1.9-1.3,1.7-2.5c-0.2-1-2.9-1.6-3.3-1.8
						c0.8,0.4,1.4,1.2,1.7,2.1c0.2,0.4-0.1,2.3-2.5,1.6c-0.4-0.1-0.8-0.4-1.1-0.7c0.4-0.6,0.6-1.4,0.7-2.3c0-0.2,0-0.4,0-0.6
						c-0.3-2.8-5.1-5.4-4.8-5c1.1,1.3,3,2.4,3.5,4c0.5,1.6,0.3,2.3-0.9,3.5c-2.2,2.1-4.6,1.8-6.9-0.2c-0.4-0.4-2.4,0.3-2.4,0.3
						c2.7,2.3,5.8,3.7,8.9,2.2c0.2-0.1,0.4-0.2,0.6-0.4C1367.7,686.5,1369.7,686.2,1371.1,685.3z M1361.9,672.5
						c0.3,0.4,2.1,0.9,1.7,0.3c-1.5-2.6-1.9-6-1.8-9c0-0.6-1.8-1.1-1.9-0.7C1359.8,666.3,1360.3,669.7,1361.9,672.5z M1352.2,683.4
						c0,0,2-0.9,1.7-1.1c-2.6-1.6-6.5,1.1-8.9,1.9c-1.6,0.5-2.1-1-0.8-4c0.2-0.4-5.7,2-3.9,4.1
						C1343.6,688,1348.3,681.1,1352.2,683.4z"/>
					<path d="M1378.4,613.6c0.6,1.5,0,3-0.2,3.6c1.6,3-0.7,7.2-0.8,7.4l-0.1,0.2l-0.3,0c-0.2,0-0.4,0-0.6,0c-0.8-1.4-1.6-2.8-2.4-4
						c0-0.1-0.1-0.1-0.1-0.2c-7.3-11-16.8-15.4-16.9-15.4c-11.7-11.3-35.7-6.8-35.7-6.8c-21.5,1.9-34.1,17.3-34.1,17.3
						c-6.6,10.8-9.8,29.9-5.8,45.1c-0.1,0.5-0.1,1-0.1,1.7c0,3.8,1.1,8.8,3.1,12.8c-0.2-0.1-0.3-0.2-0.5-0.2c0,0,0,0,0,0
						c-0.2-0.1-0.3-0.2-0.5-0.3c-0.2-0.1-0.3-0.2-0.4-0.3c-0.1-0.1-0.3-0.2-0.4-0.3c-0.1-0.1-0.2-0.2-0.3-0.4
						c-0.1-0.1-0.2-0.3-0.3-0.4c-0.2-0.3-0.3-0.5-0.4-0.8c-0.4-1.1-0.2-2.3,0-3.1c-0.2,0-0.4,0-0.6,0c-0.8,0-1.4-0.3-1.9-0.8
						c-1.2-1.3-1.3-3.7-1.2-4.7c-1.7-0.4-2.9-1.1-3.4-2.3c-0.7-1.5-0.1-3.2,0.2-3.9c-3.5-3.9-2.8-7.3-2.4-8.4
						c-1.3-1.3-1.8-2.5-1.5-3.6c0.2-0.8,0.7-1.3,1.2-1.6c-4.4-5.8-1.6-10.7-0.8-11.9c-1-2-1.2-3.8-0.6-5.3c0.5-1.4,1.6-2.1,2.2-2.5
						c-1.1-2.3-1.3-4.4-0.7-6.3c1-2.7,3.4-4.3,4.4-4.8c-0.4-1.2-0.4-2.3,0.1-3.2c0.6-1.2,1.7-1.7,2.3-2c0-1.2,0.3-2.2,1-2.9
						c1-1.1,2.6-1.2,3.4-1.2c0.6-2.8,3.2-3.3,4.1-3.3c1-1.9,2.1-2.9,3.3-2.9c0.3,0,0.6,0.1,0.8,0.1c0.8-1.7,2.2-2.1,3.3-2.1
						c0.6,0,1.2,0.1,1.5,0.3c2.2-3,4.9-3.3,5.8-3.3c1.4-1.7,3.3-2.7,5.4-2.7c1.5,0,2.7,0.5,3.3,0.8c1.3-1.7,2.8-2.6,4.2-2.6
						c0.6,0,1.1,0.2,1.4,0.3c1.1-1.3,2.3-2,3.5-2c1.2,0,2.1,0.7,2.6,1.1c1.8-1.3,3.9-2,6.1-2c1.4,0,2.5,0.3,2.9,0.4
						c2-0.9,3.7-1.3,5.2-1.3c2.2,0,3.3,1,3.7,1.6c1.7-0.7,3.3-1.1,4.8-1.1c2.6,0,3.9,1.2,4.4,1.8c0.7-0.2,1.4-0.2,2-0.2
						c5,0,7.2,4.8,7.7,6.1c3.5,0.4,4.5,3.4,4.6,5.4c0.4-0.1,0.9-0.1,1.3-0.1c5,0,6.3,4.5,6.5,5.7c3.8,1.7,4.6,5.9,4.7,7.1
						C1377.3,611.9,1378.1,612.6,1378.4,613.6z"/>
					<path d="M1377,624.9c-0.2,0-0.4,0-0.6,0C1376.6,624.9,1376.8,624.9,1377,624.9z"/>
					<path d="M1376.4,624.9c-0.5,0-0.9-0.2-1.2-0.4c-0.4-1.3-0.8-2.5-1.2-3.5c0,0,0-0.1,0-0.1
						C1374.8,622.1,1375.6,623.4,1376.4,624.9z"/>
					<path d="M1375.2,624.4c-0.1-0.1-0.2-0.2-0.3-0.3c-0.8-0.9-0.9-2.3-0.8-3.2C1374.3,622,1374.8,623.2,1375.2,624.4z"/>
					<path d="M1373.9,620.6c0,0.1,0.1,0.1,0.1,0.2c0,0,0,0-0.1,0C1373.9,620.8,1373.9,620.7,1373.9,620.6z"/>
					<path d="M1374,620.8c0,0,0,0.1,0,0.1C1374,620.9,1374,620.9,1374,620.8C1374,620.8,1374,620.8,1374,620.8z"/>
					<path d="M1373.9,620.6c0,0,0,0.1,0.1,0.2c-2.1-0.5-3-2.9-3.3-3.9c-1.6,0.1-2.4-1.7-2.7-2.9c-1.3,1.3-2.9,1.1-3.6,1
						c-0.9,1.4-1.9,1.7-2.6,1.7c-0.8,0-1.5-0.4-1.9-0.6c-0.9,1.2-2.1,1.8-3.5,1.8c-1.2,0-2.3-0.5-2.7-0.7c-0.3,0.1-0.5,0.1-0.8,0.1
						c-1.8,0-3-2-3.5-2.9c-0.3,0.1-0.6,0.1-0.9,0.1c-2.2,0-3.8-2.3-4.5-3.3c-0.6,0.4-1.2,0.6-1.9,0.6c-1.8,0-3.4-1.6-4.1-2.4
						c-0.6,0.5-1.4,0.8-2.2,0.8c-2.4,0-5.2-2-6.2-2.8c-1.1,1.1-2.2,1.7-3.2,1.7c-1.5,0-2.6-1.2-3.2-2c-1.3,1.9-3.1,2.3-4.4,2.3
						c-0.7,0-1.2-0.1-1.7-0.2c-0.5,2.9-5.7,4.2-7,4.5c-1.2,3.1-5.1,4.2-6.7,4.5c0.1,0.2,0.1,0.4,0.1,0.7c-0.1,1.9-2.4,4.3-3.4,5.3
						c1.4,1.8-0.6,5.2-1.3,6.2c0.7,1.6-1.1,4-1.8,4.9c0.5,0.7,0.8,1.4,0.7,2.2c-0.1,0.8-0.5,1.5-0.9,2c0.4,0.2,0.8,0.5,1.1,0.9
						c0.9,1.2,0.9,3,0.9,3.8c1.8,1.2,1.2,5.5,0.9,6.9c0.7,0.4,1.1,0.9,1.4,1.7c0.6,1.6-0.2,3.6-0.5,4.5c1.2,0.8,1.8,1.8,2,2.9
						c0.3,1.8-0.9,3.4-1.3,3.9c-0.2,2.6-1.8,3-2.4,3c-0.6-1.7-1-2.9-1.2-3.3c0-0.1-0.1-0.2-0.1-0.2c-2.9-6.3-14.9-11.1-16.2-2.8
						c0,0,0,0,0,0c-4-15.2-0.7-34.3,5.8-45.1c0,0,12.5-15.4,34.1-17.3c0,0,24.1-4.4,35.7,6.8
						C1357.1,605.2,1366.6,609.6,1373.9,620.6z"/>
					<path fill="#49301C" d="M1372.8,682.8c0.2,1.2-0.8,1.9-1.7,2.5c-1.4,0.9-3.4,1.3-4.8,0.2c-0.2,0.2-0.4,0.3-0.6,0.4
						c-3.1,1.5-6.1,0.1-8.9-2.2c0,0,2-0.6,2.4-0.3c2.3,2,4.7,2.3,6.9,0.2c1.2-1.1,1.4-1.9,0.9-3.5c-0.5-1.7-2.4-2.7-3.5-4
						c-0.3-0.4,4.4,2.2,4.8,5c0,0.2,0,0.4,0,0.6c-0.1,0.9-0.3,1.7-0.7,2.3c0.3,0.3,0.7,0.6,1.1,0.7c2.5,0.8,2.7-1.1,2.5-1.6
						c-0.3-0.9-0.9-1.7-1.7-2.1C1370,681.1,1372.6,681.7,1372.8,682.8z"/>
					<path fill="#49301C" d="M1363.7,672.8c0.4,0.6-1.5,0.2-1.7-0.3c-1.6-2.8-2.1-6.2-1.9-9.4c0-0.4,1.9,0.1,1.9,0.7
						C1361.7,666.8,1362.1,670.2,1363.7,672.8z"/>
					<path fill="#49301C" d="M1353.9,682.3c0.3,0.2-1.7,1.1-1.7,1.1c-3.9-2.4-8.6,4.6-11.9,0.9c-1.8-2.1,4.1-4.4,3.9-4.1
						c-1.4,3-0.8,4.5,0.8,4C1347.3,683.5,1351.3,680.8,1353.9,682.3z"/>
					<path fill="#734E27" d="M1328.1,714.5c-11.8-3.1-19.3-9.9-22.5-20.9c0-0.1-0.1-0.3-0.1-0.4l-0.2-0.6c0,0,0,0,0,0
						c-0.1-0.3-0.1-0.5-0.2-0.8c0,0,0-0.1-0.1-0.2c0,0,0,0,0,0l-1.2-4.2c0.1,0,0.1-0.4,0.1-0.9
						C1306.8,698.6,1315.6,711.1,1328.1,714.5z"/>
					<path fill="#734E27" d="M1305.5,693.1c0,0.1,0.1,0.3,0.1,0.4c-0.1-0.3-0.2-0.7-0.3-1L1305.5,693.1z"/>
					<path d="M1305.2,691.7c0.1,0.3,0.1,0.5,0.2,0.8l-0.3-0.9C1305.1,691.6,1305.2,691.7,1305.2,691.7z"/>
					<path d="M1304.7,690.7c0,0.1,0.1,0.2,0.1,0.3C1304.8,690.9,1304.7,690.8,1304.7,690.7z"/>
					<path d="M1304.4,690.1c-0.1-0.1-0.1-0.3-0.2-0.4C1304.2,689.8,1304.3,690,1304.4,690.1z"/>
					<path d="M1303.3,688c0.1,0.3,0.3,0.5,0.4,0.7C1303.5,688.5,1303.4,688.3,1303.3,688z"/>
					<path fill="#734E27" d="M1300.5,671c1.3,3.9,3,8.5,1.4,11.6c0,0-0.1,0.1-0.1,0.1c0-0.4,0-0.8,0.2-1.1c-0.4,0.5-1,1-1.6,1.5
						c-1.3-0.8-4.7-3.1-7.8-5.3c0-0.3,0-0.5-0.1-0.7c-0.4-1.2-0.9-4.1,0.8-4.8c0.8-0.3,2,0.1,2.7,0.5c0.1,0.1,0.3,0.1,0.4,0
						c0.6,1.6,1.1,3.1,1.3,4.5c0,0.2,0.8-2.2,0.7-2.8c-0.4-2-1-4.1-2-6.1l2.1-1.3c0.2,0.3,0.4,0.5,0.5,0.8c0-0.1-0.1-0.2-0.1-0.3
						C1299.6,668.7,1300.1,669.8,1300.5,671z"/>
					<path fill="#734E27" d="M1301.9,685.2c0.1,0.1,0.1,0.3,0.2,0.5C1302,685.5,1301.9,685.3,1301.9,685.2z"/>
					<path fill="#49301C" d="M1302,681.6c-0.2,0.2-0.2,0.7-0.2,1.1c-0.2,0.3-0.5,0.6-0.8,0.9c0,0,0-0.1,0-0.1s-0.2-0.1-0.6-0.4
						C1301.1,682.7,1301.6,682.2,1302,681.6z"/>
					<path fill="#49301C" d="M1301.8,682.7c0,0.3-0.1,0.7-0.2,0.9c-0.1,0.1-0.2,0.3-0.3,0.4c-0.1-0.2-0.2-0.3-0.2-0.4
						C1301.3,683.3,1301.6,683,1301.8,682.7z"/>
					<path fill="#49301C" d="M1301.3,684c-0.7,0.7-1.5,1.4-2.5,1.8c-0.1,0-0.2,0.1-0.3,0.1c-0.4,0.2-0.7,0.3-1.1,0.3
						c-0.2,0-0.3,0-0.4,0c-0.9,0-1.8-0.2-2.6-0.9c-1-0.9-1.1-2.2-2.1-3c-1.2-1-2.9-1.4-4.2-2.4c-0.1-0.1-0.3-0.2-0.4-0.4
						c-0.1-0.1-0.3-0.3-0.4-0.4c-0.1-0.1-0.3-0.3-0.4-0.4c-0.3-0.3-0.5-0.6-0.8-0.9c-0.1-0.2-0.3-0.4-0.4-0.6c-0.3-0.5-0.7-1-1-1.6
						c-0.1-0.1-0.2-0.3-0.3-0.5c0.1,0.1,0.3,0.1,0.4,0.2l0.2,0.1l0.3-0.2c1.3,2.4,2.1,3.6,3.6,4.3c1.5,0.7,2.6,0.4,3.8,1.6
						c0.9,1,0.7,1.8,1.8,2.8c0.1,0.1,1.1,1,2.4,1.2c1.5,0.2,3-0.4,4.2-1.6C1301.1,683.7,1301.2,683.8,1301.3,684z"/>
					<path fill="#49301C" d="M1301,683.5C1301,683.5,1301,683.6,1301,683.5c-1.2,1.3-2.7,1.9-4.2,1.7c-1.3-0.2-2.3-1.1-2.4-1.2
						c-1.1-1-0.9-1.8-1.8-2.8c-1.1-1.2-2.3-0.9-3.8-1.6c-1.5-0.7-2.3-1.9-3.6-4.3l0.5-0.3c0.2,0.4,0.4,0.7,0.7,1
						c1.2,1.5,2.8,2.3,4.3,3.1c0.5,0.3,1,0.6,1.5,1c1.3,1,1.7,2.9,3.2,3.8c1.6,0.9,3.5,0.3,5-0.8
						C1300.8,683.4,1301,683.5,1301,683.5z"/>
					<path d="M1299,667.7c0,0.1,0.1,0.2,0.1,0.3c-0.2-0.3-0.3-0.5-0.5-0.8l0.1-0.1C1298.8,667.3,1298.9,667.5,1299,667.7z"/>
					<path d="M1299,667.7c-0.1-0.2-0.2-0.4-0.3-0.6l0.1-0.1c0,0,0,0,0,0C1298.9,667.3,1299,667.5,1299,667.7z"/>
					<path d="M1298.8,667.1C1298.8,667.1,1298.8,667.1,1298.8,667.1l-0.1,0.1c-2.7-4.5-6.5-7.2-6.5-7.2s-4.9-2.7-6.3-2.7
						c-1.4,0-2.4,0.2-3.4,1.5c-0.7,0.9-0.9,2-0.8,3c-0.1-0.3-0.2-0.7-0.3-1c0,0,0,0,0,0c1.4-8.3,13.3-3.5,16.2,2.8
						c0,0,0,0.1,0.1,0.2C1297.8,664.1,1298.3,665.4,1298.8,667.1z"/>
					<path d="M1298.4,686c0.1,0,0.2-0.1,0.3-0.1C1298.6,685.9,1298.5,685.9,1298.4,686z"/>
					<path d="M1298.7,667.1L1298.7,667.1c-2.8-3.8-8.6-8.9-12.3-9.1c-3.1-0.2-4.3,1-4.5,2.8c-0.1,0.5-0.1,1,0,1.6
						c-0.1-0.2-0.1-0.4-0.2-0.6c0-1,0.1-2.1,0.8-3c1.1-1.3,2-1.5,3.4-1.5c1.4,0,6.3,2.7,6.3,2.7S1296,662.6,1298.7,667.1z"/>
					<path fill="#734E27" d="M1298.6,667.2l-2.1,1.3c-1.5-3-3.7-5.6-6.7-6.9c-6.7-2.9-6.2,3.8-5.2,7.8c-1.2-2.2-2.1-4.5-2.9-7
						c0,0,0,0,0,0c0-0.6,0-1.1,0-1.6c0.3-1.8,1.5-2.9,4.5-2.8C1290.1,658.2,1295.9,663.3,1298.6,667.2z"/>
					<path fill="#49301C" d="M1298.6,674.5c0.1,0.5-0.7,3-0.7,2.8c-0.3-1.4-0.7-2.9-1.3-4.5c-0.1,0-0.3,0-0.4,0
						c-0.7-0.5-1.8-0.8-2.7-0.5c-1.7,0.7-1.2,3.6-0.8,4.8c0.1,0.2,0.1,0.5,0.1,0.7c-0.6-0.4-1.1-0.8-1.6-1.2c0,0,0,0,0,0
						c-0.5-2,0-4.3,1.7-5.5c0.8-0.6,1.8-0.8,2.8-0.6c-0.2-0.4-0.4-0.7-0.5-1l1.6-1C1297.5,670.4,1298.2,672.6,1298.6,674.5z"/>
					<path fill="#734E27" d="M1300.4,683.1c-1.5,1.1-3.4,1.7-5,0.8c-1.5-0.9-1.8-2.8-3.2-3.8c-0.5-0.4-1-0.7-1.5-1
						c-1.5-0.9-3.2-1.6-4.3-3.1c-0.3-0.3-0.5-0.7-0.7-1l2-1.2c0.8,0.8,2,1.7,3.3,2.7c0,0,0,0,0,0c0.1,0.5,0.3,0.9,0.6,1.4
						c0.2,0.4,0.4,0.6,0.6,0.6c0.3,0.1,0.5-0.3,0.5-0.8C1295.8,680.1,1299.1,682.3,1300.4,683.1z"/>
					<path d="M1296.9,686.3c0.1,0,0.3,0,0.4,0C1297.2,686.3,1297,686.3,1296.9,686.3z"/>
					<path fill="#49301C" d="M1296.6,668.4l-1.6,1c-0.6-1.1-1.3-2.1-2-2.9c-1.2-1.4-2.3-2.5-3.9-3.5c-0.5-0.3-0.9-0.5-1.3-0.6
						c-0.3,0.5-0.7,1.2-0.8,1.7c-0.3,1.7,0.1,3,1,4.4c0.2,0.3,0.7,2.1,0.7,2c-1.9-2.6-3.7-5.8-2.1-8.2c-1.7,0.5-1.7,3.6-1.1,5.3
						c0.1,0.4-0.2,1.9-0.4,2.4c-0.1-0.2-0.3-0.5-0.4-0.7c-0.9-4-1.5-10.7,5.2-7.8C1292.9,662.8,1295.1,665.5,1296.6,668.4z"/>
					<path fill="#734E27" d="M1295,669.4c0.2,0.3,0.4,0.7,0.5,1c-1-0.2-2,0-2.8,0.6c-1.7,1.2-2.2,3.6-1.7,5.5c-1.3-1-2.5-2-3.3-2.7
						L1295,669.4z"/>
					<path fill="#734E27" d="M1295,669.4l-7.2,4.4c-0.4-0.4-0.7-0.7-0.9-1c-0.7-0.9-1.3-1.8-1.8-2.8c0.2-0.6,0.5-2.1,0.4-2.4
						c-0.6-1.8-0.6-4.8,1.1-5.3c-1.6,2.4,0.2,5.6,2.1,8.2c0.1,0.1-0.5-1.8-0.7-2c-1-1.3-1.3-2.7-1-4.4c0.1-0.5,0.5-1.3,0.8-1.7
						c0.4,0.1,0.8,0.3,1.3,0.6c1.6,1,2.7,2.1,3.9,3.5C1293.7,667.3,1294.4,668.3,1295,669.4z"/>
					<path fill="#49301C" d="M1292.7,677.8c0,0.5-0.2,0.9-0.5,0.8c-0.2-0.1-0.3-0.3-0.6-0.6c-0.3-0.4-0.4-0.9-0.6-1.4
						C1291.6,677,1292.1,677.4,1292.7,677.8z"/>
					<path fill="#734E27" d="M1287.8,673.8l-2,1.2c-0.8-1.4-1.5-2.9-2-4.5c-0.4-1.2-0.7-2.4-1-3.5c-0.4-1.6-0.8-3.2-1-4.7
						c0.7,2.5,1.7,4.8,2.9,7c0.1,0.3,0.1,0.6,0.2,0.8c0,0.1,0.1,0,0.2-0.1c0.6,1,1.2,1.9,1.8,2.8
						C1287.1,673.1,1287.4,673.5,1287.8,673.8z"/>
					<path d="M1287.2,679.2c0.1,0.1,0.3,0.3,0.4,0.4C1287.4,679.5,1287.3,679.3,1287.2,679.2z"/>
					<path d="M1286.8,678.8c0.1,0.1,0.3,0.3,0.4,0.4C1287,679.1,1286.9,678.9,1286.8,678.8z"/>
					<path d="M1285.6,677.3c0.1,0.2,0.3,0.4,0.4,0.6C1285.9,677.7,1285.7,677.5,1285.6,677.3z"/>
					<path d="M1285.8,675l-0.5,0.3c-0.1-0.1-0.2-0.3-0.3-0.4c-0.2-0.3-3-5.6-3.3-12.6c0-0.2,0-0.4,0-0.5c0,0.2,0.1,0.4,0.2,0.6
						c0,0,0,0,0,0c0.1,1.5,0.6,3.1,1,4.7c0.3,1.1,0.6,2.3,1,3.5C1284.3,672.1,1284.9,673.7,1285.8,675z"/>
					<path d="M1285.3,675.4l-0.3,0.2l-0.2-0.1c-0.1,0-0.3-0.1-0.4-0.2h0c-2.1-4-3.1-9-3.1-12.8c0-0.6,0-1.2,0.1-1.7
						c0.1,0.3,0.2,0.7,0.3,1c0,0.2,0,0.4,0,0.5c0.3,7,3.2,12.3,3.3,12.6C1285.1,675.1,1285.2,675.2,1285.3,675.4z"/>
					<path fill="#49301C" d="M1284.7,669.4c0.1,0.2,0.3,0.5,0.4,0.7c-0.1,0.2-0.1,0.3-0.2,0.1
						C1284.8,669.9,1284.8,669.7,1284.7,669.4z"/>
					<path d="M1284.4,675.3c0.1,0.1,0.2,0.3,0.3,0.5C1284.5,675.6,1284.4,675.4,1284.4,675.3z"/>
					<path d="M1283.9,675c0.1,0.1,0.3,0.2,0.5,0.2C1284.2,675.2,1284,675.1,1283.9,675z"/>
					<path d="M1283.4,674.7c0.1,0.1,0.3,0.2,0.5,0.3C1283.7,674.9,1283.5,674.8,1283.4,674.7z"/>
					<path d="M1282.9,674.4c0.1,0.1,0.3,0.2,0.4,0.3C1283.2,674.6,1283.1,674.5,1282.9,674.4z"/>
					<path d="M1282.6,674.1c0.1,0.1,0.3,0.2,0.4,0.3C1282.8,674.3,1282.7,674.2,1282.6,674.1z"/>
					<path d="M1282.2,673.7c0.1,0.1,0.2,0.3,0.3,0.4C1282.4,674,1282.3,673.8,1282.2,673.7z"/>
					<path d="M1281.9,673.3c0.1,0.1,0.2,0.3,0.3,0.4C1282.1,673.6,1282,673.5,1281.9,673.3z"/>
				</g>
			</g>
		</g>
	</g>
	<g id="eye_x5F_close_copy_2">
	</g>
	<g id="eye_x5F_close">
	</g>
	<g id="eye_x5F_far_copy_2">
	</g>
	<g id="eye_x5F_far">
	</g>
	<g id="pupil_copy_2">
	</g>
	<g id="pupil_4_">
	</g>
</g>
<g id="ch05-07-1">
	<g id="main_x5F_comp_1_">
		<g id="hand_washing_copy">
		</g>
	</g>
	<g id="assets">
	</g>
	<g id="hand_washing">
	</g>
</g>
</svg>
