<?xml version="1.0" encoding="utf-8"?>
<!-- Generator: Adobe Illustrator 18.1.1, SVG Export Plug-In . SVG Version: 6.00 Build 0)  -->
<svg version="1.1" xmlns="http://www.w3.org/2000/svg" xmlns:xlink="http://www.w3.org/1999/xlink" x="0px" y="0px"
	 viewBox="952.2 2140.2 76.4 62.6" enable-background="new 952.2 2140.2 76.4 62.6" xml:space="preserve">
<g id="additional_reference">
</g>
<g id="ch07-09-1">
</g>
<g id="ch04-05-1">
</g>
<g id="ch04-11-2">
</g>
<g id="ch04-06-1">
	<g id="older_version">
		<g id="head_3_" display="none">
			<g id="hair_3_">
			</g>
		</g>
		<g id="hands" display="none">
		</g>
		<g id="head_4_" display="none">
		</g>
		<g id="new_path" display="none">
		</g>
		<g id="handback" display="none">
		</g>
		<g id="handFront">
		</g>
		<g id="Layer_21" display="none">
		</g>
	</g>
	<g id="path_copy-with_stroke">
		<g id="handBack_copy">
		</g>
		<g id="head_copy">
		</g>
		<g id="neck_copy">
		</g>
		<g id="sleeve_copy">
		</g>
		<g id="handFront_copy">
		</g>
		<g id="skirt_copy">
		</g>
		<g id="torso_copy">
		</g>
	</g>
	<g id="comp_layer">
		<g id="skirt_copy_3">
			<g id="skirt_copy_3_2_">
			</g>
			<g id="skirt_copy_3_1_">
			</g>
		</g>
		<g id="torso_copy_2">
		</g>
		<g id="sleeve_copy_2">
		</g>
		<g id="neck_5_">
		</g>
		<g id="head_copy_2">
			<g id="head-silo_copy">
			</g>
		</g>
		<g id="head_copy_3">
			<g id="head-silo_copy_2">
			</g>
		</g>
		<g id="handFront_copy_2">
		</g>
		<g id="handBack_copy_2">
		</g>
	</g>
	<g id="skirt_5_">
		<g id="skirt_4_">
		</g>
		<g id="skirt_copy_2">
		</g>
	</g>
	<g id="torso_copy_3">
	</g>
	<g id="sleeve">
	</g>
	<g id="neck_6_">
	</g>
	<g id="handBack">
	</g>
	<g id="handFront_1_">
	</g>
</g>
<g id="ch04-03-2">
	<g>
		<path fill="#ADAB5C" d="M987.6,2199.6c11.3,3.2,27.6,5.6,37.9-1.6c3.6-2.5,3.5-4.9,2.5-9c-2-7.8-5.2-16.1-9.3-23
			c-4.1-7.1-9.6-12.5-15.8-17.9c-4.7-4.1-6-6.1-12.8-7.6l-2.4-0.4c-11-0.8-19.5,5.4-25.4,14.3c-3.1,4.7-9.8,11.8-10.2,17.6
			c-0.5,7.3,9.2,4.9,12.8,8.9c0.1,0.1,0.2,0.2,0.4,0.4c0.8,3.2,1.6,6.4,3.8,9.1c2.2,2.7,5.5,3.6,8.5,5
			C981,2197.2,984.1,2198.6,987.6,2199.6z"/>
	</g>
	<g id="assets_2_">
		<g id="torso_x5F_34down_2_">
			<g id="XMLID_19_">
				<g>
					<path fill="#ADAB5C" d="M1003,2148.2c6.2,5.4,11.6,10.7,15.8,17.9c4,6.9,7.3,15.2,9.3,23c1,4.1,1.1,6.5-2.5,9
						c-10.3,7.1-26.6,4.8-37.9,1.6c-3.6-1-6.6-2.4-9.9-4c-3-1.4-6.3-2.4-8.5-5c-2.2-2.7-3-5.9-3.8-9.1c-0.2-0.1-0.3-0.3-0.4-0.4
						c-3.7-4-13.3-1.7-12.8-8.9c0.4-5.8,7.1-13,10.2-17.6c5.9-8.9,14.3-15.1,25.4-14.3l2.4,0.4C997,2142.1,998.3,2144.1,1003,2148.2
						z M1015.1,2162.5c-3.5-4.9-7.7-8.9-12.2-12.8c-5-4.2-9.4-8.5-16.5-8.2c0,0,0,0,0,0c-14.5-1.1-20.5,10.3-28.9,21.9
						c-2.6,3.6-5.8,10.5-0.1,12.9c3,1.3,5.2,1.3,7.5,3.3c-0.6-2.4-1.4-4.8-2.9-6.9c-0.2-0.3-1.3-4.6-1.1-4.3
						c0.1,0.2,0.2,0.3,0.3,0.5c3.1,4.7,5.4,12.8,7.7,17.7c2.7,5.8,8,6.9,13.2,9.8c9.7,5.2,22.6,6.6,33.6,4c0.5-0.1,1.1-0.3,1.6-0.4
						c0.5-0.2,1.1-0.3,1.6-0.5c7.9-2.6,9.2-4,7.5-10.2c-0.8-3-1.2-6.2-2.4-9C1021.4,2174,1018.9,2167.9,1015.1,2162.5z"/>
					<path fill="#C1C18A" d="M1002.9,2149.6c4.6,3.9,8.8,7.9,12.2,12.8c3.8,5.4,6.3,11.6,8.9,17.6c1.2,2.9,1.5,6,2.4,9
						c1.7,6.1,0.3,7.6-7.5,10.2c-0.5,0.2-1.1,0.3-1.6,0.5c-0.5,0.1-1.1,0.3-1.6,0.4c-11,2.7-23.9,1.2-33.6-4
						c-5.2-2.8-10.5-4-13.2-9.8c-2.3-4.8-4.6-13-7.7-17.7c-0.1-0.2-0.2-0.3-0.3-0.5c-0.3-0.4,0.9,3.9,1.1,4.3
						c1.5,2.1,2.3,4.5,2.9,6.9c-2.3-2-4.5-2-7.5-3.3c-5.8-2.4-2.5-9.3,0.1-12.9c8.4-11.5,14.4-23,28.9-21.9c0,0,0,0,0,0
						C993.4,2141.1,997.9,2145.4,1002.9,2149.6z"/>
				</g>
			</g>
		</g>
	</g>
</g>
<g id="ch04-02-2_safe_copy" display="none">
	<g id="mainComp_x5F_paths-back-up_copy">
		<g id="eye_x5F_close_x5F_comp_copy_2_1_" display="inline">
		</g>
		<g id="eye_x5F_far_x5F_comp_copy_2_1_" display="inline">
		</g>
	</g>
	<g id="mainComp_copy" display="inline">
		<g id="eye_x5F_close_x5F_comp_copy_2">
		</g>
		<g id="eye_x5F_far_x5F_comp_copy_2">
		</g>
	</g>
	<g id="eye_x5F_close_copy" display="inline">
	</g>
	<g id="eye_x5F_far_copy" display="inline">
	</g>
	<g id="pupil_copy" display="inline">
	</g>
</g>
<g id="ch04-02-1">
	<g id="mainComp_x5F_paths-back-up" display="none">
		<g id="eye_x5F_close_x5F_comp_copy" display="inline">
		</g>
		<g id="eye_x5F_far_x5F_comp_copy" display="inline">
		</g>
	</g>
	<g id="mainComp">
		<g id="eye_x5F_close_x5F_comp">
		</g>
		<g id="eye_x5F_far_x5F_comp">
		</g>
	</g>
	<g id="eye_x5F_close_copy_2">
	</g>
	<g id="eye_x5F_close">
	</g>
	<g id="eye_x5F_far_copy_2">
	</g>
	<g id="eye_x5F_far">
	</g>
	<g id="pupil_copy_2">
	</g>
	<g id="pupil_4_">
	</g>
</g>
<g id="ch05-07-1">
	<g id="main_x5F_comp_1_">
		<g id="hand_washing_copy">
		</g>
	</g>
	<g id="assets">
	</g>
	<g id="hand_washing">
	</g>
</g>
</svg>
