<?xml version="1.0" encoding="utf-8"?>
<!-- Generator: Adobe Illustrator 18.1.1, SVG Export Plug-In . SVG Version: 6.00 Build 0)  -->
<!DOCTYPE svg PUBLIC "-//W3C//DTD SVG 1.1//EN" "http://www.w3.org/Graphics/SVG/1.1/DTD/svg11.dtd">
<svg version="1.1" xmlns="http://www.w3.org/2000/svg" xmlns:xlink="http://www.w3.org/1999/xlink" x="0px" y="0px"
	 viewBox="1152.2 742 36.7 35.7" enable-background="new 1152.2 742 36.7 35.7" xml:space="preserve">
<g id="additional_reference">
</g>
<g id="ch04-05-1">
</g>
<g id="ch04-11-2">
</g>
<g id="ch04-06-1">
	<g id="older_version">
		<g id="head_3_" display="none">
			<g id="hair_3_">
			</g>
		</g>
		<g id="hands" display="none">
		</g>
		<g id="head_4_" display="none">
		</g>
		<g id="new_path" display="none">
		</g>
		<g id="handback" display="none">
		</g>
		<g id="handFront">
		</g>
		<g id="Layer_21" display="none">
		</g>
	</g>
	<g id="path_copy-with_stroke">
		<g id="handBack_copy">
		</g>
		<g id="head_copy">
		</g>
		<g id="neck_copy">
		</g>
		<g id="sleeve_copy">
		</g>
		<g id="handFront_copy">
		</g>
		<g id="skirt_copy">
		</g>
		<g id="torso_copy">
		</g>
	</g>
	<g id="comp_layer" display="none">
		<g id="skirt_copy_3" display="inline">
			<g id="skirt_copy_3_2_">
			</g>
			<g id="skirt_copy_3_1_">
			</g>
		</g>
		<g id="torso_copy_2" display="inline">
		</g>
		<g id="sleeve_copy_2" display="inline">
		</g>
		<g id="neck_5_" display="inline">
		</g>
		<g id="head_copy_2" display="inline">
			<g id="head-silo_copy">
			</g>
		</g>
		<g id="head_copy_3" display="inline">
			<g id="head-silo_copy_2">
			</g>
		</g>
		<g id="handFront_copy_2" display="inline">
		</g>
		<g id="handBack_copy_2" display="inline">
		</g>
	</g>
	<g id="skirt_5_">
		<g id="skirt_4_">
		</g>
		<g id="skirt_copy_2">
		</g>
	</g>
	<g id="torso_copy_3">
	</g>
	<g id="sleeve">
	</g>
	<g id="neck_6_">
	</g>
	<g id="handBack">
	</g>
	<g id="handFront_1_">
	</g>
</g>
<g id="ch04-03-2">
</g>
<g id="ch04-02-1">
	<g id="mainComp_x5F_paths-back-up" display="none">
		<g id="eye_x5F_close_x5F_comp_copy" display="inline">
		</g>
		<g id="eye_x5F_far_x5F_comp_copy" display="inline">
		</g>
	</g>
	<g id="mainComp">
		<g id="eye_x5F_close_x5F_comp">
		</g>
		<g id="eye_x5F_far_x5F_comp">
		</g>
	</g>
	<g id="eye_x5F_close">
		<g id="lower_lid_1_">
			<path fill="#734E27" d="M1188,760.3c-0.6-1.3-3.3-0.7-4.8-0.7c-1,0-2.1,0.8-1.8,1.7c0,0.1,0.1,0.2,0.1,0.3
				c-0.3,0.3-0.5,0.6-0.5,0.9c0.4,2.4,0.8,3.8-0.2,6.4c-6.2-0.6-13.6-1.6-18.3-5.7c-1.3-1.1-2.1-2.8-2.2-4.5c0-0.3-0.3,0.2-0.5,0.5
				c-0.2-0.8-1.1-1.6-1.6-2.3c-0.5-0.7-1.5-1.2-2.3-1c-1.4,0.4-3.7,1.7-3.6,3.2c0.3,7,3.2,13.8,9.9,16.1c3.2,1.1,10.1,2.9,13.5,2.6
				c3.3-0.3,7-2.3,9.2-4.8c1.6-1.8,2.1-4.3,2.6-6.7C1187.6,764.9,1188.5,761.7,1188,760.3z"/>
			<path d="M1181.4,769.5c0.6,0,1.6-0.4,1.1-0.5c-0.3,0-0.7-0.1-1-0.1c0,0,0,0,0,0c1.1-2.8,1.4-5.1,1-7.8c0-0.2-0.5,0.1-0.9,0.5
				c-0.3,0.3-0.5,0.6-0.5,0.9c0.4,2.4,0.8,3.8-0.2,6.4c-6.2-0.6-13.6-1.6-18.3-5.7c-1.3-1.1-2.1-2.8-2.2-4.5c0-0.3-0.3,0.2-0.5,0.5
				c-0.1,0.1-0.1,0.2-0.1,0.2C1160.2,767.9,1175.9,769,1181.4,769.5z"/>
		</g>
	</g>
	<g id="eye_x5F_far">
	</g>
	<g id="pupil_4_">
	</g>
</g>
</svg>
