<?xml version="1.0" encoding="utf-8"?>
<!-- Generator: Adobe Illustrator 18.1.1, SVG Export Plug-In . SVG Version: 6.00 Build 0)  -->
<!DOCTYPE svg PUBLIC "-//W3C//DTD SVG 1.1//EN" "http://www.w3.org/Graphics/SVG/1.1/DTD/svg11.dtd">
<svg version="1.1" xmlns="http://www.w3.org/2000/svg" xmlns:xlink="http://www.w3.org/1999/xlink" x="0px" y="0px"
	 viewBox="0 0 318.9 1150.3" enable-background="new 0 0 318.9 1150.3" xml:space="preserve">
<g id="comp">
</g>
<g id="hand">
	<g id="fill">
	</g>
	<g id="line_x5F_work">
	</g>
</g>
<g id="fill_copy">
</g>
<g id="line_x5F_work_copy">
	<path fill="#47301D" d="M318.9,838.5c-0.2-3.5-0.6-7-1.1-10.5c-1-6.9-2.2-13.7-3.6-20.5c-1.2-17-2.6-33.9-4.1-50.9
		c-1.5-17-3.1-33.9-5.2-50.8c-1-8.5-2.1-16.9-3.6-25.3c-0.4-2.1-0.8-4.2-1.3-6.3c-0.5-2.1-1.1-4.2-1.8-6.2l-4.2-12.1
		c-5.6-16.1-11.4-32.1-17.4-48c-3-8-6.1-15.9-9.3-23.8c-1.6-3.9-3.3-7.9-5.1-11.7c-0.9-1.9-1.8-3.9-2.8-5.8
		c-0.1-0.2-0.2-0.3-0.3-0.5c-0.1-0.2-0.2-0.4-0.3-0.6c-0.2-0.4-0.4-0.7-0.6-1.1c-0.1-0.2-0.3-0.3-0.4-0.5c0-0.1-0.1-0.1-0.1-0.2
		c-0.3-0.5-0.6-0.9-0.9-1.4c-0.1-0.2-0.3-0.4-0.5-0.6c-0.4-0.7-0.8-1.4-1.1-2.1c-1.2-2.8-1.9-5.7-2.4-8.7c-2-12-1.4-24.3-1.6-36.5
		c-0.1-12.2-0.1-24.4-0.1-36.7c0-12.2,0.1-24.4,0.3-36.7l0.3-18.3l0.4-18.3l0.5-18.3l0.6-18.3c0.5-12.2,1-24.4,1.8-36.6
		c0.3-6.1,0.8-12.2,1.2-18.3l0.7-9.1l0.8-9.1c0.3-3,0.5-6.1,0.8-9.1l1-9.1c0.7-6.1,1.4-12.1,2.1-18.2c1.4-12.1,2.7-24.3,3.9-36.5
		c1.2-12.2,2.2-24.3,3.2-36.5l1.4-18.3l1.3-18.3l1.1-18.3l1-18.3c0.6-12.2,1.2-24.4,1.7-36.6l0.7-18.3c0.2-6.1,0.4-12.2,0.5-18.3
		c0.3-12.2,0.6-24.4,0.7-36.7l0-0.4l-0.4,0l-5.6-0.1l-3.1,0.1l-19.3-0.5l-13.5-0.4l-13.5-0.2l-27-0.4l-27-0.1c-4.5,0-9-0.1-13.5,0
		l-13.5,0l-13.5,0l-13.5,0.1l-13.5,0.1L87.8,0.6c-2.4,0-14.8-0.1-27.7,0.6c-0.2,0-0.3,0-0.5,0l-2.7,0.1l1,0c2,67,4.3,134,7.1,201
		c0.7,16.8,1.2,33.5,2,50.3c0.4,8.4,0.8,16.8,1.3,25.1c0.2,4.2,0.5,8.4,0.8,12.6c0.3,4.2,0.6,8.4,1.1,12.6l0.2,1.6l0.3,1.6
		c0.1,0.5,0.2,1,0.2,1.4l0.2,1.5c0.2,2,0.4,4.1,0.6,6.2c0.3,4.1,0.6,8.3,0.9,12.5c0.5,8.3,0.9,16.7,1.2,25.1
		c0.7,16.7,1.2,33.5,1.6,50.2c0.4,16.7,0.8,33.5,1.1,50.3l0.3,25.1L77,491c0,2.1,0,4.2-0.1,6.2c0,0.5,0,1-0.1,1.5c0,0,0,0.3-0.1,0.6
		c0,0.3-0.1,0.5-0.1,0.8c-0.2,1.2-0.2,2.2-0.3,3.3c-0.2,4.3,0,8.6,0.3,12.8c0,0.5,0.1,0.9,0.1,1.4c-0.2,7.1-0.4,13.3-0.6,17.9
		c-0.4,1.6-0.9,3.1-1.4,4.7c-1.3,4-2.6,7.9-4,11.9c-5.5,15.8-11.2,31.6-17.4,47c-1.6,3.9-3.2,7.7-4.9,11.5
		c-1.7,3.9-3.5,7.6-5.2,11.4c-3.6,7.5-7.3,15-11.1,22.5l-5.8,11.1l-2.9,5.6c-1,1.9-2,3.6-3,5.5c-4.1,7.3-8.2,14.7-11.6,22.4
		c-3.5,7.7-6.5,15.8-8,24.3c-0.4,2.1-0.6,4.3-0.7,6.5c0,1.1-0.1,2.2,0,3.3l0,0.8c0,0.1,0,0.3,0,0.4l0,0.4l0.1,1.6
		c0.1,2.1,0.4,4.2,0.6,6.4c0.3,2.1,0.6,4.2,1,6.3c1.5,8.3,3.5,16.5,5.7,24.7c2.2,8.1,4.8,16.1,7.4,24.1c0.7,2,1.3,4,2.1,6
		c0.8,2,1.6,4,2.4,5.9c1.7,3.9,3.4,7.7,5.2,11.5c1.8,3.8,3.6,7.6,5.3,11.4c0.9,1.9,1.7,3.8,2.5,5.7c0.4,1,0.8,1.9,1.1,2.8
		c0.2,0.5,0.3,0.9,0.4,1.4c0.1,0.2,0.1,0.5,0.2,0.7l0.2,0.8c1,4.2,2.2,8.2,3.4,12.3l3.6,12.1c2.4,8,4.9,16,7.2,24.1l1.7,6
		c0.6,2,1,4,1.5,6l3,12.2l6.1,24.4l6,24.4l2.9,12.2l1.4,6.1l0.6,3c0.2,1,0.4,2,0.5,3c0.6,4,0.4,8.1,0.3,12.3
		c-0.1,4.2,0.1,8.6,0.8,12.8c0.1,0.5,0.1,1,0.3,1.6l0.3,1.5c0.2,1.1,0.5,2.2,0.8,3.2c0.4,1.6,1,3.1,1.7,4.6
		c0.9,2.6,1.8,5.1,3.1,11.3c0.3,1.3,0.6,3.1,0.8,5.2c0.7,7.2,1.2,14.3,1.7,21.5c0.6,8.4,1.1,16.7,1.6,25.1c0.2,4.2,0.5,8.4,0.6,12.5
		l0.2,6.3c0.1,2.1,0.2,4.3,0.4,6.4c0.7,8.4,1.8,16.8,3.4,25.1l0.7,3.1l0.3,1.6c0.1,0.3,0.1,0.5,0.2,0.8l0.2,0.8
		c0.7,2.2,1.8,4.3,3.2,6c2.9,3.5,6.9,5.9,11.1,7.2c4.2,1.4,8.6,1.8,12.9,1.6c4.4-0.3,8.7-1.3,12.6-3.3c4.1-2.2,7-6,8.7-10
		c1.8-4,2.6-8.3,3.1-12.6c0.4-4.2,0.7-8.5,0.7-12.7c0-0.6,0-1.2,0-1.9c0.2-3.9,0.1-7-0.4-8.4c-0.5-1.5-0.8-4.5-1.1-8.1
		c-0.1-2.2-0.2-4.4-0.2-6.6c0-2.1,0-4.2,0.1-6.2c0-1.1,0.1-2.1,0.1-3.2c0-1,0-2.2-0.1-3.2c-0.2-4.3-0.8-8.5-1.5-12.7l-0.6-3.1
		c-0.1-0.5-0.2-1.1-0.3-1.5l-0.3-1.5c-0.2-1-0.3-2-0.4-3l-0.3-3.1c-0.5-7.1-0.6-14.3-0.6-21.5c0.5-5.1,1-9.9,1-13.5
		c0-4.1-0.4-10.1-0.9-16.3c-0.1-3.9-0.4-7.7-0.7-11.5l-0.3-3.2l-0.3-3.2c-0.3-2.2-0.7-4.2-0.8-6.2c-0.3-4.1-0.3-8.3-0.4-12.5
		c0-4.2,0-8.4,0-12.5c0.1-8.4,0.3-16.7,0.5-25.1l0.4-12.6c0.2-4.2,0.3-8.4,0.5-12.5c0.1-1,0.2-2,0.5-2.8c0-0.1,0-0.1,0.1-0.2
		c0,0,0,0,0,0c0.1,0.1,0.1,0.2,0.2,0.2c0.4,1.1,0.9,2.5,1.4,4.1c1,3.4,2.1,6.9,3.2,10.2c2.3,7.1,4.9,14.4,7.4,17.9
		c0.3,0.8,0.6,1.6,1.1,2.4c0.1,0.1,0.1,0.2,0.3,0.4l0.2,0.3c0.1,0.2,0.3,0.4,0.5,0.7c0.4,0.5,0.8,0.8,1.2,1.2c0.8,0.7,1.7,1.4,2.7,2
		c3.7,2.4,7.7,4,11.7,5.3c4.1,1.3,8.2,2.3,12.5,2.7c1.1,0.1,2.2,0.2,3.3,0.1c0.3,0,0.5,0,0.8,0c0.3,0,0.6,0,1,0
		c3.2,0.1,7-1,10.5-2.8c3.1-1.3,6-3,8.6-5.4c1.6-1.5,3-3.4,3.7-5.6c0.2-0.6,0.3-1.1,0.4-1.6l0.4-1.5l0.7-3.1l2.9-12.2l5.5-23.4
		c3,0.9,6,1.7,9,2.4c3.4,0.8,6.8,1.5,10.4,2c1.8,0.2,3.6,0.4,5.4,0.2c1.8-0.2,3.6-0.6,5.3-1.1c3.4-1,6.7-2.4,9.8-4.1
		c1.6-0.8,3.1-1.8,4.5-2.8c1.4-1.1,2.9-2.2,4-3.9c0.3-0.4,0.5-0.9,0.7-1.4c0-0.1,0.1-0.3,0.1-0.4c0,0,0-0.2,0.1-0.2
		c0-0.1,0.1-0.2,0.1-0.3c0.2-0.4,0.7-0.6,1.4-0.6c1.5,0,3.1,0.5,4.7,1c3.3,1,6.5,2.3,10,3.1c0.4,0.1,0.8,0.2,1.3,0.3l1.3,0.2
		l1.4,0.1l1.4,0.1c1.8,0,3.7-0.2,5.4-0.7c3.5-1,6.7-2.9,9.5-5c0.7-0.6,1.4-1.1,2.1-1.7l1-0.9c0.3-0.3,0.6-0.6,1-0.9
		c1.3-1.3,2.4-2.7,3.4-4.2c2-3,3.5-6.2,4.8-9.5c1.3-3.3,2.3-6.7,3-10.1c0.4-1.7,0.7-3.5,0.9-5.2l0.1-0.7l0.1-0.6
		c0-0.4,0-0.9,0.1-1.4C319,840.3,318.9,839.4,318.9,838.5z M96.4,1114.6c0.1-0.8,0.1-1.6,0.3-2.4c0.1-0.8,0.5-1.3,1-1.7
		c0,0,0.1-0.1,0.1-0.1c0,0-0.1,0.1-0.1,0.1c-0.5,0.5-0.9,1-1,1.7C96.5,1113,96.6,1113.8,96.4,1114.6c0,0.9-0.1,1.7-0.1,2.6
		c0,1.7,0,3.5,0.2,5.3c0,0.9,0.1,1.8,0.2,2.7c0,0.5,0.1,0.9,0.2,1.3l0.1,0.7l-0.1,0.2l0-0.2l-0.1-0.7c-0.1-0.4-0.1-0.9-0.2-1.3
		c-0.1-0.9-0.2-1.8-0.2-2.7c-0.1-1.8-0.2-3.6-0.2-5.3C96.4,1116.3,96.4,1115.5,96.4,1114.6z M100.6,1132.6
		c-0.2-6.7-0.9-15.6-1.6-22.8c0,0,0,0,0,0c0.2-0.1,0.5-0.2,0.7-0.3c0.7-0.2,1.5-0.4,2.3-0.7c0.2-0.1,0.4-0.1,0.6-0.2
		c-0.2,0.1-0.4,0.1-0.6,0.2c-0.8,0.2-1.5,0.4-2.3,0.7c-0.2,0.1-0.5,0.2-0.7,0.3C99.6,1117,100.4,1125.9,100.6,1132.6
		C100.6,1132.6,100.6,1132.6,100.6,1132.6z"/>
</g>
<g id="line_x5F_work_copy_2">
	<g>
		<path fill="none" d="M134.7,893.5c0.1-0.2,0.3-0.3,0.5-0.5C135,892.8,134.8,893,134.7,893.5z"/>
		<path fill="#734E27" d="M185.4,942.9c-0.5,0.1-1.1,0.1-1.6,0.2c-0.3,0-0.6,0-0.9,0c0.3,0,0.6,0,1,0c3.2,0.1,7-1,10.5-2.8
			c-0.9,0.4-1.8,0.7-2.7,1C189.7,942.1,187.6,942.6,185.4,942.9z"/>
		<path fill="#734E27" d="M188.2,915.8c-4-1.3-15.4,2.1-15.4,2.1s0.1,2.5,2.7,3.9c2.3,1.1,14.8,12.7,18.5,16.2
			c2.7-1.2,5.2-2.7,7.3-4.7c1.4-1.4,2.6-3,3.2-4.7c0.1-0.4,0.3-0.9,0.4-1.4l0.4-1.5l0.7-3.1l1.2-5.2
			C204,917.6,194.7,917.9,188.2,915.8z"/>
		<path fill="#734E27" d="M147.2,924.4c0,0,0-0.1,0-0.1c-0.9-1.6-1.7-3.1-2.4-4.6c-1.2-2.9-2.5-6.2-3.7-9.6
			c2.3,7.1,4.9,14.4,7.4,17.9c-0.1-0.2-0.2-0.4-0.3-0.6C147.9,926.4,147.6,925.4,147.2,924.4z"/>
		<path fill="#734E27" d="M136.8,896.1c-0.1-0.2-0.2-0.3-0.3-0.4c0.4,1.1,0.9,2.5,1.4,4.1c-0.3-1.1-0.6-2.1-0.9-3.2
			C137,896.5,136.9,896.3,136.8,896.1z"/>
		<path fill="#734E27" d="M79.8,1027.3l-0.2-1.5c-0.1-1-0.3-2-0.5-3c-0.4-2-1-3.7-2-5.6c-0.2-0.5-0.5-1-0.7-1.5
			c0.9,2.6,1.8,5.1,3.1,11.3c0.3,1.3,0.6,3.1,0.8,5.2c-0.1-1.2-0.2-2.3-0.3-3.5L79.8,1027.3z"/>
		<path fill="#734E27" d="M108.4,1107.2c-0.7,0.1-1.4,0.3-2.1,0.4c-0.7,0.1-1.5,0.3-2.1,0.5c-0.7,0.1-1.4,0.5-2.2,0.7
			c-0.8,0.2-1.5,0.4-2.3,0.7c-0.2,0.1-0.5,0.2-0.7,0.3c0.6,7.2,1.4,16.1,1.6,22.9c1.1,1.1,2.3,2.1,3.6,3c1.5,1.1,3,2.1,4.7,2.8
			c0.4,0.2,0.8,0.3,1.2,0.5c0.4,0.2,0.8,0.2,1.2,0.3l0.2,0l0.1,0l0.3,0c0.2,0,0.4,0,0.6,0c0.4,0,0.9,0,1.3,0c3.6-0.2,7.2-1,10.5-2
			c0.8-0.3,1.7-0.5,2.4-0.8c0.4-0.2,0.8-0.3,1.1-0.5c0.2-0.1,0.4-0.2,0.5-0.3c0.1,0,0.2-0.1,0.2-0.1l0-0.1l0.1-0.3l0.1-0.6
			c0.1-0.4,0.1-0.8,0.2-1.2c0.1-0.8,0.3-1.6,0.4-2.4c0.5-3.2,0.9-6.2,1.2-9.1c0.2-1.4,0.3-2.8,0.4-4c0.1-0.6,0.1-1.3,0.1-1.9
			c0-0.6,0.1-1.2,0-1.8c-0.1-2.3-0.4-4.3-1-5.8c-0.6-1.5-1.4-2.5-2.1-3.1c-0.6-0.6-1-0.9-1-0.9s-1.9,0.3-5.1,0.8
			C118.7,1105.6,114,1106.3,108.4,1107.2z M124.4,1109.3c0.4-0.4,0.8-0.7,1.1-1c0.6-0.6,0.9-0.9,0.9-0.9s-0.3,0.4-0.7,1
			c-0.3,0.3-0.6,0.7-1,1.1c-0.4,0.4-0.9,0.9-1.4,1.3c-0.6,0.4-1.2,0.9-1.9,1.3c-0.7,0.4-1.5,0.8-2.3,1.1c-0.8,0.3-1.7,0.5-2.7,0.7
			c-0.9,0.2-1.9,0.3-2.8,0.3c-1.9,0.1-3.8-0.1-5.5-0.4c-1.7-0.3-3.3-0.8-4.6-1.3c-1.3-0.5-2.4-1-3.1-1.3c-0.7-0.4-1.1-0.6-1.1-0.6
			s1.7,0.7,4.4,1.4c1.3,0.4,2.9,0.7,4.6,0.9c0.9,0.1,1.7,0.2,2.6,0.3c0.9,0.1,1.8,0.1,2.7,0c0.9,0,1.8-0.1,2.7-0.3
			c0.9-0.2,1.7-0.3,2.5-0.6c0.8-0.2,1.6-0.5,2.3-0.9c0.7-0.3,1.4-0.7,1.9-1.1C123.5,1110,123.9,1109.6,124.4,1109.3z"/>
		<path fill="#734E27" d="M136.7,1024c0,1.2,0,2.3,0,3.5c0.5-5.1,1-9.9,1-13.5c0-4.1-0.4-10.1-0.9-16.3c0,0.4,0,0.7,0,1.1
			C137.2,1007.3,136.7,1015.6,136.7,1024z"/>
		<path fill="#734E27" d="M141.3,1102l0.4,3.1c0.2,1.5,0.3,3.1,0.4,4.6c0.2-3.9,0.1-7-0.4-8.4c-0.5-1.5-0.8-4.5-1.1-8.1
			c0.1,1.9,0.2,3.9,0.4,5.8L141.3,1102z"/>
		<path fill="#734E27" d="M125.9,877c-1,0.6-2.6,1.5-4.6,2.5c-0.9,0.4-2,0.9-3,1.3c-1.1,0.4-2.2,1-3.5,1.4c-1.2,0.4-2.5,0.8-3.8,1.2
			l-1,0.3l-1,0.2c-0.7,0.1-1.4,0.3-2,0.4c-0.7,0.1-1.4,0.2-2,0.4c-0.7,0.1-1.4,0.1-2.1,0.2c-1.4,0.1-2.7,0.2-4,0.1
			c-1.3,0-2.5-0.1-3.7-0.2c-1.2-0.1-2.3-0.3-3.3-0.5c-0.5-0.1-1-0.2-1.5-0.2c-0.5-0.1-0.9-0.2-1.3-0.3c-0.8-0.2-1.5-0.4-2.1-0.5
			c-1.2-0.3-1.8-0.5-1.8-0.5s0.7,0,1.9,0.1c0.6,0,1.3,0.1,2.1,0.1c0.8,0.1,1.8,0.1,2.8,0.1c1,0,2.1,0.1,3.3,0.1
			c1.2,0,2.4-0.1,3.6-0.1c1.3,0,2.5-0.2,3.8-0.3c0.7-0.1,1.3-0.1,2-0.2c0.7-0.1,1.3-0.2,2-0.4c0.7-0.1,1.3-0.2,2-0.3l1-0.2l1-0.3
			c1.3-0.4,2.5-0.7,3.7-1c1.2-0.3,2.3-0.8,3.5-1.1c1.1-0.4,2.1-0.7,3.1-1c2-0.8,3.6-1.3,4.8-1.7c-2.1-2-3.6-3.7-3.4-4.9
			c0.7-3.3,9.3-11.3,9.3-11.3s0,0,4,5.3c4,5.3,4.7,4,12,4.7c7.3,0.7,44.7,12.7,49.3,13.3c4.7,0.7,10.7-1.3,14.7-3.3
			s10.7-2.7,14.7-1.3c4,1.3,18.7,2.7,21.3,2c2.7-0.7,7.3-8.7,11.3-12c4-3.3,6.7,1.3,8.7,1.3s8-2.7,8-2.7s8,0.7,17.3-1.3
			s12-2.7,15.3-5.3c2.2-1.7,5.4-7.3,7.4-10.8c0.1-0.6,0.3-1.1,0.4-1.7c0.4-1.7,0.7-3.4,0.9-5l0.1-0.6l0.1-0.6c0-0.4,0-0.8,0.1-1.2
			c0-0.8,0-1.7,0-2.5c-0.2-3.4-0.6-6.9-1-10.3c-1-6.9-2.2-13.7-3.6-20.5l0-0.1l0-0.1c-1.2-17-2.5-33.9-4-50.9
			c-1.5-17-3.1-33.9-5.1-50.8c-1-8.4-2.1-16.9-3.5-25.2c-0.7-4.2-1.6-8.3-3-12.3l-4.1-12.1c-5.6-16.1-11.3-32.1-17.3-48
			c-3-8-6.1-15.9-9.3-23.8c-1.6-3.9-3.3-7.8-5-11.7c-0.9-1.9-1.8-3.8-2.8-5.7c-0.5-0.9-1-1.9-1.5-2.7c-0.3-0.4-0.6-0.9-0.9-1.3
			c-0.1-0.2-0.3-0.4-0.5-0.6l-0.5-0.6c-1.4-1.8-2.4-3.7-3.2-5.8c-0.8-2-1.4-4.1-1.9-6.2c-1-4.1-1.5-8.4-1.9-12.6
			c0,0.9,0,1.8-0.1,2.7c-0.2,1.7-0.4,3.3-0.6,4.9c-0.2,1.6-0.4,3.2-0.6,4.8c-0.2,1.5-0.4,3-0.5,4.4c-0.2,1.4-0.3,2.7-0.4,4
			c-0.3,2.5-0.4,4.5-0.5,6c-0.1,1.4-0.2,2.3-0.2,2.3l-0.3,0c0,0,0-0.8,0-2.3c0-0.7,0-1.6,0-2.6c0-1,0-2.2,0-3.4c0-1.2,0.1-2.6,0.1-4
			c0-1.4,0.1-2.9,0.2-4.5c0.1-1.6,0.2-3.2,0.3-4.8c0.1-1.6,0.3-3.3,0.3-4.9c0-1.5-0.1-3.2-0.4-4.7c-0.3-1.5-0.7-3-1.1-4.4
			c-0.5-1.4-0.9-2.7-1.5-4c-0.5-1.2-1.1-2.3-1.7-3.4c-0.6-1.1-1.2-2.2-1.5-3.3c-0.3-1.1-0.4-2.1-0.3-2.9c0.1-0.8,0.3-1.4,0.5-1.8
			c0.2-0.4,0.4-0.5,0.4-0.5l0.3,0.1c0,0-0.1,0.2-0.1,0.6c0,0.4-0.1,0.9,0.1,1.6c0.1,0.7,0.4,1.4,0.9,2.2c0.4,0.8,1.1,1.6,1.9,2.6
			c0.8,1,1.6,2.2,2.3,3.5c0.7,1.3,1.3,2.8,1.7,4.4c0.2,0.9,0.4,1.9,0.6,2.9c-0.2-2.8-0.3-5.6-0.3-8.3l-0.1-12.8
			c-0.1-17-0.1-34.1,0-51.1c0.1-17,0.4-34.1,0.8-51.1c0.2-8.5,0.5-17,0.7-25.5c0.3-8.5,0.6-17,1-25.5l0.6-12.8
			c0.2-4.3,0.5-8.5,0.7-12.8c0.4-8.5,1.1-17,1.7-25.5c0.3-4.2,0.7-8.5,1.1-12.7c0.4-4.2,0.7-8.5,1.2-12.7l1.4-12.7l1.5-12.7
			c1-8.5,2.1-16.9,2.9-25.4l2.6-25.4c0.5-4.2,0.8-8.5,1.2-12.7l1.1-12.7l1.1-12.7l1-12.7l2-25.5l1.7-25.5c0.6-8.5,0.9-17,1.4-25.5
			l0.7-12.7c0.2-4.2,0.3-8.5,0.5-12.8l0.5-12.8c0.2-4.3,0.4-8.5,0.4-12.8l0.6-25.3l-26.8-0.8l-13.5-0.4l-13.5-0.2l-27-0.5l-27-0.2
			c-4.5,0-9-0.1-13.5-0.1l-13.5,0l-13.5,0l-13.5,0.1l-13.5,0.1L88.2,0.6c0.1,3.5,6.5,265.6,11.4,314.6c4.8,48.3,1.6,132.8,0,156.8
			c-1.6,24-5,61.9-5.4,64.5c3.3,3.7,4.5,9.1,6.3,8s5.6-4.8,6.1-3.2c0.5,1.6-5.9,21.3-9.3,22.9c-3.5,1.6-29,89.5-38.1,116.8
			c-7.6,22.7-12.2,30-12.3,32.5c0,3.1,0.2,6.9,0.2,7.5c1.1,10.2,10.6,98.4,12.6,110c2.1,12.3,11.2,32.2,15.5,34.9
			c1.7,1.1,2.5,2.6,3,4c0.1,0,0.2,0,0.4-0.1c1.3-0.2,2.7-0.3,4.1-0.4c1.4-0.1,2.9-0.2,4.4-0.3c1.5-0.1,3-0.2,4.6-0.2
			c1.5,0,3.1,0.1,4.6,0.1c1.5,0,3,0.1,4.4,0.1c1.4,0.1,2.8,0.1,4.1,0.2c1.3,0.1,2.5,0.3,3.7,0.4c4.5,0.5,7.6,1.1,7.6,1.1
			s-3.1,0.1-7.6,0.1c-1.1,0-2.4,0-3.7-0.1c-1.3-0.1-2.7,0.1-4.1,0c-1.4,0-2.9,0.1-4.4,0c-1.5,0-3,0-4.5,0c-1.5,0.1-3,0.1-4.5,0.2
			c-1.5,0.1-3,0.1-4.4,0.1c-1.4,0.1-2.8,0-4.1,0.1c-0.1,0-0.1,0-0.2,0c0.2,1.6,0,2.8,0,2.8H67.9c0,0-1.3,1.1-1.3,3.8
			s16.5,86.4,17.1,99.2c0.1,2.5,0.5,7.1,1,12.9c0.1-0.2,0.2-0.4,0.3-0.6c0.2-0.4,0.5-0.8,0.8-1.3c0.4-0.4,0.9-0.9,1.3-1.1
			c1-0.7,2.2-1,3.5-1.3c1.3-0.3,2.6-0.5,4-0.7c1.4-0.1,2.8-0.3,4.3-0.3c1.5-0.1,2.9-0.1,4.4-0.2c1.5,0.1,3,0.1,4.4,0.2
			c0.7,0,1.5,0.1,2.2,0.2c0.7,0.1,1.4,0.2,2.1,0.3c0.7,0.1,1.4,0.2,2,0.3c0.6,0.1,1.3,0.3,1.9,0.4c1.2,0.2,2.4,0.5,3.5,0.7
			c0.3,0.1,0.7,0.2,0.9,0.4c0.3,0.2,0.5,0.4,0.6,0.7c0.3,0.5,0.5,0.9,0.7,1.4c0.3,0.9,0.5,1.6,0.7,2.3c0.2,0.6,0.2,1.1,0.3,1.4
			c0.1,0.3,0.2,0.5,0.2,0.5s-0.1-0.1-0.3-0.4c-0.2-0.3-0.4-0.8-0.6-1.4c-0.3-0.6-0.6-1.3-1-2.1c-0.4-0.7-1-1.6-1.8-1.6
			c-1.1-0.1-2.3-0.2-3.5-0.4c-0.6-0.1-1.3-0.1-1.9-0.2c-0.7,0-1.3-0.1-2-0.1c-1.4-0.1-2.7-0.3-4.2-0.3c-1.4,0-2.9-0.1-4.3-0.1
			c-1.4,0-2.9,0.1-4.3,0.1c-1.4,0-2.9,0.1-4.2,0.2c-1.4,0.1-2.7,0.2-3.9,0.4c-1.2,0.2-2.4,0.4-3.2,0.9c-0.6,0.2-0.8,0.5-1.2,0.8
			c-0.3,0.3-0.6,0.7-0.9,1c-0.3,0.4-0.6,0.8-0.8,1.2c2.1,24,6.6,66.6,7.5,70.9c0.7,3.3,2.5,13.1,3.9,22.1c8.8,1.8,17.7,2,26.6,0.6
			l0.2,1c-3.9,0.6-7.8,0.9-11.8,0.9c-5,0-9.9-0.5-14.8-1.5c0.3,1.7,0.5,3.3,0.7,4.8c0.2,0,0.5,0.1,0.8,0.2c0.7,0.2,1.6,0.4,2.8,0.7
			c0.6,0.1,1.2,0.3,1.8,0.4c0.6,0.2,1.4,0.2,2.1,0.4c0.7,0.2,1.4,0.3,2.2,0.4c0.8,0.1,1.5,0.2,2.3,0.4c0.8,0.1,1.5,0.2,2.3,0.3
			c0.8,0.1,1.5,0.2,2.2,0.2c0.7,0,1.4,0.2,2.1,0.2c0.7,0,1.3,0.1,1.9,0.1c1.2,0.1,2.2,0.1,2.9,0.2c0.7,0,1.1,0.1,1.1,0.1l0,0.1
			c0,0-0.4,0-1.1,0.1c-0.7,0-1.7,0.2-2.9,0.2c-0.6,0-1.2,0-1.9,0c-0.7,0-1.4-0.1-2.1-0.1c-0.7,0-1.5-0.1-2.3-0.2
			c-0.8-0.1-1.6-0.2-2.3-0.3c-0.8-0.1-1.6-0.3-2.3-0.4c-0.8-0.1-1.5-0.3-2.2-0.5c-0.7-0.2-1.4-0.3-2.1-0.5c-0.6-0.2-1.3-0.4-1.8-0.6
			c-1.1-0.3-2-0.8-2.7-1c-0.3-0.1-0.5-0.2-0.7-0.3c0.5,3.5,0.9,6.5,1,8.6c0.1,2,0.4,5.3,0.8,9.3c0.1,0,0.2-0.1,0.4-0.1
			c0.8-0.3,1.6-0.4,2.4-0.6c0.7-0.2,1.4-0.5,2.2-0.6c0.8-0.2,1.6-0.3,2.3-0.4c0.7-0.1,1.5-0.2,2.2-0.3c2.8-0.4,5.4-0.6,7.7-0.8
			c2.3-0.2,4.3-0.4,6-0.5c3.3-0.3,5.2-0.4,5.2-0.4s0.4,0.3,1.1,0.9c0.7,0.6,1.6,1.6,2.3,3.1c0.8,1.5,1.2,3.6,1.4,5.9
			c0.2,2.3,0.1,5-0.1,7.8c-0.2,2.8-0.5,5.9-0.9,9.1c-0.1,0.8-0.2,1.6-0.3,2.5c-0.1,0.4-0.1,0.9-0.2,1.3l-0.1,0.6l-0.1,0.3l0,0.2
			l0,0.1c-0.1,0.2,0,0.1-0.1,0.2l-0.1,0.1c-0.3,0.5-0.5,0.5-0.8,0.7c-0.2,0.1-0.4,0.2-0.6,0.4c-0.4,0.2-0.8,0.4-1.2,0.6
			c-0.8,0.3-1.7,0.6-2.5,0.9c-1.7,0.6-3.5,1-5.3,1.4c-1.8,0.4-3.7,0.7-5.6,0.8c-0.5,0-1,0-1.5,0c-0.2,0-0.5,0-0.8,0l-0.3,0l-0.2,0
			l-0.2,0c-0.5-0.1-1-0.2-1.5-0.4c-0.5-0.1-1-0.3-1.4-0.5c-1.8-0.8-3.5-1.8-5.1-3c-0.8-0.6-1.6-1.2-2.4-1.9c0,4.1-0.2,6.9-1,7.2
			c-0.3,0.1-0.6,0.2-1,0.2c1.9,1.3,4,2.4,6.3,3.1c7.6,2.4,16.3,2,23.4-1.5c3.4-1.8,5.9-5,7.5-8.6c1.6-3.6,2.4-7.7,2.9-11.7
			c0.5-4.2,0.7-8.3,0.7-12.4c0-2.1-0.1-4.1-0.4-6.1l-0.4-3.1c-0.1-1.1-0.2-2.1-0.3-3.2c-0.3-4.2-0.5-8.4-0.5-12.7
			c0-2.1,0-4.2,0.1-6.4c0-1,0.1-2.1,0.1-3.1c0-1.1,0-2-0.1-3.1c-0.2-4.1-0.7-8.2-1.5-12.3l-0.6-3.1c-0.1-0.5-0.2-1-0.3-1.6l-0.3-1.5
			c-0.2-1-0.3-2.1-0.4-3.2l-0.3-3.2c-0.6-8.4-0.6-16.8-0.5-25.2c0-8.4,0.6-16.8,0.2-25.1c-0.1-4.2-0.4-8.3-0.7-12.5l-0.3-3.1
			l-0.3-3.1c-0.3-2-0.7-4.1-0.8-6.3c-0.3-4.2-0.3-8.4-0.3-12.6c0-4.2,0-8.4,0.1-12.6c0.1-8.4,0.3-16.8,0.5-25.2l0.4-12.6
			c0.2-4.2,0.3-8.3,0.5-12.6c0.1-1.1,0.2-2.2,0.6-3.3c0.1-0.3,0.2-0.6,0.4-1c0.1-0.1,0.2-0.3,0.3-0.5c0.1-0.6,0.3-0.7,0.5-0.5
			c0,0,0,0,0,0c-0.2-0.3-0.4-0.6-0.6-1l-0.2-0.3l-0.2-0.2c-0.1-0.2-0.2-0.4-0.4-0.5c-0.5-0.7-0.9-1.3-1.4-1.9
			c-0.9-1.1-1.8-2-2.5-2.5c-0.7-0.5-1.2-0.7-1.2-0.7s0.1,0,0.4,0.1c0.2,0,0.6,0.1,1,0.3c0.9,0.3,2,1,3.2,2c0.6,0.5,1.2,1.1,1.7,1.8
			c0.1,0.1,0.1,0.2,0.2,0.3C134.2,884.8,129.3,880.4,125.9,877z M221.3,554c-0.4,1.2-0.7,2.4-1.1,3.6c-0.1,0.6-0.4,1.1-0.6,1.7
			c-0.2,0.5-0.4,1.1-0.7,1.6c-0.4,1-0.8,2-1.3,2.8c-0.5,0.8-0.9,1.6-1.3,2.3c-0.2,0.3-0.4,0.7-0.5,1c-0.2,0.3-0.4,0.6-0.7,0.7
			c-0.5,0.4-1,0.6-1.4,0.4c-0.2-0.1-0.3-0.2-0.4-0.2c0-0.1-0.1-0.1-0.1-0.1l0.2-0.2c0,0,0.1,0.2,0.3,0.2c0.2,0,0.6-0.1,0.9-0.5
			c0.2-0.2,0.3-0.4,0.5-0.7c0.1-0.3,0.3-0.6,0.4-1c0.3-0.7,0.6-1.5,1-2.4c0.4-0.9,0.7-1.9,1-2.9c0.3-1,0.7-2.1,0.9-3.2
			c0.2-1.1,0.5-2.3,0.7-3.5c0.2-1.2,0.3-2.4,0.4-3.7c0.2-1.2,0.1-2.5,0.1-3.7c0-1.2,0-2.4-0.1-3.5c-0.1-1.1-0.1-2.3-0.1-3.3
			c-0.1-1-0.2-2-0.2-3c0-0.5,0-0.9,0-1.3c0-0.4-0.1-0.8-0.1-1.2c-0.1-0.8-0.1-1.4-0.2-2c-0.1-1.1-0.1-1.8-0.1-1.8l0.3-0.1
			c0,0,0.3,0.6,0.8,1.6c0.2,0.5,0.5,1.1,0.8,1.9c0.3,0.7,0.6,1.6,0.8,2.5c0.2,0.9,0.5,2,0.7,3.1c0.2,1.1,0.2,2.3,0.3,3.5
			c0.1,1.2-0.1,2.5-0.2,3.8c-0.2,1.3-0.2,2.6-0.5,3.8C221.8,551.5,221.6,552.8,221.3,554z M83.8,881.4c-3,0.2-5.2,0.1-5.2,0.1l0-0.2
			c0,0,2-0.4,5-1c0.7-0.2,1.6-0.3,2.4-0.5c0.9-0.2,1.8-0.3,2.7-0.5c1.9-0.3,3.9-0.7,5.9-1c2-0.2,4-0.5,5.9-0.7
			c0.9-0.1,1.9-0.2,2.7-0.3c0.9-0.1,1.7-0.1,2.4-0.2c3-0.3,5-0.4,5-0.4l0,0.2c0,0-2,0.8-5,1.4c-0.7,0.2-1.6,0.4-2.4,0.5
			c-0.9,0.2-1.7,0.4-2.7,0.6c-0.9,0.2-1.9,0.4-2.9,0.5c-1,0.1-2,0.3-3,0.4c-1,0.1-2,0.3-3,0.4c-1,0.2-2,0.2-2.9,0.3
			c-0.9,0.1-1.9,0.1-2.7,0.2C85.4,881.3,84.6,881.4,83.8,881.4z M91.7,999.7l-0.4-0.9c8.1-3.8,17.5-5.1,26.4-3.5l-0.2,1
			C108.8,994.8,99.7,996,91.7,999.7z M123.6,1079.4c0,0-0.4,0-1.2,0c-0.4,0-0.8,0-1.3,0c-0.5,0-1.1,0-1.7,0c-0.6,0-1.2,0-1.9,0
			c-0.7,0-1.4,0.1-2.1,0c-0.7,0-1.5,0-2.2,0.1c-0.8,0-1.5,0.1-2.3,0.1c-0.8,0.1-1.5,0.1-2.3,0.2c-0.8,0-1.5,0.1-2.2,0.2
			c-0.7,0.1-1.4,0.1-2.1,0.3c-0.7,0.1-1.3,0.2-1.9,0.3c-0.6,0.1-1.2,0.2-1.6,0.3c-0.5,0.1-0.9,0.1-1.3,0.2c-0.7,0.1-1.2,0.1-1.2,0.1
			l-0.1-0.2c0,0,0.4-0.2,1-0.4c0.3-0.1,0.7-0.3,1.2-0.5c0.2-0.1,0.5-0.2,0.7-0.3c0.3-0.1,0.5-0.2,0.8-0.3c0.6-0.2,1.2-0.4,1.9-0.6
			c0.7-0.2,1.4-0.3,2.2-0.5c0.8-0.2,1.5-0.4,2.3-0.4c0.8-0.1,1.6-0.2,2.4-0.3c0.8,0,1.6,0,2.4,0c0.8,0,1.6,0.1,2.4,0.1
			c0.8,0.1,1.5,0.1,2.2,0.2c0.7,0.1,1.4,0.2,2,0.3c0.3,0.1,0.6,0.1,0.9,0.2c0.3,0.1,0.5,0.1,0.8,0.2c0.5,0.1,0.9,0.2,1.2,0.3
			c0.7,0.2,1.1,0.3,1.1,0.3L123.6,1079.4z M124.4,1002.9c-0.4,0.3-0.9,0.6-1.4,1c-0.3,0.2-0.6,0.4-0.9,0.6c-0.3,0.2-0.7,0.3-1,0.5
			c-0.7,0.4-1.5,0.8-2.4,1.2c-0.4,0.2-0.9,0.4-1.3,0.5c-0.5,0.2-0.9,0.3-1.4,0.5c-1,0.3-2,0.7-3,0.8c-1.1,0.2-2.1,0.4-3.2,0.6
			c-1.1,0.1-2.2,0.1-3.3,0.2c-1.1,0.1-2.1,0-3.1-0.1c-1-0.1-2-0.1-2.9-0.3c-0.9-0.2-1.8-0.4-2.6-0.6c-0.4-0.1-0.8-0.2-1.1-0.3
			c-0.3-0.1-0.7-0.3-1-0.4c-0.6-0.2-1.1-0.5-1.6-0.6c-0.9-0.4-1.4-0.6-1.4-0.6s0.5,0.1,1.5,0.2c0.5,0.1,1,0.2,1.7,0.3
			c0.3,0.1,0.7,0.1,1,0.2c0.4,0,0.7,0.1,1.1,0.1c0.8,0.1,1.6,0.1,2.5,0.2c0.4,0.1,0.9,0.1,1.4,0.1c0.5,0,1,0,1.4,0c1,0,2,0.1,3-0.1
			c1-0.1,2.1-0.1,3.1-0.2c1-0.2,2.1-0.3,3.1-0.5c1-0.1,2-0.4,2.9-0.6c0.5-0.1,0.9-0.2,1.4-0.3c0.5-0.1,0.9-0.2,1.3-0.4
			c0.8-0.3,1.6-0.6,2.4-0.8c0.4-0.1,0.7-0.2,1.1-0.4c0.3-0.1,0.7-0.3,1-0.4c0.6-0.3,1.1-0.5,1.6-0.6c0.9-0.3,1.4-0.5,1.4-0.5
			S125.2,1002.4,124.4,1002.9z"/>
		<path fill="#5B3D1F" d="M76.9,532.8c0-0.2,0.1-0.3,0.1-0.6c0-0.1,0-0.4,0-0.3l0-0.4c0.1-1.1,0.2-2.2,0.3-3.2
			c0.2-2,0.1-3.9-0.1-5.9l-0.3-3.1c-0.1-0.6-0.1-1.2-0.2-1.8c-0.2,7.1-0.4,13.3-0.6,17.9c0.1-0.4,0.3-0.8,0.4-1.3
			C76.7,533.8,76.8,533.3,76.9,532.8z"/>
		<path fill="#5B3D1F" d="M97.7,1110.5c-0.5,0.5-0.9,1-1,1.7c-0.2,0.9-0.2,1.6-0.3,2.4c0,0.9-0.1,1.7-0.1,2.6c0,1.7,0,3.5,0.2,5.3
			c0,0.9,0.1,1.8,0.2,2.7c0,0.5,0.1,0.9,0.2,1.3l0.1,0.7l-0.1,0.2l-0.1,0.1v0l0.2,0.3c0.1,0.5,0.4,0.8,0.5,1.1
			c0.2,0.4,0.4,0.7,0.7,1.1c0.5,0.7,1.1,1.4,1.7,2.1c0.2,0.2,0.4,0.4,0.6,0.6c-0.2-6.7-0.9-15.6-1.6-22.9
			C98.5,1109.9,98.1,1110.2,97.7,1110.5z"/>
		<path fill="#5B3D1F" d="M100.6,1135.3c-0.7-0.6-1.4-1.3-2-2c-0.7-0.7-1.3-1.5-1.9-2.3c-0.3-0.4-0.5-0.9-0.8-1.3
			c-0.2-0.5-0.5-1.1-0.6-1.5l-0.1-0.3l0,0c0-0.2,0-0.1,0-0.1l0-0.1l0-0.2l-0.1-0.7c-0.1-0.5-0.1-0.9-0.2-1.4
			c-0.1-0.9-0.2-1.9-0.2-2.8c-0.1-1.8-0.1-3.7-0.1-5.5c0-0.9,0.1-1.8,0.1-2.7c0.1-0.9,0.2-1.9,0.4-2.7c0.1-0.9,0.8-1.9,1.6-2.5
			c0.7-0.5,1.4-0.8,2.1-1.1c-0.3-4-0.6-7.3-0.8-9.3c-0.1-2.1-0.5-5.2-1-8.6c-0.2-0.1-0.3-0.1-0.3-0.1l0-0.1c0,0,0.1,0,0.3,0
			c-0.2-1.5-0.5-3.2-0.7-4.8c-0.3-0.1-0.6-0.1-0.9-0.2l0.2-1c0.2,0,0.4,0.1,0.5,0.1c-1.5-9.1-3.3-18.9-3.9-22.1
			c-0.8-4.2-5.4-46.9-7.5-70.9c0.3-0.4,0.5-0.8,0.8-1.2c0.2-0.4,0.6-0.7,0.9-1c0.4-0.3,0.6-0.6,1.2-0.8c0.9-0.4,2-0.7,3.2-0.9
			c1.2-0.2,2.5-0.3,3.9-0.4c1.3-0.1,2.8-0.1,4.2-0.2c1.4,0,2.9-0.1,4.3-0.1c1.4,0,2.9,0.1,4.3,0.1c1.4,0,2.8,0.2,4.2,0.3
			c0.7,0,1.3,0.1,2,0.1c0.7,0.1,1.3,0.1,1.9,0.2c1.3,0.2,2.4,0.3,3.5,0.4c0.8,0,1.4,0.9,1.8,1.6c0.4,0.8,0.7,1.5,1,2.1
			c0.2,0.6,0.5,1.1,0.6,1.4c0.2,0.3,0.3,0.4,0.3,0.4s-0.1-0.2-0.2-0.5c-0.1-0.3-0.2-0.8-0.3-1.4c-0.2-0.6-0.3-1.4-0.7-2.3
			c-0.2-0.4-0.4-0.9-0.7-1.4c-0.2-0.2-0.4-0.5-0.6-0.7c-0.2-0.2-0.6-0.4-0.9-0.4c-1.1-0.2-2.2-0.5-3.5-0.7c-0.6-0.1-1.3-0.2-1.9-0.4
			c-0.7-0.1-1.3-0.2-2-0.3c-0.7-0.1-1.4-0.2-2.1-0.3c-0.7-0.1-1.4-0.2-2.2-0.2c-1.5-0.1-2.9-0.1-4.4-0.2c-1.5,0-3,0.1-4.4,0.2
			c-1.5,0-2.9,0.2-4.3,0.3c-1.4,0.1-2.7,0.4-4,0.7c-1.3,0.3-2.4,0.7-3.5,1.3c-0.5,0.2-1,0.7-1.3,1.1c-0.3,0.4-0.6,0.8-0.8,1.3
			c-0.1,0.2-0.2,0.4-0.3,0.6c-0.5-5.8-0.9-10.4-1-12.9c-0.5-12.8-17.1-96.6-17.1-99.2s1.3-3.8,1.3-3.8h10.5c0,0,0.2-1.2,0-2.8
			c-1.2,0.1-2.4,0.1-3.5,0.2c-4.6,0.2-7.6,0.2-7.6,0.2s3-0.6,7.5-1.3c1-0.2,2.1-0.3,3.3-0.5c-0.4-1.4-1.3-3-3-4
			c-4.3-2.7-13.3-22.6-15.5-34.9c-2-11.6-11.5-99.8-12.6-110c-0.1-0.6-0.3-4.3-0.2-7.5c0-2.5,4.7-9.8,12.3-32.5
			c9.1-27.4,34.7-115.2,38.1-116.8c3.5-1.6,9.9-21.3,9.3-22.9c-0.5-1.6-4.3,2.1-6.1,3.2s-3-4.3-6.3-8c0.4-2.7,3.8-40.5,5.4-64.5
			c1.6-24,4.8-108.5,0-156.8C94.7,266.2,88.3,4.1,88.2,0.6l-1.3,0c-8.2,0.1-16.3,0.3-24.5,0.5c2.1,67,4.3,134,7,201
			c0.7,16.7,1.4,33.5,2.2,50.2c0.4,8.4,0.8,16.7,1.3,25.1c0.2,4.2,0.5,8.4,0.8,12.5c0.3,4.2,0.6,8.3,1.1,12.4l0.2,1.5l0.3,1.5
			c0.1,0.5,0.2,1.1,0.3,1.7l0.2,1.6c0.3,2.1,0.4,4.2,0.6,6.3c0.3,4.2,0.6,8.4,0.8,12.6c0.5,8.4,0.8,16.8,1.1,25.2
			c0.6,16.8,1.1,33.5,1.5,50.3c0.4,16.8,0.7,33.5,1,50.3l0.3,25.2l0,12.6c0,2.1,0,4.2-0.1,6.3c0,0.5,0,1.1-0.1,1.7
			c-0.1,0.5-0.1,0.7-0.1,1c0,0.3-0.1,0.5-0.1,0.8c-0.1,0.9-0.2,1.9-0.3,2.9c-0.2,4,0,8.2,0.3,12.3c0.1,1,0.2,2.1,0.3,3.1l0.3,3.1
			c0.2,2.2,0.3,4.4,0.1,6.6c-0.1,1.1-0.2,2.1-0.3,3.1l0,0.4c0,0.4,0,0.3-0.1,0.5c0,0.2-0.1,0.6-0.2,1c-0.1,0.6-0.3,1.1-0.4,1.6
			c-0.6,2.1-1.2,4.1-1.8,6.1c-1.3,4-2.6,8-4,12C69.1,569.3,63.3,585,57,600.6c-1.6,3.9-3.3,7.8-5,11.6c-1.7,3.8-3.5,7.7-5.3,11.5
			c-3.6,7.6-7.4,15.1-11.2,22.6l-5.8,11.2l-2.9,5.6c-1,1.9-2,3.7-3,5.6c-4.1,7.3-8.1,14.6-11.5,22.2C8.8,698.2,5.9,706,4.5,714
			c-0.3,2-0.6,4-0.7,6c0,1-0.1,2,0,3l0,0.7c0,0.2,0,0.2,0,0.3l0,0.4l0.1,1.6c0.1,2.1,0.4,4.1,0.6,6.1c0.3,2,0.6,4.1,0.9,6.1
			c1.4,8.2,3.4,16.3,5.6,24.3c2.2,8,4.7,16,7.3,24c0.7,2,1.3,4,2,5.9c0.7,1.9,1.5,3.8,2.3,5.7c1.6,3.8,3.4,7.6,5.1,11.4
			c0.3,0.6,0.6,1.3,0.9,1.9c-0.1-0.4-0.2-0.9-0.3-1.3c-1.1-5.3-2-11.6-2.5-18.4c-0.5-6.8-0.7-14-0.6-21.3c0-3.6,0.2-7.2,0.3-10.8
			c0.2-3.6,0.3-7.1,0.6-10.5c0.6-6.8,1.7-13,2.9-18.4c1.2-5.3,2.1-9.7,2.8-12.8c0.6-3.1,1-4.9,1-4.9l0.4,0.1c0,0,0,0.5-0.1,1.3
			c0,0.9-0.1,2.1-0.2,3.7c-0.1,1.6-0.3,3.5-0.6,5.7c-0.1,1.1-0.3,2.3-0.4,3.5c-0.2,1.2-0.3,2.5-0.5,3.9c-0.2,1.3-0.3,2.7-0.5,4.2
			c-0.2,1.4-0.4,2.9-0.5,4.4c-0.2,1.5-0.3,3.1-0.4,4.7c-0.1,1.6-0.3,3.2-0.3,4.9c-0.1,1.7-0.1,3.3-0.1,5.1c0,1.7-0.1,3.5-0.1,5.3
			c-0.1,3.5-0.1,7.1-0.2,10.7c-0.1,3.6-0.1,7.2,0,10.7c0,3.5,0,7,0.2,10.3c0.2,3.3,0.2,6.6,0.5,9.6c0.3,3,0.5,5.9,0.8,8.6
			c0.4,2.6,0.7,5.1,1.1,7.2c0.1,0.8,0.3,1.5,0.4,2.2c0.3,0.6,0.6,1.2,0.8,1.8c0.9,1.9,1.7,3.9,2.5,5.8c0.4,1,0.8,2,1.2,3
			c0.2,0.5,0.4,1,0.5,1.6c0.1,0.3,0.2,0.6,0.2,0.9l0.2,0.8c0.9,3.9,2.1,8,3.3,12l3.6,12c2.4,8,4.8,16,7.2,24.1l1.7,6.1
			c0.6,2,1.1,4.1,1.5,6.2l3,12.2l6.1,24.4l6,24.4l2.9,12.2l1.4,6.2l0.7,3.1c0.2,1.1,0.4,2.1,0.6,3.2c0.6,4.3,0.4,8.7,0.3,12.8
			c-0.1,4.1,0.1,8.2,0.7,12.3c0.6,4.2,1.5,7.9,3.4,11.5c1,1.9,1.7,4.1,2.2,6.3c0.2,1.1,0.4,2.1,0.6,3.2l0.2,1.6l0.2,1.6
			c0.4,4.2,0.8,8.4,1.1,12.6l0.9,12.6c0.6,8.4,1.1,16.7,1.5,25.1c0.2,4.2,0.4,8.4,0.6,12.6l0.2,6.3c0.1,2.1,0.2,4.1,0.4,6.2
			c0.7,8.3,1.7,16.6,3.3,24.7l0.7,3l0.3,1.5c0.1,0.2,0.1,0.6,0.2,0.7l0.2,0.8c0.5,1.8,1.5,3.5,2.7,5c1,1.2,2.1,2.3,3.4,3.2
			c0.3,0,0.6-0.1,1-0.2C100.4,1142.3,100.6,1139.5,100.6,1135.3z M28.6,724.5c-0.2,0.4-0.4,0.8-0.6,1.3c-0.2,0.4-0.3,0.9-0.5,1.4
			c-0.3,1-0.6,2-1,3.1c-0.2,1.1-0.4,2.2-0.7,3.2c-0.1,0.5-0.2,1-0.3,1.5c0,0.5-0.1,0.9-0.1,1.4c-0.1,1.7-0.2,2.8-0.2,2.8
			s-0.1-1.1-0.2-2.8c0-0.4-0.1-0.9-0.1-1.4c0-0.5,0-1,0-1.5c0-1.1,0.1-2.2,0.1-3.4c0.2-1.2,0.3-2.3,0.5-3.4c0.1-0.5,0.1-1.1,0.3-1.6
			c0.1-0.5,0.2-0.9,0.3-1.3c0.4-1.7,0.7-2.8,0.7-2.8l2.8,1C29.7,721.9,29.2,723,28.6,724.5z"/>
		<path fill="#5B3D1F" d="M86.7,0.6l1,0c-2.4,0-14.8-0.1-27.7,0.6C68.9,0.9,77.9,0.7,86.7,0.6z"/>
		<path fill="#5B3D1F" d="M150.5,926.6c0.4,0.9,0.8,1.9,1.2,2.7c1,1.5,2.5,2.8,4.2,3.8c3.4,2.2,7.2,3.8,11.1,5c3.9,1.2,8,2.2,12,2.6
			c2.1,0.2,4,0.2,6-0.1c2-0.3,4-0.8,5.9-1.4c1.1-0.4,2.1-0.8,3.1-1.2c-3.7-3.5-16.3-15.1-18.5-16.2c-2.7-1.3-2.7-3.9-2.7-3.9
			s11.4-3.4,15.4-2.1c6.5,2.1,15.8,1.8,19.1,1.6l1.7-7.1l5.8-24.5l0.3-1.1l1.1,0.3c3.3,1,6.6,1.9,10,2.7c3.4,0.8,6.7,1.5,10.1,2
			c1.7,0.2,3.4,0.4,5,0.2c1.6-0.2,3.3-0.6,4.9-1c3.2-1,6.4-2.3,9.4-3.9c1.5-0.8,3-1.7,4.3-2.7c1.3-1,2.7-2.1,3.5-3.3
			c0.2-0.3,0.4-0.6,0.5-0.9c0-0.1,0-0.1,0.1-0.2c0-0.2,0-0.2,0.1-0.4c0.1-0.3,0.2-0.6,0.4-0.9c0.3-0.6,0.9-1,1.5-1.2
			c0.6-0.2,1.1-0.3,1.6-0.3c2,0,3.7,0.6,5.4,1.1c3.4,1.1,6.6,2.3,9.9,3.1c0.4,0.1,0.8,0.2,1.2,0.3l1.3,0.2l1.2,0.1l1.2,0.1
			c1.6,0,3.3-0.2,4.9-0.6c3.2-0.9,6.1-2.6,8.8-4.7c0.7-0.5,1.3-1,2-1.6l1-0.8c0.3-0.3,0.6-0.6,0.9-0.9c1.2-1.2,2.2-2.5,3.1-3.9
			c1.9-2.8,3.4-5.9,4.6-9.1c1-2.7,1.9-5.4,2.6-8.1c-2,3.6-5.2,9.1-7.4,10.8c-3.3,2.7-6,3.3-15.3,5.3s-17.3,1.3-17.3,1.3
			s-6,2.7-8,2.7s-4.7-4.7-8.7-1.3c-4,3.3-8.7,11.3-11.3,12c-2.7,0.7-17.3-0.7-21.3-2c-4-1.3-10.7-0.7-14.7,1.3s-10,4-14.7,3.3
			c-4.7-0.7-42-12.7-49.3-13.3c-7.3-0.7-8,0.7-12-4.7c-4-5.3-4-5.3-4-5.3s-8.7,8-9.3,11.3c-0.2,1.2,1.3,2.9,3.4,4.9
			c-1.1,0.4-2.8,1-4.8,1.7c-1,0.3-2,0.6-3.1,1c-1.1,0.3-2.2,0.8-3.5,1.1c-1.2,0.3-2.5,0.6-3.7,1l-1,0.3l-1,0.2
			c-0.7,0.1-1.3,0.2-2,0.3c-0.7,0.1-1.3,0.2-2,0.4c-0.7,0.1-1.3,0.1-2,0.2c-1.3,0.1-2.6,0.3-3.8,0.3c-1.3,0-2.5,0.1-3.6,0.1
			c-1.2-0.1-2.2-0.1-3.3-0.1c-1,0-1.9-0.1-2.8-0.1c-0.8,0-1.5-0.1-2.1-0.1c-1.2-0.1-1.9-0.1-1.9-0.1s0.7,0.2,1.8,0.5
			c0.6,0.1,1.3,0.3,2.1,0.5c0.4,0.1,0.8,0.2,1.3,0.3c0.5,0.1,0.9,0.1,1.5,0.2c1,0.2,2.1,0.3,3.3,0.5c1.2,0.1,2.4,0.1,3.7,0.2
			c1.3,0.1,2.6,0,4-0.1c0.7-0.1,1.4-0.1,2.1-0.2c0.7-0.1,1.4-0.2,2-0.4c0.7-0.1,1.4-0.3,2-0.4l1-0.2l1-0.3c1.3-0.4,2.6-0.8,3.8-1.2
			c1.2-0.4,2.4-0.9,3.5-1.4c1.1-0.5,2.1-0.9,3-1.3c2-1,3.5-1.9,4.6-2.5c3.5,3.4,8.4,7.8,9.6,13.2c0.1,0.1,0.1,0.2,0.2,0.3l0.2,0.3
			l0.2,0.3c0.3,0.4,0.5,0.7,0.8,1.2c0.2,0.4,0.5,0.7,0.7,1.1c0.2,0.2,0.4,0.4,0.6,0.6c0.8,1,1.3,2,1.7,2.9c0.5,1,0.9,2,1.3,2.9
			c1.6,3.9,2.9,7.9,4.3,11.9c1.3,4,2.6,8,4,11.9C149.8,924.6,150.1,925.6,150.5,926.6z M237.7,885.7c0.2,0.1,0.5,0.1,0.9,0.2
			c0.3,0.1,0.7,0.1,1.1,0.2c0.4,0.1,0.8,0.1,1.3,0.1c0.4,0,0.9,0,1.4,0c0.5,0,1-0.1,1.5-0.1c0.5,0,1-0.2,1.5-0.2
			c0.5-0.1,1-0.2,1.5-0.4c0.5-0.1,1-0.3,1.4-0.5c0.4-0.2,0.9-0.4,1.3-0.6c0.4-0.2,0.8-0.4,1.1-0.6c0.3-0.2,0.7-0.4,0.9-0.6
			c0.3-0.2,0.5-0.4,0.7-0.5c0.4-0.3,0.6-0.5,0.6-0.5s-0.1,0.3-0.3,0.7c-0.1,0.2-0.2,0.5-0.5,0.8c-0.2,0.3-0.4,0.6-0.7,1
			c-0.3,0.3-0.6,0.7-1,1c-0.4,0.3-0.8,0.6-1.3,0.9c-0.5,0.3-1,0.6-1.6,0.8c-0.5,0.2-1.1,0.4-1.7,0.5c-0.6,0.1-1.2,0.2-1.8,0.2
			c-0.6,0.1-1.2,0-1.7,0c-0.6-0.1-1.1-0.1-1.6-0.3c-0.5-0.1-0.9-0.3-1.3-0.5c-0.4-0.2-0.8-0.4-1.1-0.6c-0.3-0.2-0.6-0.4-0.7-0.5
			c-0.4-0.3-0.6-0.5-0.6-0.5S237.2,885.5,237.7,885.7z M159.6,890.4c0.8,0.6,1.9,1.3,3,2.1c0.5,0.4,1.2,0.7,1.9,1.2
			c0.7,0.4,1.3,0.9,2.1,1.2c0.8,0.4,1.6,0.7,2.4,1.1c0.8,0.4,1.7,0.7,2.6,1.1c0.5,0.2,0.9,0.4,1.4,0.5c0.5,0.1,1,0.3,1.4,0.4
			c1,0.3,1.9,0.6,2.9,0.8c0.5,0.1,1,0.2,1.5,0.3l0.8,0.2c0.3,0,0.6,0.1,0.8,0.1c0.6,0.1,1.1,0.1,1.7,0.2l0.8,0.1l0.4,0.3
			c-0.2,0,0,0.2-0.1,0.2h0h0h0.1h0.2c1.9,0,4-0.6,6-1.3c2-0.7,4-1.8,6-2.9c1.9-1.1,3.8-2.3,5.5-3.5c1.8-1.2,3.4-2.5,5-3.7
			c0.8-0.6,1.5-1.2,2.2-1.8c0.7-0.6,1.4-1.2,2.1-1.7c0.3-0.3,0.7-0.6,1-0.8c0.4-0.3,0.8-0.6,1.2-0.8c0.4-0.2,0.7-0.3,1.1-0.5l0.1,0
			l0.1,0l0,0l0.2,0l0.3-0.1c0.2,0,0.4-0.1,0.6-0.1c1.6-0.2,3,0.2,3.9,0.7c0.5,0.2,0.9,0.6,1.2,0.8c0.3,0.3,0.6,0.5,0.7,0.8
			c0.3,0.5,0.5,0.7,0.5,0.7s-0.2-0.2-0.6-0.6c-0.2-0.2-0.5-0.3-0.8-0.5c-0.2-0.1-0.4-0.2-0.6-0.2c-0.2-0.1-0.4-0.2-0.6-0.2
			c-0.9-0.3-2.1-0.3-3.3,0c-0.3,0.1-0.6,0.3-0.8,0.4c-0.3,0.2-0.7,0.4-0.9,0.7c-0.2,0.3-0.5,0.4-0.8,0.7c-0.3,0.3-0.5,0.6-0.8,0.9
			c-0.6,0.7-1.2,1.3-1.8,2c-0.7,0.7-1.4,1.4-2.1,2.1c-1.5,1.4-3.1,2.9-4.8,4.2c-1.8,1.4-3.6,2.8-5.7,4c-2,1.2-4.2,2.3-6.6,3.2
			c-2.4,0.8-4.9,1.4-7.6,1.2l-0.2,0l-0.1,0l-0.1,0l0,0l-0.1,0l-0.4-0.1l-0.8-0.1c-0.6-0.1-1.1-0.2-1.7-0.3c-0.3-0.1-0.5-0.1-0.8-0.2
			l-0.9-0.2c-0.6-0.2-1.1-0.3-1.7-0.5c-1.1-0.3-2.2-0.7-3.2-1.1c-0.5-0.2-1-0.4-1.5-0.6c-0.5-0.2-0.9-0.5-1.4-0.7
			c-0.9-0.5-1.8-0.9-2.7-1.4c-0.8-0.5-1.6-1.1-2.3-1.6c-0.7-0.5-1.4-1.1-2-1.6c-0.6-0.5-1.2-1-1.7-1.5c-1-1-1.9-1.9-2.6-2.7
			c-1.3-1.6-2-2.6-2-2.6S158,889.1,159.6,890.4z M146.8,911.4c-0.8-1.9-1.6-3.9-2.3-6c-0.8-2-1.5-4.1-2.3-6.2
			c-0.7-2.1-1.5-4.2-2.2-6.3c-0.7-2.1-1.4-4.1-2.1-6.1c-1.3-3.9-2.5-7.6-3.5-10.8c-1-3.2-1.8-5.8-2.4-7.7c-0.6-1.9-0.9-2.9-0.9-2.9
			l2.9-0.8c0,0,0.3,1.1,0.8,3c0.5,1.9,1.2,4.6,2.1,7.8c0.9,3.2,1.9,6.9,3.1,10.9c0.6,2,1.2,4.1,1.8,6.1c0.6,2.1,1.3,4.2,1.9,6.3
			c0.7,2.1,1.4,4.2,2,6.3c0.7,2.1,1.4,4.1,2.1,6.1c0.7,2,1.3,3.9,2,5.6c0.7,1.8,1.3,3.5,1.9,5c0.6,1.6,1.1,3,1.7,4.2
			c0.5,1.2,1,2.3,1.3,3.2c0.7,1.8,1.2,2.8,1.2,2.8s-0.5-1-1.3-2.8c-0.4-0.9-0.9-1.9-1.5-3.2c-0.6-1.2-1.2-2.6-1.8-4.2
			c-0.7-1.5-1.4-3.2-2.1-4.9C148.3,915.2,147.6,913.3,146.8,911.4z"/>
		<path fill="#5B3D1F" d="M147.2,924.3c-1.4-3.9-2.6-7.9-4-11.8c-0.4-1.1-0.7-2.2-1.1-3.3c-0.1-0.2-0.2-0.3-0.2-0.5
			c-0.6-1.4-1.3-3-2-4.8c-0.3-0.9-0.7-1.8-1.1-2.7c-0.4-0.9-0.7-1.8-1.1-2.8c-0.2-0.6-0.5-1.2-0.7-1.7c0.3,1,0.6,2.1,0.9,3.2
			c1,3.4,2.1,6.9,3.2,10.2c1.2,3.4,2.4,6.7,3.7,9.6C145.4,921.2,146.2,922.7,147.2,924.3z"/>
		<path fill="#352415" d="M95.2,1111.8c-0.3,0.8-0.3,1.8-0.4,2.7c0,0.9-0.1,1.8-0.1,2.7c0,1.8,0,3.6,0.1,5.5c0,0.9,0.1,1.9,0.2,2.8
			c0,0.5,0.1,0.9,0.2,1.4l0.1,0.7l0,0.2l0,0.1c0,0.1,0-0.1,0,0.1l0,0l0.1,0.3c0.1,0.4,0.4,1,0.6,1.5c0.3,0.4,0.5,0.9,0.8,1.3
			c0.6,0.8,1.2,1.6,1.9,2.3c0.6,0.7,1.3,1.3,2,2c0.8,0.7,1.5,1.3,2.4,1.9c1.6,1.1,3.3,2.2,5.1,3c0.5,0.2,0.9,0.4,1.4,0.5
			c0.5,0.2,1,0.3,1.5,0.4l0.2,0l0.2,0l0.3,0c0.3,0,0.5,0,0.8,0c0.5,0,1,0,1.5,0c1.9-0.1,3.8-0.4,5.6-0.8c1.8-0.4,3.6-0.9,5.3-1.4
			c0.9-0.3,1.7-0.6,2.5-0.9c0.4-0.2,0.8-0.3,1.2-0.6c0.2-0.1,0.4-0.2,0.6-0.4c0.2-0.2,0.4-0.2,0.8-0.7l0.1-0.1c0-0.1,0,0,0.1-0.2
			l0-0.1l0-0.2l0.1-0.3l0.1-0.6c0.1-0.4,0.1-0.9,0.2-1.3c0.1-0.9,0.2-1.7,0.3-2.5c0.4-3.2,0.7-6.3,0.9-9.1c0.2-2.8,0.4-5.5,0.1-7.8
			c-0.2-2.3-0.6-4.4-1.4-5.9c-0.8-1.5-1.7-2.5-2.3-3.1c-0.7-0.6-1.1-0.9-1.1-0.9s0.3,0.3,1,0.9c0.6,0.6,1.4,1.7,2.1,3.1
			c0.7,1.5,0.9,3.5,1,5.8c0,0.6,0,1.2,0,1.8c0,0.6-0.1,1.2-0.1,1.9c-0.1,1.3-0.3,2.6-0.4,4c-0.3,2.8-0.7,5.9-1.2,9.1
			c-0.1,0.8-0.2,1.6-0.4,2.4c-0.1,0.4-0.1,0.8-0.2,1.2l-0.1,0.6l-0.1,0.3l0,0.1c0,0-0.1,0.1-0.2,0.1c-0.1,0.1-0.3,0.2-0.5,0.3
			c-0.4,0.2-0.7,0.3-1.1,0.5c-0.8,0.3-1.6,0.6-2.4,0.8c-3.3,1-6.9,1.8-10.5,2c-0.4,0-0.9,0-1.3,0c-0.2,0-0.4,0-0.6,0l-0.3,0l-0.1,0
			l-0.2,0c-0.4-0.1-0.8-0.2-1.2-0.3c-0.4-0.1-0.8-0.3-1.2-0.5c-1.6-0.7-3.2-1.7-4.7-2.8c-1.3-0.9-2.5-1.9-3.6-3
			c-0.2-0.2-0.4-0.4-0.6-0.6c-0.6-0.7-1.2-1.3-1.7-2.1c-0.3-0.4-0.5-0.7-0.7-1.1c-0.1-0.3-0.4-0.6-0.5-1.1l-0.2-0.3v0l0.1-0.1l0-0.2
			l-0.1-0.7c-0.1-0.4-0.1-0.9-0.2-1.3c-0.1-0.9-0.2-1.8-0.2-2.7c-0.1-1.8-0.2-3.6-0.2-5.3c0-0.9,0.1-1.7,0.1-2.6
			c0.1-0.8,0.1-1.6,0.3-2.4c0.1-0.8,0.5-1.3,1-1.7c0.3-0.3,0.8-0.5,1.2-0.7c0.2-0.1,0.5-0.2,0.7-0.3c0.7-0.2,1.5-0.4,2.3-0.7
			c0.8-0.2,1.6-0.6,2.2-0.7c0.7-0.2,1.4-0.3,2.1-0.5c0.7-0.1,1.4-0.3,2.1-0.4c5.6-0.9,10.3-1.6,13.5-2.1c3.3-0.5,5.1-0.8,5.1-0.8
			s-1.9,0.1-5.2,0.4c-1.7,0.1-3.7,0.3-6,0.5c-2.3,0.2-4.9,0.5-7.7,0.8c-0.7,0.1-1.4,0.2-2.2,0.3c-0.7,0.1-1.5,0.2-2.3,0.4
			c-0.8,0.2-1.5,0.4-2.2,0.6c-0.7,0.2-1.5,0.4-2.4,0.6c-0.1,0-0.2,0.1-0.4,0.1c-0.7,0.2-1.4,0.5-2.1,1.1
			C96,1109.8,95.3,1110.9,95.2,1111.8z"/>
		<path fill="#352415" d="M118.7,1112.4c-0.8,0.3-1.7,0.4-2.5,0.6c-0.9,0.1-1.8,0.2-2.7,0.3c-0.9,0-1.8,0-2.7,0
			c-0.9-0.1-1.8-0.1-2.6-0.3c-1.7-0.3-3.3-0.6-4.6-0.9c-2.7-0.7-4.4-1.4-4.4-1.4s0.4,0.2,1.1,0.6c0.7,0.3,1.8,0.8,3.1,1.3
			c1.3,0.5,2.9,0.9,4.6,1.3c1.7,0.3,3.6,0.5,5.5,0.4c0.9,0,1.9-0.1,2.8-0.3c0.9-0.2,1.8-0.4,2.7-0.7c0.8-0.3,1.6-0.7,2.3-1.1
			c0.7-0.4,1.4-0.8,1.9-1.3c0.6-0.4,1-0.9,1.4-1.3c0.4-0.4,0.7-0.8,1-1.1c0.5-0.7,0.7-1,0.7-1s-0.3,0.3-0.9,0.9
			c-0.3,0.3-0.7,0.6-1.1,1c-0.5,0.3-0.9,0.7-1.5,1.1c-0.6,0.4-1.2,0.7-1.9,1.1C120.3,1111.8,119.5,1112.1,118.7,1112.4z"/>
		<path fill="#472F1B" d="M222.6,546.4c0.1-1.3,0.3-2.5,0.2-3.8c-0.1-1.2-0.1-2.4-0.3-3.5c-0.2-1.1-0.5-2.1-0.7-3.1
			c-0.2-0.9-0.5-1.8-0.8-2.5c-0.3-0.7-0.6-1.4-0.8-1.9c-0.5-1-0.8-1.6-0.8-1.6l-0.3,0.1c0,0,0,0.7,0.1,1.8c0,0.6,0.1,1.2,0.2,2
			c0,0.4,0.1,0.8,0.1,1.2c0,0.4,0,0.9,0,1.3c0,0.9,0.1,1.9,0.2,3c0,1.1,0,2.2,0.1,3.3c0.1,1.1,0.1,2.3,0.1,3.5
			c0,1.2,0.1,2.5-0.1,3.7c-0.1,1.2-0.2,2.5-0.4,3.7c-0.2,1.2-0.5,2.4-0.7,3.5c-0.2,1.2-0.6,2.2-0.9,3.2c-0.3,1-0.6,2-1,2.9
			c-0.4,0.9-0.7,1.7-1,2.4c-0.1,0.4-0.3,0.7-0.4,1c-0.1,0.3-0.3,0.5-0.5,0.7c-0.3,0.4-0.7,0.5-0.9,0.5c-0.2,0-0.3-0.2-0.3-0.2
			l-0.2,0.2c0,0,0,0,0.1,0.1c0,0.1,0.2,0.2,0.4,0.2c0.4,0.1,0.9,0,1.4-0.4c0.2-0.2,0.5-0.4,0.7-0.7c0.2-0.3,0.3-0.6,0.5-1
			c0.4-0.7,0.8-1.4,1.3-2.3c0.5-0.8,0.9-1.8,1.3-2.8c0.2-0.5,0.4-1,0.7-1.6c0.2-0.5,0.5-1.1,0.6-1.7c0.3-1.2,0.7-2.4,1.1-3.6
			c0.3-1.2,0.5-2.5,0.8-3.8C222.4,549,222.5,547.7,222.6,546.4z"/>
		<path fill="#51361E" d="M245.2,525.6c-0.7-1.3-1.5-2.5-2.3-3.5c-0.8-1-1.4-1.8-1.9-2.6c-0.5-0.8-0.7-1.5-0.9-2.2
			c-0.1-0.6-0.1-1.2-0.1-1.6c0-0.4,0.1-0.6,0.1-0.6l-0.3-0.1c0,0-0.1,0.2-0.4,0.5c-0.2,0.4-0.5,1-0.5,1.8c-0.1,0.8,0,1.8,0.3,2.9
			c0.4,1.1,0.9,2.2,1.5,3.3c0.6,1.1,1.2,2.2,1.7,3.4c0.5,1.2,1,2.6,1.5,4c0.4,1.4,0.9,2.9,1.1,4.4c0.3,1.5,0.4,3.2,0.4,4.7
			c0,1.6-0.2,3.3-0.3,4.9c-0.1,1.6-0.2,3.2-0.3,4.8c-0.1,1.6-0.2,3.1-0.2,4.5c0,1.4-0.1,2.8-0.1,4c-0.1,1.2,0,2.4,0,3.4
			c0,1,0,1.9,0,2.6c0,1.5,0,2.3,0,2.3l0.3,0c0,0,0.1-0.8,0.2-2.3c0.1-1.4,0.2-3.5,0.5-6c0.1-1.2,0.3-2.6,0.4-4
			c0.1-1.4,0.4-2.9,0.5-4.4c0.2-1.5,0.4-3.1,0.6-4.8c0.2-1.6,0.5-3.2,0.6-4.9c0.1-0.9,0.1-1.8,0.1-2.7c0,0,0-0.1,0-0.1
			c-0.1-1.5-0.2-3-0.3-4.5c-0.1-1-0.3-1.9-0.6-2.9C246.6,528.4,245.9,526.9,245.2,525.6z"/>
		<path fill="#352317" d="M318.9,838.5c-0.2-3.5-0.6-7-1.1-10.5c-1-6.9-2.2-13.7-3.6-20.5c-1.2-17-2.6-33.9-4.1-50.9
			c-1.5-17-3.1-33.9-5.2-50.8c-1-8.5-2.1-16.9-3.6-25.3c-0.4-2.1-0.8-4.2-1.3-6.3c-0.5-2.1-1.1-4.2-1.8-6.2l-4.2-12.1
			c-5.6-16.1-11.4-32.1-17.4-48c-3-8-6.1-15.9-9.3-23.8c-1.6-3.9-3.3-7.9-5.1-11.7c-0.9-1.9-1.8-3.9-2.8-5.8
			c-0.1-0.2-0.2-0.3-0.3-0.5c-0.1-0.2-0.2-0.4-0.3-0.6c-0.2-0.4-0.4-0.7-0.6-1.1c-0.1-0.2-0.3-0.3-0.4-0.5c0-0.1-0.1-0.1-0.1-0.2
			c-0.3-0.5-0.6-0.9-0.9-1.4c-0.1-0.2-0.3-0.4-0.5-0.6c-0.4-0.7-0.8-1.4-1.1-2.1c-1.2-2.8-1.9-5.7-2.4-8.7c-2-12-1.4-24.3-1.6-36.5
			c-0.1-12.2-0.1-24.4-0.1-36.7c0-12.2,0.1-24.4,0.3-36.7l0.3-18.3l0.4-18.3l0.5-18.3l0.6-18.3c0.5-12.2,1-24.4,1.8-36.6
			c0.3-6.1,0.8-12.2,1.2-18.3l0.7-9.1l0.8-9.1c0.3-3,0.5-6.1,0.8-9.1l1-9.1c0.7-6.1,1.4-12.1,2.1-18.2c1.4-12.1,2.7-24.3,3.9-36.5
			c1.2-12.2,2.2-24.3,3.2-36.5l1.4-18.3l1.3-18.3l1.1-18.3l1-18.3c0.6-12.2,1.2-24.4,1.7-36.6l0.7-18.3c0.2-6.1,0.4-12.2,0.5-18.3
			c0.3-12.2,0.6-24.4,0.7-36.7l0-0.4l-0.4,0l-5.6-0.1l-3.1,0.1l-19.3-0.5l-13.5-0.4l-13.5-0.2l-27-0.4l-27-0.1c-4.5,0-9-0.1-13.5,0
			l-13.5,0l-13.5,0l-13.5,0.1l-13.5,0.1L87.8,0.6l-1,0c-8.8,0.1-17.8,0.3-26.7,0.6c-0.2,0-0.3,0-0.5,0l-2.7,0.1l1,0
			c2,67,4.3,134,7.1,201c0.7,16.8,1.2,33.5,2,50.3c0.4,8.4,0.8,16.8,1.3,25.1c0.2,4.2,0.5,8.4,0.8,12.6c0.3,4.2,0.6,8.4,1.1,12.6
			l0.2,1.6l0.3,1.6c0.1,0.5,0.2,1,0.2,1.4l0.2,1.5c0.2,2,0.4,4.1,0.6,6.2c0.3,4.1,0.6,8.3,0.9,12.5c0.5,8.3,0.9,16.7,1.2,25.1
			c0.7,16.7,1.2,33.5,1.6,50.2c0.4,16.7,0.8,33.5,1.1,50.3l0.3,25.1L77,491c0,2.1,0,4.2-0.1,6.2c0,0.5,0,1-0.1,1.5
			c0,0,0,0.3-0.1,0.6c0,0.3-0.1,0.5-0.1,0.8c-0.2,1.2-0.2,2.2-0.3,3.3c-0.2,4.3,0,8.6,0.3,12.8c0,0.5,0.1,0.9,0.1,1.4
			c0.1,0.6,0.1,1.2,0.2,1.8l0.3,3.1c0.2,2,0.3,3.9,0.1,5.9c-0.1,1-0.2,2.1-0.3,3.2l0,0.4c0-0.1,0,0.2,0,0.3c0,0.3-0.1,0.4-0.1,0.6
			c-0.1,0.4-0.2,0.9-0.4,1.4c-0.1,0.4-0.2,0.8-0.4,1.3c-0.4,1.6-0.9,3.1-1.4,4.7c-1.3,4-2.6,7.9-4,11.9c-5.5,15.8-11.2,31.6-17.4,47
			c-1.6,3.9-3.2,7.7-4.9,11.5c-1.7,3.9-3.5,7.6-5.2,11.4c-3.6,7.5-7.3,15-11.1,22.5l-5.8,11.1l-2.9,5.6c-1,1.9-2,3.6-3,5.5
			c-4.1,7.3-8.2,14.7-11.6,22.4c-3.5,7.7-6.5,15.8-8,24.3c-0.4,2.1-0.6,4.3-0.7,6.5c0,1.1-0.1,2.2,0,3.3l0,0.8c0,0.1,0,0.3,0,0.4
			l0,0.4l0.1,1.6c0.1,2.1,0.4,4.2,0.6,6.4c0.3,2.1,0.6,4.2,1,6.3c1.5,8.3,3.5,16.5,5.7,24.7c2.2,8.1,4.8,16.1,7.4,24.1
			c0.7,2,1.3,4,2.1,6c0.8,2,1.6,4,2.4,5.9c1.7,3.9,3.4,7.7,5.2,11.5c1.8,3.8,3.6,7.6,5.3,11.4c0.9,1.9,1.7,3.8,2.5,5.7
			c0.4,1,0.8,1.9,1.1,2.8c0.2,0.5,0.3,0.9,0.4,1.4c0.1,0.2,0.1,0.5,0.2,0.7l0.2,0.8c1,4.2,2.2,8.2,3.4,12.3l3.6,12.1
			c2.4,8,4.9,16,7.2,24.1l1.7,6c0.6,2,1,4,1.5,6l3,12.2l6.1,24.4l6,24.4l2.9,12.2l1.4,6.1l0.6,3c0.2,1,0.4,2,0.5,3
			c0.6,4,0.4,8.1,0.3,12.3c-0.1,4.2,0.1,8.6,0.8,12.8c0.1,0.5,0.1,1,0.3,1.6l0.3,1.5c0.2,1.1,0.5,2.2,0.8,3.2c0.4,1.6,1,3.1,1.7,4.6
			c0.2,0.5,0.5,1,0.7,1.5c0.9,1.8,1.5,3.6,2,5.6c0.2,1,0.4,2,0.5,3l0.2,1.5l0.2,1.6c0.1,1.2,0.2,2.3,0.3,3.5
			c0.7,7.2,1.2,14.3,1.7,21.5c0.6,8.4,1.1,16.7,1.6,25.1c0.2,4.2,0.5,8.4,0.6,12.5l0.2,6.3c0.1,2.1,0.2,4.3,0.4,6.4
			c0.7,8.4,1.8,16.8,3.4,25.1l0.7,3.1l0.3,1.6c0.1,0.3,0.1,0.5,0.2,0.8l0.2,0.8c0.7,2.2,1.8,4.3,3.2,6c2.9,3.5,6.9,5.9,11.1,7.2
			c4.2,1.4,8.6,1.8,12.9,1.6c4.4-0.3,8.7-1.3,12.6-3.3c4.1-2.2,7-6,8.7-10c1.8-4,2.6-8.3,3.1-12.6c0.4-4.2,0.7-8.5,0.7-12.7
			c0-0.6,0-1.2,0-1.9c0-1.5-0.1-3-0.4-4.6l-0.4-3.1l-0.3-3c-0.2-1.9-0.3-3.9-0.4-5.8c-0.1-2.2-0.2-4.4-0.2-6.6c0-2.1,0-4.2,0.1-6.2
			c0-1.1,0.1-2.1,0.1-3.2c0-1,0-2.2-0.1-3.2c-0.2-4.3-0.8-8.5-1.5-12.7l-0.6-3.1c-0.1-0.5-0.2-1.1-0.3-1.5l-0.3-1.5
			c-0.2-1-0.3-2-0.4-3l-0.3-3.1c-0.5-7.1-0.6-14.3-0.6-21.5c0-1.2,0-2.3,0-3.5c0-8.4,0.6-16.7,0.2-25.2c0-0.4,0-0.7,0-1.1
			c-0.1-3.9-0.4-7.7-0.7-11.5l-0.3-3.2l-0.3-3.2c-0.3-2.2-0.7-4.2-0.8-6.2c-0.3-4.1-0.3-8.3-0.4-12.5c0-4.2,0-8.4,0-12.5
			c0.1-8.4,0.3-16.7,0.5-25.1l0.4-12.6c0.2-4.2,0.3-8.4,0.5-12.5c0.1-1,0.2-2,0.5-2.8c0-0.1,0-0.1,0.1-0.2c0,0,0,0,0,0
			c0.1,0.1,0.1,0.2,0.2,0.2c0.1,0.1,0.2,0.3,0.3,0.4c0.1,0.2,0.2,0.4,0.2,0.6c0.2,0.6,0.5,1.2,0.7,1.7c0.4,0.9,0.7,1.8,1.1,2.8
			c0.4,0.9,0.7,1.8,1.1,2.7c0.7,1.7,1.3,3.4,2,4.8c0.1,0.2,0.2,0.3,0.2,0.5c0.4,1.1,0.8,2.2,1.1,3.3c1.3,3.9,2.6,7.9,4,11.8
			c0,0,0,0.1,0,0.1c0.3,1,0.7,2,1.1,3c0.1,0.2,0.2,0.4,0.3,0.6c0.3,0.8,0.6,1.6,1.1,2.4c0.1,0.1,0.1,0.2,0.3,0.4l0.2,0.3
			c0.1,0.2,0.3,0.4,0.5,0.7c0.4,0.5,0.8,0.8,1.2,1.2c0.8,0.7,1.7,1.4,2.7,2c3.7,2.4,7.7,4,11.7,5.3c4.1,1.3,8.2,2.3,12.5,2.7
			c1.1,0.1,2.2,0.2,3.3,0.1c0.3,0,0.5,0,0.8,0c0.3,0,0.6,0,0.9,0c0.5,0,1.1-0.1,1.6-0.2c2.2-0.3,4.3-0.8,6.3-1.5
			c0.9-0.3,1.8-0.7,2.7-1c3.1-1.3,6-3,8.6-5.4c1.6-1.5,3-3.4,3.7-5.6c0.2-0.6,0.3-1.1,0.4-1.6l0.4-1.5l0.7-3.1l2.9-12.2l5.5-23.4
			c3,0.9,6,1.7,9,2.4c3.4,0.8,6.8,1.5,10.4,2c1.8,0.2,3.6,0.4,5.4,0.2c1.8-0.2,3.6-0.6,5.3-1.1c3.4-1,6.7-2.4,9.8-4.1
			c1.6-0.8,3.1-1.8,4.5-2.8c1.4-1.1,2.9-2.2,4-3.9c0.3-0.4,0.5-0.9,0.7-1.4c0-0.1,0.1-0.3,0.1-0.4c0,0,0-0.2,0.1-0.2
			c0-0.1,0.1-0.2,0.1-0.3c0.2-0.4,0.7-0.6,1.4-0.6c1.5,0,3.1,0.5,4.7,1c3.3,1,6.5,2.3,10,3.1c0.4,0.1,0.8,0.2,1.3,0.3l1.3,0.2
			l1.4,0.1l1.4,0.1c1.8,0,3.7-0.2,5.4-0.7c3.5-1,6.7-2.9,9.5-5c0.7-0.6,1.4-1.1,2.1-1.7l1-0.9c0.3-0.3,0.6-0.6,1-0.9
			c1.3-1.3,2.4-2.7,3.4-4.2c2-3,3.5-6.2,4.8-9.5c1.3-3.3,2.3-6.7,3-10.1c0.4-1.7,0.7-3.5,0.9-5.2l0.1-0.7l0.1-0.6
			c0-0.4,0-0.9,0.1-1.4C319,840.3,318.9,839.4,318.9,838.5z M141.2,899.8c-0.4-1-0.8-2-1.3-2.9c-0.5-1-1-1.9-1.7-2.9
			c-0.2-0.2-0.3-0.4-0.6-0.6c-0.2-0.4-0.4-0.8-0.7-1.1c-0.3-0.4-0.5-0.8-0.8-1.2l-0.2-0.3l-0.2-0.3c-0.1-0.1-0.1-0.2-0.2-0.3
			c-0.1-0.1-0.1-0.2-0.2-0.3c-0.6-0.7-1.2-1.3-1.7-1.8c-1.2-1.1-2.3-1.7-3.2-2c-0.4-0.2-0.8-0.2-1-0.3c-0.2,0-0.4-0.1-0.4-0.1
			s0.5,0.2,1.2,0.7c0.7,0.5,1.6,1.3,2.5,2.5c0.4,0.6,0.9,1.2,1.4,1.9c0.1,0.2,0.2,0.4,0.4,0.5l0.2,0.2l0.2,0.3
			c0.2,0.3,0.4,0.6,0.6,1c0,0,0,0,0,0c-0.2,0.1-0.4,0.3-0.5,0.5c-0.1,0.2-0.2,0.3-0.3,0.5c-0.2,0.3-0.3,0.7-0.4,1
			c-0.3,1.2-0.5,2.3-0.6,3.3c-0.3,4.3-0.4,8.4-0.5,12.6l-0.4,12.6c-0.2,8.4-0.4,16.8-0.5,25.2c-0.1,4.2-0.1,8.4-0.1,12.6
			c0,4.2,0.1,8.4,0.3,12.6c0.1,2.2,0.5,4.3,0.8,6.3l0.3,3.1l0.3,3.1c0.3,4.2,0.6,8.3,0.7,12.5c0.3,8.3-0.2,16.7-0.2,25.1
			c-0.1,8.4-0.1,16.8,0.5,25.2l0.3,3.2c0.1,1.1,0.2,2.2,0.4,3.2l0.3,1.5c0.1,0.6,0.2,1,0.3,1.6l0.6,3.1c0.7,4.1,1.3,8.2,1.5,12.3
			c0,1,0.1,2,0.1,3.1c0,1,0,2.1-0.1,3.1c-0.1,2.1-0.1,4.2-0.1,6.4c0,4.2,0.2,8.4,0.5,12.7c0.1,1.1,0.2,2.1,0.3,3.2l0.4,3.1
			c0.3,2,0.3,4,0.4,6.1c0,4.1-0.3,8.2-0.7,12.4c-0.4,4.1-1.3,8.1-2.9,11.7c-1.6,3.6-4.1,6.8-7.5,8.6c-7.1,3.5-15.8,4-23.4,1.5
			c-2.2-0.7-4.4-1.8-6.3-3.1c-1.3-0.9-2.5-2-3.4-3.2c-1.2-1.5-2.1-3.2-2.7-5l-0.2-0.8c0-0.1-0.1-0.5-0.2-0.7l-0.3-1.5l-0.7-3
			c-1.6-8.1-2.7-16.4-3.3-24.7c-0.2-2.1-0.3-4.1-0.4-6.2l-0.2-6.3c-0.2-4.2-0.4-8.4-0.6-12.6c-0.5-8.4-1-16.7-1.5-25.1l-0.9-12.6
			c-0.3-4.2-0.7-8.4-1.1-12.6l-0.2-1.6l-0.2-1.6c-0.2-1.1-0.3-2.1-0.6-3.2c-0.4-2.1-1.2-4.3-2.2-6.3c-2-3.7-2.8-7.4-3.4-11.5
			c-0.6-4.1-0.8-8.1-0.7-12.3c0.1-4.1,0.3-8.5-0.3-12.8c-0.2-1.1-0.4-2.2-0.6-3.2l-0.7-3.1l-1.4-6.2L70,954.6l-6-24.4l-6.1-24.4
			l-3-12.2c-0.5-2-1-4.1-1.5-6.2l-1.7-6.1c-2.3-8.1-4.8-16.1-7.2-24.1l-3.6-12c-1.1-4-2.4-8.1-3.3-12l-0.2-0.8
			c-0.1-0.3-0.1-0.6-0.2-0.9c-0.2-0.6-0.3-1.1-0.5-1.6c-0.4-1-0.8-2-1.2-3c-0.8-2-1.7-3.9-2.5-5.8c-0.3-0.6-0.6-1.2-0.8-1.8
			c-0.1-0.7-0.3-1.4-0.4-2.2c-0.4-2.1-0.7-4.6-1.1-7.2c-0.3-2.7-0.6-5.5-0.8-8.6c-0.3-3-0.3-6.3-0.5-9.6c-0.1-3.3-0.2-6.8-0.2-10.3
			c-0.1-3.5,0-7.1,0-10.7c0.1-3.6,0.1-7.2,0.2-10.7c0-1.8,0.1-3.5,0.1-5.3c0-1.8,0-3.4,0.1-5.1c0.1-1.6,0.2-3.3,0.3-4.9
			c0.1-1.6,0.2-3.2,0.4-4.7c0.2-1.5,0.3-3,0.5-4.4c0.2-1.4,0.3-2.8,0.5-4.2c0.2-1.3,0.3-2.6,0.5-3.9c0.1-1.2,0.3-2.4,0.4-3.5
			c0.3-2.2,0.4-4.1,0.6-5.7c0.2-1.6,0.2-2.9,0.2-3.7c0-0.9,0.1-1.3,0.1-1.3l-0.4-0.1c0,0-0.4,1.8-1,4.9c-0.7,3.1-1.7,7.5-2.8,12.8
			c-1.1,5.3-2.3,11.6-2.9,18.4c-0.3,3.4-0.4,6.9-0.6,10.5c-0.1,3.6-0.3,7.2-0.3,10.8c-0.1,7.2,0.1,14.5,0.6,21.3
			c0.5,6.8,1.4,13.1,2.5,18.4c0.1,0.5,0.2,0.9,0.3,1.3c-0.3-0.6-0.6-1.3-0.9-1.9c-1.8-3.8-3.5-7.6-5.1-11.4
			c-0.8-1.9-1.6-3.8-2.3-5.7c-0.7-1.9-1.4-3.9-2-5.9c-2.6-7.9-5.1-15.9-7.3-24c-2.2-8-4.2-16.1-5.6-24.3c-0.4-2-0.6-4.1-0.9-6.1
			c-0.2-2-0.5-4-0.6-6.1l-0.1-1.6l0-0.4c0-0.1,0-0.2,0-0.3l0-0.7c0-1,0-2,0-3c0.1-2,0.4-4,0.7-6c1.4-8,4.3-15.8,7.8-23.4
			c3.4-7.6,7.4-14.8,11.5-22.2c1-1.8,2.1-3.7,3-5.6l2.9-5.6l5.8-11.2c3.8-7.5,7.6-15,11.2-22.6c1.8-3.8,3.6-7.6,5.3-11.5
			c1.7-3.8,3.4-7.7,5-11.6c6.3-15.6,12.1-31.3,17.6-47.2c1.4-4,2.7-8,4-12c0.6-2,1.3-4,1.8-6.1c0.1-0.5,0.3-1,0.4-1.6
			c0.1-0.3,0.2-0.7,0.2-1c0-0.2,0-0.1,0.1-0.5l0-0.4c0.1-1,0.2-2,0.3-3.1c0.2-2.2,0.1-4.5-0.1-6.6L81,519c-0.1-1-0.2-2.1-0.3-3.1
			c-0.3-4.1-0.5-8.2-0.3-12.3c0.1-1,0.1-2,0.3-2.9c0-0.2,0.1-0.5,0.1-0.8c0-0.3,0.1-0.5,0.1-1c0-0.6,0.1-1.1,0.1-1.7
			c0.1-2.1,0.1-4.2,0.1-6.3l0-12.6l-0.3-25.2c-0.3-16.8-0.6-33.5-1-50.3c-0.4-16.8-0.9-33.5-1.5-50.3c-0.3-8.4-0.7-16.8-1.1-25.2
			c-0.2-4.2-0.5-8.4-0.8-12.6c-0.2-2.1-0.4-4.2-0.6-6.3l-0.2-1.6c-0.1-0.6-0.2-1.2-0.3-1.7l-0.3-1.5l-0.2-1.5
			c-0.5-4.1-0.8-8.2-1.1-12.4c-0.3-4.2-0.5-8.3-0.8-12.5c-0.5-8.4-0.9-16.7-1.3-25.1c-0.8-16.7-1.5-33.5-2.2-50.2
			c-2.7-67-4.9-134-7-201c8.2-0.2,16.3-0.4,24.5-0.5l1.3,0l12.2-0.2l13.5-0.1l13.5-0.1l13.5,0l13.5,0c4.5,0,9,0,13.5,0.1l27,0.2
			l27,0.5l13.5,0.2l13.5,0.4l26.8,0.8l-0.6,25.3c-0.1,4.3-0.3,8.5-0.4,12.8l-0.5,12.8c-0.2,4.3-0.3,8.5-0.5,12.8L273,78.7
			c-0.5,8.5-0.8,17-1.4,25.5l-1.7,25.5l-2,25.5l-1,12.7l-1.1,12.7l-1.1,12.7c-0.4,4.2-0.8,8.5-1.2,12.7l-2.6,25.4
			c-0.9,8.5-2,16.9-2.9,25.4l-1.5,12.7l-1.4,12.7c-0.5,4.2-0.8,8.5-1.2,12.7c-0.4,4.2-0.8,8.5-1.1,12.7c-0.6,8.5-1.3,17-1.7,25.5
			c-0.2,4.3-0.5,8.5-0.7,12.8l-0.6,12.8c-0.4,8.5-0.7,17-1,25.5c-0.2,8.5-0.5,17-0.7,25.5c-0.4,17-0.6,34-0.8,51.1
			c-0.1,17-0.1,34.1,0,51.1l0.1,12.8c0,2.8,0.1,5.6,0.3,8.3c0.1,1.5,0.2,3,0.3,4.5c0,0,0,0.1,0,0.1c0.4,4.2,0.9,8.4,1.9,12.6
			c0.5,2.1,1.1,4.2,1.9,6.2c0.8,2,1.8,4,3.2,5.8l0.5,0.6c0.2,0.2,0.3,0.4,0.5,0.6c0.3,0.4,0.6,0.8,0.9,1.3c0.5,0.9,1.1,1.8,1.5,2.7
			c1,1.9,1.9,3.8,2.8,5.7c1.8,3.9,3.4,7.8,5,11.7c3.2,7.9,6.3,15.8,9.3,23.8c6,15.9,11.7,31.9,17.3,48l4.1,12.1
			c1.4,4,2.2,8.1,3,12.3c1.5,8.4,2.5,16.8,3.5,25.2c2,16.9,3.6,33.8,5.1,50.8c1.5,17,2.8,33.9,4,50.9l0,0.1l0,0.1
			c1.4,6.8,2.6,13.6,3.6,20.5c0.5,3.4,0.9,6.9,1,10.3c0,0.9,0.1,1.7,0,2.5c0,0.4,0,0.8-0.1,1.2l-0.1,0.6l-0.1,0.6
			c-0.2,1.7-0.5,3.4-0.9,5c-0.1,0.6-0.3,1.1-0.4,1.7c-0.7,2.8-1.5,5.5-2.6,8.1c-1.2,3.2-2.7,6.3-4.6,9.1c-0.9,1.4-2,2.7-3.1,3.9
			c-0.3,0.3-0.6,0.6-0.9,0.9l-1,0.8c-0.6,0.6-1.3,1.1-2,1.6c-2.7,2-5.6,3.8-8.8,4.7c-1.6,0.4-3.2,0.6-4.9,0.6l-1.2-0.1l-1.2-0.1
			l-1.3-0.2c-0.4-0.1-0.8-0.2-1.2-0.3c-3.3-0.8-6.5-2-9.9-3.1c-1.7-0.5-3.4-1.1-5.4-1.1c-0.5,0-1.1,0.1-1.6,0.3
			c-0.6,0.2-1.1,0.7-1.5,1.2c-0.2,0.3-0.3,0.5-0.4,0.9c-0.1,0.2-0.1,0.2-0.1,0.4c0,0.1,0,0.1-0.1,0.2c-0.1,0.3-0.3,0.6-0.5,0.9
			c-0.8,1.2-2.2,2.3-3.5,3.3c-1.4,1-2.8,1.9-4.3,2.7c-3,1.6-6.2,3-9.4,3.9c-1.6,0.5-3.3,0.9-4.9,1c-1.6,0.2-3.3,0-5-0.2
			c-3.4-0.4-6.8-1.1-10.1-2c-3.3-0.8-6.7-1.7-10-2.7l-1.1-0.3l-0.3,1.1l-5.8,24.5l-1.7,7.1l-1.2,5.2l-0.7,3.1l-0.4,1.5
			c-0.1,0.5-0.2,1-0.4,1.4c-0.6,1.8-1.8,3.4-3.2,4.7c-2.1,2-4.6,3.5-7.3,4.7c-1,0.5-2.1,0.9-3.1,1.2c-1.9,0.6-3.9,1.1-5.9,1.4
			c-2,0.3-4,0.3-6,0.1c-4.1-0.4-8.1-1.3-12-2.6c-3.9-1.3-7.8-2.9-11.1-5c-1.7-1.1-3.2-2.4-4.2-3.8c-0.4-0.8-0.8-1.8-1.2-2.7
			c-0.4-1-0.7-1.9-1.1-2.9c-1.4-3.9-2.6-7.9-4-11.9C144.1,907.8,142.8,903.8,141.2,899.8z"/>
		<path fill="#352317" d="M26.2,723.7c-0.1,0.4-0.2,0.9-0.3,1.3c-0.1,0.5-0.2,1-0.3,1.6c-0.2,1.1-0.3,2.3-0.5,3.4
			c-0.1,1.2-0.1,2.3-0.1,3.4c0,0.5-0.1,1.1,0,1.5c0,0.5,0.1,1,0.1,1.4c0.1,1.7,0.2,2.8,0.2,2.8s0.1-1.1,0.2-2.8
			c0-0.4,0.1-0.9,0.1-1.4c0-0.5,0.2-1,0.3-1.5c0.2-1,0.4-2.1,0.7-3.2c0.3-1.1,0.7-2.1,1-3.1c0.2-0.5,0.3-1,0.5-1.4
			c0.2-0.4,0.4-0.9,0.6-1.3c0.7-1.6,1.1-2.6,1.1-2.6l-2.8-1C26.9,720.9,26.6,722.1,26.2,723.7z"/>
		<path fill="#51361E" d="M121.3,1078.6c-0.2-0.1-0.5-0.1-0.8-0.2c-0.3-0.1-0.6-0.1-0.9-0.2c-0.6-0.1-1.3-0.2-2-0.3
			c-0.7-0.1-1.4-0.1-2.2-0.2c-0.8-0.1-1.6-0.1-2.4-0.1c-0.8,0-1.6,0-2.4,0c-0.8,0.1-1.6,0.2-2.4,0.3c-0.8,0.1-1.6,0.3-2.3,0.4
			c-0.7,0.2-1.5,0.3-2.2,0.5c-0.7,0.2-1.3,0.4-1.9,0.6c-0.3,0.1-0.6,0.2-0.8,0.3c-0.3,0.1-0.5,0.2-0.7,0.3c-0.5,0.2-0.9,0.4-1.2,0.5
			c-0.7,0.3-1,0.4-1,0.4l0.1,0.2c0,0,0.4,0,1.2-0.1c0.4-0.1,0.8-0.1,1.3-0.2c0.5-0.1,1-0.2,1.6-0.3c0.6-0.1,1.2-0.2,1.9-0.3
			c0.7-0.1,1.4-0.1,2.1-0.3c0.7-0.1,1.5-0.2,2.2-0.2c0.8-0.1,1.5-0.1,2.3-0.2c0.8,0,1.5-0.1,2.3-0.1c0.8-0.1,1.5-0.1,2.2-0.1
			c0.7,0,1.5-0.1,2.1,0c0.7,0,1.3,0,1.9,0c0.6,0,1.2,0,1.7,0c0.5,0,1,0,1.3,0c0.7,0,1.2,0,1.2,0l0.1-0.2c0,0-0.4-0.1-1.1-0.3
			C122.2,1078.8,121.8,1078.7,121.3,1078.6z"/>
		<path fill="#51361E" d="M95.4,1085.1c0.3,0.1,0.6,0.1,0.9,0.2c4.9,1,9.9,1.5,14.8,1.5c3.9,0,7.9-0.3,11.8-0.9l-0.2-1
			c-8.9,1.4-17.8,1.2-26.6-0.6c-0.2,0-0.4-0.1-0.5-0.1L95.4,1085.1z"/>
		<path fill="#51361E" d="M96.8,1090.1c0,0,0.1,0,0.3,0.1c0.2,0.1,0.4,0.2,0.7,0.3c0.7,0.2,1.5,0.7,2.7,1c0.6,0.2,1.2,0.4,1.8,0.6
			c0.6,0.2,1.4,0.4,2.1,0.5c0.7,0.2,1.5,0.4,2.2,0.5c0.8,0.1,1.5,0.3,2.3,0.4c0.8,0.1,1.6,0.2,2.3,0.3c0.8,0.1,1.5,0.1,2.3,0.2
			c0.7,0,1.5,0.1,2.1,0.1c0.7,0,1.3,0,1.9,0c1.2,0,2.2-0.1,2.9-0.2c0.7-0.1,1.1-0.1,1.1-0.1l0-0.1c0,0-0.4,0-1.1-0.1
			c-0.7,0-1.7-0.1-2.9-0.2c-0.6,0-1.2-0.1-1.9-0.1c-0.7,0-1.4-0.2-2.1-0.2c-0.7-0.1-1.5-0.1-2.2-0.2c-0.8-0.1-1.5-0.2-2.3-0.3
			c-0.8-0.1-1.5-0.2-2.3-0.4c-0.8-0.1-1.5-0.3-2.2-0.4c-0.7-0.2-1.4-0.2-2.1-0.4c-0.7-0.2-1.3-0.3-1.8-0.4c-1.1-0.2-2.1-0.5-2.8-0.7
			c-0.4-0.1-0.6-0.1-0.8-0.2C96.9,1090,96.8,1090,96.8,1090.1L96.8,1090.1z"/>
		<path fill="#51361E" d="M122.7,1003.2c-0.3,0.1-0.6,0.3-1,0.4c-0.3,0.1-0.7,0.2-1.1,0.4c-0.8,0.2-1.6,0.5-2.4,0.8
			c-0.4,0.2-0.9,0.3-1.3,0.4c-0.5,0.1-0.9,0.2-1.4,0.3c-0.9,0.2-1.9,0.5-2.9,0.6c-1,0.2-2,0.3-3.1,0.5c-1,0.1-2.1,0.2-3.1,0.2
			c-1,0.1-2,0.1-3,0.1c-0.5,0-1,0-1.4,0c-0.5,0-0.9,0-1.4-0.1c-0.9-0.1-1.7-0.2-2.5-0.2c-0.4,0-0.8-0.1-1.1-0.1
			c-0.4-0.1-0.7-0.1-1-0.2c-0.6-0.1-1.2-0.2-1.7-0.3c-0.9-0.1-1.5-0.2-1.5-0.2s0.5,0.2,1.4,0.6c0.4,0.2,1,0.4,1.6,0.6
			c0.3,0.1,0.6,0.2,1,0.4c0.4,0.1,0.7,0.2,1.1,0.3c0.8,0.2,1.7,0.4,2.6,0.6c0.9,0.2,1.9,0.2,2.9,0.3c1,0.1,2.1,0.2,3.1,0.1
			c1.1-0.1,2.2-0.1,3.3-0.2c1.1-0.2,2.1-0.4,3.2-0.6c1.1-0.1,2.1-0.5,3-0.8c0.5-0.2,1-0.3,1.4-0.5c0.5-0.2,0.9-0.3,1.3-0.5
			c0.9-0.4,1.7-0.8,2.4-1.2c0.4-0.2,0.7-0.3,1-0.5c0.3-0.2,0.6-0.4,0.9-0.6c0.5-0.4,1-0.7,1.4-1c0.8-0.5,1.2-0.9,1.2-0.9
			s-0.5,0.2-1.4,0.5C123.8,1002.8,123.3,1003,122.7,1003.2z"/>
		<path fill="#51361E" d="M117.5,996.3l0.2-1c-8.9-1.6-18.2-0.4-26.4,3.5l0.4,0.9C99.7,996,108.8,994.8,117.5,996.3z"/>
		<path fill="#352317" d="M153,926.1c0.6,1.2,1.1,2.3,1.5,3.2c0.8,1.8,1.3,2.8,1.3,2.8s-0.4-1-1.2-2.8c-0.4-0.9-0.8-2-1.3-3.2
			c-0.5-1.2-1.1-2.7-1.7-4.2c-0.6-1.6-1.2-3.2-1.9-5c-0.7-1.8-1.3-3.7-2-5.6c-0.7-2-1.4-4-2.1-6.1c-0.7-2.1-1.4-4.2-2-6.3
			c-0.6-2.1-1.3-4.2-1.9-6.3c-0.7-2.1-1.2-4.1-1.8-6.1c-1.2-4-2.2-7.7-3.1-10.9c-0.9-3.2-1.6-5.9-2.1-7.8c-0.5-1.9-0.8-3-0.8-3
			l-2.9,0.8c0,0,0.3,1.1,0.9,2.9c0.6,1.9,1.3,4.5,2.4,7.7c1,3.2,2.2,6.9,3.5,10.8c0.7,2,1.3,4,2.1,6.1c0.7,2.1,1.5,4.2,2.2,6.3
			c0.8,2.1,1.6,4.2,2.3,6.2c0.7,2.1,1.5,4.1,2.3,6c0.8,1.9,1.5,3.8,2.2,5.6c0.8,1.8,1.5,3.4,2.1,4.9
			C151.8,923.5,152.4,924.9,153,926.1z"/>
		<path fill="#47301C" d="M67.3,871.8c0,0,3.1,0,7.6-0.2c1.1,0,2.2-0.1,3.5-0.2c0.1,0,0.1,0,0.2,0c1.3-0.1,2.7,0,4.1-0.1
			c1.4,0,2.9,0,4.4-0.1c1.5-0.1,3-0.1,4.5-0.2c1.5,0,3,0,4.5,0c1.5,0,3,0,4.4,0c1.4,0,2.8-0.1,4.1,0c1.3,0,2.5,0.1,3.7,0.1
			c4.6,0.1,7.6-0.1,7.6-0.1s-3-0.5-7.6-1.1c-1.1-0.1-2.4-0.3-3.7-0.4c-1.3-0.2-2.7-0.2-4.1-0.2c-1.4,0-2.9-0.1-4.4-0.1
			c-1.5,0-3-0.1-4.6-0.1c-1.5,0.1-3.1,0.2-4.6,0.2c-1.5,0.1-3,0.2-4.4,0.3c-1.4,0.1-2.8,0.2-4.1,0.4c-0.1,0-0.2,0-0.4,0.1
			c-1.2,0.2-2.3,0.3-3.3,0.5C70.3,871.1,67.3,871.8,67.3,871.8z"/>
		<path fill="#5B3D1F" d="M89,881c0.9-0.1,1.9-0.2,2.9-0.3c1-0.1,2-0.3,3-0.4c1-0.1,2-0.3,3-0.4c1-0.1,1.9-0.3,2.9-0.5
			c0.9-0.2,1.8-0.4,2.7-0.6c0.9-0.2,1.7-0.3,2.4-0.5c3-0.7,5-1.4,5-1.4l0-0.2c0,0-2,0.2-5,0.4c-0.8,0.1-1.6,0.1-2.4,0.2
			c-0.9,0.1-1.8,0.2-2.7,0.3c-1.9,0.2-3.9,0.5-5.9,0.7c-2,0.3-4,0.7-5.9,1c-0.9,0.2-1.8,0.3-2.7,0.5c-0.9,0.2-1.7,0.3-2.4,0.5
			c-3,0.6-5,1-5,1l0,0.2c0,0,2.1,0.2,5.2-0.1c0.8,0,1.6-0.1,2.4-0.2C87.1,881.1,88,881.1,89,881z"/>
		<path fill="#352317" d="M238.2,886.5c0.3,0.2,0.7,0.4,1.1,0.6c0.4,0.2,0.9,0.3,1.3,0.5c0.5,0.2,1,0.2,1.6,0.3c0.6,0,1.1,0.1,1.7,0
			c0.6,0,1.2-0.1,1.8-0.2c0.6-0.2,1.2-0.3,1.7-0.5c0.6-0.2,1.1-0.5,1.6-0.8c0.5-0.3,0.9-0.6,1.3-0.9c0.4-0.3,0.7-0.7,1-1
			c0.3-0.3,0.5-0.7,0.7-1c0.2-0.3,0.4-0.6,0.5-0.8c0.2-0.5,0.3-0.7,0.3-0.7s-0.2,0.2-0.6,0.5c-0.2,0.2-0.4,0.3-0.7,0.5
			c-0.3,0.2-0.6,0.4-0.9,0.6c-0.3,0.2-0.7,0.4-1.1,0.6c-0.4,0.2-0.8,0.4-1.3,0.6c-0.5,0.2-0.9,0.4-1.4,0.5c-0.5,0.2-1,0.3-1.5,0.4
			c-0.5,0.1-1,0.2-1.5,0.2c-0.5,0.1-1,0.1-1.5,0.1c-0.5,0-1,0-1.4,0c-0.4,0-0.9,0-1.3-0.1c-0.4,0-0.8-0.1-1.1-0.2
			c-0.3-0.1-0.6-0.1-0.9-0.2c-0.5-0.1-0.8-0.2-0.8-0.2s0.2,0.2,0.6,0.5C237.7,886.2,237.9,886.4,238.2,886.5z"/>
		<path fill="#47301D" d="M161.6,893.7c0.5,0.5,1.1,1,1.7,1.5c0.6,0.5,1.3,1.1,2,1.6c0.8,0.5,1.5,1,2.3,1.6c0.8,0.6,1.7,0.9,2.7,1.4
			c0.5,0.2,0.9,0.5,1.4,0.7c0.5,0.2,1,0.4,1.5,0.6c1,0.4,2,0.8,3.2,1.1c0.6,0.2,1.1,0.3,1.7,0.5l0.9,0.2c0.3,0.1,0.6,0.1,0.8,0.2
			c0.6,0.1,1.1,0.2,1.7,0.3l0.8,0.1l0.4,0.1l0.1,0l0,0l0.1,0l0.1,0l0.2,0c2.7,0.2,5.2-0.4,7.6-1.2c2.3-0.9,4.5-2,6.6-3.2
			c2-1.2,3.9-2.6,5.7-4c1.8-1.4,3.4-2.8,4.8-4.2c0.7-0.7,1.4-1.4,2.1-2.1c0.6-0.7,1.3-1.4,1.8-2c0.3-0.3,0.6-0.6,0.8-0.9
			c0.3-0.3,0.5-0.5,0.8-0.7c0.3-0.2,0.6-0.4,0.9-0.7c0.2-0.1,0.5-0.2,0.8-0.4c1.2-0.4,2.4-0.3,3.3,0c0.2,0,0.4,0.1,0.6,0.2
			c0.2,0.1,0.4,0.1,0.6,0.2c0.3,0.2,0.6,0.3,0.8,0.5c0.4,0.4,0.6,0.6,0.6,0.6s-0.2-0.2-0.5-0.7c-0.1-0.2-0.4-0.5-0.7-0.8
			c-0.3-0.3-0.7-0.6-1.2-0.8c-0.9-0.5-2.3-0.9-3.9-0.7c-0.2,0-0.4,0.1-0.6,0.1l-0.3,0.1l-0.2,0l0,0l-0.1,0l-0.1,0
			c-0.3,0.2-0.7,0.3-1.1,0.5c-0.4,0.2-0.8,0.5-1.2,0.8c-0.3,0.3-0.7,0.6-1,0.8c-0.7,0.6-1.4,1.1-2.1,1.7c-0.7,0.6-1.5,1.2-2.2,1.8
			c-1.6,1.2-3.2,2.5-5,3.7c-1.8,1.2-3.6,2.5-5.5,3.5c-1.9,1.1-3.9,2.2-6,2.9c-2,0.7-4.1,1.3-6,1.3h-0.2h-0.1h0h0
			c0,0-0.1-0.2,0.1-0.2l-0.4-0.3l-0.8-0.1c-0.6-0.1-1.1-0.1-1.7-0.2c-0.3,0-0.6-0.1-0.8-0.1l-0.8-0.2c-0.5-0.1-1-0.2-1.5-0.3
			c-1-0.2-2-0.5-2.9-0.8c-0.5-0.1-1-0.3-1.4-0.4c-0.5-0.2-0.9-0.4-1.4-0.5c-0.9-0.4-1.8-0.7-2.6-1.1c-0.8-0.4-1.6-0.8-2.4-1.1
			c-0.8-0.4-1.4-0.8-2.1-1.2c-0.7-0.4-1.4-0.7-1.9-1.2c-1.1-0.8-2.2-1.5-3-2.1c-1.6-1.3-2.5-2-2.5-2s0.7,0.9,2,2.6
			C159.7,891.8,160.6,892.6,161.6,893.7z"/>
	</g>
</g>
</svg>
