<?xml version="1.0" encoding="utf-8"?>
<!-- Generator: Adobe Illustrator 18.1.1, SVG Export Plug-In . SVG Version: 6.00 Build 0)  -->
<!DOCTYPE svg PUBLIC "-//W3C//DTD SVG 1.1//EN" "http://www.w3.org/Graphics/SVG/1.1/DTD/svg11.dtd">
<svg version="1.1" id="Layer_1" xmlns="http://www.w3.org/2000/svg" xmlns:xlink="http://www.w3.org/1999/xlink" x="0px" y="0px"
	 viewBox="0 0 260.7 736.7" enable-background="new 0 0 260.7 736.7" xml:space="preserve">
<g>
	<path fill="#565656" stroke="#565656" stroke-width="9.375000e-002" stroke-miterlimit="10" d="M248.9,291.4
		c-18.9,45.4-59.5,77-100.5,101.6c-36.2,25.3-74.9,60.9-73.4,108.9c4.2,46.4,26.7,89.7,54.9,126.2c26.1,27.7,60.9,44.7,96.9,55.7
		c8.4,20.1-4.4,52.2-29,52.8C127.3,722,73,666.2,38.4,605.6C10.9,552.9-6.9,488.3,16.9,430.9c22.9-53.7,73.3-87.1,120.9-117
		c25.6-15.3,41.3-42.4,45.2-71.6c9.9-34.4,1.2-71.6-21.1-99.1C134.8,106.1,91,85.1,47.7,73.4C17.2,54.5,40.2,1.2,75.3,7.3
		c31.4,10.7,64,21,89.8,43.5c36.6,29.6,69,66.1,86.6,110.2C266.5,203.3,261.4,249.3,248.9,291.4 M237.2,301.9
		c17.1-36.2,19.5-78,14.7-117.2c-11.3-54.3-51.1-97-92.3-131.5c-22.9-18.7-50-31.4-78.4-39c2,6.6,3,13.5,4.4,20.3
		c-2.8,14.2-8.2,29.3-21.3,36.9c48.1,14.5,98.4,42.1,116.9,91.8c22.1,36.9,10.9,81.9-5.5,118.3c-15.4,30.5-50,41.9-73.9,64.2
		c-27,19.8-54.7,40.8-70,71.6c-20,29.3-23.1,66.6-16.7,100.7c16.9,94,82.3,183.1,175.5,212.2c11.1,6.1,21.8-3.9,26.2-13.6
		c6.9-7.4,5.2-19.3,6.2-28.8c-29.8-10-60.2-21.5-83.2-43.6c-36.1-35.1-62.3-82.3-68.5-132.5c-0.4-0.4-1.5-1-2.1-1.4
		c-2.7-34.4,14.2-67.9,38.7-91C151,380.5,207.6,354.2,237.2,301.9 M82.6,31.5c-0.7-7-1.5-17.2-10-18.5C45.3,9.6,26.9,50.4,47.5,68.1
		C68.1,74,83,49.5,82.6,31.5L82.6,31.5z"/>
	<path fill="#D4D4D4" stroke="#D4D4D4" stroke-width="9.375000e-002" stroke-miterlimit="10" d="M237.2,301.9
		c17.1-36.2,19.5-78,14.7-117.2c-11.3-54.3-51.1-97-92.3-131.5c-22.9-18.7-50-31.4-78.4-39c2,6.6,3,13.5,4.4,20.3
		c0.2,0.7,0.5,2.1,0.7,2.6C139,61.4,190.5,97.7,215.6,151.9c6.9,24.5,14.9,49.1,14.6,74.8c2.2,35.1-18.7,65.5-37.8,92.7
		c-14.3,15.6-27.6,32.6-45.8,44c-24.2,13-47.2,28.6-67.1,47.6C40,453,33.4,519.8,59.4,570.3c8.5,18.3,12.8,38.8,26.3,54.3
		c34.7,40.6,77,81,131,92.1c6.9-7.4,5.2-19.3,6.2-28.8c-29.8-10-60.2-21.5-83.2-43.6c-36.1-35.1-62.3-82.3-68.5-132.5
		c-0.4-0.4-1.5-1-2.1-1.4c-2.7-34.4,14.2-67.9,38.7-91C151,380.5,207.6,354.2,237.2,301.9L237.2,301.9z"/>
	<path fill="#C5C5C5" d="M230.2,226.8c0.4-25.7-7.7-50.4-14.6-74.8C190.5,97.7,139,61.4,86.3,37.2c-0.2-0.6-0.5-2-0.7-2.6
		c-2.8,14.2-8.2,29.3-21.3,36.9c48.1,14.5,98.4,42.1,116.9,91.8c22.1,36.9,10.9,81.9-5.5,118.3c-15.4,30.5-50,41.9-73.9,64.2
		c-27,19.8-54.7,40.8-70,71.6c-20,29.3-23.1,66.6-16.7,100.7c16.9,94,82.3,183.1,175.5,212.2c11.1,6.1,21.8-3.9,26.2-13.6
		c-54-11.1-96.3-51.5-131-92.1c-13.5-15.5-17.8-36.1-26.3-54.3c-26-50.4-19.4-117.3,20-159.1c19.9-19,42.9-34.7,67.1-47.6
		c18.3-11.4,31.5-28.5,45.8-44C211.5,292.2,232.4,261.8,230.2,226.8L230.2,226.8z"/>
	<path fill="#8F8F8F" stroke="#8F8F8F" stroke-width="9.375000e-002" stroke-miterlimit="10" d="M82.6,31.5
		C83,49.5,68.1,74,47.5,68.1C26.9,50.4,45.3,9.6,72.6,13C81.1,14.2,82,24.5,82.6,31.5 M73,35.6c3.3-9.2-8.8-18.1-15.8-10.7
		c-4.7,8.5-14.7,23.6-2.3,30.2C65.8,60.4,72.6,44.1,73,35.6L73,35.6z"/>
	<path fill="#565656" stroke="#565656" stroke-width="9.375000e-002" stroke-miterlimit="10" d="M73,35.6
		c3.3-9.2-8.8-18.1-15.8-10.7c-4.7,8.5-14.7,23.6-2.3,30.2C65.8,60.4,72.6,44.1,73,35.6L73,35.6z"/>
</g>
</svg>
