<?xml version="1.0" encoding="utf-8"?>
<!-- Generator: Adobe Illustrator 18.1.1, SVG Export Plug-In . SVG Version: 6.00 Build 0)  -->
<svg version="1.1" id="Layer_1" xmlns="http://www.w3.org/2000/svg" xmlns:xlink="http://www.w3.org/1999/xlink" x="0px" y="0px"
	 viewBox="863.4 104.4 396.9 636" enable-background="new 863.4 104.4 396.9 636" xml:space="preserve">
<g id="original">
	<path fill="#040404" stroke="#040404" stroke-width="9.375000e-02" d="M963.3,130.3c35.9-20.7,78.4-29.2,119.6-24.6
		c52.5,5.3,102,33.5,134.1,75.3c20.6,26.6,34.2,58.5,39.3,91.7c2.9,20.4,2.9,41.2,0,61.6c-5.6,35.7-21.1,69.9-44.6,97.3
		c-13.4,15.7-29.2,29.5-46.9,40.2c-1,0.6-2.5,1.6-1.7,3c4.1,12.9,7.4,25.9,9.7,39.2c0.9,2.8-3.5,4.4-1.9,7
		c29.5,61.9,59,123.8,88.5,185.6c2.1,4.7,0.2,10.2-2.7,14.2c-2.8,5.1-8.1,7.9-12.7,11.3c-3.6,2.7-7.9,4.2-12.1,5.9
		c-3.3,1-6.7,1.2-10.1,1.8c-7.9,1.1-16.1,0.6-23.7-1.9c-21.6-62.2-42.7-124.6-64.2-186.8c-2.1-5.7-3.7-11.7-6.1-17.3
		c-0.5-1-1.3-1.4-2.5-1c-3.9,0.4-6.7-2.7-8.2-5.9c-5.1-9.9-10.7-19.5-15.4-29.7c-10.5,1.3-21,3.6-31.7,3.6
		c-39.1,2-78.8-8-112.2-28.6c-52.3-31.5-88.5-88.7-93.4-149.7c-3.5-36.8,3-74.5,19.5-107.6C901.1,179.6,929.2,149.7,963.3,130.3
		 M1041.5,110.6c-30.9,3.4-60.9,14-86.9,31.1c-27.4,17.8-50,42.9-65.1,71.9c-12.1,23-19.5,48.5-21.7,74.4
		c-4.1,47.1,10.6,95.3,39.6,132.6c39.5,51.8,106.7,81,171.6,74.4c39.1-3.6,77.1-19.5,107.2-44.8c27-22.6,47.5-52.9,58.7-86.3
		c11.8-34.5,13.2-72.4,3.9-107.7c-9.7-38.1-31.1-73.3-60.9-99C1148.1,122.7,1094,105.1,1041.5,110.6 M1155.1,480.9
		c-4,1.6-7.5,4.3-11.3,6.5c-0.1,0.1-0.4,0.2-0.6,0.3c-0.6,0.3-1.8,0.8-2.4,1c-11,3.1-21.2,9.6-32.9,10.3c1.9,5.8,4.7,11.4,7,17.1
		c1.7,4.6,4.6,8.8,5.5,13.7c8.8,2.6,18.5,1.9,27-1.4c1.3-0.6,3.4-0.7,3.7-2.4c4.1-1.1,7.7-3.5,11.3-5.5c1.7-1.2,4-2.3,4.6-4.3
		c1.3-0.5,2.5-1.1,3.7-1.7c0-0.3-0.1-1-0.2-1.3c-4.9-11.9-5.5-25-9.6-37.1C1158.6,477.2,1157.2,479.4,1155.1,480.9 M1147.2,535.2
		c-4.4,1.2-8.2,4.3-12.9,4c22.3,65.5,44.9,130.9,67.2,196.3c1.2,2.2,4.4,0.8,6.5,1.2c10,0.2,21.1,1,29.9-4.8
		c3.8-2.5,8.1-4.4,11.2-7.8c3.7-3.6,7.6-7.3,9.8-12c-1.5-1.3-2.8-2.7-3.5-4.5c-24.1-50.5-48.2-101.1-72.2-151.7
		c-5.6-11-10.3-22.5-16.3-33.3C1161.1,527.9,1154.7,532.8,1147.2,535.2z"/>
	<path fill="#909090" stroke="#909090" stroke-width="9.375000e-02" d="M1041.5,110.6c52.5-5.5,106.6,12.1,146.4,46.6
		c29.8,25.7,51.2,60.9,60.9,99c9.3,35.3,7.9,73.2-3.9,107.7c-11.2,33.4-31.7,63.7-58.7,86.3c-30.1,25.3-68.1,41.2-107.2,44.8
		c-64.9,6.6-132.1-22.6-171.6-74.4c-29-37.3-43.7-85.5-39.6-132.6c2.2-25.9,9.6-51.4,21.7-74.4c15.1-29,37.7-54.1,65.1-71.9
		C980.6,124.6,1010.6,114,1041.5,110.6 M1044.3,115.3c-43.9,4-86,24.8-116,57c-32.3,34-50.8,80.8-49.7,127.7
		c-1,38.4,11.4,76.7,33.5,108c16.2,22.6,37.4,41.8,61.9,55.1c27.1,14.9,58,22.9,89,22.3c35.3,0.6,70.4-10.3,100-29.4
		c26.9-17.7,49.4-42.4,63.8-71.2c13.3-26.1,20.3-55.5,19.6-84.8c1.2-51.2-21.1-102.1-58.8-136.7c-31.4-29.4-73.6-47.1-116.6-48.7
		C1062.1,114.7,1053.1,114.1,1044.3,115.3z"/>
	<path fill="#040404" stroke="#040404" stroke-width="9.375000e-02" d="M1044.3,115.3c8.8-1.2,17.8-0.6,26.7-0.7
		c43,1.6,85.2,19.3,116.6,48.7c37.7,34.6,60,85.5,58.8,136.7c0.7,29.3-6.3,58.7-19.6,84.8c-14.4,28.8-36.9,53.5-63.8,71.2
		c-29.6,19.1-64.7,30-100,29.4c-31,0.6-61.9-7.4-89-22.3c-24.5-13.3-45.7-32.5-61.9-55.1c-22.1-31.3-34.5-69.6-33.5-108
		c-1.1-46.9,17.4-93.7,49.7-127.7C958.3,140.1,1000.4,119.3,1044.3,115.3 M1048.4,120.5c-33.2,2.8-65.7,14.6-92.6,34.3
		c-43.7,31.1-71.4,82.8-74.5,136.1c-2.2,43.4,12.6,87.2,39.6,121.2c28.8,36.2,72.1,60.3,117.9,66.3c36.5,5,74.3-1.9,106.9-18.7
		c28.7-14.7,53.4-37.2,70.4-64.6c20.3-32.6,30.6-71.8,27.1-110.2c-3.6-38.5-19.7-75.7-45.5-104.5
		C1160.8,138.7,1103.8,116.1,1048.4,120.5z"/>
	<path opacity="0.43" fill="#CFE6F4" enable-background="new    " d="M1048.4,120.5c55.4-4.4,112.4,18.2,149.3,59.9
		c25.8,28.8,41.9,66,45.5,104.5c3.5,38.4-6.8,77.6-27.1,110.2c-17,27.4-41.7,49.9-70.4,64.6c-32.6,16.8-70.4,23.7-106.9,18.7
		c-45.8-6-89.1-30.1-117.9-66.3c-27-34-41.8-77.8-39.6-121.2c3.1-53.3,30.8-105,74.5-136.1C982.7,135.1,1015.2,123.3,1048.4,120.5
		 M944.8,202.8c-1.7,2.9-4.7,4.6-6.9,7.1c-6.6,9.9-12.4,20.4-16.2,31.8c-5.7,15.8-9.2,32.5-9.9,49.4c-0.9,16,0,32.4,5.7,47.5
		c3.1,7.6,5.9,15.4,10.8,22.1c3.1,4.9,5,10.5,8.5,15.2c0-4.4-2.4-8.3-3.4-12.4c-2.6-6.9-3.8-14.1-5.9-21
		c-1.9-10.1-2.9-20.3-2.5-30.5c-0.5-22.3,1.9-44.5,6.8-66.2c1.9-8,4.9-15.6,7.8-23.2c2.2-5.9,5.6-11.3,7.8-17.2
		c0.4-1.5,1.4-3,0.7-4.6C946.4,199.8,945.5,201.6,944.8,202.8 M1223.2,318c-2.7,4.4-2.8,10-4.3,14.8c-2.1,6.2-2.6,12.8-5.2,18.7
		c-3.2,10.7-6.3,21.6-11.6,31.5c-0.7,1.6-1.8,3.2-1.3,5.1c2.5-0.2,3.3-2.9,4.7-4.5c1.9-3.1,5-5.2,6.7-8.4c3.4-7,7.6-13.7,9.7-21.2
		c1.9-7.5,4.3-15.1,3.4-22.9c-0.5-4.4-0.2-8.8-0.4-13.1C1224.5,318,1223.6,318,1223.2,318z"/>
	<path fill="#FFFFFF" stroke="#FFFFFF" stroke-width="9.375000e-02" d="M944.8,202.8c0.7-1.2,1.6-3,3.3-2c0.7,1.6-0.3,3.1-0.7,4.6
		c-2.2,5.9-5.6,11.3-7.8,17.2c-2.9,7.6-5.9,15.2-7.8,23.2c-4.9,21.7-7.3,43.9-6.8,66.2c-0.4,10.2,0.6,20.4,2.5,30.5
		c2.1,6.9,3.3,14.1,5.9,21c1,4.1,3.4,8,3.4,12.4c-3.5-4.7-5.4-10.3-8.5-15.2c-4.9-6.7-7.7-14.5-10.8-22.1
		c-5.7-15.1-6.6-31.5-5.7-47.5c0.7-16.9,4.2-33.6,9.9-49.4c3.8-11.4,9.6-21.9,16.2-31.8C940.1,207.4,943.1,205.7,944.8,202.8z"/>
	<path fill="#FFFFFF" stroke="#FFFFFF" stroke-width="9.375000e-02" d="M1223.2,318c0.4,0,1.3,0,1.7,0c0.2,4.3-0.1,8.7,0.4,13.1
		c0.9,7.8-1.5,15.4-3.4,22.9c-2.1,7.5-6.3,14.2-9.7,21.2c-1.7,3.2-4.8,5.3-6.7,8.4c-1.4,1.6-2.2,4.3-4.7,4.5
		c-0.5-1.9,0.6-3.5,1.3-5.1c5.3-9.9,8.4-20.8,11.6-31.5c2.6-5.9,3.1-12.5,5.2-18.7C1220.4,328,1220.5,322.4,1223.2,318
		 M1220.2,339.2"/>
	<path opacity="0.43" fill="#596369" stroke="#596369" stroke-width="9.375000e-02" enable-background="new    " d="M1220.2,339.2"
		/>
	<path fill="#909090" stroke="#909090" stroke-width="9.375000e-02" d="M1155.1,480.9c2.1-1.5,3.5-3.7,5.8-4.8
		c4.1,12.1,4.7,25.2,9.6,37.1c0.1,0.3,0.2,1,0.2,1.3c-1.2,0.6-2.4,1.2-3.7,1.7C1164.1,504.1,1159.3,492.6,1155.1,480.9z"/>
	<path fill="#D4D4D4" stroke="#D4D4D4" stroke-width="9.375000e-02" d="M1143.8,487.4c3.8-2.2,7.3-4.9,11.3-6.5
		c4.2,11.7,9,23.2,11.9,35.3c-0.6,2-2.9,3.1-4.6,4.3c-3.6,2-7.2,4.4-11.3,5.5c-1.1-7-1.8-14.1-4.3-20.7c-2.1-5.5-3.6-11.2-6-16.6
		c0.6-0.2,1.8-0.7,2.4-1C1143.4,487.6,1143.7,487.5,1143.8,487.4z"/>
	<path opacity="0.43" fill="#596369" stroke="#596369" stroke-width="9.375000e-02" enable-background="new    " d="M1143.2,487.7
		c0.2-0.1,0.5-0.2,0.6-0.3C1143.7,487.5,1143.4,487.6,1143.2,487.7z"/>
	<path fill="#909090" stroke="#909090" stroke-width="9.375000e-02" d="M1107.9,499c11.7-0.7,21.9-7.2,32.9-10.3
		c2.4,5.4,3.9,11.1,6,16.6c2.5,6.6,3.2,13.7,4.3,20.7c-0.3,1.7-2.4,1.8-3.7,2.4c-8.5,3.3-18.2,4-27,1.4c-0.9-4.9-3.8-9.1-5.5-13.7
		C1112.6,510.4,1109.8,504.8,1107.9,499z"/>
	<path fill="#734E1E" stroke="#734E1E" stroke-width="9.375000e-02" d="M1147.2,535.2c7.5-2.4,13.9-7.3,19.7-12.6
		c6,10.8,10.7,22.3,16.3,33.3c24,50.6,48.1,101.2,72.2,151.7c0.7,1.8,2,3.2,3.5,4.5c-2.2,4.7-6.1,8.4-9.8,12
		c-3.1,3.4-7.4,5.3-11.2,7.8c-8.8,5.8-19.9,5-29.9,4.8c-2.1-0.4-5.3,1-6.5-1.2c-22.3-65.4-44.9-130.8-67.2-196.3
		C1139,539.5,1142.8,536.4,1147.2,535.2z"/>
	<path fill="#FFFFFF" stroke="#FFFFFF" stroke-width="9.375000e-02" d="M1125.3,532.8c1.2-0.4,2,0,2.5,1
		C1126.4,534.7,1125.6,534.3,1125.3,532.8z"/>
</g>
</svg>
