<?xml version="1.0" encoding="iso-8859-1"?>
<!-- Generator: Adobe Illustrator 18.1.1, SVG Export Plug-In . SVG Version: 6.00 Build 0)  -->
<!DOCTYPE svg PUBLIC "-//W3C//DTD SVG 1.1//EN" "http://www.w3.org/Graphics/SVG/1.1/DTD/svg11.dtd">
<svg version="1.1" xmlns="http://www.w3.org/2000/svg" xmlns:xlink="http://www.w3.org/1999/xlink" x="0px" y="0px"
	 viewBox="450.9 1053.5 92.3 44.9" enable-background="new 450.9 1053.5 92.3 44.9" xml:space="preserve">
<g id="main_x5F_comp_x5F_back-up_paths">
	<g id="body">
	</g>
	<g id="lid_1_">
	</g>
	<g id="spout_x5F_side_1_">
		<g id="spout_x5F_side">
		</g>
	</g>
	<g id="spout_x5F_34front">
		<g id="base">
		</g>
		<g id="tube">
		</g>
		<g id="spout">
		</g>
	</g>
	<g id="spout_x5F_front">
		<g id="base_copy_2">
		</g>
		<g id="lever_1_">
		</g>
	</g>
	<g id="cap_x5F_on">
	</g>
	<g id="cap_x5F_off">
	</g>
</g>
<g id="lip_x5F_front_1_">
</g>
<g id="lip_x5F_back">
	<g>
		<path fill="#840D0D" d="M528.2,1058.7c-15.6-2.7-31.9-3.2-47.7-1.6c-3.9,0.5-7.8,1.1-11.7,1.8c-3,0.6-5.9,1.2-8.8,2.1
			c-1.5,0.4-5.9,1.5-6.3,3.1c-0.1,0.2-0.1,0.4,0,0.7c1.5,3.9,25.6,7.2,27.4,7.4c15,1.9,32.7,2.7,47.2-1.9c3.4-1,9.7-2.7,11.3-5.9
			c0.2-0.5,0.3-0.9,0.2-1.3C539.4,1059.9,530.5,1059,528.2,1058.7z"/>
		<path d="M453.7,1064c0.5-1.6,4.9-2.6,6.3-3.1c2.9-0.9,5.8-1.5,8.8-2.1c3.9-0.7,7.7-1.3,11.7-1.8c15.8-1.6,32.1-1.1,47.7,1.6
			c2.2,0.4,11.2,1.2,11.7,4.4l1.5-0.3c-0.6-2.1-2.7-3.9-5-4.8c-2.6-1-5.8-1.2-8.5-1.7c-6.1-1.1-12.3-1.9-18.5-2.2
			c-9.9-0.5-19.7-0.5-29.6,0.5c-4.6,0.5-9.2,1.3-13.8,2.2c-3.8,0.8-11.7,1.8-13.7,5.4c-0.5,0.9-0.6,1.8-0.4,2.6l1.8-0.2
			C453.7,1064.5,453.7,1064.2,453.7,1064z"/>
	</g>
</g>
<g id="body_x5F_back">
</g>
<g id="body_x5F_front">
</g>
<g id="body_x5F_front_copy" display="none">
</g>
<g id="lid_copy_4">
	<g id="Layer_40">
	</g>
	<g id="Layer_40_copy">
	</g>
	<g id="Layer_40_copy_2">
	</g>
</g>
<g id="spout_x5F_side_2_">
	<g id="spout_x5F_side_3_">
	</g>
</g>
<g id="tap_x5F_side_1_">
</g>
<g id="spout_x5F_34front_1_">
	<g id="base_copy_5">
	</g>
	<g id="tube_copy_4">
	</g>
	<g id="spout_copy_3">
	</g>
</g>
<g id="tap_x5F_34front">
</g>
<g id="spout_x5F_front_1_">
	<g id="base_1_">
	</g>
	<g id="tap_x5F_centre">
	</g>
</g>
<g id="cap_x5F_on_1_">
</g>
<g id="cap_x5F_34off">
</g>
<g id="line_art_ref" display="none">
</g>
</svg>
