<?xml version="1.0" encoding="iso-8859-1"?>
<!-- Generator: Adobe Illustrator 18.1.1, SVG Export Plug-In . SVG Version: 6.00 Build 0)  -->
<!DOCTYPE svg PUBLIC "-//W3C//DTD SVG 1.1//EN" "http://www.w3.org/Graphics/SVG/1.1/DTD/svg11.dtd">
<svg version="1.1" xmlns="http://www.w3.org/2000/svg" xmlns:xlink="http://www.w3.org/1999/xlink" x="0px" y="0px"
	 viewBox="604.9 2118.3 44.9 73.7" enable-background="new 604.9 2118.3 44.9 73.7" xml:space="preserve">
<g id="main_x5F_comp_x5F_back-up_paths">
	<g id="body">
	</g>
	<g id="lid_1_">
	</g>
	<g id="spout_x5F_side_1_">
		<g id="spout_x5F_side">
		</g>
	</g>
	<g id="spout_x5F_34front">
		<g id="base">
		</g>
		<g id="tube">
		</g>
		<g id="spout">
		</g>
	</g>
	<g id="spout_x5F_front">
		<g id="base_copy_2">
		</g>
		<g id="lever_1_">
		</g>
	</g>
	<g id="cap_x5F_on">
	</g>
	<g id="cap_x5F_off">
	</g>
</g>
<g id="lip_x5F_front_1_">
</g>
<g id="lip_x5F_back">
</g>
<g id="body_x5F_back">
</g>
<g id="body_x5F_front">
</g>
<g id="body_x5F_front_copy" display="none">
</g>
<g id="lid_copy_4">
	<g id="Layer_40">
	</g>
	<g id="Layer_40_copy">
	</g>
	<g id="Layer_40_copy_2">
	</g>
</g>
<g id="spout_x5F_side_2_">
	<g id="spout_x5F_side_3_">
	</g>
</g>
<g id="tap_x5F_side_1_">
</g>
<g id="spout_x5F_34front_1_">
	<g id="base_copy_5">
	</g>
	<g id="tube_copy_4">
	</g>
	<g id="spout_copy_3">
	</g>
</g>
<g id="tap_x5F_34front">
</g>
<g id="spout_x5F_front_1_">
	<g id="base_1_">
	</g>
	<g id="tap_x5F_centre">
		<g>
			<path d="M649.5,2126.6C649.5,2126.6,649.5,2126.6,649.5,2126.6c-0.2-2.6-0.7-5.2-1.7-7.9c-0.1-0.1-0.2-0.1-0.3-0.1
				c-13,0.2-26,0.2-39,0c-0.1,0-0.2,0-0.3,0c-0.7,0-2.1,0.8-2.2,1.6c-0.6,3.1-0.8,6-0.7,8.8c0,0-0.1,0-0.1,0c0,0,0.1,0,0.1,0
				c0.2,4.1,0.9,8.2,1.5,12.7c2.3,15.7,4.7,31.5,7.1,47.2c0,0,0,0.1,0,0.1c0,0.1,0,0.1,0.1,0.1c7.8,2.6,16.9,3.8,24.8,1.3
				c0.2,0,0.3-0.1,0.5-0.2c0.6-0.2,1.8-0.8,2-1.5c1.4-8.8,2.8-17.5,4-26.3c1.1-7.8,2.2-15.7,3.1-23.5
				C649,2134.5,649.6,2130.6,649.5,2126.6C649.5,2126.6,649.5,2126.6,649.5,2126.6z M639.5,2120.5c1.5,0,3.3-0.3,4.8,0
				c1.7,0.4,1.4,0.1,2,2.5c0.4,1.4,0.6,2.8,0.7,4.1c-12.8,1.8-26.3,1-39.1,0c-0.1-2.1,0-4.3,0.4-6.5
				C618.6,2120.6,629.1,2120.6,639.5,2120.5z M646,2139.4c-2,16.6-4.4,33.1-7.1,49.6c-7.3,1.9-15.4,0.7-22.5-1.7
				c-2.5-15.6-4.8-31.3-7.1-47c-0.6-3.9-1.2-7.5-1.4-11.1c12.9,1,26.3,1.7,39.1-0.5C647,2132.3,646.5,2135.7,646,2139.4z"/>
			<path fill="#FD0000" d="M607.9,2129.3c0.3,3.6,0.9,7.2,1.4,11.1c2.3,15.7,4.6,31.4,7.1,47c7,2.3,15.2,3.6,22.5,1.7
				c2.7-16.5,5.1-33.1,7.1-49.6c0.5-3.7,1-7.1,1-10.6C634.2,2130.9,620.8,2130.3,607.9,2129.3z"/>
			<path fill="#FD0000" d="M607.8,2127c12.8,1.1,26.3,1.9,39.1,0c-0.1-1.3-0.3-2.7-0.7-4.1c-0.6-2.4-0.3-2.1-2-2.5
				c-1.4-0.3-3.3,0-4.8,0c-10.4,0.1-20.8,0.1-31.3,0C607.8,2122.7,607.7,2124.9,607.8,2127z"/>
		</g>
	</g>
</g>
<g id="cap_x5F_on_1_">
</g>
<g id="cap_x5F_34off">
</g>
<g id="line_art_ref" display="none">
</g>
</svg>
