<?xml version="1.0" encoding="iso-8859-1"?>
<!-- Generator: Adobe Illustrator 18.1.1, SVG Export Plug-In . SVG Version: 6.00 Build 0)  -->
<!DOCTYPE svg PUBLIC "-//W3C//DTD SVG 1.1//EN" "http://www.w3.org/Graphics/SVG/1.1/DTD/svg11.dtd">
<svg version="1.1" xmlns="http://www.w3.org/2000/svg" xmlns:xlink="http://www.w3.org/1999/xlink" x="0px" y="0px"
	 viewBox="819.8 2142.7 110.5 114.3" enable-background="new 819.8 2142.7 110.5 114.3" xml:space="preserve">
<g id="main_x5F_comp_x5F_back-up_paths">
	<g id="body">
	</g>
	<g id="lid_1_">
	</g>
	<g id="spout_x5F_side_1_">
		<g id="spout_x5F_side">
		</g>
	</g>
	<g id="spout_x5F_34front">
		<g id="base">
		</g>
		<g id="tube">
		</g>
		<g id="spout">
		</g>
	</g>
	<g id="spout_x5F_front">
		<g id="base_copy_2">
		</g>
		<g id="lever_1_">
		</g>
	</g>
	<g id="cap_x5F_on">
	</g>
	<g id="cap_x5F_off">
	</g>
</g>
<g id="lip_x5F_front_1_">
</g>
<g id="lip_x5F_back">
</g>
<g id="body_x5F_back">
</g>
<g id="body_x5F_front">
</g>
<g id="body_x5F_front_copy" display="none">
</g>
<g id="lid_copy_4">
	<g id="Layer_40">
	</g>
	<g id="Layer_40_copy">
	</g>
	<g id="Layer_40_copy_2">
	</g>
</g>
<g id="spout_x5F_side_2_">
	<g id="spout_x5F_side_3_">
	</g>
</g>
<g id="tap_x5F_side_1_">
</g>
<g id="spout_x5F_34front_1_">
	<g id="base_copy_5">
	</g>
	<g id="tube_copy_4">
	</g>
	<g id="spout_copy_3">
		<g>
			<path fill="#00DDFD" d="M865.6,2212.6c-3-0.7-6.1-1.2-9-2.2c-3.1-1.1-4.5-4.3-5.7-7.3c-4.2-10.9-0.9-25.4,11.5-28.9
				c0.1,0,0.1,0,0.2-0.1h0c0,0,0.1,0,0.1,0c1.6,0.5,3.2,1,4.8,1.5c-0.1-0.6-0.2-1.3-0.3-1.9c-1.1-1.8-1.3-3.9-0.2-6.2
				c1.8-3.8,6.3-6.8,10.1-8.6c0,0,0,0,0,0c-1-2.3-2.2-4.4-3.7-6.5c-6.6-9-20.1-8.2-30.6-4.6c0,0,0,0,0,0
				c-9.5,5.8-16.3,16.5-18.5,27.2c-1.4,6.7-1.5,14-1,20.8c0.7,9.1,4.3,17.7,9.5,25.6c4.8,7.2,14.1,11.7,26.6,8.3
				c10.9-3,14.8-8.8,16.5-12.1c-0.2-0.8-0.4-1.7-0.6-2.5C872.1,2214.2,868.8,2213.4,865.6,2212.6z"/>
			<path fill="#00DDFD" d="M851.1,2194.2c-0.2,5.4,1.2,11,6.5,13.6c4.3,2.1,10.4,2.6,15.1,3.7c0.7,0.2,1.3,0.3,2,0.5
				c-1.2-5.1-2.2-10.3-3.3-15.5c-1.2-5.9-2.3-11.8-3.3-17.7c-2.3-0.7-4.7-1.5-7-2.2C854.8,2178.3,851.3,2187.8,851.1,2194.2z"/>
			<path fill="none" stroke="#000000" stroke-width="0" stroke-linecap="round" stroke-linejoin="round" d="M862.5,2174.2
				c0.1,0,0.1,0,0.2-0.1"/>
			<path d="M924.1,2159.9c-13.3-5.9-31-4.6-45-1.4c-2.6-5.6-6.5-10.6-11.8-13c-7.1-3.2-15.1-3.2-22.5-0.8c0,0-0.1,0-0.1,0
				c0,0,0,0-0.1,0c-13.5,5.4-22.3,19.8-23.9,33.8c-2.1,18.3-0.3,42.6,18,52.1c13,6.7,29.2,4.3,37.1-8.4c0.3-0.4,0.5-0.8,0.7-1.2
				c0.1,0.2,0.1,0.4,0.2,0.7c1,4.1,2,8.2,3.2,12.3c0.4,1.3,0.5,2.1,1.4,2.9c1.3,1.1,3.2,1.9,5.2,2.6c-0.1,3.4-0.6,7.3,0.1,10.5
				c1,4.8,6.9,6.5,10.9,6.9c4,0.4,12.1-0.4,14.5-4.8c0.9-1.7,0.5-4.1,0.5-6c0-2,0-4,0-6c2.5-1.3,4.8-3.1,5.8-5.4
				c1.2-2.6,1.5-6.1,2.1-8.8c4.1-17.9,7-36.1,9-54.4c0-0.1,0-0.3,0-0.5c0.2-0.5,0.3-0.9,0.4-1.3
				C930.8,2165.5,927.5,2161.4,924.1,2159.9z M912.7,2158.5c6.1,1,14.9,3.1,15.1,11.5c0,0.3,0,0.7-0.1,1c-1.3,8.6-22.3,8.6-27.3,8.8
				c-9.8,0.3-19.5,0.1-27.8-5.8c-6.7-4.7-3.5-10.3,2.8-13.1C886.9,2158.2,901,2156.6,912.7,2158.5z M859.4,2229.6
				c-12.5,3.4-21.8-1.1-26.6-8.3c-5.2-7.8-8.8-16.4-9.5-25.6c-0.5-6.8-0.4-14.1,1-20.8c2.2-10.6,9-21.3,18.5-27.2c0,0,0,0,0,0
				c10.4-3.5,24-4.3,30.6,4.6c1.5,2,2.7,4.2,3.7,6.5c0.1,0,0.1-0.1,0.2-0.1c-0.1,0-0.1,0.1-0.2,0.1c0,0,0,0,0,0
				c-3.8,1.7-8.3,4.7-10.1,8.6c-1.1,2.3-0.9,4.4,0.2,6.2c0.1,0.6,0.2,1.3,0.3,1.9c-1.6-0.5-3.2-1-4.8-1.5c0,0-0.1,0-0.1,0h0
				c-0.1,0-0.1,0-0.2,0.1c-12.4,3.5-15.8,18.1-11.5,28.9c1.2,3,2.6,6.2,5.7,7.3c2.9,1,6,1.5,9,2.2c3.2,0.8,6.5,1.6,9.7,2.4
				c0.2,0.8,0.4,1.7,0.6,2.5C874.2,2220.8,870.3,2226.6,859.4,2229.6z M861,2176.6c2.4,0.7,4.7,1.5,7,2.2c1,5.9,2.1,11.8,3.3,17.7
				c1,5.2,2.1,10.3,3.3,15.5c-0.7-0.2-1.3-0.3-2-0.5c-4.6-1.1-10.8-1.6-15.1-3.7c-5.3-2.6-6.6-8.2-6.5-13.6
				C851.3,2187.8,854.8,2178.3,861,2176.6z M909.6,2248.7c0,5.7-7.5,6.5-11.9,6.1c-9.6-0.9-8.3-7.6-8.1-14.8c0.7,0.2,1.4,0.4,2,0.6
				c5.2,1.4,10.9,2.3,16.2,1c0.5-0.1,1.1-0.3,1.7-0.5C909.6,2243.7,909.6,2246.2,909.6,2248.7z M920.4,2217.7
				c-0.9,4.1-1.7,7.7-2.7,11.9c-0.8,3.1-2.7,4-5.6,6c-7.7,5-19.1,3-27.9-0.9c-1-0.4-1.6-1.2-1.9-1.6c-0.9-1.2-1.9-3.6-2.3-5.1
				c-0.5-2.1-1-3.8-1.5-5.9c-1.8-7.4-3.5-14.8-5-22.2c-1.5-7.5-3.2-16.2-4.4-23.8c4.5,4.1,13.3,6.5,17.4,7c7.3,1,18.1,1.6,26.3,0.1
				c4.1-0.8,8.3-2.2,11.8-4.6c1-0.7,2-1.8,2.8-3.2C925.7,2189.5,923.4,2203.6,920.4,2217.7z"/>
			<path fill="#FFFFFF" d="M875.4,2160.9c-6.3,2.8-9.5,8.4-2.8,13.1c8.3,5.9,18,6.1,27.8,5.8c5.1-0.2,26-0.3,27.3-8.8
				c0-0.3,0.1-0.7,0.1-1c-0.2-8.4-9-10.5-15.1-11.5C901,2156.6,886.9,2158.2,875.4,2160.9z"/>
			<path fill="#FFFFFF" d="M924.6,2178.4c-3.5,2.4-7.7,3.8-11.8,4.6c-8.2,1.5-19,0.9-26.3-0.1c-4.1-0.5-12.8-2.9-17.4-7
				c1.3,7.6,2.9,16.3,4.4,23.8c1.5,7.4,3.1,14.9,5,22.2c0.5,2.1,1,3.8,1.5,5.9c0.4,1.5,1.4,3.9,2.3,5.1c0.3,0.4,0.9,1.2,1.9,1.6
				c8.8,3.9,20.3,5.9,27.9,0.9c2.9-1.9,4.9-2.9,5.6-6c1-4.1,1.8-7.7,2.7-11.9c3-14,5.3-28.2,6.9-42.4
				C926.5,2176.6,925.5,2177.8,924.6,2178.4z"/>
			<path fill="#00DDFD" d="M891.7,2240.6c-0.6-0.2-1.3-0.3-2-0.6c-0.3,7.2-1.5,13.9,8.1,14.8c4.4,0.4,11.9-0.4,11.9-6.1
				c0-2.5,0-5.1,0-7.6c-0.6,0.2-1.1,0.4-1.7,0.5C902.6,2242.9,896.9,2242.1,891.7,2240.6z"/>
			<path fill="none" stroke="#000000" stroke-width="0" stroke-linecap="round" stroke-linejoin="round" d="M877.1,2158.9
				C877.1,2158.9,877.1,2158.9,877.1,2158.9"/>
			<path fill="none" stroke="#000000" stroke-width="0" stroke-linecap="round" stroke-linejoin="round" d="M877.1,2158.9
				c0.1,0,0.1-0.1,0.2-0.1"/>
		</g>
	</g>
</g>
<g id="tap_x5F_34front">
</g>
<g id="spout_x5F_front_1_">
	<g id="base_1_">
	</g>
	<g id="tap_x5F_centre">
	</g>
</g>
<g id="cap_x5F_on_1_">
</g>
<g id="cap_x5F_34off">
</g>
<g id="line_art_ref" display="none">
</g>
</svg>
