<?xml version="1.0" encoding="utf-8"?>
<!-- Generator: Adobe Illustrator 18.1.1, SVG Export Plug-In . SVG Version: 6.00 Build 0)  -->
<svg version="1.1" xmlns="http://www.w3.org/2000/svg" xmlns:xlink="http://www.w3.org/1999/xlink" x="0px" y="0px"
	 viewBox="0 0 141.8 495.9" enable-background="new 0 0 141.8 495.9" xml:space="preserve">
<g id="water_pouring_instances_-_boards">
</g>
<g id="water_pour_cycle_x5F_main_comp">
	<g id="POSE2">
		<g id="Layer_6">
		</g>
	</g>
	<g id="POSE3">
	</g>
</g>
<g id="POSE1_2_" opacity="0.5">
	<g id="POSE1_3_">
		<g id="XMLID_33_">
			<g>
				<path fill="#6A5C50" d="M22.2,448.5c0.5-2.2,4.4-5.4,6-8.5c-0.2,2.4-0.1,4.7,0.2,7c0.6,4.9,1.8,9.6,2.3,14.5
					c0,0.2,0.1,0.5,0.1,0.7c-0.3,4.9-0.7,9.7-0.7,14.6c-1.7,4.7-4.1,9.1-5.6,13.6c-0.7,1.4-1.5,2.8-2.7,3.6c-2.5,1.8-6.3,0.9-10,0.9
					c-1-6.6,1.5-13.1,4.3-19.5c2.1-4.8,4.4-9.4,5.6-13.8c0.4-1.4,0.5-2.8,0.5-4.2C22.1,454.4,21.5,451.4,22.2,448.5z"/>
				<path fill="#A38F7F" d="M29.3,437.3c-0.1-0.5-0.2-1-0.4-1.4c-1.9-7.6,0.9-13.7,2.3-21.1c0.7,4.4,1.4,8.7,1.6,12.7
					c0.2,3.3,1.3,6.7,1,10c-0.3,3.8-1.8,7-2,10.7c-0.2,4.7-0.6,9.5-0.9,14.2c0-0.2,0-0.5-0.1-0.7c-0.5-4.9-1.8-9.6-2.3-14.5
					c0.6-1.9,0.4-4.9,0.1-7.6c0.4-0.9,0.5-1.8,0.3-2.6l0.3-0.1C29.2,436.9,29.2,437.1,29.3,437.3z"/>
				<path fill="#4C3E33" d="M15.8,295.5c0-1.2,0-2.4,0.1-3.6l2.8,0.1c0,1,0,1.9,0.1,2.9c0.1,1.2,0.4,2.4,0.7,3.6
					c0.2-1,0.4-2,0.8-2.9c5.4,10.5,5.4,21.5,6.7,32.4c0.5,3.9,1.1,7.7,2.2,11.5c2.1,7.2-0.5,13.2-0.3,20.5c0.1,5.8,1.7,11,1.4,16.8
					c-0.2,3-0.1,6.1,0.2,9.1c0.1,1.6,0.2,3.2,0.4,4.8c0.7,6.9,1.5,13.8,0.8,20.6c-0.1,1.1-0.3,2.2-0.5,3.3
					c-1.3,7.4-4.2,13.5-2.3,21.1c0.1,0.3,0.1,0.6,0.2,0.8l-0.3,0.1c0-0.1,0-0.2-0.1-0.3c-0.1,0.6-0.2,1.2-0.3,1.7
					c0,0.4,0.1,0.8,0.1,1.1c0.2,2.8,0.5,5.8-0.1,7.6c-0.3-2.3-0.4-4.6-0.2-7c-1.6,3.1-5.5,6.3-6,8.5c-0.7,2.9-0.1,5.9-0.1,9
					c0,1.4-0.1,2.8-0.5,4.2c-1.2,4.4-3.5,9-5.6,13.8c0.6-13.2-0.6-26.9,1.2-39.8c0.7-5.2,1.9-10.3,3.9-15.2
					c2.9-7.2,6.4-13.6,6.4-20.8c0-2.5-0.4-5-1.4-7.7c-1.9-5.3-4.4-10.9-5-16.5c-0.2-1.9-0.1-3.8,0.2-5.7c0.8-5.6,2.9-11.1,2.2-17.3
					c-0.4-3.8-1.7-7-2.4-10.5l-2.1,0.4c-0.9-4.6-4.1-8.1-4.9-12.8c-0.7-4.4,0.7-8.8,1.1-13.1C16.1,309.6,15.8,302.5,15.8,295.5z"/>
				<path fill="#6A5C50" d="M20.2,295.7c-0.3,1-0.6,1.9-0.8,2.9c-0.3-1.2-0.6-2.4-0.7-3.6c-0.1-1-0.1-1.9-0.1-2.9
					c0.1-2.1,0.4-4.1,0.7-6.1c0.6-5.7,1.7-11.3,2-17c0-1.1,0.1-2.3,0-3.4c0-1.7-0.1-3.3-0.3-5c0.2-10.5-0.8-21.3,1.5-31.3
					c1.1-4.7,2.1-9.4,2.9-14.2c1.1,0.8,4.2,1,4.2,0c0.3-8.3,0.4-16.6,0.5-24.9c0-4.7,0.2-9.4-0.1-14c0-3.7-0.2-7.4-0.5-11.1
					c0.6-3.5,1.5-6.9,2.7-10.3c1.4-4,1.5-7.5,1.6-12c0-10.2,6-18.6,6-28.4c0-1.9,0-3.7,0-5.6c0-2.2,0-4.5,0-6.7h1.5
					c0,0.6,0,1.2,0.1,1.8v0c0,0.4,0,0.8,0,1.1c0,1.1,0.1,1.8,0.3,2c0.9,6.6,2.9,12.5,1,19.6c-1.2,4.5-3.3,9.4-4.3,13.8
					c-1.6,6.8-0.5,14.1-0.5,21.3c0,7.8,1.5,15.6,0.2,23.1c-0.8,4.8-1.7,9.1-2.2,14.2c-1.4,13-4.3,26.2-5.2,38.9
					c-1.1,0.7-0.7,0.6-0.1,0.7c-0.2,2.7-0.3,5.3-0.3,8c0,1.8,0.2,3.7,0.3,5.6c-1.3,8.3-3.5,17.1-3.8,24.6c-0.3,7-1.5,18.2,0.6,25.1
					c0.1,0.3,0.2,0.7,0.4,1c1.3-4,2.3-7.9,3-11.8c0,2.3,0.7,4.8,1,7c1,7.3,0,14.7,1,22c1.1,8,3.9,15.6,3.2,23.7
					c-0.8,8.8-1.7,17.5-3.9,25.9c-1.8,7-1.1,14.2-1.3,21.2c-0.2-1.6-0.3-3.2-0.4-4.8c-0.2-3-0.3-6.1-0.2-9.1
					c0.3-5.8-1.3-11.1-1.4-16.8c-0.1-7.3,2.4-13.3,0.3-20.5c-1.1-3.8-1.8-7.7-2.2-11.5C25.6,317.2,25.7,306.2,20.2,295.7z"/>
				<path fill="#4C3E33" d="M49.2,185.4c0.9,3.9,2.6,7.6,0.9,11.6c-0.4,0-2.3-0.3-2.8-0.5C46.6,192.8,48.1,188.9,49.2,185.4z"/>
				<path fill="#BDE5F4" d="M30,176.1c-0.2-2.5-0.5-5.1-1-7.5c0.1-1.2,0.3-2.4,0.5-3.5C29.8,168.7,30,172.4,30,176.1z"/>
				<path fill="#4C3E33" d="M21.3,268.9c-0.2,5.7-1.4,11.4-2,17c-0.2,2-0.6,4-0.7,6.1l-2.8-0.1c0.3-8,1.6-16,1.4-24l0.1,0
					c-1.1-4.1-2.4-8.2-2.7-12.3c-0.4-5.1,1.6-7.6,2.6-12.3c0.1-0.5,0.2-1,0.2-1.4c0.2-3.6-1.9-5.6-2.7-9.1
					c-0.7-3.1-0.3-8.3,0.5-11.2c1.2-4.5,1.6-6.2,1.6-11.1c0-9.2,0.2-19.7,1.6-28.8c1-6.9,2.5-13.7,3.8-20.5
					c-0.8-0.6-1.4-1.7-1.5-2.7c0-0.3,0-0.8,0.3-0.9c-0.1-1.4-2.2-8.5-2.4-9.2c-0.6-2.9-1-5.9-1.2-8.9c-0.5-6.1-0.2-12.3,0.9-18.3
					c0.7-3.5,1.7-6.9,2.9-10.2c0.5-3.6,1.7-6.9,4.1-9.7c1.2-2.7,2.3-5.5,3.4-8.2c0-0.9,0-1.9,0.2-2.8c1.2-7.2,4.6-13.7,8-20.3v0
					c0.3-0.8,0.5-1.7,0.6-2.5l2.3,0.4c0,0.6,0,1.2,0,1.8c0,10.9,0,21.7,0,32.5c0,2.2,0,4.5,0,6.7c0,1.9,0,3.7,0,5.6
					c0,9.8-6,18.2-6,28.4c0,4.5-0.1,8-1.6,12c-1.2,3.4-2.1,6.8-2.7,10.3c-0.2,1.2-0.4,2.4-0.5,3.5c0.5,2.5,0.9,5,1,7.5
					c0.3,4.7,0.1,9.4,0.1,14c-0.1,8.3-0.1,16.6-0.5,24.9c0,1-3.1,0.9-4.2,0c-0.8,4.8-1.8,9.5-2.9,14.2c-2.3,10-1.3,20.9-1.5,31.3
					c-0.1,3.6-0.2,7.1-0.7,10.5c0.4-1.8,0.7-3.7,1-5.5C21.3,266.7,21.3,267.8,21.3,268.9z"/>
				<path fill="#A38F7F" d="M42.8,48c-0.7,0.9-1.3,1.7-1.9,2.5l-0.2-0.1c-0.2-7.7,3.9-13.2,8-18.9c4.4-6.2,5.6-10.8,12.5-15.1
					c7-4.4,11.6-8.4,19.5-9.4c6.3-0.8,15.2-2.4,20.5-2.5l0.1,0.3c-2.9,0.7-5.8,1.5-8.8,2.4C88.8,8.5,84,10,81,12.5
					c-1.5,1.2-2.2,2.6-3,4c-1.4,0.9-2.6,1.9-3.7,3c0.4,0.1,0.8,0,1.2-0.2c-3,2.4-9.3,6.8-13.8,9.7c-2.2,1.4-3.9,2.4-4.6,2.6l0,0
					c-4.1,1.3-9.7,4.6-11.4,8C44,42.7,45.2,44.7,42.8,48z"/>
				<path fill="#6A5C50" d="M21.3,420.5c-2,4.9-3.2,10-3.9,15.2c-0.4-1.7-0.9-3.4-1.1-5.2c-0.4-3.8,1.7-6.9,2-10.5
					c0.5-4.4-1.3-8.8-1-13.5c0.2-4.6,0.2-8.8,0-13.2c-0.1-1.6-0.1-3.3,0-4.9c0.1-0.7,0.1-1.3,0.2-2c0.1-4.9-1.2-10.4-1.2-15.3
					c0-9.2,4-18.8,3-27.7c0-0.3-0.1-0.6-0.1-0.9l2.1-0.4c0.7,3.5,2,6.7,2.4,10.5c0.6,6.2-1.5,11.7-2.2,17.3
					c-0.2,1.9-0.4,3.8-0.2,5.7c0.6,5.7,3.1,11.2,5,16.5c1,2.7,1.4,5.2,1.4,7.7C27.6,406.9,24.2,413.4,21.3,420.5z"/>
				<path fill="#4C3E33" d="M55.7,194.7c0.6,1.7,1.3,3.4,0.4,5.2c-0.6,0.1-1.2,0.1-1.9,0C54.5,198.1,55,196.4,55.7,194.7
					C55.7,194.7,55.7,194.7,55.7,194.7L55.7,194.7z"/>
				<path fill="#4C3E33" d="M27.4,301.9c-2.1-6.9-0.9-18.1-0.6-25.1c0.3-7.5,2.5-16.4,3.8-24.6c0.2,3,0.5,6.2,0.6,9.1
					c0.1,4.9-1.7,9.7-1.7,14.4c0,4.6,1.4,9,0.8,13.9C29.8,294.3,28.2,297.9,27.4,301.9z"/>
				<path fill="#4C3E33" d="M7.8,149.5c0.1,1.1,4.8,11.5,1.5,12.9c-4,1.7-2.2-10-1.6-12.9H7.8z"/>
				<path fill="#4C3E33" d="M45.6,39.5c1.7-3.4,7.3-6.7,11.4-8c0.6-0.2,1.2-0.3,1.7-0.4C54.6,37,50.4,43.3,46,49.3
					c-3,4-3.3,5.7-3.7,10.5c-0.1,1.6-0.5,3.9-1,5.8c-0.5,0.7-1,1.5-1.5,2.1l-2.3-0.4c0.3-2.3-0.2-4.5-0.3-7.1
					c-0.1-4.4,1.4-6.7,3.7-9.8c0.6-0.8,1.2-1.6,1.9-2.5C45.2,44.7,44,42.7,45.6,39.5z"/>
				<path fill="#6A5C50" d="M41.4,65.4c0.1-0.2,0.2-0.3,0.3-0.4C41.9,64.7,41.7,64.7,41.4,65.4z M41.3,65.5
					C41.3,65.6,41.3,65.6,41.3,65.5c0.4-1.9,0.8-4.2,0.9-5.8C42.7,55,43,53.3,46,49.3c4.5-6,8.6-12.3,12.7-18.2
					c-0.5,0.1-1.1,0.2-1.7,0.4l0,0c0.7-0.2,2.4-1.2,4.6-2.6c4.5-2.8,10.9-7.3,13.8-9.7c0.6-0.5,1.1-0.9,1.4-1.2
					c0.5-0.5,0.8-1,1.2-1.5c0.9-1.3,1.5-2.7,3-4C84,10,88.8,8.5,92.6,7.3c2.9-1,5.9-1.8,8.8-2.4c11.1-2.6,21.9-3.3,33.4-2.5
					c2-0.7,4-1.5,6-2.3l0.4,0c0.1,2.6,0.4,5.2,0.6,7.8c0,0.6,0.1,1.2,0.1,1.8c-4.1,4.1-13.3,4.5-18.4,3.9c0.2,0,0.4,0.2,0.5,0.4
					c-11.2,1.4-22.9,1.2-33.5,4.1c-4,1.5-7.6,3.6-10.7,6.8c-3.8,4-7.5,7.3-12.1,10.6c-7,4.9-6.6,4.9-7.8,13.2
					c-0.5,3.2-1.8,6.4-3.3,9.5c-1.8,3.6-4,7-5.9,10.3c-3.7,6.4-6.2,11.4-7.3,19c-0.2,1.8-1.5,9.9-1.9,15.2c0-0.2-0.1-0.3-0.1-0.5
					h-1.5c0-10.8,0-21.6,0-32.5c0.6-0.7,1.1-2.2,1.5-3.8C41.3,65.6,41.3,65.6,41.3,65.5z"/>
				<path fill="#A38F7F" d="M30.8,291.1c-0.7,3.9-1.7,7.8-3,11.8c-0.1-0.3-0.2-0.7-0.4-1c0.8-4,2.4-7.6,2.9-12.3
					c0.6-4.9-0.8-9.3-0.8-13.9c0-4.7,1.8-9.5,1.7-14.4c-0.1-3-0.4-6.1-0.6-9.1c-0.1-1.9-0.3-3.8-0.3-5.6c0-2.6,0.1-5.3,0.3-8
					c0.1,0,0.2,0,0.3,0c0,1.6,0.3,3.2,0.7,4.7c0.7,2.5,1.5,4.9,1.8,7.5c0.4,5.4-0.5,10.8-0.5,16.2C32.8,275.2,32.3,283.2,30.8,291.1
					z"/>
				<path fill="#4C3E33" d="M28.3,492.3c-2.1,1.1-4.4,1.2-5.1,3.6c0.3-1.9,0.7-3.6,1.3-5.4c1.5-4.6,3.9-8.9,5.6-13.6
					c0-0.1,0.1-0.1,0.1-0.2c0.3-0.8,0.6-1.7,0.9-2.6c-0.2,0.7-0.1,1.5-0.2,2.4c0.1,0,0.3-0.3,0.5-0.5c-0.4,1.9,0.3,8.3,0.4,10.1
					C31.9,492.2,32.9,489.8,28.3,492.3z"/>
			</g>
			<g>
				<path fill="none" stroke="#6BAFD3" stroke-width="0" stroke-linecap="round" stroke-linejoin="round" d="M26.6,122.1
					c-0.1,0.6-0.2,1.2-0.3,1.8"/>
				<path fill="none" stroke="#6BAFD3" stroke-width="0" stroke-linecap="round" stroke-linejoin="round" d="M26,120.1
					c0-0.3,0-0.7-0.1-1"/>
			</g>
		</g>
	</g>
</g>
<g id="POSE2_1_" opacity="0.5">
</g>
<g id="POSE3_1_" opacity="0.5">
</g>
<g id="ch06-12-1">
	<g id="water_off_hand4" opacity="0.5">
	</g>
	<g id="water_off_hand4_copy" opacity="0.5">
	</g>
</g>
<g id="Layer_12">
	<g id="basin">
		<g id="Layer_15">
		</g>
		<g id="Layer_20">
		</g>
		<g id="Layer_14">
		</g>
		<g id="Layer_17" opacity="0.49">
			<g id="Layer_16">
			</g>
		</g>
		<g id="Layer_17_copy_2" opacity="0.49">
			<g id="Layer_16_copy">
			</g>
		</g>
		<g id="Layer_17_copy" opacity="0.49">
		</g>
	</g>
</g>
<g id="Layer_22">
	<g id="Layer_23">
	</g>
	<g id="Layer_24">
	</g>
	<g id="Layer_24_copy">
	</g>
</g>
<g id="ch02A-09-4">
	<g id="dirtydrips_x5F_fromholes">
	</g>
	<g id="dirtydrips_x5F_fromholes_copy">
	</g>
</g>
<g id="muddy_x5F_water_x5F_pose1">
</g>
<g id="muddy_x5F_water_x5F_pose2" opacity="0.61">
</g>
<g id="muddy_x5F_water_x5F_pose2_copy">
</g>
</svg>
