<?xml version="1.0" encoding="utf-8"?>
<!-- Generator: Adobe Illustrator 18.1.1, SVG Export Plug-In . SVG Version: 6.00 Build 0)  -->
<!DOCTYPE svg PUBLIC "-//W3C//DTD SVG 1.1//EN" "http://www.w3.org/Graphics/SVG/1.1/DTD/svg11.dtd">
<svg version="1.1" xmlns="http://www.w3.org/2000/svg" xmlns:xlink="http://www.w3.org/1999/xlink" x="0px" y="0px"
	 viewBox="0 0 141.8 495.9" enable-background="new 0 0 141.8 495.9" xml:space="preserve">
<g id="water_pouring_instances_-_boards">
</g>
<g id="water_pour_cycle_x5F_main_comp">
	<g id="POSE2">
		<g id="Layer_6">
		</g>
	</g>
	<g id="POSE3">
	</g>
</g>
<g id="POSE1_2_" opacity="0.5">
	<g id="POSE1_1_">
		<path fill="none" d="M17.3,399.6c-0.4-1.8-0.8-3.7-0.9-5.9c-0.1-6.7-0.4-14-0.2-21.2c-1,6.7-1.6,13.2-0.4,19.9
			C16.3,394.8,16.8,397.2,17.3,399.6z"/>
		<path fill="none" d="M137,11.1c0.1,0,0.1,0,0.2-0.1c0,0,0,0-0.1,0C137.1,11,137,11,137,11.1z"/>
		<path fill="none" d="M137.8,11.4c-0.4-0.1-0.9-0.2-1.3-0.3v0.3C136.9,11.4,137.4,11.4,137.8,11.4z"/>
		<path fill="none" d="M81.6,21.7c0.4-0.1,0.7-0.2,1.1-0.4C82.3,21.5,82,21.6,81.6,21.7z"/>
		<path fill="#95CDE9" d="M20,349c1.8-6.2,3.3-11.9,1.6-19.6c-0.1-5-1.9-10.6-2.7-15.6c-0.1-0.7-0.2-1.4-0.3-2.1
			c-0.6-5.5,1.3-11.3,0.8-17c-0.7-8.6-1.1-17.3-1-26h0c-0.8,8.3-4.5,17.1-3.9,25.5c0.4,6.7,2.2,13.1,3.1,19.8
			c0.3,1.7,0.4,3.5,0.5,5.2c0.4,7-4.3-39.5,0.8,24.8c0.1,1.7-0.4,5.6-0.8,9.1c0.5-1.3,1-2.5,1.4-3.7C19.5,349.3,19.7,349.2,20,349z"
			/>
		<path fill="#BDE5F4" d="M15.7,434.6c-0.4-1.4-0.6-3-0.8-4.5c0,3.4,0,6.8,0,10.2h0.2C15.2,438.4,15.4,436.5,15.7,434.6z"/>
		<path fill="#6BAFD3" d="M25.6,301.7c0-0.5,0-3.8,0-4.8c0.2-9.9,4.4-24.7,2.1-35.5l0.9-0.2c-0.1-0.7-0.3-1.4-0.4-2
			c-1-6.2-2.3-12.2-3.7-18.3c-1.7-7.1-1.3-13.8-1.9-21c-0.6-7.7-1.9-15.4-1.3-23.2l-1.1-0.1c-0.8,6.1-1.3,12.1-1.1,17.9
			c0.6,14.6,0.8,28.9-0.3,43.5c-0.3,3.5-0.4,7.1-0.5,10.7c-0.1,8.6,0.3,17.4,1,26c0.5,5.7-1.5,11.5-0.8,17c0.1,0.7,0.2,1.4,0.3,2.1
			c0.9,5,2.6,10.6,2.7,15.6c1.7,7.8,0.2,13.4-1.6,19.6c-0.3,0.2-0.5,0.3-0.5,0.4c-0.5,1.2-1,2.5-1.4,3.7c-5,13-10.3,27.7-8.3,41.5
			c1.1,7.5,3.5,14.6,4.4,22.2c0.5,4,0.3,8.8,0.8,13.3c0.2,1.5,0.4,3.1,0.8,4.5c0.3,1.4,0.8,2.7,1.4,3.9c0.2,0.5,1.4-0.5,1.5-0.8
			c4.8-11.2,2.1-23.2-0.6-34.7c1.8-7.1,11.9-17.2,9-23.9c-2-5.4,2.7-12.8,4.2-18.4c0,0,0,0,0,0c0.3-8.3-1-16.5-1.3-25
			c0.5-5.7-3.5-15.8-2.5-22.4l-2.4-0.4C25.7,309.2,25.6,305.5,25.6,301.7z M16.3,372.5c-0.2,7.2,0.1,14.6,0.2,21.2
			c0,2.2,0.5,4.1,0.9,5.9c-0.5-2.4-1.1-4.8-1.5-7.2C14.7,385.7,15.3,379.2,16.3,372.5z"/>
		<path fill="#95CDE9" d="M27.1,379.1c2.9,6.7-7.2,16.8-9,23.9c2.6,11.6,5.3,23.5,0.6,34.7c-0.1,0.2-1.3,1.2-1.5,0.8
			c-0.6-1.2-1.1-2.5-1.4-3.9c-0.3,1.9-0.5,3.8-0.5,5.7H15c0,0.4,0,0.7,0,1.1c0,0.6,0.1,1.6,0.3,2.9l-0.2,0c-0.7,8.6,0.8,17.3,0,25.9
			c0.2-1,0.6-1.8,0.9-2.7c0.7-1.7,1.5-3.3,1.7-5.3c0.3-3.3-0.5-6.6-0.1-9.9c0.6-6.4,3.3-12.4,4.3-18.8c2.1-14,8.9-28,10-42
			c-0.6-2.8-1.5-5.5-2.1-8.7c-0.9-4.9,0-9.5,0.8-14.4c0.5-2.6,0.7-5.2,0.8-7.7C29.7,366.2,25.1,373.6,27.1,379.1z"/>
		<path fill="#95CDE9" d="M137.1,11c-0.1,0-0.1,0-0.2,0.1C137,11,137.1,11,137.1,11c-0.3-0.1-0.5-0.2-0.7-0.2V11
			c0.4,0.1,0.9,0.2,1.3,0.3c-0.4,0-0.9,0-1.3,0c-5.6-0.1-12.8-0.2-17.9,1l0.1,0.3c-4.5,0.9-10.3,2.7-13.8,4.3
			c-1.7,0.8-3.6,1.3-5.4,1.7l0.1,0.4c6.6,0.3,14.3-2.5,21-2.9c3.6-0.3,10.8,0.2,15.9-0.6c1.6-0.3,3-0.6,4-1.2
			C140.2,12.8,138.6,11.6,137.1,11z"/>
		<path fill="#6BAFD3" d="M118.6,12.7l-0.1-0.3c5.1-1.2,12.3-1.1,17.9-1V11v-0.3c0.2,0.1,0.4,0.1,0.6,0.2c0,0,0,0,0.1,0
			c2.2-0.9,5-4.4,4.4-7c-1.7,0.2-3.4,0.9-5,1.6c-0.8,0.4-1.7,0.7-2.5,0.9c-2.8,0.7-6.1,0.3-8.7,1.8l0,0.2c-0.4-0.1-0.9-0.1-1.3-0.2
			l0-0.1c0.2,0,0.5-0.1,0.7-0.2c-7.4-2.7-18.8-0.4-26.4,0.1l-1.9,0c-2.2-0.3-4.9-0.5-7.9-0.6c-10.9-0.1-25.2,2.1-29.6,9.2l0,0.3
			c-4.5,4.5-9.2,9.3-12.3,14.9c-3.2,5.8-2.7,12-5.5,17.9c-2.6,5.4-6.1,10.3-8.2,15.9c-2.4,6.4-2.5,13.9-3.7,20.7
			c-1.2,6.7-0.7,13.6-1.7,20.3c-1.1,7.5-2.5,15-3.3,22.5c-0.9,8-1,16.2-1.2,24.2c0,0.9,0,1.8,0.1,2.8c1.1-11,3.7-22.5,4.7-32.5
			c1.7-16.3,8.6-31.3,12.1-47.2c3-13.3,8.4-27.8,18.7-37.2c2.4-2.2,3.5-3.2,5-6c0.3-0.5-0.6-1.9,0.2-3.3c2.5-4.4,12.9-6.8,18.1-8.5
			c0.4-0.1,0.7-0.3,1.1-0.4l0.3,0.5c-0.2,0.1-0.3,0.2-0.5,0.4c5.1-2.6,11.2-2.4,16.9-3.5c1.8-0.4,3.7-0.9,5.4-1.7
			C108.4,15.4,114.2,13.6,118.6,12.7z"/>
		<path fill="#BDE5F4" d="M98.1,8.1c7.7-0.5,19.1-2.7,26.4-0.1c-0.2,0-0.5,0.1-0.7,0.2l0,0.1c0.4,0,0.9,0.1,1.3,0.2l0-0.2
			c2.6-1.5,5.9-1,8.7-1.8c0.8-0.2,1.7-0.5,2.5-0.9V3v0c-7.5-0.7-14.6-1.4-22.4-0.6c-8.8,0.9-17.1,3.7-25.8,5.1c3,0,5.7,0.2,7.9,0.6
			L98.1,8.1z"/>
		<path fill="#95CDE9" d="M82.6,21.3c-0.4,0.2-0.7,0.3-1.1,0.4c-5.2,1.7-15.5,4.1-18.1,8.5c-0.8,1.4,0.1,2.8-0.2,3.3
			c-1.5,2.7-2.7,3.7-5,6c-10.2,9.5-15.7,23.9-18.7,37.2c-3.6,15.8-10.5,30.9-12.1,47.2c-1,9.9-3.6,21.4-4.7,32.5
			c0.5,5.8,2.4,13.8,0.2,18.1c0,0,0,0,0-0.1c-0.6,7.3-1.9,14.8-2.8,22.3l1.1,0.1c-0.6,7.8,0.7,15.5,1.3,23.2
			c0.5,7.2,0.2,13.9,1.9,21c1.4,6.1,2.8,12.1,3.7,18.3c0.1,0.7,0.2,1.3,0.4,2c0.6,3.1,1.5,6.4,2,9.6c0,0,0-0.1,0-0.1
			c0.5-14.3-1.7-28.4-1.4-42.5c0.2-7.4,1-14.4,2.1-21.3l-0.8-0.1c-0.5,1.3,0-4.8,0-6.5c-0.1-3.2,0-6.4,0-9.6c0-8,0.2-15.9,0.8-23.8
			c1.2-15.1,6.8-30.3,7.1-45.4l0.4,0c0.1-2.6,0.2-5.2,0.6-7.9c2.1-12.6,7.2-24.3,11.9-36.2c0.1-0.2,0.2-0.4,0.3-0.6
			c0.2-0.5,0.4-0.9,0.6-1.4c0.7-3.8,0.3-7.7,2-11.5c1.4-3.3,3.8-6,4.1-9.6l0.9,0c0-0.5,0.1-1.1,0.2-1.7c0.4-1.5,2.3-3.9,3-5.3
			c2.5-5.4,4.7-8.2,9.1-12.3c4.1-3.8,6.7-9.5,11-12.9c0.2-0.1,0.3-0.3,0.5-0.4L82.6,21.3z"/>
		<path fill="#BDE5F4" d="M54.2,63.9c-1.7,3.8-1.3,7.7-2,11.5c2.3-5,6.2-11.5,6.9-16.2c0.3-1.8,0-3.2,0-4.8l-0.9,0
			C58,57.9,55.6,60.7,54.2,63.9z"/>
		<path fill="#95CDE9" d="M56,107.5c-0.8,1.4-2.3,6.8,0.7,7c0.3-2.6,1-6-0.2-8.6C56.4,106.5,56.2,107,56,107.5z"/>
		<path fill="#6BAFD3" d="M55,90.4c-4.6,2.9-3.5,12.6-3.3,17.1C55.5,107.7,55.8,90.8,55,90.4z"/>
		<path fill="#6BAFD3" d="M49.1,374.8c0,1-1.4,10.3,0.3,10.6c1.7,0.3,0.7-8.5-0.1-10.3C49.4,375.8,49.1,376.8,49.1,374.8z"/>
		<path fill="#6BAFD3" d="M44.4,392.5c0,0.4-0.2,2.1-0.1,0.2c-0.1,1.2-2.4,11.8-0.3,11.9c4.2,0.1,1.7-9.4,0.6-12.5
			C44.5,392.2,44.5,392.3,44.4,392.5z"/>
		<path fill="#6BAFD3" d="M31.3,166.9c-0.6,7.9-0.8,15.9-0.8,23.8c0,3.2,0,6.4,0,9.6c0.1,1.8-0.5,7.8,0,6.5l0.8,0.1
			c0.9-5.3,1.9-10.5,3.1-15.9c2.8-12.7,1.1-25.9,1.6-38.7c0.3-7.3,1.7-14.1,2.4-21.4c0.3-3.2,0.3-6.3,0.4-9.5l-0.4,0
			C38.1,136.6,32.5,151.8,31.3,166.9z"/>
		<path fill="#6BAFD3" d="M17.4,452.3c-0.3,3.3,0.5,6.6,0.1,9.9c-0.2,2-1,3.6-1.7,5.3c0,7.2,0.9,14.3,0.9,21.5h13.6
			c-2.5-11.3-0.7-25.5-0.3-37c0-0.6,0-1.2,0.1-1.8v0c-1.5-4.4-2-9.4-2.1-14.6v0c0-12.5,2.9-26.5,4-37.6c0.2-2.4,0-4.4-0.4-6.5
			c-1,14-7.8,28-10,42C20.8,439.8,18.1,445.9,17.4,452.3z"/>
		<path fill="#BDE5F4" d="M30.4,489h0.5h0c0.1-5-0.5-10.1-0.4-15.1c0.1-7.4,0.3-14.6-0.4-21.9C29.8,463.5,27.9,477.8,30.4,489z"/>
		<path fill="#BDE5F4" d="M27.7,261.4c2.3,10.8-1.9,25.6-2.1,35.5c0,1,0,4.3,0,4.8c0,3.7,0,7.5-0.6,11.1l2.4,0.4
			c0.2-1.3,0.6-2.4,1.2-3.3c3.5-8.9,2.4-20.7,2-31.1c0,0.1,0,0.2,0,0.2c0-0.2,0-0.3,0-0.5c-0.1-2.7-0.2-5.4-0.1-7.8
			c-0.5-3.3-1.4-6.6-2-9.6L27.7,261.4z"/>
		<path fill="#BDE5F4" d="M28.2,435.5c0,5.3,0.6,10.3,2.1,14.6C30.3,444.1,30,439,28.2,435.5z"/>
		<path fill="#6BAFD3" d="M32.8,44.5c-4,2.4-11.9,7.1-9.7,10.9C25,58.5,30.3,48.7,32.8,44.5z"/>
		<path fill="#BDE5F4" d="M22.8,156.3c-0.6,6.3-0.7,12.4,0.2,18c0,0,0,0,0,0.1C25.2,170.1,23.3,162.1,22.8,156.3z"/>
		<path fill="#6BAFD3" d="M3.4,353.6c4.3,0.2,0.7-11.2,0.2-12.9C2,343.7-0.2,353.5,3.4,353.6z"/>
	</g>
</g>
<g id="POSE2_1_" opacity="0.5">
</g>
<g id="POSE3_1_" opacity="0.5">
</g>
</svg>
