<?xml version="1.0" encoding="utf-8"?>
<!-- Generator: Adobe Illustrator 18.1.1, SVG Export Plug-In . SVG Version: 6.00 Build 0)  -->
<!DOCTYPE svg PUBLIC "-//W3C//DTD SVG 1.1//EN" "http://www.w3.org/Graphics/SVG/1.1/DTD/svg11.dtd">
<svg version="1.1" xmlns="http://www.w3.org/2000/svg" xmlns:xlink="http://www.w3.org/1999/xlink" x="0px" y="0px"
	 viewBox="0 0 257.3 308.2" enable-background="new 0 0 257.3 308.2" xml:space="preserve">
<g id="water_pouring_instances_-_boards">
</g>
<g id="water_pour_cycle_x5F_main_comp">
	<g id="POSE2">
		<g id="Layer_6">
		</g>
	</g>
	<g id="POSE3">
	</g>
</g>
<g id="POSE1_2_" opacity="0.5">
</g>
<g id="ch04-06-1_x5F_comp">
	<g id="ch04-06-1_x5F_comp_1_">
		<g id="linked_files_for_comp">
		</g>
		<g id="comp">
		</g>
	</g>
</g>
<g id="ch04-06-1_x5F_water_splash_-_Geoff_x27_s">
	<g id="pose4">
	</g>
	<g id="pose3">
	</g>
	<g id="pose2">
	</g>
	<g id="pose1">
	</g>
</g>
<g id="ch04-06-1_x5F_water_splash_-_Stu_x27_s">
	<g id="water_x5F_alt_splash_x5F_1a_to_4a">
	</g>
	<g id="water_x5F_alt_splash_x5F_DIRTY">
		<g id="_x33_alt_1_">
			<g id="water1a_1_">
				<g opacity="0.8">
					<path fill="#A3907F" d="M141.9,89.6c2.4,3.2,0,10.9-4.8,8.4c-2.8-1.5-4-7.1-4.4-10.3c-2.3,1.9-4.9,5.7-8.2,4.8
						c-3.1-0.8-1.9-4.8-3.6-6.8c-1.7-2.1-6.1,0.1-8.3,0.5c-1.7,0.3-2.6,0.6-3.7-1c-0.4-0.6-0.7-3.3-0.4-4.1c1.1-3.2,7-0.8,5.9-4.2
						c-1.1-3.3-6.5-5.2-9-6c-1.2-0.3-3.7-1-3.6-2.9c0-2,3.3-3.1,4.7-3.1c4.6,0,7.5,4.3,10.8,6.9c3,2.4,9.1,6,7.9-1.3
						c-0.7-4.2-6.1-4.3-6.4-8c2.1-1.8,5,1,7.4,0.9c3.5-0.1,3-2.3,1-4.4c-2-2.1-5.1-5.5-1-6.9c4.9-1.7,7.4,5.4,9.9,9
						c2.8,4.2,6.4,1.2,8.6-2.7c0.8-1.5,2.6-4.4,4.6-4.3c2.2,0.1,3.2,4.6,2.9,6.4c-0.5,3.6-7.7,8.1-2.4,11.4
						c3.8,2.3,8.2-3.4,11.4,2.4c8.4,14.9-11.8,17.3-19.3,14.5c1.3,2.9,1.1,4.1,0.2,7.5"/>
					<path fill="#A3907F" d="M81.3,44.4c-3.8-3.4-8.2,8-3,7.2c1.7-0.3,3.4-2.7,3.8-4.4C82.6,44.4,80.6,44.6,81.3,44.4z"/>
					<path fill="#A3907F" d="M126.6,21.3c1.1,1,2.3,1.4,2.8,0.8c0.5-0.6,0-1.9-1-3c-1.1-1-2.3-1.4-2.8-0.8
						C125.1,18.9,125.5,20.2,126.6,21.3z"/>
					<path fill="#A3907F" d="M198.6,90c0.4,4.7,7,5.9,8.9,9.4c0.9,1.6,2,3.9,0.6,5.5c-1.5,1.8-3.8,0.6-5-0.9
						c-1.5-1.7-3.1-3.9-3.2-6.4c4,0.3,0.4-4.2-0.4-5.9C199.1,91.7,198.8,91.9,198.6,90z"/>
					<path fill="#A3907F" d="M210,81.2c0.2,1.3,1.4,2.4,1.9,3.6c0.5,1.3,1.2,2.1,1.6,3.5c0.4,1.9,1,5.2-0.5,6.9
						c-3.3,3.6-6.6-4.3-6.8-7.2C211.9,89.7,208.7,83.9,210,81.2z"/>
					<path fill="#A3907F" d="M220.2,70.1c1.4,1.8,2.4,3.3,3.6,5.5c1.3,2.5,0.7,6-2,3.8c-1.6-1.3-4.6-9.4-0.8-9
						C220.9,70.2,220.7,70.2,220.2,70.1z"/>
					<path fill="#A3907F" d="M192.6,44.9c0.9,1.1,1.9,1.7,2.2,1.3c0.3-0.3-0.1-1.5-1-2.6s-1.9-1.7-2.2-1.3
						C191.4,42.6,191.8,43.8,192.6,44.9z"/>
					<path fill="#A3907F" d="M64.1,90.1c-4,1.4-5.7,8.9-6.1,12.9c-0.2,1.4,0.1,10,2.4,10.1c4.3,0.1,1.5-13.4,1.1-15.6
						C61,94.6,64.3,92.2,64.1,90.1z"/>
					<path fill="#A3907F" d="M66.4,92.8c-0.5,1.4-0.5,2.8,0.1,3.1c0.6,0.3,1.5-0.7,2-2.1c0.5-1.4,0.5-2.8-0.1-3.1
						C67.8,90.4,66.9,91.4,66.4,92.8z"/>
					<path fill="#A3907F" d="M80.4,119.3c-0.3,1.9-4.5,4.3-6,5.5c-2.8,2.3-6.3,5.8-7.4,9.6c-1,3.4-1.7,7.4-0.4,10.9
						c0.9,2.5,3.4,4.1,5.7,2.5c2.1-1.4,2.3-5,4.4-6.3c2.2-1.4,5.2,0.7,7,2.2c2.9,2.3,3.5,6.8,5.1,10.1c1.5,3.2,5.6,6.4,6.4,1.6
						c0.6-3.9-2.3-8.1-2.2-11.9c0.1-3.3,2.3-6.1,0.8-9.4c-0.1,1.6-1.1,6.1-3.1,5.9c-2.4-0.3-2.8-4.9-2.8-6.7c0-1,0.4-4.6-0.4-5.3
						c-1.4-1.1-2.1,3.8-2.9,4.6c-1.2,1.4-2.5,1.7-2.9-0.4c-0.4-1.8,0.7-3.4,2.1-4.5c-0.9,0.4-5.9,0.6-6.8-0.7
						c-1-1.6,3.6-5.7,4.5-7.4C81.1,119.5,80.8,119.4,80.4,119.3z"/>
					<path fill="#A3907F" d="M116.7,145.9c-2.7,4.1,2.7,13.5-2.1,15.7c-4.5,2-3.9-8.4-2.7-10.9c0.7-1.3,2.5-5,4-5.2
						c0.2,0.4,0.3,1.2,0.3,1.7C115.9,147.2,115.4,147.3,116.7,145.9z"/>
					<path fill="#A3907F" d="M150.6,151.4c0.4,1.4-0.6,1.4-1.6,1c-1.1-0.4-2-1.7-2.7-2.6c-1.9-2.4-4.4-2.9-4.2,1
						c0,0.8,0.6,2.2-0.8,2.1c-0.5-0.1-1-1.2-1.3-1.6c-0.6-0.9-2-3.8-3-4c-1.6-0.3-1,1.9-1.2,3.1c-0.2,1.1-0.2,2.2-1.8,1.7
						c-0.9-0.3-1.5-2.4-2.1-2.3c-2.6,0.1,0.2,7,0.7,7.9c0.9,1.7,4.3,6.6,4.6,2.1c0.2-2.3-0.1-6.8,2.7-2.8c1.1,1.6,3.4,7.9,5.7,7.5
						c3.3-0.6,1-7.5,1.2-9.5c1.5-0.7,2.2,2,3.8,1.3C151.7,155.8,151.6,153.1,150.6,151.4z"/>
					<path fill="#A3907F" d="M176,154.9c2.5,3.7,5.6,7.2,7.4,11.6c1.8,4.3,0.9,11.1,3.9,14.6c2.1,2.5,5.6,3.9,7.1,0
						c0.7-1.8,0.9-4.5,0.9-6.5c0-1.9,0.5-4.1,0.2-6c-0.2-1.1-0.4-2.5-1-3.5c0-0.1-2.5-1.7-2-0.1c0.7,2.7-1,7.9-4.4,5.1
						c-2-1.6-3-5.8-4.4-8.1c-1.5-2.4-4.4-7.8-7.3-8.4c-3.1-0.6,1.2,3.7,2,4.6"/>
					<path fill="#A3907F" d="M179.8,185.8c0.5,1.2,0.1,3.9-0.9,5c-1.6,1.8-3-0.7-3.4-2c-0.5-1.6-1-9.2-2.7-9.6
						c-1.7-0.4,0.4,8.6-3,4.2c-2.3-2.9-2.7-6.7-3-10.3c0.7,0.8,2.1,3.5,3,2.2c0.6-0.8-0.4-3.8-0.4-4.9c1.3,1.2,1.6,3.7,3.3,4.8
						c3.2,2,0.8-2.4,1.5-3.5c0.6,0.6,1.4,1.1,1.5,2C175.6,173.6,177.1,180.2,179.8,185.8z"/>
					<path fill="#A3907F" d="M236.2,144.2c0.2,0.9,0.7,1.6,1.3,1.5c0.5-0.1,0.8-1,0.6-1.9c-0.2-0.9-0.7-1.6-1.3-1.5
						S236,143.2,236.2,144.2z"/>
					<path fill="#A3907F" d="M220,175.7c0.2,0.9,0.7,1.5,1.2,1.3c0.5-0.1,0.8-0.9,0.7-1.8c-0.2-0.9-0.7-1.5-1.2-1.3
						C220.2,174,219.9,174.8,220,175.7z"/>
					<path fill="#A3907F" d="M207.8,154.5c0.8,1.8,1.9,3.1,2.4,2.8s0.4-2-0.4-3.9c-0.8-1.8-1.9-3.1-2.4-2.8S207,152.7,207.8,154.5z"
						/>
					<path fill="#A3907F" d="M160.4,240.3c0.8,1.2,1.8,2,2.1,1.8c0.3-0.3-0.1-1.5-1-2.7s-1.8-2-2.1-1.8
						C159.1,237.8,159.5,239,160.4,240.3z"/>
					<path fill="#A3907F" d="M144,239.1c0.2,1,0.6,1.7,0.9,1.6c0.3-0.1,0.5-0.9,0.3-1.9c-0.2-1-0.6-1.7-0.9-1.6
						C144,237.3,143.8,238.2,144,239.1z"/>
					<path fill="#A3907F" d="M116.4,231.2c0.2,1.2,0.8,2.1,1.3,2c0.5-0.1,0.8-1.2,0.6-2.4c-0.2-1.2-0.8-2.1-1.3-2
						C116.5,229,116.2,230,116.4,231.2z"/>
					<path fill="#A3907F" d="M94.7,219.1c0.7,1.1,1.6,1.7,2.1,1.4s0.4-1.6-0.3-2.7c-0.7-1.1-1.6-1.7-2.1-1.4S94,218,94.7,219.1z"/>
					<path fill="#A3907F" d="M80.8,217.7c-0.7,3.5,2.2,2.5,3.6,3.6c1.4,1.1,2.3,4.4,0.5,5.4c-2.3,1.3-3.4-2-3.8-3.8
						c-0.2-0.9-0.4-1.9-0.5-2.9C80.6,219.2,80.1,217.7,80.8,217.7z"/>
					<path fill="#A3907F" d="M74.6,216.1c1.9,0.2,1.6,4.6-0.7,4.7c-1.8,0.1-2.7-1.1-3.2-2.9c-0.7-2.8,0.2-5.9-0.1-8.7
						c0.9,1.5,1.1,3.3,2,4.8C73.3,215.3,75.6,215.9,74.6,216.1z"/>
				</g>
				<g opacity="0.7">
					<g>
						<path fill="#6A5C50" d="M128.1,22.3c-0.2,0.2-0.4,0.3-0.6,0.5l-0.1,0.1l-0.1-0.1c-0.7-0.4-1.4-1-1.9-1.7
							c-0.1-0.2-0.2-0.4-0.3-0.6c-0.1-0.2-0.1-0.5-0.1-0.8c0-0.3,0.1-0.6,0.3-0.8c0.2-0.3,0.4-0.4,0.6-0.5c0.1-0.1,0.2-0.1,0.4-0.2
							c0.1,0,0.2-0.1,0.3-0.1c0.3-0.1,0.5-0.1,0.8,0c0.5,0.1,0.9,0.4,1.2,0.7c0.6,0.7,0.9,1.5,1,2.3c-0.5-0.7-0.9-1.3-1.5-1.8
							c-0.3-0.2-0.6-0.3-0.9-0.4c-0.1,0-0.3,0-0.4,0c-0.1,0-0.2,0.1-0.3,0.1c0,0-0.1,0.1-0.2,0.1c-0.1,0.1-0.2,0.2-0.3,0.2
							c-0.1,0.1-0.1,0.2-0.1,0.3c0,0.1,0,0.3,0,0.4c0,0.2,0.1,0.3,0.2,0.5c0.3,0.6,0.8,1.3,1.3,1.9l-0.2,0
							C127.6,22.4,127.8,22.4,128.1,22.3z"/>
					</g>
					<g>
						<path fill="#6A5C50" d="M81.2,45.3c0,0-0.7,0.2-1.7,0.7c-0.5,0.2-1,0.5-1.5,0.9c-0.3,0.2-0.5,0.4-0.7,0.6
							c-0.2,0.2-0.4,0.5-0.5,0.7c-0.1,0.2-0.1,0.3-0.2,0.5c0,0.1-0.1,0.3-0.1,0.4c0,0.3,0,0.5,0.1,0.7c0.2,0.4,0.7,0.6,1.2,0.6
							c0.5,0,0.9-0.1,1.2-0.2c0.3-0.1,0.5-0.2,0.5-0.2s0,0-0.1,0.1c-0.1,0.1-0.1,0.2-0.3,0.3c-0.3,0.2-0.7,0.4-1.3,0.6
							c-0.3,0-0.6,0.1-1-0.1c-0.4-0.1-0.8-0.3-1-0.7c-0.2-0.4-0.3-0.9-0.3-1.3c0-0.2,0.1-0.4,0.1-0.6c0.1-0.2,0.1-0.3,0.2-0.5
							c0.4-0.8,1-1.4,1.7-1.7c0.6-0.4,1.3-0.6,1.8-0.7C80.4,45.2,81.2,45.3,81.2,45.3z"/>
					</g>
					<path fill="none" stroke="#6A5C50" stroke-miterlimit="10" d="M67.7,91c-0.7,0.8-3.2,5.7-0.4,4.5c0.5-1.3,0.9-2.6,0.5-4"/>
					<g>
						<path fill="#6A5C50" d="M64.3,90.7c0,0-0.1,0.1-0.4,0.3c-0.2,0.2-0.5,0.6-0.8,1.1c-0.6,1-1.4,2.5-2.1,4.4
							c-0.4,0.9-0.8,2-1.1,3c-0.1,0.3-0.2,0.5-0.2,0.8c-0.1,0.3-0.1,0.6-0.2,0.9c-0.1,0.6-0.3,1.2-0.4,1.8c-0.3,1.2-0.5,2.5-0.5,3.7
							c0,0.6,0,1.2,0.1,1.8c0,0.3,0.1,0.6,0.2,0.8c0.1,0.4,0.2,0.5,0.3,0.8c0.3,0.5,0.6,1,1,1.5c0.4,0.4,0.8,0.8,1.1,0.9
							c0.1,0,0.1,0,0.2,0c0.1,0,0.2-0.2,0.3-0.4l0,0l0,0l0,0c0-0.1,0,0.1,0,0l0-0.1l0.1-0.2c0-0.1,0-0.2,0.1-0.3
							c0-0.3,0.1-0.5,0.1-0.8c0-1.2-0.1-2.4-0.1-3.6c0-0.6-0.1-1.2,0-1.8c0-0.6,0.1-1.1,0.2-1.6c0.2-2.1,0.7-3.7,0.9-4.9
							c0.1-0.6,0.3-1,0.4-1.3c0-0.1,0.1-0.1,0.1-0.2c0,0,0-0.1,0.1-0.1c0,0,0,0.1,0,0.1c0,0.1,0,0.1,0,0.1c0,0,0-0.4-0.1,0.1
							c0,0.3,0,0.8-0.1,1.4c0,1.2-0.2,2.9-0.2,4.9c0,0.5,0,1,0,1.6c0,0.5,0.1,1.1,0.2,1.6c0.2,1.1,0.4,2.4,0.4,3.7
							c0,0.3,0,0.7-0.1,1.1c0,0.2-0.1,0.4-0.1,0.6l-0.1,0.2l0,0.1l0,0.1l0,0l0,0l0,0.1c-0.2,0.4-0.4,0.8-0.9,1.1
							c-0.1,0.1-0.3,0.2-0.4,0.2c-0.1,0-0.3,0.1-0.5,0.1c-0.3,0.1-0.6,0-0.9,0c-1-0.3-1.6-0.9-2.1-1.4c-0.5-0.6-0.9-1.2-1.3-1.9
							c-0.2-0.3-0.4-0.8-0.4-1.1c-0.1-0.4-0.2-0.8-0.3-1.2c-0.1-0.8-0.1-1.5-0.1-2.2c0.1-1.4,0.4-2.8,0.8-4c0.4-1.3,0.7-2.4,1.2-3.6
							c0.5-1.1,1-2.1,1.5-3c1-1.8,2-3.2,2.9-4.1c0.4-0.4,0.8-0.7,1.1-0.9C64.2,90.7,64.3,90.7,64.3,90.7z"/>
					</g>
					<g>
						<path fill="#6A5C50" d="M80.9,121.3c-1.5,1-2.9,2.1-4.2,3.2c-1.3,1.1-2.6,2.4-3.7,3.7c-1.1,1.3-2.2,2.7-3,4.2
							c-0.4,0.7-0.8,1.5-1.1,2.3c-0.3,0.8-0.4,1.5-0.6,2.4c-0.2,1.7-0.3,3.4-0.1,5.1c0.2,1.6,0.6,3.3,1.6,4.2
							c0.3,0.2,0.5,0.4,0.8,0.4c0.1,0,0.2,0.1,0.2,0.1l0.3,0c0.2,0,0.2,0,0.4,0c0.5-0.1,1-0.5,1.5-1.1c0.5-0.6,0.9-1.4,1.4-2.1
							c0.5-0.8,1-1.6,1.8-2.3c0.4-0.4,0.9-0.7,1.5-0.8c0.6-0.2,1.2-0.1,1.8,0c1.1,0.3,2,0.8,2.7,1.3c1.6,1.2,2.7,2.6,3.8,4
							c0.5,0.7,1.1,1.4,1.5,2.3c0.4,0.9,0.8,1.7,1.1,2.5c0.6,1.6,1.2,3.3,2.1,4.7c0.4,0.7,0.9,1.3,1.5,1.7l0.2,0.1l0.1,0
							c0,0,0.1,0-0.1,0l0,0l0,0l0.2,0.1l0.3,0.1c0.1,0,0.1,0,0.2,0c0.1,0,0.2,0,0.3,0c0.1-0.1,0.2-0.1,0.3-0.2
							c0.4-0.4,0.6-1.3,0.6-2.1c0.1-0.8,0-1.7-0.2-2.5c-0.1-0.4-0.2-0.8-0.4-1.2l-0.5-1.2c-0.4-0.8-0.7-1.6-1-2.5
							c-0.3-0.8-0.6-1.7-0.7-2.6c-0.1-0.9,0-1.9,0.4-2.7l0.1-0.1l0.1,0.1c0.3,0.5,0.4,1,0.4,1.5c-0.1-0.5-0.2-1-0.5-1.4l0.2,0
							c-0.6,1.7,0,3.4,0.7,5c0.4,0.8,0.8,1.6,1.2,2.3l0.7,1.2c0.2,0.4,0.4,0.9,0.5,1.3c0.3,0.9,0.4,1.8,0.4,2.8c0,0.5,0,1-0.1,1.4
							c-0.1,0.5-0.3,1-0.7,1.5c-0.2,0.2-0.5,0.4-0.8,0.6c-0.3,0.1-0.6,0.2-1,0.2c-0.2,0-0.4,0-0.5,0l-0.3-0.1l-0.2,0l0,0l0,0
							c-0.2-0.1-0.1,0-0.1,0l-0.1,0l-0.4-0.2c-0.9-0.5-1.6-1.3-2.1-2.1c-1.1-1.6-1.7-3.3-2.4-4.9c-0.3-0.8-0.7-1.6-1.1-2.3
							c-0.3-0.7-0.9-1.4-1.4-2c-1-1.4-2.2-2.7-3.4-3.6c-0.7-0.5-1.4-0.8-2-1c-0.6-0.1-1.1,0-1.6,0.4c-0.5,0.4-1,1.1-1.4,1.8
							c-0.5,0.7-0.9,1.5-1.5,2.3c-0.3,0.4-0.7,0.8-1.1,1.1c-0.5,0.3-1,0.6-1.6,0.7c-0.3,0.1-0.7,0-0.9,0l-0.3,0
							c-0.2,0-0.3-0.1-0.5-0.1c-0.6-0.2-1.1-0.5-1.5-0.9c-0.8-0.8-1.2-1.8-1.5-2.7c-0.3-0.9-0.4-1.9-0.5-2.8c-0.2-1.9,0-3.7,0.3-5.5
							c0.2-0.9,0.4-1.9,0.8-2.7c0.4-0.8,0.8-1.6,1.3-2.4c1-1.5,2.1-2.9,3.4-4.2C74.8,125,77.8,122.9,80.9,121.3z"/>
					</g>
					<path fill="none" stroke="#6A5C50" stroke-miterlimit="10" d="M92.6,135.8c1.6,2.5-1.5,6.7-3.4,2.5c-0.8-1.8-1.4-4.9-1-6.8"/>
					<path fill="none" stroke="#6A5C50" stroke-miterlimit="10" d="M86.8,128.9c0.4,2.1-3.2,5.6-5.1,4.5c-2.8-1.5-0.2-4.9,1.5-5.8
						c-0.9,0.2-4.8,1.1-5.5,0.6c-1.7-1.2-0.1-3.1,0.9-4.1"/>
					<g>
						<path fill="#6A5C50" d="M151.8,72.9c0,0-0.1,0.1-0.4,0.2c-0.3,0.1-0.8,0.3-1.4,0.2c-0.6-0.1-1.3-0.3-2-0.8
							c-0.7-0.5-1.4-1.1-1.9-2.1c-0.2-0.5-0.4-1-0.5-1.7c0-0.7,0.1-1.3,0.5-1.9c0.6-1.1,1.6-1.9,2.4-2.8c0.4-0.4,0.8-0.8,1.2-1.2
							c0.1-0.2,0.3-0.4,0.4-0.6l0.4-0.8c0.3-0.9,0.4-2.1,0.2-3.1c-0.2-1-0.8-2-1.6-2.4l-0.3-0.2c-0.1,0-0.2,0-0.3-0.1
							c-0.2-0.1-0.4,0-0.6,0c-0.2,0.1-0.4,0.1-0.6,0.2l-0.6,0.4l-0.5,0.5c-0.2,0.2-0.3,0.4-0.5,0.6l-0.2,0.3l-0.1,0.1c0,0,0,0,0,0
							l0,0l-0.1,0.2c-0.1,0.2-0.3,0.5-0.4,0.7c-0.5,0.9-0.9,1.9-1.3,2.8c-0.4,0.9-0.9,1.7-1.6,2.3c-0.6,0.6-1.3,0.9-1.9,1
							c-0.6,0.2-1,0.2-1.3,0.3c-0.3,0-0.5,0-0.5,0s0.2-0.1,0.4-0.2c0.3-0.1,0.7-0.3,1.2-0.5c0.5-0.3,1-0.6,1.5-1.2
							c0.4-0.6,0.8-1.3,1-2.2c0.3-0.9,0.5-1.9,1-3c0.1-0.3,0.2-0.5,0.4-0.8L144,57l0,0l0-0.1l0.1-0.1l0.2-0.4
							c0.2-0.3,0.3-0.6,0.5-0.8c0.2-0.2,0.5-0.5,0.7-0.8c0.3-0.2,0.6-0.4,0.9-0.6c0.3-0.2,0.7-0.3,1.1-0.4c0.8-0.1,1.7-0.1,2.4,0.4
							c1.5,0.8,2.3,2.3,2.6,3.7c0.3,1.5,0.2,2.9-0.4,4.4l-0.4,0.8c-0.2,0.4-0.4,0.7-0.7,0.9c-0.5,0.5-0.9,1-1.4,1.4
							c-0.9,0.8-1.8,1.5-2.3,2.2c-0.5,0.7-0.5,1.5-0.2,2.3c0.3,0.8,0.8,1.5,1.3,2c0.5,0.5,1.1,0.8,1.6,1c0.5,0.2,0.9,0.2,1.2,0.1
							C151.7,72.9,151.8,72.9,151.8,72.9z"/>
					</g>
					<g>
						<path fill="#6A5C50" d="M143,61.9l0.3,0.2l0.1,0.1l-0.1,0.2c-0.4,0.7-1.1,1.2-1.8,1.6c-0.8,0.4-1.6,0.5-2.4,0.5
							c-0.8,0-1.7-0.1-2.5-0.5c-0.4-0.2-0.8-0.4-1.2-0.7l-0.2-0.2l-0.3-0.2c-0.2-0.2-0.3-0.3-0.5-0.5c-0.6-0.7-0.9-1.5-1.2-2.3
							c-0.2-0.8-0.4-1.5-0.6-2.2c-0.1-0.3-0.2-0.7-0.3-1c-0.2-0.4-0.3-0.6-0.4-0.9c-0.4-0.6-0.9-1.1-1.5-1.5c-0.6-0.4-1.2-0.8-1.9-1
							c-0.7-0.3-1.4-0.4-2.1-0.4c-0.7,0-1.4,0.3-1.6,0.8c-0.2,0.6,0,1.3,0.3,1.9c0.1,0.2,0.2,0.3,0.3,0.5c0.1,0.2,0.2,0.3,0.3,0.5
							c0.2,0.3,0.4,0.6,0.7,0.8c0.5,0.5,1,1.1,1.6,1.6c0.5,0.6,1.1,1.2,1.6,1.9c0.5,0.7,0.9,1.5,1.1,2.3l0.2,0.6l-0.5,0.4
							c-0.3,0.2-0.7,0.5-1.1,0.7c-0.4,0.2-0.9,0.3-1.4,0.4c-0.5,0-1,0-1.4-0.2c-0.5-0.1-0.8-0.3-1.2-0.5c-0.7-0.4-1.3-0.8-1.9-1.1
							c-0.3-0.2-0.6-0.3-0.9-0.4l-0.1,0c0.1,0-0.1,0-0.1,0c-0.1,0-0.2,0-0.2,0c-0.1,0-0.3,0-0.4-0.1c-0.3,0-0.6,0-0.9,0
							c-0.3,0-0.5,0.1-0.6,0.2c-0.1,0.1,0,0-0.1,0.1c0,0.1,0,0.2,0.1,0.3c0,0,0.1,0.2,0,0.1l0.1,0.2c0,0,0,0,0,0.1
							c0,0,0.1,0.1,0.1,0.1c0.1,0.1,0.2,0.1,0.3,0.2c0.3,0.1,0.7,0.2,1.1,0.4c0.5,0.2,0.9,0.7,1,1.2c0.2,0.5,0.1,0.9,0.1,1.3l0,0.3
							l-0.2,0.1c-0.6,0.3-1.2,0.5-1.8,0.6c-0.6,0.1-1.2,0-1.8-0.1l0-0.2c0.6-0.1,1.2-0.2,1.7-0.3c0.5-0.2,1-0.5,1.4-0.8l-0.2,0.4
							c-0.1-0.3-0.1-0.7-0.2-0.9c-0.1-0.2-0.2-0.3-0.5-0.4c-0.2-0.1-0.6-0.1-1-0.2c-0.4-0.1-0.9-0.3-1.4-0.8l-0.2-0.2
							c-0.1-0.2-0.1-0.2-0.2-0.4c-0.1-0.2-0.2-0.5-0.3-0.7c-0.1-0.3-0.1-0.6,0.1-1c0.1-0.4,0.3-0.6,0.6-0.9c0.5-0.4,1-0.5,1.4-0.6
							c0.5-0.1,0.9-0.1,1.3-0.1c0.2,0,0.4,0,0.7,0.1c0.1,0,0.3,0,0.3,0.1l0.2,0l0.2,0.1c0.4,0.1,0.8,0.3,1.2,0.5
							c0.4,0.2,0.7,0.4,1,0.6c0.3,0.2,0.6,0.4,0.9,0.5c0.3,0.1,0.6,0.3,0.8,0.4c0.3,0.1,0.5,0.1,0.7,0.1c0.2,0,0.5-0.1,0.7-0.2
							c0.3-0.1,0.5-0.3,0.8-0.4l-0.4,1c-0.3-1.3-1-2.4-2-3.6c-0.5-0.6-0.9-1.2-1.4-1.9c-0.2-0.3-0.4-0.7-0.6-1.1
							c-0.1-0.2-0.2-0.4-0.3-0.5c-0.1-0.2-0.2-0.4-0.2-0.6c-0.3-0.8-0.5-1.7-0.1-2.5c0.2-0.4,0.6-0.7,1-0.9c0.4-0.2,0.8-0.2,1.2-0.3
							c0.8,0,1.6,0.1,2.4,0.3c0.8,0.2,1.5,0.5,2.2,0.9c0.7,0.4,1.4,0.8,2,1.5c0.3,0.3,0.6,0.8,0.8,1.1c0.2,0.4,0.4,0.8,0.5,1.2
							c0.6,1.5,0.8,3,1.5,4c0.1,0.1,0.2,0.3,0.3,0.3l0.1,0.2l0.2,0.2c0.2,0.2,0.5,0.4,0.8,0.5c0.6,0.3,1.2,0.5,1.9,0.6
							c1.4,0.2,2.8-0.1,4-1l0,0.2l-0.2-0.2L143,61.9z"/>
					</g>
					<g>
						<path fill="#6A5C50" d="M124.8,69.7c0.3,1,0.5,2,0.6,3.1c0,1,0,2.2-0.7,3.2c-0.4,0.5-1.1,0.7-1.7,0.6c-0.3,0-0.6-0.1-0.8-0.2
							c-0.3-0.1-0.5-0.2-0.8-0.3c-1-0.5-1.9-1.1-2.6-1.9c-1.5-1.5-2.7-3.2-4.2-4.5c-0.4-0.3-0.7-0.6-1.2-0.9
							c-0.4-0.3-0.8-0.5-1.3-0.8c-0.9-0.5-1.8-0.8-2.7-1c-0.9-0.2-1.9-0.2-2.8-0.1c-0.9,0.2-1.9,0.5-2.7,0.8
							c-0.4,0.2-0.6,0.5-0.6,0.6c0,0.1,0,0.3,0.3,0.6c0.2,0.4,1.1,0.5,2.1,0.6c0.5,0,1,0,1.7,0.2c0.4,0.1,0.5,0.2,0.8,0.3
							c0.3,0.1,0.6,0.2,0.8,0.4c1,0.5,1.9,1.1,2.8,1.7c0.9,0.7,1.7,1.5,2.4,2.4c0.7,0.9,1.3,2,1.5,3.2l0.1,0.7l-0.7,0.3
							c-0.9,0.4-1.8,0.6-2.6,0.8c-0.8,0.2-1.5,0.5-1.8,0.9c-0.4,0.4-0.6,1.1-0.6,1.8c0,0.2,0,0.5,0,0.6c0,0.2,0,0.3,0,0.5
							c0.1,0.3,0.2,0.6,0.3,0.7c0.3,0.3,0.9,0.5,1.7,0.5c0.8,0,1.6-0.2,2.4-0.4l2.6-0.6c0.9-0.2,1.9-0.3,3,0c0.5,0.2,1,0.5,1.4,0.9
							c0.4,0.4,0.6,0.8,0.8,1.3c0.2,0.5,0.3,0.9,0.5,1.3c0.1,0.4,0.2,0.9,0.4,1.3c0.2,0.8,0.4,1.7,0.9,2c0.5,0.4,1.4,0.3,2.2,0.3
							c0.4,0,0.8-0.1,1.3-0.1c0.4-0.1,0.8-0.2,1.2-0.3c0.8-0.3,1.5-0.7,2.2-1.2c1.3-1.1,2-2.8,2.3-4.4l0,0c0-0.2-0.3-0.4-0.5-0.4
							c0.2,0,0.5,0.1,0.6,0.3l0,0l0,0c-0.1,0.9-0.3,1.7-0.6,2.6c-0.3,0.8-0.8,1.6-1.4,2.3c-0.6,0.7-1.4,1.2-2.3,1.5
							c-0.4,0.2-0.9,0.3-1.3,0.4c-0.4,0.1-0.9,0.2-1.3,0.2c-0.4,0.1-0.9,0.1-1.4,0.1c-0.5,0-1-0.1-1.5-0.4c-0.5-0.3-0.8-0.8-1-1.3
							c-0.2-0.5-0.3-0.9-0.5-1.3c-0.1-0.4-0.3-0.8-0.4-1.2c-0.1-0.4-0.3-0.8-0.5-1.1c-0.2-0.3-0.4-0.6-0.6-0.9
							c-0.2-0.2-0.5-0.4-0.8-0.5c-0.6-0.2-1.4-0.1-2.2,0.1c-0.8,0.2-1.7,0.5-2.5,0.7c-0.8,0.2-1.7,0.4-2.7,0.5c-0.5,0-1,0-1.6-0.1
							c-0.6-0.1-1.2-0.4-1.6-0.9c-0.5-0.5-0.6-1.1-0.8-1.6c-0.1-0.3-0.1-0.6-0.1-0.8c0-0.3,0-0.4,0-0.7c0-0.5,0.1-1,0.2-1.5
							c0.2-0.5,0.4-1.1,0.8-1.5c0.8-0.9,1.9-1.2,2.7-1.5c0.9-0.2,1.7-0.4,2.3-0.8l-0.6,1.1c-0.2-0.8-0.6-1.6-1.1-2.3
							c-0.6-0.7-1.3-1.4-2-2c-0.8-0.6-1.6-1.1-2.4-1.5c-0.2-0.1-0.4-0.2-0.6-0.3c-0.2-0.1-0.5-0.2-0.7-0.2c-0.3-0.1-0.8-0.1-1.3-0.2
							c-0.5,0-1.1-0.1-1.7-0.2c-0.3-0.1-0.6-0.2-1-0.4c-0.1-0.1-0.4-0.3-0.5-0.4l-0.1-0.1l0,0c-0.1-0.1,0,0-0.1-0.1l0,0l0-0.1
							l-0.1-0.1c-0.2-0.3-0.4-0.6-0.5-1c-0.1-0.4-0.1-0.9,0-1.3c0.3-0.9,1-1.3,1.5-1.6c1.1-0.5,2.1-0.8,3.3-1
							c1.1-0.1,2.3-0.1,3.4,0.2c1.1,0.3,2.1,0.7,3.1,1.3c0.5,0.3,0.9,0.6,1.4,0.9c0.4,0.3,0.9,0.7,1.3,1c1.6,1.5,2.7,3.3,4.1,4.8
							c0.7,0.7,1.4,1.4,2.3,1.9c0.8,0.5,1.8,0.8,2.5,0.2c0.6-0.7,0.8-1.8,0.8-2.8C125,71.7,124.9,70.7,124.8,69.7z"/>
					</g>
					<g>
						<path fill="#6A5C50" d="M140.6,83.3c0,0,0.1,0.5,0.3,1.3c0.2,0.8,0.6,1.9,1.1,3.3c0.3,0.7,0.6,1.4,0.8,2.2
							c0.3,0.8,0.6,1.6,0.8,2.6c0.2,0.9,0.4,2,0.1,3.2c-0.3,1.2-1.3,2.3-2.4,2.7c-0.5,0.3-1.1,0.4-1.6,0.5l-0.2,0l-0.2,0l-0.4,0
							c-0.3,0-0.6,0-0.9,0c-0.6,0-1.2-0.2-1.7-0.4c-0.6-0.3-1-0.7-1.3-1.2c-0.7-0.9-0.9-1.9-1-2.8c-0.2-0.9-0.2-1.7-0.2-2.4
							c-0.1-1.4-0.2-2.6-0.6-3.3c-0.4-0.7-1-0.8-1-0.8c0,0,0.1,0,0.4,0c0.2,0.1,0.6,0.2,0.9,0.5c0.7,0.7,1.1,1.9,1.4,3.4
							c0.2,0.7,0.3,1.5,0.6,2.2c0.2,0.7,0.5,1.5,1,2c0.4,0.5,1,0.7,1.8,0.8c0.2,0,0.3,0,0.5,0l0.4-0.1l0.2,0c0,0,0.1,0,0.1,0
							c0.4-0.1,0.8-0.2,1.2-0.4c0.7-0.3,1.1-0.8,1.3-1.4c0.2-0.7,0.2-1.5,0.1-2.3c-0.2-1.7-0.7-3.3-1-4.8c-0.3-1.4-0.4-2.7-0.4-3.5
							c0-0.4,0-0.8,0.1-1C140.6,83.4,140.6,83.3,140.6,83.3z"/>
					</g>
					<g>
						<path fill="#6A5C50" d="M143.3,76.1c0,0,0.1,0.1,0.4,0.4c0.3,0.2,0.7,0.5,1.3,0.4c0.6-0.1,1.3-0.5,2-1.1
							c0.7-0.6,1.4-1.3,2.3-2.2c0.4-0.4,0.8-0.9,1.4-1.4c0.2-0.2,0.5-0.4,0.8-0.7c0.3-0.2,0.6-0.4,1-0.6c1.3-0.7,3.2-1.2,5-0.7
							c0.9,0.2,1.7,0.7,2.5,1.2c0.8,0.7,1.2,0.9,1.9,1.7c0.7,0.7,1.1,1.4,1.6,2.2l0.6,1.3c0.2,0.4,0.3,0.9,0.4,1.3
							c0.4,1.8,0.2,3.7-0.4,5.4c-0.6,1.7-1.7,3.1-2.9,4.2c-1.2,1.1-2.7,1.9-4.1,2.3c-0.4,0.1-0.7,0.2-1.1,0.3
							c-0.3,0.1-0.6,0.1-1,0.2c-0.7,0.1-1.3,0.1-1.9,0.1c-2.5,0-4.4-0.3-5.8-0.5c-1.4-0.2-2.2-0.3-2.2-0.3s0.8-0.1,2.2-0.2
							c1.4-0.1,3.4-0.2,5.6-0.6c0.6-0.1,1.1-0.2,1.7-0.4c0.3-0.1,0.6-0.2,0.9-0.3c0.3-0.1,0.5-0.2,0.8-0.3c1.1-0.5,2.2-1.2,3.1-2.1
							c0.9-0.9,1.6-2.1,2-3.3c0.4-1.2,0.5-2.6,0.2-3.8c-0.1-0.3-0.2-0.6-0.3-0.9l-0.4-0.9c-0.3-0.6-0.7-1.2-1.1-1.6l-0.3-0.4
							c-0.1-0.1-0.3-0.3-0.4-0.4l-0.8-0.7c-0.5-0.4-1-0.7-1.5-0.9c-1-0.3-2.2-0.2-3.3,0.2c-0.3,0.1-0.5,0.2-0.8,0.4
							c-0.2,0.1-0.5,0.3-0.8,0.5c-0.5,0.3-1,0.7-1.4,1c-0.9,0.7-1.9,1.4-2.8,1.8c-0.9,0.5-1.8,0.8-2.6,0.7c-0.8,0-1.3-0.6-1.5-0.9
							C143.4,76.3,143.3,76.1,143.3,76.1z"/>
					</g>
					<g>
						<path fill="#6A5C50" d="M219.4,70.1c0,0,0.1,0,0.3,0c0.2,0,0.5,0.1,0.8,0.2c0.6,0.3,1.5,0.9,2.3,1.8c0.8,0.9,1.7,2,2.4,3.3
							c0.4,0.7,0.7,1.4,0.9,2.3c0.1,0.4,0.2,0.9,0.1,1.5c-0.1,0.5-0.4,1.2-0.9,1.6l-0.2,0.1l-0.1,0.1l-0.1,0l-0.2,0.1l0,0
							c-0.1,0-0.1,0.1-0.5,0.1c-0.3,0-0.5,0-0.6-0.1c-0.2,0-0.3-0.1-0.4-0.2c-0.5-0.3-0.8-0.6-1.1-0.9c-0.6-0.6-1-1.3-1.4-1.9
							c-0.4-0.7-0.7-1.4-0.9-2c-0.2-0.7-0.3-1.4-0.4-1.9c-0.1-1.2-0.1-2.2,0-2.9C219.3,70.5,219.4,70.1,219.4,70.1z M219.4,70.1
							c0,0,0.1,0.4,0.3,1c0.2,0.7,0.4,1.6,0.8,2.7c0.2,0.6,0.4,1.1,0.6,1.6c0.3,0.5,0.6,1.1,1,1.6c0.4,0.5,0.9,1.1,1.3,1.5
							c0.2,0.2,0.5,0.4,0.7,0.5c0,0,0.1,0,0.1,0c0,0,0,0-0.1,0c-0.2,0.1,0,0,0.1,0l0,0l0,0c-0.1,0,0.2-0.1-0.1,0.1l0,0l0,0
							c0,0,0,0,0,0c0.1,0,0.1-0.1,0.2-0.3c0-0.2,0-0.5,0-0.8c-0.1-0.6-0.3-1.3-0.6-1.9c-0.5-1.2-1.1-2.4-1.7-3.3
							c-0.6-0.9-1.2-1.7-1.6-2.1c-0.2-0.2-0.4-0.4-0.6-0.4C219.5,70.1,219.4,70.1,219.4,70.1z"/>
					</g>
					<g>
						<path fill="#6A5C50" d="M209.8,80.6c0,0,0.3,0.3,0.8,0.9c0.5,0.6,1.1,1.3,1.9,2.4c0.7,1,1.5,2.3,2.2,3.8
							c0.3,0.7,0.6,1.5,0.8,2.4c0.2,0.9,0.3,1.8,0.2,2.7c-0.1,0.5-0.1,0.9-0.3,1.4c-0.1,0.2-0.1,0.4-0.3,0.7
							c-0.1,0.2-0.2,0.3-0.3,0.6c-0.2,0.4-0.5,0.8-1,1.2c-0.4,0.4-1.1,0.6-1.8,0.5c-0.6-0.1-1.1-0.4-1.4-0.6
							c-0.4-0.3-0.6-0.6-0.9-0.9c-0.5-0.6-0.8-1.2-1.1-1.8c-0.6-1.1-1-2.1-1.2-2.8c-0.2-0.7-0.4-1.1-0.4-1.1s0.3,0.3,0.7,0.9
							c0.4,0.6,1.1,1.4,1.8,2.3c0.4,0.5,0.8,1,1.3,1.4c0.4,0.4,1.1,0.8,1.4,0.8c0.1,0,0.2,0,0.4-0.2c0.1-0.2,0.3-0.4,0.5-0.7
							c0.1-0.1,0.2-0.3,0.2-0.5c0.1-0.1,0.1-0.3,0.2-0.5c0.1-0.3,0.1-0.7,0.2-1c0.1-0.7,0.1-1.4-0.1-2.2c-0.1-0.7-0.3-1.5-0.5-2.1
							c-0.2-0.7-0.5-1.4-0.7-2c-0.3-0.6-0.5-1.2-0.8-1.8c-0.5-1.1-0.9-2.1-1.2-2.7C210,81,209.8,80.6,209.8,80.6z"/>
					</g>
					<g>
						<path fill="#6A5C50" d="M210.1,82.4c0,0,0,0.1,0.1,0.4c0.1,0.2,0.1,0.5,0.2,0.9c0.2,0.8,0.3,1.8,0.3,2.9
							c0,0.5-0.1,1.1-0.3,1.6c-0.1,0.3-0.2,0.5-0.4,0.7c-0.2,0.2-0.4,0.4-0.7,0.5c-0.5,0.1-0.9-0.1-1.1-0.3
							c-0.2-0.2-0.3-0.3-0.3-0.3s0.1,0,0.4,0.1c0.2,0,0.6,0.1,0.8-0.1c0.4-0.3,0.5-1.3,0.6-2.3c0-1,0.1-2.1,0.2-2.9
							c0-0.4,0.1-0.7,0.2-1C210.1,82.5,210.1,82.4,210.1,82.4z"/>
					</g>
					<g>
						<path fill="#6A5C50" d="M198.6,91.3c0.4,0.5,0.9,0.9,1.5,1.3c0.5,0.4,1.1,0.7,1.7,1.1c1.1,0.7,2.3,1.4,3.4,2.2
							c1.1,0.8,2.2,1.6,3.2,2.6c0.5,0.5,1,1.1,1.3,1.8c0.4,0.7,0.6,1.6,0.5,2.5c-0.1,0.5-0.3,0.9-0.5,1.3l-0.2,0.3l0,0.1l0,0l0,0
							l0,0l-0.1,0.1l-0.1,0.1c-0.1,0.1-0.2,0.2-0.4,0.4c-0.9,0.7-1.8,0.7-2.6,0.7c-0.8-0.1-1.5-0.3-2.2-0.5
							c-0.7-0.3-1.3-0.6-1.9-1.1c-0.3-0.2-0.6-0.4-0.9-0.8c-0.1-0.1-0.2-0.2-0.3-0.4c-0.1-0.2-0.3-0.3-0.4-0.5
							c-0.4-0.6-0.7-1.3-0.9-2c-0.5-1.3-0.8-2.5-1.5-3.4l0.8-0.6c0.3,0.6,0.9,1.2,1.6,1.6c0.2,0.1,0.3,0.1,0.5,0.2
							c0.2,0,0.3,0,0.4-0.1c0.1-0.1,0.2-0.3,0.3-0.5c0.1-0.2,0.1-0.4,0.1-0.6c0,0.2,0.1,0.4,0.1,0.7c0,0.2,0,0.5-0.2,0.7
							c-0.1,0.2-0.4,0.4-0.7,0.4c-0.3,0-0.5,0-0.7-0.1c-0.5-0.1-0.9-0.3-1.3-0.6c-0.4-0.3-0.8-0.6-1-1l-2-3.1l2.8,2.4
							c0.6,0.5,1,1.1,1.4,1.7c0.3,0.6,0.6,1.3,0.9,1.8c0.3,0.6,0.6,1.1,0.9,1.6c0.1,0.1,0.2,0.2,0.2,0.3c0.1,0.1,0.2,0.2,0.3,0.4
							c0.1,0.1,0.4,0.3,0.6,0.5c1,0.6,2.2,1.1,3.2,1.1c0.5,0,1-0.1,1.2-0.2c0,0,0.2-0.1,0.3-0.3l0.1-0.1c0,0-0.1,0.1-0.1,0.1l0,0
							l0,0l0,0l0,0l0.1-0.1c0.1-0.2,0.2-0.4,0.2-0.6c0.2-0.8-0.4-1.9-1.2-2.8c-0.8-0.9-1.8-1.8-2.8-2.7c-1-0.9-2-1.7-3-2.6
							c-0.5-0.5-1-0.9-1.5-1.4C199.3,92.4,198.9,91.9,198.6,91.3z"/>
					</g>
					<g>
						<path fill="#6A5C50" d="M175.1,154.7c0,0,0.2,0.1,0.5,0.4c0.3,0.3,0.8,0.6,1.3,1.2c0.6,0.5,1.2,1.2,1.9,2
							c0.7,0.8,1.5,1.7,2.2,2.8c0.8,1.1,1.5,2.3,2.2,3.6c0.7,1.3,1.4,2.8,1.9,4.4c0.5,1.6,1,3.2,1.2,5c0.2,0.9,0.2,1.8,0.3,2.6
							c0,0.4,0.1,0.8,0.2,1.2c0.1,0.4,0.2,0.8,0.3,1.2c0.4,1.5,1.3,2.9,2.5,3.4c0.3,0.1,0.6,0.2,0.9,0.2c0.1,0,0.4,0,0.5,0
							c0.2,0,0.5,0,0.6-0.1c0.5-0.1,1.1-0.4,1.5-0.9c0.8-1,1.1-2.5,1.3-3.9c0.1-1.4,0.3-2.9,0.5-4.1c0.3-2.6,0.3-4.7,0.1-6.2
							c-0.1-0.7-0.3-1.3-0.4-1.7c-0.1-0.4-0.2-0.6-0.2-0.6s0.1,0.2,0.3,0.5c0.2,0.4,0.5,0.9,0.7,1.7c0.5,1.5,0.7,3.7,0.7,6.3
							c0,1.3,0,2.7-0.1,4.2c0,0.8-0.1,1.6-0.3,2.4c-0.2,0.8-0.5,1.7-1.1,2.5c-0.6,0.8-1.5,1.4-2.6,1.6c-0.3,0.1-0.4,0.1-0.7,0.1
							c-0.3,0-0.5,0-0.8,0c-0.5,0-1-0.2-1.5-0.4c-1-0.4-1.8-1.1-2.4-2c-0.6-0.8-1-1.7-1.3-2.6c-0.1-0.5-0.2-0.9-0.3-1.4
							c-0.1-0.5-0.1-0.9-0.2-1.4c-0.1-0.9-0.2-1.7-0.3-2.5c-0.2-1.6-0.6-3.2-1-4.8c-0.5-1.5-0.9-3-1.5-4.3c-0.6-1.3-1.2-2.6-1.9-3.7
							c-0.6-1.1-1.3-2.1-1.9-2.9c-0.6-0.9-1.1-1.6-1.6-2.2c-0.5-0.6-0.8-1.1-1.1-1.4C175.2,154.9,175.1,154.7,175.1,154.7z"/>
					</g>
					<g>
						<path fill="#6A5C50" d="M192.4,165.9c0,0,0,0.1,0.1,0.3c0.1,0.2,0.1,0.5,0.2,0.8c0.1,0.7,0.2,1.8-0.1,3
							c-0.2,0.6-0.4,1.3-1,1.9c-0.2,0.1-0.3,0.3-0.5,0.3c-0.1,0-0.2,0.1-0.3,0.1l-0.3,0.1c-0.6,0.1-1-0.1-1.4-0.3
							c-0.8-0.5-1.3-1.2-1.8-1.9c-0.5-0.7-0.8-1.4-1.3-2.1c-0.8-1.4-1.7-2.8-2.4-4.2c-0.8-1.3-1.4-2.6-2-3.7c-0.6-1.1-1-2-1.4-2.7
							c-0.3-0.6-0.5-1-0.5-1s0.2,0.3,0.7,0.9c0.4,0.6,1,1.4,1.7,2.5c0.7,1,1.5,2.2,2.3,3.6c0.8,1.3,1.7,2.7,2.5,4.1
							c0.4,0.7,0.8,1.5,1.2,2.1c0.4,0.7,0.9,1.3,1.4,1.6c0.3,0.2,0.6,0.2,0.8,0.3l0.3,0c0,0,0.1,0,0.2-0.1c0.1,0,0.3-0.1,0.4-0.2
							c0.5-0.4,0.8-0.9,1-1.5c0.4-1.1,0.4-2.2,0.4-2.9C192.4,166.3,192.4,165.9,192.4,165.9z"/>
					</g>
					<g>
						<path fill="#6A5C50" d="M175.4,173c0.3,0.6,0.5,1.4,0.7,2.1c0.2,0.7,0.3,1.4,0.4,2.1c0.1,0.7,0.3,1.4,0.6,2.1
							c0.3,0.7,0.6,1.3,0.9,2c0.6,1.3,1.4,2.5,1.9,3.9c0.3,0.7,0.5,1.4,0.7,2.1c0.1,0.7,0.2,1.6-0.1,2.4c-0.3,0.8-1,1.5-1.8,1.7
							l-0.3,0.1c-0.1,0-0.2,0-0.4,0.1c-0.2,0-0.5,0-0.7,0c-0.5-0.1-0.9-0.4-1.2-0.8c-0.5-0.7-0.8-1.5-1-2.2
							c-0.2-0.7-0.3-1.5-0.5-2.2c-0.3-1.4-0.5-2.9-0.9-4.1c-0.2-0.6-0.5-1.2-0.9-1.6c-0.4-0.3-0.8-0.4-1.4-0.3l0.6-0.8
							c0.1,0.7,0.4,1.6,0.6,2.5c0.1,0.5,0.1,1,0.1,1.5c0,0.3-0.1,0.6-0.3,0.9c-0.2,0.3-0.4,0.6-0.7,0.8l-0.2,0.1l-0.2,0.1l-0.1,0
							l-0.2,0c-0.1,0-0.2,0-0.3,0c-0.2,0-0.4,0-0.6,0c-0.2,0-0.3-0.1-0.5-0.1c-0.6-0.3-1-0.7-1.3-1.1c-0.6-0.8-1-1.7-1.4-2.5
							c-0.7-1.6-1.3-3.3-1.7-5.1c-0.2-0.9-0.3-1.8-0.4-2.8c0-0.5,0-1,0.2-1.5c0.1-0.5,0.3-1.1,0.7-1.6l0.8-1.2l0.8,1.2
							c0.7,0.9,1,1.9,1.3,2.7c0.3,0.9,0.6,1.6,1,2.2l-0.9-0.3c0,0,0,0,0.1,0c0,0,0.1-0.1,0.1-0.2c0-0.1,0.1-0.2,0.1-0.4
							c0-0.1,0-0.3,0-0.5c0-0.7,0-1.4-0.1-2.2l-0.3-3.6l1.6,3.2c0.5,0.9,1,1.8,1.6,2.6c0.3,0.4,0.7,0.8,1.1,1.1
							c0.4,0.3,0.8,0.5,1.3,0.6l-0.3,0.3c0.1-1.3-0.1-2.7-0.1-4.1l0-0.2l0.1,0C174.8,172,175.2,172.5,175.4,173z M175.2,173.1
							c-0.2-0.4-0.6-0.8-1.1-0.8l0.2-0.1c0,1.4,0.4,2.7,0.4,4.1l0,0.3l-0.3,0c-0.6,0-1.2-0.2-1.7-0.5c-0.5-0.3-0.9-0.7-1.3-1
							c-0.8-0.8-1.5-1.6-2.1-2.6l1.3-0.4c0.2,0.7,0.4,1.5,0.4,2.4c0,0.2,0,0.4,0,0.7c0,0.2-0.1,0.5-0.1,0.8
							c-0.1,0.3-0.2,0.6-0.5,0.8c-0.2,0.3-0.6,0.5-0.9,0.6l-0.5,0.2l-0.4-0.5c-0.7-0.9-1.1-1.8-1.4-2.7c-0.3-0.9-0.6-1.6-1.1-2.2
							l1.6,0c-0.1,0.2-0.3,0.5-0.3,0.8c-0.1,0.3-0.1,0.7-0.1,1.1c0,0.8,0.1,1.6,0.3,2.4c0.3,1.6,0.8,3.2,1.4,4.8
							c0.3,0.8,0.6,1.5,1,2.1c0.2,0.3,0.4,0.5,0.6,0.6c0,0,0.1,0,0.1,0c0,0,0.1,0,0.1,0c0,0,0,0,0,0l0.2,0l0.1,0l0,0l0,0l0,0
							c0,0,0.1,0-0.1,0l0,0c0,0,0,0,0,0c0.1-0.1,0.2-0.1,0.3-0.5c0-0.3,0-0.7,0-1.1c-0.1-0.8-0.3-1.6-0.5-2.6l-0.1-0.7l0.7-0.1
							c0.8-0.2,2,0.1,2.6,0.8c0.6,0.7,0.9,1.4,1.2,2.2c0.4,1.5,0.6,2.9,0.8,4.4c0.1,0.7,0.2,1.4,0.4,2.1c0.2,0.7,0.4,1.3,0.7,1.8
							c0.4,0.4,0.7,0.6,1.4,0.4c0.6-0.2,1.1-0.5,1.3-1.1c0.2-0.6,0.2-1.2,0.1-1.9c-0.1-0.7-0.3-1.4-0.5-2c-0.4-1.3-1.1-2.7-1.7-4
							c-0.3-0.7-0.6-1.3-0.8-2c-0.2-0.7-0.4-1.4-0.5-2.1C176.1,175.8,175.9,174.3,175.2,173.1z"/>
					</g>
					<g>
						<path fill="#6A5C50" d="M151.1,151.6c0,0.6,0.1,1.1,0.1,1.6c0.1,0.5,0.2,1.1-0.1,1.7c-0.3,0.6-1,0.8-1.5,0.9
							c-0.6,0.1-1.3-0.2-1.7-0.5c-0.2-0.1-0.5-0.2-0.6-0.2c-0.1,0-0.2,0.2-0.3,0.4c-0.1,0.1-0.1,0.2-0.1,0.3l0,0.1c0,0,0,0.1,0,0.1
							c0,0.1,0,0.1,0,0.2c0,0.2,0,0.5,0,0.7c0.2,1,0.5,2.1,0.8,3.1c0.2,0.5,0.3,1.1,0.4,1.7c0.1,0.6,0.2,1.2,0,1.9
							c-0.1,0.4-0.3,0.7-0.6,1.1c-0.3,0.3-0.7,0.4-1.1,0.5c-0.4,0.1-0.7,0.1-1,0l-0.2,0l-0.3-0.1l-0.4-0.1c-1.4-0.4-2.2-1.5-2.9-2.5
							c-0.6-1-1-2.1-1.5-3.1c-0.4-1-0.9-1.9-1.6-2.4c-0.1-0.1-0.2-0.1-0.2-0.2c-0.1,0-0.2-0.1-0.2-0.1l-0.2-0.1c-0.1,0-0.1,0-0.1,0
							c0,0,0,0,0,0c0,0,0.1,0,0.2-0.1c0,0,0,0,0,0c0,0.1,0,0.3,0,0.5c0,1,0.3,2,0.3,3.3c0,0.3,0,0.6-0.1,1.1
							c-0.1,0.2-0.1,0.4-0.3,0.7c-0.1,0.2-0.4,0.5-0.7,0.6c-0.6,0.3-1.1,0.2-1.5,0.1c-0.4-0.1-0.7-0.2-1-0.4l-0.1,0l0,0l-0.1-0.1
							l0,0l-0.1-0.1l-0.2-0.1c-0.1-0.1-0.2-0.1-0.4-0.3c-0.3-0.2-0.6-0.5-0.8-0.7c-0.2-0.2-0.4-0.5-0.6-0.7
							c-0.2-0.3-0.3-0.5-0.5-0.8c-0.6-1-1-2.1-1.4-3.2c-0.4-1.1-0.6-2.2-0.8-3.4c-0.2-1.1-0.3-2.3-0.2-3.6l0.2-1.7l1.3,1.1
							c0.5,0.4,0.9,0.8,1.2,1.1c0.4,0.3,0.7,0.7,1,0.9c0.3,0.2,0.7,0.4,0.8,0.4c0.1,0,0.1,0,0.2-0.1l0.1-0.1l0,0l0,0
							c-0.2,0.2,0,0.1-0.1,0.1l0,0l0,0l0,0l0.1-0.2c0,0,0,0,0,0c0,0,0-0.1,0-0.2c0-0.1,0-0.2,0-0.3c0-0.2,0-0.5,0-0.7
							c0-0.5,0-1,0-1.7c0.1-0.3,0.1-0.7,0.3-1.1c0.1-0.1,0.1-0.2,0.2-0.3c0.1-0.1,0.2-0.2,0.4-0.3c0.2-0.1,0.5-0.2,0.8-0.2
							c0.2,0,0.4,0,0.6,0.1l0.5,0.2l0.1,0l0,0l0.1,0.1l0,0l0,0l0.2,0.1c0.1,0,0.3,0.3,0.5,0.4c0.5,0.6,0.7,1.1,0.9,1.6l0.5,1.5
							c0.2,0.5,0.4,0.9,0.6,1.2c0.2,0.3,0.5,0.6,0.8,0.6c0,0,0.1,0,0,0l0,0l0.1,0l0.2,0c0.2,0,0.2,0,0.2,0c0.1,0,0.1,0,0.1,0
							c0,0,0,0,0.1-0.1c0.1-0.2,0.2-0.7,0.1-1.2l-0.1-1.5c0-0.5,0-1.1,0.2-1.7l0.2-0.4l0.4,0.1c0.2,0.1,0.5,0.1,0.7,0.2
							c0.2,0.1,0.4,0.2,0.6,0.3c0.4,0.3,0.7,0.5,1,0.8c0.6,0.6,1.1,1.2,1.6,1.8c0.3,0.3,0.5,0.6,0.8,0.8c0.1,0.1,0.3,0.2,0.5,0.4
							c0.2,0.1,0.3,0.2,0.5,0.3c0.2,0.1,0.4,0.1,0.5,0.2c0.2,0,0.4,0,0.6,0c0.2,0,0.4-0.1,0.6-0.1l0.5-0.3l0,0l0,0
							c0.1,0,0.1,0.1,0.2,0.1l0,0c0,0,0,0,0,0l0-0.1C151,151.9,151,151.7,151.1,151.6z M151.1,151.6c0,0.1-0.1,0.3-0.1,0.4l0,0.1
							c0,0,0,0,0,0c0,0,0,0,0,0l0,0c-0.1,0-0.1-0.1-0.2-0.1l0.1,0l-0.5,0.3c-0.2,0.1-0.4,0.1-0.6,0.2c-0.2,0-0.4,0-0.6,0
							c-0.2,0-0.4-0.1-0.6-0.1c-0.2-0.1-0.4-0.1-0.6-0.3c-0.2-0.1-0.4-0.2-0.5-0.3c-0.3-0.2-0.6-0.5-0.9-0.8
							c-0.6-0.6-1.2-1.1-1.7-1.6c-0.3-0.3-0.6-0.5-0.9-0.7c-0.2-0.1-0.3-0.2-0.5-0.2c-0.2-0.1-0.3-0.1-0.5-0.1l0.5-0.3
							c-0.1,0.4-0.1,0.8,0,1.3l0.2,1.5c0,0.5,0.2,1.1-0.2,1.9c-0.1,0.2-0.3,0.4-0.4,0.5c-0.2,0.1-0.4,0.2-0.6,0.2
							c-0.2,0-0.5,0.1-0.6,0l-0.2,0l-0.1,0l0,0c-0.1,0-0.1,0-0.1,0c-0.7-0.1-1.3-0.6-1.7-1.1c-0.4-0.5-0.6-1-0.8-1.5l-0.6-1.4
							c-0.2-0.4-0.4-0.9-0.6-1.1c0,0,0,0,0,0c0,0,0,0-0.1-0.1l-0.2-0.1l0,0l0,0l0,0c0.2,0.1,0,0,0.1,0l0,0l-0.1,0l-0.3-0.1
							c-0.1,0-0.1,0-0.2,0c0,0,0,0,0,0c0,0,0,0,0,0c0,0,0,0,0,0c0,0-0.1,0.2-0.1,0.4c0,0.4,0,0.9,0,1.4c0,0.3,0,0.5,0,0.8
							c0,0.2,0,0.3,0,0.5c0,0.2,0,0.3-0.1,0.6c0,0.1-0.1,0.3-0.2,0.3l-0.1,0.2l0,0l0,0l-0.1,0.1l0,0l-0.1,0.1l-0.2,0.2
							c-0.3,0.2-0.7,0.4-1.2,0.5c-0.9,0.1-1.5-0.3-2.1-0.6c-0.5-0.3-0.9-0.7-1.3-1.1c-0.4-0.4-0.8-0.8-1-1l1.5-0.6
							c-0.1,0.9,0,2,0.2,3c0.2,1,0.4,2.1,0.8,3.1c0.3,1,0.8,2,1.2,2.8c0.1,0.2,0.3,0.4,0.4,0.6c0.1,0.2,0.3,0.4,0.4,0.6
							c0.2,0.2,0.3,0.3,0.4,0.4c0,0.1,0.2,0.1,0.3,0.2l0.2,0.1l0.1,0.1l0,0c-0.2-0.1,0,0-0.1,0l0,0l0,0c0.2,0.1,0.4,0.2,0.6,0.2
							c0.2,0.1,0.2,0,0.1,0.1c-0.1,0.1-0.1,0.1-0.1,0c0-0.1,0-0.4,0-0.6c0-1-0.3-2-0.3-3.3c0-0.3,0-0.7,0.1-1.1
							c0.1-0.2,0.2-0.5,0.4-0.7c0.1-0.1,0.3-0.2,0.4-0.3c0.1-0.1,0.3-0.1,0.5-0.2c0.3,0,0.5,0,0.8,0c0.1,0,0.2,0.1,0.3,0.1l0.2,0.1
							c0.3,0.1,0.4,0.2,0.5,0.3c0.2,0.1,0.3,0.2,0.4,0.3c1.1,0.9,1.6,2.1,2,3.1c0.4,1,0.8,2.1,1.3,2.9c0.5,0.9,1.1,1.7,1.9,1.9
							l0.4,0.1l0.1,0l0,0l0,0l0,0c0,0,0.1,0-0.1,0l0.2,0c0.2,0,0.5,0,0.6,0c0.4-0.1,0.5-0.1,0.6-0.5c0.1-0.4,0.1-0.9,0-1.4
							c-0.1-0.5-0.2-1-0.3-1.6c-0.2-1.1-0.5-2.1-0.6-3.3c0-0.3,0-0.6,0.1-1c0-0.1,0-0.2,0.1-0.2l0-0.1l0-0.1
							c0.1-0.1,0.1-0.3,0.2-0.4c0.1-0.2,0.4-0.6,0.8-0.7c0.5,0,0.7,0.2,1,0.3c0.5,0.3,0.9,0.5,1.4,0.5c0.5,0,1-0.2,1.3-0.6
							c0.2-0.4,0.2-1,0.2-1.5C151,152.7,151,152.1,151.1,151.6z"/>
					</g>
					<g>
						<path fill="#6A5C50" d="M116.4,146.9c0,0-0.1,0.3-0.3,0.8c0,0.3-0.2,0.6-0.2,0.9c-0.1,0.4-0.1,0.8-0.1,1.2
							c0,0.5,0.1,0.9,0.2,1.4c0.1,0.5,0.2,1,0.4,1.6c0.3,1.1,0.8,2.3,1,3.6c0.2,0.7,0.2,1.3,0.2,2c0,0.2,0,0.3,0,0.5
							c0,0.2,0,0.4-0.1,0.6c-0.1,0.4-0.2,0.7-0.3,1.1c-0.3,0.7-1,1.4-1.8,1.6c-0.4,0.1-0.8,0.1-1.1,0.1l-0.2,0l-0.1,0l-0.2-0.1
							c-0.2-0.1-0.4-0.1-0.5-0.2c-0.6-0.3-0.9-0.9-1.1-1.3c-0.2-0.4-0.3-0.7-0.3-1c-0.1-0.5-0.2-0.8-0.2-0.8l0.2-0.1
							c0,0,0.3,0.2,0.7,0.6c0.4,0.4,0.9,1.1,1.4,1.1c0.1,0,0.1,0,0.1,0l0.2,0l0.1,0c-0.1,0,0,0,0,0c0.2,0,0.3-0.1,0.4-0.1
							c0.2-0.1,0.4-0.3,0.6-0.7c0.1-0.2,0.2-0.4,0.2-0.6l0.1-0.3c0-0.1,0.1-0.3,0.1-0.4c0.1-0.5,0.1-1.1,0-1.7
							c-0.1-1.2-0.4-2.4-0.6-3.6c-0.1-0.6-0.2-1.2-0.2-1.7c0-0.6,0-1.1,0-1.6c0.1-0.5,0.1-0.9,0.3-1.3c0.1-0.4,0.3-0.7,0.4-1
							c0.3-0.5,0.4-0.7,0.4-0.7L116.4,146.9z"/>
					</g>
					<g>
						<path fill="#6A5C50" d="M113.8,148.7c0,0,0,0.1-0.1,0.3c-0.1,0.2-0.1,0.4-0.2,0.7c-0.2,0.6-0.4,1.3-0.6,2.1
							c-0.1,0.4-0.2,0.8-0.3,1.2c0,0.2-0.1,0.4-0.1,0.5c0,0.2,0,0.3,0,0.5c0,0.3,0,0.6,0,0.7c0,0,0,0.1-0.1,0.1c-0.1,0-0.1,0-0.1,0
							c0,0-0.1-0.1-0.1-0.1s0,0,0.1,0c0.1,0,0.1,0,0.1-0.1c0-0.2-0.2-0.4-0.3-0.7c-0.1-0.1-0.1-0.3-0.1-0.5c0-0.2-0.1-0.4-0.1-0.6
							c0-0.4-0.1-0.8-0.1-1.2c0-0.8-0.1-1.7,0-2.3c0-0.3,0-0.6,0-0.8c0-0.2,0-0.3,0-0.3L113.8,148.7z"/>
					</g>
					<g>
						<path fill="#6A5C50" d="M75.8,215.3c-0.1,0.2-0.1,0.4-0.2,0.6c-0.1,0.2-0.2,0.4-0.4,0.5c-0.2,0.1-0.5,0.1-0.7,0
							c-0.2-0.1-0.4-0.2-0.5-0.4c-0.6-0.6-1.1-1.3-1.5-2c-0.4-0.7-0.8-1.5-1.2-2.2l-0.5-1.1l-0.5-1.1l0.7-0.2
							c0.1,0.6,0.1,1.2,0.2,1.8l0.2,1.7c0.1,1.1,0.3,2.3,0.4,3.4c0.2,1.1,0.3,2.3,0.7,3.3c0.2,0.5,0.4,1,0.8,1.1
							c0.2,0.1,0.4,0,0.7-0.1c0.2-0.1,0.5-0.3,0.7-0.5l0.1,0.1c-0.2,0.2-0.3,0.5-0.6,0.7c-0.2,0.2-0.6,0.4-0.9,0.3
							c-0.4,0-0.7-0.3-0.9-0.5c-0.2-0.2-0.4-0.5-0.5-0.8c-0.5-1.1-0.8-2.3-1-3.4c-0.2-1.2-0.3-2.3-0.3-3.5l-0.1-1.7
							c0-0.6,0-1.2-0.1-1.7l-0.2-2.3l0.8,2.1l0.5,1.2l0.5,1.2c0.3,0.8,0.7,1.5,1.1,2.3c0.4,0.7,0.8,1.5,1.3,2.1
							c0.3,0.3,0.6,0.6,1,0.4C75.4,216.1,75.6,215.7,75.8,215.3L75.8,215.3z"/>
					</g>
					<g>
						<path fill="#6A5C50" d="M84.1,220.7c-0.2,0.2-0.4,0.3-0.6,0.4c-0.2,0.1-0.5,0.1-0.8,0.1c-0.3,0-0.6-0.1-0.8-0.2
							c-0.3-0.1-0.5-0.3-0.7-0.4c-0.4-0.4-0.8-0.8-1-1.3c-0.3-0.5-0.5-1-0.5-1.6l1.7-0.2c0.2,1,0.5,2,0.7,3c0.3,1,0.5,2,0.9,2.9
							c0.1,0.2,0.2,0.5,0.2,0.6c0.1,0.2,0.3,0.5,0.3,0.6c0.1,0.2,0.2,0.3,0.3,0.4c0.1,0.1,0.1,0.1,0.1,0.1c0.1,0,0.2-0.1,0.3-0.2
							c0.1-0.2,0.2-0.4,0.3-0.6c0.2-0.5,0.3-1,0.4-1.5c0.1,0.3,0.2,0.5,0.2,0.8c0.1,0.3,0.1,0.6,0.1,0.9c0,0.3,0,0.6-0.1,0.9
							c-0.1,0.3-0.3,0.7-0.7,0.9c-0.5,0.3-1,0.2-1.4,0c-0.4-0.2-0.6-0.4-0.8-0.7c-0.3-0.3-0.4-0.5-0.5-0.7c-0.2-0.3-0.3-0.5-0.4-0.8
							c-0.5-1-0.8-2.1-1.1-3.2c-0.3-1.1-0.4-2.1-0.5-3.3l1.7-0.2c0,0.4,0,0.8,0.2,1.1c0.1,0.2,0.1,0.4,0.2,0.6
							c0.1,0.2,0.2,0.4,0.3,0.5c0.2,0.3,0.5,0.6,0.9,0.8c0.2,0.1,0.4,0.1,0.6,0.2l0.3,0L84.1,220.7z"/>
					</g>
				</g>
			</g>
			<g id="water3_3_">
				<g opacity="0.8">
					<path fill="#A3907F" d="M102.1,96.7c-4.5,2.1-7.9,4.5-11.6,7.8c-1.4,1.2-3.8,2.6-4.6,4.5c-0.7,1.7,0.1,4-0.4,5.8
						c-1.2,4.3-5.2,7.9-7.3,11.7c-2.7,4.9-4.8,10.3-6.1,15.8c-1.4,6-9.2,34.5,7.3,27.2c9.2-4.1,10.7-21.2,18.2-27.5
						c4-3.4,7.9-3.2,12.5-1.3c2,0.8,3.2,2.4,5.6,2.4c2,0,4.6-2.3,6.6-1.8c4.9,1.2,4.5,11.8,4,15.7c-1.1,8.1-0.2,22,5,15.3
						c3.5-4.5,2.1-14.4,1.9-20c-0.1-4.9,2.9-16.5,6.4-9.8c1.8,3.5,3.7,5.4,7.6,2.8c3.5-2.4,4.3-10.2,4.2-13.9c0-2.2-1.1-5.6,0-7.6
						c0.1-0.2,2.3-0.7,2.8-1.3c0.8-1,0.6-3.1,1.7-3.9c6.6-5.5,4.8,10.5,9.9,11.7c9.2,2.2,10.3-10.2,10.1-16.4c-0.1-4-2.8-8-0.9-11.9
						c2.4-4.9,8.6-5.5,13.4-4.7c7.4,1.2,11.5,6.1,17.9,9c5,2.2,13.7-1.3,10.7-8.4c-1.9-4.4-9.9-5.9-13.7-7.9
						c-4.7-2.5-10.9-9.5-5.7-14.6c4.1-4,12.5,0.6,15.9-3.6c5.9-7.5-8.7-8-12.3-6.7c-6.6,2.4-13.4,3.7-19.8,6.3c-3.6,1.5-5.6,2-9.6,2
						c-2.4,0-7.7-0.9-8.9,1c-3.7,5.7,15.1,3.7,17.8,3.8c3.4,8.8-10.3,3.7-12.7,7.9c-0.4,0.8,0.3,2.5,0,3.4c-0.1,0.5-1.7,1.7-2,3.3
						c-0.7,3.3,3.1,11-1.8,8.5c-4.9-2.5-9.7-12.1-15.7-12.7c-4.4-0.5-3,6.3-2.7,9.8c0.4,5.3,2.8,12.2-0.1,17c-3.6,6-7.1,0.9-8-3.8
						c-1-4.8-1.5-10.7-1.6-15.6c-2.5,3.2-4.6,9.9-5.9,13.9c-1.1,3.3-2.7,10.9-6,12.9c-5,3.2-1.6-4.2-3.3-6.7c-3-4.4-5.2,3-7.9,4.1
						c-3.1-3.3-5.5,6.6-8.9,5.2c-3.5-1.4,1.5-10.7,2.1-12.7c-4.8-1-5.8,4.4-10.2,4.3c-1.4-2.4,0.9-3.7,2.4-5.2
						c2.4-2.5,2.4-3.4,3.9-6.2c2.6-4.9,12.3-3.3,14.3-9.3c0.5-1.5-1.4-3.1-0.8-4.4c0.8-1.9,3.8-1.4,5-2.4c2.6-2.1,1.4-4.8,2.1-7.9
						c-4.1-0.5-8.9,3.3-11.6,5.9C107.5,91.3,107.4,94.2,102.1,96.7z"/>
					<path fill="#A3907F" d="M155.8,73.9c-2.8,0.6-4.3,0.6-6.2,3c-1.5,2-1,4.1-3.8,5c-2.1,0.7-4.7-1.8-5.9,0c-0.9,1.3,1.5,4.2,0.7,6
						c-2,4.6-11.3,4.2-14.2,1.7c-2.6-2.3-3.2-5.8-6.3-7.2c-4.8-2.2-8,2-12.6,2.6c-7.4,1-3-5.2-3.4-9c-0.6-5-7.9-1.2-11,1.3
						c-6.3,5.1-11,8.7-18.6,10.6c-4.9,1.2-17.3,1.3-15-6.6c0.9-3.1,2.6-3.5,5.3-4.1C68.9,76,73,74.8,76.4,72c7-5.7-0.3-11.6-7-11.6
						c-6.7,0-12.7,6-18.4,9.1c-1.9,1.1-6,3.7-8.2,1.9c-2.8-2.3,0.3-6.1,1.9-7.7c6.3-5.9,16.6-12.3,25.3-10.1
						c5.4,1.4,9.5,6.6,13.9,9.5c4.3,2.8,8.7,3.7,13.8,4.2c2.6,0.2,10.8,1,11.8-2.6c1.1-4.4-7.1-4.3-9.3-6.4
						c-3.5-3.5-0.7-6.8,3.7-4.6c4.2,2.1,5.8,7.4,10.7,9.3c5,1.9,6.9,1.3,7.2-3.7c0.2-3.9,1.3-8.4,6.9-5.2c3.3,1.8,1.5,6,5,7.1
						c1.1,0.4,2.3-0.6,3.4-0.6c2,0,5,1.6,6.5-0.3c1-1.3-0.2-4.5,0.5-6.2c1.3-3.4,6.7-7.3,9.7-3.7c2.2,2.6-0.6,5.8-1.8,8
						c-0.8,1.4-1.9,5.2-0.7,6.6c1.9,2.3,5-0.3,7.5-0.3c3.7-0.1,6,1.2,3.1,4.5C161.7,69.6,156.2,73.8,155.8,73.9z"/>
					<path fill="#A3907F" d="M155.4,28.5c1.8-1.3,2.3-2.4,4.4-3.2c1.5-0.6,3-0.2,4.3-0.9c2.5-1.4,4.9-6.8,1.4-8.8
						C159.6,12.5,149,27.2,155.4,28.5z"/>
					<path fill="#A3907F" d="M160.9,50.4c0.5-3.4,3.6-8.3,6.4-10.6c2.8-2.3,6.9-2.5,8.9-5.7c2.7-4.3,0-8-4.4-4.9
						c-3.2,2.2-6.3,5-8,8.5C162.5,40.3,159.1,48.5,160.9,50.4z"/>
					<path fill="#A3907F" d="M118.4,53.6c-1.5-2.2-1.8-17.7-7.5-12.3C107.9,44.2,113.7,51.8,118.4,53.6z"/>
					<path fill="#A3907F" d="M104.4,32.6c1.9-1.5,16.4-8,9.3-11.4C107.9,18.4,101.2,33.2,104.4,32.6z"/>
					<path fill="#A3907F" d="M93.7,55.3c-0.5-3.4-8.3-12.1-9.9-5c-1,4.3,6.4,6.2,9.5,6c0.4-1.4,0-2.8-1.3-3.6"/>
					<path fill="#A3907F" d="M67.4,37c-2.7-3-11.7,1.9-6.3,3.7c2.1,0.7,6.8-1.2,6.6-3.6c-0.9-0.2-1.9-0.1-2.6,0.3"/>
					<path fill="#A3907F" d="M55.1,48.3c-3-1.5-8.1,1-10.3,3c-2.2,2-4.4,5.3,0.2,5.3c2.5,0,9.7-6.1,9.4-8.3
						C53.8,48.2,53.6,47.8,55.1,48.3z"/>
					<path fill="#A3907F" d="M57.7,139.6c-3.9-0.4-4.5,10.3-4.7,13.3c-0.3,3.7-4.2,10.3-5.6,3.7c-1.3-6,4.2-14.5,9.3-17.1
						C57.4,140.3,56.9,140.5,57.7,139.6z"/>
					<path fill="#A3907F" d="M33.7,172c0.5,1.5,0.2,3.1,0.6,4.7c0.4,1.5,1.4,3,1.8,4.5c0.5,2.3,1.1,7.8-2.7,7.9
						C28.1,189.2,30.9,173.2,33.7,172z"/>
					<path fill="#A3907F" d="M5.4,148.3c-0.2,1.7,0.9,14.6-3.1,10.3c-1.9-2-1.7-11.2,2.7-9.9c0.5,0.9,0.2,1.4,0.1,1.6"/>
					<path fill="#A3907F" d="M88.7,267c-1.5,2.8,3.9,9.8,4.3,13.3c0.3,2.9,0.7,9.6-3.9,6.7C83.3,283.4,87,273,88.7,267z"/>
					<path fill="#A3907F" d="M101.1,278.6c0.9,3.3,2.9,6.9,2.7,10.5c-0.2,3.3-2.5,5-4.3,1.1C98.3,287.8,98.3,275.1,101.1,278.6z"/>
					<path fill="#A3907F" d="M134.1,240.6c-0.1,3.3-2.5,6.5-1.7,10.1c0.9,3.6,5,4,6.9,0.5c3-5.3-0.7-13.7-0.3-19.5
						C138.2,234,138.2,249.8,134.1,240.6z"/>
					<path fill="#A3907F" d="M152.1,235c-1.3,3.7-1,10.3,1.3,13.3c3,4,5.1,2.4,5-2.3c-0.1-3.2-1.8-4.9-3.3-7.5
						c-0.8-1.4-3.9-7.7-4.5-1.8C150.9,237.1,151.2,237.4,152.1,235z"/>
					<path fill="#A3907F" d="M193.1,215c0.5,4.9-0.3,7.2-2.1,11.7c-1.3,3.2-0.3,7.2,3.9,4.3C199.1,228.1,197.8,218.4,193.1,215z"/>
					<path fill="#A3907F" d="M216.1,174c1.5,4.2,1.7,8.4,1.7,12.8c0,1.3,0.5,4-0.6,5c-1.6,1.4-3.3,0.1-3.8-1.5
						c-2.4,2.8,0.7,3.7,2.3,5.1c1.6,1.3,2.7,1.9,2,4.8c-0.9,4-9.2,5.2-7,10.5c1.2,2.7,5.8,3.1,7.8,1.3c1.6-1.4,1.9-5,2.2-7
						c0.7-4.7-0.1-9.2-0.5-13.9c-0.4-3.7-0.1-7.6-0.7-11.3C219.3,178.1,217.6,171.8,216.1,174z"/>
					<path fill="#A3907F" d="M227.7,184.3c-0.1,3.8,2.5,12.5,7.6,11.9c0.8-3.3,0.7-6.5,1.7-9.8c1.3-4.3,4-5.6,5.1-0.2
						c1.1,5.8,0.7,13.4,8.3,13c1.4-2.3,0.6-5.4,0.5-8c-0.2-4.9,0.3-9.9-0.8-14.7c-1.5-6.5-3.9-19.6-10.9-22.6
						c-1.3,2.7,2.6,8.3,3.4,11.1c1,3.4,2.5,8,2.1,11.5c-2.1,0-3.9-4-5.5-5.5c-2.2-2-4.6-3.2-7.8-2.8c-0.1,3.8,5.9,7.8,4,12.6
						c-1.1,2.9-5.8,5.1-7,1.2C228.4,183.6,228.4,185.1,227.7,184.3z"/>
					<path fill="#A3907F" d="M254.7,136c0.9,0.8-1,8.4-1,10.7c0,2.2,0.3,10.3-3.1,5.6C247.1,147.3,253.7,140.2,254.7,136z"/>
					<path fill="#A3907F" d="M119.7,127.8c-1.3,4.3-6.4,8.2-8.6,12.4c-2.5,4.9-4.7,11.6-4.4,17.1c0.3,5.4,5.5,7.6,8.8,2.5
						c2.5-3.8,3.2-9.8,3.4-14.2C119.1,142.3,120.9,130.3,119.7,127.8z"/>
				</g>
				<g opacity="0.7">
					<g>
						<path fill="#6A5C50" d="M126.5,68.4c0,0-0.1,0.1-0.2,0.4c-0.2,0.2-0.4,0.6-0.7,1c-0.2,0.2-0.4,0.4-0.6,0.6
							c-0.2,0.2-0.5,0.4-0.8,0.6c-0.6,0.4-1.4,0.8-2.3,1.2c-0.9,0.4-1.8,0.6-2.9,0.8c-1,0.2-2.1,0.4-3.3,0.4
							c-1.1,0.1-2.3,0.1-3.5,0.1c-1.2,0-2.4-0.2-3.6-0.3c-1.2-0.1-2.3-0.2-3.5-0.2c-1.2,0-2.3-0.1-3.4-0.1c-1.1,0-2.1,0.1-3.1,0.2
							c-1,0.1-1.9,0.3-2.8,0.5c-0.4,0.1-0.8,0.3-1.2,0.4c-0.4,0.1-0.7,0.3-1,0.4c-0.6,0.3-1.1,0.7-1.5,1c-0.4,0.3-0.6,0.7-0.8,0.9
							c-0.2,0.2-0.3,0.3-0.3,0.3s0.1-0.1,0.2-0.4c0.1-0.3,0.2-0.7,0.6-1.1c0.3-0.5,0.8-0.9,1.4-1.4c0.3-0.2,0.7-0.4,1-0.7
							c0.4-0.2,0.8-0.4,1.2-0.6c0.4-0.2,0.9-0.3,1.4-0.5c0.5-0.1,1-0.3,1.5-0.4c1-0.2,2.1-0.4,3.3-0.5c1.1-0.1,2.3-0.1,3.5-0.1
							c1.2,0,2.4,0.1,3.6,0.2c1.2,0.1,2.4,0.3,3.5,0.3c1.2,0.1,2.3,0.1,3.4,0.1c1.1,0,2.1-0.1,3.1-0.2c1-0.1,1.9-0.2,2.8-0.5
							c0.4-0.1,0.8-0.2,1.2-0.3c0.4-0.1,0.7-0.3,1-0.4c0.3-0.1,0.6-0.3,0.9-0.4c0.3-0.1,0.5-0.3,0.7-0.4c0.4-0.3,0.7-0.6,0.9-0.8
							C126.4,68.5,126.5,68.4,126.5,68.4z"/>
					</g>
					<g>
						<path fill="#6A5C50" d="M104.7,79.5c-0.8,0.6-1.3,1.4-1.6,2.3c-0.3,0.9-0.2,1.8,0,2.7l-0.3-0.3c1.1,0.1,2.3,0,3.4-0.1
							c1.1-0.2,2.1-0.5,3.2-0.9l3.3-1.2c1.1-0.4,2.3-0.8,3.5-0.9c1.2-0.2,2.6-0.2,3.9,0.3c1.3,0.4,2.4,1.5,3.1,2.4
							c0.8,1,1.3,2.2,1.8,3.2c0.2,0.5,0.5,0.8,0.8,1.1c0.3,0.3,0.7,0.5,1.2,0.7c0.5,0.2,1,0.3,1.5,0.4c0.6,0.1,1.1,0.2,1.6,0.2
							c1.1,0.1,2.2,0.1,3.3-0.1c1.1-0.1,2.1-0.4,3.1-0.9c0.5-0.2,0.9-0.5,1.3-0.8c0.4-0.3,0.8-0.7,1-1.1c0.3-0.4,0.4-0.8,0.6-1.4
							l0.2-0.8c0,0.2,0,0.1,0,0.1l0,0l0,0c0,0,0,0,0,0c0,0,0,0.1,0,0.1c0,0,0-0.1,0-0.1c0-0.1-0.1-0.2-0.2-0.4
							c-0.1-0.3-0.3-0.5-0.4-0.9c-0.1-0.3-0.2-0.8,0-1.3l0-0.1c0,0,0,0,0-0.1l0,0l0.1-0.1l0.1-0.2c0.1-0.1,0.2-0.2,0.3-0.4
							c0.3-0.3,0.6-0.4,0.9-0.6c0.7-0.2,1.4,0,2,0.2c0.6,0.2,1.1,0.5,1.6,0.9c1,0.7,1.8,1.6,2.5,2.4c-0.9-0.7-1.8-1.4-2.8-2
							c-0.5-0.3-1-0.5-1.5-0.7c-0.5-0.1-1-0.2-1.4,0c-0.2,0.1-0.4,0.2-0.5,0.4c-0.1,0.1-0.4,0.5-0.4,0.6c-0.1,0.2,0.1,0.6,0.5,1.1
							c0.1,0.1,0.2,0.2,0.3,0.4c0,0.1,0.1,0.2,0.1,0.3c0,0,0.1,0.2,0.1,0.3l0,0.1l0,0l0,0c0,0.1,0-0.1,0,0.1l-0.2,0.8
							c-0.1,0.6-0.3,1.2-0.6,1.8c-0.3,0.6-0.8,1.1-1.3,1.5c-0.5,0.4-1,0.8-1.6,1.1c-1.1,0.6-2.3,1-3.6,1.2c-1.2,0.2-2.5,0.3-3.7,0.2
							c-0.6,0-1.3-0.1-1.8-0.2c-0.6-0.1-1.2-0.2-1.9-0.4c-0.6-0.2-1.3-0.5-1.8-1c-0.6-0.5-1-1.1-1.3-1.7c-0.5-1.1-0.9-2.1-1.5-2.9
							c-0.7-0.9-1.3-1.5-2.2-1.9c-0.9-0.4-1.9-0.4-3-0.3c-1.1,0.1-2.1,0.4-3.2,0.7l-3.3,1c-1.1,0.3-2.3,0.6-3.5,0.7
							c-1.2,0.1-2.4,0-3.6-0.2l-0.3,0l0-0.2c-0.2-1-0.1-2.1,0.3-3C103.1,80.7,103.9,80,104.7,79.5z"/>
					</g>
					<g>
						<path fill="#6A5C50" d="M144.3,69.6c0,0,0-0.3,0.1-0.9c0-0.3,0-0.7,0.1-1.1c0-0.4,0-0.8,0-1.3c0-0.5-0.1-1-0.2-1.5
							c-0.1-0.5-0.3-0.9-0.6-1.3c-0.6-0.7-1.6-1-2.9-1.1c-1.2-0.1-2.6-0.1-3.8-0.2c-1.3-0.1-2.5-0.2-3.6-0.7
							c-0.3-0.1-0.5-0.2-0.7-0.3c-0.2-0.2-0.4-0.3-0.6-0.4c-0.3-0.3-0.6-0.7-0.7-0.9c-0.1-0.3-0.2-0.5-0.2-0.7c0-0.2,0-0.2,0-0.2
							s0,0.1,0.1,0.2c0.1,0.1,0.2,0.3,0.4,0.5c0.2,0.2,0.5,0.4,0.8,0.5c0.3,0.1,0.7,0.2,1.2,0.3c0.9,0.1,2,0.1,3.3,0
							c1.2-0.1,2.6-0.2,4,0c0.7,0.1,1.5,0.2,2.2,0.5c0.7,0.3,1.4,0.8,1.9,1.5c0.5,0.7,0.6,1.4,0.6,2.1c0,0.3,0,0.6,0,0.9
							c0,0.3-0.1,0.6-0.1,0.8c-0.3,1-0.6,1.8-0.9,2.4C144.4,69.3,144.3,69.6,144.3,69.6z"/>
					</g>
					<g>
						<path fill="#6A5C50" d="M113.9,87.1c0,0-0.1,0.1-0.2,0.4c-0.2,0.3-0.5,0.6-0.9,1c-0.4,0.4-1,0.8-1.6,1.3
							c-0.6,0.5-1.1,1.2-1.7,2c-0.3,0.4-0.5,0.9-0.9,1.4c-0.4,0.5-0.9,1-1.5,1.4c-1.1,0.8-2.3,1.5-3.5,2.3c-2.5,1.6-5.3,3.2-8.2,5.2
							c-1.4,1-3,2.1-4.5,3.2c-1.4,1.2-2.8,2.4-3.5,4c-0.2,0.4-0.3,0.8-0.4,1.2c-0.1,0.5-0.1,0.9-0.1,1.3c0,0.9,0.1,2,0.1,3.2
							c0,0.6-0.1,1.2-0.3,1.9l-0.1,0.2c0,0.1-0.1,0.1-0.1,0.2c0,0.1-0.1,0.2-0.2,0.4c-0.1,0.3-0.3,0.6-0.4,0.8c-0.6,1.1-1.3,2-2,2.9
							c-0.7,0.9-1.5,1.7-2.2,2.6c-0.7,0.9-1.4,1.8-2,2.7c-1.3,1.9-2.4,3.9-3.5,6c-2.1,4.2-3.5,8.8-4.5,13.4c-0.5,2.3-0.8,4.7-1,7
							c-0.2,2.4-0.5,4.7-0.5,7c0,2.2,0.1,4.5,1,6.1c0.2,0.4,0.5,0.7,0.8,1l0.1,0.1l0,0c-0.2-0.1,0,0,0,0l0.2,0.1l0.3,0.3l0.3,0.3
							c0.1,0.1,0.2,0.1,0.3,0.1c0.2,0.1,0.3,0.2,0.5,0.3l0.6,0.2c0.4,0.1,0.9,0.2,1.3,0.1c1.7,0,3.5-0.9,5-2.1
							c0.7-0.6,1.4-1.3,1.9-2.1c0.3-0.4,0.5-0.8,0.8-1.1c0.2-0.4,0.5-0.9,0.7-1.3c1.6-3.5,2.7-7.3,4.1-10.7c0.7-1.7,1.6-3.3,2.5-4.8
							c1-1.4,2.1-2.7,3.2-3.7c2.3-2.1,5-3.1,7.1-3.4c2.1-0.4,3.8-0.5,4.9-0.6c1.1-0.1,1.7-0.2,1.7-0.2l0.1,0.3c0,0-0.6,0.2-1.7,0.5
							c-1.1,0.3-2.7,0.6-4.7,1.2c-1,0.3-2,0.7-3.1,1.3c-1,0.6-2.1,1.4-3,2.4c-1.9,2-3.5,4.7-4.6,8c-1.2,3.3-2,7.1-3.8,11.1
							c-0.2,0.5-0.4,0.9-0.7,1.5c-0.3,0.5-0.6,1-0.9,1.5c-0.7,1-1.5,1.9-2.4,2.6c-0.9,0.8-2,1.5-3.2,2c-1.2,0.5-2.5,0.8-3.9,0.8
							c-0.7,0-1.4-0.1-2.1-0.3l-1-0.4c-0.3-0.1-0.7-0.3-1-0.5c-0.2-0.1-0.3-0.2-0.5-0.3l-0.3-0.3l-0.3-0.3l-0.2-0.1l-0.1-0.1l0-0.1
							l-0.1-0.1c-0.5-0.5-1-1.1-1.3-1.8c-0.6-1.3-0.9-2.6-1.1-3.8c-0.1-1.3-0.1-2.5-0.1-3.7c0.2-2.5,0.6-4.8,0.9-7.2
							c0.4-2.4,1-4.8,1.7-7.1c0.7-2.3,1.5-4.6,2.4-6.9c0.9-2.2,1.9-4.4,2.9-6.6c1.1-2.1,2.2-4.2,3.4-6.2c0.6-1,1.2-2,1.9-2.9
							c0.6-1,1.3-1.9,1.9-2.8c1.2-1.8,2.2-3.7,2.1-5.5c0-0.9-0.3-2-0.3-3.2c0-0.6,0-1.2,0.1-1.8c0.1-0.6,0.3-1.2,0.5-1.8
							c0.5-1.1,1.2-2.1,1.9-2.9c0.7-0.8,1.5-1.5,2.3-2.1c1.6-1.2,3.2-2.2,4.7-3.2c3.1-1.9,6-3.5,8.6-4.9c1.3-0.7,2.6-1.3,3.6-1.9
							c0.5-0.3,0.9-0.6,1.3-1c0.3-0.4,0.7-0.8,1-1.2c0.4-0.4,0.7-0.8,1.1-1.2c0.4-0.3,0.8-0.6,1.1-0.8c0.7-0.5,1.3-0.8,1.8-1.1
							c0.5-0.3,0.8-0.5,1-0.7c0.2-0.2,0.3-0.3,0.3-0.3L113.9,87.1z"/>
					</g>
					<g>
						<path fill="#6A5C50" d="M119.7,140c0,0,0,0.1,0.1,0.2c0,0.1,0.1,0.3,0.2,0.5c0.3,0.4,1,0.5,1.9,0.3c0.4-0.1,0.9-0.2,1.5-0.3
							c0.6-0.1,1.2-0.2,1.9-0.1c0.2,0,0.4,0.1,0.6,0.2l0.1,0.1c0.1,0.1,0.1,0.1,0.1,0.1c0.1,0.1,0.1,0.1,0.2,0.2
							c0.4,0.3,0.5,0.7,0.7,1.1c0.3,0.8,0.4,1.6,0.5,2.4c0.1,0.8,0.1,1.6,0.2,2.5c0.1,0.8,0.2,1.8,0.3,2.7c0.1,1.9,0.2,3.8,0.1,5.8
							c-0.1,2-0.3,4.1-0.6,6.2c-0.4,2.1-0.8,4.1-0.9,6.2c-0.1,1,0,2,0.2,2.9c0.2,0.9,0.6,1.5,1.3,1.7c0.1,0,0.2,0.1,0.3,0.1l0.1,0
							l0,0c-0.1,0,0.1,0-0.1,0l0,0l0.1,0c0.3,0,0.6,0,0.6-0.1c0,0,0.1,0,0.1,0l0.2-0.1c0.2-0.1,0.3-0.2,0.5-0.4
							c0.6-0.6,1.1-1.4,1.5-2.3c0.8-1.7,1.3-3.6,1.5-5.3c0.2-1.7,0.1-3.5,0.1-5c-0.1-3.2-0.2-5.9-0.2-7.7c-0.1-1.9,0-2.9,0-2.9
							s0,0.3,0.1,0.8c0.1,0.5,0.2,1.2,0.3,2.1c0.2,1.9,0.7,4.5,1,7.7c0.1,1.6,0.3,3.3,0.2,5.3c-0.2,1.9-0.6,3.9-1.4,5.8
							c-0.4,1-0.9,2-1.7,2.9c-0.2,0.2-0.4,0.5-0.7,0.6l-0.4,0.3c-0.1,0.1-0.4,0.2-0.6,0.2c-0.5,0.1-0.7,0.1-0.9,0.1l-0.1,0l0,0
							c-0.3,0-0.1,0-0.2,0l-0.1,0l-0.3,0c-0.2,0-0.3-0.1-0.5-0.1c-0.7-0.2-1.3-0.7-1.7-1.2c-0.4-0.6-0.7-1.2-0.8-1.8
							c-0.3-1.2-0.3-2.3-0.3-3.5c0.1-2.2,0.6-4.4,1-6.4c0.3-2,0.6-4.1,0.7-6c0.1-2,0.2-3.9,0.1-5.7c0-0.9-0.1-1.8-0.1-2.6
							c-0.1-0.9,0-1.7-0.1-2.5c0-0.8-0.1-1.5-0.3-2.1c-0.1-0.3-0.2-0.6-0.4-0.8c0-0.1-0.1-0.1-0.2-0.2c0,0-0.1-0.1-0.1-0.1l-0.1,0
							c-0.1-0.1-0.2-0.1-0.4-0.2c-0.5-0.2-1.1-0.1-1.7-0.1c-0.5,0.1-1.1,0.1-1.5,0.2c-0.5,0-0.9,0.1-1.3-0.1
							c-0.4-0.1-0.6-0.4-0.8-0.6c-0.1-0.2-0.2-0.4-0.2-0.5C119.8,140.1,119.7,140,119.7,140z"/>
					</g>
					<g>
						<path fill="#6A5C50" d="M134.3,141.9c0,0,0.1-0.2,0.3-0.4c0.2-0.3,0.6-0.7,1.2-1.1c0.3-0.2,0.7-0.4,1.3-0.5
							c0.5-0.1,1.2,0,1.8,0.4c1.1,0.7,1.7,1.7,2.3,2.7c0.5,1,1.1,2,1.7,2.5c0.1,0.1,0.3,0.2,0.4,0.3c0.3,0.1,0.7,0.3,0.8,0.3
							c0.1,0,0.2,0.1,0.3,0.1l0.4,0c0.3,0,0.5-0.1,0.8-0.1c1.1-0.4,2.3-1.3,3-2.5c0.8-1.2,1.3-2.6,1.5-4c0.1-0.7,0.1-1.3,0.1-2.1
							c0-0.6-0.1-1.3-0.2-1.9c-0.2-1.3-0.6-2.6-1-4c-0.4-1.4-0.6-2.8-0.6-4.3c0-0.2,0-0.4,0-0.5l0.1-0.6c0.1-0.3,0.1-0.5,0.3-1
							c0.3-0.8,0.6-1.4,1-1.9c0.8-1,1.6-1.7,2.4-2.3c0.7-0.6,1.4-1,2-1.4c1.1-0.7,1.7-1.1,1.7-1.1l0.2,0.2c0,0-0.1,0.2-0.2,0.5
							c-0.2,0.3-0.5,0.8-0.8,1.3c-0.4,0.5-0.9,1.2-1.4,1.9c-0.5,0.7-1.1,1.5-1.5,2.3c-0.2,0.4-0.4,0.9-0.4,1.2
							c0,0.1-0.1,0.5-0.1,0.8c0,0,0-0.2,0-0.1l0,0l0,0l0,0l0,0.1l0,0.2c0,0.1,0,0.3,0,0.4c0,1.1,0.2,2.3,0.5,3.6
							c0.2,1.3,0.5,2.8,0.6,4.4c0,0.8,0,1.6-0.2,2.5c-0.2,0.7-0.4,1.6-0.7,2.3c-0.7,1.4-1.5,2.7-2.3,4c-0.9,1.2-1.7,2.5-3.1,3.4
							c-0.4,0.2-0.7,0.4-1.1,0.6l-0.6,0.2c-0.2,0-0.5,0.1-0.7,0.1c-0.6,0-0.8,0-1.1-0.1c-0.6-0.1-1-0.3-1.4-0.6
							c-0.8-0.5-1.2-1.2-1.5-1.8c-0.3-0.6-0.6-1.1-0.8-1.6c-0.4-1-0.8-1.8-1.2-2.2c-0.2-0.2-0.3-0.3-0.6-0.3c-0.2-0.1-0.5,0-0.8,0
							c-0.6,0.1-1,0.3-1.3,0.4c-0.3,0.1-0.5,0.2-0.5,0.2L134.3,141.9z"/>
					</g>
					<g>
						<path fill="#6A5C50" d="M153,114.7c0,0,0.2,0,0.6,0c0.4,0,1,0.1,1.8,0.3c0.8,0.2,1.7,0.5,2.7,1c1,0.6,2,1.5,2.8,2.7
							c0.8,1.2,1.3,2.6,1.8,4.1c0.5,1.5,0.9,3,1.7,4.3c0.8,1.3,2,2.1,3.6,2.3c0.6,0.1,1.4,0,2-0.3c0.6-0.3,1.2-0.8,1.7-1.4
							c1-1.2,1.8-2.8,2.3-4.4c0.5-1.6,1-3.2,1.2-4.9c0.2-1.6,0.4-3.2,0.3-4.7l0-0.3l0-0.1l0-0.1c0-0.2,0-0.4-0.1-0.5
							c0-0.3-0.1-0.7-0.2-1c-0.1-0.7-0.3-1.4-0.4-2c-0.5-2.6-0.8-4.9-0.6-6.6c0.1-0.8,0.5-1.4,0.7-1.7c0.3-0.3,0.5-0.4,0.5-0.4
							s-0.2,0.2-0.4,0.5c-0.2,0.4-0.4,0.9-0.4,1.7c0,1.5,0.5,3.7,1.3,6.2c0.2,0.6,0.4,1.3,0.6,2c0.1,0.3,0.2,0.7,0.3,1.1
							c0,0.2,0.1,0.4,0.1,0.6l0,0.1l0,0.2l0,0.3c0.2,1.6,0.1,3.3-0.1,5c-0.2,1.7-0.5,3.5-1.1,5.2c-0.6,1.7-1.3,3.5-2.6,5
							c-0.6,0.8-1.4,1.5-2.4,1.9c-1,0.5-2.1,0.6-3.2,0.5c-0.9-0.1-1.9-0.5-2.8-1.1c-0.8-0.6-1.5-1.4-1.9-2.2
							c-0.9-1.7-1.2-3.3-1.6-4.8c-0.4-1.5-0.8-2.8-1.4-3.9c-0.6-1.1-1.4-2-2.2-2.6c-0.8-0.6-1.7-1-2.4-1.3c-0.7-0.3-1.3-0.4-1.7-0.5
							C153.2,114.8,153,114.7,153,114.7z"/>
					</g>
					<g>
						<path fill="#6A5C50" d="M184.2,97.3c0,0,0.3,0,0.8,0c0.5,0,1.3,0,2.3,0.1c2,0.2,4.8,0.5,8,1.8c1.6,0.6,3.3,1.4,4.9,2.7
							c1.6,1.2,3.1,2.5,4.8,3.4c0.9,0.4,1.7,0.7,2.7,0.7c0.2,0,0.5,0,0.7-0.1c0.3,0,0.6-0.1,0.8-0.1c0.5-0.1,1-0.2,1.4-0.4
							c1.9-0.7,3.8-1.9,4.4-3.6c0.3-0.8,0.3-1.7,0-2.6l-0.1-0.3l0-0.1c0-0.1,0,0.1,0,0.1l0,0l0,0l-0.1-0.2c-0.1-0.2-0.3-0.5-0.4-0.6
							c-0.2-0.3-0.6-0.7-1-1c-1.5-1.3-3.5-2.3-5.3-3.2c-1.9-0.9-3.7-1.8-5.4-3c-1.5-1.2-2.9-2.5-4.1-3.7c-2.4-2.4-3.9-5.1-4.1-7.1
							c-0.1-1,0-1.8,0.2-2.3c0.2-0.5,0.3-0.8,0.3-0.8s-0.1,0.3-0.2,0.8c-0.1,0.5-0.1,1.3,0.1,2.2c0.2,0.9,0.7,2,1.5,3.1
							c0.8,1.1,1.8,2.2,3,3.3c1.2,1.1,2.7,2.2,4.2,3.3c1.5,1,3.4,1.8,5.3,2.6c1,0.4,1.9,0.9,2.9,1.4c1,0.5,2,1.1,2.9,1.9
							c0.5,0.4,0.9,0.8,1.3,1.4c0.2,0.3,0.3,0.5,0.5,0.8l0.1,0.2l0,0l0,0c0,0,0.1,0.2,0,0.1l0,0.1l0.2,0.5c0.5,1.2,0.5,2.7,0,4
							c-0.5,1.3-1.4,2.3-2.4,3c-1,0.7-2.1,1.3-3.2,1.7c-0.6,0.2-1.1,0.4-1.7,0.5c-0.3,0.1-0.6,0.1-0.8,0.1c-0.3,0-0.6,0-1,0
							c-1.3,0-2.5-0.4-3.5-0.9c-2-1.1-3.4-2.6-4.9-3.8c-1.4-1.2-3-2.1-4.4-2.8c-3-1.4-5.7-2.1-7.6-2.5
							C185.3,97.4,184.2,97.3,184.2,97.3z"/>
					</g>
					<path fill="none" stroke="#6A5C50" stroke-miterlimit="10" d="M197.3,84.3c-4.3-4.4,0.4-11.7,8.3-10.7c2.7,0.3,5.5,0.8,7.6-1.1
						c1.7-1.6,1.4-4.9-0.3-6.7c-2.6-2.9-12.2-1-15.5,0c-5.5,1.7-10.4,3.7-16,5.5c-6.4,2.1-11.1,3.3-17,1.9"/>
					<g>
						<path fill="#6A5C50" d="M155.6,74c-0.2-0.2-0.3-0.5-0.4-0.7c-0.1-0.3-0.2-0.5-0.2-0.8c-0.1-0.6-0.1-1.1-0.1-1.7l0-0.2l0.2-0.1
							c1.2-0.8,2.4-0.9,3.5-1.2c1.1-0.2,2.2-0.5,3-1c0.4-0.2,0.7-0.5,0.8-0.9c0.1-0.2,0.1-0.4,0.2-0.6c0,0,0-0.3,0-0.4
							c0-0.1,0-0.1,0-0.2c0-0.1,0-0.2-0.1-0.3c-0.1-0.1-0.2-0.2-0.5-0.2c-0.4-0.1-1-0.2-1.5-0.2c-1.1,0-2.3,0.1-3.5,0.2
							c-1.2,0.1-2.3,0.4-3.6,0.3c-0.4-0.1-0.6-0.1-0.9-0.2c-0.3-0.1-0.6-0.2-0.9-0.4c-0.6-0.3-1-0.9-1.2-1.6
							c-0.4-1.3-0.1-2.6,0.2-3.8c0.6-2.4,1.7-4.5,2.3-6.6c0.2-0.5,0.3-1,0.3-1.5c0-0.5-0.1-0.8-0.2-1c-0.2-0.4-1.3-0.6-2.3-0.5
							c-0.5,0-1.1,0.1-1.6,0.1c-0.2,0-0.2,0.1-0.3,0.1c-0.1,0-0.2,0.1-0.3,0.1c-0.2,0.1-0.4,0.2-0.6,0.3c-0.7,0.5-1.2,1.5-1.6,2.5
							c-0.4,1-0.8,2.2-1.2,3.3c-0.2,0.6-0.5,1.1-1,1.6c-0.2,0.2-0.5,0.4-0.8,0.5c-0.3,0.1-0.7,0.1-1,0l0-0.2c0.6,0,1-0.3,1.3-0.8
							c0.3-0.4,0.4-1,0.6-1.5c0.3-1.1,0.4-2.3,0.7-3.5c0.3-1.2,0.8-2.5,1.9-3.5c0.3-0.2,0.6-0.5,0.9-0.6c0.2-0.1,0.3-0.2,0.5-0.2
							c0.2-0.1,0.4-0.1,0.5-0.2l0.2,0l0.1,0l0.1,0l0.1,0l0.5-0.1c0.3,0,0.6-0.1,0.9-0.1c0.6,0,1.3-0.1,2,0.1
							c0.7,0.1,1.6,0.5,2.1,1.3c0.6,0.8,0.6,1.7,0.5,2.4c-0.1,0.7-0.3,1.3-0.5,1.9c-0.8,2.3-2,4.4-2.9,6.5c-0.4,1-0.8,2.1-0.6,3.1
							c0.1,0.5,0.3,0.9,0.8,1.2c0.2,0.2,0.4,0.3,0.7,0.4c0.3,0.1,0.6,0.2,0.8,0.2c1.1,0.1,2.3-0.2,3.4-0.4c1.1-0.3,2.3-0.6,3.5-0.8
							c0.6-0.1,1.3-0.1,2,0c0.4,0.1,0.8,0.2,1.1,0.5c0.4,0.3,0.7,0.7,0.8,1.2c0.1,0.2,0.1,0.5,0.1,0.7c0,0.2,0,0.2,0,0.5
							c-0.1,0.4-0.1,0.7-0.3,1.1c-0.3,0.7-0.9,1.3-1.5,1.7c-1.3,0.7-2.5,0.8-3.7,1c-1.2,0.1-2.4,0.2-3.3,0.5l0.2-0.3
							c-0.2,0.5-0.2,0.9-0.3,1.4c0,0.2,0,0.5,0,0.8c0,0.3,0.1,0.5,0.2,0.7L155.6,74z"/>
					</g>
					<g>
						<path fill="#6A5C50" d="M107.5,66.9c-1.9,0.8-4,1.1-6,1.1c-2.1,0-4.1-0.2-6.1-0.6c-2-0.4-4-0.9-6-1.6
							c-1.9-0.7-3.9-1.2-5.8-2.4c-3.6-2.2-6.4-5.3-9.8-7.3c-1.7-1-3.5-1.7-5.3-1.8c-1-0.1-2-0.1-3,0c-1,0-2,0.1-2.9,0.3
							c-3.9,0.6-7.6,2.2-11,4.4c-1.7,1.1-3.3,2.3-4.8,3.6c-1.5,1.3-3,2.7-4.1,4.3c-0.6,0.8-1,1.7-1.1,2.6c0,0.4,0.1,0.9,0.4,1.2
							c0.3,0.3,0.7,0.6,1.1,0.7c0.4,0.2,0.9,0.3,1.4,0.3l0.8,0.1c0.2,0,0.5,0,0.7,0c0.9-0.1,1.9-0.4,2.8-0.8c1.8-0.8,3.4-2,5-3.3
							c1.6-1.3,3.1-2.7,4.7-3.9c0.8-0.6,1.8-1.1,2.7-1.6c1-0.4,2-0.7,3-1c2-0.6,4.1-0.9,6.2-1c2.1,0,4.3,0.1,6.3,1.2
							c0.3,0.1,0.5,0.3,0.7,0.5l0.4,0.3c0.1,0.1,0.1,0.1,0.2,0.2l0.1,0.1c0.3,0.3,0.8,0.8,1.1,1.3c0.7,1,1,2.3,0.8,3.5
							c-0.2,1.2-0.8,2.3-1.5,3.2c-0.7,0.9-1.5,1.6-2.3,2.3c-1.7,1.3-3.5,2.4-5.4,3.3c-0.9,0.5-2,0.9-2.8,1.2
							c-0.9,0.4-1.7,0.9-2.6,1.4c-0.8,0.5-1.6,1.1-2.3,1.7c-0.7,0.6-1.3,1.3-1.6,2c-0.3,0.7-0.3,1.3,0.2,1.9
							c0.4,0.6,1.1,1.2,1.9,1.6l0.6,0.3l0.7,0.3c0.2,0.1,0.5,0.2,0.7,0.3l0.6,0.2c0.4,0.1,0.9,0.2,1.3,0.3c0.5,0.1,0.9,0.1,1.4,0.1
							c3.8,0.2,7.7-1,11.3-2.7c1.8-0.8,3.6-1.8,5.3-2.8l0.6-0.4l0.6-0.4c0.4-0.3,0.8-0.5,1.2-0.8c0.8-0.6,1.6-1.2,2.3-1.9
							c1.5-1.3,3.1-2.7,4.8-3.8c1.7-1.1,3.8-1.9,5.8-2.2l0.2,0l0.1,0.1c1.1,1.3,2,2.8,2.8,4.3l-0.2,0.1c-0.9-1.4-1.9-2.8-3-4
							l0.3,0.1c-1.9,0.5-3.8,1.3-5.4,2.5c-1.6,1.1-3,2.6-4.5,4c-0.8,0.7-1.5,1.4-2.3,2c-0.4,0.3-0.8,0.7-1.3,1
							c-0.4,0.3-0.9,0.6-1.3,0.9c-1.7,1.1-3.5,2.1-5.4,3c-1.9,0.9-3.8,1.7-5.8,2.3c-2,0.6-4.1,0.9-6.3,0.9c-0.5,0-1.1,0-1.6-0.1
							c-0.5-0.1-1.1-0.2-1.6-0.3l-0.8-0.2c-0.3-0.1-0.5-0.2-0.7-0.3L63.6,88c-0.4-0.2-0.5-0.3-0.8-0.4c-1-0.5-1.9-1.2-2.7-2.3
							c-0.4-0.5-0.6-1.2-0.7-1.9c-0.1-0.7,0.1-1.4,0.4-2c0.5-1.2,1.3-2,2.1-2.8c0.8-0.7,1.7-1.4,2.6-1.9c0.9-0.6,1.8-1,2.8-1.5
							c1-0.5,1.9-0.8,2.8-1.2c1.8-0.8,3.5-1.8,5-3c1.5-1.2,2.9-2.6,3.2-4.2c0.1-0.8,0-1.6-0.5-2.3c-0.2-0.4-0.5-0.6-0.8-1l-0.1-0.1
							c0,0-0.1-0.1-0.1-0.1l-0.3-0.2c-0.2-0.1-0.3-0.3-0.5-0.4c-1.6-0.9-3.6-1.1-5.5-1.1c-2,0-4,0.2-5.9,0.7
							c-1.9,0.5-3.8,1.1-5.4,2.2c-1.6,1.1-3.2,2.5-4.8,3.7c-1.6,1.2-3.3,2.5-5.2,3.3c-0.9,0.4-2,0.7-3,0.8c-0.3,0-0.5,0-0.8,0
							l-0.8-0.1c-0.6-0.1-1-0.2-1.6-0.4c-0.5-0.2-1-0.5-1.4-0.9C41.2,70.6,41,70,41,69.4c0.1-1.1,0.6-2.1,1.2-3
							c1.2-1.7,2.6-3.2,4.1-4.6c1.5-1.4,3.1-2.7,4.8-3.9c3.4-2.3,7.2-4.3,11.3-5c1-0.2,2.1-0.3,3.1-0.4c1.1-0.1,2.1,0,3.1,0
							c2.3,0.1,4.3,1,6.1,2.1c3.6,2.2,6.4,5.3,9.7,7.5c1.5,1.1,3.5,1.8,5.4,2.5c1.9,0.7,3.8,1.3,5.8,1.8c3.9,0.9,8,1.5,11.9,0.3
							L107.5,66.9z"/>
					</g>
					<g>
						<path fill="#6A5C50" d="M107.5,65.7c0,0,0.3-0.1,0.7-0.3c0.2-0.1,0.5-0.2,0.8-0.4c0.3-0.2,0.7-0.4,0.7-0.8
							c0.1-0.4-0.2-0.8-0.6-1.1c-0.4-0.3-0.9-0.6-1.5-0.9c-1.1-0.6-2.5-1.1-4-1.7c-0.8-0.3-1.5-0.6-2.4-0.9
							c-0.2-0.1-0.4-0.2-0.6-0.3c-0.1-0.1-0.2-0.1-0.3-0.2l-0.2-0.1c-0.1-0.1-0.2-0.1-0.3-0.2c-0.3-0.4-0.6-0.6-0.9-1.1L98.5,57
							c-0.1-0.2-0.2-0.5-0.4-0.8C98,56,98,55.6,97.9,55.3c0-0.3,0-0.7,0.1-1c0.2-0.7,0.9-1.2,1.5-1.5c0.6-0.2,1.2-0.3,1.8-0.4
							c1.2,0,2.3,0.2,3.4,0.7c1.1,0.4,2.1,1.1,2.9,1.8c1.7,1.4,3.2,3,4.7,4.5c1.5,1.4,3.1,2.9,4.8,3.5c1.7,0.5,3.6,0.1,5.2-0.9
							c0.8-0.5,1.4-1,1.4-1.6c0.1-0.6-0.3-1.5-0.6-2.5c-0.1-0.5-0.2-1-0.2-1.6c0-0.6,0.3-1.1,0.5-1.5c0.6-0.9,1.4-1.5,2.3-1.8
							c0.9-0.3,1.8-0.3,2.6-0.1c0.4,0.1,0.8,0.3,1.1,0.5c0.2,0.2,0.3,0.2,0.4,0.4c0.1,0.1,0.3,0.3,0.4,0.4c0.4,0.6,0.6,1.3,0.7,1.9
							c0.1,0.6,0.1,1.1,0.1,1.6c0,0.9,0.1,1.7,0.3,2.1c0.2,0.5,0.4,0.7,0.4,0.7c0,0-0.2-0.2-0.5-0.6c-0.3-0.4-0.5-1.2-0.6-2.1
							c-0.2-0.9-0.3-2.1-1-3c-0.8-0.9-2.2-1.2-3.5-0.7c-0.6,0.3-1.2,0.8-1.5,1.4c-0.2,0.4-0.3,0.7-0.3,1c0,0.3,0.1,0.7,0.2,1.1
							c0.1,0.4,0.3,0.8,0.5,1.3c0.2,0.5,0.4,1,0.3,1.7c0,0.2,0,0.3-0.1,0.5c0,0.2-0.1,0.3-0.2,0.5c-0.1,0.2-0.2,0.3-0.3,0.5
							c-0.1,0.2-0.2,0.2-0.3,0.3c-0.5,0.5-0.8,0.8-1.3,1.1c-0.9,0.6-2,1.1-3.1,1.4c-1.2,0.2-2.4,0.3-3.6-0.1c-1.2-0.4-2.2-1-3.1-1.7
							c-0.9-0.7-1.7-1.4-2.5-2.2c-1.6-1.5-3-3.1-4.5-4.4c-0.8-0.7-1.5-1.2-2.4-1.6c-0.8-0.4-1.8-0.6-2.6-0.6c-0.4,0-0.8,0.1-1.1,0.2
							c-0.3,0.1-0.5,0.3-0.6,0.5c-0.2,0.4,0.1,1.3,0.5,1.9c0.2,0.3,0.5,0.7,0.8,1.1c0,0,0,0,0,0l0.1,0.1l0.3,0.1l0.6,0.3
							c0.8,0.4,1.5,0.7,2.3,1.1c1.5,0.7,2.8,1.4,3.9,2.1c0.6,0.4,1.1,0.8,1.5,1.2c0.4,0.4,0.8,1,0.6,1.6c-0.2,0.6-0.7,0.8-1,0.9
							c-0.3,0.2-0.7,0.2-0.9,0.3C107.8,65.6,107.5,65.7,107.5,65.7z"/>
					</g>
					<g>
						<path fill="#6A5C50" d="M118.3,127.8c-0.2,0.7-0.6,1.3-1,2c-0.4,0.6-0.7,1.3-1,1.9c-0.3,0.7-0.7,1.3-1.2,1.9
							c-0.4,0.6-0.8,1.2-1.2,1.8c-0.8,1.2-1.5,2.5-2.2,3.7c-0.7,1.3-1.2,2.5-1.7,3.9c-0.9,2.7-1.6,5.5-1.8,8.3
							c-0.1,1.4-0.3,2.9-0.3,4.3c0,1.4,0.1,2.8,0.6,3.9c0.3,0.5,0.6,0.9,1,1.1c0.1,0.1,0.2,0.1,0.3,0.1l0.1,0c0,0-0.2,0-0.1,0l0,0
							l0,0l0.1,0l0.3,0c0.2,0,0.4,0.1,0.5,0c0.1,0,0.2,0,0.4,0c1.1-0.1,2.1-0.9,2.8-2c0.8-1.1,1.3-2.4,1.7-3.7
							c0.4-1.3,0.7-2.8,1.1-4.2c0.4-1.4,0.8-2.8,1.1-4.2c0.3-1.4,0.4-2.8,0.4-4.2c0-1.4-0.1-2.9-0.1-4.4c0-1.5,0.1-3,0.6-4.4l0.1,0
							l-0.1,0.8l0-0.8l0.1,0c-0.2,1.4-0.2,2.9-0.1,4.3c0.1,1.4,0.4,2.9,0.6,4.3c0.2,1.5,0.1,3-0.1,4.5c-0.2,1.5-0.5,2.9-0.9,4.3
							c-0.3,1.4-0.6,2.8-1,4.3c-0.4,1.4-0.9,2.9-1.8,4.3c-0.4,0.7-1,1.3-1.7,1.9c-0.7,0.6-1.5,0.9-2.5,1c-0.2,0-0.5,0-0.7,0
							c-0.3,0-0.4,0-0.6,0l-0.3,0l-0.1,0l-0.2,0l-0.2-0.1c-0.2-0.1-0.5-0.1-0.7-0.2c-0.9-0.4-1.6-1.3-1.9-2
							c-0.7-1.6-0.8-3.2-0.8-4.7c0-1.5,0.1-3,0.3-4.5c0.4-3,1.1-5.9,2.3-8.6c0.6-1.4,1.2-2.8,2-4c0.8-1.2,1.6-2.5,2.5-3.6
							c0.5-0.6,0.9-1.2,1.4-1.7c0.5-0.5,0.9-1.1,1.3-1.7c0.4-0.6,0.7-1.3,1.2-1.9C117.5,129,118,128.5,118.3,127.8z"/>
					</g>
					<g>
						<path fill="#6A5C50" d="M161.2,48.7c0.2-0.4,0.4-1,0.8-1.8c0.3-0.7,0.8-1.5,1.3-2.5c0.6-0.9,1.3-2,2.2-3c0.9-1,2-2,3.5-2.8
							c1.4-0.8,2.9-1.3,4.3-2c1.4-0.7,2.8-1.8,3.3-3.4c0.3-0.8,0.3-1.6,0-2.3c-0.3-0.7-0.9-1.2-1.6-1.4c-1.5-0.5-3,0.2-4.4,1
							c-1.4,0.8-2.6,1.9-3.7,3c-1,1.1-1.9,2.4-2.6,3.6c-0.2,0.3-0.3,0.6-0.5,0.9c-0.1,0.3-0.3,0.6-0.4,1c-0.3,0.6-0.5,1.2-0.7,1.8
							c-0.8,2.4-1.2,4.5-1.4,6c-0.1,0.8-0.1,1.4-0.1,1.8C161.2,48.6,161.2,48.7,161.2,48.7z M161,49.2c0,0-0.1-0.2-0.2-0.6
							c-0.1-0.4-0.2-1-0.3-1.8c-0.2-1.6-0.2-3.9,0.4-6.5c0.2-0.7,0.4-1.3,0.6-2.1c0.1-0.4,0.3-0.7,0.4-1c0.2-0.4,0.3-0.7,0.5-1.1
							c0.7-1.4,1.7-2.8,3-4c1.2-1.2,2.7-2.3,4.4-3.1c0.9-0.4,1.7-0.7,2.7-0.9c1-0.1,2,0,2.9,0.4c0.9,0.4,1.7,1.3,1.9,2.2
							c0.3,0.9,0.2,1.9-0.1,2.8c-0.6,1.7-2,3.1-3.3,4.1c-1.4,1-2.8,1.9-4,2.6c-1.2,0.7-2.3,1.6-3.1,2.5c-1.8,1.8-3.1,3.5-4.1,4.7
							l-1.7,2L161,49.2z"/>
					</g>
					<g>
						<path fill="#6A5C50" d="M155.3,28.1c0.1-0.1,0.6-0.6,1.3-1.2c0.9-0.7,2.1-1.8,3.9-2.8c0.9-0.4,1.8-0.9,2.8-1.4
							c0.9-0.5,1.9-1,2.6-1.8c0.3-0.4,0.6-0.9,0.7-1.5c0.1-0.3,0.1-0.6,0.1-0.9c0-0.3,0-0.6-0.1-0.9c-0.1-0.6-0.3-1.2-0.7-1.6
							c-0.4-0.4-0.9-0.6-1.5-0.7c-1.1-0.1-2.3,0.3-3.4,0.7c-1.1,0.4-2.2,1-3.1,1.7c-0.9,0.7-1.7,1.4-2.2,2.2
							c-0.2,0.3-0.4,0.8-0.6,1.3c-0.2,0.5-0.3,0.9-0.5,1.3c-0.5,1.8-0.6,3.3-0.3,4.3c0.2,0.5,0.4,0.8,0.6,1
							C155.1,28,155.2,28.1,155.3,28.1z M155.2,28.4c0,0-0.2-0.1-0.5-0.2c-0.3-0.1-0.7-0.4-1.1-1c-0.7-1.1-1.1-3-0.7-5
							c0.2-1.1,0.4-2.1,1-3.3l0.2-0.4c0.1-0.2,0.2-0.3,0.3-0.5c0.2-0.3,0.4-0.5,0.7-0.7c0.5-0.5,1-0.9,1.6-1.2
							c1.1-0.7,2.4-1.3,3.7-1.7c1.3-0.4,2.8-0.5,4.2-0.1c0.7,0.2,1.4,0.7,1.8,1.2c0.5,0.6,0.7,1.3,0.8,2c0.1,0.3,0.1,0.7,0.1,1
							c0,0.3,0,0.6,0,1c-0.1,0.7-0.2,1.4-0.5,2c-0.6,1.3-1.6,2.2-2.6,2.8c-1,0.6-2.1,1-2.9,1.4c-1.7,0.8-3.2,1.5-4.2,2L155.2,28.4
							L155.2,28.4z"/>
					</g>
					<g>
						<path fill="#6A5C50" d="M104.1,33.2c0,0,0.1,0,0.4-0.1c0.3-0.1,0.6-0.3,1-0.5c0.4-0.2,0.9-0.5,1.5-0.9
							c0.6-0.4,1.2-0.8,1.8-1.3c0.7-0.5,1.4-1.1,2-1.7c0.7-0.6,1.4-1.3,2-2.1c0.6-0.7,1.2-1.6,1.4-2.4c0-0.2,0.1-0.3,0-0.5
							c0-0.1,0-0.3,0-0.4c0-0.1,0-0.2-0.1-0.2c-0.1-0.4-0.2-0.5-0.4-0.6c-0.5-0.2-1.6,0-2.5,0.4c-0.9,0.4-1.8,0.9-2.7,1.4
							c-0.8,0.6-1.6,1.1-2.3,1.7c-0.3,0.3-0.6,0.6-0.9,0.9c-0.2,0.3-0.5,0.7-0.7,1c-0.8,1.4-1.2,2.7-1.1,3.6c0,0.5,0.1,0.8,0.2,1.1
							C104,33.1,104.1,33.2,104.1,33.2z M104.1,33.2c0,0-0.1-0.1-0.3-0.3c-0.1-0.2-0.4-0.6-0.5-1.1c-0.3-1-0.2-2.6,0.5-4.2
							c0.2-0.4,0.3-0.8,0.6-1.3c0.3-0.5,0.6-0.9,0.9-1.2c0.7-0.8,1.5-1.5,2.3-2.1c0.9-0.6,1.8-1.3,2.9-1.8c0.5-0.2,1.1-0.5,1.8-0.6
							c0.6-0.1,1.4-0.2,2.2,0.1c0.9,0.3,1.5,1.2,1.6,1.9c0.1,0.2,0.1,0.4,0.1,0.6c0,0.2,0,0.3,0,0.4c0,0.4-0.1,0.7-0.1,1.1
							c-0.4,1.4-1.2,2.3-1.9,3.1c-0.8,0.8-1.6,1.5-2.4,2.1c-0.8,0.6-1.6,1.1-2.4,1.5c-0.7,0.4-1.5,0.7-2.1,1
							c-0.6,0.3-1.2,0.4-1.7,0.6c-0.5,0.1-0.9,0.2-1.1,0.2C104.2,33.2,104.1,33.2,104.1,33.2z"/>
					</g>
					<g>
						<path fill="#6A5C50" d="M118.1,53.5c0,0-0.1-0.1-0.3-0.2c-0.2-0.2-0.4-0.5-0.6-0.9c-0.4-0.8-0.8-2.1-1.2-3.7
							c-0.4-1.5-0.7-3.3-1.3-5c-0.3-0.8-0.8-1.6-1.3-1.8c-0.2-0.1-0.5-0.1-0.9,0c-0.3,0.1-0.8,0.3-1.1,0.5c-0.7,0.4-1.1,1-1.1,1.7
							c0,0.7,0.2,1.6,0.6,2.4c0.8,1.6,2,2.9,3,4c1.1,1.1,2.1,1.9,2.8,2.3c0.4,0.2,0.7,0.4,0.9,0.5C117.9,53.4,118.1,53.5,118.1,53.5
							z M118.1,53.5c0,0-0.1,0-0.4,0c-0.2,0-0.6-0.1-1.1-0.2c-0.9-0.3-2.1-0.9-3.4-1.8c-0.7-0.5-1.3-1-2-1.7
							c-0.7-0.7-1.3-1.4-1.8-2.3c-0.5-0.9-1-2-1-3.3c0-0.7,0.2-1.3,0.6-1.9c0.2-0.3,0.4-0.6,0.6-0.8c0.2-0.2,0.6-0.5,0.8-0.6
							c0.5-0.3,1.1-0.6,1.7-0.7c0.6-0.2,1.5-0.1,2.2,0.2c0.7,0.3,1.1,0.9,1.4,1.4c0.3,0.5,0.5,1,0.7,1.6c0.3,1,0.4,2,0.6,2.9
							c0.1,0.9,0.2,1.8,0.2,2.5c0.1,1.6,0.2,2.8,0.4,3.7c0.1,0.4,0.2,0.8,0.4,1C118,53.4,118.1,53.5,118.1,53.5z"/>
					</g>
					<g>
						<path fill="#6A5C50" d="M93.3,54c0,0-0.4-0.3-0.9-0.8c-0.5-0.5-1.3-1.3-2.2-2.2c-0.4-0.5-0.9-0.9-1.4-1.4
							c-0.5-0.5-1.1-1-1.7-1.3c-0.3-0.2-0.6-0.3-0.8-0.3c-0.2,0-0.3,0-0.4,0.1c-0.3,0.2-0.6,1-0.7,1.8c-0.2,0.8-0.2,1.4,0,2
							c0.2,0.5,0.6,1,1.2,1.5c0.6,0.4,1.2,0.8,1.9,1.1c0.6,0.3,1.2,0.5,1.8,0.7c1.2,0.3,2.2,0.4,2.7,0c0.2-0.2,0.4-0.5,0.4-0.7
							C93.3,54.1,93.3,54,93.3,54z M93.3,54c0,0,0,0.1,0,0.3c0,0.2,0,0.5-0.2,0.9c-0.3,0.4-0.7,0.7-1.3,0.8
							c-0.6,0.1-1.2,0.2-1.9,0.1c-0.7-0.1-1.4-0.2-2.2-0.4c-0.7-0.3-1.5-0.5-2.3-1c-0.8-0.5-1.6-1.2-2-2.2c-0.2-0.5-0.3-1.1-0.3-1.6
							c0-0.3,0-0.6,0-0.8l0-0.3l0.1-0.4c0.1-0.5,0.2-0.9,0.4-1.4c0.2-0.5,0.5-1,1-1.4c0.5-0.5,1.4-0.6,1.9-0.5
							c0.6,0.1,1.1,0.4,1.4,0.7c0.8,0.5,1.3,1.2,1.8,1.8c0.5,0.6,0.9,1.2,1.3,1.7c0.7,1.1,1.2,2.1,1.6,2.7
							C93.1,53.6,93.3,54,93.3,54z"/>
					</g>
					<g>
						<path fill="#6A5C50" d="M67.3,36.3c0,0-0.3,0.1-0.7,0.4c-0.5,0.2-1.1,0.5-1.9,0.8c-0.4,0.1-0.8,0.3-1.3,0.4
							c-0.5,0.1-1,0.1-1.5,0.2c-0.5,0.1-1.1,0.3-1.4,0.7c-0.3,0.4,0,0.7,0.5,0.8c0.1,0,0.6,0.2,0.7,0.1l0.6-0.1
							c0.5-0.1,0.9-0.2,1.4-0.4c0.4-0.2,0.8-0.4,1.2-0.5c0.4-0.2,0.7-0.4,1-0.6l0.2-0.1l0.1-0.1c0.1-0.1,0.2-0.2,0.2-0.3
							c0.1-0.2,0.2-0.4,0.2-0.6c0-0.2-0.1-0.4-0.1-0.5c0-0.1-0.1-0.2-0.1-0.2l0.1-0.1c0,0,0.1,0,0.2,0.1c0.1,0.1,0.4,0.2,0.5,0.5
							c0.2,0.2,0.4,0.7,0.4,1.2c0,0.2,0,0.5-0.2,0.8c-0.1,0.3-0.2,0.5-0.4,0.7c-0.3,0.5-0.7,0.9-1.2,1.2c-0.5,0.3-1.1,0.6-1.7,0.7
							c-0.6,0.2-1.3,0.2-2,0.2c-0.4-0.1-0.7-0.1-1.1-0.3L61,41.1l-0.2-0.1l-0.2-0.1l0,0l0,0c-0.1-0.1,0,0-0.1,0l0,0l0,0l-0.1-0.1
							c-0.2-0.2-0.5-0.5-0.6-0.9c-0.2-0.4,0-0.9,0.2-1.1c0.4-0.5,0.9-0.9,1.4-1.3c0.5-0.4,0.9-0.7,1.4-0.9c0.5-0.2,1-0.3,1.4-0.4
							c0.9-0.1,1.7-0.1,2.2,0c0.3,0,0.5,0.1,0.6,0.2c0.1,0.1,0.2,0.1,0.2,0.1L67.3,36.3z"/>
					</g>
					<g>
						<path fill="#6A5C50" d="M52.1,48.5c0,0-0.4,0.2-1,0.5c-0.7,0.3-1.6,0.7-2.7,1.3c-1.1,0.6-2.3,1.2-3.5,2.1
							c-0.6,0.4-1.1,0.9-1.4,1.5l-0.2,0.4c0,0.1-0.1,0.3-0.2,0.4c0-0.1,0,0,0-0.1l0,0l0,0l0,0l0,0.1l0,0.2c0,0.1,0,0,0,0.1
							c0,0,0,0,0,0c-0.1-0.1,0,0,0.3,0c0.3,0,0.6-0.1,1-0.2c0.7-0.2,1.4-0.5,2-0.8c1.3-0.7,2.4-1.5,3.3-2.3c0.9-0.8,1.5-1.6,1.9-2.2
							c0.2-0.3,0.4-0.5,0.5-0.7C52,48.5,52.1,48.5,52.1,48.5z M52.1,48.5c0,0,0,0.1-0.1,0.3c0,0.2-0.1,0.5-0.2,0.8
							c-0.2,0.7-0.7,1.7-1.4,2.8c-0.8,1.1-1.8,2.2-3.2,3.1c-0.7,0.4-1.5,0.9-2.3,1.2c-0.4,0.1-0.9,0.3-1.5,0.3c-0.3,0-0.6,0-0.9-0.1
							c-0.3-0.1-0.7-0.3-1-0.6C41.1,55.8,41,55.3,41,55c0-0.2,0-0.4,0.1-0.5l0.1-0.4l0.3-0.7c0.1-0.2,0.3-0.4,0.4-0.6
							c0.6-0.8,1.3-1.3,2-1.8c0.7-0.5,1.4-0.8,2.1-1.1c0.7-0.3,1.3-0.5,2-0.7c1.2-0.3,2.3-0.5,3-0.6C51.6,48.5,52.1,48.5,52.1,48.5z
							"/>
					</g>
					<g>
						<path fill="#6A5C50" d="M49.6,147c0,0,0,0.1,0,0.4c0,0.2,0,0.6-0.1,1.1c-0.1,0.9-0.5,2.3-0.9,3.8c-0.2,0.8-0.4,1.6-0.5,2.4
							c-0.1,0.4-0.1,0.9-0.1,1.3l0,0.3l0,0.4c0,0.2,0,0.4,0.1,0.6c0.1,0.4,0.2,0.7,0.4,0.9c0.2,0.2,0.3,0.2,0.6,0.2
							c0.5-0.1,1.2-0.7,1.7-1.5c0.2-0.4,0.4-0.7,0.5-1.2c0.1-0.5,0.2-0.9,0.3-1.4c0.1-1,0.3-2,0.4-3c0.2-2,0.5-3.8,1-5.4
							c0.4-1.6,1.1-2.9,1.7-3.6c0.3-0.4,0.6-0.6,0.8-0.7c0.2-0.1,0.3-0.2,0.3-0.2s-0.1,0.1-0.3,0.3c-0.2,0.2-0.4,0.5-0.6,0.9
							c-0.4,0.8-0.8,2-0.9,3.6c-0.2,1.5-0.2,3.4-0.3,5.4c-0.1,1-0.1,2-0.2,3.1c-0.1,0.5-0.2,1.1-0.3,1.7c-0.1,0.6-0.4,1.2-0.7,1.7
							c-0.3,0.5-0.7,1-1.2,1.4c-0.5,0.4-1.1,0.8-1.9,0.9c-0.8,0.1-1.7-0.3-2.2-0.9c-0.5-0.6-0.7-1.3-0.7-1.9c0-0.3,0-0.6,0-0.9
							l0-0.4l0.1-0.4c0.1-0.5,0.2-1,0.3-1.5c0.2-0.9,0.6-1.8,0.9-2.5c0.6-1.5,1.2-2.6,1.6-3.5C49.4,147.5,49.6,147,49.6,147z"/>
					</g>
					<g>
						<path fill="#6A5C50" d="M31.8,176c-0.1,1-0.3,1.9-0.4,2.8l-0.2,1.4l-0.2,1.4c-0.1,0.5-0.1,0.9-0.1,1.4c0,0.4,0,0.9,0,1.3
							c0,0.4,0.1,0.8,0.2,1.2c0.1,0.2,0.1,0.3,0.2,0.5l0.3,0.4c0.1,0.1,0.2,0.3,0.3,0.3c0.2,0.1,0.4,0.3,0.5,0.4
							c0.3,0.2,0.6,0.4,0.8,0.4c0.2,0,0.2,0,0.4-0.1c0.2-0.2,0.4-0.5,0.5-0.9c0.3-0.8,0.5-1.7,0.6-2.6c0.1-0.9,0.3-1.8,0.3-2.8
							l0-0.3l0.2,0c0.3,0,0.6,0,0.8,0.1c0.2,0.1,0.4,0.3,0.6,0.5c-0.4-0.2-0.9-0.3-1.3-0.1l0.2-0.3c0.2,1,0.4,1.9,0.4,2.9
							c0,0.5,0,1,0,1.5c0,0.5-0.1,1-0.2,1.5c-0.1,0.5-0.3,1.1-0.8,1.6c-0.2,0.3-0.5,0.5-0.9,0.7c-0.4,0.2-0.8,0.2-1.2,0.2
							c-0.8-0.1-1.3-0.4-1.7-0.8c-0.3-0.2-0.4-0.3-0.6-0.5c-0.3-0.3-0.4-0.5-0.6-0.7c-0.1-0.3-0.3-0.5-0.4-0.8
							c-0.1-0.3-0.2-0.5-0.3-0.8c0-0.3-0.1-0.5-0.1-0.8l0-0.8c0-0.5,0-1,0.1-1.5c0.1-0.5,0.2-1,0.3-1.5c0.2-1,0.6-1.9,0.9-2.8
							C30.9,177.7,31.3,176.8,31.8,176z"/>
					</g>
					<g>
						<path fill="#6A5C50" d="M2.1,150.5c0,0,0,0.2,0,0.6c0,0.4,0,1-0.1,1.6c0,0.6-0.1,1.4,0,2.1c0,0.4,0.1,0.7,0.2,1
							c0.1,0.3,0.2,0.6,0.4,0.9c0.1,0.1,0.2,0.2,0.3,0.4c0.1,0.1,0.3,0.2,0.3,0.3c0.2,0.1,0.4,0.3,0.5,0.4c0.1,0.1,0.2,0.1,0.3,0.2
							c0.1,0,0,0-0.1,0.1c0,0,0,0,0.1-0.1c0.1-0.2,0.3-0.6,0.4-0.9c0.3-0.6,0.6-1.2,0.9-1.4c0.3-0.3,0.6-0.3,0.5-0.4
							c0,0,0,0.1-0.1,0.2c0,0.1-0.1,0.2-0.1,0.4c-0.1,0.4-0.1,0.9-0.2,1.5c0,0.3,0,0.7-0.2,1.2c-0.1,0.2-0.2,0.5-0.5,0.8
							c-0.4,0.3-0.9,0.3-1.2,0.3c-0.3-0.1-0.6-0.2-0.9-0.3c-0.3-0.1-0.4-0.2-0.6-0.3c-0.3-0.2-0.5-0.3-0.7-0.5
							c-0.2-0.2-0.4-0.4-0.5-0.7c-0.3-0.5-0.5-1-0.6-1.5c-0.1-0.5-0.1-1,0-1.5c0-0.5,0.2-0.9,0.3-1.3c0.1-0.4,0.3-0.7,0.4-1
							c0.3-0.6,0.6-1.1,0.8-1.4C1.9,150.6,2.1,150.5,2.1,150.5z"/>
					</g>
					<g>
						<path fill="#6A5C50" d="M253.6,136.7c0.2,0.3,0.4,0.8,0.4,1.2c0,0.4,0,0.9-0.2,1.3c-0.2,0.8-0.7,1.6-1.1,2.3l-1.3,2.1
							c-0.4,0.7-0.9,1.4-1.2,2.1c-0.2,0.4-0.3,0.7-0.3,1.1c-0.1,0.3,0,0.8,0,1.1c0,0.8,0.1,1.6,0.3,2.4c0.2,0.8,0.4,1.5,0.8,2.1
							c0.4,0.6,1,1,1.7,0.9l-0.3,0.3l1.2-6.2c0,1-0.1,2.1-0.1,3.1c-0.1,1-0.2,2.1-0.3,3.1l0,0.2l-0.3,0.1c-0.5,0.1-1,0.1-1.5-0.1
							c-0.5-0.2-0.8-0.6-1.1-1c-0.5-0.8-0.8-1.6-1-2.4c-0.2-0.8-0.3-1.7-0.3-2.6c0-0.4,0-0.9,0.1-1.3c0.1-0.5,0.2-0.9,0.4-1.3
							c0.8-1.6,1.8-2.9,2.8-4.2c0.5-0.7,0.9-1.4,1.2-2.1C253.8,138.3,253.9,137.5,253.6,136.7z"/>
					</g>
					<g>
						<path fill="#6A5C50" d="M227.7,185.5c0,1,0.3,1.9,0.7,2.8c0.4,0.9,0.8,1.8,1.4,2.6c0.5,0.8,1.1,1.6,1.8,2.3
							c0.6,0.7,1.4,1.4,2.1,1.8c0.4,0.2,0.7,0.2,0.8,0.1c0.2-0.1,0.4-0.5,0.6-0.9c0.3-0.8,0.4-1.8,0.6-2.8c0.1-0.5,0.2-1,0.3-1.5
							c0.1-0.3,0.1-0.5,0.2-0.7l0.1-0.7c0.2-1,0.4-2,0.7-3c0.2-0.5,0.4-1,0.7-1.5c0.2-0.3,0.4-0.5,0.6-0.8c0.3-0.2,0.7-0.5,1.2-0.5
							c0.5,0,0.9,0.1,1.2,0.3c0.3,0.2,0.6,0.4,0.8,0.6c0.4,0.4,0.8,0.9,1.1,1.5c0.5,1,0.7,2.1,0.9,3.1l0.6,3c0.1,0.5,0.2,1,0.3,1.4
							c0.1,0.2,0.1,0.4,0.2,0.6c0.1,0.2,0.2,0.5,0.3,0.7c0.4,0.9,0.8,1.7,1.3,2.4c0.6,0.7,1.2,1.3,2,1.6c0.8,0.3,1.7,0.4,2.6,0.3
							l-0.5,0.4c0.5-1.2,0.6-2.7,0.6-4.1c0-1.4-0.1-2.9-0.2-4.4c-0.1-1.5-0.2-3-0.1-4.4c0.1-1.4-0.1-2.9-0.3-4.3
							c-0.5-2.9-1.2-5.7-2-8.5c-0.8-2.8-1.4-5.7-2.4-8.4c-0.5-1.4-1-2.7-1.7-4c-0.7-1.3-1.4-2.4-2.3-3.4c-0.5-0.5-1-1-1.5-1.2
							c-0.2-0.1-0.5-0.1-0.4-0.1c0.1,0,0.1-0.1,0.1-0.1c0,0,0,0.1-0.1,0.2c-0.1,0.5,0,1.2,0.1,1.9c0.1,0.6,0.3,1.4,0.5,2.1
							c0.4,1.3,0.8,2.7,1.4,4.1l1.6,4.1c1,2.8,1.9,5.7,2.1,8.8l0.1,1.9l-1.6-0.8c-0.4-0.2-0.8-0.5-1.1-0.8c-0.3-0.3-0.6-0.6-0.8-0.9
							c-0.5-0.6-0.8-1.3-1.2-1.9c-0.4-0.6-0.7-1.2-1-1.7c-0.4-0.5-0.7-1-1.2-1.4c-0.1-0.1-0.2-0.2-0.3-0.3l-0.4-0.3
							c-0.3-0.2-0.5-0.4-0.8-0.5c-0.6-0.3-1.1-0.6-1.7-0.8c-1.2-0.4-2.5-0.6-3.8-0.5l0.8-0.7c0,0,0,0.2,0,0.4c0,0.2,0.1,0.4,0.2,0.6
							c0.1,0.4,0.3,0.9,0.5,1.4l1.1,2.8c0.7,1.9,1.5,3.8,1.8,5.8c0.1,0.5,0.1,1,0.1,1.6c0,0.5-0.1,1.1-0.3,1.6
							c-0.2,0.5-0.6,1-1.1,1.4c-0.5,0.3-1.1,0.4-1.6,0.5c-0.6,0-1,0-1.4,0.2c-0.2,0.1-0.4,0.2-0.6,0.3c-0.3,0.2-0.5,0.2-0.8,0.2
							C229.4,184.8,228.5,185.1,227.7,185.5z M227.5,185.4c0.8-0.5,1.8-1,2.8-1.2c0.2-0.1,0.5-0.1,0.6-0.2c0.2-0.1,0.4-0.3,0.7-0.4
							c0.5-0.2,1.1-0.3,1.5-0.3c0.5-0.1,0.9-0.2,1.2-0.5c0.3-0.2,0.6-0.6,0.7-1c0.3-0.8,0.1-1.8-0.1-2.7c-0.4-1.9-1.2-3.7-2.1-5.5
							l-1.2-2.7c-0.2-0.5-0.4-0.9-0.6-1.4c-0.1-0.3-0.2-0.5-0.3-0.8c-0.1-0.3-0.2-0.6-0.1-1.1l0.1-0.7l0.7-0.1c1.5-0.1,3,0,4.5,0.4
							c0.7,0.2,1.4,0.5,2.1,0.9c0.3,0.2,0.7,0.4,1,0.6l0.4,0.3c0.2,0.1,0.3,0.3,0.5,0.4c0.6,0.5,1.1,1.2,1.5,1.8
							c0.4,0.6,0.8,1.2,1.1,1.8c0.4,0.6,0.7,1.2,1.1,1.6c0.2,0.2,0.4,0.4,0.6,0.6c0.2,0.2,0.4,0.3,0.6,0.4l-1.5,1
							c-0.2-2.8-1-5.5-2-8.3c-0.9-2.7-2-5.5-2.8-8.4c-0.2-0.8-0.3-1.4-0.5-2.2c-0.1-0.8-0.2-1.6-0.1-2.5c0-0.2,0.1-0.5,0.3-0.8
							c0.2-0.3,0.5-0.6,0.9-0.7c0.8-0.2,1.3,0.1,1.7,0.3c0.8,0.5,1.3,1,1.9,1.6c1,1.2,1.8,2.5,2.5,3.9c0.6,1.4,1.1,2.8,1.5,4.2
							c0.8,2.9,1.4,5.8,2,8.6c0.6,2.9,1.4,5.7,1.8,8.6c0.2,1.5,0.3,3,0.3,4.4c-0.1,1.5,0,2.9,0.2,4.4c0.1,1.5,0.3,2.9,0.4,4.4
							c0.1,1.5,0.1,3-0.4,4.6l-0.1,0.3l-0.4,0.1c-1.1,0.2-2.2,0.2-3.3-0.2c-1.1-0.4-2-1.1-2.7-1.9c-0.7-0.8-1.3-1.8-1.7-2.7
							c-0.1-0.3-0.2-0.5-0.3-0.7c-0.1-0.2-0.2-0.5-0.3-0.8c-0.1-0.5-0.3-1-0.4-1.5l-0.6-2.9c-0.2-0.9-0.4-1.9-0.8-2.7
							c-0.1-0.3-0.4-0.7-0.7-1c-0.3-0.3-0.6-0.4-0.6-0.4c0,0-0.1,0-0.2,0.1c-0.1,0.1-0.2,0.2-0.3,0.4c-0.2,0.3-0.4,0.8-0.6,1.2
							c-0.3,0.9-0.6,1.8-0.8,2.8l-0.2,0.7c-0.1,0.2-0.1,0.5-0.2,0.7c-0.1,0.4-0.2,0.9-0.3,1.4c-0.2,1-0.4,2-0.8,3
							c-0.2,0.5-0.5,1.1-1.2,1.5c-0.3,0.2-0.8,0.3-1.1,0.2c-0.4,0-0.7-0.2-0.9-0.3c-1-0.6-1.6-1.4-2.3-2.2c-0.6-0.8-1.2-1.7-1.7-2.6
							c-0.5-0.9-0.9-1.8-1.2-2.8C227.5,187.5,227.4,186.5,227.5,185.4L227.5,185.4L227.5,185.4z"/>
					</g>
					<g>
						<path fill="#6A5C50" d="M211.6,206.2c0,0-0.2,0.1-0.4,0.4c-0.2,0.3-0.5,0.8-0.7,1.5c-0.2,0.7-0.3,1.5,0,2.4
							c0.1,0.4,0.4,0.8,0.8,1c0.3,0.2,0.9,0.4,1.4,0.4c0.6,0.1,1.2,0.1,1.9,0.1l0.5,0c0.2,0,0.4,0,0.5,0c0.3,0,0.6-0.1,0.9-0.1
							c1.2-0.3,2.2-1,2.9-2.2c0.3-0.6,0.6-1.3,0.8-2l0.1-0.5l0.1-0.5c0.1-0.4,0.1-0.7,0.1-1.1c0.1-1.5,0-3.1-0.2-4.7
							c-0.2-1.6-0.6-3.1-0.8-4.8c-0.2-1.6-0.3-3.3-0.4-4.8c-0.1-0.8-0.1-1.5-0.2-2.2c0-0.4-0.1-0.7-0.1-1.1c0-0.4-0.1-0.7-0.1-1.1
							c-0.1-1.5,0.1-2.8,0.1-4.1c0.1-2.4,0.1-4.5-0.3-5.8c-0.2-0.7-0.4-1.2-0.7-1.5c-0.2-0.3-0.4-0.5-0.4-0.5s0.2,0.1,0.4,0.4
							c0.3,0.3,0.6,0.7,0.9,1.4c0.6,1.4,1,3.5,1,6c0.1,1.2,0.1,2.6,0.2,3.9c0,0.3,0.1,0.7,0.2,1c0.1,0.4,0.1,0.7,0.2,1.1
							c0.1,0.7,0.2,1.5,0.3,2.3c0.2,1.5,0.4,3.1,0.6,4.7c0.2,1.5,0.7,3.2,0.9,4.9c0.2,1.7,0.3,3.4,0.1,5.1c0,0.4-0.1,0.9-0.2,1.3
							l-0.2,0.7l-0.2,0.6c-0.3,0.8-0.6,1.6-1.1,2.3c-0.5,0.7-1.1,1.4-1.8,1.9c-0.7,0.5-1.5,0.8-2.3,0.9c-0.4,0.1-0.8,0.1-1.2,0.1
							c-0.2,0-0.3,0-0.5,0l-0.3,0l-0.2,0c-0.7-0.1-1.3-0.1-2-0.3c-0.6-0.2-1.3-0.3-1.9-0.8c-0.5-0.4-0.8-1.1-0.9-1.6
							c-0.2-1.1,0.1-2,0.4-2.7c0.3-0.7,0.7-1.1,1-1.4C211.4,206.3,211.6,206.2,211.6,206.2z"/>
					</g>
					<g>
						<path fill="#6A5C50" d="M192.8,223.4c-0.4,1.1-0.8,2.3-1,3.5c-0.2,1.2-0.3,2.4-0.3,3.4l0,0.4l0,0.2l0,0.1l0,0l0,0l0,0
							c0,0.2-0.1-0.2-0.1-0.2l0,0l0.1,0.2c0-0.1-0.1-0.3-0.3-0.3c0,0,0,0,0,0c0,0,0.1,0,0.1,0c0.3,0.1,1-0.1,1.5-0.2
							c0.6-0.1,1.1-0.3,1.7-0.6c0.3-0.1,0.6-0.3,0.7-0.4c0.2-0.2,0.4-0.4,0.6-0.6c0.7-0.9,0.8-2.1,0.7-3.3c0-0.3-0.1-0.6-0.1-0.9
							c-0.1-0.3-0.1-0.5-0.2-0.8c-0.1-0.6-0.3-1.1-0.4-1.7c-0.3-1.1-0.8-2.1-1.3-3.1c-0.5-1-1.2-1.9-1.9-2.7l1.7-0.5
							c-0.1,0.3-0.1,0.5-0.2,0.8l-0.2,0.9l-0.3,1.9C193.4,220.9,193.2,222.2,192.8,223.4z M192.6,223.3c0.1-0.3,0.2-0.6,0.2-0.9
							c0-0.3,0-0.6,0-0.9c0-0.6-0.1-1.2-0.3-1.9c-0.1-0.6-0.3-1.3-0.3-1.9c-0.1-0.7,0-1.4,0.1-2.1l0.3-1.7l1.4,1.2
							c1,0.9,1.8,2,2.3,3.2c0.6,1.2,0.9,2.4,1.2,3.7c0.1,0.6,0.2,1.3,0.2,1.9c0,0.3,0,0.7,0,1c0,0.3-0.1,0.6-0.1,0.9
							c-0.2,1.2-0.5,2.5-1.3,3.6c-0.2,0.3-0.4,0.5-0.6,0.8c-0.3,0.3-0.5,0.4-0.8,0.6c-0.5,0.4-1,0.7-1.6,1c-0.6,0.3-1.1,0.6-2,0.7
							c-0.1,0-0.2,0-0.4,0c-0.2,0-0.3-0.1-0.5-0.1c-0.2-0.1-0.5-0.4-0.6-0.6l-0.1-0.2l-0.1-0.2l0,0l0,0l0-0.1l0-0.1l0-0.3
							c0-0.2,0-0.3,0-0.5c0-0.7,0.2-1.3,0.4-2c0.2-0.6,0.5-1.2,0.8-1.7C191.5,225.5,192.2,224.5,192.6,223.3z"/>
					</g>
					<g>
						<path fill="#6A5C50" d="M150.6,234.5c0,0,0.1,0.1,0.2,0.4c0.1,0.2,0.3,0.6,0.4,1.1c0.3,1,0.6,2.4,0.9,4.2
							c0.1,0.9,0.3,1.8,0.5,2.7c0.2,0.9,0.5,1.9,0.9,2.8c0.4,1,0.9,1.9,1.5,2.7c0.3,0.4,0.6,0.7,0.9,0.9c0.1,0,0.1,0,0.1,0.1
							c0,0,0.1,0,0.1,0c0,0,0.2-0.1,0.3-0.2c0.5-0.5,1.1-1.7,1.1-2.4c0.1-0.9,0-1.9-0.4-2.9c-0.3-0.9-0.8-1.8-1.3-2.7
							c-0.5-0.8-1-1.6-1.5-2.3c-0.5-0.7-1-1.3-1.5-1.8c-0.5-0.5-0.9-1-1.2-1.4C150.9,234.9,150.6,234.5,150.6,234.5z M150.6,234.5
							c0,0,0.1,0.1,0.4,0.2c0.2,0.2,0.6,0.4,1,0.7c0.4,0.3,0.9,0.7,1.5,1.1c0.6,0.5,1.2,1,1.8,1.6c0.6,0.6,1.3,1.4,1.9,2.2
							c0.6,0.8,1.2,1.8,1.7,2.9c0.5,1.1,0.8,2.4,0.7,3.7c0,0.3-0.1,0.7-0.2,1l-0.1,0.5l-0.2,0.4l-0.2,0.4l0,0.1l-0.1,0.1l0,0l0,0
							l0,0.1l-0.1,0.2c-0.2,0.3-0.4,0.6-0.7,0.9c-0.3,0.3-0.7,0.5-1.2,0.6c-0.2,0.1-0.5,0-0.8,0c-0.2-0.1-0.5-0.1-0.7-0.2
							c-0.8-0.4-1.2-1-1.6-1.5c-0.7-1.1-1.2-2.2-1.6-3.2c-0.4-1.1-0.6-2.2-0.7-3.2c-0.1-1-0.2-2-0.2-2.9c0-1.8,0-3.2-0.1-4.2
							C150.7,235,150.6,234.5,150.6,234.5z"/>
					</g>
					<g>
						<path fill="#6A5C50" d="M139.8,232.7c0,0,0,0.2,0,0.4c0,0.3,0,0.7,0,1.2c0,0.5,0.1,1.1,0.3,1.8c0.1,0.7,0.4,1.5,0.6,2.3
							c0.3,0.8,0.6,1.8,0.9,2.8c0.3,1,0.6,2.1,0.7,3.3c0.1,1.2,0.1,2.5-0.3,3.7l-0.3,0.9l-0.4,0.9c-0.1,0.3-0.3,0.6-0.5,0.9
							c-0.2,0.3-0.4,0.6-0.6,0.8c-0.8,1-1.8,2-3,2.6c-0.3,0.1-0.6,0.3-1,0.4l-0.5,0.1c-0.2,0-0.4,0-0.6,0c-0.4,0-0.8-0.1-1.1-0.2
							c-0.4-0.1-0.7-0.3-1-0.5c-1.2-1-1.5-2.3-1.6-3.4c-0.1-0.6,0-1.1-0.1-1.6c0-0.2,0-0.5,0.1-0.8c0.1-0.3,0.1-0.5,0.2-0.7
							c0.3-0.9,0.6-1.6,0.9-2.3c0.3-0.7,0.5-1.3,0.7-1.7c0.2-0.5,0.3-0.9,0.4-1.1c0.1-0.3,0-0.4,0-0.4c0,0,0.2,0.1,0.2,0.4
							c0,0.3,0,0.7-0.1,1.2c-0.2,1-0.5,2.5-0.8,4.2c0,0.2-0.1,0.4-0.1,0.6c0,0.2,0,0.4,0,0.6c0.1,0.4,0.1,0.9,0.2,1.4
							c0.2,0.9,0.6,1.8,1.2,2.2c0.6,0.4,1.4,0.3,2.3-0.1c0.9-0.4,1.7-1.2,2.3-2c0.2-0.2,0.3-0.4,0.4-0.6c0.1-0.2,0.3-0.4,0.4-0.7
							l0.4-0.7l0.3-0.7c0.3-1,0.4-2,0.4-3.1c-0.1-2.1-0.7-4.1-0.9-5.9c-0.2-0.9-0.3-1.7-0.3-2.5c0-0.7,0-1.4,0.1-1.9
							c0.1-0.5,0.2-0.9,0.3-1.2C139.8,232.9,139.8,232.7,139.8,232.7z"/>
					</g>
					<g>
						<path fill="#6A5C50" d="M100.3,278.7c0.1,0.6,0.4,1.1,0.6,1.7l0.7,1.6c0.5,1.1,1,2.2,1.4,3.4c0.4,1.1,0.8,2.3,1,3.6
							c0.1,0.6,0.2,1.3,0.2,2c0,0.4,0,0.7-0.2,1.1c-0.1,0.4-0.4,0.9-0.9,1.3c-0.5,0.3-1.1,0.4-1.5,0.3c-0.1,0-0.1,0-0.2,0l-0.1,0
							l-0.2-0.1c-0.2-0.1-0.4-0.2-0.6-0.3c-0.8-0.4-1.3-1.1-1.6-1.7c-0.7-1.3-0.7-2.7-0.7-3.9c0-0.6,0.1-1.3,0.1-1.9
							c0.1-0.6,0.1-1.2,0.3-1.8c0.2-1.2,0.5-2.4,0.8-3.5l0.1-0.2l0.2,0c0.1,0,0.1,0,0.1,0c0,0,0.1-0.1,0.1-0.1
							c0.1-0.1,0.2-0.3,0.2-0.4C100.1,279.4,100.2,279,100.3,278.7z M100.3,278.7c0,0.3,0,0.7,0,1c0,0.2-0.1,0.4-0.1,0.5
							c0,0.1-0.1,0.2-0.2,0.3c-0.1,0.1-0.2,0.2-0.3,0.2l0.2-0.3c0,1.2-0.1,2.4-0.1,3.6c0,1.2,0,2.4,0.1,3.5c0.1,1.1,0.3,2.3,0.7,3.1
							c0.2,0.4,0.5,0.7,0.8,0.8l0.2,0.1l0.2,0l0.1,0c-0.1,0,0,0,0,0c0.2,0,0.2,0,0.2,0c0,0,0,0,0.1-0.2c0-0.2,0.1-0.4,0.1-0.6
							c0-0.5,0-1.1-0.1-1.6c-0.2-1.1-0.4-2.3-0.7-3.4l-0.8-3.5c-0.1-0.6-0.3-1.2-0.4-1.8C100.4,279.9,100.2,279.3,100.3,278.7z"/>
					</g>
					<g>
						<path fill="#6A5C50" d="M88.8,267.7c0,0,0,0.2,0.1,0.5c0,0.3,0.1,0.8,0.3,1.4c0.1,0.6,0.4,1.2,0.7,2c0.3,0.7,0.8,1.5,1.3,2.4
							c0.5,0.9,1.1,1.8,1.6,3c0.5,1.1,0.9,2.3,1.2,3.7c0.2,1.3,0.4,2.8,0,4.3c-0.1,0.2-0.1,0.4-0.2,0.6l0,0.1l-0.1,0.1l-0.1,0.1
							l-0.1,0.2c-0.1,0.1-0.2,0.4-0.3,0.6c-0.1,0.2-0.3,0.4-0.4,0.5c-0.3,0.3-0.7,0.6-1.2,0.8c-0.5,0.2-1,0.2-1.5,0.1
							c-1-0.1-1.7-0.6-2.3-1.1c-0.6-0.5-1.1-1.2-1.5-1.8c-0.7-1.3-1-2.8-1.2-4.1c-0.2-1.3-0.2-2.6-0.1-3.9c0.1-1.2,0.3-2.4,0.6-3.4
							c0.6-2,1.3-3.6,2-4.7c0.3-0.5,0.7-0.9,0.9-1.1C88.7,267.8,88.8,267.7,88.8,267.7z M88.8,267.7c0,0-0.1,0.1-0.3,0.4
							c-0.2,0.3-0.4,0.7-0.6,1.2c-0.4,1.1-0.9,2.7-1.2,4.7c-0.2,1-0.3,2.1-0.3,3.2c0,1.1,0.1,2.3,0.3,3.5c0.2,1.2,0.6,2.4,1.2,3.4
							c0.5,0.9,1.5,1.8,2.4,1.9c0.8,0.2,1.4-0.5,1.8-1.7c0.3-1.1,0.3-2.3,0.1-3.5c-0.2-1.2-0.5-2.4-0.8-3.4c-0.4-1.1-0.8-2.1-1.3-3
							c-0.4-0.9-0.8-1.8-1-2.7c-0.3-0.8-0.3-1.6-0.4-2.2c0-0.6,0-1.1,0-1.4C88.8,267.9,88.8,267.7,88.8,267.7z"/>
					</g>
				</g>
			</g>
		</g>
	</g>
</g>
<g id="POSE2_1_" opacity="0.5">
</g>
<g id="POSE3_1_" opacity="0.5">
</g>
<g id="ch06-12-1">
	<g id="water_off_hand4" opacity="0.5">
	</g>
	<g id="water_off_hand4_copy" opacity="0.5">
	</g>
</g>
<g id="Layer_12">
	<g id="basin">
		<g id="Layer_15">
		</g>
		<g id="Layer_20">
		</g>
		<g id="Layer_14">
		</g>
		<g id="Layer_17" opacity="0.49">
			<g id="Layer_16">
			</g>
		</g>
		<g id="Layer_17_copy_2" opacity="0.49">
			<g id="Layer_16_copy">
			</g>
		</g>
		<g id="Layer_17_copy" opacity="0.49">
		</g>
	</g>
</g>
<g id="Layer_22">
	<g id="Layer_23">
	</g>
	<g id="Layer_24">
	</g>
	<g id="Layer_24_copy">
	</g>
</g>
<g id="ch02A-09-4">
	<g id="dirtydrips_x5F_fromholes">
	</g>
	<g id="dirtydrips_x5F_fromholes_copy">
	</g>
</g>
<g id="muddy_x5F_water_x5F_pose1">
</g>
<g id="muddy_x5F_water_x5F_pose2" opacity="0.61">
</g>
<g id="muddy_x5F_water_x5F_pose2_copy">
</g>
</svg>
