<?xml version="1.0" encoding="utf-8"?>
<!-- Generator: Adobe Illustrator 18.1.1, SVG Export Plug-In . SVG Version: 6.00 Build 0)  -->
<!DOCTYPE svg PUBLIC "-//W3C//DTD SVG 1.1//EN" "http://www.w3.org/Graphics/SVG/1.1/DTD/svg11.dtd">
<svg version="1.1" xmlns="http://www.w3.org/2000/svg" xmlns:xlink="http://www.w3.org/1999/xlink" x="0px" y="0px"
	 viewBox="0 0 257.3 308.2" enable-background="new 0 0 257.3 308.2" xml:space="preserve">
<g id="water_pouring_instances_-_boards">
</g>
<g id="water_pour_cycle_x5F_main_comp">
	<g id="POSE2">
		<g id="Layer_6">
		</g>
	</g>
	<g id="POSE3">
	</g>
</g>
<g id="POSE1_2_" opacity="0.5">
</g>
<g id="ch04-06-1_x5F_comp">
	<g id="ch04-06-1_x5F_comp_1_">
		<g id="linked_files_for_comp">
		</g>
		<g id="comp">
		</g>
	</g>
</g>
<g id="ch04-06-1_x5F_water_splash_-_Geoff_x27_s">
	<g id="pose4">
	</g>
	<g id="pose3">
	</g>
	<g id="pose2">
	</g>
	<g id="pose1">
	</g>
</g>
<g id="ch04-06-1_x5F_water_splash_-_Stu_x27_s">
	<g id="water_x5F_alt_splash_x5F_1a_to_4a">
	</g>
	<g id="water_x5F_alt_splash_x5F_DIRTY">
		<g id="_x34_alt_1_">
			<g id="water2a_2_">
				<g opacity="0.8">
					<path fill="#A3907F" d="M118.2,51c-1.2-2.9-4.8-3.4-5.9-6.3c-1.2-3.3,1.6-4.7,4.2-4.5c3.2,0.2,6.6,3,8.3,5.9
						c0.8,1.4,3.2,7.1,0,6.8c-1.2-1.8-2.7-5.4-4.5-6.4c-4.1-2.3-0.8,2.9-0.7,4.4C118.8,51.4,118.6,51.1,118.2,51z"/>
					<path fill="#A3907F" d="M142.2,53.1c1.6-1.1,2.9-3.7,3-5.7c0.1-0.8-0.7-3-0.4-3.6c0.8-1.5,2.2-0.6,3,0.3
						c1.5,1.8,1.7,5.9,0.1,7.5C145.6,54.1,143.3,52,142.2,53.1z"/>
					<path fill="#A3907F" d="M118.7,19.4c0.2,1,1,1.8,1.8,1.6s1.3-1.2,1.1-2.2c-0.2-1-1-1.8-1.8-1.6C119,17.4,118.5,18.4,118.7,19.4
						z"/>
					<path fill="#A3907F" d="M68.1,55.1c0.3,1.6,1.1,2.8,1.9,2.6c0.8-0.2,1.1-1.6,0.9-3.2c-0.3-1.6-1.1-2.8-1.9-2.6
						S67.8,53.5,68.1,55.1z"/>
					<path fill="#A3907F" stroke="#6A5C50" stroke-miterlimit="10" d="M64.2,117.9c0.3,1.6,1,2.8,1.7,2.7c0.6-0.1,0.9-1.6,0.6-3.2
						s-1-2.8-1.7-2.7C64.2,114.9,63.9,116.3,64.2,117.9z"/>
					<path fill="#A3907F" d="M117.1,173.8c0.2,1.1,0.7,1.9,1.2,1.8c0.4-0.1,0.6-1.1,0.4-2.2c-0.2-1.1-0.7-1.9-1.2-1.8
						C117.1,171.7,116.9,172.7,117.1,173.8z"/>
					<path fill="#A3907F" d="M141.3,168.8c0.2,1.3,1.2,2.2,2.1,2c0.9-0.2,1.4-1.4,1.2-2.8c-0.2-1.3-1.2-2.2-2.1-2
						C141.6,166.3,141,167.5,141.3,168.8z"/>
					<path fill="#A3907F" d="M150.1,175.6c0.3,1.7,1.1,3,1.8,2.9c0.7-0.2,1-1.7,0.7-3.4c-0.3-1.7-1.1-3-1.8-2.9
						C150.1,172.3,149.8,173.8,150.1,175.6z"/>
					<path fill="#A3907F" d="M229.9,95.5c0.4,2.2,1.3,3.8,2,3.6s0.9-2,0.5-4.2c-0.4-2.2-1.3-3.8-2-3.6S229.5,93.3,229.9,95.5z"/>
					<path fill="#A3907F" d="M181.8,92c3.7,1.6,8.8,4.9,11.2,8.3c1.8,2.6,2.7,10-2.4,6.6c-2.4-1.6-4.6-6.8-6.7-8.9
						c-1.8-1.9-4.7-5.1-7.5-4.5c2.1,5,1.5,10.3-3.9,12.1c-8.1,2.7-13.9-6.5-20.7-9.5c-2.8-1.2-7.3-3.1-10-0.6
						c-2.5,2.3-0.5,7.7,0.1,10.7c0.5,2.4,7.2,19.7,1.7,19.3c-8.5-0.5-7.8-19-7.4-23.2c-0.4,4.1-1.6,6.4-5.4,3.8
						c-3.2-2.2-2.9-12.9-7.3-11.3c-1.8,0.6-2.2,3.2-2.8,4.8c-2.1,5.3-8,3.9-9-2c-0.4-2.3-0.7-3.6,0.2-5.6c-2.9-0.3-4.6-1.1-7.3,0.1
						c-3.6,1.6-6.4,3.4-10.3,0.9c-2.9-1.9-4.7-5.9-1.5-8.4c3.3-2.6,9.4-2.8,13.2-2.5c4.2,0.3,8.5,4.3,12,0.2c-1.4-1.1-2.4-2.2-4-3.3
						c-1.8-1.2-3.5-3.1-5.3-4.1c-3.4-1.8-7.9-2.4-11.5-0.8c-1.3,0.6-3,1.5-4.5,0.9c-1.5-0.5-3.1-2.9-2.8-4.4c0.9-4.5,7-5.5,10.2-4.3
						c5,1.8,9.1,4,13.6,6.7c2.3,1.4,5.4,5.5,8,5.3c5.3-0.4-0.3-5.3-2.1-7c-1.8-1.7-3.6-3.2-5-5.7c-1.7-3.1-5.1-5.1-6.7-8.4
						c-1.6-3.3,0-6.9,3.5-4.2c3.4,2.7,5.6,9.2,8.3,12.7c1.1,1.4,4.8,6.5,6.4,3.9c1.4-2.3-2.5-6.9-2.4-8.9c0.1-3.2,4.8,2.2,5,2.9
						c0.8,2.7,3.7,3.3,6.5,2.7c3.1-0.6,3-2.8,4.3-5.4c1.1-2.1,3.4-4,4.8-0.8c1.2,2.6-1.6,3.6-1.3,6.1c0.6,4.8,7.3-3.4,8.5-5
						c3.1-4.6,1-7.3,8.2-13.7c4.5-4,8.3-4.6,12.9-2c2.3,1.3,3.7,4.1,1.1,5.7c-2,1.2-4.3,0-6.3-0.2c-3.3-0.3-5.2,1.6-7.3,4.3
						c-1,1.3-4.7,5.3-2.6,6.7c2,1.3,5.7-2.9,8.3-1.8c4,1.6,1.1,6.5-1.6,7.9c-4.1,2.1-8.4-0.4-11.7,4.2c-2.5,3.4,0.6,8.7,4.9,10.3
						c3.2,1.2,6.5,1.7,9.6,3.1c2.6,1.2,4.9,2,7.1,4C176.2,91.7,174.7,88.9,181.8,92z"/>
					<path fill="#A3907F" stroke="#6A5C50" stroke-miterlimit="10" d="M59.8,114.8c-1.1,6,7,12,4,18.6c-2.4,5.3-5.4-8.2-5.3-10.7
						C58.6,121.1,58.7,116.3,59.8,114.8z"/>
					<path fill="#A3907F" d="M93.8,161.3c0.6,3,4.3,12-1.8,11.7c-7.3-0.4-3.2-7.3-6.6-9.4c-2.3-0.1-0.6,0.8-3.3,0.1
						c-3.3-0.8-1-3.8-1.9-5.5c-1.7-3.2-6-1-6.9,2c-0.6,2.2-0.9,13-4.7,7c-2.4-3.9-4.2-12.9-2.9-17.4c1.4-4.6,4.3-10.7,9.1-12
						c0.5,3.5-9.5,14.4-3,16.5c5.5,1.8,6.4-12.5,8.9-15.3c1.8,3.3-0.5,6.9-0.7,10.3c-0.1,2.7,0.9,3.2,1.8,5.3
						c0.5,1.1,0.6,5.5,2.7,3.1c1.9-2.2-1.2-8,0.8-10.8c1.9,0.5,3.2,17.2,5.4,15.7c1-0.7-0.1-6.8-0.1-8.1c-0.1-2.3-1-5.8,0.8-7.6
						c1.4,2.2,1.6,8.2,2.2,11c0.5,2.6,1.4,7.9,0.7,10.3"/>
					<path fill="#A3907F" d="M113.8,171.4c-1.2,2.9-1.4,7.6-0.9,10.7c0.4,2.6,3,7,4.1,2.4C117.6,182,115.7,172.4,113.8,171.4z"/>
					<path fill="#A3907F" d="M144.1,175.9c-6.7-2.6-1.1,10.1-3,11.9c-4.7,4.4-6.2-7.9-5.9-10.6c2.4-0.8,1.4-0.8,3.6-2.4
						c0.9-0.6,1.7-0.8,3.3-0.6C143.3,174.4,144.6,175.6,144.1,175.9z"/>
					<path fill="#A3907F" d="M146.3,174.2c0.7,3.7,0.8,7,1,10.7c0.1,1.8,0.4,7.4,3,7.1c3.6-0.4,0.5-11-0.5-12.9
						c-0.5-1.1-1.2-2.4-1.8-3.4C147.5,174.8,147,172.8,146.3,174.2z"/>
					<path fill="#A3907F" d="M185.4,183.2c-0.2,2.4,1.4,6.2,1.6,8.9c0.4,3.9,0.7,8.1,1.4,11.9c0.6,3,2.5,6.5,5.4,4.3
						c2.3-1.7,1.8-4.4,1.5-7c-0.4-3.2-0.5-7-1.1-10c-1.2,2.8-3.3,10-4.9,3.1C188.7,191.6,189.1,184.6,185.4,183.2z"/>
					<path fill="#A3907F" d="M182,200.3c0.2,4.3,6.6,12,2.7,16.3c-3.3,3.6-4.6-8.4-4.8-10.8c-0.2-2.5,0-5-0.4-7.5
						C181.3,197.9,181.4,201.4,182,200.3z"/>
					<path fill="#A3907F" d="M174,198c-1.4,2.1-1.7,4.7-1.2,7.1c0.3,1.4,0.7,4.5,2.3,4.6c2.6,0.2,0.7-6,0.1-7.2
						C174.7,201.4,174.5,199.3,174,198z"/>
					<path fill="#A3907F" stroke="#6A5C50" stroke-miterlimit="10" d="M174.7,194.4c-0.2,1.5-0.1,3.5,0.4,4.9
						c0.4,1.2,1.2,1.8,1.6,0.2c0.3-1.2,0-2.6-0.3-3.8c-0.1-0.4-0.1-1.1-0.4-1.4C175.5,194,174.9,194,174.7,194.4z"/>
					<path fill="#A3907F" d="M205.8,111.4c2.3,0.9,3.1,4.7,3.9,7c0.9,2.4,1.8,5,3.6,6.7c1.7,1.5,4,2.1,3.7-0.7
						c-0.1-1.9-1.7-3.8-2.5-5.4c-0.8-1.6-1.2-3.4-2.1-5c0.1,2.9-0.3,4.5-1.9,1.3c-1.1-2.2-2.3-4.6-4.7-4.8c-0.2,0.5-0.1,1,0.1,1.5
						C206.1,112,206.3,111.9,205.8,111.4z"/>
					<path fill="#A3907F" d="M214.4,109.1c-0.2-1.1-0.8-2.5-0.1-3.3c0.4-0.4,0.7,0.4,1.1,0.1c0.1-0.1,0.8-1,0.7-1
						c2.2-0.8,3,2.8,3.4,5c0.4,2.2,1,7.1-2.7,4.2c-1-0.8-1.4-1.7-1.9-2.9C214.8,110.8,214.2,108.3,214.4,109.1z"/>
				</g>
				<g opacity="0.7">
					<g>
						<path fill="#6A5C50" d="M150.4,95.4c-0.3-0.7-0.6-1.3-1.2-1.6c-0.6-0.4-1.2-0.6-1.9-0.5c-1.4,0-2.7,0.6-3.8,1.4
							c-1.1,0.8-2,1.9-2.3,3.1c-0.3,1.3-0.2,2.7-0.1,4.1c0.3,2.8,1,5.5,1.8,8.2c0.4,1.4,0.7,2.8,1.1,4.1c0.4,1.3,0.8,2.7,1.2,4.1
							c0.3,1.4,0.6,2.8,0.6,4.4c-0.1,0.8-0.2,1.7-0.9,2.5l-0.3,0.3l-0.1,0.1c0,0,0,0-0.1,0.1l0,0l-0.1,0.1c-0.1,0.1-0.4,0.2-0.6,0.3
							c-0.5,0.2-1.1,0.3-1.6,0.1c-1.1-0.3-1.7-1-2.2-1.6c-0.5-0.7-0.9-1.3-1.2-2c-0.6-1.4-1.1-2.8-1.4-4.2c-0.4-1.4-0.5-2.9-0.7-4.3
							c-0.2-1.4-0.2-2.9-0.3-4.3c0-1.4,0-2.9,0.1-4.3c0.1-1.4,0.3-2.8,0.6-4.2l0.4,0.2c-0.4,0.3-0.7,0.6-0.9,1.1l-0.2-0.1
							c0.2-0.5,0.4-0.9,0.8-1.3l0.4-0.4l0,0.6c-0.1,1.4,0,2.8,0,4.2c0,1.4,0.2,2.8,0.3,4.2c0.1,1.4,0.3,2.8,0.6,4.1
							c0.2,1.4,0.5,2.7,0.8,4c0.3,1.3,0.8,2.6,1.3,3.8c0.3,0.6,0.6,1.2,0.9,1.7c0.3,0.5,0.8,0.9,1.1,0.9c0.2,0,0.3,0,0.5,0
							c0.1,0,0.1,0,0.3-0.2l0.1-0.1l0,0c-0.1,0.1,0,0,0,0l0,0c0,0,0.1-0.1,0.1-0.1c0.3-0.3,0.5-0.8,0.5-1.4c0.1-1.2-0.1-2.6-0.4-4
							c-0.3-1.4-0.6-2.7-1-4.1c-0.4-1.4-0.6-2.8-1-4.1c-0.7-2.7-1.3-5.5-1.5-8.4c0-0.7,0-1.4,0-2.2c0-0.4,0.1-0.7,0.1-1.1
							c0.1-0.4,0.1-0.7,0.2-1.1c0.5-1.5,1.5-2.6,2.8-3.4c1.2-0.8,2.6-1.4,4.1-1.3c0.7,0,1.5,0.2,2.1,0.7c0.1,0.1,0.3,0.2,0.4,0.4
							l0.3,0.5c0.2,0.3,0.3,0.7,0.4,1L150.4,95.4z"/>
					</g>
					<g>
						<path fill="#6A5C50" d="M135,101.2c0,0,0,0.1,0.1,0.2c0.1,0.1,0.2,0.2,0.3,0.5c0.1,0.2,0.2,0.5,0.3,0.8c0.1,0.3,0.1,0.8,0,1.2
							c-0.1,0.5-0.3,1-0.7,1.4c-0.4,0.4-0.9,0.7-1.5,0.9c-0.6,0.1-1.2,0.2-1.8,0.1c-0.3-0.1-0.6-0.1-0.9-0.3l-0.1,0l0,0l0,0l-0.1,0
							l0,0l-0.2-0.1c-0.1-0.1-0.2-0.1-0.4-0.2c-0.6-0.5-0.9-0.9-1.3-1.4c-0.3-0.5-0.5-1-0.7-1.5c-0.3-0.9-0.5-1.8-0.7-2.6
							c-0.1-0.8-0.2-1.4-0.3-1.8c-0.1-0.5-0.1-0.7-0.1-0.7s0.2,0.2,0.5,0.5c0.3,0.4,0.6,0.9,1,1.6c0.4,0.7,0.8,1.5,1.2,2.3
							c0.2,0.4,0.5,0.8,0.7,1.1c0.2,0.3,0.6,0.7,0.7,0.8c0,0.1,0.5,0.3,0.5,0.3c0.2,0.1,0.3,0.1,0.5,0.2c0.4,0.1,0.7,0.1,1.1,0.1
							c0.7-0.1,1.2-0.4,1.5-0.9c0.1-0.1,0.1-0.3,0.2-0.4c0.1-0.1,0.1-0.3,0.1-0.4c0.1-0.3,0.1-0.5,0.1-0.7
							C135.1,101.4,135,101.2,135,101.2z"/>
					</g>
					<g>
						<path fill="#6A5C50" d="M123.2,93.4c0,0,0,0.1,0.1,0.2c0,0.1,0.1,0.6,0.1,0.9c0.1,0.7-0.1,1.7-0.4,2.8c-0.4,1.1-1,2.4-1.9,3.6
							c-0.5,0.6-1,1.3-1.7,1.9c-0.7,0.6-1.6,1.2-2.8,1.3c-0.6,0.1-1.2,0-1.8-0.2c-0.6-0.2-1.1-0.6-1.5-1l-0.2-0.3l-0.3-0.4
							c-0.2-0.2-0.3-0.5-0.5-0.7c-0.3-0.5-0.5-1.1-0.6-1.6c-0.2-1.1-0.2-2.3-0.2-3.4c0.1-1.1,0.2-2.2,0-3.2c-0.1-0.5-0.3-0.8-0.6-1
							c-0.3-0.2-0.8-0.4-1.3-0.4c-0.5,0-1.1-0.1-1.6,0c-0.6,0.1-1.1,0.2-1.7,0.3c-2.3,0.6-4.5,1.5-7,1.9c-1.2,0.2-2.6,0.2-3.8-0.2
							c-0.6-0.2-1.2-0.5-1.7-0.9c-0.2-0.2-0.5-0.4-0.7-0.7c-0.2-0.2-0.4-0.4-0.6-0.7c-0.4-0.5-0.7-1.1-0.9-1.7c-0.2-0.6-0.2-1.3,0-2
							c0.4-1.3,1.5-2.1,2.5-2.7c2-1.2,4.2-1.8,6.2-2.3c1-0.2,2-0.5,3.1-0.5c1,0,2,0.1,2.9,0.2c1.8,0.3,3.5,0.5,4.9,0.7
							c1.5,0.2,2.8,0.3,3.8,0.2c1.1-0.1,1.8-0.4,2.3-0.7c0.5-0.3,0.7-0.5,0.7-0.5s-0.2,0.2-0.7,0.6c-0.5,0.3-1.3,0.6-2.4,0.7
							c-1.1,0.1-2.4,0.1-3.8-0.1c-1.5-0.2-3.1-0.4-4.9-0.6c-0.9-0.1-1.9-0.2-2.8-0.1c-0.5,0-1,0.1-1.5,0.2c-0.5,0.1-1,0.2-1.5,0.4
							c-2,0.6-4.1,1.2-6,2.4c-0.9,0.6-1.8,1.4-2.1,2.4c-0.3,1,0.1,2.1,0.8,3c0.1,0.2,0.4,0.4,0.6,0.7c0.2,0.2,0.4,0.4,0.6,0.5
							c0.4,0.3,0.9,0.6,1.5,0.8c1.1,0.3,2.2,0.3,3.4,0.1c2.3-0.4,4.5-1.4,6.9-2.1c0.6-0.2,1.3-0.3,1.8-0.4c0.6-0.1,1.3-0.1,1.9-0.1
							c0.6,0.1,1.3,0.2,2,0.6c0.6,0.4,1,1.2,1.2,1.8c0.3,1.3,0.1,2.5,0.1,3.5c0,1.1,0,2.1,0.2,3c0.1,0.4,0.3,0.9,0.5,1.2
							c0.1,0.2,0.2,0.4,0.3,0.5l0.2,0.2l0.3,0.3c0.6,0.6,1.2,0.8,1.8,0.7c0.7-0.1,1.3-0.5,1.9-1c0.6-0.5,1-1.1,1.4-1.6
							c0.8-1.1,1.3-2.3,1.6-3.2c0.3-0.9,0.3-1.7,0.3-2.1c0-0.3,0-0.2-0.1-0.4c0-0.1-0.1-0.2-0.1-0.2L123.2,93.4z"/>
					</g>
					<g>
						<path fill="#6A5C50" d="M118,82.5c-1.5-0.7-2.9-1.6-4.2-2.5c-1.4-0.9-2.7-1.9-4-2.8c-1.3-0.9-2.6-1.8-4-2.5l-0.5-0.3l-0.1-0.1
							l0,0c0,0,0,0,0,0l0,0l-0.1,0l-0.3-0.1c-0.2-0.1-0.6-0.2-0.9-0.2c-0.7-0.1-1.4,0-2.2,0.1c-1.5,0.2-3.1,0.5-4.7,0.8
							c-0.8,0.1-1.6,0.3-2.5,0.3c-0.8,0-1.7,0-2.6-0.4c-0.2-0.1-0.4-0.3-0.6-0.4L90.8,74c-0.3-0.3-0.5-0.7-0.7-1
							c-0.2-0.4-0.4-0.8-0.5-1.2c-0.1-0.4-0.1-0.9,0.1-1.3c0.3-0.9,0.9-1.6,1.6-2.1c0.7-0.5,1.4-0.9,2.2-1.3
							c1.5-0.7,3.2-1.1,4.9-1.3c0.9-0.1,1.7-0.1,2.7,0.1l0.4,0.1l0.3,0.1l0.6,0.2l1.1,0.5c3,1.3,6,2.5,8.9,4.2
							c1.4,0.8,2.9,1.7,4.1,2.8c1.3,1,2.5,2,3.8,2.9c1.3,0.9,2.6,1.8,4,2.3c0.7,0.3,1.4,0.5,2.1,0.4c0.7,0,1.3-0.3,1.8-0.8l-0.1,0.2
							c0.1-0.5,0.3-1,0.1-1.4c-0.2-0.4-0.7-0.7-1.2-0.8l0-0.2c0.3,0,0.6,0.1,0.9,0.2c0.3,0.1,0.6,0.3,0.7,0.6
							c0.2,0.3,0.2,0.6,0.3,0.9c0,0.3,0,0.6,0,0.9l0,0.1l-0.1,0.1c-0.5,0.8-1.4,1.3-2.3,1.5c-0.9,0.2-1.8,0-2.7-0.2
							c-1.7-0.5-3.2-1.3-4.6-2.1c-1.4-0.9-2.8-1.8-4.1-2.8c-0.7-0.5-1.3-0.9-1.9-1.3c-0.7-0.4-1.3-0.8-2-1.2c-2.8-1.6-5.6-3-8.5-4.4
							l-1.1-0.5l-0.6-0.3l-0.3-0.1l-0.2-0.1c-0.6-0.2-1.4-0.3-2.1-0.3c-1.5,0-3.1,0.2-4.6,0.7c-0.7,0.2-1.5,0.5-2.1,1
							c-0.6,0.4-1.2,1-1.4,1.7c-0.2,0.7-0.1,1.4,0.3,2.1c0.2,0.3,0.4,0.6,0.7,0.9l0.4,0.4c0.1,0.1,0.3,0.2,0.4,0.3
							c0.6,0.3,1.4,0.2,2.2,0.1c0.8-0.1,1.5-0.3,2.3-0.6c1.5-0.4,3.1-1,4.8-1.3c0.8-0.2,1.7-0.2,2.6-0.2c0.5,0,0.9,0.1,1.4,0.3
							l0.3,0.1l0.1,0l0.1,0.1l0.1,0.1l0.6,0.3c1.5,0.8,2.8,1.8,4.1,2.8c1.3,1,2.5,2.1,3.7,3.2c1.2,1.1,2.4,2.1,3.7,3.1L118,82.5z"/>
					</g>
					<g>
						<path fill="#6A5C50" d="M158,101.2c0,0,0.1,0,0.2,0c0.1,0,0.3,0,0.6,0.1c0.5,0.1,1.2,0.4,1.9,1c0.7,0.6,1.5,1.4,2.6,1.9
							c1.1,0.6,2.4,0.8,3.9,0.6c0.7-0.1,1.5-0.3,2.3-0.4c0.8-0.2,1.6-0.4,2.4-0.7c1.6-0.6,3-1.6,3.4-3.3c0.3-0.8,0.3-1.7,0.3-2.6
							c0-0.2,0-0.5,0-0.7l-0.1-0.8c-0.1-0.5-0.1-1-0.2-1.5c-0.4-1.8-1.1-3.7-2.4-5c-1.3-1.3-3.1-2.1-5-2.7c-1.9-0.5-3.9-0.9-5.9-1.4
							c-1.9-0.5-3.8-1.2-5.4-2.2c-0.5-0.3-0.8-0.5-1.2-0.8c-0.4-0.3-0.7-0.6-1-1c-0.6-0.7-1.1-1.4-1.5-2.1c-0.8-1.4-1.4-2.8-1.5-4.2
							c-0.2-1.3,0.1-2.5,0.5-3.4c0.3-0.4,0.5-0.8,0.8-1c0.3-0.2,0.5-0.4,0.7-0.5c0.4-0.2,0.7-0.4,0.7-0.4s-0.2,0.2-0.6,0.4
							c-0.2,0.1-0.4,0.4-0.6,0.6c-0.3,0.2-0.4,0.6-0.6,1c-0.3,0.8-0.4,1.9-0.2,3.1c0.3,1.2,0.9,2.4,1.8,3.7c0.4,0.6,0.9,1.2,1.5,1.8
							c0.3,0.3,0.6,0.6,0.9,0.8c0.2,0.2,0.7,0.5,1,0.7c1.5,0.8,3.3,1.3,5.1,1.8c1.9,0.4,3.9,0.7,5.9,1.3c2,0.5,4.3,1.4,5.9,3.1
							c1.6,1.7,2.5,3.9,2.9,6.1c0.1,0.5,0.1,1,0.2,1.5l0.1,0.8c0,0.4,0,0.6,0,0.9c0,1.1-0.1,2.2-0.5,3.3c-0.4,1.1-1.1,2-1.9,2.7
							c-0.8,0.7-1.8,1.1-2.7,1.4c-0.9,0.3-1.8,0.5-2.7,0.6c-0.9,0.1-1.7,0.2-2.5,0.3c-0.8,0-1.6,0-2.4-0.2c-0.7-0.2-1.4-0.5-2-0.9
							c-1.2-0.7-1.8-1.7-2.5-2.3c-0.6-0.6-1.2-1-1.7-1.1c-0.2-0.1-0.4-0.1-0.5-0.1C158,101.2,158,101.2,158,101.2z"/>
					</g>
					<g>
						<path fill="#6A5C50" d="M173.6,88.2c0,0,0.9,0.3,2.5,0.8c1.6,0.5,3.8,1.2,6.4,2.2c1.3,0.5,2.7,1.2,4.1,2c1.4,0.9,2.8,2,4,3.4
							c1.2,1.3,2.3,2.9,3.1,4.5c0.5,0.8,0.9,1.7,1.1,2.6c0.2,0.9,0.3,2-0.1,3.1c-0.2,0.5-0.6,1-1.2,1.3c-0.6,0.2-1.2,0.3-1.8,0.2
							c-1.1-0.3-2-0.9-2.8-1.6c-1.5-1.5-2.3-3.2-3.2-4.7c-0.8-1.6-1.5-3-2.4-4.1c-0.2-0.2-0.5-0.6-0.7-0.8c-0.2-0.3-0.5-0.5-0.8-0.8
							c-0.5-0.5-1-1-1.6-1.4c-1.1-0.9-2-1.7-2.9-2.5c-0.9-0.8-1.6-1.4-2.2-2l-1.9-2.2L173.6,88.2z M173.6,88.2c0,0,0.2,0.1,0.5,0.4
							c0.4,0.3,0.9,0.6,1.6,1.1c0.7,0.4,1.5,1,2.5,1.6c1,0.6,2,1.3,3.2,2.1c0.6,0.4,1.2,0.9,1.8,1.4c0.3,0.2,0.6,0.5,0.9,0.8
							c0.3,0.3,0.5,0.5,0.9,0.9c1.2,1.4,1.9,3,2.7,4.6c0.7,1.6,1.5,3.2,2.6,4.4c1.1,1.2,2.8,2.2,3.6,0.9c0.4-0.6,0.5-1.5,0.4-2.4
							c-0.1-0.4-0.2-0.8-0.3-1.3c-0.1-0.2-0.2-0.4-0.3-0.6l-0.3-0.6c-0.8-1.6-2-3-3.4-4c-1.3-1.1-2.8-1.9-4.1-2.6
							c-1.4-0.7-2.7-1.4-3.9-2c-1.3-0.6-2.4-1.1-3.4-1.6c-1-0.5-1.9-1-2.6-1.4c-0.7-0.4-1.3-0.7-1.6-1c-0.4-0.2-0.6-0.4-0.6-0.4
							L173.6,88.2z"/>
					</g>
					<g>
						<path fill="#6A5C50" d="M144,67.6c0,0,0.1,0.1,0.2,0.2c0.1,0.1,0.1,0.2,0.3,0.2c0.1,0.1,0.2,0.2,0.4,0.2
							c0.3,0.1,0.8,0.2,1.2,0.1c0.5-0.2,0.9-0.5,1.4-1c0.9-1,1.8-2.3,2.6-4c0.8-1.7,1.7-3.6,2.6-5.7c0.4-1.1,0.9-2.2,1.4-3.3
							c0.2-0.6,0.5-1.2,0.7-1.8c0.3-0.6,0.5-1.2,1-1.9c1.8-2.1,3.7-4.1,6.2-5.8c1.3-0.8,2.6-1.6,4.3-2c0.9-0.2,1.8-0.1,2.6,0.1
							c0.8,0.2,1.6,0.5,2.3,0.9c1.4,0.7,2.8,1.6,4,3c0.5,0.7,1.1,1.6,1,2.8c-0.1,0.6-0.3,1.2-0.7,1.6c-0.2,0.2-0.4,0.4-0.5,0.5
							l-0.3,0.2l-0.1,0.1l0,0c0,0-0.2,0.1-0.1,0.1l-0.1,0c-0.2,0.1-0.3,0.2-0.5,0.3c-0.3,0.1-0.5,0.2-0.8,0.2l-0.7,0.1h-0.7
							c-0.9,0-1.7-0.2-2.4-0.3c-1.5-0.3-3-0.6-4.1-0.3c-0.3,0.1-0.5,0.2-0.7,0.3c0,0-0.1,0.1-0.1,0.1l-0.2,0.2l-0.4,0.4
							c-0.5,0.5-1,1.1-1.5,1.6c-1,1.1-1.9,2.2-2.8,3.3c-0.4,0.6-0.8,1.1-1.1,1.7L158,60l-0.1,0.4c0,0,0,0,0,0.1c0,0,0,0.1,0,0l0,0.1
							c0,0.2,0,0.4,0.1,0.4c0,0.2,0.2,0.4,0.2,0.4c0.1,0.1,0.2,0.1,0.4,0.1c0.5,0,1.1-0.2,1.6-0.5c0.6-0.2,1.2-0.5,1.8-0.8
							c0.6-0.2,1.3-0.4,2-0.5c0.7-0.1,1.4-0.1,2.1,0.1c0.7,0.2,1.4,0.6,1.8,1.3c0.3,0.7,0.4,1.3,0.4,1.9c0,0.6-0.1,1.2-0.4,1.7
							c-0.5,1.1-1.4,1.9-2.3,2.3c-0.5,0.2-0.9,0.4-1.4,0.4c-0.5,0.1-0.9,0.1-1.3,0.1c-0.8,0.1-1.6,0.1-2.2,0.2
							c-1.3,0.1-2.4,0.2-3.1,0.4c-0.4,0.1-0.6,0.2-0.8,0.3c-0.2,0.1-0.2,0.2-0.2,0.2c0,0,0-0.1,0.2-0.2c0.2-0.1,0.4-0.2,0.8-0.3
							c0.7-0.2,1.7-0.5,3.1-0.6c0.7-0.1,1.4-0.2,2.2-0.3c0.8-0.1,1.6-0.2,2.4-0.7c0.8-0.4,1.4-1.1,1.7-2c0.3-0.8,0.3-2-0.1-2.7
							c-0.4-0.7-1.5-0.8-2.6-0.6c-0.6,0.1-1.1,0.3-1.7,0.5c-0.5,0.2-1.1,0.5-1.7,0.8c-0.6,0.3-1.3,0.6-2.2,0.7c-0.4,0-1,0-1.5-0.4
							c-0.5-0.4-0.7-0.8-0.8-1.3c-0.1-0.3-0.1-0.4-0.1-0.6l0-0.1c0-0.2,0-0.2,0-0.3c0-0.2,0-0.3,0-0.5c0.1-0.2,0.1-0.4,0.2-0.6
							l0.3-0.5c0.4-0.7,0.8-1.3,1.2-1.9c0.9-1.2,1.8-2.4,2.8-3.5c0.5-0.6,1-1.1,1.5-1.7l0.4-0.4l0.2-0.2c0.1-0.1,0.2-0.2,0.3-0.2
							c0.4-0.3,0.9-0.5,1.3-0.6c0.9-0.3,1.8-0.2,2.6-0.1c0.8,0.1,1.6,0.3,2.3,0.4c1.5,0.3,2.9,0.5,3.9-0.1l0.1,0
							c0.1-0.1-0.1,0.1-0.1,0l0,0l0.1-0.1l0.2-0.1c0.1-0.1,0.2-0.2,0.3-0.3c0.2-0.2,0.2-0.3,0.2-0.5c0.1-0.3-0.2-0.9-0.6-1.4
							c-0.8-1-2-1.8-3.3-2.5c-0.6-0.3-1.3-0.6-1.9-0.8c-0.3-0.1-0.6-0.2-0.9-0.2l-0.2,0l-0.3,0l-0.4,0.1c-1.3,0.2-2.5,0.9-3.7,1.6
							c-2.3,1.5-4.3,3.4-6.1,5.3c-0.3,0.3-0.6,1-0.9,1.5c-0.3,0.6-0.5,1.1-0.8,1.7c-0.5,1.1-1,2.2-1.5,3.3c-1,2.1-2,4-3,5.6
							c-1,1.6-2,3-3,3.9c-0.5,0.5-1.1,0.8-1.6,0.9c-0.6,0.1-1,0-1.3-0.2c-0.1-0.1-0.3-0.2-0.4-0.3c-0.1-0.1-0.2-0.2-0.2-0.3
							C144.1,67.6,144,67.6,144,67.6z"/>
					</g>
					<g>
						<path fill="#6A5C50" d="M147.8,79c-0.1,0.3-0.2,0.6-0.6,0.7c-0.3,0.1-0.7-0.1-0.9-0.3c-0.5-0.4-1-0.8-1.4-1.3
							c-0.8-1-1.5-2.1-2.1-3.2c-0.6-1.1-1.1-2.2-1.6-3.5c-0.2-0.6-0.4-1.2-0.5-1.9c0-0.4,0-0.8,0.1-1.1c0.1-0.3,0.2-0.6,0.3-0.9
							c0.4-1.2,0.9-2.3,1.3-3.5c0.2-0.6,0.4-1.2,0.5-1.7c0.1-0.5,0.2-1.2,0-1.5c0.1-0.4-1.5-0.2-2.1,0.5c-0.7,0.7-1.2,1.8-1.8,2.9
							c-0.6,1.1-1.1,2.3-2.1,3.4c-0.5,0.5-1.2,1-2,1.2l-0.5,0.1c-0.1,0-0.3,0.1-0.5,0.1c-0.4,0-0.8,0.1-1.2,0
							c-0.8-0.1-1.6-0.5-2.2-1c-0.6-0.5-1-1.1-1.3-1.7c-0.7-1.1-1.2-2.3-1.8-3.2c-0.2-0.2-0.3-0.4-0.5-0.6l-0.3-0.3l-0.4-0.3
							c-0.5-0.4-0.9-0.7-1.3-0.9c-0.1-0.1-0.2-0.1-0.3-0.1c0,0,0,0-0.1,0c0,0,0,0,0.1,0c0,0,0.1,0,0.2-0.1c0.1,0,0.1-0.1,0.1-0.1
							c0,0,0,0,0,0c0,0,0,0.1,0,0.1c0,0.4,0.1,1,0.2,1.5c0.3,1.1,0.7,2.3,1.1,3.5l0.6,1.8c0.2,0.6,0.4,1.1,0.6,2l0.1,0.7l-0.6,0.3
							c-0.3,0.1-0.6,0.3-1,0.4c-0.4,0.1-0.7,0.2-1.1,0.2c-0.7,0.1-1.5-0.1-2.2-0.3c-0.7-0.3-1.2-0.7-1.7-1.1
							c-0.5-0.4-0.9-0.9-1.3-1.4c-0.7-1-1.4-2-1.9-3.1c-0.6-1-1.1-2.1-1.6-3.1c-1.1-2.1-2-4.2-3.3-6c-0.3-0.5-0.7-0.9-1-1.3
							l-0.6-0.6c-0.2-0.1-0.4-0.3-0.6-0.5c-0.2-0.1-0.4-0.3-0.7-0.3l-0.3-0.1l-0.4-0.1c-0.2-0.1-0.5,0-0.7,0c-0.2,0-0.5,0.1-0.7,0.1
							l0.4-0.4c0,0.3-0.1,0.6-0.1,1c0,0.3,0,0.7,0.1,1c0.1,0.3,0.1,0.7,0.3,1c0.1,0.3,0.2,0.7,0.4,1c0.1,0.3,0.3,0.7,0.5,1
							c0.2,0.3,0.3,0.6,0.5,1c0.4,0.6,0.8,1.2,1.2,1.9l2.6,3.7c0.4,0.6,0.8,1.2,1.2,1.9c0.2,0.3,0.3,0.7,0.5,1
							c0.2,0.3,0.3,0.7,0.4,1.1c-0.2-0.3-0.3-0.7-0.5-1c-0.2-0.3-0.4-0.6-0.6-0.9c-0.4-0.6-0.9-1.2-1.3-1.8l-2.8-3.5
							c-0.5-0.6-0.9-1.2-1.3-1.8c-0.2-0.3-0.4-0.6-0.6-1c-0.2-0.3-0.4-0.7-0.6-1c-0.4-0.7-0.6-1.4-0.8-2.2c-0.1-0.4-0.1-0.8-0.2-1.2
							c0-0.4,0.1-0.8,0.1-1.3l0-0.3l0.4-0.1c0.3-0.1,0.6-0.2,1-0.2c0.3,0,0.7-0.1,1,0l0.5,0.1c0.2,0,0.3,0.1,0.5,0.2
							c0.3,0.1,0.6,0.3,0.9,0.4c0.3,0.2,0.5,0.4,0.8,0.6c0.2,0.2,0.5,0.4,0.7,0.6c0.4,0.4,0.8,0.9,1.2,1.4c1.4,1.9,2.5,4,3.6,6.1
							c0.5,1,1.1,2,1.6,3c0.6,1,1.2,1.9,1.8,2.8c0.3,0.4,0.7,0.8,1.1,1.2c0.2,0.2,0.4,0.3,0.6,0.5c0.2,0.1,0.4,0.2,0.6,0.3
							c0.4,0.2,0.8,0.2,1.2,0.2c0.2,0,0.4-0.1,0.6-0.1l0.6-0.3l-0.5,1c-0.1-0.4-0.3-1.1-0.5-1.6l-0.6-1.8c-0.4-1.2-0.8-2.4-1.1-3.7
							c-0.1-0.7-0.3-1.3-0.2-2.2l0.1-0.4c0-0.1,0.1-0.3,0.2-0.4c0.1-0.2,0.3-0.3,0.4-0.5c0.2-0.1,0.4-0.2,0.6-0.3
							c0.8-0.1,1.2,0.1,1.5,0.3c0.7,0.3,1.2,0.8,1.7,1.2l0.4,0.3l0.4,0.4c0.3,0.3,0.5,0.5,0.7,0.8c0.8,1.1,1.3,2.3,1.9,3.3
							c0.6,1,1.2,1.8,2.1,1.9c0.2,0.1,0.4,0,0.6,0c0.1,0,0.2,0,0.4-0.1l0.5-0.1c0.4-0.1,0.8-0.3,1.2-0.7c0.7-0.7,1.3-1.8,1.9-2.9
							c0.6-1.1,1.1-2.3,2.3-3.3c0.3-0.3,0.7-0.5,1-0.6l0.2-0.1l0.1,0l0,0l0,0l0.1,0l0.1,0c0.2,0,0.3-0.1,0.5-0.1
							c0.4-0.1,0.8-0.1,1.3,0.1c0.5,0.1,1,0.6,1.1,1.1c0.3,0.9,0.1,1.6-0.1,2.2c-0.2,0.6-0.4,1.3-0.6,1.8c-0.5,1.2-1,2.3-1.5,3.4
							c-0.1,0.3-0.2,0.6-0.3,0.8c-0.1,0.3-0.1,0.5-0.1,0.7c0,0.5,0.1,1.1,0.3,1.7c0.3,1.2,0.8,2.3,1.3,3.4c0.5,1.1,1.1,2.2,1.8,3.2
							c0.4,0.5,0.7,1,1.2,1.4c0.2,0.2,0.5,0.4,0.8,0.3C147.6,79.5,147.7,79.2,147.8,79z"/>
					</g>
					<g>
						<path fill="#6A5C50" d="M124.5,45.7c-0.5-0.1-1.1-0.3-1.6-0.5c-0.5-0.2-1-0.5-1.4-0.8c-0.5-0.3-0.9-0.6-1.3-0.9
							c-0.4-0.3-0.9-0.6-1.3-0.9c-0.4-0.3-0.9-0.5-1.3-0.7c-0.4-0.2-0.9-0.4-1.3-0.5c-0.2,0-0.4-0.1-0.6-0.1c-0.2,0-0.4,0-0.6,0
							c-0.2,0-0.4,0-0.6,0.1l-0.3,0.1c0,0-0.1,0,0,0l-0.1,0l-0.2,0.1c-0.3,0.1-0.4,0.2-0.5,0.3c-0.2,0.1-0.3,0.2-0.4,0.3
							c-0.2,0.2-0.3,0.4-0.3,0.7c0.1,0.6,0.6,1.5,1.2,2.3c0.6,0.8,1.4,1.5,2.1,2.2c0.8,0.7,1.6,1.4,2.4,2.1l0.1,0.1l0,0.1
							c0,0.4-0.1,0.8-0.3,1.1c-0.3,0.3-0.6,0.4-0.9,0.4c0.3-0.2,0.5-0.4,0.6-0.6c0.1-0.2,0.1-0.5,0-0.8l0.1,0.2
							c-1-0.5-1.9-1-2.9-1.6c-0.5-0.3-0.9-0.6-1.3-1c-0.4-0.3-0.9-0.7-1.3-1.1c-0.4-0.4-0.8-0.9-1.1-1.4c-0.3-0.5-0.6-1.1-0.7-1.9
							c-0.1-0.8,0.2-1.7,0.7-2.2c0.2-0.3,0.5-0.5,0.8-0.7c0.3-0.2,0.6-0.4,0.8-0.5l0.2-0.1l0.1,0c0.1,0,0.1,0,0.2-0.1l0.5-0.1
							c0.3-0.1,0.6-0.1,1-0.2c0.3,0,0.7,0,1,0c0.3,0,0.6,0.1,0.9,0.2c1.2,0.4,2.2,1.1,3,1.8c0.8,0.7,1.6,1.5,2.3,2.3
							c0.4,0.4,0.7,0.8,1.1,1.1C123.6,45.1,124,45.4,124.5,45.7z"/>
					</g>
					<g>
						<path fill="#6A5C50" d="M142.7,52.5c0,0,0-0.1,0.1-0.3c0.1-0.2,0.2-0.4,0.3-0.7c0.1-0.3,0.3-0.7,0.4-1.1
							c0.1-0.4,0.2-0.9,0.3-1.4c0.1-0.5,0.2-1.1,0.3-1.7c0.1-0.6,0.3-1.3,0.4-2c0.2-0.7,0.2-1.5,0.4-2.4c0-0.1,0.1-0.2,0.2-0.4
							c0.1-0.1,0.3-0.2,0.5-0.2c0.3,0,0.5,0.1,0.7,0.2c0.2,0.1,0.4,0.2,0.6,0.3l0.1,0.1c0.1,0.1,0.1,0.1,0.2,0.1l0.2,0.2l0.5,0.3
							c0.2,0.1,0.3,0.3,0.5,0.5c0.2,0.2,0.3,0.3,0.5,0.5l0.4,0.6c0.3,0.4,0.4,0.8,0.5,1.2c0.1,0.4,0.2,0.9,0.3,1.3
							c0.1,0.9,0,1.7-0.3,2.5c-0.1,0.4-0.3,0.7-0.5,1.1c-0.2,0.3-0.4,0.6-0.7,0.9c-0.5,0.5-1,0.9-1.6,1.1c-0.1,0-0.3,0.1-0.4,0.1
							c-0.1,0-0.3,0-0.4,0c-0.1,0-0.2,0-0.4,0c-0.1,0-0.2-0.1-0.3-0.1c-0.4-0.1-0.7-0.3-0.8-0.4c-0.2-0.1-0.2-0.2-0.2-0.2l0.1-0.2
							c0,0,0.1,0,0.3,0c0.2,0,0.4,0,0.7-0.1c0.1,0,0.1,0,0.2,0c0.1,0,0.1-0.1,0.2-0.1c0.2-0.1,0.3-0.2,0.4-0.3
							c0.3-0.2,0.6-0.6,0.8-1c0.2-0.4,0.4-0.9,0.5-1.4c0.1-0.5,0.2-1.1,0.2-1.7c0-0.3,0-0.6-0.1-0.9c-0.1-0.3-0.1-0.6-0.3-0.9
							c-0.1-0.3-0.2-0.6-0.4-0.9c-0.1-0.2-0.1-0.3-0.2-0.5l-0.3-0.5l-0.2-0.2c0,0-0.1-0.1-0.1-0.1l-0.1-0.1
							c-0.1-0.1-0.3-0.3-0.4-0.4c-0.1-0.1-0.3-0.2-0.3-0.2c0,0-0.1,0-0.1,0.1c-0.2,0.6,0,1.4,0.1,2.2c0.1,0.7,0.3,1.5,0.3,2.2
							c0,0.7-0.2,1.4-0.4,2c-0.4,1.2-1.1,2.1-1.7,2.6c-0.6,0.5-1,0.6-1,0.6L142.7,52.5z"/>
					</g>
					<g>
						<path fill="#6A5C50" d="M218.2,105.3c0.3,0.8,0.7,1.6,1.1,2.4c0.4,0.8,0.7,1.6,1,2.4c0.1,0.4,0.3,0.9,0.4,1.3
							c0.1,0.4,0.2,0.9,0.2,1.4c0,0.5,0,1-0.2,1.6c-0.1,0.3-0.2,0.6-0.5,0.8c-0.1,0.1-0.2,0.3-0.4,0.4c-0.1,0.1-0.3,0.2-0.4,0.3
							l-0.2,0.1l0,0l0,0l0,0l-0.1,0l0,0l-0.1,0c0,0-0.3,0.1-0.6,0.1c-0.4,0-0.8-0.1-1.1-0.2c-0.6-0.3-1-0.7-1.3-1.1
							c-0.6-0.8-1.1-1.6-1.4-2.5c-0.3-0.8-0.6-1.7-0.8-2.6c-0.2-0.9-0.4-1.7-0.3-2.7l0-0.7l0.6,0.1c0.2,0.1,0.5,0,0.9,0
							c0.4,0,0.8,0,1.2,0.1l-0.3,0.1c0.2-0.3,0.4-0.8,0.7-1.1c-0.2,0.4,0,0.9-0.3,1.4l-0.1,0.1l-0.2,0c-0.3,0-0.6,0.1-0.9,0.2
							c-0.3,0.1-0.7,0.3-1.2,0.3l0.6-0.6c0.1,0.7,0.4,1.5,0.7,2.3c0.3,0.8,0.6,1.5,1,2.2c0.4,0.7,0.8,1.4,1.2,1.9
							c0.2,0.3,0.5,0.5,0.7,0.6c0.2,0.1,0.2,0.1,0.4,0c0,0,0.1,0,0.1-0.1c0,0,0.1-0.1,0.1-0.1c0.1,0,0.1-0.2,0.2-0.3
							c0.1-0.2,0.2-0.6,0.2-0.9c0-0.7,0-1.5-0.2-2.4c-0.1-0.8-0.3-1.7-0.4-2.5C218.3,107.1,218.1,106.2,218.2,105.3z"/>
					</g>
					<g>
						<path fill="#6A5C50" d="M212.5,113.3c0.3,1.3,0.9,2.5,1.6,3.7c0.7,1.1,1.5,2.2,2.2,3.4c0.2,0.3,0.3,0.6,0.5,0.9
							c0.1,0.3,0.3,0.6,0.4,0.9c0.3,0.7,0.5,1.3,0.6,2.1c0,0.4,0.1,0.9-0.2,1.5c-0.1,0.2-0.2,0.3-0.3,0.4c-0.1,0.1-0.3,0.2-0.5,0.3
							c-0.2,0.1-0.3,0.1-0.5,0.1c-0.1,0-0.3,0-0.4,0c-1-0.1-1.6-0.5-2.3-0.8l-0.1,0l0,0l-0.1,0l0,0l-0.1-0.1l-0.2-0.1
							c-0.1-0.1-0.3-0.2-0.4-0.3c-0.3-0.3-0.6-0.5-0.9-0.8c-0.5-0.6-1-1.1-1.3-1.8c-0.8-1.2-1.3-2.5-1.8-3.8c-0.5-1.3-1-2.6-1.4-3.8
							c-0.2-0.6-0.5-1.2-0.7-1.8c-0.3-0.6-0.5-1.2-0.8-1.7l1.3-0.8c0.6,1.2,1.3,2.3,2.2,3.3c0.9,1,1.8,2.1,2.8,3l-0.4,0.2
							c0.1-0.9,0.4-1.6,0.5-2.4c0.1,0.8-0.1,1.7,0,2.4l0,0.5l-0.4-0.3c-1.2-0.8-2.3-1.6-3.3-2.6c-1-1-2-2.1-2.7-3.4l1.3-0.8
							c0.4,0.6,0.8,1.2,1.1,1.8c0.3,0.6,0.6,1.3,0.9,1.9c0.5,1.3,1,2.5,1.5,3.7c0.5,1.2,1.1,2.4,1.7,3.5c0.3,0.5,0.7,1,1.1,1.5
							c0.2,0.2,0.4,0.4,0.6,0.6c0.1,0.1,0.3,0.2,0.4,0.3l0.2,0.1l0.1,0.1l0,0c0,0,0.1,0-0.1,0l0,0l0,0l0,0c0.5,0.3,1.1,0.6,1.5,0.7
							c0.1,0,0.1,0,0.1,0c0,0,0,0,0,0c0,0,0,0,0,0c0,0,0.1-0.2,0-0.5c0-0.5-0.2-1.2-0.4-1.8c-0.1-0.3-0.2-0.6-0.3-0.9L215,121
							c-0.5-1.2-1.2-2.4-1.7-3.7C212.8,116,212.5,114.6,212.5,113.3z"/>
					</g>
					<g>
						<path fill="#6A5C50" d="M195.8,192.9c0,0-0.1,0.2-0.2,0.5c-0.1,0.3-0.2,0.8-0.2,1.4c-0.1,1.2,0.1,2.9,0.3,4.9
							c0.1,1,0.2,2.1,0.2,3.4c0,1.2,0,2.5-0.6,4c-0.3,0.7-0.8,1.4-1.6,1.9c-0.8,0.5-1.6,0.6-2.5,0.5c-0.1,0-0.6-0.1-0.8-0.2
							c-0.2-0.1-0.5-0.2-0.7-0.4c-0.4-0.3-0.6-0.7-0.9-1c-0.4-0.7-0.7-1.4-0.9-2.1c-0.4-1.4-0.6-2.8-0.7-4.2c-0.1-1.4-0.2-2.7-0.2-4
							c-0.1-1.2-0.2-2.5-0.3-3.7c-0.1-1.2-0.1-2.3-0.2-3.3c-0.1-2-0.4-3.7-0.6-4.9c-0.2-1.2-0.5-1.8-0.5-1.8s0.1,0.2,0.2,0.4
							c0.2,0.3,0.4,0.7,0.6,1.3c0.5,1.1,1,2.8,1.4,4.8c0.2,1,0.4,2.1,0.5,3.3c0.2,1.2,0.4,2.3,0.5,3.7c0.1,1.3,0.3,2.6,0.4,3.9
							c0.1,1.3,0.3,2.6,0.7,3.8c0.2,0.6,0.4,1.2,0.6,1.6c0.3,0.5,0.6,0.7,0.8,0.7c0.5,0,1,0,1.4-0.2c0.4-0.2,0.7-0.5,0.9-1
							c0.4-1,0.6-2.2,0.7-3.3c0.1-1.1,0.1-2.2,0.1-3.3c0-2.1,0.2-3.8,0.5-5c0.1-0.6,0.3-1,0.5-1.3
							C195.7,193,195.8,192.9,195.8,192.9z"/>
					</g>
					<g>
						<path fill="#6A5C50" d="M182,201.9c0.7,1.2,1.3,2.5,1.9,3.8c0.3,0.6,0.5,1.3,0.8,2c0.3,0.7,0.5,1.4,0.6,2
							c0.2,0.7,0.3,1.4,0.4,2.1c0,0.4,0.1,0.7,0.1,1.1c0,0.4,0,0.8,0,1.1c0,0.4-0.1,0.8-0.1,1.1c-0.1,0.4-0.2,0.8-0.3,1.1
							c-0.1,0.4-0.3,0.7-0.5,1.1c-0.2,0.3-0.4,0.7-0.7,1l-0.6,0.9l-0.8-0.8c-0.3-0.3-0.6-0.5-0.7-0.8c-0.2-0.3-0.3-0.6-0.5-0.8
							c-0.3-0.6-0.5-1.1-0.6-1.7c-0.2-0.6-0.3-1.1-0.4-1.7c-0.1-0.6-0.2-1.1-0.3-1.7c-0.2-1.1-0.3-2.2-0.4-3.4
							c-0.1-1.1-0.1-2.2-0.2-3.4l-0.1-2.1l1,1.8l0.1,0.2c0,0,0,0,0,0c0,0-0.1,0-0.2,0c-0.2,0-0.1,0.1-0.1,0c0,0,0.1-0.1,0.1-0.2
							c0.2-0.3,0.3-0.6,0.5-0.9C181.4,203.2,181.7,202.5,182,201.9z M182,201.9c-0.1,0.7-0.2,1.5-0.4,2.2c-0.1,0.4-0.2,0.7-0.3,1.1
							c0,0.1-0.1,0.2-0.2,0.3c-0.1,0.1-0.2,0.3-0.5,0.4c-0.2,0-0.3,0-0.5-0.1c-0.1-0.1-0.2-0.1-0.2-0.2l-0.2-0.2l0.9-0.4l0.6,3.3
							c0.2,1.1,0.4,2.2,0.7,3.2c0.1,0.5,0.2,1.1,0.4,1.6c0.1,0.5,0.3,1,0.5,1.5c0.2,0.5,0.4,1,0.6,1.4c0.1,0.2,0.2,0.4,0.3,0.6
							c0.1,0.2,0.2,0.3,0.4,0.4l-1.4,0.1l0.5-0.7c0.1-0.3,0.3-0.5,0.4-0.8c0.1-0.3,0.2-0.6,0.3-0.9c0-0.3,0.1-0.6,0.2-0.9
							c0-0.3,0.1-0.6,0.1-1c0-0.3,0-0.6,0-1c0-0.7-0.1-1.3-0.2-2c-0.1-0.7-0.2-1.3-0.4-2c-0.1-0.7-0.3-1.3-0.5-2
							C182.7,204.6,182.3,203.2,182,201.9z"/>
					</g>
					<g>
						<path fill="#6A5C50" d="M175.6,202.5c0.6,1.2,1,2.5,1.2,3.9c0.1,0.7,0.1,1.4-0.1,2.1c-0.1,0.7-0.4,1.4-0.7,2.1l-0.7,1.2
							l-0.9-1.1c-0.6-0.8-1.1-1.6-1.6-2.5c-0.4-0.9-0.8-1.8-1-2.8c-0.1-0.5-0.2-1-0.2-1.5c0-0.5-0.1-1,0-1.5c0.1-0.5,0.2-1,0.3-1.5
							c0.1-0.2,0.2-0.5,0.3-0.7c0.1-0.2,0.3-0.4,0.5-0.6l0.1-0.1l0.1,0c0.2,0.1,0.4,0.2,0.5,0.4c0.1,0.2,0,0.4,0,0.6
							c0-0.2-0.1-0.3-0.2-0.4c-0.1-0.1-0.2-0.1-0.3-0.1l0.2-0.1l-0.2,0.6c0,0.2-0.1,0.4-0.1,0.6c0,0.2,0,0.4,0,0.6
							c0,0.2,0,0.4,0.1,0.6c0,0.2,0.1,0.4,0.1,0.6l0.1,0.6c0.1,0.4,0.2,0.8,0.4,1.2c0.3,0.8,0.7,1.6,1,2.4c0.4,0.8,0.8,1.5,1.3,2.2
							l-1.6,0.1c0.1-0.2,0.3-0.5,0.4-0.7c0.1-0.3,0.2-0.5,0.3-0.8c0.1-0.3,0.2-0.6,0.2-0.9c0.1-0.3,0.1-0.6,0.1-0.9
							C175.7,205.1,175.6,203.8,175.6,202.5z"/>
					</g>
					<path fill="none" stroke="#6A5C50" stroke-miterlimit="10" d="M147.1,173c-0.6,4.7,8,15.2,4.5,18.1c-4.4,3.6-5.1-8.6-4.8-13.9
						C147.1,177.3,146.1,178.5,147.1,173z"/>
					<g>
						<path fill="#6A5C50" d="M142.4,175.1c0,0-0.1,0.1-0.3,0.3c-0.2,0.2-0.4,0.5-0.6,1c-0.2,0.5-0.3,1-0.4,1.7
							c-0.1,0.7-0.1,1.4,0,2.3c0.1,0.8,0.2,1.7,0.3,2.7c0.2,0.9,0.4,2,0.4,3.2c0,0.6,0,1.2-0.2,1.9c-0.1,0.3-0.2,0.7-0.4,1
							c-0.1,0.2-0.3,0.4-0.4,0.5c-0.2,0.2-0.4,0.3-0.7,0.4c-0.3,0.1-0.6,0.1-0.8,0.1c-0.1,0-0.3,0-0.4-0.1l-0.3-0.1
							c-0.4-0.2-0.7-0.4-1-0.6c-0.2-0.2-0.5-0.4-0.7-0.7c-0.2-0.3-0.4-0.4-0.7-0.8c-0.2-0.2-0.4-0.6-0.5-0.9
							c-0.1-0.3-0.3-0.6-0.4-0.9c-0.2-0.6-0.4-1.2-0.6-1.7c-0.3-1.1-0.5-2.3-0.6-3.4c-0.1-1.1-0.1-2.3,0.2-3.4
							c0-0.1,0.1-0.3,0.2-0.4c0.1-0.2,0.1-0.3,0.2-0.5c0-0.1,0.3-0.3,0.3-0.4c0.1-0.1,0.2-0.2,0.3-0.3c0.4-0.3,0.9-0.5,1.3-0.7
							c0.4-0.2,0.8-0.4,1.2-0.5l0.2-0.1c0.1,0,0.2-0.1,0.2-0.1c0.1,0,0.2-0.2,0.4-0.3c0.5-0.4,1-1,1.6-1.1c0.7,0.1,0.9,0.5,1.1,0.7
							c0.2,0.2,0.2,0.4,0.2,0.4s-0.1-0.1-0.3-0.3c-0.2-0.2-0.6-0.4-0.9-0.4c-0.4,0.1-0.7,0.6-1.1,1.2c-0.1,0.2-0.2,0.3-0.4,0.5
							c-0.1,0.1-0.2,0.1-0.3,0.2l-0.3,0.2c-0.3,0.2-0.7,0.4-1,0.6c-0.3,0.2-0.7,0.5-1,0.7c-0.1,0.1-0.1,0.1-0.2,0.2
							c-0.1,0.1,0,0-0.1,0.2c0,0,0,0.1-0.1,0.2c0,0.1-0.1,0.2-0.1,0.3c-0.1,0.8,0,1.8,0.1,2.8c0.2,1,0.4,2.1,0.7,3.1
							c0.3,1,0.7,2.1,1.2,2.8c0.1,0.1,0.3,0.4,0.5,0.6c0.2,0.2,0.4,0.3,0.5,0.5c0.3,0.3,0.7,0.4,0.7,0.4c0,0.1,0.2-0.2,0.4-0.6
							c0.1-0.4,0.2-0.9,0.2-1.4c0.1-1,0-2-0.1-3c-0.1-1-0.1-2,0-2.9c0.1-0.9,0.2-1.7,0.4-2.4c0.2-0.7,0.5-1.3,0.8-1.7
							c0.3-0.4,0.6-0.7,0.9-0.9C142.3,175.1,142.4,175.1,142.4,175.1z"/>
					</g>
					<g>
						<path fill="#6A5C50" d="M115.2,173.5c0,0,1,1.7,1.9,4.4c0.2,0.7,0.5,1.4,0.7,2.2c0.2,0.8,0.4,1.6,0.6,2.6
							c0.1,0.9,0.3,1.9,0.2,3c-0.1,0.5-0.2,1.2-0.7,1.8c-0.3,0.3-0.7,0.6-1.1,0.7c-0.4,0.1-0.8,0-1.1,0c-0.2,0-0.3-0.1-0.5-0.1
							l-0.2-0.1l0,0l-0.1-0.1l0,0l-0.1,0c-0.2-0.1-0.4-0.2-0.6-0.4c-0.2-0.2-0.5-0.4-0.7-0.7l-0.5-0.7c-0.6-0.9-0.9-1.9-1.1-2.8
							c-0.2-0.9-0.3-1.8-0.4-2.7c0-0.8,0-1.6,0.1-2.4c0.1-0.7,0.2-1.4,0.4-2c0.1-0.6,0.3-1.1,0.5-1.4c0.2-0.4,0.4-0.7,0.5-0.8
							c0.1-0.2,0.2-0.3,0.2-0.3s0,0.1-0.1,0.3c-0.1,0.2-0.1,0.5-0.2,0.9c-0.1,0.4-0.1,0.9-0.2,1.4c0,0.6,0,1.2,0,1.9
							c0,0.3,0,0.7,0.1,1.1c0,0.4,0.1,0.7,0.2,1.1c0.1,0.8,0.3,1.6,0.6,2.3c0.2,0.8,0.6,1.5,1,2.2l0.4,0.4c0.1,0.1,0.2,0.2,0.3,0.3
							c0.1,0.1,0.4,0.2,0.6,0.3c0,0,0.3,0.1,0.4,0.1c0.1,0,0.2,0,0.3,0c0,0,0,0,0.1,0c0.1-0.1,0.2-0.4,0.3-0.8
							c0.1-0.8,0.1-1.6,0-2.5c-0.1-1.7-0.4-3.3-0.6-4.7C115.6,175.4,115.2,173.5,115.2,173.5z"/>
					</g>
					<g>
						<path fill="#6A5C50" d="M94.2,164c0,0,0.1,0.3,0.4,0.9c0.2,0.6,0.5,1.5,0.8,2.6c0.1,0.6,0.2,1.2,0.2,1.8c0,0.7,0,1.4-0.3,2.2
							c-0.3,0.8-1,1.6-1.9,2c-0.9,0.3-1.7,0.5-2.6,0.3c-0.2,0-0.3,0-0.6-0.1c-0.2-0.1-0.5-0.1-0.7-0.2c-0.3-0.1-0.4-0.2-0.6-0.3
							c-0.2-0.1-0.4-0.3-0.6-0.4c-0.7-0.6-1-1.5-1.3-2.2c-0.4-1.5-0.4-2.7-0.5-3.8c0-0.5-0.1-1-0.1-1.4c0-0.2-0.1-0.4-0.1-0.6
							c0-0.2-0.1-0.3-0.2-0.5c-0.1-0.1-0.1-0.3-0.2-0.4c-0.1-0.1-0.1-0.2-0.2-0.2c-0.1-0.1-0.2-0.2-0.2-0.2s0.1,0,0.2,0.1
							c0.1,0,0.2,0.1,0.3,0.1c0.1,0.1,0.2,0.2,0.3,0.3c0.1,0.1,0.2,0.3,0.4,0.4c0.1,0.2,0.2,0.4,0.3,0.6c0.2,0.4,0.4,0.9,0.6,1.4
							c0.2,0.5,0.3,1.1,0.5,1.7c0.2,0.6,0.4,1.2,0.6,1.7c0.2,0.5,0.5,1,0.9,1.3c0.1,0.1,0.2,0.1,0.3,0.2c0.1,0.1,0.2,0.2,0.3,0.2
							c0.1,0,0.2,0.1,0.3,0.1c0.1,0.1,0.3,0,0.5,0.1c0.6,0.1,1.2,0,1.6-0.1c0.5-0.1,0.8-0.4,1-0.9c0.2-0.4,0.4-1,0.5-1.6
							c0.1-0.6,0.1-1.1,0.1-1.6c0-1.1,0-2,0-2.6C94.1,164.3,94.2,164,94.2,164z"/>
					</g>
					<path fill="none" stroke="#6A5C50" stroke-miterlimit="10" d="M90.9,148.1c-1.4,2.4,2.3,14.8-1.1,14.5
						c-3.1-0.3-4.4-11.3-4.8-13.8c0.1,2.9,0.8,14.3-3.2,7.7c-1.8-3-3-10.4-0.7-13.2c-1.1,4.5-2.8,14-8.9,13
						c-5.3-0.9,0.9-14,2.6-17.6c-3.9,3-7.6,9.8-8.2,15c-0.5,4.4,0.4,13.3,4,16c2.1-2.7,1.9-7.6,4-10.8c0.5,0.2,0.8,0.5,0.9,1.1"/>
					<g>
						<path fill="#6A5C50" d="M84.7,161.3c0,0,0.1,0.2,0.2,0.7c0,0.2,0.1,0.6-0.1,0.9c-0.1,0.3-0.3,0.7-0.7,1
							c-0.4,0.3-0.8,0.5-1.4,0.6c-0.5,0-1.1,0-1.6-0.2c-0.5-0.2-1.1-0.5-1.5-1c-0.2-0.2-0.4-0.6-0.5-0.9c-0.1-0.4-0.2-0.7-0.1-1.1
							c0-0.4,0.1-0.6,0.1-0.8l0.1-0.6c0.1-0.4,0.2-0.8,0.2-1.2c0-0.4,0.1-0.8,0-1c-0.1-0.2,0-0.2-0.2-0.3c-0.1,0-0.2,0-0.3,0
							c-0.1,0-0.3,0-0.4,0.1c-0.3,0.1-0.5,0.1-0.7,0.2c-0.4,0.2-0.6,0.2-0.6,0.2s0.1-0.2,0.4-0.6c0.1-0.2,0.3-0.4,0.6-0.6
							c0.1-0.1,0.3-0.2,0.4-0.3c0.2-0.1,0.4-0.2,0.6-0.2c0.1,0,0.3,0,0.4,0c0.2,0,0.3,0.1,0.5,0.2c0.3,0.2,0.5,0.5,0.6,0.7
							c0.3,0.5,0.3,1,0.4,1.5c0,0.5,0,1,0,1.5c0,0.2-0.1,0.5-0.1,0.8c-0.1,0.2-0.1,0.5-0.1,0.6c0,0.2,0,0.4,0.2,0.6
							c0.1,0.2,0.4,0.4,0.7,0.6c0.3,0.2,0.6,0.2,0.9,0.3c0.3,0,0.6,0,0.8-0.1c0.2-0.1,0.4-0.2,0.6-0.4c0.2-0.2,0.2-0.4,0.4-0.5
							C84.6,161.6,84.7,161.3,84.7,161.3z"/>
					</g>
				</g>
			</g>
			<g id="water4_3_">
				<g opacity="0.8">
					<path fill="#A3907F" d="M124.6,54.5c4.5-4.4-1.8-11.7-0.5-17.2c1.1-4.8,8-9.9,9.8-2.7c1.4,5.7-6.6,10.2-4.4,15.9
						c1.9,4.9,10.1,3.5,13,0.3c5-5.5,5.4-8.1,13.9-7.7c1.3,5.2-6.6,6.7-5.9,11.4c0.8,5.5,7.3,2.5,10.5,1.6
						c2.8-0.8,12.2-4.5,14.2-1.1c3.7,6.3-8.8,6.4-11.1,7.6c-9.4,4.8,5,4.8,8.4,5c1.4,5-6.2,4.6-9.3,5c-0.4,4.6,19,3.7,11.7,10.4
						c-5.3,4.9-18.1-4.7-21.5-0.8c-2.4,2.7,3.5,7.5,1.7,10.8c-2.5,4.4-7.2,1.3-9.5-1c-2.5-2.5-4-6.4-7.7-7.4
						c-5.3-1.5-7,3.4-11.8,4.3c-4.9,1-5.2-1.3-6.9-5.2c-1.9-4.2-1.5-4.2-6.5-5.3c-3.4-0.8-8.5-0.5-10.6-3.9
						c-3.3-5.3,2.4-4.1,3.5-7.5c2.7-7.9-16.8-10.7-18.2-17.5c-1.3-6.4,4-2.1,6.8-2c6,0.2,2.3-1.4,0.5-5.7c-2.3-5.6,3-10.3,7.8-5.7
						c3.6,3.4,1.2,14.5,5.2,16.3c3.9,1.7,3.4-5.2,8.5-3.2c1.6,0.6,2.4,3.8,3.9,4.8C122.4,55.9,125.3,55.4,124.6,54.5z"/>
					<path fill="#A3907F" d="M187.7,89.9c5.9,2.3,10.5,9.7,17,10.2c9.8,0.8,7.1-9.8,0.9-13.2c-4.8-2.6-10.7-2.1-15.8-3.7
						c-2.3-0.7-4.8-1.5-6.3-3.5c-0.8-1-1.8-7.2-1.8-7.1c4.2,2.2,11.1,3.2,16,2.4c6.2-1.1,10.3-5.1,17.4-6.4c9-1.6,20.9,2.6,22.8,12
						c0.5,2.4-0.1,6.2-3.3,5.9c-1.8-0.2-3.1-3.4-4.1-4.9c-1.9-2.8-7.2-9.7-11.4-6.1c-2.9,2.5-0.8,11.3,0.7,14
						c2.3,4.2,5.5,7.3,8.8,10.6c3.6,3.6,8.8,11.1,7.8,16.4c-1.4,7.4-9.9,6.3-15.8,7.6c-7.8,1.6-9.5,5.3-9.9,13
						c-0.2,3.5-1.6,19.1-8,13.7c-5.8-5,1.6-16.8-9.1-18.9c-8.7-1.7-13.8,4.6-13.7,13c0.1,4.6,0.2,19.9-9.6,14.3
						c-4.2-2.4-10.4-17.8-13.9-5.5c-1.5,5.1-0.2,19.3-9.5,17.5c-4.1-0.8-2.4-20.7-10-7.2c-4.9,8.7,0,32-10.4,36
						c-7.6,2.9-0.3-17.8-0.3-22.3c0-3.6-0.6-8.7-5.8-8.1c-3.7,0.4-6.3,5.8-7.3,8.7c-1.7,4.5-1.8,9.2-1.8,14.4c0,4-3,13.7-8,8.2
						c-3.7-4.1,0.4-13.2,1.1-17.6c0.9-5.3,1.8-12.1,0.3-17.4c-4.3-1.2-9.6,5.9-11.4,9.2c-3.1,5.5-2.5,11.3-3.9,17.3
						c-2.6,10.7-15.5,16.6-18.1,3.3c-1.1-5.5-0.8-11.4-0.9-17.1c0-6.3,0.9-9.7,5.4-13.7c2.1-1.9-0.5-5.8-0.1-8.4
						c0.5-2.8,1.7-1.7,3.1-3.6c3.4-4.6,1.9-8.3,5.3-12c3.8-4.1,6.2-7.4,9.7-11.5c3.2-3.7,5.3-10.8,5.4-15.9c-10.7,2.1,5.4-13,7-14.4
						c4.3-3.6,9.9-12.3,15.5-13.1c1.4,4.8-6.7,11.4-9.9,14.3c-6.2,5.6-4.9,10.7-8.5,18c-3,6.1-7.5,14.1-8.9,20.7
						c-1,4.4-0.4,10.7-4.7,14.2c-2.2,1.7,0.6,9.7-5.8,15.5c-4.8,4.3-5.3,15.2-3.4,14.1c0.4,0.6,2.3,0.1,4.9-4.2
						c4.4-7.5,10.5-21.4,13.1-21.7c9.1-1.2,5.5-1.2,7.2-7.3c1.4-4.9,6.1-9.2,7.6-14.3c1.5-5.1,0.3-9.7,5.8-13
						c-0.3,6.3,0,13.3-0.4,19.8c-0.2,3.4-6.8,17.7-1.9,19.6c1.4-2.1,2.8-9.1,5.5-9.9c2.7-0.8,3.2,3.3,7.4,2.3
						c2.1-4.8,2.1-10.8,3.2-15.9c0.5,1.8,0.6,13.6,2,14.4c4,2.4,3.9-6.4,4.9-8c2.1,2.3,1.2,7.1,4.2,8.1c1.3-2.2,0.6-4.7,1.4-7
						c6.6,11.3,6.8-1.4,7-7.8c2.7,1.6,4,4.8,7.5,4.5c5.2-10.2-6.6-25.8-6.4-36.5c8,5.1,13.4,13.6,22.3,18
						c4.9-3.8-8.8-17.9-10.9-22.1c4.9,3.3,8.3,7.7,12.8,11c-0.1-0.9,0.3-2.1,0.2-2.9c2.9,2.3,11.7,22,18.1,13.8
						c5.8-7.4-11.2-21.2-15.6-25.9c2.9,0.3,10.5,6.3,13.4,3.3C196.7,97.5,189.9,91.7,187.7,89.9z"/>
					<path fill="#A3907F" d="M256.6,190c-0.1,4.6-2.5,8.4-1.3,13.2c1.2,4.9,3.6,8.9-1.2,12.8c-5.1,4.1-6.1,0.6-8-3.8
						c-2.3-5.5-4.3-5.5-5.5,0.7c-0.7,3.2,1.2,13-4.4,12c-0.5-6,1.5-12.8,3.9-18.2c1.1-2.5,2.8-6.2,6.7-4.2c2.7,1.4,1.5,6.4,5.7,5.9
						C253,207.2,251.1,181.1,256.6,190z"/>
					<path fill="#A3907F" d="M221.6,223.5c2.6,2.2,7.6,12.1,1.8,13.8c-4.9,1.4-2.6-10.1-2.8-13.3c0.3-0.9,0.4,0,1,0"/>
					<path fill="#A3907F" d="M51.6,164c-3,1.9-5.7,9.7-5.8,13.2c0,3.6,4.2,7.1,6.4,3.5c1.5-2.5,2.1-16.1-1.4-16.7
						C50.8,164.3,50.9,164.6,51.6,164z"/>
					<path fill="#A3907F" d="M35.8,202.2c-1.8,2.5-1.9,6.7-0.9,9.5c1,2.8,4,5.7,4.9,1.2C40.2,211.1,39.1,199,35.8,202.2z"/>
					<path fill="#A3907F" d="M5.8,166.7c-1.9,1.5-2,4-2,6.3c0,1.4,0.4,6.3,3,4.1c1.8-1.6,0.3-8.9-1.5-10.3
						C5.4,167.1,5.7,167.5,5.8,166.7z"/>
					<path fill="#A3907F" d="M91.1,79.6c-4,2.8-8.5,4.4-12.4,7.3c-2.9,2.1-7.2,7.3-11.2,6.7c0.1-3.9,5.1-6.2,4.9-9.9
						c-2.9-0.5-7.2,2.8-9,4.9c-2.7,3-5.2,5.1-8.6,7.5c-2.7,1.9-7.6,5.6-6.7,9.6c1.1,4.4,5.8,2.7,7.7,0.3c2.1-2.6,3.8-7.3,7.9-6.6
						c0.1,3.2-1,7.4,3.7,5c3.5-1.8,5.9-6.6,8.3-9.5c2.3-2.7,4.8-3.6,7.3-5.3C85.5,87.8,85.3,85.3,91.1,79.6z"/>
					<path fill="#A3907F" d="M91.1,75.3c-3,0.8-6.8,5.6-10.2,2.7c-2-1.7,0.4-2.7-3.2-3.3c-2.2-0.4-3,0.9-4.7-0.7
						c-0.4-0.4,0-1.7-0.7-2.3c-1-0.9-1.6-0.9-2.8-1c-1.7-0.1-3.9,0.6-5.5,1c-3.6,0.8-7.3,1.4-10.2,3.9c-2.8,2.4-6,6.1-7.8,9.5
						c-1.6,3.1-2.1,6.7-4.1,9.7c-1.9,2.8-5,5.1-7.7,1.8c-3-3.8,0.6-9.7,3.3-12.4c1.9-1.9,3.3-1.6,3.2-4.4c0-0.7-1.6-1.4-1.1-3
						c0.4-1.7,0.5-0.9,1.7-1.7c1-0.7,2.5-0.1,3.6-1.2c1-0.9,0.6-2.7,1.7-3.5c3-2.1,3.4,2.1,2.7,4.2c1.8-3.1,5.5-5.1,8.4-6.9
						c2.9-1.7,12.1-3.6,15.5-2.4c2.5,0.9,1,2.6,3.6,3.7c1.9,0.8,4.8-0.8,6.7-1c3.9-0.4,8.1,0.5,11.8-0.3c-0.6,2.5-8.5,2.7-10.7,5.2
						c-2,2.3-0.7,6.7,2.6,3.8C87.6,76.5,87.7,76.7,91.1,75.3z"/>
					<path fill="#A3907F" d="M34.1,67.3c-2.1,0.3-13.1,11.9-7.5,12.3C32.3,80,33.4,71.6,34.1,67.3z"/>
					<path fill="#A3907F" d="M192.4,19.6c-2.8-0.2-7.3,0.8-9.7,2.5c-2.8,1.9-2.3,3.1,0.8,3.5c2.8,0.4,10.9-1.3,10.1-5.3
						c-0.8-0.2-2.1-0.7-2.6-0.7"/>
					<path fill="#A3907F" d="M183.4,12.6c-1-1.7-7.9-7.6-9-3c-0.8,3,6.3,2.4,8,3c0.2-0.7-0.3-0.8-0.6-1.3"/>
					<path fill="#A3907F" d="M125.4,14.6c-1.5-0.9-7.5-2.8-8.9-0.7c-2,2.9,2.3,3.5,4,3.7c1.2,0.1,5.3,0.4,6-0.9
						c1.4-2.5-2.7-2-3.8-2.8"/>
					<path fill="#A3907F" d="M56.4,41.3c-2.1,0.6-5.9,5.7-1.8,5.6c2.2,0,3.8-3.6,3.4-5.3c-0.6-0.1-1.4-0.2-1.9,0"/>
					<path fill="#A3907F" d="M139.1,268.3c-0.4,1.8-3.6,6.9-2.3,8.7c1.7,2.2,4.9-0.1,5.8-1.8c0.9-1.7,1-6.4-0.1-8
						c-2.2-3.1-2.6,0.9-3.4,1.8"/>
					<path fill="#A3907F" d="M158.1,263.6c-0.7,2-0.8,13.5,1.6,13.6c0.8-3.8,1.7-9.9,0.3-13.9C158.9,263.6,158.4,264.5,158.1,263.6z
						"/>
					<path fill="#A3907F" d="M197.7,243c0.6,4.1-5.9,10.2-1.3,14.1C197.3,254,198.7,247.5,197.7,243z"/>
					<path fill="#A3907F" d="M92.1,295c-0.2,2.3,1.1,7.1,3.9,7c0.1-1.9,0.3-5.7-1.5-6.9c-2.6-1.8-3.5,1.8-1.1,2.3"/>
					<path fill="#A3907F" d="M101.1,301.6c-0.1,1.4-1,5.3,1.6,5.3c2.9,0,0.1-3.9-1.2-4.3"/>
					<path fill="#A3907F" d="M124.7,92.6c0,1.6-4.8,8.6-5.9,11.2c-1.3,3-2.5,9.9-6.3,10.7c-2.2-3.9,3.1-8.5,4.9-11.4
						C118.9,100.7,121.3,93.1,124.7,92.6z"/>
					<path fill="#A3907F" d="M114.7,121c-3.6,4.5-4.2,15.3-10.7,17.6c-4.2,1.5-2.9-2.8-1.4-4.9c1.9-2.7,4.2-5.2,6-8
						c1.3-2,2.8-5.3,5.8-4.6C114.7,121.9,114.2,121.9,114.7,121z"/>
					<path fill="#A3907F" d="M131.1,98.3c2,6.1,1.3,14.1,0.3,20.2c-0.4,2.6-1.1,12.5-3.6,13.8c-4.2,2.2-2.3-8.1-2.4-10
						c-0.1-2.1-1.2-4.4-1-6.3c0.2-2.4,1.3-2.4,2.3-4.3c2.2-4.1-0.3-9.1,3.1-13C130.2,98.8,130.4,99.1,131.1,98.3z"/>
					<path fill="#A3907F" d="M143.1,101.3c-1.3,3.3-0.2,11.7,0.3,15.4c0.6,4.2,1.5,8.7,1.4,13c-0.1,1.8-0.3,4.9-3,4.3
						c-2.4-0.5-1.5-3.6-1.7-5.3c-0.6-4.3-1.3-8.1-1.3-12.7C138.7,111.5,138.3,105.1,143.1,101.3z"/>
					<path fill="#A3907F" d="M150.4,111c-0.2,2.4,0.6,4.7,0.9,7c0.3,2.3,0.3,5.2-2,2.3c-1.2-1.5-1.4-5-1.3-6.8
						c0.2-2.5,2.6-4.6,2.3-1.2"/>
				</g>
				<g opacity="0.7">
					<g>
						<path fill="#6A5C50" d="M71.5,193.3c-0.3,1.3-0.3,2.5,0,3.8c0.3,1.2,0.9,2.3,1.8,3.2c0.9,0.9,1.9,1.4,3.1,1.6
							c1.2,0.2,2.4,0.2,3.4-0.2c1.1-0.4,2-1.1,2.8-2c0.8-0.9,1.5-1.9,2-3.1c0.6-1.1,0.9-2.3,1.3-3.5c0.4-1.2,0.6-2.5,0.9-3.7
							c0.3-1.3,0.5-2.6,0.8-3.8c0.3-1.3,0.6-2.6,1-3.8c0.4-1.3,0.9-2.5,1.5-3.7c0.6-1.2,1.3-2.3,2.1-3.4c0.8-1.1,1.7-2.1,2.5-3.1
							c0.9-1,1.7-2,2.6-2.9c0.9-0.9,1.9-1.8,3-2.6c1.1-0.7,2.4-1.3,3.8-1.4l0.3,0l0.1,0.3c0.5,1.4,1,2.8,1.3,4.2
							c0.4,1.4,0.5,2.9,0.6,4.4c0.1,1.5,0.1,3-0.1,4.5c-0.1,1.5-0.3,2.9-0.5,4.4c-0.5,2.9-1.1,5.7-1.7,8.6c-0.1,0.7-0.3,1.4-0.4,2.1
							c-0.1,0.7-0.1,1.4-0.1,2.1c0,1.3,0.1,2.8,0.6,3.7c0.3,0.4,0.5,0.6,0.8,0.6c0.4,0,1-0.2,1.5-0.5c0.5-0.3,0.7-0.6,1-1.2
							c0.3-0.5,0.4-1.2,0.6-1.8c0.3-1.3,0.4-2.7,0.4-4.2l0.1-2.2c0-0.8,0.1-1.4,0.1-2.1c0-2.9,0-5.8,0.3-8.8
							c0.2-1.5,0.5-2.9,1.1-4.3c0.3-0.7,0.7-1.3,1.3-1.9c0.6-0.5,1.3-0.8,2.1-0.8l0,0.2c-1.4,0.2-2.4,1.5-2.8,2.8
							c-0.4,1.3-0.6,2.7-0.7,4.2c-0.2,2.9,0.1,5.7,0.3,8.6c0,0.7,0,1.5,0,2.2l0,2.2c0,1.5,0,3-0.3,4.5c-0.1,0.8-0.3,1.6-0.7,2.3
							c-0.1,0.2-0.2,0.4-0.3,0.6c-0.1,0.2-0.2,0.4-0.4,0.6c-0.2,0.2-0.4,0.4-0.5,0.5l-0.2,0.2l-0.1,0.1l-0.1,0.1l0,0l-0.1,0
							c-0.7,0.4-1.5,0.8-2.6,0.8c-0.5,0-1.1-0.2-1.6-0.5c-0.5-0.3-0.8-0.7-1.1-1.2c-0.5-0.8-0.6-1.7-0.7-2.5
							c-0.1-0.8-0.1-1.6-0.1-2.3c0-0.8,0.1-1.5,0.2-2.3c0.1-0.8,0.3-1.5,0.4-2.2c0.7-2.8,1.4-5.7,1.9-8.5c0.3-1.4,0.5-2.8,0.7-4.2
							c0.2-1.4,0.2-2.8,0.3-4.2c0-1.4-0.1-2.8-0.3-4.2c-0.2-1.4-0.6-2.8-1-4.1l0.5,0.3c-1.2,0.1-2.4,0.5-3.5,1.2
							c-1.1,0.7-2.1,1.5-3,2.4c-0.9,0.9-1.8,1.9-2.6,2.9c-0.8,1-1.7,2-2.4,3.1c-1.5,2.1-2.4,4.5-3,7c-0.6,2.5-0.9,5-1.3,7.6
							c-0.2,1.3-0.5,2.6-0.8,3.9c-0.3,1.3-0.9,2.6-1.5,3.8c-0.6,1.2-1.4,2.4-2.4,3.4c-1,1-2.2,1.9-3.6,2.3c-1.4,0.5-2.9,0.4-4.3,0.1
							c-1.3-0.3-2.7-1.1-3.6-2.2c-0.9-1.1-1.5-2.4-1.7-3.7c-0.2-1.3,0-2.8,0.5-3.9L71.5,193.3z"/>
					</g>
					<g>
						<path fill="#6A5C50" d="M110.4,184.3c0-2.2,0.7-4.4,1.7-6.3c1-2,2.3-3.8,3.8-5.4c1.5-1.6,3.2-3.1,5.4-4.1
							c0.3-0.1,0.5-0.2,0.8-0.3c0.3-0.1,0.6-0.2,0.9-0.2c0.6-0.1,1.4,0,2.1,0.5c0.7,0.5,1,1.1,1.2,1.7c0.2,0.6,0.3,1.2,0.4,1.7
							c0.3,2.2,0.6,4.3,0.8,6.6c0.1,1.1,0.1,2.3,0,3.4c0,0.3,0,0.6-0.1,0.9l0,0.2l0,0.2c0,0.1,0,0.3-0.1,0.4
							c-0.1,0.6-0.3,1.1-0.4,1.7c-0.6,2.1-1.3,4.2-1.8,6.2c-0.2,1-0.5,2.1-0.6,3.1c-0.1,1-0.1,2,0.1,2.8c0.2,0.8,0.5,1.1,1.2,1.2
							c0.2,0,0.4,0.1,0.5,0l0.4,0c0.1,0,0.1,0,0.2-0.1c0.3,0,0.6-0.2,0.9-0.4c1.3-0.9,2.2-2.8,2.8-4.8c0.7-2,1.1-4,1.4-6.1
							c0.4-2.1,0.6-4.3,0.8-6.4c0.1-1.1,0.3-2.3,0.4-3.3c0.1-1,0.2-2.1,0.3-3.2c0.2-2.2,0.4-4.4,0.8-6.7c0.4-2.2,0.9-4.5,2.2-6.7
							c0.7-1.1,1.6-2.2,2.9-2.8c1.3-0.7,2.8-0.8,4.1-0.6l0.8,0.1l0.3,0.7c0.6,1.5,0.7,3,0.7,4.3c0,1.3,0,2.6,0.1,3.7
							c0.1,1.1,0.4,2.2,1,2.8l0.1,0.1l0.1,0.1l0,0c-0.2-0.1,0,0-0.1-0.1l0,0l0,0l0.4,0.3c0.1,0.1,0.2,0.1,0.3,0.2
							c0.1,0,0.1,0.1,0.2,0.1c0.4,0.2,0.8,0.2,1.2,0.1c0.9-0.1,1.9-0.7,2.7-1.4c0.8-0.8,1.5-1.7,1.9-2.7c0.1-0.4,0.3-1.1,0.4-1.7
							c0.1-0.6,0.2-1.2,0.3-1.9c0.1-1.3,0.3-2.5,0.4-3.8c0.2-1.3,0.4-2.6,0.7-3.9c0.3-1.3,0.7-2.6,1.4-3.8c0.3-0.6,0.8-1.2,1.3-1.7
							c0.6-0.5,1.3-0.9,2-1c0.7-0.2,1.5-0.1,2.2,0l0.5,0.1c0.2,0.1,0.3,0.1,0.5,0.2c0.4,0.2,0.7,0.4,1,0.6c1.2,1.1,1.4,2.4,1.9,3.6
							c0.5,1.2,0.9,2.4,1.4,3.6c0.5,1.1,1.3,2.1,2.3,2.9c1,0.8,2.1,1.5,3.2,2.1c-1.2-0.6-2.3-1.1-3.4-1.8c-1.1-0.7-2-1.7-2.6-2.9
							c-0.6-1.2-1.1-2.3-1.7-3.5c-0.5-1.2-1-2.4-1.8-3.1c-0.2-0.2-0.5-0.3-0.6-0.3c-0.1,0-0.3-0.1-0.4-0.1l-0.4-0.1
							c-0.6-0.1-1.1-0.1-1.6,0.1c-1,0.3-1.8,1.1-2.3,2.2c-0.5,1.1-0.8,2.2-1,3.5c-0.2,1.2-0.4,2.5-0.5,3.7l-0.3,3.8
							c-0.1,0.6-0.1,1.3-0.2,2c-0.1,0.7-0.2,1.3-0.4,2.1c-0.5,1.4-1.3,2.6-2.3,3.7c-1,1-2.3,1.9-4,2.2c-0.8,0.1-1.7,0.1-2.5-0.2
							c-0.2-0.1-0.4-0.2-0.6-0.3c-0.2-0.1-0.4-0.3-0.5-0.3l-0.4-0.3l0,0l0,0l-0.1-0.1l0,0l-0.1-0.1l-0.2-0.2
							c-1.2-1.3-1.5-2.9-1.7-4.3c-0.2-1.4-0.1-2.7-0.2-4c0-1.2-0.2-2.4-0.6-3.2l1.1,0.8c-0.9-0.1-1.6,0-2.3,0.3
							c-0.7,0.3-1.2,1-1.7,1.8c-0.9,1.6-1.5,3.6-1.8,5.7c-0.4,2.1-0.5,4.2-0.7,6.4c-0.1,1.1-0.1,2.2-0.3,3.3
							c-0.1,1.2-0.3,2.1-0.4,3.3c-0.3,2.2-0.5,4.4-0.9,6.6c-0.4,2.2-0.9,4.4-1.6,6.6c-0.4,1.1-0.8,2.2-1.4,3.2
							c-0.6,1-1.4,2.1-2.6,2.9c-0.6,0.4-1.2,0.7-2.1,0.8c-0.2,0-0.4,0.1-0.6,0.1l-0.4,0c-0.5,0-0.7-0.1-1.1-0.1
							c-0.7-0.2-1.5-0.6-2.1-1.2c-0.6-0.6-0.9-1.4-1-2c-0.3-1.4-0.2-2.6-0.1-3.7c0.2-1.2,0.4-2.3,0.7-3.4c0.6-2.2,1.4-4.2,2.1-6.3
							c0.4-1.1,0.6-1.9,0.7-2.9c0.1-1,0.1-2.1,0.1-3.1c-0.1-2.1-0.3-4.3-0.5-6.4c-0.1-1-0.4-2.1-0.8-2.4c-0.2-0.2-0.6-0.3-1-0.2
							c-0.2,0-0.4,0.1-0.7,0.1c-0.2,0.1-0.6,0.2-0.7,0.2c-1.9,0.7-3.7,2-5.2,3.5c-1.5,1.5-2.9,3.2-4,5
							C111.4,180.1,110.5,182.1,110.4,184.3z"/>
					</g>
					<g>
						<path fill="#6A5C50" d="M176.9,158.3c0,0,0.1-0.2,0.4-0.7c0.2-0.4,0.6-1.1,0.9-2c0.7-1.7,1.6-4.5,1.3-7.9
							c-0.1-1.7-0.5-3.6-1.2-5.6c-0.2-0.6-0.3-1-0.4-1.7c0-0.3-0.1-0.6-0.1-1c0-0.3,0-0.7,0-1c0.1-1.3,0.5-2.7,1.3-3.9
							c0.8-1.2,2-2.1,3.2-2.8c1.3-0.7,2.7-1.2,4.1-1.5c0.7-0.2,1.5-0.3,2.2-0.4c0.4,0,0.7-0.1,1.2-0.1c0.4,0,0.7,0,1.1,0
							c1.6,0,3.3,0.2,4.9,1c1.6,0.7,3.1,2,4,3.5c1,1.5,1.5,3.2,1.9,5c0.4,1.7,0.6,3.4,0.6,5.3c0,1.7,0,3.4,0.5,4.5
							c0.3,0.5,0.6,0.9,1.2,1.1c0,0,0.9,0.3,0.9,0.2c0.1,0,0.2,0,0.3,0c0.1,0,0.2,0,0.3-0.1c0.4-0.2,0.9-0.7,1.3-1.4
							c0.4-0.7,0.6-1.5,0.8-2.3c0.8-3.4,0.6-7.2,1-11.1c0.2-1.9,0.6-4,1.6-5.8c0.4-0.9,1.1-1.8,1.9-2.5c0.4-0.3,0.8-0.7,1.3-0.9
							c0.5-0.2,0.9-0.6,1.4-0.7c1-0.4,2-0.6,3-0.8c1-0.2,2-0.3,3-0.5c2-0.3,3.9-0.6,5.9-1.1c1.9-0.5,3.9-1.1,5.5-2.1
							c1.7-1,3.1-2.4,3.4-4.3c0.3-1.8-0.4-3.8-1.3-5.5c-0.9-1.8-2-3.4-3.3-5c-2.6-3.1-5.7-5.7-8.7-8.5c-3-2.9-5.9-6-7.5-10.1
							c-0.8-2-1.2-4.4-0.8-6.6c0.1-0.6,0.2-1.1,0.4-1.7l0.3-0.8l0-0.1c0-0.1,0,0,0.1-0.2l0.1-0.2l0.2-0.3c0.1-0.2,0.2-0.4,0.4-0.7
							L216,76c0.2-0.3,0.4-0.5,0.6-0.7c0.2-0.2,0.4-0.5,0.6-0.6c1.8-1.6,4.5-2.3,6.7-1.8c1.1,0.2,2.2,0.6,3.2,1.2
							c1,0.6,1.8,1.2,2.6,2c0.4,0.4,0.7,0.7,1.1,1.3c0.3,0.5,0.5,0.9,0.8,1.4c0.4,0.9,0.9,1.7,1.3,2.5c0.4,0.8,0.8,1.6,1.3,2.3
							c0.4,0.7,1,1.3,1.3,1.4c0.2,0.1,0.2,0.1,0.3,0.1c0,0,0,0,0,0c-0.4,0.2-0.1,0-0.1,0l0.1,0l0.3-0.1c0.2-0.1,0-0.1,0-0.1
							c0,0,0,0,0,0c0.2-0.2,0.4-0.8,0.4-1.5c0-1.5-0.4-3.1-0.9-4.6c-1.1-2.9-3.5-5.2-6-6.9c-2.6-1.7-5.5-2.6-8.3-2.7
							c-5.8-0.4-10.4,3.3-15.2,5.1c-2.5,0.9-4.8,1.4-7,1.7c-2.2,0.3-4.2,0.4-6,0.4c-1.8,0-3.4,0-4.8-0.1c-1.4-0.1-2.5,0-3.5-0.1
							c-1,0-1.7-0.2-2.2-0.4c-0.5-0.2-0.7-0.4-0.7-0.4l0.2-0.3c0,0,0.2,0.1,0.7,0.3c0.5,0.1,1.2,0.2,2.1,0.2
							c1.9-0.2,4.8-0.2,8.3-0.5c3.5-0.3,7.9-0.8,12.3-2.7c2.2-1,4.4-2.4,7-3.7c1.3-0.6,2.7-1.2,4.2-1.6c1.5-0.4,3.2-0.6,4.8-0.6
							c3.3,0,6.8,1,9.8,2.8c1.5,0.9,3,2.1,4.2,3.4c0.3,0.3,0.6,0.7,0.9,1.1c0.3,0.4,0.6,0.8,0.9,1.2l0.4,0.5l0.2,0.3l0.2,0.4
							c0.3,0.5,0.4,0.9,0.6,1.4c0.7,1.8,1.2,3.6,1.2,5.8c0,1.1-0.2,2.3-1.2,3.6c-0.2,0.2-0.3,0.3-0.5,0.5c-0.2,0.1-0.5,0.3-0.5,0.3
							l-0.3,0.1l-0.1,0c-0.1,0,0.2-0.1-0.3,0.1l-0.3,0.1c-0.8,0.2-1.8,0-2.4-0.3c-1.3-0.7-2-1.6-2.6-2.5c-0.6-0.9-1.1-1.7-1.5-2.6
							c-0.4-0.8-0.8-1.7-1.2-2.6c-0.2-0.4-0.4-0.8-0.6-1.1c-0.1-0.2-0.4-0.6-0.7-0.9c-0.6-0.6-1.2-1.1-1.9-1.6
							c-0.7-0.4-1.5-0.7-2.2-0.9c-1.5-0.4-3.1,0-4.2,1c-0.2,0.1-0.3,0.3-0.4,0.4c-0.1,0.1-0.3,0.3-0.4,0.4l-0.3,0.5
							c-0.1,0.2-0.2,0.4-0.4,0.6l-0.2,0.3l-0.1,0.2c0.1-0.1,0,0,0,0l0,0.1l-0.2,0.6c-0.2,0.4-0.2,0.8-0.3,1.2
							c-0.4,1.7-0.1,3.5,0.5,5.2c1.3,3.5,3.9,6.6,6.6,9.5c2.8,2.9,5.9,5.7,8.4,9.1c1.3,1.7,2.4,3.5,3.2,5.4c0.9,1.9,1.6,4.1,1.2,6.3
							c-0.2,1.1-0.7,2.1-1.5,3c-0.7,0.8-1.6,1.5-2.5,2c-1.8,1-3.8,1.6-5.8,2.1c-2,0.5-4,0.8-5.9,1.2c-1,0.2-2,0.3-2.9,0.5
							c-0.9,0.2-1.9,0.5-2.7,0.9c-0.5,0.1-0.8,0.5-1.2,0.7c-0.4,0.2-0.7,0.6-1.1,0.9c-0.6,0.7-1.2,1.4-1.5,2.2
							c-0.7,1.7-1,3.5-1.1,5.4c-0.2,3.8,0.2,7.6-0.5,11.4c-0.2,1-0.4,1.9-0.9,2.9c-0.4,0.9-1.1,2-2.3,2.6c-0.3,0.2-0.6,0.3-0.9,0.3
							c-0.3,0.1-0.7,0.1-1,0.1l-0.5,0c-0.1,0-0.2,0-0.3-0.1l-0.3-0.1l-0.2,0c0.1,0-0.2-0.1-0.2-0.1l-0.1,0c-1.1-0.4-2.2-1.3-2.7-2.4
							c-0.5-1-0.7-2.1-0.8-3c-0.1-0.9-0.1-1.8-0.1-2.7c0-1.6-0.2-3.2-0.5-4.7c-0.3-1.5-0.8-2.9-1.5-4.1c-0.7-1.2-1.7-2.1-2.9-2.6
							c-1.2-0.6-2.5-0.8-3.8-0.9c-0.4,0-0.7,0-1.1,0c-0.3,0-0.7,0-1,0.1c-0.7,0.1-1.3,0.1-2,0.3c-2.5,0.5-4.9,1.6-6.2,3.3
							c-0.7,0.8-1,1.8-1.1,2.8c0,0.3-0.1,0.5,0,0.8c0,0.2,0,0.5,0,0.7c0,0.5,0.2,1.1,0.3,1.5c0.6,2.1,0.9,4.2,0.9,6.1
							c-0.1,3.7-1.2,6.5-2,8.2c-0.5,0.9-0.9,1.5-1.1,1.9c-0.3,0.4-0.4,0.6-0.4,0.6L176.9,158.3z"/>
					</g>
					<g>
						<path fill="#6A5C50" d="M189.5,82.6c0.5,0.4,1,0.5,1.6,0.6c0.6,0.1,1.1,0.2,1.7,0.3c1.2,0.1,2.3,0.2,3.5,0.2
							c1.2,0.1,2.3,0.1,3.5,0.4c1.2,0.3,2.2,0.6,3.4,1c1.1,0.4,2.2,0.8,3.3,1.4c1.1,0.6,2,1.4,2.8,2.3c0.8,1,1.3,2.1,1.7,3.3
							c0.4,1.2,0.6,2.4,0.6,3.6c0,1.2-0.3,2.6-1.2,3.7c-0.2,0.3-0.5,0.5-0.8,0.7c-0.3,0.2-0.6,0.3-1,0.4c-0.3,0.1-0.7,0.1-1,0.2
							c-0.3,0-0.6,0-0.9,0c-1.2,0-2.4-0.1-3.6-0.3c-1.2-0.2-2.4-0.5-3.5-1c-0.6-0.2-1.1-0.5-1.7-0.8c-0.6-0.3-1.1-0.7-1.5-1
							c-1-0.7-1.9-1.4-2.9-2.1c-1.9-1.4-3.7-2.9-5.5-4.4l1.3-1.4c1.6,1.5,3.4,3,4.8,4.9c0.4,0.5,0.7,1,1,1.5
							c0.3,0.6,0.6,1.2,0.7,1.9c0.1,0.7-0.1,1.6-0.5,2.3c-0.2,0.3-0.5,0.6-0.8,0.8l-0.2,0.2l-0.1,0l0,0l0,0l-0.2,0.1l-0.1,0
							l-0.4,0.2c-0.9,0.2-1.5,0.2-2.1,0.1c-0.6,0-1.2-0.2-1.8-0.3c-1.2-0.2-2.3-0.5-3.4-0.9c-1.1-0.3-2.2-0.7-3.2-1.1
							c-0.5-0.2-1.1-0.4-1.6-0.7c-0.5-0.2-1.1-0.5-1.6-0.8l1.2-1.6c3.6,3.1,7.2,6.4,10.5,10c0.8,0.9,1.6,1.8,2.4,2.8
							c0.4,0.5,0.8,1,1.1,1.5c0.4,0.5,0.7,1,1,1.5c0.7,1,1.2,2.1,1.7,3.3c0.1,0.3,0.2,0.6,0.3,0.9c0.1,0.3,0.2,0.5,0.3,1
							c0,0.2,0.1,0.3,0.1,0.5c0,0.2,0,0.4,0,0.6c0,0.3-0.1,0.7-0.1,1c-0.3,1.3-0.9,2.5-1.6,3.5c-0.8,1-1.7,2-3,2.5
							c-0.2,0.1-0.3,0.1-0.5,0.2l-0.4,0.1c-0.4,0-0.8,0-1.1-0.1c-0.7-0.1-1.3-0.4-1.8-0.8c-1.1-0.7-2-1.5-2.8-2.5
							c-0.8-0.9-1.6-1.9-2.3-2.9c-0.7-1-1.3-2-1.9-3.1c-1.2-2.1-2.2-4.2-3.7-6.1l0.1,0c-0.1,0.1-0.3,0-0.3,0
							c-0.1-0.1-0.2-0.1-0.2-0.2c-0.1-0.2-0.2-0.4-0.2-0.6c0-0.4,0.4-0.7,0.7-0.8c-0.3,0.1-0.7,0.4-0.7,0.8c0,0.2,0.1,0.3,0.2,0.5
							c0.1,0.1,0.3,0.3,0.4,0.2l0.1,0l0,0.1c1.6,1.8,2.8,3.9,4.1,5.9c0.6,1,1.3,2,2,2.9c0.7,0.9,1.5,1.8,2.3,2.7
							c0.8,0.8,1.7,1.6,2.7,2.2c0.5,0.3,1,0.5,1.5,0.6c0.3,0.1,0.4,0,0.7,0l0.4-0.1c0,0,0.2-0.1,0.3-0.1c0.9-0.4,1.7-1.2,2.4-2.1
							c0.6-0.9,1.1-2,1.3-3c0.1-0.3,0.1-0.5,0.1-0.8c0-0.2,0-0.4-0.1-0.7c0-0.2-0.2-0.5-0.3-0.7c-0.1-0.3-0.2-0.5-0.3-0.8
							c-0.5-1-1-2.1-1.7-3c-0.3-0.5-0.6-1-1-1.4c-0.3-0.5-0.7-0.9-1.1-1.4c-0.7-0.9-1.5-1.8-2.3-2.7c-3.2-3.5-6.9-6.5-10.5-9.7
							l1.2-1.6c0.4,0.2,0.9,0.5,1.4,0.7c0.5,0.2,1,0.4,1.5,0.6c1,0.4,2.1,0.8,3.1,1.1c1.1,0.3,2.1,0.6,3.2,0.8
							c0.5,0.1,1.1,0.2,1.6,0.2c0.5,0.1,1,0,1.2,0c0.1,0,0.3-0.1,0.4-0.2l0.1,0l0,0c-0.3,0.1-0.1,0-0.1,0.1l0,0l0,0l0,0l0.1-0.1
							c0.2-0.1,0.3-0.3,0.4-0.4c0.2-0.3,0.2-0.5,0.2-0.9c-0.1-0.8-0.6-1.7-1.3-2.5c-0.6-0.8-1.4-1.6-2.2-2.4
							c-0.8-0.8-1.6-1.5-2.4-2.3l1.3-1.4c1.8,1.5,3.5,3,5.4,4.4c0.9,0.7,1.8,1.4,2.8,2.1c0.5,0.3,0.9,0.7,1.4,0.9
							c0.5,0.3,1,0.5,1.5,0.7c2,0.8,4.3,1.3,6.5,1.3c0.3,0,0.6,0,0.9,0l0.7-0.1c0.2-0.1,0.4-0.2,0.6-0.3c0.2-0.2,0.4-0.2,0.5-0.4
							c0.6-0.7,0.9-1.7,0.9-2.8c0-1.1-0.1-2.2-0.4-3.2c-0.3-1.1-0.8-2.1-1.4-2.9c-1.4-1.8-3.4-2.9-5.5-3.6c-1.1-0.4-2.2-0.8-3.3-1.1
							c-1.1-0.3-2.3-0.4-3.4-0.5c-1.2-0.1-2.3-0.2-3.5-0.4c-0.6-0.1-1.2-0.2-1.7-0.4C190.5,83.2,189.9,83,189.5,82.6z"/>
					</g>
					<path fill="none" stroke="#6A5C50" stroke-miterlimit="10" d="M118.7,87.6c-2.8,1.8-4.9,4.6-7.7,6.5c-2.5,1.7-4,4.1-6.2,6.1
						c-3.4,3.1-10.3,7.7-9.3,13c2.4-0.2,4.1-2.9,4.2,0.8c0.1,2.4-1.7,6.4-2.5,8.6"/>
					<g>
						<path fill="#6A5C50" d="M121.1,89c-0.9,0.5-1.7,1.1-2.3,1.8c-0.7,0.7-1.3,1.5-1.9,2.3l-1.8,2.4c-0.3,0.4-0.6,0.8-0.9,1.2
							c-0.3,0.4-0.7,0.8-1,1.1c-0.7,0.7-1.5,1.4-2.2,2.1c-0.7,0.7-1.5,1.3-2.2,2c-0.4,0.3-0.7,0.7-1,1c-0.3,0.4-0.7,0.7-1,1.1
							c-0.3,0.4-0.6,0.8-0.8,1.1c-0.2,0.4-0.3,0.8-0.4,1.1l-0.5-0.6c0.6,0.2,1.2,0.6,1.5,1.2c0.3,0.6,0.3,1.2,0.3,1.7
							c0,1.1-0.3,2.1-0.6,3c-0.6,1.9-1.4,3.6-2.3,5.4c-0.8,1.7-1.8,3.4-2.6,5l-2.5,5.1c-0.8,1.7-1.6,3.4-2.4,5.1
							c-0.7,1.7-1.4,3.5-2,5.2c-0.3,0.8-0.4,1.7-0.5,2.5c0,0.9,0,1.8,0,2.8c0,0.5,0,0.9,0,1.5c0,0.3,0,0.4-0.1,0.7
							c0,0.3-0.1,0.6-0.2,0.8c-0.3,1.1-0.8,2-1.3,2.9c-1.2,1.7-2.5,3-3.3,4.5c-0.4,0.7-0.7,1.5-0.7,2.3c0,0.8,0.2,1.7,0.3,2.6
							c0.1,0.5,0.1,1,0.2,1.5c0,0.3,0,0.5,0,0.8c0,0.2,0,0.5,0,0.7c-0.1,0.6-0.2,1.2-0.4,1.7c-0.3,0.5-0.7,1-1.1,1.4
							c-0.8,0.7-1.7,1.1-2.3,1.7c-0.7,0.5-1.2,1.1-1.6,1.9c-0.8,1.5-1.2,3.4-1.7,5.2c-0.3,0.9-0.5,1.8-0.8,2.8
							c-0.3,0.9-0.7,1.8-0.9,2.7c-0.5,1.8-1,3.6-1.3,5.5c-0.3,1.9-0.5,3.7-0.3,5.6l-0.2-0.2l1.2,0l-0.2,0.1c0.4-0.9,0.6-1.9,0.8-2.9
							c0.1-0.5,0.3-1,0.5-1.5c0.1-0.2,0.2-0.5,0.4-0.7c0.2-0.2,0.4-0.4,0.6-0.5c-0.2,0.2-0.4,0.3-0.5,0.6c-0.1,0.2-0.3,0.4-0.3,0.7
							c-0.2,0.5-0.3,1-0.4,1.5c-0.2,1-0.3,2-0.6,3l0,0.1l-0.1,0l-1.3,0.1l-0.2,0l0-0.2c-0.3-1.9-0.2-3.9,0-5.8
							c0.2-1.9,0.5-3.8,1-5.7c0.2-0.9,0.6-1.9,0.8-2.8c0.3-0.9,0.5-1.8,0.7-2.7c0.5-1.8,0.8-3.7,1.7-5.6c0.4-0.9,1.1-1.8,1.9-2.5
							c0.8-0.7,1.7-1.2,2.2-1.7c0.6-0.5,0.8-1.2,0.9-1.9c0-0.2,0-0.5,0-0.7l0-0.6c0-0.4-0.1-0.9-0.2-1.3c-0.1-0.9-0.4-1.9-0.4-3
							c0-1.1,0.4-2.2,0.9-3.1c1-1.8,2.4-3.2,3.4-4.7c0.5-0.7,0.9-1.5,1-2.3c0.1-0.2,0.1-0.4,0.1-0.6c0-0.2,0-0.5,0.1-0.7
							c0-0.4,0-0.9,0-1.3c0-0.9-0.1-1.9,0-2.9c0-1,0.3-2.1,0.6-3.1c0.6-1.8,1.4-3.6,2.1-5.4c0.8-1.8,1.6-3.5,2.4-5.2l2.6-5.1
							c0.9-1.7,1.9-3.3,2.7-5c0.9-1.7,1.7-3.3,2.3-5.1c0.3-0.9,0.5-1.7,0.6-2.6c0-0.4,0-0.8-0.1-1.1c-0.1-0.3-0.3-0.4-0.6-0.5
							l-0.5-0.2l0-0.4c0.1-0.7,0.3-1.3,0.6-1.7c0.3-0.5,0.6-0.9,1-1.3c0.3-0.4,0.7-0.8,1.1-1.1c0.4-0.4,0.7-0.7,1.1-1
							c0.8-0.7,1.5-1.3,2.3-1.9c0.8-0.6,1.6-1.3,2.3-1.9c0.4-0.3,0.7-0.7,1-1c0.3-0.4,0.7-0.7,1-1.1l1.9-2.3
							C117.8,91.3,119.2,89.8,121.1,89z"/>
					</g>
					<g>
						<path fill="#6A5C50" d="M90.1,168c0.6,0,1.1-0.5,1.4-1c0.4-0.5,0.6-1,0.9-1.6c0.5-1.1,0.9-2.2,1.3-3.4
							c0.4-1.1,0.8-2.3,1.4-3.4c0.2-0.3,0.3-0.6,0.5-0.8c0.1-0.1,0.2-0.3,0.4-0.4c0.2-0.2,0.3-0.2,0.4-0.3l0.4-0.3
							c0.1-0.1,0.3-0.2,0.5-0.2c0.3-0.2,0.6-0.3,0.9-0.4c1.3-0.4,2.6-0.3,3.7-0.5c0.5-0.1,1-0.3,1.4-0.6c0.2-0.2,0.4-0.3,0.5-0.5
							c0.1-0.2,0.3-0.4,0.4-0.7c0.5-1,0.8-2.1,1-3.3c0.2-1.2,0.3-2.4,0.6-3.6c0.2-1.3,0.7-2.5,1.4-3.6c0.7-1.1,1.4-2.1,2.2-3.1
							c0.8-1,1.5-1.9,2.1-2.9c0.6-1,1-2,1.3-3.1c0.1-0.5,0.2-1.1,0.3-1.7l0.2-1.8c0.1-1.2,0.3-2.5,0.7-3.7c0.3-1.2,0.8-2.5,1.6-3.6
							c0.8-1.1,1.9-2.1,3.1-2.7l1.7-0.9l-0.3,1.9c-0.5,3.3-0.6,6.7-0.7,10.1c-0.1,3.4-0.1,6.8-0.3,10.3l-0.1,1.3
							c0,0.2,0,0.4-0.1,0.7l-0.1,0.6c0,0.4-0.2,0.9-0.3,1.3c-0.1,0.4-0.3,0.8-0.4,1.3c-0.6,1.6-1.3,3.2-1.9,4.8
							c-0.3,0.8-0.6,1.6-0.8,2.4c-0.2,0.8-0.4,1.6-0.4,2.4l0,0.6l0.1,0.6c0,0.4,0.2,0.7,0.3,1.1c0.1,0.4,0.4,0.7,0.6,1
							c0.3,0.3,0.5,0.6,0.8,0.9l-0.6,0.1c1-1.7,2-3.3,3-4.9c0.9-1.7,1.8-3.4,2.5-5.1c-0.6,1.8-1.3,3.6-2.1,5.3
							c-0.8,1.7-1.8,3.4-2.6,5.1l-0.2,0.5l-0.4-0.3c-0.3-0.3-0.7-0.6-1-0.9c-0.3-0.4-0.6-0.7-0.8-1.2c-0.2-0.4-0.4-0.9-0.5-1.3
							l-0.1-0.7l0-0.7c0-0.9,0.1-1.8,0.3-2.7c0.2-0.9,0.4-1.7,0.7-2.5c0.6-1.6,1.2-3.2,1.7-4.8c0.1-0.4,0.2-0.8,0.3-1.2
							c0.1-0.4,0.2-0.7,0.2-1.2l0.1-0.6l0-0.6l0.1-1.3c0.1-3.4,0.1-6.8,0.1-10.2c0.1-3.4,0.2-6.9,0.7-10.3l1.4,1
							c-1.9,1-3.1,2.8-3.7,5.1c-0.3,1.1-0.5,2.3-0.6,3.4L115,133c-0.1,0.6-0.2,1.3-0.3,1.9c-0.3,1.3-0.9,2.5-1.6,3.6
							c-0.7,1.1-1.5,2-2.3,3c-0.8,0.9-1.5,1.9-2.1,2.8c-0.6,1-1,2-1.3,3.1c-0.3,1.1-0.4,2.4-0.7,3.6c-0.3,1.2-0.6,2.5-1.3,3.6
							c-0.1,0.3-0.4,0.6-0.6,0.8c-0.2,0.3-0.5,0.5-0.8,0.7c-0.6,0.4-1.3,0.6-2,0.7c-1.3,0.2-2.5,0-3.6,0.3c-0.3,0.1-0.5,0.1-0.8,0.2
							c-0.1,0.1-0.2,0.1-0.4,0.2l-0.4,0.2c-0.1,0.1-0.3,0.2-0.3,0.2c-0.1,0.1-0.2,0.2-0.3,0.3c-0.2,0.2-0.3,0.4-0.5,0.7
							c-0.6,1-1.1,2.1-1.6,3.2c-0.5,1.1-1,2.2-1.6,3.3c-0.3,0.5-0.6,1.1-1,1.5C91.2,167.6,90.7,168,90.1,168z"/>
					</g>
					<g>
						<path fill="#6A5C50" d="M124.7,152.5c0,0.5,0.2,0.9,0.5,1.2c0.3,0.3,0.8,0.4,1.2,0.5c0.9,0.2,1.8,0.1,2.6-0.1
							c0.4-0.1,0.8-0.3,1.1-0.6c0.3-0.3,0.5-0.6,0.6-1c0.3-0.8,0.4-1.7,0.5-2.6c0.1-0.5,0.2-0.9,0.3-1.3l0.2-1.3
							c0.1-0.9,0.2-1.8,0.3-2.7c0.1-1.8,0.3-3.6,0.6-5.4l1,0.1c0,2-0.2,4-0.2,6c0,1,0,2,0.1,3c0.1,0.5,0.1,1,0.2,1.5
							c0.1,0.5,0.2,1,0.3,1.4c0.1,0.5,0.4,0.9,0.6,1.2c0.3,0.3,0.6,0.6,1,0.6c0.4,0,0.8-0.2,1.1-0.5c0.3-0.3,0.6-0.7,0.9-1.1
							c0.5-0.8,0.9-1.8,1.1-2.7c0.1-0.5,0.2-1,0.2-1.5c0-0.5-0.1-1-0.5-1.3c0.5,0.3,0.6,0.8,0.6,1.3c0,0.5,0,1-0.1,1.5
							c-0.1,1-0.4,2-0.9,2.9c-0.2,0.5-0.5,0.9-0.9,1.3c-0.4,0.4-0.9,0.7-1.5,0.7c-0.6,0-1.2-0.4-1.5-0.8c-0.4-0.4-0.7-0.9-0.8-1.4
							c-0.2-0.5-0.3-1-0.4-1.5c-0.1-0.5-0.2-1-0.2-1.5c-0.1-1-0.1-2-0.2-3c0-2,0.1-4,0.1-6l1,0.1c-0.3,1.7-0.5,3.5-0.7,5.3
							c-0.1,0.9-0.2,1.8-0.3,2.7c-0.1,0.9-0.4,1.8-0.6,2.7c-0.2,0.9-0.3,1.8-0.7,2.7c-0.2,0.4-0.4,0.9-0.8,1.2
							c-0.4,0.3-0.9,0.5-1.3,0.6c-0.9,0.2-1.9,0.2-2.8-0.1c-0.4-0.1-0.9-0.3-1.2-0.6C124.8,153.4,124.6,152.9,124.7,152.5z"/>
					</g>
					<g>
						<path fill="#6A5C50" d="M141.4,145.3c0.2,1.3,0.3,2.7,0.8,3.9c0.2,0.6,0.5,1.1,0.9,1.6c0.2,0.2,0.4,0.4,0.7,0.6
							c0.2,0.2,0.5,0.4,0.7,0.5l-1.1,0.2c0.5-1,0.6-2.4,0.6-3.7c0-1.4,0-2.8,0.4-4.3l1.2-5.6l0.7,5.7c0.1,0.5,0.3,1.2,0.6,1.7
							c0.1,0.3,0.3,0.6,0.5,0.8c0.2,0.3,0.4,0.5,0.6,0.7c0.2,0.2,0.4,0.4,0.7,0.5l0.3,0.2c0.1,0,0.2,0.1,0.3,0.1
							c0.2,0,0.4,0,0.7-0.1c0.2,0,0.5-0.2,0.6-0.4l0.2-0.2c0,0,0-0.1,0.1-0.1c0.1-0.1,0.1-0.2,0.2-0.3c0.1-0.3,0.2-0.6,0.3-0.9
							c0.1-0.6,0.2-1.4,0.3-2.1c0.1-1.4,0.1-2.9,0.2-4.4l0,0.1c-0.1-0.1-0.2-0.3-0.2-0.3c-0.1,0.1-0.2,0.3-0.4,0.3
							c0.1,0,0.1-0.1,0.2-0.1c0-0.1,0.1-0.1,0.1-0.2c0-0.1,0.2,0,0.2,0c0.1,0,0.1,0.1,0.1,0.1c0.1,0.1,0.1,0.1,0.2,0.2l0,0l0,0.1
							c0.2,1.4,0.5,2.9,0.6,4.4c0.1,0.8,0.1,1.5,0,2.3c-0.1,0.4-0.1,0.8-0.3,1.2c-0.1,0.2-0.1,0.4-0.3,0.7l-0.2,0.3l-0.2,0.2
							l-0.1,0.1l0,0l-0.1,0.1l0,0l-0.1,0.1l-0.3,0.2c-0.2,0.1-0.4,0.3-0.6,0.4c-0.4,0.2-1,0.3-1.5,0.2c-0.3,0-0.5-0.1-0.7-0.1
							c-0.2-0.1-0.4-0.2-0.7-0.3c-0.4-0.2-0.8-0.5-1.1-0.8c-0.3-0.3-0.6-0.6-0.8-1c-0.2-0.3-0.5-0.7-0.7-1.1
							c-0.2-0.4-0.4-0.8-0.5-1.2c-0.1-0.4-0.2-0.8-0.3-1.3l1.9,0.2c-0.3,1.2-0.3,2.5-0.5,3.9c-0.2,1.4-0.3,2.9-1.2,4.3l-0.5,0.7
							l-0.6-0.5c-0.6-0.5-1.1-1-1.5-1.6c-0.4-0.6-0.7-1.3-0.8-2.1C141,148,141.2,146.6,141.4,145.3z"/>
					</g>
					<g>
						<path fill="#6A5C50" d="M152.1,137.6c0,0,0.1,0.1,0.3,0.4c0.2,0.3,0.5,0.7,0.9,1.1c0.4,0.5,0.9,1,1.5,1.5
							c0.6,0.5,1.4,1.1,2.3,1.3c0.9,0.2,1.6,0,2.1-1l0.2-0.3l0-0.1c0,0,0-0.1,0-0.1l0.1-0.2c0.1-0.3,0.2-0.6,0.2-0.8
							c0.1-0.6,0.2-1.2,0.3-1.8c0.1-1.3,0.1-2.6,0-3.9c-0.1-1.3-0.2-2.7-0.5-4c-0.1-0.3-0.1-0.6-0.2-1c-0.1-0.3-0.2-0.6-0.3-0.9
							c-0.3-0.7-0.5-1.3-0.7-2c-0.5-1.3-1-2.6-1.4-3.8c-0.5-1.2-0.9-2.4-1.3-3.6l-0.1-0.2l0-0.1l0-0.1l-0.1-0.4
							c-0.1-0.3-0.2-0.6-0.2-0.9c-0.1-0.6-0.1-1.2-0.2-1.7c-0.1-2.1-0.2-3.9-0.6-5c-0.2-0.6-0.4-1-0.6-1.3c-0.2-0.3-0.3-0.4-0.3-0.4
							s0.1,0.1,0.4,0.3c0.2,0.2,0.6,0.6,0.9,1.2c0.6,1.1,1,2.9,1.3,5c0.1,0.5,0.2,1,0.3,1.6c0.1,0.3,0.1,0.5,0.2,0.8l0.2,0.4l0,0.1
							c0,0,0,0.1,0,0.1l0.1,0.2c0.5,1.1,1,2.3,1.5,3.5c0.5,1.2,1.1,2.5,1.6,3.8c0.3,0.6,0.5,1.3,0.8,1.9c0.1,0.3,0.3,0.7,0.4,1.1
							c0.1,0.4,0.2,0.7,0.3,1.1c0.6,2.9,0.7,5.8,0.3,8.5c-0.2,1.4-0.5,2.7-1.3,3.9c-0.2,0.3-0.5,0.6-0.7,0.8
							c-0.1,0.1-0.3,0.2-0.5,0.3c-0.2,0.1-0.3,0.2-0.5,0.2c-0.7,0.3-1.5,0.1-2-0.1c-1.1-0.5-1.9-1.2-2.5-1.9c-0.6-0.7-1-1.3-1.3-1.8
							c-0.3-0.5-0.5-1-0.6-1.3C152.2,137.8,152.1,137.6,152.1,137.6z"/>
					</g>
					<g>
						<path fill="#6A5C50" d="M174.4,122.8c0.6,0.1,1.1,0.3,1.5,0.2c0.2-0.1,0.2-0.1,0.2-0.2c0-0.1,0-0.3,0-0.5
							c-0.1-0.4-0.3-0.9-0.4-1.4c-0.2-0.5-0.4-1-0.6-1.5c-0.5-1-0.9-2-1.3-3c-0.4-1-0.7-2.1-1.2-3.1c-0.5-1-1-2-1.7-2.9
							c-0.6-0.9-1.4-1.8-2.1-2.6c-0.7-0.9-1.4-1.7-2-2.6l-1-1.3c-0.3-0.4-0.7-0.8-1-1.1l1.6-1.4c0.3,0.4,0.6,0.7,0.8,1.1l0.7,1.1
							c0.5,0.7,0.9,1.5,1.4,2.3c0.4,0.8,0.9,1.5,1.3,2.3c0.4,0.8,0.8,1.5,1.3,2.3l-0.1,0.1c-0.7-0.5-1.4-1.1-2-1.8
							c-0.6-0.6-1.2-1.3-1.8-2c-0.6-0.7-1.1-1.4-1.6-2.1c-0.5-0.7-1.1-1.4-1.5-2.1l1.6-1.4c0.5,0.5,0.8,0.9,1.1,1.4
							c0.3,0.5,0.6,0.9,0.9,1.4c0.6,1,1.2,1.9,1.7,2.9c0.5,1,1,2,1.5,3c0.5,1,1.1,2,1.7,2.9c0.6,0.9,1.3,1.8,1.9,2.8
							c0.6,0.9,1.2,2,1.5,3c0.2,0.5,0.4,1.1,0.5,1.7c0.1,0.6,0.3,1.2,0.2,1.8c0,0.3-0.1,0.7-0.3,1.1c-0.1,0.2-0.3,0.4-0.5,0.5
							c-0.2,0.1-0.4,0.1-0.6,0.1c-0.7-0.1-1.2-0.5-1.6-0.9L174.4,122.8z"/>
					</g>
					<g>
						<path fill="#6A5C50" d="M95.2,127l0.1,0.8l-0.1,0.8l-0.2,0.8l-0.3,0.8c-0.5,1-1.2,1.9-1.9,2.7c-1.4,1.6-3.1,3-4.5,4.4
							l-0.5,0.5l-0.5,0.6c-0.3,0.4-0.7,0.8-1,1.2c-0.7,0.8-1.4,1.5-2.2,2.3c-0.7,0.8-1.4,1.5-2,2.3c-0.3,0.4-0.6,0.8-0.8,1.3
							c-0.2,0.4-0.4,0.9-0.4,1.4l-0.2-0.4c0.5,0.2,0.9,0.4,1.3,0.6c0.4,0.3,0.8,0.8,0.8,1.4c0,0.6-0.2,1.1-0.5,1.5
							c-0.3,0.4-0.6,0.8-0.9,1.1c-0.7,0.7-1.4,1.3-2.1,1.9l-1.1,0.9c-0.2,0.1-0.4,0.3-0.5,0.4l-0.5,0.5c-0.6,0.6-1,1.4-1,1.9
							c0,0.3,0.1,0.6,0.3,0.9c0.2,0.4,0.4,0.7,0.7,1.2c0.5,0.8,0.9,1.9,0.9,3l0,0.8l0,0l0,0.1l0,0l0,0.1l0,0.2l-0.1,0.3
							c-0.1,0.3-0.2,0.6-0.3,0.9c-0.1,0.2-0.2,0.5-0.4,0.7c-0.6,0.9-1.3,1.6-2.1,2.2c-0.7,0.6-1.4,1.2-2,1.8
							c-0.6,0.6-1.1,1.2-1.4,1.9c-0.1,0.2-0.2,0.3-0.2,0.5l-0.2,0.7c-0.1,0.4-0.2,0.8-0.2,1.2c-0.3,1.7-0.3,3.6-0.3,5.4
							c0,1.8,0,3.7-0.2,5.6h-0.2c-0.1-0.9-0.2-1.8-0.4-2.7c-0.1-0.9-0.3-1.8-0.4-2.8c-0.2-1.8-0.4-3.7-0.3-5.7c0-0.5,0.1-1,0.2-1.5
							l0.1-0.7c0.1-0.3,0.2-0.5,0.3-0.8c0.4-1,1.1-1.9,1.8-2.6c0.7-0.7,1.4-1.3,2.1-1.9c0.7-0.6,1.3-1.2,1.7-1.8
							c0.1-0.2,0.2-0.3,0.3-0.5c0.1-0.1,0.1-0.3,0.2-0.4l0.1-0.6l0-0.6c0-0.8-0.2-1.5-0.6-2.2c-0.2-0.4-0.4-0.8-0.6-1.3
							c-0.2-0.5-0.4-1.1-0.3-1.7c0.2-1.3,1-2.1,1.7-2.7l0.5-0.4c0.2-0.2,0.4-0.3,0.6-0.4l1.2-0.8c0.8-0.5,1.5-1,2.2-1.6
							c0.6-0.6,1.3-1.3,1.3-2.1c0-0.7-1-1.2-1.8-1.4l-0.3-0.1l0-0.3c0.1-1.2,0.5-2.2,1-3.2c0.5-1,1.1-1.9,1.8-2.7
							c0.6-0.9,1.3-1.7,2-2.5c0.3-0.4,0.6-0.8,1-1.2c0.2-0.2,0.4-0.4,0.5-0.6l0.6-0.6c1.6-1.5,3.3-2.7,4.8-4.1
							c0.4-0.3,0.7-0.7,1.1-1.1c0.4-0.4,0.7-0.8,1-1.1l0.4-0.6l0.3-0.7l0.3-0.7L95,127L95.2,127z"/>
					</g>
					<g>
						<path fill="#6A5C50" d="M127.1,80.6c0,0-0.1,0-0.4-0.1c-0.3,0-0.6-0.1-1.1-0.2c-1-0.1-2.4-0.3-4-0.5c-0.8-0.1-1.7-0.2-2.6-0.2
							c-0.4,0-0.9,0.1-1.4,0.1c-0.5,0.1-1.1,0-1.6,0c-1.1,0-2.2-0.2-3.3-0.4c-1.1-0.2-2.2-0.4-3.3-0.6c-1.1-0.2-2.1-0.3-3.3-0.5
							c-1.1-0.2-2.4-0.4-3.5-1.3c-0.5-0.4-0.9-1-1.1-1.6c-0.1-0.3-0.2-0.5-0.3-0.9c0-0.3-0.1-0.5-0.1-0.7c-0.2-1.1,0-2.2,0.4-3
							c0.4-0.9,1-1.5,1.5-1.9c0.5-0.5,1-0.8,1.4-1.1c0.8-0.6,1.3-0.9,1.3-0.9s-0.4,0.4-1,1.2c-0.3,0.4-0.7,0.8-1.1,1.3
							c-0.4,0.5-0.8,1.1-1,1.8c-0.2,0.7-0.2,1.5,0,2.3c0,0.2,0.1,0.5,0.2,0.7c0.1,0.1,0.1,0.4,0.2,0.5c0.2,0.4,0.4,0.7,0.7,0.9
							c0.6,0.5,1.5,0.6,2.6,0.8c0.5,0.1,1.1,0.1,1.6,0.2l0.9,0.1c0.3,0,0.6,0.1,0.8,0.1c1.1,0.2,2.2,0.5,3.3,0.7
							c1.1,0.2,2.1,0.4,3.1,0.5c0.5,0,1,0.1,1.5,0.1c0.5,0,1,0,1.5,0c1,0.1,1.9,0.3,2.8,0.5c1.6,0.4,3,0.9,3.9,1.3
							c0.5,0.2,0.8,0.3,1.1,0.4C126.9,80.5,127.1,80.6,127.1,80.6z"/>
					</g>
					<g>
						<path fill="#6A5C50" d="M182.6,22.5c0,0-0.1,0.1-0.3,0.2c-0.2,0.1-0.5,0.3-0.7,0.7c-0.2,0.3-0.4,0.8-0.3,1.2
							c0.2,0.6,0.4,0.6,1.1,0.6c0.3,0,0.7-0.1,1.1-0.1c0.4,0,0.8-0.1,1.2-0.1c0.8-0.1,1.7-0.2,2.6-0.3c0.9-0.1,1.7-0.3,2.5-0.6
							c0.8-0.3,1.7-0.8,2.3-1.3c0.3-0.2,0.6-0.5,0.8-0.8c0.2-0.3,0.2-0.4,0.2-0.6l0,0l0,0l0,0c0,0.1-0.1-0.1,0.1,0.1l0,0l-0.1-0.2
							l0-0.1c0,0,0,0,0,0c0,0,0,0,0,0c0,0-0.2-0.1-0.3-0.2c-0.3-0.1-0.7-0.2-1.1-0.3c-0.8-0.1-1.7-0.2-2.5-0.2c-0.4,0-0.8,0-1.1,0.1
							c-0.4,0.1-0.7,0.1-1.1,0.2c-1.4,0.4-2.6,0.7-3.4,1c-0.4,0.2-0.7,0.3-0.9,0.4C182.4,22.3,182.6,22.5,182.6,22.5z M182.6,22.5
							C182.6,22.5,182.5,22.4,182.6,22.5c-0.1-0.1-0.1-0.2,0-0.3c0.1-0.2,0.4-0.5,0.8-0.7c0.7-0.5,1.8-1.2,3.2-1.8
							c0.4-0.2,0.7-0.3,1.1-0.4c0.5-0.1,0.9-0.2,1.3-0.2c0.9-0.1,1.8-0.2,2.8-0.1c0.5,0.1,1,0.1,1.6,0.3c0.3,0.1,0.6,0.2,0.9,0.5
							c0.1,0.1,0.2,0.2,0.3,0.3l0.1,0.2l0,0.1l0.1,0.2l0,0c0.1,0.2,0,0.1,0.1,0.1l0,0l0,0.1l0,0.1c0.2,0.8,0,1.6-0.4,2.2
							c-0.4,0.6-0.8,1-1.3,1.3c-0.9,0.7-1.9,1.1-2.9,1.5c-0.3,0.1-0.5,0.2-0.8,0.2c-0.3,0.1-0.5,0.1-0.8,0.2c-0.5,0.1-1,0.1-1.5,0.2
							c-1,0.1-1.9,0.1-2.8,0c-0.9,0-1.7-0.1-2.4-0.1c-0.4,0-0.9-0.1-1.3-0.4c-0.2-0.2-0.3-0.4-0.4-0.6c0-0.1-0.1-0.2-0.1-0.3l0-0.2
							c-0.1-0.8,0.4-1.4,0.7-1.6c0.4-0.3,0.7-0.4,0.9-0.5C182.4,22.5,182.6,22.5,182.6,22.5z"/>
					</g>
					<g>
						<path fill="#6A5C50" d="M182.9,12.1c0,0-0.3-0.2-0.7-0.5c-0.5-0.3-1.2-0.7-2-1.2c-0.8-0.4-1.8-0.9-2.9-1.3
							c-0.5-0.2-1.1-0.3-1.4-0.2c-0.2,0-0.2,0.1-0.3,0.1c-0.1,0.1-0.1,0.2-0.2,0.4l0,0.2l0,0l0,0l0,0c0-0.1,0,0.1,0-0.1l0,0l0,0.1
							l0,0.5c0,0.1,0.1,0.1,0.1,0.1c0,0,0.1,0.1,0.1,0.2c0.2,0.2,0.6,0.5,1.1,0.6c0.5,0.1,1,0.3,1.6,0.3c0.5,0.1,1,0.1,1.5,0.2
							c1,0.1,1.8,0.2,2.4,0.3C182.6,12,182.9,12.1,182.9,12.1z M182.9,12.1c0,0-0.1,0-0.2,0c-0.1,0-0.4,0.1-0.6,0.1
							c-0.6,0.1-1.4,0.3-2.3,0.5c-0.5,0.1-1,0.1-1.6,0.2c-0.6,0-1.2,0-1.9-0.1c-0.7-0.1-1.5-0.4-2.1-1.1c-0.1-0.2-0.3-0.4-0.4-0.7
							c-0.1-0.3-0.2-0.6-0.2-0.8l0-0.5l0-0.1l0,0l0-0.1l0,0l0,0l0-0.1l0.1-0.3c0.1-0.4,0.3-0.9,0.8-1.3c0.4-0.4,1-0.6,1.5-0.6
							c0.9-0.1,1.6,0.2,2.2,0.5c0.6,0.3,1.1,0.6,1.6,1c0.5,0.3,0.9,0.7,1.3,1c0.7,0.7,1.3,1.3,1.6,1.8
							C182.8,11.8,182.9,12.1,182.9,12.1z"/>
					</g>
					<g>
						<path fill="#6A5C50" d="M126.1,15c0,0-0.1,0-0.3,0c-0.2,0-0.5,0-0.8-0.1c-0.7-0.1-1.6-0.5-2.6-0.8c-0.3-0.1-0.5-0.1-0.8-0.1
							c-0.3,0-0.6,0-0.9,0c-0.6,0-1.3,0-1.9,0.1c-0.3,0-0.6,0.1-0.8,0.2c-0.2,0.1-0.3,0.2-0.7,0.5c-0.2,0.1-0.3,0.4-0.3,0.4
							c0,0,0-0.2,0-0.2c0,0,0,0,0.1,0.1c0.4,0.3,1.1,0.5,1.7,0.7c0.7,0.2,1.4,0.3,2.1,0.4c0.7,0.1,1.4,0.2,2,0.3
							c0.6,0.1,1.2,0.2,1.8,0.2c0.5,0.1,0.9,0,1.2-0.2c0.3-0.2,0.5-0.5,0.6-0.8c0.1-0.3,0-0.5-0.1-0.7C126.2,15,126.1,15,126.1,15z
							 M126.1,15c0,0,0.1,0,0.3,0.1c0.2,0.1,0.4,0.4,0.4,0.8c0,0.4-0.1,0.9-0.4,1.3c-0.2,0.2-0.5,0.4-0.8,0.6
							c-0.3,0.1-0.6,0.2-0.9,0.2c-0.3,0-0.6,0-0.9,0.1c-0.3,0-0.6,0-1,0c-0.7,0-1.4,0-2.1-0.1c-0.7-0.1-1.5-0.1-2.3-0.3
							c-0.8-0.2-1.6-0.3-2.5-0.9c-0.2-0.2-0.5-0.4-0.7-0.7c-0.2-0.3-0.3-0.9-0.2-1.3c0.3-0.8,0.7-1.1,1-1.4c0.3-0.2,0.8-0.5,1.2-0.7
							c0.5-0.1,0.9-0.2,1.3-0.2c0.8,0,1.5,0.1,2.2,0.2c0.3,0.1,0.6,0.1,0.9,0.2c0.3,0.1,0.7,0.2,1,0.3c0.6,0.3,1,0.6,1.4,0.8
							c0.4,0.3,0.7,0.5,1,0.6C125.7,14.9,126.1,15,126.1,15z"/>
					</g>
					<path fill="none" stroke="#6A5C50" stroke-miterlimit="10" d="M116.9,79.6c2,1.6,1.7,5.8,3.3,6.8"/>
					<g>
						<path fill="#6A5C50" d="M121.6,88.4c1.8,0.8,3.7,0.6,5.4-0.2c1.7-0.7,3.3-1.8,5-2.7c0.8-0.5,1.8-0.9,2.7-1.3
							c0.9-0.3,2-0.6,3.1-0.6c2.3,0,4.1,1.7,5.2,3.3c1.2,1.5,2.2,3.2,3.4,4.6c1.2,1.3,2.6,2.7,4.1,3.3c0.7,0.3,1.4,0.2,1.9-0.1
							c0.1-0.1,0.3-0.2,0.4-0.3l0.4-0.4c0,0,0.1-0.1,0,0l0-0.1l0.1-0.2l0.2-0.3c0.1-0.2,0.2-0.3,0.3-0.5c0.7-1.4,0-3.1-0.8-4.8
							c-0.4-0.9-0.8-1.8-1.1-2.8c-0.1-0.5-0.2-1-0.1-1.7c0.1-0.6,0.5-1.2,1-1.5c1-0.6,2-0.6,3-0.7c1,0,2,0.1,2.9,0.2
							c1.9,0.3,3.8,0.7,5.7,1.2c1.9,0.5,3.7,0.9,5.6,1.1c0.9,0.1,1.9,0.1,2.7-0.1c0.9-0.2,1.6-0.8,2-1.5c0.5-0.8,0.8-1.6,0.5-2.2
							c-0.4-0.6-1.3-1-2.1-1.4c-0.9-0.4-1.8-0.8-2.6-1.3c-0.8-0.4-1.7-0.8-2.6-1.2c-0.9-0.4-1.7-0.6-2.6-0.9c-0.9-0.3-2-0.6-2.9-1.6
							l-0.5-0.6l0.6-0.5c0.6-0.5,1.1-0.5,1.5-0.6c0.4-0.1,0.8-0.1,1.2-0.1c0.7,0,1.5,0,2.1,0c0.3,0,0.6,0,0.9-0.1
							c0.4-0.1,0.6-0.2,0.9-0.3c0.6-0.2,1.2-0.5,1.6-0.9c0.4-0.4,0.7-0.8,0.8-1.2c0,0,0.1-0.4,0.1-0.4c0-0.1,0-0.1,0-0.2
							c0-0.1,0,0-0.1-0.1c-0.3-0.1-1-0.1-1.7-0.1c-0.3,0-0.8,0-1.2,0c-0.3,0-0.8-0.1-1.1-0.1c-1.5-0.2-3-0.5-4.4-1.1
							c-0.4-0.1-0.7-0.3-1.1-0.5c-0.3-0.1-0.7-0.4-1.1-0.7c-0.1-0.1-0.2-0.2-0.3-0.3c-0.1-0.1-0.2-0.3-0.3-0.5
							c-0.2-0.4-0.1-1,0.1-1.4c0.4-0.7,0.9-0.9,1.3-1.1c0.8-0.4,1.6-0.6,2.3-0.7c0.7-0.2,1.4-0.3,2.2-0.4c1.4-0.2,2.8-0.5,4.2-0.8
							c1.4-0.3,2.7-0.7,3.5-1.4c0.4-0.4,0.7-0.8,0.9-1.4l0.1-0.4c0-0.1,0-0.3,0.1-0.5c0-0.2,0-0.3,0-0.4c0-0.1,0-0.3,0-0.4
							c-0.1-0.5-0.3-1-0.6-1.3c-0.4-0.3-0.9-0.6-1.6-0.7c-1.2-0.2-2.6-0.1-4,0.2c-2.7,0.5-5.4,1.7-8.2,2.4c-1.4,0.4-2.9,0.5-4.3,0.6
							c-1.4,0.1-2.9,0.1-4.3,0.3l0-0.2c1.4-0.3,2.8-0.5,4.3-0.7c1.4-0.2,2.8-0.5,4.1-0.9c2.7-0.9,5.3-2.2,8.1-2.9
							c1.5-0.4,2.9-0.6,4.6-0.4c0.8,0.1,1.6,0.4,2.4,1c0.7,0.6,1.2,1.5,1.3,2.4c0,0.2,0.1,0.4,0.1,0.7c0,0.2,0,0.5,0,0.6
							c0,0.2,0,0.3-0.1,0.6l-0.1,0.6c-0.2,0.8-0.7,1.6-1.3,2.3c-1.3,1.3-2.9,1.6-4.3,2c-1.4,0.4-2.9,0.6-4.3,0.9
							c-0.7,0.1-1.4,0.3-2.1,0.4c-0.7,0.2-1.3,0.3-1.8,0.6c-0.2,0.1-0.4,0.3-0.4,0.2c0,0,0.1-0.3,0-0.4c0,0,0-0.1,0,0c0,0,0,0,0,0.1
							c0.1,0.1,0.3,0.2,0.7,0.4c0.2,0.1,0.6,0.3,0.9,0.4c1.2,0.5,2.6,0.8,3.9,1c0.3,0.1,0.7,0.1,1,0.1c0.3,0,0.6,0,1,0
							c0.7,0,1.5-0.1,2.5,0.3c0.3,0.1,0.6,0.3,0.8,0.5c0.2,0.3,0.4,0.6,0.5,0.9c0.1,0.3,0.1,0.6,0,0.9c0,0.3,0,0.3-0.1,0.6
							c-0.2,0.9-0.9,1.7-1.5,2.2c-0.7,0.5-1.4,0.9-2.1,1.2c-0.4,0.1-0.8,0.3-1.1,0.3c-0.4,0.1-0.9,0.2-1.3,0.2c-0.8,0-1.5,0-2.2,0
							c-0.3,0-0.7,0-1,0c-0.3,0-0.6,0.1-0.5,0.1l0-1.1c0.8,1,3.2,1.3,4.8,2.3c0.9,0.4,1.7,0.9,2.6,1.4c0.9,0.5,1.6,1,2.5,1.4
							c0.4,0.2,0.9,0.4,1.3,0.7c0.4,0.3,0.9,0.6,1.2,1.2c0.3,0.6,0.3,1.2,0.1,1.7c-0.1,0.3-0.2,0.5-0.3,0.7l-0.2,0.3l0,0.1l0,0.1
							l0,0l-0.1,0.2c-0.6,0.9-1.5,1.5-2.5,1.7c-1,0.2-2,0.2-3,0.1c-3.8-0.5-7.5-1.9-11.3-2.2c-0.9-0.1-1.9-0.1-2.8-0.1
							c-0.9,0.1-1.9,0.2-2.5,0.7c-0.6,0.5-0.6,1.1-0.3,2c0.3,0.8,0.7,1.7,1.2,2.5c0.5,0.8,0.9,1.7,1.2,2.8c0.3,1,0.3,2.2-0.1,3.3
							c-0.1,0.3-0.2,0.6-0.4,0.8l-0.2,0.3l-0.1,0.2l0,0.1c-0.1,0.1-0.1,0.1-0.1,0.1c-0.2,0.2-0.3,0.4-0.5,0.6
							c-0.2,0.2-0.4,0.4-0.7,0.6c-1,0.7-2.5,0.8-3.5,0.4c-1.1-0.4-1.9-1-2.7-1.7c-0.8-0.7-1.4-1.4-2.1-2.1c-1.3-1.6-2.3-3.2-3.4-4.7
							c-0.5-0.7-1.2-1.4-1.8-1.9c-0.1-0.1-0.4-0.2-0.6-0.4c-0.1-0.1-0.3-0.2-0.5-0.2c-0.4-0.1-0.8-0.2-1.2-0.3
							c-0.8-0.1-1.7,0.1-2.6,0.4c-0.9,0.3-1.7,0.6-2.6,1c-1.7,0.8-3.4,1.8-5.2,2.4c-0.9,0.3-1.9,0.5-2.9,0.5c-1,0-2-0.3-2.8-0.8
							L121.6,88.4z"/>
					</g>
					<g>
						<path fill="#6A5C50" d="M105.2,67c0,0,0.1-0.2,0.2-0.5c0.1-0.4,0.3-0.9,0.2-1.6c-0.1-0.7-0.5-1.5-1.3-2.2
							c-0.8-0.7-1.8-1.3-2.9-2.1c-1.1-0.8-2.4-1.6-3.7-2.5c-1.4-0.9-2.8-1.8-4.6-2.5c-0.9-0.3-1.8-0.7-2.7-1.2
							c-0.9-0.5-1.7-1.3-2.4-2.2c-0.7-0.9-1.3-1.8-1.6-3.1c-0.1-0.6-0.1-1.4,0.4-2c0.2-0.3,0.5-0.5,0.8-0.7c0.4-0.2,0.9-0.2,1.2-0.1
							c0.7,0.1,1.2,0.4,1.8,0.7c0.5,0.3,1.1,0.5,1.6,0.8c1,0.5,2.2,0.9,3,0.5c0.2-0.1,0.4-0.2,0.5-0.4c0.1-0.1,0.2-0.2,0.2-0.3
							c0,0,0.2-0.3,0.1-0.3c0.1-0.2-0.1-0.8-0.4-1.2c-0.3-0.5-0.7-1-1.1-1.5c-0.2-0.3-0.4-0.6-0.6-0.9c-0.1-0.2-0.2-0.4-0.2-0.6
							c-0.1-0.2-0.1-0.3-0.1-0.5c-0.3-1.4-0.3-2.8,0-4.3l0-0.3c0-0.2,0-0.2,0.1-0.3l0.1-0.5c0.1-0.4,0.3-0.8,0.5-1.1
							c0.4-0.7,1.2-1.4,2.1-1.6c0.9-0.2,1.8-0.1,2.5,0.1c0.8,0.2,1.5,0.6,2.1,1.1c0.3,0.2,0.6,0.4,0.9,0.7c0.3,0.2,0.6,0.5,0.8,0.8
							c0.5,0.6,1,1.2,1.4,1.9c0.8,1.4,1.2,2.9,1.4,4.5c0.1,1.6,0.2,3,0.3,4.5c0.1,1.4,0.4,2.9,0.9,4c0.3,0.6,0.6,0.9,1,1
							c0.4,0.1,1-0.1,1.5-0.4c0.3-0.2,0.7-0.8,1.1-1.5c0.4-0.6,1.1-1.6,2.1-1.9c0.2-0.1,0.5-0.1,0.8-0.2l0.4,0l0.1,0
							c0.1,0,0,0,0.2,0l0.1,0l0.6,0.1c0.2,0,0.5,0.1,0.8,0.2c1,0.4,1.6,1.1,2.2,1.7c1,1.3,1.8,2.7,2.7,3.4c0.5,0.3,0.9,0.4,1.5,0.3
							c0.3-0.1,0.6-0.1,0.9-0.3l0.5-0.2c0,0,0.1-0.1,0,0l0.1,0l0.1-0.1l0.2-0.2c0.2-0.1,0.4-0.2,0.5-0.3c0.1-0.1,0.2-0.2,0.3-0.3
							l0.1-0.1l0.1-0.2l0.2-0.4c0.2-0.5,0.4-1.1,0.4-1.8c0-1.3-0.4-2.8-0.9-4.2c-0.5-1.4-1.1-2.8-1.5-4.5c0-0.2-0.1-0.4-0.1-0.6
							l0-0.3l0-0.4c0-0.5,0-0.9,0-1.3c0.1-0.8,0.3-1.6,0.5-2.4c0.5-1.6,1.2-3,2.2-4.4c0.5-0.7,1.2-1.3,2-1.7
							c0.8-0.5,1.8-0.6,2.7-0.5c0.5,0.1,0.9,0.2,1.3,0.4c0.4,0.2,0.7,0.4,1.1,0.7c0.5,0.4,1.3,1.2,1.6,2c0.4,0.8,0.5,1.7,0.5,2.6
							c-0.1,0.8-0.3,1.6-0.5,2.4c-0.5,1.5-1.3,2.7-1.9,4c-0.6,1.2-1.2,2.5-1.7,3.7c-0.2,0.6-0.4,1.3-0.5,1.9c0,0.2-0.1,0.7-0.1,1
							c0,0.3,0,0.6,0,0.9c0.1,0.6,0.3,1.1,0.5,1.6c0.3,0.5,0.7,0.9,1.2,1.2c1,0.6,2.2,0.9,3.4,1c1.2,0,2.5,0,3.4-0.5
							c1-0.5,1.9-1.3,2.8-2.1c0.8-0.8,1.6-1.7,2.3-2.6c0.7-0.9,1.4-1.8,2.2-2.7c0.8-0.9,1.7-1.6,2.6-2.1c1.9-1.1,4-1.8,6-1.4
							c0.4,0.1,1,0.2,1.4,0.5c0.2,0.1,0.4,0.3,0.6,0.5c0.1,0.2,0.3,0.5,0.3,0.8c0.1,0.5-0.1,1-0.2,1.4c-0.2,0.4-0.4,0.8-0.6,1.1
							c-0.9,1.4-2,2.5-2.9,3.5c-0.9,1-1.6,2-1.8,3c-0.1,1,0,1.9,0.1,2.6c0.1,0.7,0.4,1.2,0.8,1.4c0.4,0.1,0.5-0.1,0.5,0
							c0,0,0,0-0.1,0c-0.1,0-0.2,0.1-0.4,0c-0.4-0.1-0.7-0.7-0.9-1.4c-0.2-0.7-0.3-1.6-0.2-2.7c0.1-1.1,0.9-2.2,1.7-3.2
							c0.9-1,1.9-2.2,2.7-3.5c0.4-0.7,0.8-1.5,0.7-2.2c0-0.4-0.3-0.6-0.6-0.8c-0.3-0.2-0.7-0.3-1.2-0.4c-1.7-0.3-3.7,0.4-5.4,1.5
							c-0.8,0.6-1.7,1.2-2.4,2c-0.7,0.8-1.4,1.8-2.1,2.7c-0.7,0.9-1.5,1.9-2.4,2.8c-0.9,0.9-1.8,1.8-3.1,2.4c-0.3,0.2-0.7,0.3-1,0.4
							c-0.2,0.1-0.3,0.1-0.5,0.1c-0.1,0-0.1,0-0.3,0.1l-0.2,0c-0.7,0.1-1.3,0.1-2,0.1c-1.4,0-2.8-0.3-4.1-1.1
							c-0.6-0.4-1.2-1-1.7-1.6c-0.4-0.7-0.7-1.4-0.8-2.2c-0.1-0.4-0.1-0.8-0.1-1.2c0-0.4,0-0.6,0.1-1.1c0.1-0.7,0.3-1.5,0.5-2.2
							c0.5-1.4,1-2.7,1.7-4c0.7-1.3,1.3-2.5,1.8-3.8c0.2-0.6,0.4-1.3,0.4-1.9c0-0.6-0.1-1.2-0.3-1.7c-0.1-0.3-0.3-0.5-0.5-0.7
							c-0.1-0.2-0.5-0.5-0.7-0.7c-0.4-0.3-1-0.7-1.6-0.7c-1.1-0.2-2.2,0.5-3,1.6c-0.8,1.1-1.4,2.4-1.8,3.7c-0.2,0.7-0.3,1.4-0.4,2.1
							c0,0.3,0,0.7,0,1l0,0.2l0,0.3c0,0.1,0.1,0.3,0.1,0.5c0.3,1.4,1,2.8,1.5,4.3c0.5,1.5,1,3,1,4.8c0,0.9-0.2,1.8-0.6,2.7l-0.4,0.6
							l-0.2,0.3l-0.3,0.3c-0.2,0.2-0.4,0.4-0.6,0.5c-0.2,0.1-0.3,0.2-0.5,0.3l-0.2,0.2l-0.1,0.1l-0.1,0c-0.2,0.1-0.1,0-0.2,0.1
							l-0.6,0.3c-0.4,0.2-0.9,0.3-1.3,0.4c-1,0.2-2.1-0.1-2.9-0.7c-1.6-1.2-2.2-2.7-3.1-3.8c-0.4-0.5-0.9-1-1.4-1.2
							c-0.1,0-0.2-0.1-0.3-0.1l-0.6-0.1l-0.1,0c0.2,0,0,0,0.1,0l-0.1,0l-0.2,0c-0.1,0-0.3,0-0.4,0.1c-0.4,0.1-0.8,0.5-1.2,1.1
							c-0.4,0.6-0.8,1.4-1.7,2.1c-0.3,0.2-0.3,0.2-0.6,0.3c-0.2,0.1-0.4,0.2-0.7,0.2c-0.5,0.1-1,0.2-1.6,0.1
							c-0.6-0.1-1.1-0.4-1.4-0.8c-0.4-0.4-0.6-0.8-0.8-1.2c-0.8-1.6-0.9-3.2-1.1-4.7c-0.1-1.5-0.2-3.1-0.3-4.4
							c-0.2-1.4-0.5-2.7-1.2-3.9c-0.3-0.6-0.7-1.1-1.1-1.6c-0.2-0.2-0.4-0.4-0.7-0.7c-0.2-0.2-0.5-0.4-0.8-0.6c-1-0.7-2.3-1.2-3.3-1
							c-0.5,0.1-0.9,0.4-1.1,0.9c-0.2,0.2-0.2,0.5-0.4,0.7L95.2,38c0,0.1-0.1,0.2-0.1,0.2l0,0.2c-0.2,1.2-0.3,2.6-0.1,3.8
							c0.1,1,1.1,2,1.8,3.1c0.2,0.3,0.4,0.6,0.5,1c0.1,0.4,0.2,0.8,0,1.4c-0.1,0.5-0.4,0.8-0.6,1c-0.3,0.3-0.6,0.5-1,0.7
							c-0.8,0.3-1.6,0.3-2.2,0.1c-0.7-0.2-1.3-0.5-1.8-0.7c-1.1-0.5-2.1-1.3-3-1.5c-0.2,0-0.4,0-0.5,0c-0.1,0.1-0.4,0.2-0.5,0.4
							c-0.2,0.3-0.3,0.7-0.2,1.2c0.2,0.9,0.7,1.9,1.3,2.7c0.6,0.8,1.3,1.5,2.1,2.1c0.8,0.5,1.7,0.9,2.6,1.3c1.8,0.7,3.3,1.8,4.6,2.7
							c1.3,0.9,2.5,1.8,3.6,2.6c1.1,0.8,2.1,1.5,2.9,2.3c0.8,0.7,1.2,1.6,1.2,2.4c0.1,0.7-0.2,1.3-0.3,1.6
							C105.3,66.8,105.2,67,105.2,67z"/>
					</g>
					<path fill="none" stroke="#6A5C50" stroke-miterlimit="10" d="M49.6,74.3c0.2,0,0,0.3,0.3,0.1c0.8-2.3-0.3-5.7-3-3.9
						c-1,0.7-1.1,1.9-1.8,2.7c-0.8,0.9-1.6,0.9-2.7,1.4c-1,0.4-2,0.9-2.2,2c-0.2,1.1,0.8,1.9,0.8,3c-0.1,2.7-4,4.5-5.5,6.5
						c-1.8,2.3-2.7,5-2.2,8c0.4,2.6,3.3,3.9,5.6,2.7c3-1.5,3.9-5.5,5.2-8.3c1.8-3.7,3.8-7.7,7.1-10.4c3-2.5,6.5-5.3,10-6.8
						c2.6-1.1,7.8-1,10.2,0.5c1.5,0.9,1.3,2.7,2.9,3.2c1.6,0.5,3.7-0.7,5.1,0.6c0.6,0.5,0.5,1.4,1.1,2.1c0.8,0.9,2.4,1.2,3.6,1.2"/>
					<path fill="none" stroke="#6A5C50" stroke-miterlimit="10" d="M50.4,73c1.4-1.7,4.3-3.2,6.4-4.3c2.6-1.3,5.1-3.1,8-3.8
						c3.2-0.8,6.5-0.9,9,1.3c1.9,1.7,3,3,5.8,2.7c3.8-0.5,6.5-1,10.5-0.4"/>
					<path fill="none" stroke="#6A5C50" stroke-miterlimit="10" d="M56.7,41.5c-2.4-0.4-3.9,3.5-3.6,5.5c2.4,0.1,3.6-0.3,4.5-2.6
						c0.5-1.3,0.5-3.9-1.7-2.2"/>
					<path fill="none" stroke="#6A5C50" stroke-miterlimit="10" d="M33.6,67.6c-1.5,0-4.5,4-5.7,5.3c-1,1.1-3.7,3.4-3.5,5
						c0.2,1.8,3.4,1.7,4.6,1c1.7-1,2.9-3.3,3.5-5.1c0.4-1.4,1.6-4,0.9-5.4C33.2,68.6,33.2,68.7,33.6,67.6z"/>
					<path fill="none" stroke="#6A5C50" stroke-miterlimit="10" d="M88.1,81.6c-2.8,3.2-8.4,4.6-11.9,7.2c-2.8,2-4.8,6.2-8.9,5.5
						c-0.3-1.6,2.1-4.4,3-5.6c0.9-1.3,3.8-5.1,0.4-4.7c-2.8,0.4-5.2,3.4-7.2,5.2c-2.2,2-4.8,3.7-7.3,5.4
						c-2.6,1.8-13.7,10.2-6.7,12.9c2.9,1.1,5.9-1.9,7.6-4c1.1-1.4,6.3-7.3,6.9-3c0.2,1.5-1.2,3.2,0.5,4c1.8,0.8,4.9-2.2,6-3.4
						c1.8-1.8,2.7-4.4,4.5-6.2c1.5-1.6,3.9-3.1,5.8-4.1"/>
					<g>
						<path fill="#6A5C50" d="M51.2,164.5c0,0,0,0.2,0.2,0.4c0.1,0.1,0.2,0.1,0.5,0.2c0.2,0.1,0.5,0.3,0.6,0.6
							c0.3,0.5,0.5,1.2,0.8,1.9c0.3,0.8,0.5,1.6,0.6,2.6c0.1,1,0.2,2,0.3,3.1c0.1,1.1,0.1,2.3,0,3.5c-0.1,1.2-0.4,2.6-1.1,3.9
							c-0.2,0.3-0.4,0.6-0.7,0.9l-0.3,0.3c-0.2,0.1-0.3,0.3-0.5,0.4c-0.6,0.5-1.5,0.8-2.5,0.7c-1-0.1-1.7-0.7-2.2-1.3
							c-0.5-0.6-0.8-1.3-1.1-1.9c-0.5-1.3-0.6-2.7-0.4-4c0.1-1.3,0.4-2.4,0.8-3.5c0.4-1,0.7-2,1.1-2.9c0.8-1.8,1.6-3.2,2.4-4
							c0.4-0.4,0.8-0.7,1.1-0.8C51.1,164.5,51.2,164.5,51.2,164.5z M51.2,164.5c0,0-0.2,0-0.4,0.2c-0.2,0.2-0.5,0.5-0.8,0.9
							c-0.6,0.9-1.1,2.4-1.6,4.2c-0.3,0.9-0.5,1.9-0.8,2.9c-0.3,1-0.4,2.1-0.5,3.2c-0.1,1.1,0.1,2.2,0.5,3.2c0.4,1,1.1,1.9,1.7,2
							c0.3,0,0.7-0.1,1.1-0.3l0.3-0.2l0.3-0.3c0.1-0.1,0.3-0.4,0.4-0.6c0.5-0.9,0.8-2,1-3.1c0.2-1.1,0.3-2.2,0.3-3.3
							c0-1.1,0.1-2.1,0-3c0-0.9-0.1-1.8-0.2-2.5c-0.1-0.8-0.2-1.4-0.4-1.9c-0.1-0.3-0.2-0.4-0.4-0.5c-0.2-0.1-0.4-0.2-0.5-0.3
							C51.2,164.6,51.2,164.5,51.2,164.5z"/>
					</g>
					<g>
						<path fill="#6A5C50" d="M124.7,93.3c-0.6,0.9-1.1,1.8-1.6,2.8c-0.5,1-0.9,1.9-1.3,2.9c-0.8,2-1.6,4-2.4,6c-0.4,1-0.8,2-1.3,3
							c-0.5,1-1,1.9-1.6,2.9c-0.6,0.9-1.2,1.8-1.9,2.7c-0.4,0.4-0.7,0.8-1.2,1.2c-0.2,0.2-0.5,0.4-1,0.4c-0.2,0-0.5-0.1-0.7-0.2
							c-0.2-0.1-0.3-0.3-0.4-0.4c-0.3-0.6-0.5-1.2-0.4-1.8c0-0.6,0.3-1.2,0.6-1.7c0.6-1,1.3-1.8,1.9-2.7c1.3-1.7,2.4-3.5,3.5-5.3
							c0.5-0.9,1-1.9,1.4-2.8c0.4-1,0.9-2,1.5-2.9c0.6-0.9,1.3-1.8,2-2.6c0.4-0.4,0.8-0.8,1.3-1.1c0.2-0.1,0.5-0.3,0.8-0.2
							c0.3,0.1,0.5,0.4,0.6,0.6l0,0l0,0c0,0-0.1,0.1-0.1,0.1c0,0-0.1,0-0.1,0c0-0.1,0-0.1,0-0.1c0-0.1,0.1-0.2,0.2-0.2
							C124.5,93.6,124.6,93.4,124.7,93.3z M124.7,93.3c-0.1,0.2-0.2,0.3-0.3,0.5c-0.1,0.1-0.1,0.2-0.1,0.2c0,0,0,0,0,0c0,0,0,0,0,0
							c0,0,0.1,0,0.1-0.1l0,0.1c-0.1-0.2-0.3-0.4-0.5-0.5c-0.2,0-0.5,0.1-0.7,0.2c-0.4,0.3-0.8,0.7-1.1,1.1
							c-0.7,0.8-1.3,1.7-1.8,2.6c-0.5,0.9-0.9,1.9-1.3,2.9c-0.4,1-0.9,2-1.4,3c-1,1.9-2.2,3.7-3.4,5.5c-0.6,0.9-1.3,1.7-1.8,2.6
							c-0.2,0.4-0.4,0.9-0.4,1.3c0,0.4,0.1,0.9,0.3,1.3c0.1,0.2,0.2,0.2,0.2,0.2c0.1,0,0.3-0.1,0.4-0.2c0.4-0.3,0.7-0.7,1.1-1.1
							c0.7-0.8,1.3-1.6,1.9-2.5c0.6-0.9,1.1-1.8,1.6-2.8c0.5-0.9,0.9-1.9,1.4-2.9c0.9-1.9,1.7-3.9,2.6-5.9c0.5-1,1-1.9,1.5-2.9
							C123.5,95,124.1,94.1,124.7,93.3z"/>
					</g>
					<g>
						<path fill="#6A5C50" d="M114.9,121.3c0,0-0.3,0.7-1,1.8c-0.4,0.6-0.8,1.2-1.2,2c-0.4,0.8-0.8,1.8-1.3,2.8
							c-0.5,1-1.1,2.1-1.6,3.3c-0.4,1.2-0.8,2.6-1.4,3.9c-0.6,1.3-1.4,2.7-2.8,3.6c-0.3,0.2-0.7,0.4-1.1,0.6l-0.3,0.1
							c-0.2,0.1-0.2,0.1-0.3,0.1c-0.2,0-0.4,0.1-0.6,0.2c-0.2,0-0.5,0.1-0.7,0.1c-0.2-0.1-0.5,0-0.7-0.2c-0.3-0.1-0.5-0.3-0.6-0.6
							c-0.1-0.2-0.2-0.5-0.2-0.7c-0.1-0.9,0.1-1.7,0.4-2.5c0.3-0.7,0.6-1.5,0.9-2.1c0.7-1.4,1.6-2.6,2.5-3.7
							c0.9-1.1,1.7-2.2,2.4-3.3c0.3-0.5,0.6-1.1,0.9-1.6c0.3-0.6,0.6-1.1,0.9-1.6c0.7-1,1.4-1.7,2.2-2.3c0.4-0.3,0.8-0.5,1.2-0.6
							c0.4-0.1,0.8-0.1,1.1-0.2c0.7,0,1.2,0,1.5,0.3c0.1,0.2-0.1,0.3-0.2,0.4C114.9,121.3,114.9,121.3,114.9,121.3z M114.9,121.3
							c0,0,0,0,0.1-0.1c0.1,0,0.2-0.2,0.1-0.3c-0.3-0.2-0.8-0.2-1.5-0.1c-0.3,0-0.7,0.1-1,0.2c-0.4,0.1-0.7,0.4-1.1,0.6
							c-0.7,0.6-1.4,1.3-2,2.3c-0.3,0.5-0.6,1-0.8,1.5c-0.2,0.6-0.5,1.2-0.9,1.7c-0.7,1.2-1.5,2.3-2.3,3.4c-0.8,1.1-1.7,2.3-2.4,3.6
							c-0.3,0.6-0.6,1.3-0.8,2c-0.2,0.7-0.4,1.4-0.3,2c0,0.3,0.1,0.5,0.3,0.5c0.1,0.1,0.2,0,0.3,0.1c0.1,0,0.3,0,0.4,0
							c0.2,0,0.4-0.1,0.5-0.1c0.1,0,0.2-0.1,0.2-0.1l0.2-0.1c0.3-0.1,0.6-0.3,0.9-0.5c1.2-0.8,1.9-2,2.5-3.2c0.6-1.3,1-2.6,1.5-3.8
							c0.5-1.2,1.2-2.3,1.7-3.3c0.6-1,1-1.9,1.5-2.7c0.5-0.8,1-1.5,1.4-2c0.4-0.5,0.7-0.9,0.9-1.3
							C114.8,121.5,114.9,121.3,114.9,121.3z"/>
					</g>
					<g>
						<path fill="#6A5C50" d="M131.2,98.8c0,0,0,0.1,0.1,0.2c0.1,0.1,0.2,0.3,0.3,0.5c0.3,0.5,0.6,1.2,0.8,2.1
							c0.2,1,0.2,2.2,0.3,3.5c0,1.4,0,2.9,0.1,4.6c0,1.7,0,3.5-0.1,5.5c-0.1,1.9-0.2,4-0.3,6.1c-0.1,2.1-0.4,4.3-1,6.6
							c-0.3,1.1-0.7,2.2-1.3,3.3c-0.3,0.5-0.6,1.1-1.1,1.6c-0.1,0.2-0.3,0.3-0.5,0.4c-0.1,0.1-0.2,0.1-0.4,0.2
							c-0.1,0.1-0.3,0.1-0.5,0.1c-0.2,0-0.4,0-0.5,0c-0.2-0.1-0.3-0.1-0.5-0.2c-0.3-0.2-0.4-0.4-0.6-0.5c-0.5-0.7-0.6-1.3-0.8-1.9
							c-0.2-0.6-0.3-1.2-0.4-1.7c-0.2-1.1-0.3-2.3-0.4-3.4c-0.1-2.2-0.4-4.3-0.6-6.4c-0.1-1.1-0.2-2.1,0-3.3c0.2-1.1,0.7-2,1.2-2.9
							c0.5-0.8,0.9-1.7,1.1-2.5c0.3-0.8,0.4-1.7,0.5-2.5c0.2-1.7,0.4-3.2,0.7-4.6c0.3-1.3,0.8-2.5,1.3-3.3c0.3-0.4,0.6-0.7,0.8-1
							c0.3-0.3,0.6-0.4,0.9-0.3c0.2,0.1,0.5,0.1,0.6,0C131.2,98.8,131.2,98.8,131.2,98.8z M131.2,98.8c0,0-0.1,0-0.2,0.1
							c-0.1,0.1-0.3,0.1-0.6,0c-0.3-0.1-0.6,0.1-0.8,0.3c-0.3,0.3-0.6,0.6-0.8,1c-0.5,0.8-1,1.9-1.2,3.3c-0.3,1.3-0.3,2.9-0.4,4.6
							c-0.1,0.8-0.1,1.7-0.3,2.6c-0.2,0.9-0.5,1.8-0.9,2.7c-0.4,0.9-0.8,1.8-0.9,2.7c-0.1,0.9,0.1,1.9,0.3,2.9
							c0.2,1,0.4,2.1,0.6,3.1c0.2,1.1,0.3,2.2,0.4,3.3c0.1,1.1,0.3,2.2,0.4,3.2c0.1,0.5,0.2,1.1,0.3,1.5c0.1,0.5,0.3,1,0.5,1.2
							c0,0,0.1,0.1,0,0c0,0-0.1-0.1-0.2,0c0,0-0.1,0-0.1,0c0,0,0,0,0,0c0,0,0.1-0.1,0.1-0.1c0.3-0.3,0.6-0.7,0.8-1.2
							c0.5-0.9,0.9-1.9,1.2-2.9c0.6-2,1-4.1,1.4-6.2c0.3-2.1,0.5-4.1,0.8-6c0.2-1.9,0.4-3.7,0.5-5.4c0.1-1.7,0.1-3.2,0.2-4.6
							c0.1-1.4,0-2.6-0.1-3.5c-0.2-1-0.5-1.7-0.7-2.2c-0.1-0.2-0.2-0.4-0.3-0.5C131.3,98.9,131.2,98.8,131.2,98.8z"/>
					</g>
					<g>
						<path fill="#6A5C50" d="M142.9,101.8c-0.4,2.8-1,5.5-0.9,8.3c0.1,1.4,0.4,2.7,0.7,4.1c0.2,0.7,0.3,1.4,0.5,2.1l0.4,2.1
							c0.6,2.7,1.4,5.4,1.6,8.3c0.1,1.4,0.1,2.9-0.3,4.3c-0.2,0.7-0.5,1.4-0.9,2c-0.4,0.6-0.9,1.3-1.9,1.5c-0.5,0.1-1,0-1.4-0.3
							l-0.3-0.2c-0.1-0.1-0.1-0.1-0.2-0.2c-0.1-0.2-0.3-0.4-0.3-0.6c-0.3-0.7-0.4-1.5-0.5-2.2c-0.1-1.5-0.1-2.8-0.2-4.2
							c-0.1-2.8-0.2-5.6-0.2-8.4l-0.1-4.2c0-1.4,0-2.8,0.1-4.2c0.1-1.4,0.4-2.8,0.9-4.1c0.5-1.3,1.3-2.6,2.5-3.4l0.1-0.1l0,0.1
							c0,0.1,0,0.1,0,0.2c0,0.1,0,0.2,0,0.2c0,0,0.1-0.1,0.1-0.1c0-0.1,0.1-0.1,0.1-0.2C142.6,102.3,142.8,102,142.9,101.8z
							 M142.9,101.8c-0.1,0.3-0.2,0.5-0.3,0.8c0,0.1-0.1,0.1-0.1,0.2c0,0,0,0.1-0.1,0.1c0,0-0.1,0.1-0.1,0.1c-0.1,0-0.1-0.1-0.1-0.1
							c0,0,0-0.1,0-0.1c0-0.1,0-0.1,0-0.2l0.1,0.1c-1.1,0.8-1.8,2.1-2.2,3.4c-0.4,1.3-0.6,2.7-0.6,4.1c-0.1,1.4,0,2.8,0.1,4.2
							l0.2,4.2c0.1,2.8,0.2,5.6,0.4,8.4c0.1,1.4,0.1,2.8,0.2,4.2c0.1,0.7,0.2,1.3,0.5,1.9c0.1,0.2,0.1,0.2,0.2,0.3
							c0,0,0.1,0.2,0.1,0.2l0.1,0.1c0.2,0.1,0.4,0.2,0.6,0.1c0.4-0.1,0.9-0.6,1.3-1.1c0.4-0.5,0.6-1.1,0.8-1.8
							c0.4-1.3,0.4-2.6,0.3-4c-0.2-2.7-1-5.4-1.5-8.2l-0.3-2.1c-0.1-0.7-0.3-1.4-0.4-2c-0.3-1.4-0.6-2.8-0.5-4.2
							c0-1.4,0.3-2.8,0.5-4.2C142.2,104.5,142.6,103.1,142.9,101.8z"/>
					</g>
					<g>
						<path fill="#6A5C50" d="M150.1,110.9c0,0,0.2,0.3,0.4,1c0.2,0.6,0.2,1.6,0.4,2.6c0.1,0.5,0.2,1.1,0.3,1.7
							c0.1,0.6,0.1,1.3,0.2,2c0.1,0.7,0.1,1.4,0,2.2c0,0.4,0,0.7-0.1,1.1c0,0.2-0.1,0.4-0.3,0.6c-0.1,0-0.2,0.1-0.2,0.1
							c-0.1,0-0.2,0-0.2,0c-0.1,0-0.2-0.1-0.3-0.2c-0.6-0.6-0.9-1.3-1.3-1.9c-0.3-0.7-0.5-1.4-0.7-2.1c-0.2-0.7-0.3-1.4-0.3-2
							c0-0.7,0-1.3,0.1-1.9c0.1-0.6,0.3-1.1,0.5-1.5c0.2-0.4,0.5-0.8,0.7-1C149.7,111.1,150,110.9,150.1,110.9L150.1,110.9z
							 M150,111.1c0,0-0.1,0.1-0.1,0.1c-0.1,0.1-0.3,0.3-0.4,0.6c-0.2,0.3-0.3,0.6-0.4,1c-0.1,0.4-0.2,0.9-0.2,1.4
							c-0.1,1,0.1,2.2,0.3,3.5c0.1,0.6,0.3,1.3,0.5,2c0.2,0.7,0.5,1.4,0.8,1.9c0.1,0.1,0.2,0.2,0.2,0.1c0.1,0,0.2-0.2,0.2-0.3
							c0.1-0.3,0.2-0.7,0.2-1c0-0.7,0-1.4-0.3-2c-0.2-0.7-0.4-1.3-0.5-1.9c-0.1-0.6-0.3-1.2-0.3-1.8c-0.1-1.2,0.1-2,0.1-2.7
							C150.1,111.5,150,111.2,150,111.1z"/>
					</g>
					<g>
						<path fill="#6A5C50" d="M6.2,166.8c0,0,0.2,0.4,0.6,1c0.4,0.6,0.9,1.5,1.4,2.7c0.2,0.6,0.5,1.2,0.7,1.9
							c0.2,0.7,0.4,1.5,0.5,2.3c0,0.8,0,1.8-0.5,2.8c-0.6,1-1.7,1.6-2.7,1.7c-0.6,0.1-1.4-0.1-1.9-0.5c-0.5-0.4-0.8-1-1-1.4
							c-0.3-1-0.3-1.9-0.2-2.7c0.1-1.6,0.6-3.1,1-4.2c0.5-1.2,1-2.1,1.4-2.7c0.2-0.3,0.4-0.5,0.6-0.6C6.2,166.9,6.2,166.8,6.2,166.8
							z M6.2,166.8c0,0-0.2,0.4-0.4,1c-0.2,0.7-0.5,1.6-0.7,2.8c-0.2,1.2-0.4,2.6-0.4,4c0,0.7,0.1,1.4,0.3,2
							c0.1,0.3,0.2,0.5,0.3,0.5c0.1,0.1,0.2,0.1,0.4,0.1c0.6-0.1,1.1-0.3,1.3-0.7c0.3-0.4,0.4-1.1,0.4-1.7c0-1.4-0.3-2.7-0.5-3.9
							c-0.3-1.2-0.5-2.2-0.6-2.9C6.3,167.2,6.2,166.8,6.2,166.8z"/>
					</g>
					<g>
						<path fill="#6A5C50" d="M37.7,201.7c0,0,0.4,0.3,0.8,1.1c0.4,0.8,1,2,1.4,3.5c0.5,1.5,1,3.3,1.1,5.4c0,1,0,2.2-0.6,3.3
							c-0.3,0.6-0.9,1.2-1.7,1.4c-0.8,0.2-1.5,0-2.1-0.2c-0.4-0.2-0.5-0.2-0.8-0.4c-0.3-0.2-0.6-0.4-0.8-0.6c-0.5-0.5-0.8-1-1-1.5
							c-0.5-1.1-0.7-2.2-0.7-3.2c0-0.5,0-1,0.1-1.5c0-0.5,0.2-1.1,0.3-1.5c0.3-0.9,0.7-1.6,1-2.4c0.7-1.4,1.3-2.6,1.9-3.3
							c0.2-0.2,0.3-0.3,0.5-0.4c0.2-0.1,0.3-0.1,0.4,0C37.7,201.6,37.7,201.7,37.7,201.7z M37.7,201.7c0,0-0.1-0.1-0.3-0.2
							c-0.2-0.1-0.6,0-0.9,0.4c-0.3,0.3-0.6,0.8-0.8,1.4c-0.2,0.6-0.5,1.2-0.7,2c-0.2,0.7-0.4,1.6-0.5,2.4c-0.1,0.5-0.1,0.8,0,1.3
							c0,0.4,0.1,0.9,0.2,1.4c0.2,0.9,0.5,1.8,0.9,2.5c0.2,0.4,0.5,0.7,0.8,1c0.2,0.1,0.3,0.2,0.4,0.3c0.1,0.1,0.5,0.3,0.6,0.3
							c0.4,0.2,0.7,0.2,1,0.2c0.2,0,0.4-0.2,0.6-0.4c0.4-0.6,0.7-1.5,0.8-2.4c0.2-1.8,0.2-3.7-0.1-5.2c-0.2-1.5-0.6-2.8-1.1-3.6
							c-0.2-0.4-0.4-0.7-0.6-0.9C37.8,201.8,37.7,201.7,37.7,201.7z"/>
					</g>
					<g>
						<path fill="#6A5C50" d="M255.6,188.5c0.3,0.1,0.7,0.4,0.8,0.8c0.1,0.4,0.2,0.7,0.2,1.1c0,0.7,0,1.4-0.1,2.1
							c-0.1,0.7-0.2,1.4-0.4,2c-0.1,0.3-0.2,0.7-0.2,1l-0.2,1c-0.2,1.3-0.3,2.6-0.2,3.9c0,0.3,0.1,0.6,0.1,0.9l0,0.2l0,0.1l0,0.1
							l0.1,0.5l0.5,1.9c0.3,1.3,0.7,2.7,0.8,4.1c0.2,1.4,0.1,2.9-0.3,4.2c-0.5,1.4-1.3,2.5-2.2,3.6c-1,1-2,2-3.6,2.4
							c-0.4,0.1-0.8,0.1-1.2,0.1l-0.3,0c-0.1,0-0.2-0.1-0.3-0.1c-0.2-0.1-0.4-0.2-0.6-0.3c-0.7-0.5-1.1-1.1-1.5-1.8
							c-0.4-0.6-0.7-1.3-1-1.8c-0.1-0.2-0.3-0.6-0.5-0.9l-0.4-0.9c-0.6-1.2-1.1-2.4-2-2.9c-0.1-0.1-0.3-0.2-0.4-0.2
							c-0.1,0-0.1,0-0.2,0.1c-0.2,0.2-0.5,0.7-0.7,1.2c-0.2,0.6-0.3,1.1-0.3,1.7c0,0.6-0.1,1.3-0.1,2c-0.1,1.4-0.1,2.7-0.3,4.1
							c-0.2,1.4-0.5,2.8-1.1,4.1c-0.3,0.7-0.7,1.3-1.4,1.8c-0.6,0.5-1.5,0.6-2.2,0.4l-0.1,0l0-0.1c-0.1-0.1-0.1-0.4,0-0.6
							c0.1-0.2,0.3-0.2,0.4-0.3l0.1,0.2c-0.1,0.1-0.2,0.2-0.2,0.3c0,0.1,0,0.1,0.1,0.2l-0.1-0.1c0.6,0,1.2-0.2,1.6-0.6
							c0.4-0.4,0.7-1,0.8-1.6c0.4-1.2,0.4-2.5,0.5-3.9c0-1.3,0-2.7,0-4c0-0.7,0-1.4,0-2.1c0-0.8,0.1-1.5,0.4-2.3
							c0.3-0.7,0.6-1.5,1.4-2.2c0.4-0.3,1.1-0.6,1.7-0.5c0.6,0.1,1.1,0.3,1.5,0.6c0.2,0.2,0.3,0.3,0.4,0.4l0.1,0.1
							c0.1,0.1,0.1,0.1,0.1,0.2c0.1,0.1,0.1,0.2,0.2,0.2c0.3,0.3,0.5,0.7,0.6,1c0.4,0.7,0.6,1.3,0.9,2l0.4,0.9
							c0.1,0.3,0.2,0.5,0.4,0.9l0.8,1.9c0.3,0.6,0.6,1.1,0.9,1.5c0.1,0.1,0.2,0.2,0.3,0.2c0,0,0.1,0.1,0.1,0.1l0.2,0.1
							c0.2,0,0.5,0.1,0.8,0c1.2-0.1,2.3-0.9,3.3-1.8c0.5-0.5,0.9-1,1.3-1.5c0.4-0.6,0.6-1.1,0.8-1.8c0.3-1.3,0.2-2.6-0.2-3.8
							c-0.3-1.3-0.8-2.5-1.3-3.8c-0.2-0.6-0.5-1.3-0.6-2l-0.1-0.5l-0.1-0.3l-0.1-0.3c-0.1-0.4-0.1-0.7-0.1-1.1
							c-0.1-1.5,0.1-2.9,0.4-4.3c0.1-0.3,0.2-0.7,0.3-1c0.1-0.4,0.2-0.7,0.3-1c0.2-0.6,0.4-1.3,0.6-1.9c0.2-0.6,0.4-1.3,0.5-1.9
							c0.1-0.6,0.2-1.3-0.4-1.7L255.6,188.5z"/>
					</g>
					<g>
						<path fill="#6A5C50" d="M252.7,192c0,0,0.2,0.9,0.3,2.4c0.2,1.5,0.3,3.7,0.4,6.3c0,0.6,0,1.4,0.1,1.9c0.1,0.7,0.2,1.4,0.3,2.1
							c0.1,0.8,0.1,1.6,0,2.4c0,0.4-0.1,0.9-0.3,1.3c-0.1,0.2-0.2,0.5-0.4,0.7c-0.1,0.1-0.2,0.2-0.4,0.4c-0.1,0.1-0.1,0.1-0.3,0.2
							c-0.7,0.3-1.3,0-1.7-0.3c-0.4-0.3-0.6-0.7-0.9-1c-0.5-0.7-0.9-1.4-1.4-2.1c-0.5-0.7-1-1.4-1.5-2c-0.6-0.6-1.2-1.2-1.9-1.4
							c-0.3-0.1-0.6-0.1-0.9,0l-0.1,0l0,0c0,0,0,0,0,0l-0.1,0c-0.1,0-0.2,0.1-0.3,0.1c-0.1,0.1-0.3,0.2-0.4,0.3
							c-0.5,0.4-0.8,1-1.1,1.8c-0.3,0.8-0.8,1.6-1.3,2.4c-0.5,0.7-0.9,1.4-1.2,2c-0.6,1.2-1,2.8-1.4,4.2c-0.4,1.4-0.7,2.8-1,4.1
							c-0.7,2.5-1.2,4.6-1,6c0,0.7,0.3,1.1,0.7,1.2c0.3,0.1,0.6,0,0.6,0.1l0,0.2c0,0-0.2,0.1-0.7,0.1c-0.2,0-0.6-0.1-0.8-0.4
							c-0.3-0.3-0.4-0.6-0.6-1c-0.3-0.8-0.3-1.8-0.3-2.9c0-1.1,0.2-2.3,0.4-3.6c0.2-1.3,0.4-2.7,0.7-4.2c0.2-0.7,0.3-1.5,0.6-2.3
							c0.2-0.8,0.5-1.6,1-2.4c0.4-0.8,1-1.5,1.4-2.1c0.5-0.7,0.9-1.3,1.3-2c0.4-0.7,0.9-1.7,1.9-2.3c0.2-0.1,0.5-0.2,0.7-0.3
							c0.1-0.1,0.2-0.1,0.3-0.1l0.1,0l0.1,0l0.1,0l0.2,0c0.6-0.1,1.2,0,1.6,0.3c0.9,0.5,1.5,1.2,2,1.9c0.5,0.7,1,1.5,1.4,2.2
							c0.5,0.7,0.9,1.4,1.5,2c0.3,0.3,0.5,0.6,0.8,0.8c0.3,0.2,0.6,0.2,0.6,0.1c0.4-0.2,0.4-1,0.4-1.7c-0.1-0.7-0.2-1.4-0.3-2.2
							c-0.1-0.7-0.2-1.4-0.3-2.2c-0.1-0.8,0-1.5,0-2.1c0.1-2.6,0.3-4.8,0.4-6.3c0.2-1.5,0.3-2.4,0.3-2.4H252.7z"/>
					</g>
					<g>
						<path fill="#6A5C50" d="M221.6,223.6c0,0,0.1,0.1,0.3,0.2c0.2,0.1,0.5,0.3,0.9,0.6c0.7,0.6,1.6,1.5,2.3,2.9
							c0.2,0.3,0.4,0.7,0.5,1.1c0.2,0.5,0.2,0.8,0.4,1.2c0.2,0.8,0.5,1.7,0.6,2.7c0.1,1,0.2,2.1-0.2,3.3c-0.1,0.3-0.2,0.6-0.5,0.9
							c-0.1,0.2-0.3,0.4-0.5,0.7c-0.4,0.5-1,0.9-1.7,1.1c-0.7,0.2-1.6,0.1-2.2-0.3c-0.6-0.4-1-1-1.3-1.5c-0.3-0.6-0.4-1.1-0.5-1.6
							c-0.1-0.5-0.2-1-0.2-1.5c-0.1-1-0.1-1.9-0.1-2.8c0-0.9,0.1-1.7,0.1-2.4c0-1.5,0.4-2.9,0.9-3.6c0.3-0.4,0.5-0.6,0.7-0.8
							C221.5,223.7,221.6,223.6,221.6,223.6z M221.6,223.6c0,0-0.1,0.1-0.2,0.3c-0.1,0.2-0.3,0.5-0.5,0.9c-0.3,0.8-0.3,2-0.2,3.4
							c0.1,0.7,0.2,1.6,0.3,2.4c0.1,0.8,0.2,1.7,0.3,2.6c0.1,0.8,0.4,1.8,0.7,2.5c0.2,0.3,0.4,0.6,0.6,0.7c0.2,0.1,0.4,0.1,0.6,0.1
							c0.2-0.1,0.5-0.3,0.8-0.5c0.1-0.1,0.3-0.3,0.4-0.5c0-0.1,0.1-0.3,0.2-0.4c0.2-0.7,0.3-1.6,0.2-2.4c-0.1-0.9-0.2-1.7-0.3-2.6
							c-0.1-0.9-0.2-1.5-0.5-2.2c-0.5-1.3-1.1-2.4-1.6-3.1C222,223.9,221.6,223.6,221.6,223.6z"/>
					</g>
					<g>
						<path fill="#6A5C50" d="M197.7,243.8c0,1.1,0,2.3,0.1,3.4c0.1,1.1,0.2,2.3,0.2,3.4c0,0.6,0,1.2,0,1.7c0,0.6,0,1.1-0.1,1.8
							c0,0.3-0.1,0.6-0.2,0.9c-0.1,0.3-0.2,0.6-0.3,0.9c-0.1,0.3-0.3,0.6-0.4,0.9c-0.2,0.3-0.4,0.6-0.9,0.9
							c-0.1,0.1-0.3,0.1-0.5,0.2c-0.2,0.1-0.4,0.1-0.6,0c-0.2,0-0.4-0.1-0.6-0.2c-0.1,0-0.2-0.1-0.2-0.2c-0.1-0.1-0.1-0.1-0.1-0.1
							c-0.1-0.1-0.2-0.2-0.2-0.3l-0.1-0.3c-0.1-0.2-0.2-0.4-0.2-0.5c-0.1-0.2-0.1-0.3-0.2-0.5l-0.1-0.4c-0.1-0.2-0.1-0.7-0.1-1
							c0-0.7,0.2-1.3,0.4-1.9c0.2-0.6,0.5-1.1,0.9-1.6c0.7-1,1.4-1.9,2-2.8c0.3-0.5,0.6-1,0.8-1.5c0.2-0.5,0.3-1.1,0.4-1.6h0.1
							l0,0.1l0,0c-0.1,0,0,0,0,0l0-0.2l0-0.4L197.7,243.8z M197.7,243.8l0,0.7l0,0.4l0,0.2c0,0,0,0,0,0l0,0l0-0.1h0.1
							c0,0.6,0,1.2-0.2,1.7c-0.1,0.6-0.3,1.1-0.5,1.7c-0.4,1.1-1,2.1-1.4,3.1c-0.2,0.5-0.4,1-0.5,1.5c0,0.2-0.1,0.5-0.1,0.7
							c0,0.2,0,0.5,0,0.7c0,0.2,0,0.4,0.1,0.7l0.1,0.4l0.1,0.3c0,0.1,0.1,0.2,0.1,0.3l0.1,0.1c0,0,0,0,0,0c0,0,0,0,0,0
							c0,0,0,0-0.1,0c0,0-0.1,0-0.2-0.1c-0.1,0-0.2,0-0.2,0c0,0-0.1,0.1-0.1,0c0,0,0.2-0.2,0.3-0.3c0.1-0.2,0.3-0.4,0.4-0.6
							c0.1-0.2,0.2-0.5,0.3-0.7c0.1-0.2,0.2-0.4,0.3-0.7c0.1-0.5,0.3-1.1,0.4-1.6c0.1-0.5,0.2-1.1,0.3-1.6
							C197.6,248.4,197.7,246.1,197.7,243.8z"/>
					</g>
					<g>
						<path fill="#6A5C50" d="M160.1,264c0.2,0.3,0.3,0.5,0.5,0.8c0.1,0.3,0.2,0.6,0.3,0.9c0.2,0.6,0.3,1.2,0.4,1.8
							c0.2,1.2,0.2,2.4,0.3,3.6c0,0.6,0,1.2,0.1,1.7c0,0.6,0.1,1.2,0.1,1.8c0,0.6,0,1.3-0.2,2c-0.1,0.4-0.2,0.7-0.5,1.1
							c-0.2,0.4-0.6,0.7-0.9,0.9l-0.6,0.4l-0.5-0.5c-0.4-0.3-0.7-0.7-0.9-1c-0.2-0.4-0.4-0.7-0.5-1.1c-0.3-0.7-0.5-1.4-0.6-2.1
							c-0.2-0.7-0.2-1.4-0.3-2.1c-0.1-0.7-0.2-1.4-0.2-2.1c0-0.7,0-1.4,0-2.1c0-0.7,0-1.4,0.2-2.1c0.1-0.4,0.3-0.8,0.5-1.1
							c0.2-0.3,0.5-0.6,0.8-0.8c0.3-0.2,0.7-0.3,1.1-0.3C159.4,263.7,159.8,263.8,160.1,264z M160.1,264c-0.7-0.1-1.3,0.1-1.7,0.6
							c-0.2,0.2-0.4,0.5-0.5,0.7c-0.1,0.3-0.2,0.5-0.2,0.8c0,0.6,0,1.3,0.1,1.9c0.1,0.6,0.2,1.3,0.3,2c0.1,0.7,0.2,1.3,0.3,2
							c0.1,0.6,0.3,1.3,0.4,1.9c0.2,0.6,0.3,1.2,0.6,1.8c0.2,0.5,0.5,1.1,0.8,1.3l-1.1-0.1c0.1-0.1,0.2-0.2,0.3-0.3
							c0.1-0.1,0.2-0.3,0.2-0.5c0.1-0.4,0.2-0.9,0.2-1.5c0-0.6,0-1.1,0-1.7c0-0.6,0.1-1.2,0.1-1.8c0.1-1.2,0.3-2.3,0.3-3.5
							C160.4,266.3,160.4,265.1,160.1,264z"/>
					</g>
					<g>
						<path fill="#6A5C50" d="M140.9,265.8c0,0,0.1,0,0.3,0.1c0.2,0.1,0.6,0.2,0.9,0.5c0.7,0.6,1.3,1.9,1.4,3.4
							c0.2,1.5,0.1,3.3-0.5,5.2c-0.3,0.9-0.6,1.9-1.3,2.8c-0.2,0.2-0.4,0.5-0.6,0.7c-0.2,0.2-0.6,0.4-0.7,0.5
							c-0.2,0.1-0.5,0.3-0.8,0.4c-0.3,0.1-0.6,0.2-0.9,0.3c-0.4,0-0.7,0.1-1.2-0.1c-0.4-0.1-0.8-0.4-1.1-0.7
							c-0.5-0.6-0.7-1.2-0.8-1.8c-0.2-1.1-0.1-2.1,0.1-3.1c0.1-0.9,0.4-1.8,0.7-2.7c0.1-0.4,0.3-0.8,0.5-1.2c0.2-0.4,0.4-0.7,0.6-1
							c0.8-1.3,1.5-2.3,2.1-2.9c0.3-0.3,0.6-0.5,0.9-0.6C140.8,265.6,140.9,265.8,140.9,265.8z M140.9,265.8c0,0-0.1-0.1-0.3,0
							c-0.2,0.1-0.4,0.4-0.6,0.7c-0.4,0.7-0.9,1.8-1.4,3.2c-0.3,0.7-0.5,1.3-0.6,2.1c-0.2,0.8-0.3,1.6-0.3,2.5
							c-0.1,0.8-0.1,1.7,0.1,2.5c0.1,0.4,0.2,0.7,0.3,0.8c0.1,0.1,0.1,0.1,0.4,0.1c0.1,0,0.3-0.1,0.5-0.1c0.2-0.1,0.3-0.1,0.5-0.3
							c0.3-0.1,0.3-0.2,0.4-0.3c0.1-0.1,0.2-0.2,0.4-0.4c0.5-0.6,0.9-1.4,1.2-2.2c0.6-1.6,0.9-3.2,1-4.6c0.1-1.4-0.2-2.5-0.6-3.2
							c-0.2-0.3-0.5-0.5-0.6-0.7C141,265.9,140.9,265.8,140.9,265.8z"/>
					</g>
					<g>
						<path fill="#6A5C50" d="M92.2,296.1c0,0,0-0.1-0.1-0.2c-0.1-0.1-0.2-0.3-0.2-0.7c0-0.3,0.3-0.8,0.8-0.9c0.5-0.2,1-0.2,1.6,0.1
							c0.2,0.1,0.2,0.1,0.4,0.2c0.1,0.1,0.3,0.2,0.4,0.2c0.2,0.2,0.5,0.4,0.7,0.6c0.4,0.5,0.8,1,1,1.6c0.3,0.6,0.4,1.3,0.5,1.9
							c0.1,0.6,0.2,1.2,0.2,1.9c0,0.3,0,0.7,0,1c0,0.1,0,0.2,0,0.3l-0.1,0.2c0,0.1-0.1,0.3-0.2,0.4c-0.1,0.1,0.1-0.1-0.2,0.2l0,0
							l0,0l0,0l0,0l0,0c0,0-0.1,0.1-0.2,0.1c-0.2,0.1-0.3,0.1-0.5,0.1c-0.1,0-0.2,0-0.3,0c-0.6-0.1-0.9-0.3-1.2-0.5
							c-0.3-0.2-0.5-0.4-0.8-0.6c-0.5-0.4-0.8-0.9-1.2-1.4c-0.2-0.2-0.4-0.6-0.4-0.9c-0.1-0.3-0.1-0.5-0.2-0.7
							c-0.2-0.9-0.2-1.7-0.2-2.3c0-0.3,0.1-0.5,0.2-0.7C92.1,296,92.2,296.1,92.2,296.1z M92.2,296.1c0,0-0.1,0-0.1,0.1
							c0,0.1,0.1,0.3,0.1,0.6c0.2,0.5,0.5,1.2,0.9,2c0.1,0.2,0.2,0.4,0.3,0.6c0.1,0.2,0.2,0.2,0.4,0.4c0.3,0.3,0.8,0.7,1.2,1
							c0.2,0.2,0.4,0.3,0.6,0.4c0.2,0.1,0.4,0.2,0.4,0.2c0,0,0,0-0.1,0c-0.1,0-0.2,0-0.3,0.1c0,0-0.1,0.1-0.1,0.1l0,0l0,0l0,0l0,0
							l0,0l-0.2,0.2c-0.1,0.1-0.1,0.2-0.1,0.2l0,0l0-0.1c0-0.2,0-0.5,0-0.8c0-0.6-0.1-1.2-0.1-1.8c-0.1-0.6-0.1-1.1-0.2-1.5
							c-0.1-0.5-0.3-0.9-0.5-1.3c-0.1-0.2-0.2-0.4-0.4-0.5c-0.1-0.1-0.1-0.2-0.2-0.2c-0.1-0.1-0.2-0.2-0.2-0.2
							c-0.2-0.2-0.6-0.3-0.8-0.3c-0.3,0-0.5,0.1-0.6,0.3c-0.1,0.2-0.1,0.4-0.1,0.5C92.2,296,92.2,296.1,92.2,296.1z"/>
					</g>
					<g>
						<path fill="#6A5C50" d="M100.8,302c0,0,0.2,0.1,0.4,0.5c0.2,0.4,0.3,0.9,0.4,1.5c0.1,0.6,0.2,1.2,0.5,1.6
							c0.2,0.2,0.4,0.4,0.6,0.5c0.2,0.1,0.3,0.1,0.2,0.1c0,0,0,0,0,0c0,0,0,0,0,0l0,0l0,0l0,0c0,0.1,0.1-0.1-0.1,0.1l0,0l0,0
							l0.1-0.1c0,0,0.1-0.1,0-0.1c0,0,0,0.1,0,0.1c0-0.1,0-0.4-0.1-0.7c-0.2-0.6-0.6-1.2-0.9-1.7c-0.3-0.5-0.6-0.9-0.8-1.2
							C100.9,302.2,100.8,302,100.8,302z M100.8,302c0,0,0.2,0,0.6,0.2c0.4,0.1,0.9,0.4,1.4,0.8c0.5,0.4,1.1,0.9,1.6,1.7
							c0.2,0.4,0.5,0.8,0.5,1.5c0,0.2,0,0.5-0.1,0.7c0,0.1-0.1,0.1-0.1,0.2l-0.1,0.1l0,0l-0.1,0.1l0,0l0,0l-0.1,0.1
							c-0.1,0.1-0.1,0.1-0.2,0.2c-0.1,0.1-0.3,0.2-0.5,0.3c-0.4,0.2-0.9,0.2-1.2,0.1c-0.4-0.1-0.6-0.2-0.9-0.4
							c-0.2-0.2-0.4-0.4-0.6-0.6c-0.2-0.2-0.3-0.4-0.4-0.7c-0.2-0.5-0.3-1-0.3-1.4c0-0.4,0.1-0.8,0.2-1.1c0.1-0.6,0.3-1.1,0.3-1.4
							c0-0.2,0-0.3,0-0.4C100.8,302.1,100.8,302,100.8,302z"/>
					</g>
				</g>
			</g>
		</g>
	</g>
</g>
<g id="POSE2_1_" opacity="0.5">
</g>
<g id="POSE3_1_" opacity="0.5">
</g>
<g id="ch06-12-1">
	<g id="water_off_hand4" opacity="0.5">
	</g>
	<g id="water_off_hand4_copy" opacity="0.5">
	</g>
</g>
<g id="Layer_12">
	<g id="basin">
		<g id="Layer_15">
		</g>
		<g id="Layer_20">
		</g>
		<g id="Layer_14">
		</g>
		<g id="Layer_17" opacity="0.49">
			<g id="Layer_16">
			</g>
		</g>
		<g id="Layer_17_copy_2" opacity="0.49">
			<g id="Layer_16_copy">
			</g>
		</g>
		<g id="Layer_17_copy" opacity="0.49">
		</g>
	</g>
</g>
<g id="Layer_22">
	<g id="Layer_23">
	</g>
	<g id="Layer_24">
	</g>
	<g id="Layer_24_copy">
	</g>
</g>
<g id="ch02A-09-4">
	<g id="dirtydrips_x5F_fromholes">
	</g>
	<g id="dirtydrips_x5F_fromholes_copy">
	</g>
</g>
<g id="muddy_x5F_water_x5F_pose1">
</g>
<g id="muddy_x5F_water_x5F_pose2" opacity="0.61">
</g>
<g id="muddy_x5F_water_x5F_pose2_copy">
</g>
</svg>
