<?xml version="1.0" encoding="utf-8"?>
<!-- Generator: Adobe Illustrator 18.1.1, SVG Export Plug-In . SVG Version: 6.00 Build 0)  -->
<!DOCTYPE svg PUBLIC "-//W3C//DTD SVG 1.1//EN" "http://www.w3.org/Graphics/SVG/1.1/DTD/svg11.dtd">
<svg version="1.1" xmlns="http://www.w3.org/2000/svg" xmlns:xlink="http://www.w3.org/1999/xlink" x="0px" y="0px"
	 viewBox="0 0 257.3 308.2" enable-background="new 0 0 257.3 308.2" xml:space="preserve">
<g id="water_pouring_instances_-_boards">
</g>
<g id="water_pour_cycle_x5F_main_comp">
	<g id="POSE2">
		<g id="Layer_6">
		</g>
	</g>
	<g id="POSE3">
	</g>
</g>
<g id="POSE1_2_" opacity="0.5">
</g>
<g id="ch04-06-1_x5F_comp">
	<g id="ch04-06-1_x5F_comp_1_">
		<g id="linked_files_for_comp">
		</g>
		<g id="comp">
		</g>
	</g>
</g>
<g id="ch04-06-1_x5F_water_splash_-_Geoff_x27_s">
	<g id="pose4">
	</g>
	<g id="pose3">
	</g>
	<g id="pose2">
	</g>
	<g id="pose1">
	</g>
</g>
<g id="ch04-06-1_x5F_water_splash_-_Stu_x27_s">
	<g id="water_x5F_alt_splash_x5F_1a_to_4a">
	</g>
	<g id="water_x5F_alt_splash_x5F_DIRTY">
		<g id="_x32_alt_1_">
			<g id="water4a_1_">
				<g opacity="0.8">
					<path fill="#A3907F" d="M136.2,56.6c-3.7-2.7-0.4-9.2-2.1-13.2c-1.4-3.4-6.9-6.3-7.1-0.5c-0.2,4.5,5.9,6.8,5.2,11.4
						c-0.6,4-6.5,4.2-8.9,2.2c-4.2-3.4-4.8-5.3-10.7-3.7c-0.2,4.1,5.5,4,5.7,7.8c0.2,4.3-4.7,3-7,2.8c-2-0.2-9-1.6-9.9,1.3
						c-1.7,5.4,6.9,3.5,8.7,4.1c7.2,2.2-2.8,4.4-5.1,5c-0.3,4,4.9,2.5,7.1,2.4c0.9,3.4-12.6,5.7-6.6,9.7c4.3,2.9,11.8-6.3,14.7-3.9
						c2,1.7-1.4,6.2,0.3,8.4c2.3,2.9,5.1-0.1,6.4-2.2c1.4-2.3,1.9-5.4,4.3-6.8c3.4-2,5.3,1.5,8.7,1.5c3.5,0,3.4-1.8,4.1-5
						c0.7-3.5,0.4-3.4,3.8-5c2.2-1.1,5.8-1.6,6.8-4.6c1.6-4.6-2.2-2.8-3.5-5.1c-3-5.6,10.1-10.7,10.1-16.1c0-5.1-3-1-4.9-0.5
						c-4.1,1.1-1.8-0.7-1.1-4.3c0.8-4.6-3.5-7.4-6.1-3.1c-2,3.2,1.2,11.2-1.3,13.2c-2.5,1.9-3.1-3.4-6.3-1.2c-1,0.7-1.2,3.2-2,4.3
						C137.9,57.4,135.9,57.5,136.2,56.6z"/>
					<path fill="#A3907F" d="M97.6,93.1c-3.7,2.6-5.9,9-10.3,10.4c-6.7,2.1-6.3-6.4-2.4-9.9c3-2.7,7.1-3.2,10.4-5.2
						c1.5-0.9,3.1-1.9,3.9-3.6c0.4-0.9,0.3-5.7,0.3-5.7c-2.6,2.3-7.2,4.1-10.7,4.2c-4.4,0.1-7.8-2.3-12.9-2.2
						c-6.4,0.1-14.1,5.1-14,12.6c0,1.9,1,4.7,3.1,4c1.2-0.4,1.7-3.1,2.2-4.4c1-2.4,3.6-8.5,7-6.4c2.3,1.4,2.1,8.5,1.5,10.8
						c-1,3.5-2.8,6.4-4.6,9.4c-2,3.3-4.6,9.8-3.1,13.7c2,5.4,7.7,3.3,11.9,3.3c5.6,0,7.3,2.6,8.6,8.3c0.6,2.6,3.8,14.3,7.4,9.2
						c3.3-4.7-3.4-12.5,3.6-15.7c5.8-2.6,10.1,1.4,11.2,7.8c0.6,3.5,2.6,15.1,8.6,9.4c2.6-2.4,4.7-15.1,8.8-6.3
						c1.7,3.6,2.8,14.6,9,11.9c2.7-1.2-1.2-16.1,5.9-7c4.6,5.9,4.4,24.3,12.2,25.8c5.6,1.1-2.2-13.6-2.9-17c-0.5-2.8-0.8-6.7,2.9-7
						c2.6-0.2,5.1,3.5,6.3,5.5c1.8,3.2,2.5,6.8,3.3,10.7c0.6,3,4,9.9,6.6,5c2-3.7-2.1-10-3.2-13.2c-1.3-3.9-2.9-8.9-2.6-13.2
						c2.8-1.6,7.5,3,9.1,5.2c2.9,3.7,3.3,8.2,5.1,12.5c3.3,7.7,13,10.3,12.9-0.3c0-4.3-1-8.8-1.8-13.1c-0.9-4.8-1.9-7.3-5.6-9.6
						c-1.7-1.1-0.4-4.5-1.1-6.4c-0.7-2.1-1.4-1.1-2.7-2.3c-3-3-2.5-6-5.3-8.3c-3.2-2.5-5.3-4.7-8.2-7.3c-2.7-2.4-5.2-7.4-5.9-11.3
						c7.7,0-5.5-9.1-6.8-9.9c-3.5-2.1-8.5-7.9-12.4-7.6c-0.3,3.8,6.2,7.6,8.8,9.3c5,3.3,4.8,7.4,8.3,12.4c2.9,4.2,7.1,9.6,9,14.4
						c1.3,3.2,1.7,8.1,5.2,10.1c1.7,1,0.9,7.5,6.1,10.9c3.9,2.5,5.7,10.7,4.3,10.2c-0.2,0.5-1.6,0.5-3.9-2.5
						c-4.1-5.1-10.1-14.7-12-14.5c-6.4,0.5-3.9,0-6-4.4c-1.6-3.5-5.5-6.1-7.2-9.7c-1.7-3.7-1.6-7.3-5.8-9c1.1,4.8,1.9,10.1,3,15
						c0.6,2.5,7.1,12.4,4,14.6c-1.3-1.4-3.2-6.5-5.2-6.7c-2-0.2-1.7,3-4.8,2.8c-2.1-3.3-2.9-7.9-4.4-11.6
						c-0.1,1.4,1.5,10.4,0.6,11.2c-2.4,2.4-3.6-4.3-4.5-5.4c-1.2,2.1,0.2,5.6-1.8,6.8c-1.2-1.5-1.1-3.5-1.9-5.1
						c-3,9.6-4.9-0.1-5.9-4.9c-1.6,1.6-2.1,4.2-4.5,4.5c-5-7,0.9-20.6-0.7-28.7c-4.8,5.1-7.3,12.4-12.9,17.1
						c-3.9-2.1,3.6-14.9,4.4-18.5c-2.9,3.2-4.7,7.1-7.3,10.3c-0.1-0.7-0.5-1.6-0.6-2.2c-1.7,2.2-5,18.5-10.6,13.3
						c-5-4.8,4.8-17.8,7.2-22.1c-1.9,0.7-6.4,6.4-8.7,4.6C92.5,100.3,96.3,94.8,97.6,93.1z"/>
					<path fill="#A3907F" d="M64,179.7c0.7,3.5,2.9,6,2.7,9.9c-0.2,3.9-1.2,7.3,2.6,9.5c4,2.3,4.3-0.5,5-4.1
						c0.8-4.5,2.2-4.8,3.9-0.3c0.9,2.3,1,10,4.7,8.4c-0.5-4.6-2.8-9.5-5.2-13.2c-1.1-1.8-2.8-4.3-5.2-2.2c-1.7,1.5-0.1,5.1-3.1,5.4
						C68.8,192.3,66.5,172.1,64,179.7z"/>
					<path fill="#A3907F" d="M92.8,199.8c-1.5,2.1-3.6,10.3,0.7,10.7c3.6,0.3,0.4-8.1,0.1-10.5c-0.3-0.6-0.3,0.1-0.7,0.2"/>
					<path fill="#A3907F" d="M201.6,128.7c2.3,1,5.3,6.5,5.8,9.2c0.5,2.7-1.9,6-3.9,3.6c-1.4-1.7-3.7-11.9-1.4-12.9
						C202.2,128.9,202.2,129.1,201.6,128.7z"/>
					<path fill="#A3907F" d="M217.7,155.4c1.6,1.7,2.3,4.8,2,7.1c-0.3,2.3-2,4.9-3.2,1.6C216,162.8,215,153.5,217.7,155.4z"/>
					<path fill="#A3907F" d="M233.5,123.8c1.5,0.8,1.9,2.8,2.2,4.4c0.2,1.1,0.6,4.9-1.5,3.5c-1.5-1-1.4-6.7-0.4-8
						C233.8,124.1,233.7,124.4,233.5,123.8z"/>
					<path fill="#A3907F" d="M162.8,70.6c3.1,1.5,6.5,2,9.6,3.6c2.3,1.2,5.9,4.4,8.6,3.4c-0.6-3-4.4-3.9-4.7-6.8
						c1.9-0.9,5.4,1,6.9,2.3c2.3,1.9,4.3,3.1,6.9,4.4c2.1,1,6,3.1,5.9,6.3c-0.1,3.5-3.6,2.9-5.2,1.4c-1.8-1.6-3.6-5-6.4-3.8
						c0.4,2.5,1.7,5.5-1.9,4.3c-2.6-0.8-5-4.1-7-5.9c-1.9-1.7-3.8-2-5.7-2.9C167.7,76,167.5,74,162.8,70.6z"/>
					<path fill="#A3907F" d="M162.2,67.3c2.2,0.1,5.4,3.2,7.4,0.5c1.2-1.6-0.7-2,1.7-3c1.5-0.6,2.2,0.2,3.1-1.2
						c0.2-0.4-0.2-1.3,0.1-1.9c0.5-0.9,1-0.9,1.8-1.2c1.2-0.4,2.7-0.1,3.9-0.1c2.6,0.1,5.2,0,7.5,1.4c2.3,1.4,5,3.7,6.7,6
						c1.5,2.1,2.3,4.8,4.1,6.7c1.7,1.8,4.2,3.1,5.5,0.2c1.6-3.3-1.7-7.3-4-8.9c-1.5-1.1-2.5-0.7-2.8-2.9c-0.1-0.5,0.9-1.3,0.4-2.5
						c-0.5-1.2-0.5-0.6-1.4-1c-0.8-0.3-1.7,0.3-2.7-0.4c-0.8-0.6-0.8-2-1.6-2.4c-2.4-1.2-2.1,2.1-1.3,3.6c-1.7-2.1-4.5-3.1-6.7-3.9
						c-2.2-0.9-8.9-0.9-11,0.6c-1.6,1.1-0.3,2.1-2,3.3c-1.2,0.9-3.4,0.1-4.7,0.3c-2.7,0.3-5.5,1.6-8.2,1.6c0.7,1.8,6.2,0.8,8.1,2.3
						c1.7,1.4,1.4,5-1.3,3.3C164.7,67.7,164.6,67.9,162.2,67.3z"/>
					<path fill="#A3907F" d="M200.3,52.6c1.5-0.1,10.7,7.1,6.9,8.2C203.3,62,201.4,55.8,200.3,52.6z"/>
					<path fill="#A3907F" d="M84.7,40.5c1.9-0.6,5.1-0.5,7,0.4c2.2,1,2,2-0.1,2.8c-1.9,0.8-7.7,0.6-7.7-2.5c0.5-0.3,1.3-0.8,1.7-0.9
						"/>
					<path fill="#A3907F" d="M89.9,33.8c0.4-1.4,4.4-6.9,5.8-3.7c0.9,2.2-4,2.8-5.1,3.5c-0.2-0.5,0.1-0.6,0.3-1.1"/>
					<path fill="#A3907F" d="M130.2,26.4c0.9-0.9,4.8-3.2,6.1-1.9c1.8,1.9-1.1,3-2.3,3.4c-0.8,0.3-3.6,1.1-4.3,0.2
						c-1.3-1.7,1.6-1.9,2.2-2.7"/>
					<path fill="#A3907F" d="M181.3,36.2c1.5,0.2,4.9,3.5,2,4c-1.5,0.3-3.1-2.1-3.1-3.5c0.4-0.1,0.9-0.4,1.3-0.3"/>
					<path fill="#A3907F" d="M155.8,221.3c0.5,1.3,3.5,4.7,2.8,6.3c-0.8,1.9-3.4,0.7-4.2-0.5c-0.8-1.2-1.6-4.7-1-6.1
						c1.1-2.7,1.9,0.3,2.6,0.9"/>
					<path fill="#A3907F" d="M142,220.7c0.8,1.4,2.4,10.1,0.8,10.6c-1.1-2.8-2.6-7.3-2.1-10.5C141.5,220.8,141.9,221.4,142,220.7z"
						/>
					<path fill="#A3907F" d="M111.9,211c0.1,3.2,5.5,6.8,2.8,10.5C113.7,219.4,111.8,214.6,111.9,211z"/>
					<path fill="#A3907F" d="M191.8,234.5c0.5,1.8,0.2,5.6-1.8,5.9c-0.3-1.4-1-4.3,0.1-5.5c1.5-1.8,2.6,0.8,1.1,1.6"/>
					<path fill="#A3907F" d="M186.5,240.9c0.3,1.1,1.4,3.9-0.4,4.3c-2,0.4-0.6-2.9,0.3-3.5"/>
					<path fill="#A3907F" d="M141.4,85.6c0.2,1.2,4.5,5.8,5.6,7.6c1.3,2.1,3.1,7.1,5.8,7.2c1-3.3-3.3-6-5-7.9
						C146.5,90.9,143.8,85.5,141.4,85.6z"/>
					<path fill="#A3907F" d="M152.2,105.6c3.1,2.9,5,11,9.8,11.7c3.1,0.5,1.6-2.6,0.3-4c-1.7-1.8-3.6-3.3-5.2-5.2
						c-1.1-1.3-2.6-3.6-4.6-2.6C152.3,106.4,152.7,106.2,152.2,105.6z"/>
					<path fill="#A3907F" d="M137.8,90.9c-0.6,4.9,1.1,10.9,2.6,15.4c0.6,2,2.5,9.3,4.4,9.9c3.2,1,0.5-6.5,0.3-8
						c-0.2-1.6,0.2-3.5-0.2-5c-0.5-1.8-1.2-1.6-2.2-2.9c-2-2.8-1.1-6.9-3.9-9.4C138.5,91.2,138.4,91.4,137.8,90.9z"/>
					<path fill="#A3907F" d="M130,95c1.4,2.3,1.8,8.9,1.9,11.7c0.1,3.3,0.1,6.8,0.9,10.1c0.3,1.4,0.9,3.7,2.7,2.8
						c1.6-0.7,0.5-3,0.5-4.3c-0.2-3.4-0.2-6.3-0.9-9.8C134.3,102.1,133.8,97.2,130,95z"/>
					<path fill="#A3907F" d="M126.2,103.5c0.5,1.8,0.2,3.7,0.3,5.5c0.1,1.8,0.5,4,1.7,1.5c0.6-1.3,0.3-4-0.1-5.4
						c-0.5-1.9-2.4-3.1-1.8-0.5"/>
				</g>
				<g opacity="0.7">
					<g>
						<path fill="#6A5C50" d="M192.1,154c0.5,0.8,0.9,1.8,0.9,2.8c0.1,1-0.1,2.1-0.5,3c-0.4,1-1.2,1.9-2.1,2.4
							c-0.9,0.5-2.1,0.9-3.2,0.7c-1.1-0.1-2.2-0.7-3-1.3c-0.9-0.7-1.5-1.5-2.1-2.3c-0.2-0.2-0.3-0.4-0.4-0.6l-0.4-0.7
							c-0.2-0.4-0.5-0.9-0.7-1.4c-0.4-0.9-0.8-1.8-1.1-2.8c-0.3-0.9-0.6-1.8-0.9-2.8c-0.3-0.9-0.6-1.8-1-2.7
							c-0.7-1.8-1.6-3.4-2.8-4.9c-0.6-0.7-1.3-1.4-2-2c-0.7-0.6-1.4-1.3-2.2-1.9c-0.8-0.6-1.6-1.1-2.4-1.4c-0.8-0.4-1.8-0.5-2.6-0.4
							l0.4-0.4c-0.1,1.1-0.2,2.2-0.1,3.2c0,1.1,0.2,2.1,0.4,3.2c0.2,1.1,0.5,2.1,0.8,3.1c0.3,1,0.7,2.1,1.1,3.1
							c0.8,2,1.7,4.1,2.5,6.1c0.4,1,0.9,2.2,1.1,3.3c0.2,1.2,0.5,2.3,0.2,3.7c-0.1,0.3-0.2,0.7-0.4,1.1c-0.1,0.2-0.3,0.4-0.5,0.5
							c-0.2,0.1-0.4,0.3-0.7,0.4c-0.2,0.1-0.5,0.1-0.7,0.2c-0.2,0-0.4,0-0.6,0c-0.4,0-0.7-0.2-1-0.3l-0.1,0l0,0l0,0l-0.1-0.1l0,0
							l-0.2-0.1c-0.1,0-0.1,0-0.2-0.1l-0.3-0.2l-0.3-0.2l-0.2-0.2c-0.1-0.1-0.2-0.3-0.3-0.4c-0.4-0.6-0.6-1.2-0.8-1.7
							c-0.4-1.1-0.6-2.3-0.8-3.4l-0.3-1.6c-0.1-0.5-0.2-1.1-0.3-1.7c-0.3-2.2-0.4-4.4-0.9-6.5c-0.2-1.1-0.5-2.1-0.9-3.1
							c-0.4-0.9-1.2-1.8-2.3-1.8l0-0.2c0.6-0.1,1.2,0,1.7,0.4c0.5,0.3,0.9,0.8,1.2,1.3c0.6,1,1,2.1,1.4,3.1c0.7,2.2,1.1,4.4,1.5,6.5
							c0.1,0.5,0.2,1,0.4,1.6l0.3,1.6c0.2,1.1,0.5,2.1,0.9,3c0.2,0.5,0.4,0.9,0.6,1.2c0.1,0.1,0.1,0.2,0.2,0.2l0.1,0.1
							c0,0,0,0,0.1,0c0,0,0,0,0,0.1c0,0,0.1,0.1,0.2,0.1l0.2,0.1l0,0c0.1,0-0.1-0.1-0.1,0l0,0l0,0l0.1,0c0.4,0.1,0.8,0.2,0.9,0.1
							c0,0,0,0,0,0c0,0,0-0.1,0.1-0.1c0-0.1,0.1-0.2,0.1-0.4c0.2-0.8,0-1.9-0.2-2.8c-0.2-1-0.5-1.9-0.9-3c-0.8-2.1-1.6-4.1-2.3-6.3
							c-0.7-2.1-1.3-4.3-1.5-6.6c-0.1-1.1-0.2-2.3-0.1-3.4c0-1.1,0.2-2.3,0.3-3.4l0.1-0.3l0.3,0c1.1-0.1,2.1,0.2,3,0.6
							c0.9,0.4,1.7,1,2.5,1.6c0.8,0.6,1.5,1.2,2.3,1.9c0.7,0.6,1.5,1.3,2.2,2c1.4,1.4,2.6,3.1,3.4,4.8c0.5,0.9,0.9,1.8,1.2,2.7
							c0.4,0.9,0.7,1.8,1.1,2.7c0.3,0.9,0.7,1.8,1.1,2.6c0.4,0.9,0.8,1.6,1.3,2.4c0.5,0.7,1.1,1.4,1.7,2c0.7,0.6,1.4,1,2.2,1.1
							c0.8,0.1,1.6,0,2.4-0.4c0.8-0.3,1.4-0.9,1.8-1.7c0.4-0.8,0.7-1.6,0.8-2.6c0.1-0.9-0.1-1.8-0.5-2.7L192.1,154z"/>
					</g>
					<g>
						<path fill="#6A5C50" d="M163.9,153.1c-0.4-1.6-1.3-3-2.4-4.2c-1-1.2-2.3-2.3-3.6-3.2c-1.3-0.9-2.8-1.6-4.2-1.8
							c-0.2,0-0.4,0-0.5,0c-0.1,0-0.3,0-0.4,0.1c-0.2,0.1-0.3,0.2-0.4,0.4c-0.2,0.5-0.1,1.3-0.1,2.1c0.2,1.6,0.3,3.3,0.6,4.8
							c0.1,0.8,0.3,1.5,0.5,2.3c0.1,0.4,0.2,0.7,0.4,1c0.2,0.3,0.3,0.7,0.5,1c0.8,1.4,1.6,2.9,2.3,4.4c0.4,0.8,0.7,1.6,1,2.4
							c0.3,0.9,0.5,1.8,0.5,2.8c0,0.5-0.1,1.2-0.4,1.8c-0.3,0.6-0.9,1.1-1.4,1.4c-0.3,0.1-0.5,0.3-0.9,0.3l-0.3,0.1
							c-0.2,0-0.4,0-0.6,0c-0.7,0-1.3-0.2-1.8-0.4c-1.1-0.5-1.7-1.3-2.3-2c-0.6-0.7-1-1.5-1.4-2.3c-0.8-1.6-1.4-3.1-2-4.7
							c-0.6-1.6-1-3.2-1.5-4.8l-0.7-2.4c-0.2-0.9-0.4-1.6-0.6-2.4c-0.4-1.6-0.8-3.1-1.3-4.6c-0.5-1.5-1.1-2.9-1.9-4
							c-0.4-0.5-0.9-0.9-1.3-1.1c-0.4-0.1-0.8-0.1-1.4,0.1l0.8-1c-0.1,0.6-0.1,1.5,0,2.4c0.1,0.9,0.3,1.9,0.4,2.9
							c0.1,1,0.1,2.3-0.4,3.5l-0.2,0.4l-0.1,0.1l0,0.1l0,0l0,0l-0.1,0.1l-0.1,0.1l-0.2,0.3c-0.1,0.1-0.3,0.3-0.4,0.4
							c-0.6,0.5-1.3,0.8-2,0.8c-1.5,0.1-2.6-0.5-3.5-1.2c-0.9-0.7-1.7-1.5-2.2-2.6c-0.3-0.6-0.4-1-0.6-1.5c-0.1-0.5-0.3-1-0.4-1.4
							l-0.7-2.8c-0.5-1.8-1-3.7-1.9-5.1c-0.5-0.7-1-1.2-1.7-1.3c-0.3-0.1-0.7,0-1.1,0.2c-0.2,0.1-0.4,0.1-0.5,0.3
							c-0.1,0.1-0.3,0.2-0.4,0.3c-0.5,0.6-0.6,1.6-0.8,2.5c-0.2,0.9-0.4,1.9-0.7,2.8c-0.3,1-0.8,1.9-1.4,2.6
							c-0.7,0.7-1.4,1.3-2.2,1.9c0.7-0.7,1.4-1.4,1.9-2.2c0.6-0.8,0.9-1.6,1.1-2.5c0.2-0.9,0.3-1.9,0.4-2.9c0.1-0.9,0.1-2,0.7-3
							c0.2-0.3,0.3-0.5,0.6-0.7c0.2-0.2,0.5-0.3,0.7-0.4c0.5-0.2,1.1-0.4,1.7-0.4c0.6,0,1.2,0.3,1.7,0.6c0.5,0.3,0.9,0.8,1.2,1.2
							c0.6,0.9,1.1,1.8,1.5,2.7c0.4,0.9,0.7,1.9,1,2.8l0.8,2.8c0.1,0.5,0.3,0.9,0.4,1.3c0.1,0.4,0.3,0.9,0.5,1.2
							c0.3,0.7,1,1.2,1.6,1.7c0.7,0.4,1.4,0.7,1.9,0.6c0.2,0,0.4-0.2,0.6-0.3c0,0,0.1,0,0.1-0.1l0.2-0.3l0.1-0.1
							c0,0,0.1-0.1-0.1,0.1l0,0l0,0l0,0l0-0.1l0.1-0.2c0.2-0.6,0.3-1.3,0.2-2.2c-0.1-0.9-0.3-1.8-0.5-2.8c-0.2-1-0.3-2.1-0.1-3.4
							l0.1-0.7l0.7-0.3c1-0.4,2.3-0.6,3.5-0.1c1.1,0.4,1.9,1.2,2.5,2c1.2,1.6,1.8,3.2,2.4,4.8c0.6,1.6,1,3.2,1.4,4.8l0.6,2.3
							l0.7,2.4c0.5,1.6,0.9,3.1,1.4,4.6c0.5,1.5,1.1,3,1.8,4.4c0.4,0.7,0.7,1.3,1.1,1.9c0.4,0.6,0.9,1,1.3,1.3
							c0.2,0.1,0.4,0.2,0.5,0.2c0,0,0,0,0.1,0l0.3-0.1c0,0,0.2-0.1,0.2-0.1c0.2-0.1,0.2-0.1,0.3-0.3c0.1-0.1,0.1-0.3,0.2-0.6
							c0-1.2-0.5-2.7-1.1-4.2c-0.6-1.5-1.3-2.9-2-4.4c-0.2-0.4-0.4-0.8-0.5-1.2c-0.2-0.5-0.3-0.9-0.4-1.3c-0.2-0.9-0.4-1.7-0.4-2.6
							c-0.2-1.7-0.2-3.3-0.3-5c0-0.9-0.1-1.7,0.3-2.8c0.1-0.3,0.3-0.5,0.5-0.8c0.3-0.2,0.5-0.4,0.8-0.4c0.3-0.1,0.6-0.1,0.8-0.1
							c0.3,0,0.5,0,0.7,0.1c1.8,0.4,3.3,1.3,4.6,2.4c1.3,1.1,2.5,2.3,3.4,3.7C162.9,149.9,163.7,151.5,163.9,153.1z"/>
					</g>
					<g>
						<path fill="#6A5C50" d="M114.3,143.6c0,0-0.1-0.1-0.4-0.4c-0.3-0.3-0.6-0.7-1.1-1.3c-0.9-1.2-2-3-2.6-5.8
							c-0.3-1.3-0.4-2.9-0.4-4.6c0-0.2,0-0.5,0-0.6c0-0.2,0-0.4,0-0.6c0-0.2,0-0.4,0-0.6l-0.1-0.5c-0.2-0.7-0.4-1.4-0.9-2
							c-0.9-1.1-2.7-1.7-4.5-1.8c-0.9,0-1.9,0.1-2.9,0.3c-0.3,0.1-0.5,0.1-0.7,0.2c-0.2,0.1-0.4,0.1-0.6,0.3
							c-0.2,0.1-0.4,0.2-0.6,0.3c-0.2,0.1-0.4,0.2-0.6,0.4c-0.7,0.6-1.2,1.3-1.6,2.2c-0.3,0.9-0.5,2-0.5,3.1c0,0.6,0,1.1,0,1.7
							l0.1,0.9c0,0.3,0.1,0.6,0.1,0.9c0.2,1.2,0.6,2.5,0.4,4.2c-0.1,0.8-0.4,1.8-1.1,2.5c-0.2,0.2-0.4,0.4-0.6,0.5l-0.1,0.1
							l-0.1,0.1c0.1,0-0.2,0.1-0.2,0.1l-0.2,0.1c-0.2,0.1-0.2,0.1-0.6,0.2c-0.3,0.1-0.6,0.2-0.9,0.1c-0.6,0-1.2-0.2-1.6-0.5
							c-0.5-0.3-0.8-0.6-1-0.9c-0.5-0.7-0.9-1.4-1.2-2.1c-1.1-2.8-1.3-5.6-1.9-8.4c-0.3-1.4-0.6-2.7-1.2-3.9
							c-0.6-1.2-1.4-2.3-2.7-2.8c-1.2-0.6-2.6-0.5-4.1-0.5c-1.5,0-3,0.1-4.5,0.1c-1.5,0-3.1-0.2-4.6-0.7c-0.8-0.2-1.5-0.6-2.2-1.1
							c-0.7-0.5-1.2-1.2-1.5-2c-0.7-1.6-0.6-3.3-0.3-4.8c0.3-1.5,0.7-3.1,1.3-4.5c2.3-5.8,6.6-10.6,7.7-16c0.3-1.3,0.4-2.7,0.1-3.9
							c-0.1-0.6-0.3-1.2-0.6-1.7c-0.2-0.2-0.3-0.6-0.5-0.7l-0.3-0.4c-0.1-0.2-0.2-0.2-0.3-0.3c-0.2-0.2-0.4-0.3-0.6-0.5
							c-0.2-0.1-0.4-0.3-0.6-0.3c-0.4-0.2-0.9-0.2-1.3-0.1c-0.9,0.2-1.8,0.9-2.5,1.9c-0.2,0.3-0.3,0.5-0.5,0.7l-0.2,0.4l0,0
							c0.1-0.2,0,0,0,0l-0.1,0.1c0,0.1-0.1,0.2-0.1,0.2l-0.2,0.8l-0.2,1c-0.3,1.4-0.6,2.8-1.3,4.3c-0.2,0.4-0.4,0.8-0.8,1.2
							c-0.2,0.2-0.5,0.4-0.7,0.6c-0.3,0.2-0.7,0.3-1,0.4c-0.2,0-0.4,0-0.6,0l-0.3,0c-0.5-0.1-0.2,0-0.3-0.1l-0.1,0l-0.2-0.1l-0.1,0
							l-0.2-0.1c-0.1,0-0.2-0.1-0.3-0.2c-0.2-0.1-0.4-0.2-0.5-0.4c-0.1-0.1-0.2-0.2-0.3-0.3c-0.2-0.2-0.3-0.5-0.5-0.7
							c-0.5-0.9-0.6-1.7-0.7-2.5c-0.1-0.8-0.1-1.5,0-2.2c0-0.7,0.1-1.4,0.3-2.1c0.1-0.4,0.2-0.7,0.3-1.1c0.1-0.3,0.2-0.6,0.4-0.9
							c0.6-1.4,1.3-2.5,2.1-3.6c1.7-2.1,3.9-3.7,6.3-4.6c0.3-0.1,0.6-0.2,0.9-0.3c0.4-0.1,0.6-0.1,0.9-0.2c0.3-0.1,0.6-0.1,0.9-0.2
							c0.3,0,0.6-0.1,0.9-0.1c1.2-0.1,2.4,0.1,3.5,0.3c2.2,0.5,3.9,1.4,5.7,1.9c3.3,1,6.6,0.8,9.2,0.5c2.6-0.3,4.7-0.7,6.1-0.9
							c0.7-0.1,1.2-0.3,1.5-0.4c0.3-0.2,0.4-0.3,0.4-0.3l0.2,0.2c0,0-0.1,0.2-0.4,0.4c-0.3,0.2-0.8,0.5-1.6,0.7
							c-1.4,0.3-3.4,0.9-6,1.5c-1.3,0.3-2.8,0.5-4.5,0.6c-0.8,0-1.7,0-2.6,0c-0.9-0.1-1.9-0.2-2.8-0.4c-1.9-0.4-3.8-1.1-5.6-1.4
							c-0.9-0.2-1.9-0.2-2.8-0.1c-0.5,0.1-0.9,0.1-1.4,0.3c-0.2,0.1-0.6,0.2-0.8,0.2c-0.2,0.1-0.5,0.2-0.7,0.3
							c-1.9,0.8-3.6,2.1-4.9,3.9c-0.6,0.9-1.2,1.9-1.6,2.9c-0.1,0.2-0.2,0.6-0.3,0.9c-0.1,0.2-0.1,0.4-0.2,0.7
							c-0.1,0.5-0.2,1.1-0.2,1.7c0,0.6,0,1.2,0.1,1.7c0.1,0.5,0.2,1.1,0.4,1.3c0,0,0.1,0.1,0.1,0.1c0,0,0,0,0,0c0,0-0.1-0.1-0.1-0.1
							c0,0-0.1,0-0.1,0l0,0c0,0,0,0,0.1,0l0.2,0.1l0.1,0c-0.1,0,0.3,0.1-0.2,0c0,0,0,0,0,0c0,0-0.1,0-0.1,0c0,0-0.1,0-0.1,0
							c0,0,0,0,0.1-0.1c0.1-0.1,0.2-0.3,0.3-0.5c0.5-0.9,0.8-2.3,1.1-3.6l0.3-1c0.1-0.4,0.2-0.7,0.4-1.2c0.3-0.9,0.8-1.5,1.3-2.2
							c1-1.3,2.5-2.5,4.4-2.9c1-0.2,2-0.1,2.9,0.3c0.5,0.2,0.9,0.4,1.3,0.7c0.4,0.3,0.7,0.6,1.1,0.9c0.2,0.2,0.4,0.4,0.5,0.5
							l0.3,0.4c0.3,0.4,0.5,0.8,0.7,1.2c0.4,0.8,0.7,1.6,0.8,2.5c0.3,1.7,0.2,3.4-0.2,5c-0.8,3.2-2.4,5.9-4.1,8.5
							c-1.7,2.5-3.5,5-4.7,7.6c-0.6,1.3-1.1,2.7-1.5,4.1c-0.3,1.4-0.5,2.9,0,4.1c0.5,1.3,1.6,2.1,3,2.6c1.4,0.5,2.8,0.6,4.3,0.7
							c1.5,0.1,2.9,0,4.4-0.1c1.5-0.1,3.1-0.1,4.6,0.4c1.5,0.5,2.7,1.9,3.4,3.2c0.8,1.4,1.2,2.8,1.6,4.2c0.8,2.8,1.2,5.6,2.3,7.8
							c0.3,0.6,0.6,1.1,0.9,1.4c0.4,0.4,0.6,0.5,0.8,0.4c0.1,0,0,0,0.1,0c0,0.1,0.2-0.1,0.3-0.1l0.2-0.1c0,0-0.2,0.1-0.1,0l0,0l0,0
							c0.1,0,0.1-0.1,0.2-0.2c0.2-0.2,0.3-0.6,0.3-1.1c-0.4-4.1-2.3-11,2.4-14.8c0.3-0.2,0.6-0.4,0.9-0.6c0.3-0.2,0.6-0.3,0.9-0.4
							c0.3-0.1,0.6-0.2,0.9-0.3c0.3-0.1,0.6-0.2,0.9-0.2c1.1-0.2,2.3-0.3,3.5-0.3c1.1,0.1,2.3,0.3,3.3,0.8c1,0.5,2,1.2,2.7,2.1
							c0.7,0.9,1,1.9,1.2,2.9c0,0.3,0,0.5,0,0.8c0,0.3,0,0.5,0,0.7c0,0.2,0,0.4,0,0.6c0,0.3,0,0.4-0.1,0.6c-0.2,1.5-0.2,2.9,0,4.2
							c0.3,2.5,1.2,4.4,1.9,5.6c0.3,0.6,0.6,1,0.9,1.3c0.2,0.3,0.3,0.5,0.3,0.5L114.3,143.6z"/>
					</g>
					<g>
						<path fill="#6A5C50" d="M95.4,87.9c-0.5,0.7-1.4,1-2.1,1.4c-0.8,0.3-1.6,0.6-2.4,0.9c-0.8,0.3-1.6,0.6-2.3,1
							c-0.7,0.5-1.4,0.9-2.1,1.4c-0.7,0.5-1.3,1-1.8,1.6c-0.3,0.3-0.5,0.6-0.7,1c-0.1,0.2-0.2,0.4-0.3,0.5c-0.1,0.2-0.2,0.4-0.3,0.6
							c-0.2,0.7-0.4,1.5-0.4,2.3c0,0.8,0,1.6,0.2,2.4c0.2,0.7,0.5,1.5,0.9,1.9c0.2,0.2,0.5,0.3,0.7,0.3c0.1,0,0.3,0,0.4,0
							c0.2,0,0.4-0.1,0.6-0.1c1.5-0.4,3-1.1,4.3-2c0.7-0.5,1.1-1,1.7-1.7c0.5-0.6,1.1-1.3,1.6-2c1-1.3,2-2.7,3-4.1l1.6,1.1
							c-0.9,1.4-1.8,2.8-2.4,4.2c-0.2,0.3-0.3,0.7-0.4,1c-0.1,0.2-0.1,0.3-0.1,0.5c0,0.2-0.1,0.3,0,0.5c0,0.3,0.1,0.5,0.1,0.6
							c0.1,0.1,0.1,0.1,0.2,0.2c0.1,0,0.1,0.1,0.1,0.1l0.1,0l0,0l0,0c0,0-0.3-0.1-0.2-0.1l0,0l0,0l0.1,0c0.3,0.1,0.2,0,0.3,0
							c0.1,0,0.3-0.1,0.4-0.1c0.3-0.1,0.7-0.2,1-0.4c0.7-0.3,1.4-0.7,2.1-1.1c0.7-0.4,1.4-0.8,2-1.3c0.3-0.2,0.7-0.5,1-0.7
							c0.3-0.2,0.6-0.5,0.8-0.7l1.5,1.2c-2.1,3-4.2,5.9-5.9,9c-0.4,0.8-0.9,1.6-1.2,2.3c-0.2,0.4-0.4,0.8-0.5,1.2
							c-0.2,0.4-0.3,0.8-0.5,1.2c-0.3,0.8-0.6,1.6-0.7,2.5c-0.1,0.4-0.1,0.8-0.2,1.3c0,0,0,0.2,0,0.3c0,0.1,0,0.1,0,0.2
							c0,0.2,0.1,0.4,0.1,0.5c0.2,0.7,0.7,1.5,1.2,2.1c0.5,0.6,1.2,1.1,1.9,1.3c0.1,0,0.2,0.1,0.2,0c0.1,0,0.2,0,0.3,0
							c0.1,0,0.2,0,0.4-0.1c0.3-0.2,0.6-0.4,0.9-0.7c0.6-0.6,1.1-1.3,1.5-2.1c0.9-1.5,1.6-3.1,2.2-4.8c0.6-1.7,1.1-3.5,2-5l0.1-0.1
							l0,0.1c0,0,0.2-0.1,0.2-0.2c0.1-0.1,0.1-0.2,0.1-0.4c0-0.3-0.3-0.4-0.6-0.5c0.3,0,0.6,0.2,0.6,0.5c0,0.1,0,0.3,0,0.4
							c0,0.1-0.1,0.1-0.1,0.2c0,0.1-0.1,0.1-0.3,0.1l0.1,0c-0.7,1.7-1.1,3.4-1.6,5.1c-0.5,1.8-1.1,3.5-1.9,5.1
							c-0.4,0.8-0.9,1.6-1.6,2.4c-0.3,0.4-0.7,0.7-1.2,1c-0.1,0.1-0.2,0.1-0.4,0.2c-0.2,0-0.3,0.1-0.5,0.1l-0.3,0
							c-0.2,0-0.3,0-0.5-0.1c-1.1-0.2-1.9-0.9-2.6-1.6c-0.7-0.7-1.2-1.5-1.6-2.5c-0.1-0.2-0.2-0.5-0.2-0.8c0-0.1,0-0.3-0.1-0.5
							c0-0.1,0-0.2,0-0.4c0.1-0.5,0.1-1,0.2-1.4c0.2-0.9,0.4-1.9,0.7-2.7c0.3-0.9,0.6-1.8,1-2.6c0.4-0.8,0.8-1.7,1.2-2.5
							c1.7-3.2,3.8-6.3,5.9-9.2l1.5,1.2c-0.4,0.4-0.7,0.6-1,0.9c-0.3,0.3-0.7,0.5-1,0.8c-0.7,0.5-1.4,1-2.1,1.4
							c-0.7,0.4-1.5,0.9-2.3,1.2c-0.4,0.2-0.8,0.3-1.3,0.5c-0.3,0.1-0.5,0.1-0.8,0.2c-0.4,0-0.8,0-0.9-0.1l-0.1,0l0,0l0,0l-0.2-0.1
							l0,0l0,0l-0.2-0.1l-0.4-0.2c-0.2-0.2-0.5-0.4-0.7-0.7c-0.3-0.6-0.5-1.2-0.5-1.7c0-0.3,0-0.5,0.1-0.8c0-0.3,0.1-0.5,0.2-0.7
							c0.1-0.5,0.3-0.9,0.5-1.3c0.7-1.6,1.7-3,2.6-4.4l1.6,1.1c-1,1.4-2.1,2.7-3.1,4.1c-0.5,0.7-1.1,1.3-1.7,2l-0.4,0.5
							c-0.2,0.2-0.3,0.3-0.5,0.5c-0.3,0.3-0.7,0.6-1.1,0.9c-0.8,0.5-1.6,1-2.4,1.3c-0.8,0.4-1.7,0.6-2.6,0.8
							c-0.3,0.1-0.4,0.1-0.7,0.1c-0.3,0-0.6,0-0.8,0c-0.6-0.1-1.1-0.3-1.5-0.7c-0.8-0.8-1.1-1.7-1.3-2.7c-0.2-0.9-0.2-1.8-0.1-2.7
							c0.1-0.9,0.3-1.8,0.7-2.7c0.1-0.2,0.2-0.4,0.3-0.6c0.1-0.2,0.2-0.4,0.4-0.6c0.3-0.4,0.6-0.7,0.9-1c0.6-0.6,1.4-1.2,2.1-1.6
							c0.7-0.5,1.5-0.9,2.2-1.3c0.8-0.4,1.6-0.6,2.5-0.9c0.8-0.2,1.6-0.5,2.5-0.7C94,88.8,94.8,88.5,95.4,87.9z"/>
					</g>
					<path fill="none" stroke="#6A5C50" stroke-miterlimit="10" d="M144.8,80.9c2.2,0.9,4,2.7,6.2,3.7c1.9,0.9,3.3,2.5,5.1,3.7
						c2.8,1.8,8.2,4.3,8.2,8.4c-1.7,0.2-3.2-1.6-2.8,1.3c0.3,1.8,2,4.6,2.9,6.2"/>
					<g>
						<path fill="#6A5C50" d="M143.4,82.3c1.4,0.3,2.7,1.3,3.8,2.2l1.7,1.4c0.3,0.2,0.6,0.5,0.8,0.7c0.3,0.2,0.6,0.4,0.9,0.6
							c0.6,0.4,1.2,0.7,1.9,1.1c0.6,0.4,1.3,0.7,1.9,1.1c0.6,0.4,1.2,0.8,1.8,1.3c0.3,0.2,0.6,0.5,0.9,0.8c0.3,0.3,0.5,0.7,0.7,1.2
							l0.1,0.4l-0.4,0.3c-0.2,0.1-0.2,0.2-0.3,0.4c0,0.2,0,0.5,0.1,0.8c0.1,0.6,0.4,1.2,0.7,1.8c0.6,1.2,1.5,2.4,2.3,3.5
							c0.8,1.1,1.7,2.2,2.6,3.4l2.5,3.5c0.8,1.2,1.6,2.4,2.4,3.6c0.8,1.2,1.5,2.5,2.2,3.8c0.4,0.7,0.6,1.5,0.8,2.3
							c0.2,0.8,0.2,1.5,0.4,2.2c0.1,0.3,0.1,0.7,0.2,1c0,0.2,0.1,0.4,0.1,0.5c0,0.1,0.1,0.2,0.1,0.4c0.2,0.5,0.6,1,1,1.5
							c0.9,1,2.1,1.9,3.1,3.1c0.5,0.7,0.9,1.5,1.1,2.3c0.1,0.9,0.1,1.6,0.1,2.3c0,0.3,0,0.7,0,1l0,0.5c0,0.2,0.1,0.4,0.1,0.5
							c0.1,0.2,0.1,0.5,0.3,0.7c0.1,0.2,0.3,0.4,0.5,0.5c0.5,0.3,1.2,0.6,1.9,1c0.4,0.2,0.7,0.5,1,0.8c0.1,0.2,0.3,0.3,0.4,0.5
							c0.1,0.1,0.2,0.3,0.3,0.5c0.9,1.3,1.3,2.7,1.9,4c0.3,0.7,0.5,1.3,0.8,1.9c0.3,0.6,0.7,1.3,0.9,2c0.6,1.3,1.1,2.7,1.4,4.1
							c0.4,1.4,0.6,2.8,0.7,4.3l0,0.2l-0.2,0l-0.9,0.1l-0.1,0l-0.1-0.1c-0.4-0.7-0.6-1.5-0.8-2.2c-0.2-0.7-0.5-1.5-1.2-1.9
							c0.7,0.3,1.1,1.1,1.4,1.8c0.3,0.7,0.6,1.4,1,2l-0.2-0.1l0.8-0.2l-0.2,0.3c-0.2-1.4-0.5-2.8-1-4.1c-0.5-1.3-1-2.6-1.6-3.9
							c-0.3-0.6-0.6-1.2-1-1.9c-0.4-0.7-0.7-1.3-1-2c-0.6-1.3-1.2-2.6-1.9-3.7c-0.1-0.1-0.2-0.3-0.3-0.4c-0.1-0.1-0.2-0.2-0.3-0.3
							c-0.2-0.2-0.4-0.4-0.7-0.5c-0.5-0.3-1.2-0.5-1.9-1c-0.4-0.2-0.8-0.6-1-1c-0.3-0.4-0.4-0.8-0.6-1.3c-0.1-0.2-0.1-0.4-0.1-0.5
							c0-0.3-0.1-0.4-0.1-0.6c0-0.4-0.1-0.8-0.1-1.1c0-0.7,0-1.4-0.1-2c-0.1-0.6-0.4-1-0.7-1.5c-0.8-1-1.9-1.8-3-3
							c-0.5-0.6-1-1.3-1.4-2.1c-0.1-0.2-0.2-0.4-0.2-0.6c-0.1-0.2-0.1-0.4-0.1-0.5c-0.1-0.4-0.2-0.8-0.2-1.1c-0.2-1.5-0.4-2.7-1-3.9
							c-0.6-1.2-1.4-2.5-2.1-3.7c-0.7-1.2-1.5-2.4-2.3-3.6l-2.4-3.5c-0.8-1.1-1.7-2.3-2.5-3.5c-0.8-1.2-1.6-2.4-2.3-3.8
							c-0.3-0.7-0.6-1.4-0.8-2.2c-0.1-0.4-0.1-0.9,0-1.4c0.1-0.5,0.5-1,0.9-1.3l-0.3,0.7c-0.1-0.2-0.1-0.4-0.3-0.7
							c-0.2-0.2-0.4-0.5-0.7-0.7c-0.5-0.5-1.1-0.9-1.6-1.3c-0.6-0.4-1.2-0.8-1.8-1.2c-0.6-0.4-1.2-0.8-1.8-1.3
							c-0.3-0.2-0.6-0.5-0.9-0.7c-0.3-0.3-0.5-0.5-0.8-0.8l-1.5-1.6c-0.5-0.5-1-1-1.6-1.4C144.7,82.9,144.1,82.5,143.4,82.3z"/>
					</g>
					<g>
						<path fill="#6A5C50" d="M175.6,137.6c-0.5,0.2-0.9-0.2-1.2-0.4c-0.3-0.3-0.6-0.7-0.9-1c-0.6-0.7-1.1-1.5-1.6-2.2
							c-0.5-0.7-1-1.5-1.6-2.2c-0.1-0.2-0.3-0.3-0.4-0.4c-0.1-0.1-0.1-0.1-0.2-0.1c0,0-0.2-0.1-0.3-0.1l-0.3-0.1l-0.3,0
							c-0.2,0-0.4,0-0.6-0.1c-0.8,0-1.6,0.3-2.7,0.3c-0.5,0-1.1-0.1-1.6-0.4c-0.5-0.3-0.8-0.7-1.1-1.1c-0.6-0.8-1-1.7-1.3-2.6
							c-0.3-0.9-0.6-1.7-1-2.5c-0.3-0.8-0.8-1.4-1.3-2.1c-0.6-0.6-1.2-1.2-1.9-1.8c-0.7-0.6-1.4-1.2-2-2c-0.7-0.7-1.2-1.6-1.6-2.5
							c-0.2-0.5-0.3-0.9-0.5-1.4l-0.4-1.3c-0.3-0.8-0.5-1.7-0.9-2.4c-0.3-0.8-0.8-1.5-1.3-2c-0.5-0.5-1.1-0.9-1.8-1.2l1.2-1.3
							c0.8,2.6,1.4,5.2,1.9,7.7c0.5,2.6,0.9,5.2,1.4,7.7c0.1,0.6,0.3,1.3,0.4,1.9c0.1,0.3,0.2,0.6,0.3,0.8c0.1,0.3,0.3,0.6,0.4,0.8
							c0.6,1.1,1.2,2.3,1.8,3.5c0.3,0.6,0.6,1.2,0.8,1.9c0.2,0.6,0.5,1.3,0.5,2l0.1,0.5l0,0.5c0,0.4-0.1,0.7-0.2,1.1
							c-0.1,0.4-0.3,0.7-0.4,1c-0.2,0.3-0.4,0.6-0.6,0.9l-0.3,0.5l-0.3-0.5c-0.8-1.2-1.7-2.3-2.5-3.5c-0.8-1.2-1.5-2.5-2.1-3.7
							c0.8,1.2,1.6,2.4,2.5,3.5c0.9,1.1,1.9,2.2,2.8,3.3l-0.7,0c0.1-0.3,0.3-0.5,0.4-0.8c0.1-0.3,0.2-0.5,0.2-0.8
							c0-0.3,0.1-0.6,0.1-0.9l0-0.4l-0.1-0.4c-0.1-0.6-0.3-1.2-0.6-1.7c-0.3-0.6-0.6-1.1-0.9-1.7c-0.6-1.1-1.4-2.2-2-3.4
							c-0.2-0.3-0.3-0.6-0.5-0.9c-0.1-0.3-0.3-0.7-0.4-1c-0.2-0.7-0.4-1.3-0.5-2c-0.6-2.6-1.1-5.2-1.7-7.7c-0.5-2.6-1.1-5.1-1.9-7.5
							l-0.6-1.8l1.8,0.6c1,0.3,2,0.9,2.7,1.7c0.7,0.8,1.2,1.7,1.6,2.6c0.4,0.9,0.7,1.8,0.9,2.7l0.4,1.3c0.1,0.4,0.2,0.8,0.4,1.2
							c0.3,0.8,0.7,1.4,1.2,2.1c0.5,0.6,1.2,1.2,1.8,1.9c0.7,0.6,1.3,1.3,2,2c0.6,0.7,1.2,1.6,1.5,2.5c0.4,0.9,0.6,1.8,0.9,2.6
							c0.3,0.8,0.6,1.6,1,2.3c0.4,0.7,0.9,1.2,1.7,1.2c0.7,0.1,1.7-0.2,2.7-0.2c0.3,0,0.5,0,0.8,0.1l0.4,0.1l0.3,0.1
							c0.1,0.1,0.2,0.1,0.4,0.2c0.1,0.1,0.2,0.2,0.3,0.3c0.2,0.2,0.3,0.4,0.5,0.6c0.6,0.8,1,1.6,1.4,2.4c0.4,0.8,0.9,1.6,1.3,2.3
							c0.2,0.4,0.5,0.8,0.8,1.1C174.8,137.4,175.2,137.7,175.6,137.6z"/>
					</g>
					<g>
						<path fill="#6A5C50" d="M149.6,131.1c0.1,0.3,0.1,0.7-0.1,1c-0.2,0.3-0.5,0.5-0.8,0.7c-0.6,0.3-1.3,0.5-2.1,0.5
							c-0.3,0-0.8-0.1-1.1-0.4c-0.3-0.3-0.5-0.6-0.7-0.9c-0.3-0.6-0.6-1.3-0.8-1.9c-0.3-0.6-0.6-1.3-0.8-1.9c-0.2-0.7-0.4-1.3-0.6-2
							c-0.4-1.3-0.7-2.6-1.2-3.9l1-0.3c0.3,1.5,0.6,3,0.9,4.5c0.1,0.8,0.2,1.5,0.3,2.3c0.1,0.8,0.1,1.6,0,2.4
							c-0.1,0.4-0.1,0.8-0.3,1.2c-0.1,0.1-0.1,0.2-0.2,0.3c-0.1,0.1-0.1,0.1-0.2,0.2c-0.2,0.2-0.4,0.3-0.6,0.4c-0.5,0.2-1,0-1.4-0.3
							c-0.3-0.3-0.6-0.6-0.8-0.9c-0.5-0.7-0.8-1.4-1-2.1c-0.1-0.4-0.2-0.8-0.2-1.1c0-0.4,0-0.8,0.3-1.1c-0.2,0.3-0.2,0.7-0.1,1.1
							c0.1,0.4,0.2,0.7,0.3,1.1c0.3,0.7,0.7,1.3,1.1,1.9c0.2,0.3,0.5,0.5,0.8,0.7c0.3,0.2,0.6,0.2,0.8,0.1c0.1-0.1,0.2-0.2,0.3-0.3
							c0,0,0.1-0.1,0.1-0.2c0,0,0.1-0.1,0.1-0.2c0.1-0.3,0.2-0.6,0.2-1c0.1-1.4-0.2-2.9-0.4-4.4c-0.3-1.5-0.6-2.9-0.9-4.5l1-0.3
							c0.5,1.3,0.8,2.6,1.1,3.9c0.2,0.7,0.3,1.3,0.5,1.9c0.2,0.6,0.4,1.2,0.6,1.9c0.2,0.7,0.4,1.3,0.7,1.9c0.1,0.3,0.3,0.6,0.5,0.7
							c0.2,0.2,0.5,0.3,0.8,0.3c0.6,0.1,1.3,0,1.9-0.2c0.3-0.1,0.6-0.3,0.8-0.6C149.6,131.8,149.7,131.5,149.6,131.1z"/>
					</g>
					<g>
						<path fill="#6A5C50" d="M137.2,128.2c0.4,1,0.7,2,0.8,3.1c0,0.6-0.1,1.2-0.2,1.7c-0.2,0.6-0.5,1.1-0.8,1.6l-0.5,0.7l-0.6-0.7
							c-0.9-1-1.2-2.1-1.5-3.2c-0.3-1-0.5-2.1-0.9-2.9l1.9-0.5c0,0.4,0,0.7,0,1c0,0.3-0.1,0.6-0.2,1c-0.2,0.6-0.4,1.2-0.8,1.8
							c-0.2,0.3-0.4,0.6-0.7,0.8c-0.1,0.1-0.3,0.2-0.5,0.4c-0.2,0.1-0.4,0.2-0.6,0.3c-0.4,0.1-0.9,0.2-1.3,0c-0.2,0-0.4-0.1-0.6-0.2
							l-0.1-0.1l-0.1,0l0,0l0,0l-0.1-0.1l0,0l-0.2-0.1c0,0-0.1-0.1-0.2-0.2l-0.2-0.3c-0.1-0.2-0.2-0.3-0.3-0.5
							c-0.1-0.3-0.2-0.6-0.3-0.9c-0.2-0.6-0.2-1.2-0.3-1.8c-0.1-1.1,0-2.3,0-3.4l0-0.1l0,0c0-0.1,0.1-0.1,0.1-0.2c0,0,0-0.1,0.1-0.1
							c0,0,0.1-0.1,0.2,0c0.1,0.1,0.1,0.1,0.1,0.2c0,0,0.1,0.1,0.1,0.1c-0.1,0-0.3-0.1-0.3-0.1c0,0,0,0.1,0,0.3l0-0.1
							c0.4,1.1,0.6,2.2,0.9,3.2c0.1,0.5,0.3,1,0.5,1.5c0.1,0.2,0.2,0.4,0.3,0.6c0.1,0.1,0.1,0.2,0.2,0.2c0,0,0,0,0.1,0
							c0,0,0,0,0.1,0.1l0.2,0.1l0,0c0.1,0-0.1-0.1-0.1-0.1l0,0l0,0l0,0l0,0l0.1,0c0.1,0,0.1,0.1,0.2,0.1c0.1,0,0.2,0,0.3,0
							c0.1,0,0.1-0.1,0.2-0.1c0.1-0.1,0.1-0.1,0.2-0.2c0.1-0.1,0.2-0.3,0.3-0.5c0.4-0.7,0.7-1.8,0.6-2.6l-0.3-6.1l2.2,5.6
							c0.5,1.2,0.6,2.2,0.8,3.2c0.2,1,0.4,2,0.9,2.7l-1.2,0c0.3-0.3,0.6-0.7,0.8-1.1c0.2-0.4,0.4-0.8,0.5-1.3
							C137.2,130.3,137.1,129.3,137.2,128.2z"/>
					</g>
					<g>
						<path fill="#6A5C50" d="M128.7,124c0,0,0,0.1,0,0.4c0,0.3-0.1,0.6-0.2,1.1c-0.1,0.5-0.3,1-0.6,1.6c-0.3,0.6-0.7,1.3-1.5,1.9
							c-0.4,0.3-1,0.5-1.7,0.4c-0.6-0.2-1.1-0.6-1.4-1l-0.1-0.2L123,128l-0.2-0.3c-0.1-0.2-0.3-0.5-0.4-0.7c-0.2-0.5-0.4-1-0.6-1.5
							c-0.6-2-0.9-4.2-0.9-6.5c0-0.6,0.1-1.2,0.2-1.7c0.1-0.5,0.2-1.1,0.3-1.6c0.2-1,0.4-2.1,0.6-3.1c0.2-1,0.4-1.9,0.6-2.9
							c0-0.2,0.1-0.4,0.1-0.6c0-0.2,0-0.4,0.1-0.6c0-0.4,0-0.8,0-1.2c0-1.6,0-3,0.3-4c0.1-0.5,0.3-0.8,0.5-1
							c0.2-0.2,0.2-0.3,0.2-0.3s-0.1,0.1-0.1,0.4c-0.1,0.2-0.2,0.6-0.2,1.1c-0.1,0.9,0.2,2.2,0.4,3.8c0.1,0.4,0.1,0.8,0.1,1.3
							c0,0.2,0,0.5,0,0.7c0,0.3,0,0.4,0,0.7c-0.1,0.9-0.2,1.9-0.3,2.9c-0.1,1-0.2,2-0.4,3.1c-0.1,1.1-0.4,2.1-0.4,3.1
							c0,1,0,2,0.1,3.1c0.1,1,0.3,2,0.5,2.9c0.1,0.5,0.2,0.9,0.4,1.3c0.1,0.2,0.1,0.4,0.2,0.6l0.2,0.3c0,0,0.1,0.1,0.1,0.1l0.1,0.1
							c0.2,0.3,0.4,0.5,0.6,0.6c0.2,0.1,0.4,0.1,0.7-0.1c0.6-0.3,1.1-0.8,1.5-1.3c0.4-0.5,0.7-1,0.9-1.4
							C128.6,124.5,128.7,124,128.7,124z"/>
					</g>
					<g>
						<path fill="#6A5C50" d="M111.5,116.3c-0.1,0.2-0.2,0.4-0.4,0.5c-0.1,0.1-0.2,0.2-0.3,0.3c-0.1,0.1-0.3,0.1-0.4,0.2
							c-0.2,0-0.4,0.1-0.6-0.1c-0.1-0.1-0.2-0.1-0.3-0.2c-0.1-0.1-0.1-0.1-0.2-0.2c-0.1-0.2-0.2-0.3-0.2-0.4
							c-0.1-0.1-0.1-0.3-0.1-0.4c-0.1-0.5-0.1-1-0.1-1.4c0-0.5,0.1-0.9,0.1-1.3c0.1-0.9,0.3-1.7,0.7-2.5c0.3-0.8,0.8-1.6,1.1-2.4
							c0.7-1.6,0.9-3.3,1.3-5c0.2-0.8,0.4-1.7,0.7-2.5c0.1-0.4,0.3-0.8,0.4-1.2c0.2-0.4,0.3-0.8,0.6-1.3l1.9,1
							c-0.5,1.2-1.1,2.4-1.7,3.6c-0.3,0.6-0.7,1.2-1,1.8c-0.4,0.6-0.8,1.1-1.3,1.6l-0.2-0.1c0.3-1.3,0.6-2.6,0.9-3.9
							c0.2-0.6,0.4-1.3,0.6-1.9c0.2-0.6,0.4-1.3,0.7-1.9l1.9,1c-0.2,0.2-0.4,0.6-0.5,1l-0.5,1.1c-0.4,0.8-0.7,1.5-1.1,2.3
							c-0.8,1.5-1.6,3-1.9,4.7c-0.2,0.8-0.2,1.7-0.3,2.5c-0.1,0.8-0.2,1.7-0.4,2.5l-0.3,1.2c-0.1,0.4-0.1,0.8-0.2,1.1
							c0,0.1,0,0.2,0,0.2c0,0.1,0,0.2,0,0.2l0,0.1c0,0,0,0,0,0c0,0,0,0,0,0.1c0.2,0.1,0.7-0.1,1.1-0.3L111.5,116.3z"/>
					</g>
					<g>
						<path fill="#6A5C50" d="M166.6,107.2l0.2,0.5l0.3,0.5c0.2,0.3,0.4,0.6,0.7,0.8c0.3,0.2,0.5,0.5,0.8,0.7
							c0.3,0.2,0.6,0.4,0.9,0.6c1.3,0.8,2.6,1.5,4,2.4c0.3,0.2,0.7,0.5,1,0.8c0.3,0.3,0.5,0.5,0.8,0.8c0.6,0.5,1.1,1,1.7,1.6
							c0.5,0.6,1.1,1.2,1.5,1.9c0.2,0.3,0.5,0.7,0.6,1.1c0.2,0.4,0.3,0.8,0.4,1.2l0.1,0.3l-0.2,0.1c-0.6,0.3-1.1,0.7-1,1.2
							c0.1,0.5,0.6,1,1.2,1.3c0.6,0.4,1.2,0.6,1.8,0.9l1,0.4c0.2,0.1,0.4,0.2,0.5,0.3c0.2,0.1,0.3,0.2,0.5,0.3
							c0.3,0.2,0.7,0.5,0.9,0.8c0.3,0.3,0.5,0.8,0.6,1.3c0.1,1-0.2,1.7-0.3,2.3c-0.1,0.6-0.1,1.1,0,1.7c0,0.1,0.1,0.3,0.1,0.3
							c0.1,0.1,0.1,0.4,0.2,0.4c0.1,0.1,0.2,0.3,0.4,0.5c0.4,0.4,0.9,0.7,1.5,1.1c0.6,0.4,1.2,0.7,1.8,1.2c0.6,0.5,1.2,1.1,1.6,1.9
							l0.1,0.1l0,0.1l0,0.1l0.1,0.2c0.1,0.2,0.1,0.3,0.2,0.5c0.1,0.4,0.2,0.7,0.3,1.1c0.6,2.9,0.5,5.6,0.5,8.4l-0.2,0
							c-0.5-1.3-0.7-2.7-1.1-4.1c-0.3-1.3-0.6-2.7-1-3.9c-0.1-0.3-0.2-0.6-0.3-0.9c-0.1-0.1-0.1-0.3-0.2-0.4l-0.1-0.2l0-0.1l0,0
							c0,0,0,0,0,0l0,0l0,0l-0.1-0.1c-0.2-0.4-0.6-0.8-1.1-1.2c-0.5-0.3-1.1-0.7-1.7-1.1c-0.6-0.4-1.3-0.8-1.8-1.5
							c-0.3-0.3-0.5-0.7-0.8-1.2c-0.1-0.2-0.1-0.3-0.2-0.5c-0.1-0.3-0.1-0.4-0.1-0.7c-0.1-0.8,0-1.7,0.2-2.4
							c0.2-0.7,0.5-1.3,0.5-1.7c0-0.2-0.1-0.4-0.2-0.6c-0.1-0.2-0.3-0.4-0.5-0.6c-0.3-0.2-0.5-0.5-0.8-0.6l-0.9-0.5
							c-0.6-0.4-1.2-0.8-1.8-1.2c-0.5-0.5-1.2-0.9-1.4-1.8c-0.1-0.4,0.1-0.9,0.4-1.2c0.3-0.3,0.6-0.5,0.9-0.8l-0.2,0.4
							c-0.2-0.6-0.7-1.2-1.2-1.7c-0.5-0.5-1.1-1-1.7-1.4c-0.6-0.5-1.2-0.9-1.8-1.4c-0.3-0.2-0.6-0.5-0.9-0.8
							c-0.3-0.3-0.5-0.5-0.8-0.7c-1.2-0.9-2.5-1.7-3.7-2.8c-0.6-0.5-1.2-1.1-1.6-1.8c-0.2-0.4-0.4-0.7-0.6-1.1
							c-0.1-0.2-0.1-0.4-0.2-0.6l0-0.6L166.6,107.2z"/>
					</g>
					<g>
						<path fill="#6A5C50" d="M138.1,76.9c0,0,0.1-0.1,0.2-0.2c0.1-0.1,0.4-0.3,0.7-0.5c0.6-0.4,1.4-1,2.5-1.6
							c0.6-0.3,1.1-0.6,1.9-0.9c0.1,0,0.2-0.1,0.3-0.1l0.3-0.1c0.2,0,0.3-0.1,0.5-0.1c0.3-0.1,0.7-0.2,1-0.3c1.3-0.5,2.7-1.3,4.3-2
							c0.8-0.3,1.6-0.6,2.3-0.8c0.7-0.3,1.2-0.5,1.4-0.9c0.3-0.4,0.4-1,0.4-1.7c0-0.6-0.1-1.1-0.3-1.6c-0.4-0.9-1.3-1.6-1.8-2.1
							c-0.5-0.5-0.8-0.8-0.8-0.8s0.4,0.1,1,0.4c0.3,0.2,0.7,0.3,1.2,0.6c0.4,0.3,0.9,0.6,1.4,1.2c0.4,0.6,0.7,1.3,0.8,2.1
							c0.1,0.7,0.1,1.7-0.4,2.6c-0.2,0.5-0.6,0.9-1,1.2c-0.4,0.3-0.8,0.5-1.2,0.7c-0.8,0.3-1.5,0.6-2.2,0.9c-0.7,0.3-1.4,0.6-2.2,1
							c-0.7,0.3-1.5,0.6-2.3,0.8c-0.4,0.1-0.8,0.2-1.2,0.2c-0.2,0-0.4,0-0.6,0.1l-0.3,0c-0.1,0-0.1,0-0.2,0
							c-0.6,0.1-1.2,0.3-1.8,0.5c-1.1,0.4-2.1,0.7-2.8,0.9c-0.3,0.1-0.6,0.2-0.8,0.3C138.2,76.8,138.1,76.9,138.1,76.9z"/>
					</g>
					<g>
						<path fill="#6A5C50" d="M91.9,41.1c0,0,0.1,0,0.3,0c0.2,0,0.4,0,0.7,0.2c0.3,0.2,0.7,0.5,0.8,1.1c0,0.2,0.1,0.6-0.1,0.9
							c-0.2,0.4-0.6,0.6-0.9,0.7c-0.6,0.2-1.1,0.3-1.7,0.5c-0.6,0.2-1.2,0.4-2,0.5c-0.4,0.1-0.7,0.1-1.1,0.1c-0.2,0-0.4,0-0.6,0
							c-0.1,0-0.4,0-0.6-0.1c-0.8-0.1-1.5-0.3-2.3-0.8c-0.4-0.2-0.8-0.5-1.1-0.9c-0.4-0.4-0.6-1-0.6-1.6l0-0.2l0-0.1l0-0.1l0,0
							l0-0.1l0-0.1c0-0.1,0.1-0.2,0.1-0.3c0.1-0.1,0.1-0.2,0.2-0.3l0.1-0.2c0.1-0.1,0.2-0.2,0.3-0.3c0.4-0.3,0.8-0.4,1.2-0.6
							c0.7-0.2,1.4-0.3,2.1-0.4c0.3,0,0.6,0,1,0c0.4,0,0.6,0.1,0.9,0.2c1.1,0.3,1.9,0.6,2.5,0.9c0.3,0.2,0.5,0.3,0.6,0.5
							C92,41,91.9,41.1,91.9,41.1z M91.9,41.1c0,0,0-0.1-0.1-0.2c-0.1-0.1-0.4-0.1-0.7-0.2c-0.6-0.1-1.5-0.2-2.5-0.2
							c-0.3,0-0.5,0-0.8,0c-0.2,0-0.5,0.1-0.8,0.2c-0.6,0.1-1.1,0.3-1.6,0.5c-0.3,0.1-0.5,0.3-0.6,0.4c0,0-0.1,0.1-0.1,0.1l0,0
							c0,0,0,0,0,0c0,0,0-0.1,0,0l0,0.1l0,0.1l0,0l0,0c0.1-0.2,0-0.1,0-0.1l0,0l0,0c0,0.1,0,0.1,0.1,0.3c0.1,0.1,0.3,0.3,0.6,0.4
							c0.5,0.3,1.1,0.5,1.7,0.6c0.6,0.1,1.2,0.1,1.8,0.1c0.6,0,1.2-0.1,1.8-0.2c0.6-0.1,1.3-0.1,1.7-0.2c0.2,0,0.3-0.1,0.4-0.1
							c0.1-0.1,0.1-0.2,0.2-0.4c0-0.3-0.1-0.6-0.3-0.8c-0.2-0.2-0.4-0.3-0.5-0.4C92,41.1,91.9,41.1,91.9,41.1z"/>
					</g>
					<g>
						<path fill="#6A5C50" d="M90.2,33.3c0,0,0-0.3,0.1-0.7c0.1-0.4,0.4-1,0.7-1.6c0.2-0.3,0.4-0.7,0.7-1c0.3-0.3,0.6-0.7,1-1
							c0.4-0.3,0.8-0.7,1.6-0.8c0.4-0.1,0.9,0,1.3,0.2c0.4,0.3,0.7,0.6,0.8,1c0,0.1,0.1,0.2,0.1,0.2l0,0.1l0,0.1l0,0.1l0,0l0.1,0.3
							c0,0.1,0,0.4,0,0.6c0,0.2-0.1,0.4-0.1,0.6c-0.3,0.8-0.9,1.2-1.4,1.4c-0.5,0.3-1,0.4-1.4,0.4c-0.4,0.1-0.8,0.1-1.2,0.1
							c-0.7,0-1.3,0-1.8-0.1C90.5,33.3,90.2,33.3,90.2,33.3z M90.2,33.3c0,0,0.2-0.2,0.6-0.4c0.4-0.2,1-0.4,1.6-0.7
							c0.6-0.3,1.4-0.6,2-1c0.3-0.2,0.4-0.4,0.4-0.5c0,0,0-0.1,0-0.1c0,0,0.1,0,0-0.1l-0.1-0.3l0,0l0,0l0,0c0,0.1,0-0.1,0,0.1l0,0
							l0,0c0,0,0-0.1,0-0.1c0-0.1-0.1-0.1-0.1-0.1c0,0,0.1,0,0,0c-0.2,0-0.5,0.1-0.8,0.3c-0.7,0.4-1.3,0.9-1.8,1.3
							c-0.5,0.4-1,0.8-1.3,1.1C90.4,33.1,90.2,33.3,90.2,33.3z"/>
					</g>
					<g>
						<path fill="#6A5C50" d="M129.7,26.8c0,0,0.3-0.1,0.6-0.5c0.2-0.2,0.3-0.4,0.5-0.7c0.2-0.3,0.5-0.6,0.8-0.9
							c0.2-0.2,0.4-0.3,0.6-0.4c0.2-0.1,0.4-0.2,0.6-0.3c0.4-0.2,1-0.4,1.6-0.5c0.3-0.1,0.7-0.1,1.1,0c0.2,0,0.4,0.1,0.6,0.2
							c0.1,0.1,0.2,0.1,0.4,0.2c0.3,0.2,0.7,0.4,1,1.1c0.1,0.3,0.1,0.7,0,1c-0.1,0.3-0.2,0.5-0.4,0.7c-0.6,0.6-1.1,0.9-1.7,1.2
							c-0.5,0.3-1.1,0.4-1.6,0.6c-0.5,0.2-1,0.3-1.5,0.4c-0.2,0-0.5,0.1-0.7,0.1c-0.2,0-0.4,0.1-0.7,0.1c-0.2,0-0.5,0-0.8-0.1
							c-0.3-0.1-0.5-0.3-0.6-0.4c-0.3-0.3-0.4-0.7-0.4-1c0-0.3,0.1-0.5,0.2-0.6C129.7,26.8,129.7,26.8,129.7,26.8z M129.7,26.8
							c0,0-0.1,0.1-0.1,0.2c0,0.1,0,0.3,0.1,0.5c0.1,0.2,0.3,0.4,0.5,0.5c0.2,0.1,0.2,0.1,0.3,0c0.1,0,0.2-0.1,0.4-0.1
							c0.2-0.1,0.4-0.2,0.6-0.2c0.2-0.1,0.4-0.2,0.6-0.3c0.4-0.2,0.9-0.4,1.3-0.6c0.5-0.2,0.9-0.4,1.3-0.7c0.4-0.2,0.9-0.5,1-0.7
							c0,0,0-0.1,0,0c0,0,0,0.2,0,0.2c0.1,0.1,0,0-0.1-0.1c0,0-0.2-0.1-0.3-0.2c0,0-0.1,0-0.1-0.1c-0.1,0-0.3-0.1-0.5-0.1
							c-0.4,0-0.8,0.1-1.3,0.2c-0.2,0.1-0.4,0.1-0.7,0.2c-0.2,0-0.3,0.1-0.5,0.1c-0.7,0.3-1.3,0.7-1.8,0.9c-0.2,0.1-0.5,0.1-0.6,0.1
							C129.8,26.8,129.7,26.8,129.7,26.8z"/>
					</g>
					<path fill="none" stroke="#6A5C50" stroke-miterlimit="10" d="M145,74.6c-1.2,1.5-0.3,4.6-1.4,5.7"/>
					<g>
						<path fill="#6A5C50" d="M143,82.1c-0.5,0.5-1.1,0.9-1.9,1.1c-0.7,0.2-1.5,0.2-2.2,0.1c-1.4-0.2-2.8-0.7-4.1-1.1
							c-1.3-0.3-2.7-0.6-3.6-0.1c-1,0.4-1.6,1.6-2.1,2.9c-0.5,1.3-0.9,2.6-1.6,4c-0.7,1.2-1.4,2.6-2.8,3.6c-0.4,0.2-0.8,0.5-1.4,0.5
							c-0.3,0-0.5,0-0.8,0c-0.2-0.1-0.5-0.2-0.7-0.3c-0.2-0.1-0.4-0.2-0.6-0.4c-0.2-0.2-0.3-0.3-0.5-0.5l-0.3-0.4
							c-0.1-0.2-0.3-0.4-0.4-0.6c-0.4-0.8-0.5-1.7-0.4-2.5c0.1-0.8,0.3-1.5,0.5-2.2c0.2-0.7,0.4-1.3,0.5-2c0-0.3,0.1-0.6,0.1-0.9
							c0-0.2-0.1-0.4-0.3-0.6c-0.3-0.3-1-0.3-1.7-0.3c-0.3,0-0.7,0.1-1,0.2c-0.3,0.1-0.6,0.2-1,0.3c-2.6,0.8-5,2.4-7.6,3.5
							c-0.7,0.3-1.4,0.5-2.2,0.4c-0.8,0-1.6-0.5-2.1-1c-0.4-0.5-1.1-1.3-0.8-2.3c0.3-0.9,1-1.4,1.5-1.9l3.1-2.8l0.4-0.4
							c0.1-0.1,0.1-0.1,0.2-0.2l0.2-0.2l0.9-0.6c0.6-0.4,1-0.8,1.2-1.1l0.2,1c0.2,0.1,0,0-0.2,0.1c-0.2,0-0.4,0.1-0.6,0.1
							c-0.5,0.1-1,0.3-1.5,0.4c-0.1,0-0.3,0.1-0.5,0.1c-0.1,0-0.4,0-0.5,0c-0.3,0-0.6-0.1-0.9-0.1c-0.6-0.1-1.2-0.3-1.8-0.6
							c-0.6-0.4-1.1-0.9-1.4-1.6c0-0.1-0.1-0.2-0.1-0.4c-0.1-0.2-0.1-0.4-0.1-0.7c0-0.5,0.3-1.1,0.7-1.4c0.8-0.6,1.4-0.6,1.9-0.7
							c0.3-0.1,0.4-0.1,0.6-0.2c0.3-0.1,0.4-0.2,0.7-0.3c0.9-0.4,1.7-0.8,2.5-1.3c0.2-0.1,0.4-0.3,0.5-0.4c0.1-0.1,0.2-0.2,0.3-0.2
							c0,0,0.1-0.1,0.1-0.1c0,0,0,0,0,0c0,0,0,0,0,0c0,0,0,0.2,0,0.4c0.1,0.2,0.1,0.1,0,0.1c-0.1,0-0.3-0.1-0.5-0.1
							c-0.1,0-0.2,0-0.3,0l-0.4,0c-0.5,0-1,0-1.5,0c-1,0-2.1,0-3.1,0c-1-0.1-2.3-0.1-3.5-0.9c-0.6-0.4-1-1-1.3-1.6
							c-0.1-0.1-0.1-0.3-0.2-0.4c0-0.1,0,0-0.1-0.2l0-0.1l-0.1-0.2c-0.1-0.2-0.1-0.6-0.2-0.9c-0.1-0.6,0-1.4,0.4-2
							c0.4-0.6,0.9-1,1.5-1.3c1.1-0.5,2.3-0.6,3.4-0.6c2.2,0.1,4.2,0.7,6.1,1c1,0.2,2,0.2,3,0.1c1,0,2.1-0.1,3.1-0.1l0,0.2
							c-1,0.1-2,0.3-3,0.5c-1,0.2-2.1,0.3-3.1,0.2c-2.1-0.1-4.1-0.6-6.1-0.5c-1,0-1.9,0.2-2.6,0.6c-0.7,0.4-1,0.9-0.9,1.7
							c0,0.2,0,0.3,0.1,0.6l0.1,0.2l0,0.1c0-0.1,0,0,0,0c0,0.1,0.1,0.2,0.1,0.3c0.2,0.3,0.4,0.6,0.7,0.8c0.5,0.4,1.5,0.5,2.4,0.5
							c1,0,2,0,3,0c0.5,0,1,0,1.6,0l0.4,0c0.2,0,0.3,0,0.5,0c0.3,0,0.6,0.1,1,0.2c0.3,0.1,0.8,0.3,1.2,1c0.2,0.4,0.2,0.8,0.1,1.1
							c0,0.2-0.1,0.3-0.2,0.4c-0.1,0.1-0.1,0.2-0.2,0.3c-0.1,0.2-0.3,0.3-0.4,0.5c-0.1,0.1-0.2,0.2-0.3,0.3
							c-0.3,0.2-0.5,0.4-0.7,0.5c-0.9,0.7-1.9,1.1-3,1.5c-0.2,0.1-0.5,0.2-0.8,0.3c-0.3,0.1-0.6,0.2-0.9,0.2c-0.5,0.1-1,0.2-1,0.3
							c0,0,0.1-0.1,0-0.1c0,0,0,0.1,0,0.1c0,0,0.1,0.2,0.1,0.3c0.1,0.2,0.3,0.5,0.6,0.7c0.3,0.2,0.7,0.3,1.1,0.4
							c0.2,0,0.4,0.1,0.7,0.1c0.2,0,0.1,0,0.2,0c0.1,0,0.2,0,0.3,0l1.5-0.3c0.3,0,0.5-0.1,0.9-0.1c0.3,0,0.7-0.1,1.3,0.3l0.6,0.4
							l-0.4,0.6c-0.5,0.9-1.2,1.3-1.8,1.7l-0.9,0.5l-0.2,0.1c0,0-0.1,0.1-0.2,0.1l-0.4,0.3l-3.3,2.6c-0.5,0.4-1.1,0.8-1.2,1.3
							c-0.1,0.2-0.1,0.4,0,0.7c0,0.1,0.1,0.2,0.2,0.4c0.1,0.1,0.2,0.3,0.3,0.4c0.4,0.5,0.9,0.8,1.5,0.9c0.6,0.1,1.3-0.1,1.9-0.3
							c2.6-0.9,4.9-2.5,7.6-3.5c0.3-0.1,0.7-0.2,1-0.3c0.3-0.1,0.7-0.2,1.1-0.2c0.7-0.1,1.6-0.2,2.4,0.3c0.4,0.3,0.6,0.8,0.7,1.2
							c0.1,0.4,0.1,0.8,0,1.2c-0.1,0.8-0.2,1.5-0.4,2.1c-0.3,1.4-0.4,2.6,0.1,3.5c0.1,0.1,0.1,0.2,0.2,0.3l0.3,0.4l0.3,0.2
							c0.1,0.1,0.2,0.1,0.3,0.2c0.4,0.2,0.6,0.1,1.1-0.1c0.8-0.6,1.6-1.8,2.3-3c0.6-1.1,1-2.5,1.6-3.8c0.3-0.7,0.6-1.3,1.1-2
							c0.1-0.2,0.3-0.3,0.4-0.5c0.2-0.2,0.2-0.2,0.4-0.4c0.3-0.3,0.7-0.5,1.1-0.7c0.8-0.3,1.7-0.3,2.4-0.2c0.7,0.1,1.5,0.3,2.2,0.5
							c1.4,0.5,2.6,1.1,3.9,1.4c1.3,0.3,2.7,0.3,3.8-0.6L143,82.1z"/>
					</g>
					<g>
						<path fill="#6A5C50" d="M151.3,63.2c0,0-0.5-0.4-0.7-1.5c-0.1-0.5,0-1.3,0.4-2c0.4-0.7,1-1.4,1.6-2.2c0.6-0.8,1.3-1.7,2.1-2.6
							c0.8-0.9,1.7-1.9,2.8-2.8c0.6-0.4,1.1-0.8,1.6-1.4c0.5-0.5,0.8-1.1,1.1-1.8c0.3-0.7,0.5-1.4,0.5-2.1c0-0.3-0.1-0.6-0.3-0.8
							l-0.1-0.1l-0.1,0l0,0l0,0c0,0-0.1,0,0.1,0c-0.1,0-0.3-0.1-0.3,0c0,0.1,0.1,0,0,0c-0.2,0.1-0.6,0.4-0.9,0.7
							c-0.3,0.3-0.7,0.6-1,0.9c-0.4,0.3-0.7,0.6-1.2,0.9c-0.5,0.3-1.2,0.4-1.8,0.2c-0.2-0.1-0.3-0.1-0.5-0.2
							c-0.1-0.1-0.2-0.2-0.4-0.3l-0.2-0.1c0,0,0,0-0.1-0.1l0,0l-0.1-0.1c-0.1,0-0.2-0.3-0.3-0.5c-0.2-0.8,0-1.3,0.2-1.8
							c0.3-1,0.9-1.8,0.8-2.5c0-0.9-0.2-1.8-0.5-2.7l-0.1-0.3l-0.2-0.3c-0.1-0.2-0.2-0.3-0.3-0.5c-0.2-0.3-0.5-0.4-0.7-0.5
							c-0.5-0.1-1.4,0.5-1.9,1.2c-0.6,0.7-1.1,1.6-1.3,2.5c-0.3,0.9-0.3,1.9-0.3,2.9c0.1,1,0.3,2.1,0.4,3.3c0.1,1.1,0.2,2.3,0,3.6
							c-0.1,0.6-0.3,1.4-0.9,2.1c-0.3,0.3-0.8,0.6-1.3,0.6c-0.2,0-0.4,0-0.6,0c-0.1,0-0.2,0-0.3,0l-0.1,0l-0.1,0c0,0-0.1,0-0.1,0
							c-0.2,0-0.8-0.3-1-0.6c-0.3-0.2-0.5-0.5-0.7-0.7c-0.4-0.5-0.7-0.8-0.9-0.8c-0.2-0.1-0.5,0-0.9,0.2c0,0-0.1,0-0.1,0.1
							c-0.1,0.1-0.1,0.1-0.2,0.2c-0.1,0.2-0.2,0.3-0.3,0.6c-0.2,0.4-0.4,0.9-0.6,1.5c-0.2,0.5-0.4,1.2-0.9,1.8
							c-0.4,0.6-1.2,1.2-2.1,1.3c-0.4,0-0.8,0-1.2,0l-0.5-0.1l-0.1,0l-0.1,0l-0.1-0.1l-0.2-0.1l-0.4-0.2c-0.1-0.1-0.4-0.2-0.5-0.3
							c-0.4-0.2-0.6-0.5-0.9-0.8c-0.4-0.6-0.7-1.3-0.8-2c-0.3-1.3-0.2-2.6,0-3.7c0.1-1.2,0.3-2.3,0.4-3.4c0-0.1,0-0.3,0-0.4
							c0-0.1,0-0.3,0-0.3c0-0.3,0-0.6-0.1-0.8c-0.1-0.4-0.3-0.9-0.4-1.4c-0.4-0.9-0.9-1.9-1.6-2.6c-0.6-0.7-1.5-1.2-2-1
							c-0.1,0-0.2,0-0.2,0.1c-0.1,0.1-0.1,0.1-0.2,0.1c-0.2,0.1-0.3,0.3-0.5,0.4l-0.1,0.1c0,0,0.1-0.1,0,0l0,0l-0.1,0.1l-0.2,0.3
							c-0.1,0.2-0.2,0.3-0.2,0.5c-0.3,0.7-0.1,1.6,0.3,2.5c0.4,0.9,1,1.7,1.6,2.6c0.3,0.4,0.6,0.9,0.9,1.3c0.3,0.5,0.6,0.9,0.8,1.4
							c0.3,0.5,0.5,1,0.7,1.5c0.1,0.3,0.2,0.5,0.3,0.8c0.1,0.3,0.1,0.5,0.2,0.8c0.2,1.2,0.1,2.4-0.6,3.5c-0.6,1-1.7,1.7-2.7,2
							c-0.5,0.2-1,0.3-1.5,0.4c-0.3,0-0.5,0-0.8,0.1c-0.2,0-0.4,0-0.8-0.1c-1.1-0.2-2-0.8-2.7-1.3c-0.8-0.6-1.4-1.2-2.1-1.8
							c-0.6-0.6-1.2-1.2-1.8-1.8c-0.6-0.5-1.2-0.9-1.9-1.3c-1.3-0.6-2.8-0.9-4-0.4c-0.6,0.3-1,0.6-1,1.1c0.1,0.5,0.4,1.1,0.8,1.5
							c0.8,0.9,1.6,1.6,2.4,2.3c0.7,0.7,1.4,1.4,1.6,2.2c0.2,0.8,0.2,1.5,0.2,2c0,0.5-0.2,1-0.4,1.1c-0.3,0.1-0.4,0-0.4,0
							c0,0,0.2,0.1,0.4-0.1c0.2-0.2,0.3-0.6,0.3-1.1c0-0.5-0.1-1.2-0.3-1.9c-0.2-0.7-0.8-1.4-1.6-2c-0.8-0.6-1.7-1.3-2.5-2.2
							c-0.4-0.5-0.9-1-1-1.8c-0.1-0.4,0.1-0.9,0.4-1.2c0.3-0.3,0.7-0.6,1-0.7c1.4-0.7,3.2-0.5,4.7,0.2c0.8,0.3,1.5,0.8,2.2,1.3
							c0.7,0.6,1.2,1.1,1.9,1.7c0.6,0.6,1.3,1.1,2,1.6c0.7,0.5,1.5,0.9,2.2,1c1.5,0.1,3.5-0.5,4.4-1.8c0.4-0.6,0.5-1.5,0.3-2.3
							c0-0.2-0.1-0.5-0.2-0.7c0-0.2-0.1-0.4-0.2-0.6c-0.2-0.4-0.4-0.9-0.6-1.3c-0.2-0.4-0.5-0.8-0.8-1.3c-0.3-0.4-0.6-0.8-0.9-1.2
							c-0.6-0.8-1.3-1.8-1.8-2.8c-0.3-0.5-0.5-1.1-0.6-1.8c-0.1-0.7-0.1-1.4,0.2-2c0.1-0.3,0.3-0.7,0.5-1l0.2-0.3l0.1-0.1l0,0
							c0,0,0.1-0.1,0.1-0.1l0.2-0.2c0.3-0.2,0.5-0.5,0.8-0.7l0.5-0.3c0.2-0.1,0.4-0.1,0.6-0.2c0.2-0.1,0.4-0.1,0.6-0.1
							c0.2,0,0.4,0,0.6,0c0.4,0.1,0.8,0.2,1,0.4c0.7,0.3,1.1,0.8,1.6,1.2c0.9,0.9,1.5,2,2,3.1c0.2,0.6,0.4,1.1,0.6,1.8
							c0.1,0.4,0.1,0.6,0.1,0.9c0,0.3,0,0.3,0,0.5c0,0.2,0,0.3,0,0.5c-0.1,1.2-0.3,2.3-0.4,3.4c-0.2,2.2-0.2,4.5,1.5,5l0.2,0.1
							c0,0,0.1,0.1,0,0l0,0l0.1,0l0.3,0.1c0.2,0.1,0.4,0,0.6,0c0.3,0,0.5-0.2,0.7-0.5c0.2-0.3,0.4-0.8,0.6-1.3
							c0.2-0.5,0.4-1.1,0.7-1.7c0.3-0.6,0.6-1.2,1.5-1.7c0.6-0.3,1.5-0.6,2.4-0.3c0.9,0.3,1.4,1,1.7,1.4c0.2,0.2,0.3,0.4,0.5,0.5
							c0.2,0.1,0.1,0.1,0.5,0.2c0,0,0.2,0,0.2,0c0.1,0,0.1,0,0.2,0c0.1,0,0.1,0,0.2-0.1c0.1-0.1,0.3-0.5,0.4-1c0.2-0.9,0.1-2,0-3.1
							c-0.1-1.1-0.3-2.1-0.4-3.3c-0.1-1.2,0-2.4,0.4-3.5c0.3-1.2,0.9-2.2,1.7-3.1c0.4-0.4,0.8-0.9,1.4-1.2c0.5-0.3,1.2-0.6,2-0.5
							c0.8,0.1,1.5,0.6,1.8,1.1c0.2,0.2,0.4,0.6,0.5,0.8l0.2,0.4c0.1,0.2,0.1,0.3,0.2,0.4c0.3,1.1,0.5,2.1,0.5,3.2
							c0,0.2,0,0.2,0,0.4c0,0.2,0,0.3-0.1,0.5c-0.1,0.3-0.2,0.6-0.3,0.8c-0.2,0.5-0.4,0.9-0.6,1.3c-0.2,0.4-0.2,0.8-0.2,1
							c0,0.1,0.3,0.4,0.5,0.5c0.2,0.1,0.5,0,0.8-0.1c0.3-0.2,0.7-0.4,1-0.7c0.3-0.3,0.7-0.6,1-0.9c0.4-0.3,0.7-0.6,1.3-0.8
							c0.1-0.1,0.4-0.1,0.6-0.1c0.2,0,0.2,0,0.4,0.1c0.2,0.1,0.1,0,0.2,0.1l0,0l0.1,0.1l0.2,0.1c0.1,0.1,0.2,0.2,0.3,0.3
							c0.4,0.5,0.5,1.1,0.5,1.5c0,1-0.4,1.8-0.7,2.5c-0.3,0.7-0.8,1.5-1.4,2c-0.6,0.6-1.2,1-1.8,1.4c-1.1,0.8-2,1.7-2.9,2.6
							c-0.8,0.9-1.6,1.7-2.2,2.5c-0.7,0.8-1.3,1.4-1.7,2c-0.4,0.6-0.6,1.3-0.5,1.8C150.8,62.7,151.3,63.1,151.3,63.2z"/>
					</g>
					<path fill="none" stroke="#6A5C50" stroke-miterlimit="10" d="M190.6,60.2c-0.1,0.1,0,0.2-0.2,0.2c-0.9-1.7-0.6-4.4,1.5-3.4
						c0.8,0.4,1,1.2,1.6,1.7c0.7,0.6,1.3,0.5,2.1,0.6c0.7,0.1,1.5,0.4,1.8,1.2c0.3,0.8-0.3,1.5-0.1,2.4c0.4,2,3.4,2.8,4.7,4.1
						c1.5,1.5,2.5,3.4,2.6,5.8c0.1,2-1.7,3.5-3.5,2.9c-2.3-0.7-3.4-3.6-4.7-5.5c-1.7-2.5-3.7-5.3-6.3-6.8c-2.4-1.4-5.2-3.1-7.9-3.7
						c-1.9-0.4-5.5,0.4-7,1.9c-0.9,0.9-0.5,2.2-1.6,2.9c-1,0.6-2.7,0-3.4,1.2c-0.3,0.5-0.1,1.2-0.5,1.7c-0.5,0.8-1.5,1.3-2.3,1.4"/>
					<path fill="none" stroke="#6A5C50" stroke-miterlimit="10" d="M189.8,59.4c-1.2-1.1-3.4-1.8-5-2.3c-2-0.6-4-1.6-6-1.7
						c-2.3-0.1-4.6,0.3-6,2.4c-1.1,1.6-1.6,2.8-3.6,2.9c-2.7,0.2-4.6,0.2-7.3,1.3"/>
					<path fill="none" stroke="#6A5C50" stroke-miterlimit="10" d="M181.1,36.4c1.6-0.7,3.2,2.1,3.3,3.6c-1.6,0.4-2.5,0.3-3.5-1.3
						c-0.6-0.9-0.9-2.9,0.9-1.9"/>
					<path fill="none" stroke="#6A5C50" stroke-miterlimit="10" d="M200.7,52.7c1-0.2,3.7,2.4,4.6,3.2c0.8,0.7,3,2,3.1,3.3
						c0.1,1.4-2.1,1.8-3,1.5c-1.3-0.5-2.4-2.1-3.1-3.4c-0.5-1-1.6-2.8-1.4-4C201.1,53.4,201.1,53.5,200.7,52.7z"/>
					<path fill="none" stroke="#6A5C50" stroke-miterlimit="10" d="M165.1,71.7c2.4,2,6.4,2.3,9.2,3.6c2.2,1.1,4.2,4,6.9,2.8
						c0-1.3-2-3-2.8-3.8c-0.8-0.8-3.3-3.3-0.9-3.5c2-0.1,4.1,1.8,5.7,2.8c1.8,1.2,3.8,2.1,5.8,3c2,1,10.8,5.7,6.4,8.8
						c-1.9,1.3-4.3-0.5-5.8-1.8c-1-0.9-5.3-4.6-5.2-1.3c0.1,1.2,1.3,2.2,0.2,3.1c-1.1,0.9-3.7-0.9-4.6-1.6c-1.5-1.1-2.5-2.9-3.9-4
						c-1.3-1-3.1-1.8-4.6-2.2"/>
					<g>
						<path fill="#6A5C50" d="M201.9,129c0,0,0.1,0.1,0,0.4c0,0.1-0.2,0.3-0.3,0.4c-0.1,0.1-0.1,0.2-0.1,0.5c0,0.4,0,0.9,0,1.5
							c0,0.6,0.1,1.2,0.3,1.9c0.1,0.7,0.3,1.4,0.5,2.2c0.2,0.8,0.4,1.6,0.7,2.4c0.3,0.8,0.6,1.6,1.1,2.2c0.1,0.1,0.2,0.3,0.4,0.4
							l0,0c-0.1,0,0,0,0,0l0.1,0.1c0.1,0.1,0.2,0.1,0.2,0.1c0.3,0.1,0.5,0.1,0.5,0.1c0.1,0,0.3-0.2,0.4-0.5c0.2-0.3,0.3-0.7,0.3-1.1
							c0.1-0.8,0.1-1.6-0.1-2.4c-0.3-1.6-1-3.1-1.6-4.4c-0.6-1.3-1.1-2.3-1.6-3c-0.2-0.3-0.5-0.6-0.7-0.6
							C202,129,201.9,129,201.9,129z M201.9,129c0,0,0.1,0,0.4,0c0.2,0,0.6,0.2,0.9,0.5c0.7,0.5,1.5,1.5,2.3,2.7
							c0.4,0.6,0.8,1.3,1.2,2c0.4,0.8,0.8,1.6,1.1,2.5c0.3,0.9,0.4,2,0.3,3.1c-0.1,0.5-0.2,1.1-0.5,1.7c-0.3,0.5-0.7,1.2-1.5,1.5
							c-0.4,0.1-0.8,0.2-1.2,0.1c-0.4-0.1-0.7-0.2-1-0.4c-0.1-0.1-0.3-0.2-0.4-0.3l-0.1-0.1l-0.1-0.1l-0.1-0.1
							c-0.2-0.2-0.4-0.4-0.6-0.7c-0.7-0.9-1-1.9-1.2-2.8c-0.2-0.9-0.4-1.8-0.4-2.7c-0.1-0.8-0.1-1.6-0.2-2.4c0-0.7,0-1.4,0.1-2
							c0.1-0.6,0.2-1.1,0.3-1.5c0.1-0.2,0.2-0.4,0.4-0.5c0.2-0.1,0.3-0.1,0.3-0.2C201.9,129.2,201.9,129,201.9,129z"/>
					</g>
					<g>
						<path fill="#6A5C50" d="M141.5,86.1c2.4,2.2,4,5,5.7,7.7c0.4,0.7,0.9,1.3,1.4,2c0.5,0.6,0.9,1.3,1.5,1.8
							c0.5,0.6,1.1,1.1,1.6,1.6c0.3,0.3,0.6,0.5,0.9,0.7c0.1,0.1,0.3,0.1,0.2,0.1c-0.1,0-0.1,0.1,0-0.1c0.2-0.6,0.1-1.3-0.4-1.8
							c-0.4-0.6-1-1.1-1.6-1.7c-1.1-1.2-2.2-2.4-3.1-3.7c-0.5-0.7-0.9-1.3-1.3-2c-0.4-0.7-0.8-1.4-1.3-2c-0.5-0.6-1-1.2-1.6-1.7
							c-0.3-0.3-0.6-0.5-0.9-0.7c-0.2-0.1-0.3-0.1-0.5-0.1c-0.1,0.1-0.2,0.3-0.3,0.4l0-0.1c0,0,0.1,0,0.1,0c0,0,0,0,0,0c0,0,0,0,0,0
							c0-0.1-0.1-0.1-0.1-0.2C141.7,86.3,141.6,86.2,141.5,86.1z M141.5,86.1c0.1,0.1,0.2,0.2,0.3,0.3c0.1,0,0.1,0.1,0.1,0.2
							c0,0,0,0,0,0.1c0,0.1-0.1,0.1-0.1,0.1c0,0-0.1,0-0.1,0l0,0l0,0c0-0.2,0.1-0.4,0.3-0.6c0.2-0.1,0.5-0.1,0.7,0
							c0.4,0.2,0.7,0.4,1.1,0.6c0.6,0.5,1.3,1,1.8,1.7c0.5,0.6,1,1.3,1.4,2c0.4,0.7,0.9,1.3,1.4,1.9c1,1.2,2.1,2.4,3.2,3.5
							c0.5,0.6,1.1,1.1,1.7,1.8c0.3,0.4,0.5,0.8,0.6,1.3c0.1,0.5,0.1,0.9-0.1,1.4c0,0.1-0.1,0.3-0.2,0.4c-0.1,0.1-0.3,0.3-0.5,0.3
							c-0.4,0.1-0.7-0.1-0.9-0.2c-0.4-0.3-0.7-0.5-1-0.8c-0.6-0.5-1.2-1.1-1.7-1.8c-0.5-0.6-1-1.3-1.5-2c-0.5-0.7-0.9-1.4-1.3-2
							c-0.8-1.4-1.6-2.8-2.4-4.1C143.4,88.7,142.5,87.4,141.5,86.1z"/>
					</g>
					<g>
						<path fill="#6A5C50" d="M152.1,105.9c0,0,0.3,0.5,1.1,1.1c0.4,0.3,0.8,0.7,1.2,1.3c0.4,0.6,0.9,1.2,1.4,1.8
							c0.5,0.7,1.1,1.4,1.7,2.2c0.5,0.8,1,1.7,1.5,2.6c0.6,0.8,1.2,1.6,2.1,2.1c0.2,0.1,0.4,0.2,0.7,0.2c0.1,0,0.3,0.1,0.3,0.1
							l0.4,0c0.1,0,0.2,0,0.3,0c0.1,0,0.2,0,0.2-0.1c0.1,0,0.1-0.2,0.1-0.4c0-0.4-0.2-0.9-0.4-1.4c-0.2-0.5-0.5-0.9-0.8-1.4
							c-0.6-0.8-1.3-1.6-2.1-2.4c-0.7-0.7-1.5-1.5-2.1-2.3c-0.6-0.8-1-1.6-1.6-2.2c-0.5-0.6-1.1-1.1-1.6-1.5
							c-0.3-0.2-0.6-0.3-0.8-0.4c-0.3-0.1-0.5-0.1-0.8,0c-0.5,0.1-0.9,0.1-1,0.3C151.9,105.8,152,105.8,152.1,105.9
							C152.1,105.9,152.1,105.9,152.1,105.9z M152.1,105.9C152.1,105.9,152.1,105.9,152.1,105.9c-0.1-0.1-0.3-0.1-0.3-0.3
							c0.2-0.3,0.6-0.4,1.1-0.5c0.2,0,0.5-0.1,0.8,0c0.3,0.1,0.6,0.2,1,0.3c0.6,0.3,1.3,0.8,1.9,1.4c0.3,0.3,0.6,0.7,0.8,1.1
							c0.3,0.4,0.5,0.7,0.9,1.1c0.6,0.7,1.4,1.4,2.1,2.1c0.8,0.7,1.6,1.5,2.2,2.4c0.3,0.5,0.6,1,0.9,1.5c0.3,0.5,0.5,1.1,0.6,1.8
							c0,0.2,0,0.4-0.1,0.6c-0.1,0.2-0.2,0.4-0.4,0.6c-0.2,0.2-0.4,0.2-0.6,0.3c-0.2,0-0.4,0-0.6,0.1l-0.4,0c-0.2,0-0.3-0.1-0.5-0.1
							c-0.3-0.1-0.6-0.2-0.9-0.3c-1.1-0.6-1.8-1.6-2.4-2.5c-0.6-0.9-1-1.9-1.4-2.7c-0.5-0.8-1-1.5-1.5-2.2c-0.5-0.7-0.9-1.4-1.3-1.9
							c-0.4-0.6-0.8-1-1.1-1.4C152.4,106.4,152.1,105.9,152.1,105.9z"/>
					</g>
					<g>
						<path fill="#6A5C50" d="M137.8,91.3c0,0-0.1,0.2-0.2,0.6c-0.1,0.4-0.2,1-0.2,1.7c0,0.7,0.1,1.7,0.4,2.7c0.2,1,0.5,2.2,0.9,3.4
							c0.4,1.2,0.7,2.6,1.1,4c0.1,0.4,0.2,0.7,0.3,1.1c0.1,0.4,0.2,0.7,0.4,1.1c0.2,0.7,0.5,1.5,0.7,2.2c0.5,1.5,1.1,3,1.8,4.5
							c0.4,0.7,0.8,1.4,1.2,2c0.1,0.2,0.2,0.3,0.4,0.4l0.2,0.2c0.1,0.1,0.2,0.2,0.2,0.2c0,0.1,0.2,0-0.1,0c-0.1,0-0.3,0.1-0.4,0.1
							c-0.1,0.1-0.1,0.1,0,0c0.1-0.1,0.1-0.5,0.2-0.9c0-0.4,0-0.8,0-1.2c0-0.8-0.1-1.6-0.1-2.5c-0.1-0.8-0.1-1.7-0.1-2.5
							c0-0.8,0-1.7,0-2.5c0-0.8,0-1.6-0.1-2.2c-0.1-0.7-0.5-1.3-0.9-1.9c-0.8-1.2-1.4-2.7-1.6-3.9c-0.3-1.3-0.5-2.4-0.9-3.4
							c-0.3-1-0.8-1.8-1.3-2.4c-0.2-0.3-0.5-0.5-0.7-0.7c-0.2-0.2-0.5-0.3-0.7-0.2c-0.2,0.1-0.3,0.1-0.4,0.1
							C137.8,91.3,137.8,91.3,137.8,91.3z M137.8,91.3c0,0,0,0,0.1,0.1c0.1,0.1,0.3,0,0.4-0.1c0.2-0.1,0.5,0,0.7,0.2
							c0.2,0.2,0.5,0.4,0.7,0.7c0.5,0.6,1,1.4,1.4,2.3c0.4,1,0.7,2.1,1.1,3.3c0.2,0.6,0.4,1.2,0.8,1.8c0.3,0.6,0.7,1.1,1.2,1.7
							c0.5,0.6,1,1.3,1.2,2.1c0.3,0.9,0.3,1.6,0.4,2.5c0.1,0.8,0.1,1.6,0.2,2.4c0.1,0.8,0.2,1.6,0.3,2.5c0.1,0.9,0.2,1.7,0.2,2.6
							c0,0.4,0,0.9,0,1.4c0,0.5-0.1,1-0.3,1.6c0,0.1-0.1,0.2-0.2,0.3c-0.1,0.1-0.1,0.2-0.3,0.3c-0.2,0.2-0.6,0.4-1,0.4
							c-0.7-0.1-0.9-0.3-1.2-0.5c-0.1-0.1-0.2-0.2-0.3-0.2c-0.1-0.1-0.2-0.2-0.3-0.3c-0.2-0.2-0.3-0.4-0.4-0.6
							c-0.6-0.8-1-1.6-1.3-2.4c-0.7-1.6-1.1-3.3-1.5-4.9c-0.2-0.8-0.3-1.6-0.5-2.3c-0.1-0.4-0.2-0.8-0.2-1.1
							c-0.1-0.4-0.1-0.7-0.2-1.1c-0.3-1.5-0.5-2.8-0.7-4.1c-0.2-1.3-0.5-2.4-0.6-3.5c-0.2-1-0.3-1.9-0.3-2.7c0-0.8,0.1-1.3,0.2-1.7
							C137.7,91.5,137.8,91.3,137.8,91.3z"/>
					</g>
					<g>
						<path fill="#6A5C50" d="M130.1,95.4c0.4,1,0.9,2,1.2,3c0.4,1,0.7,2,1,3.1c0.2,1.1,0.2,2.2,0.2,3.3c0,1.1,0,2.1,0.1,3.2
							c0.1,2.2-0.1,4.3,0.1,6.4c0.1,1,0.3,2.1,0.7,3c0.2,0.4,0.5,0.9,0.8,1.2c0.3,0.4,0.7,0.7,1,0.7c0.1,0,0.2,0,0.3-0.2
							c0,0,0.1-0.1,0.1-0.1l0.1-0.2c0-0.1,0-0.1,0.1-0.3c0.1-0.4,0.1-1,0-1.5c-0.1-1-0.3-2.1-0.4-3.2c-0.3-2.1-0.6-4.2-0.9-6.4
							l-0.4-3.2c-0.1-1.1-0.3-2.1-0.5-3.1c-0.2-1-0.5-2.1-1-3c-0.4-1-1.1-1.8-2-2.3l0.1-0.1l0,0.2c0,0.1,0,0.1,0,0.2
							c-0.1,0-0.1,0-0.1,0c0,0,0,0-0.1-0.1c0,0-0.1-0.1-0.1-0.1C130.4,95.7,130.2,95.6,130.1,95.4z M130.1,95.4
							c0.1,0.2,0.3,0.4,0.4,0.5c0,0,0.1,0.1,0.1,0.1c0,0,0.1,0.1,0.1,0.1c0,0,0-0.1,0-0.1l0-0.2l0-0.1l0.1,0c1,0.4,1.8,1.3,2.3,2.3
							c0.5,1,0.9,2,1.2,3c0.3,1,0.5,2.1,0.6,3.2l0.5,3.2c0.4,2.1,0.7,4.2,1,6.4c0.2,1.1,0.3,2.1,0.5,3.2c0,0.6,0.1,1.1,0,1.7
							c0,0.1-0.1,0.3-0.2,0.5l-0.1,0.2c-0.1,0.1-0.1,0.2-0.2,0.3c-0.2,0.3-0.7,0.5-1.1,0.5c-0.8-0.1-1.3-0.6-1.7-1
							c-0.2-0.2-0.4-0.5-0.5-0.7c-0.1-0.2-0.3-0.5-0.4-0.8c-0.5-1.1-0.7-2.2-0.8-3.3c-0.2-2.2,0-4.4,0-6.5c0-1.1,0-2.2,0-3.2
							c0-1.1,0.1-2.1-0.1-3.2C131.5,99.4,130.8,97.4,130.1,95.4z"/>
					</g>
					<g>
						<path fill="#6A5C50" d="M126.5,103.4L126.5,103.4c0,0,0,0.3,0.1,0.8c0.1,0.5,0.3,1.1,0.5,2c0.1,0.5,0.1,0.9,0,1.4
							c0,0.5-0.1,1-0.2,1.5c-0.1,0.5-0.1,1,0,1.6c0.1,0.3,0.1,0.5,0.3,0.8c0.1,0.1,0.1,0.2,0.2,0.2c0,0,0,0,0,0c0,0,0,0,0,0
							c0,0,0,0,0-0.1c0.2-0.4,0.2-1,0.3-1.5c0.1-0.5,0.1-1.1,0.1-1.6c0-1,0-1.9-0.2-2.7c-0.1-0.4-0.2-0.7-0.3-1
							c-0.1-0.3-0.3-0.5-0.4-0.7C126.7,103.7,126.4,103.5,126.5,103.4L126.5,103.4z M126.5,103.4c0,0,0.3,0.1,0.7,0.4
							c0.1,0.1,0.2,0.2,0.3,0.3c0.1,0.1,0.2,0.2,0.3,0.4c0.2,0.3,0.4,0.7,0.6,1.1c0.2,0.4,0.3,0.9,0.3,1.4c0.1,0.5,0.1,1,0,1.6
							c0,0.5-0.1,1.1-0.3,1.7c-0.1,0.6-0.3,1.1-0.7,1.7c-0.1,0.1-0.1,0.2-0.3,0.2c-0.1,0.1-0.4,0-0.4-0.1c-0.2-0.2-0.2-0.3-0.3-0.5
							c-0.1-0.3-0.2-0.6-0.2-0.8c-0.1-0.5-0.2-1.1-0.3-1.6c-0.1-0.5-0.2-1-0.2-1.5c0-0.5,0-1,0-1.3c0-0.8-0.1-1.5,0-2
							C126.3,103.7,126.4,103.4,126.5,103.4L126.5,103.4z"/>
					</g>
					<g>
						<path fill="#6A5C50" d="M233.2,124c0,0,0.1,0.3,0.1,0.9c0,0.6,0.1,1.3,0.1,2.2c0,0.5,0,0.9,0.1,1.5c0,0.5,0.1,1,0.2,1.5
							c0.1,0.5,0.3,1,0.5,1.2c0.2,0.2,0.4,0.3,0.8,0.3c0.1,0,0.1,0,0.1,0c0,0,0,0,0,0c0,0,0,0,0,0c0,0,0.1-0.2,0.1-0.4
							c0.1-0.4,0-1,0-1.5c-0.2-1-0.4-2.1-0.7-2.9c-0.3-0.9-0.5-1.6-0.8-2.1C233.4,124.2,233.2,124,233.2,124z M233.2,124
							c0,0,0.1,0,0.2,0.1c0.1,0.1,0.3,0.2,0.5,0.4c0.4,0.4,1,1,1.5,1.8c0.5,0.8,1,1.8,1.4,3c0.1,0.6,0.3,1.3,0.2,2.1
							c0,0.4-0.1,0.9-0.5,1.3c-0.2,0.2-0.4,0.4-0.7,0.6c-0.1,0.1-0.3,0.1-0.4,0.2c-0.2,0-0.4,0.1-0.4,0.1l-0.1,0l-0.1,0l0,0l-0.1,0
							l0,0l0,0l-0.3,0c-0.2,0-0.5-0.1-0.7-0.2c-0.5-0.2-0.8-0.5-1.1-0.9c-0.5-0.7-0.6-1.5-0.7-2.1c-0.1-0.6,0-1.3,0.1-1.8
							c0.1-0.6,0.2-1.1,0.3-1.5c0.2-0.9,0.5-1.7,0.7-2.2C233.1,124.3,233.2,124,233.2,124z"/>
					</g>
					<g>
						<path fill="#6A5C50" d="M216.3,155.3c0,0-0.2,0.3-0.4,1c-0.1,0.3-0.2,0.7-0.2,1.2c0,0.5-0.1,1,0,1.6c0.1,1.2,0.3,2.5,0.8,3.9
							c0.2,0.6,0.5,1.3,0.9,1.7c0.2,0.2,0.3,0.2,0.3,0.2c0,0,0.2,0,0.4-0.2c0,0,0.3-0.2,0.3-0.3c0.1-0.1,0.1-0.2,0.2-0.3
							c0.2-0.2,0.3-0.5,0.4-0.8c0.2-0.6,0.3-1.3,0.3-2c0-0.7,0-1.4-0.1-2c-0.2-0.6-0.4-1.2-0.6-1.8c-0.5-1.1-1-1.9-1.5-2.4
							c-0.2-0.2-0.5-0.3-0.7-0.2C216.4,155.2,216.3,155.3,216.3,155.3z M216.3,155.3c0,0,0-0.1,0.2-0.2c0.1-0.2,0.5-0.1,0.7,0.2
							c0.5,0.5,1.1,1.3,1.8,2.2c0.3,0.5,0.7,1,1.1,1.6c0.4,0.7,0.6,1.4,0.7,2.2c0.1,0.8,0.2,1.6,0,2.6c-0.1,0.5-0.3,0.9-0.5,1.4
							c-0.1,0.2-0.3,0.4-0.5,0.7c-0.3,0.3-0.2,0.2-0.6,0.5c-0.4,0.3-1,0.6-1.8,0.5c-0.8-0.1-1.3-0.6-1.6-1.1
							c-0.6-0.9-0.7-1.7-0.8-2.5c-0.1-1.6,0-3,0.2-4.2c0.2-1.2,0.4-2.2,0.6-2.8C216.1,155.6,216.3,155.3,216.3,155.3z"/>
					</g>
					<g>
						<path fill="#6A5C50" d="M64.6,178.6c-0.2,0.2-0.2,0.4-0.2,0.6c0,0.2,0.1,0.5,0.2,0.7c0.2,0.5,0.4,0.9,0.6,1.3l0.7,1.3
							c0.3,0.4,0.5,0.9,0.7,1.4c0.4,1,0.8,2,0.9,3.1c0.2,1.1,0.1,2.3-0.1,3.3c-0.1,1-0.4,2-0.5,3c-0.1,1-0.1,2,0.2,2.9
							c0.2,0.5,0.4,0.9,0.7,1.3c0.3,0.4,0.7,0.7,1.1,1c0.8,0.6,1.7,1.1,2.6,1c0.4,0,0.7-0.2,0.8-0.5c0.2-0.3,0.3-0.7,0.4-1.2
							l0.3-1.5l0.2-0.7l0.1-0.7c0.1-0.5,0.2-1,0.3-1.6c0.1-0.3,0.2-0.6,0.3-0.9c0.1-0.3,0.3-0.6,0.5-0.8c0.3-0.3,0.5-0.7,1-0.9
							c0.5-0.3,1.2-0.2,1.7,0.1c0.4,0.2,0.7,0.5,0.9,0.8c0.2,0.3,0.4,0.5,0.5,0.8c0.3,0.5,0.5,1.1,0.6,1.7c0.1,0.5,0.2,1,0.3,1.6
							c0.1,1,0.3,2,0.5,3c0.2,1,0.4,2,0.8,2.8c0.4,0.9,0.9,1.7,1.9,1.4l-0.1,0.1c0-0.1,0.1-0.1,0-0.1c0-0.1-0.1-0.1-0.2-0.2l0.1-0.2
							c0.1,0,0.2,0.1,0.3,0.2c0.1,0.1,0.1,0.3,0.1,0.5l0,0.1l-0.1,0.1c-0.5,0.3-1.2,0.3-1.8,0c-0.6-0.3-0.9-0.8-1.3-1.2
							c-0.6-0.9-1-2-1.4-3c-0.3-1-0.6-2-0.8-3c-0.1-0.5-0.2-1-0.4-1.5c-0.1-0.4-0.3-0.8-0.5-1.2c-0.2-0.4-0.5-0.7-0.5-0.7
							c0,0,0.1,0,0.2,0c0,0-0.1,0.1-0.1,0.1c-0.5,0.6-0.7,1.5-0.9,2.5l-0.2,0.8c-0.1,0.3-0.2,0.5-0.2,0.8c-0.1,0.5-0.3,1-0.4,1.5
							c-0.2,0.5-0.4,1.1-0.9,1.6c-0.5,0.6-1.2,0.8-1.9,0.7c-1.3-0.1-2.2-0.9-3-1.5c-0.4-0.3-0.8-0.7-1.1-1.1
							c-0.3-0.4-0.7-0.9-0.9-1.4c-0.5-1-0.7-2.1-0.8-3.2c-0.1-1.1-0.1-2.1,0-3.2c0-1,0.1-2,0-2.9c-0.1-0.9-0.3-1.9-0.6-2.8
							c-0.2-0.5-0.3-0.9-0.5-1.4c-0.2-0.5-0.4-1-0.5-1.5c-0.2-0.5-0.3-1-0.3-1.6c0-0.3,0-0.6,0-0.9c0.1-0.3,0.3-0.6,0.5-0.7
							L64.6,178.6z"/>
					</g>
					<g>
						<path fill="#6A5C50" d="M67.2,180.6c0,0,0.3,0.6,0.6,1.7c0.4,1.1,0.8,2.7,1.3,4.6c0.1,0.5,0.2,1,0.3,1.6
							c0.1,0.6,0.1,1.1,0.1,1.7c0,0.6,0,1.1,0,1.7c0,0.3,0,0.5,0.1,0.8c0,0.2,0.1,0.5,0.2,0.5c-0.1,0,0.1,0.1,0.1,0.1c0,0,0,0,0,0
							c0,0,0.1,0,0.2-0.1c0.2-0.1,0.3-0.4,0.5-0.6c0.3-0.5,0.5-1.1,0.7-1.7c0.2-0.6,0.4-1.2,0.7-1.9c0.2-0.6,0.5-1.3,1-1.9
							c0.3-0.3,0.7-0.6,1.2-0.7c0.2,0,0.5,0,0.7,0c0.2,0,0.5,0.1,0.7,0.2c0.4,0.2,0.8,0.4,1.1,0.7c0.3,0.3,0.5,0.6,0.7,0.8
							c0.4,0.5,0.7,0.9,1.2,1.4c0.4,0.4,0.9,0.9,1.3,1.4c0.2,0.3,0.4,0.6,0.6,0.9l0.2,0.4l0.2,0.4c0.3,0.6,0.5,1.1,0.7,1.7
							c0.4,1.1,0.7,2.1,1,3c0.6,1.9,1,3.6,0.8,4.9c0,0.3-0.1,0.6-0.3,0.9c-0.2,0.2-0.3,0.4-0.5,0.5c-0.4,0.1-0.5,0-0.5,0l0-0.2
							c0,0,0.2,0,0.4-0.2c0.2-0.1,0.3-0.5,0.2-1c-0.2-1-0.8-2.5-1.7-4.2c-0.4-0.9-0.8-1.9-1.3-2.9c-0.5-1-0.9-2.1-1.5-2.9
							c-0.3-0.4-0.7-0.9-1.1-1.4c-0.4-0.5-0.9-1.1-1.2-1.7c-0.3-0.6-0.6-1-0.9-1.2c-0.1-0.1-0.2-0.1-0.3-0.1
							c-0.2-0.1-0.2-0.1-0.3-0.1c-0.2,0-0.4,0-0.6,0.2c-0.4,0.3-0.8,0.8-1.1,1.4c-0.3,0.6-0.5,1.2-0.8,1.8c-0.2,0.6-0.4,1.2-0.7,1.8
							c-0.1,0.3-0.3,0.6-0.5,0.9c-0.1,0.2-0.3,0.3-0.6,0.4c-0.1,0-0.3,0-0.5,0c-0.2-0.1-0.1,0-0.3-0.1c-0.5-0.3-0.6-0.7-0.8-1
							c-0.2-0.3-0.3-0.6-0.3-1c-0.2-0.6-0.3-1.2-0.3-1.8c-0.1-0.6-0.1-1.1-0.1-1.6c0-0.5-0.1-1-0.2-1.5c-0.3-2-0.4-3.6-0.4-4.8
							c0-1.2,0-1.8,0-1.8L67.2,180.6z"/>
					</g>
					<g>
						<path fill="#6A5C50" d="M92.8,200c0,0-0.2,0.3-0.4,0.9c-0.2,0.6-0.4,1.5-0.5,2.6c-0.1,0.6,0,1,0,1.7c0,0.6,0.1,1.3,0.2,2
							c0.1,0.6,0.2,1.3,0.5,1.8c0.1,0.1,0.1,0.2,0.2,0.3c0,0,0.3,0.3,0.3,0.3c0.2,0.1,0.4,0.2,0.5,0.2c0.1,0,0.1,0,0.2-0.1
							c0.1-0.1,0.2-0.3,0.3-0.6c0.1-0.6,0.2-1.3,0.2-1.9c0-0.7-0.1-1.3-0.1-2c-0.1-0.6-0.1-1.3-0.1-1.8c0-1.1-0.2-2-0.4-2.6
							c-0.1-0.3-0.3-0.5-0.4-0.6C92.8,200,92.8,200,92.8,200z M92.8,200c0,0,0.4,0.1,0.9,0.6c0.5,0.5,1,1.5,1.3,2.6
							c0.1,0.6,0.3,1.1,0.4,1.8c0.2,0.6,0.3,1.3,0.4,2.1c0.1,0.8,0.1,1.5,0,2.4c-0.1,0.5-0.3,1-0.7,1.5c-0.4,0.5-1.2,0.9-1.8,0.8
							c-0.7-0.1-1.1-0.4-1.6-0.7c-0.3-0.2-0.2-0.2-0.5-0.5c-0.2-0.2-0.3-0.4-0.4-0.7c-0.4-0.9-0.5-1.7-0.5-2.5c0-0.8,0-1.5,0.1-2.1
							c0-0.3,0.1-0.6,0.1-1c0.1-0.3,0.2-0.6,0.2-0.9c0.4-1.1,0.9-2,1.3-2.6c0.2-0.3,0.4-0.5,0.6-0.6C92.7,200,92.8,200,92.8,200z"/>
					</g>
					<g>
						<path fill="#6A5C50" d="M112,211.7c0.3,1.7,0.8,3.4,1.5,5c0.3,0.8,0.7,1.6,1.1,2.3l0,0.1c0,0,0,0,0,0l0.1,0.1l0.1,0.2
							c0.1,0.2,0.2,0.3,0.3,0.5c0.1,0.1,0.2,0.3,0.3,0.4c0.1,0.1,0.2,0.2,0.2,0.2c0,0-0.2-0.1-0.4,0c-0.1,0-0.2,0.1-0.3,0.1
							c-0.1,0-0.1,0.1-0.1,0.1c0,0,0,0,0-0.1c0-0.1,0-0.1,0-0.2l0-0.1l0-0.1l0,0l0,0l0,0c0,0,0-0.1,0,0.1l0,0l0-0.3
							c0-0.2,0-0.4,0-0.5c0-0.3-0.1-0.7-0.2-1c-0.1-0.4-0.3-0.7-0.5-1.1c-0.4-0.7-0.9-1.5-1.3-2.3c-0.2-0.4-0.4-0.8-0.6-1.2
							c-0.2-0.4-0.3-0.8-0.3-1.3l0.1,0l0,0.1l0,0c-0.1,0,0,0,0,0l0-0.1l0-0.3L112,211.7z M112,211.7l0.1,0.6l0.1,0.3l0,0.1
							c0,0,0,0,0,0l0,0l0-0.1l0.1,0c0.1,0.4,0.3,0.8,0.5,1.2c0.2,0.4,0.5,0.7,0.8,1c0.6,0.6,1.3,1.2,1.9,1.8
							c0.6,0.7,1.2,1.5,1.5,2.6c0.1,0.3,0.1,0.6,0.1,0.8l0,0.3l0,0l0,0.1l0,0l0,0.1l0,0.2c0,0.1,0,0.3-0.1,0.4
							c0,0.1-0.1,0.4-0.2,0.6c0,0.1-0.2,0.3-0.3,0.4c-0.1,0.1-0.3,0.2-0.5,0.3c-0.4,0.1-0.8,0-1-0.1c-0.4-0.2-0.6-0.5-0.8-0.7
							c-0.2-0.2-0.3-0.4-0.4-0.7c-0.1-0.2-0.2-0.4-0.3-0.7l-0.1-0.4l0-0.2l0-0.1l0-0.1c-0.2-0.9-0.3-1.8-0.4-2.7
							C112.4,215.1,112.3,213.4,112,211.7z"/>
					</g>
					<g>
						<path fill="#6A5C50" d="M140.7,221.2c0,0.9,0.2,1.8,0.4,2.6c0.2,0.9,0.5,1.7,0.8,2.6l0.2,0.7c0.1,0.2,0.1,0.5,0.2,0.7
							c0.1,0.5,0.2,0.9,0.3,1.3c0.1,0.4,0.2,0.8,0.4,1.1c0.1,0.3,0.3,0.4,0.4,0.5l-1.2,0.3c0.1-0.1,0.2-0.6,0.3-1
							c0.1-0.4,0.1-0.9,0.2-1.4c0.1-1,0.1-2,0-3l0-1.5c0-0.5,0-1-0.1-1.5c0-0.2-0.1-0.4-0.2-0.6c-0.1-0.2-0.2-0.4-0.4-0.5
							C141.7,221.2,141.2,221.1,140.7,221.2z M140.7,221.2c0.2-0.2,0.4-0.3,0.7-0.4c0.3,0,0.6,0,0.9,0.1c0.3,0.1,0.5,0.3,0.7,0.5
							c0.2,0.2,0.4,0.5,0.5,0.8c0.4,1.1,0.6,2.1,0.7,3.1c0.2,1,0.3,2.1,0.3,3.2c0,0.5,0,1.1-0.1,1.7c0,0.3-0.1,0.6-0.2,0.9
							c-0.1,0.3-0.3,0.6-0.5,1l-0.4,0.6l-0.7-0.3c-0.8-0.3-1.2-1-1.4-1.5c-0.2-0.5-0.3-1-0.4-1.5c-0.1-0.5-0.1-1-0.2-1.4l-0.1-0.7
							l-0.1-0.7c-0.1-0.9-0.2-1.8-0.2-2.8c0-0.5,0-0.9,0.1-1.4C140.4,222.1,140.5,221.7,140.7,221.2z"/>
					</g>
					<g>
						<path fill="#6A5C50" d="M154.1,219.7c0,0-0.1,0.1-0.2,0.2c0,0.1-0.1,0.1-0.2,0.3c0,0.1-0.1,0.2-0.1,0.4
							c-0.1,0.3-0.1,0.6-0.1,1.1c0,0.4,0.1,0.9,0.2,1.4c0.1,0.5,0.3,1,0.5,1.6c0.2,0.6,0.5,1.1,0.8,1.7c0.3,0.5,0.7,1.1,1.1,1.5
							c0.1,0.1,0.2,0.2,0.3,0.2c0,0,0.1,0,0.1,0.1l0,0l0,0c-0.1,0,0,0,0,0l0,0l0.1,0c0.2,0.1,0.3,0.1,0.4,0.1c0.1,0,0.2,0,0.3,0
							c0,0,0.1,0,0,0c0,0,0,0,0,0c0-0.1,0.1-0.3,0.1-0.6c0-0.6-0.1-1.2-0.2-1.8c-0.2-0.6-0.3-1.2-0.5-1.8c-0.1-0.3-0.2-0.5-0.3-0.8
							c-0.1-0.2-0.2-0.5-0.4-0.7c-0.5-1-0.9-1.7-1.3-2.3c-0.2-0.2-0.3-0.4-0.5-0.5C154.2,219.6,154.1,219.7,154.1,219.7z
							 M154.1,219.7c0,0,0-0.1,0.2-0.2c0.2,0,0.5,0.1,0.7,0.3c0.6,0.4,1.2,1,2,1.9c0.2,0.2,0.4,0.4,0.6,0.7c0.2,0.3,0.3,0.5,0.5,0.8
							c0.3,0.6,0.6,1.2,0.8,1.9c0.2,0.7,0.5,1.4,0.5,2.3c0,0.4,0,0.9-0.3,1.5c-0.1,0.3-0.4,0.6-0.7,0.8c-0.3,0.2-0.7,0.3-1,0.3
							c-0.3,0-0.6,0-0.8-0.1c-0.2-0.1-0.5-0.1-0.7-0.2l-0.1,0l0,0l-0.1,0l0,0l-0.1-0.1l-0.4-0.2c-0.2-0.2-0.4-0.3-0.5-0.5
							c-0.6-0.7-0.9-1.4-1.3-2c-0.3-0.7-0.5-1.3-0.7-2c-0.2-0.6-0.2-1.3-0.3-1.9c0-0.3,0-0.6,0-0.8c0-0.3,0.1-0.5,0.1-0.8
							c0.1-0.2,0.1-0.5,0.2-0.6c0.1-0.2,0.2-0.4,0.3-0.5c0.2-0.3,0.4-0.5,0.6-0.5C154.1,219.8,154.1,219.7,154.1,219.7z"/>
					</g>
					<g>
						<path fill="#6A5C50" d="M191.9,235.3c0,0,0-0.3-0.2-0.6c-0.1-0.1-0.2-0.1-0.4-0.1c-0.2,0.1-0.3,0.2-0.4,0.4
							c-0.2,0.3-0.2,0.5-0.3,0.8c-0.1,0.3-0.1,0.7-0.1,1c0,0.2,0,0.4,0,0.5c0,0.2,0,0.4,0.1,0.6c0.1,0.4,0.1,0.9,0.2,1.3
							c0,0.2,0.1,0.4,0.1,0.6l0,0.1c0,0,0,0,0,0c0,0-0.1-0.1-0.1-0.2l0,0l-0.2-0.1l0,0l0,0l0,0l0,0c0,0-0.1-0.1-0.1-0.1
							c-0.1,0-0.3-0.1-0.4,0c0,0-0.1,0-0.1,0c-0.1,0.1,0.1,0,0.2-0.1c0.1-0.1,0.2-0.3,0.4-0.4c0.2-0.3,0.5-0.6,0.7-0.9
							c0.1-0.1,0.2-0.5,0.3-0.8c0.2-0.7,0.3-1.2,0.4-1.6C191.9,235.7,191.9,235.5,191.9,235.3C191.9,235.3,191.9,235.3,191.9,235.3z
							 M191.9,235.3c0,0,0.1-0.1,0.2,0c0.1,0.1,0.2,0.3,0.2,0.5c0.1,0.4,0.3,1,0.3,1.8c0,0.4,0.1,0.8-0.1,1.4
							c-0.2,0.4-0.3,0.8-0.6,1.3c-0.1,0.2-0.3,0.4-0.4,0.6c-0.2,0.2-0.3,0.5-0.9,0.7c-0.1,0-0.2,0.1-0.2,0.1c-0.2,0-0.4,0-0.5,0
							c-0.1,0-0.2-0.1-0.2-0.1l0,0l0,0l0,0l0,0c-0.4-0.3-0.1-0.1-0.2-0.2l0,0c-0.1-0.1-0.2-0.3-0.2-0.3l-0.1-0.2
							c0-0.1-0.1-0.2-0.1-0.3c-0.1-0.3-0.1-0.5-0.1-0.8c-0.1-0.5-0.1-1-0.1-1.4c0-0.2,0-0.5,0-0.7c0-0.3,0-0.5,0.1-0.8
							c0.1-0.5,0.3-1,0.5-1.4c0.2-0.4,0.6-0.8,0.9-1c0.4-0.3,0.9-0.4,1.3-0.4c0.4,0,0.7,0.4,0.8,0.7c0,0.3,0,0.4-0.1,0.5
							C191.9,235.3,191.9,235.3,191.9,235.3z"/>
					</g>
					<g>
						<path fill="#6A5C50" d="M186.8,241.2c0,0,0,0.2,0.2,0.4c0.1,0.3,0.3,0.6,0.5,1c0.1,0.2,0.2,0.5,0.3,0.8c0.1,0.3,0.1,0.7,0,1.1
							c0,0.1,0,0.2-0.1,0.3c0,0.1-0.1,0.2-0.1,0.3c-0.1,0.2-0.2,0.4-0.3,0.6c-0.1,0.2-0.3,0.4-0.6,0.5c-0.3,0.2-0.7,0.3-1.1,0.2
							c-0.2,0-0.4-0.1-0.5-0.2c-0.1,0-0.1-0.1-0.2-0.1l-0.1-0.1l0,0l-0.1-0.1l0,0l-0.1-0.1c0,0,0,0-0.1-0.2
							c-0.1-0.2-0.2-0.4-0.2-0.6c-0.1-0.6,0-0.9,0.2-1.3c0.3-0.7,0.6-1.1,1-1.5c0.3-0.4,0.7-0.6,1-0.8
							C186.6,241.2,186.8,241.2,186.8,241.2z M186.8,241.2c0,0-0.1,0.2-0.1,0.4c-0.1,0.3-0.2,0.6-0.3,1.1c-0.1,0.4-0.2,0.9-0.3,1.4
							c0,0.2,0,0.4,0,0.5c0,0,0-0.1,0-0.1c0,0,0,0,0,0l0.1,0.1l0,0l0,0l0,0c0.1,0.1-0.1-0.1-0.1-0.1l0,0h0c0,0,0,0,0,0
							c0,0,0,0-0.1,0c-0.1,0-0.2,0-0.2,0c0,0,0,0,0.1,0c0,0,0.1-0.1,0.2-0.2c0,0,0,0,0.1-0.1c0,0,0-0.1,0.1-0.1
							c0.2-0.3,0.2-0.7,0.2-1.2c0-0.5,0.1-0.9,0.2-1.2C186.6,241.3,186.8,241.2,186.8,241.2z"/>
					</g>
				</g>
			</g>
			<g id="water2_3_">
				<g opacity="0.8">
					<path fill="#A3907F" d="M148.3,42.3c0.9-4,5.9-5.7,6.7-9.7c0.9-4.5-3.4-5.5-7-4.5c-4.4,1.2-8.4,5.6-10.1,9.8
						c-0.8,2-2.7,9.8,1.7,8.6c1.2-2.6,2.4-7.6,4.6-9.4c5.2-4,1.8,3.4,2.1,5.4C147.6,43,147.8,42.5,148.3,42.3z"/>
					<path fill="#A3907F" d="M115.3,51.7c-2.5-1-4.9-3.9-5.7-6.3c-0.3-1,0.2-4-0.4-4.7c-1.5-1.7-3.2-0.1-4.1,1.2
						c-1.7,2.7-0.8,7.9,1.7,9.6C110.8,53.9,113.6,50.7,115.3,51.7z"/>
					<ellipse fill="#A3907F" cx="137.5" cy="2.5" rx="2.2" ry="2.5"/>
					<ellipse fill="#A3907F" cx="217.3" cy="33.5" rx="2" ry="3.8"/>
					<ellipse fill="#A3907F" stroke="#6A5C50" stroke-miterlimit="10" cx="239" cy="111.8" rx="1.7" ry="3.8"/>
					<ellipse fill="#A3907F" cx="179.8" cy="197.3" rx="1.2" ry="2.7"/>
					<ellipse fill="#A3907F" cx="143.6" cy="197.8" rx="2.4" ry="3.2"/>
					<ellipse fill="#A3907F" cx="133.5" cy="208.8" rx="1.8" ry="4.2"/>
					<ellipse fill="#A3907F" cx="1.8" cy="129.8" rx="1.8" ry="5.2"/>
					<path fill="#A3907F" d="M69.9,112c-4.8,3.1-11.1,8.6-13.5,13.7c-1.8,3.8-1.3,13.5,5.1,7.6c2.9-2.7,4.7-9.9,7.1-13.2
						c2.1-2.9,5.3-7.8,9.3-7.7c-1.7,7,0.5,13.4,8.5,14.2c12,1.1,17.8-12.2,26.5-17.7c3.6-2.3,9.4-6,13.8-3.6c4,2.2,2.6,9.6,2.6,13.6
						c0,3.2-5.1,26.9,2.5,24.9c11.8-3.1,6.1-26.2,4.4-31.4c1.7,5.1,3.9,7.6,8.5,3.3c3.9-3.6,0.8-17.1,7.4-16.4
						c2.7,0.3,3.8,3.4,5.2,5.3c4.2,6.1,12.2,2.7,12-5c-0.1-3,0.1-4.8-1.7-7.1c3.9-1.2,6.1-2.7,10.2-1.9c5.4,1,9.8,2.5,14.6-1.7
						c3.6-3.2,5.1-8.7,0-11.1c-5.2-2.4-13.8-0.9-19.1,0.6c-5.8,1.6-10.8,7.8-16.8,3.6c1.7-1.8,2.9-3.4,4.8-5.2
						c2.1-2,4.1-4.9,6.4-6.7c4.3-3.2,10.4-5.3,15.8-4.2c2,0.4,4.6,1,6.6-0.1c1.9-1.1,3.6-4.5,2.8-6.4c-2.5-5.5-11.2-4.9-15.4-2.6
						c-6.5,3.6-11.7,7.7-17.3,12.2c-2.9,2.4-6.1,8.5-9.9,8.9c-7.4,0.9-0.9-6.8,1.1-9.4c2-2.6,4.3-5.1,5.5-8.5
						c1.6-4.4,5.8-7.9,7.2-12.5c1.4-4.6-1.7-8.8-6-4.4c-4.1,4.3-5.4,13.1-8.4,18.4c-1.2,2-5,9.6-7.9,6.7c-2.6-2.5,1.8-9.4,1.1-12
						c-1-4-6.1,4.1-6.2,5c-0.5,3.7-4.4,5.2-8.4,5.2c-4.4,0.1-4.8-2.7-7.4-5.6c-2.1-2.3-5.7-4.1-6.9,0.3c-1,3.7,3.2,4.1,3.4,7.3
						c0.3,6.2-11.1-2.2-13.1-4c-5.4-4.9-3.2-8.9-14.9-15c-7.3-3.8-12.8-3.5-18.6,1.1c-2.9,2.3-4.1,6.3-0.2,7.5c3.1,1,6-1.2,8.8-2
						c4.6-1.3,7.7,0.5,11.3,3.4c1.7,1.4,7.8,5.4,5.3,7.8c-2.4,2.2-8.7-2-12,0c-5.1,3.1,0.1,8.5,4.3,9.5c6.2,1.5,11.6-2.8,17.4,2
						c4.4,3.6,1.4,11.2-4.2,14.4c-4.2,2.4-8.6,4-12.6,6.7c-3.3,2.2-6.3,3.9-9,7.1C77.6,110,79.1,106.1,69.9,112z"/>
					<path fill="#A3907F" stroke="#6A5C50" stroke-miterlimit="10" d="M246,106.7c3,7.3-6.7,17.2-0.8,24.7c4.7,6,5.5-11.9,4.7-15
						C249.3,114.3,248,108.2,246,106.7z"/>
					<path fill="#A3907F" d="M210.3,175c0,4-3,16.4,5.4,14.3c10-2.6,2.6-10.1,6.8-13.8c3.2-0.7,1,0.9,4.6-0.7c4.3-2,0.5-5.1,1.2-7.5
						c1.5-4.6,8.1-2.9,10.1,0.7c1.4,2.6,4.6,16.2,8.3,7.5c2.4-5.6,2.6-17.6-0.3-22.8c-3.1-5.5-8.7-12.3-15.7-12.6
						c0.2,4.5,16.9,15.5,8.3,20.1c-7.2,3.8-12.1-14.1-16.3-16.8c-1.7,4.6,2.5,8.5,3.6,12.8c0.9,3.4-0.4,4.2-1.2,7.2
						c-0.4,1.5,0.6,7.1-2.9,4.7c-3.2-2.2-0.4-10.5-3.8-13.4c-2.6,1.2-0.2,22.6-3.5,21.4c-1.6-0.6-1.6-8.7-1.9-10.3
						c-0.4-3-0.1-7.7-3-9.4c-1.4,3.1-0.2,10.8-0.3,14.5c-0.1,3.4,0.1,10.4,1.6,13.2"/>
					<path fill="#A3907F" d="M185,193.3c2.4,3.4,3.9,9.3,4,13.3c0.1,3.4-2.5,9.6-5.2,4.2C182.3,207.8,182.5,195.2,185,193.3z"/>
					<path fill="#A3907F" d="M143.8,207.6c8.7-5.1,4.2,12.5,7.2,14.2c7.7,4.3,6.6-11.7,5.6-15.1c-3.6-0.3-2.2-0.7-5.6-2
						c-1.4-0.5-2.5-0.6-4.8,0.2C144.6,205.4,143,207.3,143.8,207.6z"/>
					<path fill="#A3907F" d="M140.3,206c0,4.9,0.7,9.1,1.3,13.9c0.3,2.2,1.4,9.5-2.3,9.8c-5.1,0.5-3.4-13.8-2.6-16.5
						c0.5-1.5,1.1-3.3,1.6-4.9C138.8,207.1,138.9,204.5,140.3,206z"/>
					<path fill="#A3907F" d="M88,228.3c0.9,3-0.3,8.3,0,11.7c0.5,5,1.1,10.4,1,15.5c-0.1,4-1.8,8.9-6.5,7c-3.7-1.5-3.7-5-3.8-8.5
						c-0.2-4.2-1.1-9-0.9-12.9c2.4,3.2,7.1,11.7,7.6,2.6C85.5,239.9,83.2,231.2,88,228.3z"/>
					<path fill="#A3907F" d="M97,249c0.8,5.4-6.2,17,0.4,21.3c5.5,3.7,4.3-12,3.9-15c-0.4-3.3-1.3-6.3-1.4-9.6
						C97.5,245.8,98.2,250.2,97,249z"/>
					<path fill="#A3907F" d="M107.6,243.9c2.5,2.3,3.5,5.4,3.5,8.7c0,1.8,0.1,5.9-2,6.5c-3.5,1-2.5-7.4-2-9.1
						C107.6,248.4,107.2,245.7,107.6,243.9z"/>
					<path fill="#A3907F" stroke="#6A5C50" stroke-miterlimit="10" d="M105.8,239.5c0.6,1.8,1,4.4,0.7,6.3c-0.2,1.6-1.2,2.6-2.1,0.7
						c-0.7-1.4-0.6-3.3-0.5-4.8c0-0.6-0.2-1.4,0.2-1.8C104.6,239.2,105.4,239.1,105.8,239.5z"/>
					<path fill="#A3907F" d="M41.4,143.3c-2.9,1.8-3.1,6.9-3.6,9.9c-0.6,3.3-1.2,6.8-3.4,9.5c-1.9,2.4-5,3.7-5.4,0.2
						c-0.3-2.4,1.4-5.4,2.1-7.6c0.7-2.2,0.8-4.7,1.7-6.9c0.6,3.6,1.5,5.6,2.9,1.1c1-3.2,2-6.4,5.3-7.4c0.4,0.6,0.4,1.2,0.3,1.9
						C41,144.1,40.8,144,41.4,143.3z"/>
					<path fill="#A3907F" d="M28.7,142.8c0-1.4,0.5-3.4-0.7-4.2c-0.7-0.5-0.9,0.7-1.5,0.5c-0.2-0.1-1.4-1-1.3-1
						c-3.3-0.4-3.4,4.4-3.4,7.3c0,2.9,0.4,9.2,4.8,4.6c1.2-1.2,1.6-2.6,1.9-4.1C28.6,145,28.8,141.6,28.7,142.8z"/>
				</g>
				<g opacity="0.7">
					<g>
						<path fill="#6A5C50" d="M114.4,107.5c0.1-0.9,0.4-1.9,1.1-2.6c0.7-0.7,1.6-1.1,2.5-1.4c1.9-0.5,3.8-0.3,5.6,0.3
							c1.8,0.6,3.6,1.5,4.8,3.1c0.3,0.4,0.5,0.9,0.7,1.3c0.2,0.4,0.4,0.9,0.5,1.3c0.3,0.9,0.5,1.9,0.6,2.8c0.5,3.8,0.3,7.6,0,11.3
							l-0.2,2.8c0,0.9-0.1,1.9-0.2,2.8c-0.2,1.9-0.4,3.7-0.5,5.5c-0.1,1.8,0,3.7,0.4,5.3c0.2,0.8,0.6,1.5,1.1,1.8
							c0.1,0.1,0.3,0.2,0.4,0.2c0.2,0.1,0.5,0.2,0.6,0.2c0.3,0.1,0.6,0,0.9,0c0.6-0.2,1.1-0.7,1.5-1.4c0.4-0.7,0.7-1.5,1-2.3
							c0.5-1.7,0.8-3.5,1-5.3c0.1-0.9,0.1-1.8,0.2-2.7c0-0.9,0-1.8,0-2.8c0-1.8-0.1-3.7-0.3-5.5c-0.2-1.8-0.4-3.7-0.7-5.5
							c-0.3-1.8-0.7-3.6-1.2-5.4l-0.2-0.6l0.5,0.3c0.6,0.4,1.1,0.9,1.5,1.4l-0.2,0.1c-0.4-0.5-1-0.9-1.5-1.1l0.3-0.3
							c0.7,1.7,1.3,3.5,1.8,5.3c0.5,1.8,0.9,3.7,1.2,5.5c0.3,1.9,0.5,3.7,0.6,5.6c0.1,0.9,0.1,1.9,0.1,2.8c0,1,0,1.9-0.1,2.9
							c-0.2,1.9-0.4,3.8-1,5.7c-0.3,0.9-0.7,1.9-1.2,2.8c-0.3,0.4-0.6,0.9-1.1,1.3c-0.4,0.4-1,0.7-1.6,0.9c-0.6,0.2-1.2,0.2-1.9,0
							c-0.4-0.1-0.5-0.2-0.7-0.2c-0.4-0.2-0.6-0.3-0.9-0.5c-1-0.8-1.4-1.9-1.7-2.9c-0.5-2-0.4-3.9-0.3-5.8c0.1-1.9,0.4-3.8,0.6-5.6
							c0.1-0.9,0.2-1.8,0.3-2.7l0.2-2.8c0.3-3.7,0.7-7.4,0.3-11c-0.1-0.9-0.3-1.8-0.5-2.7c-0.1-0.4-0.2-0.9-0.4-1.3
							c-0.2-0.5-0.3-0.8-0.6-1.2c-1-1.4-2.7-2.4-4.4-3c-1.7-0.6-3.6-0.8-5.4-0.5c-0.9,0.2-1.7,0.6-2.4,1.2c-0.7,0.6-1,1.5-1.1,2.4
							L114.4,107.5z"/>
					</g>
					<g>
						<path fill="#6A5C50" d="M137.5,110.5c0,0,0,0.4,0.1,0.9c0.1,0.3,0.1,0.6,0.2,1c0.1,0.4,0.3,0.7,0.6,1c0.3,0.3,0.7,0.5,1.1,0.7
							c0.4,0.1,0.9,0.2,1.5,0.2c0.5,0,1.1-0.2,1.6-0.4c0.3-0.1,0.5-0.2,0.7-0.4l0.2-0.1l0,0c0,0-0.1,0.1-0.1,0l0,0l0,0l0,0l0.1-0.1
							c0.1-0.1,0.3-0.2,0.4-0.3c0.3-0.3,0.6-0.8,0.9-1.3c0.3-0.5,0.5-1.1,0.7-1.7c0.4-1.1,0.7-2.3,1-3.3c0.3-1,0.6-1.8,0.9-2.4
							c0.1-0.3,0.3-0.5,0.3-0.6c0.1-0.1,0.1-0.2,0.1-0.2s0,0.3-0.1,0.9c0,0.6-0.1,1.4-0.1,2.5c-0.1,1-0.1,2.2-0.4,3.5
							c-0.1,0.7-0.3,1.3-0.6,2c-0.3,0.7-0.7,1.3-1.4,2c-0.1,0.1-0.3,0.2-0.4,0.3l-0.1,0.1l-0.1,0.1l-0.1,0l-0.3,0.1
							c-0.3,0.2-0.7,0.4-1.1,0.5c-0.7,0.3-1.5,0.4-2.2,0.4c-0.8,0-1.5-0.2-2.1-0.6c-0.6-0.3-1.1-0.9-1.4-1.4
							c-0.6-1.1-0.5-2.1-0.3-2.7c0.1-0.3,0.2-0.5,0.2-0.7C137.5,110.6,137.5,110.5,137.5,110.5z"/>
					</g>
					<g>
						<path fill="#6A5C50" d="M154.5,97.6c0,0,0,0.1,0,0.3c0,0.1,0,0.2,0,0.3c0,0.1,0,0.2,0,0.4c0.1,0.6,0.4,1.6,1.1,2.8
							c0.7,1.2,1.8,2.5,3.3,3.7c0.7,0.6,1.6,1.2,2.6,1.6c0.9,0.4,2,0.7,3,0.5c0.5-0.1,1-0.3,1.4-0.6c0.2-0.2,0.4-0.3,0.6-0.6
							l0.1-0.2l0,0c0,0,0,0,0,0l0,0l0.1-0.1l0.3-0.4c0.6-1,1-2.2,1-3.5c0-1.3-0.3-2.7-0.7-4.2c-0.2-0.7-0.4-1.5-0.5-2.3
							c-0.1-0.8-0.2-1.7,0.2-2.7c0.4-0.9,1.2-1.6,2-1.9c0.8-0.4,1.6-0.6,2.5-0.7l0.6-0.1c0.1,0,0.2,0,0.3,0l0.3,0
							c0.4,0,0.8-0.1,1.2-0.1c0.9,0,1.7,0,2.5,0.1c3.3,0.3,6.6,0.8,9.9,0.6c1.6-0.1,3.2-0.5,4.6-1.3c0.4-0.2,0.6-0.5,0.9-0.7
							c0.3-0.2,0.5-0.6,0.8-0.8c0.1-0.1,0.3-0.3,0.4-0.4l0.3-0.5c0.2-0.4,0.4-0.7,0.6-1c0.3-0.7,0.5-1.5,0.5-2.2
							c0-0.7-0.4-1.4-0.9-1.9c-1.1-1.1-2.6-1.7-4.1-2.1c-3-0.8-6.1-1-8.9-1.1c-2.9-0.2-5.5,0.6-7.9,1.3c-2.4,0.8-4.6,1.5-6.5,2.1
							c-2,0.6-3.7,1-5.2,1.1c-1.5,0.2-2.6,0-3.4-0.3c-0.4-0.1-0.6-0.3-0.8-0.4c-0.2-0.1-0.3-0.2-0.3-0.2s0.1,0,0.3,0.1
							c0.2,0.1,0.5,0.2,0.8,0.3c0.7,0.2,1.9,0.4,3.4,0.2c1.5-0.2,3.2-0.6,5.1-1.2c1.9-0.6,4.1-1.4,6.5-2.2c1.2-0.4,2.5-0.8,3.8-1.1
							c1.3-0.3,2.8-0.4,4.2-0.4c2.9,0,6,0.2,9.1,0.9c1.5,0.4,3.2,0.9,4.4,2.2c0.6,0.6,1.1,1.5,1.1,2.4c0.1,0.9-0.2,1.8-0.5,2.6
							c-0.2,0.4-0.4,0.8-0.6,1.2l-0.3,0.5c-0.1,0.2-0.3,0.4-0.4,0.5c-0.3,0.3-0.5,0.7-0.9,1c-0.3,0.3-0.6,0.6-1,0.8
							c-1.5,1-3.3,1.4-5,1.5c-3.4,0.3-6.8-0.2-10.1-0.4c-0.8,0-1.6-0.1-2.4,0c-0.4,0-0.8,0.1-1.2,0.1l-0.3,0c0,0-0.2,0-0.3,0
							l-0.6,0.1c-1.5,0.3-3.1,0.8-3.5,1.9c-0.4,1.1,0.1,2.7,0.4,4.1c0.4,1.5,0.8,3,0.9,4.5c0,1.6-0.3,3.1-1.2,4.5l-0.3,0.4l-0.1,0.1
							l0,0l0,0.1l0,0.1l-0.2,0.2c-0.2,0.3-0.5,0.6-0.8,0.8c-0.6,0.5-1.4,0.8-2.1,0.9c-0.7,0.1-1.5,0.1-2.1,0
							c-0.7-0.1-1.3-0.3-1.9-0.6c-1.2-0.5-2.1-1.1-3-1.8c-1.7-1.3-2.9-2.8-3.8-4.1c-0.9-1.3-1.3-2.6-1.4-3.5c-0.1-0.4-0.1-1,0-1.2
							c0-0.2,0-0.3,0-0.3L154.5,97.6z"/>
					</g>
					<g>
						<path fill="#6A5C50" d="M156.4,81.9c1.6-1.6,3.1-3.2,4.6-5c1.5-1.7,2.9-3.4,4.5-5.1c1.6-1.6,3.2-3.3,5.1-4.7l0.7-0.5
							c0.3-0.2,0.5-0.3,0.8-0.5c0.6-0.3,1.2-0.5,1.8-0.7c1.2-0.3,2.4-0.5,3.5-0.5c2.3-0.1,4.6,0.2,6.8,0.3c1.1,0.1,2.2,0.1,3.3,0.1
							c1.1-0.1,2.2-0.2,3.1-0.7c0.4-0.3,0.7-0.6,1.1-1.1c0.2-0.2,0.3-0.5,0.4-0.7c0.1-0.2,0.3-0.5,0.4-0.7c0.2-0.5,0.3-1,0.3-1.5
							c0-0.5-0.2-1-0.4-1.4c-0.6-0.9-1.6-1.4-2.6-1.7c-1-0.3-2.1-0.5-3.2-0.6c-2.2-0.2-4.4,0-6.6,0.4c-1.1,0.2-2.1,0.5-3,0.9
							c-0.2,0.1-0.4,0.3-0.6,0.4l-0.7,0.5l-1.4,0.9c-3.7,2.5-7.4,5.1-10.9,7.9c-1.7,1.4-3.4,2.8-5,4.4c-1.6,1.6-3.2,3.2-4.9,4.7
							c-1.7,1.5-3.6,2.9-5.7,4c-1.1,0.5-2.2,0.9-3.5,1c-0.6,0.1-1.3,0-1.9-0.2c-0.6-0.2-1.1-0.5-1.6-0.9l-0.1-0.1l0-0.1
							c-0.1-0.4-0.3-0.7-0.3-1.1c-0.1-0.4,0-0.8,0.1-1.2c0.2-0.4,0.5-0.7,0.8-0.9c0.3-0.2,0.7-0.3,1.1-0.4l0.1,0.2
							c-0.7,0.3-1.3,0.7-1.5,1.3c-0.2,0.6,0.1,1.3,0.4,1.9l-0.1-0.1c0.9,0.6,1.9,0.8,2.9,0.6c1-0.1,2-0.6,2.9-1.1
							c1.9-1.1,3.5-2.6,5.1-4.1c1.6-1.5,3.1-3.2,4.7-4.8c1.6-1.7,3.3-3.2,5.1-4.6c3.6-2.9,7.4-5.3,11.2-7.7l1.4-0.9l0.7-0.4
							c0.2-0.1,0.5-0.3,0.8-0.5c1.2-0.5,2.3-0.8,3.5-0.9c2.3-0.3,4.6-0.2,6.9,0.1c1.1,0.2,2.3,0.4,3.4,0.9c1.1,0.4,2.2,1.1,2.9,2.1
							c0.3,0.5,0.5,1.2,0.5,1.8c0,0.6-0.1,1.2-0.4,1.8c-0.1,0.3-0.2,0.5-0.4,0.8c-0.1,0.3-0.3,0.5-0.4,0.8c-0.3,0.4-0.7,1-1.2,1.4
							c-1,0.7-2.2,0.9-3.4,1.1c-1.2,0.2-2.3,0.2-3.4,0.2c-2.3,0-4.5,0.1-6.7,0.2c-1.1,0.1-2.2,0.2-3.2,0.5c-0.5,0.1-1,0.3-1.4,0.5
							c-0.2,0.1-0.5,0.3-0.7,0.4l-0.7,0.5c-1.8,1.3-3.4,2.8-5,4.3l-4.8,4.7c-1.6,1.6-3.4,3.1-5.2,4.4L156.4,81.9z"/>
					</g>
					<g>
						<path fill="#6A5C50" d="M105.5,117c0,0-0.1,0-0.2,0.1c-0.2,0-0.4,0.1-0.7,0.3c-0.6,0.3-1.4,0.9-2.1,1.9
							c-0.8,0.9-1.5,2.3-2.9,3.5c-0.7,0.6-1.5,1.2-2.4,1.6c-0.9,0.4-2,0.7-3.1,0.9c-2.2,0.3-4.5,0.5-7.1,0.4
							c-1.3-0.1-2.6-0.3-3.9-0.8c-1.3-0.5-2.6-1.4-3.5-2.6c-0.9-1.2-1.4-2.7-1.7-4.1c-0.3-1.5-0.4-2.8-0.4-4.4c0-1.5,0.2-3,0.6-4.5
							c0.4-1.5,1.1-2.9,2-4.2c1.9-2.5,4.6-4.1,7.2-5.3c2.6-1.2,5.2-2.1,7.7-3.2c2.4-1,4.7-2.2,6.6-3.6c1.9-1.3,3.2-3.2,4.2-5
							c1-1.8,1.5-3.7,1.7-5.4c0.1-1.7-0.3-3.1-1.1-4.1c-0.8-0.9-1.6-1.4-2.3-1.7c-0.3-0.1-0.6-0.2-0.7-0.3c-0.2-0.1-0.2-0.1-0.2-0.1
							s0.1,0,0.3,0.1c0.2,0,0.4,0.1,0.7,0.2c0.6,0.2,1.6,0.6,2.5,1.5c0.9,0.9,1.5,2.5,1.5,4.4c0,1.8-0.4,3.8-1.4,5.9
							c-0.5,1-1,2-1.7,3c-0.7,1-1.6,1.9-2.6,2.7c-2,1.6-4.4,2.9-6.8,4c-2.5,1.1-5.1,2.1-7.6,3.3c-2.5,1.2-4.9,2.6-6.4,4.8
							c-1.6,2.1-2.2,4.8-2.3,7.5c0,1.3,0.1,2.8,0.3,4c0.2,1.3,0.6,2.4,1.3,3.4c1.4,1.9,3.8,2.7,6.2,2.9c1.2,0.1,2.3,0.1,3.5,0.1
							c1.1,0,2.3,0,3.3-0.2c2.1-0.2,3.8-0.9,5.2-2c1.3-1,2.2-2.3,3.1-3.2c0.9-0.9,1.7-1.5,2.4-1.7c0.3-0.1,0.6-0.2,0.7-0.2
							C105.4,117,105.5,117,105.5,117z"/>
					</g>
					<g>
						<path fill="#6A5C50" d="M80.6,105.1c0,0-0.2,0.2-0.7,0.6c-0.5,0.4-1.1,0.9-2,1.6c-0.9,0.7-2,1.5-3.3,2.3
							c-1.3,0.9-2.7,1.8-4.3,2.9c-1.6,1.1-3.2,2.2-4.9,3.5c-1.7,1.3-3.5,2.7-5.1,4.4c-1.6,1.7-2.9,3.8-3.8,6.1
							c-0.2,0.6-0.4,1.2-0.6,1.8l-0.2,0.9l-0.1,0.9c0,1.2,0.3,2.4,1,3.2c0.7,0.8,1.8,0.9,2.7,0.4c0.9-0.4,1.8-1.3,2.5-2.2
							c1.4-1.9,2-4.2,2.7-6.5c0.7-2.3,1.3-4.6,2.6-6.6c0.4-0.5,0.6-0.9,1-1.4c0.3-0.5,0.7-0.9,1-1.3c0.7-0.8,1.4-1.5,2.1-2.2
							c1.4-1.4,2.7-2.5,3.8-3.6c1.2-1,2.1-2,2.9-2.7c0.8-0.8,1.4-1.4,1.8-1.8c0.4-0.4,0.6-0.7,0.6-0.7L80.6,105.1z M80.6,105.1
							c0,0-0.2,0.3-0.5,0.8c-0.3,0.5-0.8,1.2-1.5,2.1c-0.7,0.9-1.6,1.9-2.6,3.1c-1,1.2-2.2,2.5-3.4,3.9c-1.3,1.4-2.5,3-3.6,4.7
							c-1,1.7-1.7,3.9-2.4,6.1c-0.8,2.2-1.5,4.8-3.3,6.9c-0.9,1-1.9,2-3.3,2.5c-0.7,0.3-1.5,0.3-2.3,0.1c-0.8-0.2-1.4-0.7-1.9-1.3
							c-0.9-1.2-1-2.7-0.9-4l0.1-1l0.2-0.9c0.2-0.6,0.4-1.2,0.6-1.8c0.9-2.4,2.1-4.6,3.5-6.6c1.4-2,3.1-3.7,4.8-5.1
							c1.7-1.4,3.5-2.6,5.1-3.6c3.3-2,6.1-3.5,8.1-4.5c1-0.5,1.7-0.9,2.3-1.2l1.2-0.6L80.6,105.1z"/>
					</g>
					<g>
						<path fill="#6A5C50" d="M116.5,70.5c0,0-0.1,0.1-0.2,0.3c-0.1,0.1-0.1,0.2-0.3,0.4c-0.1,0.1-0.3,0.3-0.5,0.5
							c-0.4,0.3-1,0.6-1.7,0.6c-0.7,0-1.6-0.3-2.4-0.7c-1.7-0.9-3.4-2.4-5.2-4.2c-1.8-1.8-3.7-4.1-5.7-6.5c-1-1.2-2-2.5-3.1-3.9
							c-0.5-0.7-1.1-1.3-1.6-2c-0.3-0.3-0.6-0.7-0.8-0.9c-0.2-0.2-0.2-0.2-0.4-0.3L94,53.3c-3-1.9-6.3-3.7-10-4.9
							c-1.8-0.6-3.7-0.9-5.6-0.8c-0.5,0-0.8,0.2-1.3,0.3c-0.4,0.2-0.9,0.4-1.3,0.6c-0.9,0.4-1.7,1-2.5,1.6c-1.6,1.2-3.1,2.6-3.9,4.2
							c-0.4,0.8-0.5,1.6-0.1,2c0.3,0.5,1.2,0.9,2.1,1.1c0.7,0.1,1.7,0,2.6-0.3c0.9-0.3,1.9-0.6,2.9-1c1-0.4,2-0.8,3-1.1
							c1.1-0.3,2.2-0.5,3.4-0.5c0.3,0,0.6,0.1,0.9,0.2c0.3,0.1,0.6,0.2,0.9,0.3c0.6,0.2,1,0.5,1.5,0.8c0.9,0.6,1.7,1.1,2.6,1.7
							c1.7,1.2,3.3,2.4,4.9,3.7c0.8,0.7,1.5,1.3,2.2,2.2c0.3,0.4,0.7,0.8,0.9,1.7l0,0.1c0,0.1,0,0.1,0,0.1l0,0.1l0,0.2l0,0.4
							c0,0.3,0,0.7-0.2,1c-0.2,0.6-0.7,1.3-1.3,1.5c-0.6,0.3-1.2,0.4-1.7,0.4c-1.1,0-2-0.2-2.9-0.4c-1.8-0.4-3.4-0.7-5-0.6
							c-1.6,0.1-3.1,0.6-3.5,1.8c-0.4,1.2,0.1,2.8,0.9,3.8c0.8,1,2,1.6,3.2,1.9c0.6,0.1,1.2,0.1,1.8,0.1c0.6,0,1.2-0.1,1.7-0.1
							c1.1-0.1,2.1-0.1,3-0.2c1.8-0.1,3.3-0.1,4.3-0.1c0.5,0,0.9,0.1,1.1,0.2c0.2,0.1,0.3,0.2,0.3,0.2s-0.1-0.1-0.3-0.2
							c-0.2-0.1-0.6-0.1-1.1-0.1c-1,0-2.4,0.1-4.2,0.3c-0.9,0.1-1.9,0.2-3,0.4c-0.6,0.1-1.1,0.1-1.7,0.2c-0.6,0.1-1.3,0.1-1.9,0
							c-1.3-0.2-2.8-0.8-3.8-2c-0.5-0.6-0.9-1.4-1.1-2.1c-0.2-0.8-0.4-1.7-0.1-2.6c0.3-0.9,1-1.7,1.9-2.1c0.8-0.4,1.7-0.6,2.6-0.7
							c1.8-0.2,3.7,0.1,5.4,0.4c0.9,0.2,1.8,0.3,2.6,0.3c0.4,0,0.8-0.1,1-0.2c0.2-0.1,0.4-0.3,0.5-0.6c0.1-0.1,0-0.3,0.1-0.4l0-0.4
							l0-0.2l0-0.1c0,0,0-0.1,0,0l0,0c0-0.1-0.3-0.5-0.5-0.8c-0.6-0.7-1.3-1.3-2-1.9c-1.5-1.2-3.1-2.4-4.8-3.5
							c-0.8-0.6-1.7-1.1-2.5-1.6c-0.9-0.6-1.6-0.9-2.4-1c-1.7-0.1-3.7,0.7-5.6,1.4c-1,0.4-2,0.8-3.1,1.1c-1.1,0.3-2.2,0.5-3.6,0.3
							l-0.9-0.2c-0.3-0.1-0.6-0.2-0.9-0.4c-0.6-0.3-1.1-0.7-1.6-1.3c-0.4-0.6-0.6-1.4-0.5-2.1c0.1-0.7,0.3-1.3,0.5-1.8
							c0.5-1.1,1.3-2,2-2.8c0.8-0.8,1.6-1.5,2.5-2.2c0.9-0.6,1.8-1.2,2.8-1.7c0.5-0.2,1-0.5,1.5-0.7c0.5-0.2,1.2-0.4,1.7-0.4
							c2.2-0.2,4.3,0.3,6.3,0.9c3.9,1.3,7.2,3.3,10.3,5.3l0.6,0.4c0.2,0.1,0.5,0.4,0.6,0.5c0.4,0.4,0.6,0.7,0.9,1.1
							c0.6,0.7,1.1,1.4,1.6,2.1c1,1.4,2,2.7,2.9,4c1.9,2.5,3.6,4.8,5.3,6.7c1.7,1.9,3.3,3.4,4.9,4.4c0.8,0.5,1.5,0.7,2.2,0.8
							c0.7,0.1,1.3-0.2,1.7-0.4c0.2-0.2,0.3-0.3,0.5-0.4c0.1-0.1,0.2-0.3,0.3-0.4C116.4,70.6,116.5,70.5,116.5,70.5z"/>
					</g>
					<g>
						<path fill="#6A5C50" d="M114,86c0.2,0.3,0.6,0.7,1,0.6c0.4,0,0.7-0.3,1-0.6c0.6-0.6,1-1.3,1.4-2c0.7-1.5,1.3-3,1.8-4.6
							c0.5-1.6,0.8-3.2,1-4.8c0.1-0.8,0.1-1.6,0-2.4l-0.1-0.3c0,0-0.1-0.2-0.1-0.3c-0.1-0.1-0.2-0.3-0.3-0.5c-0.2-0.3-0.4-0.7-0.7-1
							c-1-1.3-2-2.6-2.9-4.1c-0.5-0.7-0.9-1.4-1.3-2.2c-0.2-0.4-0.4-0.8-0.5-1.3c-0.1-0.5-0.1-1.1,0.1-1.7c0.3-0.6,0.9-1,1.4-1.1
							c0.5-0.2,1-0.2,1.4-0.2c0.9,0,1.9,0.2,2.8,0.6c1.7,0.9,2.7,2.3,3.8,3.6c1.1,1.2,2.1,2.5,3.4,3.1c0.6,0.4,1.3,0.5,2,0.6l0.6,0
							l0.3,0l0.2,0c0.3,0,0.7-0.1,1-0.2c0.3-0.1,0.6-0.3,0.9-0.4c0.2-0.2,0.5-0.4,0.7-0.7c0.4-0.5,0.8-1.2,1.1-1.9
							c0.6-1.4,1-3.1,1.8-4.7c0.2-0.4,0.4-0.8,0.7-1.2c0.3-0.4,0.6-0.8,0.9-1.1c0.5-0.6,1.2-1.3,1.9-1.9c0.2-0.1,0.4-0.3,0.6-0.4
							c0.2-0.1,0.5-0.3,0.8-0.4c0.3-0.1,0.8-0.1,1.2,0c0.2,0.1,0.4,0.2,0.6,0.4c0.1,0.1,0.3,0.3,0.4,0.5c0.3,0.6,0.4,1.1,0.4,1.6
							c0,0.5,0,0.9,0,1.4c-0.1,1.8-0.4,3.4-0.6,5.1l-0.4,2.5c-0.1,0.8-0.3,1.7-0.3,2.3l-0.7-0.9l1,0.2c0.3,0,0.7,0,1,0
							c0.3-0.1,0.6-0.1,0.9-0.2l0.5-0.2l0.4-0.2c0.6-0.3,1.1-0.8,1.6-1.3c0.2-0.3,0.5-0.6,0.7-0.9c0.2-0.3,0.4-0.6,0.6-0.9
							c1.5-2.6,2.5-5.6,3.5-8.6c0.5-1.5,1-3,1.6-4.5c0.6-1.5,1.2-3,2-4.4c0.4-0.7,0.8-1.4,1.3-2.1c0.5-0.7,1.1-1.3,1.8-1.8l0.5-0.4
							l0.6-0.3c0.4-0.2,0.8-0.3,1.2-0.5c0.4-0.1,0.9-0.2,1.3-0.2c0.4,0,0.9,0,1.3,0l0.3,0l0.1,0.3c0.2,0.5,0.4,1,0.5,1.6
							c0.1,0.5,0.1,1.1,0.1,1.6c0,1.1-0.3,2.1-0.6,3c-0.6,1.9-1.6,3.7-2.5,5.4l-2.9,5.1c-0.5,0.9-0.9,1.7-1.3,2.6
							c-0.4,0.9-0.8,1.8-0.9,2.8c0.1-1,0.4-1.9,0.7-2.9c0.3-0.9,0.8-1.8,1.2-2.7l2.7-5.3c0.9-1.8,1.7-3.5,2.2-5.4
							c0.3-0.9,0.4-1.9,0.4-2.8c0-0.5,0-0.9-0.1-1.3c-0.1-0.4-0.3-0.8-0.4-1.2l0.5,0.3c-0.4,0-0.7,0-1.1,0c-0.3,0.1-0.7,0.1-1,0.2
							c-0.3,0.1-0.7,0.2-1,0.4l-0.5,0.3l-0.4,0.3c-0.6,0.4-1,1-1.5,1.6c-0.4,0.6-0.8,1.3-1.2,1.9c-0.7,1.4-1.3,2.8-1.8,4.3
							c-0.5,1.5-1,3-1.5,4.5c-1,3-1.9,6.1-3.5,9c-0.2,0.4-0.4,0.7-0.7,1.1c-0.2,0.4-0.5,0.7-0.8,1c-0.6,0.6-1.2,1.3-2,1.7l-0.6,0.3
							l-0.7,0.2c-0.4,0.2-0.9,0.2-1.4,0.3c-0.5,0.1-0.9,0-1.4,0c-0.4-0.1-0.9-0.2-1.3-0.3l-0.7-0.1l0-0.8c0-1.1,0.2-1.8,0.3-2.7
							l0.4-2.5c0.3-1.6,0.5-3.3,0.6-4.8c0-0.7,0-1.6-0.2-1.9c0,0,0,0,0,0c0,0,0.1,0,0.1,0.1c0.1,0,0.1,0,0,0c-0.1,0-0.2,0.1-0.3,0.2
							c-0.1,0.1-0.3,0.2-0.4,0.3c-0.6,0.5-1.1,1-1.7,1.6c-0.3,0.3-0.5,0.6-0.7,0.9c-0.2,0.3-0.4,0.6-0.6,1c-0.7,1.4-1.1,3-1.8,4.6
							c-0.3,0.8-0.8,1.6-1.4,2.4c-0.3,0.4-0.7,0.7-1.1,1c-0.4,0.2-0.9,0.5-1.4,0.6c-0.5,0.2-1,0.2-1.5,0.3l-0.4,0l-0.3,0l-0.6,0
							c-1-0.1-2-0.3-2.8-0.8c-1.7-0.9-2.8-2.3-3.8-3.6c-1.1-1.3-2.1-2.6-3.3-3.3c-0.5-0.3-1.2-0.5-2-0.5c-0.7,0-1.5,0.2-1.6,0.5
							c-0.2,0.3,0,1.1,0.3,1.8c0.3,0.7,0.7,1.4,1.1,2.1c0.9,1.4,1.8,2.7,2.8,4.1c0.2,0.3,0.5,0.7,0.7,1.1c0.1,0.2,0.2,0.4,0.3,0.6
							c0,0.1,0.1,0.2,0.1,0.3l0.1,0.4c0.1,0.9,0,1.8-0.1,2.6c-0.3,1.7-0.7,3.3-1.3,4.9c-0.6,1.6-1.2,3.1-2,4.6
							c-0.4,0.7-0.9,1.4-1.5,2c-0.3,0.3-0.7,0.6-1.1,0.5C114.5,86.7,114.2,86.3,114,86z"/>
					</g>
					<g>
						<path fill="#6A5C50" d="M138.2,37.4c0.6-0.4,1.1-0.9,1.6-1.5c0.5-0.5,0.9-1.1,1.4-1.7c0.9-1.2,1.7-2.4,2.7-3.5
							c1-1.1,2.1-2.2,3.6-3c0.7-0.4,1.5-0.7,2.4-0.8c0.8-0.1,1.7-0.1,2.5,0l0.5,0.1l0.6,0.2c0.4,0.1,0.8,0.3,1.2,0.6
							c0.4,0.2,0.8,0.6,1.1,1c0.3,0.4,0.5,0.9,0.6,1.4c0.1,1-0.1,1.9-0.5,2.6c-0.3,0.8-0.8,1.4-1.2,2c-0.4,0.6-0.9,1.2-1.5,1.8
							c-0.5,0.6-1,1.1-1.6,1.6c-1.1,1-2.2,1.9-3.5,2.8l0.1-0.2c0,0.4,0,0.7,0.3,1c0.3,0.3,0.7,0.4,1.1,0.5c-0.4,0-0.9,0-1.3-0.3
							c-0.4-0.3-0.7-0.8-0.7-1.3l0-0.1l0.1-0.1c1-1.1,2-2.1,2.9-3.3c0.9-1.1,1.8-2.2,2.5-3.4c0.4-0.6,0.7-1.2,0.9-1.8
							c0.2-0.6,0.4-1.2,0.3-1.6c-0.1-0.4-0.3-0.8-0.8-1c-0.2-0.1-0.5-0.2-0.8-0.3l-0.4-0.1l-0.5-0.1c-0.6-0.1-1.2-0.1-1.9-0.1
							c-0.6,0.1-1.2,0.3-1.8,0.5c-1.2,0.5-2.3,1.4-3.3,2.4c-0.5,0.5-1,1-1.5,1.5c-0.5,0.5-1,1.1-1.6,1.6c-0.5,0.5-1.1,1-1.7,1.5
							C139.5,36.8,138.8,37.1,138.2,37.4z"/>
					</g>
					<g>
						<path fill="#6A5C50" d="M114.3,51.3c0,0-0.1,0-0.4-0.1c-0.2-0.1-0.6-0.2-1-0.5c-0.4-0.2-0.9-0.6-1.4-1.1
							c-0.5-0.5-1-1.1-1.4-1.8c-0.4-0.7-0.8-1.6-1-2.5c-0.2-0.9-0.3-1.9-0.4-2.9c0-0.5-0.1-1-0.1-1.5c-0.1-0.5-0.2-1-0.5-1.2
							c-0.1-0.1-0.2-0.1-0.4,0c-0.2,0.1-0.3,0.3-0.5,0.4c-0.2,0.2-0.3,0.4-0.5,0.6l-0.4,0.6l-0.4,0.7l-0.2,0.7
							c-0.2,0.4-0.3,0.9-0.4,1.3c-0.1,0.4-0.1,0.9-0.2,1.3c0.1,0.4,0,0.9,0.1,1.3c0,0.2,0.1,0.4,0.1,0.6c0.1,0.2,0.1,0.4,0.2,0.6
							c0.1,0.4,0.3,0.7,0.5,1.1c0.4,0.6,0.8,1.3,1.3,1.7c0.1,0.1,0.2,0.2,0.4,0.3c0.1,0.1,0.3,0.2,0.4,0.2c0.3,0.2,0.5,0.3,0.8,0.4
							c0.5,0.2,1,0.2,1.4,0.2c0.4,0,0.7-0.1,1-0.2c0.2-0.1,0.4-0.1,0.4-0.1l0.1,0.2c0,0-0.1,0.1-0.3,0.3c-0.2,0.2-0.5,0.5-1,0.6
							c-0.2,0.1-0.5,0.2-0.8,0.3c-0.3,0-0.7,0.1-1,0.1c-0.4,0-0.8-0.1-1.2-0.2c-0.2-0.1-0.4-0.1-0.6-0.2c-0.2-0.1-0.4-0.2-0.6-0.3
							c-0.8-0.5-1.5-1.2-2.1-2c-0.2-0.5-0.6-0.9-0.7-1.4c-0.1-0.3-0.2-0.5-0.3-0.8c-0.1-0.3-0.1-0.5-0.1-0.8c-0.1-0.6,0-1.1,0-1.7
							c0.1-0.6,0.2-1.1,0.4-1.7c0.2-0.5,0.4-1.1,0.8-1.6l0.5-0.7l0.6-0.6l0.6-0.6c0.2-0.2,0.4-0.4,0.6-0.5c0.2-0.2,0.5-0.3,0.7-0.5
							c0.2,0,0.3-0.1,0.5-0.1c0.2,0,0.4,0.1,0.5,0.2c0.5,0.5,0.5,1,0.7,1.5c0.2,0.5,0.3,1,0.5,1.4c0.3,0.9,0.7,1.8,1,2.6
							c0.3,0.8,0.5,1.6,0.9,2.2c0.3,0.7,0.6,1.2,0.9,1.7c0.2,0.3,0.3,0.5,0.5,0.7c0.2,0.2,0.3,0.4,0.4,0.6c0.3,0.3,0.5,0.6,0.7,0.8
							c0.2,0.2,0.3,0.3,0.3,0.3L114.3,51.3z"/>
					</g>
					<g>
						<path fill="#6A5C50" d="M22.5,139c0.2,1.1,0.1,2.3,0.1,3.4l-0.1,1.7c0,0.6,0,1.1,0,1.7c0,1.1,0.1,2.2,0.3,3.1
							c0.1,0.5,0.3,0.9,0.6,1.1c0.3,0.3,0.5,0.4,0.9,0.5l0.1,0l0,0l0,0c0.1,0-0.1,0-0.1,0l0,0l0.1,0l0.2,0c0.1,0,0.1,0,0.2,0
							c0.1,0,0.3-0.1,0.4-0.2c0.3-0.2,0.6-0.6,0.9-1c0.5-0.8,0.9-1.8,1.2-2.8c0.3-1,0.6-2.1,0.8-3.2c0.1-0.5,0.2-1.1,0.2-1.6
							c0.1-0.5,0.1-1.1,0.1-1.6l0.7,0.4c-0.6,0.1-1.2,0-1.6,0c-0.5-0.1-0.9-0.1-1.4,0.1l-0.2,0.1l-0.1-0.1c-0.4-0.5-0.5-1.1-0.8-1.6
							c0.5,0.4,0.7,1,1.1,1.3l-0.3,0c0.5-0.3,1.1-0.4,1.6-0.5c0.5-0.1,1-0.1,1.3-0.2l0.6-0.2l0.1,0.7c0.3,1.3,0.2,2.4,0.1,3.6
							c-0.1,1.2-0.3,2.3-0.6,3.5c-0.3,1.2-0.7,2.3-1.4,3.4c-0.3,0.5-0.8,1.1-1.4,1.5c-0.3,0.2-0.7,0.4-1.1,0.5
							c-0.2,0-0.5,0.1-0.7,0.1l-0.2,0l-0.1,0l-0.1,0l0,0l-0.1,0c-0.7-0.1-1.5-0.6-2-1.2c-0.5-0.6-0.7-1.3-0.8-1.9
							c-0.3-1.3-0.2-2.5,0-3.6c0.1-0.6,0.2-1.1,0.3-1.7c0.1-0.6,0.2-1.1,0.4-1.7l0.4-1.7C22.3,140.1,22.4,139.6,22.5,139z"/>
					</g>
					<g>
						<path fill="#6A5C50" d="M32.5,147.5c0.3,1.8,0.1,3.6-0.4,5.4c-0.5,1.8-1.1,3.4-1.5,5.1c-0.1,0.4-0.2,0.9-0.3,1.3
							c-0.1,0.4-0.2,0.9-0.2,1.3c-0.1,0.8-0.2,1.7-0.1,2.4c0.1,0.3,0.2,0.6,0.2,0.6c0,0,0,0,0,0c0,0,0.1,0,0.1,0
							c0.1,0,0.2,0,0.4-0.1c0.6-0.2,1.3-0.7,2-1.3l0.1,0l0,0l0,0c0,0-0.1,0.1,0,0l0,0l0.1-0.1l0.2-0.2l0.5-0.5
							c0.2-0.3,0.5-0.6,0.7-0.9c0.4-0.7,0.8-1.4,1.2-2.2c0.3-0.8,0.6-1.6,0.9-2.4c0.2-0.8,0.5-1.7,0.7-2.5c0.4-1.7,0.7-3.5,1.2-5.2
							c0.2-0.9,0.4-1.8,0.7-2.6c0.3-0.9,0.6-1.8,1-2.6l1.5,0.6c-0.7,1.8-1.7,3.5-2.8,5c-1.1,1.5-2.4,2.9-3.8,4.2l-0.3,0.3l-0.1-0.4
							c-0.2-1-0.6-2-0.7-3c0.3,1,0.9,1.9,1.2,2.9l-0.4-0.1c1.2-1.4,2.2-3,3.2-4.5c0.5-0.8,0.9-1.6,1.3-2.4c0.4-0.8,0.7-1.6,1-2.5
							l1.5,0.6c-0.3,0.8-0.5,1.6-0.8,2.5c-0.2,0.8-0.4,1.7-0.6,2.6c-0.3,1.7-0.6,3.5-1,5.3c-0.4,1.8-0.9,3.6-1.6,5.3
							c-0.4,0.9-0.8,1.7-1.4,2.5c-0.3,0.4-0.6,0.8-1,1.2l-0.5,0.5l-0.2,0.2l-0.1,0.1l-0.1,0.1l0,0l-0.1,0.1
							c-0.8,0.6-1.5,1.1-2.6,1.5c-0.2,0.1-0.6,0.1-0.9,0.2c-0.2,0-0.4,0-0.6-0.1c-0.2-0.1-0.4-0.2-0.6-0.3c-0.7-0.6-0.8-1.2-0.9-1.8
							c-0.1-1.1,0.1-2,0.3-2.9c0.1-0.5,0.2-0.9,0.3-1.3c0.1-0.5,0.3-0.9,0.4-1.3c0.6-1.7,1.4-3.3,2.1-5
							C32,151,32.5,149.3,32.5,147.5z"/>
					</g>
					<g>
						<path fill="#6A5C50" d="M76,243.5c0,0,0.2,0.2,0.4,0.5c0.3,0.3,0.6,0.8,1,1.6c0.7,1.4,1.3,3.7,1.8,6.3c0.3,1.3,0.6,2.7,1,4.2
							c0.4,1.4,1,2.9,1.9,4c0.5,0.5,1,0.9,1.7,1c0.6,0.2,1.4,0.1,2.1-0.1c1.1-0.3,1.7-1.9,1.9-3.5c0.2-1.7,0.1-3.4,0-5.1
							c-0.1-1.7-0.3-3.4-0.5-5.1c-0.1-1.8-0.1-3.3-0.2-4.8c-0.1-1.5-0.1-3-0.2-4.4c0-2.7,0.2-5,0.5-6.5c0.2-0.8,0.3-1.4,0.5-1.8
							c0.1-0.4,0.2-0.6,0.2-0.6s0,0.2-0.1,0.6c-0.1,0.4-0.1,1-0.2,1.8c-0.1,1.6,0,3.8,0.2,6.4c0.2,1.3,0.3,2.8,0.5,4.3
							c0.2,1.5,0.3,3.2,0.5,4.8c0.2,1.6,0.5,3.4,0.7,5.2c0.2,1.8,0.3,3.6,0,5.5c-0.1,0.9-0.3,1.9-0.8,2.9c-0.2,0.5-0.5,1-1,1.4
							c-0.2,0.2-0.5,0.4-0.7,0.5c-0.2,0.1-0.3,0.1-0.5,0.2c-0.2,0.1-0.2,0.1-0.3,0.1l-0.2,0l-0.1,0l0,0l0,0l-0.1,0l-0.4,0.1
							c-0.2,0-0.5,0.1-0.8,0.1c-0.3,0-0.5,0-0.8,0c-0.3,0-0.5-0.1-0.8-0.2c-1-0.3-1.9-1-2.5-1.7c-1.2-1.6-1.6-3.3-2-4.8
							c-0.3-1.5-0.5-3-0.7-4.3c-0.3-2.7-0.6-4.9-1-6.3c-0.2-0.7-0.5-1.3-0.7-1.6C76.1,243.7,76,243.5,76,243.5z"/>
					</g>
					<g>
						<path fill="#6A5C50" d="M97.5,251c-0.1,1.8-0.4,3.6-0.6,5.4c-0.1,0.9-0.2,1.8-0.2,2.7l-0.1,1.3l0,1.3l0.1,1.3l0.1,1.3
							c0,0.4,0.2,0.8,0.2,1.3c0.1,0.4,0.2,0.8,0.3,1.2c0.1,0.4,0.3,0.8,0.5,1.1c0.2,0.4,0.4,0.7,0.6,1.1c0.2,0.3,0.5,0.6,0.8,0.9
							l0.9,0.8l-1.3,0.1c0.1-0.2,0.3-0.4,0.4-0.7l0.2-0.4l0.2-0.5c0.2-0.6,0.3-1.3,0.4-2c0.1-0.7,0.2-1.4,0.2-2.1
							c0.1-0.7,0.1-1.4,0.1-2.1c0-0.7,0-1.4,0.1-2.1c0-0.7,0-1.4,0-2.2l0-4.3l1,0.2c-0.1,0.1-0.1,0.2-0.2,0.3
							c-0.1,0.1-0.2,0.4-0.6,0.4c-0.2,0-0.3,0-0.4-0.1c-0.1,0-0.2-0.1-0.2-0.2c-0.1-0.1-0.2-0.2-0.3-0.3c-0.3-0.4-0.6-0.9-0.8-1.3
							C98.3,252.8,97.9,251.9,97.5,251z M97.5,251c0.6,0.8,1.1,1.6,1.7,2.4c0.3,0.4,0.6,0.8,0.9,1.1c0.1,0.1,0.2,0.1,0.2,0.2
							c0,0,0.1,0,0.1,0c0,0,0,0-0.1,0c-0.1,0-0.1,0.1-0.1,0l0.1-0.3l0.7-1.7l0.2,1.9c0.2,1.4,0.4,2.9,0.5,4.3
							c0.1,1.5,0.2,2.9,0.2,4.4c0,0.7,0,1.5,0,2.2c0,0.7-0.1,1.5-0.2,2.2c-0.1,0.8-0.2,1.5-0.5,2.3l-0.2,0.6l-0.3,0.6
							c-0.1,0.4-0.5,0.8-0.7,1.1l-0.6,0.8l-0.8-0.7l-1.1-1c-0.3-0.4-0.6-0.8-0.9-1.2c-0.2-0.4-0.5-0.9-0.7-1.3
							c-0.2-0.5-0.4-0.9-0.5-1.4c-0.1-0.5-0.3-0.9-0.3-1.4c-0.1-0.5-0.1-1-0.2-1.4c0-0.5-0.1-0.9-0.1-1.4l0.1-1.4
							c0.1-0.9,0.2-1.9,0.3-2.8c0.2-0.9,0.3-1.8,0.6-2.7C96.4,254.5,96.9,252.7,97.5,251z"/>
					</g>
					<g>
						<path fill="#6A5C50" d="M106.5,250l0.4,2.5c0.1,0.8,0.3,1.6,0.5,2.4c0.1,0.4,0.2,0.8,0.4,1.1c0.1,0.4,0.3,0.7,0.5,1
							c0.2,0.3,0.4,0.6,0.6,0.9c0.2,0.3,0.5,0.6,0.8,0.8l-1.5,0.2c0.3-0.5,0.5-1,0.7-1.5c0.2-0.5,0.4-1.1,0.6-1.6
							c0.2-0.5,0.3-1.1,0.5-1.7c0.1-0.6,0.3-1.1,0.4-1.7c0.1-0.6,0.1-1.1,0.2-1.7c0-0.3,0-0.6,0-0.8c0-0.3,0-0.6,0-0.8
							c0-0.3-0.1-0.5-0.1-0.8c0-0.3-0.2-0.5-0.2-0.8c-0.1-0.3-0.2-0.5-0.3-0.8l-0.5-0.7l0.2,0c-0.2,0-0.3,0.1-0.5,0.3
							c-0.1,0.2-0.1,0.4-0.1,0.6c-0.1-0.2-0.2-0.4-0.1-0.7c0.1-0.3,0.3-0.5,0.5-0.6l0.1-0.1l0.1,0.1c0.2,0.2,0.5,0.4,0.7,0.6
							c0.2,0.3,0.4,0.5,0.6,0.8c0.2,0.3,0.3,0.6,0.4,0.9c0.1,0.3,0.2,0.6,0.3,0.9c0.2,0.6,0.3,1.3,0.3,1.9c0.1,0.6,0,1.3,0,1.9
							c-0.1,0.6-0.1,1.3-0.3,1.9c-0.1,0.6-0.3,1.2-0.5,1.8c-0.4,1.2-0.9,2.4-1.5,3.5l-0.6,1.2l-0.9-1c-0.3-0.4-0.6-0.7-0.9-1.1
							c-0.3-0.4-0.5-0.8-0.7-1.2c-0.4-0.9-0.6-1.8-0.7-2.7C105.9,253.4,106.1,251.7,106.5,250z"/>
					</g>
					<path fill="none" stroke="#6A5C50" stroke-miterlimit="10" d="M138.9,204.7c2,5.8-7.3,21.4-1.7,24.1c7.1,3.4,5-12.3,3.2-18.9
						C139.9,210.2,141.7,211.4,138.9,204.7z"/>
					<g>
						<path fill="#6A5C50" d="M146,206c0,0,0.2,0.1,0.5,0.2c0.3,0.1,0.8,0.4,1.3,0.9c0.5,0.5,1.1,1.1,1.5,2c0.5,0.9,0.9,1.9,1.1,3
							c0.3,1.1,0.5,2.4,0.6,3.7c0,0.3,0.1,0.7,0.1,1c0,0.3,0.1,0.7,0.1,1c0.1,0.6,0.2,1.3,0.4,1.9c0.2,0.6,0.4,1.3,0.8,1.7
							c0.1,0.1,0.2,0.2,0.3,0.3c0,0,0.1,0.1,0.1,0.1c0,0,0.1,0,0.1,0.1c0.2,0.1,0.3,0.1,0.4,0.1c0.3,0,0.8-0.5,1.2-0.9
							c0.4-0.5,0.9-1.1,1.1-1.7l0.1-0.3l0.1-0.2c0-0.1,0.1-0.3,0.2-0.4c0.1-0.3,0.2-0.7,0.3-1c0.2-0.7,0.3-1.4,0.4-2.1
							c0.1-1.4,0.2-2.9,0.2-4.3c-0.1-1.3-0.3-2.7-0.8-3.6c-0.1-0.1-0.2-0.3-0.2-0.3c0,0-0.1-0.1-0.2-0.1c0,0,0,0-0.1-0.1
							c-0.2-0.1-0.5-0.3-0.7-0.4c-0.5-0.2-1.1-0.4-1.6-0.6c-0.5-0.2-1.1-0.3-1.6-0.4l-0.1,0c-0.1,0-0.1,0-0.1,0l-0.2-0.1
							c-0.1,0-0.3-0.1-0.4-0.2c-0.2-0.1-0.4-0.3-0.6-0.4c-0.7-0.6-1.3-1.1-1.9-1.1c-0.6,0.1-1,0.5-1.2,0.8c-0.2,0.3-0.3,0.4-0.3,0.4
							s0.1-0.2,0.2-0.5c0.2-0.3,0.4-0.9,1.2-1.1c0.8-0.2,1.7,0.4,2.4,0.8c0.2,0.1,0.4,0.2,0.6,0.3c0.1,0,0.2,0.1,0.3,0.1l0.2,0
							c0,0,0.1,0,0.1,0l0.1,0c0.5,0.1,1.1,0.2,1.7,0.3c0.6,0.1,1.2,0.3,1.8,0.5c0.3,0.1,0.6,0.2,1,0.4c0.1,0,0.2,0.1,0.3,0.2
							c0.1,0.1,0.1,0.1,0.2,0.2c0.2,0.2,0.3,0.3,0.4,0.5c0.9,1.3,1.1,2.8,1.3,4.3c0.1,1.5,0.2,3,0,4.6c-0.1,0.8-0.2,1.6-0.4,2.4
							c-0.1,0.4-0.2,0.8-0.3,1.2c-0.1,0.4-0.3,0.9-0.5,1.2c-0.4,0.8-0.9,1.4-1.5,2.1c-0.6,0.6-1.2,1.3-2.5,1.6
							c-0.6,0.1-1.3-0.1-1.7-0.4l-0.3-0.3c-0.1-0.1-0.2-0.2-0.2-0.3c-0.2-0.2-0.3-0.4-0.4-0.6c-0.5-0.8-0.7-1.5-0.9-2.3
							c-0.2-0.8-0.3-1.5-0.3-2.2c0-0.4,0-0.7,0-1c0-0.3,0-0.7,0-1c0-1.3-0.1-2.5-0.3-3.6c-0.2-1.1-0.4-2.1-0.7-2.9
							c-0.3-0.8-0.7-1.5-1.1-2c-0.4-0.5-0.8-0.8-1.1-1C146.2,206.1,146,206,146,206z"/>
					</g>
					<g>
						<path fill="#6A5C50" d="M183.5,196.5c0,0-0.1,2.5-0.2,6.2c0,1.8,0,4,0.2,6.2c0.1,1.1,0.3,2.3,0.7,3.2c0.2,0.5,0.5,0.8,0.7,0.9
							c0.2,0.1,0.5,0.1,0.9-0.1c0.1,0,0.2-0.1,0.3-0.2l0.2-0.1l0,0l0,0c0,0-0.2,0.1-0.1,0.1l0,0l0.1-0.1c0.2-0.2,0.5-0.4,0.7-0.6
							c0.1-0.2,0.3-0.4,0.4-0.5c0.1-0.2,0.3-0.5,0.4-0.7c0.4-1,0.8-2,0.9-3.1c0.1-1.1,0.2-2.1,0.2-3.2c0-0.5,0-1-0.1-1.5
							c0-0.5-0.1-0.9-0.2-1.4c-0.1-0.4-0.2-0.9-0.3-1.3c-0.1-0.4-0.2-0.8-0.3-1.1c-0.1-0.4-0.2-0.7-0.3-1c-0.1-0.3-0.2-0.6-0.3-0.8
							c-0.1-0.2-0.2-0.5-0.3-0.6c-0.1-0.2-0.2-0.3-0.3-0.4c-0.2-0.2-0.2-0.4-0.2-0.4s0.1,0.1,0.3,0.3c0.1,0.1,0.2,0.2,0.4,0.4
							c0.1,0.2,0.3,0.4,0.5,0.6c0.2,0.2,0.3,0.5,0.5,0.8c0.2,0.3,0.4,0.6,0.5,0.9c0.4,0.7,0.7,1.5,1,2.4c0.3,0.9,0.5,1.9,0.7,3
							c0.1,1.1,0.2,2.3,0.1,3.5c-0.1,1.2-0.4,2.5-1,3.8c-0.2,0.3-0.3,0.6-0.5,0.9c-0.2,0.3-0.5,0.6-0.7,0.9
							c-0.2,0.2-0.5,0.4-0.7,0.6l-0.1,0.1l0,0l-0.1,0.1l0,0l0,0l-0.2,0.1c-0.2,0.1-0.3,0.2-0.5,0.3l-0.6,0.2c-0.2,0-0.4,0.1-0.7,0.1
							c-0.2,0-0.5,0-0.7-0.1c-0.2-0.1-0.5-0.1-0.7-0.3c-0.9-0.5-1.2-1.3-1.5-1.9c-0.5-1.3-0.6-2.6-0.6-3.8c-0.1-1.2,0-2.3,0.1-3.4
							c0.1-1.1,0.2-2.1,0.3-3C182.7,198.9,183.5,196.5,183.5,196.5z"/>
					</g>
					<g>
						<path fill="#6A5C50" d="M210.5,178.5c0,0,0.1,0.5,0.2,1.3c0.1,0.8,0.2,2,0.5,3.4c0.1,0.7,0.3,1.4,0.6,2.1
							c0.2,0.7,0.6,1.4,1.1,1.9c0.5,0.5,1.1,0.8,1.9,0.9c0.4,0,0.8,0,1.2-0.1l0.6-0.1l0.7-0.2c0.7-0.2,1.5-0.6,1.9-1.1
							c0.5-0.5,0.8-1.2,1-2c0.4-1.6,0.3-3.3,0.5-4.7c0.1-1.5,0.4-2.8,1-3.5c0.2-0.4,0.5-0.6,0.7-0.7c0.2-0.1,0.3-0.2,0.3-0.2
							s-0.1,0.1-0.2,0.3c-0.1,0.2-0.3,0.5-0.4,0.8c-0.3,0.7-0.3,1.9-0.2,3.3c0.1,0.7,0.2,1.5,0.2,2.3c0,0.8,0.1,1.8-0.1,2.7
							c-0.2,1-0.5,2.1-1.2,3c-0.8,0.9-1.8,1.5-2.9,1.8l-0.7,0.2c-0.3,0.1-0.6,0.1-0.8,0.1c-0.5,0.1-1.1,0-1.6,0
							c-1.1-0.1-2.3-0.8-3-1.6c-0.7-0.8-1-1.8-1.2-2.7c-0.2-0.9-0.2-1.7-0.3-2.4c0-1.5,0.1-2.7,0.2-3.5
							C210.4,179,210.5,178.5,210.5,178.5z"/>
					</g>
					<path fill="none" stroke="#6A5C50" stroke-miterlimit="10" d="M211,157.5c2.6,2.6,0.5,19.3,5.3,18c4.3-1.2,3.2-15.5,3.2-18.8
						c0.6,3.7,2.6,18.2,6.4,8.8c1.8-4.3,1.6-14.1-2.3-17c2.6,5.4,7.4,16.9,15.7,13.9c7.2-2.6-4.8-17.5-8.1-21.6
						c6.2,2.7,13,10.3,15.2,16.7c1.8,5.4,2.9,17-1.5,21.3c-3.6-2.8-4.6-9.1-8.4-12.6c-0.6,0.3-1,0.9-1,1.6"/>
					<g>
						<path fill="#6A5C50" d="M223,172.5c0,0,0.1,0.3,0.4,0.8c0.2,0.2,0.3,0.5,0.6,0.6c0.1,0.1,0.3,0.2,0.4,0.2
							c0.1,0,0.2,0.1,0.2,0.1c0.1,0,0.2,0,0.3,0c0.4,0.1,0.8,0,1.2-0.1c0.4-0.1,0.9-0.3,1.3-0.6c0.4-0.3,0.7-0.6,1-1
							c0.2-0.4,0.3-0.7,0.2-1c0-0.1,0-0.2-0.1-0.3l-0.2-0.5c-0.1-0.3-0.3-0.6-0.4-0.9c-0.2-0.6-0.4-1.3-0.5-1.9
							c-0.1-0.7-0.1-1.4,0.1-2.1c0.1-0.4,0.4-0.8,0.7-1c0.4-0.2,0.7-0.3,1-0.3c0.6,0,1.1,0.2,1.5,0.4c0.4,0.2,0.7,0.4,0.9,0.5
							c0.2,0.1,0.4,0.3,0.5,0.4c0.1,0.1,0.2,0.1,0.2,0.1s-0.3-0.1-0.9-0.2c-0.3-0.1-0.6-0.1-1-0.1c-0.4,0-0.8,0-1.1,0
							c-0.4,0.1-0.4,0.2-0.5,0.6c0,0.3,0,0.8,0.2,1.3c0.1,0.5,0.4,1,0.6,1.6c0.1,0.3,0.2,0.5,0.4,0.8l0.2,0.4
							c0.1,0.2,0.2,0.4,0.2,0.6c0.2,0.9,0,1.9-0.5,2.6c-0.5,0.7-1.1,1.2-1.7,1.5c-0.6,0.4-1.3,0.5-1.9,0.6c-0.6,0-1.3,0-1.8-0.3
							c-0.1-0.1-0.3-0.1-0.4-0.2c-0.1-0.1-0.2-0.2-0.3-0.3c-0.2-0.2-0.4-0.4-0.5-0.5c-0.3-0.3-0.3-0.8-0.4-1.1c0-0.3,0-0.5,0-0.7
							C223,172.6,223,172.5,223,172.5z"/>
					</g>
				</g>
			</g>
		</g>
	</g>
</g>
<g id="POSE2_1_" opacity="0.5">
</g>
<g id="POSE3_1_" opacity="0.5">
</g>
<g id="ch06-12-1">
	<g id="water_off_hand4" opacity="0.5">
	</g>
	<g id="water_off_hand4_copy" opacity="0.5">
	</g>
</g>
<g id="Layer_12">
	<g id="basin">
		<g id="Layer_15">
		</g>
		<g id="Layer_20">
		</g>
		<g id="Layer_14">
		</g>
		<g id="Layer_17" opacity="0.49">
			<g id="Layer_16">
			</g>
		</g>
		<g id="Layer_17_copy_2" opacity="0.49">
			<g id="Layer_16_copy">
			</g>
		</g>
		<g id="Layer_17_copy" opacity="0.49">
		</g>
	</g>
</g>
<g id="Layer_22">
	<g id="Layer_23">
	</g>
	<g id="Layer_24">
	</g>
	<g id="Layer_24_copy">
	</g>
</g>
<g id="ch02A-09-4">
	<g id="dirtydrips_x5F_fromholes">
	</g>
	<g id="dirtydrips_x5F_fromholes_copy">
	</g>
</g>
<g id="muddy_x5F_water_x5F_pose1">
</g>
<g id="muddy_x5F_water_x5F_pose2" opacity="0.61">
</g>
<g id="muddy_x5F_water_x5F_pose2_copy">
</g>
</svg>
