<?xml version="1.0" encoding="utf-8"?>
<!-- Generator: Adobe Illustrator 18.1.1, SVG Export Plug-In . SVG Version: 6.00 Build 0)  -->
<!DOCTYPE svg PUBLIC "-//W3C//DTD SVG 1.1//EN" "http://www.w3.org/Graphics/SVG/1.1/DTD/svg11.dtd">
<svg version="1.1" xmlns="http://www.w3.org/2000/svg" xmlns:xlink="http://www.w3.org/1999/xlink" x="0px" y="0px"
	 viewBox="0 0 132.6 108.7" enable-background="new 0 0 132.6 108.7" xml:space="preserve">
<g id="ch04-02-1">
</g>
<g id="facing_1_">
	<path fill="#4C3718" d="M131.5,83.9c-0.1-4.4,0.1-8.8,0.2-13.2c0.4-19.1-2.9-38.1-3.2-57.3c0-0.2-0.4-0.3-0.5-0.3c0,0-0.1,0-0.1,0
		c-6.1-4.3-10.3-10.9-18.1-12.4c-0.1,0-0.1,0-0.2,0c0,0-0.1,0-0.1,0C91.7-0.5,73.9,1.2,56,0.7c-8.6-0.2-17.2,0.5-25.7,0.1
		c-8.4-0.4-16.1-0.2-24.5,1c-0.9,0-2.3,0.6-2.1,1.1c1.4,3.5-0.7,7.2-0.9,10.7c-0.1,2.2,0.4,4.3,0.5,6.4c0.2,3.3-0.4,6.7-0.7,10
		C1.8,41.6,2.2,53.4,1.2,65c-0.4,5-0.9,9.7-0.8,14.7c0.1,2.7,0.2,5.4,0.3,8.1c0,2.2-0.7,4.9-0.2,7c0.8,3,5,5.1,7.2,7.1
		c3.1,2.7,7.4,3.5,10.3,6.3c0,0,0,0,0,0c0,0,0,0,0,0c0,0,0.1,0,0.1,0.1c0.4,0.2,1,0.1,1.4,0c4.5-0.9,9.2-0.8,13.7-0.6
		c4.7,0.2,9.3-0.5,14-0.7c10.3-0.4,20.5,0.9,30.8,0.9c7.8-0.1,15.7-0.8,23.5-0.8c4.8,0,9.6,0.6,14.4,0.3c3.8-0.2,8.8,0.1,12.4-0.9h0
		c1.9-0.4,2.9-1.6,3.3-3.2c0.5-1.5,0.5-3.4,0.6-5.2C132.6,93.4,131.6,88.6,131.5,83.9z"/>
	<g id="facing_2_">
		<g id="XMLID_1_">
			<g>
				<path fill="#937031" d="M129.3,95.4c0,1,0.2,9.5-1.3,9.8c-1.6,0.4-3.8,0.2-5.4,0.3c-3.4,0.3-6.9,0.6-10.3,0.6
					c-4.5-0.1-8.9-0.7-13.5-0.3c-8.6,0.6-17.3,0.8-25.9,0.6c-9.5-0.3-18.9-1.2-28.4-0.6c-8,0.5-16.1-0.3-24,1
					c-0.9-2.1-2.1-3.9-1.9-6.3c0.1-1.4,0.7-2.8,0.8-4.3c0.3-3.6,0-7.3-0.3-10.9c-0.6-8.3-0.5-16.4-0.1-24.7
					c0.4-8.1-0.1-16.2,0.1-24.3c0.2-6.8-1.4-13.9,2.2-20c1.6,0.1,3-0.1,4.7-0.2c4.2-0.3,8.4-0.4,12.6-0.7c9.5-0.7,18.9-1.6,28.4-1.5
					c9,0.1,18,1.1,27.1,0.6c7.7-0.4,15.2-1.9,22.8-2.2c3.1-0.1,7.6,0.4,8.5,3.9c1,4,0.3,9.2,0.6,13.4c0.6,8.9,1.5,17.8,2.1,26.7
					c0.6,8.9,0.1,17.7,0.2,26.6C128.6,87,129.2,91.2,129.3,95.4z"/>
				<path fill="#937031" d="M36,14c-3.9,0.2-10.3,1.6-14,0.5c-3.1-2.2-6.2-4.5-8.9-7.2c-1.6-1.6-3-3.3-4.9-4.5
					C16.1,2,23.7,2.2,31.7,2.4C40,2.6,48.4,2,56.8,2.2C73.8,2.7,91,1.1,108.1,2.1c5.5,1.1,9.2,5,13.1,8.6c-0.5-0.1-1-0.1-1.6-0.1
					c-3.2,0-6.4,0.2-9.6,0.5c-10.5,1-20.4,2.3-31,1.6c-9.1-0.6-18.1-0.5-27.2,0.1C46.5,13.2,41.2,13.7,36,14z"/>
				<path fill="#937031" d="M15.6,102.2c0,0.7,0.2,1.3,0.4,1.9c-1.8-0.8-3.6-1.6-5.1-2.8c-3.3-2.6-7.6-5.1-7.4-9.6
					c0.2-4.9-0.2-9.7-0.3-14.5C3.2,71.2,4.1,65.1,4.5,59C5.3,48,5,36.9,6,25.8c0.4-4.7-0.6-9.4,0-14c0.3-2.2,1.1-4.4,1.2-6.6
					C8.5,6.3,9.6,7.7,11,9c2.5,2.4,5.4,4.5,8.2,6.5c-3.4,5-3.3,10.3-2.9,16.2c0.6,8.4,0.4,17.2,0.1,25.6c-0.3,9-1,17.8-0.3,26.8
					c0.4,4.5,1.1,9.6,0.3,14.1C16.3,99.6,15.6,100.9,15.6,102.2z"/>
				<path fill="#4C3718" d="M19.2,36.1c-0.2,8.1,0.3,16.2-0.1,24.3c-0.4,8.4-0.6,16.4,0.1,24.7c0.3,3.6,0.6,7.3,0.3,10.9
					c-0.1,1.5-0.7,2.9-0.8,4.3c-0.2,2.4,0.9,4.3,1.9,6.3c7.9-1.3,16-0.5,24-1c9.5-0.6,18.9,0.3,28.4,0.6c8.6,0.3,17.4,0.1,25.9-0.6
					c4.5-0.3,8.9,0.3,13.5,0.3c3.4,0,6.9-0.3,10.3-0.6c1.6-0.1,3.8,0.1,5.4-0.3c1.5-0.3,1.3-8.8,1.3-9.8c-0.2-4.2-0.8-8.4-0.8-12.7
					c-0.1-8.9,0.4-17.7-0.2-26.6c-0.6-8.9-1.5-17.8-2.1-26.7c-0.3-4.2,0.5-9.4-0.6-13.4c-0.9-3.5-5.5-4-8.5-3.9
					c-7.7,0.3-15.2,1.7-22.8,2.2c-9.1,0.5-18-0.5-27.1-0.6c-9.5-0.1-18.9,0.8-28.4,1.5c-4.2,0.3-8.4,0.4-12.6,0.7
					c-1.7,0.1-3.2,0.4-4.7,0.2C17.8,22.2,19.4,29.3,19.2,36.1z M8.2,2.9c1.8,1.2,3.2,2.9,4.9,4.5c2.6,2.7,5.8,5,8.9,7.2
					c3.8,1.1,10.1-0.3,14-0.5c5.3-0.3,10.5-0.9,15.8-1.2c9.1-0.6,18.1-0.7,27.2-0.1c10.6,0.7,20.6-0.6,31-1.6
					c3.2-0.3,6.4-0.5,9.6-0.5c0.6,0,1.1,0.1,1.6,0.1c-3.9-3.6-7.6-7.6-13.1-8.6C91,1.1,73.8,2.7,56.8,2.2C48.4,2,40,2.6,31.7,2.4
					C23.7,2.2,16.1,2,8.2,2.9z M18,108.2c-2.9-2.9-7.2-3.6-10.3-6.3c-2.3-2-6.5-4.1-7.2-7.1c-0.5-2.1,0.2-4.8,0.2-6.9
					c0-2.7-0.2-5.4-0.3-8.1C0.2,74.8,0.7,70,1.2,65C2.2,53.4,1.8,41.6,2.7,30c0.3-3.3,0.8-6.7,0.7-10c-0.1-2.2-0.7-4.2-0.5-6.4
					c0.2-3.5,2.3-7.2,0.9-10.7c-0.2-0.6,1.1-1.1,2-1.1c8.3-1.1,16-1.4,24.5-1C38.9,1.2,47.5,0.5,56,0.7c17.8,0.5,35.7-1.2,53.5-0.1
					c0.1,0,0.1,0,0.1,0c0.1,0,0.1,0,0.2,0c7.8,1.5,12,8.1,18.1,12.4c0,0,0.1,0,0.1,0c0.1,0,0.5,0.1,0.5,0.3
					c0.2,19.1,3.6,38.1,3.2,57.3c-0.1,4.4-0.3,8.8-0.2,13.2c0.1,4.7,1.1,9.5,0.8,14.2c-0.1,1.8-0.1,3.6-0.6,5.2
					c-0.5,1.6-1.4,2.8-3.3,3.2h0c-3.7,1-8.6,0.7-12.4,0.9c-4.8,0.3-9.6-0.3-14.4-0.3c-7.8,0-15.7,0.8-23.5,0.8
					c-10.3,0.1-20.5-1.3-30.8-0.8c-4.7,0.2-9.3,0.9-14,0.7c-4.5-0.2-9.2-0.3-13.7,0.6c-0.3,0.1-1,0.2-1.4,0
					C18.1,108.3,18.1,108.3,18,108.2C18,108.2,18,108.2,18,108.2C18,108.2,18,108.2,18,108.2z M16.1,84.1c-0.8-9,0-17.8,0.3-26.8
					c0.3-8.4,0.5-17.2-0.1-25.6c-0.4-5.9-0.5-11.2,2.9-16.2c-2.8-2-5.7-4.1-8.2-6.5C9.6,7.7,8.5,6.3,7.2,5.2C7.1,7.4,6.3,9.6,6,11.8
					c-0.6,4.6,0.4,9.3,0,14C5,36.9,5.3,48,4.5,59c-0.4,6.1-1.4,12.1-1.3,18.2c0.1,4.8,0.5,9.7,0.3,14.5c-0.2,4.5,4.1,6.9,7.4,9.6
					c1.6,1.2,3.4,2,5.1,2.8c-0.3-0.6-0.4-1.3-0.4-1.9c-0.1-1.4,0.6-2.7,0.9-4C17.3,93.7,16.5,88.7,16.1,84.1z"/>
			</g>
		</g>
	</g>
</g>
</svg>
