<?xml version="1.0" encoding="iso-8859-1"?>
<!-- Generator: Adobe Illustrator 18.1.1, SVG Export Plug-In . SVG Version: 6.00 Build 0)  -->
<!DOCTYPE svg PUBLIC "-//W3C//DTD SVG 1.1//EN" "http://www.w3.org/Graphics/SVG/1.1/DTD/svg11.dtd">
<svg version="1.1" xmlns="http://www.w3.org/2000/svg" xmlns:xlink="http://www.w3.org/1999/xlink" x="0px" y="0px"
	 viewBox="0 0 279.3 590.8" enable-background="new 0 0 279.3 590.8" xml:space="preserve">
<g id="Layer_1">
</g>
<g id="BSFM_copy">
	<g id="body_x5F_back_1_">
	</g>
	<g id="water_copy" opacity="0.7">
	</g>
	<g id="sand_copy">
	</g>
	<g id="gravel_x5F_top_1_">
	</g>
	<g id="gravel_x5F_bottom_1_">
	</g>
	<g id="concrete_x5F_body_1_">
	</g>
	<g id="bsfm_x5F_nose_x5F_side_1_" display="none">
		<path display="inline" fill="#1FA6AA" d="M276.9,93.1c-3.1-2.3-5.9-5.1-8.7-7.8c-7.4-7.2-14.5-14.8-21.4-22.5
			c-3.2-3.5-6.5-7.1-9.7-10.7c-1.3-1.4-2.7-3.9-4.3-4.9c-2.2-1.4-6.7-6.1-8.8-7.7c-4.4-3.4-8.7-10.4-12.8-10.7
			c-0.2,0-0.1,13.6-0.3,13.9c-0.3,0.2-0.6,0.5-0.6,0.7c-0.3,14.7-0.6,29.3-0.7,44c0,2.9-0.5,6.2,0.1,9c0.4,1.9,0.1,1.6,2.4,2
			c8.5,1.2,17.4,1,26,0.9c10-0.1,20-0.4,29.9-1.2c1.6-0.1,7.9,0.1,10.4-1.5c0.5-0.3,0.8-0.6,0.9-1.1
			C279.7,94.2,277.9,93.9,276.9,93.1z"/>
	</g>
	<g id="bsfm_x5F_nose_x5F_side_copy">
		<g>
			<g id="XMLID_2_">
				<g>
					<path d="M276.9,93.1c1.1,0.8,2.8,1.2,2.4,2.5c-0.1,0.4-0.5,0.8-0.9,1.1c-2.5,1.6-8.8,1.4-10.4,1.5C258,99,248,99.2,238,99.3
						c-8.6,0.1-17.4,0.3-26-0.9c-2.3-0.3-2.1-0.1-2.4-2c-0.6-2.8-0.1-6.2-0.1-9c0.1-14.7,0.4-29.3,0.7-44c0-0.2,0.3-0.5,0.6-0.7
						c0.3-0.3,0.1-13.9,0.3-13.9c4.2,0.3,8.4,7.3,12.8,10.7c2,1.6,6.6,6.3,8.8,7.7c1.6,1,3.1,3.5,4.4,4.9c3.2,3.6,6.4,7.2,9.7,10.7
						c7,7.7,14,15.3,21.4,22.5C271,88,273.8,90.7,276.9,93.1z M277,95.8c0.1,0,0.2,0,0.3-0.1c-0.7-0.4-1.3-0.9-1.9-1.4
						c-6.5-4.9-12.1-11.1-17.6-16.9c-6.4-6.7-12.6-13.5-18.8-20.3c-2.4-2.7-5.9-6.4-8.5-8.9c-3.4-3.2-7.4-8.4-10.3-10.2
						c-2.2-1.3-4.9-5.8-7.5-6.2c-0.3,14.8-1.6,41.3-1.6,56.1c0,2.1-0.6,5.4,0.1,7.4c0.6,1.8,2.6,1.5,4.7,1.7
						c8.5,0.8,17.1,0.7,25.7,0.6c9-0.1,18-0.4,27-1.1C271.3,96.6,274.1,96.1,277,95.8z"/>
					<path fill="#1FA6AA" d="M277.3,95.8c-0.1,0-0.2,0-0.3,0.1c-2.9,0.3-5.7,0.7-8.5,1c-9,0.7-18,1-27,1.1
						c-8.5,0.1-17.2,0.2-25.7-0.6c-2.1-0.2-4.1,0.1-4.7-1.7c-0.7-2-0.1-5.3-0.1-7.4c0-14.8,1.3-41.3,1.6-56.1
						c2.6,0.4,5.3,4.8,7.5,6.2c2.9,1.8,6.8,7,10.3,10.2c2.6,2.5,6.1,6.2,8.5,8.9c6.2,6.9,12.4,13.7,18.8,20.3
						c5.6,5.8,11.2,12,17.6,16.9C276,94.9,276.6,95.4,277.3,95.8z"/>
				</g>
			</g>
		</g>
	</g>
	<g id="white_x5F_hose_1_">
	</g>
	<g id="diffuser_1_">
	</g>
	<g id="Lid_1_">
	</g>
</g>
<g id="BSFM">
	<g id="body_x5F_back">
		<g id="gravel_1_">
		</g>
	</g>
	<g id="water" opacity="0.7">
	</g>
	<g id="sand">
	</g>
	<g id="gravel_x5F_top">
	</g>
	<g id="gravel_x5F_bottom">
		<g id="Layer_11">
		</g>
	</g>
	<g id="concrete_x5F_body">
		<g id="gravel">
		</g>
	</g>
	<g id="bsfm_x5F_nose_x5F_side">
	</g>
	<g id="eye">
	</g>
	<g id="white_x5F_hose">
	</g>
	<g id="diffuser">
	</g>
	<g id="Lid">
	</g>
</g>
<g id="Layer_20">
	<g id="water_x5F_LowLevel">
	</g>
	<g id="water_x5F_highLevel">
	</g>
	<g id="body">
	</g>
	<g id="lid">
	</g>
</g>
</svg>
