<?xml version="1.0" encoding="iso-8859-1"?>
<!-- Generator: Adobe Illustrator 18.1.1, SVG Export Plug-In . SVG Version: 6.00 Build 0)  -->
<!DOCTYPE svg PUBLIC "-//W3C//DTD SVG 1.1//EN" "http://www.w3.org/Graphics/SVG/1.1/DTD/svg11.dtd">
<svg version="1.1" xmlns="http://www.w3.org/2000/svg" xmlns:xlink="http://www.w3.org/1999/xlink" x="0px" y="0px"
	 viewBox="0 0 279.3 590.8" enable-background="new 0 0 279.3 590.8" xml:space="preserve">
<g id="Layer_1">
</g>
<g id="BSFM_copy">
	<g id="body_x5F_back_1_">
	</g>
	<g id="water_copy" opacity="0.7">
	</g>
	<g id="sand_copy">
	</g>
	<g id="gravel_x5F_top_1_">
	</g>
	<g id="gravel_x5F_bottom_1_">
	</g>
	<g id="concrete_x5F_body_1_">
	</g>
	<g id="bsfm_x5F_nose_x5F_side_1_" display="none">
	</g>
	<g id="bsfm_x5F_nose_x5F_side_copy">
	</g>
	<g id="white_x5F_hose_1_">
	</g>
	<g id="diffuser_1_">
	</g>
	<g id="Lid_1_">
	</g>
</g>
<g id="BSFM">
	<g id="body_x5F_back">
		<g id="gravel_1_">
		</g>
	</g>
	<g id="water" opacity="0.7">
	</g>
	<g id="sand">
	</g>
	<g id="gravel_x5F_top">
	</g>
	<g id="gravel_x5F_bottom">
		<g id="Layer_11">
		</g>
	</g>
	<g id="concrete_x5F_body">
		<g id="gravel">
		</g>
	</g>
	<g id="bsfm_x5F_nose_x5F_side">
	</g>
	<g id="eye">
	</g>
	<g id="white_x5F_hose">
	</g>
	<g id="diffuser">
	</g>
	<g id="Lid">
	</g>
</g>
<g id="Layer_20">
	<g id="water_x5F_LowLevel">
	</g>
	<g id="water_x5F_highLevel">
	</g>
	<g id="body">
	</g>
	<g id="lid">
	</g>
</g>
<g id="glow_fx">
	<g id="glow_-_drainage_gravel_4_">
		<path opacity="0.5" fill="#00B919" d="M189.1,515.3v-2.8H38.9v7H39l0.8,28.6l4.6,0.9c30.8,8.6,68.7,9.6,85.6,9.6
			c5.1,0,8.2-0.1,8.8-0.1l3.5-0.1L142,549c16.9,2.5,33.2-0.2,40.4-1.7v0l0.1,0c2.1-0.4,3.5-0.8,3.7-0.8l0,0l2.5-0.6l0.4-26.3h0.1
			V516V515.3L189.1,515.3z"/>
		<path fill="none" d="M46.6,542.4c33.2,9.1,76,9.4,88.4,9.2l-0.3-11.1l4.3,0.9c18.1,3.6,37.1,0.1,43.3-1.3l-0.2-20.6H46L46.6,542.4
			z"/>
		<path fill="#00B919" d="M189.1,516l0-0.7l0,0v-2.8H38.9v7H39l0.8,28.6l4.6,0.9c30.8,8.6,68.7,9.6,85.6,9.6c5.1,0,8.2-0.1,8.8-0.1
			l3.5-0.1L142,549c16.9,2.5,33.2-0.2,40.4-1.7v0l0.1,0c2.1-0.4,3.5-0.8,3.7-0.8l0,0l2.5-0.6l0.4-26.3h0.1V516z M182.3,540.1
			c-6.1,1.4-25.2,4.9-43.3,1.3l-4.3-0.9l0.3,11.1c-12.4,0.1-55.3-0.1-88.4-9.2L46,519.5h136.1L182.3,540.1z"/>
	</g>
</g>
</svg>
