<?xml version="1.0" encoding="iso-8859-1"?>
<!-- Generator: Adobe Illustrator 18.1.1, SVG Export Plug-In . SVG Version: 6.00 Build 0)  -->
<!DOCTYPE svg PUBLIC "-//W3C//DTD SVG 1.1//EN" "http://www.w3.org/Graphics/SVG/1.1/DTD/svg11.dtd">
<svg version="1.1" xmlns="http://www.w3.org/2000/svg" xmlns:xlink="http://www.w3.org/1999/xlink" x="0px" y="0px"
	 viewBox="0 0 279.3 590.8" enable-background="new 0 0 279.3 590.8" xml:space="preserve">
<g id="Layer_1">
</g>
<g id="BSFM_copy">
	<g id="body_x5F_back_1_">
	</g>
	<g id="water_copy" opacity="0.7">
	</g>
	<g id="sand_copy">
		<path fill="#4E473A" d="M191.9,134.7c-0.1-0.2,0-0.4,0-0.6c0-0.1,0-0.1-0.1-0.1h-3.5c-4.9-0.6-10.1,0.2-15.1,0
			c-2.1,0.1-4.1,0.1-6.2,0.1c-0.5,0-0.9,0-1.4,0c-1.4,0-2.7,0-4.1,0.1c-0.1,0-0.1,0-0.2,0c-1,0-2-0.1-3-0.1h-13.3
			c-0.4,0-0.8,0-1.2-0.1c-1.4,0-2.7,0-4.1,0c-0.5,0-1,0-1.5,0c-0.9,0-1.7,0-2.6-0.1c-1,0.1-1.9,0.1-2.9,0.1c-1.2,0-2.5,0-3.7,0
			c-0.4,0.1-0.8,0.1-1.2,0.1h-7c-0.7,0-1.8,0.2-2.4,0c-0.1,0-0.3-0.1-0.4-0.2c-0.8,0-1.7,0-2.6,0c-1-0.1-2-0.2-2.9-0.2
			c-0.1,0-0.2,0-0.3,0c-1.1,0.1-2.2,0.1-3.3,0.1c-1,0.1-1.9,0.2-2.9,0c-1.9,0.3-3.8,0.4-5.6-0.2c-0.2,0-0.3,0-0.5,0
			c-0.4,0-0.7,0-1.1,0c-0.1,0-0.1,0-0.2,0c-0.1,0-0.2,0-0.3,0c-0.3,0-0.5,0-0.8,0c0,0,0,0,0,0c-0.1,0-0.1,0-0.2,0
			c-0.1,0-0.2,0-0.3,0c-0.6,0.1-1.3,0.1-1.9,0.1c-0.2,0-0.3,0-0.5,0c-0.3,0-0.6,0-0.9,0.1c-0.7,0.1-1.4,0.2-2.1,0
			c-1.6,0.3-3.1,0.2-4.8,0.2c-2.1,0-4.4,0.3-6.4,0c-0.3,0-0.6-0.1-0.8-0.1c-1.5,0.1-3,0.1-4.4,0.1c-1.5,0.1-3.2,0.3-4.7,0
			c-1.6,0.2-3.4,0-5,0c-1.2,0-2.4-0.1-3.6-0.2c-2.1,0.1-4.3,0.1-6.3,0.1c-0.1,0-0.1,0-0.2,0c-1.6,0.1-3.2,0.2-4.8,0.1
			c-1.2,0.1-2.4,0.2-3.7,0.1c-0.2,0-0.5,0-0.7,0c-1.4,0-2.8,0.1-4.2,0c-0.4,0-0.8-0.1-1.2-0.2c-0.9,0.1-1.7,0.1-2.6,0.1
			c-1.2,0.2-2.4,0.3-3.7,0.1c0,0,0,0,0,0c-1.2,0.2-2.6,0-3.7,0c-0.4,0-1,0.6-1,1v349.9c0,1.3-0.5,3.6,0,4.8c0.1,0.1,0,0.4,0,0.6
			c0,0.1,0,0.1,0.1,0.1h161.3c0.4,0,1-0.6,1-1V139.5C191.9,138.2,192.4,135.9,191.9,134.7z M179.6,275.7c0.5,0,1,0.2,1.4,0.5
			C180.6,275.9,180.1,275.7,179.6,275.7z M180.9,278c-0.1,0.1-0.1,0.1-0.2,0.2c-0.1,0.1-0.1,0.1-0.2,0.1c0.1,0,0.2-0.1,0.2-0.1
			C180.8,278.1,180.9,278,180.9,278z M178.8,277.2c-0.1-0.2-0.2-0.3-0.2-0.5c0-0.4,0.2-0.7,0.6-0.9c-0.4,0.2-0.6,0.5-0.6,0.9
			C178.6,276.9,178.7,277,178.8,277.2z M175.8,284.5c0,0-0.5-0.5-0.7-1.1C175.3,283.9,175.8,284.5,175.8,284.5
			c0.1,0.1,0.1,0.1,0.2,0.1C176,284.6,175.9,284.5,175.8,284.5z M176,281.6c-0.5,0.1-0.9,0.6-1,1.1
			C175.2,282.2,175.5,281.7,176,281.6c0.1,0,0.3,0,0.4,0C176.3,281.6,176.2,281.6,176,281.6z M180.3,278.4c-0.1,0-0.2,0-0.3,0
			C180.1,278.4,180.2,278.4,180.3,278.4z M180.5,316.1c0.5,0,1,0.2,1.4,0.5C181.5,316.2,181,316,180.5,316.1z M181,261.2
			c0,0-0.8,0.3-1.4,0.3C180.3,261.5,181,261.2,181,261.2c0.4-0.2,0.5-0.7,0.4-1c0-0.2-0.1-0.3-0.1-0.4c0.1,0.1,0.1,0.3,0.1,0.4
			C181.5,260.5,181.4,261,181,261.2z M180.3,259L180.3,259c0.3,0,0.6,0.2,0.8,0.4C180.9,259.1,180.7,259,180.3,259z M179.5,317.1
			c0-0.4,0.2-0.7,0.6-0.9C179.7,316.4,179.4,316.7,179.5,317.1c0,0.1,0.1,0.3,0.2,0.5C179.5,317.4,179.5,317.2,179.5,317.1z
			 M181.1,318.7c-0.1,0-0.2,0-0.3,0C180.9,318.8,181,318.8,181.1,318.7z M181.6,318.5c0.1,0,0.1-0.1,0.2-0.2
			C181.8,318.4,181.7,318.5,181.6,318.5c-0.1,0.1-0.1,0.1-0.2,0.1C181.5,318.6,181.6,318.6,181.6,318.5z"/>
		<g>
			<path fill="#5E4A30" d="M190.8,136.7c0-2.5-0.3-1.6-3.4-1.6c-5.4-0.7-11,0.7-16.5,0c-1.3-0.2-2.5-0.8-3.9-1.1c0,0-0.1,0-0.1,0
				c-0.5,0-0.9,0-1.4,0c-1.3,0.2-2.2,0.9-3.6,1.1c-2.3,0.3-4.8-0.1-7.1-0.2c-4-0.2-8.3,0.9-12.3,0.2c-1.6-0.3-2.9-0.8-4.3-1.2
				c-0.9,0-1.7,0-2.6-0.1c-1,0.1-1.9,0.1-2.9,0.1c-1.3,0.4-2.6,1-4,1.2c-1.4,0.2-3,0-4.4,0c-2.1,0-4.7,0.5-6.7,0
				c-0.2-0.1-0.4,0-0.6-0.1c-0.9-0.3-1.1-0.9-1.7-1.3c-1-0.1-2-0.2-2.9-0.2c-0.1,0-0.2,0-0.3,0c-0.8,0.3-1.6,0.8-2.4,1
				c-3.6,1-6.5-0.3-9.9-1c-0.4,0-0.7,0-1.1,0c-0.1,0-0.1,0-0.2,0c-0.1,0-0.2,0-0.3,0c-0.3,0-0.5,0-0.8,0c0,0,0,0,0,0
				c-0.1,0-0.1,0-0.2,0c-0.1,0-0.2,0-0.3,0c-0.6,0.1-1.3,0.1-1.9,0.1c-1.6,0.5-3.1,1.2-4.8,1.3c-2.4,0.2-4.8,0-7.2,0
				c-2.5,0-3.8-0.4-6.2-0.8c-2.4-0.4-5.3,0.8-7.9,0.8c-2.3,0-4.7,0.1-7,0c-4.4-0.3-8.7-1.8-13.1-0.6c-2.1,0.6-3.6,0.6-5.8,0.6
				c-0.9,0-1.8,0.1-2.6,0c-0.6-0.1-1.2-0.4-1.7-0.6c-1.9-0.4-2.9,0-4.6,0.4c-1,0.2-2.2,0.2-3.3,0.2c0,0.1,0,0.1,0,0.2
				c0.4,3.1,0,6.6,0,9.8v342.3c0,2.2-0.4,1.9,1.8,1.9h158.3c-0.3-1.2,0.1-3.3,0.1-4.4V136.7z M181.4,260.2c0.1,0.3,0,0.8-0.4,1
				c0,0-1.4,0.5-1.9,0.3c-0.5-0.2-0.7-0.8-0.4-1.4s1-1.1,1.6-1.1C181,259,181.3,259.6,181.4,260.2z M180.8,278.1
				c-0.3,0.2-0.7,0.4-1.1,0.1c0,0-1.1-1-1.1-1.5c0-0.5,0.4-1,1-1s1.4,0.3,1.7,0.9C181.6,277.2,181.2,277.7,180.8,278.1z
				 M180.1,242.6c0.3,0.6-0.1,1.2-0.5,1.6c-0.3,0.2-0.7,0.4-1.1,0.1c0,0-1.1-1-1.1-1.5c0-0.5,0.4-1,1-1S179.8,242,180.1,242.6z
				 M170.3,388.8c-0.5-0.2-0.7-0.8-0.4-1.4s1-1.1,1.6-1.1c0.7,0,1,0.6,1.1,1.2c0.1,0.3,0,0.8-0.4,1
				C172.2,388.6,170.8,389,170.3,388.8z M171.9,408.3c-0.2,0.6-0.7,1-1.3,1c-0.6,0-1.1-0.5-1.2-1.1c0-0.7,0.5-1.2,1.1-1.6
				c0.3-0.2,0.8-0.3,1,0C171.6,406.6,172.1,407.7,171.9,408.3z M171.2,378.3c0.7,0,1,0.6,1.1,1.2c0.1,0.3,0,0.8-0.4,1
				c0,0-1.4,0.5-1.9,0.3c-0.5-0.2-0.7-0.8-0.4-1.4S170.6,378.3,171.2,378.3z M169.2,260c0,0-0.8-1-0.8-1.6c0-0.6,0.5-1.1,1-1.3
				c0.6-0.1,1.2,0.2,1.4,0.8c0.2,0.6-0.2,1.3-0.7,1.8C169.9,260,169.4,260.2,169.2,260z M172.4,345.8c-0.3,0.2-0.7,0.4-1.1,0.1
				c0,0-1.1-1-1.1-1.5c0-0.5,0.4-1,1-1s1.4,0.3,1.7,0.9C173.2,344.8,172.9,345.4,172.4,345.8z M171.5,184.1c0.6,0,1.4,0.3,1.7,0.9
				c0.3,0.6-0.1,1.2-0.5,1.6c-0.3,0.2-0.7,0.4-1.1,0.1c0,0-1.1-1-1.1-1.5C170.4,184.6,170.8,184.1,171.5,184.1z M169.9,178.1
				c-0.5-0.2-0.7-0.8-0.4-1.4s1-1.1,1.6-1.1c0.7,0,1,0.6,1.1,1.2c0.1,0.3,0,0.8-0.4,1C171.8,177.8,170.4,178.3,169.9,178.1z
				 M172.8,233c0-0.5,0.4-1,1-1s1.4,0.3,1.7,0.9c0.3,0.6-0.1,1.2-0.5,1.6c-0.3,0.2-0.7,0.4-1.1,0.1
				C173.9,234.5,172.9,233.5,172.8,233z M176,281.6c0.6-0.1,1.2,0.2,1.4,0.8c0.2,0.6-0.2,1.3-0.7,1.8c-0.3,0.3-0.7,0.5-1,0.3
				c0,0-0.8-1-0.8-1.6C175,282.3,175.5,281.7,176,281.6z M175.7,369.3c0.6,0,1.4,0.3,1.7,0.9c0.3,0.6-0.1,1.2-0.5,1.6
				c-0.3,0.2-0.7,0.4-1.1,0.1c0,0-1.1-1-1.1-1.5C174.7,369.8,175.1,369.4,175.7,369.3z M176.8,366.6c0,0-0.8-1-0.8-1.6
				c0-0.6,0.5-1.1,1-1.3c0.6-0.1,1.2,0.2,1.4,0.8c0.2,0.6-0.2,1.3-0.7,1.8C177.5,366.6,177.1,366.9,176.8,366.6z M178.2,154.4
				c0.6-0.1,1.2,0.2,1.4,0.8c0.2,0.6-0.2,1.3-0.7,1.8c-0.3,0.3-0.7,0.5-1,0.3c0,0-0.8-1-0.8-1.6
				C177.2,155.1,177.6,154.6,178.2,154.4z M175.9,219.9c-0.3,0.2-0.7,0.4-1.1,0.1c0,0-1.1-1-1.1-1.5c0-0.5,0.4-1,1-1
				s1.4,0.3,1.7,0.9C176.7,218.9,176.4,219.5,175.9,219.9z M174.6,142c0.6,0,1.4,0.3,1.7,0.9c0.3,0.6-0.1,1.2-0.5,1.6
				c-0.3,0.2-0.7,0.4-1.1,0.1c0,0-1.1-1-1.1-1.5C173.5,142.4,174,142,174.6,142z M169,170.5c0.3-0.6,1-1.1,1.6-1.1
				c0.7,0,1,0.6,1.1,1.2c0,0.2,0,0.4-0.1,0.6c0.1,0,0.2-0.1,0.3-0.1c0.6,0,1.4,0.3,1.7,0.9c0.3,0.6-0.1,1.2-0.5,1.6
				c-0.3,0.2-0.7,0.4-1.1,0.1c0,0-1.1-1-1.1-1.5c0-0.2,0-0.3,0.1-0.5c-0.4,0.1-1.3,0.4-1.7,0.2C168.9,171.7,168.8,171.1,169,170.5z
				 M169.4,193.3c0.6,0,1.4,0.3,1.7,0.9c0.3,0.6-0.1,1.2-0.5,1.6c-0.3,0.2-0.7,0.4-1.1,0.1c0,0-1.1-1-1.1-1.5
				C168.3,193.8,168.7,193.4,169.4,193.3z M166.9,239.4c0.3-0.6,1-1.1,1.6-1.1c0.7,0,1,0.6,1.1,1.2c0.1,0.3,0,0.8-0.4,1
				c0,0-1.4,0.5-1.9,0.3C166.8,240.6,166.6,240,166.9,239.4z M166.1,212.4c0.1,0.3,0,0.8-0.4,1c0,0-1.4,0.5-1.9,0.3
				c-0.5-0.2-0.7-0.8-0.4-1.4s1-1.1,1.6-1.1C165.6,211.2,166,211.8,166.1,212.4z M160.1,388.1c-0.2,0.6-0.7,1-1.3,1
				c-0.6,0-1.1-0.5-1.2-1.1c0-0.7,0.5-1.2,1.1-1.6c0.3-0.2,0.8-0.3,1,0C159.7,386.4,160.3,387.5,160.1,388.1z M160.1,418.1
				c-0.2,0.6-0.7,1-1.3,1c-0.6,0-1.1-0.5-1.2-1.1c0-0.7,0.5-1.2,1.1-1.6c0.3-0.2,0.8-0.3,1,0C159.7,416.4,160.3,417.5,160.1,418.1z
				 M160.1,378.6c-0.2,0.6-0.7,1-1.3,1c-0.4,0-0.7-0.2-0.9-0.5c-0.1,0.3-0.3,0.6-0.6,0.9c-0.3,0.2-0.7,0.4-1.1,0.1
				c0,0-1.1-1-1.1-1.5c0-0.5,0.4-1,1-1c0.5,0,1.2,0.2,1.5,0.7c0.1-0.5,0.6-1,1.1-1.3c0.3-0.2,0.8-0.3,1,0
				C159.7,376.9,160.3,378,160.1,378.6z M162.4,242.6c0.3,0.6-0.1,1.2-0.5,1.6c-0.3,0.2-0.7,0.4-1.1,0.1c0,0-1.1-1-1.1-1.5
				c0-0.5,0.4-1,1-1S162.2,242,162.4,242.6z M161.8,240.3c0.3-0.6,1-1.1,1.6-1.1c0.7,0,1,0.6,1.1,1.2c0.1,0.3,0,0.8-0.4,1
				c0,0-1.4,0.5-1.9,0.3C161.7,241.5,161.5,240.9,161.8,240.3z M161.1,280.2c0.7,0,1,0.6,1.1,1.2c0.1,0.3,0,0.8-0.4,1
				c0,0-1.4,0.5-1.9,0.3c-0.5-0.2-0.7-0.8-0.4-1.4S160.5,280.2,161.1,280.2z M158.9,227.9c-0.3,0.2-0.7,0.4-1.1,0.1
				c0,0-1.1-1-1.1-1.5c0-0.5,0.4-1,1-1s1.4,0.3,1.7,0.9C159.7,226.9,159.4,227.5,158.9,227.9z M156.1,290.5c0.6,0,1.4,0.3,1.7,0.9
				c0.3,0.6-0.1,1.2-0.5,1.6c-0.3,0.2-0.7,0.4-1.1,0.1c0,0-1.1-1-1.1-1.5C155,290.9,155.5,290.5,156.1,290.5z M154.5,252.5
				c0-0.5,0.4-1,1-1s1.4,0.3,1.7,0.9c0.3,0.6-0.1,1.2-0.5,1.6c-0.3,0.2-0.7,0.4-1.1,0.1C155.6,254,154.5,253,154.5,252.5z
				 M156.9,319.6c0.6,0,1.4,0.3,1.7,0.9c0.3,0.6-0.1,1.2-0.5,1.6c-0.3,0.2-0.7,0.4-1.1,0.1c0,0-1.1-1-1.1-1.5
				C155.8,320.1,156.2,319.6,156.9,319.6z M157.9,276.8c0,0-1.4,0.5-1.9,0.3c-0.5-0.2-0.7-0.8-0.4-1.4s1-1.1,1.6-1.1
				c0.7,0,1,0.6,1.1,1.2C158.4,276.1,158.3,276.6,157.9,276.8z M157.5,237.4c0.2,0.6-0.2,1.3-0.7,1.8c-0.3,0.3-0.7,0.5-1,0.3
				c0,0-0.8-1-0.8-1.6c0-0.6,0.5-1.1,1-1.3C156.6,236.5,157.3,236.8,157.5,237.4z M155.7,188.6c0,0-0.8-1-0.8-1.6
				c0-0.6,0.5-1.1,1-1.3c0.6-0.1,1.2,0.2,1.4,0.8c0.2,0.6-0.2,1.3-0.7,1.8C156.4,188.6,155.9,188.9,155.7,188.6z M155.5,211.2
				c0.2,0.6-0.2,1.3-0.7,1.8c-0.3,0.3-0.7,0.5-1,0.3c0,0-0.8-1-0.8-1.6c0-0.6,0.5-1.1,1-1.3S155.3,210.7,155.5,211.2z M154.4,300.3
				c0.6,0,1.4,0.3,1.7,0.9c0.3,0.6-0.1,1.2-0.5,1.6c-0.3,0.2-0.7,0.4-1.1,0.1c0,0-1.1-1-1.1-1.5
				C153.3,300.8,153.7,300.4,154.4,300.3z M154.3,364.7c0.3-0.6,1-1.1,1.6-1.1c0.7,0,1,0.6,1.1,1.2c0.1,0.3,0,0.8-0.4,1
				c0,0-1.4,0.5-1.9,0.3C154.2,365.8,154,365.3,154.3,364.7z M160,350.4c-0.3,0.2-0.7,0.4-1.1,0.1c0,0-1.1-1-1.1-1.5
				c0-0.5,0.4-1,1-1s1.4,0.3,1.7,0.9C160.9,349.4,160.5,350,160,350.4z M158.1,340.9c0-0.7,0.5-1.2,1.1-1.6c0.3-0.2,0.8-0.3,1,0
				c0,0,0.6,1.1,0.4,1.7c-0.2,0.6-0.7,1-1.3,1S158.2,341.4,158.1,340.9z M160.3,332.6c0,0-1.4,0.5-1.9,0.3c-0.5-0.2-0.7-0.8-0.4-1.4
				s1-1.1,1.6-1.1c0.7,0,1,0.6,1.1,1.2C160.8,331.9,160.7,332.4,160.3,332.6z M159,311.1c-0.5-0.2-0.7-0.8-0.4-1.4s1-1.1,1.6-1.1
				c0.7,0,1,0.6,1.1,1.2c0.1,0.3,0,0.8-0.4,1C160.9,310.8,159.6,311.3,159,311.1z M162,405.2c0.6,0,1.4,0.3,1.7,0.9
				c0.3,0.6-0.1,1.2-0.5,1.6c-0.3,0.2-0.7,0.4-1.1,0.1c0,0-1.1-1-1.1-1.5C160.9,405.7,161.3,405.3,162,405.2z M163.3,378.6
				c0,0-1.1-1-1.1-1.5c0-0.5,0.4-1,1-1s1.4,0.3,1.7,0.9c0.3,0.6-0.1,1.2-0.5,1.6C164.1,378.7,163.7,378.9,163.3,378.6z M163.2,151.8
				c0.6,0,1.4,0.3,1.7,0.9c0.3,0.6-0.1,1.2-0.5,1.6c-0.3,0.2-0.7,0.4-1.1,0.1c0,0-1.1-1-1.1-1.5
				C162.2,152.3,162.6,151.9,163.2,151.8z M162.1,197.2c0.6,0,1.4,0.3,1.7,0.9c0.3,0.6-0.1,1.2-0.5,1.6c-0.3,0.2-0.7,0.4-1.1,0.1
				c0,0-1.1-1-1.1-1.5C161,197.7,161.5,197.3,162.1,197.2z M159.9,155.8c0.6-0.1,1.2,0.2,1.4,0.8c0.2,0.6-0.2,1.3-0.7,1.8
				c-0.3,0.3-0.7,0.5-1,0.3c0,0-0.8-1-0.8-1.6C158.9,156.5,159.3,155.9,159.9,155.8z M158.8,212.9c0.3,0.6-0.1,1.2-0.5,1.6
				c-0.3,0.2-0.7,0.4-1.1,0.1c0,0-1.1-1-1.1-1.5c0-0.5,0.4-1,1-1S158.5,212.4,158.8,212.9z M156.5,140c0.6,0,1.4,0.3,1.7,0.9
				c0.3,0.6-0.1,1.2-0.5,1.6c-0.3,0.2-0.7,0.4-1.1,0.1c0,0-1.1-1-1.1-1.5C155.4,140.4,155.8,140,156.5,140z M154,156.8
				c0.6-0.1,1.2,0.2,1.4,0.8c0.2,0.6-0.2,1.3-0.7,1.8c-0.3,0.3-0.7,0.5-1,0.3c0,0-0.8-1-0.8-1.6C153,157.5,153.5,156.9,154,156.8z
				 M152.3,183.4c0.3-0.6,1-1.1,1.6-1.1c0.7,0,1,0.6,1.1,1.2c0.1,0.3,0,0.8-0.4,1c0,0-1.4,0.5-1.9,0.3
				C152.2,184.6,152,184,152.3,183.4z M150.5,302.8c0.3-0.6,1-1.1,1.6-1.1c0.7,0,1,0.6,1.1,1.2c0.1,0.3,0,0.8-0.4,1
				c0,0-1.4,0.5-1.9,0.3C150.4,304,150.3,303.4,150.5,302.8z M149.1,379.5c0.3-0.6,1-1.1,1.6-1.1c0.7,0,1,0.6,1.1,1.2
				c0.1,0.3,0,0.8-0.4,1c0,0-1.4,0.5-1.9,0.3C149.1,380.7,148.9,380.1,149.1,379.5z M147.4,145.3c0.6-0.1,1.2,0.2,1.4,0.8
				c0.2,0.6-0.2,1.3-0.7,1.8c-0.3,0.3-0.7,0.5-1,0.3c0,0-0.8-1-0.8-1.6C146.4,146,146.8,145.4,147.4,145.3z M146.3,193.8
				C146.3,193.8,146.3,193.8,146.3,193.8c0.2-0.1,0.4-0.2,0.7-0.2c0.6,0,1.4,0.3,1.7,0.9c0.3,0.6-0.1,1.2-0.5,1.6
				c-0.3,0.2-0.7,0.4-1.1,0.1c0,0-0.9-0.8-1.1-1.4c0,0,0,0-0.1,0.1c0,0-1.4,0.5-1.9,0.3c-0.5-0.2-0.7-0.8-0.4-1.4s1-1.1,1.6-1.1
				C145.9,192.6,146.2,193.2,146.3,193.8z M143.7,216.1c0,0-0.8-1-0.8-1.6c0-0.6,0.5-1.1,1-1.3c0.6-0.1,1.2,0.2,1.4,0.8
				c0.2,0.6-0.2,1.3-0.7,1.8C144.4,216.1,143.9,216.4,143.7,216.1z M144,265.2c0.6,0,1.4,0.3,1.7,0.9c0.3,0.6-0.1,1.2-0.5,1.6
				c-0.3,0.2-0.7,0.4-1.1,0.1c0,0-1.1-1-1.1-1.5C142.9,265.7,143.3,265.3,144,265.2z M142.4,241.5c-0.3,0.2-0.7,0.4-1.1,0.1
				c0,0-1.1-1-1.1-1.5c0-0.5,0.4-1,1-1s1.4,0.3,1.7,0.9C143.2,240.5,142.9,241.1,142.4,241.5z M142.8,197.8c0,0-1.4,0.5-1.9,0.3
				c-0.5-0.2-0.7-0.8-0.4-1.4s1-1.1,1.6-1.1c0.7,0,1,0.6,1.1,1.2C143.3,197.1,143.2,197.6,142.8,197.8z M141.6,236
				c0.2,0.6-0.2,1.3-0.7,1.8c-0.3,0.3-0.7,0.5-1,0.3c0,0-0.8-1-0.8-1.6c0-0.6,0.5-1.1,1-1.3C140.8,235.1,141.4,235.5,141.6,236z
				 M139.4,248.2c0.3-0.6,1-1.1,1.6-1.1c0.7,0,1,0.6,1.1,1.2c0.1,0.3,0,0.8-0.4,1c0,0-1.4,0.5-1.9,0.3
				C139.3,249.3,139.1,248.8,139.4,248.2z M140.4,260.2c0.3-0.6,1-1.1,1.6-1.1c0.7,0,1,0.6,1.1,1.2c0.1,0.3,0,0.8-0.4,1
				c0,0-1.4,0.5-1.9,0.3C140.3,261.3,140.1,260.8,140.4,260.2z M141,329.9c0.3-0.6,1-1.1,1.6-1.1c0.7,0,1,0.6,1.1,1.2
				c0.1,0.3,0,0.8-0.4,1c0,0-1.4,0.5-1.9,0.3C140.9,331.1,140.8,330.5,141,329.9z M143.9,338.1c0.3-0.2,0.8-0.3,1,0
				c0,0,0.6,1.1,0.4,1.7c-0.2,0.6-0.7,1-1.3,1c-0.6,0-1.1-0.5-1.2-1.1C142.7,339,143.3,338.5,143.9,338.1z M144.5,275.5
				c0,0-0.8-1-0.8-1.6c0-0.6,0.5-1.1,1-1.3c0.6-0.1,1.2,0.2,1.4,0.8c0.2,0.6-0.2,1.3-0.7,1.8C145.2,275.5,144.7,275.7,144.5,275.5z
				 M144.4,259.9c-0.5-0.2-0.7-0.8-0.4-1.4s1-1.1,1.6-1.1c0.7,0,1,0.6,1.1,1.2c0.1,0.3,0,0.8-0.4,1
				C146.3,259.7,144.9,260.2,144.4,259.9z M145.3,235.7c0-0.6,0.5-1.1,1-1.3s1.2,0.2,1.4,0.8c0.2,0.6-0.2,1.3-0.7,1.8
				c-0.3,0.3-0.7,0.5-1,0.3C146.2,237.3,145.3,236.3,145.3,235.7z M146,243.9c0-0.6,0.5-1.1,1-1.3c0.6-0.1,1.2,0.2,1.4,0.8
				c0.2,0.6-0.2,1.3-0.7,1.8c-0.3,0.3-0.7,0.5-1,0.3C146.8,245.5,146,244.5,146,243.9z M142,166.5c0.3-0.6,1-1.1,1.6-1.1
				c0.7,0,1,0.6,1.1,1.2c0.1,0.3,0,0.8-0.4,1c0,0-1.4,0.5-1.9,0.3C141.9,167.7,141.8,167.1,142,166.5z M140.5,185.9
				c-0.3,0.2-0.7,0.4-1.1,0.1c0,0-1.1-1-1.1-1.5c0-0.5,0.4-1,1-1s1.4,0.3,1.7,0.9C141.4,184.9,141,185.5,140.5,185.9z M138.1,174.7
				c0.3-0.6,1-1.1,1.6-1.1c0.7,0,1,0.6,1.1,1.2c0.1,0.3,0,0.8-0.4,1c0,0-1.4,0.5-1.9,0.3C138.1,175.8,137.9,175.3,138.1,174.7z
				 M138.6,219.9c0.2,0.6-0.2,1.3-0.7,1.8c-0.3,0.3-0.7,0.5-1,0.3c0,0-0.8-1-0.8-1.6c0-0.6,0.5-1.1,1-1.3
				C137.8,219,138.4,219.3,138.6,219.9z M134.8,258.4c0-0.6,0.5-1.1,1-1.3c0.6-0.1,1.2,0.2,1.4,0.8c0.2,0.6-0.2,1.3-0.7,1.8
				c-0.3,0.3-0.7,0.5-1,0.3C135.7,260,134.8,259,134.8,258.4z M134.9,383.8c0,0-1.4,0.5-1.9,0.3c-0.5-0.2-0.7-0.8-0.4-1.4
				s1-1.1,1.6-1.1c0.7,0,1,0.6,1.1,1.2C135.4,383.1,135.3,383.6,134.9,383.8z M136.5,273.7c0.6,0,1.4,0.3,1.7,0.9
				c0.3,0.6-0.1,1.2-0.5,1.6c-0.3,0.2-0.7,0.4-1.1,0.1c0,0-1.1-1-1.1-1.5C135.4,274.2,135.8,273.8,136.5,273.7z M136.6,292.2
				c0.6,0,1.4,0.3,1.7,0.9c0.3,0.6-0.1,1.2-0.5,1.6c-0.3,0.2-0.7,0.4-1.1,0.1c0,0-1.1-1-1.1-1.5
				C135.5,292.7,135.9,292.3,136.6,292.2z M135.4,155.3c0.6,0,1.4,0.3,1.7,0.9c0.3,0.6-0.1,1.2-0.5,1.6c-0.3,0.2-0.7,0.4-1.1,0.1
				c0,0-1.1-1-1.1-1.5C134.3,155.8,134.7,155.4,135.4,155.3z M134.4,361.4c0.3,0.6-0.1,1.2-0.5,1.6c-0.3,0.2-0.7,0.4-1.1,0.1
				c0,0-1.1-1-1.1-1.5c0-0.5,0.4-1,1-1S134.2,360.9,134.4,361.4z M131.7,193.8c0.6-0.1,1.2,0.2,1.4,0.8c0.2,0.6-0.2,1.3-0.7,1.8
				c-0.3,0.3-0.7,0.5-1,0.3c0,0-0.8-1-0.8-1.6C130.7,194.5,131.1,193.9,131.7,193.8z M130.8,262c0.2,0.6-0.2,1.3-0.7,1.8
				c-0.3,0.3-0.7,0.5-1,0.3c0,0-0.8-1-0.8-1.6c0-0.6,0.5-1.1,1-1.3C129.9,261.1,130.6,261.5,130.8,262z M129.3,256.4
				c-0.3,0.2-0.7,0.4-1.1,0.1c0,0-1.1-1-1.1-1.5c0-0.5,0.4-1,1-1c0.6,0,1.4,0.3,1.7,0.9C130.1,255.4,129.7,256,129.3,256.4z
				 M128.5,195.3c0.7,0,1,0.6,1.1,1.2c0.1,0.3,0,0.8-0.4,1c0,0-1.4,0.5-1.9,0.3c-0.5-0.2-0.7-0.8-0.4-1.4S127.9,195.3,128.5,195.3z
				 M99.8,250.5c0,0-0.9-0.9-0.9-1.4c0-0.5,0.4-0.9,0.9-1c0.5-0.1,1.2,0.3,1.4,0.7c0.3,0.6-0.1,1.1-0.5,1.5
				C100.5,250.5,100.1,250.7,99.8,250.5z M100.6,318.5c-0.2,0.6-0.7,1-1.3,1s-1.1-0.5-1.2-1.1c0-0.7,0.5-1.2,1.1-1.6
				c0.3-0.2,0.8-0.3,1,0C100.2,316.7,100.8,317.9,100.6,318.5z M100.1,235.7c0.6,0,1.4,0.3,1.7,0.9c0.3,0.6-0.1,1.2-0.5,1.6
				c-0.3,0.2-0.7,0.4-1.1,0.1c0,0-1.1-1-1.1-1.5C99,236.2,99.5,235.8,100.1,235.7z M100,230.8c0.3-0.6,1-1.1,1.6-1.1
				c0.7,0,1,0.6,1.1,1.2c0.1,0.3,0,0.8-0.4,1c0,0-1.4,0.5-1.9,0.3C99.9,232,99.8,231.4,100,230.8z M101.7,319.3
				c0.6,0,1.4,0.3,1.7,0.9c0.3,0.6-0.1,1.2-0.5,1.6c-0.3,0.2-0.7,0.4-1.1,0.1c0,0-1.1-1-1.1-1.5
				C100.7,319.8,101.1,319.4,101.7,319.3z M103.1,340.4c0.3-0.6,1-1.1,1.6-1.1c0.7,0,1,0.6,1.1,1.2c0.1,0.3,0,0.8-0.4,1
				c0,0-1.4,0.5-1.9,0.3C103.1,341.6,102.9,341,103.1,340.4z M103.4,344c-0.2,0.6-0.7,1-1.3,1s-1.1-0.5-1.2-1.1
				c0-0.7,0.5-1.2,1.1-1.6c0.3-0.2,0.8-0.3,1,0C103.1,342.2,103.6,343.4,103.4,344z M105.2,310.2c0,0-1.1-1-1.1-1.5c0-0.5,0.4-1,1-1
				s1.4,0.3,1.7,0.9c0.3,0.6-0.1,1.2-0.5,1.6C106,310.3,105.5,310.5,105.2,310.2z M106,235.2c0,0-1.4,0.5-1.9,0.3
				c-0.5-0.2-0.7-0.8-0.4-1.4s1-1.1,1.6-1.1c0.7,0,1,0.6,1.1,1.2C106.5,234.5,106.4,235,106,235.2z M104.5,328.5
				c0.7,0,1,0.6,1.1,1.2c0.1,0.3,0,0.8-0.4,1c0,0-1.4,0.5-1.9,0.3c-0.5-0.2-0.7-0.8-0.4-1.4S103.9,328.5,104.5,328.5z M101.8,414.2
				c0.6,0,1.4,0.3,1.7,0.9c0.3,0.6-0.1,1.2-0.5,1.6c-0.3,0.2-0.7,0.4-1.1,0.1c0,0-1.1-1-1.1-1.5
				C100.8,414.7,101.2,414.3,101.8,414.2z M102.9,391.2c0-0.7,0.5-1.2,1.1-1.6c0.3-0.2,0.8-0.3,1,0c0,0,0.6,1.1,0.4,1.7
				c-0.2,0.6-0.7,1-1.3,1C103.5,392.3,103,391.8,102.9,391.2z M105,375.3c-0.5-0.2-0.7-0.8-0.4-1.4s1-1.1,1.6-1.1
				c0.7,0,1,0.6,1.1,1.2c0.1,0.3,0,0.8-0.4,1C106.9,375.1,105.6,375.5,105,375.3z M106.9,360.2c0,0-1.4,0.5-1.9,0.3
				c-0.5-0.2-0.7-0.8-0.4-1.4c0.2-0.4,0.6-0.7,1-0.9c-0.2,0-0.4,0-0.5-0.1c0,0-1.1-1-1.1-1.5c0-0.5,0.4-1,1-1s1.4,0.3,1.7,0.9
				c0.3,0.6-0.1,1.2-0.5,1.6c-0.1,0.1-0.1,0.1-0.2,0.1c0.1,0,0.2-0.1,0.3-0.1c0.7,0,1,0.6,1.1,1.2
				C107.4,359.5,107.3,360,106.9,360.2z M106.3,312.7c0-0.7,0.5-1.2,1.1-1.6c0.3-0.2,0.8-0.3,1,0c0,0,0.6,1.1,0.4,1.7
				c-0.2,0.6-0.7,1-1.3,1C106.9,313.8,106.3,313.3,106.3,312.7z M109.5,412.4c0.3,0.6-0.1,1.2-0.5,1.6c-0.3,0.2-0.7,0.4-1.1,0.1
				c0,0-1.1-1-1.1-1.5c0-0.5,0.4-1,1-1C108.5,411.5,109.2,411.9,109.5,412.4z M108.5,289.5c0-0.6,0.5-1.1,1-1.3
				c0.6-0.1,1.2,0.2,1.4,0.8c0.2,0.6-0.2,1.3-0.7,1.8c-0.3,0.3-0.7,0.5-1,0.3C109.3,291.1,108.5,290.2,108.5,289.5z M110.6,279.2
				c0,0-1.1-1-1.1-1.5c0-0.5,0.4-1,1-1s1.4,0.3,1.7,0.9c0.3,0.6-0.1,1.2-0.5,1.6C111.4,279.3,110.9,279.5,110.6,279.2z M112.6,345.2
				c0.6,0,1.4,0.3,1.7,0.9c0.3,0.6-0.1,1.2-0.5,1.6c-0.3,0.2-0.7,0.4-1.1,0.1c0,0-1.1-1-1.1-1.5C111.5,345.7,112,345.3,112.6,345.2z
				 M114,303c0.3-0.6,1-1.1,1.6-1.1c0.7,0,1,0.6,1.1,1.2c0.1,0.3,0,0.8-0.4,1c0,0-1.4,0.5-1.9,0.3C113.9,304.2,113.8,303.6,114,303z
				 M113.7,287c0-0.5,0.4-1,1-1s1.4,0.3,1.7,0.9c0.3,0.6-0.1,1.2-0.5,1.6c-0.3,0.2-0.7,0.4-1.1,0.1
				C114.8,288.5,113.7,287.5,113.7,287z M116.4,237.2c-0.5-0.2-0.7-0.8-0.4-1.4s1-1.1,1.6-1.1c0.7,0,1,0.6,1.1,1.2
				c0.1,0.3,0,0.8-0.4,1C118.3,236.9,116.9,237.4,116.4,237.2z M116.9,204.8c0,0-1.4,0.5-1.9,0.3c-0.5-0.2-0.7-0.8-0.4-1.4
				s1-1.1,1.6-1.1c0.7,0,1,0.6,1.1,1.2C117.4,204.1,117.3,204.6,116.9,204.8z M115.3,255.1c0.7,0,1,0.6,1.1,1.2c0.1,0.3,0,0.8-0.4,1
				c0,0-1.4,0.5-1.9,0.3c-0.5-0.2-0.7-0.8-0.4-1.4C114,255.6,114.7,255.1,115.3,255.1z M114.7,351.8c0.6,0,1.4,0.3,1.7,0.9
				c0.3,0.6-0.1,1.2-0.5,1.6c-0.3,0.2-0.7,0.4-1.1,0.1c0,0-1.1-1-1.1-1.5C113.7,352.3,114.1,351.9,114.7,351.8z M115.4,326
				c0-0.7,0.5-1.2,1.1-1.6c0.3-0.2,0.8-0.3,1,0c0,0,0.6,1.1,0.4,1.7c-0.2,0.6-0.7,1-1.3,1C116,327.1,115.5,326.6,115.4,326z
				 M117.6,296.6c0-0.5,0.4-1,1-1s1.4,0.3,1.7,0.9c0.3,0.6-0.1,1.2-0.5,1.6c-0.3,0.2-0.7,0.4-1.1,0.1
				C118.7,298.1,117.6,297.2,117.6,296.6z M122.8,225.9c0.3,0.6-0.1,1.2-0.5,1.6c-0.3,0.2-0.7,0.4-1.1,0.1c0,0-1.1-1-1.1-1.5
				c0-0.5,0.4-1,1-1S122.5,225.4,122.8,225.9z M122,215.2c0-0.5,0.4-1,1-1s1.4,0.3,1.7,0.9c0.3,0.6-0.1,1.2-0.5,1.6
				c-0.3,0.2-0.7,0.4-1.1,0.1C123.1,216.7,122,215.8,122,215.2z M121.2,210.2c0,0-1.4,0.5-1.9,0.3c-0.5-0.2-0.7-0.8-0.4-1.4
				s1-1.1,1.6-1.1c0.7,0,1,0.6,1.1,1.2C121.6,209.5,121.6,210,121.2,210.2z M120.2,262.8c0,0-0.8-1-0.8-1.6c0-0.6,0.5-1.1,1-1.3
				s1.2,0.2,1.4,0.8c0.2,0.6-0.2,1.3-0.7,1.8C120.9,262.8,120.4,263.1,120.2,262.8z M122.2,387.1c0.6,0,1.4,0.3,1.7,0.9
				c0.3,0.6-0.1,1.2-0.5,1.6c-0.3,0.2-0.7,0.4-1.1,0.1c0,0-1.1-1-1.1-1.5C121.2,387.6,121.6,387.1,122.2,387.1z M123.8,264.3
				c0-0.5,0.4-1,1-1s1.4,0.3,1.7,0.9c0.3,0.6-0.1,1.2-0.5,1.6c-0.3,0.2-0.7,0.4-1.1,0.1C124.9,265.9,123.9,264.9,123.8,264.3z
				 M124.3,377.5c0.3-0.6,1-1.1,1.6-1.1c0.7,0,1,0.6,1.1,1.2c0.1,0.3,0,0.8-0.4,1c0,0-1.4,0.5-1.9,0.3
				C124.2,378.7,124,378.1,124.3,377.5z M126.2,160.3c0.6-0.1,1.2,0.2,1.4,0.8c0.2,0.6-0.2,1.3-0.7,1.8c-0.3,0.3-0.7,0.5-1,0.3
				c0,0-0.8-1-0.8-1.6C125.2,161,125.6,160.4,126.2,160.3z M120.1,176.3c0.3-0.6,1-1.1,1.6-1.1c0.7,0,1,0.6,1.1,1.2
				c0,0.2,0,0.3,0,0.5c0.2-0.2,0.4-0.4,0.7-0.5c0.6-0.1,1.2,0.2,1.4,0.8c0.2,0.6-0.2,1.3-0.7,1.8c-0.3,0.3-0.7,0.5-1,0.3
				c0,0-0.8-1-0.8-1.6c0-0.1,0-0.3,0.1-0.4c-0.1,0.1-0.1,0.1-0.2,0.1c0,0-1.4,0.5-1.9,0.3C120.1,177.5,119.9,176.9,120.1,176.3z
				 M121.3,201c0.2,0.6-0.2,1.3-0.7,1.8c-0.3,0.3-0.7,0.5-1,0.3c0,0-0.8-1-0.8-1.6c0-0.6,0.5-1.1,1-1.3
				C120.4,200.1,121.1,200.5,121.3,201z M118.3,192.3c0.7,0,1,0.6,1.1,1.2c0.1,0.3,0,0.8-0.4,1c0,0-1.4,0.5-1.9,0.3
				c-0.5-0.2-0.7-0.8-0.4-1.4S117.7,192.3,118.3,192.3z M114.1,164.7c0.3-0.6,1-1.1,1.6-1.1c0.7,0,1,0.6,1.1,1.2
				c0.1,0.3,0,0.8-0.4,1c0,0-1.4,0.5-1.9,0.3C114.1,165.8,113.9,165.3,114.1,164.7z M113.4,171c0.6,0,1.4,0.3,1.7,0.9
				c0.3,0.6-0.1,1.2-0.5,1.6c-0.3,0.2-0.7,0.4-1.1,0.1c0,0-1.1-1-1.1-1.5C112.3,171.4,112.7,171,113.4,171z M112.7,244.3
				c0.6-0.1,1.2,0.2,1.4,0.8c0.2,0.6-0.2,1.3-0.7,1.8c-0.3,0.3-0.7,0.5-1,0.3c0,0-0.8-1-0.8-1.6C111.7,245,112.1,244.4,112.7,244.3z
				 M112,270.7c0.2,0.6-0.2,1.3-0.7,1.8c-0.3,0.3-0.7,0.5-1,0.3c0,0-0.8-1-0.8-1.6c0-0.6,0.5-1.1,1-1.3S111.8,270.2,112,270.7z
				 M110.1,187.2c0.2,0.6-0.2,1.3-0.7,1.8c-0.3,0.3-0.7,0.5-1,0.3c0,0-0.8-1-0.8-1.6c0-0.6,0.5-1.1,1-1.3S109.9,186.7,110.1,187.2z
				 M107,161.7c0.6,0,1.4,0.3,1.7,0.9c0.3,0.6-0.1,1.2-0.5,1.6c-0.3,0.2-0.7,0.4-1.1,0.1c0,0-1.1-1-1.1-1.5
				C105.9,162.2,106.3,161.8,107,161.7z M105.8,214.3c0.3-0.6,1-1.1,1.6-1.1c0.7,0,1,0.6,1.1,1.2c0.1,0.3,0,0.8-0.4,1
				c0,0-1.4,0.5-1.9,0.3C105.7,215.5,105.5,214.9,105.8,214.3z M105.4,210.4c0.1,0.3,0,0.8-0.4,1c0,0-1.4,0.5-1.9,0.3
				c-0.5-0.2-0.7-0.8-0.4-1.4s1-1.1,1.6-1.1C105,209.2,105.3,209.8,105.4,210.4z M101.4,156.3c0.3-0.6,1-1.1,1.6-1.1
				c0.7,0,1,0.6,1.1,1.2c0.1,0.3,0,0.8-0.4,1c0,0-1.4,0.5-1.9,0.3C101.3,157.5,101.1,156.9,101.4,156.3z M100.6,206.8
				c0.6,0,1.4,0.3,1.7,0.9c0.3,0.6-0.1,1.2-0.5,1.6c-0.3,0.2-0.7,0.4-1.1,0.1c0,0-1.1-1-1.1-1.5C99.5,207.3,100,206.9,100.6,206.8z
				 M99.2,216c0.6,0,1.4,0.3,1.7,0.9c0.3,0.6-0.1,1.2-0.5,1.6c-0.3,0.2-0.7,0.4-1.1,0.1c0,0-1.1-1-1.1-1.5
				C98.2,216.4,98.6,216,99.2,216z M97.5,238.4c0.6-0.1,1.2,0.2,1.4,0.8c0.2,0.6-0.2,1.3-0.7,1.8c-0.3,0.3-0.7,0.5-1,0.3
				c0,0-0.8-1-0.8-1.6C96.5,239.1,97,238.6,97.5,238.4z M97.3,265.7c0.2,0.6-0.2,1.3-0.7,1.8c-0.3,0.3-0.7,0.5-1,0.3
				c0,0-0.8-1-0.8-1.6c0-0.6,0.5-1.1,1-1.3S97.1,265.2,97.3,265.7z M83.4,345.6c0,0-1.1-1-1.1-1.5c0-0.5,0.4-1,1-1s1.4,0.3,1.7,0.9
				c0.3,0.6-0.1,1.2-0.5,1.6C84.3,345.7,83.8,345.9,83.4,345.6z M84.3,363.7c0.7,0,1,0.6,1.1,1.2c0.1,0.3,0,0.8-0.4,1
				c0,0-1.4,0.5-1.9,0.3c-0.5-0.2-0.7-0.8-0.4-1.4S83.7,363.7,84.3,363.7z M85.6,274.7c0.3,0.6-0.1,1.2-0.5,1.6
				c-0.3,0.2-0.7,0.4-1.1,0.1c0,0-1.1-1-1.1-1.5c0-0.5,0.4-1,1-1S85.3,274.2,85.6,274.7z M84.8,183.7c0-0.6,0.5-1.1,1-1.3
				s1.2,0.2,1.4,0.8c0.2,0.6-0.2,1.3-0.7,1.8c-0.3,0.3-0.7,0.5-1,0.3C85.7,185.3,84.8,184.3,84.8,183.7z M83.7,310.6
				c0.6,0,1.4,0.3,1.7,0.9c0.3,0.6-0.1,1.2-0.5,1.6c-0.3,0.2-0.7,0.4-1.1,0.1c0,0-1.1-1-1.1-1.5C82.7,311.1,83.1,310.6,83.7,310.6z
				 M85.1,324.2c0-0.7,0.5-1.2,1.1-1.6c0.3-0.2,0.8-0.3,1,0c0,0,0.6,1.1,0.4,1.7c-0.2,0.6-0.7,1-1.3,1
				C85.7,325.3,85.2,324.8,85.1,324.2z M87.6,411.2c0.2-0.5,0.6-1,1.1-0.8c0,0,1.5,0.7,1.8,1.5c0.3,0.7,0,1.7-0.6,2.1
				c-0.6,0.5-1.6,0.4-2.1-0.2C87.1,413.2,87.3,412.1,87.6,411.2z M90.2,207.7c0,0-1.4,0.5-1.9,0.3c-0.5-0.2-0.7-0.8-0.4-1.4
				s1-1.1,1.6-1.1c0.7,0,1,0.6,1.1,1.2C90.6,207,90.6,207.5,90.2,207.7z M91.3,245.4c0.2,0.6-0.2,1.3-0.7,1.8
				c-0.3,0.3-0.7,0.5-1,0.3c0,0-0.8-1-0.8-1.6c0-0.6,0.5-1.1,1-1.3C90.4,244.5,91.1,244.8,91.3,245.4z M89.7,363.4
				c-0.5-0.2-0.7-0.8-0.4-1.4s1-1.1,1.6-1.1c0.7,0,1,0.6,1.1,1.2c0.1,0.3,0,0.8-0.4,1C91.5,363.2,90.2,363.7,89.7,363.4z
				 M91.4,268.5c0,0-1.1-1-1.1-1.5c0-0.5,0.4-1,1-1s1.4,0.3,1.7,0.9c0.3,0.6-0.1,1.2-0.5,1.6C92.3,268.6,91.8,268.8,91.4,268.5z
				 M92.6,301.2c0.3-0.6,1-1.1,1.6-1.1c0.7,0,1,0.6,1.1,1.2c0.1,0.3,0,0.8-0.4,1c0,0-1.4,0.5-1.9,0.3
				C92.6,302.3,92.4,301.8,92.6,301.2z M93.7,315.5c0.6,0,1.4,0.3,1.7,0.9c0.3,0.6-0.1,1.2-0.5,1.6c-0.3,0.2-0.7,0.4-1.1,0.1
				c0,0-1.1-1-1.1-1.5C92.7,315.9,93.1,315.5,93.7,315.5z M94.6,332.3c0.3-0.2,0.8-0.3,1,0c0,0,0.6,1.1,0.4,1.7
				c-0.2,0.6-0.7,1-1.3,1s-1.1-0.5-1.2-1.1C93.4,333.2,94,332.6,94.6,332.3z M95.4,177.8c0,0-1.4,0.5-1.9,0.3
				c-0.5-0.2-0.7-0.8-0.4-1.4s1-1.1,1.6-1.1c0.7,0,1,0.6,1.1,1.2C95.9,177.1,95.8,177.6,95.4,177.8z M94,139.3
				c0.6,0,1.4,0.3,1.7,0.9c0.3,0.6-0.1,1.2-0.5,1.6c-0.3,0.2-0.7,0.4-1.1,0.1c0,0-1.1-1-1.1-1.5C92.9,139.8,93.3,139.4,94,139.3z
				 M92.5,149.5c0.6,0,1.4,0.3,1.7,0.9c0.3,0.6-0.1,1.2-0.5,1.6c-0.3,0.2-0.7,0.4-1.1,0.1c0,0-1.1-1-1.1-1.5
				C91.4,149.9,91.8,149.5,92.5,149.5z M90.2,180.7c0.6,0,1.4,0.3,1.7,0.9c0.3,0.6-0.1,1.2-0.5,1.6c-0.3,0.2-0.7,0.4-1.1,0.1
				c0,0-1.1-1-1.1-1.5C89.2,181.2,89.6,180.8,90.2,180.7z M89.3,177c0.2,0.6-0.2,1.3-0.7,1.8c-0.3,0.3-0.7,0.5-1,0.3
				c0,0-0.8-1-0.8-1.6c0-0.6,0.5-1.1,1-1.3C88.4,176.1,89.1,176.5,89.3,177z M87.4,155.3c0.6-0.1,1.2,0.2,1.4,0.8
				c0.2,0.6-0.2,1.3-0.7,1.8c-0.3,0.3-0.7,0.5-1,0.3c0,0-0.8-1-0.8-1.6C86.4,156,86.8,155.4,87.4,155.3z M87.9,167.1
				c0.3,0.6-0.1,1.2-0.5,1.6c-0.3,0.2-0.7,0.4-1.1,0.1c0,0-1.1-1-1.1-1.5c0-0.5,0.4-1,1-1S87.7,166.5,87.9,167.1z M84.7,150.9
				c0.6-0.1,1.2,0.2,1.4,0.8c0.2,0.6-0.2,1.3-0.7,1.8c-0.3,0.3-0.7,0.5-1,0.3c0,0-0.8-1-0.8-1.6C83.7,151.6,84.1,151.1,84.7,150.9z
				 M83.2,178.8c0.6-0.1,1.2,0.2,1.4,0.8c0.2,0.6-0.2,1.3-0.7,1.8c-0.3,0.3-0.7,0.5-1,0.3c0,0-0.8-1-0.8-1.6
				C82.2,179.5,82.6,178.9,83.2,178.8z M80.5,170c0.6,0,1.4,0.3,1.7,0.9c0.3,0.6-0.1,1.2-0.5,1.6c-0.3,0.2-0.7,0.4-1.1,0.1
				c0,0-1.1-1-1.1-1.5C79.4,170.4,79.8,170,80.5,170z M80.1,386.1c0.3-0.2,0.8-0.3,1,0c0,0,0.6,1.1,0.4,1.7c-0.2,0.6-0.7,1-1.3,1
				c-0.6,0-1.1-0.5-1.2-1.1C78.9,387,79.5,386.5,80.1,386.1z M77.8,348.9c0-0.7,0.5-1.2,1.1-1.6c0.3-0.2,0.8-0.3,1,0
				c0,0,0.6,1.1,0.4,1.7c-0.2,0.6-0.7,1-1.3,1S77.8,349.4,77.8,348.9z M80,200.4c0.2,0.6-0.2,1.3-0.7,1.8c-0.3,0.3-0.7,0.5-1,0.3
				c0,0-0.8-1-0.8-1.6c0-0.6,0.5-1.1,1-1.3C79.1,199.5,79.8,199.8,80,200.4z M76.1,290.1c0.7,0,1,0.6,1.1,1.2c0.1,0.3,0,0.8-0.4,1
				c0,0-1.4,0.5-1.9,0.3c-0.5-0.2-0.7-0.8-0.4-1.4S75.5,290.1,76.1,290.1z M74.8,258.8c0-0.5,0.4-1,1-1s1.4,0.3,1.7,0.9
				c0.3,0.6-0.1,1.2-0.5,1.6c-0.3,0.2-0.7,0.4-1.1,0.1C75.9,260.4,74.9,259.4,74.8,258.8z M75.4,307.3c0.3-0.6,1-1.1,1.6-1.1
				c0.7,0,1,0.6,1.1,1.2c0.1,0.3,0,0.8-0.4,1c0,0-1.4,0.5-1.9,0.3C75.3,308.5,75.1,307.9,75.4,307.3z M77.2,248.6c0,0-0.8-1-0.8-1.6
				c0-0.6,0.5-1.1,1-1.3c0.6-0.1,1.2,0.2,1.4,0.8c0.2,0.6-0.2,1.3-0.7,1.8C77.9,248.6,77.4,248.9,77.2,248.6z M78.7,233.3
				c0,0-1.4,0.5-1.9,0.3c-0.5-0.2-0.7-0.8-0.4-1.4s1-1.1,1.6-1.1c0.7,0,1,0.6,1.1,1.2C79.1,232.6,79.1,233.1,78.7,233.3z
				 M78.3,197.5c-0.3,0.2-0.7,0.4-1.1,0.1c0,0-1.1-1-1.1-1.5c0-0.5,0.4-1,1-1s1.4,0.3,1.7,0.9C79.1,196.5,78.7,197.1,78.3,197.5z
				 M75.9,141.9c0.3-0.6,1-1.1,1.6-1.1c0.7,0,1,0.6,1.1,1.2c0.1,0.3,0,0.8-0.4,1c0,0-1.4,0.5-1.9,0.3
				C75.8,143.1,75.6,142.5,75.9,141.9z M77.6,164.4c-0.3,0.3-0.7,0.5-1,0.3c0,0-0.8-1-0.8-1.6c0-0.6,0.5-1.1,1-1.3
				c0.6-0.1,1.2,0.2,1.4,0.8C78.5,163.2,78.1,163.9,77.6,164.4z M76.7,177.7c0.6,0,1.4,0.3,1.7,0.9c0.3,0.6-0.1,1.2-0.5,1.6
				c-0.3,0.2-0.7,0.4-1.1,0.1c0,0-1.1-1-1.1-1.5C75.7,178.2,76.1,177.8,76.7,177.7z M74.9,195.4c0.3,0.6-0.1,1.2-0.5,1.6
				c-0.3,0.2-0.7,0.4-1.1,0.1c0,0-1.1-1-1.1-1.5c0-0.5,0.4-1,1-1S74.7,194.9,74.9,195.4z M68.3,224c-0.3,0.3-0.7,0.5-1,0.3
				c0,0-0.8-1-0.8-1.6c0-0.6,0.5-1.1,1-1.3s1.2,0.2,1.4,0.8C69.2,222.9,68.7,223.5,68.3,224z M70.3,286.4c0.3,0.6-0.1,1.2-0.5,1.6
				c-0.3,0.2-0.7,0.4-1.1,0.1c0,0-1.1-1-1.1-1.5c0-0.5,0.4-1,1-1S70,285.9,70.3,286.4z M66.6,399.6c0.3-0.6,1-1.1,1.6-1.1
				c0.7,0,1,0.6,1.1,1.2c0.1,0.3,0,0.8-0.4,1c0,0-1.4,0.5-1.9,0.3C66.5,400.8,66.3,400.2,66.6,399.6z M68.8,382.1
				c-0.3,0.2-0.7,0.4-1.1,0.1c0,0-1.1-1-1.1-1.5c0-0.5,0.4-1,1-1s1.4,0.3,1.7,0.9C69.6,381.2,69.2,381.7,68.8,382.1z M67.9,353.5
				c0.3-0.6,1-1.1,1.6-1.1c0.7,0,1,0.6,1.1,1.2c0.1,0.3,0,0.8-0.4,1c0,0-1.4,0.5-1.9,0.3C67.8,354.7,67.6,354.1,67.9,353.5z
				 M69.8,245.7c0-0.5,0.4-1,1-1s1.4,0.3,1.7,0.9c0.3,0.6-0.1,1.2-0.5,1.6c-0.3,0.2-0.7,0.4-1.1,0.1
				C70.9,247.2,69.9,246.3,69.8,245.7z M72.8,185.7c0.2,0.6-0.2,1.3-0.7,1.8c-0.3,0.3-0.7,0.5-1,0.3c0,0-0.8-1-0.8-1.6
				c0-0.6,0.5-1.1,1-1.3S72.6,185.2,72.8,185.7z M69.7,151.3c0.6-0.1,1.2,0.2,1.4,0.8c0.2,0.6-0.2,1.3-0.7,1.8
				c-0.3,0.3-0.7,0.5-1,0.3c0,0-0.8-1-0.8-1.6C68.7,152,69.1,151.4,69.7,151.3z M68.3,189.1c0.1,0.3,0,0.8-0.4,1
				c0,0-1.4,0.5-1.9,0.3c-0.5-0.2-0.7-0.8-0.4-1.4s1-1.1,1.6-1.1C67.9,187.9,68.2,188.5,68.3,189.1z M66.2,151.9
				c0.6-0.1,1.2,0.2,1.4,0.8c0.2,0.6-0.2,1.3-0.7,1.8c-0.3,0.3-0.7,0.5-1,0.3c0,0-0.8-1-0.8-1.6C65.2,152.6,65.6,152.1,66.2,151.9z
				 M64.5,160.4c0.3-0.6,1-1.1,1.6-1.1c0.7,0,1,0.6,1.1,1.2c0.1,0.3,0,0.8-0.4,1c0,0-1.4,0.5-1.9,0.3
				C64.4,161.6,64.3,161,64.5,160.4z M65.5,287.5c0.2,0.6-0.2,1.3-0.7,1.8c-0.3,0.3-0.7,0.5-1,0.3c0,0-0.8-1-0.8-1.6
				c0-0.6,0.5-1.1,1-1.3C64.6,286.6,65.3,287,65.5,287.5z M62.2,170.3c0.6-0.1,1.2,0.2,1.4,0.8c0.2,0.6-0.2,1.3-0.7,1.8
				c-0.3,0.3-0.7,0.5-1,0.3c0,0-0.8-1-0.8-1.6C61.2,171,61.6,170.4,62.2,170.3z M62.1,206.3c0.6,0,1.4,0.3,1.7,0.9
				c0.3,0.6-0.1,1.2-0.5,1.6c-0.3,0.2-0.7,0.4-1.1,0.1c0,0-1.1-1-1.1-1.5C61,206.8,61.5,206.4,62.1,206.3z M61.9,313.4
				c-0.3,0.3-0.7,0.5-1,0.3c0,0-0.8-1-0.8-1.6c0-0.6,0.5-1.1,1-1.3c0.6-0.1,1.2,0.2,1.4,0.8C62.8,312.2,62.4,312.9,61.9,313.4z
				 M60.2,224.3c0.6,0,1.4,0.3,1.7,0.9c0.3,0.6-0.1,1.2-0.5,1.6c-0.3,0.2-0.7,0.4-1.1,0.1c0,0-1.1-1-1.1-1.5
				C59.2,224.8,59.6,224.4,60.2,224.3z M57.1,255.4c0.3-0.6,1-1.1,1.6-1.1c0.7,0,1,0.6,1.1,1.2c0.1,0.3,0,0.8-0.4,1
				c0,0-1.4,0.5-1.9,0.3C57.1,256.6,56.9,256,57.1,255.4z M55.2,318.8c0.6,0,1.4,0.3,1.7,0.9c0.3,0.6-0.1,1.2-0.5,1.6
				c-0.3,0.2-0.7,0.4-1.1,0.1c0,0-1.1-1-1.1-1.5C54.2,319.3,54.6,318.9,55.2,318.8z M51.4,255.5c0.6,0,1.4,0.3,1.7,0.9
				c0.3,0.6-0.1,1.2-0.5,1.6c-0.3,0.2-0.7,0.4-1.1,0.1c0,0-1.1-1-1.1-1.5C50.3,255.9,50.7,255.5,51.4,255.5z M50.2,279.6
				c0-0.5,0.4-1,1-1s1.4,0.3,1.7,0.9c0.3,0.6-0.1,1.2-0.5,1.6c-0.3,0.2-0.7,0.4-1.1,0.1C51.3,281.1,50.2,280.2,50.2,279.6z
				 M49.9,290.1c-0.3,0.2-0.7,0.4-1.1,0.1c0,0-1.1-1-1.1-1.5c0-0.5,0.4-1,1-1s1.4,0.3,1.7,0.9C50.7,289.2,50.4,289.7,49.9,290.1z
				 M48.5,235.2c0.6,0,1.4,0.3,1.7,0.9c0.3,0.6-0.1,1.2-0.5,1.6c-0.3,0.2-0.7,0.4-1.1,0.1c0,0-1.1-1-1.1-1.5
				C47.4,235.7,47.8,235.3,48.5,235.2z M48.2,323.3c0.6-0.1,1.2,0.2,1.4,0.8c0.2,0.6-0.2,1.3-0.7,1.8c-0.3,0.3-0.7,0.5-1,0.3
				c0,0-0.8-1-0.8-1.6C47.2,324,47.6,323.4,48.2,323.3z M45.5,238.9c0.6-0.1,1.2,0.2,1.4,0.8c0.2,0.6-0.2,1.3-0.7,1.8
				c-0.3,0.3-0.7,0.5-1,0.3c0,0-0.8-1-0.8-1.6C44.5,239.6,45,239.1,45.5,238.9z M44.9,349.4c0.6-0.1,1.2,0.2,1.4,0.8
				c0.2,0.6-0.2,1.3-0.7,1.8c-0.3,0.3-0.7,0.5-1,0.3c0,0-0.8-1-0.8-1.6C43.9,350.1,44.3,349.6,44.9,349.4z M44.7,404.3
				c0.3-0.6,1-1.1,1.6-1.1c0.7,0,1,0.6,1.1,1.2c0.1,0.3,0,0.8-0.4,1c0,0-1.4,0.5-1.9,0.3C44.6,405.4,44.4,404.9,44.7,404.3z
				 M47.6,451.5c-0.3,0.2-0.7,0.4-1.1,0.1c0,0-1.1-1-1.1-1.5c0-0.5,0.4-1,1-1s1.4,0.3,1.7,0.9C48.5,450.5,48.1,451.1,47.6,451.5z
				 M47.8,428.5c-0.3,0.2-0.7,0.4-1.1,0.1c0,0-1.1-1-1.1-1.5c0-0.5,0.4-1,1-1c0.6,0,1.4,0.3,1.7,0.9
				C48.7,427.5,48.3,428.1,47.8,428.5z M50,344.2c0,0-1.4,0.5-1.9,0.3c-0.5-0.2-0.7-0.8-0.4-1.4s1-1.1,1.6-1.1c0.7,0,1,0.6,1.1,1.2
				C50.5,343.5,50.4,344,50,344.2z M50.6,293.2c0.3-0.6,1-1.1,1.6-1.1c0.7,0,1,0.6,1.1,1.2c0.1,0.3,0,0.8-0.4,1c0,0-1.4,0.5-1.9,0.3
				C50.6,294.3,50.4,293.8,50.6,293.2z M53.6,353.3c-0.2,0.6-0.7,1-1.3,1c-0.6,0-1.1-0.5-1.2-1.1c0-0.7,0.5-1.2,1.1-1.6
				c0.3-0.2,0.8-0.3,1,0C53.2,351.6,53.8,352.7,53.6,353.3z M56.3,469.6c-0.6,0.5-1.6,0.4-2.1-0.2c-0.6-0.7-0.4-1.8-0.1-2.6
				c0.2-0.5,0.6-1,1.1-0.8c0,0,1.5,0.7,1.8,1.5C57.2,468.2,57,469.1,56.3,469.6z M59.3,286.3c0,0-1.4,0.5-1.9,0.3
				c-0.5-0.2-0.7-0.8-0.4-1.4s1-1.1,1.6-1.1c0.7,0,1,0.6,1.1,1.2C59.8,285.6,59.7,286.1,59.3,286.3z M59.9,380
				c0.3-0.6,1-1.1,1.6-1.1c0.7,0,1,0.6,1.1,1.2c0.1,0.3,0,0.8-0.4,1c0,0-1.4,0.5-1.9,0.3C59.8,381.2,59.6,380.6,59.9,380z
				 M62.8,411.3c-0.2,0.6-0.7,1-1.3,1c-0.6,0-1.1-0.5-1.2-1.1c0-0.7,0.5-1.2,1.1-1.6c0.3-0.2,0.8-0.3,1,0
				C62.4,409.6,63,410.7,62.8,411.3z M64.1,376.8c-0.3,0.2-0.7,0.4-1.1,0.1c0,0-1.1-1-1.1-1.5c0-0.5,0.4-1,1-1s1.4,0.3,1.7,0.9
				C65,375.8,64.6,376.4,64.1,376.8z M64,335.3c-0.6,0-1.1-0.5-1.2-1.1c0-0.7,0.5-1.2,1.1-1.6c0.3-0.2,0.8-0.3,1,0
				c0,0,0.6,1.1,0.4,1.7C65.1,334.9,64.5,335.3,64,335.3z M65.3,437.4c0-0.5,0.4-1,1-1c0.6,0,1.4,0.3,1.7,0.9
				c0.3,0.6-0.1,1.2-0.5,1.6c-0.3,0.2-0.7,0.4-1.1,0.1C66.4,438.9,65.3,437.9,65.3,437.4z M69,463.6c-0.6,0.5-1.6,0.4-2.1-0.2
				c-0.6-0.7-0.4-1.8-0.1-2.6c0.2-0.5,0.6-1,1.1-0.8c0,0,1.5,0.7,1.8,1.5C69.9,462.2,69.6,463.1,69,463.6z M69.9,404
				c-0.3,0.2-0.7,0.4-1.1,0.1c0,0-1.1-1-1.1-1.5c0-0.5,0.4-1,1-1s1.4,0.3,1.7,0.9C70.7,403,70.4,403.6,69.9,404z M70.5,364.6
				c0,0-1.4,0.5-1.9,0.3c-0.5-0.2-0.7-0.8-0.4-1.4s1-1.1,1.6-1.1c0.7,0,1,0.6,1.1,1.2C71,363.9,70.9,364.4,70.5,364.6z M71.9,409.4
				c0.3-0.2,0.8-0.3,1,0c0,0,0.6,1.1,0.4,1.7c-0.2,0.6-0.7,1-1.3,1c-0.6,0-1.1-0.5-1.2-1.1C70.7,410.3,71.3,409.8,71.9,409.4z
				 M71,332.9c0-0.6,0.5-1.1,1-1.3c0.6-0.1,1.2,0.2,1.4,0.8c0.2,0.6-0.2,1.3-0.7,1.8c-0.3,0.3-0.7,0.5-1,0.3
				C71.8,334.5,71,333.5,71,332.9z M73,462.1c-0.3,0.2-0.7,0.4-1.1,0.1c0,0-1.1-1-1.1-1.5c0-0.5,0.4-1,1-1c0.6,0,1.4,0.3,1.7,0.9
				C73.8,461.2,73.4,461.7,73,462.1z M72.9,318.5c-0.3,0.3-0.7,0.5-1,0.3c0,0-0.8-1-0.8-1.6c0-0.6,0.5-1.1,1-1.3s1.2,0.2,1.4,0.8
				C73.8,317.4,73.4,318,72.9,318.5z M72.9,266.2c-0.3,0.3-0.7,0.5-1,0.3c0,0-0.8-1-0.8-1.6c0-0.6,0.5-1.1,1-1.3
				c0.6-0.1,1.2,0.2,1.4,0.8C73.8,265,73.4,265.7,72.9,266.2z M73.2,204c0-0.6,0.5-1.1,1-1.3c0.6-0.1,1.2,0.2,1.4,0.8
				c0.2,0.6-0.2,1.3-0.7,1.8c-0.3,0.3-0.7,0.5-1,0.3C74,205.6,73.1,204.7,73.2,204z M74.1,335.5c0.3-0.6,1-1.1,1.6-1.1
				c0.7,0,1,0.6,1.1,1.2c0.1,0.3,0,0.8-0.4,1c0,0-1.4,0.5-1.9,0.3C74.1,336.7,73.9,336.1,74.1,335.5z M76.6,438.1
				c-0.3,0.2-0.7,0.4-1.1,0.1c0,0-1.1-1-1.1-1.5c0-0.5,0.4-1,1-1s1.4,0.3,1.7,0.9C77.5,437.2,77.1,437.7,76.6,438.1z M76.6,344.5
				c-0.3,0.2-0.7,0.4-1.1,0.1c0,0-1.1-1-1.1-1.5c0-0.5,0.4-1,1-1s1.4,0.3,1.7,0.9C77.5,343.5,77.1,344.1,76.6,344.5z M78.6,321.3
				c0.6,0,1.4,0.3,1.7,0.9c0.3,0.6-0.1,1.2-0.5,1.6c-0.3,0.2-0.7,0.4-1.1,0.1c0,0-1.1-1-1.1-1.5C77.5,321.8,78,321.4,78.6,321.3z
				 M80.2,474.1c-0.6,0.5-1.6,0.4-2.1-0.2c-0.6-0.7-0.4-1.8-0.1-2.6c0.2-0.5,0.6-1,1.1-0.8c0,0,1.5,0.7,1.8,1.5
				C81.1,472.7,80.8,473.6,80.2,474.1z M81.2,451.2c-0.6,0.5-1.6,0.4-2.1-0.2c-0.6-0.7-0.4-1.8-0.1-2.6c0.2-0.5,0.6-1,1.1-0.8
				c0,0,1.5,0.7,1.8,1.5C82.1,449.9,81.8,450.8,81.2,451.2z M83.3,379.3c0,0-1.4,0.5-1.9,0.3c-0.5-0.2-0.7-0.8-0.4-1.4
				s1-1.1,1.6-1.1c0.7,0,1,0.6,1.1,1.2C83.8,378.6,83.7,379.1,83.3,379.3z M86.4,404.1c-0.3,0.2-0.7,0.4-1.1,0.1c0,0-1.1-1-1.1-1.5
				c0-0.5,0.4-1,1-1s1.4,0.3,1.7,0.9C87.2,403.2,86.9,403.7,86.4,404.1z M86.5,359.5c-0.3,0.2-0.7,0.4-1.1,0.1c0,0-1.1-1-1.1-1.5
				c0-0.5,0.4-1,1-1s1.4,0.3,1.7,0.9C87.4,358.5,87,359.1,86.5,359.5z M87.3,424.2c0-0.5,0.4-1,1-1c0,0,0.1,0,0.1,0
				c0.2-0.1,0.3-0.2,0.5-0.2c0.6,0,1.4,0.3,1.7,0.9c0.3,0.6-0.1,1.2-0.5,1.6c-0.2,0.2-0.5,0.3-0.8,0.2c-0.3,0.2-0.7,0.3-0.9,0
				C88.4,425.7,87.3,424.8,87.3,424.2z M90.6,452.6c-0.3,0.2-0.7,0.4-1.1,0.1c0,0-1.1-1-1.1-1.5c0-0.5,0.4-1,1-1s1.4,0.3,1.7,0.9
				C91.5,451.7,91.1,452.2,90.6,452.6z M93.8,366.1c-0.2,0.6-0.7,1-1.3,1c-0.6,0-1.1-0.5-1.2-1.1c0-0.7,0.5-1.2,1.1-1.6
				c0.3-0.2,0.8-0.3,1,0C93.4,364.4,94,365.5,93.8,366.1z M93.8,354.3c-0.5-0.2-0.7-0.8-0.4-1.4s1-1.1,1.6-1.1c0.7,0,1,0.6,1.1,1.2
				c0.1,0.3,0,0.8-0.4,1C95.7,354.1,94.3,354.5,93.8,354.3z M96,370.5c0.3-0.6,1-1.1,1.6-1.1c0.7,0,1,0.6,1.1,1.2
				c0.1,0.3,0,0.8-0.4,1c0,0-1.4,0.5-1.9,0.3C95.9,371.7,95.8,371.1,96,370.5z M97.2,418.5c-0.5-0.2-0.7-0.8-0.4-1.4s1-1.1,1.6-1.1
				c0.7,0,1,0.6,1.1,1.2c0.1,0.3,0,0.8-0.4,1C99.1,418.3,97.7,418.8,97.2,418.5z M101,461.8c-0.3,0.2-0.7,0.4-1.1,0.1
				c0,0-1.1-1-1.1-1.5c0-0.5,0.4-1,1-1c0.6,0,1.4,0.3,1.7,0.9C101.8,460.8,101.4,461.4,101,461.8z M101.4,426.7c0,0-1.1-1-1.1-1.5
				c0-0.5,0.4-1,1-1c0.6,0,1.4,0.3,1.7,0.9c0.3,0.6-0.1,1.2-0.5,1.6C102.2,426.8,101.7,427,101.4,426.7z M103.4,451.1
				c0.4-0.3,1-0.6,1.3-0.2c0,0,1,1.4,0.9,2.2c-0.1,0.8-0.8,1.5-1.5,1.6c-0.8,0.1-1.6-0.4-1.8-1.2
				C102.1,452.5,102.7,451.7,103.4,451.1z M105,472.4c-0.6,0.5-1.6,0.4-2.1-0.2c-0.6-0.7-0.4-1.8-0.1-2.6c0.2-0.5,0.6-1,1.1-0.8
				c0,0,1.5,0.7,1.8,1.5C105.9,471,105.6,471.9,105,472.4z M105.6,397.2c-0.5-0.2-0.7-0.8-0.4-1.4s1-1.1,1.6-1.1
				c0.7,0,1,0.6,1.1,1.2c0.1,0.3,0,0.8-0.4,1C107.5,396.9,106.1,397.4,105.6,397.2z M106.5,432.3c-0.6-0.7-0.4-1.8-0.1-2.6
				c0.2-0.5,0.6-1,1.1-0.8c0,0,1.5,0.7,1.8,1.5c0.3,0.7,0,1.7-0.6,2.1C108,433,107,432.9,106.5,432.3z M110.3,444.7
				c0,0-1.4,0.5-1.9,0.3c-0.5-0.2-0.7-0.8-0.4-1.4s1-1.1,1.6-1.1c0.7,0,1,0.6,1.1,1.2C110.8,444,110.7,444.5,110.3,444.7z
				 M111.7,399.4c0,0-1.4,0.5-1.9,0.3c-0.5-0.2-0.7-0.8-0.4-1.4s1-1.1,1.6-1.1c0.7,0,1,0.6,1.1,1.2
				C112.2,398.7,112.1,399.2,111.7,399.4z M112.4,391.3c-0.2,0.6-0.7,1-1.3,1c-0.6,0-1.1-0.5-1.2-1.1c0-0.7,0.5-1.2,1.1-1.6
				c0.3-0.2,0.8-0.3,1,0C112.1,389.6,112.6,390.7,112.4,391.3z M113,370.4c-0.5-0.2-0.7-0.8-0.4-1.4s1-1.1,1.6-1.1
				c0.7,0,1,0.6,1.1,1.2c0.1,0.3,0,0.8-0.4,1C114.9,370.2,113.6,370.7,113,370.4z M115,417.5c-0.6,0-1.1-0.5-1.2-1.1
				c0-0.7,0.5-1.2,1.1-1.6c0.3-0.2,0.8-0.3,1,0c0,0,0.6,1.1,0.4,1.7C116.1,417,115.5,417.5,115,417.5z M117.2,441.9
				c0.6,0,1.4,0.3,1.7,0.9c0.3,0.6-0.1,1.2-0.5,1.6c-0.3,0.2-0.7,0.4-1.1,0.1c0,0-1.1-1-1.1-1.5
				C116.1,442.4,116.5,441.9,117.2,441.9z M118.6,464.7c0,0-1.4,0.5-1.9,0.3c-0.5-0.2-0.7-0.8-0.4-1.4s1-1.1,1.6-1.1
				c0.7,0,1,0.6,1.1,1.2C119.1,464,119,464.5,118.6,464.7z M119.4,318.9c-0.5-0.2-0.7-0.8-0.4-1.4s1-1.1,1.6-1.1
				c0.7,0,1,0.6,1.1,1.2c0.1,0.3,0,0.8-0.4,1C121.3,318.7,119.9,319.2,119.4,318.9z M121.2,394.7c0,0-1.1-1-1.1-1.5c0-0.5,0.4-1,1-1
				s1.4,0.3,1.7,0.9c0.3,0.6-0.1,1.2-0.5,1.6C122,394.8,121.5,395,121.2,394.7z M122.6,424.8c-0.5-0.2-0.7-0.8-0.4-1.4
				s1-1.1,1.6-1.1c0.7,0,1,0.6,1.1,1.2c0.1,0.3,0,0.8-0.4,1C124.5,424.5,123.1,425,122.6,424.8z M125.9,464.6
				c-0.8,0.2-1.7-0.2-1.9-0.9c-0.3-0.9,0.2-1.8,0.8-2.5c0.3-0.4,0.9-0.8,1.3-0.4c0,0,1.2,1.2,1.2,2.1
				C127.2,463.6,126.6,464.4,125.9,464.6z M126.6,452.3c-0.3,0.2-0.7,0.4-1.1,0.1c0,0-1.1-1-1.1-1.5c0-0.5,0.4-1,1-1
				c0.6,0,1.4,0.3,1.7,0.9C127.5,451.3,127.1,451.9,126.6,452.3z M129.5,369.2c0,0-1.4,0.5-1.9,0.3c-0.5-0.2-0.7-0.8-0.4-1.4
				s1-1.1,1.6-1.1c0.7,0,1,0.6,1.1,1.2C130,368.5,129.9,369,129.5,369.2z M132.5,460.1c-0.6,0.5-1.6,0.4-2.1-0.2
				c-0.6-0.7-0.4-1.8-0.1-2.6c0.2-0.5,0.6-1,1.1-0.8c0,0,1.5,0.7,1.8,1.5C133.4,458.7,133.1,459.6,132.5,460.1z M133,427.8
				c-0.6-0.7-0.4-1.8-0.1-2.6c0.2-0.5,0.6-1,1.1-0.8c0,0,1.5,0.7,1.8,1.5c0.3,0.7,0,1.7-0.6,2.1C134.5,428.5,133.5,428.4,133,427.8z
				 M138.4,434.3c-0.2,0.8-1,1.3-1.8,1.3c-0.8,0-1.5-0.7-1.6-1.4c-0.1-0.9,0.7-1.7,1.5-2.2c0.4-0.3,1.1-0.5,1.3,0
				C137.9,432,138.7,433.5,138.4,434.3z M138.5,404.3c0,0-1.4,0.5-1.9,0.3c-0.5-0.2-0.7-0.8-0.4-1.4s1-1.1,1.6-1.1
				c0.7,0,1,0.6,1.1,1.2C138.9,403.6,138.9,404.1,138.5,404.3z M136.1,377.4c0-0.7,0.5-1.2,1.1-1.6c0.3-0.2,0.8-0.3,1,0
				c0,0,0.6,1.1,0.4,1.7c-0.2,0.6-0.7,1-1.3,1S136.2,377.9,136.1,377.4z M138.9,368.8c-0.2,0.6-0.7,1-1.3,1c-0.6,0-1.1-0.5-1.2-1.1
				c0-0.7,0.5-1.2,1.1-1.6c0.3-0.2,0.8-0.3,1,0C138.6,367.1,139.1,368.2,138.9,368.8z M140.2,428.4c0,0-1.1-1-1.1-1.5
				c0-0.5,0.4-1,1-1c0.6,0,1.4,0.3,1.7,0.9c0.3,0.6-0.1,1.2-0.5,1.6C141,428.5,140.6,428.7,140.2,428.4z M143.7,460.5
				c0,0-1.4,0.5-1.9,0.3c-0.5-0.2-0.7-0.8-0.4-1.4s1-1.1,1.6-1.1c0.7,0,1,0.6,1.1,1.2C144.2,459.9,144.1,460.4,143.7,460.5z
				 M145.6,375.9c-0.3,0.2-0.7,0.4-1.1,0.1c0,0-1.1-1-1.1-1.5c0-0.5,0.4-1,1-1s1.4,0.3,1.7,0.9C146.5,374.9,146.1,375.5,145.6,375.9
				z M145.6,352.4c-0.3,0.2-0.7,0.4-1.1,0.1c0,0-1.1-1-1.1-1.5c0-0.5,0.4-1,1-1s1.4,0.3,1.7,0.9C146.5,351.4,146.1,352,145.6,352.4z
				 M148.6,431.3c-0.3,0.2-0.7,0.4-1.1,0.1c0,0-1.1-1-1.1-1.5c0-0.5,0.4-1,1-1c0.6,0,1.4,0.3,1.7,0.9
				C149.5,430.3,149.1,430.9,148.6,431.3z M149.2,411.7c0.2-0.5,0.6-1,1.1-0.8c0,0,1.5,0.7,1.8,1.5c0.3,0.7,0,1.7-0.6,2.1
				c-0.6,0.5-1.6,0.4-2.1-0.2C148.8,413.7,148.9,412.6,149.2,411.7z M152,468.1c-0.6,0.5-1.6,0.4-2.1-0.2c-0.6-0.7-0.4-1.8-0.1-2.6
				c0.2-0.5,0.6-1,1.1-0.8c0,0,1.5,0.7,1.8,1.5C152.9,466.7,152.6,467.6,152,468.1z M152.1,365c-0.6,0-1.1-0.5-1.2-1.1
				c0-0.7,0.5-1.2,1.1-1.6c0.3-0.2,0.8-0.3,1,0c0,0,0.6,1.1,0.4,1.7C153.3,364.5,152.7,365,152.1,365z M154.5,389.1
				c-0.6,0-1.1-0.5-1.2-1.1c0-0.7,0.5-1.2,1.1-1.6c0.3-0.2,0.8-0.3,1,0c0,0,0.6,1.1,0.4,1.7C155.6,388.7,155,389.1,154.5,389.1z
				 M155.7,422.2c0-0.9,0.8-1.6,1.6-2.1c0.4-0.3,1.1-0.4,1.3,0c0,0,0.7,1.5,0.4,2.3c-0.3,0.7-1,1.3-1.8,1.2
				C156.4,423.7,155.7,423,155.7,422.2z M160.5,448.1c-0.3,0.2-0.7,0.4-1.1,0.1c0,0-1.1-1-1.1-1.5c0-0.5,0.4-1,1-1
				c0.6,0,1.4,0.3,1.7,0.9C161.3,447.2,160.9,447.7,160.5,448.1z M161,435.7c0-0.5,0.4-1,1-1s1.4,0.3,1.7,0.9
				c0.3,0.6-0.1,1.2-0.5,1.6c-0.3,0.2-0.7,0.4-1.1,0.1C162.1,437.2,161,436.3,161,435.7z M164.7,447c0,0-1.4,0.5-1.9,0.3
				c-0.5-0.2-0.7-0.8-0.4-1.4s1-1.1,1.6-1.1c0.7,0,1,0.6,1.1,1.2C165.2,446.4,165.1,446.9,164.7,447z M165.8,291.6
				c0,0-0.8-1-0.8-1.6c0-0.6,0.5-1.1,1-1.3c0.6-0.1,1.2,0.2,1.4,0.8c0.2,0.6-0.2,1.3-0.7,1.8C166.5,291.6,166.1,291.9,165.8,291.6z
				 M167.3,359.9c-0.5-0.2-0.7-0.8-0.4-1.4s1-1.1,1.6-1.1c0.7,0,1,0.6,1.1,1.2c0.1,0.3,0,0.8-0.4,1
				C169.2,359.7,167.8,360.2,167.3,359.9z M168.6,400c-0.5-0.2-0.7-0.8-0.4-1.4s1-1.1,1.6-1.1c0.7,0,1,0.6,1.1,1.2
				c0.1,0.3,0,0.8-0.4,1C170.5,399.8,169.1,400.3,168.6,400z M170.2,444.5c0.6,0,1.4,0.3,1.7,0.9c0.3,0.6-0.1,1.2-0.5,1.6
				c-0.3,0.2-0.7,0.4-1.1,0.1c0,0-1.1-1-1.1-1.5C169.1,445,169.5,444.6,170.2,444.5z M171.7,477.6c-0.6,0.5-1.6,0.4-2.1-0.2
				c-0.6-0.7-0.4-1.8-0.1-2.6c0.2-0.5,0.6-1,1.1-0.8c0,0,1.5,0.7,1.8,1.5C172.6,476.2,172.3,477.1,171.7,477.6z M173.3,443.3
				c-0.2,0.6-0.7,1-1.3,1c-0.6,0-1.1-0.5-1.2-1.1c0-0.7,0.5-1.2,1.1-1.6c0.3-0.2,0.8-0.3,1,0C172.9,441.6,173.5,442.7,173.3,443.3z
				 M173.9,423.8c-0.5-0.2-0.7-0.8-0.4-1.4s1-1.1,1.6-1.1c0.7,0,1,0.6,1.1,1.2c0.1,0.3,0,0.8-0.4,1
				C175.7,423.5,174.4,424,173.9,423.8z M175.8,431c0-0.7,0.5-1.2,1.1-1.6c0.3-0.2,0.8-0.3,1,0c0,0,0.6,1.1,0.4,1.7
				c-0.2,0.6-0.7,1-1.3,1C176.4,432.1,175.8,431.6,175.8,431z M179,464.6c-0.3,0.2-0.7,0.4-1.1,0.1c0,0-1.1-1-1.1-1.5
				c0-0.5,0.4-1,1-1c0.6,0,1.4,0.3,1.7,0.9C179.8,463.7,179.4,464.2,179,464.6z M181.6,318.5c-0.3,0.2-0.7,0.4-1.1,0.1
				c0,0-1.1-1-1.1-1.5c0-0.5,0.4-1,1-1s1.4,0.3,1.7,0.9C182.5,317.5,182.1,318.1,181.6,318.5z"/>
			<path fill="#472905" d="M108.8,133.7c-1,0.1-1.9,0.2-2.9,0c-1.9,0.3-3.8,0.4-5.6-0.2c-0.2,0-0.3,0-0.5,0c3.4,0.6,6.3,2,9.9,1
				c0.8-0.2,1.6-0.7,2.4-1C111,133.6,109.9,133.6,108.8,133.7z"/>
			<path fill="#472905" d="M154.9,134.9c2.3,0.1,4.8,0.5,7.1,0.2c1.4-0.2,2.4-0.9,3.6-1.1c-1.4,0-2.7,0-4.1,0.1c-0.1,0-0.1,0-0.2,0
				c-1,0-2-0.1-3-0.1h-13.3c-0.4,0-0.8,0-1.2-0.1c-1.4,0-2.7,0-4.1,0c-0.5,0-1,0-1.5,0c1.4,0.4,2.7,1,4.3,1.2
				C146.6,135.8,150.9,134.8,154.9,134.9z"/>
			<path fill="#472905" d="M191.9,134.7c-0.1-0.2,0-0.4,0-0.6c0-0.1,0-0.1-0.1-0.1h-3.5c-4.9-0.6-10.1,0.2-15.1,0
				c-2.1,0.1-4.1,0.1-6.2,0.1c0,0,0.1,0,0.1,0c1.3,0.2,2.5,0.9,3.9,1.1c5.4,0.7,11.1-0.7,16.5,0c3,0,3.4-0.9,3.4,1.6v348.1
				c0,1.1-0.4,3.2-0.1,4.4H32.4c-2.2,0-1.8,0.3-1.8-1.9V145.1c0-3.2,0.4-6.7,0-9.8c0-0.1,0-0.1,0-0.2c1.1,0,2.2,0.1,3.3-0.2
				c1.8-0.4,2.7-0.9,4.6-0.4c0.6,0.1,1.2,0.5,1.7,0.6c0.8,0.1,1.8,0,2.6,0c2.2,0,3.7,0,5.8-0.6c4.4-1.2,8.7,0.3,13.1,0.6
				c2.3,0.1,4.7,0,7,0c2.6,0,5.5-1.3,7.9-0.8c2.4,0.4,3.7,0.8,6.2,0.8c2.4,0,4.8,0.2,7.2,0c1.7-0.1,3.2-0.9,4.8-1.3
				c-0.2,0-0.3,0-0.5,0c-0.3,0-0.6,0-0.9,0.1c-0.7,0.1-1.4,0.2-2.1,0c-1.6,0.3-3.1,0.2-4.8,0.2c-2.1,0-4.4,0.3-6.4,0
				c-0.3,0-0.6-0.1-0.8-0.1c-1.5,0.1-3,0.1-4.4,0.1c-1.5,0.1-3.2,0.3-4.7,0c-1.6,0.2-3.4,0-5,0c-1.2,0-2.4-0.1-3.6-0.2
				c-2.1,0.1-4.3,0.1-6.3,0.1c-0.1,0-0.1,0-0.2,0c-1.6,0.1-3.2,0.2-4.8,0.1c-1.2,0.1-2.4,0.2-3.7,0.1c-0.2,0-0.5,0-0.7,0
				c-1.4,0-2.8,0.1-4.2,0c-0.4,0-0.8-0.1-1.2-0.2c-0.9,0.1-1.7,0.1-2.6,0.1c-1.2,0.2-2.4,0.3-3.7,0.1c0,0,0,0,0,0
				c-1.2,0.2-2.6,0-3.7,0c-0.4,0-1,0.6-1,1v349.9c0,1.3-0.5,3.6,0,4.8c0.1,0.1,0,0.4,0,0.6c0,0.1,0,0.1,0.1,0.1h161.3
				c0.4,0,1-0.6,1-1V139.5C191.9,138.2,192.4,135.9,191.9,134.7z"/>
			<path fill="#472905" d="M117.7,135.1c2,0.5,4.6,0,6.7,0c1.4,0,3,0.2,4.4,0c1.4-0.2,2.6-0.8,4-1.2c-1.2,0-2.5,0-3.7,0
				c-0.4,0.1-0.8,0.1-1.2,0.1h-7c-0.7,0-1.8,0.2-2.4,0c-0.1,0-0.3-0.1-0.4-0.2c-0.8,0-1.7,0-2.6,0c0.6,0.4,0.8,0.9,1.7,1.3
				C117.3,135.1,117.5,135,117.7,135.1z"/>
			<path fill="#70613F" d="M136.6,432c-0.8,0.5-1.5,1.3-1.5,2.2c0.1,0.8,0.8,1.4,1.6,1.4c0.8,0,1.5-0.6,1.8-1.3
				c0.2-0.8-0.6-2.3-0.6-2.3C137.6,431.6,137,431.8,136.6,432z"/>
			<path fill="#70613F" d="M135.8,425.9c-0.3-0.8-1.8-1.5-1.8-1.5c-0.5-0.2-0.9,0.3-1.1,0.8c-0.3,0.9-0.5,1.9,0.1,2.6
				c0.5,0.6,1.5,0.7,2.1,0.2C135.8,427.6,136.1,426.7,135.8,425.9z"/>
			<path fill="#70613F" d="M131.3,456.4c-0.5-0.2-0.9,0.3-1.1,0.8c-0.3,0.9-0.5,1.9,0.1,2.6c0.5,0.6,1.5,0.7,2.1,0.2
				c0.6-0.5,0.9-1.4,0.6-2.1C132.8,457.2,131.3,456.4,131.3,456.4z"/>
			<path fill="#70613F" d="M124.7,461.2c-0.6,0.7-1.1,1.6-0.8,2.5c0.3,0.7,1.2,1.1,1.9,0.9s1.3-1,1.3-1.8c0-0.8-1.2-2.1-1.2-2.1
				C125.6,460.4,125,460.8,124.7,461.2z"/>
			<path fill="#70613F" d="M150.8,464.4c-0.5-0.2-0.9,0.3-1.1,0.8c-0.3,0.9-0.5,1.9,0.1,2.6c0.5,0.6,1.5,0.7,2.1,0.2
				c0.6-0.5,0.9-1.4,0.6-2.1C152.3,465.2,150.8,464.4,150.8,464.4z"/>
			<path fill="#70613F" d="M170.5,473.9c-0.5-0.2-0.9,0.3-1.1,0.8c-0.3,0.9-0.5,1.9,0.1,2.6c0.5,0.6,1.5,0.7,2.1,0.2
				c0.6-0.5,0.9-1.4,0.6-2.1C172,474.7,170.5,473.9,170.5,473.9z"/>
			<path fill="#70613F" d="M104.1,454.6c0.8-0.1,1.4-0.8,1.5-1.6c0.1-0.8-0.9-2.2-0.9-2.2c-0.3-0.4-0.9-0.1-1.3,0.2
				c-0.7,0.6-1.3,1.5-1.1,2.4C102.5,454.2,103.3,454.7,104.1,454.6z"/>
			<path fill="#70613F" d="M103.8,468.7c-0.5-0.2-0.9,0.3-1.1,0.8c-0.3,0.9-0.5,1.9,0.1,2.6c0.5,0.6,1.5,0.7,2.1,0.2
				c0.6-0.5,0.9-1.4,0.6-2.1C105.3,469.5,103.8,468.7,103.8,468.7z"/>
			<path fill="#70613F" d="M109.3,430.4c-0.3-0.8-1.8-1.5-1.8-1.5c-0.5-0.2-0.9,0.3-1.1,0.8c-0.3,0.9-0.5,1.9,0.1,2.6
				c0.5,0.6,1.5,0.7,2.1,0.2C109.3,432.1,109.6,431.2,109.3,430.4z"/>
			<path fill="#70613F" d="M80,447.6c-0.5-0.2-0.9,0.3-1.1,0.8c-0.3,0.9-0.5,1.9,0.1,2.6c0.5,0.6,1.5,0.7,2.1,0.2
				c0.6-0.5,0.9-1.4,0.6-2.1C81.5,448.3,80,447.6,80,447.6z"/>
			<path fill="#70613F" d="M79,470.4c-0.5-0.2-0.9,0.3-1.1,0.8c-0.3,0.9-0.5,1.9,0.1,2.6c0.5,0.6,1.5,0.7,2.1,0.2
				c0.6-0.5,0.9-1.4,0.6-2.1C80.5,471.2,79,470.4,79,470.4z"/>
			<path fill="#70613F" d="M67.8,459.9c-0.5-0.2-0.9,0.3-1.1,0.8c-0.3,0.9-0.5,1.9,0.1,2.6c0.5,0.6,1.5,0.7,2.1,0.2
				c0.6-0.5,0.9-1.4,0.6-2.1C69.3,460.7,67.8,459.9,67.8,459.9z"/>
			<path fill="#70613F" d="M56.3,469.6c0.6-0.5,0.9-1.4,0.6-2.1c-0.3-0.8-1.8-1.5-1.8-1.5c-0.5-0.2-0.9,0.3-1.1,0.8
				c-0.3,0.9-0.5,1.9,0.1,2.6C54.7,469.9,55.7,470,56.3,469.6z"/>
			<path fill="#70613F" d="M159,422.5c0.3-0.8-0.4-2.3-0.4-2.3c-0.2-0.4-0.9-0.3-1.3,0c-0.8,0.5-1.6,1.2-1.6,2.1
				c0,0.8,0.7,1.5,1.5,1.5C158,423.8,158.8,423.3,159,422.5z"/>
			<path fill="#70613F" d="M151.5,414.6c0.6-0.5,0.9-1.4,0.6-2.1c-0.3-0.8-1.8-1.5-1.8-1.5c-0.5-0.2-0.9,0.3-1.1,0.8
				c-0.3,0.9-0.5,1.9,0.1,2.6C149.9,414.9,150.9,415,151.5,414.6z"/>
			<path fill="#70613F" d="M158.7,416.4c-0.6,0.4-1.2,0.9-1.1,1.6c0,0.6,0.6,1.1,1.2,1.1c0.6,0,1.1-0.4,1.3-1
				c0.2-0.6-0.4-1.7-0.4-1.7C159.5,416.1,159,416.2,158.7,416.4z"/>
			<path fill="#70613F" d="M72,412.1c0.6,0,1.1-0.4,1.3-1c0.2-0.6-0.4-1.7-0.4-1.7c-0.2-0.3-0.7-0.2-1,0c-0.6,0.4-1.2,0.9-1.1,1.6
				C70.8,411.6,71.4,412.1,72,412.1z"/>
			<path fill="#70613F" d="M115.9,414.7c-0.2-0.3-0.7-0.2-1,0c-0.6,0.4-1.2,0.9-1.1,1.6c0,0.6,0.6,1.1,1.2,1.1c0.6,0,1.1-0.4,1.3-1
				C116.5,415.9,115.9,414.7,115.9,414.7z"/>
			<path fill="#70613F" d="M61.4,409.6c-0.6,0.4-1.2,0.9-1.1,1.6c0,0.6,0.6,1.1,1.2,1.1c0.6,0,1.1-0.4,1.3-1
				c0.2-0.6-0.4-1.7-0.4-1.7C62.2,409.3,61.7,409.4,61.4,409.6z"/>
			<path fill="#70613F" d="M178.3,431.1c0.2-0.6-0.4-1.7-0.4-1.7c-0.2-0.3-0.7-0.2-1,0c-0.6,0.4-1.2,0.9-1.1,1.6
				c0,0.6,0.6,1.1,1.2,1.1C177.5,432.1,178.1,431.7,178.3,431.1z"/>
			<path fill="#70613F" d="M87.7,413.8c0.5,0.6,1.5,0.7,2.1,0.2c0.6-0.5,0.9-1.4,0.6-2.1c-0.3-0.8-1.8-1.5-1.8-1.5
				c-0.5-0.2-0.9,0.3-1.1,0.8C87.3,412.1,87.1,413.2,87.7,413.8z"/>
			<path fill="#70613F" d="M111.1,389.6c-0.6,0.4-1.2,0.9-1.1,1.6c0,0.6,0.6,1.1,1.2,1.1c0.6,0,1.1-0.4,1.3-1
				c0.2-0.6-0.4-1.7-0.4-1.7C111.9,389.3,111.4,389.4,111.1,389.6z"/>
			<path fill="#70613F" d="M105.4,391.3c0.2-0.6-0.4-1.7-0.4-1.7c-0.2-0.3-0.7-0.2-1,0c-0.6,0.4-1.2,0.9-1.1,1.6
				c0,0.6,0.6,1.1,1.2,1.1C104.7,392.3,105.3,391.9,105.4,391.3z"/>
			<path fill="#70613F" d="M80.1,388.8c0.6,0,1.1-0.4,1.3-1c0.2-0.6-0.4-1.7-0.4-1.7c-0.2-0.3-0.7-0.2-1,0c-0.6,0.4-1.2,0.9-1.1,1.6
				C79,388.3,79.5,388.8,80.1,388.8z"/>
			<path fill="#70613F" d="M92.4,364.4c-0.6,0.4-1.2,0.9-1.1,1.6c0,0.6,0.6,1.1,1.2,1.1c0.6,0,1.1-0.4,1.3-1
				c0.2-0.6-0.4-1.7-0.4-1.7C93.2,364.1,92.7,364.2,92.4,364.4z"/>
			<path fill="#70613F" d="M137.3,378.5c0.6,0,1.1-0.4,1.3-1c0.2-0.6-0.4-1.7-0.4-1.7c-0.2-0.3-0.7-0.2-1,0
				c-0.6,0.4-1.2,0.9-1.1,1.6C136.2,377.9,136.7,378.4,137.3,378.5z"/>
			<path fill="#70613F" d="M137.6,367.1c-0.6,0.4-1.2,0.9-1.1,1.6c0,0.6,0.6,1.1,1.2,1.1c0.6,0,1.1-0.4,1.3-1
				c0.2-0.6-0.4-1.7-0.4-1.7C138.4,366.8,137.9,366.9,137.6,367.1z"/>
			<path fill="#70613F" d="M155.4,386.4c-0.2-0.3-0.7-0.2-1,0c-0.6,0.4-1.2,0.9-1.1,1.6c0,0.6,0.6,1.1,1.2,1.1c0.6,0,1.1-0.4,1.3-1
				C156,387.5,155.4,386.4,155.4,386.4z"/>
			<path fill="#70613F" d="M159.7,386.4c-0.2-0.3-0.7-0.2-1,0c-0.6,0.4-1.2,0.9-1.1,1.6c0,0.6,0.6,1.1,1.2,1.1c0.6,0,1.1-0.4,1.3-1
				C160.3,387.5,159.7,386.4,159.7,386.4z"/>
			<path fill="#70613F" d="M159.7,376.9c-0.2-0.3-0.7-0.2-1,0c-0.5,0.3-1,0.8-1.1,1.3c0.1,0.1,0.1,0.1,0.2,0.2
				c0.1,0.2,0.1,0.5,0.1,0.7c0.2,0.3,0.5,0.5,0.9,0.5c0.6,0,1.1-0.4,1.3-1C160.3,378,159.7,376.9,159.7,376.9z"/>
			<path fill="#70613F" d="M153.1,362.2c-0.2-0.3-0.7-0.2-1,0c-0.6,0.4-1.2,0.9-1.1,1.6c0,0.6,0.6,1.1,1.2,1.1s1.1-0.4,1.3-1
				C153.6,363.4,153.1,362.2,153.1,362.2z"/>
			<path fill="#70613F" d="M170.6,406.6c-0.6,0.4-1.2,0.9-1.1,1.6c0,0.6,0.6,1.1,1.2,1.1c0.6,0,1.1-0.4,1.3-1
				c0.2-0.6-0.4-1.7-0.4-1.7C171.4,406.3,170.9,406.4,170.6,406.6z"/>
			<path fill="#70613F" d="M171.9,441.6c-0.6,0.4-1.2,0.9-1.1,1.6c0,0.6,0.6,1.1,1.2,1.1c0.6,0,1.1-0.4,1.3-1
				c0.2-0.6-0.4-1.7-0.4-1.7C172.7,441.3,172.2,441.4,171.9,441.6z"/>
			<path fill="#70613F" d="M144,340.8c0.6,0,1.1-0.4,1.3-1c0.2-0.6-0.4-1.7-0.4-1.7c-0.2-0.3-0.7-0.2-1,0c-0.6,0.4-1.2,0.9-1.1,1.6
				C142.8,340.3,143.4,340.8,144,340.8z"/>
			<path fill="#70613F" d="M160.6,341c0.2-0.6-0.4-1.7-0.4-1.7c-0.2-0.3-0.7-0.2-1,0c-0.6,0.4-1.2,0.9-1.1,1.6
				c0,0.6,0.6,1.1,1.2,1.1S160.4,341.5,160.6,341z"/>
			<path fill="#70613F" d="M102.1,342.3c-0.6,0.4-1.2,0.9-1.1,1.6c0,0.6,0.6,1.1,1.2,1.1s1.1-0.4,1.3-1c0.2-0.6-0.4-1.7-0.4-1.7
				C102.9,341.9,102.4,342.1,102.1,342.3z"/>
			<path fill="#70613F" d="M117.9,326.1c0.2-0.6-0.4-1.7-0.4-1.7c-0.2-0.3-0.7-0.2-1,0c-0.6,0.4-1.2,0.9-1.1,1.6
				c0,0.6,0.6,1.1,1.2,1.1C117.2,327.1,117.8,326.7,117.9,326.1z"/>
			<path fill="#70613F" d="M80.3,349c0.2-0.6-0.4-1.7-0.4-1.7c-0.2-0.3-0.7-0.2-1,0c-0.6,0.4-1.2,0.9-1.1,1.6c0,0.6,0.6,1.1,1.2,1.1
				C79.5,350,80.1,349.5,80.3,349z"/>
			<path fill="#70613F" d="M52.2,351.6c-0.6,0.4-1.2,0.9-1.1,1.6c0,0.6,0.6,1.1,1.2,1.1c0.6,0,1.1-0.4,1.3-1
				c0.2-0.6-0.4-1.7-0.4-1.7C53,351.3,52.5,351.4,52.2,351.6z"/>
			<path fill="#70613F" d="M93.4,333.9c0,0.6,0.6,1.1,1.2,1.1s1.1-0.4,1.3-1c0.2-0.6-0.4-1.7-0.4-1.7c-0.2-0.3-0.7-0.2-1,0
				C94,332.6,93.4,333.2,93.4,333.9z"/>
			<path fill="#70613F" d="M107.4,311.1c-0.6,0.4-1.2,0.9-1.1,1.6c0,0.6,0.6,1.1,1.2,1.1c0.6,0,1.1-0.4,1.3-1
				c0.2-0.6-0.4-1.7-0.4-1.7C108.2,310.8,107.7,310.9,107.4,311.1z"/>
			<path fill="#70613F" d="M98.1,318.4c0,0.6,0.6,1.1,1.2,1.1s1.1-0.4,1.3-1c0.2-0.6-0.4-1.7-0.4-1.7c-0.2-0.3-0.7-0.2-1,0
				C98.6,317.1,98.1,317.7,98.1,318.4z"/>
			<path fill="#70613F" d="M86.2,322.6c-0.6,0.4-1.2,0.9-1.1,1.6c0,0.6,0.6,1.1,1.2,1.1c0.6,0,1.1-0.4,1.3-1
				c0.2-0.6-0.4-1.7-0.4-1.7C87,322.3,86.5,322.4,86.2,322.6z"/>
			<path fill="#70613F" d="M64.9,332.6c-0.2-0.3-0.7-0.2-1,0c-0.6,0.4-1.2,0.9-1.1,1.6c0,0.6,0.6,1.1,1.2,1.1c0.6,0,1.1-0.4,1.3-1
				C65.5,333.7,64.9,332.6,64.9,332.6z"/>
			<path fill="#70613F" d="M72.8,334.2c0.5-0.5,0.9-1.2,0.7-1.8c-0.2-0.6-0.8-0.9-1.4-0.8c-0.6,0.1-1,0.7-1,1.3
				c0,0.6,0.8,1.6,0.8,1.6C72.1,334.7,72.5,334.5,72.8,334.2z"/>
			<path fill="#70613F" d="M45.6,352c0.5-0.5,0.9-1.2,0.7-1.8c-0.2-0.6-0.8-0.9-1.4-0.8c-0.6,0.1-1,0.7-1,1.3c0,0.6,0.8,1.6,0.8,1.6
				C44.9,352.6,45.4,352.3,45.6,352z"/>
			<path fill="#70613F" d="M48.9,325.9c0.5-0.5,0.9-1.2,0.7-1.8c-0.2-0.6-0.8-0.9-1.4-0.8c-0.6,0.1-1,0.7-1,1.3
				c0,0.6,0.8,1.6,0.8,1.6C48.2,326.4,48.7,326.1,48.9,325.9z"/>
			<path fill="#70613F" d="M72.2,315.9c-0.6,0.1-1,0.7-1,1.3c0,0.6,0.8,1.6,0.8,1.6c0.3,0.3,0.7,0,1-0.3c0.5-0.5,0.9-1.2,0.7-1.8
				C73.4,316.2,72.8,315.8,72.2,315.9z"/>
			<path fill="#70613F" d="M61.9,313.4c0.5-0.5,0.9-1.2,0.7-1.8c-0.2-0.6-0.8-0.9-1.4-0.8c-0.6,0.1-1,0.7-1,1.3
				c0,0.6,0.8,1.6,0.8,1.6C61.2,313.9,61.7,313.6,61.9,313.4z"/>
			<path fill="#70613F" d="M165,290c0,0.6,0.8,1.6,0.8,1.6c0.3,0.3,0.7,0,1-0.3c0.5-0.5,0.9-1.2,0.7-1.8c-0.2-0.6-0.8-0.9-1.4-0.8
				C165.5,288.9,165,289.5,165,290z"/>
			<path fill="#70613F" d="M178.5,364.5c-0.2-0.6-0.8-0.9-1.4-0.8c-0.6,0.1-1,0.7-1,1.3c0,0.6,0.8,1.6,0.8,1.6c0.3,0.3,0.7,0,1-0.3
				C178.2,365.9,178.7,365.2,178.5,364.5z"/>
			<path fill="#70613F" d="M63,288c0,0.6,0.8,1.6,0.8,1.6c0.3,0.3,0.7,0,1-0.3c0.5-0.5,0.9-1.2,0.7-1.8c-0.2-0.6-0.8-0.9-1.4-0.8
				C63.5,286.9,63,287.5,63,288z"/>
			<path fill="#70613F" d="M108.5,289.5c0,0.6,0.8,1.6,0.8,1.6c0.3,0.3,0.7,0,1-0.3c0.5-0.5,0.9-1.2,0.7-1.8
				c-0.2-0.6-0.8-0.9-1.4-0.8C109,288.4,108.5,289,108.5,289.5z"/>
			<path fill="#70613F" d="M176,281.6c-0.6,0.1-1,0.7-1,1.3c0,0.6,0.8,1.6,0.8,1.6c0.3,0.3,0.7,0,1-0.3c0.5-0.5,0.9-1.2,0.7-1.8
				C177.3,281.8,176.6,281.5,176,281.6z"/>
			<path fill="#70613F" d="M146.1,273.4c-0.2-0.6-0.8-0.9-1.4-0.8c-0.6,0.1-1,0.7-1,1.3c0,0.6,0.8,1.6,0.8,1.6c0.3,0.3,0.7,0,1-0.3
				C145.9,274.7,146.3,274,146.1,273.4z"/>
			<path fill="#70613F" d="M109.5,271.2c0,0.6,0.8,1.6,0.8,1.6c0.3,0.3,0.7,0,1-0.3c0.5-0.5,0.9-1.2,0.7-1.8
				c-0.2-0.6-0.8-0.9-1.4-0.8C110,270.1,109.5,270.6,109.5,271.2z"/>
			<path fill="#70613F" d="M169.4,257.1c-0.6,0.1-1,0.7-1,1.3c0,0.6,0.8,1.6,0.8,1.6c0.3,0.3,0.7,0,1-0.3c0.5-0.5,0.9-1.2,0.7-1.8
				C170.6,257.3,169.9,257,169.4,257.1z"/>
			<path fill="#70613F" d="M129.4,261.3c-0.6,0.1-1,0.7-1,1.3c0,0.6,0.8,1.6,0.8,1.6c0.3,0.3,0.7,0,1-0.3c0.5-0.5,0.9-1.2,0.7-1.8
				C130.6,261.5,129.9,261.1,129.4,261.3z"/>
			<path fill="#70613F" d="M120.4,259.9c-0.6,0.1-1,0.7-1,1.3c0,0.6,0.8,1.6,0.8,1.6c0.3,0.3,0.7,0,1-0.3c0.5-0.5,0.9-1.2,0.7-1.8
				C121.6,260.2,120.9,259.8,120.4,259.9z"/>
			<path fill="#70613F" d="M135.9,257.1c-0.6,0.1-1,0.7-1,1.3c0,0.6,0.8,1.6,0.8,1.6c0.3,0.3,0.7,0,1-0.3c0.5-0.5,0.9-1.2,0.7-1.8
				C137.1,257.3,136.4,257,135.9,257.1z"/>
			<path fill="#70613F" d="M94.8,266.2c0,0.6,0.8,1.6,0.8,1.6c0.3,0.3,0.7,0,1-0.3c0.5-0.5,0.9-1.2,0.7-1.8
				c-0.2-0.6-0.8-0.9-1.4-0.8C95.3,265.1,94.9,265.6,94.8,266.2z"/>
			<path fill="#70613F" d="M72.2,263.6c-0.6,0.1-1,0.7-1,1.3c0,0.6,0.8,1.6,0.8,1.6c0.3,0.3,0.7,0,1-0.3c0.5-0.5,0.9-1.2,0.7-1.8
				C73.4,263.8,72.8,263.5,72.2,263.6z"/>
			<path fill="#70613F" d="M78.8,246.5c-0.2-0.6-0.8-0.9-1.4-0.8c-0.6,0.1-1,0.7-1,1.3c0,0.6,0.8,1.6,0.8,1.6c0.3,0.3,0.7,0,1-0.3
				C78.6,247.9,79,247.2,78.8,246.5z"/>
			<path fill="#70613F" d="M99.8,250.5c0.3,0.2,0.7,0.1,0.9-0.1c0.4-0.4,0.8-0.9,0.5-1.5c-0.2-0.5-0.9-0.8-1.4-0.7
				c-0.5,0.1-0.9,0.5-0.9,1C98.9,249.6,99.8,250.5,99.8,250.5z"/>
			<path fill="#70613F" d="M113.4,246.9c0.5-0.5,0.9-1.2,0.7-1.8c-0.2-0.6-0.8-0.9-1.4-0.8c-0.6,0.1-1,0.7-1,1.3
				c0,0.6,0.8,1.6,0.8,1.6C112.7,247.4,113.2,247.1,113.4,246.9z"/>
			<path fill="#70613F" d="M89.9,244.6c-0.6,0.1-1,0.7-1,1.3c0,0.6,0.8,1.6,0.8,1.6c0.3,0.3,0.7,0,1-0.3c0.5-0.5,0.9-1.2,0.7-1.8
				C91.1,244.8,90.4,244.5,89.9,244.6z"/>
			<path fill="#70613F" d="M98.3,241c0.5-0.5,0.9-1.2,0.7-1.8c-0.2-0.6-0.8-0.9-1.4-0.8c-0.6,0.1-1,0.7-1,1.3c0,0.6,0.8,1.6,0.8,1.6
				C97.6,241.6,98,241.3,98.3,241z"/>
			<path fill="#70613F" d="M139.2,236.5c0,0.6,0.8,1.6,0.8,1.6c0.3,0.3,0.7,0,1-0.3c0.5-0.5,0.9-1.2,0.7-1.8
				c-0.2-0.6-0.8-0.9-1.4-0.8C139.6,235.4,139.2,236,139.2,236.5z"/>
			<path fill="#70613F" d="M146,243.9c0,0.6,0.8,1.6,0.8,1.6c0.3,0.3,0.7,0,1-0.3c0.5-0.5,0.9-1.2,0.7-1.8c-0.2-0.6-0.8-0.9-1.4-0.8
				C146.5,242.7,146,243.3,146,243.9z"/>
			<path fill="#70613F" d="M156,236.6c-0.6,0.1-1,0.7-1,1.3c0,0.6,0.8,1.6,0.8,1.6c0.3,0.3,0.7,0,1-0.3c0.5-0.5,0.9-1.2,0.7-1.8
				C157.3,236.8,156.6,236.5,156,236.6z"/>
			<path fill="#70613F" d="M143.9,213.3c-0.6,0.1-1,0.7-1,1.3c0,0.6,0.8,1.6,0.8,1.6c0.3,0.3,0.7,0,1-0.3c0.5-0.5,0.9-1.2,0.7-1.8
				C145.1,213.5,144.4,213.1,143.9,213.3z"/>
			<path fill="#70613F" d="M136.2,220.4c0,0.6,0.8,1.6,0.8,1.6c0.3,0.3,0.7,0,1-0.3c0.5-0.5,0.9-1.2,0.7-1.8
				c-0.2-0.6-0.8-0.9-1.4-0.8C136.6,219.2,136.2,219.8,136.2,220.4z"/>
			<path fill="#70613F" d="M154,210.4c-0.6,0.1-1,0.7-1,1.3c0,0.6,0.8,1.6,0.8,1.6c0.3,0.3,0.7,0,1-0.3c0.5-0.5,0.9-1.2,0.7-1.8
				C155.3,210.7,154.6,210.3,154,210.4z"/>
			<path fill="#70613F" d="M118.8,201.5c0,0.6,0.8,1.6,0.8,1.6c0.3,0.3,0.7,0,1-0.3c0.5-0.5,0.9-1.2,0.7-1.8
				c-0.2-0.6-0.8-0.9-1.4-0.8C119.3,200.4,118.9,201,118.8,201.5z"/>
			<path fill="#70613F" d="M132.4,196.4c0.5-0.5,0.9-1.2,0.7-1.8c-0.2-0.6-0.8-0.9-1.4-0.8c-0.6,0.1-1,0.7-1,1.3
				c0,0.6,0.8,1.6,0.8,1.6C131.7,196.9,132.2,196.6,132.4,196.4z"/>
			<path fill="#70613F" d="M157.3,186.5c-0.2-0.6-0.8-0.9-1.4-0.8c-0.6,0.1-1,0.7-1,1.3c0,0.6,0.8,1.6,0.8,1.6c0.3,0.3,0.7,0,1-0.3
				C157.1,187.9,157.5,187.2,157.3,186.5z"/>
			<path fill="#70613F" d="M67.5,221.4c-0.6,0.1-1,0.7-1,1.3c0,0.6,0.8,1.6,0.8,1.6c0.3,0.3,0.7,0,1-0.3c0.5-0.5,0.9-1.2,0.7-1.8
				C68.8,221.7,68.1,221.3,67.5,221.4z"/>
			<path fill="#70613F" d="M74.2,202.8c-0.6,0.1-1,0.7-1,1.3c0,0.6,0.8,1.6,0.8,1.6c0.3,0.3,0.7,0,1-0.3c0.5-0.5,0.9-1.2,0.7-1.8
				C75.4,203,74.8,202.6,74.2,202.8z"/>
			<path fill="#70613F" d="M77.5,200.9c0,0.6,0.8,1.6,0.8,1.6c0.3,0.3,0.7,0,1-0.3c0.5-0.5,0.9-1.2,0.7-1.8
				c-0.2-0.6-0.8-0.9-1.4-0.8C78,199.7,77.5,200.3,77.5,200.9z"/>
			<path fill="#70613F" d="M107.7,187.7c0,0.6,0.8,1.6,0.8,1.6c0.3,0.3,0.7,0,1-0.3c0.5-0.5,0.9-1.2,0.7-1.8
				c-0.2-0.6-0.8-0.9-1.4-0.8S107.7,187.1,107.7,187.7z"/>
			<path fill="#70613F" d="M122.6,177.3c-0.1,0.1-0.1,0.3-0.1,0.4c0,0.6,0.8,1.6,0.8,1.6c0.3,0.3,0.7,0,1-0.3
				c0.5-0.5,0.9-1.2,0.7-1.8c-0.2-0.6-0.8-0.9-1.4-0.8c-0.3,0.1-0.6,0.3-0.7,0.5C122.8,177.1,122.7,177.2,122.6,177.3z"/>
			<path fill="#70613F" d="M85.9,182.4c-0.6,0.1-1,0.7-1,1.3c0,0.6,0.8,1.6,0.8,1.6c0.3,0.3,0.7,0,1-0.3c0.5-0.5,0.9-1.2,0.7-1.8
				C87.1,182.7,86.4,182.3,85.9,182.4z"/>
			<path fill="#70613F" d="M83,181.6c0.3,0.3,0.7,0,1-0.3c0.5-0.5,0.9-1.2,0.7-1.8c-0.2-0.6-0.8-0.9-1.4-0.8c-0.6,0.1-1,0.7-1,1.3
				C82.1,180.7,83,181.6,83,181.6z"/>
			<path fill="#70613F" d="M70.3,186.2c0,0.6,0.8,1.6,0.8,1.6c0.3,0.3,0.7,0,1-0.3c0.5-0.5,0.9-1.2,0.7-1.8
				c-0.2-0.6-0.8-0.9-1.4-0.8C70.8,185.1,70.4,185.6,70.3,186.2z"/>
			<path fill="#70613F" d="M87.9,176.3c-0.6,0.1-1,0.7-1,1.3c0,0.6,0.8,1.6,0.8,1.6c0.3,0.3,0.7,0,1-0.3c0.5-0.5,0.9-1.2,0.7-1.8
				C89.1,176.5,88.4,176.1,87.9,176.3z"/>
			<path fill="#70613F" d="M126.9,162.9c0.5-0.5,0.9-1.2,0.7-1.8c-0.2-0.6-0.8-0.9-1.4-0.8c-0.6,0.1-1,0.7-1,1.3
				c0,0.6,0.8,1.6,0.8,1.6C126.2,163.4,126.7,163.1,126.9,162.9z"/>
			<path fill="#70613F" d="M154.8,159.4c0.5-0.5,0.9-1.2,0.7-1.8c-0.2-0.6-0.8-0.9-1.4-0.8c-0.6,0.1-1,0.7-1,1.3
				c0,0.6,0.8,1.6,0.8,1.6C154.1,159.9,154.5,159.6,154.8,159.4z"/>
			<path fill="#70613F" d="M160.6,158.4c0.5-0.5,0.9-1.2,0.7-1.8c-0.2-0.6-0.8-0.9-1.4-0.8c-0.6,0.1-1,0.7-1,1.3
				c0,0.6,0.8,1.6,0.8,1.6C159.9,158.9,160.4,158.6,160.6,158.4z"/>
			<path fill="#70613F" d="M148.1,147.9c0.5-0.5,0.9-1.2,0.7-1.8c-0.2-0.6-0.8-0.9-1.4-0.8c-0.6,0.1-1,0.7-1,1.3
				c0,0.6,0.8,1.6,0.8,1.6C147.4,148.4,147.9,148.1,148.1,147.9z"/>
			<path fill="#70613F" d="M178.9,157c0.5-0.5,0.9-1.2,0.7-1.8c-0.2-0.6-0.8-0.9-1.4-0.8s-1,0.7-1,1.3c0,0.6,0.8,1.6,0.8,1.6
				C178.2,157.6,178.7,157.3,178.9,157z"/>
			<path fill="#70613F" d="M76.9,161.8c-0.6,0.1-1,0.7-1,1.3c0,0.6,0.8,1.6,0.8,1.6c0.3,0.3,0.7,0,1-0.3c0.5-0.5,0.9-1.2,0.7-1.8
				C78.1,162,77.4,161.6,76.9,161.8z"/>
			<path fill="#70613F" d="M88.1,157.9c0.5-0.5,0.9-1.2,0.7-1.8c-0.2-0.6-0.8-0.9-1.4-0.8c-0.6,0.1-1,0.7-1,1.3
				c0,0.6,0.8,1.6,0.8,1.6C87.4,158.4,87.9,158.1,88.1,157.9z"/>
			<path fill="#70613F" d="M85.4,153.5c0.5-0.5,0.9-1.2,0.7-1.8c-0.2-0.6-0.8-0.9-1.4-0.8s-1,0.7-1,1.3c0,0.6,0.8,1.6,0.8,1.6
				C84.7,154.1,85.2,153.8,85.4,153.5z"/>
			<path fill="#70613F" d="M70.4,153.9c0.5-0.5,0.9-1.2,0.7-1.8c-0.2-0.6-0.8-0.9-1.4-0.8c-0.6,0.1-1,0.7-1,1.3
				c0,0.6,0.8,1.6,0.8,1.6C69.7,154.4,70.2,154.1,70.4,153.9z"/>
			<path fill="#70613F" d="M66.9,154.5c0.5-0.5,0.9-1.2,0.7-1.8c-0.2-0.6-0.8-0.9-1.4-0.8s-1,0.7-1,1.3c0,0.6,0.8,1.6,0.8,1.6
				C66.2,155.1,66.7,154.8,66.9,154.5z"/>
			<path fill="#70613F" d="M62.9,172.9c0.5-0.5,0.9-1.2,0.7-1.8c-0.2-0.6-0.8-0.9-1.4-0.8c-0.6,0.1-1,0.7-1,1.3
				c0,0.6,0.8,1.6,0.8,1.6C62.2,173.4,62.7,173.1,62.9,172.9z"/>
			<path fill="#70613F" d="M146.4,234.4c-0.6,0.1-1,0.7-1,1.3c0,0.6,0.8,1.6,0.8,1.6c0.3,0.3,0.7,0,1-0.3c0.5-0.5,0.9-1.2,0.7-1.8
				C147.6,234.7,146.9,234.3,146.4,234.4z"/>
			<path fill="#70613F" d="M46.3,241.5c0.5-0.5,0.9-1.2,0.7-1.8c-0.2-0.6-0.8-0.9-1.4-0.8c-0.6,0.1-1,0.7-1,1.3
				c0,0.6,0.8,1.6,0.8,1.6C45.6,242.1,46,241.8,46.3,241.5z"/>
			<path fill="#53422C" d="M136.5,273.7c-0.6,0-1.1,0.5-1,1c0,0.6,1.1,1.5,1.1,1.5c0.3,0.3,0.8,0.1,1.1-0.1c0.5-0.4,0.9-1,0.5-1.6
				C137.9,274,137.1,273.7,136.5,273.7z"/>
			<path fill="#53422C" d="M136.6,292.2c-0.6,0-1.1,0.5-1,1c0,0.6,1.1,1.5,1.1,1.5c0.3,0.3,0.8,0.1,1.1-0.1c0.5-0.4,0.9-1,0.5-1.6
				C138,292.5,137.2,292.2,136.6,292.2z"/>
			<path fill="#53422C" d="M99.8,459.4c-0.6,0-1.1,0.5-1,1c0,0.6,1.1,1.5,1.1,1.5c0.3,0.3,0.8,0.1,1.1-0.1c0.5-0.4,0.9-1,0.5-1.6
				C101.2,459.7,100.5,459.3,99.8,459.4z"/>
			<path fill="#53422C" d="M89.5,450.2c-0.6,0-1.1,0.5-1,1c0,0.6,1.1,1.5,1.1,1.5c0.3,0.3,0.8,0.1,1.1-0.1c0.5-0.4,0.9-1,0.5-1.6
				C90.9,450.5,90.1,450.2,89.5,450.2z"/>
			<path fill="#53422C" d="M125.5,449.9c-0.6,0-1.1,0.5-1,1c0,0.6,1.1,1.5,1.1,1.5c0.3,0.3,0.8,0.1,1.1-0.1c0.5-0.4,0.9-1,0.5-1.6
				C126.9,450.2,126.1,449.8,125.5,449.9z"/>
			<path fill="#53422C" d="M117.2,444.4c0.3,0.3,0.8,0.1,1.1-0.1c0.5-0.4,0.9-1,0.5-1.6c-0.3-0.5-1.1-0.9-1.7-0.9
				c-0.6,0-1.1,0.5-1,1C116.2,443.5,117.2,444.4,117.2,444.4z"/>
			<path fill="#53422C" d="M71.8,459.7c-0.6,0-1.1,0.5-1,1c0,0.6,1.1,1.5,1.1,1.5c0.3,0.3,0.8,0.1,1.1-0.1c0.5-0.4,0.9-1,0.5-1.6
				C73.2,460,72.5,459.7,71.8,459.7z"/>
			<path fill="#53422C" d="M75.5,435.7c-0.6,0-1.1,0.5-1,1c0,0.6,1.1,1.5,1.1,1.5c0.3,0.3,0.8,0.1,1.1-0.1c0.5-0.4,0.9-1,0.5-1.6
				C76.9,436,76.1,435.7,75.5,435.7z"/>
			<path fill="#53422C" d="M67.5,438.8c0.5-0.4,0.9-1,0.5-1.6c-0.3-0.5-1.1-0.9-1.7-0.9c-0.6,0-1.1,0.5-1,1c0,0.6,1.1,1.5,1.1,1.5
				C66.7,439.2,67.2,439,67.5,438.8z"/>
			<path fill="#53422C" d="M46.7,426c-0.6,0-1.1,0.5-1,1c0,0.6,1.1,1.5,1.1,1.5c0.3,0.3,0.8,0.1,1.1-0.1c0.5-0.4,0.9-1,0.5-1.6
				C48.1,426.4,47.3,426,46.7,426z"/>
			<path fill="#53422C" d="M89.4,425.7c0.3,0,0.6-0.1,0.8-0.2c0.5-0.4,0.9-1,0.5-1.6c-0.3-0.5-1.1-0.9-1.7-0.9
				c-0.2,0-0.4,0.1-0.5,0.2c0,0-0.1,0-0.1,0c-0.6,0-1.1,0.5-1,1c0,0.6,1.1,1.5,1.1,1.5C88.7,426,89.1,425.9,89.4,425.7z"/>
			<path fill="#53422C" d="M103,425.1c-0.3-0.5-1.1-0.9-1.7-0.9c-0.6,0-1.1,0.5-1,1c0,0.6,1.1,1.5,1.1,1.5c0.3,0.3,0.8,0.1,1.1-0.1
				C102.9,426.2,103.3,425.7,103,425.1z"/>
			<path fill="#53422C" d="M141.8,426.7c-0.3-0.5-1.1-0.9-1.7-0.9c-0.6,0-1.1,0.5-1,1c0,0.6,1.1,1.5,1.1,1.5
				c0.3,0.3,0.8,0.1,1.1-0.1C141.8,427.9,142.2,427.3,141.8,426.7z"/>
			<path fill="#53422C" d="M146.5,429.9c0,0.6,1.1,1.5,1.1,1.5c0.3,0.3,0.8,0.1,1.1-0.1c0.5-0.4,0.9-1,0.5-1.6
				c-0.3-0.5-1.1-0.9-1.7-0.9C146.8,428.9,146.4,429.4,146.5,429.9z"/>
			<path fill="#53422C" d="M163.1,437.1c0.5-0.4,0.9-1,0.5-1.6c-0.3-0.5-1.1-0.9-1.7-0.9c-0.6,0-1.1,0.5-1,1c0,0.6,1.1,1.5,1.1,1.5
				C162.4,437.5,162.9,437.3,163.1,437.1z"/>
			<path fill="#53422C" d="M159.3,445.7c-0.6,0-1.1,0.5-1,1c0,0.6,1.1,1.5,1.1,1.5c0.3,0.3,0.8,0.1,1.1-0.1c0.5-0.4,0.9-1,0.5-1.6
				C160.7,446,160,445.7,159.3,445.7z"/>
			<path fill="#53422C" d="M170.2,447.1c0.3,0.3,0.8,0.1,1.1-0.1c0.5-0.4,0.9-1,0.5-1.6c-0.3-0.5-1.1-0.9-1.7-0.9
				c-0.6,0-1.1,0.5-1,1C169.2,446.1,170.2,447.1,170.2,447.1z"/>
			<path fill="#53422C" d="M177.8,462.2c-0.6,0-1.1,0.5-1,1c0,0.6,1.1,1.5,1.1,1.5c0.3,0.3,0.8,0.1,1.1-0.1c0.5-0.4,0.9-1,0.5-1.6
				C179.2,462.5,178.5,462.2,177.8,462.2z"/>
			<path fill="#53422C" d="M162.1,407.7c0.3,0.3,0.8,0.1,1.1-0.1c0.5-0.4,0.9-1,0.5-1.6c-0.3-0.5-1.1-0.9-1.7-0.9
				c-0.6,0-1.1,0.5-1,1C161,406.8,162.1,407.7,162.1,407.7z"/>
			<path fill="#53422C" d="M106.8,412.6c0,0.6,1.1,1.5,1.1,1.5c0.3,0.3,0.8,0.1,1.1-0.1c0.5-0.4,0.9-1,0.5-1.6
				c-0.3-0.5-1.1-0.9-1.7-0.9C107.2,411.6,106.8,412,106.8,412.6z"/>
			<path fill="#53422C" d="M101.9,416.7c0.3,0.3,0.8,0.1,1.1-0.1c0.5-0.4,0.9-1,0.5-1.6c-0.3-0.5-1.1-0.9-1.7-0.9
				c-0.6,0-1.1,0.5-1,1C100.8,415.8,101.9,416.7,101.9,416.7z"/>
			<path fill="#53422C" d="M85.2,401.7c-0.6,0-1.1,0.5-1,1c0,0.6,1.1,1.5,1.1,1.5c0.3,0.3,0.8,0.1,1.1-0.1c0.5-0.4,0.9-1,0.5-1.6
				C86.7,402,85.9,401.7,85.2,401.7z"/>
			<path fill="#53422C" d="M68.7,401.6c-0.6,0-1.1,0.5-1,1c0,0.6,1.1,1.5,1.1,1.5c0.3,0.3,0.8,0.1,1.1-0.1c0.5-0.4,0.9-1,0.5-1.6
				C70.2,401.9,69.4,401.5,68.7,401.6z"/>
			<path fill="#53422C" d="M122.8,393.1c-0.3-0.5-1.1-0.9-1.7-0.9c-0.6,0-1.1,0.5-1,1c0,0.6,1.1,1.5,1.1,1.5
				c0.3,0.3,0.8,0.1,1.1-0.1C122.7,394.2,123.1,393.7,122.8,393.1z"/>
			<path fill="#53422C" d="M122.2,387.1c-0.6,0-1.1,0.5-1,1c0,0.6,1.1,1.5,1.1,1.5c0.3,0.3,0.8,0.1,1.1-0.1c0.5-0.4,0.9-1,0.5-1.6
				C123.7,387.4,122.9,387,122.2,387.1z"/>
			<path fill="#53422C" d="M66.6,380.7c0,0.6,1.1,1.5,1.1,1.5c0.3,0.3,0.8,0.1,1.1-0.1c0.5-0.4,0.9-1,0.5-1.6
				c-0.3-0.5-1.1-0.9-1.7-0.9C67,379.8,66.5,380.2,66.6,380.7z"/>
			<path fill="#53422C" d="M63,374.3c-0.6,0-1.1,0.5-1,1c0,0.6,1.1,1.5,1.1,1.5c0.3,0.3,0.8,0.1,1.1-0.1c0.5-0.4,0.9-1,0.5-1.6
				C64.4,374.7,63.6,374.3,63,374.3z"/>
			<path fill="#53422C" d="M46.5,449.1c-0.6,0-1.1,0.5-1,1c0,0.6,1.1,1.5,1.1,1.5c0.3,0.3,0.8,0.1,1.1-0.1c0.5-0.4,0.9-1,0.5-1.6
				C47.9,449.4,47.1,449,46.5,449.1z"/>
			<path fill="#53422C" d="M144.5,373.5c-0.6,0-1.1,0.5-1,1c0,0.6,1.1,1.5,1.1,1.5c0.3,0.3,0.8,0.1,1.1-0.1c0.5-0.4,0.9-1,0.5-1.6
				C145.9,373.8,145.1,373.4,144.5,373.5z"/>
			<path fill="#53422C" d="M157.8,378.4c0-0.1-0.1-0.1-0.2-0.2c-0.3-0.4-1-0.7-1.5-0.7c-0.6,0-1.1,0.5-1,1c0,0.6,1.1,1.5,1.1,1.5
				c0.3,0.3,0.8,0.1,1.1-0.1c0.3-0.2,0.5-0.5,0.6-0.9C157.9,378.9,157.9,378.7,157.8,378.4z"/>
			<path fill="#53422C" d="M164.9,376.9c-0.3-0.5-1.1-0.9-1.7-0.9c-0.6,0-1.1,0.5-1,1c0,0.6,1.1,1.5,1.1,1.5
				c0.3,0.3,0.8,0.1,1.1-0.1C164.9,378.1,165.2,377.5,164.9,376.9z"/>
			<path fill="#53422C" d="M175.7,369.3c-0.6,0-1.1,0.5-1,1c0,0.6,1.1,1.5,1.1,1.5c0.3,0.3,0.8,0.1,1.1-0.1c0.5-0.4,0.9-1,0.5-1.6
				C177.2,369.7,176.4,369.3,175.7,369.3z"/>
			<path fill="#53422C" d="M131.7,361.6c0,0.6,1.1,1.5,1.1,1.5c0.3,0.3,0.8,0.1,1.1-0.1c0.5-0.4,0.9-1,0.5-1.6
				c-0.3-0.5-1.1-0.9-1.7-0.9C132.1,360.6,131.7,361.1,131.7,361.6z"/>
			<path fill="#53422C" d="M144.5,350c-0.6,0-1.1,0.5-1,1c0,0.6,1.1,1.5,1.1,1.5c0.3,0.3,0.8,0.1,1.1-0.1c0.5-0.4,0.9-1,0.5-1.6
				C145.9,350.3,145.1,349.9,144.5,350z"/>
			<path fill="#53422C" d="M160.6,348.8c-0.3-0.5-1.1-0.9-1.7-0.9c-0.6,0-1.1,0.5-1,1c0,0.6,1.1,1.5,1.1,1.5
				c0.3,0.3,0.8,0.1,1.1-0.1C160.5,350,160.9,349.4,160.6,348.8z"/>
			<path fill="#53422C" d="M170.2,344.3c0,0.6,1.1,1.5,1.1,1.5c0.3,0.3,0.8,0.1,1.1-0.1c0.5-0.4,0.9-1,0.5-1.6
				c-0.3-0.5-1.1-0.9-1.7-0.9C170.6,343.4,170.2,343.8,170.2,344.3z"/>
			<path fill="#53422C" d="M106.1,357.9c0.5-0.4,0.9-1,0.5-1.6c-0.3-0.5-1.1-0.9-1.7-0.9c-0.6,0-1.1,0.5-1,1c0,0.6,1.1,1.5,1.1,1.5
				c0.2,0.1,0.4,0.2,0.5,0.1c0.1,0,0.2-0.1,0.3-0.1C106,358,106.1,357.9,106.1,357.9z"/>
			<path fill="#53422C" d="M85.4,357.1c-0.6,0-1.1,0.5-1,1c0,0.6,1.1,1.5,1.1,1.5c0.3,0.3,0.8,0.1,1.1-0.1c0.5-0.4,0.9-1,0.5-1.6
				C86.8,357.4,86,357,85.4,357.1z"/>
			<path fill="#53422C" d="M113.7,352.8c0,0.6,1.1,1.5,1.1,1.5c0.3,0.3,0.8,0.1,1.1-0.1c0.5-0.4,0.9-1,0.5-1.6
				c-0.3-0.5-1.1-0.9-1.7-0.9C114.1,351.9,113.7,352.3,113.7,352.8z"/>
			<path fill="#53422C" d="M111.6,346.2c0,0.6,1.1,1.5,1.1,1.5c0.3,0.3,0.8,0.1,1.1-0.1c0.5-0.4,0.9-1,0.5-1.6
				c-0.3-0.5-1.1-0.9-1.7-0.9C112,345.3,111.5,345.7,111.6,346.2z"/>
			<path fill="#53422C" d="M82.3,344.1c0,0.6,1.1,1.5,1.1,1.5c0.3,0.3,0.8,0.1,1.1-0.1c0.5-0.4,0.9-1,0.5-1.6
				c-0.3-0.5-1.1-0.9-1.7-0.9C82.7,343.1,82.3,343.6,82.3,344.1z"/>
			<path fill="#53422C" d="M75.5,342.1c-0.6,0-1.1,0.5-1,1c0,0.6,1.1,1.5,1.1,1.5c0.3,0.3,0.8,0.1,1.1-0.1c0.5-0.4,0.9-1,0.5-1.6
				C76.9,342.4,76.1,342,75.5,342.1z"/>
			<path fill="#53422C" d="M155.8,320.6c0,0.6,1.1,1.5,1.1,1.5c0.3,0.3,0.8,0.1,1.1-0.1c0.5-0.4,0.9-1,0.5-1.6
				c-0.3-0.5-1.1-0.9-1.7-0.9C156.2,319.6,155.8,320.1,155.8,320.6z"/>
			<path fill="#53422C" d="M179.5,317.1c0,0.6,1.1,1.5,1.1,1.5c0.3,0.3,0.8,0.1,1.1-0.1c0.5-0.4,0.9-1,0.5-1.6
				c-0.3-0.5-1.1-0.9-1.7-0.9C179.8,316.1,179.4,316.6,179.5,317.1z"/>
			<path fill="#53422C" d="M154.4,302.9c0.3,0.3,0.8,0.1,1.1-0.1c0.5-0.4,0.9-1,0.5-1.6c-0.3-0.5-1.1-0.9-1.7-0.9
				c-0.6,0-1.1,0.5-1,1C153.4,301.9,154.4,302.9,154.4,302.9z"/>
			<path fill="#53422C" d="M156.2,293c0.3,0.3,0.8,0.1,1.1-0.1c0.5-0.4,0.9-1,0.5-1.6c-0.3-0.5-1.1-0.9-1.7-0.9c-0.6,0-1.1,0.5-1,1
				C155.1,292,156.2,293,156.2,293z"/>
			<path fill="#53422C" d="M117.6,296.6c0,0.6,1.1,1.5,1.1,1.5c0.3,0.3,0.8,0.1,1.1-0.1c0.5-0.4,0.9-1,0.5-1.6
				c-0.3-0.5-1.1-0.9-1.7-0.9C118,295.6,117.5,296.1,117.6,296.6z"/>
			<path fill="#53422C" d="M105.1,307.7c-0.6,0-1.1,0.5-1,1c0,0.6,1.1,1.5,1.1,1.5c0.3,0.3,0.8,0.1,1.1-0.1c0.5-0.4,0.9-1,0.5-1.6
				C106.5,308,105.7,307.7,105.1,307.7z"/>
			<path fill="#53422C" d="M101.7,319.3c-0.6,0-1.1,0.5-1,1c0,0.6,1.1,1.5,1.1,1.5c0.3,0.3,0.8,0.1,1.1-0.1c0.5-0.4,0.9-1,0.5-1.6
				C103.2,319.7,102.4,319.3,101.7,319.3z"/>
			<path fill="#53422C" d="M114.8,288.5c0.3,0.3,0.8,0.1,1.1-0.1c0.5-0.4,0.9-1,0.5-1.6c-0.3-0.5-1.1-0.9-1.7-0.9
				c-0.6,0-1.1,0.5-1,1C113.7,287.5,114.8,288.5,114.8,288.5z"/>
			<path fill="#53422C" d="M110.5,276.7c-0.6,0-1.1,0.5-1,1c0,0.6,1.1,1.5,1.1,1.5c0.3,0.3,0.8,0.1,1.1-0.1c0.5-0.4,0.9-1,0.5-1.6
				C111.9,277,111.1,276.7,110.5,276.7z"/>
			<path fill="#53422C" d="M93.7,315.5c-0.6,0-1.1,0.5-1,1c0,0.6,1.1,1.5,1.1,1.5c0.3,0.3,0.8,0.1,1.1-0.1c0.5-0.4,0.9-1,0.5-1.6
				C95.2,315.8,94.4,315.4,93.7,315.5z"/>
			<path fill="#53422C" d="M83.8,313.1c0.3,0.3,0.8,0.1,1.1-0.1c0.5-0.4,0.9-1,0.5-1.6c-0.3-0.5-1.1-0.9-1.7-0.9c-0.6,0-1.1,0.5-1,1
				C82.7,312.2,83.8,313.1,83.8,313.1z"/>
			<path fill="#53422C" d="M78.7,323.9c0.3,0.3,0.8,0.1,1.1-0.1c0.5-0.4,0.9-1,0.5-1.6c-0.3-0.5-1.1-0.9-1.7-0.9c-0.6,0-1.1,0.5-1,1
				C77.6,322.9,78.7,323.9,78.7,323.9z"/>
			<path fill="#53422C" d="M55.3,321.4c0.3,0.3,0.8,0.1,1.1-0.1c0.5-0.4,0.9-1,0.5-1.6c-0.3-0.5-1.1-0.9-1.7-0.9c-0.6,0-1.1,0.5-1,1
				C54.2,320.4,55.3,321.4,55.3,321.4z"/>
			<path fill="#53422C" d="M67.6,286.6c0,0.6,1.1,1.5,1.1,1.5c0.3,0.3,0.8,0.1,1.1-0.1c0.5-0.4,0.9-1,0.5-1.6
				c-0.3-0.5-1.1-0.9-1.7-0.9C68,285.6,67.5,286.1,67.6,286.6z"/>
			<path fill="#53422C" d="M48.7,287.7c-0.6,0-1.1,0.5-1,1c0,0.6,1.1,1.5,1.1,1.5c0.3,0.3,0.8,0.1,1.1-0.1c0.5-0.4,0.9-1,0.5-1.6
				C50.2,288,49.4,287.7,48.7,287.7z"/>
			<path fill="#53422C" d="M51.3,281.1c0.3,0.3,0.8,0.1,1.1-0.1c0.5-0.4,0.9-1,0.5-1.6c-0.3-0.5-1.1-0.9-1.7-0.9c-0.6,0-1.1,0.5-1,1
				C50.2,280.2,51.3,281.1,51.3,281.1z"/>
			<path fill="#53422C" d="M82.8,274.8c0,0.6,1.1,1.5,1.1,1.5c0.3,0.3,0.8,0.1,1.1-0.1c0.5-0.4,0.9-1,0.5-1.6
				c-0.3-0.5-1.1-0.9-1.7-0.9C83.2,273.9,82.8,274.3,82.8,274.8z"/>
			<path fill="#53422C" d="M179.7,278.2c0.3,0.3,0.8,0.1,1.1-0.1c0.5-0.4,0.9-1,0.5-1.6c-0.3-0.5-1.1-0.9-1.7-0.9
				c-0.6,0-1.1,0.5-1,1C178.6,277.3,179.7,278.2,179.7,278.2z"/>
			<path fill="#53422C" d="M124.9,263.3c-0.6,0-1.1,0.5-1,1c0,0.6,1.1,1.5,1.1,1.5c0.3,0.3,0.8,0.1,1.1-0.1c0.5-0.4,0.9-1,0.5-1.6
				C126.3,263.7,125.5,263.3,124.9,263.3z"/>
			<path fill="#53422C" d="M128.1,254c-0.6,0-1.1,0.5-1,1c0,0.6,1.1,1.5,1.1,1.5c0.3,0.3,0.8,0.1,1.1-0.1c0.5-0.4,0.9-1,0.5-1.6
				C129.5,254.3,128.7,253.9,128.1,254z"/>
			<path fill="#53422C" d="M144.1,267.7c0.3,0.3,0.8,0.1,1.1-0.1c0.5-0.4,0.9-1,0.5-1.6c-0.3-0.5-1.1-0.9-1.7-0.9
				c-0.6,0-1.1,0.5-1,1C143,266.8,144.1,267.7,144.1,267.7z"/>
			<path fill="#53422C" d="M155.5,251.5c-0.6,0-1.1,0.5-1,1c0,0.6,1.1,1.5,1.1,1.5c0.3,0.3,0.8,0.1,1.1-0.1c0.5-0.4,0.9-1,0.5-1.6
				C156.9,251.8,156.1,251.4,155.5,251.5z"/>
			<path fill="#53422C" d="M159.7,242.7c0,0.6,1.1,1.5,1.1,1.5c0.3,0.3,0.8,0.1,1.1-0.1c0.5-0.4,0.9-1,0.5-1.6
				c-0.3-0.5-1.1-0.9-1.7-0.9C160.1,241.8,159.7,242.2,159.7,242.7z"/>
			<path fill="#53422C" d="M177.3,242.7c0,0.6,1.1,1.5,1.1,1.5c0.3,0.3,0.8,0.1,1.1-0.1c0.5-0.4,0.9-1,0.5-1.6
				c-0.3-0.5-1.1-0.9-1.7-0.9C177.7,241.8,177.3,242.2,177.3,242.7z"/>
			<path fill="#53422C" d="M173.9,232c-0.6,0-1.1,0.5-1,1c0,0.6,1.1,1.5,1.1,1.5c0.3,0.3,0.8,0.1,1.1-0.1c0.5-0.4,0.9-1,0.5-1.6
				C175.3,232.3,174.5,231.9,173.9,232z"/>
			<path fill="#53422C" d="M91.4,266c-0.6,0-1.1,0.5-1,1c0,0.6,1.1,1.5,1.1,1.5c0.3,0.3,0.8,0.1,1.1-0.1c0.5-0.4,0.9-1,0.5-1.6
				C92.8,266.3,92,265.9,91.4,266z"/>
			<path fill="#53422C" d="M74.8,258.8c0,0.6,1.1,1.5,1.1,1.5c0.3,0.3,0.8,0.1,1.1-0.1c0.5-0.4,0.9-1,0.5-1.6
				c-0.3-0.5-1.1-0.9-1.7-0.9C75.2,257.9,74.8,258.3,74.8,258.8z"/>
			<path fill="#53422C" d="M51.4,258c0.3,0.3,0.8,0.1,1.1-0.1c0.5-0.4,0.9-1,0.5-1.6c-0.3-0.5-1.1-0.9-1.7-0.9c-0.6,0-1.1,0.5-1,1
				C50.4,257,51.4,258,51.4,258z"/>
			<path fill="#53422C" d="M70.9,247.2c0.3,0.3,0.8,0.1,1.1-0.1c0.5-0.4,0.9-1,0.5-1.6c-0.3-0.5-1.1-0.9-1.7-0.9c-0.6,0-1.1,0.5-1,1
				C69.9,246.3,70.9,247.2,70.9,247.2z"/>
			<path fill="#53422C" d="M48.6,237.7c0.3,0.3,0.8,0.1,1.1-0.1c0.5-0.4,0.9-1,0.5-1.6c-0.3-0.5-1.1-0.9-1.7-0.9c-0.6,0-1.1,0.5-1,1
				C47.5,236.8,48.6,237.7,48.6,237.7z"/>
			<path fill="#53422C" d="M60.3,226.9c0.3,0.3,0.8,0.1,1.1-0.1c0.5-0.4,0.9-1,0.5-1.6c-0.3-0.5-1.1-0.9-1.7-0.9c-0.6,0-1.1,0.5-1,1
				C59.2,225.9,60.3,226.9,60.3,226.9z"/>
			<path fill="#53422C" d="M120.1,226.1c0,0.6,1.1,1.5,1.1,1.5c0.3,0.3,0.8,0.1,1.1-0.1c0.5-0.4,0.9-1,0.5-1.6
				c-0.3-0.5-1.1-0.9-1.7-0.9C120.5,225.1,120,225.6,120.1,226.1z"/>
			<path fill="#53422C" d="M99.3,218.5c0.3,0.3,0.8,0.1,1.1-0.1c0.5-0.4,0.9-1,0.5-1.6c-0.3-0.5-1.1-0.9-1.7-0.9c-0.6,0-1.1,0.5-1,1
				C98.2,217.5,99.3,218.5,99.3,218.5z"/>
			<path fill="#53422C" d="M100.7,209.4c0.3,0.3,0.8,0.1,1.1-0.1c0.5-0.4,0.9-1,0.5-1.6c-0.3-0.5-1.1-0.9-1.7-0.9
				c-0.6,0-1.1,0.5-1,1C99.6,208.4,100.7,209.4,100.7,209.4z"/>
			<path fill="#53422C" d="M123,214.2c-0.6,0-1.1,0.5-1,1c0,0.6,1.1,1.5,1.1,1.5c0.3,0.3,0.8,0.1,1.1-0.1c0.5-0.4,0.9-1,0.5-1.6
				C124.4,214.5,123.6,214.2,123,214.2z"/>
			<path fill="#53422C" d="M141.3,241.6c0.3,0.3,0.8,0.1,1.1-0.1c0.5-0.4,0.9-1,0.5-1.6c-0.3-0.5-1.1-0.9-1.7-0.9
				c-0.6,0-1.1,0.5-1,1C140.2,240.7,141.3,241.6,141.3,241.6z"/>
			<path fill="#53422C" d="M157.7,225.5c-0.6,0-1.1,0.5-1,1c0,0.6,1.1,1.5,1.1,1.5c0.3,0.3,0.8,0.1,1.1-0.1c0.5-0.4,0.9-1,0.5-1.6
				C159.2,225.8,158.4,225.4,157.7,225.5z"/>
			<path fill="#53422C" d="M174.7,217.5c-0.6,0-1.1,0.5-1,1c0,0.6,1.1,1.5,1.1,1.5c0.3,0.3,0.8,0.1,1.1-0.1c0.5-0.4,0.9-1,0.5-1.6
				C176.2,217.8,175.4,217.4,174.7,217.5z"/>
			<path fill="#53422C" d="M99.1,236.7c0,0.6,1.1,1.5,1.1,1.5c0.3,0.3,0.8,0.1,1.1-0.1c0.5-0.4,0.9-1,0.5-1.6
				c-0.3-0.5-1.1-0.9-1.7-0.9C99.5,235.8,99,236.2,99.1,236.7z"/>
			<path fill="#53422C" d="M162.2,199.7c0.3,0.3,0.8,0.1,1.1-0.1c0.5-0.4,0.9-1,0.5-1.6c-0.3-0.5-1.1-0.9-1.7-0.9
				c-0.6,0-1.1,0.5-1,1C161.1,198.8,162.2,199.7,162.2,199.7z"/>
			<path fill="#53422C" d="M156.1,213.1c0,0.6,1.1,1.5,1.1,1.5c0.3,0.3,0.8,0.1,1.1-0.1c0.5-0.4,0.9-1,0.5-1.6
				c-0.3-0.5-1.1-0.9-1.7-0.9C156.5,212.1,156,212.6,156.1,213.1z"/>
			<path fill="#53422C" d="M169.4,195.9c0.3,0.3,0.8,0.1,1.1-0.1c0.5-0.4,0.9-1,0.5-1.6c-0.3-0.5-1.1-0.9-1.7-0.9
				c-0.6,0-1.1,0.5-1,1C168.4,194.9,169.4,195.9,169.4,195.9z"/>
			<path fill="#53422C" d="M146,194.7c0.2,0.6,1.1,1.4,1.1,1.4c0.3,0.3,0.8,0.1,1.1-0.1c0.5-0.4,0.9-1,0.5-1.6
				c-0.3-0.5-1.1-0.9-1.7-0.9c-0.3,0-0.5,0.1-0.7,0.3C146.4,194.1,146.3,194.5,146,194.7z"/>
			<path fill="#53422C" d="M62.2,208.9c0.3,0.3,0.8,0.1,1.1-0.1c0.5-0.4,0.9-1,0.5-1.6c-0.3-0.5-1.1-0.9-1.7-0.9c-0.6,0-1.1,0.5-1,1
				C61.1,207.9,62.2,208.9,62.2,208.9z"/>
			<path fill="#53422C" d="M77.1,195.1c-0.6,0-1.1,0.5-1,1c0,0.6,1.1,1.5,1.1,1.5c0.3,0.3,0.8,0.1,1.1-0.1c0.5-0.4,0.9-1,0.5-1.6
				C78.5,195.4,77.7,195,77.1,195.1z"/>
			<path fill="#53422C" d="M72.2,195.6c0,0.6,1.1,1.5,1.1,1.5c0.3,0.3,0.8,0.1,1.1-0.1c0.5-0.4,0.9-1,0.5-1.6
				c-0.3-0.5-1.1-0.9-1.7-0.9C72.6,194.6,72.2,195.1,72.2,195.6z"/>
			<path fill="#53422C" d="M139.4,183.5c-0.6,0-1.1,0.5-1,1c0,0.6,1.1,1.5,1.1,1.5c0.3,0.3,0.8,0.1,1.1-0.1c0.5-0.4,0.9-1,0.5-1.6
				C140.8,183.8,140,183.4,139.4,183.5z"/>
			<path fill="#53422C" d="M171.6,186.6c0.3,0.3,0.8,0.1,1.1-0.1c0.5-0.4,0.9-1,0.5-1.6c-0.3-0.5-1.1-0.9-1.7-0.9
				c-0.6,0-1.1,0.5-1,1C170.5,185.7,171.6,186.6,171.6,186.6z"/>
			<path fill="#53422C" d="M171.3,171.7c0,0-0.1,0-0.2,0.1c-0.1,0.1-0.1,0.3-0.1,0.5c0,0.6,1.1,1.5,1.1,1.5c0.3,0.3,0.8,0.1,1.1-0.1
				c0.5-0.4,0.9-1,0.5-1.6c-0.3-0.5-1.1-0.9-1.7-0.9c-0.1,0-0.2,0-0.3,0.1C171.6,171.5,171.5,171.6,171.3,171.7z"/>
			<path fill="#53422C" d="M113.4,173.5c0.3,0.3,0.8,0.1,1.1-0.1c0.5-0.4,0.9-1,0.5-1.6c-0.3-0.5-1.1-0.9-1.7-0.9
				c-0.6,0-1.1,0.5-1,1C112.4,172.5,113.4,173.5,113.4,173.5z"/>
			<path fill="#53422C" d="M107.1,164.2c0.3,0.3,0.8,0.1,1.1-0.1c0.5-0.4,0.9-1,0.5-1.6c-0.3-0.5-1.1-0.9-1.7-0.9
				c-0.6,0-1.1,0.5-1,1C106,163.3,107.1,164.2,107.1,164.2z"/>
			<path fill="#53422C" d="M135.4,157.9c0.3,0.3,0.8,0.1,1.1-0.1c0.5-0.4,0.9-1,0.5-1.6c-0.3-0.5-1.1-0.9-1.7-0.9
				c-0.6,0-1.1,0.5-1,1C134.4,156.9,135.4,157.9,135.4,157.9z"/>
			<path fill="#53422C" d="M163.3,154.4c0.3,0.3,0.8,0.1,1.1-0.1c0.5-0.4,0.9-1,0.5-1.6c-0.3-0.5-1.1-0.9-1.7-0.9
				c-0.6,0-1.1,0.5-1,1C162.2,153.4,163.3,154.4,163.3,154.4z"/>
			<path fill="#53422C" d="M156.6,142.5c0.3,0.3,0.8,0.1,1.1-0.1c0.5-0.4,0.9-1,0.5-1.6c-0.3-0.5-1.1-0.9-1.7-0.9
				c-0.6,0-1.1,0.5-1,1C155.5,141.5,156.6,142.5,156.6,142.5z"/>
			<path fill="#53422C" d="M174.7,144.5c0.3,0.3,0.8,0.1,1.1-0.1c0.5-0.4,0.9-1,0.5-1.6c-0.3-0.5-1.1-0.9-1.7-0.9
				c-0.6,0-1.1,0.5-1,1C173.6,143.5,174.7,144.5,174.7,144.5z"/>
			<path fill="#53422C" d="M92.6,152c0.3,0.3,0.8,0.1,1.1-0.1c0.5-0.4,0.9-1,0.5-1.6c-0.3-0.5-1.1-0.9-1.7-0.9c-0.6,0-1.1,0.5-1,1
				C91.5,151,92.6,152,92.6,152z"/>
			<path fill="#53422C" d="M94.1,141.9c0.3,0.3,0.8,0.1,1.1-0.1c0.5-0.4,0.9-1,0.5-1.6c-0.3-0.5-1.1-0.9-1.7-0.9c-0.6,0-1.1,0.5-1,1
				C93,140.9,94.1,141.9,94.1,141.9z"/>
			<path fill="#53422C" d="M85.2,167.2c0,0.6,1.1,1.5,1.1,1.5c0.3,0.3,0.8,0.1,1.1-0.1c0.5-0.4,0.9-1,0.5-1.6
				c-0.3-0.5-1.1-0.9-1.7-0.9C85.6,166.3,85.2,166.7,85.2,167.2z"/>
			<path fill="#53422C" d="M80.6,172.5c0.3,0.3,0.8,0.1,1.1-0.1c0.5-0.4,0.9-1,0.5-1.6c-0.3-0.5-1.1-0.9-1.7-0.9c-0.6,0-1.1,0.5-1,1
				C79.5,171.5,80.6,172.5,80.6,172.5z"/>
			<path fill="#53422C" d="M90.3,183.2c0.3,0.3,0.8,0.1,1.1-0.1c0.5-0.4,0.9-1,0.5-1.6c-0.3-0.5-1.1-0.9-1.7-0.9c-0.6,0-1.1,0.5-1,1
				C89.2,182.3,90.3,183.2,90.3,183.2z"/>
			<path fill="#53422C" d="M76.8,180.2c0.3,0.3,0.8,0.1,1.1-0.1c0.5-0.4,0.9-1,0.5-1.6c-0.3-0.5-1.1-0.9-1.7-0.9c-0.6,0-1.1,0.5-1,1
				C75.7,179.3,76.8,180.2,76.8,180.2z"/>
			<path fill="#4E473A" d="M101.8,157.7c0.5,0.2,1.9-0.3,1.9-0.3c0.4-0.2,0.5-0.7,0.4-1c-0.1-0.6-0.4-1.2-1.1-1.2
				c-0.6,0-1.3,0.5-1.6,1.1C101.1,156.9,101.3,157.5,101.8,157.7z"/>
			<path fill="#4E473A" d="M114.5,166.1c0.5,0.2,1.9-0.3,1.9-0.3c0.4-0.2,0.5-0.7,0.4-1c-0.1-0.6-0.4-1.2-1.1-1.2
				c-0.6,0-1.3,0.5-1.6,1.1C113.9,165.3,114.1,165.8,114.5,166.1z"/>
			<path fill="#4E473A" d="M76.3,143.3c0.5,0.2,1.9-0.3,1.9-0.3c0.4-0.2,0.5-0.7,0.4-1c-0.1-0.6-0.4-1.2-1.1-1.2
				c-0.6,0-1.3,0.5-1.6,1.1C75.6,142.5,75.8,143.1,76.3,143.3z"/>
			<path fill="#4E473A" d="M64.9,161.8c0.5,0.2,1.9-0.3,1.9-0.3c0.4-0.2,0.5-0.7,0.4-1c-0.1-0.6-0.4-1.2-1.1-1.2
				c-0.6,0-1.3,0.5-1.6,1.1C64.3,161,64.4,161.6,64.9,161.8z"/>
			<path fill="#4E473A" d="M94.7,175.6c-0.6,0-1.3,0.5-1.6,1.1c-0.3,0.6-0.1,1.2,0.4,1.4c0.5,0.2,1.9-0.3,1.9-0.3
				c0.4-0.2,0.5-0.7,0.4-1C95.7,176.2,95.4,175.6,94.7,175.6z"/>
			<path fill="#4E473A" d="M65.6,188.9c-0.3,0.6-0.1,1.2,0.4,1.4c0.5,0.2,1.9-0.3,1.9-0.3c0.4-0.2,0.5-0.7,0.4-1
				c-0.1-0.6-0.4-1.2-1.1-1.2C66.6,187.8,65.9,188.3,65.6,188.9z"/>
			<path fill="#4E473A" d="M89.5,205.5c-0.6,0-1.3,0.5-1.6,1.1c-0.3,0.6-0.1,1.2,0.4,1.4c0.5,0.2,1.9-0.3,1.9-0.3
				c0.4-0.2,0.5-0.7,0.4-1C90.5,206.1,90.1,205.5,89.5,205.5z"/>
			<path fill="#4E473A" d="M102.8,210.3c-0.3,0.6-0.1,1.2,0.4,1.4c0.5,0.2,1.9-0.3,1.9-0.3c0.4-0.2,0.5-0.7,0.4-1
				c-0.1-0.6-0.4-1.2-1.1-1.2C103.7,209.2,103,209.7,102.8,210.3z"/>
			<path fill="#4E473A" d="M120.5,177.7c0.5,0.2,1.9-0.3,1.9-0.3c0.1,0,0.1-0.1,0.2-0.1c0.1-0.1,0.2-0.2,0.2-0.3
				c0-0.2,0.1-0.4,0-0.5c-0.1-0.6-0.4-1.2-1.1-1.2c-0.6,0-1.3,0.5-1.6,1.1C119.9,176.9,120.1,177.5,120.5,177.7z"/>
			<path fill="#4E473A" d="M117.2,194.8c0.5,0.2,1.9-0.3,1.9-0.3c0.4-0.2,0.5-0.7,0.4-1c-0.1-0.6-0.4-1.2-1.1-1.2
				c-0.6,0-1.3,0.5-1.6,1.1C116.5,194,116.7,194.6,117.2,194.8z"/>
			<path fill="#4E473A" d="M116.2,202.6c-0.6,0-1.3,0.5-1.6,1.1c-0.3,0.6-0.1,1.2,0.4,1.4c0.5,0.2,1.9-0.3,1.9-0.3
				c0.4-0.2,0.5-0.7,0.4-1C117.2,203.2,116.9,202.6,116.2,202.6z"/>
			<path fill="#4E473A" d="M120.5,208c-0.6,0-1.3,0.5-1.6,1.1c-0.3,0.6-0.1,1.2,0.4,1.4c0.5,0.2,1.9-0.3,1.9-0.3
				c0.4-0.2,0.5-0.7,0.4-1C121.5,208.6,121.1,208,120.5,208z"/>
			<path fill="#4E473A" d="M126.9,196.4c-0.3,0.6-0.1,1.2,0.4,1.4c0.5,0.2,1.9-0.3,1.9-0.3c0.4-0.2,0.5-0.7,0.4-1
				c-0.1-0.6-0.4-1.2-1.1-1.2C127.9,195.3,127.1,195.8,126.9,196.4z"/>
			<path fill="#4E473A" d="M142.1,195.6c-0.6,0-1.3,0.5-1.6,1.1c-0.3,0.6-0.1,1.2,0.4,1.4c0.5,0.2,1.9-0.3,1.9-0.3
				c0.4-0.2,0.5-0.7,0.4-1C143.1,196.2,142.8,195.6,142.1,195.6z"/>
			<path fill="#4E473A" d="M143.6,193.7c-0.3,0.6-0.1,1.2,0.4,1.4c0.5,0.2,1.9-0.3,1.9-0.3c0,0,0.1,0,0.1-0.1
				c0.3-0.2,0.4-0.6,0.3-0.9c0,0,0,0,0,0c-0.1-0.6-0.4-1.2-1.1-1.2C144.6,192.6,143.9,193.1,143.6,193.7z"/>
			<path fill="#4E473A" d="M138.5,176.1c0.5,0.2,1.9-0.3,1.9-0.3c0.4-0.2,0.5-0.7,0.4-1c-0.1-0.6-0.4-1.2-1.1-1.2
				c-0.6,0-1.3,0.5-1.6,1.1C137.9,175.3,138.1,175.8,138.5,176.1z"/>
			<path fill="#4E473A" d="M142.4,167.9c0.5,0.2,1.9-0.3,1.9-0.3c0.4-0.2,0.5-0.7,0.4-1c-0.1-0.6-0.4-1.2-1.1-1.2
				c-0.6,0-1.3,0.5-1.6,1.1C141.8,167.1,141.9,167.7,142.4,167.9z"/>
			<path fill="#4E473A" d="M152.7,184.8c0.5,0.2,1.9-0.3,1.9-0.3c0.4-0.2,0.5-0.7,0.4-1c-0.1-0.6-0.4-1.2-1.1-1.2
				c-0.6,0-1.3,0.5-1.6,1.1C152,184,152.2,184.6,152.7,184.8z"/>
			<path fill="#4E473A" d="M172.2,176.8c-0.1-0.6-0.4-1.2-1.1-1.2c-0.6,0-1.3,0.5-1.6,1.1c-0.3,0.6-0.1,1.2,0.4,1.4
				c0.5,0.2,1.9-0.3,1.9-0.3C172.2,177.6,172.3,177.1,172.2,176.8z"/>
			<path fill="#4E473A" d="M169.4,171.9c0.4,0.2,1.3-0.1,1.7-0.2c0.1,0,0.2-0.1,0.2-0.1c0.2-0.1,0.3-0.2,0.4-0.4
				c0.1-0.2,0.1-0.4,0.1-0.6c-0.1-0.6-0.4-1.2-1.1-1.2c-0.6,0-1.3,0.5-1.6,1.1C168.8,171.1,168.9,171.7,169.4,171.9z"/>
			<path fill="#4E473A" d="M106.2,215.7c0.5,0.2,1.9-0.3,1.9-0.3c0.4-0.2,0.5-0.7,0.4-1c-0.1-0.6-0.4-1.2-1.1-1.2
				c-0.6,0-1.3,0.5-1.6,1.1C105.5,214.9,105.7,215.5,106.2,215.7z"/>
			<path fill="#4E473A" d="M163.4,212.3c-0.3,0.6-0.1,1.2,0.4,1.4c0.5,0.2,1.9-0.3,1.9-0.3c0.4-0.2,0.5-0.7,0.4-1
				c-0.1-0.6-0.4-1.2-1.1-1.2C164.4,211.2,163.6,211.7,163.4,212.3z"/>
			<path fill="#4E473A" d="M101.6,229.7c-0.6,0-1.3,0.5-1.6,1.1c-0.3,0.6-0.1,1.2,0.4,1.4c0.5,0.2,1.9-0.3,1.9-0.3
				c0.4-0.2,0.5-0.7,0.4-1C102.6,230.3,102.3,229.7,101.6,229.7z"/>
			<path fill="#4E473A" d="M117.6,234.7c-0.6,0-1.3,0.5-1.6,1.1c-0.3,0.6-0.1,1.2,0.4,1.4c0.5,0.2,1.9-0.3,1.9-0.3
				c0.4-0.2,0.5-0.7,0.4-1C118.6,235.3,118.3,234.7,117.6,234.7z"/>
			<path fill="#4E473A" d="M105.3,233c-0.6,0-1.3,0.5-1.6,1.1c-0.3,0.6-0.1,1.2,0.4,1.4c0.5,0.2,1.9-0.3,1.9-0.3
				c0.4-0.2,0.5-0.7,0.4-1C106.3,233.6,106,233,105.3,233z"/>
			<path fill="#4E473A" d="M79.1,232.3c-0.1-0.6-0.4-1.2-1.1-1.2c-0.6,0-1.3,0.5-1.6,1.1c-0.3,0.6-0.1,1.2,0.4,1.4
				c0.5,0.2,1.9-0.3,1.9-0.3C79.1,233.1,79.1,232.6,79.1,232.3z"/>
			<path fill="#4E473A" d="M57.5,256.8c0.5,0.2,1.9-0.3,1.9-0.3c0.4-0.2,0.5-0.7,0.4-1c-0.1-0.6-0.4-1.2-1.1-1.2
				c-0.6,0-1.3,0.5-1.6,1.1C56.9,256,57.1,256.6,57.5,256.8z"/>
			<path fill="#4E473A" d="M113.8,256.2c-0.3,0.6-0.1,1.2,0.4,1.4c0.5,0.2,1.9-0.3,1.9-0.3c0.4-0.2,0.5-0.7,0.4-1
				c-0.1-0.6-0.4-1.2-1.1-1.2C114.7,255.1,114,255.6,113.8,256.2z"/>
			<path fill="#4E473A" d="M139.4,248.2c-0.3,0.6-0.1,1.2,0.4,1.4c0.5,0.2,1.9-0.3,1.9-0.3c0.4-0.2,0.5-0.7,0.4-1
				c-0.1-0.6-0.4-1.2-1.1-1.2C140.4,247.1,139.6,247.6,139.4,248.2z"/>
			<path fill="#4E473A" d="M140.8,261.6c0.5,0.2,1.9-0.3,1.9-0.3c0.4-0.2,0.5-0.7,0.4-1c-0.1-0.6-0.4-1.2-1.1-1.2
				c-0.6,0-1.3,0.5-1.6,1.1C140.1,260.8,140.3,261.3,140.8,261.6z"/>
			<path fill="#4E473A" d="M144,258.5c-0.3,0.6-0.1,1.2,0.4,1.4c0.5,0.2,1.9-0.3,1.9-0.3c0.4-0.2,0.5-0.7,0.4-1
				c-0.1-0.6-0.4-1.2-1.1-1.2C145,257.5,144.3,258,144,258.5z"/>
			<path fill="#4E473A" d="M163.3,239.2c-0.6,0-1.3,0.5-1.6,1.1c-0.3,0.6-0.1,1.2,0.4,1.4c0.5,0.2,1.9-0.3,1.9-0.3
				c0.4-0.2,0.5-0.7,0.4-1C164.3,239.8,164,239.2,163.3,239.2z"/>
			<path fill="#4E473A" d="M167.3,240.8c0.5,0.2,1.9-0.3,1.9-0.3c0.4-0.2,0.5-0.7,0.4-1c-0.1-0.6-0.4-1.2-1.1-1.2
				c-0.6,0-1.3,0.5-1.6,1.1C166.6,240,166.8,240.6,167.3,240.8z"/>
			<path fill="#4E473A" d="M178.8,260c-0.3,0.6-0.1,1.2,0.4,1.4c0.5,0.2,1.9-0.3,1.9-0.3c0.4-0.2,0.5-0.7,0.4-1
				c-0.1-0.6-0.4-1.2-1.1-1.2C179.7,259,179,259.5,178.8,260z"/>
			<path fill="#4E473A" d="M155.6,275.7c-0.3,0.6-0.1,1.2,0.4,1.4c0.5,0.2,1.9-0.3,1.9-0.3c0.4-0.2,0.5-0.7,0.4-1
				c-0.1-0.6-0.4-1.2-1.1-1.2C156.6,274.6,155.9,275.1,155.6,275.7z"/>
			<path fill="#4E473A" d="M159.9,282.7c0.5,0.2,1.9-0.3,1.9-0.3c0.4-0.2,0.5-0.7,0.4-1c-0.1-0.6-0.4-1.2-1.1-1.2
				c-0.6,0-1.3,0.5-1.6,1.1C159.3,281.9,159.4,282.5,159.9,282.7z"/>
			<path fill="#4E473A" d="M150.9,304.2c0.5,0.2,1.9-0.3,1.9-0.3c0.4-0.2,0.5-0.7,0.4-1c-0.1-0.6-0.4-1.2-1.1-1.2
				c-0.6,0-1.3,0.5-1.6,1.1C150.3,303.4,150.4,304,150.9,304.2z"/>
			<path fill="#4E473A" d="M161.3,309.8c-0.1-0.6-0.4-1.2-1.1-1.2c-0.6,0-1.3,0.5-1.6,1.1c-0.3,0.6-0.1,1.2,0.4,1.4
				c0.5,0.2,1.9-0.3,1.9-0.3C161.3,310.6,161.4,310.1,161.3,309.8z"/>
			<path fill="#4E473A" d="M141.4,331.3c0.5,0.2,1.9-0.3,1.9-0.3c0.4-0.2,0.5-0.7,0.4-1c-0.1-0.6-0.4-1.2-1.1-1.2
				c-0.6,0-1.3,0.5-1.6,1.1C140.8,330.5,140.9,331.1,141.4,331.3z"/>
			<path fill="#4E473A" d="M160.7,331.6c-0.1-0.6-0.4-1.2-1.1-1.2c-0.6,0-1.3,0.5-1.6,1.1c-0.3,0.6-0.1,1.2,0.4,1.4
				c0.5,0.2,1.9-0.3,1.9-0.3C160.7,332.4,160.8,331.9,160.7,331.6z"/>
			<path fill="#4E473A" d="M114.4,304.4c0.5,0.2,1.9-0.3,1.9-0.3c0.4-0.2,0.5-0.7,0.4-1c-0.1-0.6-0.4-1.2-1.1-1.2
				c-0.6,0-1.3,0.5-1.6,1.1C113.8,303.6,113.9,304.2,114.4,304.4z"/>
			<path fill="#4E473A" d="M121.7,317.7c-0.1-0.6-0.4-1.2-1.1-1.2c-0.6,0-1.3,0.5-1.6,1.1c-0.3,0.6-0.1,1.2,0.4,1.4
				c0.5,0.2,1.9-0.3,1.9-0.3C121.7,318.5,121.8,318,121.7,317.7z"/>
			<path fill="#4E473A" d="M94.2,300.1c-0.6,0-1.3,0.5-1.6,1.1c-0.3,0.6-0.1,1.2,0.4,1.4c0.5,0.2,1.9-0.3,1.9-0.3
				c0.4-0.2,0.5-0.7,0.4-1C95.2,300.7,94.9,300.1,94.2,300.1z"/>
			<path fill="#4E473A" d="M74.5,291.2c-0.3,0.6-0.1,1.2,0.4,1.4c0.5,0.2,1.9-0.3,1.9-0.3c0.4-0.2,0.5-0.7,0.4-1
				c-0.1-0.6-0.4-1.2-1.1-1.2C75.5,290.1,74.8,290.6,74.5,291.2z"/>
			<path fill="#4E473A" d="M77,306.2c-0.6,0-1.3,0.5-1.6,1.1c-0.3,0.6-0.1,1.2,0.4,1.4c0.5,0.2,1.9-0.3,1.9-0.3
				c0.4-0.2,0.5-0.7,0.4-1C78,306.8,77.6,306.2,77,306.2z"/>
			<path fill="#4E473A" d="M57.4,286.6c0.5,0.2,1.9-0.3,1.9-0.3c0.4-0.2,0.5-0.7,0.4-1c-0.1-0.6-0.4-1.2-1.1-1.2
				c-0.6,0-1.3,0.5-1.6,1.1C56.8,285.8,56.9,286.3,57.4,286.6z"/>
			<path fill="#4E473A" d="M52.2,292.1c-0.6,0-1.3,0.5-1.6,1.1c-0.3,0.6-0.1,1.2,0.4,1.4c0.5,0.2,1.9-0.3,1.9-0.3
				c0.4-0.2,0.5-0.7,0.4-1C53.2,292.7,52.9,292.1,52.2,292.1z"/>
			<path fill="#4E473A" d="M76.4,336.7c0.4-0.2,0.5-0.7,0.4-1c-0.1-0.6-0.4-1.2-1.1-1.2c-0.6,0-1.3,0.5-1.6,1.1
				c-0.3,0.6-0.1,1.2,0.4,1.4C75.1,337.2,76.4,336.7,76.4,336.7z"/>
			<path fill="#4E473A" d="M102.9,329.5c-0.3,0.6-0.1,1.2,0.4,1.4c0.5,0.2,1.9-0.3,1.9-0.3c0.4-0.2,0.5-0.7,0.4-1
				c-0.1-0.6-0.4-1.2-1.1-1.2C103.9,328.5,103.1,329,102.9,329.5z"/>
			<path fill="#4E473A" d="M103.5,341.8c0.5,0.2,1.9-0.3,1.9-0.3c0.4-0.2,0.5-0.7,0.4-1c-0.1-0.6-0.4-1.2-1.1-1.2
				c-0.6,0-1.3,0.5-1.6,1.1C102.9,341,103.1,341.6,103.5,341.8z"/>
			<path fill="#4E473A" d="M49.3,342c-0.6,0-1.3,0.5-1.6,1.1c-0.3,0.6-0.1,1.2,0.4,1.4c0.5,0.2,1.9-0.3,1.9-0.3
				c0.4-0.2,0.5-0.7,0.4-1C50.3,342.6,50,342,49.3,342z"/>
			<path fill="#4E473A" d="M70.2,354.7c0.4-0.2,0.5-0.7,0.4-1c-0.1-0.6-0.4-1.2-1.1-1.2c-0.6,0-1.3,0.5-1.6,1.1
				c-0.3,0.6-0.1,1.2,0.4,1.4C68.8,355.2,70.2,354.7,70.2,354.7z"/>
			<path fill="#4E473A" d="M96.1,353.1c-0.1-0.6-0.4-1.2-1.1-1.2c-0.6,0-1.3,0.5-1.6,1.1c-0.3,0.6-0.1,1.2,0.4,1.4
				c0.5,0.2,1.9-0.3,1.9-0.3C96.1,353.9,96.1,353.4,96.1,353.1z"/>
			<path fill="#4E473A" d="M107.3,359.2c-0.1-0.6-0.4-1.2-1.1-1.2c-0.1,0-0.2,0-0.3,0.1c-0.1,0-0.2,0.1-0.3,0.1
				c-0.4,0.2-0.8,0.5-1,0.9c-0.3,0.6-0.1,1.2,0.4,1.4c0.5,0.2,1.9-0.3,1.9-0.3C107.3,360,107.4,359.5,107.3,359.2z"/>
			<path fill="#4E473A" d="M115.3,369.2c-0.1-0.6-0.4-1.2-1.1-1.2c-0.6,0-1.3,0.5-1.6,1.1c-0.3,0.6-0.1,1.2,0.4,1.4
				c0.5,0.2,1.9-0.3,1.9-0.3C115.3,370,115.4,369.5,115.3,369.2z"/>
			<path fill="#4E473A" d="M129.9,368.2c-0.1-0.6-0.4-1.2-1.1-1.2c-0.6,0-1.3,0.5-1.6,1.1c-0.3,0.6-0.1,1.2,0.4,1.4
				c0.5,0.2,1.9-0.3,1.9-0.3C129.9,369,130,368.5,129.9,368.2z"/>
			<path fill="#4E473A" d="M124.3,377.5c-0.3,0.6-0.1,1.2,0.4,1.4c0.5,0.2,1.9-0.3,1.9-0.3c0.4-0.2,0.5-0.7,0.4-1
				c-0.1-0.6-0.4-1.2-1.1-1.2C125.2,376.5,124.5,377,124.3,377.5z"/>
			<path fill="#4E473A" d="M132.6,382.7c-0.3,0.6-0.1,1.2,0.4,1.4c0.5,0.2,1.9-0.3,1.9-0.3c0.4-0.2,0.5-0.7,0.4-1
				c-0.1-0.6-0.4-1.2-1.1-1.2C133.6,381.6,132.9,382.1,132.6,382.7z"/>
			<path fill="#4E473A" d="M106.9,375.1c0.4-0.2,0.5-0.7,0.4-1c-0.1-0.6-0.4-1.2-1.1-1.2c-0.6,0-1.3,0.5-1.6,1.1
				c-0.3,0.6-0.1,1.2,0.4,1.4C105.6,375.5,106.9,375.1,106.9,375.1z"/>
			<path fill="#4E473A" d="M98.3,371.7c0.4-0.2,0.5-0.7,0.4-1c-0.1-0.6-0.4-1.2-1.1-1.2c-0.6,0-1.3,0.5-1.6,1.1
				c-0.3,0.6-0.1,1.2,0.4,1.4C96.9,372.2,98.3,371.7,98.3,371.7z"/>
			<path fill="#4E473A" d="M90.8,361c-0.6,0-1.3,0.5-1.6,1.1c-0.3,0.6-0.1,1.2,0.4,1.4c0.5,0.2,1.9-0.3,1.9-0.3
				c0.4-0.2,0.5-0.7,0.4-1C91.8,361.6,91.5,361,90.8,361z"/>
			<path fill="#4E473A" d="M70.9,363.6c-0.1-0.6-0.4-1.2-1.1-1.2c-0.6,0-1.3,0.5-1.6,1.1c-0.3,0.6-0.1,1.2,0.4,1.4
				c0.5,0.2,1.9-0.3,1.9-0.3C70.9,364.4,71,363.9,70.9,363.6z"/>
			<path fill="#4E473A" d="M82.8,364.8c-0.3,0.6-0.1,1.2,0.4,1.4c0.5,0.2,1.9-0.3,1.9-0.3c0.4-0.2,0.5-0.7,0.4-1
				c-0.1-0.6-0.4-1.2-1.1-1.2C83.7,363.7,83,364.2,82.8,364.8z"/>
			<path fill="#4E473A" d="M82.6,377.1c-0.6,0-1.3,0.5-1.6,1.1c-0.3,0.6-0.1,1.2,0.4,1.4c0.5,0.2,1.9-0.3,1.9-0.3
				c0.4-0.2,0.5-0.7,0.4-1C83.6,377.7,83.3,377.1,82.6,377.1z"/>
			<path fill="#4E473A" d="M62.2,381.2c0.4-0.2,0.5-0.7,0.4-1c-0.1-0.6-0.4-1.2-1.1-1.2c-0.6,0-1.3,0.5-1.6,1.1
				c-0.3,0.6-0.1,1.2,0.4,1.4C60.8,381.7,62.2,381.2,62.2,381.2z"/>
			<path fill="#4E473A" d="M149.5,380.9c0.5,0.2,1.9-0.3,1.9-0.3c0.4-0.2,0.5-0.7,0.4-1c-0.1-0.6-0.4-1.2-1.1-1.2
				c-0.6,0-1.3,0.5-1.6,1.1C148.9,380.1,149.1,380.7,149.5,380.9z"/>
			<path fill="#4E473A" d="M154.3,364.7c-0.3,0.6-0.1,1.2,0.4,1.4c0.5,0.2,1.9-0.3,1.9-0.3c0.4-0.2,0.5-0.7,0.4-1
				c-0.1-0.6-0.4-1.2-1.1-1.2C155.2,363.6,154.5,364.1,154.3,364.7z"/>
			<path fill="#4E473A" d="M169.6,358.7c-0.1-0.6-0.4-1.2-1.1-1.2c-0.6,0-1.3,0.5-1.6,1.1c-0.3,0.6-0.1,1.2,0.4,1.4
				c0.5,0.2,1.9-0.3,1.9-0.3C169.6,359.5,169.6,359,169.6,358.7z"/>
			<path fill="#4E473A" d="M171.9,380.6c0.4-0.2,0.5-0.7,0.4-1c-0.1-0.6-0.4-1.2-1.1-1.2c-0.6,0-1.3,0.5-1.6,1.1
				c-0.3,0.6-0.1,1.2,0.4,1.4C170.6,381,171.9,380.6,171.9,380.6z"/>
			<path fill="#4E473A" d="M172.6,387.6c-0.1-0.6-0.4-1.2-1.1-1.2c-0.6,0-1.3,0.5-1.6,1.1c-0.3,0.6-0.1,1.2,0.4,1.4
				c0.5,0.2,1.9-0.3,1.9-0.3C172.6,388.4,172.6,387.9,172.6,387.6z"/>
			<path fill="#4E473A" d="M170.9,398.8c-0.1-0.6-0.4-1.2-1.1-1.2c-0.6,0-1.3,0.5-1.6,1.1c-0.3,0.6-0.1,1.2,0.4,1.4
				c0.5,0.2,1.9-0.3,1.9-0.3C170.9,399.6,170.9,399.1,170.9,398.8z"/>
			<path fill="#4E473A" d="M137.8,402.1c-0.6,0-1.3,0.5-1.6,1.1c-0.3,0.6-0.1,1.2,0.4,1.4c0.5,0.2,1.9-0.3,1.9-0.3
				c0.4-0.2,0.5-0.7,0.4-1C138.8,402.7,138.4,402.1,137.8,402.1z"/>
			<path fill="#4E473A" d="M176.1,422.5c-0.1-0.6-0.4-1.2-1.1-1.2c-0.6,0-1.3,0.5-1.6,1.1c-0.3,0.6-0.1,1.2,0.4,1.4
				c0.5,0.2,1.9-0.3,1.9-0.3C176.1,423.4,176.2,422.9,176.1,422.5z"/>
			<path fill="#4E473A" d="M164,444.8c-0.6,0-1.3,0.5-1.6,1.1c-0.3,0.6-0.1,1.2,0.4,1.4c0.5,0.2,1.9-0.3,1.9-0.3
				c0.4-0.2,0.5-0.7,0.4-1C165,445.4,164.7,444.8,164,444.8z"/>
			<path fill="#4E473A" d="M143,458.3c-0.6,0-1.3,0.5-1.6,1.1c-0.3,0.6-0.1,1.2,0.4,1.4c0.5,0.2,1.9-0.3,1.9-0.3
				c0.4-0.2,0.5-0.7,0.4-1C144,458.9,143.7,458.3,143,458.3z"/>
			<path fill="#4E473A" d="M117.9,462.4c-0.6,0-1.3,0.5-1.6,1.1c-0.3,0.6-0.1,1.2,0.4,1.4c0.5,0.2,1.9-0.3,1.9-0.3
				c0.4-0.2,0.5-0.7,0.4-1C118.9,463.1,118.6,462.5,117.9,462.4z"/>
			<path fill="#4E473A" d="M109.6,442.4c-0.6,0-1.3,0.5-1.6,1.1c-0.3,0.6-0.1,1.2,0.4,1.4c0.5,0.2,1.9-0.3,1.9-0.3
				c0.4-0.2,0.5-0.7,0.4-1C110.6,443.1,110.3,442.5,109.6,442.4z"/>
			<path fill="#4E473A" d="M124.9,423.5c-0.1-0.6-0.4-1.2-1.1-1.2c-0.6,0-1.3,0.5-1.6,1.1c-0.3,0.6-0.1,1.2,0.4,1.4
				c0.5,0.2,1.9-0.3,1.9-0.3C124.9,424.4,124.9,423.9,124.9,423.5z"/>
			<path fill="#4E473A" d="M99.5,417.3c-0.1-0.6-0.4-1.2-1.1-1.2c-0.6,0-1.3,0.5-1.6,1.1c-0.3,0.6-0.1,1.2,0.4,1.4
				c0.5,0.2,1.9-0.3,1.9-0.3C99.5,418.1,99.6,417.6,99.5,417.3z"/>
			<path fill="#4E473A" d="M107.9,395.9c-0.1-0.6-0.4-1.2-1.1-1.2c-0.6,0-1.3,0.5-1.6,1.1c-0.3,0.6-0.1,1.2,0.4,1.4
				c0.5,0.2,1.9-0.3,1.9-0.3C107.9,396.7,107.9,396.2,107.9,395.9z"/>
			<path fill="#4E473A" d="M111,397.2c-0.6,0-1.3,0.5-1.6,1.1c-0.3,0.6-0.1,1.2,0.4,1.4c0.5,0.2,1.9-0.3,1.9-0.3
				c0.4-0.2,0.5-0.7,0.4-1C112,397.8,111.7,397.2,111,397.2z"/>
			<path fill="#4E473A" d="M67,401c0.5,0.2,1.9-0.3,1.9-0.3c0.4-0.2,0.5-0.7,0.4-1c-0.1-0.6-0.4-1.2-1.1-1.2c-0.6,0-1.3,0.5-1.6,1.1
				C66.3,400.2,66.5,400.8,67,401z"/>
			<path fill="#4E473A" d="M44.7,404.3c-0.3,0.6-0.1,1.2,0.4,1.4c0.5,0.2,1.9-0.3,1.9-0.3c0.4-0.2,0.5-0.7,0.4-1
				c-0.1-0.6-0.4-1.2-1.1-1.2C45.7,403.2,45,403.7,44.7,404.3z"/>
		</g>
	</g>
	<g id="gravel_x5F_top_1_">
	</g>
	<g id="gravel_x5F_bottom_1_">
	</g>
	<g id="concrete_x5F_body_1_">
	</g>
	<g id="bsfm_x5F_nose_x5F_side_1_">
	</g>
	<g id="eye_1_">
	</g>
	<g id="white_x5F_hose_1_">
	</g>
	<g id="diffuser_1_">
	</g>
	<g id="Lid_1_">
	</g>
</g>
<g id="BSFM">
	<g id="body_x5F_back">
		<g id="gravel_1_">
		</g>
	</g>
	<g id="water" opacity="0.7">
	</g>
	<g id="sand">
	</g>
	<g id="gravel_x5F_top">
	</g>
	<g id="gravel_x5F_bottom">
		<g id="Layer_11">
		</g>
	</g>
	<g id="concrete_x5F_body">
		<g id="gravel">
		</g>
	</g>
	<g id="bsfm_x5F_nose_x5F_side">
	</g>
	<g id="eye">
	</g>
	<g id="white_x5F_hose">
	</g>
	<g id="diffuser">
	</g>
	<g id="Lid">
	</g>
</g>
<g id="Layer_20">
	<g id="water_x5F_LowLevel">
	</g>
	<g id="water_x5F_highLevel">
	</g>
	<g id="body">
	</g>
	<g id="lid">
	</g>
</g>
</svg>
