<?xml version="1.0" encoding="utf-8"?>
<!-- Generator: Adobe Illustrator 18.1.1, SVG Export Plug-In . SVG Version: 6.00 Build 0)  -->
<!DOCTYPE svg PUBLIC "-//W3C//DTD SVG 1.1//EN" "http://www.w3.org/Graphics/SVG/1.1/DTD/svg11.dtd">
<svg version="1.1" xmlns="http://www.w3.org/2000/svg" xmlns:xlink="http://www.w3.org/1999/xlink" x="0px" y="0px"
	 viewBox="0 0 208.3 393.8" enable-background="new 0 0 208.3 393.8" xml:space="preserve">
<g id="ch06-05-1">
	<g id="paths_backup" display="none">
	</g>
	<g id="left_side_2_">
		<g>
			<g id="XMLID_26_">
				<g>
					<path d="M105,45.4c0.5,1.1,0,3.5,0,4.7c0,3,0,6,0,8.9c0,9.6,0,19.1,0,28.7c0,29,0,58,0,87.1c0,33.6,0,67.1,0,100.6
						c0,27.6,0,55.2,0,82.8c0,11.6,0,23.1,0,34.7c0,0.6-1.3,0.9-1.8,0.7c-0.1,0-0.1-0.1-0.2-0.1v0l0-0.1c0.6-0.2,1.2-0.4,1.8-0.7
						c-0.6-0.3-1.3-0.5-1.9-0.8c-0.5-2.1,0.1-5.4,0.1-7.4c0-4.9,0-9.7,0-14.5c0-15,0-30.1,0-45.1c0-41.7,0-83.3,0-125
						c0-38.3,0-76.7,0-115c0-10.9,0-21.9,0-32.8c0-1.7,0.6-4.7,0-6.3c0-0.1,0-0.1,0-0.2c0.5,0.3-0.1-0.4,0,0c-0.1,0-0.1-0.1-0.2-0.1
						c-1.4-0.9-4.2-1-5.8-1.4C66.2,36.5,35.4,29.1,4.6,21.6c0,0,0-0.1,0-0.1c-0.1-0.2,0-0.5,0-0.8h1.6c3.5,0.9,7.1,1.7,10.6,2.6
						c29.2,7.1,58.4,14.1,87.6,21.1c0.1,0,0.2,0.1,0.3,0.1c0.1,0,0.4,0.1,0.4,0.2C105,45,105,45.3,105,45.4z"/>
					<path d="M104.8,392.6c-0.6,0.2-1.2,0.4-1.8,0.7c0-0.3,0.1-0.8,0-1c-0.1-0.1-0.1-0.3-0.1-0.4
						C103.6,392.1,104.2,392.4,104.8,392.6z"/>
					<path fill="#3E3E3F" d="M104.6,41.7l-0.1,0.4c-49.8-9.8-88.7-21.3-88.7-21.3l0.5-0.3C20.5,21.7,58,32.5,104.6,41.7z"/>
					<path fill="#D5D7D9" d="M104.6,42.1l-0.2,2.5c-29.2-7-58.4-14.1-87.6-21.1c-3.5-0.8-7.1-1.7-10.6-2.6h9.6h0.2l-0.1,0.4
						c0.4,0.1,39.4,11.6,88.7,21.3L104.6,42.1z"/>
					<path fill="#3E3E3F" d="M104.6,42.1l-0.1,0.4c-49.3-9.7-88.3-21.2-88.7-21.3l0.1-0.4C15.9,20.8,54.7,32.2,104.6,42.1z"/>
					<path d="M103,45.5C103,45.1,103.6,45.8,103,45.5L103,45.5z"/>
					<path fill="#1FA6AA" d="M103.1,45.7c0.6,1.7,0,4.6,0,6.3c0,10.9,0,21.9,0,32.8c0,38.3,0,76.7,0,115c0,41.7,0,83.3,0,125
						c0,15,0,30.1,0,45.1c0,4.9,0,9.7,0,14.5c0,2-0.6,5.3-0.1,7.4C74,379.7,45,367.6,16,355.5c-2.9-1.2-5.9-2.5-8.8-3.7
						c-1.3-0.5-3.8-1-4.8-2c-0.3-0.3-0.3-1.4-0.2-2.7c0.1-8.9,0.1-17.8,0.2-26.7c0.3-36.1,0.5-72.2,0.8-108.4
						C3.5,171,3.8,130,4.1,89c0.1-15,0.2-30,0.3-45.1c0-4.9,0.1-9.8,0.1-14.7c0-2.2,0.7-5.5,0.1-7.6C35.4,29.1,66.2,36.5,97,44
						c1.6,0.4,4.4,0.5,5.8,1.4c0.1,0,0.1,0.1,0.2,0.1C103,45.5,103.1,45.6,103.1,45.7z"/>
					<path d="M103.1,392.3c0.1,0.3,0,0.7,0,1l0,0.1c-4.2-1.7-8.4-3.5-12.5-5.2c-30-12.6-60-25.1-90.1-37.7c-0.1,0-0.2-0.1-0.2-0.2
						c0.1-13.4,0.2-26.9,0.3-40.3C1,250.8,1.4,191.7,1.8,132.5C2.1,95.4,2.3,58.2,2.6,21c0-0.5,0.9-0.8,1.4-0.7c-0.7,0-2,0.7-1.1,1
						c0.5,0.1,1.1,0.3,1.6,0.4c0.6,2.1-0.1,5.4-0.1,7.6c0,4.9-0.1,9.8-0.1,14.7C4.3,59,4.2,74,4.1,89C3.8,130,3.5,171,3.2,212.1
						c-0.3,36.1-0.5,72.2-0.8,108.4c-0.1,8.9-0.1,17.8-0.2,26.7c0,1.4-0.1,2.4,0.2,2.7c1,1,3.6,1.5,4.8,2c2.9,1.2,5.9,2.5,8.8,3.7
						c29,12.1,57.9,24.2,86.9,36.4C103,392,103,392.1,103.1,392.3z"/>
					<path fill="#D5D7D9" d="M17,20.2l-0.6,0.3c-0.2-0.1-0.4-0.1-0.4-0.1l-0.1,0.4h-0.2l-9.9-0.1c3.2-0.8,7-1.4,7-1.4
						C14.9,19.8,17,20.2,17,20.2z"/>
					<path fill="#D5D7D9" d="M16.4,20.5l-0.5,0.3l0.1-0.4C16,20.4,16.1,20.5,16.4,20.5z"/>
					<path fill="#D5D7D9" d="M15.7,20.8H6.1c-0.1,0-0.2-0.1-0.4-0.1L15.7,20.8z"/>
					<path d="M6.1,20.8H4.5c0-0.1,0-0.2,0-0.2s0-0.1-0.1-0.2c0.4,0.1,0.9,0.2,1.3,0.3C5.9,20.7,6,20.8,6.1,20.8z"/>
					<path d="M4.5,21.6C4.5,21.6,4.5,21.6,4.5,21.6c-0.5,0-1-0.2-1.6-0.3c-1-0.2,0.4-0.9,1.1-1c0.1,0,0.1,0,0.2,0
						c0.1,0,0.2,0,0.2,0.1c0.1,0,0.1,0.1,0.1,0.2s0,0.1,0,0.2C4.5,21,4.5,21.3,4.5,21.6z"/>
					<path d="M4.4,20.4c-0.1,0-0.2,0-0.2-0.1C4.3,20.3,4.4,20.3,4.4,20.4z"/>
				</g>
			</g>
		</g>
	</g>
</g>
<g id="ch06-02-3">
	<g id="Layer_28">
	</g>
	<g id="hand_1_" display="none">
	</g>
	<g id="hand_x5F_copy" display="none">
	</g>
	<g id="hand_new">
	</g>
	<g id="hand_new_copy">
	</g>
</g>
<g id="ch05-08-3">
	<g id="main_x5F_comp-path_backup_copy">
	</g>
	<g id="main_x5F_comp_2_">
	</g>
</g>
<g id="ch04-07-2">
	<g id="new_base_1_">
	</g>
	<g id="hand">
	</g>
</g>
<g id="ch04-06-1">
	<g id="paths_1_" display="none">
		<g id="Layer_15_copy" display="inline">
		</g>
	</g>
	<g id="hand_w_jug_x5F_comp">
	</g>
	<g id="hand_w_jug_copy">
	</g>
</g>
<g id="ch04-03-2">
	<g id="paths" display="none">
		<g id="nose_x5F_34_x5F_side_path_x5D_" display="inline">
		</g>
		<g id="nose_x5F_34_x5F_side_path_x5D__copy" display="inline">
		</g>
	</g>
	<g id="main_comp_1_">
		<g id="base">
		</g>
		<g id="nose_x5F_34_x5F_side">
		</g>
		<g id="LID">
		</g>
	</g>
	<g id="base_copy">
	</g>
	<g id="nose_x5F_34_x5F_side_copy">
	</g>
	<g id="LID_copy">
	</g>
</g>
<g id="ch04-02-1">
	<g id="backup" display="none">
	</g>
</g>
</svg>
