<?xml version="1.0" encoding="utf-8"?>
<!-- Generator: Adobe Illustrator 18.1.1, SVG Export Plug-In . SVG Version: 6.00 Build 0)  -->
<svg version="1.1" xmlns="http://www.w3.org/2000/svg" xmlns:xlink="http://www.w3.org/1999/xlink" x="0px" y="0px"
	 viewBox="0 0 210.3 61.4" enable-background="new 0 0 210.3 61.4" xml:space="preserve">
<g id="ch06-05-1">
	<g id="paths_backup">
	</g>
</g>
<g id="bsf_x5F_lid">
	<path fill="#A17D59" d="M210.3,22.3L124.9,8.2L124,5.7l-0.2-0.1C112.9,0.2,93.7,0,91.5,0c-0.4,0-1.3,0-1.6,0
		c-1,0.1-10.1,1.9-10.5,2l-0.3,0.1L74.3,11L0,24.1l0.6,0.1l-0.5,0v10.6l100.1,26.4l0.2,0.1l109.5-27.6V22.5h-0.2L210.3,22.3z"/>
	<g>
		<g id="XMLID_74_">
			<g>
				<path fill="#3E2B17" d="M210.3,22.3l-0.6,0.2h0.2v11.4L100.4,61.4l-0.2-0.1L0.1,34.9V24.3l0.5,0L0,24.1L74.3,11l4.8-8.9L79.4,2
					c0.4-0.1,9.5-1.8,10.5-2c0.3,0,1.2,0,1.6,0c2.2,0,21.4,0.1,32.2,5.6l0.2,0.1l0.9,2.5L210.3,22.3z M208,32.4v-9.5L101.6,47v12.1
					L208,32.4z M100.6,45.3l99.8-22.7l-74.8-12.4l6,16.5l-9.9,2.9l-7.7-2l-0.1-0.4c-1-5.9-2.3-12.6-2.7-13.8
					c-1.4-0.6-10.6-2.6-18.8-3.7l-2.9,0.5c-1,2.6-1.8,6-1.8,6l-0.1,0.4l-9.1,2.8l-0.1,0.2l-8-1.7l2.6-4.8L9.6,24.4L100.6,45.3z
					 M129.8,25.8L123,7.4l-5.7,1.2L115.9,9c1.2,2.6,5.1,11.8,6.2,19.1L129.8,25.8z M117,7.2l4.7-1C111,1.6,93.5,1.4,91.5,1.4
					c-1,0-1.4,0-1.4,0c-0.5,0.1-3.5,0.6-6.5,1.2C89,3,99.1,3.8,107.2,5.5c3.1,0.7,5.6,1.4,7.6,2.3v0L117,7.2z M115.3,26.5l5.2,1.4
					c-1.2-7.4-5.5-17-6.2-18.7c-1.9-0.8-4.4-1.6-7.5-2.2c-11.4-2.5-26.9-3-27-3V3.7L72.8,17l5,1.1l4.4-10.2l0.4,0
					c1.6-0.2,4-0.2,7.1,0.2c0.7,0.1,1.4,0.1,2.2,0.2c6.8,0.8,19.9,3.3,20.6,4.2C112.9,13.1,114.3,20.3,115.3,26.5z M99.7,59.2V47
					L2,24.6v8.9L99.7,59.2z M86.6,15.6c0.3-1.1,1-4,1.9-6.2c-2.3-0.2-4.1-0.2-5.4-0.1l-3.7,8.5L86.6,15.6z"/>
				<polygon fill="#A17D59" points="208,22.8 208,32.4 101.6,59.1 101.6,47 				"/>
				<path fill="#A17D59" d="M200.4,22.6l-99.8,22.7l-91-20.9l63.6-11.2L70.6,18l8,1.7l0.1-0.2l9.1-2.8l0.1-0.4c0,0,0.8-3.4,1.8-6
					l2.9-0.5c8.2,1.1,17.3,3.1,18.8,3.7c0.4,1.2,1.7,7.8,2.7,13.8l0.1,0.4l7.7,2l9.9-2.9l-6-16.5L200.4,22.6z"/>
				<path fill="#A17D59" d="M123,7.4l6.7,18.5l-7.7,2.2C121,20.7,117,11.5,115.9,9l1.5-0.4L123,7.4z"/>
				<path fill="#A17D59" d="M121.7,6.2l-4.7,1l-2.2,0.6v0c-2-0.8-4.5-1.6-7.6-2.3C99.1,3.8,89,3,83.6,2.7c2.9-0.6,5.9-1.1,6.5-1.2
					c0.1,0,0.5,0,1.4,0C93.5,1.4,111,1.6,121.7,6.2z"/>
				<path fill="#775937" d="M120.6,27.8l-5.2-1.4c-1.1-6.1-2.4-13.3-2.9-14c-0.8-1-13.8-3.4-20.6-4.2C91,8.1,90.3,8.1,89.6,8
					c-3.1-0.3-5.5-0.4-7.1-0.2l-0.4,0L77.7,18l-5-1.1l7.1-13.3v0.3c0.1,0,15.6,0.5,27,3c3.1,0.7,5.6,1.4,7.5,2.2
					C115.1,10.8,119.4,20.4,120.6,27.8z"/>
				<polygon fill="#A17D59" points="99.7,47 99.7,59.2 2,33.5 2,24.6 				"/>
				<path fill="#775937" d="M88.5,9.3c-0.9,2.2-1.7,5.2-1.9,6.2l-7.1,2.2l3.7-8.5C84.4,9.1,86.2,9.1,88.5,9.3z"/>
			</g>
		</g>
	</g>
</g>
<g id="Layer_69">
</g>
<g id="ch02A-08-2">
	<g id="bsf_contents">
		<g id="separation_gravel_copy">
		</g>
	</g>
</g>
<g id="ch06-02-3">
	<g id="Layer_28">
	</g>
	<g id="hand_1_">
	</g>
	<g id="hand_x5F_copy">
	</g>
	<g id="hand_new">
	</g>
	<g id="hand_new_copy">
	</g>
</g>
<g id="ch05-08-3">
	<g id="main_x5F_comp-path_backup_copy">
	</g>
	<g id="main_x5F_comp_2_">
	</g>
</g>
<g id="ch04-07-2">
	<g id="new_base_1_">
	</g>
	<g id="hand">
	</g>
</g>
<g id="ch04-06-1">
	<g id="paths_1_">
		<g id="Layer_15_copy">
		</g>
	</g>
	<g id="hand_w_jug_x5F_comp">
	</g>
	<g id="hand_w_jug_copy">
	</g>
</g>
<g id="ch04-03-2">
	<g id="paths">
		<g id="nose_x5F_34_x5F_side_path_x5D_">
		</g>
		<g id="nose_x5F_34_x5F_side_path_x5D__copy">
		</g>
	</g>
	<g id="main_comp_1_">
		<g id="base">
		</g>
		<g id="nose_x5F_34_x5F_side">
		</g>
		<g id="LID">
		</g>
	</g>
	<g id="base_copy">
	</g>
	<g id="nose_x5F_34_x5F_side_copy">
	</g>
	<g id="LID_copy">
	</g>
</g>
<g id="ch04-02-1">
	<g id="backup">
	</g>
</g>
<g id="ch07-12-4">
	<g id="hand_x5F_far">
	</g>
	<g id="hand_x5F_close_1_">
	</g>
	<g id="hand_x5F_far_copy">
	</g>
	<g id="hand_x5F_close_copy">
	</g>
</g>
<g id="ch08-04-1">
</g>
<g id="ch08-11-1">
	<g id="safety_x5F_copy">
		<g id="nose_copy">
		</g>
		<g id="spout_copy">
		</g>
		<g id="water_copy_2">
		</g>
		<g id="sand_copy_2">
		</g>
		<g id="back_copy_2">
		</g>
		<g id="side_copy">
		</g>
	</g>
	<g id="back_2_">
	</g>
	<g id="water" opacity="0.5">
	</g>
	<g id="sand">
	</g>
	<g id="side">
	</g>
	<g id="nose_7_">
	</g>
	<g id="spout_1_">
	</g>
	<g id="water_copy" opacity="0.5">
	</g>
	<g id="sand_copy">
	</g>
	<g id="nose_copy_2">
	</g>
	<g id="nose_copy_3">
	</g>
	<g id="back_copy">
	</g>
	<g id="back_copy_3">
	</g>
	<g id="side_copy_2">
	</g>
	<g id="side_copy_3">
	</g>
	<g id="spout_copy_2">
	</g>
	<g id="spout_copy_3">
	</g>
</g>
<g id="ch03-30-7">
</g>
<g id="ch03-30-8">
</g>
</svg>
