<?xml version="1.0" encoding="utf-8"?>
<!-- Generator: Adobe Illustrator 18.1.1, SVG Export Plug-In . SVG Version: 6.00 Build 0)  -->
<!DOCTYPE svg PUBLIC "-//W3C//DTD SVG 1.1//EN" "http://www.w3.org/Graphics/SVG/1.1/DTD/svg11.dtd">
<svg version="1.1" xmlns="http://www.w3.org/2000/svg" xmlns:xlink="http://www.w3.org/1999/xlink" x="0px" y="0px"
	 viewBox="0 0 203.2 61.1" enable-background="new 0 0 203.2 61.1" xml:space="preserve">
<g id="ch04-06-1">
</g>
<g id="ch04-03-2">
</g>
<g id="ch04-02-1">
	<g id="backup" display="none">
	</g>
	<g id="new_lid_2_">
		<path fill="none" d="M97.8,9c-3.4,0.4-6.9,0.7-8.2,5c9.3-0.5,18.6-0.8,27.9-0.6c0-1.7-0.5-3.4-1.2-5c-0.1-0.7-0.3-1.3-0.6-1.9
			c0,0-0.1,0-0.1,0c-1.7,0.3-3.3,0.7-4.5,0.8C106.6,7.8,102.2,8.4,97.8,9z"/>
		<path fill="#1FA6AA" d="M125.2,39.4c0.2-0.3,0.4-0.5,0.6-0.5c24.4-4.8,48.9-9.5,73.3-14.3c-22-5-44.3-8-66.7-9.2
			c0.2,1.6,0.2,3.2,0.1,4.8c0,0,0,0,0.1,0c0,0.1,0,0.2-0.1,0.3c0,0,0,0,0,0c0,0,0,0.1,0,0.1c0,0.1,0,0.1,0,0.1
			c0,0.1-0.1,0.2-0.1,0.3c0,0.1,0,0.1-0.1,0.2c0,0,0,0.1,0,0.1c-0.2,0.1-0.4,0.2-0.5,0.3h0c-1.9,0.9-3.8,1.3-6,1.2c0,0,0,0,0,0
			c-0.1,0-0.1,0-0.2,0c0,0,0,0-0.1,0c0,0,0,0,0,0c0,0,0,0,0,0c0,0-0.1,0-0.1,0v0c-3.1-1.1-6.3-2.1-9.5-2.8c-0.2,0,0-0.4,0-0.5
			c0.9-1.5,1.4-3.1,1.5-4.7c-9.4-0.1-18.8,0-28.2,0.6c-0.3,2.1,0,4.3,0.2,6.4c0,0.4-0.6,0.9-0.9,1c0,0-0.1,0-0.2,0
			c-2.7,0.8-5.4,1.6-8.1,2.4c-0.2,0-0.2-0.1-0.1-0.2c-0.1,0.1-0.3,0.2-0.4,0.1c-4.4-0.4-8.7-0.9-13.1-1.3c-0.2,0.1-0.4,0.2-0.3,0
			c0.6-2.3,1.2-4.5,1.8-6.7c-21.6,2.3-42.9,6.4-63.9,12.3C44.8,23.4,86.1,26.8,125.2,39.4z"/>
		<path fill="#1FA6AA" d="M126.1,3.3c-1.5,0.1-2.9,0.2-4.4,0.2l0,0c-0.1,0-0.2,0-0.3,0c-0.1,0-0.2,0-0.4,0c-0.8,0-1.7,0.1-2.5,0.1
			c-6.7,0.3-13.3,0.7-20,1.1c-6.6,0.4-13.9,0-15.8,8.8c-0.1,0.3-0.1,0.6-0.2,0.9c-0.1,0.5-0.2,1-0.3,1.5c-0.4,2.8-0.7,5.6-1.6,8.3
			c0,0.1,0,0.1-0.1,0.2c0.1-0.1,0.1-0.1,0.2-0.1c2.4-0.7,4.8-1.4,7.3-2.2c-0.2-2.2-0.3-4.4,0.1-6.5c0.1-0.5,0.2-1,0.4-1.5
			c0.5-1.4,1.2-2.7,2.4-3.8c1.7-1.5,3.8-1.9,6-2.2c3.7-0.5,7.4-1,11.1-1.4c3.5-0.5,7-1.1,10.4-1.4c0.1,0,0.2,0,0.2,0
			c2.2-0.1,4.1,0,5.4,2c1.1,1.7,1.6,4.1,1.9,6.3c0.1,0.6,0.1,1.1,0.2,1.6c0,0.4,0,0.8,0.1,1.1c0.1,1.2-0.3,3.2,0,4.3
			c0.6,2,2.8,1.4,4.6,0.6c0-0.1,0.1-0.2,0.1-0.2c0,0,0-0.1,0-0.1c0-0.2,0.1-0.4,0.3-0.6c0-1.7,0-3.3-0.3-4.9
			c-0.1-0.6-0.2-1.1-0.3-1.6c-0.8-3.7-2.3-7.2-4.6-10.4C126.2,3.3,126.2,3.3,126.1,3.3z"/>
		<path d="M203.1,23.7c-0.1,0-0.2,0-0.3-0.1c0,0-0.1,0-0.1,0c-23.2-5.4-46.8-8.7-70.5-9.8c-0.7-3.8-2.1-7.5-4.3-10.8
			c-0.2-0.2-0.5-0.4-0.8-0.6c-0.1-0.1-0.2-0.1-0.2-0.2h0c-0.1,0-0.1-0.1-0.2-0.1c-0.1-0.1-0.1-0.1-0.2-0.2c0,0,0,0,0,0
			c-0.1,0-0.1-0.1-0.2-0.1c0,0-0.1,0-0.1-0.1c0,0,0,0,0,0c-1.1-0.5-2.1-1-3.2-1.5c-0.1,0-0.2,0-0.3,0c0,0,0,0,0,0
			c-0.2,0-0.3,0-0.5,0c-0.3,0-0.5,0-0.8,0c0,0,0,0,0,0c-13.1-0.5-26.2,0.2-39.1,2.4C78.6,3.2,74,3.4,71.8,6.9c-1.1,1.7-1.6,4-2.2,6
			c-0.3,1-0.6,1.9-0.9,2.9C46.7,18.1,25,22.4,3.6,28.4l0,0c-1.2,0.3-2.4,0.6-3.6,0.9c0.9,3.6,1.8,7.1,2.7,10.7c0.3,2,0.5,4,0.7,6
			c0,0,0,0,0,0c-0.1,0.2-0.1,0.4,0,0.4c38.7-5.9,79.4-4.9,114.8,14.1c0.1,0,0.2,0.1,0.3,0.1c0.1,0,0.2,0.1,0.3,0.1
			c0.2,0,0.4,0.1,0.7,0.2c0.1,0,0.2,0,0.3,0.1c0.2,0.1,0.5,0.1,0.7,0.2c24.6-10.2,50-17.8,75.9-22.7c0.1-0.2,0.2-0.4,0.3-0.6
			c0,0,0,0,0,0c0,0,0-0.1,0.1-0.1c0.1-0.2,0.3-0.4,0.4-0.6c0.1-0.1,0.1-0.2,0.2-0.3c0,0,0-0.1,0.1-0.1c0-0.1,0-0.1,0-0.2
			c2-3.6,3.7-7.3,5.2-11.2c0,0,0,0,0-0.1c0,0,0,0,0,0c0.2-0.4,0.3-0.8,0.5-1.2c0-0.1,0-0.1,0.1-0.2c0,0,0,0,0,0
			C203.2,23.7,203.1,23.7,203.1,23.7z M130.9,13.7c0.1,0.5,0.2,1.1,0.3,1.6c0.2,1.6,0.3,3.2,0.3,4.9c-0.2,0.2-0.3,0.4-0.3,0.6
			c0,0,0,0.1,0,0.1c-0.1,0.1-0.1,0.2-0.1,0.2c-1.8,0.8-4,1.4-4.6-0.6c-0.3-1.1,0.1-3.1,0-4.3c0-0.4,0-0.8-0.1-1.1
			c0-0.5-0.1-1.1-0.2-1.6c-0.2-2.3-0.7-4.7-1.9-6.3c-1.3-2-3.3-2.1-5.4-2c-0.1,0-0.2,0-0.2,0c-3.5,0.2-7,0.9-10.4,1.4
			c-3.7,0.5-7.4,0.9-11.1,1.4c-2.2,0.3-4.2,0.7-6,2.2c-1.2,1.1-1.9,2.4-2.4,3.8c-0.2,0.5-0.3,1-0.4,1.5c-0.4,2.1-0.3,4.4-0.1,6.5
			c-2.4,0.7-4.8,1.4-7.3,2.2c-0.1,0-0.1,0.1-0.2,0.1c0-0.1,0-0.1,0.1-0.2c0.9-2.7,1.1-5.5,1.6-8.3c0.1-0.5,0.2-1,0.3-1.5
			c0-0.3,0.1-0.6,0.2-0.9c1.9-8.8,9.2-8.4,15.8-8.8c6.7-0.4,13.3-0.7,20-1.1c0.8-0.1,1.7-0.1,2.5-0.1c0.1,0,0.2,0,0.4,0
			c0.1,0,0.2,0,0.3,0l0,0c1.5-0.1,2.9-0.1,4.4-0.2c0,0,0.1,0,0.1,0C128.6,6.5,130.1,10,130.9,13.7z M118.9,19.5
			c-2.4-0.8-1.4-1.1-0.8-3.3c0.1-0.4,0.2-0.9,0.3-1.3c0.1-0.5,0.2-1.1,0.2-1.6c0.1-2.5-0.5-4.9-1.8-7.1c2.5-0.3,4.9-0.1,6.2,1.5
			c1.2,1.4,1.8,3.5,2.1,5.7c0.1,0.5,0.2,1.1,0.2,1.6c0.2,2.2,0.2,4.5,0.1,6.3C123.2,20.7,121,20.2,118.9,19.5z M115.6,6.4
			c0.3,0.6,0.5,1.2,0.6,1.9c0.8,1.6,1.2,3.3,1.2,5c-9.3-0.1-18.6,0.1-27.9,0.6c1.3-4.3,4.8-4.5,8.2-5c4.4-0.6,8.8-1.1,13.2-1.7
			c1.2-0.1,2.8-0.5,4.5-0.8C115.5,6.4,115.5,6.4,115.6,6.4z M69.6,15.6c0.9-3.1,1.8-8.6,4.8-10.3c2.2-1.2,5.4-1.3,7.8-1.7
			c2.5-0.4,5.1-0.8,7.6-1.1c10.6-1.3,21.3-1.7,31.9-1.2c0.1,0,0.1,0,0.2,0c0.8,0.4,1.5,0.7,2.3,1.1c-5.6,0.3-11.2,0.6-16.9,0.9
			c-5.5,0.3-11.4,0-16.9,1.1c-5.6,1.2-7.4,5.3-8.5,10.1c-0.1,0.5-0.2,1-0.3,1.5c-0.5,2.7-0.9,5.6-1.6,8.1c-4.2-0.4-8.3-0.8-12.5-1.2
			c0.5-1.9,1-3.8,1.6-5.7C69.3,16.6,69.4,16.1,69.6,15.6C69.6,15.6,69.6,15.6,69.6,15.6z M68.2,17.2c-0.6,2.2-1.2,4.5-1.8,6.7
			c0,0.2,0.1,0.2,0.3,0c4.4,0.4,8.7,0.9,13.1,1.3c0.1,0,0.3,0,0.4-0.1c-0.1,0.2-0.1,0.3,0.1,0.2c2.7-0.8,5.4-1.6,8.1-2.4
			c0,0,0.1,0,0.2,0c0.3-0.1,0.9-0.6,0.9-1c-0.2-2.1-0.5-4.3-0.2-6.4c9.4-0.5,18.8-0.7,28.2-0.6c-0.2,1.6-0.7,3.2-1.5,4.7
			c-0.1,0.1-0.2,0.4,0,0.5c3.2,0.7,6.4,1.6,9.5,2.8v0c0,0,0,0,0.1,0c0,0,0,0,0,0c0,0,0,0,0,0c0,0,0,0,0.1,0c0,0,0.1,0,0.2,0
			c0,0,0,0,0,0c2.2,0.1,4-0.3,6-1.2h0c0.2-0.1,0.4-0.2,0.5-0.3c0,0,0-0.1,0-0.1c0-0.1,0-0.1,0.1-0.2c0-0.1,0.1-0.2,0.1-0.3
			c0,0,0-0.1,0-0.1c0,0,0-0.1,0-0.1c0,0,0,0,0,0c0-0.1,0-0.2,0.1-0.3c0,0,0,0-0.1,0c0.1-1.6,0-3.3-0.1-4.8
			c22.4,1.2,44.7,4.2,66.7,9.2c-24.4,4.8-48.9,9.5-73.3,14.3c-0.2,0-0.4,0.3-0.6,0.5c-39.1-12.6-80.4-16-120.9-9.9
			C25.3,23.7,46.7,19.6,68.2,17.2z M4.7,44.8L4.7,44.8c0,0,0-0.1,0-0.1c0-0.1,0-0.3,0-0.4c0-0.1,0-0.2-0.1-0.2
			c-0.4-4.3-1.1-8.6-2-12.8c40.8-6.2,82.5-2.8,121.8,9.9c-2.2,5.8-4,11.7-5.5,17.6C83.7,39.9,43.2,38.9,4.7,44.8z M196.3,37
			c-25.9,5-51.3,12.7-75.8,22.9c0-0.1,0-0.2,0-0.3c-0.2-0.1-0.4-0.2-0.6-0.3c1.6-6.4,3.5-12.7,5.8-18.9c25.3-4.9,50.6-9.8,75.9-14.8
			C200.1,29.5,198.3,33.3,196.3,37z"/>
		<path fill="#1FA6AA" d="M119.9,59.2c0.2,0.1,0.4,0.2,0.6,0.3c0.1,0,0.1,0.1,0,0.3C145,49.6,170.4,42,196.3,37
			c2-3.7,3.8-7.5,5.2-11.4c-25.3,4.9-50.6,9.8-75.9,14.8C123.4,46.5,121.4,52.8,119.9,59.2z"/>
		<path fill="#167679" d="M125.3,15.1c0-0.6-0.1-1.1-0.2-1.6c-0.3-2.2-1-4.3-2.1-5.7c-1.3-1.7-3.8-1.8-6.2-1.5
			c1.3,2.2,1.9,4.6,1.8,7.1c0,0.5-0.1,1.1-0.2,1.6c-0.1,0.4-0.2,0.9-0.3,1.3c-0.6,2.2-1.6,2.5,0.8,3.3c2.1,0.7,4.3,1.3,6.5,2
			C125.5,19.6,125.5,17.3,125.3,15.1z"/>
		<path fill="#1FA6AA" d="M2.6,31.2c1,4.2,1.6,8.5,2,12.8c0,0,0.1,0.1,0.1,0.2c0,0.1,0,0.3,0,0.4c0,0,0,0.1,0,0.1v0
			c38.5-5.8,78.9-4.8,114.2,14c1.5-6,3.4-11.9,5.5-17.6C85.1,28.3,43.4,24.9,2.6,31.2z"/>
		<path fill="#1FA6AA" d="M67.6,22.9c4.2,0.4,8.3,0.8,12.5,1.2c0.8-2.5,1.1-5.4,1.6-8.1c0.1-0.5,0.2-1,0.3-1.5
			c1-4.7,2.8-8.9,8.5-10.1c5.4-1.1,11.3-0.8,16.9-1.1c5.6-0.3,11.2-0.6,16.9-0.9c-0.8-0.4-1.5-0.7-2.3-1.1c-0.1,0-0.1,0-0.2,0
			C111,0.8,100.3,1.2,89.8,2.5c-2.5,0.3-5.1,0.7-7.6,1.1c-2.4,0.4-5.6,0.5-7.8,1.7c-3,1.7-3.9,7.2-4.8,10.3c0,0,0,0,0,0
			c-0.2,0.5-0.3,1-0.4,1.5C68.6,19,68.1,20.9,67.6,22.9z"/>
	</g>
</g>
</svg>
