<?xml version="1.0" encoding="utf-8"?>
<!-- Generator: Adobe Illustrator 18.1.1, SVG Export Plug-In . SVG Version: 6.00 Build 0)  -->
<svg version="1.0" id="Layer_1" xmlns="http://www.w3.org/2000/svg" xmlns:xlink="http://www.w3.org/1999/xlink" x="0px" y="0px"
	 viewBox="103.7 151.4 57.6 31.5" enable-background="new 103.7 151.4 57.6 31.5" xml:space="preserve">
<path fill="#70613F" d="M142.4,166.9c-0.1-0.3-0.8-0.6-0.8-0.6c-0.2-0.1-0.4,0.1-0.5,0.3c-0.1,0.4-0.2,0.8,0,1.1
	c0.2,0.3,0.6,0.3,0.9,0.1C142.4,167.6,142.5,167.2,142.4,166.9z"/>
<path fill="#70613F" d="M140.9,175.2c-0.2-0.1-0.4,0.1-0.5,0.3c-0.1,0.4-0.2,0.8,0,1.1c0.2,0.3,0.6,0.3,0.9,0.1
	c0.3-0.2,0.4-0.6,0.3-0.9C141.5,175.5,140.9,175.2,140.9,175.2z"/>
<path fill="#70613F" d="M152.5,176.9c-0.2-0.1-0.4,0.1-0.5,0.3c-0.1,0.4-0.2,0.8,0,1.1c0.2,0.3,0.6,0.3,0.9,0.1
	c0.3-0.2,0.4-0.6,0.3-0.9C153.1,177.3,152.5,176.9,152.5,176.9z"/>
<path fill="#70613F" d="M137.1,170.8c-0.2-0.1-0.4,0.1-0.5,0.3c-0.1,0.4-0.2,0.8,0,1.1c0.2,0.3,0.6,0.3,0.9,0.1
	c0.3-0.2,0.4-0.6,0.3-0.9C137.7,171.2,137.1,170.8,137.1,170.8z"/>
<path fill="#70613F" d="M129.1,174.4c0.3,0,0.6-0.3,0.6-0.7c0-0.3-0.4-1-0.4-1c-0.1-0.2-0.4,0-0.6,0.1c-0.3,0.3-0.6,0.6-0.5,1
	C128.4,174.2,128.7,174.4,129.1,174.4z"/>
<path fill="#70613F" d="M129,180.5c-0.2-0.1-0.4,0.1-0.5,0.3c-0.1,0.4-0.2,0.8,0,1.1c0.2,0.3,0.6,0.3,0.9,0.1
	c0.3-0.2,0.4-0.6,0.3-0.9C129.6,180.8,129,180.5,129,180.5z"/>
<path fill="#70613F" d="M135,161.8c-0.1-0.3-0.8-0.6-0.8-0.6c-0.2-0.1-0.4,0.1-0.5,0.3c-0.1,0.4-0.2,0.8,0,1.1
	c0.2,0.3,0.6,0.3,0.9,0.1C135,162.5,135.1,162.2,135,161.8z"/>
<path fill="#70613F" d="M118.6,171.4c-0.2-0.1-0.4,0.1-0.5,0.3c-0.1,0.4-0.2,0.8,0,1.1c0.2,0.3,0.6,0.3,0.9,0.1s0.4-0.6,0.3-0.9
	C119.3,171.7,118.6,171.4,118.6,171.4z"/>
<path fill="#70613F" d="M118.2,181.2c-0.2-0.1-0.4,0.1-0.5,0.3c-0.1,0.4-0.2,0.8,0,1.1c0.2,0.3,0.6,0.3,0.9,0.1
	c0.3-0.2,0.4-0.6,0.3-0.9C118.9,181.6,118.2,181.2,118.2,181.2z"/>
<path fill="#70613F" d="M113.4,176.7c-0.2-0.1-0.4,0.1-0.5,0.3c-0.1,0.4-0.2,0.8,0,1.1c0.2,0.3,0.6,0.3,0.9,0.1
	c0.3-0.2,0.4-0.6,0.3-0.9C114,177,113.4,176.7,113.4,176.7z"/>
<path fill="#70613F" d="M108.4,180.9c0.3-0.2,0.4-0.6,0.3-0.9c-0.1-0.3-0.8-0.6-0.8-0.6c-0.2-0.1-0.4,0.1-0.5,0.3
	c-0.1,0.4-0.2,0.8,0,1.1C107.7,181,108.1,181.1,108.4,180.9z"/>
<path fill="#70613F" d="M149.6,158.4c0.3-0.2,0.4-0.6,0.3-0.9c-0.1-0.3-0.8-0.6-0.8-0.6c-0.2-0.1-0.4,0.1-0.5,0.3
	c-0.1,0.4-0.2,0.8,0,1.1C148.9,158.6,149.4,158.6,149.6,158.4z"/>
<path fill="#70613F" d="M115.2,156c0.3,0,0.5-0.2,0.6-0.4s-0.2-0.7-0.2-0.7c-0.1-0.1-0.3-0.1-0.4,0c-0.3,0.2-0.5,0.4-0.5,0.7
	C114.7,155.8,114.9,156,115.2,156z"/>
<path fill="#70613F" d="M135.3,153c-0.1-0.1-0.3-0.1-0.4,0c-0.3,0.2-0.5,0.4-0.5,0.7c0,0.3,0.3,0.5,0.5,0.5c0.3,0,0.5-0.2,0.6-0.4
	C135.6,153.5,135.3,153,135.3,153z"/>
<path fill="#70613F" d="M110.6,154.9c-0.3,0.2-0.5,0.4-0.5,0.7c0,0.3,0.3,0.5,0.5,0.5s0.5-0.2,0.6-0.4c0.1-0.3-0.2-0.7-0.2-0.7
	C110.9,154.8,110.7,154.8,110.6,154.9z"/>
<path fill="#70613F" d="M161.2,164.2c0.1-0.3-0.2-0.7-0.2-0.7c-0.1-0.1-0.3-0.1-0.4,0c-0.3,0.2-0.5,0.4-0.5,0.7
	c0,0.3,0.3,0.5,0.5,0.5C160.9,164.6,161.2,164.5,161.2,164.2z"/>
<path fill="#70613F" d="M119.9,157.6c0.2,0.3,0.6,0.3,0.9,0.1c0.3-0.2,0.4-0.6,0.3-0.9c-0.1-0.3-0.8-0.6-0.8-0.6
	c-0.2-0.1-0.4,0.1-0.5,0.3C119.8,156.8,119.7,157.3,119.9,157.6z"/>
<path fill="#70613F" d="M158.5,168.8c-0.3,0.2-0.5,0.4-0.5,0.7c0,0.3,0.3,0.5,0.5,0.5c0.3,0,0.5-0.2,0.6-0.4
	c0.1-0.3-0.2-0.7-0.2-0.7C158.8,168.6,158.6,168.7,158.5,168.8z"/>
<path fill="#53422C" d="M127.2,176.5c-0.3,0-0.5,0.2-0.4,0.4c0,0.3,0.5,0.6,0.5,0.6c0.1,0.1,0.3,0,0.5,0c0.2-0.2,0.4-0.4,0.2-0.7
	C127.8,176.6,127.5,176.4,127.2,176.5z"/>
<path fill="#53422C" d="M122.8,167.1c-0.3,0-0.5,0.2-0.4,0.4c0,0.3,0.5,0.6,0.5,0.6c0.1,0.1,0.3,0,0.5,0c0.2-0.2,0.4-0.4,0.2-0.7
	C123.4,167.2,123,167.1,122.8,167.1z"/>
<path fill="#53422C" d="M133.4,168.1c-0.3,0-0.5,0.2-0.4,0.4c0,0.3,0.5,0.6,0.5,0.6c0.1,0.1,0.3,0,0.5,0c0.2-0.2,0.4-0.4,0.2-0.7
	C134,168.2,133.7,168.1,133.4,168.1z"/>
<path fill="#53422C" d="M113.2,167.5c0.2-0.2,0.4-0.4,0.2-0.7c-0.1-0.2-0.5-0.4-0.7-0.4c-0.3,0-0.5,0.2-0.4,0.4
	c0,0.3,0.5,0.6,0.5,0.6C112.9,167.7,113.1,167.6,113.2,167.5z"/>
<path fill="#53422C" d="M104.2,162c-0.3,0-0.5,0.2-0.4,0.4c0,0.3,0.5,0.6,0.5,0.6c0.1,0.1,0.3,0,0.5,0c0.2-0.2,0.4-0.4,0.2-0.7
	C104.8,162.2,104.5,162,104.2,162z"/>
<path fill="#53422C" d="M116.6,162.5c0.1,0,0.3,0,0.3-0.1c0.2-0.2,0.4-0.4,0.2-0.7c-0.1-0.2-0.5-0.4-0.7-0.4c-0.1,0-0.2,0-0.2,0.1h0
	c-0.3,0-0.5,0.2-0.4,0.4c0,0.3,0.5,0.6,0.5,0.6C116.3,162.6,116.5,162.6,116.6,162.5z"/>
<path fill="#53422C" d="M147.5,163.7c0,0.3,0.5,0.6,0.5,0.6c0.1,0.1,0.3,0,0.5,0c0.2-0.2,0.4-0.4,0.2-0.7c-0.1-0.2-0.5-0.4-0.7-0.4
	C147.6,163.3,147.4,163.5,147.5,163.7z"/>
<path fill="#53422C" d="M154.7,166.8c0.2-0.2,0.4-0.4,0.2-0.7c-0.1-0.2-0.5-0.4-0.7-0.4c-0.3,0-0.5,0.2-0.4,0.4
	c0,0.3,0.5,0.6,0.5,0.6C154.4,167,154.6,166.9,154.7,166.8z"/>
<path fill="#53422C" d="M153,170.5c-0.3,0-0.5,0.2-0.4,0.4c0,0.3,0.5,0.6,0.5,0.6c0.1,0.1,0.3,0,0.5,0c0.2-0.2,0.4-0.4,0.2-0.7
	C153.6,170.7,153.3,170.5,153,170.5z"/>
<path fill="#53422C" d="M157.8,174.6c-0.3,0-0.5,0.2-0.4,0.4c0,0.3,0.5,0.6,0.5,0.6c0.1,0.1,0.3,0,0.5,0c0.2-0.2,0.4-0.4,0.2-0.7
	C158.4,174.7,158.1,174.6,157.8,174.6z"/>
<path fill="#53422C" d="M154.2,154.1c0.1,0.1,0.3,0,0.5,0c0.2-0.2,0.4-0.4,0.2-0.7c-0.1-0.2-0.5-0.4-0.7-0.4c-0.3,0-0.5,0.2-0.4,0.4
	C153.7,153.7,154.2,154.1,154.2,154.1z"/>
<path fill="#53422C" d="M126.2,154c0,0.3,0.5,0.6,0.5,0.6c0.1,0.1,0.3,0,0.5,0c0.2-0.2,0.4-0.4,0.2-0.7c-0.1-0.2-0.5-0.4-0.7-0.4
	C126.3,153.6,126.2,153.8,126.2,154z"/>
<path fill="#53422C" d="M120.9,151.5c-0.3,0-0.5,0.2-0.4,0.4c0,0.3,0.5,0.6,0.5,0.6c0.1,0.1,0.3,0,0.5,0c0.2-0.2,0.4-0.4,0.2-0.7
	C121.6,151.6,121.2,151.5,120.9,151.5z"/>
<path fill="#53422C" d="M113.8,151.4c-0.3,0-0.5,0.2-0.4,0.4c0,0.3,0.5,0.6,0.5,0.6c0.1,0.1,0.3,0,0.5,0c0.2-0.2,0.4-0.4,0.2-0.7
	C114.4,151.6,114.1,151.4,113.8,151.4z"/>
<path fill="#53422C" d="M104.1,172c-0.3,0-0.5,0.2-0.4,0.4c0,0.3,0.5,0.6,0.5,0.6c0.1,0.1,0.3,0,0.5,0c0.2-0.2,0.4-0.4,0.2-0.7
	C104.7,172.1,104.4,172,104.1,172z"/>
<path fill="#4E473A" d="M143.7,151.6c-0.3,0-0.6,0.2-0.7,0.5c-0.1,0.3,0,0.5,0.2,0.6c0.2,0.1,0.8-0.1,0.8-0.1
	c0.2-0.1,0.2-0.3,0.2-0.4C144.1,151.9,144,151.6,143.7,151.6z"/>
<path fill="#4E473A" d="M160.3,160.5c0-0.3-0.2-0.5-0.5-0.5c-0.3,0-0.6,0.2-0.7,0.5c-0.1,0.3,0,0.5,0.2,0.6c0.2,0.1,0.8-0.1,0.8-0.1
	C160.3,160.9,160.3,160.7,160.3,160.5z"/>
<path fill="#4E473A" d="M145.9,176c-0.3,0-0.6,0.2-0.7,0.5c-0.1,0.3,0,0.5,0.2,0.6c0.2,0.1,0.8-0.1,0.8-0.1c0.2-0.1,0.2-0.3,0.2-0.4
	C146.4,176.3,146.2,176,145.9,176z"/>
<path fill="#4E473A" d="M135.1,177.8c-0.3,0-0.6,0.2-0.7,0.5c-0.1,0.3,0,0.5,0.2,0.6c0.2,0.1,0.8-0.1,0.8-0.1
	c0.2-0.1,0.2-0.3,0.2-0.4C135.5,178.1,135.4,177.8,135.1,177.8z"/>
<path fill="#4E473A" d="M127.1,158.2c0-0.3-0.2-0.5-0.5-0.5c-0.3,0-0.6,0.2-0.7,0.5c-0.1,0.3,0,0.5,0.2,0.6c0.2,0.1,0.8-0.1,0.8-0.1
	C127.1,158.6,127.1,158.4,127.1,158.2z"/>
<g id="body_x5F_back">
	<g id="gravel_1_">
	</g>
</g>
<g id="water" opacity="0.7">
</g>
<g id="sand">
</g>
<g id="gravel_x5F_top">
</g>
<g id="gravel_x5F_bottom">
	<g id="Layer_11">
	</g>
</g>
<g id="concrete_x5F_body">
	<g id="gravel">
	</g>
</g>
<g id="bsfm_x5F_nose_x5F_side">
</g>
<g id="eye">
</g>
<g id="white_x5F_hose">
</g>
<g id="diffuser">
</g>
<g id="Lid">
</g>
</svg>
