<?xml version="1.0" encoding="iso-8859-1"?>
<!-- Generator: Adobe Illustrator 18.1.1, SVG Export Plug-In . SVG Version: 6.00 Build 0)  -->
<svg version="1.1" xmlns="http://www.w3.org/2000/svg" xmlns:xlink="http://www.w3.org/1999/xlink" x="0px" y="0px"
	 viewBox="0 0 279.3 590.8" enable-background="new 0 0 279.3 590.8" xml:space="preserve">
<g id="Layer_1" display="none">
</g>
<g id="BSFM_copy">
	<g id="body_x5F_back_1_">
		<g id="cement_19_">
			<polygon fill="#B7BCC0" points="206.8,588.5 15.5,589.2 8.5,1.6 205.5,1.6 			"/>
			<g>
				<path d="M207.3,587.9c-22.2,0.1-44.3,0.2-66.5,0.2c-34.7,0.1-69.4,0.2-104,0.4c-5,0-9.9,0-14.9,0.1c-0.9,0-5.2,0.7-5.9,0
					c-0.4-0.3,0-5.7,0-6.7c-0.2-16.7-0.4-33.5-0.6-50.2c-0.3-28.9-0.7-57.8-1-86.8c-0.4-35.8-0.9-71.6-1.3-107.5
					c-0.4-37.7-0.9-75.4-1.3-113.2c-0.4-34.6-0.8-69.1-1.2-103.7C10.2,94.4,9.8,68,9.5,41.7c-0.2-13-0.3-26-0.5-38.9
					c0-0.6,0-1.1,0-1.7c-0.3,0.3-0.7,0.7-1,1c22,0,44,0,66,0c35.3,0,70.6,0,105.9,0c5.5,0,11,0,16.5,0c1.7,0,3.5,0,5.2,0
					c0.7,0,2.2-0.3,2.9,0c0.6,0.3,0.2-0.2,0.3,0.9c0.2,1.4,0,3,0,4.4c0,16.1,0.1,32.2,0.1,48.3c0.1,28.6,0.1,57.2,0.2,85.8
					c0.1,35.9,0.2,71.8,0.2,107.7c0.1,38,0.2,76,0.3,114c0.1,34.9,0.2,69.8,0.2,104.7c0.1,26.6,0.1,53.3,0.2,79.9
					c0,13.1,0.1,26.3,0.1,39.4c0,0.6,0,1.1,0,1.7c0,0.3,1.1-0.5,1.1-0.9c0-5.2,0-10.4,0-15.7c0-14.2-0.1-28.4-0.1-42.6
					c0-21.1-0.1-42.2-0.1-63.4c-0.1-25.7-0.1-51.3-0.2-77c-0.1-28.1-0.1-56.2-0.2-84.3c-0.1-28.4-0.1-56.8-0.2-85.1
					c-0.1-26.5-0.1-52.9-0.2-79.4c-0.1-22.5-0.1-44.9-0.2-67.4c0-16.1-0.1-32.1-0.1-48.2c0-5,0-10,0-15c0-2.5,0.4-5.5,0-7.9
					c-0.1-0.3,0-0.7,0-1c0-0.1,0-0.1-0.1-0.1c-22.3,0-44.5,0-66.8,0C103.9,1,68.6,1,33.3,1C25.2,1,17,1,8.9,1c-0.4,0-1,0.6-1,1
					C8,7.3,8,12.5,8.1,17.8C8.3,32,8.4,46.2,8.6,60.4c0.3,21.1,0.5,42.2,0.8,63.3c0.3,25.6,0.6,51.3,0.9,76.9
					c0.3,28.2,0.7,56.4,1,84.6c0.3,28.5,0.7,57,1,85.4c0.3,26.4,0.6,52.9,0.9,79.3c0.3,22.4,0.5,44.9,0.8,67.3
					c0.2,16.1,0.4,32.2,0.6,48.2c0.1,5,0.1,10.1,0.2,15.1c0,2.5-0.4,5.5,0.1,7.9c0.1,0.3,0,0.7,0,1c0,0.1,0,0.1,0.1,0.1
					c21.6-0.1,43.1-0.2,64.7-0.2c34.4-0.1,68.7-0.2,103.1-0.4c7.9,0,15.7-0.1,23.6-0.1C206.8,589.1,207.6,587.9,207.3,587.9z"/>
			</g>
		</g>
		<g id="gravel_2_">
			<g>
				<path fill="#7C7C7C" d="M84,499"/>
			</g>
			<path fill="#7C7C7C" d="M42.2,481.4c0-0.1-0.1-0.1-0.1-0.2c-0.3-0.5-0.9-0.5-1.4-0.4c0,0,0,0-0.1,0l0,0c-0.3,0.1-0.6,0.4-0.7,0.7
				c-0.4,0.6,0.1,1.6,0.8,1.6c0.3,0,0.6-0.1,0.9-0.3c0.1-0.1,0.1-0.1,0.2-0.2c0.1-0.1,0.2-0.2,0.3-0.3
				C42.4,482,42.3,481.7,42.2,481.4z"/>
			<path fill="#7C7C7C" d="M55.9,506.2c0-0.1-0.1-0.1-0.1-0.2c-0.3-0.5-0.9-0.5-1.4-0.4c0,0,0,0-0.1,0l0,0c-0.3,0.1-0.6,0.4-0.7,0.7
				c-0.4,0.6,0.1,1.6,0.8,1.6c0.3,0,0.6-0.1,0.9-0.3c0.1-0.1,0.1-0.1,0.2-0.2c0.1-0.1,0.2-0.2,0.3-0.3
				C56.1,506.8,56.1,506.5,55.9,506.2z"/>
			<path fill="#7C7C7C" d="M107.4,520.2c0-0.1-0.1-0.1-0.1-0.2c-0.3-0.5-0.9-0.5-1.4-0.4c0,0,0,0-0.1,0l0,0
				c-0.3,0.1-0.6,0.4-0.7,0.7c-0.4,0.6,0.1,1.6,0.8,1.6c0.3,0,0.6-0.1,0.9-0.3c0.1-0.1,0.1-0.1,0.2-0.2c0.1-0.1,0.2-0.2,0.3-0.3
				C107.6,520.8,107.6,520.5,107.4,520.2z"/>
			<path fill="#7C7C7C" d="M176.7,498.3c0-0.1-0.1-0.1-0.1-0.2c-0.3-0.5-0.9-0.5-1.4-0.4c0,0,0,0-0.1,0l0,0
				c-0.3,0.1-0.6,0.4-0.7,0.7c-0.4,0.6,0.1,1.6,0.8,1.6c0.3,0,0.6-0.1,0.9-0.3c0.1-0.1,0.1-0.1,0.2-0.2c0.1-0.1,0.2-0.2,0.3-0.3
				C176.9,499,176.9,498.6,176.7,498.3z"/>
			<path fill="#7C7C7C" d="M186.6,475.6c0-0.1-0.1-0.1-0.1-0.2c-0.3-0.5-0.9-0.5-1.4-0.4c0,0,0,0-0.1,0l0,0
				c-0.3,0.1-0.6,0.4-0.7,0.7c-0.4,0.6,0.1,1.6,0.8,1.6c0.3,0,0.6-0.1,0.9-0.3c0.1-0.1,0.1-0.1,0.2-0.2c0.1-0.1,0.2-0.2,0.3-0.3
				C186.8,476.2,186.8,475.8,186.6,475.6z"/>
			<path fill="#7C7C7C" d="M153.4,528.4c0-0.1-0.1-0.1-0.1-0.2c-0.3-0.5-0.9-0.5-1.4-0.4c0,0,0,0-0.1,0l0,0
				c-0.3,0.1-0.6,0.4-0.7,0.7c-0.4,0.6,0.1,1.6,0.8,1.6c0.3,0,0.6-0.1,0.9-0.3c0.1-0.1,0.1-0.1,0.2-0.2c0.1-0.1,0.2-0.2,0.3-0.3
				C153.6,529,153.6,528.7,153.4,528.4z"/>
			<path fill="#7C7C7C" d="M180.1,534.2c0-0.1-0.1-0.1-0.1-0.2c-0.3-0.5-0.9-0.5-1.4-0.4c0,0,0,0-0.1,0l0,0
				c-0.3,0.1-0.6,0.4-0.7,0.7c-0.4,0.6,0.1,1.6,0.8,1.6c0.3,0,0.6-0.1,0.9-0.3c0.1-0.1,0.1-0.1,0.2-0.2c0.1-0.1,0.2-0.2,0.3-0.3
				C180.3,534.8,180.3,534.5,180.1,534.2z"/>
			<path fill="#7C7C7C" d="M171.7,551c0-0.1-0.1-0.1-0.1-0.2c-0.3-0.5-0.9-0.5-1.4-0.4c0,0,0,0-0.1,0l0,0c-0.3,0.1-0.6,0.4-0.7,0.7
				c-0.4,0.6,0.1,1.6,0.8,1.6c0.3,0,0.6-0.1,0.9-0.3c0.1-0.1,0.1-0.1,0.2-0.2c0.1-0.1,0.2-0.2,0.3-0.3
				C171.9,551.7,171.8,551.3,171.7,551z"/>
			<path fill="#7C7C7C" d="M131.9,548.4c0-0.1-0.1-0.1-0.1-0.2c-0.3-0.5-0.9-0.5-1.4-0.4c0,0,0,0-0.1,0l0,0
				c-0.3,0.1-0.6,0.4-0.7,0.7c-0.4,0.6,0.1,1.6,0.8,1.6c0.3,0,0.6-0.1,0.9-0.3c0.1-0.1,0.1-0.1,0.2-0.2c0.1-0.1,0.2-0.2,0.3-0.3
				C132.1,549.1,132.1,548.7,131.9,548.4z"/>
			<path fill="#7C7C7C" d="M90.2,560.4c0-0.1-0.1-0.1-0.1-0.2c-0.3-0.5-0.9-0.5-1.4-0.4c0,0,0,0-0.1,0l0,0c-0.3,0.1-0.6,0.4-0.7,0.7
				c-0.4,0.6,0.1,1.6,0.8,1.6c0.3,0,0.6-0.1,0.9-0.3c0.1-0.1,0.1-0.1,0.2-0.2c0.1-0.1,0.2-0.2,0.3-0.3
				C90.4,561.1,90.4,560.7,90.2,560.4z"/>
			<path fill="#7C7C7C" d="M54.4,551.2c0-0.1-0.1-0.1-0.1-0.2c-0.3-0.5-0.9-0.5-1.4-0.4c0,0,0,0-0.1,0l0,0c-0.3,0.1-0.6,0.4-0.7,0.7
				c-0.4,0.6,0.1,1.6,0.8,1.6c0.3,0,0.6-0.1,0.9-0.3c0.1-0.1,0.1-0.1,0.2-0.2c0.1-0.1,0.2-0.2,0.3-0.3
				C54.6,551.8,54.5,551.5,54.4,551.2z"/>
			<path fill="#7C7C7C" d="M54.2,532.4c0-0.1-0.1-0.1-0.1-0.2c-0.3-0.5-0.9-0.5-1.4-0.4c0,0,0,0-0.1,0l0,0c-0.3,0.1-0.6,0.4-0.7,0.7
				c-0.4,0.6,0.1,1.6,0.8,1.6c0.3,0,0.6-0.1,0.9-0.3c0.1-0.1,0.1-0.1,0.2-0.2c0.1-0.1,0.2-0.2,0.3-0.3
				C54.4,533.1,54.4,532.7,54.2,532.4z"/>
			<path fill="#7C7C7C" d="M117.9,479.2c0-0.1-0.1-0.1-0.1-0.2c-0.3-0.5-0.9-0.5-1.4-0.4c0,0,0,0-0.1,0l0,0
				c-0.3,0.1-0.6,0.4-0.7,0.7c-0.4,0.6,0.1,1.6,0.8,1.6c0.3,0,0.6-0.1,0.9-0.3c0.1-0.1,0.1-0.1,0.2-0.2c0.1-0.1,0.2-0.2,0.3-0.3
				C118.1,479.8,118.1,479.5,117.9,479.2z"/>
			<path fill="#7C7C7C" d="M98.7,502.1c0,0,0-0.1,0-0.1c-0.1-0.2-0.4-0.3-0.7-0.2c0,0,0,0,0,0l0,0c-0.2,0.1-0.3,0.2-0.3,0.4
				c-0.2,0.3,0,0.8,0.4,0.8c0.2,0,0.3-0.1,0.4-0.2c0,0,0.1-0.1,0.1-0.1c0.1,0,0.1-0.1,0.1-0.1C98.8,502.4,98.8,502.2,98.7,502.1z"/>
			<path fill="#7C7C7C" d="M94.2,506.1c0,0,0-0.1,0-0.1c-0.1-0.2-0.4-0.3-0.7-0.2c0,0,0,0,0,0l0,0c-0.2,0.1-0.3,0.2-0.3,0.4
				c-0.2,0.3,0,0.8,0.4,0.8c0.2,0,0.3-0.1,0.4-0.2c0,0,0.1-0.1,0.1-0.1c0.1,0,0.1-0.1,0.1-0.1C94.3,506.4,94.3,506.3,94.2,506.1z"/>
			<path fill="#7C7C7C" d="M66.2,484.6c0,0,0-0.1,0-0.1c-0.1-0.2-0.4-0.3-0.7-0.2c0,0,0,0,0,0l0,0c-0.2,0.1-0.3,0.2-0.3,0.4
				c-0.2,0.3,0,0.8,0.4,0.8c0.2,0,0.3-0.1,0.4-0.2c0,0,0.1-0.1,0.1-0.1c0.1,0,0.1-0.1,0.1-0.1C66.3,484.9,66.3,484.8,66.2,484.6z"/>
			<path fill="#7C7C7C" d="M55.7,489.4c0,0,0-0.1,0-0.1c-0.1-0.2-0.4-0.3-0.7-0.2c0,0,0,0,0,0l0,0c-0.2,0.1-0.3,0.2-0.3,0.4
				c-0.2,0.3,0,0.8,0.4,0.8c0.2,0,0.3-0.1,0.4-0.2c0,0,0.1-0.1,0.1-0.1c0.1,0,0.1-0.1,0.1-0.1C55.8,489.7,55.8,489.5,55.7,489.4z"/>
			<path fill="#7C7C7C" d="M68,526.3c0,0,0-0.1,0-0.1c-0.1-0.2-0.4-0.3-0.7-0.2c0,0,0,0,0,0l0,0c-0.2,0.1-0.3,0.2-0.3,0.4
				c-0.2,0.3,0,0.8,0.4,0.8c0.2,0,0.3-0.1,0.4-0.2c0,0,0.1-0.1,0.1-0.1c0.1,0,0.1-0.1,0.1-0.1C68.1,526.6,68.1,526.5,68,526.3z"/>
			<path fill="#7C7C7C" d="M109.7,524.4c0,0,0-0.1,0-0.1c-0.1-0.2-0.4-0.3-0.7-0.2c0,0,0,0,0,0l0,0c-0.2,0.1-0.3,0.2-0.3,0.4
				c-0.2,0.3,0,0.8,0.4,0.8c0.2,0,0.3-0.1,0.4-0.2c0,0,0.1-0.1,0.1-0.1c0.1,0,0.1-0.1,0.1-0.1C109.8,524.7,109.8,524.5,109.7,524.4z
				"/>
			<path fill="#7C7C7C" d="M127,480.6c0,0,0-0.1,0-0.1c-0.1-0.2-0.4-0.3-0.7-0.2c0,0,0,0,0,0l0,0c-0.2,0.1-0.3,0.2-0.3,0.4
				c-0.2,0.3,0,0.8,0.4,0.8c0.2,0,0.3-0.1,0.4-0.2c0,0,0.1-0.1,0.1-0.1c0.1,0,0.1-0.1,0.1-0.1C127.1,480.9,127.1,480.7,127,480.6z"
				/>
			<path fill="#7C7C7C" d="M139.5,533.6c0,0,0-0.1,0-0.1c-0.1-0.2-0.4-0.3-0.7-0.2c0,0,0,0,0,0l0,0c-0.2,0.1-0.3,0.2-0.3,0.4
				c-0.2,0.3,0,0.8,0.4,0.8c0.2,0,0.3-0.1,0.4-0.2c0,0,0.1-0.1,0.1-0.1c0.1,0,0.1-0.1,0.1-0.1C139.6,533.9,139.6,533.8,139.5,533.6z
				"/>
			<path fill="#7C7C7C" d="M162.8,503.2c0,0,0-0.1,0-0.1c-0.1-0.2-0.4-0.3-0.7-0.2c0,0,0,0,0,0l0,0c-0.2,0.1-0.3,0.2-0.3,0.4
				c-0.2,0.3,0,0.8,0.4,0.8c0.2,0,0.3-0.1,0.4-0.2c0,0,0.1-0.1,0.1-0.1c0.1,0,0.1-0.1,0.1-0.1C162.9,503.5,162.9,503.3,162.8,503.2z
				"/>
			<path fill="#7C7C7C" d="M167.1,498.3c0,0,0-0.1,0-0.1c-0.1-0.2-0.4-0.3-0.7-0.2c0,0,0,0,0,0l0,0c-0.2,0.1-0.3,0.2-0.3,0.4
				c-0.2,0.3,0,0.8,0.4,0.8c0.2,0,0.3-0.1,0.4-0.2c0,0,0.1-0.1,0.1-0.1c0.1,0,0.1-0.1,0.1-0.1C167.2,498.6,167.1,498.4,167.1,498.3z
				"/>
			<path fill="#7C7C7C" d="M177.5,508.1c0,0,0-0.1,0-0.1c-0.1-0.2-0.4-0.3-0.7-0.2c0,0,0,0,0,0l0,0c-0.2,0.1-0.3,0.2-0.3,0.4
				c-0.2,0.3,0,0.8,0.4,0.8c0.2,0,0.3-0.1,0.4-0.2c0,0,0.1-0.1,0.1-0.1c0.1,0,0.1-0.1,0.1-0.1C177.6,508.4,177.6,508.2,177.5,508.1z
				"/>
			<path fill="#7C7C7C" d="M139.3,496.7c0,0,0-0.1,0-0.1c-0.1-0.2-0.4-0.3-0.7-0.2c0,0,0,0,0,0l0,0c-0.2,0.1-0.3,0.2-0.3,0.4
				c-0.2,0.3,0,0.8,0.4,0.8c0.2,0,0.3-0.1,0.4-0.2c0,0,0.1-0.1,0.1-0.1c0.1,0,0.1-0.1,0.1-0.1C139.4,497,139.4,496.8,139.3,496.7z"
				/>
			<path fill="#7C7C7C" d="M132.7,512.1c0,0,0-0.1,0-0.1c-0.1-0.2-0.4-0.3-0.7-0.2c0,0,0,0,0,0l0,0c-0.2,0.1-0.3,0.2-0.3,0.4
				c-0.2,0.3,0,0.8,0.4,0.8c0.2,0,0.3-0.1,0.4-0.2c0,0,0.1-0.1,0.1-0.1c0.1,0,0.1-0.1,0.1-0.1C132.8,512.4,132.8,512.2,132.7,512.1z
				"/>
			<path fill="#7C7C7C" d="M187.1,485.8c0,0,0-0.1,0-0.1c-0.1-0.2-0.4-0.3-0.7-0.2c0,0,0,0,0,0l0,0c-0.2,0.1-0.3,0.2-0.3,0.4
				c-0.2,0.3,0,0.8,0.4,0.8c0.2,0,0.3-0.1,0.4-0.2c0,0,0.1-0.1,0.1-0.1c0.1,0,0.1-0.1,0.1-0.1C187.2,486.1,187.1,485.9,187.1,485.8z
				"/>
			<path fill="#7C7C7C" d="M74.5,543.1c0,0,0-0.1,0-0.1c-0.1-0.2-0.4-0.3-0.7-0.2c0,0,0,0,0,0l0,0c-0.2,0.1-0.3,0.2-0.3,0.4
				c-0.2,0.3,0,0.8,0.4,0.8c0.2,0,0.3-0.1,0.4-0.2c0,0,0.1-0.1,0.1-0.1c0.1,0,0.1-0.1,0.1-0.1C74.6,543.4,74.6,543.3,74.5,543.1z"/>
			<path fill="#7C7C7C" d="M105.5,549.4c0,0,0-0.1,0-0.1c-0.1-0.2-0.4-0.3-0.7-0.2c0,0,0,0,0,0l0,0c-0.2,0.1-0.3,0.2-0.3,0.4
				c-0.2,0.3,0,0.8,0.4,0.8c0.2,0,0.3-0.1,0.4-0.2c0,0,0.1-0.1,0.1-0.1c0.1,0,0.1-0.1,0.1-0.1C105.6,549.7,105.6,549.5,105.5,549.4z
				"/>
			<path fill="#7C7C7C" d="M126.7,558.5c0,0,0-0.1,0-0.1c-0.1-0.2-0.4-0.3-0.7-0.2c0,0,0,0,0,0l0,0c-0.2,0.1-0.3,0.2-0.3,0.4
				c-0.2,0.3,0,0.8,0.4,0.8c0.2,0,0.3-0.1,0.4-0.2c0,0,0.1-0.1,0.1-0.1c0.1,0,0.1-0.1,0.1-0.1C126.8,558.8,126.7,558.6,126.7,558.5z
				"/>
			<path fill="#7C7C7C" d="M108.7,508.1c0,0,0-0.1,0-0.1c-0.1-0.2-0.4-0.3-0.7-0.2c0,0,0,0,0,0l0,0c-0.2,0.1-0.3,0.2-0.3,0.4
				c-0.2,0.3,0,0.8,0.4,0.8c0.2,0,0.3-0.1,0.4-0.2c0,0,0.1-0.1,0.1-0.1c0.1,0,0.1-0.1,0.1-0.1C108.8,508.4,108.8,508.2,108.7,508.1z
				"/>
			<path fill="#7C7C7C" d="M156.1,543.8c0,0,0-0.1,0-0.1c-0.1-0.2-0.4-0.3-0.7-0.2c0,0,0,0,0,0l0,0c-0.2,0.1-0.3,0.2-0.3,0.4
				c-0.2,0.3,0,0.8,0.4,0.8c0.2,0,0.3-0.1,0.4-0.2c0,0,0.1-0.1,0.1-0.1c0.1,0,0.1-0.1,0.1-0.1C156.2,544.1,156.1,543.9,156.1,543.8z
				"/>
			<path fill="#7C7C7C" d="M180.5,542.1c0,0,0-0.1,0-0.1c-0.1-0.2-0.4-0.3-0.7-0.2c0,0,0,0,0,0l0,0c-0.2,0.1-0.3,0.2-0.3,0.4
				c-0.2,0.3,0,0.8,0.4,0.8c0.2,0,0.3-0.1,0.4-0.2c0,0,0.1-0.1,0.1-0.1c0.1,0,0.1-0.1,0.1-0.1C180.6,542.4,180.6,542.3,180.5,542.1z
				"/>
			<path fill="#7C7C7C" d="M183.3,547c0,0,0-0.1,0-0.1c-0.1-0.2-0.4-0.3-0.7-0.2c0,0,0,0,0,0l0,0c-0.2,0.1-0.3,0.2-0.3,0.4
				c-0.2,0.3,0,0.8,0.4,0.8c0.2,0,0.3-0.1,0.4-0.2c0,0,0.1-0.1,0.1-0.1c0.1,0,0.1-0.1,0.1-0.1C183.4,547.3,183.4,547.1,183.3,547z"
				/>
			<path fill="#7C7C7C" d="M51.6,541c0,0,0-0.1,0-0.1c-0.1-0.2-0.4-0.3-0.7-0.2c0,0,0,0,0,0l0,0c-0.2,0.1-0.3,0.2-0.3,0.4
				c-0.2,0.3,0,0.8,0.4,0.8c0.2,0,0.3-0.1,0.4-0.2c0,0,0.1-0.1,0.1-0.1c0.1,0,0.1-0.1,0.1-0.1C51.7,541.3,51.6,541.1,51.6,541z"/>
			<path fill="#7C7C7C" d="M46.1,552.3c0,0,0-0.1,0-0.1c-0.1-0.2-0.4-0.3-0.7-0.2c0,0,0,0,0,0l0,0c-0.2,0.1-0.3,0.2-0.3,0.4
				c-0.2,0.3,0,0.8,0.4,0.8c0.2,0,0.3-0.1,0.4-0.2c0,0,0.1-0.1,0.1-0.1c0.1,0,0.1-0.1,0.1-0.1C46.2,552.6,46.1,552.4,46.1,552.3z"/>
			<path fill="#7C7C7C" d="M71.1,564c0,0,0-0.1,0-0.1c-0.1-0.2-0.4-0.3-0.7-0.2c0,0,0,0,0,0l0,0c-0.2,0.1-0.3,0.2-0.3,0.4
				c-0.2,0.3,0,0.8,0.4,0.8c0.2,0,0.3-0.1,0.4-0.2c0,0,0.1-0.1,0.1-0.1c0.1,0,0.1-0.1,0.1-0.1C71.2,564.3,71.1,564.1,71.1,564z"/>
			<path fill="#7C7C7C" d="M86.7,526.9c0,0,0-0.1,0-0.1c-0.1-0.2-0.4-0.3-0.7-0.2c0,0,0,0,0,0l0,0c-0.2,0.1-0.3,0.2-0.3,0.4
				c-0.2,0.3,0,0.8,0.4,0.8c0.2,0,0.3-0.1,0.4-0.2c0,0,0.1-0.1,0.1-0.1c0.1,0,0.1-0.1,0.1-0.1C86.8,527.2,86.8,527,86.7,526.9z"/>
			<path fill="#7C7C7C" d="M91.6,481.3c0,0,0-0.1,0-0.1c-0.1-0.2-0.4-0.3-0.7-0.2c0,0,0,0,0,0l0,0c-0.2,0.1-0.3,0.2-0.3,0.4
				c-0.2,0.3,0,0.8,0.4,0.8c0.2,0,0.3-0.1,0.4-0.2c0,0,0.1-0.1,0.1-0.1c0.1,0,0.1-0.1,0.1-0.1C91.7,481.6,91.6,481.4,91.6,481.3z"/>
			<path fill="#7C7C7C" d="M163.2,474.9c0,0,0-0.1,0-0.1c-0.1-0.2-0.4-0.3-0.7-0.2c0,0,0,0,0,0l0,0c-0.2,0.1-0.3,0.2-0.3,0.4
				c-0.2,0.3,0,0.8,0.4,0.8c0.2,0,0.3-0.1,0.4-0.2c0,0,0.1-0.1,0.1-0.1c0.1,0,0.1-0.1,0.1-0.1C163.3,475.2,163.3,475,163.2,474.9z"
				/>
			<path fill="#7C7C7C" d="M159.8,488.8c0,0,0-0.1,0-0.1c-0.1-0.2-0.4-0.3-0.7-0.2c0,0,0,0,0,0l0,0c-0.2,0.1-0.3,0.2-0.3,0.4
				c-0.2,0.3,0,0.8,0.4,0.8c0.2,0,0.3-0.1,0.4-0.2c0,0,0.1-0.1,0.1-0.1c0.1,0,0.1-0.1,0.1-0.1C159.9,489.1,159.9,488.9,159.8,488.8z
				"/>
			<path fill="#7C7C7C" d="M147.8,560.8c0,0,0-0.1,0-0.1c-0.1-0.2-0.4-0.3-0.7-0.2c0,0,0,0,0,0l0,0c-0.2,0.1-0.3,0.2-0.3,0.4
				c-0.2,0.3,0,0.8,0.4,0.8c0.2,0,0.3-0.1,0.4-0.2c0,0,0.1-0.1,0.1-0.1c0.1,0,0.1-0.1,0.1-0.1C147.9,561.1,147.9,560.9,147.8,560.8z
				"/>
			<path fill="#7C7C7C" d="M178.9,564c0,0,0-0.1,0-0.1c-0.1-0.2-0.4-0.3-0.7-0.2c0,0,0,0,0,0l0,0c-0.2,0.1-0.3,0.2-0.3,0.4
				c-0.2,0.3,0,0.8,0.4,0.8c0.2,0,0.3-0.1,0.4-0.2c0,0,0.1-0.1,0.1-0.1c0.1,0,0.1-0.1,0.1-0.1C179,564.3,179,564.1,178.9,564z"/>
			<path fill="#7C7C7C" d="M89.3,541.7c0,0,0-0.1,0-0.1c-0.1-0.2-0.4-0.3-0.7-0.2c0,0,0,0,0,0l0,0c-0.2,0.1-0.3,0.2-0.3,0.4
				c-0.2,0.3,0,0.8,0.4,0.8c0.2,0,0.3-0.1,0.4-0.2c0,0,0.1-0.1,0.1-0.1c0.1,0,0.1-0.1,0.1-0.1C89.4,542,89.4,541.8,89.3,541.7z"/>
			<path fill="#7C7C7C" d="M122.5,539.9c0,0,0-0.1,0-0.1c-0.1-0.2-0.4-0.3-0.7-0.2c0,0,0,0,0,0l0,0c-0.2,0.1-0.3,0.2-0.3,0.4
				c-0.2,0.3,0,0.8,0.4,0.8c0.2,0,0.3-0.1,0.4-0.2c0,0,0.1-0.1,0.1-0.1c0.1,0,0.1-0.1,0.1-0.1C122.6,540.2,122.6,540,122.5,539.9z"
				/>
			<path fill="#7C7C7C" d="M39.1,520.8c0,0,0-0.1,0-0.1c-0.1-0.2-0.4-0.3-0.7-0.2c0,0,0,0,0,0l0,0c-0.2,0.1-0.3,0.2-0.3,0.4
				c-0.2,0.3,0,0.8,0.4,0.8c0.2,0,0.3-0.1,0.4-0.2c0,0,0.1-0.1,0.1-0.1c0.1,0,0.1-0.1,0.1-0.1C39.2,521.1,39.1,520.9,39.1,520.8z"/>
			<path fill="#7C7C7C" d="M176.8,521c0,0,0-0.1,0-0.1c-0.1-0.2-0.4-0.3-0.7-0.2c0,0,0,0,0,0l0,0c-0.2,0.1-0.3,0.2-0.3,0.4
				c-0.2,0.3,0,0.8,0.4,0.8c0.2,0,0.3-0.1,0.4-0.2c0,0,0.1-0.1,0.1-0.1c0.1,0,0.1-0.1,0.1-0.1C176.9,521.3,176.9,521.1,176.8,521z"
				/>
			<path fill="#7C7C7C" d="M75.6,473.5c0,0,0-0.1,0-0.1c-0.1-0.2-0.4-0.3-0.7-0.2c0,0,0,0,0,0l0,0c-0.2,0.1-0.3,0.2-0.3,0.4
				c-0.2,0.3,0,0.8,0.4,0.8c0.2,0,0.3-0.1,0.4-0.2c0,0,0.1-0.1,0.1-0.1c0.1,0,0.1-0.1,0.1-0.1C75.7,473.8,75.6,473.6,75.6,473.5z"/>
			<path fill="#7C7C7C" d="M161.3,565.8c0,0,0-0.1,0-0.1c-0.1-0.2-0.4-0.3-0.7-0.2c0,0,0,0,0,0l0,0c-0.2,0.1-0.3,0.2-0.3,0.4
				c-0.2,0.3,0,0.8,0.4,0.8c0.2,0,0.3-0.1,0.4-0.2c0,0,0.1-0.1,0.1-0.1c0.1,0,0.1-0.1,0.1-0.1C161.4,566.1,161.4,565.9,161.3,565.8z
				"/>
			<path fill="#7C7C7C" d="M174.7,573.1c0,0.1-0.1,0.1-0.1,0.2c-0.3,0.5-0.9,0.5-1.4,0.4c0,0,0,0-0.1,0l0,0
				c-0.3-0.1-0.6-0.4-0.7-0.7c-0.4-0.6,0.1-1.6,0.8-1.6c0.3,0,0.6,0.1,0.9,0.3c0.1,0.1,0.1,0.1,0.2,0.2c0.1,0.1,0.2,0.2,0.3,0.3
				C174.9,572.5,174.8,572.8,174.7,573.1z"/>
			<path fill="#7C7C7C" d="M134.9,575.7c0,0.1-0.1,0.1-0.1,0.2c-0.3,0.5-0.9,0.5-1.4,0.4c0,0,0,0-0.1,0l0,0
				c-0.3-0.1-0.6-0.4-0.7-0.7c-0.4-0.6,0.1-1.6,0.8-1.6c0.3,0,0.6,0.1,0.9,0.3c0.1,0.1,0.1,0.1,0.2,0.2c0.1,0.1,0.2,0.2,0.3,0.3
				C135.1,575.1,135.1,575.4,134.9,575.7z"/>
			<path fill="#7C7C7C" d="M93.2,563.7c0,0.1-0.1,0.1-0.1,0.2c-0.3,0.5-0.9,0.5-1.4,0.4c0,0,0,0-0.1,0l0,0c-0.3-0.1-0.6-0.4-0.7-0.7
				c-0.4-0.6,0.1-1.6,0.8-1.6c0.3,0,0.6,0.1,0.9,0.3c0.1,0.1,0.1,0.1,0.2,0.2c0.1,0.1,0.2,0.2,0.3,0.3
				C93.4,563.1,93.4,563.4,93.2,563.7z"/>
			<path fill="#7C7C7C" d="M57.4,573c0,0.1-0.1,0.1-0.1,0.2c-0.3,0.5-0.9,0.5-1.4,0.4c0,0,0,0-0.1,0l0,0c-0.3-0.1-0.6-0.4-0.7-0.7
				c-0.4-0.6,0.1-1.6,0.8-1.6c0.3,0,0.6,0.1,0.9,0.3c0.1,0.1,0.1,0.1,0.2,0.2c0.1,0.1,0.2,0.2,0.3,0.3
				C57.6,572.3,57.5,572.7,57.4,573z"/>
			<path fill="#7C7C7C" d="M77.5,581c0,0,0,0.1,0,0.1c-0.1,0.2-0.4,0.3-0.7,0.2c0,0,0,0,0,0l0,0c-0.2-0.1-0.3-0.2-0.3-0.4
				c-0.2-0.3,0-0.8,0.4-0.8c0.2,0,0.3,0.1,0.4,0.2c0,0,0.1,0.1,0.1,0.1c0.1,0,0.1,0.1,0.1,0.1C77.6,580.7,77.6,580.9,77.5,581z"/>
			<path fill="#7C7C7C" d="M108.5,574.8c0,0,0,0.1,0,0.1c-0.1,0.2-0.4,0.3-0.7,0.2c0,0,0,0,0,0l0,0c-0.2-0.1-0.3-0.2-0.3-0.4
				c-0.2-0.3,0-0.8,0.4-0.8c0.2,0,0.3,0.1,0.4,0.2c0,0,0.1,0.1,0.1,0.1c0.1,0,0.1,0.1,0.1,0.1C108.6,574.5,108.6,574.6,108.5,574.8z
				"/>
			<path fill="#7C7C7C" d="M129.7,565.7c0,0,0,0.1,0,0.1c-0.1,0.2-0.4,0.3-0.7,0.2c0,0,0,0,0,0l0,0c-0.2-0.1-0.3-0.2-0.3-0.4
				c-0.2-0.3,0-0.8,0.4-0.8c0.2,0,0.3,0.1,0.4,0.2c0,0,0.1,0.1,0.1,0.1c0.1,0,0.1,0.1,0.1,0.1C129.8,565.4,129.7,565.5,129.7,565.7z
				"/>
			<path fill="#7C7C7C" d="M159.1,580.4c0,0,0,0.1,0,0.1c-0.1,0.2-0.4,0.3-0.7,0.2c0,0,0,0,0,0l0,0c-0.2-0.1-0.3-0.2-0.3-0.4
				c-0.2-0.3,0-0.8,0.4-0.8c0.2,0,0.3,0.1,0.4,0.2c0,0,0.1,0.1,0.1,0.1c0.1,0,0.1,0.1,0.1,0.1C159.2,580.1,159.1,580.3,159.1,580.4z
				"/>
			<path fill="#7C7C7C" d="M183.5,582c0,0,0,0.1,0,0.1c-0.1,0.2-0.4,0.3-0.7,0.2c0,0,0,0,0,0l0,0c-0.2-0.1-0.3-0.2-0.3-0.4
				c-0.2-0.3,0-0.8,0.4-0.8c0.2,0,0.3,0.1,0.4,0.2c0,0,0.1,0.1,0.1,0.1c0.1,0,0.1,0.1,0.1,0.1C183.6,581.7,183.6,581.9,183.5,582z"
				/>
			<path fill="#7C7C7C" d="M186.3,577.1c0,0,0,0.1,0,0.1c-0.1,0.2-0.4,0.3-0.7,0.2c0,0,0,0,0,0l0,0c-0.2-0.1-0.3-0.2-0.3-0.4
				c-0.2-0.3,0-0.8,0.4-0.8c0.2,0,0.3,0.1,0.4,0.2c0,0,0.1,0.1,0.1,0.1c0.1,0,0.1,0.1,0.1,0.1C186.4,576.8,186.4,577,186.3,577.1z"
				/>
			<path fill="#7C7C7C" d="M54.6,583.1c0,0,0,0.1,0,0.1c-0.1,0.2-0.4,0.3-0.7,0.2c0,0,0,0,0,0l0,0c-0.2-0.1-0.3-0.2-0.3-0.4
				c-0.2-0.3,0-0.8,0.4-0.8c0.2,0,0.3,0.1,0.4,0.2c0,0,0.1,0.1,0.1,0.1c0.1,0,0.1,0.1,0.1,0.1C54.7,582.8,54.6,583,54.6,583.1z"/>
			<path fill="#7C7C7C" d="M49.1,571.9c0,0,0,0.1,0,0.1c-0.1,0.2-0.4,0.3-0.7,0.2c0,0,0,0,0,0l0,0c-0.2-0.1-0.3-0.2-0.3-0.4
				c-0.2-0.3,0-0.8,0.4-0.8c0.2,0,0.3,0.1,0.4,0.2c0,0,0.1,0.1,0.1,0.1c0.1,0,0.1,0.1,0.1,0.1C49.2,571.6,49.1,571.8,49.1,571.9z"/>
			<path fill="#7C7C7C" d="M74.1,560.1c0,0,0,0.1,0,0.1c-0.1,0.2-0.4,0.3-0.7,0.2c0,0,0,0,0,0l0,0c-0.2-0.1-0.3-0.2-0.3-0.4
				c-0.2-0.3,0-0.8,0.4-0.8c0.2,0,0.3,0.1,0.4,0.2c0,0,0.1,0.1,0.1,0.1c0.1,0,0.1,0.1,0.1,0.1C74.2,559.8,74.1,560,74.1,560.1z"/>
			<path fill="#7C7C7C" d="M150.8,563.4c0,0,0,0.1,0,0.1c-0.1,0.2-0.4,0.3-0.7,0.2c0,0,0,0,0,0l0,0c-0.2-0.1-0.3-0.2-0.3-0.4
				c-0.2-0.3,0-0.8,0.4-0.8c0.2,0,0.3,0.1,0.4,0.2c0,0,0.1,0.1,0.1,0.1c0.1,0,0.1,0.1,0.1,0.1C150.9,563.1,150.9,563.3,150.8,563.4z
				"/>
			<path fill="#7C7C7C" d="M181.9,560.2c0,0,0,0.1,0,0.1c-0.1,0.2-0.4,0.3-0.7,0.2c0,0,0,0,0,0l0,0c-0.2-0.1-0.3-0.2-0.3-0.4
				c-0.2-0.3,0-0.8,0.4-0.8c0.2,0,0.3,0.1,0.4,0.2c0,0,0.1,0.1,0.1,0.1c0.1,0,0.1,0.1,0.1,0.1C182,559.9,182,560,181.9,560.2z"/>
			<path fill="#7C7C7C" d="M92.3,582.5c0,0,0,0.1,0,0.1c-0.1,0.2-0.4,0.3-0.7,0.2c0,0,0,0,0,0l0,0c-0.2-0.1-0.3-0.2-0.3-0.4
				c-0.2-0.3,0-0.8,0.4-0.8c0.2,0,0.3,0.1,0.4,0.2c0,0,0.1,0.1,0.1,0.1c0.1,0,0.1,0.1,0.1,0.1C92.4,582.1,92.4,582.3,92.3,582.5z"/>
			<path fill="#7C7C7C" d="M125.5,584.3c0,0,0,0.1,0,0.1c-0.1,0.2-0.4,0.3-0.7,0.2c0,0,0,0,0,0l0,0c-0.2-0.1-0.3-0.2-0.3-0.4
				c-0.2-0.3,0-0.8,0.4-0.8c0.2,0,0.3,0.1,0.4,0.2c0,0,0.1,0.1,0.1,0.1c0.1,0,0.1,0.1,0.1,0.1C125.6,584,125.6,584.1,125.5,584.3z"
				/>
			<path fill="#7C7C7C" d="M164.3,558.4c0,0,0,0.1,0,0.1c-0.1,0.2-0.4,0.3-0.7,0.2c0,0,0,0,0,0l0,0c-0.2-0.1-0.3-0.2-0.3-0.4
				c-0.2-0.3,0-0.8,0.4-0.8c0.2,0,0.3,0.1,0.4,0.2c0,0,0.1,0.1,0.1,0.1c0.1,0,0.1,0.1,0.1,0.1C164.4,558.1,164.4,558.3,164.3,558.4z
				"/>
			<g>
				<path fill="#7C7C7C" d="M84,455.8"/>
			</g>
			<path fill="#7C7C7C" d="M42.2,473.4c0,0.1-0.1,0.1-0.1,0.2c-0.3,0.5-0.9,0.5-1.4,0.4c0,0,0,0-0.1,0l0,0c-0.3-0.1-0.6-0.4-0.7-0.7
				c-0.4-0.6,0.1-1.6,0.8-1.6c0.3,0,0.6,0.1,0.9,0.3c0.1,0.1,0.1,0.1,0.2,0.2c0.1,0.1,0.2,0.2,0.3,0.3
				C42.4,472.8,42.3,473.1,42.2,473.4z"/>
			<path fill="#7C7C7C" d="M55.9,448.6c0,0.1-0.1,0.1-0.1,0.2c-0.3,0.5-0.9,0.5-1.4,0.4c0,0,0,0-0.1,0l0,0c-0.3-0.1-0.6-0.4-0.7-0.7
				c-0.4-0.6,0.1-1.6,0.8-1.6c0.3,0,0.6,0.1,0.9,0.3c0.1,0.1,0.1,0.1,0.2,0.2c0.1,0.1,0.2,0.2,0.3,0.3
				C56.1,448,56.1,448.3,55.9,448.6z"/>
			<path fill="#7C7C7C" d="M107.4,434.6c0,0.1-0.1,0.1-0.1,0.2c-0.3,0.5-0.9,0.5-1.4,0.4c0,0,0,0-0.1,0l0,0
				c-0.3-0.1-0.6-0.4-0.7-0.7c-0.4-0.6,0.1-1.6,0.8-1.6c0.3,0,0.6,0.1,0.9,0.3c0.1,0.1,0.1,0.1,0.2,0.2c0.1,0.1,0.2,0.2,0.3,0.3
				C107.6,434,107.6,434.3,107.4,434.6z"/>
			<path fill="#7C7C7C" d="M176.7,456.5c0,0.1-0.1,0.1-0.1,0.2c-0.3,0.5-0.9,0.5-1.4,0.4c0,0,0,0-0.1,0l0,0
				c-0.3-0.1-0.6-0.4-0.7-0.7c-0.4-0.6,0.1-1.6,0.8-1.6c0.3,0,0.6,0.1,0.9,0.3c0.1,0.1,0.1,0.1,0.2,0.2c0.1,0.1,0.2,0.2,0.3,0.3
				C176.9,455.8,176.9,456.2,176.7,456.5z"/>
			<path fill="#7C7C7C" d="M186.6,479.2c0,0.1-0.1,0.1-0.1,0.2c-0.3,0.5-0.9,0.5-1.4,0.4c0,0,0,0-0.1,0l0,0
				c-0.3-0.1-0.6-0.4-0.7-0.7c-0.4-0.6,0.1-1.6,0.8-1.6c0.3,0,0.6,0.1,0.9,0.3c0.1,0.1,0.1,0.1,0.2,0.2c0.1,0.1,0.2,0.2,0.3,0.3
				C186.8,478.6,186.8,478.9,186.6,479.2z"/>
			<path fill="#7C7C7C" d="M153.4,426.4c0,0.1-0.1,0.1-0.1,0.2c-0.3,0.5-0.9,0.5-1.4,0.4c0,0,0,0-0.1,0l0,0
				c-0.3-0.1-0.6-0.4-0.7-0.7c-0.4-0.6,0.1-1.6,0.8-1.6c0.3,0,0.6,0.1,0.9,0.3c0.1,0.1,0.1,0.1,0.2,0.2c0.1,0.1,0.2,0.2,0.3,0.3
				C153.6,425.8,153.6,426.1,153.4,426.4z"/>
			<path fill="#7C7C7C" d="M180.1,420.6c0,0.1-0.1,0.1-0.1,0.2c-0.3,0.5-0.9,0.5-1.4,0.4c0,0,0,0-0.1,0l0,0
				c-0.3-0.1-0.6-0.4-0.7-0.7c-0.4-0.6,0.1-1.6,0.8-1.6c0.3,0,0.6,0.1,0.9,0.3c0.1,0.1,0.1,0.1,0.2,0.2c0.1,0.1,0.2,0.2,0.3,0.3
				C180.3,420,180.3,420.3,180.1,420.6z"/>
			<path fill="#7C7C7C" d="M171.7,383.8c0,0.1-0.1,0.1-0.1,0.2c-0.3,0.5-0.9,0.5-1.4,0.4c0,0,0,0-0.1,0l0,0
				c-0.3-0.1-0.6-0.4-0.7-0.7c-0.4-0.6,0.1-1.6,0.8-1.6c0.3,0,0.6,0.1,0.9,0.3c0.1,0.1,0.1,0.1,0.2,0.2c0.1,0.1,0.2,0.2,0.3,0.3
				C171.9,383.1,171.8,383.5,171.7,383.8z"/>
			<path fill="#7C7C7C" d="M131.9,386.4c0,0.1-0.1,0.1-0.1,0.2c-0.3,0.5-0.9,0.5-1.4,0.4c0,0,0,0-0.1,0l0,0
				c-0.3-0.1-0.6-0.4-0.7-0.7c-0.4-0.6,0.1-1.6,0.8-1.6c0.3,0,0.6,0.1,0.9,0.3c0.1,0.1,0.1,0.1,0.2,0.2c0.1,0.1,0.2,0.2,0.3,0.3
				C132.1,385.7,132.1,386.1,131.9,386.4z"/>
			<path fill="#7C7C7C" d="M90.2,374.4c0,0.1-0.1,0.1-0.1,0.2c-0.3,0.5-0.9,0.5-1.4,0.4c0,0,0,0-0.1,0l0,0c-0.3-0.1-0.6-0.4-0.7-0.7
				c-0.4-0.6,0.1-1.6,0.8-1.6c0.3,0,0.6,0.1,0.9,0.3c0.1,0.1,0.1,0.1,0.2,0.2c0.1,0.1,0.2,0.2,0.3,0.3
				C90.4,373.7,90.4,374.1,90.2,374.4z"/>
			<path fill="#7C7C7C" d="M54.4,383.6c0,0.1-0.1,0.1-0.1,0.2c-0.3,0.5-0.9,0.5-1.4,0.4c0,0,0,0-0.1,0l0,0c-0.3-0.1-0.6-0.4-0.7-0.7
				c-0.4-0.6,0.1-1.6,0.8-1.6c0.3,0,0.6,0.1,0.9,0.3c0.1,0.1,0.1,0.1,0.2,0.2c0.1,0.1,0.2,0.2,0.3,0.3
				C54.6,383,54.5,383.3,54.4,383.6z"/>
			<path fill="#7C7C7C" d="M54.2,422.4c0,0.1-0.1,0.1-0.1,0.2c-0.3,0.5-0.9,0.5-1.4,0.4c0,0,0,0-0.1,0l0,0c-0.3-0.1-0.6-0.4-0.7-0.7
				c-0.4-0.6,0.1-1.6,0.8-1.6c0.3,0,0.6,0.1,0.9,0.3c0.1,0.1,0.1,0.1,0.2,0.2c0.1,0.1,0.2,0.2,0.3,0.3
				C54.4,421.7,54.4,422.1,54.2,422.4z"/>
			<path fill="#7C7C7C" d="M117.9,475.6c0,0.1-0.1,0.1-0.1,0.2c-0.3,0.5-0.9,0.5-1.4,0.4c0,0,0,0-0.1,0l0,0
				c-0.3-0.1-0.6-0.4-0.7-0.7c-0.4-0.6,0.1-1.6,0.8-1.6c0.3,0,0.6,0.1,0.9,0.3c0.1,0.1,0.1,0.1,0.2,0.2c0.1,0.1,0.2,0.2,0.3,0.3
				C118.1,475,118.1,475.3,117.9,475.6z"/>
			<path fill="#7C7C7C" d="M98.7,452.7c0,0,0,0.1,0,0.1c-0.1,0.2-0.4,0.3-0.7,0.2c0,0,0,0,0,0l0,0c-0.2-0.1-0.3-0.2-0.3-0.4
				c-0.2-0.3,0-0.8,0.4-0.8c0.2,0,0.3,0.1,0.4,0.2c0,0,0.1,0.1,0.1,0.1c0.1,0,0.1,0.1,0.1,0.1C98.8,452.4,98.8,452.6,98.7,452.7z"/>
			<path fill="#7C7C7C" d="M94.2,448.7c0,0,0,0.1,0,0.1c-0.1,0.2-0.4,0.3-0.7,0.2c0,0,0,0,0,0l0,0c-0.2-0.1-0.3-0.2-0.3-0.4
				c-0.2-0.3,0-0.8,0.4-0.8c0.2,0,0.3,0.1,0.4,0.2c0,0,0.1,0.1,0.1,0.1c0.1,0,0.1,0.1,0.1,0.1C94.3,448.4,94.3,448.5,94.2,448.7z"/>
			<path fill="#7C7C7C" d="M66.2,470.2c0,0,0,0.1,0,0.1c-0.1,0.2-0.4,0.3-0.7,0.2c0,0,0,0,0,0l0,0c-0.2-0.1-0.3-0.2-0.3-0.4
				c-0.2-0.3,0-0.8,0.4-0.8c0.2,0,0.3,0.1,0.4,0.2c0,0,0.1,0.1,0.1,0.1c0.1,0,0.1,0.1,0.1,0.1C66.3,469.9,66.3,470,66.2,470.2z"/>
			<path fill="#7C7C7C" d="M55.7,465.4c0,0,0,0.1,0,0.1c-0.1,0.2-0.4,0.3-0.7,0.2c0,0,0,0,0,0l0,0c-0.2-0.1-0.3-0.2-0.3-0.4
				c-0.2-0.3,0-0.8,0.4-0.8c0.2,0,0.3,0.1,0.4,0.2c0,0,0.1,0.1,0.1,0.1c0.1,0,0.1,0.1,0.1,0.1C55.8,465.1,55.8,465.3,55.7,465.4z"/>
			<path fill="#7C7C7C" d="M68,428.5c0,0,0,0.1,0,0.1c-0.1,0.2-0.4,0.3-0.7,0.2c0,0,0,0,0,0l0,0c-0.2-0.1-0.3-0.2-0.3-0.4
				c-0.2-0.3,0-0.8,0.4-0.8c0.2,0,0.3,0.1,0.4,0.2c0,0,0.1,0.1,0.1,0.1c0.1,0,0.1,0.1,0.1,0.1C68.1,428.1,68.1,428.3,68,428.5z"/>
			<path fill="#7C7C7C" d="M109.7,430.4c0,0,0,0.1,0,0.1c-0.1,0.2-0.4,0.3-0.7,0.2c0,0,0,0,0,0l0,0c-0.2-0.1-0.3-0.2-0.3-0.4
				c-0.2-0.3,0-0.8,0.4-0.8c0.2,0,0.3,0.1,0.4,0.2c0,0,0.1,0.1,0.1,0.1c0.1,0,0.1,0.1,0.1,0.1C109.8,430.1,109.8,430.3,109.7,430.4z
				"/>
			<path fill="#7C7C7C" d="M127,474.2c0,0,0,0.1,0,0.1c-0.1,0.2-0.4,0.3-0.7,0.2c0,0,0,0,0,0l0,0c-0.2-0.1-0.3-0.2-0.3-0.4
				c-0.2-0.3,0-0.8,0.4-0.8c0.2,0,0.3,0.1,0.4,0.2c0,0,0.1,0.1,0.1,0.1c0.1,0,0.1,0.1,0.1,0.1C127.1,473.9,127.1,474,127,474.2z"/>
			<path fill="#7C7C7C" d="M139.5,421.2c0,0,0,0.1,0,0.1c-0.1,0.2-0.4,0.3-0.7,0.2c0,0,0,0,0,0l0,0c-0.2-0.1-0.3-0.2-0.3-0.4
				c-0.2-0.3,0-0.8,0.4-0.8c0.2,0,0.3,0.1,0.4,0.2c0,0,0.1,0.1,0.1,0.1c0.1,0,0.1,0.1,0.1,0.1C139.6,420.9,139.6,421,139.5,421.2z"
				/>
			<path fill="#7C7C7C" d="M162.8,451.6c0,0,0,0.1,0,0.1c-0.1,0.2-0.4,0.3-0.7,0.2c0,0,0,0,0,0l0,0c-0.2-0.1-0.3-0.2-0.3-0.4
				c-0.2-0.3,0-0.8,0.4-0.8c0.2,0,0.3,0.1,0.4,0.2c0,0,0.1,0.1,0.1,0.1c0.1,0,0.1,0.1,0.1,0.1C162.9,451.3,162.9,451.5,162.8,451.6z
				"/>
			<path fill="#7C7C7C" d="M167.1,456.5c0,0,0,0.1,0,0.1c-0.1,0.2-0.4,0.3-0.7,0.2c0,0,0,0,0,0l0,0c-0.2-0.1-0.3-0.2-0.3-0.4
				c-0.2-0.3,0-0.8,0.4-0.8c0.2,0,0.3,0.1,0.4,0.2c0,0,0.1,0.1,0.1,0.1c0.1,0,0.1,0.1,0.1,0.1C167.2,456.2,167.1,456.4,167.1,456.5z
				"/>
			<path fill="#7C7C7C" d="M177.5,446.7c0,0,0,0.1,0,0.1c-0.1,0.2-0.4,0.3-0.7,0.2c0,0,0,0,0,0l0,0c-0.2-0.1-0.3-0.2-0.3-0.4
				c-0.2-0.3,0-0.8,0.4-0.8c0.2,0,0.3,0.1,0.4,0.2c0,0,0.1,0.1,0.1,0.1c0.1,0,0.1,0.1,0.1,0.1C177.6,446.4,177.6,446.5,177.5,446.7z
				"/>
			<path fill="#7C7C7C" d="M139.3,458.1c0,0,0,0.1,0,0.1c-0.1,0.2-0.4,0.3-0.7,0.2c0,0,0,0,0,0l0,0c-0.2-0.1-0.3-0.2-0.3-0.4
				c-0.2-0.3,0-0.8,0.4-0.8c0.2,0,0.3,0.1,0.4,0.2c0,0,0.1,0.1,0.1,0.1c0.1,0,0.1,0.1,0.1,0.1C139.4,457.8,139.4,458,139.3,458.1z"
				/>
			<path fill="#7C7C7C" d="M132.7,442.7c0,0,0,0.1,0,0.1c-0.1,0.2-0.4,0.3-0.7,0.2c0,0,0,0,0,0l0,0c-0.2-0.1-0.3-0.2-0.3-0.4
				c-0.2-0.3,0-0.8,0.4-0.8c0.2,0,0.3,0.1,0.4,0.2c0,0,0.1,0.1,0.1,0.1c0.1,0,0.1,0.1,0.1,0.1C132.8,442.4,132.8,442.6,132.7,442.7z
				"/>
			<path fill="#7C7C7C" d="M187.1,469c0,0,0,0.1,0,0.1c-0.1,0.2-0.4,0.3-0.7,0.2c0,0,0,0,0,0l0,0c-0.2-0.1-0.3-0.2-0.3-0.4
				c-0.2-0.3,0-0.8,0.4-0.8c0.2,0,0.3,0.1,0.4,0.2c0,0,0.1,0.1,0.1,0.1c0.1,0,0.1,0.1,0.1,0.1C187.2,468.7,187.1,468.9,187.1,469z"
				/>
			<path fill="#7C7C7C" d="M74.5,391.7c0,0,0,0.1,0,0.1c-0.1,0.2-0.4,0.3-0.7,0.2c0,0,0,0,0,0l0,0c-0.2-0.1-0.3-0.2-0.3-0.4
				c-0.2-0.3,0-0.8,0.4-0.8c0.2,0,0.3,0.1,0.4,0.2c0,0,0.1,0.1,0.1,0.1c0.1,0,0.1,0.1,0.1,0.1C74.6,391.4,74.6,391.5,74.5,391.7z"/>
			<path fill="#7C7C7C" d="M105.5,385.4c0,0,0,0.1,0,0.1c-0.1,0.2-0.4,0.3-0.7,0.2c0,0,0,0,0,0l0,0c-0.2-0.1-0.3-0.2-0.3-0.4
				c-0.2-0.3,0-0.8,0.4-0.8c0.2,0,0.3,0.1,0.4,0.2c0,0,0.1,0.1,0.1,0.1c0.1,0,0.1,0.1,0.1,0.1C105.6,385.1,105.6,385.3,105.5,385.4z
				"/>
			<path fill="#7C7C7C" d="M126.7,376.3c0,0,0,0.1,0,0.1c-0.1,0.2-0.4,0.3-0.7,0.2c0,0,0,0,0,0l0,0c-0.2-0.1-0.3-0.2-0.3-0.4
				c-0.2-0.3,0-0.8,0.4-0.8c0.2,0,0.3,0.1,0.4,0.2c0,0,0.1,0.1,0.1,0.1c0.1,0,0.1,0.1,0.1,0.1C126.8,376,126.7,376.2,126.7,376.3z"
				/>
			<path fill="#7C7C7C" d="M108.7,446.7c0,0,0,0.1,0,0.1c-0.1,0.2-0.4,0.3-0.7,0.2c0,0,0,0,0,0l0,0c-0.2-0.1-0.3-0.2-0.3-0.4
				c-0.2-0.3,0-0.8,0.4-0.8c0.2,0,0.3,0.1,0.4,0.2c0,0,0.1,0.1,0.1,0.1c0.1,0,0.1,0.1,0.1,0.1C108.8,446.4,108.8,446.6,108.7,446.7z
				"/>
			<path fill="#7C7C7C" d="M156.1,391c0,0,0,0.1,0,0.1c-0.1,0.2-0.4,0.3-0.7,0.2c0,0,0,0,0,0l0,0c-0.2-0.1-0.3-0.2-0.3-0.4
				c-0.2-0.3,0-0.8,0.4-0.8c0.2,0,0.3,0.1,0.4,0.2c0,0,0.1,0.1,0.1,0.1c0.1,0,0.1,0.1,0.1,0.1C156.2,390.7,156.1,390.9,156.1,391z"
				/>
			<path fill="#7C7C7C" d="M180.5,392.7c0,0,0,0.1,0,0.1c-0.1,0.2-0.4,0.3-0.7,0.2c0,0,0,0,0,0l0,0c-0.2-0.1-0.3-0.2-0.3-0.4
				c-0.2-0.3,0-0.8,0.4-0.8c0.2,0,0.3,0.1,0.4,0.2c0,0,0.1,0.1,0.1,0.1c0.1,0,0.1,0.1,0.1,0.1C180.6,392.4,180.6,392.5,180.5,392.7z
				"/>
			<path fill="#7C7C7C" d="M183.3,387.8c0,0,0,0.1,0,0.1c-0.1,0.2-0.4,0.3-0.7,0.2c0,0,0,0,0,0l0,0c-0.2-0.1-0.3-0.2-0.3-0.4
				c-0.2-0.3,0-0.8,0.4-0.8c0.2,0,0.3,0.1,0.4,0.2c0,0,0.1,0.1,0.1,0.1c0.1,0,0.1,0.1,0.1,0.1C183.4,387.5,183.4,387.6,183.3,387.8z
				"/>
			<path fill="#7C7C7C" d="M51.6,393.8c0,0,0,0.1,0,0.1c-0.1,0.2-0.4,0.3-0.7,0.2c0,0,0,0,0,0l0,0c-0.2-0.1-0.3-0.2-0.3-0.4
				c-0.2-0.3,0-0.8,0.4-0.8c0.2,0,0.3,0.1,0.4,0.2c0,0,0.1,0.1,0.1,0.1c0.1,0,0.1,0.1,0.1,0.1C51.7,393.5,51.6,393.6,51.6,393.8z"/>
			<path fill="#7C7C7C" d="M46.1,382.5c0,0,0,0.1,0,0.1c-0.1,0.2-0.4,0.3-0.7,0.2c0,0,0,0,0,0l0,0c-0.2-0.1-0.3-0.2-0.3-0.4
				c-0.2-0.3,0-0.8,0.4-0.8c0.2,0,0.3,0.1,0.4,0.2c0,0,0.1,0.1,0.1,0.1c0.1,0,0.1,0.1,0.1,0.1C46.2,382.2,46.1,382.4,46.1,382.5z"/>
			<path fill="#7C7C7C" d="M71.1,370.8c0,0,0,0.1,0,0.1c-0.1,0.2-0.4,0.3-0.7,0.2c0,0,0,0,0,0l0,0c-0.2-0.1-0.3-0.2-0.3-0.4
				c-0.2-0.3,0-0.8,0.4-0.8c0.2,0,0.3,0.1,0.4,0.2c0,0,0.1,0.1,0.1,0.1c0.1,0,0.1,0.1,0.1,0.1C71.2,370.5,71.1,370.6,71.1,370.8z"/>
			<path fill="#7C7C7C" d="M86.7,427.9c0,0,0,0.1,0,0.1c-0.1,0.2-0.4,0.3-0.7,0.2c0,0,0,0,0,0l0,0c-0.2-0.1-0.3-0.2-0.3-0.4
				c-0.2-0.3,0-0.8,0.4-0.8c0.2,0,0.3,0.1,0.4,0.2c0,0,0.1,0.1,0.1,0.1c0.1,0,0.1,0.1,0.1,0.1C86.8,427.6,86.8,427.8,86.7,427.9z"/>
			<path fill="#7C7C7C" d="M91.6,473.5c0,0,0,0.1,0,0.1c-0.1,0.2-0.4,0.3-0.7,0.2c0,0,0,0,0,0l0,0c-0.2-0.1-0.3-0.2-0.3-0.4
				c-0.2-0.3,0-0.8,0.4-0.8c0.2,0,0.3,0.1,0.4,0.2c0,0,0.1,0.1,0.1,0.1c0.1,0,0.1,0.1,0.1,0.1C91.7,473.2,91.6,473.4,91.6,473.5z"/>
			<path fill="#7C7C7C" d="M163.2,479.9c0,0,0,0.1,0,0.1c-0.1,0.2-0.4,0.3-0.7,0.2c0,0,0,0,0,0l0,0c-0.2-0.1-0.3-0.2-0.3-0.4
				c-0.2-0.3,0-0.8,0.4-0.8c0.2,0,0.3,0.1,0.4,0.2c0,0,0.1,0.1,0.1,0.1c0.1,0,0.1,0.1,0.1,0.1C163.3,479.6,163.3,479.8,163.2,479.9z
				"/>
			<path fill="#7C7C7C" d="M159.8,466c0,0,0,0.1,0,0.1c-0.1,0.2-0.4,0.3-0.7,0.2c0,0,0,0,0,0l0,0c-0.2-0.1-0.3-0.2-0.3-0.4
				c-0.2-0.3,0-0.8,0.4-0.8c0.2,0,0.3,0.1,0.4,0.2c0,0,0.1,0.1,0.1,0.1c0.1,0,0.1,0.1,0.1,0.1C159.9,465.7,159.9,465.9,159.8,466z"
				/>
			<path fill="#7C7C7C" d="M147.8,374c0,0,0,0.1,0,0.1c-0.1,0.2-0.4,0.3-0.7,0.2c0,0,0,0,0,0l0,0c-0.2-0.1-0.3-0.2-0.3-0.4
				c-0.2-0.3,0-0.8,0.4-0.8c0.2,0,0.3,0.1,0.4,0.2c0,0,0.1,0.1,0.1,0.1c0.1,0,0.1,0.1,0.1,0.1C147.9,373.7,147.9,373.9,147.8,374z"
				/>
			<path fill="#7C7C7C" d="M178.9,370.8c0,0,0,0.1,0,0.1c-0.1,0.2-0.4,0.3-0.7,0.2c0,0,0,0,0,0l0,0c-0.2-0.1-0.3-0.2-0.3-0.4
				c-0.2-0.3,0-0.8,0.4-0.8c0.2,0,0.3,0.1,0.4,0.2c0,0,0.1,0.1,0.1,0.1c0.1,0,0.1,0.1,0.1,0.1C179,370.5,179,370.7,178.9,370.8z"/>
			<path fill="#7C7C7C" d="M89.3,393.1c0,0,0,0.1,0,0.1c-0.1,0.2-0.4,0.3-0.7,0.2c0,0,0,0,0,0l0,0c-0.2-0.1-0.3-0.2-0.3-0.4
				c-0.2-0.3,0-0.8,0.4-0.8c0.2,0,0.3,0.1,0.4,0.2c0,0,0.1,0.1,0.1,0.1c0.1,0,0.1,0.1,0.1,0.1C89.4,392.8,89.4,393,89.3,393.1z"/>
			<path fill="#7C7C7C" d="M122.5,394.9c0,0,0,0.1,0,0.1c-0.1,0.2-0.4,0.3-0.7,0.2c0,0,0,0,0,0l0,0c-0.2-0.1-0.3-0.2-0.3-0.4
				c-0.2-0.3,0-0.8,0.4-0.8c0.2,0,0.3,0.1,0.4,0.2c0,0,0.1,0.1,0.1,0.1c0.1,0,0.1,0.1,0.1,0.1C122.6,394.6,122.6,394.8,122.5,394.9z
				"/>
			<path fill="#7C7C7C" d="M39.1,434c0,0,0,0.1,0,0.1c-0.1,0.2-0.4,0.3-0.7,0.2c0,0,0,0,0,0l0,0c-0.2-0.1-0.3-0.2-0.3-0.4
				c-0.2-0.3,0-0.8,0.4-0.8c0.2,0,0.3,0.1,0.4,0.2c0,0,0.1,0.1,0.1,0.1c0.1,0,0.1,0.1,0.1,0.1C39.2,433.7,39.1,433.9,39.1,434z"/>
			<path fill="#7C7C7C" d="M176.8,433.8c0,0,0,0.1,0,0.1c-0.1,0.2-0.4,0.3-0.7,0.2c0,0,0,0,0,0l0,0c-0.2-0.1-0.3-0.2-0.3-0.4
				c-0.2-0.3,0-0.8,0.4-0.8c0.2,0,0.3,0.1,0.4,0.2c0,0,0.1,0.1,0.1,0.1c0.1,0,0.1,0.1,0.1,0.1C176.9,433.5,176.9,433.6,176.8,433.8z
				"/>
			<path fill="#7C7C7C" d="M75.6,481.3c0,0,0,0.1,0,0.1c-0.1,0.2-0.4,0.3-0.7,0.2c0,0,0,0,0,0l0,0c-0.2-0.1-0.3-0.2-0.3-0.4
				c-0.2-0.3,0-0.8,0.4-0.8c0.2,0,0.3,0.1,0.4,0.2c0,0,0.1,0.1,0.1,0.1c0.1,0,0.1,0.1,0.1,0.1C75.7,481,75.6,481.1,75.6,481.3z"/>
			<path fill="#7C7C7C" d="M161.3,369c0,0,0,0.1,0,0.1c-0.1,0.2-0.4,0.3-0.7,0.2c0,0,0,0,0,0l0,0c-0.2-0.1-0.3-0.2-0.3-0.4
				c-0.2-0.3,0-0.8,0.4-0.8c0.2,0,0.3,0.1,0.4,0.2c0,0,0.1,0.1,0.1,0.1c0.1,0,0.1,0.1,0.1,0.1C161.4,368.7,161.4,368.9,161.3,369z"
				/>
			<g>
				<path fill="#7C7C7C" d="M141.1,345.8"/>
			</g>
			<path fill="#7C7C7C" d="M182.9,363.4c0,0.1,0.1,0.1,0.1,0.2c0.3,0.5,0.9,0.5,1.4,0.4c0,0,0,0,0.1,0l0,0c0.3-0.1,0.6-0.4,0.7-0.7
				c0.4-0.6-0.1-1.6-0.8-1.6c-0.3,0-0.6,0.1-0.9,0.3c-0.1,0.1-0.1,0.1-0.2,0.2c-0.1,0.1-0.2,0.2-0.3,0.3
				C182.7,362.8,182.7,363.1,182.9,363.4z"/>
			<path fill="#7C7C7C" d="M169.1,338.6c0,0.1,0.1,0.1,0.1,0.2c0.3,0.5,0.9,0.5,1.4,0.4c0,0,0,0,0.1,0l0,0c0.3-0.1,0.6-0.4,0.7-0.7
				c0.4-0.6-0.1-1.6-0.8-1.6c-0.3,0-0.6,0.1-0.9,0.3c-0.1,0.1-0.1,0.1-0.2,0.2c-0.1,0.1-0.2,0.2-0.3,0.3
				C168.9,338,169,338.3,169.1,338.6z"/>
			<path fill="#7C7C7C" d="M117.6,324.6c0,0.1,0.1,0.1,0.1,0.2c0.3,0.5,0.9,0.5,1.4,0.4c0,0,0,0,0.1,0l0,0c0.3-0.1,0.6-0.4,0.7-0.7
				c0.4-0.6-0.1-1.6-0.8-1.6c-0.3,0-0.6,0.1-0.9,0.3c-0.1,0.1-0.1,0.1-0.2,0.2c-0.1,0.1-0.2,0.2-0.3,0.3
				C117.4,324,117.4,324.3,117.6,324.6z"/>
			<path fill="#7C7C7C" d="M48.3,346.5c0,0.1,0.1,0.1,0.1,0.2c0.3,0.5,0.9,0.5,1.4,0.4c0,0,0,0,0.1,0l0,0c0.3-0.1,0.6-0.4,0.7-0.7
				c0.4-0.6-0.1-1.6-0.8-1.6c-0.3,0-0.6,0.1-0.9,0.3c-0.1,0.1-0.1,0.1-0.2,0.2c-0.1,0.1-0.2,0.2-0.3,0.3
				C48.1,345.8,48.1,346.2,48.3,346.5z"/>
			<path fill="#7C7C7C" d="M38.4,369.2c0,0.1,0.1,0.1,0.1,0.2c0.3,0.5,0.9,0.5,1.4,0.4c0,0,0,0,0.1,0l0,0c0.3-0.1,0.6-0.4,0.7-0.7
				c0.4-0.6-0.1-1.6-0.8-1.6c-0.3,0-0.6,0.1-0.9,0.3c-0.1,0.1-0.1,0.1-0.2,0.2c-0.1,0.1-0.2,0.2-0.3,0.3
				C38.2,368.6,38.3,368.9,38.4,369.2z"/>
			<path fill="#7C7C7C" d="M71.7,316.4c0,0.1,0.1,0.1,0.1,0.2c0.3,0.5,0.9,0.5,1.4,0.4c0,0,0,0,0.1,0l0,0c0.3-0.1,0.6-0.4,0.7-0.7
				c0.4-0.6-0.1-1.6-0.8-1.6c-0.3,0-0.6,0.1-0.9,0.3c-0.1,0.1-0.1,0.1-0.2,0.2c-0.1,0.1-0.2,0.2-0.3,0.3
				C71.5,315.8,71.5,316.1,71.7,316.4z"/>
			<path fill="#7C7C7C" d="M44.9,310.6c0,0.1,0.1,0.1,0.1,0.2c0.3,0.5,0.9,0.5,1.4,0.4c0,0,0,0,0.1,0l0,0c0.3-0.1,0.6-0.4,0.7-0.7
				c0.4-0.6-0.1-1.6-0.8-1.6c-0.3,0-0.6,0.1-0.9,0.3c-0.1,0.1-0.1,0.1-0.2,0.2c-0.1,0.1-0.2,0.2-0.3,0.3
				C44.7,310,44.8,310.3,44.9,310.6z"/>
			<path fill="#7C7C7C" d="M53.4,273.8c0,0.1,0.1,0.1,0.1,0.2c0.3,0.5,0.9,0.5,1.4,0.4c0,0,0,0,0.1,0l0,0c0.3-0.1,0.6-0.4,0.7-0.7
				c0.4-0.6-0.1-1.6-0.8-1.6c-0.3,0-0.6,0.1-0.9,0.3c-0.1,0.1-0.1,0.1-0.2,0.2c-0.1,0.1-0.2,0.2-0.3,0.3
				C53.2,273.1,53.2,273.5,53.4,273.8z"/>
			<path fill="#7C7C7C" d="M93.1,276.4c0,0.1,0.1,0.1,0.1,0.2c0.3,0.5,0.9,0.5,1.4,0.4c0,0,0,0,0.1,0l0,0c0.3-0.1,0.6-0.4,0.7-0.7
				c0.4-0.6-0.1-1.6-0.8-1.6c-0.3,0-0.6,0.1-0.9,0.3c-0.1,0.1-0.1,0.1-0.2,0.2c-0.1,0.1-0.2,0.2-0.3,0.3
				C92.9,275.7,93,276.1,93.1,276.4z"/>
			<path fill="#7C7C7C" d="M134.9,264.4c0,0.1,0.1,0.1,0.1,0.2c0.3,0.5,0.9,0.5,1.4,0.4c0,0,0,0,0.1,0l0,0c0.3-0.1,0.6-0.4,0.7-0.7
				c0.4-0.6-0.1-1.6-0.8-1.6c-0.3,0-0.6,0.1-0.9,0.3c-0.1,0.1-0.1,0.1-0.2,0.2c-0.1,0.1-0.2,0.2-0.3,0.3
				C134.7,263.7,134.7,264.1,134.9,264.4z"/>
			<path fill="#7C7C7C" d="M170.7,273.6c0,0.1,0.1,0.1,0.1,0.2c0.3,0.5,0.9,0.5,1.4,0.4c0,0,0,0,0.1,0l0,0c0.3-0.1,0.6-0.4,0.7-0.7
				c0.4-0.6-0.1-1.6-0.8-1.6c-0.3,0-0.6,0.1-0.9,0.3c-0.1,0.1-0.1,0.1-0.2,0.2c-0.1,0.1-0.2,0.2-0.3,0.3
				C170.5,273,170.5,273.3,170.7,273.6z"/>
			<path fill="#7C7C7C" d="M170.9,312.4c0,0.1,0.1,0.1,0.1,0.2c0.3,0.5,0.9,0.5,1.4,0.4c0,0,0,0,0.1,0l0,0c0.3-0.1,0.6-0.4,0.7-0.7
				c0.4-0.6-0.1-1.6-0.8-1.6c-0.3,0-0.6,0.1-0.9,0.3c-0.1,0.1-0.1,0.1-0.2,0.2c-0.1,0.1-0.2,0.2-0.3,0.3
				C170.7,311.7,170.7,312.1,170.9,312.4z"/>
			<path fill="#7C7C7C" d="M107.1,365.6c0,0.1,0.1,0.1,0.1,0.2c0.3,0.5,0.9,0.5,1.4,0.4c0,0,0,0,0.1,0l0,0c0.3-0.1,0.6-0.4,0.7-0.7
				c0.4-0.6-0.1-1.6-0.8-1.6c-0.3,0-0.6,0.1-0.9,0.3c-0.1,0.1-0.1,0.1-0.2,0.2c-0.1,0.1-0.2,0.2-0.3,0.3
				C106.9,365,107,365.3,107.1,365.6z"/>
			<path fill="#7C7C7C" d="M126.3,342.7c0,0,0,0.1,0,0.1c0.1,0.2,0.4,0.3,0.7,0.2c0,0,0,0,0,0l0,0c0.2-0.1,0.3-0.2,0.3-0.4
				c0.2-0.3,0-0.8-0.4-0.8c-0.2,0-0.3,0.1-0.4,0.2c0,0-0.1,0.1-0.1,0.1c-0.1,0-0.1,0.1-0.1,0.1C126.2,342.4,126.2,342.6,126.3,342.7
				z"/>
			<path fill="#7C7C7C" d="M130.9,338.7c0,0,0,0.1,0,0.1c0.1,0.2,0.4,0.3,0.7,0.2c0,0,0,0,0,0l0,0c0.2-0.1,0.3-0.2,0.3-0.4
				c0.2-0.3,0-0.8-0.4-0.8c-0.2,0-0.3,0.1-0.4,0.2c0,0-0.1,0.1-0.1,0.1c-0.1,0-0.1,0.1-0.1,0.1C130.7,338.4,130.8,338.5,130.9,338.7
				z"/>
			<path fill="#7C7C7C" d="M158.9,360.2c0,0,0,0.1,0,0.1c0.1,0.2,0.4,0.3,0.7,0.2c0,0,0,0,0,0l0,0c0.2-0.1,0.3-0.2,0.3-0.4
				c0.2-0.3,0-0.8-0.4-0.8c-0.2,0-0.3,0.1-0.4,0.2c0,0-0.1,0.1-0.1,0.1c-0.1,0-0.1,0.1-0.1,0.1C158.7,359.9,158.8,360,158.9,360.2z"
				/>
			<path fill="#7C7C7C" d="M169.3,355.4c0,0,0,0.1,0,0.1c0.1,0.2,0.4,0.3,0.7,0.2c0,0,0,0,0,0l0,0c0.2-0.1,0.3-0.2,0.3-0.4
				c0.2-0.3,0-0.8-0.4-0.8c-0.2,0-0.3,0.1-0.4,0.2c0,0-0.1,0.1-0.1,0.1c-0.1,0-0.1,0.1-0.1,0.1C169.2,355.1,169.2,355.3,169.3,355.4
				z"/>
			<path fill="#7C7C7C" d="M157.1,318.5c0,0,0,0.1,0,0.1c0.1,0.2,0.4,0.3,0.7,0.2c0,0,0,0,0,0l0,0c0.2-0.1,0.3-0.2,0.3-0.4
				c0.2-0.3,0-0.8-0.4-0.8c-0.2,0-0.3,0.1-0.4,0.2c0,0-0.1,0.1-0.1,0.1c-0.1,0-0.1,0.1-0.1,0.1C157,318.1,157,318.3,157.1,318.5z"/>
			<path fill="#7C7C7C" d="M115.3,320.4c0,0,0,0.1,0,0.1c0.1,0.2,0.4,0.3,0.7,0.2c0,0,0,0,0,0l0,0c0.2-0.1,0.3-0.2,0.3-0.4
				c0.2-0.3,0-0.8-0.4-0.8c-0.2,0-0.3,0.1-0.4,0.2c0,0-0.1,0.1-0.1,0.1c-0.1,0-0.1,0.1-0.1,0.1C115.2,320.1,115.2,320.3,115.3,320.4
				z"/>
			<path fill="#7C7C7C" d="M98.1,364.2c0,0,0,0.1,0,0.1c0.1,0.2,0.4,0.3,0.7,0.2c0,0,0,0,0,0l0,0c0.2-0.1,0.3-0.2,0.3-0.4
				c0.2-0.3,0-0.8-0.4-0.8c-0.2,0-0.3,0.1-0.4,0.2c0,0-0.1,0.1-0.1,0.1c-0.1,0-0.1,0.1-0.1,0.1C98,363.9,98,364,98.1,364.2z"/>
			<path fill="#7C7C7C" d="M85.6,311.2c0,0,0,0.1,0,0.1c0.1,0.2,0.4,0.3,0.7,0.2c0,0,0,0,0,0l0,0c0.2-0.1,0.3-0.2,0.3-0.4
				c0.2-0.3,0-0.8-0.4-0.8c-0.2,0-0.3,0.1-0.4,0.2c0,0-0.1,0.1-0.1,0.1c-0.1,0-0.1,0.1-0.1,0.1C85.5,310.9,85.5,311,85.6,311.2z"/>
			<path fill="#7C7C7C" d="M62.3,341.6c0,0,0,0.1,0,0.1c0.1,0.2,0.4,0.3,0.7,0.2c0,0,0,0,0,0l0,0c0.2-0.1,0.3-0.2,0.3-0.4
				c0.2-0.3,0-0.8-0.4-0.8c-0.2,0-0.3,0.1-0.4,0.2c0,0-0.1,0.1-0.1,0.1c-0.1,0-0.1,0.1-0.1,0.1C62.2,341.3,62.2,341.5,62.3,341.6z"
				/>
			<path fill="#7C7C7C" d="M58,346.5c0,0,0,0.1,0,0.1c0.1,0.2,0.4,0.3,0.7,0.2c0,0,0,0,0,0l0,0c0.2-0.1,0.3-0.2,0.3-0.4
				c0.2-0.3,0-0.8-0.4-0.8c-0.2,0-0.3,0.1-0.4,0.2c0,0-0.1,0.1-0.1,0.1c-0.1,0-0.1,0.1-0.1,0.1C57.9,346.2,57.9,346.4,58,346.5z"/>
			<path fill="#7C7C7C" d="M47.6,336.7c0,0,0,0.1,0,0.1c0.1,0.2,0.4,0.3,0.7,0.2c0,0,0,0,0,0l0,0c0.2-0.1,0.3-0.2,0.3-0.4
				c0.2-0.3,0-0.8-0.4-0.8c-0.2,0-0.3,0.1-0.4,0.2c0,0-0.1,0.1-0.1,0.1c-0.1,0-0.1,0.1-0.1,0.1C47.5,336.4,47.5,336.5,47.6,336.7z"
				/>
			<path fill="#7C7C7C" d="M85.8,348.1c0,0,0,0.1,0,0.1c0.1,0.2,0.4,0.3,0.7,0.2c0,0,0,0,0,0l0,0c0.2-0.1,0.3-0.2,0.3-0.4
				c0.2-0.3,0-0.8-0.4-0.8c-0.2,0-0.3,0.1-0.4,0.2c0,0-0.1,0.1-0.1,0.1c-0.1,0-0.1,0.1-0.1,0.1C85.7,347.8,85.7,348,85.8,348.1z"/>
			<path fill="#7C7C7C" d="M92.3,332.7c0,0,0,0.1,0,0.1c0.1,0.2,0.4,0.3,0.7,0.2c0,0,0,0,0,0l0,0c0.2-0.1,0.3-0.2,0.3-0.4
				c0.2-0.3,0-0.8-0.4-0.8c-0.2,0-0.3,0.1-0.4,0.2c0,0-0.1,0.1-0.1,0.1c-0.1,0-0.1,0.1-0.1,0.1C92.2,332.4,92.2,332.6,92.3,332.7z"
				/>
			<path fill="#7C7C7C" d="M38,359c0,0,0,0.1,0,0.1c0.1,0.2,0.4,0.3,0.7,0.2c0,0,0,0,0,0l0,0c0.2-0.1,0.3-0.2,0.3-0.4
				c0.2-0.3,0-0.8-0.4-0.8c-0.2,0-0.3,0.1-0.4,0.2c0,0-0.1,0.1-0.1,0.1c-0.1,0-0.1,0.1-0.1,0.1C37.9,358.7,37.9,358.9,38,359z"/>
			<path fill="#7C7C7C" d="M150.6,281.7c0,0,0,0.1,0,0.1c0.1,0.2,0.4,0.3,0.7,0.2c0,0,0,0,0,0l0,0c0.2-0.1,0.3-0.2,0.3-0.4
				c0.2-0.3,0-0.8-0.4-0.8c-0.2,0-0.3,0.1-0.4,0.2c0,0-0.1,0.1-0.1,0.1c-0.1,0-0.1,0.1-0.1,0.1C150.5,281.4,150.5,281.5,150.6,281.7
				z"/>
			<path fill="#7C7C7C" d="M119.6,275.4c0,0,0,0.1,0,0.1c0.1,0.2,0.4,0.3,0.7,0.2c0,0,0,0,0,0l0,0c0.2-0.1,0.3-0.2,0.3-0.4
				c0.2-0.3,0-0.8-0.4-0.8c-0.2,0-0.3,0.1-0.4,0.2c0,0-0.1,0.1-0.1,0.1c-0.1,0-0.1,0.1-0.1,0.1C119.5,275.1,119.5,275.3,119.6,275.4
				z"/>
			<path fill="#7C7C7C" d="M98.4,266.3c0,0,0,0.1,0,0.1c0.1,0.2,0.4,0.3,0.7,0.2c0,0,0,0,0,0l0,0c0.2-0.1,0.3-0.2,0.3-0.4
				c0.2-0.3,0-0.8-0.4-0.8c-0.2,0-0.3,0.1-0.4,0.2c0,0-0.1,0.1-0.1,0.1c-0.1,0-0.1,0.1-0.1,0.1C98.3,266,98.3,266.2,98.4,266.3z"/>
			<path fill="#7C7C7C" d="M116.3,336.7c0,0,0,0.1,0,0.1c0.1,0.2,0.4,0.3,0.7,0.2c0,0,0,0,0,0l0,0c0.2-0.1,0.3-0.2,0.3-0.4
				c0.2-0.3,0-0.8-0.4-0.8c-0.2,0-0.3,0.1-0.4,0.2c0,0-0.1,0.1-0.1,0.1c-0.1,0-0.1,0.1-0.1,0.1C116.2,336.4,116.2,336.6,116.3,336.7
				z"/>
			<path fill="#7C7C7C" d="M69,281c0,0,0,0.1,0,0.1c0.1,0.2,0.4,0.3,0.7,0.2c0,0,0,0,0,0l0,0c0.2-0.1,0.3-0.2,0.3-0.4
				c0.2-0.3,0-0.8-0.4-0.8c-0.2,0-0.3,0.1-0.4,0.2c0,0-0.1,0.1-0.1,0.1c-0.1,0-0.1,0.1-0.1,0.1C68.9,280.7,68.9,280.9,69,281z"/>
			<path fill="#7C7C7C" d="M44.6,282.7c0,0,0,0.1,0,0.1c0.1,0.2,0.4,0.3,0.7,0.2c0,0,0,0,0,0l0,0c0.2-0.1,0.3-0.2,0.3-0.4
				c0.2-0.3,0-0.8-0.4-0.8c-0.2,0-0.3,0.1-0.4,0.2c0,0-0.1,0.1-0.1,0.1c-0.1,0-0.1,0.1-0.1,0.1C44.5,282.4,44.5,282.5,44.6,282.7z"
				/>
			<path fill="#7C7C7C" d="M41.7,277.8c0,0,0,0.1,0,0.1c0.1,0.2,0.4,0.3,0.7,0.2c0,0,0,0,0,0l0,0c0.2-0.1,0.3-0.2,0.3-0.4
				c0.2-0.3,0-0.8-0.4-0.8c-0.2,0-0.3,0.1-0.4,0.2c0,0-0.1,0.1-0.1,0.1c-0.1,0-0.1,0.1-0.1,0.1C41.6,277.5,41.7,277.6,41.7,277.8z"
				/>
			<path fill="#7C7C7C" d="M173.5,283.8c0,0,0,0.1,0,0.1c0.1,0.2,0.4,0.3,0.7,0.2c0,0,0,0,0,0l0,0c0.2-0.1,0.3-0.2,0.3-0.4
				c0.2-0.3,0-0.8-0.4-0.8c-0.2,0-0.3,0.1-0.4,0.2c0,0-0.1,0.1-0.1,0.1c-0.1,0-0.1,0.1-0.1,0.1C173.4,283.5,173.4,283.6,173.5,283.8
				z"/>
			<path fill="#7C7C7C" d="M179,272.5c0,0,0,0.1,0,0.1c0.1,0.2,0.4,0.3,0.7,0.2c0,0,0,0,0,0l0,0c0.2-0.1,0.3-0.2,0.3-0.4
				c0.2-0.3,0-0.8-0.4-0.8c-0.2,0-0.3,0.1-0.4,0.2c0,0-0.1,0.1-0.1,0.1c-0.1,0-0.1,0.1-0.1,0.1C178.9,272.2,178.9,272.4,179,272.5z"
				/>
			<path fill="#7C7C7C" d="M154,260.8c0,0,0,0.1,0,0.1c0.1,0.2,0.4,0.3,0.7,0.2c0,0,0,0,0,0l0,0c0.2-0.1,0.3-0.2,0.3-0.4
				c0.2-0.3,0-0.8-0.4-0.8c-0.2,0-0.3,0.1-0.4,0.2c0,0-0.1,0.1-0.1,0.1c-0.1,0-0.1,0.1-0.1,0.1C153.9,260.5,153.9,260.6,154,260.8z"
				/>
			<path fill="#7C7C7C" d="M138.4,317.9c0,0,0,0.1,0,0.1c0.1,0.2,0.4,0.3,0.7,0.2c0,0,0,0,0,0l0,0c0.2-0.1,0.3-0.2,0.3-0.4
				c0.2-0.3,0-0.8-0.4-0.8c-0.2,0-0.3,0.1-0.4,0.2c0,0-0.1,0.1-0.1,0.1c-0.1,0-0.1,0.1-0.1,0.1C138.2,317.6,138.3,317.8,138.4,317.9
				z"/>
			<path fill="#7C7C7C" d="M133.5,363.5c0,0,0,0.1,0,0.1c0.1,0.2,0.4,0.3,0.7,0.2c0,0,0,0,0,0l0,0c0.2-0.1,0.3-0.2,0.3-0.4
				c0.2-0.3,0-0.8-0.4-0.8c-0.2,0-0.3,0.1-0.4,0.2c0,0-0.1,0.1-0.1,0.1c-0.1,0-0.1,0.1-0.1,0.1C133.4,363.2,133.4,363.4,133.5,363.5
				z"/>
			<path fill="#7C7C7C" d="M61.8,369.9c0,0,0,0.1,0,0.1c0.1,0.2,0.4,0.3,0.7,0.2c0,0,0,0,0,0l0,0c0.2-0.1,0.3-0.2,0.3-0.4
				c0.2-0.3,0-0.8-0.4-0.8c-0.2,0-0.3,0.1-0.4,0.2c0,0-0.1,0.1-0.1,0.1c-0.1,0-0.1,0.1-0.1,0.1C61.7,369.6,61.7,369.8,61.8,369.9z"
				/>
			<path fill="#7C7C7C" d="M65.2,356c0,0,0,0.1,0,0.1c0.1,0.2,0.4,0.3,0.7,0.2c0,0,0,0,0,0l0,0c0.2-0.1,0.3-0.2,0.3-0.4
				c0.2-0.3,0-0.8-0.4-0.8c-0.2,0-0.3,0.1-0.4,0.2c0,0-0.1,0.1-0.1,0.1c-0.1,0-0.1,0.1-0.1,0.1C65.1,355.7,65.2,355.9,65.2,356z"/>
			<path fill="#7C7C7C" d="M77.2,264c0,0,0,0.1,0,0.1c0.1,0.2,0.4,0.3,0.7,0.2c0,0,0,0,0,0l0,0c0.2-0.1,0.3-0.2,0.3-0.4
				c0.2-0.3,0-0.8-0.4-0.8c-0.2,0-0.3,0.1-0.4,0.2c0,0-0.1,0.1-0.1,0.1c-0.1,0-0.1,0.1-0.1,0.1C77.1,263.7,77.2,263.9,77.2,264z"/>
			<path fill="#7C7C7C" d="M46.1,260.8c0,0,0,0.1,0,0.1c0.1,0.2,0.4,0.3,0.7,0.2c0,0,0,0,0,0l0,0c0.2-0.1,0.3-0.2,0.3-0.4
				c0.2-0.3,0-0.8-0.4-0.8c-0.2,0-0.3,0.1-0.4,0.2c0,0-0.1,0.1-0.1,0.1c-0.1,0-0.1,0.1-0.1,0.1C46,260.5,46.1,260.7,46.1,260.8z"/>
			<path fill="#7C7C7C" d="M135.8,283.1c0,0,0,0.1,0,0.1c0.1,0.2,0.4,0.3,0.7,0.2c0,0,0,0,0,0l0,0c0.2-0.1,0.3-0.2,0.3-0.4
				c0.2-0.3,0-0.8-0.4-0.8c-0.2,0-0.3,0.1-0.4,0.2c0,0-0.1,0.1-0.1,0.1c-0.1,0-0.1,0.1-0.1,0.1C135.7,282.8,135.7,283,135.8,283.1z"
				/>
			<path fill="#7C7C7C" d="M102.6,284.9c0,0,0,0.1,0,0.1c0.1,0.2,0.4,0.3,0.7,0.2c0,0,0,0,0,0l0,0c0.2-0.1,0.3-0.2,0.3-0.4
				c0.2-0.3,0-0.8-0.4-0.8c-0.2,0-0.3,0.1-0.4,0.2c0,0-0.1,0.1-0.1,0.1c-0.1,0-0.1,0.1-0.1,0.1C102.5,284.6,102.5,284.8,102.6,284.9
				z"/>
			<path fill="#7C7C7C" d="M186,324c0,0,0,0.1,0,0.1c0.1,0.2,0.4,0.3,0.7,0.2c0,0,0,0,0,0l0,0c0.2-0.1,0.3-0.2,0.3-0.4
				c0.2-0.3,0-0.8-0.4-0.8c-0.2,0-0.3,0.1-0.4,0.2c0,0-0.1,0.1-0.1,0.1c-0.1,0-0.1,0.1-0.1,0.1C185.9,323.7,185.9,323.9,186,324z"/>
			<path fill="#7C7C7C" d="M48.2,323.8c0,0,0,0.1,0,0.1c0.1,0.2,0.4,0.3,0.7,0.2c0,0,0,0,0,0l0,0c0.2-0.1,0.3-0.2,0.3-0.4
				c0.2-0.3,0-0.8-0.4-0.8c-0.2,0-0.3,0.1-0.4,0.2c0,0-0.1,0.1-0.1,0.1c-0.1,0-0.1,0.1-0.1,0.1C48.1,323.5,48.2,323.6,48.2,323.8z"
				/>
			<path fill="#7C7C7C" d="M149.5,371.3c0,0,0,0.1,0,0.1c0.1,0.2,0.4,0.3,0.7,0.2c0,0,0,0,0,0l0,0c0.2-0.1,0.3-0.2,0.3-0.4
				c0.2-0.3,0-0.8-0.4-0.8c-0.2,0-0.3,0.1-0.4,0.2c0,0-0.1,0.1-0.1,0.1c-0.1,0-0.1,0.1-0.1,0.1C149.4,371,149.4,371.1,149.5,371.3z"
				/>
			<path fill="#7C7C7C" d="M63.7,259c0,0,0,0.1,0,0.1c0.1,0.2,0.4,0.3,0.7,0.2c0,0,0,0,0,0l0,0c0.2-0.1,0.3-0.2,0.3-0.4
				c0.2-0.3,0-0.8-0.4-0.8c-0.2,0-0.3,0.1-0.4,0.2c0,0-0.1,0.1-0.1,0.1c-0.1,0-0.1,0.1-0.1,0.1C63.6,258.7,63.7,258.9,63.7,259z"/>
			<g>
				<path fill="#7C7C7C" d="M136.1,161"/>
			</g>
			<path fill="#7C7C7C" d="M177.9,143.4c0-0.1,0.1-0.1,0.1-0.2c0.3-0.5,0.9-0.5,1.4-0.4c0,0,0,0,0.1,0l0,0c0.3,0.1,0.6,0.4,0.7,0.7
				c0.4,0.6-0.1,1.6-0.8,1.6c-0.3,0-0.6-0.1-0.9-0.3c-0.1-0.1-0.1-0.1-0.2-0.2c-0.1-0.1-0.2-0.2-0.3-0.3
				C177.7,144,177.7,143.7,177.9,143.4z"/>
			<path fill="#7C7C7C" d="M164.1,168.2c0-0.1,0.1-0.1,0.1-0.2c0.3-0.5,0.9-0.5,1.4-0.4c0,0,0,0,0.1,0l0,0c0.3,0.1,0.6,0.4,0.7,0.7
				c0.4,0.6-0.1,1.6-0.8,1.6c-0.3,0-0.6-0.1-0.9-0.3c-0.1-0.1-0.1-0.1-0.2-0.2c-0.1-0.1-0.2-0.2-0.3-0.3
				C163.9,168.8,164,168.5,164.1,168.2z"/>
			<path fill="#7C7C7C" d="M112.6,182.2c0-0.1,0.1-0.1,0.1-0.2c0.3-0.5,0.9-0.5,1.4-0.4c0,0,0,0,0.1,0l0,0c0.3,0.1,0.6,0.4,0.7,0.7
				c0.4,0.6-0.1,1.6-0.8,1.6c-0.3,0-0.6-0.1-0.9-0.3c-0.1-0.1-0.1-0.1-0.2-0.2c-0.1-0.1-0.2-0.2-0.3-0.3
				C112.4,182.8,112.4,182.5,112.6,182.2z"/>
			<path fill="#7C7C7C" d="M43.3,160.3c0-0.1,0.1-0.1,0.1-0.2c0.3-0.5,0.9-0.5,1.4-0.4c0,0,0,0,0.1,0l0,0c0.3,0.1,0.6,0.4,0.7,0.7
				c0.4,0.6-0.1,1.6-0.8,1.6c-0.3,0-0.6-0.1-0.9-0.3c-0.1-0.1-0.1-0.1-0.2-0.2c-0.1-0.1-0.2-0.2-0.3-0.3
				C43.1,161,43.1,160.6,43.3,160.3z"/>
			<path fill="#7C7C7C" d="M33.4,137.6c0-0.1,0.1-0.1,0.1-0.2c0.3-0.5,0.9-0.5,1.4-0.4c0,0,0,0,0.1,0l0,0c0.3,0.1,0.6,0.4,0.7,0.7
				c0.4,0.6-0.1,1.6-0.8,1.6c-0.3,0-0.6-0.1-0.9-0.3c-0.1-0.1-0.1-0.1-0.2-0.2c-0.1-0.1-0.2-0.2-0.3-0.3
				C33.2,138.2,33.3,137.8,33.4,137.6z"/>
			<path fill="#7C7C7C" d="M66.7,190.4c0-0.1,0.1-0.1,0.1-0.2c0.3-0.5,0.9-0.5,1.4-0.4c0,0,0,0,0.1,0l0,0c0.3,0.1,0.6,0.4,0.7,0.7
				c0.4,0.6-0.1,1.6-0.8,1.6c-0.3,0-0.6-0.1-0.9-0.3c-0.1-0.1-0.1-0.1-0.2-0.2c-0.1-0.1-0.2-0.2-0.3-0.3
				C66.5,191,66.5,190.7,66.7,190.4z"/>
			<path fill="#7C7C7C" d="M39.9,196.2c0-0.1,0.1-0.1,0.1-0.2c0.3-0.5,0.9-0.5,1.4-0.4c0,0,0,0,0.1,0l0,0c0.3,0.1,0.6,0.4,0.7,0.7
				c0.4,0.6-0.1,1.6-0.8,1.6c-0.3,0-0.6-0.1-0.9-0.3c-0.1-0.1-0.1-0.1-0.2-0.2c-0.1-0.1-0.2-0.2-0.3-0.3
				C39.7,196.8,39.8,196.5,39.9,196.2z"/>
			<path fill="#7C7C7C" d="M48.4,233c0-0.1,0.1-0.1,0.1-0.2c0.3-0.5,0.9-0.5,1.4-0.4c0,0,0,0,0.1,0l0,0c0.3,0.1,0.6,0.4,0.7,0.7
				c0.4,0.6-0.1,1.6-0.8,1.6c-0.3,0-0.6-0.1-0.9-0.3c-0.1-0.1-0.1-0.1-0.2-0.2c-0.1-0.1-0.2-0.2-0.3-0.3
				C48.2,233.7,48.2,233.3,48.4,233z"/>
			<path fill="#7C7C7C" d="M88.1,230.4c0-0.1,0.1-0.1,0.1-0.2c0.3-0.5,0.9-0.5,1.4-0.4c0,0,0,0,0.1,0l0,0c0.3,0.1,0.6,0.4,0.7,0.7
				c0.4,0.6-0.1,1.6-0.8,1.6c-0.3,0-0.6-0.1-0.9-0.3c-0.1-0.1-0.1-0.1-0.2-0.2c-0.1-0.1-0.2-0.2-0.3-0.3
				C87.9,231.1,88,230.7,88.1,230.4z"/>
			<path fill="#7C7C7C" d="M129.9,242.4c0-0.1,0.1-0.1,0.1-0.2c0.3-0.5,0.9-0.5,1.4-0.4c0,0,0,0,0.1,0l0,0c0.3,0.1,0.6,0.4,0.7,0.7
				c0.4,0.6-0.1,1.6-0.8,1.6c-0.3,0-0.6-0.1-0.9-0.3c-0.1-0.1-0.1-0.1-0.2-0.2c-0.1-0.1-0.2-0.2-0.3-0.3
				C129.7,243.1,129.7,242.7,129.9,242.4z"/>
			<path fill="#7C7C7C" d="M165.7,233.2c0-0.1,0.1-0.1,0.1-0.2c0.3-0.5,0.9-0.5,1.4-0.4c0,0,0,0,0.1,0l0,0c0.3,0.1,0.6,0.4,0.7,0.7
				c0.4,0.6-0.1,1.6-0.8,1.6c-0.3,0-0.6-0.1-0.9-0.3c-0.1-0.1-0.1-0.1-0.2-0.2c-0.1-0.1-0.2-0.2-0.3-0.3
				C165.5,233.8,165.5,233.5,165.7,233.2z"/>
			<path fill="#7C7C7C" d="M165.9,194.4c0-0.1,0.1-0.1,0.1-0.2c0.3-0.5,0.9-0.5,1.4-0.4c0,0,0,0,0.1,0l0,0c0.3,0.1,0.6,0.4,0.7,0.7
				c0.4,0.6-0.1,1.6-0.8,1.6c-0.3,0-0.6-0.1-0.9-0.3c-0.1-0.1-0.1-0.1-0.2-0.2c-0.1-0.1-0.2-0.2-0.3-0.3
				C165.7,195.1,165.7,194.7,165.9,194.4z"/>
			<path fill="#7C7C7C" d="M102.1,141.2c0-0.1,0.1-0.1,0.1-0.2c0.3-0.5,0.9-0.5,1.4-0.4c0,0,0,0,0.1,0l0,0c0.3,0.1,0.6,0.4,0.7,0.7
				c0.4,0.6-0.1,1.6-0.8,1.6c-0.3,0-0.6-0.1-0.9-0.3c-0.1-0.1-0.1-0.1-0.2-0.2c-0.1-0.1-0.2-0.2-0.3-0.3
				C101.9,141.8,102,141.5,102.1,141.2z"/>
			<path fill="#7C7C7C" d="M121.3,164.1c0,0,0-0.1,0-0.1c0.1-0.2,0.4-0.3,0.7-0.2c0,0,0,0,0,0l0,0c0.2,0.1,0.3,0.2,0.3,0.4
				c0.2,0.3,0,0.8-0.4,0.8c-0.2,0-0.3-0.1-0.4-0.2c0,0-0.1-0.1-0.1-0.1c-0.1,0-0.1-0.1-0.1-0.1C121.2,164.4,121.2,164.2,121.3,164.1
				z"/>
			<path fill="#7C7C7C" d="M125.9,168.1c0,0,0-0.1,0-0.1c0.1-0.2,0.4-0.3,0.7-0.2c0,0,0,0,0,0l0,0c0.2,0.1,0.3,0.2,0.3,0.4
				c0.2,0.3,0,0.8-0.4,0.8c-0.2,0-0.3-0.1-0.4-0.2c0,0-0.1-0.1-0.1-0.1c-0.1,0-0.1-0.1-0.1-0.1C125.7,168.4,125.8,168.3,125.9,168.1
				z"/>
			<path fill="#7C7C7C" d="M153.9,146.6c0,0,0-0.1,0-0.1c0.1-0.2,0.4-0.3,0.7-0.2c0,0,0,0,0,0l0,0c0.2,0.1,0.3,0.2,0.3,0.4
				c0.2,0.3,0,0.8-0.4,0.8c-0.2,0-0.3-0.1-0.4-0.2c0,0-0.1-0.1-0.1-0.1c-0.1,0-0.1-0.1-0.1-0.1C153.7,146.9,153.8,146.8,153.9,146.6
				z"/>
			<path fill="#7C7C7C" d="M164.3,151.4c0,0,0-0.1,0-0.1c0.1-0.2,0.4-0.3,0.7-0.2c0,0,0,0,0,0l0,0c0.2,0.1,0.3,0.2,0.3,0.4
				c0.2,0.3,0,0.8-0.4,0.8c-0.2,0-0.3-0.1-0.4-0.2c0,0-0.1-0.1-0.1-0.1c-0.1,0-0.1-0.1-0.1-0.1C164.2,151.7,164.2,151.5,164.3,151.4
				z"/>
			<path fill="#7C7C7C" d="M152.1,188.3c0,0,0-0.1,0-0.1c0.1-0.2,0.4-0.3,0.7-0.2c0,0,0,0,0,0l0,0c0.2,0.1,0.3,0.2,0.3,0.4
				c0.2,0.3,0,0.8-0.4,0.8c-0.2,0-0.3-0.1-0.4-0.2c0,0-0.1-0.1-0.1-0.1c-0.1,0-0.1-0.1-0.1-0.1C152,188.6,152,188.5,152.1,188.3z"/>
			<path fill="#7C7C7C" d="M110.3,186.4c0,0,0-0.1,0-0.1c0.1-0.2,0.4-0.3,0.7-0.2c0,0,0,0,0,0l0,0c0.2,0.1,0.3,0.2,0.3,0.4
				c0.2,0.3,0,0.8-0.4,0.8c-0.2,0-0.3-0.1-0.4-0.2c0,0-0.1-0.1-0.1-0.1c-0.1,0-0.1-0.1-0.1-0.1C110.2,186.7,110.2,186.5,110.3,186.4
				z"/>
			<path fill="#7C7C7C" d="M93.1,142.6c0,0,0-0.1,0-0.1c0.1-0.2,0.4-0.3,0.7-0.2c0,0,0,0,0,0l0,0c0.2,0.1,0.3,0.2,0.3,0.4
				c0.2,0.3,0,0.8-0.4,0.8c-0.2,0-0.3-0.1-0.4-0.2c0,0-0.1-0.1-0.1-0.1c-0.1,0-0.1-0.1-0.1-0.1C93,142.9,93,142.7,93.1,142.6z"/>
			<path fill="#7C7C7C" d="M80.6,195.6c0,0,0-0.1,0-0.1c0.1-0.2,0.4-0.3,0.7-0.2c0,0,0,0,0,0l0,0c0.2,0.1,0.3,0.2,0.3,0.4
				c0.2,0.3,0,0.8-0.4,0.8c-0.2,0-0.3-0.1-0.4-0.2c0,0-0.1-0.1-0.1-0.1c-0.1,0-0.1-0.1-0.1-0.1C80.5,195.9,80.5,195.8,80.6,195.6z"
				/>
			<path fill="#7C7C7C" d="M57.3,165.2c0,0,0-0.1,0-0.1c0.1-0.2,0.4-0.3,0.7-0.2c0,0,0,0,0,0l0,0c0.2,0.1,0.3,0.2,0.3,0.4
				c0.2,0.3,0,0.8-0.4,0.8c-0.2,0-0.3-0.1-0.4-0.2c0,0-0.1-0.1-0.1-0.1c-0.1,0-0.1-0.1-0.1-0.1C57.2,165.5,57.2,165.3,57.3,165.2z"
				/>
			<path fill="#7C7C7C" d="M53,160.3c0,0,0-0.1,0-0.1c0.1-0.2,0.4-0.3,0.7-0.2c0,0,0,0,0,0l0,0c0.2,0.1,0.3,0.2,0.3,0.4
				c0.2,0.3,0,0.8-0.4,0.8c-0.2,0-0.3-0.1-0.4-0.2c0,0-0.1-0.1-0.1-0.1c-0.1,0-0.1-0.1-0.1-0.1C52.9,160.6,52.9,160.4,53,160.3z"/>
			<path fill="#7C7C7C" d="M42.6,170.1c0,0,0-0.1,0-0.1c0.1-0.2,0.4-0.3,0.7-0.2c0,0,0,0,0,0l0,0c0.2,0.1,0.3,0.2,0.3,0.4
				c0.2,0.3,0,0.8-0.4,0.8c-0.2,0-0.3-0.1-0.4-0.2c0,0-0.1-0.1-0.1-0.1c-0.1,0-0.1-0.1-0.1-0.1C42.5,170.4,42.5,170.2,42.6,170.1z"
				/>
			<path fill="#7C7C7C" d="M80.8,158.7c0,0,0-0.1,0-0.1c0.1-0.2,0.4-0.3,0.7-0.2c0,0,0,0,0,0l0,0c0.2,0.1,0.3,0.2,0.3,0.4
				c0.2,0.3,0,0.8-0.4,0.8c-0.2,0-0.3-0.1-0.4-0.2c0,0-0.1-0.1-0.1-0.1c-0.1,0-0.1-0.1-0.1-0.1C80.7,159,80.7,158.8,80.8,158.7z"/>
			<path fill="#7C7C7C" d="M87.3,174.1c0,0,0-0.1,0-0.1c0.1-0.2,0.4-0.3,0.7-0.2c0,0,0,0,0,0l0,0c0.2,0.1,0.3,0.2,0.3,0.4
				c0.2,0.3,0,0.8-0.4,0.8c-0.2,0-0.3-0.1-0.4-0.2c0,0-0.1-0.1-0.1-0.1c-0.1,0-0.1-0.1-0.1-0.1C87.2,174.4,87.2,174.2,87.3,174.1z"
				/>
			<path fill="#7C7C7C" d="M33,147.8c0,0,0-0.1,0-0.1c0.1-0.2,0.4-0.3,0.7-0.2c0,0,0,0,0,0l0,0c0.2,0.1,0.3,0.2,0.3,0.4
				c0.2,0.3,0,0.8-0.4,0.8c-0.2,0-0.3-0.1-0.4-0.2c0,0-0.1-0.1-0.1-0.1c-0.1,0-0.1-0.1-0.1-0.1C32.9,148.1,32.9,147.9,33,147.8z"/>
			<path fill="#7C7C7C" d="M145.6,225.1c0,0,0-0.1,0-0.1c0.1-0.2,0.4-0.3,0.7-0.2c0,0,0,0,0,0l0,0c0.2,0.1,0.3,0.2,0.3,0.4
				c0.2,0.3,0,0.8-0.4,0.8c-0.2,0-0.3-0.1-0.4-0.2c0,0-0.1-0.1-0.1-0.1c-0.1,0-0.1-0.1-0.1-0.1C145.5,225.4,145.5,225.3,145.6,225.1
				z"/>
			<path fill="#7C7C7C" d="M114.6,231.4c0,0,0-0.1,0-0.1c0.1-0.2,0.4-0.3,0.7-0.2c0,0,0,0,0,0l0,0c0.2,0.1,0.3,0.2,0.3,0.4
				c0.2,0.3,0,0.8-0.4,0.8c-0.2,0-0.3-0.1-0.4-0.2c0,0-0.1-0.1-0.1-0.1c-0.1,0-0.1-0.1-0.1-0.1C114.5,231.7,114.5,231.5,114.6,231.4
				z"/>
			<path fill="#7C7C7C" d="M93.4,240.5c0,0,0-0.1,0-0.1c0.1-0.2,0.4-0.3,0.7-0.2c0,0,0,0,0,0l0,0c0.2,0.1,0.3,0.2,0.3,0.4
				c0.2,0.3,0,0.8-0.4,0.8c-0.2,0-0.3-0.1-0.4-0.2c0,0-0.1-0.1-0.1-0.1c-0.1,0-0.1-0.1-0.1-0.1C93.3,240.8,93.3,240.6,93.4,240.5z"
				/>
			<path fill="#7C7C7C" d="M111.3,170.1c0,0,0-0.1,0-0.1c0.1-0.2,0.4-0.3,0.7-0.2c0,0,0,0,0,0l0,0c0.2,0.1,0.3,0.2,0.3,0.4
				c0.2,0.3,0,0.8-0.4,0.8c-0.2,0-0.3-0.1-0.4-0.2c0,0-0.1-0.1-0.1-0.1c-0.1,0-0.1-0.1-0.1-0.1C111.2,170.4,111.2,170.2,111.3,170.1
				z"/>
			<path fill="#7C7C7C" d="M64,225.8c0,0,0-0.1,0-0.1c0.1-0.2,0.4-0.3,0.7-0.2c0,0,0,0,0,0l0,0c0.2,0.1,0.3,0.2,0.3,0.4
				c0.2,0.3,0,0.8-0.4,0.8c-0.2,0-0.3-0.1-0.4-0.2c0,0-0.1-0.1-0.1-0.1c-0.1,0-0.1-0.1-0.1-0.1C63.9,226.1,63.9,225.9,64,225.8z"/>
			<path fill="#7C7C7C" d="M39.6,224.1c0,0,0-0.1,0-0.1c0.1-0.2,0.4-0.3,0.7-0.2c0,0,0,0,0,0l0,0c0.2,0.1,0.3,0.2,0.3,0.4
				c0.2,0.3,0,0.8-0.4,0.8c-0.2,0-0.3-0.1-0.4-0.2c0,0-0.1-0.1-0.1-0.1c-0.1,0-0.1-0.1-0.1-0.1C39.5,224.4,39.5,224.3,39.6,224.1z"
				/>
			<path fill="#7C7C7C" d="M36.7,229c0,0,0-0.1,0-0.1c0.1-0.2,0.4-0.3,0.7-0.2c0,0,0,0,0,0l0,0c0.2,0.1,0.3,0.2,0.3,0.4
				c0.2,0.3,0,0.8-0.4,0.8c-0.2,0-0.3-0.1-0.4-0.2c0,0-0.1-0.1-0.1-0.1c-0.1,0-0.1-0.1-0.1-0.1C36.6,229.3,36.7,229.1,36.7,229z"/>
			<path fill="#7C7C7C" d="M168.5,223c0,0,0-0.1,0-0.1c0.1-0.2,0.4-0.3,0.7-0.2c0,0,0,0,0,0l0,0c0.2,0.1,0.3,0.2,0.3,0.4
				c0.2,0.3,0,0.8-0.4,0.8c-0.2,0-0.3-0.1-0.4-0.2c0,0-0.1-0.1-0.1-0.1c-0.1,0-0.1-0.1-0.1-0.1C168.4,223.3,168.4,223.1,168.5,223z"
				/>
			<path fill="#7C7C7C" d="M174,234.3c0,0,0-0.1,0-0.1c0.1-0.2,0.4-0.3,0.7-0.2c0,0,0,0,0,0l0,0c0.2,0.1,0.3,0.2,0.3,0.4
				c0.2,0.3,0,0.8-0.4,0.8c-0.2,0-0.3-0.1-0.4-0.2c0,0-0.1-0.1-0.1-0.1c-0.1,0-0.1-0.1-0.1-0.1C173.9,234.6,173.9,234.4,174,234.3z"
				/>
			<path fill="#7C7C7C" d="M149,246c0,0,0-0.1,0-0.1c0.1-0.2,0.4-0.3,0.7-0.2c0,0,0,0,0,0l0,0c0.2,0.1,0.3,0.2,0.3,0.4
				c0.2,0.3,0,0.8-0.4,0.8c-0.2,0-0.3-0.1-0.4-0.2c0,0-0.1-0.1-0.1-0.1c-0.1,0-0.1-0.1-0.1-0.1C148.9,246.3,148.9,246.1,149,246z"/>
			<path fill="#7C7C7C" d="M133.4,188.9c0,0,0-0.1,0-0.1c0.1-0.2,0.4-0.3,0.7-0.2c0,0,0,0,0,0l0,0c0.2,0.1,0.3,0.2,0.3,0.4
				c0.2,0.3,0,0.8-0.4,0.8c-0.2,0-0.3-0.1-0.4-0.2c0,0-0.1-0.1-0.1-0.1c-0.1,0-0.1-0.1-0.1-0.1C133.2,189.2,133.3,189,133.4,188.9z"
				/>
			<path fill="#7C7C7C" d="M128.5,143.3c0,0,0-0.1,0-0.1c0.1-0.2,0.4-0.3,0.7-0.2c0,0,0,0,0,0l0,0c0.2,0.1,0.3,0.2,0.3,0.4
				c0.2,0.3,0,0.8-0.4,0.8c-0.2,0-0.3-0.1-0.4-0.2c0,0-0.1-0.1-0.1-0.1c-0.1,0-0.1-0.1-0.1-0.1C128.4,143.6,128.4,143.4,128.5,143.3
				z"/>
			<path fill="#7C7C7C" d="M56.8,136.9c0,0,0-0.1,0-0.1c0.1-0.2,0.4-0.3,0.7-0.2c0,0,0,0,0,0l0,0c0.2,0.1,0.3,0.2,0.3,0.4
				c0.2,0.3,0,0.8-0.4,0.8c-0.2,0-0.3-0.1-0.4-0.2c0,0-0.1-0.1-0.1-0.1c-0.1,0-0.1-0.1-0.1-0.1C56.7,137.2,56.7,137,56.8,136.9z"/>
			<path fill="#7C7C7C" d="M60.2,150.8c0,0,0-0.1,0-0.1c0.1-0.2,0.4-0.3,0.7-0.2c0,0,0,0,0,0l0,0c0.2,0.1,0.3,0.2,0.3,0.4
				c0.2,0.3,0,0.8-0.4,0.8c-0.2,0-0.3-0.1-0.4-0.2c0,0-0.1-0.1-0.1-0.1c-0.1,0-0.1-0.1-0.1-0.1C60.1,151.1,60.2,150.9,60.2,150.8z"
				/>
			<path fill="#7C7C7C" d="M72.2,242.8c0,0,0-0.1,0-0.1c0.1-0.2,0.4-0.3,0.7-0.2c0,0,0,0,0,0l0,0c0.2,0.1,0.3,0.2,0.3,0.4
				c0.2,0.3,0,0.8-0.4,0.8c-0.2,0-0.3-0.1-0.4-0.2c0,0-0.1-0.1-0.1-0.1c-0.1,0-0.1-0.1-0.1-0.1C72.1,243.1,72.2,242.9,72.2,242.8z"
				/>
			<path fill="#7C7C7C" d="M41.1,246c0,0,0-0.1,0-0.1c0.1-0.2,0.4-0.3,0.7-0.2c0,0,0,0,0,0l0,0c0.2,0.1,0.3,0.2,0.3,0.4
				c0.2,0.3,0,0.8-0.4,0.8c-0.2,0-0.3-0.1-0.4-0.2c0,0-0.1-0.1-0.1-0.1c-0.1,0-0.1-0.1-0.1-0.1C41,246.3,41.1,246.1,41.1,246z"/>
			<path fill="#7C7C7C" d="M130.8,223.7c0,0,0-0.1,0-0.1c0.1-0.2,0.4-0.3,0.7-0.2c0,0,0,0,0,0l0,0c0.2,0.1,0.3,0.2,0.3,0.4
				c0.2,0.3,0,0.8-0.4,0.8c-0.2,0-0.3-0.1-0.4-0.2c0,0-0.1-0.1-0.1-0.1c-0.1,0-0.1-0.1-0.1-0.1C130.7,224,130.7,223.8,130.8,223.7z"
				/>
			<path fill="#7C7C7C" d="M97.6,221.9c0,0,0-0.1,0-0.1c0.1-0.2,0.4-0.3,0.7-0.2c0,0,0,0,0,0l0,0c0.2,0.1,0.3,0.2,0.3,0.4
				c0.2,0.3,0,0.8-0.4,0.8c-0.2,0-0.3-0.1-0.4-0.2c0,0-0.1-0.1-0.1-0.1c-0.1,0-0.1-0.1-0.1-0.1C97.5,222.2,97.5,222,97.6,221.9z"/>
			<path fill="#7C7C7C" d="M181,182.8c0,0,0-0.1,0-0.1c0.1-0.2,0.4-0.3,0.7-0.2c0,0,0,0,0,0l0,0c0.2,0.1,0.3,0.2,0.3,0.4
				c0.2,0.3,0,0.8-0.4,0.8c-0.2,0-0.3-0.1-0.4-0.2c0,0-0.1-0.1-0.1-0.1c-0.1,0-0.1-0.1-0.1-0.1C180.9,183.1,180.9,182.9,181,182.8z"
				/>
			<path fill="#7C7C7C" d="M43.2,183c0,0,0-0.1,0-0.1c0.1-0.2,0.4-0.3,0.7-0.2c0,0,0,0,0,0l0,0c0.2,0.1,0.3,0.2,0.3,0.4
				c0.2,0.3,0,0.8-0.4,0.8c-0.2,0-0.3-0.1-0.4-0.2c0,0-0.1-0.1-0.1-0.1c-0.1,0-0.1-0.1-0.1-0.1C43.1,183.3,43.2,183.1,43.2,183z"/>
			<path fill="#7C7C7C" d="M144.5,135.5c0,0,0-0.1,0-0.1c0.1-0.2,0.4-0.3,0.7-0.2c0,0,0,0,0,0l0,0c0.2,0.1,0.3,0.2,0.3,0.4
				c0.2,0.3,0,0.8-0.4,0.8c-0.2,0-0.3-0.1-0.4-0.2c0,0-0.1-0.1-0.1-0.1c-0.1,0-0.1-0.1-0.1-0.1C144.4,135.8,144.4,135.6,144.5,135.5
				z"/>
			<path fill="#7C7C7C" d="M58.7,247.8c0,0,0-0.1,0-0.1c0.1-0.2,0.4-0.3,0.7-0.2c0,0,0,0,0,0l0,0c0.2,0.1,0.3,0.2,0.3,0.4
				c0.2,0.3,0,0.8-0.4,0.8c-0.2,0-0.3-0.1-0.4-0.2c0,0-0.1-0.1-0.1-0.1c-0.1,0-0.1-0.1-0.1-0.1C58.6,248.1,58.7,247.9,58.7,247.8z"
				/>
			<g>
				<path fill="#7C7C7C" d="M79,41"/>
			</g>
			<path fill="#7C7C7C" d="M37.2,23.4c0-0.1-0.1-0.1-0.1-0.2c-0.3-0.5-0.9-0.5-1.4-0.4c0,0,0,0-0.1,0l0,0c-0.3,0.1-0.6,0.4-0.7,0.7
				c-0.4,0.6,0.1,1.6,0.8,1.6c0.3,0,0.6-0.1,0.9-0.3c0.1-0.1,0.1-0.1,0.2-0.2c0.1-0.1,0.2-0.2,0.3-0.3C37.4,24,37.3,23.7,37.2,23.4z
				"/>
			<path fill="#7C7C7C" d="M50.9,48.2c0-0.1-0.1-0.1-0.1-0.2c-0.3-0.5-0.9-0.5-1.4-0.4c0,0,0,0-0.1,0l0,0c-0.3,0.1-0.6,0.4-0.7,0.7
				c-0.4,0.6,0.1,1.6,0.8,1.6c0.3,0,0.6-0.1,0.9-0.3c0.1-0.1,0.1-0.1,0.2-0.2c0.1-0.1,0.2-0.2,0.3-0.3
				C51.1,48.8,51.1,48.5,50.9,48.2z"/>
			<path fill="#7C7C7C" d="M102.4,62.2c0-0.1-0.1-0.1-0.1-0.2c-0.3-0.5-0.9-0.5-1.4-0.4c0,0,0,0-0.1,0l0,0c-0.3,0.1-0.6,0.4-0.7,0.7
				c-0.4,0.6,0.1,1.6,0.8,1.6c0.3,0,0.6-0.1,0.9-0.3c0.1-0.1,0.1-0.1,0.2-0.2c0.1-0.1,0.2-0.2,0.3-0.3
				C102.6,62.8,102.6,62.5,102.4,62.2z"/>
			<path fill="#7C7C7C" d="M171.7,40.3c0-0.1-0.1-0.1-0.1-0.2c-0.3-0.5-0.9-0.5-1.4-0.4c0,0,0,0-0.1,0l0,0c-0.3,0.1-0.6,0.4-0.7,0.7
				c-0.4,0.6,0.1,1.6,0.8,1.6c0.3,0,0.6-0.1,0.9-0.3c0.1-0.1,0.1-0.1,0.2-0.2c0.1-0.1,0.2-0.2,0.3-0.3
				C171.9,41,171.9,40.6,171.7,40.3z"/>
			<path fill="#7C7C7C" d="M181.6,17.6c0-0.1-0.1-0.1-0.1-0.2c-0.3-0.5-0.9-0.5-1.4-0.4c0,0,0,0-0.1,0l0,0c-0.3,0.1-0.6,0.4-0.7,0.7
				c-0.4,0.6,0.1,1.6,0.8,1.6c0.3,0,0.6-0.1,0.9-0.3c0.1-0.1,0.1-0.1,0.2-0.2c0.1-0.1,0.2-0.2,0.3-0.3
				C181.8,18.2,181.8,17.8,181.6,17.6z"/>
			<path fill="#7C7C7C" d="M148.4,70.4c0-0.1-0.1-0.1-0.1-0.2c-0.3-0.5-0.9-0.5-1.4-0.4c0,0,0,0-0.1,0l0,0c-0.3,0.1-0.6,0.4-0.7,0.7
				c-0.4,0.6,0.1,1.6,0.8,1.6c0.3,0,0.6-0.1,0.9-0.3c0.1-0.1,0.1-0.1,0.2-0.2c0.1-0.1,0.2-0.2,0.3-0.3
				C148.6,71,148.6,70.7,148.4,70.4z"/>
			<path fill="#7C7C7C" d="M175.1,76.2c0-0.1-0.1-0.1-0.1-0.2c-0.3-0.5-0.9-0.5-1.4-0.4c0,0,0,0-0.1,0l0,0c-0.3,0.1-0.6,0.4-0.7,0.7
				c-0.4,0.6,0.1,1.6,0.8,1.6c0.3,0,0.6-0.1,0.9-0.3c0.1-0.1,0.1-0.1,0.2-0.2c0.1-0.1,0.2-0.2,0.3-0.3
				C175.3,76.8,175.3,76.5,175.1,76.2z"/>
			<path fill="#7C7C7C" d="M166.7,113c0-0.1-0.1-0.1-0.1-0.2c-0.3-0.5-0.9-0.5-1.4-0.4c0,0,0,0-0.1,0l0,0c-0.3,0.1-0.6,0.4-0.7,0.7
				c-0.4,0.6,0.1,1.6,0.8,1.6c0.3,0,0.6-0.1,0.9-0.3c0.1-0.1,0.1-0.1,0.2-0.2c0.1-0.1,0.2-0.2,0.3-0.3
				C166.9,113.7,166.8,113.3,166.7,113z"/>
			<path fill="#7C7C7C" d="M126.9,110.4c0-0.1-0.1-0.1-0.1-0.2c-0.3-0.5-0.9-0.5-1.4-0.4c0,0,0,0-0.1,0l0,0
				c-0.3,0.1-0.6,0.4-0.7,0.7c-0.4,0.6,0.1,1.6,0.8,1.6c0.3,0,0.6-0.1,0.9-0.3c0.1-0.1,0.1-0.1,0.2-0.2c0.1-0.1,0.2-0.2,0.3-0.3
				C127.1,111.1,127.1,110.7,126.9,110.4z"/>
			<path fill="#7C7C7C" d="M85.2,122.4c0-0.1-0.1-0.1-0.1-0.2c-0.3-0.5-0.9-0.5-1.4-0.4c0,0,0,0-0.1,0l0,0c-0.3,0.1-0.6,0.4-0.7,0.7
				c-0.4,0.6,0.1,1.6,0.8,1.6c0.3,0,0.6-0.1,0.9-0.3c0.1-0.1,0.1-0.1,0.2-0.2c0.1-0.1,0.2-0.2,0.3-0.3
				C85.4,123.1,85.4,122.7,85.2,122.4z"/>
			<path fill="#7C7C7C" d="M49.4,113.2c0-0.1-0.1-0.1-0.1-0.2c-0.3-0.5-0.9-0.5-1.4-0.4c0,0,0,0-0.1,0l0,0c-0.3,0.1-0.6,0.4-0.7,0.7
				c-0.4,0.6,0.1,1.6,0.8,1.6c0.3,0,0.6-0.1,0.9-0.3c0.1-0.1,0.1-0.1,0.2-0.2c0.1-0.1,0.2-0.2,0.3-0.3
				C49.6,113.8,49.5,113.5,49.4,113.2z"/>
			<path fill="#7C7C7C" d="M49.2,74.4c0-0.1-0.1-0.1-0.1-0.2c-0.3-0.5-0.9-0.5-1.4-0.4c0,0,0,0-0.1,0l0,0c-0.3,0.1-0.6,0.4-0.7,0.7
				c-0.4,0.6,0.1,1.6,0.8,1.6c0.3,0,0.6-0.1,0.9-0.3c0.1-0.1,0.1-0.1,0.2-0.2c0.1-0.1,0.2-0.2,0.3-0.3
				C49.4,75.1,49.4,74.7,49.2,74.4z"/>
			<path fill="#7C7C7C" d="M112.9,21.2c0-0.1-0.1-0.1-0.1-0.2c-0.3-0.5-0.9-0.5-1.4-0.4c0,0,0,0-0.1,0l0,0c-0.3,0.1-0.6,0.4-0.7,0.7
				c-0.4,0.6,0.1,1.6,0.8,1.6c0.3,0,0.6-0.1,0.9-0.3c0.1-0.1,0.1-0.1,0.2-0.2c0.1-0.1,0.2-0.2,0.3-0.3
				C113.1,21.8,113.1,21.5,112.9,21.2z"/>
			<path fill="#7C7C7C" d="M93.7,44.1c0,0,0-0.1,0-0.1c-0.1-0.2-0.4-0.3-0.7-0.2c0,0,0,0,0,0l0,0c-0.2,0.1-0.3,0.2-0.3,0.4
				c-0.2,0.3,0,0.8,0.4,0.8c0.2,0,0.3-0.1,0.4-0.2c0,0,0.1-0.1,0.1-0.1c0.1,0,0.1-0.1,0.1-0.1C93.8,44.4,93.8,44.2,93.7,44.1z"/>
			<path fill="#7C7C7C" d="M89.2,48.1c0,0,0-0.1,0-0.1c-0.1-0.2-0.4-0.3-0.7-0.2c0,0,0,0,0,0l0,0c-0.2,0.1-0.3,0.2-0.3,0.4
				c-0.2,0.3,0,0.8,0.4,0.8c0.2,0,0.3-0.1,0.4-0.2c0,0,0.1-0.1,0.1-0.1c0.1,0,0.1-0.1,0.1-0.1C89.3,48.4,89.3,48.3,89.2,48.1z"/>
			<path fill="#7C7C7C" d="M61.2,26.6c0,0,0-0.1,0-0.1c-0.1-0.2-0.4-0.3-0.7-0.2c0,0,0,0,0,0l0,0c-0.2,0.1-0.3,0.2-0.3,0.4
				c-0.2,0.3,0,0.8,0.4,0.8c0.2,0,0.3-0.1,0.4-0.2c0,0,0.1-0.1,0.1-0.1c0.1,0,0.1-0.1,0.1-0.1C61.3,26.9,61.3,26.8,61.2,26.6z"/>
			<path fill="#7C7C7C" d="M50.7,31.4c0,0,0-0.1,0-0.1C50.5,31,50.3,31,50,31.1c0,0,0,0,0,0l0,0c-0.2,0.1-0.3,0.2-0.3,0.4
				c-0.2,0.3,0,0.8,0.4,0.8c0.2,0,0.3-0.1,0.4-0.2c0,0,0.1-0.1,0.1-0.1c0.1,0,0.1-0.1,0.1-0.1C50.8,31.7,50.8,31.5,50.7,31.4z"/>
			<path fill="#7C7C7C" d="M63,68.3c0,0,0-0.1,0-0.1C62.8,68,62.5,68,62.3,68c0,0,0,0,0,0l0,0c-0.2,0.1-0.3,0.2-0.3,0.4
				c-0.2,0.3,0,0.8,0.4,0.8c0.2,0,0.3-0.1,0.4-0.2c0,0,0.1-0.1,0.1-0.1c0.1,0,0.1-0.1,0.1-0.1C63.1,68.6,63.1,68.5,63,68.3z"/>
			<path fill="#7C7C7C" d="M104.7,66.4c0,0,0-0.1,0-0.1c-0.1-0.2-0.4-0.3-0.7-0.2c0,0,0,0,0,0l0,0c-0.2,0.1-0.3,0.2-0.3,0.4
				c-0.2,0.3,0,0.8,0.4,0.8c0.2,0,0.3-0.1,0.4-0.2c0,0,0.1-0.1,0.1-0.1c0.1,0,0.1-0.1,0.1-0.1C104.8,66.7,104.8,66.5,104.7,66.4z"/>
			<path fill="#7C7C7C" d="M122,22.6c0,0,0-0.1,0-0.1c-0.1-0.2-0.4-0.3-0.7-0.2c0,0,0,0,0,0l0,0c-0.2,0.1-0.3,0.2-0.3,0.4
				c-0.2,0.3,0,0.8,0.4,0.8c0.2,0,0.3-0.1,0.4-0.2c0,0,0.1-0.1,0.1-0.1c0.1,0,0.1-0.1,0.1-0.1C122.1,22.9,122.1,22.7,122,22.6z"/>
			<path fill="#7C7C7C" d="M134.5,75.6c0,0,0-0.1,0-0.1c-0.1-0.2-0.4-0.3-0.7-0.2c0,0,0,0,0,0l0,0c-0.2,0.1-0.3,0.2-0.3,0.4
				c-0.2,0.3,0,0.8,0.4,0.8c0.2,0,0.3-0.1,0.4-0.2c0,0,0.1-0.1,0.1-0.1c0.1,0,0.1-0.1,0.1-0.1C134.6,75.9,134.6,75.8,134.5,75.6z"/>
			<path fill="#7C7C7C" d="M157.8,45.2c0,0,0-0.1,0-0.1c-0.1-0.2-0.4-0.3-0.7-0.2c0,0,0,0,0,0l0,0c-0.2,0.1-0.3,0.2-0.3,0.4
				c-0.2,0.3,0,0.8,0.4,0.8c0.2,0,0.3-0.1,0.4-0.2c0,0,0.1-0.1,0.1-0.1c0.1,0,0.1-0.1,0.1-0.1C157.9,45.5,157.9,45.3,157.8,45.2z"/>
			<path fill="#7C7C7C" d="M162.1,40.3c0,0,0-0.1,0-0.1c-0.1-0.2-0.4-0.3-0.7-0.2c0,0,0,0,0,0l0,0c-0.2,0.1-0.3,0.2-0.3,0.4
				c-0.2,0.3,0,0.8,0.4,0.8c0.2,0,0.3-0.1,0.4-0.2c0,0,0.1-0.1,0.1-0.1c0.1,0,0.1-0.1,0.1-0.1C162.2,40.6,162.1,40.4,162.1,40.3z"/>
			<path fill="#7C7C7C" d="M172.5,50.1c0,0,0-0.1,0-0.1c-0.1-0.2-0.4-0.3-0.7-0.2c0,0,0,0,0,0l0,0c-0.2,0.1-0.3,0.2-0.3,0.4
				c-0.2,0.3,0,0.8,0.4,0.8c0.2,0,0.3-0.1,0.4-0.2c0,0,0.1-0.1,0.1-0.1c0.1,0,0.1-0.1,0.1-0.1C172.6,50.4,172.6,50.2,172.5,50.1z"/>
			<path fill="#7C7C7C" d="M134.3,38.7c0,0,0-0.1,0-0.1c-0.1-0.2-0.4-0.3-0.7-0.2c0,0,0,0,0,0l0,0c-0.2,0.1-0.3,0.2-0.3,0.4
				c-0.2,0.3,0,0.8,0.4,0.8c0.2,0,0.3-0.1,0.4-0.2c0,0,0.1-0.1,0.1-0.1c0.1,0,0.1-0.1,0.1-0.1C134.4,39,134.4,38.8,134.3,38.7z"/>
			<path fill="#7C7C7C" d="M127.7,54.1c0,0,0-0.1,0-0.1c-0.1-0.2-0.4-0.3-0.7-0.2c0,0,0,0,0,0l0,0c-0.2,0.1-0.3,0.2-0.3,0.4
				c-0.2,0.3,0,0.8,0.4,0.8c0.2,0,0.3-0.1,0.4-0.2c0,0,0.1-0.1,0.1-0.1c0.1,0,0.1-0.1,0.1-0.1C127.8,54.4,127.8,54.2,127.7,54.1z"/>
			<path fill="#7C7C7C" d="M182.1,27.8c0,0,0-0.1,0-0.1c-0.1-0.2-0.4-0.3-0.7-0.2c0,0,0,0,0,0l0,0c-0.2,0.1-0.3,0.2-0.3,0.4
				c-0.2,0.3,0,0.8,0.4,0.8c0.2,0,0.3-0.1,0.4-0.2c0,0,0.1-0.1,0.1-0.1c0.1,0,0.1-0.1,0.1-0.1C182.2,28.1,182.1,27.9,182.1,27.8z"/>
			<path fill="#7C7C7C" d="M69.5,105.1c0,0,0-0.1,0-0.1c-0.1-0.2-0.4-0.3-0.7-0.2c0,0,0,0,0,0l0,0c-0.2,0.1-0.3,0.2-0.3,0.4
				c-0.2,0.3,0,0.8,0.4,0.8c0.2,0,0.3-0.1,0.4-0.2c0,0,0.1-0.1,0.1-0.1c0.1,0,0.1-0.1,0.1-0.1C69.6,105.4,69.6,105.3,69.5,105.1z"/>
			<path fill="#7C7C7C" d="M100.5,111.4c0,0,0-0.1,0-0.1c-0.1-0.2-0.4-0.3-0.7-0.2c0,0,0,0,0,0l0,0c-0.2,0.1-0.3,0.2-0.3,0.4
				c-0.2,0.3,0,0.8,0.4,0.8c0.2,0,0.3-0.1,0.4-0.2c0,0,0.1-0.1,0.1-0.1c0.1,0,0.1-0.1,0.1-0.1C100.6,111.7,100.6,111.5,100.5,111.4z
				"/>
			<path fill="#7C7C7C" d="M121.7,120.5c0,0,0-0.1,0-0.1c-0.1-0.2-0.4-0.3-0.7-0.2c0,0,0,0,0,0l0,0c-0.2,0.1-0.3,0.2-0.3,0.4
				c-0.2,0.3,0,0.8,0.4,0.8c0.2,0,0.3-0.1,0.4-0.2c0,0,0.1-0.1,0.1-0.1c0.1,0,0.1-0.1,0.1-0.1C121.8,120.8,121.7,120.6,121.7,120.5z
				"/>
			<path fill="#7C7C7C" d="M103.7,50.1c0,0,0-0.1,0-0.1c-0.1-0.2-0.4-0.3-0.7-0.2c0,0,0,0,0,0l0,0c-0.2,0.1-0.3,0.2-0.3,0.4
				c-0.2,0.3,0,0.8,0.4,0.8c0.2,0,0.3-0.1,0.4-0.2c0,0,0.1-0.1,0.1-0.1c0.1,0,0.1-0.1,0.1-0.1C103.8,50.4,103.8,50.2,103.7,50.1z"/>
			<path fill="#7C7C7C" d="M151.1,105.8c0,0,0-0.1,0-0.1c-0.1-0.2-0.4-0.3-0.7-0.2c0,0,0,0,0,0l0,0c-0.2,0.1-0.3,0.2-0.3,0.4
				c-0.2,0.3,0,0.8,0.4,0.8c0.2,0,0.3-0.1,0.4-0.2c0,0,0.1-0.1,0.1-0.1c0.1,0,0.1-0.1,0.1-0.1C151.2,106.1,151.1,105.9,151.1,105.8z
				"/>
			<path fill="#7C7C7C" d="M175.5,104.1c0,0,0-0.1,0-0.1c-0.1-0.2-0.4-0.3-0.7-0.2c0,0,0,0,0,0l0,0c-0.2,0.1-0.3,0.2-0.3,0.4
				c-0.2,0.3,0,0.8,0.4,0.8c0.2,0,0.3-0.1,0.4-0.2c0,0,0.1-0.1,0.1-0.1c0.1,0,0.1-0.1,0.1-0.1C175.6,104.4,175.6,104.3,175.5,104.1z
				"/>
			<path fill="#7C7C7C" d="M178.3,109c0,0,0-0.1,0-0.1c-0.1-0.2-0.4-0.3-0.7-0.2c0,0,0,0,0,0l0,0c-0.2,0.1-0.3,0.2-0.3,0.4
				c-0.2,0.3,0,0.8,0.4,0.8c0.2,0,0.3-0.1,0.4-0.2c0,0,0.1-0.1,0.1-0.1c0.1,0,0.1-0.1,0.1-0.1C178.4,109.3,178.4,109.1,178.3,109z"
				/>
			<path fill="#7C7C7C" d="M46.6,103c0,0,0-0.1,0-0.1c-0.1-0.2-0.4-0.3-0.7-0.2c0,0,0,0,0,0l0,0c-0.2,0.1-0.3,0.2-0.3,0.4
				c-0.2,0.3,0,0.8,0.4,0.8c0.2,0,0.3-0.1,0.4-0.2c0,0,0.1-0.1,0.1-0.1c0.1,0,0.1-0.1,0.1-0.1C46.7,103.3,46.6,103.1,46.6,103z"/>
			<path fill="#7C7C7C" d="M41.1,114.3c0,0,0-0.1,0-0.1c-0.1-0.2-0.4-0.3-0.7-0.2c0,0,0,0,0,0l0,0c-0.2,0.1-0.3,0.2-0.3,0.4
				c-0.2,0.3,0,0.8,0.4,0.8c0.2,0,0.3-0.1,0.4-0.2c0,0,0.1-0.1,0.1-0.1c0.1,0,0.1-0.1,0.1-0.1C41.2,114.6,41.1,114.4,41.1,114.3z"/>
			<path fill="#7C7C7C" d="M66.1,126c0,0,0-0.1,0-0.1c-0.1-0.2-0.4-0.3-0.7-0.2c0,0,0,0,0,0l0,0c-0.2,0.1-0.3,0.2-0.3,0.4
				c-0.2,0.3,0,0.8,0.4,0.8c0.2,0,0.3-0.1,0.4-0.2c0,0,0.1-0.1,0.1-0.1c0.1,0,0.1-0.1,0.1-0.1C66.2,126.3,66.1,126.1,66.1,126z"/>
			<path fill="#7C7C7C" d="M81.7,68.9c0,0,0-0.1,0-0.1c-0.1-0.2-0.4-0.3-0.7-0.2c0,0,0,0,0,0l0,0c-0.2,0.1-0.3,0.2-0.3,0.4
				c-0.2,0.3,0,0.8,0.4,0.8c0.2,0,0.3-0.1,0.4-0.2c0,0,0.1-0.1,0.1-0.1c0.1,0,0.1-0.1,0.1-0.1C81.8,69.2,81.8,69,81.7,68.9z"/>
			<path fill="#7C7C7C" d="M86.6,23.3c0,0,0-0.1,0-0.1c-0.1-0.2-0.4-0.3-0.7-0.2c0,0,0,0,0,0l0,0c-0.2,0.1-0.3,0.2-0.3,0.4
				c-0.2,0.3,0,0.8,0.4,0.8c0.2,0,0.3-0.1,0.4-0.2c0,0,0.1-0.1,0.1-0.1c0.1,0,0.1-0.1,0.1-0.1C86.7,23.6,86.6,23.4,86.6,23.3z"/>
			<path fill="#7C7C7C" d="M158.2,16.9c0,0,0-0.1,0-0.1c-0.1-0.2-0.4-0.3-0.7-0.2c0,0,0,0,0,0l0,0c-0.2,0.1-0.3,0.2-0.3,0.4
				c-0.2,0.3,0,0.8,0.4,0.8c0.2,0,0.3-0.1,0.4-0.2c0,0,0.1-0.1,0.1-0.1c0.1,0,0.1-0.1,0.1-0.1C158.3,17.2,158.3,17,158.2,16.9z"/>
			<path fill="#7C7C7C" d="M154.8,30.8c0,0,0-0.1,0-0.1c-0.1-0.2-0.4-0.3-0.7-0.2c0,0,0,0,0,0l0,0c-0.2,0.1-0.3,0.2-0.3,0.4
				c-0.2,0.3,0,0.8,0.4,0.8c0.2,0,0.3-0.1,0.4-0.2c0,0,0.1-0.1,0.1-0.1c0.1,0,0.1-0.1,0.1-0.1C154.9,31.1,154.9,30.9,154.8,30.8z"/>
			<path fill="#7C7C7C" d="M142.8,122.8c0,0,0-0.1,0-0.1c-0.1-0.2-0.4-0.3-0.7-0.2c0,0,0,0,0,0l0,0c-0.2,0.1-0.3,0.2-0.3,0.4
				c-0.2,0.3,0,0.8,0.4,0.8c0.2,0,0.3-0.1,0.4-0.2c0,0,0.1-0.1,0.1-0.1c0.1,0,0.1-0.1,0.1-0.1C142.9,123.1,142.9,122.9,142.8,122.8z
				"/>
			<path fill="#7C7C7C" d="M173.9,126c0,0,0-0.1,0-0.1c-0.1-0.2-0.4-0.3-0.7-0.2c0,0,0,0,0,0l0,0c-0.2,0.1-0.3,0.2-0.3,0.4
				c-0.2,0.3,0,0.8,0.4,0.8c0.2,0,0.3-0.1,0.4-0.2c0,0,0.1-0.1,0.1-0.1c0.1,0,0.1-0.1,0.1-0.1C174,126.3,174,126.1,173.9,126z"/>
			<path fill="#7C7C7C" d="M84.3,103.7c0,0,0-0.1,0-0.1c-0.1-0.2-0.4-0.3-0.7-0.2c0,0,0,0,0,0l0,0c-0.2,0.1-0.3,0.2-0.3,0.4
				c-0.2,0.3,0,0.8,0.4,0.8c0.2,0,0.3-0.1,0.4-0.2c0,0,0.1-0.1,0.1-0.1c0.1,0,0.1-0.1,0.1-0.1C84.4,104,84.4,103.8,84.3,103.7z"/>
			<path fill="#7C7C7C" d="M117.5,101.9c0,0,0-0.1,0-0.1c-0.1-0.2-0.4-0.3-0.7-0.2c0,0,0,0,0,0l0,0c-0.2,0.1-0.3,0.2-0.3,0.4
				c-0.2,0.3,0,0.8,0.4,0.8c0.2,0,0.3-0.1,0.4-0.2c0,0,0.1-0.1,0.1-0.1c0.1,0,0.1-0.1,0.1-0.1C117.6,102.2,117.6,102,117.5,101.9z"
				/>
			<path fill="#7C7C7C" d="M34.1,62.8c0,0,0-0.1,0-0.1c-0.1-0.2-0.4-0.3-0.7-0.2c0,0,0,0,0,0l0,0c-0.2,0.1-0.3,0.2-0.3,0.4
				c-0.2,0.3,0,0.8,0.4,0.8c0.2,0,0.3-0.1,0.4-0.2c0,0,0.1-0.1,0.1-0.1c0.1,0,0.1-0.1,0.1-0.1C34.2,63.1,34.1,62.9,34.1,62.8z"/>
			<path fill="#7C7C7C" d="M171.8,63c0,0,0-0.1,0-0.1c-0.1-0.2-0.4-0.3-0.7-0.2c0,0,0,0,0,0l0,0c-0.2,0.1-0.3,0.2-0.3,0.4
				c-0.2,0.3,0,0.8,0.4,0.8c0.2,0,0.3-0.1,0.4-0.2c0,0,0.1-0.1,0.1-0.1c0.1,0,0.1-0.1,0.1-0.1C171.9,63.3,171.9,63.1,171.8,63z"/>
			<path fill="#7C7C7C" d="M70.6,15.5c0,0,0-0.1,0-0.1c-0.1-0.2-0.4-0.3-0.7-0.2c0,0,0,0,0,0l0,0c-0.2,0.1-0.3,0.2-0.3,0.4
				c-0.2,0.3,0,0.8,0.4,0.8c0.2,0,0.3-0.1,0.4-0.2c0,0,0.1-0.1,0.1-0.1c0.1,0,0.1-0.1,0.1-0.1C70.7,15.8,70.6,15.6,70.6,15.5z"/>
			<path fill="#7C7C7C" d="M156.3,127.8c0,0,0-0.1,0-0.1c-0.1-0.2-0.4-0.3-0.7-0.2c0,0,0,0,0,0l0,0c-0.2,0.1-0.3,0.2-0.3,0.4
				c-0.2,0.3,0,0.8,0.4,0.8c0.2,0,0.3-0.1,0.4-0.2c0,0,0.1-0.1,0.1-0.1c0.1,0,0.1-0.1,0.1-0.1C156.4,128.1,156.4,127.9,156.3,127.8z
				"/>
		</g>
	</g>
	<g id="water_copy" opacity="0.7">
	</g>
	<g id="sand_copy">
	</g>
	<g id="gravel_x5F_top_1_">
	</g>
	<g id="gravel_x5F_bottom_1_">
	</g>
	<g id="concrete_x5F_body_1_">
	</g>
	<g id="bsfm_x5F_nose_x5F_side_1_">
	</g>
	<g id="eye_1_">
	</g>
	<g id="white_x5F_hose_1_">
	</g>
	<g id="diffuser_1_">
	</g>
	<g id="Lid_1_">
	</g>
</g>
<g id="BSFM">
	<g id="body_x5F_back">
		<g id="gravel_1_">
		</g>
	</g>
	<g id="water" opacity="0.7">
	</g>
	<g id="sand">
	</g>
	<g id="gravel_x5F_top">
	</g>
	<g id="gravel_x5F_bottom">
		<g id="Layer_11">
		</g>
	</g>
	<g id="concrete_x5F_body">
		<g id="gravel">
		</g>
	</g>
	<g id="bsfm_x5F_nose_x5F_side">
	</g>
	<g id="eye">
	</g>
	<g id="white_x5F_hose">
	</g>
	<g id="diffuser">
	</g>
	<g id="Lid">
	</g>
</g>
<g id="Layer_20">
	<g id="water_x5F_LowLevel">
	</g>
	<g id="water_x5F_highLevel">
	</g>
	<g id="body">
	</g>
	<g id="lid">
	</g>
</g>
</svg>
