<?xml version="1.0" encoding="utf-8"?>
<!-- Generator: Adobe Illustrator 18.1.1, SVG Export Plug-In . SVG Version: 6.00 Build 0)  -->
<!DOCTYPE svg PUBLIC "-//W3C//DTD SVG 1.1//EN" "http://www.w3.org/Graphics/SVG/1.1/DTD/svg11.dtd">
<svg version="1.1" xmlns="http://www.w3.org/2000/svg" xmlns:xlink="http://www.w3.org/1999/xlink" x="0px" y="0px"
	 viewBox="0 0 208.3 393.8" enable-background="new 0 0 208.3 393.8" xml:space="preserve">
<g id="ch06-05-1">
	<g id="paths_backup">
	</g>
	<g id="spout_6_">
		<path d="M175.7,86.6c0-2.7,0-5.5,0-8.2c0-0.1-0.1-0.2-0.2-0.2c-2,0-4,0-6,0c-0.1,0-0.2,0.1-0.3,0.1c-0.2,0.1-0.3,0.2-0.3,0.4
			c0,2.7,0,5.5,0,8.2c0,0.6-0.2,1.5,0.1,2c0.5,1.1,2.3,1.5,3.4,1.5c1,0,2.7-0.4,3.2-1.5C175.9,88.3,175.7,87.2,175.7,86.6z"/>
		<g id="XMLID_80_">
			<g>
				<path d="M175.7,86.6c0,0.6,0.2,1.7,0,2.3c-0.5,1-2.2,1.5-3.2,1.5c-1.1,0-2.9-0.4-3.4-1.5c-0.3-0.6-0.1-1.4-0.1-2
					c0-2.7,0-5.5,0-8.2c0-0.1,0.1-0.3,0.3-0.4c0.1-0.1,0.2-0.1,0.3-0.1c2,0,4,0,6,0c0.1,0,0.2,0.1,0.2,0.2
					C175.7,81.1,175.7,83.8,175.7,86.6z M175,88.3c0.3-1.4,0-3.2,0-4.7c0-1.4,0.2-2.9,0-4.4c0-0.3,0-0.4,0-0.4c-0.4-0.2-1.5,0-1.9,0
					c-1.1,0-2.3,0-3.4,0c0,2.6,0,5.1,0,7.7c0,1.1-0.2,1.7,0.5,2.3c0.8,0.7,2.2,1,3.3,0.8C174.7,89.4,174.8,89.2,175,88.3z"/>
				<path fill="#FFFFFF" d="M175,83.7c0,1.4,0.3,3.3,0,4.7c-0.2,0.9-0.3,1.1-1.6,1.3c-1.1,0.2-2.4,0-3.3-0.8
					c-0.7-0.7-0.5-1.2-0.5-2.3c0-2.6,0-5.1,0-7.7c1.1,0,2.3,0,3.4,0c0.5,0,1.5-0.2,1.9,0c0,0,0,0.1,0,0.4
					C175.1,80.7,175,82.2,175,83.7z"/>
			</g>
		</g>
	</g>
</g>
<g id="bsf_x5F_lid">
</g>
<g id="Layer_69">
</g>
<g id="ch02A-08-2">
	<g id="bsf_contents">
		<g id="separation_gravel_copy">
		</g>
	</g>
</g>
<g id="ch06-02-3">
	<g id="Layer_28">
	</g>
	<g id="hand_1_">
	</g>
	<g id="hand_x5F_copy">
	</g>
	<g id="hand_new">
	</g>
	<g id="hand_new_copy">
	</g>
</g>
<g id="ch05-08-3">
	<g id="main_x5F_comp-path_backup_copy">
	</g>
	<g id="main_x5F_comp_2_">
	</g>
</g>
<g id="ch04-07-2">
	<g id="new_base_1_">
	</g>
	<g id="hand">
	</g>
</g>
<g id="ch04-06-1">
	<g id="paths_1_">
		<g id="Layer_15_copy">
		</g>
	</g>
	<g id="hand_w_jug_x5F_comp">
	</g>
	<g id="hand_w_jug_copy">
	</g>
</g>
<g id="ch04-03-2">
	<g id="paths">
		<g id="nose_x5F_34_x5F_side_path_x5D_">
		</g>
		<g id="nose_x5F_34_x5F_side_path_x5D__copy">
		</g>
	</g>
	<g id="main_comp_1_">
		<g id="base">
		</g>
		<g id="nose_x5F_34_x5F_side">
		</g>
		<g id="LID">
		</g>
	</g>
	<g id="base_copy">
	</g>
	<g id="nose_x5F_34_x5F_side_copy">
	</g>
	<g id="LID_copy">
	</g>
</g>
<g id="ch04-02-1">
	<g id="backup">
	</g>
</g>
<g id="ch07-12-4">
	<g id="hand_x5F_far">
	</g>
	<g id="hand_x5F_close_1_">
	</g>
	<g id="hand_x5F_far_copy">
	</g>
	<g id="hand_x5F_close_copy">
	</g>
</g>
<g id="ch08-04-1">
</g>
<g id="ch08-11-1">
	<g id="safety_x5F_copy">
		<g id="nose_copy">
		</g>
		<g id="spout_copy">
		</g>
		<g id="water_copy_2">
		</g>
		<g id="sand_copy_2">
		</g>
		<g id="back_copy_2">
		</g>
		<g id="side_copy">
		</g>
	</g>
	<g id="back_2_">
	</g>
	<g id="water" opacity="0.5">
	</g>
	<g id="sand">
	</g>
	<g id="side">
	</g>
	<g id="nose_7_">
	</g>
	<g id="spout_1_">
	</g>
	<g id="water_copy" opacity="0.5">
	</g>
	<g id="sand_copy">
	</g>
	<g id="nose_copy_2">
	</g>
	<g id="nose_copy_3">
	</g>
	<g id="back_copy">
	</g>
	<g id="back_copy_3">
	</g>
	<g id="side_copy_2">
	</g>
	<g id="side_copy_3">
	</g>
	<g id="spout_copy_2">
	</g>
	<g id="spout_copy_3">
	</g>
</g>
<g id="ch03-30-7">
</g>
<g id="ch03-30-8">
</g>
<g id="_x33_4plastic">
</g>
</svg>
