<?xml version="1.0" encoding="iso-8859-1"?>
<!-- Generator: Adobe Illustrator 18.1.1, SVG Export Plug-In . SVG Version: 6.00 Build 0)  -->
<!DOCTYPE svg PUBLIC "-//W3C//DTD SVG 1.1//EN" "http://www.w3.org/Graphics/SVG/1.1/DTD/svg11.dtd">
<svg version="1.1" xmlns="http://www.w3.org/2000/svg" xmlns:xlink="http://www.w3.org/1999/xlink" x="0px" y="0px"
	 viewBox="0 0 279.3 590.8" enable-background="new 0 0 279.3 590.8" xml:space="preserve">
<g id="Layer_1">
</g>
<g id="BSFM_copy">
	<g id="body_x5F_back_1_">
	</g>
	<g id="water_copy" opacity="0.7">
	</g>
	<g id="sand_copy">
	</g>
	<g id="gravel_x5F_top_1_">
	</g>
	<g id="gravel_x5F_bottom_1_">
	</g>
	<g id="concrete_x5F_body_1_">
	</g>
	<g id="bsfm_x5F_nose_x5F_side_1_" display="none">
	</g>
	<g id="bsfm_x5F_nose_x5F_side_copy">
	</g>
	<g id="white_x5F_hose_1_">
	</g>
	<g id="diffuser_1_">
	</g>
	<g id="Lid_1_">
	</g>
</g>
<g id="BSFM">
	<g id="body_x5F_back">
		<g id="gravel_1_">
		</g>
	</g>
	<g id="water" opacity="0.7">
	</g>
	<g id="sand">
	</g>
	<g id="gravel_x5F_top">
	</g>
	<g id="gravel_x5F_bottom">
		<g id="Layer_11">
		</g>
	</g>
	<g id="concrete_x5F_body">
		<g id="gravel">
		</g>
	</g>
	<g id="bsfm_x5F_nose_x5F_side">
	</g>
	<g id="eye">
	</g>
	<g id="white_x5F_hose">
	</g>
	<g id="diffuser">
	</g>
	<g id="Lid">
	</g>
</g>
<g id="Layer_20">
	<g id="water_x5F_LowLevel">
	</g>
	<g id="water_x5F_highLevel">
	</g>
	<g id="body">
	</g>
	<g id="lid">
	</g>
</g>
<g id="glow_fx">
	<g id="glow_-_separation_gravel_3_">
		<polygon opacity="0.5" fill="#00B919" points="37.9,472.8 37.9,476.4 37.9,476.4 37.9,477 37.9,479.8 38,479.8 39,512.6 43,512.5 
			182.1,512.5 182.1,512.5 189.1,512.7 190,479.8 190.1,479.8 190.1,472.8 		"/>
		<polygon fill="none" points="45.8,505.5 182.3,505.5 183,479.8 45,479.8 		"/>
		<path fill="#00B919" d="M190.1,472.8H37.9v3.6l0,0l0,0.6v2.8H38l1,32.8l4-0.1h139.1l0,0l7,0.2l0.9-32.9h0.1V472.8z M182.3,505.5
			H45.8L45,479.8h138L182.3,505.5z"/>
	</g>
</g>
</svg>
