<?xml version="1.0" encoding="utf-8"?>
<!-- Generator: Adobe Illustrator 18.1.1, SVG Export Plug-In . SVG Version: 6.00 Build 0)  -->
<svg version="1.1" xmlns="http://www.w3.org/2000/svg" xmlns:xlink="http://www.w3.org/1999/xlink" x="0px" y="0px"
	 viewBox="0 0 178.2 65.8" enable-background="new 0 0 178.2 65.8" xml:space="preserve">
<g id="ch03-11-04">
	<g id="eye_x5F_34front_x5F_close_x5F_closed_2_" transform="matrix( 1, 0, 0, 1, 0,0) ">
		<g>
			<g id="Layer6_0_FILL_2_">
				<path fill="#1EA7AA" d="M164.3,52.3c1.4-0.9,5.6-3.4,7-4.4c-3.1-0.3-17.3-1.6-14.7,0.2c0.2,0.1-0.1,0,0,0c-0.6-0.2,1.2,0,0,0
					c-2,0-4,0.1-5.9,0.2c-6.4,0.4-10.5-0.4-16.9,0.1c2.3-1.5-8.2-0.5-9-0.5c-2.7-0.2-5.3,0.1-8-0.4c-3.8-0.7-7.7-1.4-11.6-2
					c-2.6-0.4-8.1-0.5-10.7-0.7c-5.3-0.4-7.9-2.5-13-4c-6.3-1.9-12.7-3.5-18.8-5.6c-6.1-2.1-13.5-4.7-19.6-7
					C44.6,48.2,63.1,54.1,79.4,57c8.4,1.5,21.3,3.6,29.9,3.9c9.1,0.3,18.3-1,27.4-1.4c5.7-0.3,11.1-1.1,16.6-2.6
					C156.9,55.8,160.6,53.4,164.3,52.3 M44.9,20c-1.4,1.9-1.2,4.8-1.8,7.1c7.1,1.3,14.4,5,21.4,6.7C76,36.4,87.1,39.5,93.7,41
					c14,3.2,30.7,4.5,45.1,4.6c6.1,0,11.6,0.1,17.7,0.2c3.7,0,12.7,0.9,16.3-0.2c1.8-0.5,1.7-4.1,2.3-6c0.5-1.5,0.4-2.5-0.4-3.9
					c-1-1.8-4.7-3.5-6.3-4.8c-6.8-5.4-18-9-25.9-12.5c-10-4.4-23.2-7.7-33.8-10.2c-11.6-2.7-27-5.1-35.5-3.5
					C62.8,6.8,50.2,10.5,44.9,20z"/>
				<path d="M54.9,7.7c-8.5,4.3-16.4,14-15.4,23.8c1.1,10.9,9.7,18.8,19.2,23.2c11,5.1,22.7,6.8,34.6,8.4c9.8,1.3,19.1,1.7,29,1.5
					c12-0.3,24.6-1.8,35.8-6.3c7.5-3,15.6-6.7,17.9-15.2c0.3-1.2,1.1-3,1.1-4.5c0.1-2.4-2.1-4-3.9-5.4c-3.9-3.1-8.2-5.8-12.7-7.9
					c-11.6-5.5-23.6-10.3-35.9-14.3C114.6,7.8,104.3,5.2,94,2.9C83.9,0.7,72.4,0,62.9,4.1C60.2,5.2,57.6,6.5,54.9,7.7 M47.5,21
					c5.3-8.8,17.1-14.6,27.2-15.6C85.6,4.3,96.2,7,106.8,9.1c20.4,4.2,40.1,11.1,58.4,21.2c2.9,1.6,6,3.8,8.1,6.3
					c1.6,1.9,0.5,4.3-0.7,6.6c-1.2,2.4-3.5,1.5-6.2,1.4c-5.7,0-11.4-0.1-17.1-0.1c-15.8-0.1-31.5-0.1-47.1-2.9
					c-11.3-2-22.4-5.2-33.6-7.8c-8-1.9-15.6-5.7-23.7-7.2C45.4,24.6,46.3,22.7,47.5,21 M164.2,51.1c-16.9,7.9-35.7,8.4-54.2,8.2
					c-7-0.1-13.9-1.2-20.8-2.4c-8.1-1.5-16.6-2.3-24.2-5.4C55.6,47.7,45.4,41.2,44.6,30c29,10.6,59.4,19.7,90.6,19.9
					c11.2,0.1,22.2-0.4,33.3-1.4C167.1,49.5,165.7,50.4,164.2,51.1 M18.8,15.4c-2.1-0.5-4.7,3.8-5.6,5.5c-2.4,4.1-2.8,8.8-1.7,13.4
					c1.1,4.9,4.6,10.4,9.6,11.8c0.4-2.2-1.5-4.3-2.6-6.2c-1.6-2.7-3-5.8-3.6-8.8C13.7,25.2,17.1,20.7,18.8,15.4 M10.5,7.4
					c-2.9,0.2-5.2,6-6.3,8.3c-1.3,3-2.2,6.3-2.6,9.4C0.6,32.5,2,40.8,6.4,46.9c1.3,1.8,3.6,4.8,6.2,4.9c1.6,0.1,0.7-0.5,0-1.9
					c-0.9-1.7-1.9-3.1-2.9-4.8c-2.8-4.8-4.1-10.4-4.4-15.9c-0.2-3.5,0.3-7.1,1.2-10.4C7.5,14.9,9.6,11.3,10.5,7.4z"/>
			</g>
		</g>
	</g>
</g>
<g id="ch03-11-03">
	<g id="CH03-11-03_x5F_COMP">
		<g id="lid_x5F_34front_x5F_tiltedup_1_">
		</g>
		<g id="base_x5F_34front_x5F_lean_1_">
		</g>
		<g id="nose_x5F_34side_x5F_stretch_x5F_REF" display="none">
		</g>
		<g id="nose_x5F_34side_x5F_stretch_x5F_mid">
		</g>
		<g id="spout_x5F_down_x5F_bottom_1_">
		</g>
		<g id="eye_x5F_34front_x5F_far_2_">
		</g>
		<g id="eye_x5F_34front_x5F_far_x5F_pupil_2_">
		</g>
		<g id="eye_x5F_34front_x5F_close_2_">
		</g>
		<g id="eye_x5F_34front_x5F_close_x5F_pupil_2_">
		</g>
	</g>
	<g id="lid_x5F_34front_x5F_tiltedup">
	</g>
	<g id="base_x5F_34front_x5F_lean">
	</g>
	<g id="nose_x5F_34side_x5F_stretch_x5F_mid_2_">
	</g>
	<g id="spout_x5F_down_x5F_bottom_2_">
	</g>
	<g id="eye_x5F_34front">
	</g>
	<g id="eye_x5F_34front_x5F_close_x5F_pupil">
	</g>
</g>
<g id="REF_x5F_POSES" display="none">
</g>
</svg>
