<?xml version="1.0" encoding="utf-8"?>
<!-- Generator: Adobe Illustrator 18.1.1, SVG Export Plug-In . SVG Version: 6.00 Build 0)  -->
<!DOCTYPE svg PUBLIC "-//W3C//DTD SVG 1.1//EN" "http://www.w3.org/Graphics/SVG/1.1/DTD/svg11.dtd">
<svg version="1.1" xmlns="http://www.w3.org/2000/svg" xmlns:xlink="http://www.w3.org/1999/xlink" x="0px" y="0px"
	 viewBox="0 0 208.3 393.8" enable-background="new 0 0 208.3 393.8" xml:space="preserve">
<g id="ch06-05-1">
	<g id="paths_backup">
	</g>
	<g id="nose_-_concrete_1_">
		<path d="M197.8,72.5c0-0.1,0-0.2,0-0.3c-8-13-16.1-26-24.1-39c-0.2-0.3-0.5-0.2-0.8,0.1c0,0,0,0,0,0c-11,3.1-22,6.2-32.9,9.3
			c-0.1,0-0.3,0-0.4,0.1c-0.1,0-0.3,0.1-0.4,0.1c-0.2,0.1-0.2,0.2-0.2,0.3c0,0,0,0,0,0.1c0,12.2,0,24.4,0,36.7
			c0,0.3,0.2,0.4,0.5,0.4c0.1,0.1,0.2,0.2,0.3,0.2c9.2,2.1,18.4,4.1,27.7,6.2c0.3,0.1,0.4-0.1,0.4-0.4c9.9-4.4,19.9-8.8,29.8-13.2
			C197.9,72.9,197.9,72.7,197.8,72.5z"/>
		<g id="XMLID_81_">
			<g>
				<path d="M197.8,72.5c0.1,0.2,0.1,0.4-0.3,0.5c-9.9,4.4-19.9,8.8-29.8,13.2c0,0.2-0.1,0.4-0.4,0.3c-9.2-2.1-18.4-4.1-27.7-6.2
					c-0.1,0-0.2-0.1-0.3-0.2c-0.3,0-0.5-0.2-0.5-0.4c0-12.2,0-24.5,0-36.7c0,0,0,0,0-0.1c0-0.1,0.1-0.2,0.2-0.3
					c0.1-0.1,0.2-0.1,0.4-0.2c0.1-0.1,0.3-0.1,0.4-0.1c11-3.1,22-6.2,32.9-9.3c0,0,0,0,0,0c0.3-0.2,0.7-0.3,0.8-0.1
					c8,13,16.1,26,24.1,39C197.8,72.3,197.8,72.4,197.8,72.5z M196.2,72.5c-7.9-12.8-15.8-25.5-23.7-38.3c-10.7,3-21.3,6-32,9
					c9,14,18.1,27.9,27.1,41.9C177.1,80.9,186.7,76.7,196.2,72.5z M165.6,84.9c-8.5-13.1-16.9-26.2-25.4-39.3c0,11.2,0,22.4,0,33.6
					C148.7,81.1,157.2,83,165.6,84.9z"/>
				<path fill="#B7BBBF" d="M172.5,34.2c7.9,12.8,15.8,25.5,23.7,38.3c-9.5,4.2-19.1,8.4-28.6,12.6c-9-14-18.1-28-27.1-41.9
					C151.2,40.2,161.9,37.2,172.5,34.2z"/>
				<path fill="#939393" d="M140.3,45.6c8.5,13.1,16.9,26.2,25.4,39.3c-8.5-1.9-16.9-3.8-25.4-5.7C140.3,68,140.3,56.8,140.3,45.6z"
					/>
			</g>
		</g>
		<g>
			<path fill="#818182" d="M178.9,60.2C178.9,60.2,178.9,60.2,178.9,60.2C178.9,60.2,178.9,60.2,178.9,60.2
				C178.9,60.3,178.9,60.3,178.9,60.2c0,0.1,0,0.1,0,0.2c0.2,0.7,0.8,1.4,1.3,1.9c0.5,0.5,0.9,1.1,1.7,1c0.2,0,0.5,0,0.5-0.3
				c0-0.2-0.4-0.6-0.5-0.7c-0.3-0.3-0.7-0.7-1-0.9c-0.3-0.2-0.6-0.5-0.9-0.7c0,0,0,0,0,0c0,0,0,0,0,0c0,0,0,0,0,0
				c-0.4-0.4-0.9-0.9-1-0.8C178.9,60,178.9,60.1,178.9,60.2c0.1-0.1,0.2-0.1,0.3-0.2C179.2,60,179,60.2,178.9,60.2z"/>
			<path fill="#818182" d="M142.8,73.1C142.8,73.1,142.8,73.2,142.8,73.1C142.8,73.2,142.8,73.2,142.8,73.1
				C142.8,73.2,142.8,73.2,142.8,73.1c0,0.1,0,0.1,0,0.2c0.2,0.7,0.8,1.4,1.3,1.9c0.5,0.5,0.9,1.1,1.7,1c0.2,0,0.5,0,0.5-0.3
				c0-0.2-0.4-0.6-0.5-0.7c-0.3-0.3-0.7-0.7-1-0.9c-0.3-0.2-0.6-0.5-0.9-0.7c0,0,0,0,0,0c0,0,0,0,0,0c0,0,0,0,0,0
				c-0.4-0.4-0.9-0.9-1-0.8C142.8,72.9,142.8,73,142.8,73.1c0.1-0.1,0.2-0.1,0.3-0.2C143.1,73,142.9,73.1,142.8,73.1z"/>
			<path fill="#818182" d="M181.4,70.3c-1.6,0-1.6,2.5,0,2.5C183,72.8,183,70.3,181.4,70.3z"/>
			<path fill="#818182" d="M141.7,51.7c-1.6,0-1.6,2.5,0,2.5C143.3,54.2,143.4,51.7,141.7,51.7z"/>
			<path fill="#7C7C7C" d="M168,49.8c0.3,0,0.7-0.7,0.6-0.7C168.3,49.1,167.9,49.8,168,49.8z"/>
			<path fill="#7C7C7C" d="M175.9,55c0.1-0.1,0.2-0.1,0.3-0.1c0,0,0.4-0.3,0.3-0.3c0,0-0.1-0.1-0.1-0.2
				C176.3,54.1,175.4,55.2,175.9,55z"/>
			<path fill="#7C7C7C" d="M154.5,77.2c0.1-0.1,0.2-0.1,0.3-0.1c0,0,0.4-0.3,0.3-0.3c0,0-0.1-0.1-0.1-0.2
				C154.9,76.3,154,77.4,154.5,77.2z"/>
			<path fill="#7C7C7C" d="M172.1,38.8c0.1-0.1,0.2-0.1,0.3-0.1c0,0,0.4-0.3,0.3-0.3c0,0-0.1-0.1-0.1-0.2
				C172.5,38,171.6,39.1,172.1,38.8z"/>
			<path fill="#7C7C7C" d="M179.7,55.9c0,0-0.1,0-0.1,0c-0.1,0-0.4,0.2-0.5,0.3c0,0-0.3,0.3-0.1,0.3c0.2,0,0.2-0.1,0.4-0.2
				c0.1-0.1,0.3-0.2,0.3-0.4C179.7,56,179.7,56,179.7,55.9C179.7,55.9,179.7,55.9,179.7,55.9z"/>
			<path fill="#7C7C7C" d="M157,76.2c0,0-0.1,0-0.1,0c-0.1,0-0.4,0.2-0.5,0.3c0,0-0.3,0.3-0.1,0.3c0.2,0,0.2-0.1,0.4-0.2
				c0.1-0.1,0.3-0.2,0.3-0.4C157,76.3,157,76.3,157,76.2C157,76.2,157,76.2,157,76.2z"/>
			<path fill="#7C7C7C" d="M169.9,81.6c0,0-0.1,0-0.1,0c-0.1,0-0.4,0.2-0.5,0.3c0,0-0.3,0.3-0.1,0.3c0.2,0,0.2-0.1,0.4-0.2
				c0.1-0.1,0.3-0.2,0.3-0.4C170,81.7,170,81.6,169.9,81.6C170,81.6,170,81.6,169.9,81.6z"/>
			<path fill="#7C7C7C" d="M186.7,58c-0.2-0.1-1.1,0.8-0.8,0.9c0.3,0.2,0.4,0.2,0.7,0.1c0.2,0,0.5-0.3,0.5-0.5
				C187,58.2,187,58.1,186.7,58z"/>
			<path fill="#7C7C7C" d="M154.3,57.4c-0.2-0.1-1.1,0.8-0.8,0.9c0.3,0.2,0.4,0.2,0.7,0.1c0.2,0,0.5-0.3,0.5-0.5
				C154.7,57.6,154.6,57.5,154.3,57.4z"/>
			<path fill="#7C7C7C" d="M149,68.8c-0.2-0.1-1.1,0.8-0.8,0.9c0.3,0.2,0.4,0.2,0.7,0.1c0.2,0,0.5-0.3,0.5-0.5
				C149.3,68.9,149.3,68.9,149,68.8z"/>
			<path fill="#7C7C7C" d="M164.3,53.1c-0.3,0-0.7,0.7-0.6,0.7C164,53.8,164.4,53.1,164.3,53.1z"/>
			<path fill="#7C7C7C" d="M185.6,64.1c-0.2-0.2-0.1-0.1-0.4-0.1c-0.1,0-0.3,0.2-0.3,0.3c-0.1,0.3-0.1,0.2,0.1,0.4
				C185.1,64.9,185.8,64.2,185.6,64.1z"/>
			<path fill="#7C7C7C" d="M176.7,62.7c-0.4,0-1,0.9-0.8,0.9C176.2,63.7,176.9,62.7,176.7,62.7z"/>
			<path fill="#7C7C7C" d="M158.7,81.1c-0.4,0-1,0.9-0.8,0.9C158.3,82,158.9,81.1,158.7,81.1z"/>
			<path fill="#7C7C7C" d="M167.3,69.5c0.3,0,0.7-0.4,0.8-0.6c0.1-0.1,0.3-0.5,0-0.5c0,0-0.1,0-0.1,0c-0.3,0-1.1,1-0.8,1
				C167.3,69.5,167.3,69.5,167.3,69.5z"/>
			<path fill="#7C7C7C" d="M160.9,41.2c0.3,0,0.7-0.4,0.8-0.6c0.1-0.1,0.3-0.5,0-0.5c0,0-0.1,0-0.1,0c-0.3,0-1.1,1-0.8,1
				C160.8,41.2,160.9,41.2,160.9,41.2z"/>
			<path fill="#7C7C7C" d="M159.7,67.1c0.3,0,0.7-0.4,0.8-0.6c0.1-0.1,0.3-0.5,0-0.5c0,0-0.1,0-0.1,0c-0.3,0-1.1,1-0.8,1
				C159.6,67,159.7,67,159.7,67.1z"/>
			<path fill="#7C7C7C" d="M190.9,72.1c0.3,0,0.7-0.4,0.8-0.6c0.1-0.1,0.3-0.5,0-0.5c0,0-0.1,0-0.1,0c-0.3,0-1.1,1-0.8,1
				C190.8,72.1,190.8,72.1,190.9,72.1z"/>
			<path fill="#7C7C7C" d="M162.9,56.5c-0.4,0-1,0.9-0.8,0.9C162.5,57.4,163.1,56.5,162.9,56.5z"/>
			<path fill="#7C7C7C" d="M148.7,46c-0.4,0-1,0.9-0.8,0.9C148.3,47,148.9,46,148.7,46z"/>
		</g>
	</g>
</g>
<g id="bsf_x5F_lid">
</g>
<g id="Layer_69">
</g>
<g id="ch02A-08-2">
	<g id="bsf_contents">
		<g id="separation_gravel_copy">
		</g>
	</g>
</g>
<g id="ch06-02-3">
	<g id="Layer_28">
	</g>
	<g id="hand_1_">
	</g>
	<g id="hand_x5F_copy">
	</g>
	<g id="hand_new">
	</g>
	<g id="hand_new_copy">
	</g>
</g>
<g id="ch05-08-3">
	<g id="main_x5F_comp-path_backup_copy">
	</g>
	<g id="main_x5F_comp_2_">
	</g>
</g>
<g id="ch04-07-2">
	<g id="new_base_1_">
	</g>
	<g id="hand">
	</g>
</g>
<g id="ch04-06-1">
	<g id="paths_1_">
		<g id="Layer_15_copy">
		</g>
	</g>
	<g id="hand_w_jug_x5F_comp">
	</g>
	<g id="hand_w_jug_copy">
	</g>
</g>
<g id="ch04-03-2">
	<g id="paths">
		<g id="nose_x5F_34_x5F_side_path_x5D_">
		</g>
		<g id="nose_x5F_34_x5F_side_path_x5D__copy">
		</g>
	</g>
	<g id="main_comp_1_">
		<g id="base">
		</g>
		<g id="nose_x5F_34_x5F_side">
		</g>
		<g id="LID">
		</g>
	</g>
	<g id="base_copy">
	</g>
	<g id="nose_x5F_34_x5F_side_copy">
	</g>
	<g id="LID_copy">
	</g>
</g>
<g id="ch04-02-1">
	<g id="backup">
	</g>
</g>
<g id="ch07-12-4">
	<g id="hand_x5F_far">
	</g>
	<g id="hand_x5F_close_1_">
	</g>
	<g id="hand_x5F_far_copy">
	</g>
	<g id="hand_x5F_close_copy">
	</g>
</g>
<g id="ch08-04-1">
</g>
<g id="ch08-11-1">
	<g id="safety_x5F_copy">
		<g id="nose_copy">
		</g>
		<g id="spout_copy">
		</g>
		<g id="water_copy_2">
		</g>
		<g id="sand_copy_2">
		</g>
		<g id="back_copy_2">
		</g>
		<g id="side_copy">
		</g>
	</g>
	<g id="back_2_">
	</g>
	<g id="water" opacity="0.5">
	</g>
	<g id="sand">
	</g>
	<g id="side">
	</g>
	<g id="nose_7_">
	</g>
	<g id="spout_1_">
	</g>
	<g id="water_copy" opacity="0.5">
	</g>
	<g id="sand_copy">
	</g>
	<g id="nose_copy_2">
	</g>
	<g id="nose_copy_3">
	</g>
	<g id="back_copy">
	</g>
	<g id="back_copy_3">
	</g>
	<g id="side_copy_2">
	</g>
	<g id="side_copy_3">
	</g>
	<g id="spout_copy_2">
	</g>
	<g id="spout_copy_3">
	</g>
</g>
<g id="ch03-30-7">
</g>
<g id="ch03-30-8">
</g>
<g id="_x33_4plastic">
</g>
</svg>
