<?xml version="1.0" encoding="utf-8"?>
<!-- Generator: Adobe Illustrator 18.1.1, SVG Export Plug-In . SVG Version: 6.00 Build 0)  -->
<!DOCTYPE svg PUBLIC "-//W3C//DTD SVG 1.1//EN" "http://www.w3.org/Graphics/SVG/1.1/DTD/svg11.dtd">
<svg version="1.1" xmlns="http://www.w3.org/2000/svg" xmlns:xlink="http://www.w3.org/1999/xlink" x="0px" y="0px"
	 viewBox="0 0 33.4 38.5" enable-background="new 0 0 33.4 38.5" xml:space="preserve">
<g id="ch04-06-1">
</g>
<g id="ch04-03-2">
</g>
<g id="ch04-02-1">
	<g id="backup" display="none">
	</g>
	<g id="eye_x5F_far_1_">
		<path d="M15,0.1C5.9,1.4,0.2,10.4,0,19.1c-0.2,10,7.4,20.9,18.4,19.3c9.3-1.3,14.6-10.2,15-18.9c0,0,0,0,0,0c0,0,0,0,0,0
			C33.3,9.5,26.2-1.4,15,0.1z M12.4,36.2c-7-2.8-10.7-10.7-10.6-17.9C2,8.4,10.3-2,21.1,2.4C28.2,5.3,31.5,13,31.7,20.3
			C31.2,30.1,23.2,40.6,12.4,36.2z"/>
		<path fill="#FFFFFF" d="M21.1,2.4C10.3-2,2,8.4,1.8,18.3c-0.1,7.2,3.6,15.1,10.6,17.9c10.8,4.4,18.8-6.1,19.3-15.9
			C31.5,13,28.2,5.3,21.1,2.4z"/>
	</g>
</g>
</svg>
