<?xml version="1.0" encoding="iso-8859-1"?>
<!-- Generator: Adobe Illustrator 18.1.1, SVG Export Plug-In . SVG Version: 6.00 Build 0)  -->
<svg version="1.1" xmlns="http://www.w3.org/2000/svg" xmlns:xlink="http://www.w3.org/1999/xlink" x="0px" y="0px"
	 viewBox="0 0 279.3 590.8" enable-background="new 0 0 279.3 590.8" xml:space="preserve">
<g id="Layer_1">
</g>
<g id="BSFM_copy">
	<g id="body_x5F_back_1_">
	</g>
	<g id="water_copy" opacity="0.7">
	</g>
	<g id="gravel_x5F_top_1_">
	</g>
	<g id="gravel_x5F_bottom_1_">
	</g>
	<g id="concrete_x5F_body_1_">
	</g>
	<g id="bsfm_x5F_nose_x5F_side_1_">
	</g>
	<g id="bsfm_x5F_nose_x5F_side_copy">
	</g>
	<g id="white_x5F_hose_1_">
	</g>
	<g id="diffuser_1_">
	</g>
	<g id="Lid_1_">
	</g>
</g>
<g id="BSFM">
	<g id="body_x5F_back">
		<g id="gravel_1_">
		</g>
	</g>
	<g id="water" display="none" opacity="0.7">
	</g>
	<g id="sand" display="none">
	</g>
	<g id="gravel_x5F_top">
	</g>
	<g id="gravel_x5F_bottom">
		<g id="Layer_11">
		</g>
	</g>
	<g id="concrete_x5F_body">
		<g id="gravel">
		</g>
	</g>
	<g id="bsfm_x5F_nose_x5F_side">
	</g>
	<g id="eye">
	</g>
	<g id="white_x5F_hose">
	</g>
	<g id="diffuser">
	</g>
	<g id="Lid">
	</g>
</g>
<g id="ch02A-23-1_-_dried_out_biolayer">
</g>
<g id="Layer_20">
	<g id="water_x5F_LowLevel">
	</g>
	<g id="water_x5F_highLevel">
	</g>
	<g id="body">
	</g>
	<g id="lid">
	</g>
</g>
<g id="glow_fx">
</g>
<g id="ch03_x5F_29_x5F_1_x5F_dried_out_biolayer">
</g>
<g id="destroyed_x5F_sand_x5F_comp">
	<g id="destroyed_x5F_sand_x5F_reference">
	</g>
	<g id="sand_copy">
	</g>
</g>
<g id="destroyed_x5F_sand_1_">
	<g id="sand_copy_2">
		<path fill="#5E4A30" d="M192.4,358.4c-0.9-1-1.6-2.1-2.5-3.2c-0.5-0.5-1-1-1.6-1.4c-0.6-0.4-1.3-0.6-1.9-0.9
			c-2.2-0.7-4.4-1.4-6.7-2.1c-0.6-0.8-1.2-1.8-2-2.7c-0.6-0.6-1.3-1.2-2.3-1.5c-0.8-0.3-1.7-0.4-2.6-0.5c-0.6-0.1-1.1-0.1-1.7-0.2
			l-0.1,0c-1.3-0.3-2.5-0.6-3.6-0.9c-0.6-0.3-1.3-0.6-2.1-0.9c-1-0.4-2.4-0.3-3.5,0.1c-2.2,0.8-3.7,2.4-5.1,4
			c-1.4,1.6-2.5,3.4-3.7,5.1c-1.2,1.7-2.4,3.3-4,4.6c-1.5,1.4-3.2,2.5-5.1,3.4c-0.5,0.2-1,0.4-1.4,0.6l-0.7,0.3l-0.8,0.3
			c-0.5,0.1-1,0.3-1.5,0.4l-1.5,0.2c-2.1,0.2-4.2,0.1-6.3-0.2c-4.3-0.6-8.5-2-12.8-3.2c-2.2-0.6-4.3-1.1-6.3-1.8
			c-2-0.6-4-1.4-5.9-2.2c-3.9-1.6-7.6-3.2-11.4-4.4c-1-0.3-2-0.6-3-0.9c-3.2-0.9-6.5-1.6-10-1.6c-2.4,0-4.8,0.3-7.1,1c0,0,0,0-0.1,0
			c-1.9,0.4-3.6,1-5,1.7c-0.4,0-0.8,0-1.2,0c-0.2-0.1-0.4-0.1-0.6-0.2c-0.9-0.3-2.3-0.5-3.9-0.6c-0.8,0-1.5-0.1-2.6-0.1
			c-1,0-2,0.2-3,0.5c-0.8,0.2-1.5,0.5-2.3,0.7c-0.4,0.1-0.9,0.3-1.3,0.4c-2.2,0.7-4.5,1.3-7.3,1.4c-0.3-0.1-0.5-0.2-0.8-0.3
			c-0.9-0.4-1.8-0.9-2.8-1c-1-0.2-2.1-0.1-2.9,0.2c-0.2,0.1-0.4,0.1-0.5,0.2c-0.1,0-0.3-0.1-0.4-0.1c-0.4-0.3-0.8-0.6-1.2-0.8
			c-1-0.5-2.1-0.6-3.5-0.5c-2.4,0.3-4.1,1.9-5.6,3.4l-0.4,0.4l0.4,0.4c0.3,0.3,0.6,0.4,1,0.5v134.1h158.9l2-131
			c0-0.4-0.1-0.7-0.2-1.1C192.1,358.2,192.3,358.3,192.4,358.4z"/>
	</g>
	<g id="sand_copy_3">
		<g>
			<path fill="#5E4A30" d="M50,354c1,0,2-0.3,3-0.7c1-0.4,1.9-0.8,2.9-1.2c0.2-0.1,0.4-0.2,0.6-0.2c-0.4,0.1-0.9,0.3-1.3,0.4
				c-2.2,0.7-4.5,1.3-7.3,1.4c0.2,0.1,0.4,0.1,0.6,0.2C49,354,49.5,354,50,354z"/>
			<path fill="#5E4A30" d="M190.8,357.2l-1.5-1.3c-0.5-0.4-1-0.8-1.6-1.1c-0.3-0.1-0.6-0.3-0.8-0.4c-0.3-0.1-0.6-0.2-0.9-0.3
				c-1.8-0.6-3.7-1.3-5.4-2.2c0,0,0.1,0.1,0.1,0.1c0.1,0.1,0.2,0.2,0.4,0.3c0.2,0.2,0.5,0.4,0.7,0.5c0.5,0.3,1,0.6,1.6,0.9
				c1,0.6,2,1,2.9,1.6c0.8,0.6,1.5,1.2,2,1.8c0.5,0.6,0.9,1.2,0.8,1.8c0,0.6-0.3,0.9-0.4,1.2c-0.1,0.2-0.2,0.4-0.2,0.4
				s0.1-0.1,0.2-0.4c0.1-0.2,0.3-0.6,0.3-1.1c0-0.5-0.4-1-0.9-1.5c-0.6-0.5-1.2-1.1-2-1.5c-0.8-0.5-1.8-0.9-2.9-1.3
				c-0.5-0.2-1.1-0.5-1.7-0.8c-0.3-0.2-0.6-0.4-0.9-0.6c-0.1-0.1-0.3-0.2-0.4-0.3c-0.2-0.1-0.3-0.2-0.4-0.4c-1.1-1-1.8-2.3-2.9-3.3
				c-0.5-0.5-1.1-0.8-1.7-1c-0.7-0.2-1.5-0.3-2.3-0.3c-0.8-0.1-1.7-0.1-2.6-0.2c-0.4,0-0.9-0.1-1.4-0.2c-0.5-0.1-1-0.2-1.5-0.4
				c-0.9-0.3-1.8-0.8-2.5-1c-0.7-0.2-1.4-0.2-2.1,0.2c-1.4,0.6-2.8,2-4,3.5c-0.5,0.7-1,1.4-1.5,2.1c0.1,0,0.1,0,0.2-0.1
				c0.4-0.2,0.9-0.3,1.5-0.4c0.6-0.1,1.2-0.1,1.8-0.1c0.6,0,1.2,0,1.8,0c0.6,0.1,1.1,0.2,1.5,0.4c0.8,0.3,1.4,0.7,1.4,0.7l0,0.1
				c0,0-0.6,0.1-1.5,0.1c-0.4,0-0.9,0-1.5-0.1c-0.5-0.1-1.1-0.2-1.7-0.3c-1.1-0.2-2.3-0.2-3.1,0c-0.2,0.1-0.4,0.1-0.6,0.2
				c0,0-0.1,0-0.1,0c-0.5,0.8-1,1.6-1.6,2.4c-1.2,1.8-2.6,3.6-4.2,5.2c-1.7,1.6-3.6,2.9-5.8,3.9c-0.5,0.3-1.1,0.5-1.6,0.7l-0.3,0.1
				c0.7,0.1,1.3,0.2,2,0.2l0.6,0c0.2,0,0.4,0,0.6-0.1c0.4-0.1,0.8-0.1,1.2-0.2c1.6-0.4,3.1-1.3,4.5-2.2c1.3-0.9,2.5-1.9,3.5-2.7
				c1-0.8,2-1.4,2.6-1.8c0.7-0.4,1.1-0.6,1.1-0.6s-0.4,0.2-1,0.6c-0.6,0.4-1.5,1.1-2.5,1.9c-1,0.9-2.1,1.9-3.4,3
				c-1.3,1-2.8,2-4.5,2.6c-0.4,0.1-0.9,0.3-1.3,0.3c-0.2,0-0.5,0.1-0.7,0.1l-0.6,0c-0.9,0-1.8-0.1-2.6-0.2c-0.7-0.1-1.4-0.2-2-0.3
				c-0.1,0-0.3,0.1-0.5,0.1c-0.6,0.1-1.2,0.2-1.8,0.3c-1.7,0.2-3.3,0.2-4.9,0l0,0c0,0-0.1,0-0.2,0.1c-0.2,0.1-0.4,0.1-0.7,0.2
				c-0.6,0.2-1.3,0.4-2,0.6c-0.7,0.2-1.4,0.6-1.8,0.9c-0.2,0.2-0.4,0.4-0.5,0.5c-0.1,0.1-0.1,0.2-0.1,0.2s0-0.1,0.1-0.2
				c0.1-0.1,0.2-0.4,0.4-0.6c0.4-0.5,1-0.9,1.7-1.3c0.4-0.2,0.8-0.5,1.2-0.6c-0.1,0-0.1,0-0.2,0c-1.1-0.2-2.1-0.4-3.2-0.6l0,0.3
				c0,0,0,0-0.1,0c0,0-0.1,0-0.1,0c0,0,0,0-0.1,0c-0.1,0-0.2,0-0.3,0.1c-0.5,0.1-1.1,0.5-1.7,0.8c-0.6,0.4-1.2,0.8-1.6,1.1
				c-0.4,0.3-0.7,0.6-0.7,0.6s0.2-0.3,0.6-0.7c0.4-0.4,0.9-0.9,1.4-1.4c0.4-0.4,0.9-0.8,1.3-1c-0.4-0.1-0.9-0.2-1.3-0.3l-0.1,0.6
				c0,0,0,0-0.1,0c-0.1,0-0.2-0.1-0.2,0c-0.1,0-0.1,0-0.3,0c-0.2,0-0.4,0.1-0.6,0.2c-0.4,0.1-0.9,0.4-1.5,0.7
				c-0.5,0.3-1.1,0.6-1.6,1c-1.1,0.7-2.1,1.5-2.8,2.2c-0.3,0.3-0.6,0.7-0.7,0.9c-0.1,0.2-0.2,0.4-0.2,0.4s0.1-0.2,0.2-0.4
				c0.1-0.3,0.3-0.6,0.7-1c0.6-0.8,1.5-1.7,2.5-2.5c0.5-0.4,1-0.8,1.5-1.2c0.5-0.3,1-0.7,1.5-0.9c0.1-0.1,0.3-0.1,0.4-0.2
				c-2-0.6-4-1.2-6-1.8c-1.1-0.3-2.1-0.6-3.2-0.9c-1.1-0.3-2.1-0.7-3.2-1c-1.1-0.4-2.2-0.8-3.3-1.3c-0.5,0-1.1,0.1-1.7,0.3
				c-1,0.2-2.1,0.3-3.3,0.5c-0.2,0-0.4,0.1-0.6,0.1l0.1,0.1c-0.1,0-0.2,0-0.4-0.1c-0.4,0.1-0.7,0.1-1.1,0.2
				c-0.6,0.1-1.3,0.2-1.9,0.4c-2.6,0.5-5.1,1.3-7,1.8c-1.9,0.6-3.2,1-3.2,1s1.1-0.7,2.9-1.6c0.9-0.4,2-0.9,3.2-1.3
				c1.2-0.4,2.5-0.8,3.8-1.1c0.8-0.2,1.6-0.3,2.4-0.4c0,0,0,0,0,0l0,0c0.5-0.1,1-0.1,1.4-0.2c1.3-0.1,2.4-0.1,3.4-0.2
				c0.3,0,0.5,0,0.8,0c-0.6-0.2-1.1-0.5-1.7-0.7c-3.9-1.7-7.5-3.4-11.1-4.8c-1.8-0.7-3.5-1.2-5.2-1.7c-0.4-0.1-0.9-0.2-1.3-0.3
				c-0.4-0.1-0.8-0.2-1.3-0.3c-0.8-0.2-1.7-0.3-2.5-0.4c-3.3-0.4-6.3-0.2-9,0.2c-2.7,0.4-4.9,1.2-6.7,1.9c-1.8,0.7-3.1,1.6-4,2.1
				c-0.9,0.6-1.3,0.9-1.3,0.9s0.4-0.4,1.2-1c0.9-0.6,2.1-1.6,3.9-2.5c0.1-0.1,0.2-0.1,0.4-0.2c-0.2,0-0.3,0-0.5,0.1
				c-0.9,0.1-2.1,0.3-3.7,0.6c-0.5,0.1-1,0.1-1.6,0.2c-0.1,0-0.1,0.1-0.2,0.1l-0.7,0.3c-0.5,0.2-0.9,0.4-1.3,0.7
				c-0.4,0.3-0.8,0.7-1.1,1.1c-0.4,0.4-0.7,0.8-1.2,1.1c0.1,0.2,0.3,0.4,0.5,0.4c-0.1,0-0.3,0-0.4-0.1c-0.1-0.1-0.2-0.2-0.3-0.3l0,0
				l0,0c0.4-0.4,0.7-0.8,1-1.2c0.3-0.4,0.6-0.9,1-1.3c0.2-0.2,0.3-0.3,0.5-0.4c-0.4,0.1-0.9,0.1-1.3,0.2c-0.9,0.2-1.9,0.4-2.9,0.6
				c-0.2,0-0.4,0.1-0.6,0.1c0,0,0,0.1-0.1,0.1c0,0.1-0.1,0.2-0.2,0.4c-0.1,0.1-0.1,0.3-0.2,0.4c-0.1,0.1-0.1,0.3-0.2,0.4
				c-0.1,0.1-0.2,0.3-0.3,0.4c-0.1,0.1-0.2,0.3-0.3,0.4c-0.1,0.1-0.2,0.3-0.4,0.4c-0.1,0.1-0.3,0.3-0.4,0.4
				c-0.1,0.1-0.3,0.2-0.4,0.4c-0.1,0.1-0.3,0.2-0.4,0.3c-0.3,0.2-0.6,0.4-0.8,0.5c-0.2,0.1-0.4,0.2-0.4,0.2l-0.2-0.1
				c0,0,0.1-0.4,0.4-1.1c0.3-0.6,0.7-1.4,1.3-2.1c0.2-0.3,0.5-0.5,0.8-0.8c-0.2,0-0.5,0.1-0.7,0.1c-1,0.1-2,0.1-3,0.2
				c-0.1,0.1-0.1,0.2-0.2,0.3c-0.1,0.3-0.3,0.6-0.4,1c0,0.2,0,0.4-0.1,0.6c-0.1,0.2-0.2,0.3-0.3,0.4c-0.2,0.2-0.5,0.4-0.5,0.4
				l-0.1,0c0,0-0.2-0.3-0.3-0.6c0-0.2,0-0.4,0-0.6c0.1-0.2,0.3-0.4,0.4-0.6c0.3-0.4,0.6-0.7,0.9-0.9c0,0,0.1,0,0.1-0.1
				c-1,0-2,0-3-0.1c-1-0.1-1.9-0.1-2.8-0.2c-0.8,0-1.4-0.1-2.2,0.1c-0.8,0.1-1.5,0.2-2.2,0.2c-0.7,0-1.3,0-1.8-0.1
				c-0.5-0.1-0.9-0.2-1.2-0.4c-0.1-0.1-0.2-0.3-0.2-0.4c0-0.1,0-0.1,0-0.1l0.2,0c0,0,0,0,0,0.1c0,0,0.1,0,0.1,0c0.2,0,0.5,0,0.9-0.2
				c0.4-0.1,0.9-0.3,1.5-0.5c-0.2-0.1-0.4-0.3-0.6-0.3c-0.8-0.4-1.7-0.5-2.8-0.4c-1.7,0.2-3.1,1.3-4.3,2.5l0,1.1c-0.1,0-0.3,0-0.4,0
				v134.1h158.9l2-131c0-0.4-0.1-0.7-0.2-1.1C191.6,357.8,191.2,357.5,190.8,357.2z M46.2,465.5c0-0.5,0.4-1,1-1
				c0.6,0,1.4,0.3,1.7,0.9c0.3,0.6-0.1,1.2-0.5,1.6c-0.3,0.2-0.7,0.4-1.1,0.1C47.4,467,46.3,466,46.2,465.5z M61.1,426.6
				c0-0.7,0.5-1.2,1.1-1.6c0.3-0.2,0.8-0.3,1,0c0,0,0.6,1.1,0.4,1.7c-0.2,0.6-0.7,1-1.3,1C61.6,427.6,61.1,427.1,61.1,426.6z
				 M71.2,417.8c0.3,0.6-0.1,1.2-0.5,1.6c-0.3,0.2-0.7,0.4-1.1,0.1c0,0-1.1-1-1.1-1.5c0-0.5,0.4-1,1-1
				C70.1,416.9,70.9,417.3,71.2,417.8z M69.4,380.2c-0.5-0.2-0.7-0.8-0.4-1.4c0.3-0.6,1-1.1,1.6-1.1c0.7,0,1,0.6,1.1,1.2
				c0.1,0.3,0,0.8-0.4,1C71.3,379.9,70,380.4,69.4,380.2z M70.4,476.8c0.3,0.7,0,1.7-0.6,2.1c-0.6,0.5-1.6,0.4-2.1-0.2
				c-0.6-0.7-0.4-1.8-0.1-2.6c0.2-0.5,0.6-1,1.1-0.8C68.6,475.3,70.1,476,70.4,476.8z M71.6,476.1c0-0.5,0.4-1,1-1
				c0.6,0,1.4,0.3,1.7,0.9c0.3,0.6-0.1,1.2-0.5,1.6c-0.3,0.2-0.7,0.4-1.1,0.1C72.7,477.6,71.6,476.6,71.6,476.1z M75.2,452.1
				c0-0.5,0.4-1,1-1c0.6,0,1.4,0.3,1.7,0.9c0.3,0.6-0.1,1.2-0.5,1.6c-0.3,0.2-0.7,0.4-1.1,0.1C76.4,453.6,75.3,452.6,75.2,452.1z
				 M78.8,489.2c-0.6-0.7-0.4-1.8-0.1-2.6c0.2-0.5,0.6-1,1.1-0.8c0,0,1.5,0.7,1.8,1.5c0.3,0.7,0,1.7-0.6,2.1
				C80.3,489.9,79.3,489.8,78.8,489.2z M90.9,440.8c-0.2,0.2-0.5,0.3-0.8,0.2c-0.3,0.2-0.7,0.3-0.9,0c0,0-1.1-1-1.1-1.5
				c0-0.5,0.4-1,1-1c0,0,0.1,0,0.1,0c0.2-0.1,0.3-0.2,0.5-0.2c0.6,0,1.4,0.3,1.7,0.9C91.8,439.9,91.4,440.4,90.9,440.8z M92,466.4
				c0.3,0.6-0.1,1.2-0.5,1.6c-0.3,0.2-0.7,0.4-1.1,0.1c0,0-1.1-1-1.1-1.5c0-0.5,0.4-1,1-1C90.9,465.5,91.7,465.9,92,466.4z
				 M107,373.3c0.7,0,1,0.6,1.1,1.2c0.1,0.3,0,0.8-0.4,1c0,0-1.4,0.5-1.9,0.3c-0.5-0.2-0.7-0.8-0.4-1.4c0.2-0.4,0.6-0.7,1-0.9
				c-0.2,0-0.4,0-0.5-0.1c0,0-1.1-1-1.1-1.5c0-0.5,0.4-1,1-1c0.6,0,1.4,0.3,1.7,0.9C107.8,372.3,107.4,372.9,107,373.3
				c-0.1,0-0.2,0-0.3,0.1C106.8,373.4,106.9,373.3,107,373.3z M111.8,412.6c0.7,0,1,0.6,1.1,1.2c0.1,0.3,0,0.8-0.4,1
				c0,0-1.4,0.5-1.9,0.3c-0.5-0.2-0.7-0.8-0.4-1.4S111.2,412.5,111.8,412.6z M110.7,406.6c0-0.7,0.5-1.2,1.1-1.6
				c0.3-0.2,0.8-0.3,1,0c0,0,0.6,1.1,0.4,1.7c-0.2,0.6-0.7,1-1.3,1C111.3,407.6,110.8,407.1,110.7,406.6z M108.8,458.9
				c0.3-0.6,1-1.1,1.6-1.1c0.7,0,1,0.6,1.1,1.2c0.1,0.3,0,0.8-0.4,1c0,0-1.4,0.5-1.9,0.3C108.8,460.1,108.6,459.5,108.8,458.9z
				 M107.3,447.7c-0.6-0.7-0.4-1.8-0.1-2.6c0.2-0.5,0.6-1,1.1-0.8c0,0,1.5,0.7,1.8,1.5c0.3,0.7,0,1.7-0.6,2.1
				C108.8,448.4,107.8,448.3,107.3,447.7z M110.3,427.8c0.3,0.6-0.1,1.2-0.5,1.6c-0.3,0.2-0.7,0.4-1.1,0.1c0,0-1.1-1-1.1-1.5
				c0-0.5,0.4-1,1-1C109.2,426.8,110,427.2,110.3,427.8z M108.2,412.3c0,0-1.4,0.5-1.9,0.3c-0.5-0.2-0.7-0.8-0.4-1.4s1-1.1,1.6-1.1
				c0.7,0,1,0.6,1.1,1.2C108.7,411.6,108.6,412.1,108.2,412.3z M103.5,484.9c0.2-0.5,0.6-1,1.1-0.8c0,0,1.5,0.7,1.8,1.5
				c0.3,0.7,0,1.7-0.6,2.1c-0.6,0.5-1.6,0.4-2.1-0.2C103,486.8,103.2,485.8,103.5,484.9z M103.1,468.8c-0.2-0.9,0.4-1.8,1.1-2.4
				c0.4-0.3,1-0.6,1.3-0.2c0,0,1,1.4,0.9,2.2c-0.1,0.8-0.8,1.5-1.5,1.6C104.1,470.1,103.3,469.6,103.1,468.8z M105.8,390.7
				c-0.5-0.2-0.7-0.8-0.4-1.4c0.3-0.6,1-1.1,1.6-1.1c0.7,0,1,0.6,1.1,1.2c0.1,0.3,0,0.8-0.4,1C107.7,390.4,106.3,390.9,105.8,390.7z
				 M104.8,405c0.3-0.2,0.8-0.3,1,0c0,0,0.6,1.1,0.4,1.7c-0.2,0.6-0.7,1-1.3,1c-0.6,0-1.1-0.5-1.2-1.1
				C103.7,405.9,104.3,405.3,104.8,405z M104.3,430.4c0.3,0.6-0.1,1.2-0.5,1.6c-0.3,0.2-0.7,0.4-1.1,0.1c0,0-1.1-1-1.1-1.5
				c0-0.5,0.4-1,1-1C103.2,429.5,104,429.9,104.3,430.4z M102.1,439.6c0.6,0,1.4,0.3,1.7,0.9c0.3,0.6-0.1,1.2-0.5,1.6
				c-0.3,0.2-0.7,0.4-1.1,0.1c0,0-1.1-1-1.1-1.5C101,440.1,101.5,439.6,102.1,439.6z M102.3,475.6c0.3,0.6-0.1,1.2-0.5,1.6
				c-0.3,0.2-0.7,0.4-1.1,0.1c0,0-1.1-1-1.1-1.5c0-0.5,0.4-1,1-1C101.2,474.7,102,475.1,102.3,475.6z M99.9,433.6
				c0,0-1.4,0.5-1.9,0.3c-0.5-0.2-0.7-0.8-0.4-1.4s1-1.1,1.6-1.1c0.7,0,1,0.6,1.1,1.2C100.3,433,100.3,433.5,99.9,433.6z
				 M115.7,385.5c0,0-1.4,0.5-1.9,0.3c-0.5-0.2-0.7-0.8-0.4-1.4c0.3-0.6,1-1.1,1.6-1.1c0.7,0,1,0.6,1.1,1.2
				C116.2,384.9,116.1,385.4,115.7,385.5z M116.7,430.1c0,0,0.6,1.1,0.4,1.7c-0.2,0.6-0.7,1-1.3,1s-1.1-0.5-1.2-1.1
				c0-0.7,0.5-1.2,1.1-1.6C116,429.9,116.5,429.8,116.7,430.1z M123,438.8c0.3-0.6,1-1.1,1.6-1.1c0.7,0,1,0.6,1.1,1.2
				c0.1,0.3,0,0.8-0.4,1c0,0-1.4,0.5-1.9,0.3C122.9,439.9,122.7,439.3,123,438.8z M125.5,476.5c0.3-0.4,0.9-0.8,1.3-0.4
				c0,0,1.2,1.2,1.2,2.1c0,0.8-0.5,1.6-1.3,1.8c-0.8,0.2-1.7-0.2-1.9-0.9C124.4,478.2,124.9,477.2,125.5,476.5z M135.9,449.6
				c-0.1-0.9,0.7-1.7,1.5-2.2c0.4-0.3,1.1-0.5,1.3,0c0,0,0.8,1.5,0.6,2.3c-0.2,0.8-1,1.3-1.8,1.3C136.7,451,135.9,450.3,135.9,449.6
				z M171,359.7c0-0.5,0.4-1,1-1c0.6,0,1.4,0.3,1.7,0.9c0.3,0.6-0.1,1.2-0.5,1.6c0.1,0,0.2,0,0.3,0c-0.5,0.4-1.1,0.7-1.6,0.9
				c-0.3,0.1-0.6,0.2-0.8,0.3c-0.3,0.1-0.6,0.2-0.8,0.3c-0.3,0.1-0.5,0.2-0.8,0.3c-0.3,0.1-0.5,0.2-0.8,0.3
				c-0.3,0.1-0.5,0.2-0.8,0.3c-0.2,0.1-0.4,0.2-0.6,0.3c0.1,0.1,0.1,0.1,0.2,0.2c-0.2,0-0.4,0-0.5,0l-0.2,0l0.1-0.3
				c0.1-0.3,0.3-0.6,0.5-0.8c0.2-0.2,0.5-0.5,0.7-0.6c0.5-0.4,1.1-0.6,1.7-0.8c0.6-0.2,1.2-0.3,1.8-0.3c0.1,0,0.2,0,0.4,0
				C171.7,360.9,171,360.2,171,359.7z M171.1,404.2c-0.5-0.2-0.7-0.8-0.4-1.4c0.3-0.6,1-1.1,1.6-1.1c0.7,0,1,0.6,1.1,1.2
				c0.1,0.3,0,0.8-0.4,1C172.9,403.9,171.6,404.4,171.1,404.2z M172.7,423.7c-0.2,0.6-0.7,1-1.3,1c-0.6,0-1.1-0.5-1.2-1.1
				c0-0.7,0.5-1.2,1.1-1.6c0.3-0.2,0.8-0.3,1,0C172.3,421.9,172.9,423.1,172.7,423.7z M172.7,395.9c0,0-1.4,0.5-1.9,0.3
				c-0.5-0.2-0.7-0.8-0.4-1.4c0.3-0.6,1-1.1,1.6-1.1c0.7,0,1,0.6,1.1,1.2C173.2,395.3,173.1,395.8,172.7,395.9z M169.9,375
				c0,0-1.4,0.5-1.9,0.3c-0.5-0.2-0.7-0.8-0.4-1.4c0.3-0.6,1-1.1,1.6-1.1c0.7,0,1,0.6,1.1,1.2C170.4,374.4,170.3,374.9,169.9,375z
				 M169,414c0.3-0.6,1-1.1,1.6-1.1c0.7,0,1,0.6,1.1,1.2c0.1,0.3,0,0.8-0.4,1c0,0-1.4,0.5-1.9,0.3C168.9,415.2,168.7,414.6,169,414z
				 M170.9,459.9c0.6,0,1.4,0.3,1.7,0.9c0.3,0.6-0.1,1.2-0.5,1.6c-0.3,0.2-0.7,0.4-1.1,0.1c0,0-1.1-1-1.1-1.5
				C169.9,460.4,170.3,459.9,170.9,459.9z M172.7,459.6c-0.6,0-1.1-0.5-1.2-1.1c0-0.7,0.5-1.2,1.1-1.6c0.3-0.2,0.8-0.3,1,0
				c0,0,0.6,1.1,0.4,1.7C173.9,459.2,173.3,459.7,172.7,459.6z M169.5,359.5c-0.1,0-0.3,0-0.5,0c-0.2,0-0.4,0.1-0.6,0.1
				c-0.2,0.1-0.4,0.1-0.6,0.3c-0.2,0.1-0.5,0.2-0.7,0.3c-0.2,0.1-0.5,0.3-0.7,0.4c-0.3,0.1-0.5,0.3-0.8,0.5c-0.5,0.3-1,0.6-1.5,0.9
				c-0.5,0.3-0.9,0.6-1.3,0.8c-0.8,0.5-1.4,0.7-1.4,0.7s0.3-0.6,1-1.2c0.6-0.7,1.6-1.5,2.6-2.2c0.6-0.3,1.1-0.6,1.7-0.8
				c0.3-0.1,0.6-0.2,0.9-0.2c0.3-0.1,0.6-0.1,0.8-0.1c0.3,0,0.5,0,0.7,0.1c0.2,0.1,0.4,0.1,0.5,0.2c0.2,0.1,0.4,0.2,0.4,0.2
				S169.8,359.6,169.5,359.5z M164.5,421.4c0.3,0.6-0.1,1.2-0.5,1.6c-0.3,0.2-0.7,0.4-1.1,0.1c0,0-1.1-1-1.1-1.5c0-0.5,0.4-1,1-1
				C163.4,420.5,164.2,420.9,164.5,421.4z M163,392.5c0-0.5,0.4-1,1-1c0.6,0,1.4,0.3,1.7,0.9c0.3,0.6-0.1,1.2-0.5,1.6
				c-0.3,0.2-0.7,0.4-1.1,0.1C164.1,394,163,393,163,392.5z M162.8,450.1c0.6,0,1.4,0.3,1.7,0.9c0.3,0.6-0.1,1.2-0.5,1.6
				c-0.3,0.2-0.7,0.4-1.1,0.1c0,0-1.1-1-1.1-1.5C161.7,450.6,162.1,450.1,162.8,450.1z M163.2,461.3c0.3-0.6,1-1.1,1.6-1.1
				c0.7,0,1,0.6,1.1,1.2c0.1,0.3,0,0.8-0.4,1c0,0-1.4,0.5-1.9,0.3C163.2,462.4,163,461.8,163.2,461.3z M161.8,461.9
				c0.3,0.6-0.1,1.2-0.5,1.6c-0.3,0.2-0.7,0.4-1.1,0.1c0,0-1.1-1-1.1-1.5c0-0.5,0.4-1,1-1C160.7,461,161.5,461.4,161.8,461.9z
				 M159.5,431.8c0.3-0.2,0.8-0.3,1,0c0,0,0.6,1.1,0.4,1.7c-0.2,0.6-0.7,1-1.3,1c-0.6,0-1.1-0.5-1.2-1.1
				C158.4,432.7,158.9,432.1,159.5,431.8z M158.4,403.4c0-0.7,0.5-1.2,1.1-1.6c0.3-0.2,0.8-0.3,1,0c0,0,0.6,1.1,0.4,1.7
				c-0.2,0.6-0.7,1-1.3,1C159,404.5,158.4,404,158.4,403.4z M159.4,435.5c0,0,0.7,1.5,0.4,2.3c-0.3,0.7-1,1.3-1.8,1.2
				c-0.8,0-1.5-0.7-1.5-1.5c0-0.9,0.8-1.6,1.6-2.1C158.5,435.2,159.1,435.1,159.4,435.5z M160.9,394c-0.2,0.6-0.7,1-1.3,1
				c-0.4,0-0.7-0.2-0.9-0.5c-0.1,0.3-0.3,0.6-0.6,0.9c-0.3,0.2-0.7,0.4-1.1,0.1c0,0-1.1-1-1.1-1.5c0-0.5,0.4-1,1-1
				c0.5,0,1.2,0.2,1.5,0.7c0.1-0.5,0.6-1,1.1-1.3c0.3-0.2,0.8-0.3,1,0C160.5,392.3,161.1,393.4,160.9,394z M157.3,381.2
				c0,0-1.4,0.5-1.9,0.3c-0.5-0.2-0.7-0.8-0.4-1.4c0.3-0.6,1-1.1,1.6-1.1c0.7,0,1,0.6,1.1,1.2C157.8,380.5,157.7,381,157.3,381.2z
				 M155.2,401.8c0.3-0.2,0.8-0.3,1,0c0,0,0.6,1.1,0.4,1.7c-0.2,0.6-0.7,1-1.3,1s-1.1-0.5-1.2-1.1
				C154,402.7,154.6,402.1,155.2,401.8z M154.2,379.3c-0.2,0.6-0.7,1-1.3,1s-1.1-0.5-1.2-1.1c0-0.7,0.5-1.2,1.1-1.6
				c0.3-0.2,0.8-0.3,1,0C153.8,377.6,154.4,378.7,154.2,379.3z M152.8,483.4c-0.6,0.5-1.6,0.4-2.1-0.2c-0.6-0.7-0.4-1.8-0.1-2.6
				c0.2-0.5,0.6-1,1.1-0.8c0,0,1.5,0.7,1.8,1.5C153.7,482.1,153.4,483,152.8,483.4z M152.6,395c0.1,0.3,0,0.8-0.4,1
				c0,0-1.4,0.5-1.9,0.3c-0.5-0.2-0.7-0.8-0.4-1.4c0.3-0.6,1-1.1,1.6-1.1C152.2,393.8,152.5,394.4,152.6,395z M150,427.1
				c0.2-0.5,0.6-1,1.1-0.8c0,0,1.5,0.7,1.8,1.5c0.3,0.7,0,1.7-0.6,2.1c-0.6,0.5-1.6,0.4-2.1-0.2C149.5,429,149.7,428,150,427.1z
				 M150,445.1c0.3,0.6-0.1,1.2-0.5,1.6c-0.3,0.2-0.7,0.4-1.1,0.1c0,0-1.1-1-1.1-1.5c0-0.5,0.4-1,1-1
				C148.9,444.2,149.7,444.6,150,445.1z M178.6,477.6c0.6,0,1.4,0.3,1.7,0.9c0.3,0.6-0.1,1.2-0.5,1.6c-0.3,0.2-0.7,0.4-1.1,0.1
				c0,0-1.1-1-1.1-1.5C177.5,478.1,178,477.6,178.6,477.6z M176.6,446.4c0-0.7,0.5-1.2,1.1-1.6c0.3-0.2,0.8-0.3,1,0
				c0,0,0.6,1.1,0.4,1.7c-0.2,0.6-0.7,1-1.3,1S176.6,447,176.6,446.4z M178.6,381.7c-0.3,0.3-0.7,0.5-1,0.3c0,0-0.8-1-0.8-1.6
				c0-0.6,0.5-1.1,1-1.3c0.6-0.1,1.2,0.2,1.4,0.8C179.4,380.6,179,381.2,178.6,381.7z M178.2,385.6c0.3,0.6-0.1,1.2-0.5,1.6
				c-0.3,0.2-0.7,0.4-1.1,0.1c0,0-1.1-1-1.1-1.5c0-0.5,0.4-1,1-1C177.1,384.6,177.9,385,178.2,385.6z M175.8,436.7
				c0.7,0,1,0.6,1.1,1.2c0.1,0.3,0,0.8-0.4,1c0,0-1.4,0.5-1.9,0.3c-0.5-0.2-0.7-0.8-0.4-1.4S175.2,436.7,175.8,436.7z M82,466.6
				c-0.6,0.5-1.6,0.4-2.1-0.2c-0.6-0.7-0.4-1.8-0.1-2.6c0.2-0.5,0.6-1,1.1-0.8c0,0,1.5,0.7,1.8,1.5C82.8,465.2,82.6,466.1,82,466.6z
				 M86,417.1c0.6,0,1.4,0.3,1.7,0.9c0.3,0.6-0.1,1.2-0.5,1.6c-0.3,0.2-0.7,0.4-1.1,0.1c0,0-1.1-1-1.1-1.5
				C85,417.6,85.4,417.1,86,417.1z M83.9,381.5c-0.5-0.2-0.7-0.8-0.4-1.4c0.3-0.6,1-1.1,1.6-1.1c0.7,0,1,0.6,1.1,1.2
				c0.1,0.3,0,0.8-0.4,1C85.8,381.3,84.5,381.8,83.9,381.5z M87.3,374.9c-0.3,0.2-0.7,0.4-1.1,0.1c0,0-1.1-1-1.1-1.5
				c0-0.5,0.4-1,1-1c0.6,0,1.4,0.3,1.7,0.9C88.2,373.9,87.8,374.5,87.3,374.9z M85.3,360.9c-0.3,0.2-0.7,0.4-1.1,0.1
				c0,0-1.1-1-1.1-1.5c0-0.5,0.4-1,1-1c0.6,0,1.4,0.3,1.7,0.9C86.2,359.9,85.8,360.5,85.3,360.9z M83.4,392.5c0.7,0,1,0.6,1.1,1.2
				c0.1,0.3,0,0.8-0.4,1c0,0-1.4,0.5-1.9,0.3c-0.5-0.2-0.7-0.8-0.4-1.4C82,393,82.8,392.4,83.4,392.5z M81.8,401.4
				c0,0,0.6,1.1,0.4,1.7c-0.2,0.6-0.7,1-1.3,1c-0.6,0-1.1-0.5-1.2-1.1c0-0.7,0.5-1.2,1.1-1.6C81.2,401.3,81.6,401.1,81.8,401.4z
				 M81.1,364.3c-0.2,0.6-0.7,1-1.3,1s-1.1-0.5-1.2-1.1c0-0.7,0.5-1.2,1.1-1.6c0.3-0.2,0.8-0.3,1,0
				C80.7,362.6,81.2,363.7,81.1,364.3z M180.6,356.6c0.4,0.1,0.7,0.3,0.9,0.4c0.2,0.1,0.3,0.2,0.3,0.2s-0.1,0-0.4,0
				c-0.2,0-0.5,0-0.9,0c-0.2,0-0.4,0-0.6,0c-0.2,0-0.4,0.1-0.6,0.1c-0.4,0.1-0.9,0.2-1.3,0.3c-0.9,0.2-1.9,0.4-2.7,0.3
				c-0.8,0-1.3-0.2-1.3-0.2s0.5-0.2,1.2-0.5c0.7-0.3,1.6-0.6,2.6-0.8c0.5-0.1,1-0.2,1.5-0.1C179.8,356.4,180.3,356.4,180.6,356.6z
				 M175.9,354.6c0.2-0.1,0.3-0.2,0.5-0.2c0.2,0,0.3-0.1,0.5-0.1c0.4,0,0.7,0,1,0.1c0.3,0.1,0.6,0.2,0.8,0.4
				c0.2,0.1,0.4,0.3,0.4,0.5c0.1,0.1,0.1,0.2,0.1,0.2s-0.1,0-0.2,0c-0.2,0-0.3,0-0.6,0c-0.2,0-0.5,0-0.7,0c-0.3,0-0.5,0-0.8,0
				c-0.5,0-1,0.1-1.3,0.2c-0.2,0.1-0.3,0.2-0.5,0.2c-0.1,0.1-0.2,0.1-0.2,0.1s0-0.1,0-0.2c0-0.2,0-0.4,0.2-0.6
				C175.3,355,175.6,354.7,175.9,354.6z M164.6,349.5c-0.2-0.1-0.5-0.2-0.7-0.2c-0.2,0-0.4,0-0.6,0c-0.3,0.1-0.5,0.1-0.5,0.1
				l-0.1-0.1c0,0,0.1-0.2,0.4-0.4c0.2-0.1,0.4-0.3,0.7-0.3c0.3-0.1,0.6-0.1,1-0.1c0.4,0,0.7,0.2,1.1,0.3c0.4,0.2,0.7,0.4,1,0.6
				c0.3,0.2,0.6,0.5,0.9,0.7c0.3,0.3,0.6,0.5,0.9,0.6l0.2,0.1l0.3,0.1c0.1,0.1,0.3,0.1,0.5,0.1c0.4,0,0.7,0,1.1,0
				c0.7-0.1,1.4-0.3,2.1-0.3c0.6-0.1,1.2-0.1,1.5,0c0.4,0.1,0.5,0.2,0.6,0.1l0,0.1c0,0-0.2-0.1-0.6-0.1c-0.3,0-0.8,0.1-1.4,0.2
				c-0.6,0.2-1.2,0.4-2,0.6c-0.4,0.1-0.8,0.2-1.2,0.2c-0.2,0-0.4,0-0.7-0.1l-0.3-0.1l-0.4-0.1c-0.9-0.3-1.6-0.8-2.2-1.3
				c-0.3-0.2-0.6-0.4-0.8-0.6C165.1,349.8,164.9,349.6,164.6,349.5z M161.1,357.1c0.5-0.5,1.2-0.9,2-1.2c0.8-0.3,1.6-0.4,2.3-0.4
				c0.6,0,1.1,0.2,1.1,0.2s-0.4,0.2-0.9,0.5c-0.6,0.3-1.3,0.6-2,0.8c-0.7,0.3-1.5,0.5-2,0.7c-0.6,0.2-1,0.3-1,0.3
				S160.6,357.6,161.1,357.1z M159.6,354.6l-0.1,0.6c-1.5-0.4-3.6-0.1-4.7,1.4l-0.5-0.3C155.3,354.8,157.5,354.1,159.6,354.6z
				 M154.3,359.2l-0.4-0.4c1.3-1.6,4.3-2.9,6.4-2.8l0,0.6c-0.1,0-0.1,0-0.2,0C158.1,356.5,155.5,357.8,154.3,359.2z M159.8,360.4
				c0.3-0.4,0.7-0.7,1.1-1.1c0.2-0.2,0.4-0.4,0.7-0.5c0.2-0.2,0.5-0.3,0.8-0.5c0.5-0.3,1.1-0.5,1.6-0.7c0.5-0.2,1-0.3,1.5-0.4
				c0.9-0.2,1.5-0.2,1.5-0.2s-0.5,0.4-1.3,0.8c-0.4,0.2-0.8,0.5-1.3,0.7c-0.5,0.3-1,0.5-1.5,0.8c-1,0.5-1.9,1.1-2.7,1.6
				c-0.7,0.5-1.3,0.8-1.3,0.8S159.2,361.1,159.8,360.4z M159.6,363.3c0.6,0,1.4,0.3,1.7,0.9c0.3,0.6-0.1,1.2-0.5,1.6
				c-0.3,0.2-0.7,0.4-1.1,0.1c0,0-1.1-1-1.1-1.5C158.6,363.8,159,363.4,159.6,363.3z M155.8,364.8c0.1-0.1,0.4-0.2,0.6-0.2
				c0.3,0,0.6,0.1,0.9,0.2c0.3,0.1,0.5,0.4,0.8,0.6c0.4,0.5,0.7,1,0.9,1.4c0.2,0.4,0.3,0.7,0.3,0.7s-0.4,0-0.8-0.3
				c-0.4-0.2-0.9-0.6-1.3-1c-0.2-0.2-0.4-0.4-0.5-0.6c-0.2-0.2-0.3-0.3-0.5-0.4c-0.2-0.1-0.3-0.2-0.4-0.2c-0.1,0-0.2-0.1-0.2-0.1
				S155.7,364.9,155.8,364.8z M153.5,367.1c0-0.1,0.2-0.1,0.3-0.2c0.1-0.1,0.3-0.1,0.4-0.1c0.3,0,0.7,0.1,1,0.2
				c0.3,0.1,0.6,0.4,0.9,0.6c0.6,0.5,1,1,1.2,1.5c0.3,0.5,0.4,0.8,0.4,0.8s-0.4-0.1-0.9-0.3c-0.5-0.3-1-0.7-1.5-1.1
				c-0.5-0.4-0.9-0.8-1.3-1c-0.1,0-0.2-0.1-0.3-0.1c-0.1,0-0.2-0.1-0.2-0.1c-0.2,0-0.3,0-0.3,0S153.4,367.2,153.5,367.1z
				 M146.6,368.1c1.1,0,2.5,0.1,3.9,0.4c0.7,0.2,1.4,0.4,2,0.6c0.6,0.2,1.2,0.5,1.7,0.8c0.5,0.3,0.8,0.6,1,0.8
				c0.2,0.2,0.3,0.4,0.3,0.4s-0.2-0.1-0.5-0.2c-0.3-0.1-0.7-0.3-1.2-0.4c-1-0.3-2.3-0.6-3.6-0.9c-1.3-0.3-2.7-0.6-3.7-0.9
				c-1-0.3-1.7-0.5-1.7-0.5S145.5,368.1,146.6,368.1z M145.3,388.8c0.6,0,1.4,0.3,1.7,0.9c0.3,0.6-0.1,1.2-0.5,1.6
				c-0.3,0.2-0.7,0.4-1.1,0.1c0,0-1.1-1-1.1-1.5C144.2,389.3,144.6,388.9,145.3,388.8z M144.9,474.9c0.1,0.3,0,0.8-0.4,1
				c0,0-1.4,0.5-1.9,0.3c-0.5-0.2-0.7-0.8-0.4-1.4s1-1.1,1.6-1.1C144.5,473.7,144.8,474.3,144.9,474.9z M140.9,441.2
				c0.6,0,1.4,0.3,1.7,0.9c0.3,0.6-0.1,1.2-0.5,1.6c-0.3,0.2-0.7,0.4-1.1,0.1c0,0-1.1-1-1.1-1.5
				C139.9,441.7,140.3,441.3,140.9,441.2z M138.3,382.5c0.3-0.2,0.8-0.3,1,0c0,0,0.6,1.1,0.4,1.7c-0.2,0.6-0.7,1-1.3,1
				c-0.6,0-1.1-0.5-1.2-1.1C137.2,383.4,137.8,382.8,138.3,382.5z M138,391.1c0.3-0.2,0.8-0.3,1,0c0,0,0.6,1.1,0.4,1.7
				c-0.2,0.6-0.7,1-1.3,1c-0.6,0-1.1-0.5-1.2-1.1C136.9,392,137.4,391.5,138,391.1z M137,418.5c0.3-0.6,1-1.1,1.6-1.1
				c0.7,0,1,0.6,1.1,1.2c0.1,0.3,0,0.8-0.4,1c0,0-1.4,0.5-1.9,0.3C136.9,419.7,136.7,419.1,137,418.5z M136.6,441.3
				c0.3,0.7,0,1.7-0.6,2.1c-0.6,0.5-1.6,0.4-2.1-0.2c-0.6-0.7-0.4-1.8-0.1-2.6c0.2-0.5,0.6-1,1.1-0.8
				C134.7,439.8,136.3,440.5,136.6,441.3z M136.1,398.2c0.1,0.3,0,0.8-0.4,1c0,0-1.4,0.5-1.9,0.3c-0.5-0.2-0.7-0.8-0.4-1.4
				c0.3-0.6,1-1.1,1.6-1.1C135.7,397,136,397.6,136.1,398.2z M133.5,375.9c0.6,0,1.4,0.3,1.7,0.9c0.3,0.6-0.1,1.2-0.5,1.6
				c-0.3,0.2-0.7,0.4-1.1,0.1c0,0-1.1-1-1.1-1.5C132.5,376.4,132.9,376,133.5,375.9z M132.1,471.8c0,0,1.5,0.7,1.8,1.5
				c0.3,0.7,0,1.7-0.6,2.1c-0.6,0.5-1.6,0.4-2.1-0.2c-0.6-0.7-0.4-1.8-0.1-2.6C131.2,472.1,131.6,471.6,132.1,471.8z M128,383.4
				c0.3-0.6,1-1.1,1.6-1.1c0.7,0,1,0.6,1.1,1.2c0.1,0.3,0,0.8-0.4,1c0,0-1.4,0.5-1.9,0.3C128,384.6,127.8,384,128,383.4z M128,466.1
				c0.3,0.6-0.1,1.2-0.5,1.6c-0.3,0.2-0.7,0.4-1.1,0.1c0,0-1.1-1-1.1-1.5c0-0.5,0.4-1,1-1C126.9,465.2,127.7,465.6,128,466.1z
				 M125,392.9c0.3-0.6,1-1.1,1.6-1.1c0.7,0,1,0.6,1.1,1.2c0.1,0.3,0,0.8-0.4,1c0,0-1.4,0.5-1.9,0.3
				C125,394.1,124.8,393.5,125,392.9z M123,402.4c0.6,0,1.4,0.3,1.7,0.9c0.3,0.6-0.1,1.2-0.5,1.6c-0.3,0.2-0.7,0.4-1.1,0.1
				c0,0-1.1-1-1.1-1.5C122,402.9,122.4,402.5,123,402.4z M121.9,407.6c0.6,0,1.4,0.3,1.7,0.9c0.3,0.6-0.1,1.2-0.5,1.6
				c-0.3,0.2-0.7,0.4-1.1,0.1c0,0-1.1-1-1.1-1.5C120.8,408.1,121.3,407.6,121.9,407.6z M119.4,480c0,0-1.4,0.5-1.9,0.3
				c-0.5-0.2-0.7-0.8-0.4-1.4s1-1.1,1.6-1.1c0.7,0,1,0.6,1.1,1.2C119.8,479.4,119.8,479.9,119.4,480z M117.9,457.2
				c0.6,0,1.4,0.3,1.7,0.9c0.3,0.6-0.1,1.2-0.5,1.6c-0.3,0.2-0.7,0.4-1.1,0.1c0,0-1.1-1-1.1-1.5
				C116.9,457.7,117.3,457.3,117.9,457.2z M116.7,369.6c-0.3,0.2-0.7,0.4-1.1,0.1c0,0-1.1-1-1.1-1.5c0-0.5,0.4-1,1-1
				c0.6,0,1.4,0.3,1.7,0.9C117.5,368.7,117.1,369.2,116.7,369.6z M120.1,364.1c0.5-0.1,0.9-0.2,1.2-0.2c0.3,0,0.4,0,0.4,0l0.1,1.2
				c0,0-0.2,0-0.4,0c-0.2,0-0.6,0-1.1,0.1c-0.9,0.1-2.1,0.4-3.3,0.8c-0.6,0.2-1.2,0.4-1.7,0.7c-0.5,0.2-1,0.5-1.4,0.8
				c-0.2,0.1-0.3,0.3-0.5,0.4c-0.1,0.1-0.2,0.3-0.3,0.4c-0.1,0.2-0.2,0.4-0.2,0.4s0.1-0.1,0.2-0.4c0.1-0.1,0.2-0.2,0.3-0.4
				c0.1-0.1,0.3-0.3,0.5-0.5c0.4-0.3,0.8-0.7,1.3-1c0.5-0.3,1.1-0.6,1.7-0.9C117.9,364.8,119.1,364.4,120.1,364.1z M99.9,363.9
				c0.3-0.2,0.6-0.4,0.9-0.6c0.6-0.3,1.3-0.6,1.9-0.9c1.3-0.5,2.7-0.8,4.1-0.9c1.4-0.2,2.8-0.2,4.2-0.2c1.4,0,2.8,0.2,4.2,0.4l0.1,0
				l0,0c0.2,0.2,0.2,0.6,0.1,0.8c0.1-0.3,0-0.5-0.2-0.6c-1.4,0.1-2.7,0.2-4.1,0.3l-2,0.2c-0.7,0.1-1.4,0.1-2,0.2
				c-0.7,0.1-1.3,0.2-2,0.3c-0.7,0.1-1.3,0.2-2,0.4c-0.7,0.1-1.3,0.3-2,0.5c-0.7,0.2-1.3,0.4-1.9,0.7
				C99.4,364.4,99.6,364.1,99.9,363.9z M98.4,384.8c0.7,0,1,0.6,1.1,1.2c0.1,0.3,0,0.8-0.4,1c0,0-1.4,0.5-1.9,0.3
				c-0.5-0.2-0.7-0.8-0.4-1.4C97,385.3,97.8,384.8,98.4,384.8z M94.2,368.3c0.3-0.6,1-1.1,1.6-1.1c0.7,0,1,0.6,1.1,1.2
				c0.1,0.3,0,0.8-0.4,1c0,0-1.4,0.5-1.9,0.3C94.1,369.5,93.9,368.9,94.2,368.3z M94.2,379.8c0,0,0.6,1.1,0.4,1.7
				c-0.2,0.6-0.7,1-1.3,1s-1.1-0.5-1.2-1.1c0-0.7,0.5-1.2,1.1-1.6C93.5,379.6,94,379.5,94.2,379.8z M90,377.4c0.3-0.6,1-1.1,1.6-1.1
				c0.7,0,1,0.6,1.1,1.2c0.1,0.3,0,0.8-0.4,1c0,0-1.4,0.5-1.9,0.3C90,378.6,89.8,378,90,377.4z M89.4,425.8c0,0,1.5,0.7,1.8,1.5
				c0.3,0.7,0,1.7-0.6,2.1c-0.6,0.5-1.6,0.4-2.1-0.2c-0.6-0.7-0.4-1.8-0.1-2.6C88.5,426.1,89,425.6,89.4,425.8z M100.3,357.6
				c1.6,0.1,2.6,0.4,2.6,0.4s-0.3,0-0.7,0.1c-0.5,0-1.1,0.1-1.9,0.2c-0.8,0.1-1.7,0.2-2.6,0.3c-1,0.1-2,0.3-3,0.4
				c-0.5,0.1-1,0.2-1.5,0.3c-0.5,0.1-1,0.2-1.4,0.3c-0.5,0.1-0.9,0.3-1.3,0.4c-0.4,0.2-0.8,0.3-1.2,0.4c-0.4,0.1-0.7,0.3-1,0.4
				c-0.3,0.1-0.5,0.2-0.7,0.3c-0.4,0.2-0.6,0.3-0.6,0.3s0.2-0.2,0.5-0.5c0.2-0.2,0.4-0.3,0.7-0.5c0.3-0.2,0.6-0.4,0.9-0.6
				c0.7-0.4,1.5-0.8,2.5-1.2c0.5-0.2,1-0.3,1.5-0.4c0.5-0.1,1-0.2,1.6-0.3c1.1-0.2,2.1-0.3,3.1-0.3
				C98.6,357.5,99.5,357.5,100.3,357.6z M80.5,352.4c0.9-0.1,2-0.2,3.2-0.2c0.6,0,1.2,0,1.8,0.1c0.6,0,1.2,0.1,1.9,0.2
				c0.6,0.1,1.2,0.2,1.9,0.3c0.6,0.1,1.2,0.3,1.8,0.4c1.1,0.3,2.2,0.6,3.1,1c0.9,0.3,1.6,0.7,2.1,0.9c0.5,0.3,0.8,0.4,0.8,0.4
				s-0.3,0-0.9-0.1c-0.5-0.1-1.3-0.2-2.2-0.3c-0.9-0.1-2-0.3-3.1-0.4c-1.1-0.1-2.3-0.3-3.6-0.4c-2.4-0.3-4.9-0.6-6.7-0.8
				c-0.9-0.1-1.7-0.2-2.2-0.3c-0.5-0.1-0.9-0.1-0.9-0.1S78.6,352.6,80.5,352.4z M73.6,358.6c0.1-0.2,0.2-0.4,0.3-0.6
				c0.1-0.2,0.3-0.4,0.5-0.6c0.3-0.4,0.8-0.7,1.2-0.9c0.5-0.2,0.9-0.4,1.4-0.5c0.5-0.1,0.9-0.2,1.3-0.2c0.8,0,1.3,0.2,1.3,0.2
				s-0.5,0.2-1.1,0.5c-0.3,0.1-0.7,0.3-1.1,0.5c-0.3,0.1-0.6,0.3-0.9,0.4c0.6,0,1.2,0.4,1.5,0.8c0.1,0.2,0.1,0.4,0.1,0.6
				c0,0,0.1-0.1,0.1-0.1c0.3-0.4,0.7-0.7,1.2-1c0.2-0.1,0.4-0.2,0.7-0.3c0.2-0.1,0.5-0.2,0.7-0.2c0.5-0.1,0.9-0.2,1.3-0.2
				c0.4,0,0.7,0,0.9,0.1c0.2,0.1,0.3,0.1,0.3,0.1s-0.5,0.2-1.1,0.5c-0.3,0.1-0.7,0.3-1,0.5c-0.4,0.2-0.8,0.4-1.1,0.6
				c-0.2,0.1-0.4,0.2-0.5,0.3c-0.2,0.1-0.4,0.2-0.5,0.4c-0.2,0.1-0.3,0.2-0.4,0.4c-0.1,0.1-0.2,0.2-0.3,0.4
				c-0.1,0.1-0.1,0.3-0.2,0.4c0,0.1-0.1,0.2-0.1,0.3c0,0.2,0,0.3,0,0.3s-0.1-0.1-0.2-0.3c-0.1-0.2-0.2-0.5-0.2-1
				c0-0.1,0.1-0.3,0.1-0.4c-0.1,0.1-0.2,0.2-0.3,0.2c-0.3,0.2-0.7,0.4-1.1,0.1c0,0-1.1-1-1.1-1.5c0-0.1,0-0.2,0.1-0.4
				c-0.1,0.1-0.2,0.1-0.3,0.2c-0.2,0.1-0.3,0.2-0.5,0.3c-0.1,0.1-0.3,0.2-0.4,0.4c-0.2,0.2-0.4,0.5-0.5,0.7
				c-0.1,0.2-0.2,0.3-0.2,0.3s0-0.1-0.1-0.3C73.4,359.4,73.5,359,73.6,358.6z M73.7,424.8c0,0,0.6,1.1,0.4,1.7c-0.2,0.6-0.7,1-1.3,1
				s-1.1-0.5-1.2-1.1c0-0.7,0.5-1.2,1.1-1.6C73,424.6,73.5,424.5,73.7,424.8z M68.7,368.9c0.3-0.6,1-1.1,1.6-1.1
				c0.7,0,1,0.6,1.1,1.2c0.1,0.3,0,0.8-0.4,1c0,0-1.4,0.5-1.9,0.3C68.6,370.1,68.4,369.5,68.7,368.9z M68.4,395.1
				c0.6,0,1.4,0.3,1.7,0.9c0.3,0.6-0.1,1.2-0.5,1.6c-0.3,0.2-0.7,0.4-1.1,0.1c0,0-1.1-1-1.1-1.5C67.3,395.6,67.8,395.1,68.4,395.1z
				 M67.3,415c0.3-0.6,1-1.1,1.6-1.1c0.7,0,1,0.6,1.1,1.2c0.1,0.3,0,0.8-0.4,1c0,0-1.4,0.5-1.9,0.3C67.3,416.2,67.1,415.6,67.3,415z
				 M67.1,451.7c0.6,0,1.4,0.3,1.7,0.9c0.3,0.6-0.1,1.2-0.5,1.6c-0.3,0.2-0.7,0.4-1.1,0.1c0,0-1.1-1-1.1-1.5
				C66,452.2,66.5,451.8,67.1,451.7z M63.8,389.7c0.6,0,1.4,0.3,1.7,0.9c0.3,0.6-0.1,1.2-0.5,1.6c-0.3,0.2-0.7,0.4-1.1,0.1
				c0,0-1.1-1-1.1-1.5C62.7,390.2,63.1,389.7,63.8,389.7z M60.7,395.4c0.3-0.6,1-1.1,1.6-1.1c0.7,0,1,0.6,1.1,1.2
				c0.1,0.3,0,0.8-0.4,1c0,0-1.4,0.5-1.9,0.3C60.6,396.6,60.4,396,60.7,395.4z M54.9,482.1c0.2-0.5,0.6-1,1.1-0.8
				c0,0,1.5,0.7,1.8,1.5c0.3,0.7,0,1.7-0.6,2.1c-0.6,0.5-1.6,0.4-2.1-0.2C54.4,484,54.5,483,54.9,482.1z M53,367
				c0.3-0.2,0.8-0.3,1,0c0,0,0.6,1.1,0.4,1.7c-0.2,0.6-0.7,1-1.3,1c-0.6,0-1.1-0.5-1.2-1.1C51.9,367.9,52.4,367.3,53,367z
				 M48.5,358.4c0.3-0.6,1-1.1,1.6-1.1c0.7,0,1,0.6,1.1,1.2c0.1,0.3,0,0.8-0.4,1c0,0-1.4,0.5-1.9,0.3
				C48.5,359.6,48.3,359,48.5,358.4z M49.1,442.3c0.3,0.6-0.1,1.2-0.5,1.6c-0.3,0.2-0.7,0.4-1.1,0.1c0,0-1.1-1-1.1-1.5
				c0-0.5,0.4-1,1-1C48.1,441.3,48.8,441.7,49.1,442.3z M48.2,419.8c0.1,0.3,0,0.8-0.4,1c0,0-1.4,0.5-1.9,0.3
				c-0.5-0.2-0.7-0.8-0.4-1.4s1-1.1,1.6-1.1C47.7,418.6,48,419.2,48.2,419.8z M45.7,364.8c0.6-0.1,1.2,0.2,1.4,0.8
				c0.2,0.6-0.2,1.3-0.7,1.8c-0.3,0.3-0.7,0.5-1,0.3c0,0-0.8-1-0.8-1.6C44.7,365.5,45.1,364.9,45.7,364.8z"/>
			<path fill="#5E4A30" d="M84.4,349.1c0.9,0.1,1.7,0.1,2.6,0.3c0.5,0.1,0.9,0.1,1.4,0.2c0.4,0.1,0.9,0.2,1.3,0.3
				c0.8,0.2,1.7,0.4,2.5,0.6c-3.2-0.9-6.5-1.6-10-1.6c-2.4,0-4.8,0.3-7.1,1C77.9,349.2,81,348.9,84.4,349.1z"/>
			<path fill="#5E4A30" d="M169,345.7c0.4,0.1,0.8,0.2,1.2,0.2c0.3,0,0.6,0.1,0.9,0.1l-0.1,0c-1.3-0.3-2.5-0.6-3.6-0.9
				c0.2,0.1,0.4,0.2,0.5,0.2C168.3,345.5,168.6,345.6,169,345.7z"/>
			<path fill="#5E4A30" d="M40.8,352.8c0.1,0,0.1,0,0.2-0.1c-0.1,0-0.3-0.1-0.4-0.1c0,0,0,0,0,0C40.7,352.7,40.7,352.7,40.8,352.8z"
				/>
			<path fill="#5E4A30" d="M69.5,351.8c0.2-0.1,0.4-0.2,0.6-0.3c-0.4,0-0.8,0-1.2,0c0.2,0.1,0.3,0.1,0.4,0.2
				C69.4,351.7,69.4,351.8,69.5,351.8z"/>
			<path fill="#472905" d="M175.2,357.3c-0.7,0.3-1.2,0.5-1.2,0.5s0.5,0.2,1.3,0.2c0.8,0,1.8-0.2,2.7-0.3c0.5-0.1,0.9-0.2,1.3-0.3
				c0.2,0,0.4-0.1,0.6-0.1c0.2,0,0.4,0,0.6,0c0.4,0,0.6,0,0.9,0c0.2,0,0.4,0,0.4,0s-0.1-0.1-0.3-0.2c-0.2-0.1-0.5-0.3-0.9-0.4
				c-0.4-0.1-0.8-0.2-1.3-0.2c-0.5,0-1,0-1.5,0.1C176.8,356.7,175.9,357,175.2,357.3z"/>
			<path fill="#472905" d="M175,356.1c0,0,0.1,0,0.2-0.1c0.1-0.1,0.3-0.2,0.5-0.2c0.4-0.1,0.8-0.2,1.3-0.2c0.3,0,0.5,0,0.8,0
				c0.3,0,0.5,0,0.7,0c0.2,0,0.4,0,0.6,0c0.1,0,0.2,0,0.2,0s0-0.1-0.1-0.2c-0.1-0.1-0.2-0.3-0.4-0.5c-0.2-0.2-0.5-0.3-0.8-0.4
				c-0.3-0.1-0.7-0.1-1-0.1c-0.2,0-0.4,0-0.5,0.1c-0.2,0-0.3,0.1-0.5,0.2c-0.3,0.2-0.6,0.4-0.7,0.6c-0.2,0.2-0.2,0.5-0.2,0.6
				C175,356,175,356.1,175,356.1z"/>
			<path fill="#472905" d="M169.8,361.5c-0.6,0.2-1.2,0.4-1.7,0.8c-0.3,0.2-0.5,0.4-0.7,0.6c-0.2,0.2-0.4,0.5-0.5,0.8l-0.1,0.3
				l0.2,0c0.2,0,0.4,0,0.5,0c-0.1-0.1-0.1-0.1-0.2-0.2c0.2-0.1,0.4-0.2,0.6-0.3c0.3-0.1,0.5-0.2,0.8-0.3c0.3-0.1,0.5-0.2,0.8-0.3
				c0.3-0.1,0.5-0.2,0.8-0.3c0.3-0.1,0.5-0.2,0.8-0.3c0.3-0.1,0.6-0.2,0.8-0.3c0.6-0.2,1.1-0.5,1.6-0.9c-0.1,0-0.2,0-0.3,0
				c0,0,0,0,0,0c-0.3,0.2-0.7,0.4-1.1,0.1c0,0,0,0-0.1-0.1c-0.1,0-0.2,0-0.4,0C171,361.2,170.4,361.3,169.8,361.5z"/>
			<path fill="#472905" d="M169.1,359.1c-0.2-0.1-0.4-0.1-0.7-0.1c-0.2,0-0.5,0-0.8,0.1c-0.3,0.1-0.6,0.1-0.9,0.2
				c-0.6,0.2-1.2,0.5-1.7,0.8c-1.1,0.7-2,1.5-2.6,2.2c-0.6,0.7-1,1.2-1,1.2s0.6-0.3,1.4-0.7c0.4-0.2,0.9-0.5,1.3-0.8
				c0.5-0.3,1-0.6,1.5-0.9c0.2-0.2,0.5-0.3,0.8-0.5c0.3-0.1,0.5-0.3,0.7-0.4c0.2-0.1,0.5-0.2,0.7-0.3c0.2-0.1,0.4-0.2,0.6-0.3
				c0.2,0,0.4-0.1,0.6-0.1c0.2,0,0.3-0.1,0.5,0c0.3,0,0.4,0,0.4,0s-0.1-0.1-0.4-0.2C169.5,359.2,169.3,359.2,169.1,359.1z"/>
			<path fill="#472905" d="M162.9,359.3c0.5-0.3,1-0.5,1.5-0.8c0.5-0.2,0.9-0.5,1.3-0.7c0.8-0.4,1.3-0.8,1.3-0.8s-0.6,0-1.5,0.2
				c-0.4,0.1-0.9,0.2-1.5,0.4c-0.5,0.2-1.1,0.4-1.6,0.7c-0.3,0.2-0.5,0.3-0.8,0.5c-0.3,0.2-0.5,0.4-0.7,0.5
				c-0.4,0.4-0.8,0.7-1.1,1.1c-0.6,0.7-0.8,1.3-0.8,1.3s0.5-0.3,1.3-0.8C160.9,360.5,161.9,359.9,162.9,359.3z"/>
			<path fill="#472905" d="M163.5,357c0.7-0.3,1.5-0.6,2-0.8c0.6-0.3,0.9-0.5,0.9-0.5s-0.4-0.1-1.1-0.2c-0.6,0-1.5,0.1-2.3,0.4
				c-0.8,0.3-1.5,0.7-2,1.2c-0.5,0.5-0.6,0.9-0.6,0.9s0.4-0.1,1-0.3C162,357.5,162.8,357.3,163.5,357z"/>
			<path fill="#472905" d="M160.3,356.6l0-0.6c-2.1-0.1-5.1,1.2-6.4,2.8l0.4,0.4c1.2-1.4,3.8-2.6,5.7-2.6
				C160.1,356.5,160.2,356.6,160.3,356.6z"/>
			<path fill="#472905" d="M159.4,355.2l0.1-0.6c-2.1-0.5-4.3,0.2-5.3,1.7l0.5,0.3C155.8,355.1,157.9,354.8,159.4,355.2z"/>
			<path fill="#472905" d="M113.8,367.2c-0.2,0.2-0.3,0.3-0.5,0.5c-0.1,0.2-0.2,0.3-0.3,0.4c-0.1,0.3-0.2,0.4-0.2,0.4
				s0.1-0.1,0.2-0.4c0.1-0.1,0.2-0.2,0.3-0.4c0.2-0.1,0.3-0.3,0.5-0.4c0.4-0.3,0.9-0.5,1.4-0.8c0.5-0.3,1.1-0.5,1.7-0.7
				c1.2-0.4,2.4-0.7,3.3-0.8c0.5-0.1,0.8-0.1,1.1-0.1c0.3,0,0.4,0,0.4,0l-0.1-1.2c0,0-0.2,0-0.4,0c-0.3,0-0.7,0.1-1.2,0.2
				c-0.9,0.2-2.2,0.7-3.3,1.2c-0.6,0.3-1.1,0.6-1.7,0.9C114.6,366.6,114.2,366.9,113.8,367.2z"/>
			<path fill="#472905" d="M103,363.4c0.7-0.1,1.3-0.3,2-0.4c0.7-0.1,1.3-0.2,2-0.3c0.7-0.1,1.3-0.2,2-0.2l2-0.2
				c1.4-0.1,2.7-0.2,4.1-0.3c0.2,0.1,0.3,0.4,0.2,0.6c0.1-0.2,0.1-0.6-0.1-0.8l0,0l-0.1,0c-1.4-0.2-2.8-0.4-4.2-0.4
				c-1.4,0-2.8,0-4.2,0.2c-1.4,0.2-2.8,0.5-4.1,0.9c-0.7,0.2-1.3,0.5-1.9,0.9c-0.3,0.2-0.6,0.4-0.9,0.6c-0.3,0.2-0.6,0.4-0.8,0.7
				c0.7-0.3,1.3-0.5,1.9-0.7C101.7,363.7,102.3,363.5,103,363.4z"/>
			<path fill="#472905" d="M101.7,359.3c-0.8,0.1-1.6,0.3-2.4,0.4c-1.3,0.3-2.6,0.6-3.8,1.1c-1.2,0.4-2.3,0.9-3.2,1.3
				c-1.8,0.8-2.9,1.6-2.9,1.6s1.3-0.4,3.2-1c1.9-0.6,4.4-1.3,7-1.8c0.6-0.1,1.3-0.3,1.9-0.4c0.4-0.1,0.7-0.1,1.1-0.2
				C102.1,360.1,101.8,359.7,101.7,359.3z"/>
			<path fill="#472905" d="M92.9,358.2c-0.5,0.1-1,0.3-1.5,0.4c-1,0.3-1.8,0.7-2.5,1.2c-0.3,0.2-0.7,0.4-0.9,0.6
				c-0.3,0.2-0.5,0.4-0.7,0.5c-0.3,0.3-0.5,0.5-0.5,0.5s0.2-0.1,0.6-0.3c0.2-0.1,0.5-0.2,0.7-0.3c0.3-0.1,0.6-0.3,1-0.4
				c0.4-0.2,0.8-0.3,1.2-0.4c0.4-0.1,0.9-0.3,1.3-0.4c0.5-0.1,0.9-0.2,1.4-0.3c0.5-0.1,1-0.2,1.5-0.3c1-0.2,2-0.3,3-0.4
				c1-0.1,1.9-0.2,2.6-0.3c0.8-0.1,1.4-0.1,1.9-0.2c0.5-0.1,0.7-0.1,0.7-0.1s-1-0.3-2.6-0.4c-0.8-0.1-1.7-0.1-2.7-0.1
				c-1,0-2.1,0.2-3.1,0.3C94,358,93.5,358.1,92.9,358.2z"/>
			<path fill="#472905" d="M80.5,353.4c1.8,0.2,4.3,0.5,6.7,0.8c1.2,0.2,2.4,0.3,3.6,0.4c1.1,0.2,2.2,0.3,3.1,0.4
				c0.9,0.1,1.7,0.2,2.2,0.3c0.5,0.1,0.9,0.1,0.9,0.1s-0.3-0.2-0.8-0.4c-0.5-0.3-1.2-0.6-2.1-0.9c-0.9-0.3-1.9-0.7-3.1-1
				c-0.6-0.1-1.2-0.3-1.8-0.4c-0.6-0.1-1.2-0.2-1.9-0.3c-0.6-0.1-1.3-0.1-1.9-0.2c-0.6-0.1-1.2,0-1.8-0.1c-1.2,0-2.3,0-3.2,0.2
				c-1.9,0.2-3.1,0.5-3.1,0.5s0.3,0.1,0.9,0.1C78.8,353.2,79.6,353.3,80.5,353.4z"/>
			<path fill="#472905" d="M150.2,369.7c1.3,0.3,2.7,0.6,3.6,0.9c0.5,0.2,0.9,0.3,1.2,0.4c0.3,0.1,0.5,0.2,0.5,0.2s-0.1-0.1-0.3-0.4
				c-0.2-0.2-0.6-0.5-1-0.8c-0.5-0.3-1-0.6-1.7-0.8c-0.6-0.3-1.3-0.4-2-0.6c-1.4-0.3-2.8-0.4-3.9-0.4c-1.1,0-1.8,0.2-1.8,0.2
				s0.7,0.2,1.7,0.5C147.5,369,148.8,369.3,150.2,369.7z"/>
			<path fill="#472905" d="M156.3,365.3c0.1,0.1,0.3,0.2,0.5,0.4c0.2,0.2,0.3,0.3,0.5,0.6c0.4,0.4,0.8,0.8,1.3,1
				c0.4,0.2,0.8,0.3,0.8,0.3s-0.1-0.3-0.3-0.7c-0.2-0.4-0.5-0.9-0.9-1.4c-0.2-0.2-0.5-0.4-0.8-0.6c-0.3-0.2-0.6-0.2-0.9-0.2
				c-0.3,0-0.5,0.1-0.6,0.2c-0.1,0.1-0.2,0.2-0.2,0.2s0.1,0,0.2,0.1C156,365.1,156.1,365.2,156.3,365.3z"/>
			<path fill="#472905" d="M153.8,367.4c0.1,0,0.2,0.1,0.3,0.1c0.4,0.2,0.8,0.6,1.3,1c0.5,0.4,1,0.8,1.5,1.1
				c0.5,0.3,0.9,0.3,0.9,0.3s-0.1-0.4-0.4-0.8c-0.3-0.5-0.7-1-1.2-1.5c-0.3-0.2-0.6-0.4-0.9-0.6c-0.3-0.2-0.7-0.2-1-0.2
				c-0.2,0-0.3,0-0.4,0.1c-0.1,0.1-0.2,0.1-0.3,0.2c-0.1,0.1-0.2,0.2-0.2,0.2s0.1,0,0.3,0C153.7,367.3,153.7,367.4,153.8,367.4z"/>
			<path fill="#472905" d="M77.6,360.1c-0.1,0.4,0.1,0.8,0.2,1c0.1,0.2,0.2,0.3,0.2,0.3s0-0.1,0-0.3c0-0.1,0-0.2,0.1-0.3
				c0-0.1,0.1-0.2,0.2-0.4c0.1-0.1,0.2-0.2,0.3-0.4c0.1-0.1,0.2-0.2,0.4-0.4c0.1-0.1,0.3-0.2,0.5-0.4c0.2-0.1,0.4-0.2,0.5-0.3
				c0.4-0.2,0.8-0.4,1.1-0.6c0.4-0.2,0.7-0.4,1-0.5c0.6-0.3,1.1-0.5,1.1-0.5s-0.1,0-0.3-0.1c-0.2,0-0.5-0.1-0.9-0.1
				c-0.4,0-0.8,0.1-1.3,0.2c-0.2,0.1-0.5,0.1-0.7,0.2c-0.2,0.1-0.5,0.2-0.7,0.3c-0.4,0.3-0.9,0.6-1.2,1c0,0-0.1,0.1-0.1,0.1
				c0,0.3-0.2,0.5-0.4,0.7C77.6,359.8,77.6,359.9,77.6,360.1z"/>
			<path fill="#472905" d="M73.7,359.6c0.1-0.2,0.3-0.4,0.5-0.7c0.1-0.1,0.3-0.2,0.4-0.4c0.2-0.1,0.3-0.2,0.5-0.3
				c0.1-0.1,0.2-0.1,0.3-0.2c0.1-0.4,0.5-0.6,1-0.7c0.1,0,0.1,0,0.2,0c0.3-0.1,0.6-0.3,0.9-0.4c0.4-0.2,0.8-0.3,1.1-0.5
				c0.6-0.3,1.1-0.5,1.1-0.5s-0.5-0.2-1.3-0.2c-0.4,0-0.8,0.1-1.3,0.2c-0.5,0.1-0.9,0.3-1.4,0.5c-0.4,0.3-0.9,0.5-1.2,0.9
				c-0.2,0.2-0.3,0.4-0.5,0.6c-0.1,0.2-0.2,0.4-0.3,0.6c-0.1,0.4-0.2,0.7-0.1,0.9c0,0.2,0.1,0.3,0.1,0.3S73.6,359.8,73.7,359.6z"/>
			<path fill="#472905" d="M166.2,350.6c0.6,0.4,1.3,0.9,2.2,1.3l0.4,0.1l0.3,0.1c0.3,0.1,0.5,0.1,0.7,0.1c0.4,0,0.9-0.1,1.2-0.2
				c0.8-0.2,1.4-0.4,2-0.6c0.6-0.2,1.1-0.2,1.4-0.2c0.3,0,0.6,0.1,0.6,0.1l0-0.1c0,0-0.2-0.1-0.6-0.1c-0.4-0.1-0.9-0.1-1.5,0
				c-0.6,0.1-1.3,0.3-2.1,0.3c-0.4,0-0.7,0.1-1.1,0c-0.2,0-0.4,0-0.5-0.1l-0.3-0.1l-0.2-0.1c-0.3-0.2-0.6-0.4-0.9-0.6
				c-0.3-0.2-0.6-0.5-0.9-0.7c-0.3-0.2-0.6-0.5-1-0.6c-0.4-0.2-0.7-0.3-1.1-0.3c-0.4-0.1-0.7,0-1,0.1c-0.3,0.1-0.5,0.2-0.7,0.3
				c-0.3,0.3-0.4,0.4-0.4,0.4l0.1,0.1c0,0,0.2,0,0.5-0.1c0.2,0,0.4-0.1,0.6,0c0.2,0,0.4,0.1,0.7,0.2c0.2,0.1,0.5,0.2,0.7,0.4
				C165.6,350.1,165.9,350.3,166.2,350.6z"/>
			<path fill="#472905" d="M31.7,356.1l0-1.1c1.2-1.2,2.6-2.3,4.3-2.5c1.2-0.1,2,0,2.8,0.4c0.2,0.1,0.4,0.2,0.6,0.3
				c-0.6,0.2-1.1,0.4-1.5,0.5c-0.4,0.1-0.7,0.2-0.9,0.2c-0.1,0-0.1,0-0.1,0c0-0.1,0-0.1,0-0.1l-0.2,0c0,0,0,0,0,0.1
				c0,0.1,0.1,0.3,0.2,0.4c0.3,0.2,0.7,0.3,1.2,0.4c0.5,0.1,1.1,0.1,1.8,0.1c0.7,0,1.4-0.1,2.2-0.2c0.8-0.1,1.4-0.1,2.2-0.1
				c0.9,0.1,1.8,0.1,2.8,0.2c1,0.1,2,0.1,3,0.1c0,0-0.1,0-0.1,0.1c-0.3,0.2-0.6,0.5-0.9,0.9c-0.1,0.2-0.3,0.4-0.4,0.6
				c-0.1,0.2-0.1,0.4,0,0.6c0.1,0.4,0.3,0.6,0.3,0.6l0.1,0c0,0,0.3-0.2,0.5-0.4c0.1-0.1,0.2-0.3,0.3-0.4c0.1-0.2,0-0.4,0.1-0.6
				c0.1-0.4,0.2-0.7,0.4-1c0.1-0.1,0.2-0.3,0.2-0.3c1,0,2-0.1,3-0.2c0.2,0,0.5-0.1,0.7-0.1c-0.3,0.2-0.5,0.5-0.8,0.8
				c-0.6,0.7-1,1.5-1.3,2.1c-0.3,0.6-0.4,1.1-0.4,1.1l0.2,0.1c0,0,0.2-0.1,0.4-0.2c0.2-0.1,0.5-0.3,0.8-0.5c0.1-0.1,0.3-0.2,0.4-0.3
				c0.2-0.1,0.3-0.2,0.4-0.4c0.1-0.1,0.3-0.2,0.4-0.4c0.1-0.1,0.3-0.3,0.4-0.4c0.1-0.1,0.2-0.3,0.3-0.4c0.1-0.1,0.2-0.3,0.3-0.4
				c0.1-0.1,0.2-0.3,0.2-0.4c0.1-0.1,0.1-0.3,0.2-0.4c0.1-0.1,0.1-0.3,0.2-0.4c0,0,0-0.1,0.1-0.1c0.2,0,0.4-0.1,0.6-0.1
				c1-0.2,2-0.4,2.9-0.6c0.5-0.1,0.9-0.2,1.3-0.2c-0.2,0.1-0.3,0.3-0.5,0.4c-0.4,0.4-0.7,0.9-1,1.3c-0.3,0.4-0.6,0.9-1,1.2l0,0l0,0
				c0,0.1,0.1,0.3,0.3,0.3c0.1,0.1,0.3,0.1,0.4,0.1c-0.2,0-0.5-0.1-0.5-0.4c0.4-0.3,0.8-0.7,1.2-1.1c0.4-0.4,0.7-0.8,1.1-1.1
				c0.4-0.3,0.9-0.5,1.3-0.7l0.7-0.3c0.1,0,0.1-0.1,0.2-0.1c0.5,0,1.1-0.1,1.6-0.2c1.6-0.2,2.8-0.5,3.7-0.6c0.2,0,0.4,0,0.5-0.1
				c-0.1,0.1-0.2,0.1-0.4,0.2c-1.8,0.9-3,1.9-3.9,2.5c-0.8,0.7-1.2,1-1.2,1s0.5-0.3,1.3-0.9c0.9-0.5,2.2-1.4,4-2.1
				c1.8-0.8,4-1.5,6.7-1.9c2.7-0.4,5.7-0.6,9-0.2c0.8,0.1,1.6,0.2,2.5,0.4c0.4,0.1,0.9,0.2,1.3,0.3c0.4,0.1,0.9,0.2,1.3,0.3
				c1.7,0.5,3.5,1,5.2,1.7c3.6,1.3,7.2,3.1,11.1,4.8c0.6,0.2,1.1,0.5,1.7,0.7c-0.2,0-0.5,0-0.8,0c-1,0-2.1,0.1-3.4,0.2
				c-0.5,0-0.9,0.1-1.4,0.2l1,0.9c0.2,0,0.4-0.1,0.6-0.1c1.2-0.2,2.4-0.3,3.3-0.5c0.7-0.1,1.2-0.2,1.7-0.3c1.1,0.4,2.2,0.9,3.3,1.3
				c1,0.4,2.1,0.7,3.2,1c1.1,0.3,2.1,0.6,3.2,0.9c2,0.6,4,1.2,6,1.8c-0.1,0.1-0.3,0.1-0.4,0.2c-0.5,0.2-1,0.5-1.5,0.9
				c-0.5,0.4-1,0.8-1.5,1.2c-1,0.8-1.9,1.8-2.5,2.5c-0.3,0.4-0.5,0.7-0.7,1c-0.1,0.3-0.2,0.4-0.2,0.4s0.1-0.1,0.2-0.4
				c0.2-0.2,0.4-0.6,0.7-0.9c0.7-0.7,1.7-1.5,2.8-2.2c0.5-0.4,1.1-0.7,1.6-1c0.5-0.3,1-0.5,1.5-0.7c0.2-0.1,0.4-0.1,0.6-0.2
				c0.2-0.1,0.2,0,0.3,0c0,0,0.2,0,0.2,0c0.1,0,0.1,0,0.1,0l0.1-0.6c0.4,0.1,0.9,0.2,1.3,0.3c-0.4,0.3-0.9,0.6-1.3,1
				c-0.5,0.5-1,1-1.4,1.4c-0.4,0.4-0.6,0.7-0.6,0.7s0.3-0.3,0.7-0.6c0.4-0.3,1-0.7,1.6-1.1c0.6-0.4,1.2-0.7,1.7-0.8
				c0.1,0,0.2-0.1,0.3-0.1c0.1,0,0.1,0,0.1,0c0,0,0.1,0,0.1,0c0,0,0.1,0,0.1,0l0-0.3c1,0.2,2.1,0.4,3.2,0.6c0.1,0,0.1,0,0.2,0
				c-0.4,0.2-0.8,0.4-1.2,0.6c-0.7,0.4-1.3,0.9-1.7,1.3c-0.2,0.2-0.3,0.4-0.4,0.6c-0.1,0.2-0.1,0.2-0.1,0.2s0.1-0.1,0.1-0.2
				c0.1-0.1,0.2-0.3,0.5-0.5c0.4-0.4,1.1-0.7,1.8-0.9c0.7-0.2,1.4-0.4,2-0.6c0.3-0.1,0.5-0.2,0.7-0.2c0.2-0.1,0.2-0.1,0.2-0.1l0,0
				c1.6,0.1,3.3,0.2,4.9,0c0.6-0.1,1.2-0.2,1.8-0.3c0.2,0,0.3-0.1,0.5-0.1c0.6,0.1,1.3,0.2,2,0.3c0.8,0.1,1.7,0.2,2.6,0.2l0.6,0
				c0.2,0,0.5-0.1,0.7-0.1c0.5-0.1,0.9-0.2,1.3-0.3c1.7-0.6,3.2-1.6,4.5-2.6c1.3-1,2.4-2.1,3.4-3c1-0.9,1.8-1.5,2.5-1.9
				c0.6-0.4,1-0.6,1-0.6s-0.4,0.2-1.1,0.6c-0.7,0.4-1.6,1-2.6,1.8c-1,0.8-2.2,1.8-3.5,2.7c-1.3,0.9-2.8,1.8-4.5,2.2
				c-0.4,0.1-0.8,0.2-1.2,0.2c-0.2,0-0.4,0-0.6,0.1l-0.6,0c-0.7,0-1.3-0.1-2-0.2l0.3-0.1c0.5-0.2,1.1-0.4,1.6-0.7
				c2.1-1,4.1-2.3,5.8-3.9c1.7-1.6,3.1-3.4,4.2-5.2c0.5-0.8,1.1-1.6,1.6-2.4c0,0,0.1,0,0.1,0c0.1-0.1,0.4-0.1,0.6-0.2
				c0.8-0.2,2-0.1,3.1,0c0.6,0.1,1.1,0.2,1.7,0.3c0.5,0.1,1,0.1,1.5,0.1c0.9,0,1.5-0.1,1.5-0.1l0-0.1c0,0-0.5-0.4-1.4-0.7
				c-0.4-0.2-0.9-0.3-1.5-0.4c-0.6-0.1-1.2,0-1.8,0c-0.6,0-1.2,0-1.8,0.1c-0.6,0.1-1.1,0.2-1.5,0.4c-0.1,0-0.1,0.1-0.2,0.1
				c0.5-0.7,1-1.4,1.5-2.1c1.2-1.5,2.5-2.9,4-3.5c0.7-0.3,1.4-0.4,2.1-0.2c0.8,0.2,1.6,0.6,2.5,1c0.5,0.2,1,0.3,1.5,0.4
				c0.5,0.1,0.9,0.1,1.4,0.2c0.9,0.1,1.7,0.1,2.6,0.2c0.8,0.1,1.6,0.1,2.3,0.3c0.6,0.2,1.2,0.5,1.7,1c1,0.9,1.8,2.3,2.9,3.3
				c0.1,0.1,0.3,0.2,0.4,0.4c0.1,0.1,0.3,0.2,0.4,0.3c0.3,0.2,0.6,0.4,0.9,0.6c0.6,0.3,1.2,0.6,1.7,0.8c1.1,0.5,2.1,0.9,2.9,1.3
				c0.8,0.5,1.5,1,2,1.5c0.6,0.5,0.9,1,0.9,1.5c0,0.5-0.2,0.9-0.3,1.1c-0.1,0.2-0.2,0.4-0.2,0.4s0.1-0.1,0.2-0.4
				c0.1-0.2,0.4-0.6,0.4-1.2c0.1-0.6-0.3-1.2-0.8-1.8c-0.5-0.6-1.1-1.2-2-1.8c-0.8-0.6-1.8-1.1-2.9-1.6c-0.5-0.3-1-0.6-1.6-0.9
				c-0.3-0.2-0.5-0.4-0.7-0.5c-0.1-0.1-0.2-0.2-0.4-0.3c0,0-0.1-0.1-0.1-0.1c1.7,0.9,3.6,1.6,5.4,2.2c0.3,0.1,0.6,0.2,0.9,0.3
				c0.3,0.1,0.6,0.2,0.8,0.4c0.5,0.3,1.1,0.7,1.6,1.1l1.5,1.3c0.4,0.3,0.8,0.6,1.2,0.9c0.1,0.1,0.3,0.2,0.4,0.3
				c-0.9-1-1.6-2.1-2.5-3.2c-0.5-0.5-1-1-1.6-1.4c-0.6-0.4-1.3-0.6-1.9-0.9c-2.2-0.7-4.4-1.4-6.7-2.1c-0.6-0.8-1.2-1.8-2-2.7
				c-0.6-0.6-1.3-1.2-2.3-1.5c-0.8-0.3-1.7-0.4-2.6-0.5c-0.6-0.1-1.1-0.1-1.7-0.2c-0.3,0-0.6-0.1-0.9-0.1c-0.4-0.1-0.8-0.1-1.2-0.2
				c-0.4-0.1-0.7-0.2-1.1-0.4c-0.2-0.1-0.4-0.2-0.5-0.2c-0.6-0.3-1.3-0.6-2.1-0.9c-1-0.4-2.4-0.3-3.5,0.1c-2.2,0.8-3.7,2.4-5.1,4
				c-1.4,1.6-2.5,3.4-3.7,5.1c-1.2,1.7-2.4,3.3-4,4.6c-1.5,1.4-3.2,2.5-5.1,3.4c-0.5,0.2-1,0.4-1.4,0.6l-0.7,0.3l-0.8,0.3
				c-0.5,0.1-1,0.3-1.5,0.4l-1.5,0.2c-2.1,0.2-4.2,0.1-6.3-0.2c-4.3-0.6-8.5-2-12.8-3.2c-2.2-0.6-4.3-1.1-6.3-1.8
				c-2-0.6-4-1.4-5.9-2.2c-3.9-1.6-7.6-3.2-11.4-4.4c-1-0.3-2-0.6-3-0.9c-0.8-0.2-1.7-0.4-2.5-0.6c-0.4-0.1-0.9-0.2-1.3-0.3
				c-0.5-0.1-0.9-0.1-1.4-0.2c-0.9-0.1-1.8-0.2-2.6-0.3c-3.4-0.2-6.6,0.1-9.3,0.7c0,0,0,0-0.1,0c-1.9,0.4-3.6,1-5,1.7
				c-0.2,0.1-0.4,0.2-0.6,0.3c0,0-0.1,0-0.2-0.1c-0.1-0.1-0.3-0.1-0.4-0.2c-0.2-0.1-0.4-0.1-0.6-0.2c-0.9-0.3-2.3-0.5-3.9-0.6
				c-0.8,0-1.5-0.1-2.6-0.1c-1,0-2,0.2-3,0.5c-0.8,0.2-1.5,0.5-2.3,0.7c-0.2,0.1-0.4,0.2-0.6,0.2c-1,0.3-1.9,0.8-2.9,1.2
				c-1,0.4-2,0.7-3,0.7c-0.5,0-1,0-1.5-0.1c-0.2,0-0.4-0.1-0.6-0.2c-0.3-0.1-0.5-0.2-0.8-0.3c-0.9-0.4-1.8-0.9-2.8-1
				c-1-0.2-2.1-0.1-2.9,0.2c-0.2,0.1-0.4,0.1-0.5,0.2c-0.1,0-0.1,0-0.2,0.1c-0.1,0-0.1-0.1-0.2-0.1c0,0,0,0,0,0
				c-0.4-0.3-0.8-0.6-1.2-0.8c-1-0.5-2.1-0.6-3.5-0.5c-2.4,0.3-4.1,1.9-5.6,3.4l-0.4,0.4l0.4,0.4c0.3,0.3,0.6,0.4,1,0.5
				C31.4,356.1,31.5,356.1,31.7,356.1z"/>
			<path fill="#70613F" d="M139.2,449.7c0.2-0.8-0.6-2.3-0.6-2.3c-0.3-0.4-0.9-0.2-1.3,0c-0.8,0.5-1.5,1.3-1.5,2.2
				c0.1,0.8,0.8,1.4,1.6,1.4C138.3,451,139,450.4,139.2,449.7z"/>
			<path fill="#70613F" d="M133.7,440.6c-0.3,0.9-0.5,1.9,0.1,2.6c0.5,0.6,1.5,0.7,2.1,0.2c0.6-0.5,0.9-1.4,0.6-2.1
				c-0.3-0.8-1.8-1.5-1.8-1.5C134.3,439.6,133.9,440.1,133.7,440.6z"/>
			<path fill="#70613F" d="M131.1,475.2c0.5,0.6,1.5,0.7,2.1,0.2c0.6-0.5,0.9-1.4,0.6-2.1c-0.3-0.8-1.8-1.5-1.8-1.5
				c-0.5-0.2-0.9,0.3-1.1,0.8C130.7,473.5,130.5,474.5,131.1,475.2z"/>
			<path fill="#70613F" d="M126.7,480c0.8-0.2,1.3-1,1.3-1.8c0-0.8-1.2-2.1-1.2-2.1c-0.4-0.3-0.9,0-1.3,0.4
				c-0.6,0.7-1.1,1.6-0.8,2.5C125,479.8,125.9,480.2,126.7,480z"/>
			<path fill="#70613F" d="M151.6,479.8c-0.5-0.2-0.9,0.3-1.1,0.8c-0.3,0.9-0.5,1.9,0.1,2.6c0.5,0.6,1.5,0.7,2.1,0.2
				c0.6-0.5,0.9-1.4,0.6-2.1C153.1,480.5,151.6,479.8,151.6,479.8z"/>
			<path fill="#70613F" d="M104.9,470c0.8-0.1,1.4-0.8,1.5-1.6c0.1-0.8-0.9-2.2-0.9-2.2c-0.3-0.4-0.9-0.1-1.3,0.2
				c-0.7,0.6-1.3,1.5-1.1,2.4C103.3,469.6,104.1,470.1,104.9,470z"/>
			<path fill="#70613F" d="M105.8,487.8c0.6-0.5,0.9-1.4,0.6-2.1c-0.3-0.8-1.8-1.5-1.8-1.5c-0.5-0.2-0.9,0.3-1.1,0.8
				c-0.3,0.9-0.5,1.9,0.1,2.6C104.2,488.1,105.1,488.2,105.8,487.8z"/>
			<path fill="#70613F" d="M110.1,445.8c-0.3-0.8-1.8-1.5-1.8-1.5c-0.5-0.2-0.9,0.3-1.1,0.8c-0.3,0.9-0.5,1.9,0.1,2.6
				c0.5,0.6,1.5,0.7,2.1,0.2C110.1,447.5,110.3,446.6,110.1,445.8z"/>
			<path fill="#70613F" d="M80.7,462.9c-0.5-0.2-0.9,0.3-1.1,0.8c-0.3,0.9-0.5,1.9,0.1,2.6c0.5,0.6,1.5,0.7,2.1,0.2
				c0.6-0.5,0.9-1.4,0.6-2.1C82.3,463.7,80.7,462.9,80.7,462.9z"/>
			<path fill="#70613F" d="M81,489.4c0.6-0.5,0.9-1.4,0.6-2.1c-0.3-0.8-1.8-1.5-1.8-1.5c-0.5-0.2-0.9,0.3-1.1,0.8
				c-0.3,0.9-0.5,1.9,0.1,2.6C79.3,489.8,80.3,489.9,81,489.4z"/>
			<path fill="#70613F" d="M67.5,476.1c-0.3,0.9-0.5,1.9,0.1,2.6c0.5,0.6,1.5,0.7,2.1,0.2c0.6-0.5,0.9-1.4,0.6-2.1
				c-0.3-0.8-1.8-1.5-1.8-1.5C68.1,475.1,67.7,475.6,67.5,476.1z"/>
			<path fill="#70613F" d="M57.1,484.9c0.6-0.5,0.9-1.4,0.6-2.1c-0.3-0.8-1.8-1.5-1.8-1.5c-0.5-0.2-0.9,0.3-1.1,0.8
				c-0.3,0.9-0.5,1.9,0.1,2.6C55.5,485.3,56.5,485.4,57.1,484.9z"/>
			<path fill="#70613F" d="M156.5,437.6c0,0.8,0.7,1.5,1.5,1.5c0.8,0,1.6-0.5,1.8-1.2c0.3-0.8-0.4-2.3-0.4-2.3
				c-0.2-0.4-0.9-0.3-1.3,0C157.3,436,156.5,436.7,156.5,437.6z"/>
			<path fill="#70613F" d="M150.1,429.7c0.5,0.6,1.5,0.7,2.1,0.2c0.6-0.5,0.9-1.4,0.6-2.1c-0.3-0.8-1.8-1.5-1.8-1.5
				c-0.5-0.2-0.9,0.3-1.1,0.8C149.7,428,149.5,429,150.1,429.7z"/>
			<path fill="#70613F" d="M159.6,434.5c0.6,0,1.1-0.4,1.3-1c0.2-0.6-0.4-1.7-0.4-1.7c-0.2-0.3-0.7-0.2-1,0
				c-0.6,0.4-1.1,0.9-1.1,1.6C158.4,434,159,434.5,159.6,434.5z"/>
			<path fill="#70613F" d="M71.6,426.4c0,0.6,0.6,1.1,1.2,1.1s1.1-0.4,1.3-1c0.2-0.6-0.4-1.7-0.4-1.7c-0.2-0.3-0.7-0.2-1,0
				C72.1,425.1,71.5,425.7,71.6,426.4z"/>
			<path fill="#70613F" d="M114.6,431.7c0,0.6,0.6,1.1,1.2,1.1s1.1-0.4,1.3-1c0.2-0.6-0.4-1.7-0.4-1.7c-0.2-0.3-0.7-0.2-1,0
				C115.1,430.5,114.5,431,114.6,431.7z"/>
			<path fill="#70613F" d="M63.6,426.7c0.2-0.6-0.4-1.7-0.4-1.7c-0.2-0.3-0.7-0.2-1,0c-0.6,0.4-1.2,0.9-1.1,1.6
				c0,0.6,0.6,1.1,1.2,1.1C62.8,427.7,63.4,427.2,63.6,426.7z"/>
			<path fill="#70613F" d="M179.1,446.5c0.2-0.6-0.4-1.7-0.4-1.7c-0.2-0.3-0.7-0.2-1,0c-0.6,0.4-1.2,0.9-1.1,1.6
				c0,0.6,0.6,1.1,1.2,1.1S178.9,447.1,179.1,446.5z"/>
			<path fill="#70613F" d="M88.4,426.6c-0.3,0.9-0.5,1.9,0.1,2.6c0.5,0.6,1.5,0.7,2.1,0.2c0.6-0.5,0.9-1.4,0.6-2.1
				c-0.3-0.8-1.8-1.5-1.8-1.5C89,425.6,88.5,426.1,88.4,426.6z"/>
			<path fill="#70613F" d="M113.2,406.7c0.2-0.6-0.4-1.7-0.4-1.7c-0.2-0.3-0.7-0.2-1,0c-0.6,0.4-1.1,0.9-1.1,1.6
				c0,0.6,0.6,1.1,1.2,1.1C112.5,407.7,113,407.2,113.2,406.7z"/>
			<path fill="#70613F" d="M103.7,406.6c0,0.6,0.6,1.1,1.2,1.1c0.6,0,1.1-0.4,1.3-1c0.2-0.6-0.4-1.7-0.4-1.7c-0.2-0.3-0.7-0.2-1,0
				C104.3,405.3,103.7,405.9,103.7,406.6z"/>
			<path fill="#70613F" d="M80.8,401.5c-0.6,0.4-1.1,0.9-1.1,1.6c0,0.6,0.6,1.1,1.2,1.1c0.6,0,1.1-0.4,1.3-1
				c0.2-0.6-0.4-1.7-0.4-1.7C81.6,401.1,81.2,401.3,80.8,401.5z"/>
			<path fill="#70613F" d="M92.1,381.4c0,0.6,0.6,1.1,1.2,1.1s1.1-0.4,1.3-1c0.2-0.6-0.4-1.7-0.4-1.7c-0.2-0.3-0.7-0.2-1,0
				C92.6,380.1,92,380.7,92.1,381.4z"/>
			<path fill="#70613F" d="M138.1,393.8c0.6,0,1.1-0.4,1.3-1c0.2-0.6-0.4-1.7-0.4-1.7c-0.2-0.3-0.7-0.2-1,0
				c-0.6,0.4-1.1,0.9-1.1,1.6C136.9,393.3,137.5,393.8,138.1,393.8z"/>
			<path fill="#70613F" d="M138.4,385.1c0.6,0,1.1-0.4,1.3-1c0.2-0.6-0.4-1.7-0.4-1.7c-0.2-0.3-0.7-0.2-1,0
				c-0.6,0.4-1.1,0.9-1.1,1.6C137.3,384.6,137.8,385.1,138.4,385.1z"/>
			<path fill="#70613F" d="M154.1,403.4c0,0.6,0.6,1.1,1.2,1.1s1.1-0.4,1.3-1c0.2-0.6-0.4-1.7-0.4-1.7c-0.2-0.3-0.7-0.2-1,0
				C154.6,402.1,154,402.7,154.1,403.4z"/>
			<path fill="#70613F" d="M160.9,403.5c0.2-0.6-0.4-1.7-0.4-1.7c-0.2-0.3-0.7-0.2-1,0c-0.6,0.4-1.1,0.9-1.1,1.6
				c0,0.6,0.6,1.1,1.2,1.1C160.2,404.5,160.7,404.1,160.9,403.5z"/>
			<path fill="#70613F" d="M159.5,392.3c-0.5,0.3-1,0.8-1.1,1.3c0.1,0.1,0.1,0.1,0.2,0.2c0.1,0.2,0.1,0.5,0.1,0.7
				c0.2,0.3,0.5,0.5,0.9,0.5c0.6,0,1.1-0.4,1.3-1c0.2-0.6-0.4-1.7-0.4-1.7C160.3,392,159.8,392.1,159.5,392.3z"/>
			<path fill="#70613F" d="M152.8,377.6c-0.6,0.4-1.1,0.9-1.1,1.6c0,0.6,0.6,1.1,1.2,1.1s1.1-0.4,1.3-1c0.2-0.6-0.4-1.7-0.4-1.7
				C153.6,377.3,153.2,377.4,152.8,377.6z"/>
			<path fill="#70613F" d="M171.3,422c-0.6,0.4-1.1,0.9-1.1,1.6c0,0.6,0.6,1.1,1.2,1.1c0.6,0,1.1-0.4,1.3-1c0.2-0.6-0.4-1.7-0.4-1.7
				C172.1,421.6,171.7,421.8,171.3,422z"/>
			<path fill="#70613F" d="M174.1,458.7c0.2-0.6-0.4-1.7-0.4-1.7c-0.2-0.3-0.7-0.2-1,0c-0.6,0.4-1.2,0.9-1.1,1.6
				c0,0.6,0.6,1.1,1.2,1.1C173.3,459.7,173.9,459.2,174.1,458.7z"/>
			<path fill="#70613F" d="M101.7,359.2C101.7,359.2,101.7,359.3,101.7,359.2c0.1,0.5,0.4,0.9,0.8,1c0.1,0,0.2,0.1,0.4,0.1l-0.1-0.1
				L101.7,359.2L101.7,359.2z"/>
			<path fill="#70613F" d="M79.7,362.6c-0.6,0.4-1.2,0.9-1.1,1.6c0,0.6,0.6,1.1,1.2,1.1s1.1-0.4,1.3-1c0.2-0.6-0.4-1.7-0.4-1.7
				C80.5,362.3,80,362.4,79.7,362.6z"/>
			<path fill="#70613F" d="M53.1,369.6c0.6,0,1.1-0.4,1.3-1c0.2-0.6-0.4-1.7-0.4-1.7c-0.2-0.3-0.7-0.2-1,0c-0.6,0.4-1.1,0.9-1.1,1.6
				C51.9,369.1,52.5,369.6,53.1,369.6z"/>
			<path fill="#70613F" d="M46.4,367.4c0.5-0.5,0.9-1.2,0.7-1.8c-0.2-0.6-0.8-0.9-1.4-0.8c-0.6,0.1-1,0.7-1,1.3
				c0,0.6,0.8,1.6,0.8,1.6C45.7,367.9,46.1,367.7,46.4,367.4z"/>
			<path fill="#70613F" d="M177.8,379.1c-0.6,0.1-1,0.7-1,1.3c0,0.6,0.8,1.6,0.8,1.6c0.3,0.3,0.7,0,1-0.3c0.5-0.5,0.9-1.2,0.7-1.8
				C179,379.3,178.4,379,177.8,379.1z"/>
			<path fill="#53422C" d="M99.6,475.7c0,0.6,1.1,1.5,1.1,1.5c0.3,0.3,0.8,0.1,1.1-0.1c0.5-0.4,0.9-1,0.5-1.6
				c-0.3-0.5-1.1-0.9-1.7-0.9C100,474.8,99.5,475.2,99.6,475.7z"/>
			<path fill="#53422C" d="M89.2,466.6c0,0.6,1.1,1.5,1.1,1.5c0.3,0.3,0.8,0.1,1.1-0.1c0.5-0.4,0.9-1,0.5-1.6
				c-0.3-0.5-1.1-0.9-1.7-0.9C89.6,465.6,89.2,466.1,89.2,466.6z"/>
			<path fill="#53422C" d="M126.3,465.2c-0.6,0-1.1,0.5-1,1c0,0.6,1.1,1.5,1.1,1.5c0.3,0.3,0.8,0.1,1.1-0.1c0.5-0.4,0.9-1,0.5-1.6
				C127.7,465.6,126.9,465.2,126.3,465.2z"/>
			<path fill="#53422C" d="M116.9,458.2c0,0.6,1.1,1.5,1.1,1.5c0.3,0.3,0.8,0.1,1.1-0.1c0.5-0.4,0.9-1,0.5-1.6
				c-0.3-0.5-1.1-0.9-1.7-0.9S116.9,457.7,116.9,458.2z"/>
			<path fill="#53422C" d="M73.7,477.5c0.5-0.4,0.9-1,0.5-1.6c-0.3-0.5-1.1-0.9-1.7-0.9c-0.6,0-1.1,0.5-1,1c0,0.6,1.1,1.5,1.1,1.5
				C73,477.9,73.5,477.7,73.7,477.5z"/>
			<path fill="#53422C" d="M77.4,453.5c0.5-0.4,0.9-1,0.5-1.6c-0.3-0.5-1.1-0.9-1.7-0.9c-0.6,0-1.1,0.5-1,1c0,0.6,1.1,1.5,1.1,1.5
				C76.7,453.9,77.2,453.7,77.4,453.5z"/>
			<path fill="#53422C" d="M67.2,454.3c0.3,0.3,0.8,0.1,1.1-0.1c0.5-0.4,0.9-1,0.5-1.6c-0.3-0.5-1.1-0.9-1.7-0.9c-0.6,0-1.1,0.5-1,1
				C66.1,453.3,67.2,454.3,67.2,454.3z"/>
			<path fill="#53422C" d="M46.4,442.4c0,0.6,1.1,1.5,1.1,1.5c0.3,0.3,0.8,0.1,1.1-0.1c0.5-0.4,0.9-1,0.5-1.6
				c-0.3-0.5-1.1-0.9-1.7-0.9C46.8,441.4,46.4,441.9,46.4,442.4z"/>
			<path fill="#53422C" d="M89.8,438.4c-0.2,0-0.4,0.1-0.5,0.2c0,0-0.1,0-0.1,0c-0.6,0-1.1,0.5-1,1c0,0.6,1.1,1.5,1.1,1.5
				c0.3,0.2,0.7,0.1,0.9,0c0.3,0,0.6-0.1,0.8-0.2c0.5-0.4,0.9-1,0.5-1.6C91.2,438.7,90.4,438.3,89.8,438.4z"/>
			<path fill="#53422C" d="M101.1,440.6c0,0.6,1.1,1.5,1.1,1.5c0.3,0.3,0.8,0.1,1.1-0.1c0.5-0.4,0.9-1,0.5-1.6
				c-0.3-0.5-1.1-0.9-1.7-0.9C101.5,439.6,101,440.1,101.1,440.6z"/>
			<path fill="#53422C" d="M141,443.8c0.3,0.3,0.8,0.1,1.1-0.1c0.5-0.4,0.9-1,0.5-1.6c-0.3-0.5-1.1-0.9-1.7-0.9s-1.1,0.5-1,1
				C139.9,442.8,141,443.8,141,443.8z"/>
			<path fill="#53422C" d="M148.3,444.2c-0.6,0-1.1,0.5-1,1c0,0.6,1.1,1.5,1.1,1.5c0.3,0.3,0.8,0.1,1.1-0.1c0.5-0.4,0.9-1,0.5-1.6
				C149.7,444.6,148.9,444.2,148.3,444.2z"/>
			<path fill="#53422C" d="M162.9,452.6c0.3,0.3,0.8,0.1,1.1-0.1c0.5-0.4,0.9-1,0.5-1.6c-0.3-0.5-1.1-0.9-1.7-0.9
				c-0.6,0-1.1,0.5-1,1C161.8,451.6,162.9,452.6,162.9,452.6z"/>
			<path fill="#53422C" d="M159.1,462.1c0,0.6,1.1,1.5,1.1,1.5c0.3,0.3,0.8,0.1,1.1-0.1c0.5-0.4,0.9-1,0.5-1.6
				c-0.3-0.5-1.1-0.9-1.7-0.9C159.5,461.1,159,461.6,159.1,462.1z"/>
			<path fill="#53422C" d="M171,462.4c0.3,0.3,0.8,0.1,1.1-0.1c0.5-0.4,0.9-1,0.5-1.6c-0.3-0.5-1.1-0.9-1.7-0.9c-0.6,0-1.1,0.5-1,1
				C169.9,461.5,171,462.4,171,462.4z"/>
			<path fill="#53422C" d="M178.7,480.1c0.3,0.3,0.8,0.1,1.1-0.1c0.5-0.4,0.9-1,0.5-1.6c-0.3-0.5-1.1-0.9-1.7-0.9
				c-0.6,0-1.1,0.5-1,1C177.6,479.1,178.7,480.1,178.7,480.1z"/>
			<path fill="#53422C" d="M161.7,421.6c0,0.6,1.1,1.5,1.1,1.5c0.3,0.3,0.8,0.1,1.1-0.1c0.5-0.4,0.9-1,0.5-1.6
				c-0.3-0.5-1.1-0.9-1.7-0.9C162.1,420.6,161.7,421.1,161.7,421.6z"/>
			<path fill="#53422C" d="M108.6,426.9c-0.6,0-1.1,0.5-1,1c0,0.6,1.1,1.5,1.1,1.5c0.3,0.3,0.8,0.1,1.1-0.1c0.5-0.4,0.9-1,0.5-1.6
				C110,427.2,109.2,426.8,108.6,426.9z"/>
			<path fill="#53422C" d="M101.6,430.6c0,0.6,1.1,1.5,1.1,1.5c0.3,0.3,0.8,0.1,1.1-0.1c0.5-0.4,0.9-1,0.5-1.6
				c-0.3-0.5-1.1-0.9-1.7-0.9C102,429.6,101.5,430.1,101.6,430.6z"/>
			<path fill="#53422C" d="M86.1,419.6c0.3,0.3,0.8,0.1,1.1-0.1c0.5-0.4,0.9-1,0.5-1.6c-0.3-0.5-1.1-0.9-1.7-0.9c-0.6,0-1.1,0.5-1,1
				C85,418.6,86.1,419.6,86.1,419.6z"/>
			<path fill="#53422C" d="M68.5,418c0,0.6,1.1,1.5,1.1,1.5c0.3,0.3,0.8,0.1,1.1-0.1c0.5-0.4,0.9-1,0.5-1.6
				c-0.3-0.5-1.1-0.9-1.7-0.9C68.9,417,68.5,417.4,68.5,418z"/>
			<path fill="#53422C" d="M122,410.1c0.3,0.3,0.8,0.1,1.1-0.1c0.5-0.4,0.9-1,0.5-1.6c-0.3-0.5-1.1-0.9-1.7-0.9c-0.6,0-1.1,0.5-1,1
				C120.9,409.1,122,410.1,122,410.1z"/>
			<path fill="#53422C" d="M123.1,405c0.3,0.3,0.8,0.1,1.1-0.1c0.5-0.4,0.9-1,0.5-1.6c-0.3-0.5-1.1-0.9-1.7-0.9c-0.6,0-1.1,0.5-1,1
				C122,404,123.1,405,123.1,405z"/>
			<path fill="#53422C" d="M68.5,397.6c0.3,0.3,0.8,0.1,1.1-0.1c0.5-0.4,0.9-1,0.5-1.6c-0.3-0.5-1.1-0.9-1.7-0.9c-0.6,0-1.1,0.5-1,1
				C67.4,396.6,68.5,397.6,68.5,397.6z"/>
			<path fill="#53422C" d="M63.9,392.2c0.3,0.3,0.8,0.1,1.1-0.1c0.5-0.4,0.9-1,0.5-1.6c-0.3-0.5-1.1-0.9-1.7-0.9c-0.6,0-1.1,0.5-1,1
				C62.8,391.3,63.9,392.2,63.9,392.2z"/>
			<path fill="#53422C" d="M48.4,466.9c0.5-0.4,0.9-1,0.5-1.6c-0.3-0.5-1.1-0.9-1.7-0.9c-0.6,0-1.1,0.5-1,1c0,0.6,1.1,1.5,1.1,1.5
				C47.7,467.3,48.2,467.1,48.4,466.9z"/>
			<path fill="#53422C" d="M145.4,391.4c0.3,0.3,0.8,0.1,1.1-0.1c0.5-0.4,0.9-1,0.5-1.6c-0.3-0.5-1.1-0.9-1.7-0.9
				c-0.6,0-1.1,0.5-1,1C144.3,390.4,145.4,391.4,145.4,391.4z"/>
			<path fill="#53422C" d="M158.6,393.8c0-0.1-0.1-0.1-0.2-0.2c-0.3-0.4-1-0.7-1.5-0.7c-0.6,0-1.1,0.5-1,1c0,0.6,1.1,1.5,1.1,1.5
				c0.3,0.3,0.8,0.1,1.1-0.1c0.3-0.2,0.5-0.5,0.6-0.9C158.7,394.3,158.7,394,158.6,393.8z"/>
			<path fill="#53422C" d="M165.2,393.9c0.5-0.4,0.9-1,0.5-1.6c-0.3-0.5-1.1-0.9-1.7-0.9c-0.6,0-1.1,0.5-1,1c0,0.6,1.1,1.5,1.1,1.5
				C164.4,394.3,164.9,394.1,165.2,393.9z"/>
			<path fill="#53422C" d="M175.5,385.7c0,0.6,1.1,1.5,1.1,1.5c0.3,0.3,0.8,0.1,1.1-0.1c0.5-0.4,0.9-1,0.5-1.6
				c-0.3-0.5-1.1-0.9-1.7-0.9C175.9,384.7,175.5,385.2,175.5,385.7z"/>
			<path fill="#53422C" d="M133.6,378.5c0.3,0.3,0.8,0.1,1.1-0.1c0.5-0.4,0.9-1,0.5-1.6c-0.3-0.5-1.1-0.9-1.7-0.9
				c-0.6,0-1.1,0.5-1,1C132.5,377.5,133.6,378.5,133.6,378.5z"/>
			<path fill="#53422C" d="M159.7,365.9c0.3,0.3,0.8,0.1,1.1-0.1c0.5-0.4,0.9-1,0.5-1.6c-0.3-0.5-1.1-0.9-1.7-0.9
				c-0.6,0-1.1,0.5-1,1C158.7,364.9,159.7,365.9,159.7,365.9z"/>
			<path fill="#53422C" d="M173.2,361.1C173.2,361.1,173.2,361.1,173.2,361.1c0.5-0.4,0.9-1,0.5-1.6c-0.3-0.5-1.1-0.9-1.7-0.9
				c-0.6,0-1.1,0.5-1,1c0,0.5,0.7,1.2,1,1.4c0.1,0.1,0.1,0.1,0.1,0.1C172.4,361.5,172.9,361.3,173.2,361.1z"/>
			<path fill="#53422C" d="M107.5,371.7c-0.3-0.5-1.1-0.9-1.7-0.9c-0.6,0-1.1,0.5-1,1c0,0.6,1.1,1.5,1.1,1.5
				c0.2,0.1,0.4,0.2,0.5,0.1c0.1,0,0.2-0.1,0.3-0.1c0.1,0,0.2-0.1,0.2-0.1C107.4,372.9,107.8,372.3,107.5,371.7z"/>
			<path fill="#53422C" d="M86.1,372.4c-0.6,0-1.1,0.5-1,1c0,0.6,1.1,1.5,1.1,1.5c0.3,0.3,0.8,0.1,1.1-0.1c0.5-0.4,0.9-1,0.5-1.6
				C87.6,372.8,86.8,372.4,86.1,372.4z"/>
			<path fill="#53422C" d="M115.5,367.2c-0.6,0-1.1,0.5-1,1c0,0.6,1.1,1.5,1.1,1.5c0.3,0.3,0.8,0.1,1.1-0.1c0.5-0.4,0.9-1,0.5-1.6
				C116.9,367.5,116.1,367.1,115.5,367.2z"/>
			<path fill="#53422C" d="M84.1,358.4c-0.6,0-1.1,0.5-1,1c0,0.6,1.1,1.5,1.1,1.5c0.3,0.3,0.8,0.1,1.1-0.1c0.5-0.4,0.9-1,0.5-1.6
				C85.6,358.8,84.8,358.4,84.1,358.4z"/>
			<path fill="#53422C" d="M75.3,358.1c0,0.1-0.1,0.2-0.1,0.4c0,0.6,1.1,1.5,1.1,1.5c0.3,0.3,0.8,0.1,1.1-0.1
				c0.1-0.1,0.2-0.2,0.3-0.2c0.2-0.2,0.3-0.4,0.4-0.7c0-0.2,0-0.4-0.1-0.6c-0.2-0.5-0.9-0.8-1.5-0.8c-0.1,0-0.1,0-0.2,0
				C75.8,357.5,75.4,357.7,75.3,358.1z"/>
			<path fill="#4E473A" d="M48.9,359.8c0.5,0.2,1.9-0.3,1.9-0.3c0.4-0.2,0.5-0.7,0.4-1c-0.1-0.6-0.4-1.2-1.1-1.2
				c-0.6,0-1.3,0.5-1.6,1.1C48.3,359,48.5,359.6,48.9,359.8z"/>
			<path fill="#4E473A" d="M69.1,370.3c0.5,0.2,1.9-0.3,1.9-0.3c0.4-0.2,0.5-0.7,0.4-1c-0.1-0.6-0.4-1.2-1.1-1.2
				c-0.6,0-1.3,0.5-1.6,1.1C68.4,369.5,68.6,370.1,69.1,370.3z"/>
			<path fill="#4E473A" d="M94.6,369.7c0.5,0.2,1.9-0.3,1.9-0.3c0.4-0.2,0.5-0.7,0.4-1c-0.1-0.6-0.4-1.2-1.1-1.2
				c-0.6,0-1.3,0.5-1.6,1.1C93.9,368.9,94.1,369.5,94.6,369.7z"/>
			<path fill="#4E473A" d="M105.4,374.4c-0.3,0.6-0.1,1.2,0.4,1.4c0.5,0.2,1.9-0.3,1.9-0.3c0.4-0.2,0.5-0.7,0.4-1
				c-0.1-0.6-0.4-1.2-1.1-1.2c-0.1,0-0.2,0-0.3,0.1c-0.1,0-0.2,0.1-0.3,0.1C106,373.7,105.6,374,105.4,374.4z"/>
			<path fill="#4E473A" d="M115,383.3c-0.6,0-1.3,0.5-1.6,1.1c-0.3,0.6-0.1,1.2,0.4,1.4c0.5,0.2,1.9-0.3,1.9-0.3
				c0.4-0.2,0.5-0.7,0.4-1C116,383.9,115.7,383.3,115,383.3z"/>
			<path fill="#4E473A" d="M128.4,384.8c0.5,0.2,1.9-0.3,1.9-0.3c0.4-0.2,0.5-0.7,0.4-1c-0.1-0.6-0.4-1.2-1.1-1.2
				c-0.6,0-1.3,0.5-1.6,1.1C127.8,384,128,384.6,128.4,384.8z"/>
			<path fill="#4E473A" d="M125.4,394.3c0.5,0.2,1.9-0.3,1.9-0.3c0.4-0.2,0.5-0.7,0.4-1c-0.1-0.6-0.4-1.2-1.1-1.2
				c-0.6,0-1.3,0.5-1.6,1.1C124.8,393.5,125,394.1,125.4,394.3z"/>
			<path fill="#4E473A" d="M133.4,398c-0.3,0.6-0.1,1.2,0.4,1.4c0.5,0.2,1.9-0.3,1.9-0.3c0.4-0.2,0.5-0.7,0.4-1
				c-0.1-0.6-0.4-1.2-1.1-1.2C134.4,396.9,133.7,397.5,133.4,398z"/>
			<path fill="#4E473A" d="M108.1,389.4c-0.1-0.6-0.4-1.2-1.1-1.2c-0.6,0-1.3,0.5-1.6,1.1c-0.3,0.6-0.1,1.2,0.4,1.4
				c0.5,0.2,1.9-0.3,1.9-0.3C108.1,390.3,108.2,389.8,108.1,389.4z"/>
			<path fill="#4E473A" d="M97.2,387.3c0.5,0.2,1.9-0.3,1.9-0.3c0.4-0.2,0.5-0.7,0.4-1c-0.1-0.6-0.4-1.2-1.1-1.2
				c-0.6,0-1.3,0.5-1.6,1.1C96.5,386.5,96.7,387.1,97.2,387.3z"/>
			<path fill="#4E473A" d="M90.4,378.8c0.5,0.2,1.9-0.3,1.9-0.3c0.4-0.2,0.5-0.7,0.4-1c-0.1-0.6-0.4-1.2-1.1-1.2
				c-0.6,0-1.3,0.5-1.6,1.1C89.8,378,90,378.6,90.4,378.8z"/>
			<path fill="#4E473A" d="M71.7,378.9c-0.1-0.6-0.4-1.2-1.1-1.2c-0.6,0-1.3,0.5-1.6,1.1c-0.3,0.6-0.1,1.2,0.4,1.4
				c0.5,0.2,1.9-0.3,1.9-0.3C71.7,379.8,71.8,379.3,71.7,378.9z"/>
			<path fill="#4E473A" d="M86.2,380.3c-0.1-0.6-0.4-1.2-1.1-1.2c-0.6,0-1.3,0.5-1.6,1.1c-0.3,0.6-0.1,1.2,0.4,1.4
				c0.5,0.2,1.9-0.3,1.9-0.3C86.2,381.1,86.3,380.6,86.2,380.3z"/>
			<path fill="#4E473A" d="M81.8,393.5c-0.3,0.6-0.1,1.2,0.4,1.4c0.5,0.2,1.9-0.3,1.9-0.3c0.4-0.2,0.5-0.7,0.4-1
				c-0.1-0.6-0.4-1.2-1.1-1.2C82.8,392.4,82,393,81.8,393.5z"/>
			<path fill="#4E473A" d="M61.1,396.8c0.5,0.2,1.9-0.3,1.9-0.3c0.4-0.2,0.5-0.7,0.4-1c-0.1-0.6-0.4-1.2-1.1-1.2
				c-0.6,0-1.3,0.5-1.6,1.1C60.4,396,60.6,396.6,61.1,396.8z"/>
			<path fill="#4E473A" d="M149.9,394.9c-0.3,0.6-0.1,1.2,0.4,1.4c0.5,0.2,1.9-0.3,1.9-0.3c0.4-0.2,0.5-0.7,0.4-1
				c-0.1-0.6-0.4-1.2-1.1-1.2C150.9,393.8,150.2,394.3,149.9,394.9z"/>
			<path fill="#4E473A" d="M156.6,379c-0.6,0-1.3,0.5-1.6,1.1c-0.3,0.6-0.1,1.2,0.4,1.4c0.5,0.2,1.9-0.3,1.9-0.3
				c0.4-0.2,0.5-0.7,0.4-1C157.6,379.6,157.3,379,156.6,379z"/>
			<path fill="#4E473A" d="M169.2,372.8c-0.6,0-1.3,0.5-1.6,1.1c-0.3,0.6-0.1,1.2,0.4,1.4c0.5,0.2,1.9-0.3,1.9-0.3
				c0.4-0.2,0.5-0.7,0.4-1C170.2,373.4,169.9,372.8,169.2,372.8z"/>
			<path fill="#4E473A" d="M172,393.7c-0.6,0-1.3,0.5-1.6,1.1c-0.3,0.6-0.1,1.2,0.4,1.4c0.5,0.2,1.9-0.3,1.9-0.3
				c0.4-0.2,0.5-0.7,0.4-1C173,394.3,172.7,393.7,172,393.7z"/>
			<path fill="#4E473A" d="M173.3,402.9c-0.1-0.6-0.4-1.2-1.1-1.2c-0.6,0-1.3,0.5-1.6,1.1c-0.3,0.6-0.1,1.2,0.4,1.4
				c0.5,0.2,1.9-0.3,1.9-0.3C173.3,403.8,173.4,403.3,173.3,402.9z"/>
			<path fill="#4E473A" d="M169.4,415.4c0.5,0.2,1.9-0.3,1.9-0.3c0.4-0.2,0.5-0.7,0.4-1c-0.1-0.6-0.4-1.2-1.1-1.2
				c-0.6,0-1.3,0.5-1.6,1.1S168.9,415.2,169.4,415.4z"/>
			<path fill="#4E473A" d="M137.4,419.9c0.5,0.2,1.9-0.3,1.9-0.3c0.4-0.2,0.5-0.7,0.4-1c-0.1-0.6-0.4-1.2-1.1-1.2
				c-0.6,0-1.3,0.5-1.6,1.1S136.9,419.7,137.4,419.9z"/>
			<path fill="#4E473A" d="M174.2,437.8c-0.3,0.6-0.1,1.2,0.4,1.4c0.5,0.2,1.9-0.3,1.9-0.3c0.4-0.2,0.5-0.7,0.4-1
				c-0.1-0.6-0.4-1.2-1.1-1.2C175.2,436.7,174.5,437.2,174.2,437.8z"/>
			<path fill="#4E473A" d="M163.6,462.6c0.5,0.2,1.9-0.3,1.9-0.3c0.4-0.2,0.5-0.7,0.4-1c-0.1-0.6-0.4-1.2-1.1-1.2
				c-0.6,0-1.3,0.5-1.6,1.1S163.2,462.4,163.6,462.6z"/>
			<path fill="#4E473A" d="M142.2,474.8c-0.3,0.6-0.1,1.2,0.4,1.4c0.5,0.2,1.9-0.3,1.9-0.3c0.4-0.2,0.5-0.7,0.4-1
				c-0.1-0.6-0.4-1.2-1.1-1.2C143.2,473.7,142.5,474.2,142.2,474.8z"/>
			<path fill="#4E473A" d="M118.7,477.8c-0.6,0-1.3,0.5-1.6,1.1s-0.1,1.2,0.4,1.4c0.5,0.2,1.9-0.3,1.9-0.3c0.4-0.2,0.5-0.7,0.4-1
				C119.7,478.4,119.3,477.8,118.7,477.8z"/>
			<path fill="#4E473A" d="M109.3,460.3c0.5,0.2,1.9-0.3,1.9-0.3c0.4-0.2,0.5-0.7,0.4-1c-0.1-0.6-0.4-1.2-1.1-1.2
				c-0.6,0-1.3,0.5-1.6,1.1S108.8,460.1,109.3,460.3z"/>
			<path fill="#4E473A" d="M125.2,439.9c0.4-0.2,0.5-0.7,0.4-1c-0.1-0.6-0.4-1.2-1.1-1.2c-0.6,0-1.3,0.5-1.6,1.1s-0.1,1.2,0.4,1.4
				C123.9,440.4,125.2,439.9,125.2,439.9z"/>
			<path fill="#4E473A" d="M99.2,431.4c-0.6,0-1.3,0.5-1.6,1.1s-0.1,1.2,0.4,1.4c0.5,0.2,1.9-0.3,1.9-0.3c0.4-0.2,0.5-0.7,0.4-1
				C100.2,432,99.8,431.4,99.2,431.4z"/>
			<path fill="#4E473A" d="M107.5,410.1c-0.6,0-1.3,0.5-1.6,1.1s-0.1,1.2,0.4,1.4c0.5,0.2,1.9-0.3,1.9-0.3c0.4-0.2,0.5-0.7,0.4-1
				C108.5,410.7,108.2,410.1,107.5,410.1z"/>
			<path fill="#4E473A" d="M110.2,413.6c-0.3,0.6-0.1,1.2,0.4,1.4c0.5,0.2,1.9-0.3,1.9-0.3c0.4-0.2,0.5-0.7,0.4-1
				c-0.1-0.6-0.4-1.2-1.1-1.2C111.2,412.5,110.5,413.1,110.2,413.6z"/>
			<path fill="#4E473A" d="M67.8,416.4c0.5,0.2,1.9-0.3,1.9-0.3c0.4-0.2,0.5-0.7,0.4-1c-0.1-0.6-0.4-1.2-1.1-1.2
				c-0.6,0-1.3,0.5-1.6,1.1S67.3,416.2,67.8,416.4z"/>
			<path fill="#4E473A" d="M45.5,419.6c-0.3,0.6-0.1,1.2,0.4,1.4c0.5,0.2,1.9-0.3,1.9-0.3c0.4-0.2,0.5-0.7,0.4-1
				c-0.1-0.6-0.4-1.2-1.1-1.2C46.4,418.5,45.7,419.1,45.5,419.6z"/>
		</g>
	</g>
</g>
</svg>
