<?xml version="1.0" encoding="iso-8859-1"?>
<!-- Generator: Adobe Illustrator 18.1.1, SVG Export Plug-In . SVG Version: 6.00 Build 0)  -->
<!DOCTYPE svg PUBLIC "-//W3C//DTD SVG 1.1//EN" "http://www.w3.org/Graphics/SVG/1.1/DTD/svg11.dtd">
<svg version="1.1" xmlns="http://www.w3.org/2000/svg" xmlns:xlink="http://www.w3.org/1999/xlink" x="0px" y="0px"
	 viewBox="0 0 279.3 590.8" enable-background="new 0 0 279.3 590.8" xml:space="preserve">
<g id="Layer_1">
</g>
<g id="BSFM_copy">
	<g id="body_x5F_back_1_">
	</g>
	<g id="water_copy" opacity="0.7">
	</g>
	<g id="sand_copy">
	</g>
	<g id="gravel_x5F_top_1_">
	</g>
	<g id="gravel_x5F_bottom_1_">
	</g>
	<g id="concrete_x5F_body_1_">
		<g id="cement_6_">
			<g id="XMLID_58_">
				<g>
					<path d="M214.7,0.4c0.3,8-0.8,11.4-1.2,19.4c-0.9,20.9-1.6,41.9-2,62.8c-1.1,51.4-0.1,102.7,1.3,154c1.4,54.5,1,109,0.9,163.5
						c-0.2,63-0.4,126.1-0.5,189.1c0,0.6-1.4,1.3-1.9,1.3c-0.1,0-0.2,0-0.3,0v-0.2c0.6-0.4,1.3-0.8,1.9-1.3c-0.6,0-1.3,0-1.9,0
						c0.1-24.2,0.1-48.5,0.2-72.7c0.1-49.8,0.3-99.6,0.4-149.4c0.2-57-0.6-113.8-2.1-170.8c-1.3-50-0.8-100.1,0.9-150.1
						c0.5-14.1,1.1-23.2,1.8-37.3c0.1-1.2,1.1-5.9,0.4-7c0-0.1-4.3,0.1-5.3,0.1c-1.9,0-3.8,0-5.6,0c0-0.4,0-0.9,0-1.3V0.3
						c4.3,0,8.6,0,12.8,0C214.6,0.3,214.7,0.3,214.7,0.4z"/>
					<path d="M212.9,589.1c-0.6,0.4-1.3,0.9-1.9,1.3c0-0.4,0-0.8,0-1.3C211.7,589.1,212.3,589.1,212.9,589.1z"/>
					<path fill="#B7BCC0" d="M212.6,1.6c0.7,1-0.3,5.8-0.4,7c-0.7,14.1-1.3,23.2-1.8,37.3c-1.7,50-2.1,100.1-0.9,150.1
						c1.4,57,2.2,113.8,2.1,170.8c-0.1,49.8-0.3,99.6-0.4,149.4c-0.1,24.2-0.1,48.5-0.2,72.7c-21.4,0-42.7,0-64.1,0
						c-35.7,0-71.4,0-107.2,0c-8.9,0-18.3,0.9-27.1,0c-0.6-0.1-0.9,0-0.9,0c0,0,0.1-0.2-0.1-0.4c-0.4-1,0-2.8-0.1-3.9
						c-0.2-15.7-0.5-31.4-0.7-47.1c-0.4-28.5-0.9-56.9-1.3-85.4c-0.6-36-1.1-72-1.7-108C7.2,305.9,6.6,267.5,6,229.1
						c-0.6-35.2-1.1-70.4-1.7-105.7C3.9,96.5,3.5,69.6,3.1,42.7C2.9,29.4,3.5,15.8,2.4,2.5c0-0.1,0-0.3,0-0.5C5.5,2,10.9,2,11,2
						c0.1,0,0.2,3.3,0.3,4.6c0.4,7.4,2,56.2,4.7,75.2c0.6,4.7,0.2,9.7,0.9,14.4c0,0,4,0.2,5.6,0.3c0.8,0.1,9.5-0.3,9.8,0
						c0.1,0.2,0,0.7,0,0.9c0.6,1.7,0.1,8.6,0.2,10.4c0.3,9.7,0.6,19.4,0.9,29.1c1,34.7,2,69.3,3.1,104c1.3,43.4,2.5,86.8,3.8,130.2
						c1.1,38.2,2.3,76.5,3.4,114.7c0.4,12.6,0.7,25.2,1.1,37.8c0.1,4,0.2,8,0.3,12c0,1.7-0.4,4.6,0.2,6.2c0.1,0.2,0,0.6,0,0.8
						c0,0.1,0,0.2,0.1,0.2c7,1.9,14.3,2.9,21.4,3.9c20.4,2.9,41.2,4.4,61.8,4.2c14.4-0.2,29.4-1.4,43-6.5c2.9-1,5.5-2.4,8.3-3.7
						c1-0.5,2.6-0.8,3.1-1.8c0.8-1.2,0.4-3.9,0.5-5.2c0.2-4.6,0.3-9.1,0.4-13.7c0.4-16,0.6-32,0.8-48.1c0.7-48.8,1.1-97.5,1.5-146.3
						c0.4-50,0.8-99.9,1.1-149.9c0.1-17.7,0.2-35.4,0.4-53.2c0-5.6,0.1-11.3,0.1-16.9c0-2.7,0.7-6.4,0-9c3.7-0.2,7.3-0.4,10.9-0.7
						c0.1,0,0.2,0,0.3,0c0.5,0,1.9-0.7,1.9-1.3c0.2-28.9,0.4-52.9,0.7-81.8c0-3.7,0.1-7.4,0.1-11.2c1.9,0,3.8,0,5.6,0
						C208.3,1.7,212.5,1.6,212.6,1.6z"/>
					<path d="M211,589.1c0,0.4,0,0.9,0,1.3v0.2c-8.2,0-16.4,0-24.6,0c-36.3,0-72.5,0-108.8,0c-22.6,0-45.3,0-67.9,0
						c-0.2,0-0.3,0-0.3-0.2c0-0.3,0.1-0.7,0-1c-0.7-2.2-0.1-5.6-0.1-7.8c-0.1-5-0.1-10-0.2-15c-0.3-16.2-0.5-32.4-0.8-48.6
						C7.6,469,6.8,419.9,6,370.9c-0.9-56.6-1.8-113.1-2.7-169.7c-0.7-46.8-1.5-93.6-2.2-140.4C0.9,41.2,0.6,21.6,0.3,1.9
						c0-0.4,0.8-0.9,1.4-1.1C0.9,1.2,0,2.1,0.5,2.1c0.3,0,1,0,1.9,0c0,0.2,0,0.3,0,0.5c1,13.3,0.4,26.8,0.6,40.1
						c0.4,26.9,0.8,53.8,1.3,80.8c0.6,35.2,1.1,70.4,1.7,105.7c0.6,38.4,1.2,76.8,1.8,115.3c0.6,36,1.1,72,1.7,108
						c0.4,28.5,0.9,56.9,1.3,85.4c0.3,15.7,0.5,31.4,0.7,47.1c0,1-0.3,2.9,0.1,3.9c0.1,0.3,0.1,0.4,0.1,0.4c-0.1,0,0,0,0,0
						c0.1,0,0.3-0.1,0.9,0c8.9,0.9,18.2,0,27.1,0c35.7,0,71.4,0,107.2,0C168.3,589.1,189.7,589.1,211,589.1z"/>
					<path d="M201.6,0.3v0.2c-0.6,0.4-1.3,0.9-1.9,1.3c0.6,0,1.3,0,1.9,0c0,3.7-0.1,7.4-0.1,11.2c-0.2,28.9-0.4,52.9-0.7,81.8
						c0,0.6-1.4,1.3-1.9,1.3c-0.1,0-0.2,0-0.3,0l0-0.2c0.6-0.4,1.3-0.9,1.9-1.3c-0.6,0-1.3,0.1-1.9,0.1c0-3.8,0.1-7.5,0.1-11.3
						c0.2-28.9,0.5-52.9,0.7-81.8c0-0.6,1.4-1.3,1.9-1.3C201.5,0.3,201.5,0.3,201.6,0.3z"/>
					<path d="M201.6,0.4c0,0.4,0,0.9,0,1.3c-0.6,0-1.3,0-1.9,0C200.4,1.3,201,0.9,201.6,0.4z"/>
					<path d="M200.6,94.5c-0.6,0.4-1.3,0.9-1.9,1.3c0-0.4,0-0.8,0-1.2C199.4,94.6,200,94.5,200.6,94.5z"/>
					<path d="M198.7,95.8l0,0.2c-3.6,0.2-7.3,0.4-10.9,0.7c-0.1-0.3,0-0.8,0-1.2l0-0.2c3.7-0.2,7.3-0.4,10.9-0.7
						C198.7,95,198.7,95.4,198.7,95.8z"/>
					<path d="M187.8,96.6c0.7,2.6,0,6.3,0,9c0,5.6-0.1,11.3-0.1,16.9c-0.1,17.7-0.2,35.4-0.4,53.2c-0.3,49.9-0.7,99.9-1.1,149.9
						c-0.4,48.8-0.9,97.5-1.5,146.3c-0.2,16-0.5,32-0.8,48.1c-0.1,4.6-0.2,9.1-0.4,13.7c-0.1,1.3,0.3,4-0.5,5.2h-0.4
						c0.1-0.1,0.1-0.2-0.4-0.2c-0.4,0-0.8,0.1-1.2,0.3c0,0,0-0.1,0-0.1c-0.5-2,0.3-5.3,0.4-7.3c0.2-4.6,0.3-9.2,0.4-13.9
						c0.8-34.6,1.1-69.2,1.5-103.9c0.5-46.8,0.9-93.5,1.3-140.3c0.3-41.2,0.6-82.4,0.9-123.5c0.1-17.8,0.2-35.6,0.3-53.3
						c0-0.6,1.4-1.3,1.9-1.3c0.1,0,0.2,0,0.3,0l0,0.2c-0.6,0.4-1.3,0.9-1.9,1.3C186.5,96.7,187.2,96.6,187.8,96.6z"/>
					<path d="M185.9,96.7c0.6-0.4,1.3-0.9,1.9-1.3c0,0.4-0.1,0.8,0,1.2C187.2,96.6,186.5,96.7,185.9,96.7z"/>
					<path d="M182.5,538.7h0.4c-0.6,1-2.2,1.3-3.1,1.8c-2.8,1.3-5.4,2.7-8.3,3.7c-13.6,5.1-28.6,6.3-43,6.5
						c-20.6,0.2-41.4-1.3-61.8-4.2c-7.2-1-14.4-2-21.4-3.9c-0.1,0-0.1-0.1-0.1-0.2c0-0.2,0.1-0.6,0-0.8c-0.6-1.6-0.1-4.5-0.2-6.2
						c-0.1-4-0.2-8-0.3-12c-0.4-12.6-0.7-25.2-1.1-37.8c-1.1-38.2-2.3-76.5-3.4-114.7c-1.3-43.4-2.6-86.8-3.8-130.2
						c-1-34.7-2-69.3-3.1-104c-0.3-9.7-0.6-19.4-0.9-29.1c0-1.7,0.5-8.7-0.2-10.4c-0.1-0.2,0.1-0.8,0-0.9c-0.3-0.3-8.9,0.1-9.8,0
						c-1.6-0.1-5.6-0.3-5.6-0.3c-0.6-4.7-0.2-9.7-0.9-14.4c-2.6-19-4.3-67.7-4.7-75.2C11.1,5.3,11.1,2,11,2c-0.1,0-5.4,0-8.5,0.1
						c0-0.4,0-0.8,0-1.3c0-0.2-0.4-0.2-0.8,0C1.8,0.7,2,0.6,2.1,0.6c2.6,0,8.1,0,10.7,0c0.1,0,0.2,0,0.2,0.1c0.7,4.9,0.7,9.8,1,14.7
						c1.3,21,1.4,37.5,3.2,57.7c0.6,7.1,0.9,11.2,1.9,18.3c0.1,0.6,0.1,2.8,0.5,3.1c0.7,0.7,8.7,0.3,9.7,0.4
						c1.6,0.1,3.3,0.2,4.9,0.3c0.1,0,0.1,0.1,0.1,0.2c0,1.2,0.1,2.4,0.1,3.6c0.7,25.2,1.5,54.3,2.2,79.5c1.3,44,2.6,88,3.9,132
						c1.3,45.5,2.7,91,4,136.5c0.9,28.7,1.7,57.5,2.5,86.2c0.1,2.2-0.4,5.2,0.2,7.3c0.5,1.7,1.9,1.3,4.4,1.9
						c11.4,2.4,22.9,3.8,34.5,4.9c20.3,1.9,41.1,3.3,61.4,1.2c10.3-1.1,20.8-3.1,30.2-7.7c0.9-0.4,2.1-1.3,3.2-1.8
						c0,0.2-0.1,0.5-0.1,0.6C181,539.6,182.2,539,182.5,538.7z"/>
					<path d="M182.1,538.5c0.4,0,0.5,0.1,0.4,0.2c-0.3,0.3-1.5,0.9-1.6,0.7c-0.1-0.1,0.1-0.4,0.1-0.6
						C181.3,538.7,181.7,538.6,182.1,538.5z"/>
					<path d="M11.7,589.1C11.7,589.2,11.6,589.2,11.7,589.1L11.7,589.1z"/>
					<path d="M2.4,0.8c0,0.4,0,0.8,0,1.3c-0.9,0-1.6,0-1.9,0C0,2.1,0.9,1.2,1.6,0.8C2,0.7,2.4,0.6,2.4,0.8z"/>
				</g>
			</g>
		</g>
		<g id="gravel_3_">
			<g>
				<path fill="#7C7C7C" d="M28.1,576.7c-0.5-0.1-1,0.3-1,0.9c-0.1,0.5,0.2,1,0.4,1.5c0-0.4,0-0.8,0-1.2"/>
			</g>
			<g>
				<path fill="#7C7C7C" d="M42.1,575.1c-0.2,1.1-0.2,2.2-0.1,3.2c0.1-0.9,0-1.8-0.2-2.7c-0.6,0.6-0.9,1.4-0.8,2.3
					c0.4-0.5,0.5-1.2,0.2-1.8c-0.4,0.8-0.6,1.6-0.7,2.5c0.1-0.7,0-1.5-0.2-2.2c-0.3-0.1-0.6,0.2-0.5,0.5c0.1,0.3,0.3,0.5,0.6,0.6
					c0.7,0.4,1.6,0.6,2.4,0.6c0-0.7-0.5-1.5-1.2-1.7c-0.7-0.2-1.6,0.3-1.6,1s0.9,1.3,1.5,0.8c0.2-0.2,0.3-0.4,0.3-0.7
					c0.1-0.5-0.1-1.1-0.6-1.2s-1,0.6-0.6,0.9"/>
			</g>
			<g>
				<path fill="#7C7C7C" d="M23.5,550.1c-0.6,0.7-1,1.6-1.2,2.5c0.6,0.1,1.1,0.1,1.7,0.1c0.1,0,0.2,0,0.3-0.1
					c0.1-0.1,0.1-0.2,0.1-0.3c0.1-0.6,0.2-1.2,0.3-1.9c0-0.1,0-0.2,0-0.3c-0.1-0.1-0.3-0.1-0.4,0c-0.4,0.2-0.7,0.6-0.8,1
					c0-0.3,0-0.7-0.1-1c-0.2,0.4-0.4,0.8-0.6,1.1c0-0.1,0-0.3,0-0.4"/>
			</g>
			<g>
				<path fill="#7C7C7C" d="M23.9,552.2c-0.2,0-0.3,0-0.5,0c0.2-0.2,0.3-0.4,0.4-0.7c-0.3,0.3-0.5,0.6-0.6,1
					c0.4-0.3,0.7-0.7,0.8-1.2c-0.5,0-0.9,0.4-0.8,0.9c0.6-0.3,1-0.9,1.1-1.6c-0.6,0.1-1,0.6-1,1.1c0.4-0.1,0.8-0.3,1-0.7
					c0.2-0.3,0.1-0.8-0.2-0.8c-0.2,0-0.3,0.2-0.3,0.3c-0.1,0.3-0.2,0.6-0.2,0.9c0.5,0.1,1.1-0.5,0.9-1c-0.5,0.1-0.8,0.7-0.7,1.2"/>
			</g>
			<g>
				<path fill="#7C7C7C" d="M46.4,557.2c-0.4,0-0.8,0.3-1,0.7c0-0.3,0-0.6,0-0.9c-0.1,0.3,0,0.7,0.1,0.9c0.2-0.1,0.5-0.2,0.5-0.4
					c0.1-0.2-0.3-0.5-0.4-0.3"/>
			</g>
			<g>
				<path fill="#7C7C7C" d="M58.7,571.8c-0.2,0-0.4,0.1-0.6,0.3c0,0.4,0.7,0.6,1,0.2s0.2-0.8,0.1-1.3c-0.1,0.4,0,0.9,0.3,1.2
					c0.3,0.3,0.9,0.3,1.1,0c0.3-0.3,0-0.9-0.4-0.9c0.1,0.2,0.1,0.4,0.2,0.6"/>
			</g>
			<g>
				<path fill="#7C7C7C" d="M65.5,556.3c0.4,0.2,0.9,0.4,1.3,0.7c0.2-0.3,0-0.7-0.3-0.8c-0.2,0.1,0,0.4,0.2,0.3"/>
			</g>
			<g>
				<path fill="#7C7C7C" d="M75.9,578.4c-0.2,0.5-0.1,1.1,0.3,1.5c0.3-0.5,0.3-1.2,0-1.7c-0.2,0.6,0.1,1.4,0.7,1.6
					c0.1-0.3,0.2-0.6,0.3-0.9c0.4,0.2,0.8,0.5,1,0.9"/>
			</g>
			<g>
				<path fill="#7C7C7C" d="M99.7,562.6c-0.2,0.3-0.2,0.7,0,0.9c0-0.8,0.1-1.6,0.3-2.4c0,0.3,0,0.6,0,0.9"/>
			</g>
			<g>
				<path fill="#7C7C7C" d="M29.9,531c-0.3,0.9-0.2,1.9,0.3,2.7c0.4-0.4,0.4-1.1,0-1.5c-0.4-0.1-0.6,0.5-0.3,0.8
					c0.3,0.2,0.8,0,0.9-0.3c0.2-0.3,0.2-0.7,0.1-1.1c0,0.4,0,0.9,0,1.3c0-0.4,0-0.7,0-1.1"/>
			</g>
			<g>
				<path fill="#7C7C7C" d="M20.5,516.6c-0.4,0.1-0.7,0.7-0.4,1.1c0.1,0.1,0.2,0.2,0.3,0.3s0,0.4-0.1,0.4s-0.2-0.3,0-0.2"/>
			</g>
			<g>
				<path fill="#7C7C7C" d="M28,516.1c-0.4,0-0.3,0.6,0.1,0.8s0.8,0.1,1,0.5c-0.4-0.3-0.7-0.7-1.1-1c0.3-0.3,0.8-0.4,1.2-0.2"/>
			</g>
			<g>
				<path fill="#7C7C7C" d="M30.8,510.5c-0.4,0-0.3-0.6,0-0.8s0.8-0.5,0.6-0.8c-0.3,0.1-0.6,0.2-0.8,0.3c0.4-0.5,0.8-0.9,1.2-1.4
					c-0.3-0.2-0.7-0.2-1,0.1"/>
			</g>
			<g>
				<path fill="#7C7C7C" d="M158.7,556.3c0.5,0.2,1,0.4,1.3,0.8c0.4-0.3-0.3-1-0.7-0.7c-0.4,0.3,0,1.1,0.5,1.1
					c0.5,0.1,1-0.4,1.2-0.8c-0.6,0.5-0.8,1.7,0,1.8c0.5,0.1,0.9-0.7,0.6-1.1c-0.3-0.4-1.1-0.3-1.3,0.1c-0.3,0.5-0.1,1.1,0.3,1.4
					c0.2,0.1,0.4,0.2,0.7,0.2c0.3,0,0.5-0.3,0.6-0.5c0.3-0.6,0.1-1.6-0.6-1.8c-0.7-0.3-1.6,0.3-1.5,1.1c0.1,0.7,1.2,1.1,1.6,0.5
					c0.4-0.6-0.3-1.6-1-1.2"/>
			</g>
			<g>
				<path fill="#7C7C7C" d="M197.2,569.8c0.1-0.3-0.1-0.5-0.3-0.7c-0.6,0.5-1,1.1-1.2,1.8c0,0.1-0.1,0.3,0,0.4
					c0.1,0.1,0.1,0.1,0.2,0.1c0.9,0.3,2,0.4,2.9-0.1s1.3-1.7,0.8-2.5c-1,0.6-1.7,1.6-2.1,2.7c0.2-0.5,0.1-1.1-0.3-1.4
					c-0.5,0.3-0.7,1.1-0.3,1.4c0.5,0.4,1.3-0.1,1.3-0.7c0.1-0.6-0.3-1.2-0.7-1.7C197.1,569.2,197,569.6,197.2,569.8"/>
			</g>
			<g>
				<path fill="#7C7C7C" d="M201,557.1c-0.2,0.4-0.5,0.8-0.7,1.3c0.7,0.3,1.5,0.3,2.2,0.1c-0.7-0.4-1.4-0.7-2-1.1"/>
			</g>
			<g>
				<path fill="#7C7C7C" d="M189.7,498.9c-0.4,0.8-0.8,1.7-0.7,2.6c0.1,0.9,0.9,1.8,1.8,1.6c0.4-1.3,0.3-2.7-0.3-3.9"/>
			</g>
			<g>
				<path fill="#7C7C7C" d="M28,486.5c-1,0.3-1.9,1.2-2.2,2.2c0.7,0.6,1.7,0.9,2.6,0.5s1.2-1.7,0.4-2.3c-0.1-0.1-0.3-0.2-0.4-0.2
					c-0.7,0-0.3,1.4-0.8,1.9c0.1-0.6,0-1.2-0.2-1.8c-0.3,0.1-0.5,0.1-0.8,0.2"/>
			</g>
			<path fill="#7C7C7C" d="M30.1,407.4C30.1,407.3,30.1,407.3,30.1,407.4c-0.1-0.3-0.5,0-0.6,0c-0.3,0.2-0.6,0.5-0.6,0.8
				c0,0.1,0,0.2,0,0.4c-0.1,0.3-0.2,0.7-0.1,1c0.2,0.6,1.4-0.4,1.5-1c0,0,0,0,0,0c0-0.3,0.2-0.6,0.2-0.9
				C30.6,407.4,30.3,407.3,30.1,407.4z"/>
			<path fill="#7C7C7C" d="M190.2,413.2C190.2,413.2,190.2,413.2,190.2,413.2c-0.5-0.4-1-0.2-1.4,0.1c-0.2,0.1-0.5,0.3-0.6,0.5
				c-0.3,0.3-0.5,0.7-0.4,1.2c0.1,0.3,0.3,0.3,0.6,0.3c0,0,0,0.1,0,0.1c0,0.4,0.7,0,0.9-0.1c0.3-0.2,0.6-0.5,0.6-0.9c0,0,0,0,0,0
				c0,0,0,0,0,0c0.2-0.2,0.4-0.5,0.5-0.7c0,0,0.1,0,0.1,0c0,0,0.3-0.3,0.3-0.3C190.5,413.2,190.3,413.2,190.2,413.2z"/>
			<path fill="#7C7C7C" d="M208.2,379.2c0.1-0.1,0.1-0.2,0.2-0.3c0.1-0.1,0.3-0.4,0.2-0.6c-0.1-0.2-0.5,0.1-0.6,0.2
				c-0.3,0.2-0.5,0.5-0.7,0.8c-0.1,0-0.1,0.1-0.1,0.1c0,0-0.1,0.1-0.1,0.1c-0.2,0.2-0.3,0.4-0.5,0.6c-0.4,0.6-0.5,1.3-0.4,2
				c0,0.1,0.1,0.1,0.1,0.2c0.1,0.2,0.5,0.1,0.7,0c0.3-0.1,0.5-0.4,0.7-0.6C208.2,381,208.7,380,208.2,379.2z"/>
			<path fill="#7C7C7C" d="M192.1,452.2c-0.2-0.1-0.5-0.1-0.8,0c0,0,0,0-0.1,0c-0.5,0-1,0.5-1.2,0.9c-0.1,0.1-0.1,0.3-0.1,0.4
				c-0.1,0.3-0.2,0.7,0,0.9c0,0,0,0,0,0c0,0.1,0,0.3,0,0.4c0.1,0.6,0.7,0.8,1.2,0.6c0.7-0.3,1.2-1.1,1.4-1.8
				C192.7,453.1,192.6,452.5,192.1,452.2z"/>
			<path fill="#7C7C7C" d="M189.8,462.3c-0.4,0.2-0.9,0.7-0.9,1.2c0,0.2,0,0.3,0,0.5c0,0.5,0.5,0.4,0.8,0.2c0.4-0.2,0.9-0.7,0.9-1.2
				c0-0.2,0-0.3,0-0.5C190.6,462.1,190.1,462.2,189.8,462.3z"/>
			<path fill="#7C7C7C" d="M21.9,385.2c-0.2-0.4-0.7-0.6-1.1-0.6c-0.4,0-0.8,0.2-1.1,0.5c-0.3-0.2-0.9,0.2-1.1,0.4
				c-0.3,0.3-0.6,0.8-0.3,1.2c-0.1,0.2,0,0.3,0.1,0.4c0,0.1,0,0.1-0.1,0.2c-0.1,0.3,0,0.7,0.4,0.6c0.3,0,0.7-0.2,1-0.5
				c0.2,0.1,0.3,0.1,0.5,0.1c0.7,0,1.3-0.4,1.6-0.9C22,386.2,22.2,385.7,21.9,385.2z"/>
			<path fill="#7C7C7C" d="M21.9,319c-0.1,0-0.2,0-0.2,0.1c0.2-0.3,0.3-0.7,0-0.9c-0.4-0.2-1,0.4-1.2,0.7c-0.4,0.5-0.6,1.1-0.5,1.8
				c0.2,0.7,1.2-0.3,1.4-0.5c0,0,0.2-0.2,0.3-0.2c0.2-0.2,0.4-0.4,0.5-0.7C22.1,319.1,22.1,318.9,21.9,319z"/>
			<path fill="#7C7C7C" d="M191.1,367.7c-0.1-0.1-0.2-0.1-0.4-0.1c0-0.1,0.1-0.2,0.1-0.3c0.1-0.3,0-0.6-0.4-0.5
				c-0.3,0.1-0.6,0.3-0.8,0.6c-0.2,0-0.4,0.2-0.6,0.3c-0.4,0.3-0.7,0.7-0.7,1.1c0,0.3,0.1,0.6,0.2,0.8c-0.2,0.4-0.2,0.8-0.2,1.3
				c0,0.2,0.2,0.3,0.4,0.2c0.2,0.1,0.7-0.1,0.9-0.2c1-0.6,1.6-1.7,1.8-2.8C191.5,367.9,191.3,367.7,191.1,367.7z"/>
			<path fill="#7C7C7C" d="M190.6,329.4c-0.3,0-0.7,0.4-0.9,0.6c-0.3,0.4-0.5,0.8-0.7,1.2c0,0,0,0.1-0.1,0.1
				c-0.2,0.5-0.2,0.9-0.1,1.4c0,0,0,0,0,0c0.1,0.3,0.4,0.2,0.7,0.1c0.4-0.2,0.8-0.7,0.9-1.1c0-0.3,0.1-0.8-0.1-1.1
				c0-0.2,0.1-0.4,0.2-0.5C190.8,329.7,190.9,329.4,190.6,329.4z"/>
			<path fill="#7C7C7C" d="M207.9,278c-0.6,0-1.3-0.1-1.9,0.2c-0.4,0.2-0.8,0.5-1,0.9c-0.1,0.2-0.3,0.7,0.1,0.8
				c0.3,0.1,0.5,0.1,0.8,0.1c0.1,0.1,0.2,0.1,0.4,0.1c0.7,0,1.4-0.4,1.7-1C208.3,278.8,208.6,278,207.9,278z"/>
			<path fill="#7C7C7C" d="M29.6,293c-0.6-0.2-1.3,0-1.9,0.5c-0.1-0.1-0.2-0.2-0.5-0.1c-0.9,0.3-1.7,0.8-2.2,1.6
				c-0.4,0.6-0.8,1.6-0.3,2.3c1,1.3,3.5,0.5,4.5-0.3C30.2,296.2,31.5,293.6,29.6,293z"/>
			<path fill="#7C7C7C" d="M18.5,258.3c-0.3-0.2-0.7-0.1-1,0.2c-0.1,0-0.2-0.1-0.3-0.1c0-0.1,0-0.2,0-0.2c-0.7-0.5-1.5,0.3-1.9,0.9
				c-0.1,0.2-0.2,0.6,0.1,0.7c0.7,0.4,1.4,0.9,1.8,1.5c0.2,0.3,0.7,0,0.9-0.1c0.4-0.2,0.7-0.6,0.8-1
				C19.1,259.5,19.1,258.7,18.5,258.3z"/>
			<path fill="#7C7C7C" d="M25,203c-0.5-0.5-1.5,0.5-1.6,1.1c-0.7,0.5-1.4,1-1.6,1.9c-0.2,0.7,0.1,1.6,0.9,1.7
				c0.5,0,1.1-0.2,1.4-0.7c0.6-0.3,1-0.8,1.3-1.4C25.9,204.8,25.7,203.8,25,203z"/>
			<path fill="#7C7C7C" d="M14.4,195.2c0,0,0.1-0.1,0.1-0.1c0.1-0.1,0.5-0.4,0.5-0.6c0-0.2-0.1-0.2-0.3-0.1
				c-0.4,0.2-0.8,0.5-1.1,0.8c-0.4,0.2-0.8,0.6-1,1c0,0,0,0,0,0.1c0,0.1,0,0.2,0,0.3c-0.1,0.1-0.1,0.3-0.2,0.4
				c-0.1,0.2,0,0.5,0.3,0.5c0.8-0.1,1.6-0.6,1.9-1.3C14.7,195.9,14.7,195.4,14.4,195.2z"/>
			<path fill="#7C7C7C" d="M18.3,226.9c-0.1-0.1-0.2-0.1-0.3-0.1c-0.1-0.2-0.6,0.1-0.7,0.2c-0.1,0.1-0.2,0.2-0.3,0.3
				c0,0-0.1,0-0.1,0c-0.1-0.1-0.1-0.1-0.2-0.2c-0.4-0.3-1,0.4-1,0.8c-0.2,0.2-0.3,0.4-0.2,0.6c0.2,0.7,0.8,1.3,1.6,1.5
				c0.3,0.1,0.6-0.2,0.8-0.4c0.3,0,0.7-0.6,0.8-0.8C18.7,228.2,18.7,227.4,18.3,226.9z"/>
			<path fill="#7C7C7C" d="M191.9,210.5c0-0.1,0-0.2,0-0.4c0-0.2-0.3,0-0.4,0c-0.2,0.1-0.4,0.3-0.6,0.6c0,0,0,0.1-0.1,0.1
				c-0.3,0.3-0.5,0.6-0.6,1.1c0,0.3,0,0.7,0.1,1c0,0,0,0,0,0c0.1,0.3,0.4,0.2,0.7,0.1c0.4-0.2,0.8-0.7,0.9-1.1
				C192.1,211.4,192.3,210.8,191.9,210.5z"/>
			<path fill="#7C7C7C" d="M27,126.9c-0.2-0.1-0.3-0.2-0.5-0.2c0,0,0,0,0-0.1c0.1-0.1,0.2-0.3,0.2-0.4c0.1-0.3-0.1-0.4-0.4-0.3
				c-0.5,0.2-0.9,0.4-1.3,0.7c-0.3,0.1-0.6,0.2-0.9,0.4c-0.7,0.2-1.4,0.8-1.7,1.4c-0.1,0.2-0.2,0.6,0,0.8c-0.2,0.3-0.4,0.6-0.5,0.9
				c-0.3,0.5,0,1,0.5,0.8c0.1,0.1,0.3,0.2,0.4,0.2c0.6-0.1,1.1-0.3,1.6-0.6c0.8,0.2,1.7,0.1,2.4-0.4C28.1,129.1,28.3,127.7,27,126.9
				z"/>
			<path fill="#7C7C7C" d="M19.2,153.6c-0.3,0-0.5,0.1-0.7,0.1c0-0.2,0-0.4,0-0.7c0-0.3-0.2-0.5-0.5-0.5c-0.2-0.2-0.8,0.1-1,0.3
				c-1,1-1.7,3.1-1,4.4c0.9,1.6,2.8,0.8,3.6-0.4C20.4,156,21.2,153.6,19.2,153.6z"/>
			<path fill="#7C7C7C" d="M14.5,116.9C14.5,116.9,14.5,116.9,14.5,116.9c0-0.6-0.1-1.1-0.5-1.6c-0.1-0.1-0.1-0.1-0.2-0.1
				c0-0.1-0.1-0.2-0.4-0.2c-0.4,0.1-0.7,0.5-0.9,0.8c-0.6,0.9-1.3,2.2-0.8,3.3c0.5,1.1,1.7,0.9,2.5,0.3
				C14.8,118.9,15.7,117.4,14.5,116.9z"/>
			<path fill="#7C7C7C" d="M13.3,85c-0.4-0.4-0.9,0-1.3,0.4c-0.3-0.3-0.6-0.6-0.9-1c-0.6-0.7-2.2,1-1.7,1.7c0.1,0.2,0.3,0.3,0.4,0.5
				c-0.1,0.1-0.1,0.2-0.2,0.3c0,0.1-0.1,0.3-0.1,0.4c-0.3,0.4-0.5,0.8-0.1,1c1.1,0.5,2.4,0.5,3.5,0.2c0.5-0.2,1.2-0.8,1.2-1.4
				C14.1,86.3,13.8,85.6,13.3,85z"/>
			<path fill="#7C7C7C" d="M9.1,53.9C9.1,53.9,9.1,53.8,9.1,53.9c0-0.2-0.1-0.4-0.1-0.5c0-0.2,0-0.5-0.1-0.7c0-0.2,0-0.4-0.1-0.5
				c-0.1-0.1-0.2-0.2-0.3-0.3c-0.1-0.2-0.7,0.5-0.7,0.6c-0.1,0.2-0.2,0.4-0.2,0.6c0,0,0,0,0,0c-0.2,0.1-0.3,0.3-0.4,0.4
				c-0.2,0.2-0.7,0.9-0.3,1.1c0.2,0.1,0.4,0.3,0.4,0.5C7.7,56,9.3,54.7,9.1,53.9z"/>
			<path fill="#7C7C7C" d="M192.3,182.4c0,0-0.1,0-0.1,0c-0.2-0.4-1,0.3-1.2,0.5c-0.2,0.3-0.3,0.5-0.4,0.8c-0.2,0.4-0.3,0.9-0.2,1.3
				c0.1,0.4,0.6,0.1,0.8,0c0.4-0.2,0.6-0.6,0.7-1c0.1-0.3,0.2-0.7,0.3-1c0-0.1,0.1-0.1,0.1-0.2C192.5,182.6,192.6,182.4,192.3,182.4
				z"/>
			<path fill="#7C7C7C" d="M193.8,146.6c0.1-1.2-1.2-1.6-2.1-1.2c0-0.2,0-0.4-0.1-0.7c-0.1-0.4-0.7-0.1-0.9,0
				c-0.4,0.2-0.8,0.7-0.8,1.2c0,0.1,0,0.2,0,0.3c-0.1,0.3-0.2,0.5-0.3,0.8c-0.1,0.3-0.3,0.7-0.3,1c0,0.4,0.3,0.6,0.7,0.7
				c0,0,0,0,0,0.1c0.2,0.5,0.7,0.3,1.2-0.1C192.3,148.3,193.7,147.8,193.8,146.6z"/>
			<path fill="#7C7C7C" d="M193.1,121.1c-0.5-0.2-0.9-0.1-1.3,0.1c0-0.1-0.1-0.1-0.1-0.2c-0.2-0.6-1.2,0.6-1.3,0.8
				c-0.5,1.1-0.3,2.4,0.5,3.3c0.4,0.4,1.2-0.4,1.4-0.6c0.7-0.9,1.1-1.9,1.1-3C193.4,121.4,193.3,121.2,193.1,121.1z"/>
			<path fill="#7C7C7C" d="M205.7,47.5c-0.3-0.2-0.6-0.1-0.8,0c-0.1,0-0.3,0.1-0.4,0.1c-0.2-0.2-0.6-0.3-0.9-0.1
				c-0.7,0.3-1.4,1.1-1.3,1.9c0.1,0.8,0.8,1.1,1.5,0.9c0.3-0.1,0.6-0.3,0.8-0.5c0.1,0,0.2-0.1,0.3-0.1
				C205.3,49.4,206.5,48.1,205.7,47.5z"/>
			<path fill="#7C7C7C" d="M208.2,26.5c0-0.1,0-0.1,0-0.2c-0.1-0.2-0.4-0.1-0.5,0c-1.2,0.6-2.1,2.4-1,3.5c0.5,0.5,1.4-0.6,1.6-1
				c0.2-0.6,0.3-1.1,0.5-1.7C208.9,26.6,208.7,26.3,208.2,26.5z"/>
			<path fill="#7C7C7C" d="M210.4,12.2c-0.2,0.1-0.5,0.2-0.7,0.3c-0.1,0-0.1,0-0.2,0c-0.6,0-1.2,0.7-1.4,1.2
				c-0.1,0.3-0.1,0.7-0.1,1.1c-0.1,0.4,0,0.9,0.2,1.3c0,0,0,0,0,0c0,0,0,0,0,0c0,0,0.1,0.1,0.1,0.1c0.2,0.4,0.9-0.1,1.1-0.3
				c0.3-0.3,0.7-0.7,0.6-1.2c-0.1-0.4-0.1-0.8-0.1-1.3c0.3-0.2,0.5-0.4,0.7-0.7C210.7,12.5,210.8,12.1,210.4,12.2z"/>
			<path fill="#7C7C7C" d="M208.4,49.8c-0.1-0.4-0.7-0.3-1-0.1c-0.2,0.1-0.3,0.2-0.4,0.4c-0.4,0.2-0.8,0.7-0.9,1.1
				c-0.1,0.6,0.5,0.6,0.9,0.5c0.4-0.2,0.7-0.5,0.9-0.9c0-0.1,0-0.1,0.1-0.2C208.3,50.3,208.5,50,208.4,49.8z"/>
			<path fill="#7C7C7C" d="M9.3,36.4c0.2-0.2,0.3-0.5,0.2-0.6c-0.4-0.4-0.9-0.5-1.3-0.5c-0.2-0.6-1.1,0.1-1.5,0.7
				c-0.9,0.7-1.6,1.8-2,2.5c-0.1,0.2-0.3,0.8,0.1,0.8c1.2,0.2,2.3,0.3,3.5,0.5c0.7,0.1,1.7-0.7,1.6-1.4C9.9,37.6,9.7,37,9.3,36.4z"
				/>
			<path fill="#7C7C7C" d="M7.8,26.5C7.2,26,6.4,26.3,5.9,27c-0.1,0.1-0.1,0.1-0.2,0.2c0,0.1-0.3,0.5-0.3,0.6c0,0,0,0.1,0,0.1
				c-0.1,0.1-0.1,0.5-0.1,0.5c0,0,0,0,0,0c0,0.1,0,0.1,0,0.2c0.1,0.4,0.6,0.2,0.8,0.1c0.4-0.2,0.8-0.6,0.9-1c0,0,0-0.1,0-0.1
				C7.5,27.3,8.1,26.6,7.8,26.5z"/>
			<g>
				<path fill="#7C7C7C" d="M135.5,572.8c-0.9,0.6-1.5,1.4-1.9,2.4c1-0.6,1.8-1.5,2.1-2.7c-0.2,0.5-0.3,1-0.2,1.5
					c0-0.7-0.1-1.3-0.1-2c-1,0.3-1.9,1-2.5,1.8c0.9,0.3,1.9,0.2,2.8-0.2"/>
			</g>
			<g>
				<path fill="#7C7C7C" d="M99.5,561.9c-0.4-0.2-0.9,0.4-0.7,0.8c0.2,0.4,0.9,0.4,1.1,0.1c0.3-0.4,0.1-1-0.4-1.1
					c-0.1,0.4-0.1,0.8,0,1.2c0.5-0.7,0.7-1.5,0.6-2.3"/>
			</g>
			<g>
				<path fill="#7C7C7C" d="M108.8,582.4c0.4-0.1,0.7,0.5,0.5,0.9c-0.3,0.3-0.9,0.1-0.9-0.3c0.3-0.2,0.6-0.5,0.7-0.9
					c-0.3-0.4-1-0.4-1.3,0.1c-0.2,0.5,0.2,1.1,0.7,1"/>
			</g>
			<g>
				<path fill="#7C7C7C" d="M153.1,574.5c-0.4,0-0.7,0-1.1,0c0.3,0.4,0.8-0.5,0.3-0.5"/>
			</g>
			<g>
				<path fill="#7C7C7C" d="M185.1,584.5c-0.4,0-0.8,0.5-0.6,0.9C184.9,585.4,185.2,584.9,185.1,584.5"/>
			</g>
			<g>
				<path fill="#7C7C7C" d="M59.8,570.9c-0.4,0.2-0.6,0.8-0.4,1.2c0.1-0.4-0.6-0.6-0.7-0.3c0,0.2,0.5-0.1,0.3-0.3s-0.5-0.1-0.7-0.1
					c0.7,0.2,1.4-0.1,1.8-0.7"/>
			</g>
			<g>
				<path fill="#7C7C7C" d="M66,557.6c-0.6-0.2-1.2-0.4-1.8-0.6c0.3-0.4,0.9-0.6,1.4-0.3"/>
			</g>
			<g>
				<path fill="#7C7C7C" d="M46.1,557.7c-1-0.1-1.9,0.3-2.5,1.1c0.3-0.2,0.6-0.5,0.9-0.7"/>
			</g>
			<g>
				<path fill="#7C7C7C" d="M28.5,515.8c-0.2,0.2-0.4,0.6-0.3,0.9c0.3,0,0.6,0.1,0.8,0.1c-0.2-0.3-0.6-0.4-0.9-0.2
					c0.1-0.4,0-0.9-0.3-1.1"/>
			</g>
			<g>
				<path fill="#7C7C7C" d="M30.5,507.5c-0.3,0.8,0.5,1.7,1.3,1.6c0.1-0.4-0.5-0.7-0.8-0.5c-0.4,0.2-0.5,0.6-0.7,1.1
					c0.2-0.5,0.2-1.1,0-1.6"/>
			</g>
			<g>
				<path fill="#7C7C7C" d="M20.3,517.4c0,0.3,0.3,0.7,0.6,0.6c0.3-0.1,0.1-0.8-0.2-0.6"/>
			</g>
			<g>
				<path fill="#7C7C7C" d="M31.8,336.1c0,0.3-0.1,0.7,0.2,0.9c0.2,0.2,0.7,0.1,0.7-0.2"/>
			</g>
			<g>
				<path fill="#7C7C7C" d="M208.1,289.5c-0.1,0.2-0.3,0.4-0.4,0.6"/>
			</g>
			<g>
				<path fill="#7C7C7C" d="M191.1,189.1c-0.1,0.2-0.4-0.1-0.3-0.3"/>
			</g>
			<g>
				<path fill="#7C7C7C" d="M189.1,337.5c-0.5,0-0.9,0.6-0.7,1c0.4,0.3,1.1,0.1,1.3-0.4c-0.2,0-0.4,0.2-0.4,0.4
					c0.1,0.2,0.4,0.3,0.6,0.1c0.4-0.2,0.5-0.8,0.2-1.2"/>
			</g>
			<g>
				<path fill="#7C7C7C" d="M14.8,347.5c-0.4-0.1-0.8,0.3-0.7,0.7c0.3,0.4,1-0.2,0.7-0.6c-0.3-0.2-0.7,0-0.7,0.3
					c0.4,0.2,0.4-0.7,0-0.7s-0.7,0.4-0.8,0.8c0.3,0.5,1.1,0.3,1.2-0.2c-0.2-0.2-0.6-0.4-0.9-0.3c-0.2,0.4-0.2,0.9-0.1,1.4
					c0.3-0.1,0.6-0.2,1-0.3"/>
			</g>
			<g>
				<path fill="#7C7C7C" d="M206.5,69.2c-0.7,1-0.9,2.3-0.4,3.4c0.4-1,0.5-2.1,0.3-3.1c-0.5,0.1-0.8,0.7-0.5,1.1
					c0.3-0.3,0.2-0.9-0.1-1.1c-0.5,0.2-1,0.5-1.2,0.9c-0.2,0.4,0,1.1,0.5,1.2c0.7,0.1,0.9-1,0.7-1.8c-0.3,0.1-0.6,0.3-0.7,0.6
					s0.1,0.7,0.4,0.6"/>
			</g>
			<g>
				<path fill="none" d="M201.3,548c-0.6,0.6-0.3,1.8,0.5,2.1c0.8,0.3,1.8-0.3,1.8-1.1c0-0.4-0.2-0.8-0.5-1
					c-0.3-0.2-0.8-0.2-1.1,0.1c-0.3,0.3-0.2,0.8,0.1,1"/>
			</g>
			<g>
				<path fill="none" d="M201,557.5c0,0.3,0,0.5,0.1,0.8c0.4,0.3,0.9,0.2,1.2-0.2s0.1-0.9-0.3-1.1S201,557,201,557.5
					c-0.2,0.4,0.2,0.8,0.6,0.8"/>
			</g>
			<g>
				<path fill="none" d="M198,570.5c0.6,0,1-0.7,1.2-1.2c0-0.1,0.1-0.2,0-0.2c0-0.1-0.2-0.2-0.4-0.2c-0.4,0-0.8,0.1-1.1,0.3
					c-0.3,0.3-0.4,0.8-0.1,1.1c0.3,0.3,0.9,0.1,0.9-0.3c0-0.2-0.1-0.5,0.1-0.6"/>
			</g>
		</g>
	</g>
	<g id="bsfm_x5F_nose_x5F_side_1_" display="none">
		<path display="inline" fill="#1FA6AA" d="M276.9,93.1c-3.1-2.3-5.9-5.1-8.7-7.8c-7.4-7.2-14.5-14.8-21.4-22.5
			c-3.2-3.5-6.5-7.1-9.7-10.7c-1.3-1.4-2.7-3.9-4.3-4.9c-2.2-1.4-6.7-6.1-8.8-7.7c-4.4-3.4-8.7-10.4-12.8-10.7
			c-0.2,0-0.1,13.6-0.3,13.9c-0.3,0.2-0.6,0.5-0.6,0.7c-0.3,14.7-0.6,29.3-0.7,44c0,2.9-0.5,6.2,0.1,9c0.4,1.9,0.1,1.6,2.4,2
			c8.5,1.2,17.4,1,26,0.9c10-0.1,20-0.4,29.9-1.2c1.6-0.1,7.9,0.1,10.4-1.5c0.5-0.3,0.8-0.6,0.9-1.1
			C279.7,94.2,277.9,93.9,276.9,93.1z"/>
	</g>
	<g id="bsfm_x5F_nose_x5F_side_copy">
	</g>
	<g id="white_x5F_hose_1_">
	</g>
	<g id="diffuser_1_">
		<g>
			<path fill="#788289" d="M32.5,87.1c-0.7-0.5-3.1,0-3.9,0c0,0,0.1-0.1,0.1-0.2C28.6,87,28.5,87,28.5,87
				c-2.1-13.3-1.5-26.9-3.5-40.2c-1.3-8.5-2.1-19.7-3.5-28.1c-0.5-3.1-1-6.3-1.5-9.4c-0.3-1.7-0.6-6.5-0.6-6.4c0,0-4.9,0-4.9,0.2
				C15,8.7,16,15,16.9,20.7c2.4,17,2.8,37,5.5,54c0.9,5.5,1.7,11.1,2.6,16.6c0.1,0.8,0.1,2.1,0.6,2.5c0.8,0.6,4.6,0,5.6,0
				c0.7,0,1.4,0,2.1,0C33.3,91.4,33.2,87.6,32.5,87.1z"/>
			<path fill="#788289" d="M39.9,87.2c0.1,2.1,0.3,4.2,0.5,6.4c2.6,0,5.2,0,7.8,0c-0.2-2.1-0.4-4.2-0.6-6.4
				C45,87.2,42.5,87.2,39.9,87.2z"/>
			<path fill="#788289" d="M53.8,87.3c0.1,2.1,0.4,4.2,0.6,6.4c3.2,0,6.5,0,9.7,0c-0.1-2.1-0.2-4.2-0.2-6.4
				C60.5,87.3,57.1,87.3,53.8,87.3z"/>
			<path fill="#788289" d="M78.7,87.2c-0.3-0.3-2.4,0-2.9,0c-1.7,0-3.5,0-5.2,0c0.1,1.1,0.2,2.3,0.3,3.4c0.1,0.6,0.1,3,0.4,3.2
				c0.6,0.3,2.4,0,3.1,0c1.6,0,3.3,0,4.9,0c-0.1-1-0.3-2-0.4-3C78.9,90.2,79,87.4,78.7,87.2z"/>
			<path fill="#788289" d="M88,87.3c0,2.1,0,4.2,0.1,6.4c2,0,4.1,0,6.1,0c-0.1-2.1-0.2-4.2-0.3-6.4C91.9,87.3,89.9,87.3,88,87.3z"/>
			<path fill="#788289" d="M107,88.4c0-0.9,0.2-1-0.3-1.2c-0.3-0.1-0.8,0-1.2,0c-1.2,0-2.3,0-3.5,0c0.1,1.8,0.2,3.7,0.1,5.5
				c0,0.1-0.1,1.2,0,1.2c0.1,0,0.2,0,0.3,0c0.3,0.1,0.8,0,1.1,0c1.2,0,2.3,0,3.5,0C107,92.1,106.9,90.2,107,88.4z"/>
			<path fill="#788289" d="M119.9,88.4c0-0.1,0.1-1.2,0-1.2c-0.1,0-0.2,0-0.3,0c-0.3-0.1-0.8,0-1.2,0c-1.2,0-2.3,0-3.5,0
				c0.1,1.8,0.2,3.7,0.1,5.5c0,0.1-0.1,1.2-0.1,1.2c0.1,0,0.2,0,0.3,0c0.3,0.1,0.8,0,1.1,0c1.2,0,2.3,0,3.5,0
				C120,92.1,119.9,90.2,119.9,88.4z"/>
			<path fill="#788289" d="M133.9,87.8c-0.1-0.9,0.1-0.4-0.5-0.5c-0.4-0.1-1.1,0-1.5,0c-1.4,0-2.8,0-4.2,0c0.1,1.9,0.4,3.7,0.4,5.6
				c0,1-0.2,0.9,0.4,1.1c0.4,0.1,1,0,1.4,0c1.4,0,2.8,0,4.2,0C134.1,91.9,134.1,89.8,133.9,87.8z"/>
			<path fill="#788289" d="M148.9,91c0-0.6,0-1.2,0-1.7c0,0,0.1-1.9,0.3-1.9c-0.4-0.2-2.1,0-2.5,0c-1.6,0-3.3,0-4.9,0
				c-0.1,1.2-0.1,2.4-0.1,3.6c0,0.3,0,2.9-0.2,3c0.5,0.3,2.2,0,2.7,0c1.6,0,3.1,0,4.7,0C149,92.9,148.9,91.9,148.9,91z"/>
			<path fill="#788289" d="M159.2,87.3c-1.2,0-2.4,0-3.5,0c-0.1,1.6-0.2,3.2-0.3,4.9c0,0.4,0,0.9-0.1,1.3c0,0.2-0.1,0.4-0.1,0.5
				c0.2,0,0.7,0,0.8,0c1,0,2.1,0,3.1,0C159,91.7,159,89.5,159.2,87.3z"/>
			<path fill="#788289" d="M169.9,89.1c0-0.5,0.2-1.6-0.1-1.8c-0.2-0.1-0.7,0-0.9,0c-1,0-2,0-3.1,0c0,1.6,0,3.2,0.1,4.9
				c0,0.5-0.2,1.6,0.1,1.8c0.2,0.1,0.7,0,0.9,0c1,0,2,0,3.1,0C170,92.3,170,90.7,169.9,89.1z"/>
			<path fill="#788289" d="M187.2,85.9c-0.1,0.6-1,1.4-1.6,1.4c-3.1,0-6.1,0-9.2,0c0.1,1.7,0.2,3.5,0.5,5.1c0.1,0.7,0.1,1.1,0.1,1.3
				c0.1,0,0.3,0,0.7,0.2c1.2,0.6,4.1,0,5.4,0c2.9,0,5.9,0,8.8,0c0.3-3.4,0.7-6.8,1-10.3c2.6-26.7,2.2-53.3,4.8-80
				c-1.6,0-3.2,0-4.8,0.1C189.9,31.2,190.1,58.5,187.2,85.9z"/>
			<path fill="none" stroke="#000000" stroke-width="0" stroke-linecap="round" stroke-linejoin="round" d="M199.5,2
				C199.6,2,199.6,2,199.5,2"/>
			<path d="M199.6,2C199.6,2,199.6,2,199.6,2c-0.1-0.1-0.2-0.2-0.3-0.2c-2.2,0-4.4,0-6.7,0.1c-0.6,0-1.6,0.8-1.6,1.4
				c-2.9,27.4-2.8,54.8-5.6,82.2c-3,0-6.1,0-9.1,0c-0.1,0-0.2,0-0.4,0c-0.6,0-1.7,0.9-1.6,1.6c0.3,2.8,0.6,5.6,0.7,8.4
				c0,0.2,0.2,0.2,0.4,0.2c5.6,0,11.2,0,16.7,0c0.6,0,1.6-0.8,1.6-1.4c0-0.1,0-0.3,0-0.4c2.6-26.7,2.2-53.4,4.8-80
				c0.4-3.9,0.8-7.8,1.1-11.7C199.6,2.2,199.6,2.1,199.6,2z M192.8,83.7c-0.3,3.4-0.7,6.8-1,10.3c-2.9,0-5.9,0-8.8,0
				c-1.2,0-4.2,0.6-5.4,0c-0.3-0.2-0.5-0.2-0.7-0.2c0-0.3,0-0.7-0.1-1.3c-0.3-1.7-0.3-3.4-0.5-5.1c3.1,0,6.1,0,9.2,0
				c0.6,0,1.6-0.8,1.6-1.4c2.9-27.4,2.7-54.8,5.6-82.2c1.6,0,3.2,0,4.8-0.1C195,30.4,195.4,57.1,192.8,83.7z"/>
			<path d="M171.7,85.5c-2,0-4,0-6,0c-0.2,0-0.5,0.2-0.7,0.4c0,0,0,0,0,0c-0.5,0.3-1,0.8-1,1.2c0,2.8,0.1,5.6,0.1,8.4
				c0,0.1,0.1,0.1,0.1,0.2c2,0,4,0,6,0c0.6,0,1.8-0.9,1.8-1.6c0-0.1,0-0.1,0-0.2c0-2.8-0.1-5.5-0.1-8.3
				C171.9,85.6,171.8,85.6,171.7,85.5z M166,94c-0.3-0.2-0.1-1.2-0.1-1.8c0-1.6,0-3.2-0.1-4.9c1,0,2,0,3.1,0c0.2,0,0.7-0.1,0.9,0
				c0.3,0.2,0.1,1.3,0.1,1.8c0,1.6,0,3.2,0.1,4.9c-1,0-2,0-3.1,0C166.7,94,166.2,94.1,166,94z"/>
			<path d="M161.1,85.6c0-0.1-0.1-0.1-0.2-0.1c-1.8,0-3.6,0-5.4,0c-0.7,0-1.6,1-1.6,1.6c-0.1,2.8-0.3,5.6-0.5,8.4
				c0,0.2,0.2,0.2,0.4,0.2c1.8,0,3.7,0,5.5,0c0.1,0,0.2,0,0.3,0c0.6,0,1.7-1,1.6-1.6c-0.1-2.8-0.2-5.5,0.1-8.3
				C161.2,85.7,161.2,85.6,161.1,85.6z M156,93.9c-0.1,0-0.6,0.1-0.8,0c0-0.1,0.1-0.3,0.1-0.5c0.1-0.4,0.1-0.9,0.1-1.3
				c0.1-1.6,0.2-3.2,0.3-4.9c1.2,0,2.4,0,3.5,0c-0.2,2.2-0.2,4.4-0.1,6.6C158.1,93.9,157,93.9,156,93.9z"/>
			<path d="M150.5,85.5c-3,0-5.9,0-8.9,0c-0.2,0-0.6,0.2-0.9,0.6c0,0,0,0,0,0c0,0,0,0,0,0c-0.3,0.3-0.6,0.6-0.6,0.8
				c-0.3,2.9-0.3,5.7-0.2,8.6c0,0.2,0.2,0.2,0.4,0.2c2.9,0,5.9,0,8.8,0c0.1,0,0.2,0,0.4,0c0.7,0,1.6-0.9,1.6-1.6
				c0-2.8-0.1-5.6-0.1-8.4C150.9,85.5,150.6,85.5,150.5,85.5z M144.3,93.9c-0.5,0-2.2,0.3-2.7,0c0.2,0,0.2-2.7,0.2-3
				c0-1.2,0-2.4,0.1-3.6c1.6,0,3.3,0,4.9,0c0.4,0,2.1-0.3,2.5,0c-0.2,0-0.3,1.9-0.3,1.9c0,0.6,0,1.2,0,1.7c0,1,0,2,0,2.9
				C147.4,93.9,145.8,93.9,144.3,93.9z"/>
			<path d="M135.7,85.5c-2.7,0-5.4,0-8.1,0c-0.4,0-0.9,0.6-1.2,0.9c0,0,0,0,0,0c0,0,0,0,0,0c-0.3,0.2-0.5,0.5-0.5,0.7
				c-0.2,2.8,0.4,5.6,0.4,8.4c0,0.1,0,0.1,0.1,0.1c2.6,0,5.2,0,7.8,0c0.4,0,1.8-1.1,1.8-1.6c0,0,0-0.1,0-0.1
				C135.9,91.2,135.9,88.4,135.7,85.5C135.8,85.5,135.8,85.5,135.7,85.5z M128.4,93.9c-0.6-0.2-0.4-0.1-0.4-1.1
				c0-1.9-0.3-3.7-0.4-5.6c1.4,0,2.8,0,4.2,0c0.4,0,1.1-0.1,1.5,0c0.7,0.2,0.4-0.4,0.5,0.5c0.2,2,0.1,4.1,0.1,6.2
				c-1.4,0-2.8,0-4.2,0C129.5,93.9,128.8,94.1,128.4,93.9z"/>
			<path d="M121.7,85.5c-2.3,0-4.6,0-6.9,0c-0.2,0-0.5,0.2-0.8,0.5c0,0,0,0,0,0c-0.5,0.3-1,0.8-1,1.1c0.2,2.8,0.3,5.6,0.2,8.4
				c0,0.1,0,0.1,0.1,0.1c2.3,0,4.6,0,6.9,0c0.5,0,1.8-1.1,1.8-1.6c0,0,0-0.1,0-0.1c0-2.8-0.1-5.5-0.1-8.3
				C121.8,85.5,121.8,85.5,121.7,85.5z M116.5,93.9c-0.3,0-0.8,0.1-1.1,0c-0.1,0-0.2,0-0.3,0c-0.1,0,0.1-1.2,0.1-1.2
				c0.1-1.8,0-3.7-0.1-5.5c1.2,0,2.3,0,3.5,0c0.3,0,0.8-0.1,1.2,0c0.1,0,0.2,0,0.3,0c0.1,0,0,1.2,0,1.2c0,1.8,0,3.7,0.1,5.5
				C118.8,93.9,117.7,93.9,116.5,93.9z"/>
			<path d="M108.7,85.5c-2.3,0-4.6,0-6.9,0c-0.2,0-0.6,0.3-0.9,0.6c-0.5,0.3-0.9,0.7-0.9,1c0.1,2.8,0.3,5.6,0.2,8.4
				c0,0.1,0,0.1,0.1,0.1c2.3,0,4.6,0,6.8,0c0.4,0,1.8-1.2,1.8-1.6c0,0,0-0.1,0-0.1C108.9,91.1,108.9,88.4,108.7,85.5
				C108.8,85.5,108.8,85.5,108.7,85.5z M103.5,93.9c-0.3,0-0.8,0.1-1.1,0c-0.1,0-0.2,0-0.3,0c-0.1,0,0-1.2,0-1.2
				c0.1-1.8,0-3.7-0.1-5.5c1.2,0,2.3,0,3.5,0c0.3,0,0.8-0.1,1.2,0c0.6,0.2,0.3,0.3,0.3,1.2c0,1.8,0,3.7,0.1,5.5
				C105.8,93.9,104.7,93.9,103.5,93.9z"/>
			<path d="M96,85.9c0-0.3-0.2-0.6-0.5-0.6c-2.7,0-5.3,0-8,0c-0.1,0-0.1,0-0.2,0c0,0,0,0,0,0c-0.6,0.2-1.3,0.8-1.3,1.4
				c0,2.8,0.1,5.6,0.1,8.4c0,0.3,0.2,0.6,0.5,0.6c2.8,0,5.5,0,8.3,0c0.7,0,1.7-0.7,1.6-1.4c0-0.2,0-0.4,0-0.6
				C96.1,91.1,96,88.5,96,85.9z M88,93.7c0-2.1,0-4.3-0.1-6.4c2,0,3.9,0,5.9,0c0.1,2.1,0.1,4.2,0.3,6.4C92.1,93.7,90.1,93.7,88,93.7
				z"/>
			<path d="M80.6,85.6c0-0.1,0-0.1-0.1-0.1c-3.3,0-6.7,0-10,0c-0.2,0-0.5,0.2-0.8,0.5c0,0,0,0,0,0c-0.5,0.3-1,0.8-1,1.1
				c0.1,2.8,0.4,5.6,0.7,8.4c0,0.1,0,0.1,0.1,0.1c3.4,0,6.7,0,10.1,0c0.5,0,1.9-1.1,1.8-1.6c0,0,0-0.1,0-0.1
				C81,91.1,80.7,88.3,80.6,85.6z M74.4,93.8c-0.7,0-2.5,0.3-3.1,0c-0.4-0.2-0.3-2.7-0.4-3.2c-0.1-1.1-0.2-2.3-0.3-3.4
				c1.7,0,3.5,0,5.2,0c0.4,0,2.5-0.3,2.9,0c0.3,0.3,0.2,3.1,0.2,3.7c0.1,1,0.2,2,0.4,3C77.7,93.8,76,93.8,74.4,93.8z"/>
			<path d="M66,85.9c0-0.3-0.2-0.6-0.5-0.6c-4.1,0-8.2,0-12.3,0c-0.1,0-0.2,0-0.3,0c-0.6,0.2-1.4,0.8-1.3,1.4c0,0.1,0,0.1,0,0.2
				c0.1,2.7,0.4,5.5,0.7,8.2c0,0.3,0.2,0.6,0.5,0.6c4,0,7.9,0,11.8,0c0.7,0,1.7-0.6,1.6-1.4c0-0.2,0-0.4,0-0.6
				C66.1,91,66,88.4,66,85.9z M54.4,93.6c-0.2-2.1-0.5-4.2-0.6-6.4c3.4,0,6.7,0,10.1,0c0,2.1,0.1,4.2,0.2,6.4
				C60.8,93.6,57.6,93.6,54.4,93.6z"/>
			<path d="M49.7,85.8c0-0.3-0.2-0.6-0.5-0.6c-3.3,0-6.6,0-9.9,0c-0.1,0-0.1,0-0.2,0c-0.6,0.1-1.5,0.8-1.4,1.4c0,0.1,0,0.1,0,0.2
				c0.1,2.7,0.4,5.5,0.6,8.2c0,0.3,0.2,0.6,0.5,0.6c3.3,0,6.7,0,10,0c0.7,0,1.7-0.7,1.6-1.4c0-0.2,0-0.4-0.1-0.6
				C50.1,91,49.8,88.4,49.7,85.8z M40.4,93.6c-0.2-2.1-0.4-4.2-0.5-6.4c2.6,0,5.2,0,7.7,0c0.1,2.1,0.3,4.2,0.6,6.4
				C45.6,93.6,43,93.6,40.4,93.6z"/>
			<path d="M34.5,85.4c-1.4,0-2.7,0-4.1,0c-4.3-27.2-5.3-56.4-9.6-83.7c0,0-0.1-0.1-0.1-0.1c-2.8,0.2-7.6,0-8.6,0.3
				c0.1,0.5,2.2,14.7,3,20.6c2.7,18.6,3.2,40,6.1,58.6c0.7,4.8,1.5,9.6,2.2,14.3c0,0,0.1,0,0.1,0c3.3,0,6.6,0,9.8,0c0,0,0,0,0.1,0
				c0.4,0,1.8-1.2,1.8-1.7C34.9,91,34.7,88.2,34.5,85.4C34.6,85.4,34.5,85.4,34.5,85.4z M25.5,93.7C25,93.3,25,92,24.9,91.3
				c-0.9-5.5-1.7-11.1-2.6-16.6c-2.6-17-3-37-5.5-54C16,15,15.1,9.3,14.6,3.6c0-0.2,0-0.2,0-0.6c1.8-0.1,4.8-0.1,4.8-0.1
				c0.2,1.7,0.4,4.7,0.7,6.4c0.5,3.1,1,6.3,1.5,9.4c1.3,8.5,2.2,19.7,3.5,28.1c2.1,13.3,1.5,26.9,3.5,40.2c0,0,0.1-0.1,0.2-0.2
				c-0.1,0.1-0.1,0.2-0.1,0.2c0.9,0,3.3-0.5,3.9,0c0.7,0.5,0.8,4.4,0.8,6.7c-0.7,0-1.4,0-2.1,0C30.2,93.7,26.4,94.4,25.5,93.7z"/>
		</g>
	</g>
	<g id="Lid_1_">
	</g>
</g>
<g id="BSFM">
	<g id="body_x5F_back">
		<g id="gravel_1_">
		</g>
	</g>
	<g id="water" opacity="0.7">
	</g>
	<g id="sand">
	</g>
	<g id="gravel_x5F_top">
	</g>
	<g id="gravel_x5F_bottom">
		<g id="Layer_11">
		</g>
	</g>
	<g id="concrete_x5F_body">
		<g id="gravel">
		</g>
	</g>
	<g id="bsfm_x5F_nose_x5F_side">
	</g>
	<g id="eye">
	</g>
	<g id="white_x5F_hose">
	</g>
	<g id="diffuser">
	</g>
	<g id="Lid">
	</g>
</g>
<g id="Layer_20">
	<g id="water_x5F_LowLevel">
	</g>
	<g id="water_x5F_highLevel">
	</g>
	<g id="body">
	</g>
	<g id="lid">
	</g>
</g>
</svg>
