<?xml version="1.0" encoding="utf-8"?>
<!-- Generator: Adobe Illustrator 18.1.1, SVG Export Plug-In . SVG Version: 6.00 Build 0)  -->
<!DOCTYPE svg PUBLIC "-//W3C//DTD SVG 1.1//EN" "http://www.w3.org/Graphics/SVG/1.1/DTD/svg11.dtd">
<svg version="1.1" xmlns="http://www.w3.org/2000/svg" xmlns:xlink="http://www.w3.org/1999/xlink" x="0px" y="0px"
	 viewBox="0 0 90.6 58.2" enable-background="new 0 0 90.6 58.2" xml:space="preserve">
<g id="ch04-06-1">
</g>
<g id="ch04-03-2">
</g>
<g id="ch04-02-1">
	<g id="backup" display="none">
	</g>
	<g id="nose">
		<path d="M89,8.4c0-0.2,0-0.3-0.1-0.4c0-0.1-0.2-0.2-0.3-0.2c-0.3-0.1-0.8-0.1-1.2,0.1c-9.9,1.4-20-0.8-29.5-3.6
			c-3.2-1-6.3-2-9.5-3.1c-1.1-0.4-2.7-1.3-3.9-1.1C44,0.1,43.1,0.6,43,1.2c0-0.2-0.8,0.7-1.6,1.2c-1.7,1.2-3.4,2.4-5.1,3.5
			c-4.9,3.3-9.8,6.5-14.7,9.7c-6.9,4.5-13.9,9-20.8,13.4c-0.5,0.3-0.7,0.6-0.7,0.8C0,30.1,0,30.2,0.2,30.3C9.2,33,17.5,37.7,25.9,42
			c3,1.6,6,3,9.1,4.4c-0.7,1.1-1.5,2.3-2.2,3.4c-0.7,1.1-2.1,2.6-2.4,3.8c-0.5,2,2.6,3.4,4,3.9c2.2,0.7,4.6,0.9,6.8,0.2
			c0.5-0.2,1.2-0.6,1.3-1.1c0.4-2.2,0.8-4.3,1.2-6.5c2.2,0.8,4.5,1.6,6.8,2.3c0.2,0.3,0.5,0.4,0.9,0.3c1.6,0.5,3.3,0.9,5,1.3
			c9.7,2.3,21.7,4.2,31.6,1.2c0.2-0.1,0.5-0.1,0.7-0.2c0.5-0.2,1.3-0.7,1.3-1.3C90.5,38.8,91.4,23.1,89,8.4z M2.9,29
			c7.4-4.7,14.8-9.5,22.2-14.3C30,11.5,35,8.2,39.8,4.9c1-0.7,3.3-1.9,4.5-3.2c1.8,0.3,4.5,1.8,6,2.3c4.4,1.5,8.8,2.8,13.3,3.9
			C68.4,9,73.4,9.8,78.3,10c2.1,0.1,4.3-0.2,6.4-0.2c0.5,0,0.9,0,1.2,0.1c-3.8,5.4-7.7,10.7-11.7,16c-6.6,8.6-13.6,18.3-22.5,24.7
			c-2.7-0.8-5.2-1.8-7.8-2.8c-2.2-0.9-4.4-1.9-6.5-2.9C25.9,39.4,15,32.8,2.9,29z M40.5,56.4c-1.9,0.3-4.1-0.1-5.8-1
			c-0.8-0.4-2-1.1-2.2-2.1c0-0.1,0-0.1,0,0c0-0.1,0.3-0.5,0.4-0.6c1.2-1.9,2.3-3.7,3.5-5.6c1.8,0.8,3.6,1.5,5.4,2.3
			C41.3,51.7,40.9,54,40.5,56.4z M53.7,51.2c0,0-0.1,0-0.1,0c8.2-6.2,14.7-15,20.9-23c4.3-5.5,8.5-11.2,12.6-17
			c0.1,0.5,0.1,1.2,0.2,2c1.3,13.4,1,27.1,0.6,40.6C77.2,56.8,63.9,54,53.7,51.2z"/>
		<path fill="#167679" d="M87.1,11.2c-4,5.8-8.2,11.4-12.6,17c-6.2,8-12.8,16.8-20.9,23c0,0,0.1,0,0.1,0c10.2,2.8,23.4,5.6,34.1,2.6
			c0.4-13.5,0.7-27.2-0.6-40.6C87.2,12.4,87.2,11.7,87.1,11.2z"/>
		<path fill="#1FA6AA" d="M43.8,47.8c2.5,1.1,5.1,2,7.8,2.8c8.9-6.4,15.9-16.1,22.5-24.7c4-5.2,8-10.6,11.7-16
			c-0.3-0.1-0.7-0.1-1.2-0.1c-2.1,0-4.2,0.3-6.4,0.2c-4.9-0.2-9.9-1-14.7-2.1c-4.5-1-8.9-2.4-13.3-3.9c-1.4-0.5-4.1-2-6-2.3
			c-1.2,1.2-3.5,2.5-4.5,3.2C35,8.2,30,11.5,25.1,14.7C17.7,19.5,10.3,24.3,2.9,29c12.1,3.8,23,10.4,34.4,15.9
			C39.5,45.9,41.6,46.9,43.8,47.8z"/>
		<path fill="#FFFFFF" d="M32.9,52.7c-0.1,0.1-0.3,0.4-0.4,0.6c0,0,0,0,0,0c0.2,0.9,1.4,1.7,2.2,2.1c1.7,0.9,3.8,1.3,5.8,1
			c0.4-2.3,0.8-4.7,1.3-7c-1.8-0.7-3.6-1.5-5.4-2.3C35.2,48.9,34,50.8,32.9,52.7z"/>
	</g>
</g>
</svg>
