<?xml version="1.0" encoding="iso-8859-1"?>
<!-- Generator: Adobe Illustrator 18.1.1, SVG Export Plug-In . SVG Version: 6.00 Build 0)  -->
<svg version="1.1" xmlns="http://www.w3.org/2000/svg" xmlns:xlink="http://www.w3.org/1999/xlink" x="0px" y="0px"
	 viewBox="0 0 279.3 590.8" enable-background="new 0 0 279.3 590.8" xml:space="preserve">
<g id="Layer_1" display="none">
</g>
<g id="BSFM_copy">
	<g id="body_x5F_back_1_">
	</g>
	<g id="water_copy" opacity="0.7">
	</g>
	<g id="sand_copy">
	</g>
	<g id="gravel_x5F_top_1_">
	</g>
	<g id="gravel_x5F_bottom_1_">
		<rect id="gravel_x5F_bg" x="44.6" y="520.3" fill="#9CA0A3" width="139.1" height="32"/>
		<g id="gravel_4_">
			<g>
				<path fill="#6D777A" d="M154.2,525.6c-1.8-0.9-4.3-0.6-5.1-0.2c-1.8,0.8-1.4,2.9-1.2,4.5c0.2,1.5,1.3,2.9,2.5,3.7
					c0.9,0.6,1.7,1.3,2.8,0.9c1.3-0.4,2.6-2.5,2.8-3.8c0.1-1.1-0.1-2.3-0.3-3.4C155.5,525.9,155.9,526.5,154.2,525.6z"/>
				<g>
					<path d="M154.4,525.4c-1.8-0.8-5.3-1.1-6.5,0.9c-1.6,2.5,0.4,6.2,2.6,7.6c1,0.7,1.9,1.2,3.1,0.6c0.9-0.5,1.6-1.4,2.1-2.3
						c0.9-1.6,0.6-3.3,0.3-5.1C155.8,525.8,155.6,526,154.4,525.4c-0.1-0.1-0.5,0.4-0.4,0.4c0.4,0.2,1.2,0.4,1.4,0.8
						c0.3,0.5,0.3,1.7,0.3,2.2c0.1,0.8,0.2,1.6,0,2.4c-0.3,1.3-0.9,1.7-2,2.3c-1.4,0.9-1.4,0.9-2.6,0.1c-0.4-0.3-0.9-0.6-1.3-0.9
						c-1.4-1.3-2.2-3.6-1.9-5.5c0.5-2.6,4.3-2.1,6.1-1.4C154.1,525.9,154.5,525.4,154.4,525.4z"/>
				</g>
			</g>
			<g>
				<path fill="#828079" d="M148.3,535.5c-1.7-0.1-3.3,0.8-3.9,1.1c-1.1,0.6-2.8,1.7-3,3c-0.6,3.8,6.9,1.6,8.7,1.2
					c0.9-0.2,4.3-1.5,1.3-4.2c-0.6-0.6-1.4-0.9-2.2-1L148.3,535.5z"/>
				<g>
					<path d="M148.5,535.3c-2.3,0-6.3,1.5-7.3,3.9c-1.2,3,3,2.8,4.7,2.5c1.9-0.3,4.4-0.5,6-1.8C154.5,537.8,150.7,535.4,148.5,535.3
						c-0.1,0-0.6,0.4-0.4,0.4c2.2,0.1,6.6,3.2,2.6,4.7c-1.2,0.5-2.8,0.7-4.1,0.9c-1.3,0.2-3.5,0.6-4.5-0.4c-2.7-2.7,4.2-5.3,6-5.3
						C148.2,535.7,148.6,535.3,148.5,535.3z"/>
				</g>
			</g>
			<g>
				<path fill="#AD9383" d="M130.6,523.7c-1.2-0.8-3.3-0.1-4.5,0.3c-1.7,0.7-3.2,2.1-4.2,3.7c-0.9,1.4-1,3.7,0.8,4.4
					c2.2,0.9,4.4-0.5,6.1-1.7C134,527.1,131,523.9,130.6,523.7z"/>
				<g>
					<path d="M130.9,523.4c-2.7-1.4-6.5,0.9-8.2,3c-1.6,1.9-2.8,5.7,0.8,6.3c2.9,0.5,7.2-2.3,8.4-4.9
						C132.4,526.4,132.3,524.2,130.9,523.4c-0.3-0.1-0.8,0.4-0.5,0.6c0.8,0.4,1.1,1.7,1.1,2.5c0,2.7-4.1,5.2-6.5,5.6
						c-3.7,0.6-3.9-3-2.1-5.3c1.5-1.9,4.9-4,7.4-2.8C130.6,524.1,131.2,523.5,130.9,523.4z"/>
				</g>
			</g>
			<g>
				<path fill="#8F8E8D" d="M127.7,549.3c0,0.2,0,0.3,0.1,0.5c-0.5-2,0.7-4.2,1.4-6c0.8-2,2-3.6,3.5-5.1c0.6-0.6,1.9-2,2.9-1.9
					c1,0.1,0.8,2.2,0.9,3c0.3,3.2,0,6.3-2.2,8.8c-0.9,1-1.5,2-2.8,2.4c-0.8,0.2-1.7,0.2-2.4,0.1C127.6,551,127.5,550.4,127.7,549.3z
					"/>
				<g>
					<path d="M127.3,549.7c0,0.2,0,0.3,0.1,0.5c0.2-0.2,0.5-0.4,0.7-0.7c-0.3-2.8,1.4-6.5,3.1-8.7c0.3-0.4,3.4-4.3,4.4-3.4
						c0.5,0.5,0.4,1.5,0.5,2.1c0.1,2.1,0.2,4.3-0.5,6.4c-0.6,1.8-2.1,4-4,4.8c-1.4,0.6-3.7,0.3-3.6-1.6
						C128,548.7,127.3,549.3,127.3,549.7c-0.3,3.3,4.5,1.8,6,0.3c3-3.1,3.6-6.6,3.4-10.7c0-1,0.2-2.5-1-2.8c-1.3-0.3-3.1,2-3.8,2.7
						c-2.5,2.7-5.1,7.2-4.6,11c0,0.2,0.7-0.4,0.7-0.7c0-0.2,0-0.3-0.1-0.5C128,548.8,127.3,549.4,127.3,549.7z"/>
				</g>
			</g>
			<g>
				<path fill="#B7BCC0" d="M108.3,540.2c-1.7,0.3-2.5,2-2.8,3.6c-0.2,1.4-0.1,3.1,0.4,4.4c0.3,0.7,0.5,1.5,1.1,1.9
					c0.7,0.5,1.6,1,2.4,1.4c1.8,0.8,3.6,1,5.5,0.8c1.2-0.1,3.2-0.2,3.4-1.8c0.1-0.8-0.3-1.4-0.4-2.1c-0.2-0.7-0.2-1.4-0.4-2.1
					c-0.4-1.1-1-2.5-1.8-3.4c-0.6-0.6-1.4-0.9-2.2-1.2C113.1,541.7,109.3,540,108.3,540.2z"/>
				<g>
					<path d="M108.6,540c-3.3,1.1-4.1,4.7-3.3,7.8c1.2,4.4,7,5.6,11,4.6c3.4-0.8,2.5-3.9,1.5-6.7c-0.8-2.4-2.1-3.6-4.4-4.4
						C112,540.8,110.3,539.9,108.6,540c-0.1,0-0.8,0.6-0.6,0.6c1.7-0.1,3.9,1,5.5,1.7c1.8,0.8,2.7,1.9,3.3,3.7
						c0.4,1,1.4,3.9,1.1,4.8c-0.6,1.7-4.2,1.4-5.4,1.2c-1.4-0.2-2.7-0.7-3.9-1.4c-1.7-0.9-2.3-2.2-2.6-4.1c-0.4-1.9-0.2-5.3,2.1-6
						C108.3,540.5,109,539.8,108.6,540z"/>
				</g>
			</g>
			<g>
				<path fill="#BFA58A" d="M91.3,533.5c-0.6,0.2-1.3,0-1.9,0.1c-1.3,0.4-2.1,1.4-3.1,2.4c-0.6,0.6-1.1,1.4-1.5,2.1
					c-0.5,0.7-1,1.4-1.4,2.2c-1.3,3.3,0,7.7,4.1,7.6c1.3,0,2.8-0.5,3.7-1.4c1.2-1.2,1.7-2.5,2.3-4c0.7-2,0.7-5.1-0.1-7
					C92.9,534.4,92.2,533.5,91.3,533.5z"/>
				<g>
					<path d="M91.7,533.2c-3.9,0.4-5.8,2.7-7.9,5.9c-1.9,3-2.2,8.2,2.2,9.2c3.1,0.7,6-1.4,7.4-4C94.6,541.8,96.1,533.8,91.7,533.2
						c-0.3,0-1,0.7-0.9,0.7c2.6,0.4,2.9,4.8,2.7,6.8c-0.1,1.3-0.5,2.5-1.1,3.7c-1,2.2-4.1,4-6.5,2.9c-6.4-2.9,0.2-12.9,4.9-13.4
						C91.2,533.9,92,533.1,91.7,533.2z"/>
				</g>
			</g>
			<g>
				<path fill="#514E4E" d="M79.7,519c-1.2,0-3-0.4-4.2,0c-1.8,0.5-2.7,1-2.8,2.9c-0.1,1.6,0.2,3,1.9,3.3c1.9,0.4,3.3,0,5-0.7
					c1.2-0.5,6.8-2.8,3.6-4.7c-0.6-0.3-1.6-0.5-2.2-0.7C80.5,518.9,80.9,519,79.7,519z"/>
				<g>
					<path d="M79.9,518.7c-2.2-0.1-5.8-0.7-7.1,1.8c-0.5,1-0.5,2.8,0.1,3.8c1,1.6,3.5,1.3,5,0.9c2-0.5,4.9-1.6,6.1-3.3
						C85.7,519.5,81.6,518.7,79.9,518.7c-0.2,0-0.5,0.5-0.4,0.5c1.3,0,3.7,0.3,4.3,1.6c0.8,1.6-3,3-4.1,3.5c-2,0.8-6,1.8-6.7-1.1
						c-0.5-2,0.8-3.8,2.9-4.1c1.2-0.2,2.4,0.1,3.6,0.1C79.7,519.2,80,518.7,79.9,518.7z"/>
				</g>
			</g>
			<g>
				<path fill="#B7BCC0" d="M94.4,519c-1,0-2-0.2-3-0.2c-1.6,0-3.2,0.4-4.7,0.8c-0.8,0.2-1.7,0.4-2.2,1.1c-0.6,1-0.6,2.5-0.4,3.6
					c0.8,2.9,3,5.6,5.9,3.4c1.8-1.3,4.1-2.2,5.7-3.9c0.7-0.7,1.5-2.3,1.3-3.3C96.9,519,95.2,519.4,94.4,519z"/>
				<g>
					<path d="M94.7,518.6c-2.8-0.2-8.5-0.7-10.4,2.1c-1.6,2.5,0,7.7,3.2,8.1c1.8,0.2,3.4-1.4,4.8-2.2c1.5-0.9,3-1.8,4-3.2
						c0.6-0.7,1.2-1.8,1.2-2.8C97.6,518.9,96.1,519,94.7,518.6c-0.2-0.1-0.8,0.7-0.6,0.8c0.7,0.2,1.6,0.2,2.2,0.6
						c2.4,1.7-1.9,4.8-3.4,5.8c-2,1.2-4.3,3.3-6.4,1.5c-1.9-1.5-3.2-5.7-0.6-7.2c2.3-1.3,5.7-0.9,8.3-0.7
						C94.4,519.4,94.9,518.6,94.7,518.6z"/>
				</g>
			</g>
			<g>
				<path fill="#5C5550" d="M99.6,518.5c-2.6-2-3.4,4.7-0.5,3.3c0.7-0.4,1.9-1.5,1.8-2.4C100.8,518.6,99.9,518.7,99.6,518.5z"/>
				<g>
					<path d="M99.9,518.2c-1.6-1.1-2.8,0.8-2.9,2.3c0,0.6,0.1,1.5,0.8,1.7c0.9,0.4,2-0.6,2.5-1.2c0.4-0.5,1-1.2,0.9-1.9
						C101.1,518.4,100.4,518.4,99.9,518.2c-0.2-0.1-0.7,0.5-0.5,0.6c0.4,0.2,0.9,0.1,1.2,0.5c0.5,0.8-0.5,1.7-1.1,2.1
						c-0.6,0.4-1.4,0.4-1.7-0.3c-0.3-0.6-0.2-1.4,0-2c0.3-0.8,1-0.6,1.6-0.2C99.5,518.9,100,518.3,99.9,518.2z"/>
				</g>
			</g>
			<g>
				<path fill="#636362" d="M119.4,517.8c-0.5,0-1-0.2-1.6-0.2c-1-0.1-1.9,0.2-2.8,0.6c-0.4,0.2-1.9,0.9-1.8,1.6
					c0.1,0.6,2.8,1.3,3.4,1.4c0.9,0.2,1.9,0.3,2.8,0.4c1.2,0.2,2.7,0.2,3.7-0.5c0.4-0.3,0.9-0.9,0.7-1.5c-0.3-0.7-1.1-0.8-1.7-1
					C121.2,518.3,120.2,518.2,119.4,517.8z"/>
				<g>
					<path d="M119.7,517.5c-2.2-0.2-4.8-0.1-6.3,1.8c-1.3,1.6,1.7,2.1,2.9,2.4c2.1,0.5,5.2,1.2,7.1-0.4c0.5-0.4,1.2-1.2,0.9-1.9
						C123.9,518.1,120.7,517.8,119.7,517.5c-0.2-0.1-0.7,0.7-0.7,0.7c0.9,0.3,1.9,0.5,2.8,0.8c0.3,0.1,0.7,0.2,1,0.3
						c1,0.4,0.8,1.1-0.8,2.1c-1.2,0.5-3.5-0.1-4.7-0.4c-0.8-0.2-3-0.4-3.4-1.1c-1.2-1.9,4.1-1.8,5.1-1.8
						C119.3,518.2,119.7,517.5,119.7,517.5z"/>
				</g>
			</g>
			<g>
				<path fill="#AA9080" d="M82.6,523.1c-1.4-0.1-2.6,1.2-2.3,2.6c0.3,1.8,2.8,1.8,4,1c0.7-0.4,2.1-1.7,1.5-2.7
					C85.4,523.2,83.3,523.1,82.6,523.1z"/>
				<g>
					<path d="M82.7,523c-1.3,0-2.5,0.9-2.6,2.2c-0.2,1.8,1.8,2.4,3.3,2c1.1-0.3,2.3-1.3,2.6-2.4C86.6,523,83.8,523,82.7,523
						c-0.1,0-0.3,0.2-0.2,0.2c0.8,0,1.6,0.1,2.3,0.3c1.7,0.6,0.7,2.2-0.4,3c-0.8,0.5-1.9,0.7-2.8,0.4c-1.9-0.7-1.5-3.7,0.9-3.7
						C82.6,523.2,82.8,523,82.7,523z"/>
				</g>
			</g>
			<g>
				<path fill="#AD9383" d="M77.7,545.6c0.8-0.2,1.6-0.4,2.4-0.7c1-0.4,1.5-1.1,2.1-1.9c0.8-1,1.5-1.5,1.3-2.9
					c-0.2-1.7-1.7-2.5-3.1-3.1c-1.4-0.7-2.9-1.5-4.6-1.5c-2.4,0-7.1,2.5-6.4,5.5c0.2,0.6,0.7,1,1.1,1.6c0.3,0.6,0.6,1.1,1,1.6
					c0.7,0.8,1.4,1.5,2.4,1.7C75.2,546.1,77.2,545.9,77.7,545.6z"/>
				<g>
					<path d="M77.7,545.9c2.5-0.7,6.3-2.8,5.9-6c-0.4-3.4-6.6-5.3-9.4-4.5c-2.1,0.6-5.1,2.5-4.9,5.1c0.1,1.7,2,3.9,3.3,4.9
						C74,546.5,76.1,546.5,77.7,545.9c0.1-0.1,0.2-0.6,0.1-0.6c-3,1.1-5.2-0.3-6.9-2.7c-0.2-0.3-0.9-1.1-1-1.4
						c-0.3-1.2,0.4-2.9,1.3-3.7c0.9-0.7,1.9-1.2,3-1.5c2.5-0.8,5.3,0.5,7.4,1.8c2.1,1.3,1.7,3.7,0.2,5.4c-1.1,1.3-2.4,1.6-4,2.1
						C77.6,545.4,77.6,546,77.7,545.9z"/>
				</g>
			</g>
			<g>
				<path fill="#6D6359" d="M63,541.6c2.5,0.9,6.5-0.6,9-2.4c1.7-1.2,2.9-4.8,0.8-6.2c-0.5-0.4-0.9-0.8-1.5-1
					c-0.7-0.3-1.4-0.5-2.2-0.7c-0.6-0.1-1-0.4-1.6-0.4c-0.8,0-1.5,0.2-2.2,0.4c-1.5,0.5-3,0.9-4,2.2c-0.9,1.1-1.3,2.8-1.3,4.1
					C60.1,539.2,60.5,540.7,63,541.6z"/>
				<g>
					<path d="M62.8,541.7c3.2,0.9,7.6-0.5,9.9-2.8c2.6-2.5,1.7-5.9-1.5-7.2c-3.2-1.3-6.9-1.3-9.7,1.2
						C58.5,535.7,59.2,540.2,62.8,541.7c0.1,0,0.9-0.1,0.5-0.2c-2.7-1.1-3.4-3.3-2.6-5.9c1.2-4.1,6.7-5.1,10.1-3.4
						c2.3,1.1,3.3,3.2,1.9,5.6c-1.6,2.8-6.7,4.5-9.6,3.7C63,541.4,62.3,541.6,62.8,541.7z"/>
				</g>
			</g>
			<g>
				<path fill="#8F8E8D" d="M79.5,535.4c-1-0.1-7-0.1-8.4-3.2c-1.5-3.3,4.2-5.5,6.7-5.7c0.7-0.1,1.6-0.3,2.4-0.1
					c0.6,0.1,1.5,0.5,2.1,0.8c0.6,0.3,1,0.8,1.7,1c0.7,0.2,1.2,0.4,1.8,0.8c0.9,0.5,2,1.1,2.6,2c0.6,1,1.3,2.6,0.3,3.7
					c-0.7,0.8-2.5,1-3.5,1.2c-1,0.2-2,0.4-2.8,0.2C81.6,535.9,80.5,535.5,79.5,535.4z"/>
				<g>
					<path d="M79.7,535.2c-2.1-0.2-4.5-0.3-6.4-1.3c-2.5-1.4-2.4-3.7,0-5.7c1.2-1,3.5-1.4,5-1.5c2.6-0.2,7.9,2.1,9.7,4.2
						c1.9,2.2,0.1,4.2-2.2,4.7C83.4,536,82,535.6,79.7,535.2c-0.2,0-0.5,0.4-0.3,0.5c2.5,0.4,8.8,1.7,10-1.9c0.7-2.1-1.4-3.9-3-4.9
						c-2.8-1.7-5.6-3.2-8.9-2.6c-2.2,0.4-5.9,1.6-6.6,4.2c-1.3,4.4,5.8,5,8.5,5.2C79.5,535.7,79.8,535.2,79.7,535.2z"/>
				</g>
			</g>
			<g>
				<path fill="#B7BCC0" d="M112.5,531.6c0.4,1.3,0.3,3-0.9,4c-1.7,1.4-5.3,0.7-6,0.6c-0.8-0.1-1.5-0.4-2.3-0.7
					c-1.6-0.7-3.5-1.8-4.7-3.1c-1.1-1.3-1.3-3.7-0.3-5.2c1.7-2.6,5.6-0.2,7.2,1.3c0.8,0.8,1.7,1.1,2.9,1c0.9-0.1,1.6-0.3,2.6,0.2
					C112,530,112.5,531.6,112.5,531.6z"/>
				<g>
					<path d="M112.2,531.8c1,4.6-4.3,4.8-7.4,3.8c-2.8-0.9-6.9-3-6.7-6.4c0.3-6.3,5.9-1.2,7.8,0
						C108.2,530.5,111.1,528.7,112.2,531.8c0,0.1,0.7-0.2,0.6-0.4c-1-2.7-2.5-1.9-4.8-2.3c-2.4-0.3-3.9-3-6.5-3.3
						c-2.8-0.3-4.5,2.3-3.8,4.9c1.4,5.8,17.1,9.4,15.2,0.7C112.8,531.3,112.1,531.6,112.2,531.8z"/>
				</g>
			</g>
			<g>
				<path fill="#969692" d="M96.8,533.9c-0.9,0.5-1.7,1.1-2.2,2c-0.5,1-0.5,2.1-0.7,3.2c-0.4,1.8-0.3,3.6,0.6,5.3
					c0.6,1.2,1.8,2.9,3,3.6c1,0.5,2.3,0.2,3.3-0.2c1.6-0.6,3-1.5,4.3-2.7c1.2-1.1,2.6-2.3,3.3-3.8c0.7-1.5,0.5-3.1-0.1-4.6
					c-0.6-1.5-2.8-2.9-4.4-3.4C104,533.4,101,531.5,96.8,533.9z"/>
				<g>
					<path d="M96.8,533.8c-3.8,2.3-4.4,7.9-2.3,11.6c1.1,1.9,2.6,3.5,4.9,3.1c1.9-0.4,3.8-1.4,5.3-2.7c3.4-2.8,7.2-7.8,2.3-11.3
						c-3.2-2.3-6.6-2.5-10.1-0.7c-0.3,0.2-0.7,0.7-0.1,0.4c2.7-1.4,5-1.4,7.5-0.1c3.6,1.8,5.6,5.3,2.8,8.9c-1.6,2.1-4.2,4.3-6.8,4.9
						c-2.5,0.6-4-1.1-5-2.9c-1.7-3-1.7-8.8,1.6-10.8C97.4,533.8,97.3,533.5,96.8,533.8z"/>
				</g>
			</g>
			<g>
				<path fill="#D6CDC2" d="M64.5,530.8c-0.8-0.1-1.8-0.8-2.5-1.4c-0.9-0.8-1.3-2.9-0.7-4.1c0.5-1,1.8-1.5,2.8-1.7
					c1.6-0.4,3.1-0.3,4.6,0.4c1.6,0.7,3.8,1.7,3.1,3.9c-0.3,1-1.3,1.9-2.2,2.3C69.2,530.4,65.7,530.9,64.5,530.8z"/>
				<g>
					<path d="M64.6,530.5c-2.8-0.7-5.1-4.7-1.5-6.3c2.1-0.9,4.4-0.6,6.4,0.4c0.7,0.4,2.1,1.1,2.2,2c0.1,0.9-0.8,2.5-1.6,2.9
						c-0.3,0.2-0.5,0.2-0.8,0.4C68,530.4,66.1,530.6,64.6,530.5c-0.2,0-0.2,0.6-0.1,0.6c2.3,0.2,5.7-0.1,7-2.3
						c1.3-2.1,0.1-3.7-1.9-4.7c-2.3-1.2-7.4-1.7-8.5,1.5c-0.8,2.5,0.9,4.9,3.3,5.5C64.6,531.1,64.7,530.5,64.6,530.5z"/>
				</g>
			</g>
			<g>
				<path fill="#B7BCC0" d="M129.5,536.6c-0.9-0.1-2,0.4-2.7,1c-1.1,1.1-1.7,2.3-2,3.8c-0.5,2.4,1.7,3.1,3.6,2.1
					c1.9-1,3-2.9,2.8-5.1C131.1,537.3,130.5,536.8,129.5,536.6z"/>
				<g>
					<path d="M129.9,536.4c-2.1-0.1-4,1.6-4.8,3.4c-0.7,1.6-1.3,4.3,1.1,4.5c1.7,0.1,3.5-1.2,4.5-2.5
						C131.9,540.2,132.5,536.9,129.9,536.4c-0.2-0.1-0.8,0.6-0.7,0.6c3.7,0.8,0.9,7.1-2.3,6.8c-1.3-0.1-1.8-1.2-1.6-2.4
						c0.1-0.7,0.4-1.5,0.8-2.2c0.6-1.1,1.9-2.2,3.2-2.2C129.4,536.9,130.2,536.4,129.9,536.4z"/>
				</g>
			</g>
			<g>
				<path fill="#D6CDC2" d="M139.5,525.9c-1.2-1.2-2.2-0.9-2.6-0.9c-1.2-0.2-1.7,0.1-2.8,0.7c-1.3,0.8-2.4,1.7-3.4,2.8
					c-1,1.1-2.2,2.2-2.9,3.4c-0.9,1.5-1.1,3.8,0,5.3c1,1.2,2.9,1.1,4.1,0.3c1.8-1.2,3.5-2.5,5-4c0.8-0.7,3.1-3.4,3.4-4
					C141.2,528.2,140.2,526.5,139.5,525.9z"/>
				<g>
					<path fill="#020000" d="M139.9,525.7c-2.8-2.2-6-0.3-8.3,1.8c-2.2,2-7.7,7.5-3.6,10.4c2.9,2,7.1-2.4,8.9-4.1
						C139,531.7,142.5,528.7,139.9,525.7c-0.1-0.1-0.7,0.3-0.6,0.4c2.1,2.3,0.4,4.2-1.3,6.1c-1.6,1.9-5.8,6.4-8.5,5.6
						c-3.8-1.1-1.7-5.8-0.1-7.8c2.3-2.6,6.4-6.7,9.9-3.9C139.4,526.2,139.9,525.7,139.9,525.7z"/>
				</g>
			</g>
			<g>
				<path fill="#9F8D84" d="M122.5,542c-1.3,0-2.6,0.2-3.5,1.2c-0.8,0.9-1.4,2.1-0.8,3.2c1.1,2.1,4.7,3,7,2.9c1.6,0,2.5-1.3,2.8-2.7
					c0.2-1.4-0.8-2-1.8-2.7C125,543.2,123.4,542.3,122.5,542z"/>
				<g>
					<path d="M122.4,541.8c-2.2,0.1-5.8,1.7-4.4,4.6c1,2,3.8,2.7,5.8,3c2.1,0.3,4.1-0.1,4.6-2.5c0.5-2.5-3.7-4.3-5.5-5
						c-0.1-0.1-0.9-0.1-0.6,0.1c1.5,0.6,3.1,1.5,4.4,2.6c0.8,0.7,1.2,1.5,0.9,2.5c-0.4,1.3-1.1,1.8-2.4,2c-2.1,0.3-4.9-0.4-6.2-2.3
						c-1.8-2.6,1.6-4.7,3.8-4.8C123.2,542,122.5,541.8,122.4,541.8z"/>
				</g>
			</g>
			<g>
				<path fill="#CFBDA7" d="M71.5,518.6c-1.2-0.8-2.9-0.6-4.2-0.1c-1.4,0.5-2.1,1.5-2.2,3c-0.1,0.8-0.1,1.5-0.1,2.3
					c0,1,0.3,1.1,1.3,1.4c1,0.3,2.3,0.6,3.4,0.5c2-0.2,3.5-2.4,3.3-4.3C72.8,520.1,72.7,519.3,71.5,518.6z"/>
				<g>
					<path d="M71.8,518.6c-1.8-0.9-4.4-0.9-6,0.4c-1.2,1-1.2,2.4-1.3,3.8c0,1.1,0,1.8,1,2.2c1.8,0.8,4.5,1.2,6.1-0.1
						C73.7,523.3,74,520.1,71.8,518.6c-0.1-0.1-0.9-0.1-0.7,0c1.2,0.8,1.6,2.3,1.3,3.7c-0.5,2.7-3,3.5-5.6,2.9
						c-1-0.3-1.5-0.7-1.5-1.7c0-0.8,0-1.6,0.1-2.4c0.4-2.4,3.5-3.6,5.6-2.5C71.3,518.7,72,518.6,71.8,518.6z"/>
				</g>
			</g>
			<g>
				<path fill="#BDA388" d="M64.5,519c-0.8-1.4-3.9-0.2-4.5,0.1c-1,0.6-0.9,2.2-0.5,3.2c0.4,1,1.3,1.3,2.5,1.4
					c1.6,0.2,2.5-0.6,2.9-2.1C65.1,520.5,65.3,520.4,64.5,519z"/>
				<g>
					<path d="M64.9,518.9c-0.9-1.3-2.9-0.8-4.1-0.4c-0.7,0.2-1.5,0.5-1.8,1.3c-0.3,0.8-0.2,1.9,0.2,2.6c0.8,1.4,3.3,1.8,4.7,1.2
						c0.8-0.4,1.2-1.1,1.4-2C65.5,520.5,65.4,520,64.9,518.9c-0.1-0.2-0.9-0.1-0.8,0.1c0.6,1.2,0.6,2.1,0.1,3.3
						c-0.8,1.7-3.5,1.6-4.3-0.1c-0.5-1-0.5-2.5,0.6-3.2c0.9-0.5,2.9-1.2,3.6-0.1C64.3,519.2,65,519.1,64.9,518.9z"/>
				</g>
			</g>
			<g>
				<path fill="#42403F" d="M60.7,534.1c-0.3-0.4-1.1-0.2-1.5-0.2c-0.8,0-2.4,0.2-3,1c-1.2,1.5,0.7,3.7,2.2,4.1c1.7,0.5,3.4,0,3.3-2
					c0-0.7-0.3-1.3-0.5-1.9C60.9,534.3,60.7,534.1,60.7,534.1z"/>
				<g>
					<path d="M60.9,533.9c-0.6-0.5-1.6-0.2-2.3-0.1c-0.8,0.1-1.7,0.3-2.3,0.9c-1.4,1.3-0.4,3.2,0.9,4.1c1.2,0.8,3,1,4.1-0.1
						C62.5,537.5,61.7,535.2,60.9,533.9c-0.1-0.1-0.5,0.3-0.4,0.4c0.5,0.9,1.1,2.4,0.9,3.5c-0.4,1.8-2.7,1.3-3.8,0.6
						c-0.4-0.3-0.8-0.7-1.1-1.2c-0.2-0.3-0.3-0.6-0.4-0.9c-0.1-0.6,0-0.8,0.4-1.3c0.6-0.7,1.4-0.8,2.3-0.8c0.5,0,1.2-0.2,1.7,0.2
						C60.6,534.5,61.1,534,60.9,533.9z"/>
				</g>
			</g>
			<g>
				<path fill="#968B82" d="M59.3,538.6c0.9,0,1.8-0.1,2.6,0.2c0.8,0.2,1.1,0.7,1.6,1.3c0.6,0.7,0.7,1.1,0.7,2
					c0,1.3-0.5,1.8-1.8,2.3c-1.8,0.7-4.8,0.9-5.8-1.2c-0.5-1.1,0.2-2.5,0.8-3.3c0.4-0.4,1.3-1.5,2-1.1"/>
				<g>
					<path d="M59.1,538.9c1.6-0.1,3-0.1,4.1,1.3c1.2,1.6,1,3.4-1.1,4c-1.1,0.3-2.6,0.4-3.7,0c-0.6-0.3-1.2-0.7-1.4-1.4
						c-0.5-1.2,0.6-4.2,2.3-3.9c0.2,0,0.7-0.6,0.4-0.6c-1.7-0.4-3.2,2.4-3.4,3.7c-0.4,2.6,2.4,3.4,4.4,3.1c1.5-0.2,3.5-0.9,3.8-2.6
						c0.2-1.2-0.2-2.1-0.9-3c-1.1-1.3-2.5-1.2-4.1-1.2C59.3,538.3,58.9,538.9,59.1,538.9L59.1,538.9z"/>
				</g>
			</g>
			<g>
				<path fill="#A88E82" d="M58.5,538.6c0-0.1-0.1-1.7-0.7-2.3c-0.9-1-4-2.9-5.9,0.2c-0.6,0.9-0.6,2.4-0.4,3.4
					c0.2,1.5,1.2,1.3,2.2,2c0.8,0.5,1.2,0.8,2.2,0.6c1.3-0.3,2.1-1.4,2.4-2.6L58.5,538.6z"/>
				<g>
					<path d="M58.8,538.4c-0.1-2.1-1.7-3.9-3.9-3.9c-2.3,0-3.7,2.3-3.7,4.3c0,1.4,0.1,2.3,1.4,3c1.1,0.5,1.9,1.4,3.2,1
						C57.9,542.3,58.5,540.3,58.8,538.4c0-0.2-0.5,0.3-0.6,0.5c0,0.4-0.1,0.8-0.1,1.2c-0.4,1.9-2.2,2.7-3.8,1.8
						c-0.6-0.3-1.2-0.6-1.7-0.9c-0.9-0.6-0.9-1.8-0.9-2.7c0.2-2.9,2.7-3.7,4.8-2.4c1.2,0.7,1.6,1.8,1.7,3.1
						C58.2,539.1,58.8,538.6,58.8,538.4z"/>
				</g>
			</g>
			<g>
				<path fill="#6D777A" d="M57.4,523.4c-0.2-0.6-1.3-0.7-1.9-0.6c-1.1,0-2,0.8-2.6,1.7c-0.5,0.7-1,1.5-0.4,2.3
					c0.5,0.8,1.4,1.3,1.9,2c1,1.3,0.2,2.4,0.1,3.9c0,0.9,0.2,2.3,0.9,2.8c1.4,0.9,4.4-0.9,5.2-2c0.9-1.2,1.3-3.9,0.6-5.2
					c-0.9-1.7-1.7-2.9-3.2-4L57.4,523.4z"/>
				<g>
					<path d="M57.7,523.4c-1.6-1.7-4.3-0.3-5.2,1.4c-0.7,1.2-0.4,1.9,0.5,2.8c1.1,1.1,1.8,1.7,1.7,3.4c-0.1,1.4-0.8,3.5,0.7,4.5
						c1.7,1.1,4.7-0.7,5.7-2c1.1-1.5,1.2-3.9,0.4-5.5C60.5,526,58.9,525,57.7,523.4c-0.1-0.1-0.5-0.1-0.5,0c1.3,1.8,3.4,3,4,5.3
						c0.6,2.2-0.3,4.6-2.2,5.8c-1.6,1.1-3.9,1.5-4.3-1c-0.2-1.2,0.5-2.3,0.4-3.5c-0.1-1-0.9-1.5-1.5-2.2c-0.7-0.9-1.3-1.4-0.9-2.6
						c0.4-1.5,3-3.4,4.5-1.8C57.3,523.5,57.7,523.5,57.7,523.4z"/>
				</g>
			</g>
			<g>
				<path fill="#8D847A" d="M52.2,518.8c-2.2-0.5-2.2-0.4-3,0c-1.2,0.5-1.7,1.5-1.9,2.8c-0.3,2.2,2.4,3.9,4.4,3.5
					C54.8,524.5,54.4,519.4,52.2,518.8z"/>
				<g>
					<path d="M52.6,518.5c-0.9-0.2-1.8-0.5-2.8-0.2c-0.9,0.3-1.7,0.8-2.3,1.6c-1.6,2.2-0.3,4.8,2.2,5.4c1.7,0.4,3.5-0.4,4.2-2
						C54.7,521.8,54.5,519.1,52.6,518.5c-0.3-0.1-0.9,0.5-0.8,0.6c1.2,0.4,1.6,1.7,1.7,2.8c0,0.5-0.1,1.1-0.3,1.6
						c-0.5,1.2-1.6,1.5-2.8,1.2c-1.6-0.5-3-1.9-2.7-3.7c0.2-1,0.7-1.9,1.7-2.2c0.7-0.2,1.6,0.1,2.3,0.3
						C52.1,519.2,52.7,518.6,52.6,518.5z"/>
				</g>
			</g>
			<g>
				<path fill="#B7BCC0" d="M55.7,518.1c-2.2-0.4-2.7,2.7-1.5,4.1c1.1,1.2,3.9,3.6,5.6,2.2c1.5-1.3,0.7-3.5-0.5-4.6
					C57.9,518.3,55.7,518.1,55.7,518.1z"/>
				<g>
					<path d="M55.6,517.8c-2-0.2-2.5,1.9-2,3.5c0.6,1.7,2.8,3.3,4.5,3.7c2.4,0.5,3.1-2.2,2.2-3.9C59.5,519.2,57.6,518.1,55.6,517.8
						c-0.1,0,0,0.5,0.1,0.5c1.2,0.1,2.5,0.6,3.4,1.4c1.1,0.9,1.9,2.6,1.1,3.9c-0.5,0.8-1.3,1.1-2.2,0.9c-1.3-0.2-2.8-1.3-3.6-2.3
						c-1.1-1.4-0.8-4.1,1.4-3.9C55.9,518.3,55.7,517.9,55.6,517.8z"/>
				</g>
			</g>
			<g>
				<path fill="#B7BCC0" d="M51.3,526.9c-1-0.9-2.7,0.3-3.6,1.1c-0.9,0.9-0.9,2.3-0.9,3.7c0,1.1,0,2.5,1,3.1
					c1.6,1.1,3.9,0.3,5.3-0.8c1-0.8,1.4-2.1,1.5-3.3c0.1-1.3-0.5-2.9-1.7-3.4C52.7,527.1,51.2,527,51.3,526.9z"/>
				<g>
					<path d="M51.6,526.6c-1.8-1.1-4.2,1.1-4.7,2.8c-0.8,2.5-0.5,6.5,2.9,6.3c2.2-0.1,4.3-1.7,5-3.8c0.4-1.2,0.4-2.7-0.3-3.8
						c-0.3-0.5-0.7-0.9-1.2-1.1C53,526.9,51.6,526.8,51.6,526.6c0-0.1-0.6,0.3-0.5,0.6c0,0.2,0.4,0.2,0.6,0.2
						c0.7,0.2,1.2,0.2,1.8,0.7c2.1,1.9,0.7,5.6-1.6,6.6c-1.9,0.8-4.2,0.5-4.6-1.9c-0.1-0.8-0.2-2,0-2.8c0.3-1.5,2-3.9,3.8-2.7
						C51.3,527.3,51.7,526.7,51.6,526.6z"/>
				</g>
			</g>
			<g>
				<path fill="#393736" d="M46.9,536.8c-1.3,0.8-1.4,2.5-1.3,3c0.2,1.1,1,1.9,2.1,2.3c0.5,0.2,1.8,0.5,2.3,0.3
					c0.5-0.2,1.1-1.5,1.2-2c0.4-1.6,0.1-3.4-1.6-4C48.8,536.1,48.2,536,46.9,536.8z"/>
				<g>
					<path d="M46.9,536.6c-1.3,0.9-2,2.7-1.2,4.2c0.7,1.4,3.2,2.7,4.7,1.7c1.3-0.9,1.8-3.3,1.3-4.7
						C50.9,535.7,48.6,535.6,46.9,536.6c-0.2,0.1-0.4,0.7,0,0.5c1.2-0.7,2.8-0.8,3.7,0.5c0.8,1.1,0.7,2.9,0,4
						c-1.8,2.5-6.9-2.3-3.6-4.5C47.3,536.8,47.3,536.3,46.9,536.6z"/>
				</g>
			</g>
			<g>
				<path fill="#B7BCC0" d="M119.7,530.8c-1.7,0.6-2.7,1.4-2.8,3.4c-0.1,2,0.3,4.3,1.1,6.1c0.7,1.5,2.5,2.2,4.2,1.9
					c1.4-0.3,2.5-1.9,2.8-3.3c0.4-1.9-0.4-3.5-1.2-5.3C123.3,532.5,120.2,530.7,119.7,530.8z"/>
				<g>
					<path fill="#110905" d="M119.9,530.6c-2.6,1-3.6,2.7-3.3,5.6c0.2,3.1,1.7,7.5,5.7,6.2c2.2-0.7,3.5-3.1,3.2-5.3
						c-0.2-2.5-2.4-6.5-5.4-6.5c-0.2,0-0.9,0.6-0.7,0.6c1.2,0,3,1.4,3.7,2.3c1.3,1.6,2.2,4.8,1.1,6.7c-1.9,3.5-5.3,1.4-6.2-1.3
						c-0.8-2.5-1.6-6.5,1.6-7.7C119.8,531,120.4,530.3,119.9,530.6z"/>
				</g>
			</g>
			<g>
				<path fill="#504D4C" d="M111,533.3c-1,1-0.7,4.4-0.3,5.8c0.7,2.4,4.8,4.1,7,4.3c1.7,0.1,1.9-0.3,1.9-2.1
					c0.1-1.5-0.8-2.7-1.4-4.1C117.7,536.1,113.1,531.2,111,533.3z"/>
				<g>
					<path d="M110.7,533.4c-1.9,2.4-0.6,6.8,1.7,8.4c1.5,1,5.7,3.1,7.3,1.1c1.8-2.3-1-6.4-2.7-8
						C115.3,533.2,112.9,531.6,110.7,533.4c-0.4,0.3,0.4,0,0.6-0.1c1.5-1.3,4.7,1.9,5.6,2.9c1.2,1.3,3.2,4.6,2.2,6.3
						c-1.1,1.8-6.1-1.3-7-2.3c-1.4-1.5-2-5.4-0.6-7.1C111.7,532.8,110.8,533.2,110.7,533.4z"/>
				</g>
			</g>
			<g>
				<path fill="#B7BCC0" d="M135,519.3c-1-0.2-2.3,0.4-2.9,1c-0.9,0.8-1,1.5-0.9,2.7c0,0.6,0,0.8,0.6,1.2c0.4,0.3,0.8,0.5,1.2,0.8
					c1,0.6,2,0.4,3-0.1c1.1-0.6,2.7-2.7,2-4C137.3,519.6,136,519.5,135,519.3z"/>
				<g>
					<path d="M135.3,519.1c-1.6-0.1-3.5,0.8-4.3,2.3c-0.3,0.7-0.5,2-0.1,2.7c0.5,0.8,2.1,1.5,3.1,1.5c1.7,0,3.2-1.3,4-2.6
						c0.5-0.8,0.7-1.7,0.2-2.6C137.6,519.4,136.4,519.3,135.3,519.1c-0.2,0-0.8,0.5-0.7,0.5c1,0.2,2.1,0.3,2.7,1.1
						c0.8,1,0.2,2.6-0.7,3.3c-0.4,0.4-2.2,1-2.7,0.9c-0.3-0.1-0.6-0.2-0.9-0.4c-0.5-0.3-1.2-0.6-1.5-1.1c-0.9-1.9,1.2-4.1,3-3.9
						C134.9,519.6,135.4,519.1,135.3,519.1z"/>
				</g>
			</g>
			<g>
				<path fill="#B7BCC0" d="M123.9,521.1c-0.7,2.1,3.2,2.6,4.5,2.2c1.3-0.3,2.5-1.5,2.1-3.2C130,518.4,125.2,517.2,123.9,521.1z"/>
				<g>
					<path d="M123.6,521.3c-0.8,3.1,6.8,3.4,7.1-0.4c0.2-1.9-1.9-2.8-3.6-2.6C125.4,518.5,124.2,519.7,123.6,521.3
						c-0.1,0.2,0.4-0.2,0.5-0.3c0.7-1.8,2.3-2.6,4.1-2.1c1,0.2,2,0.8,2.1,1.9c0.4,3.9-6.9,2.8-6.2,0.2
						C124.1,520.8,123.7,521.1,123.6,521.3z"/>
				</g>
			</g>
			<g>
				<path fill="#B7BCC0" d="M147.5,527.9c1.3,0.5,2.6,1.5,2.7,3c0.1,2.2-2.5,4.7-3,5.2c-0.6,0.6-1.2,1-1.9,1.4
					c-1.5,0.9-3.5,1.8-5.3,2c-1.7,0.1-3.8-1-4.4-2.7c-1.1-2.9,3.1-4.7,5.2-5.1c1.2-0.2,1.9-0.7,2.5-1.8c0.4-0.8,0.7-1.5,1.6-2
					C145.9,527.4,147.5,527.9,147.5,527.9z"/>
				<g>
					<path d="M147.1,528.2c3.7,1.6,2.8,5,0.3,7.5c-1.9,1.9-5.6,4.2-8.5,3.3c-1.6-0.5-3.5-2.3-2.8-4.2c1-2.7,4.1-2.3,6.1-3.5
						C143.9,530.3,144.6,527.5,147.1,528.2c0.3,0.1,0.9-0.5,0.8-0.6c-1.1-0.3-2.1-0.3-3.1,0.2c-0.6,0.4-0.9,0.8-1.4,1.4
						c-1.2,1.4-2.1,2-3.9,2.6c-2.5,0.9-6,3.2-3.7,6.2c2.8,3.6,8.3,0.8,11.1-1.4c3-2.4,5.8-6.9,1-9
						C147.6,527.5,146.9,528.1,147.1,528.2z"/>
				</g>
			</g>
			<g>
				<path fill="#8D847A" d="M145.1,528.2C145.1,528.2,145.1,528.2,145.1,528.2c0.8-0.6,2.1-0.2,3-0.4c1.6-0.3,3.4-0.5,4.9-1.3
					c1.3-0.6,3.2-1.2,4-2.4c1-1.3-0.3-3.5-1.3-4.5c-0.8-0.8-1.9-1.6-3-1.8c-1.4-0.2-3,0-3.7,0c-1,0.2-2.1,0.1-3.1,0.1
					c-1.4,0-2.6,0.3-3.9,0.6c-1.2,0.3-1.7,1.1-2.6,1.9c-0.6,0.6-1.4,1.3-1.5,2.2c-0.3,2.7,2.5,4.8,4.8,5.4c1.7,0.4,3.2-0.4,4.8,0.2"
					/>
				<g>
					<path d="M145.1,528.5c0.8-0.6,3.6-0.4,4.7-0.7c1.6-0.4,3.2-1,4.7-1.7c0.9-0.5,2.3-1.1,2.8-2.1c0.8-1.4,0.2-2.9-0.7-4.2
						c-1.9-2.5-4.4-2.6-7.2-2.4c-4.1,0.2-9.1,0-11.3,4.4c-0.7,1.5-0.3,3,0.7,4.3c2.4,2.9,5.3,1.9,8.6,2.5c0.3,0,0.8-0.7,0.6-0.8
						c-2.9-0.5-9.3,0.3-9.5-4.5c-0.3-5.1,9.2-5.6,13-5.1c1.8,0.2,3.4,1,4.5,2.5c2.1,2.7-0.6,4.6-2.9,5.6c-2.2,0.9-4.5,0.6-6.6,1.3
						c-0.4,0.1-0.8,0.2-1.2,0.4C144.9,528.1,144.6,528.9,145.1,528.5L145.1,528.5z"/>
				</g>
			</g>
			<g>
				<path fill="#BFADA1" d="M163,529.1c-0.5,0.1-1.2-0.2-1.7-0.2c-0.9-0.1-1.9-0.1-2.8-0.1c-1,0-1.9-0.1-2.8,0.2
					c-1.7,0.5-3.2,1.2-4.8,2.1c-1.6,1.1-4.1,3.1-3.1,5.4c0.5,1.1,1.6,2.1,2.5,2.8c1,0.8,1.8,1,3,1.1c1.1,0,3.3-1.8,4-2
					c1.4-0.3,2.7,0,4.1,0.4c1.1,0.3,1.8,1.2,3,1.2c2,0,4.1-2.1,4.2-4.1c0.1-1.6-1.3-2.6-2.2-3.8c-0.6-0.8-1.4-1.3-2-2
					c-1-1.2-1.5-1.2-3.1-1.2"/>
				<g>
					<path d="M163,528.9c-3.6-0.2-6.5-0.7-9.9,0.8c-1.9,0.9-4.4,2.2-5.4,4.2c-1.8,3.5,3.4,7.9,6.8,6.5c1.6-0.7,2.4-1.8,4.4-1.8
						c1.7,0,3,1.2,4.6,1.6c2,0.4,3.8-0.7,4.8-2.5c1.3-2.3-0.2-3.9-1.7-5.7c-1.6-1.8-2.7-3.3-5.2-3.3c-0.3,0-0.5,0.4-0.1,0.4
						c2.2,0,3.5,1.6,4.9,3.2c1.8,2.1,3.3,5.2,0,6.9c-2.8,1.5-6.4-2.1-9.5-0.7c-1.8,0.8-3,2.4-5.2,1.4c-2.8-1.2-4.8-4.6-2.3-7.2
						c1.5-1.5,3.7-2.6,5.7-3.2c2.7-0.9,5.3-0.3,8-0.2C163.2,529.4,163.4,528.9,163,528.9L163,528.9z"/>
				</g>
			</g>
			<g>
				<path fill="#504D4C" d="M158.7,523.3c-0.8,0.1-1.7,0.4-2.4,0.9c-1,0.6-1.5,1.6-1.4,2.8c0.1,1.4,1.3,1.7,2.5,1.7
					c1.1,0.1,2.3,0,3.4,0c1.3,0,2.7,0.2,4-0.1c1.5-0.3,3-1.4,2.7-3.1c-0.4-2.4-3-1.9-4.7-2.2L158.7,523.3z"/>
				<g>
					<path d="M158.9,523.1c-1.8,0.4-5.3,2.1-4,4.7c0.9,1.8,4.2,1.1,5.8,1.1c1.8,0,3.7,0.4,5.4-0.6c1.8-1,2.6-3.8,0.3-4.8
						C164.2,522.6,161.1,523.1,158.9,523.1c-0.1,0-0.4,0.5-0.3,0.4c2.2,0,4.7-0.3,6.9,0.3c2.2,0.6,2.8,3.4-0.5,4.6
						c-1.3,0.4-3.1,0.1-4.4,0.1c-1.2,0-2.5,0.2-3.6-0.1c-0.5-0.1-1.1-0.2-1.4-0.6c-0.7-0.9-0.5-1.7,0.5-2.4c0.4-1.2,1.2-1.8,2.5-1.8
						C158.7,523.5,159.1,523.1,158.9,523.1z"/>
				</g>
			</g>
			<g>
				<path fill="#B7BCC0" d="M155.6,521c-1.1-2.1,0.4-3.5,2.2-4.6c1.3-0.7,3-0.8,4.4-0.8c1.2,0,2.4,0.4,3,1.5c1,2-0.1,4.2-1.9,5.2
					C159.9,524.4,156.3,522.3,155.6,521z"/>
				<g>
					<path d="M156,521c-0.7-1.7-0.1-3,1.3-4c1.7-1.2,6-2.4,7.4-0.2c1,1.7,0.4,3.7-1,4.9c-0.4,0.3-0.8,0.6-1.3,0.8
						c-1.1,0.5-3.9,0.3-4.9-0.2C156.8,522,156.3,521.6,156,521c-0.1-0.2-0.8-0.1-0.8,0c2.6,4.3,12.9,2.1,10.5-3.6
						c-1-2.3-4-2.1-6-1.8c-2.6,0.4-5.7,2.4-4.5,5.3C155.3,521.1,156,521.1,156,521z"/>
				</g>
			</g>
			<g>
				<path fill="#9F8D84" d="M174.4,516.9c-0.4,0.2-1,0-1.4-0.1c-1,0-2.1,0-3.2,0.1c-1.5,0.2-3.2,0.7-4.4,1.6c-0.9,0.7-1.8,1.8-1.9,3
					c-0.1,0.8,0.6,1.4,1.2,1.9c1.9,1.6,4.3,1.3,6.5,0.6c2.3-0.7,4.2-1.9,4.5-4.5c0.1-1,0.1-1.4-0.8-1.9c-0.7-0.4-1-0.8-1.9-0.8"/>
				<g>
					<path d="M174.5,516.7c-3.3,0.2-6.8-0.4-9.5,2.1c-2.5,2.3-2,5.2,1.6,6c2.5,0.5,6.1-0.5,7.9-2.4c2-2.1,2-5.2-1.3-5.6
						c-0.2,0-0.5,0.4-0.4,0.5c3.6,0.4,3,3.9,0.7,5.7c-1.5,1.2-4.7,1.8-6.5,1.4c-0.9-0.2-1.9-0.7-2.5-1.4c-2-2.4,1.6-4.8,3.5-5.3
						c2.1-0.6,4.1-0.3,6.2-0.4C174.3,517.1,174.6,516.7,174.5,516.7L174.5,516.7z"/>
				</g>
			</g>
			<g>
				<path fill="#AD9383" d="M174.1,523c-1-0.1-1.9,0.1-2.8,0.4c-1.8,0.6-3.8,1.4-5.1,2.9c-1.1,1.2-1.6,3.1-1.3,4.7
					c0.3,1.6,2,2.4,3.6,2.2c1.9-0.2,4.2-1.3,5.8-2.4c1.3-0.9,2.5-2.2,3.1-3.7C179.1,522.6,174.7,523,174.1,523z"/>
				<g>
					<path d="M174,522.9c-3.6-0.1-8.7,2-9.4,5.9c-0.7,3.4,2,5,5,4.4c3.2-0.6,9.8-4.2,8.5-8.5C177.6,523,175.5,522.9,174,522.9
						c-0.6,0-0.1,0.2,0.2,0.2c1.8,0.1,3.3,0.6,3.1,2.7c-0.2,2.7-2.8,4.8-5.1,5.9c-1.9,1-5.5,2.3-6.7-0.2c-0.5-1.1-0.4-2.6,0.1-3.7
						c1.3-2.9,5.4-4.8,8.5-4.7C174.8,523.1,174.3,522.9,174,522.9z"/>
				</g>
			</g>
			<g>
				<path fill="#CFBDA7" d="M177.5,529.3c-1.6,0.4-3.7,0.7-5,1.7c-1.8,1.3-2,5,0.3,5.8c2.3,0.8,4.7,0,7.1-0.5c1.1-0.2,3.1-1.5,3-4.4
					C182.7,529,178.5,529,177.5,529.3z"/>
				<g>
					<path d="M177.5,529c-2.9,0.6-6.2,1.2-6.6,4.7c-0.4,4.4,4.5,3.8,7.4,3.1c2.7-0.6,4.7-2.1,4.5-5.1
						C182.7,529.1,179.6,528.6,177.5,529c-0.1,0-0.2,0.6-0.1,0.6c1.2-0.2,2.6-0.2,3.7,0.4c1.9,0.9,2.1,3.3,0.4,5
						c-0.7,0.7-1.5,1-2.5,1.2c-2,0.4-6.7,1.8-7.8-1c-0.8-2.1,0.8-3.9,2.6-4.6c1.1-0.4,2.3-0.6,3.5-0.9
						C177.6,529.5,177.6,529,177.5,529z"/>
				</g>
			</g>
			<g>
				<path fill="#828079" d="M170.3,535.5c-1.7-0.1-3.3,0.8-3.9,1.1c-1.1,0.6-2.8,1.7-3,3c-0.6,3.8,6.9,1.6,8.7,1.2
					c0.9-0.2,4.3-1.5,1.3-4.2c-0.6-0.6-1.4-0.9-2.2-1L170.3,535.5z"/>
				<g>
					<path d="M170.5,535.3c-2.3,0-6.3,1.5-7.3,3.9c-1.2,3,3,2.8,4.7,2.5c1.9-0.3,4.4-0.5,6-1.8C176.5,537.8,172.7,535.4,170.5,535.3
						c-0.1,0-0.6,0.4-0.4,0.4c2.2,0.1,6.6,3.2,2.6,4.7c-1.2,0.5-2.8,0.7-4.1,0.9c-1.3,0.2-3.5,0.6-4.5-0.4c-2.7-2.7,4.2-5.3,6-5.3
						C170.2,535.7,170.6,535.3,170.5,535.3z"/>
				</g>
			</g>
			<g>
				<path fill="#6D777A" d="M181,518.5c-1.8-0.9-4.3-0.6-5.1-0.2c-1.8,0.8-1.4,2.9-1.2,4.5c0.2,1.5,1.3,2.9,2.5,3.7
					c0.9,0.6,1.7,1.3,2.8,0.9c1.3-0.4,2.6-2.5,2.8-3.8c0.1-1.1-0.1-2.3-0.3-3.4C182.4,518.8,182.8,519.3,181,518.5z"/>
				<g>
					<path d="M181.2,518.2c-1.8-0.8-5.3-1.1-6.5,0.9c-1.6,2.5,0.4,6.2,2.6,7.6c1,0.7,1.9,1.2,3.1,0.6c0.9-0.5,1.6-1.4,2.1-2.3
						c0.9-1.6,0.6-3.3,0.3-5.1C182.7,518.7,182.5,518.8,181.2,518.2c-0.1-0.1-0.5,0.4-0.4,0.4c0.4,0.2,1.2,0.4,1.4,0.8
						c0.3,0.5,0.3,1.7,0.3,2.2c0.1,0.8,0.2,1.6,0,2.4c-0.3,1.3-0.9,1.7-2,2.3c-1.4,0.9-1.4,0.9-2.6,0.1c-0.4-0.3-0.9-0.6-1.3-0.9
						c-1.4-1.3-2.2-3.6-1.9-5.5c0.5-2.6,4.3-2.1,6.1-1.4C181,518.7,181.4,518.3,181.2,518.2z"/>
				</g>
			</g>
			<g>
				<path fill="#6D6359" d="M115.4,521.1c-2.4,0-4.5,0.3-6.6,1.7c-0.8,0.5-2.7,1.5-3.4,2.3c-0.7,0.8-1.2,3-1,3.9
					c0.4,2,3.3,2.9,5,3.2c3.6,0.6,9.1,0.3,12-2c1-0.8,2.6-2.2,2.7-3.7c0.1-1.1-1.2-2.5-1.9-3.3C120.5,521.6,118.2,520.9,115.4,521.1
					z"/>
				<g>
					<path d="M115.8,520.7c-3.7,0.1-8.9,1.5-11.1,4.8c-3.5,5.3,3.3,7.2,7.3,7.3c4,0.1,8.4-0.8,11.2-3.9
						C127.5,524.1,120,520.6,115.8,520.7c-0.3,0-1.2,0.7-0.8,0.7c3-0.1,7.6,1.1,8.5,4.6c1.3,5.7-9.3,6.3-12.6,5.9
						c-2.3-0.3-5.8-1.1-6-4c-0.3-4.7,6.8-6.5,10.1-6.5C115.2,521.5,116.1,520.7,115.8,520.7z"/>
				</g>
			</g>
			<g>
				<path fill="#514E4E" d="M96,526.8c-4.4-1.7-8,4.8-3.7,7.2c1.4,0.8,2.9,0.5,4.4-0.2c1.3-0.6,1.1-1.2,1.2-2.5
					C98.1,528.2,96,527.1,96,526.8z"/>
				<g>
					<path d="M95.9,526.5c-4.5-1.5-7.9,4.7-4,7.5c1.5,1,3.3,0.9,4.9,0.1c1.1-0.6,1.2-1.3,1.2-2.5c0-1.2-0.1-2.3-0.6-3.3
						c-0.3-0.6-1-1-1.4-1.6c-0.2-0.4-0.3,0-0.1,0.2c0.1,0.2,0.3,0.3,0.5,0.5c0.9,0.9,1.4,1.9,1.4,3.2c0,1.3,0,2.3-1.2,2.9
						c-1.1,0.6-2.6,0.9-3.9,0.4c-2.5-0.9-2.7-3.7-1.2-5.6c1.1-1.3,2.9-1.8,4.5-1.2C96.2,527.2,96.1,526.6,95.9,526.5z"/>
				</g>
			</g>
			<g>
				<path fill="#9F8D84" d="M97,528.2c2.4,0.6,3.3,0.9,4.9-1.4c0.4-0.6,0.9-3,0.1-3.9c-0.5-0.6-2.9-1.4-4.6-0.4
					C95.2,523.8,94.5,527.6,97,528.2z"/>
				<g>
					<path d="M97.1,528.5c1,0.2,2.2,0.6,3.2,0.3c0.9-0.3,1.7-1.3,2.1-2.2c0.5-1.5,0.6-3.6-1.1-4.4c-2.4-1-5,0-5.8,2.5
						C95,526.2,95.4,528,97.1,528.5c0.1,0,0-0.4-0.1-0.5c-2.2-0.7-1.4-3.4-0.2-4.7c1.2-1.3,3.2-1.4,4.7-0.7c1.9,0.9,0.6,3.9-0.5,5
						c-1.2,1.2-2.6,0.7-4.1,0.4C96.8,528,96.9,528.4,97.1,528.5z"/>
				</g>
			</g>
			<g>
				<path fill="#CFBDA7" d="M106.4,518.4c-2.3-0.7-6.4,2.5-5.9,3.6c0.5,1.1,7.9,0.9,9.6-0.5C112.6,519.4,106.4,518.5,106.4,518.4z"
					/>
				<g>
					<path d="M106.3,518.1c-1.6-0.3-3.3,0.5-4.5,1.5c-0.6,0.5-1.5,1.2-1.4,2.1c0.2,1.7,3.9,1.3,5,1.2c1.3-0.1,5.9-0.3,5.4-2.5
						C110.3,518.5,107.5,518.9,106.3,518.1c-0.1-0.1,0,0.4,0.1,0.5c1,0.6,2.6,0.3,3.6,1.2c2,1.8-3.1,2.5-3.9,2.6
						c-0.8,0.1-5.1,0.6-5.5-0.6c-0.3-0.8,1.9-2.1,2.4-2.4c1-0.6,2.2-1,3.4-0.8C106.5,518.6,106.4,518.1,106.3,518.1z"/>
				</g>
			</g>
		</g>
	</g>
	<g id="concrete_x5F_body_1_">
	</g>
	<g id="bsfm_x5F_nose_x5F_side_1_">
	</g>
	<g id="eye_1_">
	</g>
	<g id="white_x5F_hose_1_">
	</g>
	<g id="diffuser_1_">
	</g>
	<g id="Lid_1_">
	</g>
</g>
<g id="BSFM">
	<g id="body_x5F_back">
		<g id="gravel_1_">
		</g>
	</g>
	<g id="water" opacity="0.7">
	</g>
	<g id="sand">
	</g>
	<g id="gravel_x5F_top">
	</g>
	<g id="gravel_x5F_bottom">
		<g id="Layer_11">
		</g>
	</g>
	<g id="concrete_x5F_body">
		<g id="gravel">
		</g>
	</g>
	<g id="bsfm_x5F_nose_x5F_side">
	</g>
	<g id="eye">
	</g>
	<g id="white_x5F_hose">
	</g>
	<g id="diffuser">
	</g>
	<g id="Lid">
	</g>
</g>
<g id="Layer_20">
	<g id="water_x5F_LowLevel">
	</g>
	<g id="water_x5F_highLevel">
	</g>
	<g id="body">
	</g>
	<g id="lid">
	</g>
</g>
</svg>
