<?xml version="1.0" encoding="utf-8"?>
<!-- Generator: Adobe Illustrator 18.1.1, SVG Export Plug-In . SVG Version: 6.00 Build 0)  -->
<!DOCTYPE svg PUBLIC "-//W3C//DTD SVG 1.1//EN" "http://www.w3.org/Graphics/SVG/1.1/DTD/svg11.dtd">
<svg version="1.1" xmlns="http://www.w3.org/2000/svg" xmlns:xlink="http://www.w3.org/1999/xlink" x="0px" y="0px"
	 viewBox="0 0 208 393.6" enable-background="new 0 0 208 393.6" xml:space="preserve">
<g id="ch06-05-1">
	<g id="paths_backup" display="none">
	</g>
</g>
<g id="ch02A-08-2">
	<g id="bsf_contents">
		<g id="separation_gravel_copy">
		</g>
		<g id="dirty_water_1_" opacity="0.6">
			<g id="water_body_1_">
				<g>
					<g id="XMLID_110_">
						<g>
							<path fill="#6A5C50" d="M190.8,82.9l0.2,0.5c-0.2,0.1-0.4,0.2-0.6,0.3c0-0.1,0-0.2,0-0.3l-1-0.2c-0.1,0.3-0.1,0.6-0.1,0.9
								c-1.1,0.5-2.2,0.9-3.3,1.4c-3.4,1.5-7,3-10.4,4.2c-3.9,1.3-7.8,2.5-11.6,3.6c-2.3,0.7-4.6,1.4-6.9,2.1
								c-3.6,1.1-7.4,1.8-11.1,2.4c-3.1,0.6-6.3,1.1-9.4,2c-3.9,1.1-8.3,2.7-12.5,4.3c-5.8,2.1-11.7,4.3-16.8,5.3
								c0-0.2-0.1-0.4-0.2-0.6l-0.1-0.3l-0.3,0c0,0,0,0-0.1,0c5.1-0.9,11.2-3.1,17.1-5.3c4.2-1.6,8.6-3.2,12.5-4.3
								c3.1-0.9,6.4-1.4,9.5-2c3.6-0.7,7.4-1.3,10.9-2.4c2.3-0.7,4.6-1.4,7-2.1c3.8-1.1,7.7-2.3,11.6-3.6c3.4-1.2,6.9-2.7,10.3-4.2
								c1.2-0.5,2.4-1,3.5-1.5c0.6,0.1,1.1,0.2,1.6,0.3L190.8,82.9z"/>
							<path fill="#6A5C50" d="M190.9,82.4l-0.1,0.5l-0.2-0.5c-0.5,0.2-1,0.4-1.5,0.6c-1.1-0.2-2.3-0.4-3.5-0.6
								c-4.3-0.8-9.3-1.7-13.3-2.8c-2.6-0.7-5.2-1.3-7.7-1.8c-2.7-0.5-5.5-1.1-8.2-1.9c-5.8-1.8-11.9-3.6-18.2-4.6
								c-5.5-0.9-9.5-2.1-14.2-3.6c-4-1.3-7.3-1.9-10.7-2l1.5-0.9c3,0.2,6,0.9,9.5,2c4.7,1.5,8.6,2.7,14.1,3.6
								c6.4,1,12.6,2.8,18.3,4.6c2.7,0.8,5.4,1.4,8.1,1.9c2.6,0.5,5.2,1,7.8,1.8c4,1.2,8.9,2,13.2,2.8
								C187.6,81.7,189.3,82.1,190.9,82.4z"/>
							<path fill="#6A5C50" d="M190.6,82.4l0.2,0.5l-0.1,0.5c-0.5-0.1-1.1-0.2-1.6-0.3C189.6,82.8,190.1,82.6,190.6,82.4z"/>
							<path fill="#6A5C50" d="M190.4,83.3c0,0.1,0,0.2,0,0.3c-0.3,0.1-0.7,0.3-1.1,0.4c0-0.3,0.1-0.6,0.1-0.9L190.4,83.3z"/>
							<path fill="#6A5C50" d="M190.4,83.6c-0.3,1.7-0.4,5-0.5,7.7c-0.1,1.4-0.1,2.6-0.1,3.5c-0.1,1.2-0.1,1.8-0.5,1.9
								c0,0,0,0,0.1,0l-0.2-0.4l0-0.5c-0.1,0-0.2,0-0.3,0.1l0,0c-0.1,0-0.1,0.1-0.1,0.1c0.1-0.6,0.2-2.7,0.3-4.6
								c0.1-2.5,0.2-5.3,0.4-7.2C189.7,83.9,190,83.7,190.4,83.6z"/>
							<path fill="#6A5C50" d="M189,96.2l0.2,0.4c0,0,0,0-0.1,0c0,0,0,0,0,0c0,0-0.1,0-0.1,0c0,0,0,0,0,0L189,96.2z"/>
							<path fill="#6A5C50" d="M189,96.7c0.1,0,0.1,0,0.1,0c-6.2,3.2-13.3,5.5-20.3,7.6c-2.6,0.8-5.1,1.6-7.6,2.4
								c-2.1,0.7-4.3,1.4-6.4,2c-3.6,1.1-7.4,2.3-11.1,3.7c-3.6,1.4-7.4,2.3-11.1,3.2c-3,0.7-6.1,1.4-9.1,2.5
								c-2,0.7-4.2,1.6-6.3,2.5c-3.5,1.5-7.1,3-10.5,3.8c-0.1,0.1-0.2,0.3-0.4,0.3v0c0.1-0.6,0.3-1.3,0.3-1.9l0.6,0.5
								c3.1-0.8,6.4-2.2,9.7-3.5c2.1-0.9,4.3-1.8,6.3-2.5c3-1,6.1-1.8,9.2-2.5c3.7-0.9,7.5-1.7,10.9-3.1c3.7-1.5,7.5-2.6,11.1-3.8
								c2.1-0.6,4.3-1.3,6.4-2c2.5-0.8,4.9-1.6,7.6-2.4c6.9-2.1,13.9-4.3,20-7.5c0,0.1,0,0.1,0,0.1c0-0.1,0.1-0.1,0.2-0.2l0.2,0.4
								L189,96.7C189,96.7,189,96.7,189,96.7z"/>
							<path fill="#A38F7F" d="M189.3,84c-0.2,1.8-0.3,4.6-0.4,7.2c-0.1,1.9-0.1,4-0.3,4.6c-6.1,3.2-13.2,5.4-20,7.5
								c-2.6,0.8-5.1,1.6-7.6,2.4c-2.1,0.7-4.3,1.4-6.4,2c-3.7,1.1-7.5,2.3-11.1,3.8c-3.5,1.4-7.3,2.3-10.9,3.1
								c-3,0.7-6.2,1.4-9.2,2.5c-2.1,0.7-4.2,1.6-6.3,2.5c-3.2,1.3-6.5,2.8-9.7,3.5l-0.6-0.5c0.1-1.3,0.1-2.6,0.1-3.9
								c0-0.7,0-1.4,0-2.1c0-0.9,0.2-1.9,0.3-2.8c0.2-1.5,0.5-3.1,0.1-4.6c5.1-0.9,11-3.2,16.8-5.3c4.2-1.6,8.6-3.2,12.5-4.3
								c3.1-0.9,6.3-1.4,9.4-2c3.7-0.7,7.4-1.3,11.1-2.4c2.3-0.7,4.6-1.4,6.9-2.1c3.8-1.1,7.7-2.3,11.6-3.6c3.5-1.2,7-2.7,10.4-4.2
								C187.1,85,188.2,84.5,189.3,84z"/>
							<path fill="#6A5C50" d="M188.8,95.8L188.8,95.8c-0.1,0.1-0.2,0.1-0.2,0.2c0,0,0-0.1,0-0.1C188.7,95.8,188.7,95.8,188.8,95.8z
								"/>
							<path fill="#A38F7F" d="M185.6,82.4c1.2,0.2,2.4,0.4,3.5,0.6c-1.1,0.5-2.3,1-3.5,1.5c-3.4,1.5-6.9,3-10.3,4.2
								c-3.8,1.3-7.8,2.4-11.6,3.6c-2.3,0.7-4.6,1.4-7,2.1c-3.6,1.1-7.3,1.8-10.9,2.4c-3.1,0.6-6.4,1.1-9.5,2
								c-3.9,1.1-8.3,2.7-12.5,4.3c-5.9,2.2-12,4.5-17.1,5.3c-3.3-0.2-6.3-0.9-9.3-1.6c-2-0.5-4-1-6.2-1.3
								c-11.1-1.7-22.1-4.8-32.8-7.8l-2.2-0.6c-2.3-0.6-4.6-1.1-6.8-1.6c-2.5-0.5-5-1-7.5-1.8c-1.2-0.4-2.7-1-4.2-1.7
								c-2-0.9-4.3-1.9-6.3-2.4c3.8-0.8,7.5-1.9,11.1-3c4-1.2,8.1-2.4,12.2-3.3c10.8-2.3,21.8-5.7,32.5-9c2.3-0.7,4.7-1.4,7-2.1
								c1.6-0.5,3.2-0.9,5-1.4c4.7-1.2,9.7-2.5,13.6-5l0.3-0.2c3.5,0.1,6.7,0.7,10.7,2c4.7,1.5,8.7,2.8,14.2,3.6
								c6.3,1,12.4,2.8,18.2,4.6c2.7,0.8,5.5,1.4,8.2,1.9c2.5,0.5,5.2,1,7.7,1.8C176.3,80.7,181.2,81.6,185.6,82.4z"/>
							<path fill="#6A5C50" d="M115.8,64.1l-1.1,0.7c-0.4,0-0.8-0.1-1.1-0.1L115.8,64.1z"/>
							<path fill="#6A5C50" d="M114.7,64.8l-1.5,0.9c-0.4,0-0.8,0-1.1,0v-0.6c0.1,0,0.3-0.1,0.4-0.1l1.1-0.3c0,0,0,0,0,0
								C113.9,64.7,114.3,64.8,114.7,64.8z"/>
							<path fill="#6A5C50" d="M113.5,64.7l-1.1,0.3c-0.1,0-0.3,0.1-0.4,0.1v-0.4C112.5,64.7,113,64.7,113.5,64.7z"/>
							<path fill="#6A5C50" d="M113.2,65.7l-0.3,0.2c-4,2.5-8.9,3.7-13.6,5c-1.7,0.5-3.4,0.9-5,1.4c-2.3,0.7-4.6,1.4-7,2.1
								c-10.7,3.3-21.8,6.7-32.5,9c-4.1,0.9-8.3,2.1-12.2,3.3c-3.6,1.1-7.3,2.2-11.1,3c-1-0.2-1.9-0.3-2.7-0.3l0.1,0.8
								c-0.1,0-0.2,0-0.3,0.1c-0.1-0.3-0.2-0.6-0.3-0.9l-0.5,0.2l0-0.2c4.9-0.8,9.8-2.3,14.6-3.7c4-1.2,8.1-2.4,12.3-3.3
								c10.7-2.3,21.8-5.6,32.4-8.9c2.4-0.7,4.7-1.4,7-2.1c1.6-0.5,3.3-0.9,5-1.4c4.2-1.1,8.4-2.2,12.1-4.1l-0.1-0.4
								c0.3-0.1,0.5-0.1,0.8-0.2c0.1,0,0.2-0.1,0.3-0.1v0.6C112.4,65.7,112.8,65.7,113.2,65.7z"/>
							<path fill="#6A5C50" d="M107.3,109.3c0.4,1.5,0.1,3.1-0.1,4.6c-0.1,0.9-0.3,1.9-0.3,2.8c0,0.7,0,1.4,0,2.1
								c0,1.3,0.1,2.6-0.1,3.9l-0.2-0.1c-0.3,0.3-0.4,0.6-0.5,0.9c-0.1,0-0.2,0-0.3,0l-0.2,0c0.2-1.5,0.2-3.1,0.2-4.7
								c0-0.7,0-1.4,0-2.1c0-1,0.2-1.9,0.3-2.9c0.2-1.5,0.5-3,0.1-4.4c-3.3-0.2-6.3-0.9-9.2-1.7c-2-0.5-4-1-6.1-1.3
								c-11.1-1.8-22.2-4.8-32.9-7.8L55.9,98c-2.2-0.6-4.5-1.1-6.7-1.6c-2.5-0.5-5-1-7.5-1.8c-1.3-0.4-2.8-1-4.3-1.8
								c-2.9-1.3-6.2-2.8-8.5-2.6l0-0.2c0.9-0.2,1.8-0.3,2.7-0.5c2,0.5,4.2,1.5,6.3,2.4c1.5,0.7,3,1.3,4.2,1.7
								c2.5,0.7,5,1.3,7.5,1.8c2.2,0.5,4.5,0.9,6.8,1.6l2.2,0.6c10.7,3,21.7,6,32.8,7.8c2.1,0.3,4.2,0.8,6.2,1.3
								c3,0.7,6,1.5,9.3,1.6c0,0,0,0,0,0l0.2,1C106.9,109.4,107.1,109.3,107.3,109.3z"/>
							<path fill="#6A5C50" d="M107.1,108.7c0.1,0.2,0.1,0.4,0.2,0.6c-0.2,0-0.4,0.1-0.5,0.1l-0.2-1c0,0,0,0,0,0c0,0,0,0,0.1,0
								l0.3,0L107.1,108.7z"/>
							<path fill="#6A5C50" d="M106.7,122.5l0.2,0.1c0,0.7-0.2,1.3-0.3,1.9l0.1-0.6l-0.6,0c-0.1,0-0.3,0-0.4,0
								c0-0.2,0.1-0.4,0.1-0.6l0.2,0c0.1,0,0.2,0,0.3,0C106.3,123.2,106.4,122.8,106.7,122.5z"/>
							<path fill="#6A5C50" d="M106.6,124l-0.1,0.6v0c-0.1,0-0.1,0-0.2,0l-0.4-0.1c0,0,0,0,0,0c-0.1-0.1-0.2-0.1-0.2-0.2l-0.1-0.1
								c0-0.1,0-0.1,0-0.2c0.1,0,0.3,0,0.4,0L106.6,124z"/>
							<path fill="#6A5C50" d="M106.5,124.6L106.5,124.6C106.5,124.6,106.5,124.6,106.5,124.6l-0.2,0
								C106.4,124.6,106.5,124.6,106.5,124.6z"/>
							<path fill="#6A5C50" d="M106.4,124.6l0.1,0c-0.1,0.6-0.4,1-0.9,1.3l-0.5-0.9c0,0,0,0,0,0c0,0-0.1,0-0.1,0
								c-3.6,0-7-1.2-10.3-2.5c-2-0.7-4.1-1.5-6.1-1.9c-3.6-0.8-7.2-1.8-10.6-2.8c-2.1-0.6-4.3-1.2-6.4-1.8c-2.3-0.6-4.7-1.1-7-1.5
								c-3.6-0.7-7.2-1.4-10.7-2.6c-4-1.4-7.9-2.9-11.6-4.4c-5.1-2-9.9-3.9-15.1-5.5l0.3-0.9c0,0,0,0,0,0c0,0.3,0,0.6,0,0.8h1
								c0-0.1,0-0.3,0-0.5c4.8,1.6,9.5,3.4,14.1,5.2c3.7,1.5,7.6,3,11.6,4.4c3.3,1.2,7,1.9,10.5,2.6c2.4,0.5,4.8,0.9,7.1,1.6
								c2.2,0.6,4.3,1.2,6.5,1.8c3.4,1,6.9,2,10.5,2.8c2.1,0.5,4.2,1.2,6.2,2c3.3,1.2,6.8,2.5,10.3,2.4l0.2,0.2c0,0.1,0,0.1,0,0.2
								l0.4,0.1c0,0,0,0,0,0C106.1,124.6,106.2,124.6,106.4,124.6C106.3,124.6,106.4,124.6,106.4,124.6z"/>
							<path fill="#6A5C50" d="M106.4,124.6C106.4,124.6,106.3,124.6,106.4,124.6c-0.2,0-0.3,0-0.4-0.1L106.4,124.6z"/>
							<path fill="#A38F7F" d="M106.3,109.4c0.4,1.3,0.1,2.8-0.1,4.4c-0.1,1-0.3,1.9-0.3,2.9c0,0.7,0,1.4,0,2.1
								c0,1.6,0.1,3.2-0.2,4.7l-0.8,0.2l0.5,0.4c-3.6,0.1-7-1.2-10.3-2.4c-2-0.7-4.1-1.5-6.2-2c-3.6-0.8-7.1-1.8-10.5-2.8
								c-2.1-0.6-4.3-1.2-6.5-1.8c-2.3-0.6-4.8-1.1-7.1-1.6c-3.5-0.7-7.2-1.4-10.5-2.6c-4-1.4-7.8-2.9-11.6-4.4
								c-4.6-1.8-9.3-3.6-14.1-5.2c0-0.6,0.1-1.3,0.1-2.2c0.2-2.8,0.4-6.6-0.2-9c0.1,0,0.2,0,0.3-0.1l0,0.2c2.3-0.2,5.6,1.3,8.5,2.6
								c1.6,0.7,3.1,1.4,4.3,1.8c2.5,0.7,5.1,1.3,7.5,1.8c2.2,0.5,4.5,0.9,6.7,1.6l2.2,0.6c10.7,3,21.7,6.1,32.9,7.8
								c2.1,0.3,4.1,0.8,6.1,1.3C100,108.4,103,109.2,106.3,109.4z"/>
							<path fill="#6A5C50" d="M106,124.5l-0.4-0.1c0-0.1,0-0.1,0-0.2l0.1,0.1C105.8,124.4,105.8,124.4,106,124.5z"/>
							<path fill="#6A5C50" d="M104.9,123.7l0.8-0.2c0,0.2-0.1,0.4-0.1,0.6c-0.1,0-0.2,0-0.2,0L104.9,123.7z"/>
							<path fill="#6A5C50" d="M105.6,124.1c0,0.1,0,0.1,0,0.2l-0.2-0.2C105.5,124.1,105.5,124.1,105.6,124.1z"/>
							<path fill="#6A5C50" d="M28.7,89.4c0.8-0.1,1.8,0,2.7,0.3c-0.9,0.2-1.8,0.4-2.7,0.5L28.7,89.4z"/>
							<path fill="#6A5C50" d="M28.5,90.2c0.6,2.4,0.4,6.1,0.2,9c0,0.8-0.1,1.6-0.1,2.2c-0.3-0.1-0.7-0.2-1-0.3
								c0-0.6,0.1-1.2,0.1-1.9c0.2-3.1,0.5-7.4-0.4-9.4l0.4-0.2l0.1,0.8C28,90.3,28.2,90.3,28.5,90.2z"/>
							<path fill="#6A5C50" d="M28.5,101.4c0,0.2,0,0.3,0,0.5h-1c0-0.2,0-0.5,0-0.8C27.9,101.2,28.2,101.3,28.5,101.4z"/>
							<path fill="#6A5C50" d="M28.5,90.2c-0.2,0-0.4,0.1-0.7,0.1l-0.1-0.8l0.5-0.2C28.3,89.6,28.4,89.9,28.5,90.2z"/>
						</g>
					</g>
				</g>
			</g>
			<g id="water_surface_detail_1_">
				<g>
					<path fill="#6A5C50" d="M42.2,92.8c-0.3,0-0.6-0.1-0.9-0.2c-0.2,0-0.3-0.1-0.5-0.1c-0.1,0-0.2,0-0.3,0c-0.2,0-0.5-0.1-0.7-0.2
						c-0.1,0-0.2-0.1-0.3-0.1c-0.2-0.1-0.5-0.2-0.8-0.4c-0.1-0.1-0.2-0.1-0.2-0.2c-0.1-0.1-0.1-0.1-0.2-0.2c0,0-0.1,0-0.1-0.1
						c-0.1,0-0.2-0.1-0.2-0.1c-0.6-0.4-0.6-0.8-0.6-1.1c0.1-0.4,0.5-0.8,1.1-1c0.3-0.1,0.5-0.1,0.7,0c0.2,0,0.3,0,0.5,0
						c0.1,0,0.2,0,0.3-0.1c0.1,0,0.3-0.1,0.4-0.1c0.1,0,0.3,0,0.4,0c0.1,0,0.2,0,0.3,0c0.3-0.1,0.7-0.2,1-0.3
						c0.1-0.1,0.2-0.1,0.4-0.2c0.2-0.1,0.5-0.2,0.8-0.3l0.2-0.1c0.3-0.1,0.5-0.2,0.8-0.4c0.4-0.3,0.9-0.6,1.4-0.8
						c0.5-0.2,1.1-0.4,1.7-0.5c0.3-0.1,0.7-0.2,1-0.3c0.2-0.1,0.5-0.2,0.7-0.2c0.3-0.1,0.6-0.2,0.9-0.3c0.4-0.1,0.9-0.3,1.3-0.4
						c0.2-0.1,0.5-0.1,0.7-0.2c0.3-0.1,0.7-0.2,1-0.3c0.3-0.1,0.5-0.1,0.8-0.2c0.4-0.1,0.8-0.1,1.1-0.3l0.2,0.4
						c-0.4,0.2-0.8,0.3-1.2,0.3c-0.3,0.1-0.5,0.1-0.7,0.2c-0.4,0.1-0.7,0.2-1.1,0.3c-0.2,0.1-0.5,0.1-0.7,0.2
						c-0.4,0.1-0.9,0.3-1.3,0.4c-0.3,0.1-0.6,0.2-0.9,0.3c-0.2,0.1-0.4,0.1-0.6,0.2c-0.4,0.1-0.7,0.3-1.1,0.3
						c-0.5,0.1-1.1,0.2-1.6,0.4c-0.5,0.2-0.9,0.5-1.3,0.8c-0.3,0.2-0.6,0.3-0.9,0.4l-0.2,0.1c-0.2,0.1-0.5,0.2-0.7,0.3
						c-0.1,0.1-0.3,0.1-0.4,0.2c-0.3,0.1-0.8,0.3-1.1,0.3c-0.1,0-0.3,0-0.4,0c-0.1,0-0.2,0-0.3,0c-0.1,0-0.2,0-0.3,0.1
						c-0.1,0-0.3,0.1-0.4,0.1c-0.2,0-0.4,0-0.6,0c-0.2,0-0.4,0-0.6,0c-0.4,0.1-0.7,0.4-0.8,0.6c0,0.2,0.2,0.5,0.4,0.6
						c0,0,0.1,0,0.1,0c0.1,0,0.1,0.1,0.2,0.1c0.1,0.1,0.2,0.1,0.3,0.2c0.1,0.1,0.1,0.1,0.2,0.2c0.2,0.2,0.4,0.2,0.7,0.3
						c0.1,0,0.2,0.1,0.3,0.1c0.2,0.1,0.4,0.1,0.6,0.1c0.1,0,0.2,0,0.3,0c0.2,0,0.4,0.1,0.6,0.1c0.2,0.1,0.5,0.1,0.7,0.1c0,0,0,0,0,0
						L42.2,92.8C42.2,92.8,42.2,92.8,42.2,92.8z"/>
				</g>
				<g>
					<path fill="#6A5C50" d="M44.4,92.1C44.3,92,44.2,92,44,92c-0.1,0-0.1,0-0.2-0.1c-0.1,0-0.2-0.1-0.3-0.2
						c-0.1-0.1-0.2-0.1-0.3-0.1c-0.2,0-0.4-0.1-0.5-0.1l-0.2,0c-0.1,0-0.2,0-0.3,0c-0.2,0-0.4,0-0.6,0l-0.1,0l0-0.1
						c-0.1-0.4,0.5-0.7,1-0.9c0.1,0,0.2-0.1,0.2-0.1c0.3-0.2,0.6-0.3,0.8-0.5c0.3-0.2,0.7-0.4,1-0.6c1-0.5,2.2-1.1,3.4-1.2l0,0.5
						c-1.1,0.1-2.2,0.7-3.2,1.2c-0.3,0.2-0.7,0.4-1,0.5c-0.3,0.2-0.6,0.3-0.9,0.5c-0.1,0-0.2,0.1-0.3,0.1c-0.1,0-0.2,0.1-0.4,0.2
						c0.1,0,0.2,0,0.3,0l0.2,0c0.2,0,0.3,0.1,0.5,0.1c0.2,0,0.4,0.1,0.5,0.2c0.1,0,0.2,0.1,0.2,0.1c0.1,0,0.1,0,0.2,0.1
						c0.2,0,0.3,0.1,0.5,0.2L44.4,92.1z"/>
				</g>
				<g>
					<path fill="#6A5C50" d="M102.1,72.1l0-0.1l-0.3-0.1l0.1-0.3l0.2,0c0.3-0.1,0.7-0.2,1-0.3c0.2-0.1,0.3-0.1,0.5-0.2
						c0.4-0.1,0.7-0.2,1.1-0.3c0.3-0.1,0.6-0.1,0.9-0.2c0.5-0.2,0.9-0.3,1.4-0.4c0.4-0.1,0.8-0.2,1.2-0.4c0.2-0.1,0.3-0.1,0.5-0.1
						c0.2,0,0.3-0.1,0.5-0.1c0.1,0,0.1-0.1,0.1-0.1c0,0,0-0.2,0.1-0.3c0.2-0.3,0.5-0.5,0.8-0.7l0.2-0.1c0.2-0.1,0.3-0.1,0.4-0.1
						c0,0,0.1,0,0.2,0c0,0,0.1,0,0.2-0.1c0.1,0,0.3-0.1,0.4-0.1c0.1,0,0.3,0,0.4,0c0.1,0,0.2,0,0.3,0c0.1,0,0.1,0,0.1,0
						c0.1,0,0.2-0.1,0.4-0.1c0.1,0,0.2,0,0.3-0.1c0.1,0,0.2-0.1,0.3-0.1c0.2,0,0.4,0,0.5,0.1c0,0,0.1,0,0.1,0c0.1,0,0.3,0.1,0.4,0.1
						c0.3,0.1,0.6,0.1,0.8,0.2c0.2,0,0.3,0,0.4,0c0.4,0,0.7,0,1.1,0.1c0.2,0,0.3,0,0.5,0c0.1,0,0.2,0,0.3,0c0.2,0,0.4,0,0.6,0.1
						l0.2,0c0.5,0.1,1.1,0.2,1.6,0.2c0.6,0,1.2,0.1,1.7,0.2l0.4,0.1c0.2,0,0.4,0,0.6,0c0.1,0,0.2,0,0.3,0c0.3,0,0.5,0.1,0.6,0.1
						c0.1,0,0.2,0.1,0.3,0.1l0.2,0c0.6,0.1,1.1,0.2,1.7,0.3c0.5,0.1,1,0.2,1.5,0.3l0.4,0c0.4,0.1,0.8,0.1,1.1,0.2
						c0.5,0.1,0.9,0.2,1.4,0.2l0,0.5c-0.5,0-1-0.1-1.5-0.3c-0.4-0.1-0.7-0.2-1.1-0.2l-0.4,0c-0.5-0.1-1.1-0.1-1.6-0.3
						c-0.5-0.2-1.1-0.2-1.6-0.3l-0.2,0c-0.1,0-0.3-0.1-0.4-0.1c-0.2,0-0.3-0.1-0.5-0.1c-0.1,0-0.2,0-0.3,0c-0.2,0-0.5,0-0.7,0
						l-0.4-0.1c-0.6-0.1-1.1-0.2-1.7-0.2c-0.5,0-1.1-0.1-1.7-0.2l-0.2,0c-0.2,0-0.3-0.1-0.4-0.1c-0.1,0-0.2,0-0.2,0
						c-0.2,0-0.4,0-0.7,0c-0.3-0.1-0.6-0.1-1-0.1c-0.1,0-0.3,0-0.5,0c-0.3,0-0.6-0.1-0.9-0.2c-0.1,0-0.3-0.1-0.4-0.1
						c-0.1,0-0.1,0-0.2,0c-0.1,0-0.2-0.1-0.3,0c-0.1,0-0.2,0-0.2,0.1c-0.1,0-0.3,0.1-0.5,0.1c-0.1,0-0.2,0-0.3,0.1
						c-0.1,0-0.1,0-0.2,0.1c-0.1,0-0.3,0-0.4,0c-0.1,0-0.2,0-0.3,0c-0.1,0-0.2,0.1-0.3,0.1c-0.1,0-0.1,0-0.2,0.1
						c-0.1,0-0.1,0-0.2,0.1c-0.1,0-0.2,0-0.2,0.1l-0.2,0.1c-0.3,0.1-0.5,0.3-0.6,0.5c0,0,0,0.1,0,0.1c0,0.2-0.1,0.4-0.4,0.5
						c-0.2,0.1-0.4,0.1-0.6,0.1c-0.1,0-0.3,0.1-0.4,0.1c-0.4,0.1-0.8,0.3-1.2,0.4c-0.5,0.1-0.9,0.3-1.4,0.4c-0.3,0.1-0.6,0.2-1,0.3
						c-0.3,0.1-0.7,0.2-1,0.3c-0.1,0-0.3,0.1-0.4,0.2C102.9,71.9,102.5,72.1,102.1,72.1z"/>
				</g>
				<g>
					<path fill="#6A5C50" d="M123.7,71.3c-0.5,0-1-0.1-1.4-0.3c-0.5-0.1-1-0.2-1.5-0.3c-0.3,0-0.7,0-1,0c-0.2,0-0.4,0-0.6,0l-0.4,0
						c-0.3,0-0.6,0-0.9,0l-0.1,0c-0.2,0-0.4,0-0.6,0c-0.1,0-0.2-0.1-0.2-0.1c0,0,0,0-0.1,0c-0.1,0-0.2,0-0.3,0
						c-0.1,0-0.2-0.1-0.4-0.1c-0.1,0-0.2-0.1-0.4-0.1c-0.1,0-0.3,0-0.4-0.1c-0.3-0.1-0.7-0.1-1-0.1c-0.3,0-0.6,0-0.9,0
						c-0.3,0-0.5,0-0.8,0c0,0,0,0,0,0c-0.6,0-0.9,0.1-1.5,0.3c-0.1,0-0.2,0.1-0.3,0.1c-0.4,0.1-0.8,0.3-1.1,0.3l0.1-0.5
						c0.2,0,0.6-0.1,0.8-0.2c0.1-0.1,0.3-0.1,0.4-0.1c0.6-0.2,1-0.3,1.7-0.3c0,0,0.1,0,0.1,0c0.2,0,0.5,0,0.7,0c0.3,0,0.6,0,0.9,0
						c0.4,0,0.7,0.1,1.1,0.1c0.1,0,0.3,0,0.4,0.1c0.2,0,0.3,0.1,0.4,0.1c0.1,0,0.2,0.1,0.3,0.1c0,0,0.1,0,0.1,0c0.1,0,0.2,0,0.3,0
						c0.1,0,0.2,0.1,0.2,0.1c0.1,0,0.2,0,0.4,0l0.1,0c0.3,0,0.6,0,0.9,0l0.4,0c0.2,0,0.4,0,0.6,0c0.3,0,0.7,0,1,0
						c0.5,0,1.1,0.1,1.6,0.3c0.5,0.1,0.9,0.2,1.3,0.2L123.7,71.3z"/>
				</g>
				<g>
					<path fill="#6A5C50" d="M154.8,94.4l-0.2-0.5c1.3-0.6,2.6-1.1,3.9-1.6c0.9-0.4,1.9-0.7,2.8-1.1c1.2-0.5,2.4-0.8,3.5-1.1
						l0.7-0.2c1.3-0.3,2.5-0.7,3.7-1.2c0.3-0.1,0.5-0.3,0.8-0.4c0.5-0.3,1-0.6,1.6-0.6c1-0.2,2.2-0.5,3.4-0.9
						c0.8-0.3,1.6-0.5,2.3-0.8l0.8-0.3c0.4-0.1,0.8-0.4,1.3-0.6c0.6-0.3,1.2-0.6,1.8-0.8c0.1,0,0.2,0,0.3-0.1c0.2,0,0.6-0.1,0.7-0.3
						c0,0,0,0,0-0.1c0-0.2-0.3-0.4-0.5-0.5c-0.1-0.1-0.2-0.2-0.2-0.2c-0.2-0.2-0.3-0.2-0.7-0.2l-0.2,0c-0.5,0-0.8,0-1.3-0.2
						c-0.7-0.2-1.4-0.3-2.1-0.4c-0.5-0.1-1-0.1-1.5-0.2c-1.1-0.3-2.2-0.3-3.4-0.3v-0.5c1.3,0,2.4,0.1,3.6,0.3c0.5,0.1,1,0.2,1.4,0.2
						c0.7,0.1,1.5,0.2,2.2,0.4c0.4,0.1,0.7,0.2,1.2,0.2l0.2,0c0.4,0,0.7,0,1.1,0.4c0.1,0.1,0.1,0.1,0.2,0.2c0.3,0.2,0.6,0.5,0.6,0.8
						c0,0.2,0,0.3-0.1,0.5c-0.2,0.3-0.7,0.4-1,0.5c-0.1,0-0.2,0-0.2,0c-0.6,0.2-1.2,0.4-1.7,0.7c-0.4,0.2-0.9,0.4-1.3,0.6l-0.8,0.3
						c-0.8,0.3-1.6,0.6-2.4,0.8c-1.2,0.4-2.4,0.7-3.5,0.9c-0.5,0.1-0.9,0.3-1.4,0.6c-0.3,0.2-0.6,0.3-0.9,0.4
						c-1.2,0.5-2.4,0.9-3.7,1.2l-0.7,0.2c-1.2,0.3-2.3,0.6-3.5,1.1c-0.9,0.4-1.9,0.8-2.9,1.1C157.4,93.3,156.1,93.8,154.8,94.4z"/>
				</g>
				<g>
					<path fill="#6A5C50" d="M163.6,89.1l-0.2-0.5c0.5-0.2,0.9-0.4,1.4-0.6c0.9-0.4,1.7-0.7,2.6-1c0.6-0.2,1.3-0.3,1.9-0.5
						c0.5-0.1,1-0.2,1.4-0.4c0.1,0,0.3-0.1,0.4-0.1c0.1-0.1,0.3-0.1,0.5-0.2c0.4-0.1,0.6-0.2,0.9-0.3c0.1-0.1,0.3-0.1,0.4-0.2
						c0.2-0.1,0.5-0.2,0.7-0.3c0.4-0.2,0.6-0.4,0.6-0.7c0-0.2-0.1-0.3-0.2-0.5c0-0.1-0.1-0.1-0.1-0.2l0.4-0.2c0,0.1,0.1,0.1,0.1,0.2
						c0.1,0.2,0.3,0.5,0.3,0.7c0,0.7-0.5,1-0.8,1.2c-0.3,0.2-0.5,0.3-0.8,0.4c-0.1,0.1-0.3,0.1-0.4,0.2c-0.3,0.2-0.6,0.2-1,0.3
						c-0.1,0-0.3,0.1-0.4,0.1c-0.2,0.1-0.3,0.1-0.5,0.2c-0.5,0.1-1,0.2-1.4,0.4c-0.6,0.2-1.3,0.3-1.9,0.5c-0.9,0.2-1.7,0.6-2.6,0.9
						C164.6,88.7,164.1,88.9,163.6,89.1z"/>
				</g>
				<g>
					<path fill="#6A5C50" d="M104.1,106.1c-0.6,0-1.1-0.1-1.7-0.2c-0.7-0.1-1.2-0.3-1.8-0.3c-0.4,0-0.8-0.1-1.1-0.1
						c-0.3,0-0.6,0-0.9-0.1c-0.4,0-0.8-0.1-1.1-0.2c-0.2,0-0.3-0.1-0.5-0.1c-0.1,0-0.2,0-0.3-0.1c-0.2-0.1-0.4-0.1-0.5-0.1l-0.1-0.5
						c0.2,0,0.5,0,0.8,0.1c0.1,0,0.2,0.1,0.2,0.1c0.2,0,0.3,0.1,0.5,0.1c0.3,0.1,0.7,0.2,1.1,0.2c0.3,0,0.6,0,0.9,0.1
						c0.4,0,0.8,0.1,1.1,0.1c0.6,0.1,1.3,0.2,1.9,0.3c0.7,0.1,1.4,0.3,2,0.2c0.2,0,0.4-0.1,0.6-0.2c0.1,0,0.2-0.1,0.3-0.1
						c0.3-0.1,0.5-0.2,0.9-0.2l0.2,0c0.2,0,0.4,0,0.6,0c0.2,0,0.4-0.1,0.7-0.1c0.2,0,0.3,0,0.5-0.1c0.3-0.1,0.7-0.1,1-0.2
						c0.3-0.1,0.7-0.2,1.1-0.2c0.4-0.1,0.7-0.1,1.1-0.2c1-0.1,2-0.3,2.9-0.7c0.5-0.2,1.1-0.4,1.6-0.5c0.3-0.1,0.5-0.1,0.7-0.2
						c0.3-0.1,0.5-0.1,0.8-0.1c0.3,0,0.6-0.1,0.8-0.2c0.1,0,0.2-0.1,0.3-0.1c0.2-0.1,0.4-0.2,0.7-0.2l0,0.5c-0.2,0-0.3,0.1-0.5,0.2
						c-0.1,0.1-0.2,0.1-0.3,0.1c-0.3,0.1-0.6,0.2-0.9,0.2c-0.3,0-0.5,0.1-0.7,0.1c-0.3,0.1-0.5,0.1-0.8,0.2
						c-0.5,0.1-1.1,0.3-1.5,0.5c-0.9,0.4-2,0.6-3,0.7c-0.4,0-0.7,0.1-1.1,0.2c-0.3,0.1-0.7,0.2-1,0.2c-0.3,0.1-0.7,0.2-1.1,0.2
						c-0.2,0-0.3,0-0.5,0.1c-0.2,0-0.4,0-0.6,0.1c-0.2,0.1-0.5,0.1-0.7,0l-0.2,0c-0.3,0-0.4,0-0.7,0.1c-0.1,0-0.2,0.1-0.3,0.1
						c-0.2,0.1-0.5,0.2-0.8,0.2C104.4,106.1,104.3,106.1,104.1,106.1z"/>
				</g>
				<g>
					<path fill="#6A5C50" d="M100.2,104.4l-0.1-0.5c0.1,0,0.2,0,0.2-0.1c0.1,0,0.3-0.1,0.4-0.1l0.2,0c0.2,0,0.4,0,0.6-0.1
						c0.5-0.1,1.1-0.1,1.7-0.1c0.5,0,0.9,0,1.3,0c1.1,0,2.2,0,3.2-0.3c0.3-0.1,0.5-0.1,0.8-0.2c0.2-0.1,0.5-0.1,0.7-0.2
						c0.4-0.1,0.9-0.3,1.3-0.4c0.2,0,0.4-0.1,0.5-0.1c0.3-0.1,0.6-0.1,0.9-0.2c0.3-0.1,0.7-0.2,1.1-0.4c0.5-0.2,1.1-0.4,1.7-0.5
						l0,0.5c-0.5,0-1,0.3-1.5,0.4c-0.4,0.1-0.7,0.3-1.1,0.4c-0.3,0.1-0.6,0.1-0.9,0.2c-0.2,0-0.4,0.1-0.5,0.1
						c-0.4,0.1-0.8,0.2-1.2,0.3c-0.3,0.1-0.5,0.1-0.8,0.2c-0.2,0.1-0.5,0.1-0.7,0.2c-1.1,0.4-2.3,0.3-3.4,0.3c-0.4,0-0.9,0-1.3,0
						c-0.5,0-1.1,0-1.5,0.1c-0.3,0.1-0.4,0.1-0.7,0.1l-0.1,0c-0.1,0-0.2,0-0.3,0.1C100.5,104.4,100.4,104.4,100.2,104.4z"/>
				</g>
				<g>
					<path fill="#6A5C50" d="M106.2,102.6c-0.2,0-0.4,0-0.6,0c-0.2,0-0.4,0-0.6,0v-0.5c0.2,0,0.4,0,0.6,0c0.3,0,0.7,0,1,0
						c0.2,0,0.5,0,0.7-0.1c0.3,0,0.6-0.1,1-0.1c0.5,0,0.9,0,1.3-0.1c0.3-0.1,0.5-0.2,0.8-0.2c0.3-0.1,0.6-0.2,1-0.3l0.1,0.5
						c-0.3,0.1-0.6,0.2-0.9,0.3c-0.3,0.1-0.5,0.2-0.8,0.3c-0.5,0.1-0.9,0.1-1.4,0.1c0,0,0,0,0,0c-0.3,0-0.6,0-0.9,0.1
						c-0.2,0-0.5,0.1-0.7,0.1C106.5,102.6,106.3,102.6,106.2,102.6z"/>
				</g>
				<g>
					<path fill="#6A5C50" d="M108.7,83.5c-0.1,0-0.2,0-0.3,0c-0.1,0-0.2-0.1-0.2-0.1c-0.5-0.1-1.2-0.1-1.8-0.1c-0.3,0-0.6,0-0.9,0
						c0,0,0,0,0,0l-0.2,0c-0.3,0-0.6,0-0.9-0.2c-0.1,0-0.2-0.1-0.2-0.1c-0.1-0.1-0.2-0.1-0.3-0.2c-0.5-0.1-1-0.1-1.6-0.1
						c-0.2,0-0.5,0-0.7,0h-3.9c-1.9,0-3.7,0.2-5.5,0.4c-0.7,0.1-1.5,0.2-2.2,0.2l0-0.5c0.8-0.1,1.5-0.2,2.2-0.2
						c1.8-0.2,3.7-0.4,5.6-0.4h3.9c0.2,0,0.4,0,0.7,0c0.6,0,1.2-0.1,1.7,0.1c0.2,0.1,0.4,0.2,0.5,0.3c0.1,0,0.1,0.1,0.2,0.1
						c0.2,0.1,0.4,0.1,0.6,0.1l0.2,0c0,0,0,0,0,0c0.3,0,0.5,0,0.8,0c0.6,0,1.3-0.1,1.9,0c0.1,0,0.2,0.1,0.2,0.1c0.1,0,0.3,0,0.4,0
						c0.1,0,0.2,0,0.3,0h1.5v0.5h-1.5c-0.1,0-0.1,0-0.2,0C108.9,83.5,108.8,83.5,108.7,83.5z"/>
				</g>
				<g>
					<path fill="#6A5C50" d="M108.4,82c-0.2,0-0.3-0.1-0.3-0.1c-0.1,0-0.2,0-0.4,0c-0.1,0-0.2,0-0.2,0c-0.2,0-0.5,0-0.7,0
						c-0.1,0-0.2-0.1-0.3-0.1c-0.1,0-0.2-0.1-0.4-0.1c-0.3,0-0.5,0-0.8,0l-0.4,0l-0.6,0c-0.8,0-1.7,0-2.5-0.1c-0.3-0.1-0.6,0-0.9,0
						l-0.2,0c0,0,0,0,0,0c-0.3,0-0.4,0-0.6-0.1c-0.1,0-0.2-0.1-0.3-0.1l0.1-0.5c0.1,0,0.3,0.1,0.4,0.1c0.2,0,0.3,0.1,0.5,0.1
						c0,0,0,0,0,0l0.2,0c0.3,0,0.6,0,1,0c0.8,0.1,1.6,0.1,2.4,0.1l0.6,0l0.4,0c0.3,0,0.5,0,0.8,0c0,0,0,0,0,0c0.3,0,0.4,0.1,0.6,0.1
						c0.1,0,0.1,0,0.2,0.1c0.1,0,0.3,0,0.5,0c0.1,0,0.3,0,0.4,0c0.2,0,0.3,0,0.4,0c0.1,0,0.2,0.1,0.2,0.1l0.2,0.5
						C108.5,82,108.5,82,108.4,82z"/>
				</g>
				<g>
					<path fill="#6A5C50" d="M96.3,85.3c-0.2,0-0.3,0-0.4,0c-0.2,0-0.3-0.1-0.4-0.1c-0.1,0-0.1,0-0.2-0.1c0,0-0.1,0-0.2,0
						c-0.1,0-0.2,0-0.3,0c-0.1,0-0.2-0.1-0.3-0.1c-0.1,0-0.2-0.1-0.3-0.1c-0.1,0-0.3,0-0.4,0c-0.1,0-0.2,0-0.2,0h-1.2
						c-0.4,0-0.8-0.1-1.3-0.1c-0.6-0.1-1.1-0.1-1.7-0.1c-0.1,0-0.3,0-0.4,0.1c-0.2,0-0.3,0.1-0.5,0.1c-0.2,0-0.4,0-0.6,0
						c-0.1,0-0.2,0-0.3,0H86v-0.5h1.5c0.1,0,0.2,0,0.4,0c0.2,0,0.4,0,0.6,0c0.1,0,0.3,0,0.4-0.1c0.1,0,0.3-0.1,0.4-0.1
						c0.6-0.1,1.2,0,1.8,0.1c0.4,0.1,0.8,0.1,1.2,0.1l1.4,0c0.2,0,0.3,0,0.4,0c0.2,0,0.3,0.1,0.5,0.1c0.1,0,0.2,0.1,0.2,0.1
						c0,0,0.1,0,0.2,0c0.1,0,0.2,0,0.4,0c0.1,0,0.2,0.1,0.3,0.1c0.1,0,0.1,0.1,0.2,0.1c0.2,0,0.5,0,0.6,0c0,0,0,0,0.1-0.1
						c0.1-0.1,0.3-0.2,0.5-0.1L97,85.1c0,0-0.1,0-0.1,0c-0.1,0-0.1,0.1-0.3,0.1C96.5,85.3,96.4,85.3,96.3,85.3z"/>
				</g>
				<g>
					<path fill="#6A5C50" d="M155.5,85.1c-0.2,0-0.4,0-0.6,0c-0.4,0-0.7,0-1.1,0c-0.3,0-0.5,0-0.8,0c-0.2,0-0.4-0.1-0.5-0.1
						c-0.1,0-0.3-0.1-0.4-0.1l-0.1,0c-0.5,0-1.2-0.1-1.7,0c-0.2,0-0.3,0-0.4,0.1c-0.3,0-0.5,0.1-0.8,0.1c-0.3,0-0.7,0-1,0l-0.3,0
						c0,0,0,0,0,0c-0.3,0-0.6,0-0.9-0.1c-0.3,0-0.6-0.1-0.9-0.1c0,0,0,0,0,0c-0.5,0-1,0-1.5,0l-0.7,0v-0.5l0.7,0c0.5,0,1,0,1.4,0
						c0,0,0,0,0,0c0.3,0,0.6,0,0.9,0.1c0.3,0,0.6,0.1,0.9,0.1c0,0,0,0,0,0l0.3,0c0.3,0,0.7,0,1,0c0.3,0,0.5,0,0.7-0.1
						c0.1,0,0.3-0.1,0.5-0.1c0.5-0.1,1.2,0,1.8,0l0.1,0c0.2,0,0.4,0.1,0.5,0.1c0.1,0,0.3,0.1,0.4,0.1c0.3,0,0.5,0,0.8,0
						c0.4,0,0.7,0,1.1,0c0.4,0,0.8,0,1.2,0c0.1,0,0.3,0,0.4-0.1c0.2,0,0.4-0.1,0.6-0.1c0.2,0,0.4,0,0.6,0.1c0.1,0,0.2,0.1,0.3,0.1
						c0.4,0,0.8-0.1,1.2-0.2c0.4-0.1,0.8-0.3,1.2-0.3l0,0.5c-0.3,0-0.7,0.1-1.1,0.2c-0.4,0.2-0.9,0.3-1.4,0.3
						c-0.2,0-0.3-0.1-0.4-0.1c-0.2,0-0.3-0.1-0.4-0.1c-0.2,0-0.3,0-0.5,0.1c-0.2,0-0.3,0.1-0.5,0.1
						C155.8,85.1,155.7,85.1,155.5,85.1z"/>
				</g>
				<g>
					<path fill="#6A5C50" d="M158.1,86.7c-0.5,0-0.9,0-1.3-0.1c-0.6-0.2-1.4-0.1-2.2-0.1c-0.5,0-1,0-1.5,0c-0.5,0-1-0.1-1.5,0.1
						l-0.1,0c-0.3,0.1-0.5,0.1-0.8,0.1c-0.2,0-0.3-0.1-0.5-0.1c-0.1,0-0.2-0.1-0.3-0.1l0.1-0.5c0.1,0,0.2,0.1,0.4,0.1
						c0.1,0,0.2,0.1,0.4,0.1c0.3,0,0.5,0,0.7-0.1l0.1,0c0.5-0.1,1.1-0.1,1.6-0.1c0.5,0,1,0,1.5,0c0.8,0,1.6-0.1,2.4,0.1
						c0.6,0.2,1.3,0.1,2.1,0.1c0.3,0,0.6,0,0.8,0h1.7c0,0,0,0,0,0c0.3,0,0.6,0,0.8-0.1c0.3,0,0.6-0.1,0.9-0.1v0.5
						c-0.3,0-0.6,0-0.8,0.1c-0.3,0-0.6,0.1-0.9,0.1c0,0,0,0,0,0h-1.7c-0.3,0-0.5,0-0.8,0C158.7,86.6,158.4,86.7,158.1,86.7z"/>
				</g>
			</g>
		</g>
	</g>
</g>
<g id="ch06-02-3">
	<g id="Layer_28">
	</g>
	<g id="hand_1_" display="none">
	</g>
	<g id="hand_x5F_copy" display="none">
	</g>
	<g id="hand_new">
	</g>
	<g id="hand_new_copy">
	</g>
</g>
<g id="ch05-08-3">
	<g id="main_x5F_comp-path_backup_copy">
	</g>
	<g id="main_x5F_comp_2_">
	</g>
</g>
<g id="ch04-07-2">
	<g id="new_base_1_">
	</g>
	<g id="hand">
	</g>
</g>
<g id="ch04-06-1">
	<g id="paths_1_" display="none">
		<g id="Layer_15_copy" display="inline">
		</g>
	</g>
	<g id="hand_w_jug_x5F_comp">
	</g>
	<g id="hand_w_jug_copy">
	</g>
</g>
<g id="ch04-03-2">
	<g id="paths" display="none">
		<g id="nose_x5F_34_x5F_side_path_x5D_" display="inline">
		</g>
		<g id="nose_x5F_34_x5F_side_path_x5D__copy" display="inline">
		</g>
	</g>
	<g id="main_comp_1_">
		<g id="base">
		</g>
		<g id="nose_x5F_34_x5F_side">
		</g>
		<g id="LID">
		</g>
	</g>
	<g id="base_copy">
	</g>
	<g id="nose_x5F_34_x5F_side_copy">
	</g>
	<g id="LID_copy">
	</g>
</g>
<g id="ch04-02-1">
	<g id="backup">
	</g>
</g>
<g id="ch07-12-4">
	<g id="hand_x5F_far">
	</g>
	<g id="hand_x5F_close_1_">
	</g>
	<g id="hand_x5F_far_copy">
	</g>
	<g id="hand_x5F_close_copy">
	</g>
</g>
<g id="ch08-04-1">
</g>
<g id="ch08-11-1">
	<g id="safety_x5F_copy" display="none">
		<g id="nose_copy" display="inline">
		</g>
		<g id="spout_copy" display="inline">
		</g>
		<g id="water_copy_2" display="inline">
		</g>
		<g id="sand_copy_2" display="inline">
		</g>
		<g id="back_copy_2" display="inline">
		</g>
		<g id="side_copy" display="inline">
		</g>
	</g>
	<g id="back_2_">
	</g>
	<g id="water" opacity="0.5">
	</g>
	<g id="sand">
	</g>
	<g id="side">
	</g>
	<g id="nose_7_">
	</g>
	<g id="spout_1_">
	</g>
	<g id="water_copy" opacity="0.5">
	</g>
	<g id="sand_copy">
	</g>
	<g id="nose_copy_2">
	</g>
	<g id="nose_copy_3">
	</g>
	<g id="back_copy">
	</g>
	<g id="back_copy_3">
	</g>
	<g id="side_copy_2">
	</g>
	<g id="side_copy_3">
	</g>
	<g id="spout_copy_2">
	</g>
	<g id="spout_copy_3">
	</g>
</g>
<g id="ch03-30-7">
</g>
<g id="ch03-30-8">
</g>
</svg>
