<?xml version="1.0" encoding="utf-8"?>
<!-- Generator: Adobe Illustrator 18.1.1, SVG Export Plug-In . SVG Version: 6.00 Build 0)  -->
<!DOCTYPE svg PUBLIC "-//W3C//DTD SVG 1.1//EN" "http://www.w3.org/Graphics/SVG/1.1/DTD/svg11.dtd">
<svg version="1.1" xmlns="http://www.w3.org/2000/svg" xmlns:xlink="http://www.w3.org/1999/xlink" x="0px" y="0px"
	 viewBox="0 0 208 393.6" enable-background="new 0 0 208 393.6" xml:space="preserve">
<g id="ch06-05-1">
	<g id="paths_backup" display="none">
	</g>
</g>
<g id="ch02A-08-2">
	<g id="bsf_contents">
		<g id="separation_gravel_copy">
		</g>
		<g id="spout_4_">
			<g id="XMLID_70_">
				<g>
					<path d="M178.5,73.6c1.8,6.1,2.4,13.6,1.1,19.9c0,0.1,0,0.2-0.1,0.2c-2,0.4-6.6,1.5-7.9-1.1c-0.3-0.7-0.2-1.5-0.1-2.3
						c0.2-3.3,0.2-6.5,0-9.8c-0.3-3.8-1.3-7.7-5.5-9c-2.2-0.7-4.6-0.8-6.8-0.3c-0.3-0.5-0.4-1-0.4-1.5c5.2-1.1,11.3,0.6,12.6,6.5
						c0.6,2.6,0.6,5.5,0.6,8.2c0,1.5,0,3,0,4.5c0,0.3-0.3,2.2-0.3,2.3c0.3,0.9,1.7,1.2,2.4,1.3c1.2,0.2,4.5,0.3,5.1-0.5
						c0.5-0.7,0.3-3.2,0.4-4c0.2-4.7,0-10.5-1.9-14.7c-2.8-6.3-11.4-7.9-17.4-6.8c-0.3,0-0.6,0.1-0.9,0.2c0.4-0.7,0.9-1.4,1.5-2
						c2.6-0.3,5.2-0.3,7.5,0.4C173,66.3,177.1,68.9,178.5,73.6z"/>
					<path fill="#FFFFFF" d="M177.8,73.4c1.9,4.2,2.1,10,1.9,14.7c0,0.8,0.2,3.3-0.4,4c-0.6,0.8-3.9,0.8-5.1,0.5
						c-0.8-0.1-2.2-0.4-2.4-1.3c-0.1-0.2,0.2-2.1,0.3-2.3c0.1-1.5,0.1-3,0-4.5c-0.1-2.7,0-5.5-0.6-8.2c-1.3-5.9-7.4-7.6-12.6-6.5
						c-0.1-1,0.2-2.1,0.7-3.1c0.3-0.1,0.6-0.1,0.9-0.2C166.5,65.5,175,67.1,177.8,73.4z"/>
				</g>
			</g>
		</g>
	</g>
</g>
<g id="ch06-02-3">
	<g id="Layer_28">
	</g>
	<g id="hand_1_" display="none">
	</g>
	<g id="hand_x5F_copy" display="none">
	</g>
	<g id="hand_new">
	</g>
	<g id="hand_new_copy">
	</g>
</g>
<g id="ch05-08-3">
	<g id="main_x5F_comp-path_backup_copy">
	</g>
	<g id="main_x5F_comp_2_">
	</g>
</g>
<g id="ch04-07-2">
	<g id="new_base_1_">
	</g>
	<g id="hand">
	</g>
</g>
<g id="ch04-06-1">
	<g id="paths_1_" display="none">
		<g id="Layer_15_copy" display="inline">
		</g>
	</g>
	<g id="hand_w_jug_x5F_comp">
	</g>
	<g id="hand_w_jug_copy">
	</g>
</g>
<g id="ch04-03-2">
	<g id="paths" display="none">
		<g id="nose_x5F_34_x5F_side_path_x5D_" display="inline">
		</g>
		<g id="nose_x5F_34_x5F_side_path_x5D__copy" display="inline">
		</g>
	</g>
	<g id="main_comp_1_">
		<g id="base">
		</g>
		<g id="nose_x5F_34_x5F_side">
		</g>
		<g id="LID">
		</g>
	</g>
	<g id="base_copy">
	</g>
	<g id="nose_x5F_34_x5F_side_copy">
	</g>
	<g id="LID_copy">
	</g>
</g>
<g id="ch04-02-1">
	<g id="backup">
	</g>
</g>
<g id="ch07-12-4">
	<g id="hand_x5F_far">
	</g>
	<g id="hand_x5F_close_1_">
	</g>
	<g id="hand_x5F_far_copy">
	</g>
	<g id="hand_x5F_close_copy">
	</g>
</g>
<g id="ch08-04-1">
</g>
<g id="ch08-11-1">
	<g id="safety_x5F_copy" display="none">
		<g id="nose_copy" display="inline">
		</g>
		<g id="spout_copy" display="inline">
		</g>
		<g id="water_copy_2" display="inline">
		</g>
		<g id="sand_copy_2" display="inline">
		</g>
		<g id="back_copy_2" display="inline">
		</g>
		<g id="side_copy" display="inline">
		</g>
	</g>
	<g id="back_2_">
	</g>
	<g id="water" opacity="0.5">
	</g>
	<g id="sand">
	</g>
	<g id="side">
	</g>
	<g id="nose_7_">
	</g>
	<g id="spout_1_">
	</g>
	<g id="water_copy" opacity="0.5">
	</g>
	<g id="sand_copy">
	</g>
	<g id="nose_copy_2">
	</g>
	<g id="nose_copy_3">
	</g>
	<g id="back_copy">
	</g>
	<g id="back_copy_3">
	</g>
	<g id="side_copy_2">
	</g>
	<g id="side_copy_3">
	</g>
	<g id="spout_copy_2">
	</g>
	<g id="spout_copy_3">
	</g>
</g>
<g id="ch03-30-7">
</g>
<g id="ch03-30-8">
</g>
</svg>
