<?xml version="1.0" encoding="utf-8"?>
<!-- Generator: Adobe Illustrator 18.1.1, SVG Export Plug-In . SVG Version: 6.00 Build 0)  -->
<!DOCTYPE svg PUBLIC "-//W3C//DTD SVG 1.1//EN" "http://www.w3.org/Graphics/SVG/1.1/DTD/svg11.dtd">
<svg version="1.1" xmlns="http://www.w3.org/2000/svg" xmlns:xlink="http://www.w3.org/1999/xlink" x="0px" y="0px"
	 viewBox="0 0 374.3 577.5" enable-background="new 0 0 374.3 577.5" xml:space="preserve">
<g id="ch06-05-1">
	<g id="paths_backup">
	</g>
</g>
<g id="bsf_x5F_lid">
</g>
<g id="Layer_69">
</g>
<g id="ch02A-08-2">
	<g id="bsf_contents">
		<g id="separation_gravel_copy">
		</g>
	</g>
</g>
<g id="ch06-02-3">
	<g id="Layer_28">
	</g>
	<g id="hand_1_">
	</g>
	<g id="hand_x5F_copy">
	</g>
	<g id="hand_new">
	</g>
	<g id="hand_new_copy">
	</g>
</g>
<g id="ch05-08-3">
	<g id="main_x5F_comp-path_backup_copy">
	</g>
	<g id="main_x5F_comp_2_">
	</g>
</g>
<g id="ch04-07-2">
	<g id="new_base_1_">
	</g>
	<g id="hand">
	</g>
</g>
<g id="ch04-06-1">
	<g id="paths_1_">
		<g id="Layer_15_copy">
		</g>
	</g>
	<g id="hand_w_jug_x5F_comp">
	</g>
	<g id="hand_w_jug_copy">
	</g>
</g>
<g id="ch04-03-2">
	<g id="paths">
		<g id="nose_x5F_34_x5F_side_path_x5D_">
		</g>
		<g id="nose_x5F_34_x5F_side_path_x5D__copy">
		</g>
	</g>
	<g id="main_comp_1_">
		<g id="base">
		</g>
		<g id="nose_x5F_34_x5F_side">
		</g>
		<g id="LID">
		</g>
	</g>
	<g id="base_copy">
	</g>
	<g id="nose_x5F_34_x5F_side_copy">
	</g>
	<g id="LID_copy">
	</g>
</g>
<g id="ch04-02-1">
	<g id="backup">
	</g>
</g>
<g id="ch07-12-4">
	<g id="hand_x5F_far">
	</g>
	<g id="hand_x5F_close_1_">
	</g>
	<g id="hand_x5F_far_copy">
	</g>
	<g id="hand_x5F_close_copy">
	</g>
</g>
<g id="ch08-04-1">
</g>
<g id="ch08-11-1">
	<g id="safety_x5F_copy">
		<g id="nose_copy">
		</g>
		<g id="spout_copy">
		</g>
		<g id="water_copy_2">
		</g>
		<g id="sand_copy_2">
		</g>
		<g id="back_copy_2">
		</g>
		<g id="side_copy">
		</g>
	</g>
	<g id="back_2_">
	</g>
	<g id="water" opacity="0.5">
	</g>
	<g id="sand">
	</g>
	<g id="side">
	</g>
	<g id="nose_7_">
	</g>
	<g id="spout_1_">
	</g>
	<g id="water_copy" opacity="0.5">
	</g>
	<g id="sand_copy">
	</g>
	<g id="nose_copy_2">
	</g>
	<g id="nose_copy_3">
	</g>
	<g id="back_copy">
	</g>
	<g id="back_copy_3">
	</g>
	<g id="side_copy_2">
	</g>
	<g id="side_copy_3">
	</g>
	<g id="spout_copy_2">
	</g>
	<g id="spout_copy_3">
	</g>
</g>
<g id="ch03-30-7">
</g>
<g id="ch03-30-8">
</g>
<g id="_x33_4plastic">
	
		<image display="none" overflow="visible" width="1920" height="1080" xlink:href="../../C-01_bsfm/ch02A-05-1.jpg"  transform="matrix(0.6354 0 0 0.6354 -425.0903 -42.2443)">
	</image>
	<path fill="#0E92CC" d="M374.2,341.6c-0.2-0.8-21.8-76.5-37.4-102.2c-10.4-17.1-22.5-30.2-36-39.1c1.1-18.8,2.2-37.6,3.3-56.4
		c1.2-20.8,2.4-41.5,3.6-62.3c0-0.6-0.1-1.6,0-2.5c0.3-0.5,0.5-1.4,0.4-2.7c0-0.2,0-0.3-0.1-0.5c0-0.3-0.2-0.8-0.4-1.3
		c5.4-2.7,10.6-5.8,14.9-10.3l0.4-0.4l0-0.5c0-0.3,0-0.5,0-0.8c5.1-7,1.7-22.6,0.7-26.9c-1-8.6-17.5-16.8-46.8-23.1
		c-7.7-1.7-16.1-3.1-24.9-4.4c-7.9-1.2-16.2-2.4-25-3.4c-7.8-0.9-16-1.7-24.5-2.3c-8.5-0.7-17.3-1.2-26.3-1.7
		C158.1,0,139-0.3,119.2,0.3C109.3,0.6,99.3,1.2,89.1,2C79,2.8,68.7,4,58.4,5.6c-10.3,1.6-20.7,3.7-31,6.8
		c-5.1,1.6-10.3,3.4-15.3,6.1c-2.5,1.3-5,2.9-7.3,5c-1.2,1.1-2.3,2.3-3.2,3.9c-0.2,0.4-0.5,0.8-0.6,1.3c-0.2,0.4-0.4,0.9-0.5,1.4
		c-0.2,0.4-0.3,1.1-0.4,1.7c-0.1,0.4,0,0.4-0.1,0.6l0,0.7c0,0.5,0,0.9,0.1,1.4C0.1,39.9,0.5,52,2.5,60l0,0l0,0.4l0.6,0.5
		c1.5,1.2,2.8,2.1,4.3,3.1c0.8,0.5,1.5,1,2.3,1.4c0.6,7.7,1.1,20.6,1.3,27.5c0.6,14.5,1.2,29.1,1.8,43.6
		c1.8,42.2,3.7,84.4,5.8,126.5c2.3,46.4,4.8,92.8,7.8,139.2c2.3,36.1,4.7,72.4,8.9,108.3c0.7,5.6,1.1,11.4,2.3,17
		c1.3,6.1,8.5,12.1,12.9,16.2c20.2,19.1,61,29.8,88.3,33.3c2.9,0.4,4.9,0.5,6.6,0.4v0c0.1,0,0.9,0,1.8,0c3.3,0,10.6-0.2,16.8-3.7
		c1.1-0.4,2.2-1,3.1-1.8c1.2-1,2.1-2.2,2.9-3.4c0,0,0,0,0-0.1l0,0c1-1.6,1.7-3.5,2.1-5.3c0.1-0.3,0.1-0.6,0.2-0.9l0,0.4
		c0,0,35.5-6.9,56.2-0.1l-0.2,0l-0.6,0c-0.4,0-0.8,0-1.2,0.1c0.4,0,0.8,0,1.2,0l0.6,0l0.6,0.1l0,0c0.7,0.1,1.4,0.3,2.1,0.6
		c0.7,0.3,1.6,0.7,2.4,1.1c0.2,0.1,0.4,0.2,0.6,0.3c0.8,0.5,1.5,1.1,2.2,1.7c0.3,0.3,0.7,0.6,1,0.9c0.3,0.3,0.6,0.7,0.9,1l0.3,0.3
		l0.5-0.1c1.2-0.2,2.4-0.3,3.6-0.6c1.2-0.3,2.4-0.5,3.6-0.8l1.8-0.5l1.7-0.6c1.2-0.4,2.3-0.9,3.5-1.3c1.1-0.5,2.3-1,3.3-1.6
		c0.5-0.3,1.1-0.6,1.6-0.9l1.6-1c0.5-0.3,1-0.7,1.6-1c0.5-0.3,1-0.7,1.5-1.1c0.5-0.4,1-0.7,1.5-1.1l1.4-1.2c0.9-0.8,1.9-1.7,2.7-2.6
		c0.9-0.9,1.7-1.8,2.6-2.8c0.8-1,1.6-2,2.4-3c0.7-1,1.5-2.1,2.2-3.1c0.7-1.1,1.3-2.2,1.9-3.3c0.6-1.1,1.2-2.2,1.7-3.4
		c0.5-1.2,1.2-3,1.7-4.2c0-0.1,0-0.2,0-0.3c0-0.1,0-0.2,0.1-0.3c3.2-20.7,2.7-42.5,4-63.4c2.1-34.7,4.1-69.5,6.1-104.2
		c2.3-39.5,4.6-79.1,6.9-118.6c0.4-7.7,0.9-15.4,1.3-23.1c25.5,21,44,61.6,54.1,119.9l0.1,0.4l0.3,0.2c0.2,0.1,4.2,2.8,9.2,2.8h0
		c4.3,0,7.9-1.9,10.9-5.6l0.3-0.4L374.2,341.6z"/>
	<g>
		<path fill="#0071BD" d="M299.6,92c0.2-3.9,0.5-7.9,0.7-11.8c0-0.7,0-1.4,0-2.2c-4.9,2-9.9,3.6-15.1,5c-3.3,0.8-6.7,1.6-10,2.4
			l-5,1.2c-1.2,0.2-2.4,0.5-3.6,0.7c1.2,1.9,2.4,3.8,3.5,5.7c1.8,3.1,3.6,6.1,5.4,9.2c1.8,3.1,3.5,6.2,5.2,9.3l2.6,4.7l0.6,1.2
			l0.3,0.6c0,0.1,0.2,0.3,0.2,0.5c0.1,0.2,0.1,0.4,0.2,0.6c0.5,1.6,0.1,3.5-1,4.8c-0.6,0.7-1.2,1.2-2.1,1.6l-0.4,0.1
			c-0.1,0-0.3,0.1-0.3,0.1l-0.2,0l-0.1,0l-0.2,0.1l-0.7,0.1l-2.6,0.5l-5.2,1c-2.1,0.4-4.1,0.8-6.2,1.2l-0.8,34.7
			c0.5,0.2,0.9,0.4,1.4,0.7c0.8,0.5,1.4,1.3,1.8,2.2c0.3,0.9,0.5,1.9,0.2,2.9c-0.2,0.5-0.5,1-0.9,1.4c0,5,0,11-0.1,17
			c9.2,1.3,18.1,4.2,26.4,8.6c1.3-23.2,2.7-46.3,4-69.5C298.3,115,298.9,103.5,299.6,92z"/>
		<path fill="#0071BD" d="M239,567.1C239,567.1,239.1,567.1,239,567.1c1.1-0.2,2.1-0.5,3.1-0.8c1.1-0.4,2.2-0.7,3.3-1.2l1.6-0.6
			l1.6-0.7c1.1-0.5,2.1-1.1,3.1-1.6c1-0.6,2-1.2,2.9-1.8c0.5-0.3,1-0.6,1.4-1l1.4-1c0.5-0.3,0.9-0.7,1.3-1.1
			c0.4-0.4,0.9-0.7,1.3-1.1c0.4-0.4,0.8-0.8,1.2-1.2l1.2-1.2c0.8-0.8,1.5-1.7,2.2-2.6c0.7-0.9,1.4-1.8,2-2.7
			c0.6-0.9,1.2-1.9,1.8-2.9c0.6-1,1.1-2,1.6-3c0.5-1,1-2,1.4-3.1c0.4-1,0.8-2.1,1.2-3.1c0.4-1.1,0.7-2.1,0.9-3.2
			c0.3-1,0.6-2.9,0.7-3.8l0.1,0.1c0-0.4-0.1-0.9-0.1-1.3c0-1.7,0.1-3,0.2-4.5c1.5-23.3,2.6-46.5,4-69.8c2.1-36,4.3-72.1,6.4-108.1
			c2.3-39.4,4.6-78.9,6.9-118.3c0.2-2.6,0.3-5.2,0.5-7.8c-6.1-4-12.6-6.9-19.5-8.8c-2.3-0.6-4.3-1.1-6.2-1.5
			c-0.3,9.6-0.6,16.7-0.6,16.9l0,0.6l-0.5,0.3c-1.2,0.8-2.3,1.5-3.4,2.1c-0.6,19.6-13.3,236.7-14.9,264.7c5.5,2.2,6.1,5,5.9,6.7
			c-0.1,0.8-0.4,1.5-0.9,2.2c1.2,13,0.3,26.1-2.8,40.2c-1.5,6.8-5.6,10.5-10,12.6C239.2,559.4,239.1,564.5,239,567.1z"/>
		<path fill="#0071BD" d="M222.5,226.1c-3.5-4.5-1.1-47.2-0.9-59.8c0-2,2.6-5.2,3.2-7.3c1-3.7,0.2-15.6,0.2-15.6l0,0
			c-2-0.8-3.7-2.3-4.9-4.8c-1.8-3.9-2.4-12.3-2.7-16.6c0,0-0.1,0-0.1-0.1l-0.6-0.4l-0.5-0.4l-0.3-0.3l-0.1-0.1l0,0l-0.2-0.3l0,0l0,0
			l-0.2-0.4c-0.1-0.2-0.2-0.5-0.3-0.7c-0.2-0.6-0.3-1.3-0.4-1.8c-0.5-2.3-0.8-4.6-1.1-6.8c-0.3-2.3-0.6-4.5-0.8-6.8
			c-0.1-0.6-0.1-1.2-0.2-1.8c-0.6-3-1-5.9-0.9-8l-2.8,0.2c-1.7,0.1-3.4,0.2-5.1,0.2l-10.3,0.4c-3.4,0.1-6.9,0.1-10.3,0.2
			c-6.9,0.1-13.7,0-20.6,0c-3.4,0-6.8-0.2-10.3-0.3c-3.4-0.1-6.8-0.2-10.3-0.4l-10.3-0.6c-3.4-0.2-6.8-0.5-10.2-0.8l-5.1-0.4
			l-5.1-0.5c-3.4-0.4-6.8-0.6-10.2-1.1l-10.2-1.3l-10.2-1.5c-3.4-0.6-6.8-1.2-10.2-1.8c-1.7-0.3-3.3-0.7-5-1L63,84.9l-1.2-0.3
			l-0.7-0.1l-0.6-0.2c-6.7-1.6-13.4-3.3-19.9-5.5c-6.6-2.2-13-4.5-19.3-7.4c-1.4-0.6-2.8-1.3-4.2-2c0.6,15.7,2.1,51.2,2.9,70.4
			c1.9,43.2,3.9,86.5,6.1,129.7c2.4,46.5,4.9,93.1,8.1,139.6c2.3,33.9,4.4,68,9,101.7c0.6,4.7,0.7,8.8,3.6,12.6
			c7.7,10.2,17.7,18.9,28.8,25.3c25.9,15.2,63.3,20,93.2,20.1c0.2-0.2,0.4-0.5,0.6-0.8c0.1-0.3,0.3-0.6,0.4-0.9
			c2.2-5.2,2.1-11.7,0.9-17.1c-1-4.9-1.9-9.6-1.9-14.6c-0.1-4.2,0.3-8.3,1-12.4c0.8-5.3,1.9-11,4.4-15.8c3.3-6.7,8.4-12.8,15.3-15.8
			c9.8-4.2,20.5-1.1,29.3,4c1.1-34.1,8.2-253.8,8.4-258.2C227.2,232.2,226.7,231.5,222.5,226.1z"/>
		<path fill="#0E92CC" d="M172.5,546.6c-0.3-2.2-0.5-4.5-0.5-6.7c-0.2-9.7,2-19.8,5.8-28.7c0,0,0.5-0.9,0.5-0.9
			c0.4-0.6,0.7-1.2,1.1-1.8c0.7-1.1,1.5-2.3,2.4-3.3c1-1.2,2.1-2.4,3.2-3.4c2.1-1.8,4.4-3.3,7-4.2c8.2-2.8,18.4-0.9,25.2,3.7l0-2.5
			l0.3-0.1c0.1-1.2,0.5-2.4,1.1-3.4c0,0,0,0,0-0.1c-8.8-5.1-19.5-8.2-29.3-4c-7,3-12,9.2-15.3,15.8c-2.4,4.9-3.6,10.5-4.4,15.8
			c-0.6,4.1-1,8.3-1,12.4c0.1,5,0.9,9.7,1.9,14.6c1.1,5.5,1.3,11.9-0.9,17.1c-0.1,0.3-0.3,0.6-0.4,0.9c-0.2,0.3-0.4,0.5-0.6,0.8
			c-29.9-0.1-67.3-4.9-93.2-20.1c-11-6.5-21-15.1-28.8-25.3c-2.9-3.8-3-7.9-3.6-12.6c-4.6-33.7-6.7-67.8-9-101.7
			c-3.2-46.5-5.7-93-8.1-139.6c-2.2-43.2-4.2-86.5-6.1-129.7C19,120.6,17.6,85.1,17,69.4c1.4,0.7,2.8,1.4,4.2,2
			c6.3,2.9,12.8,5.3,19.3,7.4c6.6,2.1,13.2,3.9,19.9,5.5l0.6,0.2l0.7,0.1l1.2,0.3l2.5,0.5c1.7,0.3,3.3,0.7,5,1
			c3.4,0.6,6.8,1.2,10.2,1.8l10.2,1.5l10.2,1.3c3.4,0.4,6.8,0.7,10.2,1.1l5.1,0.5l5.1,0.4c3.4,0.3,6.8,0.5,10.2,0.8l10.3,0.6
			c3.4,0.2,6.8,0.3,10.3,0.4c3.4,0.1,6.8,0.3,10.3,0.3c6.9,0.1,13.7,0.2,20.6,0c3.4,0,6.9-0.1,10.3-0.2l10.3-0.4
			c1.7-0.1,3.4-0.1,5.1-0.2l2.8-0.2l0.1,0c0.1,1,0.2,2,0.3,3c0.1,1.7,0.3,3.4,0.5,5c0.1,0.6,0.1,1.2,0.2,1.8
			c0.3,2.3,0.5,4.5,0.8,6.8c0.3,2.3,0.7,4.5,1.1,6.8c0.1,0.6,0.3,1.2,0.4,1.8c0.1,0.2,0.2,0.5,0.3,0.7l0.2,0.4l0,0l0,0l0.2,0.3l0,0
			l0.1,0.1l0.3,0.3l0.5,0.4l0.6,0.4c0,0,0.1,0.1,0.1,0.1c0.1,0.1,0.2,0.1,0.3,0.2l0.8,0.5l1.5,0.9c2.1,1.1,4.1,2.2,6.2,3.2
			c4.1,2,8.3,3.9,12.4,5.7l0.2,0.1l0,0c0.1,0,0.1,0.1,0.2,0.1l0.2,0.1l0.5,0.2l0.8-0.1c0.3-0.1,0.7-0.1,1-0.2c3.2-0.5,6.3-1,9.5-1.6
			c3.5-0.6,7-1.2,10.5-1.8c0.6-0.1,1.3-0.2,1.9-0.3c0.8-0.1,1.6-0.3,2.3-0.4c2.1-0.4,4.1-0.8,6.2-1.2l5.2-1l2.6-0.5l0.7-0.1l0.2-0.1
			l0.1,0l0.2,0c0,0,0.2,0,0.3-0.1l0.4-0.1c0.9-0.4,1.5-0.9,2.1-1.6c1.1-1.3,1.5-3.2,1-4.8c-0.1-0.2-0.1-0.4-0.2-0.6
			c-0.1-0.2-0.2-0.4-0.2-0.5l-0.3-0.6l-0.6-1.2l-2.6-4.7c-1.7-3.1-3.5-6.2-5.2-9.3c-1.8-3.1-3.6-6.1-5.4-9.2
			c-1.2-1.9-2.3-3.8-3.5-5.7c1.2-0.2,2.4-0.4,3.6-0.7l5-1.2c3.4-0.8,6.7-1.6,10-2.4c5.1-1.4,10.2-3.1,15.1-5c0,0.8,0,1.5,0,2.2
			c-0.2,3.9-0.5,7.9-0.7,11.8c-0.7,11.5-1.3,23-2,34.5c-1.3,23.2-2.7,46.3-4,69.5c2.4,1.3,4.8,2.7,7.2,4.3
			c1.1-18.8,2.2-37.6,3.3-56.4c1.2-20.8,2.4-41.5,3.6-62.3c0-0.6-0.1-1.6,0-2.5c0.3-0.5,0.5-1.4,0.4-2.7c0-0.2,0-0.3-0.1-0.5
			c0-0.3-0.2-0.8-0.4-1.3c5.4-2.7,10.6-5.8,14.9-10.3l0.4-0.4l0-0.5c0-0.3,0-0.5,0-0.8c5.1-7,1.7-22.6,0.7-26.9
			c-1-8.6-17.5-16.8-46.8-23.1c-7.7-1.7-16.1-3.1-24.9-4.4c-7.9-1.2-16.2-2.4-25-3.4c-7.8-0.9-16-1.7-24.5-2.3
			c-8.5-0.7-17.3-1.2-26.3-1.7C158.1,0,139-0.3,119.2,0.3C109.3,0.6,99.3,1.2,89.1,2C79,2.8,68.7,4,58.4,5.6
			c-10.3,1.6-20.7,3.7-31,6.8c-5.1,1.6-10.3,3.4-15.3,6.1c-2.5,1.3-5,2.9-7.3,5c-1.2,1.1-2.3,2.3-3.2,3.9c-0.2,0.4-0.5,0.8-0.6,1.3
			c-0.2,0.4-0.4,0.9-0.5,1.4c-0.2,0.4-0.3,1.1-0.4,1.7c-0.1,0.4,0,0.4-0.1,0.6l0,0.7c0,0.5,0,0.9,0.1,1.4C0.1,39.9,0.5,52,2.5,60
			l0,0l0,0.4l0.6,0.5c1.5,1.2,2.8,2.1,4.3,3.1c0.8,0.5,1.5,1,2.3,1.4c0.6,7.7,1.1,20.6,1.3,27.5c0.6,14.5,1.2,29.1,1.8,43.6
			c1.8,42.2,3.7,84.4,5.8,126.5c2.3,46.4,4.8,92.8,7.8,139.2c2.3,36.1,4.7,72.4,8.9,108.3c0.7,5.6,1.1,11.4,2.3,17
			c1.3,6.1,8.5,12.1,12.9,16.2c20.2,19.1,61,29.8,88.3,33.3c2.9,0.4,4.9,0.5,6.6,0.4v0c0.1,0,0.9,0,1.8,0c3.3,0,10.6-0.2,16.8-3.7
			c1.1-0.4,2.2-1,3.1-1.8c1.2-1,2.1-2.2,2.9-3.4c0,0,0,0,0-0.1l0,0c1-1.6,1.7-3.5,2.1-5.3c0.1-0.3,0.1-0.6,0.2-0.9
			C173.7,557.1,173.3,551.8,172.5,546.6z M239,124c-0.3-1-0.5-2.2-0.9-3.3c-0.4-1.2-0.7-2.4-1.2-3.7c-0.5-1.3-0.9-2.6-1.4-3.9
			c-0.5-1.3-1-2.6-1.6-3.9c-1.1-2.6-2.4-5.2-3.6-7.6c-1.2-2.4-2.4-4.6-3.4-6.5c-0.4-0.7-0.8-1.4-1.1-2l8.8-0.9l5.1-0.5l5.1-0.7
			l10.2-1.5l10.2-1.9c0.2,0,0.5-0.1,0.7-0.1c0.8,2.2,1.7,4.3,2.5,6.5c1.4,3.3,2.7,6.6,4.1,9.8c1.4,3.3,2.8,6.5,4.3,9.7l2.2,4.8
			l0.5,1.2l0.3,0.6c0.1,0.1,0,0.1,0,0.1c0,0.1,0,0.1-0.1,0.1c0,0,0,0,0,0c0,0,0,0,0,0c0,0-0.1,0,0,0c0,0,0,0,0,0l-0.1,0
			c0,0-0.1,0,0,0l0,0l-0.7,0.1l-2.6,0.4l-5.3,0.8c-3.5,0.6-7,1.1-10.5,1.7c-3.5,0.6-7,1.2-10.5,1.8c-3.2,0.6-6.4,1.2-9.7,1.8
			l-0.8-0.3C239.4,125.9,239.3,124.9,239,124z M276.6,13.6c29.4,6.3,46.2,14.7,46.1,23c0,1.2-0.4,2.4-1,3.5c-0.1,0-0.3,0.1-0.4,0.1
			c-0.1,0.1-0.2,0.1-0.3,0.2c-0.1,0.1-0.2,0.2-0.3,0.2l-0.3,0.3l-0.4,0.5c-0.5,0.7-1.2,1.2-1.9,1.8c-0.7,0.6-1.4,1-2.1,1.5
			c-0.8,0.4-1.5,0.9-2.3,1.3c-3.2,1.7-6.5,3-9.9,4.2c-6.8,2.4-14,4-21.1,5.5c-7.2,1.4-14.4,2.5-21.6,3.5
			c-14.5,1.9-29.1,3.1-43.7,3.9c-14.6,0.8-29.3,1.2-43.9,1.1c-7.3,0-14.7-0.1-22-0.2c-7.3-0.2-14.6-0.5-21.9-0.8
			c-6.8-0.3-13.5-0.8-20.2-1.3c-6.6-0.7-13.3-1.4-20-2.3c-10-1.3-20-2.9-30.1-4.9c-5-1-10-2.1-15-3.4c-5-1.2-9.9-2.6-14.7-4.3
			c-4.8-1.6-9.5-3.5-13.7-5.9c-2.1-1.2-4.1-2.5-5.5-4c-0.7-0.7-1.3-1.5-1.7-2.2C8.1,34.4,8,33.8,8,33.3c0,0,0-0.1,0-0.1L8,33
			c0-0.1,0-0.4,0-0.4c0.1-0.1,0,0,0.1-0.2c0-0.1,0.1-0.3,0.2-0.5c0.1-0.2,0.1-0.3,0.2-0.5c0.4-0.7,1-1.4,1.7-2.1
			c1.5-1.4,3.5-2.7,5.6-3.9c4.3-2.3,9-4.1,13.9-5.6c4.8-1.5,9.8-2.8,14.8-3.9c5-1.1,10-2.2,15.1-3.1c10.1-1.8,20.2-3.1,30.2-4.2
			c10-1.1,19.9-2,29.7-2.6c19.6-1.3,38.5-1.8,56.6-1.7c9,0.1,17.8,0.3,26.2,0.6c8.5,0.4,16.6,0.9,24.5,1.5c9.6,0.8,18.7,1.8,27.2,3
			C262,10.7,269.6,12.1,276.6,13.6z M319.9,62.5c-4.8,4.1-10.8,6.8-16.9,9c-6.2,2.3-12.7,4-19.2,5.4l-10,1.7l-5,0.9
			c-1.7,0.3-3.3,0.5-5,0.7l-10,1.3l-10.1,1l-5,0.5l-5,0.4L223.6,84l-10.1,0.5c-3.4,0.2-6.7,0.3-10.1,0.4l-10.1,0.3
			c-3.4,0.1-6.8,0-10.1,0.1c-6.8,0.1-13.5-0.1-20.3-0.1c-3.4,0-6.8-0.2-10.1-0.3c-3.4-0.1-6.8-0.2-10.1-0.4L132.4,84
			c-3.4-0.2-6.8-0.4-10.1-0.6l-5.1-0.3l-5.1-0.4c-3.4-0.3-6.7-0.5-10.1-0.8L92,81l-10.1-1.1c-3.3-0.4-6.6-0.8-10-1.2
			c-1.7-0.2-3.4-0.5-5-0.8l-2.5-0.4l-1.3-0.2l-0.6-0.1l-0.6-0.1c-3.3-0.6-6.6-1.2-9.9-2c-3.3-0.7-6.6-1.4-9.8-2.2
			c-6.5-1.6-12.9-3.6-19.3-5.9c-1.6-0.5-3.1-1.2-4.7-1.8c-1.5-0.7-3.1-1.3-4.6-2C10.8,62,7.9,60.6,5.4,59l-0.1-2.2l0.3-16.2
			c0.1,0.1,0.1,0.1,0.2,0.2c1.4,1.5,2.9,2.7,4.5,3.8c3.2,2.2,6.6,3.9,10,5.4c6.9,3,14,5.2,21.2,7.1c7.2,1.9,14.4,3.4,21.7,4.8
			c7.3,1.3,14.6,2.5,21.9,3.4c14.7,1.9,29.4,3.3,44.1,4.2c7.4,0.5,14.7,0.8,22.1,1c7.4,0.2,14.8,0.3,22.1,0.3
			c7.4,0,14.8-0.2,22.1-0.5c7.4-0.3,14.8-0.6,22.1-1.2c7.4-0.5,14.7-1.2,22.1-2c7.3-0.8,14.7-1.8,22-3c7.3-1.2,14.6-2.6,21.8-4.3
			c7.2-1.8,14.4-3.8,21.3-6.5c3.5-1.4,6.9-2.9,10.1-4.9c0.8-0.5,1.6-1,2.4-1.6c0.8-0.6,1.5-1.1,2.2-1.8c0.7-0.7,1.4-1.3,2-2.1
			c0.9-1.1,0.5-0.7,0.7-0.8c0,0,0,0,0,0c0,0,0,0.3,0,0.5l0,1.4l-0.1,2.7c0,0.6-0.1,1.3-0.1,1.9c-0.1,0.4-0.1,0.8-0.2,1.2
			C321.3,54.1,320.7,58.3,319.9,62.5z M214,93.9l7-0.5c0.7,1,1.6,2.4,2.6,3.8c1.2,1.7,2.3,3.8,3.8,6c1.4,2.2,2.9,4.6,4.3,7
			c0.7,1.2,1.4,2.5,2,3.7c0.7,1.2,1.2,2.4,1.8,3.6c0.6,1.2,1.1,2.4,1.6,3.5c0.5,1.1,0.8,2.2,1.2,3.2c0.3,0.8,0.5,1.6,0.7,2.3
			l-4.3-1.7l-6.3-2.6c-2.1-0.9-4.2-1.7-6.2-2.6l-1.5-0.7l-0.7-0.4l-0.3-0.2c-0.1,0-0.1-0.1-0.2-0.1s-0.1,0-0.2-0.1
			c-0.1-0.1-0.2-0.2-0.3-0.2c-0.2-0.5-0.3-0.9-0.5-1.4c-0.7-2.1-1.2-4.3-1.8-6.5l-1.7-6.6c-0.6-2.2-1.1-4.4-1.7-6.6
			c-0.2-0.9-0.5-1.9-0.8-2.8L214,93.9z"/>
		<path fill="#0E92CC" d="M292.2,219.5c-0.2,2.6-0.3,5.2-0.5,7.8c-2.3,39.4-4.6,78.9-6.9,118.3c-2.1,36-4.2,72.1-6.4,108.1
			c-1.4,23.3-2.5,46.5-4,69.8c-0.1,1.5-0.2,2.8-0.2,4.5c0,0.4,0,0.8,0.1,1.3l-0.1-0.1c-0.1,0.9-0.5,2.8-0.7,3.8
			c-0.3,1.1-0.6,2.1-0.9,3.2c-0.3,1.1-0.7,2.1-1.2,3.1c-0.4,1-0.9,2.1-1.4,3.1c-0.5,1-1,2-1.6,3c-0.6,1-1.2,1.9-1.8,2.9
			c-0.6,0.9-1.3,1.9-2,2.7c-0.7,0.9-1.4,1.7-2.2,2.6l-1.2,1.2c-0.4,0.4-0.8,0.8-1.2,1.2c-0.4,0.4-0.8,0.8-1.3,1.1
			c-0.4,0.4-0.9,0.8-1.3,1.1l-1.4,1c-0.5,0.3-0.9,0.7-1.4,1c-0.9,0.7-1.9,1.2-2.9,1.8c-1,0.5-2,1.1-3.1,1.6l-1.6,0.7l-1.6,0.6
			c-1.1,0.5-2.2,0.8-3.3,1.2c-1,0.3-2,0.6-3.1,0.9c0,0,0,0,0,0c0,1,0,1.6,0,1.6c1.2-0.2,2.4-0.3,3.6-0.6c1.2-0.3,2.4-0.5,3.6-0.8
			l1.8-0.5l1.7-0.6c1.2-0.4,2.3-0.9,3.5-1.3c1.1-0.5,2.3-1,3.3-1.6c0.5-0.3,1.1-0.6,1.6-0.9l1.6-1c0.5-0.3,1-0.7,1.6-1
			c0.5-0.3,1-0.7,1.5-1.1c0.5-0.4,1-0.7,1.5-1.1l1.4-1.2c0.9-0.8,1.9-1.7,2.7-2.6c0.9-0.9,1.7-1.8,2.6-2.8c0.8-1,1.6-2,2.4-3
			c0.7-1,1.5-2.1,2.2-3.1c0.7-1.1,1.3-2.2,1.9-3.3c0.6-1.1,1.2-2.2,1.7-3.4c0.5-1.2,1.2-3,1.7-4.2c0-0.1,0-0.2,0-0.3
			c0-0.1,0-0.2,0.1-0.3c3.2-20.7,2.7-42.5,4-63.4c2.1-34.7,4.1-69.5,6.1-104.2c2.3-39.5,4.6-79.1,6.9-118.6
			c0.4-7.7,0.9-15.4,1.3-23.1C297.1,222.8,294.7,221.1,292.2,219.5z"/>
		<path fill="#0E92CC" d="M233.6,564.5c0.2,0.1,0.4,0.2,0.6,0.3c0.8,0.5,1.5,1.1,2.2,1.7c0.3,0.3,0.7,0.6,1,0.9
			c0.3,0.3,0.6,0.7,0.9,1l0.3,0.3l0.5-0.1C238.1,567.1,235.8,565.6,233.6,564.5z"/>
		<path fill="#0E92CC" d="M229.2,562.5L229.2,562.5l-0.4,0l-0.2,0l-0.6,0c-0.4,0-0.8,0-1.2,0.1c0.4,0,0.8,0,1.2,0l0.6,0l0.6,0.1l0,0
			c0.7,0.1,1.4,0.3,2.1,0.6C230,562.8,229.2,562.5,229.2,562.5z"/>
		<path fill="#00618C" d="M239,567.1c0.1-2.6,0.1-7.6,0.1-11.7c-2.8,1.3-5.8,2-8.4,2.5c-0.4,0.1-0.8,0.1-1.2,0.1c0,0,0,0,0,0
			c-7.5,0-27.6-10.3-34.7-17.8c-0.9-1-1.7-2-2.3-3.1c-0.3-0.1-0.6-0.2-0.9-0.4c-4-2.1-6.4-5.1-7.1-8.9c-1-5.2,1.4-11.8,6.8-18.4
			c2.8-3.4,6.2-5.1,10.1-5.1c5.1,0,9.1,3,9.2,3.1l0.5,0.4l-0.1,0.5c2.5,0.2,4.5,0.7,5.3,0.9l0.9-0.2l0-7.7c-6.7-4.7-17-6.5-25.2-3.7
			c-2.6,0.9-5,2.4-7,4.2c-1.2,1-2.2,2.2-3.2,3.4c-0.8,1.1-1.6,2.2-2.4,3.3c-0.4,0.6-0.7,1.2-1.1,1.8c0,0-0.5,0.9-0.5,0.9
			c-3.9,8.9-6,19-5.8,28.7c0,2.2,0.2,4.5,0.5,6.7c0.8,5.2,1.1,10.5,0,15.7l0,0.4c0,0,35.5-6.9,56.2-0.1l0.4,0l0,0
			c0,0,0.9,0.3,2.1,0.8c0.7,0.3,1.6,0.7,2.4,1.1c2.2,1.1,4.5,2.6,5.4,4.2C239,568.7,239,568.1,239,567.1z"/>
		<path fill="#0071BD" d="M202.3,5c-8.5-0.4-17.2-0.6-26.2-0.6c-18-0.1-37,0.4-56.6,1.7c-9.8,0.6-19.7,1.5-29.7,2.6
			c-10,1.1-20.1,2.4-30.2,4.2c-5,0.9-10.1,1.9-15.1,3.1c-5,1.1-10,2.4-14.8,3.9c-4.8,1.5-9.6,3.3-13.9,5.6c-2.1,1.1-4.1,2.4-5.6,3.9
			c-0.7,0.7-1.4,1.4-1.7,2.1c-0.1,0.2-0.2,0.3-0.2,0.5c-0.1,0.2-0.1,0.3-0.2,0.5c-0.1,0.2,0,0.2-0.1,0.2c0,0,0,0.2,0,0.4l0,0.2
			c0,0,0,0,0,0.1c0,0.5,0.2,1.1,0.5,1.8c0.4,0.7,1,1.4,1.7,2.2c1.5,1.5,3.4,2.8,5.5,4c4.2,2.4,8.9,4.3,13.7,5.9
			c4.8,1.6,9.7,3,14.7,4.3c5,1.3,10,2.4,15,3.4c10,2,20.1,3.6,30.1,4.9c6.7,0.9,13.4,1.7,20,2.3c6.7,0.5,13.5,1,20.2,1.3
			c7.3,0.3,14.6,0.6,21.9,0.8c7.3,0.2,14.6,0.2,22,0.2c14.6,0.1,29.3-0.3,43.9-1.1c14.6-0.8,29.2-2,43.7-3.9
			c7.2-1,14.5-2.1,21.6-3.5c7.1-1.5,14.3-3.1,21.1-5.5c3.4-1.2,6.8-2.5,9.9-4.2c0.8-0.4,1.5-0.9,2.3-1.3c0.7-0.5,1.5-1,2.1-1.5
			c0.7-0.6,1.3-1.1,1.9-1.8l0.4-0.5l0.3-0.3c0,0,0.2-0.2,0.3-0.2c0.1-0.1,0.2-0.1,0.3-0.2c0.1-0.1,0.3-0.1,0.4-0.1
			c0.7-1.2,1-2.3,1-3.5c0.1-8.3-16.7-16.7-46.1-23c-7-1.5-14.6-2.9-22.6-4.1c-8.5-1.2-17.6-2.2-27.2-3C218.9,5.9,210.7,5.4,202.3,5z
			"/>
		<path fill="#00618C" d="M239.3,162.7c-0.2,0.1-0.4,0.2-0.6,0.4c0.2,0,0.4,0,0.6,0V162.7z"/>
		<path fill="#00618C" d="M215.1,103.4l1.7,6.6c0.6,2.2,1.1,4.4,1.8,6.5c0.2,0.5,0.3,1,0.5,1.4c0.1,0.1,0.2,0.2,0.3,0.2
			c0.1,0,0.1,0,0.2,0.1s0.1,0,0.2,0.1l0.3,0.2l0.7,0.4l1.5,0.7c2,0.9,4.1,1.8,6.2,2.6l6.3,2.6l4.3,1.7c-0.2-0.7-0.4-1.5-0.7-2.3
			c-0.4-1-0.8-2.1-1.2-3.2c-0.5-1.1-1-2.3-1.6-3.5c-0.6-1.2-1.2-2.4-1.8-3.6c-0.7-1.2-1.3-2.5-2-3.7c-1.4-2.4-2.9-4.8-4.3-7
			c-1.4-2.2-2.5-4.3-3.8-6c-1-1.4-1.9-2.8-2.6-3.8l-7,0.5l-1.4,0.1c0.3,0.9,0.5,1.9,0.8,2.8C213.9,99,214.5,101.2,215.1,103.4z"/>
		<path fill="#00618C" d="M212.5,102.1c-0.2-1.7-0.4-3.4-0.5-5c-0.1-1-0.2-2-0.3-3l-0.1,0C211.6,96.2,211.9,99.1,212.5,102.1z"/>
		<path fill="#00618C" d="M238.9,132.6L238.9,132.6l-0.2-0.1c-4.2-1.8-8.3-3.7-12.4-5.7c-2.1-1-4.1-2-6.2-3.2l-1.5-0.9l-0.8-0.5
			c-0.1-0.1-0.2-0.1-0.3-0.2c0.2,4.4,0.8,12.7,2.7,16.6c1.2,2.5,2.9,4,4.9,4.8l0,0c0,0,0.8,11.9-0.2,15.6c-0.5,2.1-3.2,5.2-3.2,7.3
			c-0.2,12.6-2.6,55.3,0.9,59.8c4.2,5.3,4.7,6.1,4.5,10.9c-0.2,4.4-7.3,224.2-8.4,258.2c0,0,0,0,0,0.1c0.6-1,1.4-1.9,2.1-2.6
			c0.7-0.6,1.8-1.1,3.2-1.4c1.5-36.5,11-246.8,11.8-263.5c-1.8-1.1-2.8-2.1-2.8-2.1l-0.3-0.3l0-0.5c-0.6-6.5,2.1-58.2,2.2-60.4
			l0.2-0.1c0,0,0-0.1,0-0.1c0.1-0.2,0.1-0.4,0.3-0.6l0.4-0.5l0.4-0.4c0.3-0.2,0.7-0.4,1-0.6c0.2-0.1,0.4-0.1,0.6-0.2
			c0.2-0.1,0.4-0.1,0.6-0.1c0.4-0.1,0.7-0.1,1.1-0.2v-28.9l-0.2-0.1C239.1,132.7,239,132.7,238.9,132.6z"/>
		<path fill="#FFFFFF" d="M187.6,519.9c0.9,2,2.4,3.5,3.5,4.4c1-4.8,3.4-9.3,6.1-12.3c2.3-2.5,6-3.8,11-3.8
			c-1.4-0.8-3.9-1.9-6.7-1.9c-3.3,0-6.1,1.5-8.6,4.4c-2.6,3.1-4.4,6.2-5.5,9C187.5,519.7,187.5,519.7,187.6,519.9z"/>
		<path fill="#FFFFFF" d="M243.5,142.2l-1.7-1.2v20.4l0,0c0,0,0,0,0,0v1.5c0.4,1.7,2.3,4.3,8.9,4.8c0.1,0,10.5,0.9,11.7-4.4
			l0.5-23.6C262.1,140.5,255.7,145.2,243.5,142.2z"/>
		<path fill="#FFFFFF" d="M235.5,508.5c-1.1,0-2.3-0.1-3.5-0.2c-6.7-0.6-10.3-2.3-12.3-4.1l0,5.4c0,0.3-0.1,0.6-0.2,0.9
			c0,0.3,0,0.7,0,1.3c-0.1,1.1-0.4,2.5-0.8,3.8c-0.4,1.3-1,2.5-1.5,3.4c-0.2,0.4-0.5,0.8-0.6,1c-0.2,0.2-0.2,0.4-0.2,0.4
			s0.1-0.2,0.2-0.4c0.1-0.3,0.3-0.7,0.4-1.1c0.3-0.9,0.7-2.2,0.8-3.5c0.2-1.3,0.2-2.6,0.1-3.5c0-0.1,0-0.2,0-0.3l-1.5,0.3l-0.3-0.1
			c0,0-3.7-1-7.8-1c-4.3,0-7.3,1-9.2,3c-2.6,2.9-4.9,7.5-5.7,12.2c0,0.1,0,0.2,0,0.3c0.1-0.5,0.2-0.8,0.2-0.8s1.3,4,5.1,7.2
			c4.9,4.2,18.7,10.4,29.8,11c11.2,0.6,19.3-7.9,19.3-7.9c0,0.4,0,0.7,0.1,1.1c2-11,2.6-21.6,1.9-32
			C246.5,507,241.3,508.5,235.5,508.5L235.5,508.5z"/>
		<path fill="#FFFFFF" d="M219.7,500.7c1,3,5.4,4.9,12.5,5.6c1.1,0.1,2.2,0.2,3.3,0.2c8.7,0,15-3.3,15.4-6.3c0.2-1.5-1.3-3.1-4-4.3
			c0,0.5,0,0.8,0,0.8l0,0.4l-0.2,0.3c-2.9,3.9-7.1,6-11.9,6h0c-5.8,0-10.9-3.1-10.9-6.7c0-0.3,0-1.4,0.1-3.3
			c-0.9,0.2-1.4,0.6-1.8,0.8C220.4,495.8,219,498.4,219.7,500.7z"/>
		<path fill="#FFFFFF" d="M259.2,234.2c-2.9,3.7-4.3,3-11.7,2.2c-4.9-0.5-7.9-4.3-9.4-6.8c-1.2,25.9-11.9,262.6-11.9,267.1
			c0,1.7,3.5,4.2,8.4,4.2c2.3,0,6.5-0.6,9.7-4.7C245,485.7,257.3,274.2,259.2,234.2z"/>
		<path fill="#AAAAAA" d="M247.6,236.4c7.4,0.8,8.7,1.5,11.7-2.2c0.1-0.1,0.1-0.1,0.2-0.2l0.2-3.8c-3.5,1.4-6.8,2-9.8,2
			c-4.9,0-9-1.5-12-3.1c0.1,0.1,0.2,0.3,0.3,0.4C239.6,232.1,242.6,235.9,247.6,236.4z"/>
		<path fill="#FFFFFF" d="M258.5,207.6c-2.2-0.4-3.7-0.6-4.6-1c-1.3-0.6-2-1.1-2.2-1.8c0-0.1-0.1-0.3-0.1-0.4
			c-1.8-5.5-1.6-9.9,0.6-13.1c2.9-4.2,8.3-4.5,8.5-4.5c1.5,0.1,2.9,0.2,4.3,0.4c0.1-5.5,0.2-10.8,0.3-15.5c-0.5,0.2-1,0.4-1.6,0.6
			c-0.9,0.2-1.8,0.4-2.7,0.6c-0.9,0.1-1.8,0.2-2.7,0.3c-0.9,0.1-1.8,0.1-2.7,0.1c-0.9,0-1.8,0-2.7,0c-0.9,0-1.8,0-2.7-0.1
			c-0.9-0.1-1.8-0.1-2.7-0.3c-0.9-0.1-1.8-0.3-2.7-0.5c-0.9-0.2-1.8-0.4-2.6-0.7c-0.9-0.3-1.7-0.6-2.6-1c-0.8-0.4-1.6-0.9-2.4-1.4
			c-0.1-0.1-0.2-0.2-0.3-0.2c-0.6,14-2.2,48.7-1.8,55.2c2.2,1.9,13.7,10.7,28.5,1.1c0.1-2,0.4-8.4,0.8-16.6
			C261.9,208.2,260,207.9,258.5,207.6z"/>
		<path fill="#AAAAAA" d="M261.5,129.3c-3.5,0.6-7,1.3-10.5,1.8c-3.2,0.6-6.3,1.1-9.5,1.6l0.2,8.4l0.1,0l1.7,1.2
			c12.2,2.9,18.6-1.8,19.5-2.4c0.1,0,0.1-0.1,0.1-0.1l0.3-10.8C262.7,129,262.1,129.1,261.5,129.3z"/>
		<path fill="#AAAAAA" d="M192,535.4c-2-5.7-1-10.8-1-11l0.3,0.1c-0.1-0.1-0.2-0.1-0.3-0.2c-1.1-0.9-2.6-2.4-3.5-4.4
			c-0.1-0.1-0.1-0.2-0.2-0.1c-0.8,0.4-2.2,9.3-0.6,11.3C188,532.5,190.4,534.4,192,535.4z"/>
		<path fill="#FFFFFF" d="M335.1,240.4c-13.9-22.9-30.3-38.2-49.2-45.9c-1.1,0.4-5.5,2.2-7.6,6.2c-0.7,1.4-1.1,3-1.2,4.6
			c14.1,5,30.4,13.9,37.3,29.6v2.1c0,0-14.9-19.9-36.5-26.8c0,0,0,0,0,0c37.8,13.2,64.5,59.2,77.5,133.6c1,0.6,4.1,2.3,7.8,2.3
			c3.5,0,6.5-1.5,9-4.4C370.2,334.9,349.9,264.8,335.1,240.4z"/>
		<path fill="#FFFFFF" d="M267.8,207.4c-3.5-0.9-5.9-1.3-7.7-1.5C262.1,206.2,264.7,206.7,267.8,207.4z"/>
		<path fill="#FFFFFF" d="M275.2,204.6c0.1-1.7,0.6-3.4,1.4-4.9c1.7-3.3,4.6-5.3,6.7-6.3c-7.2-2.6-14.7-4.2-22.5-4.7
			c-0.5,0-4.7,0.4-6.9,3.7c-1.3,1.9-1.7,4.5-1.2,7.7c0-0.2,0-0.4,0-0.6C252.6,199.5,262.8,200.6,275.2,204.6z"/>
		<path fill="#6B6B6B" d="M374.2,341.6c-0.2-0.8-21.8-76.5-37.4-102.2c-10.4-17.1-22.5-30.2-36-39.1c-2.4-1.6-4.8-3-7.2-4.3
			c-8.4-4.4-17.2-7.3-26.4-8.6c0.1-6.1,0.2-12,0.1-17c0.4-0.4,0.7-0.8,0.9-1.4c0.3-1,0.2-2-0.2-2.9c-0.4-0.9-1-1.7-1.8-2.2
			c-0.4-0.3-0.9-0.5-1.4-0.7l0.8-34.7c-0.8,0.1-1.6,0.3-2.3,0.4l-0.3,10.8c0,0,0,0-0.1,0.1l-0.5,23.6c-1.3,5.2-11.6,4.4-11.7,4.4
			c-6.6-0.5-8.5-3.1-8.9-4.8v-1.5c0,0,0,0,0,0l0,0v-20.4l-0.1,0l-0.2-8.4c-0.3,0.1-0.7,0.1-1,0.2l-0.8,0.1l-0.5-0.2v28.9
			c-0.4,0-0.7,0.1-1.1,0.2c-0.2,0-0.4,0.1-0.6,0.1c-0.2,0.1-0.4,0.1-0.6,0.2c-0.4,0.1-0.7,0.4-1,0.6l-0.4,0.4l-0.4,0.5
			c-0.1,0.2-0.2,0.4-0.3,0.6c0,0,0,0.1,0,0.1l-0.2,0.1c-0.1,2.3-2.8,54-2.2,60.4l0,0.5l0.3,0.3c0,0,1,1,2.8,2.1
			c-0.8,16.7-10.3,226.9-11.8,263.5c-1.4,0.3-2.5,0.8-3.2,1.4c-0.8,0.7-1.5,1.6-2.1,2.6c-0.6,1-1,2.2-1.1,3.4l-0.3,0.1l0,2.5l0,7.7
			l-0.9,0.2c-0.7-0.2-2.7-0.6-5.3-0.9l0.1-0.5l-0.5-0.4c-0.2-0.1-4.2-3.1-9.2-3.1c-3.9,0-7.3,1.7-10.1,5.1
			c-5.5,6.6-7.9,13.1-6.8,18.4c0.7,3.7,3.1,6.7,7.1,8.9c0.3,0.2,0.6,0.3,0.9,0.4c0.6,1.1,1.4,2.2,2.3,3.1
			c7.1,7.5,27.2,17.8,34.7,17.8c0,0,0,0,0,0c0.4,0,0.8,0,1.2-0.1c2.6-0.4,5.6-1.2,8.4-2.5c4.5-2.1,8.5-5.8,10-12.6
			c3.1-14,4-27.2,2.8-40.2c0.5-0.7,0.8-1.4,0.9-2.2c0.2-1.6-0.4-4.4-5.9-6.7c1.6-28,14.3-245.1,14.9-264.7c1.1-0.6,2.3-1.3,3.4-2.1
			l0.5-0.3l0-0.6c0-0.2,0.3-7.3,0.6-16.9c1.9,0.4,3.9,0.9,6.2,1.5c6.8,1.9,13.3,4.8,19.5,8.8c2.4,1.6,4.8,3.3,7.1,5.2
			c25.5,21,44,61.6,54.1,119.9l0.1,0.4l0.3,0.2c0.2,0.1,4.2,2.8,9.2,2.8h0c4.3,0,7.9-1.9,10.9-5.6l0.3-0.4L374.2,341.6z M363.1,346
			c-3.6,0-6.8-1.7-7.8-2.3c-13-74.4-39.7-120.4-77.5-133.6c0,0,0,0,0,0c-0.5-1.7-0.8-3.4-0.7-4.9c0-1.7,0.4-3.2,1.2-4.6
			c2.1-4,6.5-5.8,7.6-6.2c18.9,7.7,35.3,23.1,49.2,45.9c14.8,24.4,35.1,94.5,37.1,101.2C369.6,344.5,366.6,346,363.1,346z
			 M247.8,536.8c0.2,4.7-0.4,8.4-2.6,11.6c-2.6,3.7-10.5,7.3-18.2,7.1c-6.1-0.1-23-9.8-30.8-17c-4.2-3.9-3.3-10.3-2.8-12.5
			c0-0.1,0-0.2,0-0.3c0.7-4.7,3-9.3,5.7-12.2c1.8-2,4.9-3,9.2-3c4.1,0,7.8,1,7.8,1l0.3,0.1l1.5-0.3c0,0.1,0,0.2,0,0.3
			c0.1,0.9,0.1,2.2-0.1,3.5c-0.2,1.3-0.5,2.6-0.8,3.5c-0.1,0.5-0.3,0.9-0.4,1.1c-0.1,0.3-0.2,0.4-0.2,0.4s0.1-0.1,0.2-0.4
			c0.2-0.3,0.4-0.6,0.6-1c0.5-0.9,1.1-2.1,1.5-3.4c0.4-1.3,0.7-2.7,0.8-3.8c0-0.5,0-0.9,0-1.3c0.1-0.3,0.2-0.6,0.2-0.9l0-5.4
			c2,1.8,5.6,3.5,12.3,4.1c1.2,0.1,2.3,0.2,3.5,0.2h0c5.8,0,11-1.4,14.1-3.6C250.4,515.3,249.8,525.8,247.8,536.8z M186.8,531.1
			c-1.7-2.1-0.3-10.9,0.6-11.3c1.1-2.9,2.9-5.9,5.5-9c2.4-2.9,5.3-4.4,8.6-4.4c2.8,0,5.3,1.1,6.7,1.9c-5,0-8.7,1.3-11,3.8
			c-2.8,3-5.1,7.5-6.1,12.3c0.1,0.1,0.2,0.2,0.3,0.2l-0.3-0.1c0,0.2-1,5.3,1,11C190.4,534.4,188,532.5,186.8,531.1z M223.8,496.6
			c0,3.6,5.1,6.7,10.9,6.7h0c4.8,0,9-2.1,11.9-6l0.2-0.3l0-0.4c0-0.1,0-0.4,0-0.8c2.8,1.2,4.2,2.8,4,4.3c-0.4,3-6.6,6.3-15.4,6.3
			c-1.1,0-2.2-0.1-3.3-0.2c-7.1-0.6-11.5-2.6-12.5-5.6c-0.8-2.3,0.7-4.9,2.4-6.5c0.3-0.3,0.8-0.6,1.8-0.8
			C223.8,495.2,223.8,496.3,223.8,496.6z M244.3,496.2c-3.2,4.1-7.4,4.7-9.7,4.7c-4.9,0-8.4-2.5-8.4-4.2
			c0-4.4,10.7-241.1,11.9-267.1c-0.1-0.2-0.2-0.3-0.3-0.4c3,1.6,7.1,3.1,12,3.1c3,0,6.3-0.6,9.8-2l-0.2,3.8
			c-0.1,0.1-0.1,0.1-0.2,0.2C257.3,274.2,245,485.7,244.3,496.2z M235,224.2c-0.3-6.5,1.2-41.2,1.8-55.2c0.1,0.1,0.2,0.2,0.3,0.2
			c0.7,0.6,1.5,1,2.4,1.4c0.8,0.4,1.7,0.8,2.6,1c0.9,0.3,1.8,0.5,2.6,0.7c0.9,0.2,1.8,0.4,2.7,0.5c0.9,0.1,1.8,0.2,2.7,0.3
			c0.9,0.1,1.8,0.1,2.7,0.1c0.9,0,1.8,0,2.7,0c0.9,0,1.8-0.1,2.7-0.1c0.9-0.1,1.8-0.2,2.7-0.3c0.9-0.1,1.8-0.3,2.7-0.6
			c0.5-0.2,1.1-0.3,1.6-0.6c0,4.7-0.1,10-0.3,15.5c-1.4-0.2-2.9-0.3-4.3-0.4c-0.2,0-5.6,0.3-8.5,4.5c-2.2,3.1-2.4,7.5-0.6,13.1
			c0,0.1,0,0.3,0.1,0.4c0.2,0.7,0.9,1.3,2.2,1.8c0.9,0.4,2.4,0.6,4.6,1c1.5,0.3,3.5,0.6,5.8,1c-0.3,8.2-0.7,14.7-0.8,16.6
			C248.7,234.9,237.1,226.1,235,224.2z M260.1,205.9c-2.6-0.3-4-0.3-6.1-0.7c0,0-1.4-0.8-1.4-5c-0.5-3.2-0.1-5.8,1.2-7.7
			c2.2-3.2,6.5-3.6,6.9-3.7c7.8,0.5,15.3,2,22.5,4.7c-2,1-5,3-6.7,6.3c-0.8,1.5-1.2,3.2-1.4,4.9c-0.1,1.5,0,3.2,0.4,4.9
			c-3.1-0.9-5.7-1.6-7.9-2.1C264.7,206.7,262.1,206.2,260.1,205.9z M239.3,162.7v0.4c0,0,0.1,0,0.1,0c0,0,0,0,0,0.1l0.2,0
			c0.1,0.5,0.3,1.1,0.6,1.8c1.1,1.7,3.5,4.1,8.4,4.7c0,0,7.2,0.4,9.9-0.4c0.7-0.2,1.4-0.5,2-0.7h0c0,0,0,0,0,0
			c0.1,0,0.1-0.1,0.2-0.1c1.7-0.9,3.1-2.2,3.6-4.3c0.1,0.1,0.2,0.2,0.3,0.3c0.2,0,0.5,0.1,0.8,0.3c0.8,0.5,2.7,2.6,0,5.2
			c0,0-1.3,1.3-9.9,1.8c-8.6,0.4-13.2-1-14.9-1.8c-1.7-0.7-4.3-2.1-4.8-3.3c-0.4-0.8-1-3.4,2.7-3.5
			C238.9,162.9,239.1,162.8,239.3,162.7z"/>
		<path fill="#AAAAAA" d="M314.4,237v-2.1c-6.9-15.7-23.2-24.7-37.3-29.6c0,1.5,0.2,3.2,0.7,4.9C299.5,217.1,314.4,237,314.4,237z"
			/>
		<path fill="#AAAAAA" d="M267.8,207.4c2.1,0.5,4.7,1.2,7.9,2.1c-0.4-1.7-0.5-3.3-0.4-4.9c-12.4-4.1-22.6-5.1-22.6-5.1
			c0,0.2,0,0.4,0,0.6c-0.1,4.3,1.4,5,1.4,5c2.1,0.4,3.5,0.4,6.1,0.7C261.9,206.1,264.2,206.5,267.8,207.4z"/>
		<path fill="#0071BD" d="M279.7,120.3C279.7,120.3,279.7,120.3,279.7,120.3C279.7,120.3,279.7,120.3,279.7,120.3z"/>
		<path fill="#0071BD" d="M279.6,120.3C279.6,120.3,279.6,120.4,279.6,120.3C279.6,120.4,279.6,120.4,279.6,120.3
			C279.7,120.4,279.7,120.3,279.6,120.3C279.7,120.3,279.7,120.3,279.6,120.3L279.6,120.3z"/>
		<path fill="#0071BD" d="M250,125.2c3.5-0.6,7-1.2,10.5-1.8c3.5-0.6,7-1.2,10.5-1.7l5.3-0.8l2.6-0.4l0.7-0.1l0,0c0,0,0,0,0,0l0.1,0
			c0,0,0,0,0,0c0,0,0,0,0,0c0,0,0.1-0.1,0.1-0.1c0,0,0,0,0-0.1l-0.3-0.6l-0.5-1.2l-2.2-4.8c-1.4-3.2-2.9-6.5-4.3-9.7
			c-1.4-3.3-2.7-6.5-4.1-9.8c-0.9-2.1-1.7-4.3-2.5-6.5c-0.2,0-0.5,0.1-0.7,0.1L255,89.4l-10.2,1.5l-5.1,0.7l-5.1,0.5l-8.8,0.9
			c0.4,0.6,0.7,1.3,1.1,2c1,1.9,2.2,4.1,3.4,6.5c1.2,2.4,2.4,5,3.6,7.6c0.6,1.3,1.1,2.6,1.6,3.9c0.5,1.3,1,2.6,1.4,3.9
			c0.4,1.3,0.8,2.5,1.2,3.7c0.3,1.2,0.6,2.3,0.9,3.3c0.2,1,0.4,1.9,0.5,2.7l0.8,0.3C243.6,126.4,246.8,125.8,250,125.2z"/>
		<path fill="#0E92CC" d="M279.6,120.3L279.6,120.3C279.7,120.3,279.7,120.3,279.6,120.3C279.7,120.3,279.7,120.3,279.6,120.3
			C279.7,120.3,279.7,120.3,279.6,120.3C279.7,120.3,279.7,120.3,279.6,120.3z"/>
		<path fill="#AAAAAA" d="M228.5,543.6c-11.2-0.6-24.9-6.8-29.8-11c-3.8-3.2-5.1-7.2-5.1-7.2s-0.1,0.3-0.2,0.8
			c-0.5,2.2-1.4,8.5,2.8,12.5c7.7,7.2,24.7,16.8,30.8,17c7.7,0.2,15.7-3.4,18.2-7.1c2.2-3.2,2.9-7,2.6-11.6c0-0.4,0-0.7-0.1-1.1
			C247.7,535.7,239.7,544.2,228.5,543.6z"/>
		<path fill="#0071BD" d="M322.1,48.7c0-0.6,0.1-1.3,0.1-1.9l0.1-2.7l0-1.4c0-0.2,0-0.6,0-0.5c0,0,0,0,0,0c-0.2,0,0.2-0.3-0.7,0.8
			c-0.6,0.8-1.3,1.4-2,2.1c-0.7,0.7-1.5,1.2-2.2,1.8c-0.8,0.5-1.6,1.1-2.4,1.6c-3.2,2-6.7,3.5-10.1,4.9c-7,2.7-14.1,4.7-21.3,6.5
			c-7.2,1.7-14.5,3.2-21.8,4.3c-7.3,1.2-14.6,2.2-22,3c-7.3,0.8-14.7,1.5-22.1,2c-7.4,0.6-14.7,0.9-22.1,1.2
			c-7.4,0.3-14.7,0.4-22.1,0.5c-7.4,0-14.7-0.1-22.1-0.3c-7.4-0.2-14.8-0.5-22.1-1c-14.7-0.9-29.5-2.3-44.1-4.2
			c-7.3-1-14.6-2.1-21.9-3.4c-7.3-1.4-14.5-2.9-21.7-4.8C34.3,55.2,27.1,53,20.2,50c-3.4-1.5-6.8-3.2-10-5.4
			c-1.6-1.1-3.1-2.3-4.5-3.8c-0.1-0.1-0.1-0.1-0.2-0.2L5.3,56.8L5.4,59c2.6,1.6,5.4,3,8.2,4.3c1.5,0.7,3.1,1.3,4.6,2
			c1.6,0.6,3.1,1.2,4.7,1.8c6.3,2.3,12.7,4.2,19.3,5.9c3.3,0.8,6.5,1.6,9.8,2.2c3.3,0.8,6.6,1.3,9.9,2l0.6,0.1l0.6,0.1l1.3,0.2
			l2.5,0.4c1.7,0.3,3.4,0.6,5,0.8c3.3,0.4,6.6,0.9,10,1.2L92,81l10.1,0.9c3.4,0.3,6.7,0.5,10.1,0.8l5.1,0.4l5.1,0.3
			c3.4,0.2,6.7,0.4,10.1,0.6l10.1,0.4c3.4,0.2,6.8,0.2,10.1,0.4c3.4,0.1,6.8,0.2,10.1,0.3c6.8,0.1,13.5,0.2,20.3,0.1
			c3.4,0,6.8,0,10.1-0.1l10.1-0.3c3.4-0.1,6.8-0.2,10.1-0.4l10.1-0.5l10.1-0.7l5-0.4l5-0.5l10.1-1l10-1.3c1.7-0.2,3.3-0.4,5-0.7
			l5-0.9l10-1.7c6.5-1.3,13-3.1,19.2-5.4c6.1-2.2,12.1-4.9,16.9-9c0.7-4.2,1.4-8.4,2-12.5C322,49.5,322.1,49.1,322.1,48.7z"/>
		<path fill="#FFFFFF" d="M236,166.6c0.6,1.2,3.1,2.6,4.8,3.3c1.7,0.7,6.4,2.2,14.9,1.8c8.6-0.4,9.9-1.8,9.9-1.8
			c2.7-2.6,0.8-4.7,0-5.2c-0.4-0.2-0.6-0.3-0.8-0.3c-0.1-0.1-0.2-0.2-0.3-0.3c-0.5,2-1.9,3.4-3.6,4.3c-0.1,0-0.1,0.1-0.2,0.1
			c0,0,0,0,0,0h0c-0.6,0.3-1.3,0.5-2,0.7c-2.8,0.9-9.9,0.4-9.9,0.4c-4.9-0.6-7.3-2.9-8.4-4.7c-0.3-0.6-0.6-1.2-0.6-1.8l-0.2,0
			c0-0.1,0-0.1,0-0.1c0,0-0.1,0-0.1,0c-0.2,0-0.4,0-0.6,0C235,163.2,235.6,165.7,236,166.6z"/>
	</g>
</g>
</svg>
