<?xml version="1.0" encoding="utf-8"?>
<!-- Generator: Adobe Illustrator 18.1.1, SVG Export Plug-In . SVG Version: 6.00 Build 0)  -->
<!DOCTYPE svg PUBLIC "-//W3C//DTD SVG 1.1//EN" "http://www.w3.org/Graphics/SVG/1.1/DTD/svg11.dtd">
<svg version="1.1" xmlns="http://www.w3.org/2000/svg" xmlns:xlink="http://www.w3.org/1999/xlink" x="0px" y="0px"
	 viewBox="0 0 1428.3 479.2" enable-background="new 0 0 1428.3 479.2" xml:space="preserve">
<g id="Capa_1">
</g>
<g id="back_x5F_bubbles">
</g>
<g id="middle_x5F_bubbles">
</g>
<g id="front_x5F_bubbles">
	<g>
		<g>
			<circle fill="#C4CABF" cx="959.8" cy="188.6" r="25.7"/>
			<path fill="#B1C5BA" d="M966.5,203.6c2.6-0.2,5.3-0.7,7.5-2.1c2.2-1.4,3.8-4,3.5-6.6c-1.3,0.1-2.6,0.1-3.8,0.2
				c-2.9,3.2-5.9,6.2-9.1,9"/>
			<path fill="#B1C5BA" d="M977.5,175.8c0.6-1,0.6-2.4,0-3.4c-0.6-1-1.7-1.7-2.9-1.8c-0.5,1-0.5,2.2,0.2,3.2
				c0.6,0.9,1.8,1.4,2.9,1.3"/>
			<g>
				<g>
					<path fill="#93BDAF" d="M961.3,165.2c11.4,1.6,20.7,9.9,22.5,21.4c1.3,8.2-1.5,16.2-8.5,21c-5,3.4-11.2,5-17.2,4.3
						c-11.3-1.3-20.7-10.1-22.5-21.4C933.2,174.8,946.5,164,961.3,165.2c1,0.1,2.2-4.4,2.5-4.3c-22.4-1.9-39.7,26-26.1,44.9
						c7.4,10.2,21.4,13.5,32.6,7.8c8.3-4.2,14.6-13.8,16.1-22.9c2.4-14.6-8.1-27.8-22.5-29.8C962.9,160.8,961.6,165.3,961.3,165.2z"
						/>
				</g>
			</g>
			<path fill="#D5E0DA" d="M945.8,171.7c3.9-1.9,8.1-3.2,12.4-3.8c2.2-0.3,4.9-0.2,5.8,1.8c0.7,1.5-0.2,3.3-1.4,4.4
				c-1.2,1.1-2.7,1.8-4.1,2.7c-3.7,2.7-5.2,7.4-6.4,11.8c-0.6,2-1.1,4.2-0.1,6c0.5,1,1.5,1.7,2.4,2.4c2.1,1.5,4.1,3.1,6.2,4.6
				c-4.5,1.5-9.2,2.2-13.9,2.1c-2.7-0.1-5.5-0.5-7.6-2.2c-1-0.8-1.8-1.9-2.6-3c-1.5-2.1-2.9-4.4-3.6-6.9c-1.1-4.2,0.2-8.7,2.7-12.2
				C938.3,176.1,942,173.6,945.8,171.7z"/>
		</g>
		<g>
			<circle fill="#C4CABF" cx="115.2" cy="173.9" r="13"/>
			<path fill="#B1C5BA" d="M112.8,181.9c1.1,0.8,2.3,1.5,3.6,1.7c1.3,0.2,2.8-0.3,3.5-1.4c-0.5-0.4-1-0.8-1.5-1.2
				c-2.1,0.3-4.3,0.4-6.5,0.5"/>
			<path fill="#B1C5BA" d="M126.2,174.8c0.6-0.2,1-0.7,1.1-1.3c0.1-0.6-0.1-1.2-0.5-1.6c-0.5,0.2-0.9,0.7-1,1.3
				c-0.1,0.6,0.2,1.1,0.7,1.5"/>
			<g>
				<g>
					<path fill="#93BDAF" d="M123.4,167.1c4.1,4.7,5.5,12.5-0.8,16c-5.1,2.9-11.8,1.8-15.8-2.5c-2.1-2.2-3.4-5.2-3.5-8.2
						c-0.2-3.6,1.1-6,4.2-7.8C112.9,161.7,119.2,163,123.4,167.1c0,0,3.1-3.8,2.5-4.3c-6.4-6.3-16-4.9-21,2.4
						c-4.1,6-6.2,13.9-0.6,19.8c13,13.8,32.7-9.3,21.5-22.2C126,162.9,122.8,166.5,123.4,167.1z"/>
				</g>
			</g>
			<path fill="#D5E0DA" d="M115.3,162.7c2.1,0.6,4.2,1.5,6,2.6c0.9,0.6,2,1.6,1.6,2.6c-0.2,0.8-1.1,1.2-2,1.2
				c-0.8,0-1.6-0.2-2.5-0.3c-2.3-0.2-4.5,1.2-6.4,2.4c-0.9,0.6-1.8,1.2-2,2.3c-0.1,0.6,0,1.2,0.1,1.7c0.3,1.3,0.6,2.6,0.9,3.8
				c-2.2-0.9-4.3-2.2-6.1-3.8c-1-0.9-2-2-2.2-3.3c-0.1-0.7-0.1-1.3,0-2c0.1-1.3,0.3-2.7,0.9-3.8c1-2,3-3.3,5.1-3.8
				C111,161.9,113.2,162.2,115.3,162.7z"/>
		</g>
		<g>
			<circle fill="#C4CABF" cx="940.6" cy="119.6" r="11.8"/>
			<g>
				<g>
					<path fill="#93BDAF" d="M951.9,120.6c-0.8,14.7-22.4,11.2-22.4-2c0-6.9,7-10.8,13.1-9.5C948.1,110.3,951.6,115.1,951.9,120.6
						c0-0.3,1.3-1.4,1.2-2c-0.5-8.4-8.7-14.5-16.8-10.8c-4.6,2.1-8.1,7.8-8.1,12.8c0,8.5,9,14.3,16.8,10.8c4.8-2.2,7.9-7.7,8.2-12.8
						C953.1,118.9,951.9,119.9,951.9,120.6z"/>
				</g>
			</g>
			<path fill="#B1C5BA" d="M934.3,120.5c0-1.7,0.8-1.9,2.1-2.9c0.7-0.6,1.6-1,2.3-1.6s1.3-1.5,1.1-2.4c-0.2-1-1.3-1.7-2.4-1.8
				c-2.8-0.3-5,2.3-6.7,4.6c-0.5,0.7-1,1.4-1.1,2.3c-0.2,1.2,0.6,2.4,1.6,2.8C932.3,121.9,933.7,121.5,934.3,120.5"/>
		</g>
		<g>
			<circle fill="#C4CABF" cx="1284.9" cy="390.6" r="8"/>
			<g>
				<g>
					<path fill="#93BDAF" d="M1290.3,397c2.6-3.1,4.4-7.4,2.2-11.3c-2.7-4.8-9.3-5.4-13-1.5c-2.6,2.8-4.2,7.1-2.5,10.8
						C1279.4,400.3,1286.3,401,1290.3,397c0.4-0.4,0.7-1.7,1-2c-2.6,2.6-6.4,3.4-9.7,1.6c-3.3-1.8-5.7-6.8-3.2-10.1
						c2.2-3.1,6.9-3.4,9.9-1.6c3.1,1.8,5.5,7.1,2.9,10.2c-0.3,0.4-0.7,0.9-0.9,1.4C1290.3,396.6,1290,397.3,1290.3,397z"/>
				</g>
			</g>
			<path fill="#B1C5BA" d="M1282.2,387.3c-0.8,0.8-0.5,1.3-0.3,2.4c0.1,0.6,0.3,1.2,0.4,1.8c0.1,0.6-0.1,1.3-0.6,1.7
				c-0.6,0.4-1.4,0.2-2-0.2c-1.5-1.2-1.5-3.4-1.2-5.4c0.1-0.6,0.1-1.2,0.5-1.6c0.4-0.7,1.4-0.9,2.1-0.6
				C1281.8,385.6,1282.3,386.5,1282.2,387.3"/>
		</g>
		<g>
			<circle fill="#C4CABF" cx="659.4" cy="80.6" r="15.8"/>
			<g>
				<g>
					<path fill="#93BDAF" d="M674.5,78c3.3,20.5-26.5,23.7-30.2,5.1c-2.1-10.2,6.9-19,16.9-17.6C668,66.5,672.9,71.6,674.5,78
						c-0.1-0.2,0.8-0.8,0.7-1.2c-2.7-10.8-15.3-16.4-24.7-9.7c-5.3,3.8-8.3,10.8-7,17.2c2.3,11,15.6,16.2,24.7,9.7
						c5.4-3.9,8-10.7,7-17.2C675.3,77.1,674.5,77.6,674.5,78z"/>
				</g>
			</g>
			<path fill="#B2C5BB" d="M651.4,83.5c-0.5-2.2,0.6-2.7,2-4.4c0.8-1,1.8-1.7,2.5-2.7c0.8-1,1.2-2.3,0.8-3.4
				c-0.5-1.3-2.2-1.8-3.6-1.7c-3.8,0.4-6,4.3-7.6,7.8c-0.5,1-1,2.1-0.9,3.3c0.1,1.6,1.4,3,2.9,3.2S650.8,84.9,651.4,83.5"/>
		</g>
		<g>
			<circle fill="#C4CABF" cx="391.6" cy="41.6" r="11.8"/>
			<g>
				<g>
					<path fill="#93BDAF" d="M402.1,47c-7.3,12.8-27.5,2-20.2-10.9c7.2-12.7,25.8-1.6,19.9,11.4c-0.2,0.5,0.5-0.6,0.6-0.8
						c3-6.7,0.3-14.8-7.2-17c-5.9-1.7-11.7,1.5-14.4,6.8c-3.1,6.1-0.9,13.7,5.5,16.6c6.3,2.9,12.6-0.3,15.8-5.9
						C402.6,46.4,402.5,46.3,402.1,47z"/>
				</g>
			</g>
			<path fill="#B2C5BB" d="M385.5,39.6c0.8-1.5,1.6-1.3,3.2-1.6c0.9-0.2,1.8-0.2,2.7-0.4c0.9-0.2,1.8-0.8,2.1-1.7
				c0.3-1-0.4-2.1-1.3-2.7c-2.4-1.5-5.5-0.3-8.1,1c-0.8,0.4-1.6,0.8-2.1,1.5c-0.7,1-0.6,2.4,0.2,3.3
				C383.1,39.9,384.5,40.2,385.5,39.6"/>
		</g>
		<g>
			<circle fill="#C4CABF" cx="505" cy="210.4" r="12.6"/>
			<g>
				<g>
					<path fill="#93BDAF" d="M505.3,222.3c-5.2-0.3-9.7-3.1-11.6-8.1c-3-7.7,3.1-15.9,11.2-15.8c4.9,0,9.4,3.1,11.4,7.5
						C519.8,214.1,513.6,222,505.3,222.3c-0.3,0-0.6,1.2-0.7,1.2c16.1-0.7,18.3-26.1,1-26.4c-16.3-0.3-18,25.3-1,26.4
						C504.8,223.6,505.2,222.3,505.3,222.3z"/>
				</g>
			</g>
			<path fill="#D5E0DA" d="M504.1,203.7c1.8,0,2,0.9,3.1,2.3c0.6,0.8,1,1.7,1.7,2.4c0.6,0.7,1.6,1.3,2.6,1.2
				c1.1-0.2,1.8-1.4,1.9-2.5c0.3-3-2.4-5.4-4.8-7.2c-0.7-0.5-1.5-1.1-2.4-1.2c-1.2-0.2-2.5,0.6-3,1.7
				C502.7,201.5,503.1,202.9,504.1,203.7"/>
		</g>
		<g>
			<circle fill="#C4CABF" cx="883.2" cy="137.8" r="11.8"/>
			<g>
				<g>
					<path fill="#93BDAF" d="M893.5,130.7c-4.8-6.7-14.4-7.2-19.5-0.5c-3.2,4.3-4,10-1,14.7c4.5,7,14.6,7,19.5,0.5
						C895.8,141,896.3,135.5,893.5,130.7c0.1,0.1-0.9,1-0.7,1.2c3.8,6.5,1.2,15-6.6,16.8c-4.8,1.1-9.8-1-12.5-5.1
						c-4.1-6.3-0.9-15.1,6.6-16.8c4.9-1.1,9.6,1.1,12.5,5.1C892.8,131.8,893.7,130.9,893.5,130.7z"/>
				</g>
			</g>
			<path fill="#B2C5BB" d="M877.4,140.4c0.9,1.4,1.7,1.1,3.4,1.3c0.9,0.1,1.9,0,2.8,0.1s1.9,0.6,2.2,1.4c0.4,1-0.2,2.1-1,2.8
				c-2.2,1.8-5.5,0.8-8.1-0.2c-0.8-0.3-1.6-0.6-2.2-1.3c-0.8-0.9-0.8-2.3-0.1-3.3C875,140.3,876.3,140,877.4,140.4"/>
		</g>
		<g>
			<circle fill="#C4CABF" cx="740.6" cy="35.2" r="11.8"/>
			<g>
				<g>
					<path fill="#93BDAF" d="M747.3,45.3c3.8-3.1,6.2-8.1,5.2-13c-1.7-8.4-11.8-12.2-18.7-7.2c-3.9,2.9-6.2,8.3-5.2,13
						C730.3,46.8,740.4,50,747.3,45.3c0.3-0.2,0.5-1.1,0.7-1.2c-4.4,3-10,3.2-14.3-0.2c-5.5-4.3-6.4-13.1-0.5-17.6
						c11.1-8.4,26.5,8.2,14.8,17.8C747.7,44.3,747.5,45.1,747.3,45.3z"/>
				</g>
			</g>
			<path fill="#B2C5BB" d="M737.6,29.5c-1.4,1-1,1.8-1.1,3.5c0,0.9,0.1,1.8,0.1,2.8c-0.1,0.9-0.5,1.9-1.3,2.3
				c-1,0.4-2.1-0.1-2.8-0.8c-1.9-2.1-1.2-5.4-0.3-8.1c0.3-0.8,0.5-1.7,1.1-2.3c0.8-0.8,2.2-1,3.2-0.4
				C737.5,27.1,738,28.4,737.6,29.5"/>
		</g>
		<g>
			<circle fill="#C4CABF" cx="1034.8" cy="100.8" r="20"/>
			<g>
				<g>
					<path fill="#93BDAF" d="M1054.1,102c-0.4,12-11.8,19.7-23.2,17c-8.9-2.1-15.3-10.3-15.3-19.4c0-11.8,11.6-19.3,22.6-17.1
						C1047.5,84.4,1053.8,92.6,1054.1,102c0-0.4,1.5-1.6,1.5-2.4c-0.5-13.5-13.4-23.5-26.6-19c-8.5,3-14.9,12.3-14.9,21.4
						c0,13.5,13.7,23.5,26.6,19c8.8-3.1,14.6-12.3,14.9-21.4C1055.5,100,1054.1,101.2,1054.1,102z"/>
				</g>
			</g>
			<path fill="#D5E0DA" d="M1026.3,89.2c1.6-0.6,3.7-0.9,4.8,0.4c0.4,0.5,0.6,1.1,0.7,1.6c0.3,1.8,0.1,3.6-0.7,5.3
				c-0.4,0.9-1,1.7-1.5,2.6c-1.1,2.1-1.5,4.5-1.2,6.8c0.3,2.1,1,4.7-0.7,6c-2.5,0.3-5-1.3-6.3-3.4c-1.4-2.1-1.8-4.7-2.1-7.2
				c-0.3-3-0.3-6.3,1.5-8.6C1022.1,90.9,1024.2,89.9,1026.3,89.2z"/>
			<path fill="#B1C5BA" d="M1039.5,94.2c1.1-0.3,1.7-1.8,1.1-2.8c-2-0.2-3.7,2.1-3,3.9c0.6,0.1,1.3,0.3,1.9,0c0.6-0.2,1-1,0.6-1.5"
				/>
			<path fill="#B2C2B3" d="M1030.9,89.9c1.3,0.4,2.7,0.5,4.1,0.3c0.9-0.7,1-2.1,0.3-3s-1.9-1.2-3-1c-0.9,0.2-1.8,0.8-2.1,1.7
				c-0.3,0.9,0.4,2.1,1.4,2.1"/>
		</g>
		<g>
			<circle fill="#C4CABF" cx="584.6" cy="65.2" r="25.7"/>
			<g>
				<g>
					<path fill="#93BDAF" d="M609.6,66.4c-0.4,15.4-14.8,25.8-29.6,22.7c-11.7-2.5-20.4-13.1-20.4-25.1c0-15.5,15-25.8,29.6-22.7
						C601.2,43.8,609.3,54.4,609.6,66.4c0-0.4,1.5-1.6,1.5-2.4c-0.3-12.5-9.1-23.5-21.7-25.5c-10.9-1.7-21.2,3.8-26.8,13.1
						c-5.4,9-6.1,20.1-0.1,29.1c6.9,10.3,20.4,14.3,31.8,9.3c10-4.4,16.5-15.3,16.8-26C611.1,64.4,609.6,65.6,609.6,66.4z"/>
				</g>
			</g>
			<path fill="#D5E0DA" d="M573.6,50.3c2.1-0.7,4.8-1.2,6.2,0.5c0.5,0.6,0.7,1.4,0.9,2.1c0.4,2.3,0.1,4.7-0.9,6.8
				c-0.5,1.1-1.3,2.2-1.9,3.3c-1.4,2.7-2,5.8-1.6,8.8c0.3,2.7,1.2,6-0.9,7.7c-3.2,0.4-6.4-1.7-8.1-4.4s-2.4-6.1-2.7-9.3
				c-0.4-3.8-0.4-8,2-11.1C568.3,52.5,571,51.2,573.6,50.3z"/>
			<path fill="#B1C5BA" d="M590.7,56.7c1.4-0.4,2.2-2.3,1.4-3.6c-2.5-0.3-4.8,2.7-3.9,5c0.8,0.2,1.7,0.4,2.4,0.1
				c0.8-0.3,1.3-1.3,0.7-2"/>
			<path fill="#B2C2B3" d="M579.5,51.2c1.7,0.6,3.5,0.7,5.3,0.4c1.2-0.8,1.2-2.7,0.3-3.8c-0.9-1.1-2.5-1.5-3.9-1.2
				c-1.2,0.2-2.4,1-2.7,2.2c-0.3,1.2,0.5,2.6,1.7,2.6"/>
		</g>
		<g>
			<circle fill="#C4CABF" cx="204.9" cy="67.4" r="19.6"/>
			<g>
				<g>
					<path fill="#93BDAF" d="M223.8,68.6c-0.4,11.8-11.6,19.3-22.8,16.6c-8.7-2.1-15-10.1-15-19c0-11.6,11.4-19,22.1-16.8
						C217.3,51.3,223.5,59.4,223.8,68.6c0-0.4,1.5-1.6,1.5-2.4c-0.4-13.2-13.2-23.1-26.1-18.6c-8.4,2.9-14.7,12.2-14.7,21
						c0,13.3,13.5,23,26.1,18.6c8.6-3,14.4-12.1,14.7-21C225.3,66.6,223.8,67.8,223.8,68.6z"/>
				</g>
			</g>
			<path fill="#D5E0DA" d="M196.5,56c1.6-0.6,3.6-0.9,4.7,0.4c0.4,0.5,0.6,1,0.7,1.6c0.3,1.7,0.1,3.6-0.7,5.2
				c-0.4,0.9-1,1.7-1.4,2.5c-1.1,2-1.5,4.4-1.2,6.7c0.3,2.1,1,4.6-0.7,5.9c-2.5,0.3-4.9-1.3-6.2-3.4c-1.3-2.1-1.8-4.6-2.1-7.1
				c-0.3-2.9-0.3-6.1,1.5-8.5C192.5,57.7,194.5,56.8,196.5,56z"/>
			<path fill="#B1C5BA" d="M209.5,60.9c1.1-0.3,1.7-1.8,1.1-2.8c-1.9-0.2-3.7,2-3,3.9c0.6,0.1,1.3,0.3,1.8,0c0.6-0.2,1-1,0.6-1.5"/>
			<path fill="#B2C2B3" d="M201,56.7c1.3,0.4,2.7,0.5,4,0.3c0.9-0.6,0.9-2.1,0.3-2.9c-0.7-0.9-1.9-1.2-3-0.9
				c-0.9,0.2-1.8,0.8-2.1,1.7c-0.2,0.9,0.4,2,1.3,2"/>
		</g>
		<g>
			<circle fill="#C4CABF" cx="1086.5" cy="120.8" r="11.7"/>
			<g>
				<g>
					<path fill="#93BDAF" d="M1097.9,121.3c-0.8,15.2-22.7,12.9-22.7-0.9c0-7.2,7-11.9,13.6-10.4
						C1094.2,111.1,1097.6,115.8,1097.9,121.3c0-0.1,0.6-0.6,0.6-0.9c-0.4-8.2-8.6-14.3-16.5-10.6c-4.3,2-7.4,6.8-7.4,11.6
						c0,8.3,8.9,14.1,16.5,10.6c4.5-2.1,7.2-6.8,7.4-11.6C1098.4,120.5,1097.9,120.9,1097.9,121.3z"/>
				</g>
			</g>
			<path fill="#D5E0DA" d="M1079.9,116.5c0.8-0.6,1.2-0.1,1.4,0.2c0.5,0.9-0.1,1.6-0.9,2.7c-0.3,0.5-0.8,1.5-0.9,2
				c-0.2,1.3,0.5,3,1.5,4c0.9,0.9,4.4,2.4,3.7,3.5c-1.3,0.6-3,0.1-4.1-0.8c-1.1-0.9-1.8-2.3-2.4-3.6c-0.7-1.6-1.3-3.4-0.7-5.1
				C1077.9,118.2,1078.9,117.3,1079.9,116.5z"/>
			<path fill="#B1C6B5" d="M1090.3,118.8c0.7-0.2,1-1.1,0.7-1.6c-1.1-0.1-2.2,1.2-1.8,2.3c0.4,0.1,0.8,0.2,1.1,0s0.6-0.6,0.3-0.9"/>
		</g>
		<g>
			<circle fill="#C4CABF" cx="1005.4" cy="234.1" r="3.4"/>
			<g>
				<g>
					<path fill="#93BDAF" d="M1008.5,234.6c-0.2,4-6.3,2.6-6.3-0.9c0-1.9,2-2.7,3.6-2.4C1007.4,231.6,1008.4,233,1008.5,234.6
						c0-0.1,0.6-0.6,0.6-0.9c-0.1-2.5-2.5-4.2-4.9-3.2c-1.4,0.6-2.6,2.6-2.6,4.1c0,2.5,2.6,4.2,4.9,3.2c1.5-0.7,2.5-2.5,2.6-4.1
						C1009.1,233.8,1008.5,234.2,1008.5,234.6z"/>
				</g>
			</g>
			<path fill="#D5E0DA" d="M1003.4,232.8c0.2-0.2,0.4,0,0.4,0c0.1,0.3,0,0.5-0.3,0.8c-0.1,0.1-0.2,0.4-0.3,0.6
				c-0.1,0.4,0.2,0.9,0.4,1.2c0.3,0.3,1.3,0.7,1.1,1c-0.4,0.2-0.9,0-1.2-0.2c-0.3-0.3-0.5-0.7-0.7-1.1c-0.2-0.5-0.4-1-0.2-1.5
				C1002.8,233.3,1003.1,233.1,1003.4,232.8z"/>
			<path fill="#B1C6B5" d="M1006.5,233.5c0.2-0.1,0.3-0.3,0.2-0.5c-0.3,0-0.6,0.4-0.5,0.7c0.1,0,0.2,0,0.3,0
				S1006.6,233.5,1006.5,233.5"/>
		</g>
		<g>
			<circle fill="#C4CABF" cx="851.7" cy="256.4" r="4.9"/>
			<g>
				<g>
					<path fill="#93BDAF" d="M855.9,258.8c-1.5,2-4.1,2.6-6.3,1.4c-2.2-1.2-3.3-4.1-1.9-6.2c3-4.8,11,0.2,8,5
						c-0.2,0.3-0.5,1-0.1,0.3c1.4-2.3,1.7-5.1-0.5-7c-2.3-2.1-5.8-1.4-7.5,1.1c-1.4,2-1.8,4.7-0.1,6.7c2.2,2.6,6,2,7.9-0.6
						C855.7,259.4,856.2,258.5,855.9,258.8z"/>
				</g>
			</g>
			<path fill="#D5E0DA" d="M850.4,253.4c0.4,0,0.5,0.2,0.4,0.4c0,0.4-0.4,0.5-0.9,0.7c-0.2,0.1-0.6,0.3-0.8,0.5
				c-0.4,0.4-0.5,1.2-0.4,1.7c0.1,0.5,0.9,1.9,0.5,2.1c-0.6-0.1-1.1-0.7-1.2-1.2c-0.2-0.6-0.1-1.2,0-1.8c0.1-0.7,0.4-1.5,1-1.9
				C849.3,253.5,849.9,253.4,850.4,253.4z"/>
			<path fill="#B1C6B5" d="M853.5,256.7c0.3,0.1,0.6-0.1,0.6-0.4c-0.4-0.3-1-0.1-1.1,0.4c0.1,0.1,0.2,0.2,0.4,0.3s0.3-0.1,0.3-0.2"
				/>
		</g>
		<g>
			<circle fill="#C4CABF" cx="710.2" cy="53.4" r="9.4"/>
			<g>
				<g>
					<path fill="#93BDAF" d="M719.2,53.9c-0.7,12.1-18.2,10-18.2-0.9c0-5.7,5.6-9.3,10.8-8.2C716.3,45.7,719,49.5,719.2,53.9
						c0-0.1,0.6-0.6,0.6-0.9c-0.4-6.6-6.9-11.5-13.3-8.6c-3.5,1.6-6.1,5.6-6.1,9.5c0,6.7,7.1,11.3,13.3,8.6c3.7-1.7,5.9-5.6,6.1-9.5
						C719.8,53.1,719.3,53.6,719.2,53.9z"/>
				</g>
			</g>
			<path fill="#D5E0DA" d="M704.9,50c0.6-0.5,1-0.1,1.1,0.1c0.4,0.7,0,1.3-0.7,2.2c-0.3,0.4-0.7,1.2-0.8,1.6
				c-0.2,1.1,0.4,2.4,1.2,3.2c0.7,0.7,3.5,1.9,3,2.8c-1.1,0.5-2.4,0.1-3.3-0.6c-0.9-0.8-1.5-1.8-2-2.9c-0.6-1.3-1-2.8-0.5-4.1
				C703.2,51.3,704,50.6,704.9,50z"/>
			<path fill="#B1C6B5" d="M713.2,51.8c0.5-0.1,0.8-0.8,0.5-1.3c-0.9-0.1-1.7,1-1.4,1.8c0.3,0.1,0.6,0.1,0.9,0
				c0.3-0.1,0.5-0.5,0.3-0.7"/>
		</g>
		<g>
			<circle fill="#C4CABF" cx="1224.4" cy="61.4" r="15"/>
			<g>
				<g>
					<path fill="#93BDAF" d="M1238.1,54.1c-5-9-17.3-11.2-24.5-3.4c-4.4,4.8-5.9,12-2.9,17.9c4.7,9.3,17.5,10.9,24.5,3.4
						C1239.8,67.1,1240.8,60.2,1238.1,54.1c0.1,0.1-0.7,0.7-0.6,1c4,8.9-1,19.6-11.2,20.7c-6.2,0.7-12.3-2.6-15.1-8.2
						c-4.4-8.8,1.3-19.6,11.2-20.7c6.4-0.7,12,2.7,15.1,8.2C1237.5,55,1238.2,54.3,1238.1,54.1z"/>
				</g>
			</g>
			<path fill="#D5E0DA" d="M1219.2,70.1c1.3,0.2,1.5-0.6,1.5-1c0-1.4-1-1.8-2.6-2.6c-0.7-0.3-1.8-1.2-2.3-1.8
				c-1.1-1.4-1.2-3.8-0.6-5.5c0.5-1.5,3.6-5.3,2.2-6.1c-1.9,0.1-3.5,1.6-4.3,3.3c-0.8,1.7-0.8,3.7-0.7,5.6c0.1,2.2,0.5,4.7,2.2,6.2
				C1216,69.3,1217.6,69.8,1219.2,70.1z"/>
			<path fill="#B1C6B5" d="M1229.9,61.4c0.9-0.2,1.8,0.6,1.7,1.5c-1.2,0.8-3.2-0.1-3.4-1.6c0.4-0.3,0.8-0.6,1.2-0.7
				c0.5,0,1,0.4,0.9,0.8"/>
		</g>
		<g>
			<circle fill="#C4CABF" cx="789.8" cy="149.6" r="16.2"/>
			<g>
				<g>
					<path fill="#93BDAF" d="M805.8,150.1c-0.9,21.2-31.9,18.7-31.9-0.9c0-10.2,10-17.1,19.6-14.8
						C800.8,136.2,805.5,142.7,805.8,150.1c0-0.1,0.6-0.6,0.6-0.9c-0.5-11.3-11.7-19.6-22.6-15c-6.2,2.6-10.5,9.2-10.5,15.9
						c0,11.4,12,19.4,22.6,15c6.4-2.7,10.2-9.2,10.5-15.9C806.4,149.3,805.8,149.8,805.8,150.1z"/>
				</g>
			</g>
			<path fill="#D5E0DA" d="M780.6,143.7c1.1-0.8,1.7-0.2,1.9,0.2c0.7,1.3-0.1,2.2-1.2,3.8c-0.5,0.6-1.2,2-1.3,2.8
				c-0.3,1.9,0.7,4.2,2.1,5.6c1.2,1.2,6.1,3.4,5.1,4.8c-1.9,0.8-4.2,0.2-5.7-1.1c-1.6-1.3-2.6-3.2-3.4-5.1c-1-2.2-1.8-4.8-0.9-7.1
				C777.9,146,779.2,144.8,780.6,143.7z"/>
			<path fill="#B1C6B5" d="M795.1,146.9c0.9-0.3,1.4-1.5,0.9-2.3c-1.6-0.2-3,1.7-2.5,3.2c0.5,0.1,1,0.2,1.5,0
				c0.5-0.2,0.8-0.8,0.5-1.2"/>
		</g>
		<g>
			<circle fill="#C4CABF" cx="204.9" cy="149.8" r="6.8"/>
			<g>
				<g>
					<path fill="#93BDAF" d="M211.4,150.3c-0.5,8.6-13,6.8-13-0.9c0-4,4-6.4,7.6-5.6C209.2,144.4,211.2,147.1,211.4,150.3
						c0-0.1,0.6-0.6,0.6-0.9c-0.3-4.8-5-8.3-9.6-6.2c-2.6,1.2-4.5,4.3-4.5,7.1c0,4.8,5.2,8.2,9.6,6.2c2.7-1.2,4.4-4.2,4.5-7.1
						C212,149.5,211.4,150,211.4,150.3z"/>
				</g>
			</g>
			<path fill="#D5E0DA" d="M201.1,147.3c0.5-0.4,0.7-0.1,0.8,0.1c0.3,0.5,0,0.9-0.5,1.6c-0.2,0.3-0.5,0.9-0.5,1.2
				c-0.1,0.8,0.3,1.8,0.9,2.3c0.5,0.5,2.5,1.4,2.1,2c-0.8,0.4-1.7,0.1-2.4-0.5c-0.7-0.5-1.1-1.3-1.4-2.1c-0.4-0.9-0.7-2-0.4-2.9
				C199.9,148.3,200.5,147.8,201.1,147.3z"/>
			<path fill="#B1C6B5" d="M207.1,148.7c0.4-0.1,0.6-0.6,0.4-1c-0.7-0.1-1.3,0.7-1,1.3c0.2,0,0.4,0.1,0.6,0c0.2-0.1,0.3-0.4,0.2-0.5
				"/>
		</g>
		<g>
			<circle fill="#C4CABF" cx="170.3" cy="195.4" r="9.5"/>
			<g>
				<g>
					<path fill="#93BDAF" d="M178.1,200.6c-6.9,8.4-21.2,0.3-15.7-9.7c6-10.6,22.4-0.2,15.5,9.9c-0.1,0.2-0.6,1.1-0.2,0.6
						c2.6-3.9,3.3-8.8,0.1-12.6c-4-4.7-11.3-4.3-14.9,0.5c-2.6,3.4-3.2,8-0.9,11.7c3.7,5.7,11.5,5.5,15.6,0.5
						C177.8,201.4,178.2,200.6,178.1,200.6z"/>
				</g>
			</g>
			<path fill="#D5E0DA" d="M168.1,189.4c0.8,0,0.9,0.5,0.8,0.8c-0.1,0.8-0.8,1-1.9,1.3c-0.5,0.1-1.3,0.5-1.6,0.9
				c-0.8,0.8-1.2,2.2-1,3.3c0.2,1,1.7,3.7,0.7,4.1c-1.2-0.3-2-1.4-2.3-2.5c-0.3-1.2-0.1-2.4,0.2-3.6c0.3-1.4,0.9-2.8,2-3.6
				C166,189.5,167.1,189.4,168.1,189.4z"/>
			<path fill="#B1C6B5" d="M173.7,196c0.5,0.2,1.2-0.2,1.2-0.7c-0.7-0.6-2-0.3-2.3,0.6c0.2,0.2,0.4,0.5,0.7,0.6
				c0.3,0.1,0.7-0.1,0.7-0.4"/>
		</g>
		<g>
			<circle fill="#C4CABF" cx="427.8" cy="137.8" r="7.2"/>
			<g>
				<g>
					<path fill="#93BDAF" d="M422.1,141.2c-2.3-3.9-0.8-8.9,3.9-9.9c2.9-0.6,6,0.6,7.6,3.1c2.4,3.8,0.6,8.9-3.9,9.9
						C426.7,144.9,423.8,143.6,422.1,141.2c0,0.1-0.7,0.8-0.6,1c2.9,4.1,8.8,4.4,11.9,0.3c2-2.6,2.7-6.2,0.8-9.1
						c-2.7-4.3-8.9-4.2-11.9-0.3c-2.1,2.7-2.5,6.1-0.8,9.1C421.4,142.1,422.2,141.4,422.1,141.2z"/>
				</g>
			</g>
			<path fill="#D5E0DA" d="M432.7,137.7c-0.2,0.6-0.6,0.5-0.8,0.4c-0.6-0.3-0.5-0.8-0.4-1.7c0-0.4-0.1-1-0.2-1.4
				c-0.3-0.8-1.3-1.4-2.1-1.6c-0.7-0.1-3.1,0.2-3.1-0.6c0.5-0.8,1.5-1.1,2.4-1c0.9,0.1,1.7,0.6,2.5,1.1c0.9,0.6,1.8,1.4,2,2.4
				C433.1,136.2,432.9,137,432.7,137.7z"/>
			<path fill="#B1C6B5" d="M426.5,140c-0.3,0.3-0.2,0.9,0.2,1.1c0.6-0.3,0.7-1.4,0.1-1.8c-0.2,0.1-0.4,0.2-0.6,0.4
				c-0.1,0.2-0.1,0.5,0.1,0.6"/>
		</g>
		<g>
			<circle fill="#C4CABF" cx="580.9" cy="277.7" r="7.2"/>
			<g>
				<g>
					<path fill="#93BDAF" d="M587.2,281c-4.6,7.6-16.8,0.8-12.1-6.8c4.6-7.4,15.6-0.4,11.9,7.2c-0.3,0.6,0.3-0.3,0.4-0.5
						c1.9-3.8,0.8-8.6-3.4-10.3c-3.8-1.6-7.6,0.3-9.5,3.7c-1.9,3.5-1.2,7.9,2.4,10c3.8,2.3,8.1,0.6,10.3-3
						C587.3,281,587.6,280.3,587.2,281z"/>
				</g>
			</g>
			<path fill="#D5E0DA" d="M578.6,273.4c0.6-0.1,0.7,0.3,0.7,0.5c0,0.6-0.5,0.9-1.3,1.2c-0.3,0.1-0.9,0.5-1.1,0.8
				c-0.5,0.7-0.6,1.8-0.4,2.6c0.2,0.7,1.6,2.6,1,3c-0.9-0.1-1.7-0.8-2-1.7c-0.3-0.8-0.3-1.8-0.2-2.7c0.1-1.1,0.3-2.2,1.1-2.9
				C577,273.7,577.8,273.5,578.6,273.4z"/>
			<path fill="#B1C6B5" d="M583.5,277.8c0.4,0.1,0.9-0.3,0.8-0.7c-0.6-0.4-1.5,0-1.6,0.7c0.2,0.2,0.4,0.3,0.6,0.3
				c0.2,0,0.5-0.2,0.4-0.4"/>
		</g>
		<g>
			<circle fill="#C4CABF" cx="560.7" cy="143.8" r="4.5"/>
			<g>
				<g>
					<path fill="#93BDAF" d="M564.7,145.8c-2.8,4.5-10.4,0.3-7.6-4.2c2.8-4.4,9.6,0,7.4,4.6c-0.3,0.6,0.3-0.3,0.4-0.5
						c1.2-2.4,0.6-5.4-2.1-6.6c-2.5-1.1-4.9,0.3-6.1,2.5c-1.2,2.2-0.9,5,1.4,6.4c2.5,1.5,5.1,0.3,6.5-2
						C564.8,145.8,565.1,145.1,564.7,145.8z"/>
				</g>
			</g>
			<path fill="#D5E0DA" d="M559.3,141.1c0.4-0.1,0.4,0.2,0.4,0.3c0,0.4-0.3,0.5-0.8,0.7c-0.2,0.1-0.6,0.3-0.7,0.5
				c-0.3,0.4-0.4,1.1-0.2,1.6c0.1,0.5,1,1.6,0.6,1.9c-0.6,0-1-0.5-1.2-1c-0.2-0.5-0.2-1.1-0.1-1.7c0.1-0.7,0.2-1.4,0.7-1.8
				C558.3,141.3,558.8,141.2,559.3,141.1z"/>
			<path fill="#B1C6B5" d="M562.4,143.8c0.3,0.1,0.5-0.2,0.5-0.4c-0.4-0.3-1,0-1,0.4c0.1,0.1,0.2,0.2,0.4,0.2s0.3-0.1,0.3-0.2"/>
		</g>
		<g>
			<circle fill="#C4CABF" cx="47.4" cy="60" r="4.5"/>
			<g>
				<g>
					<path fill="#93BDAF" d="M51.3,62c-2.8,4.5-10.4,0.3-7.6-4.2c2.8-4.4,9.6,0,7.4,4.6c-0.3,0.6,0.3-0.3,0.4-0.5
						c1.2-2.4,0.6-5.4-2.1-6.6c-2.5-1.1-4.9,0.3-6.1,2.5c-1.2,2.2-0.9,5,1.4,6.4c2.5,1.5,5.1,0.3,6.5-2C51.5,62,51.8,61.3,51.3,62z"
						/>
				</g>
			</g>
			<path fill="#D5E0DA" d="M45.9,57.4c0.4-0.1,0.4,0.2,0.4,0.3c0,0.4-0.3,0.5-0.8,0.7c-0.2,0.1-0.6,0.3-0.7,0.5
				c-0.3,0.4-0.4,1.1-0.2,1.6c0.1,0.5,1,1.6,0.6,1.9c-0.6,0-1-0.5-1.2-1s-0.2-1.1-0.1-1.7c0.1-0.7,0.2-1.4,0.7-1.8
				C45,57.5,45.5,57.4,45.9,57.4z"/>
			<path fill="#B1C6B5" d="M49,60.1c0.3,0.1,0.5-0.2,0.5-0.4c-0.4-0.3-1,0-1,0.4c0.1,0.1,0.2,0.2,0.4,0.2s0.3-0.1,0.3-0.2"/>
		</g>
		<g>
			<circle fill="#C4CABF" cx="278.4" cy="129.4" r="7.4"/>
			<g>
				<g>
					<path fill="#93BDAF" d="M284.9,132.7c-4.7,7.8-17.2,0.8-12.4-7c4.7-7.6,16-0.4,12.2,7.4c-0.3,0.6,0.3-0.3,0.4-0.5
						c1.9-3.9,0.8-8.8-3.5-10.6c-3.8-1.6-7.8,0.3-9.7,3.8c-2,3.6-1.2,8.1,2.4,10.3c3.9,2.4,8.3,0.6,10.6-3.1
						C285.1,132.7,285.3,132,284.9,132.7z"/>
				</g>
			</g>
			<path fill="#D5E0DA" d="M276.1,125c0.6-0.1,0.7,0.3,0.7,0.5c0,0.7-0.5,0.9-1.3,1.2c-0.3,0.1-0.9,0.6-1.1,0.8
				c-0.5,0.7-0.6,1.8-0.4,2.7c0.2,0.7,1.7,2.7,1,3c-0.9-0.1-1.7-0.8-2-1.7c-0.3-0.9-0.3-1.8-0.2-2.8c0.1-1.1,0.3-2.3,1.2-3
				C274.5,125.3,275.3,125.1,276.1,125z"/>
			<path fill="#B1C6B5" d="M281.1,129.4c0.4,0.1,0.9-0.3,0.9-0.7c-0.6-0.4-1.6,0-1.7,0.7c0.2,0.2,0.4,0.3,0.6,0.3
				c0.2,0,0.5-0.2,0.5-0.4"/>
		</g>
		<g>
			<circle fill="#C4CABF" cx="768.1" cy="381.4" r="7.2"/>
			<g>
				<g>
					<path fill="#93BDAF" d="M762.3,384.8c-2.3-3.9-0.8-8.9,3.9-9.9c2.9-0.6,6,0.6,7.6,3.1c2.4,3.8,0.6,8.9-3.9,9.9
						C766.9,388.6,764,387.3,762.3,384.8c0,0.1-0.7,0.8-0.6,1c2.9,4.1,8.8,4.4,11.9,0.3c2-2.6,2.7-6.2,0.8-9.1
						c-2.7-4.3-8.9-4.2-11.9-0.3c-2.1,2.7-2.5,6.1-0.8,9.1C761.7,385.8,762.4,385.1,762.3,384.8z"/>
				</g>
			</g>
			<path fill="#D5E0DA" d="M772.9,381.4c-0.2,0.6-0.6,0.5-0.8,0.4c-0.6-0.3-0.5-0.8-0.4-1.7c0-0.4-0.1-1-0.2-1.4
				c-0.3-0.8-1.3-1.4-2.1-1.6c-0.7-0.1-3.1,0.2-3.1-0.6c0.5-0.8,1.5-1.1,2.4-1c0.9,0.1,1.7,0.6,2.5,1.1c0.9,0.6,1.8,1.4,2,2.4
				C773.4,379.9,773.2,380.7,772.9,381.4z"/>
			<path fill="#B1C6B5" d="M766.7,383.7c-0.3,0.3-0.2,0.9,0.2,1.1c0.6-0.3,0.7-1.4,0.1-1.8c-0.2,0.1-0.4,0.2-0.6,0.4
				c-0.1,0.2-0.1,0.5,0.1,0.6"/>
		</g>
		<g>
			<circle fill="#C4CABF" cx="1411.2" cy="109.2" r="7.2"/>
			<g>
				<g>
					<path fill="#93BDAF" d="M1417.4,112.7c-5,6.9-16.6,0.6-12.1-7c4.5-7.6,16.3-0.2,11.9,7.3c-0.3,0.6-0.2,0.6,0.1,0.1
						c2-3.3,1.9-7.5-1.3-10.1c-3.5-2.8-8.4-1.6-10.7,2c-2,3-2.1,6.9,0.5,9.6c3.4,3.5,8.6,2.5,11.3-1.2
						C1417.2,113.3,1417.7,112.3,1417.4,112.7z"/>
				</g>
			</g>
			<path fill="#D5E0DA" d="M1409.3,104.7c0.6,0,0.7,0.3,0.7,0.6c-0.1,0.6-0.6,0.8-1.4,1.1c-0.3,0.1-0.9,0.5-1.2,0.7
				c-0.6,0.6-0.8,1.7-0.6,2.6c0.2,0.7,1.4,2.7,0.7,3c-0.9-0.1-1.6-0.9-1.9-1.8s-0.2-1.8,0-2.7c0.2-1.1,0.5-2.2,1.4-2.8
				C1407.7,104.9,1408.5,104.8,1409.3,104.7z"/>
			<path fill="#B1C6B5" d="M1413.8,109.4c0.4,0.1,0.9-0.2,0.9-0.6c-0.6-0.4-1.5-0.1-1.7,0.6c0.2,0.2,0.3,0.3,0.6,0.4
				c0.2,0,0.5-0.1,0.5-0.4"/>
		</g>
		<g>
			<circle fill="#C4CABF" cx="1303.8" cy="44.5" r="7.2"/>
			<g>
				<g>
					<path fill="#93BDAF" d="M1298.1,47.9c-2.3-3.9-0.8-8.9,3.9-9.9c2.9-0.6,6,0.6,7.6,3.1c2.4,3.8,0.6,8.9-3.9,9.9
						C1302.7,51.7,1299.8,50.3,1298.1,47.9c0,0.1-0.7,0.8-0.6,1c2.9,4.1,8.8,4.4,11.9,0.3c2-2.6,2.7-6.2,0.8-9.1
						c-2.7-4.3-8.9-4.2-11.9-0.3c-2.1,2.7-2.5,6.1-0.8,9.1C1297.5,48.8,1298.2,48.1,1298.1,47.9z"/>
				</g>
			</g>
			<path fill="#D5E0DA" d="M1308.7,44.5c-0.2,0.6-0.6,0.5-0.8,0.4c-0.6-0.3-0.5-0.8-0.4-1.7c0-0.4-0.1-1-0.2-1.4
				c-0.3-0.8-1.3-1.4-2.1-1.6c-0.7-0.1-3.1,0.2-3.1-0.6c0.5-0.8,1.5-1.1,2.4-1c0.9,0.1,1.7,0.6,2.5,1.1c0.9,0.6,1.8,1.4,2,2.4
				C1309.2,42.9,1308.9,43.7,1308.7,44.5z"/>
			<path fill="#B1C6B5" d="M1302.5,46.7c-0.3,0.3-0.2,0.9,0.2,1.1c0.6-0.3,0.7-1.4,0.1-1.8c-0.2,0.1-0.4,0.2-0.6,0.4
				c-0.1,0.2-0.1,0.5,0.1,0.6"/>
		</g>
		<g>
			<circle fill="#C4CABF" cx="791.7" cy="70" r="18.7"/>
			<g>
				<g>
					<path fill="#93BDAF" d="M784.5,53.3c7.7-2.7,16.4-0.7,21.5,5.9c7.1,9.2,4.1,23-7,27.3c-7.4,2.9-16,0.6-21.1-5.4
						C770,71.9,773.4,58.1,784.5,53.3c0.5-0.2,0.6-1.5,1-1.7c-7.5,3.2-13,10.9-13,19.2C772.6,83.8,786,93,798,88.3
						c7.5-2.9,13-11.1,13-19.2c-0.1-13.3-13.3-21.6-25.5-17.4C784.9,51.8,784.8,53.2,784.5,53.3z"/>
				</g>
			</g>
			<path fill="#B2C5BA" d="M784.1,56.2c1.5-1,3.2-1.8,4.9-2.3c1.5-0.5,3.1-0.7,4.6-0.2s2.8,1.9,2.6,3.5c-0.1,1.2-1,2.2-1.8,3
				c-0.5,0.5-0.9,1-1.4,1.5c-0.5,0.5-1,1.1-1.6,1.6c-1.6,1.5-3.4,2.6-5.4,3.3c-1.1,0.4-2.3,0.6-3.4,0.3c-2.2-0.6-3.3-3.3-2.8-5.6
				C780.4,59.2,782.1,57.5,784.1,56.2z"/>
			<path fill="#B1C5BA" d="M799.2,76.9c-0.4-1.1-1.7-1.5-2.9-1.7c-2.9-0.4-5.9-0.4-8.8-0.4c-0.6,0-1.1,0-1.6,0.3
				c-0.5,0.3-0.8,0.9-0.5,1.4c0.2,0.3,0.5,0.4,0.8,0.6c2.9,1.3,5.9,2.7,9.1,2.9c1,0.1,2,0,2.9-0.5C798.9,78.9,799.5,77.8,799.2,76.9
				z"/>
			<path fill="#B4D5C9" d="M790.2,60.2c-0.3,0.9-1.1,1.6-1.7,2.3c-2.7,3.1-2.8,7.6-2.7,11.8c0,0.8,0.1,1.8,0.9,2.1
				c-0.8,0.9-1.7,1.9-2.9,1.7c-1.2-0.2-1.9-1.4-2.2-2.6c-1.1-3.7-0.6-7.8,1.2-11.2C784.3,61.6,787.3,59.2,790.2,60.2z"/>
		</g>
		<g>
			<circle fill="#C4CABF" cx="564.5" cy="217.9" r="6.5"/>
			<g>
				<g>
					<path fill="#93BDAF" d="M561.6,212.7c2.7-0.9,5.7-0.3,7.5,2c2.3,2.9,1.8,7-1.8,8.4C560.7,225.7,554.4,215.9,561.6,212.7
						c0.5-0.2,0.7-1.6,0.9-1.7c-2.8,1.2-5,4.4-5.1,7.5c-0.1,4.6,4.6,8,8.9,6.3c2.6-1,4.7-4.1,5.1-6.9c0.6-5-4.3-8.5-8.9-7
						C562,211.1,561.9,212.5,561.6,212.7z"/>
				</g>
			</g>
			<path fill="#B2C5BA" d="M561.8,213.1c0.5-0.3,1.1-0.6,1.7-0.8c0.5-0.2,1.1-0.2,1.6-0.1c0.5,0.2,1,0.7,0.9,1.2
				c0,0.4-0.3,0.8-0.6,1.1c-0.2,0.2-0.3,0.4-0.5,0.5c-0.2,0.2-0.4,0.4-0.5,0.6c-0.5,0.5-1.2,0.9-1.9,1.1c-0.4,0.1-0.8,0.2-1.2,0.1
				c-0.8-0.2-1.2-1.2-1-1.9C560.5,214.2,561.1,213.6,561.8,213.1z"/>
			<path fill="#B1C5BA" d="M567,220.3c-0.1-0.4-0.6-0.5-1-0.6c-1-0.2-2.1-0.1-3.1-0.1c-0.2,0-0.4,0-0.6,0.1
				c-0.2,0.1-0.3,0.3-0.2,0.5c0.1,0.1,0.2,0.1,0.3,0.2c1,0.5,2.1,0.9,3.2,1c0.3,0,0.7,0,1-0.2S567.1,220.6,567,220.3z"/>
			<path fill="#B4D5C9" d="M563.9,214.5c-0.1,0.3-0.4,0.5-0.6,0.8c-1,1.1-1,2.7-0.9,4.1c0,0.3,0,0.6,0.3,0.7c-0.3,0.3-0.6,0.7-1,0.6
				c-0.4-0.1-0.6-0.5-0.8-0.9c-0.4-1.3-0.2-2.7,0.4-3.9C561.9,215,562.9,214.2,563.9,214.5z"/>
		</g>
		<g>
			<circle fill="#C4CABF" cx="1405.5" cy="60.2" r="14.3"/>
			<g>
				<g>
					<path fill="#93BDAF" d="M1399.9,47.7c5.5-1.8,11.6-0.8,15.6,3.6c6.1,6.6,4.5,17.8-4.4,21.2
						C1395.5,78.6,1383.2,55.1,1399.9,47.7c0.5-0.2,0.7-1.6,0.9-1.7c-5.7,2.5-10,8.5-10.1,14.8c0,9.9,10.2,17.1,19.4,13.4
						c5.4-2.1,9.4-7.8,10-13.5c1.1-10.8-9.5-18-19.3-14.7C1400.3,46.2,1400.2,47.6,1399.9,47.7z"/>
				</g>
			</g>
			<path fill="#B2C5BA" d="M1399.7,49.7c1.2-0.8,2.4-1.3,3.8-1.7c1.1-0.3,2.4-0.5,3.5-0.2s2.1,1.5,2,2.7c-0.1,0.9-0.7,1.6-1.4,2.3
				c-0.4,0.4-0.7,0.8-1.1,1.2c-0.4,0.4-0.8,0.8-1.2,1.2c-1.2,1.1-2.6,2-4.1,2.5c-0.8,0.3-1.7,0.5-2.6,0.2c-1.7-0.5-2.5-2.5-2.1-4.2
				S1398.2,50.7,1399.7,49.7z"/>
			<path fill="#B1C5BA" d="M1411.2,65.4c-0.3-0.9-1.3-1.2-2.2-1.3c-2.2-0.3-4.5-0.3-6.7-0.3c-0.4,0-0.9,0-1.2,0.2s-0.6,0.7-0.4,1.1
				c0.1,0.2,0.4,0.3,0.6,0.4c2.2,1,4.5,2,6.9,2.2c0.8,0.1,1.5,0,2.2-0.4C1411,67,1411.4,66.2,1411.2,65.4z"/>
			<path fill="#B4D5C9" d="M1404.4,52.7c-0.2,0.7-0.8,1.2-1.3,1.7c-2.1,2.3-2.1,5.8-2.1,9c0,0.6,0.1,1.3,0.7,1.6
				c-0.6,0.7-1.3,1.4-2.2,1.3c-0.9-0.1-1.4-1.1-1.7-2c-0.8-2.8-0.5-5.9,0.9-8.5C1399.9,53.8,1402.2,52,1404.4,52.7z"/>
		</g>
		<g>
			<circle fill="#C4CABF" cx="1144.3" cy="150.9" r="6.7"/>
			<g>
				<g>
					<path fill="#93BDAF" d="M1141.4,145.4c2.8-0.9,5.8-0.3,7.7,2.1c2.4,3,1.9,7.3-1.9,8.7C1140.4,158.9,1134,148.8,1141.4,145.4
						c0.5-0.2,0.7-1.6,0.9-1.7c-2.8,1.3-5.2,4.5-5.2,7.7c-0.1,4.7,4.7,8.3,9.2,6.5c2.7-1.1,4.8-4.2,5.2-7.1c0.7-5.2-4.4-8.7-9.1-7.2
						C1141.8,143.9,1141.7,145.3,1141.4,145.4z"/>
				</g>
			</g>
			<path fill="#B2C5BA" d="M1141.6,145.9c0.5-0.4,1.1-0.6,1.8-0.8c0.5-0.2,1.1-0.3,1.7-0.1s1,0.7,0.9,1.3c0,0.4-0.3,0.8-0.6,1.1
				c-0.2,0.2-0.3,0.4-0.5,0.6c-0.2,0.2-0.4,0.4-0.6,0.6c-0.6,0.5-1.2,0.9-2,1.2c-0.4,0.1-0.8,0.2-1.2,0.1c-0.8-0.2-1.2-1.2-1-2
				C1140.2,147,1140.9,146.4,1141.6,145.9z"/>
			<path fill="#B1C5BA" d="M1147,153.3c-0.1-0.4-0.6-0.6-1.1-0.6c-1.1-0.2-2.1-0.2-3.2-0.2c-0.2,0-0.4,0-0.6,0.1s-0.3,0.3-0.2,0.5
				c0.1,0.1,0.2,0.2,0.3,0.2c1,0.5,2.1,1,3.3,1c0.4,0,0.7,0,1-0.2C1146.9,154.1,1147.1,153.7,1147,153.3z"/>
			<path fill="#B4D5C9" d="M1143.8,147.4c-0.1,0.3-0.4,0.6-0.6,0.8c-1,1.1-1,2.7-1,4.2c0,0.3,0,0.6,0.3,0.8c-0.3,0.3-0.6,0.7-1,0.6
				c-0.4-0.1-0.7-0.5-0.8-0.9c-0.4-1.3-0.2-2.8,0.4-4C1141.6,147.9,1142.7,147,1143.8,147.4z"/>
		</g>
		<g>
			<circle fill="#C4CABF" cx="1078.5" cy="335.6" r="7.8"/>
			<g>
				<g>
					<path fill="#93BDAF" d="M1075.2,329.2c3.2-1.1,6.7-0.3,8.9,2.4c2.8,3.5,2.1,8.7-2.3,10.4
						C1073.7,345.1,1066.4,333.1,1075.2,329.2c0.5-0.2,0.7-1.6,0.9-1.7c-3.2,1.4-5.8,5.1-5.9,8.7c-0.1,5.5,5.5,9.6,10.6,7.5
						c3.1-1.2,5.5-4.7,5.9-7.9c0.8-6-5.1-10.1-10.5-8.3C1075.6,327.7,1075.5,329.1,1075.2,329.2z"/>
				</g>
			</g>
			<path fill="#B2C5BA" d="M1075.3,329.9c0.6-0.4,1.3-0.7,2-0.9c0.6-0.2,1.3-0.3,1.9-0.1c0.6,0.2,1.1,0.8,1.1,1.5
				c0,0.5-0.4,0.9-0.7,1.3c-0.2,0.2-0.4,0.4-0.6,0.6c-0.2,0.2-0.4,0.5-0.7,0.7c-0.6,0.6-1.4,1.1-2.3,1.4c-0.5,0.2-0.9,0.3-1.4,0.1
				c-0.9-0.3-1.4-1.4-1.2-2.3S1074.5,330.4,1075.3,329.9z"/>
			<path fill="#B1C5BA" d="M1081.5,338.5c-0.2-0.5-0.7-0.6-1.2-0.7c-1.2-0.2-2.4-0.2-3.7-0.2c-0.2,0-0.5,0-0.7,0.1
				c-0.2,0.1-0.3,0.4-0.2,0.6c0.1,0.1,0.2,0.2,0.3,0.2c1.2,0.5,2.5,1.1,3.8,1.2c0.4,0,0.8,0,1.2-0.2
				C1081.4,339.3,1081.7,338.9,1081.5,338.5z"/>
			<path fill="#B4D5C9" d="M1077.8,331.6c-0.1,0.4-0.4,0.6-0.7,0.9c-1.1,1.3-1.2,3.2-1.1,4.9c0,0.3,0.1,0.7,0.4,0.9
				c-0.3,0.4-0.7,0.8-1.2,0.7c-0.5-0.1-0.8-0.6-0.9-1.1c-0.4-1.5-0.3-3.2,0.5-4.6C1075.4,332.2,1076.6,331.2,1077.8,331.6z"/>
		</g>
		<g>
			<circle fill="#C4CABF" cx="1081.6" cy="194.9" r="7.8"/>
			<g>
				<g>
					<path fill="#93BDAF" d="M1073.7,198.2c2.1,5.4,9,7.2,13.1,2.8c2.3-2.5,3.7-6.2,2.6-9.5c-1.9-5.6-9.2-7-13.1-2.8
						C1073.9,191.3,1072.8,194.8,1073.7,198.2c-0.1-0.3,1.1-1.2,1-1.7c-2.7-9.5,11-11.4,13.8-3.3c1.6,4.7-2.2,8.9-7,8.6
						c-3.2-0.2-5.6-2.4-6.8-5.3C1074.8,196.8,1073.5,197.8,1073.7,198.2z"/>
				</g>
			</g>
			<path fill="#B2C5BA" d="M1075.2,196.1c0.1,0.8,0.3,1.5,0.6,2.2c0.3,0.6,0.6,1.2,1.2,1.5c0.6,0.3,1.3,0.4,1.8-0.1
				c0.4-0.4,0.4-0.9,0.5-1.4c0-0.3,0.1-0.6,0.1-0.9c0-0.3,0.1-0.6,0.1-0.9c0-0.9-0.1-1.8-0.4-2.6c-0.2-0.4-0.4-0.9-0.8-1.2
				c-0.8-0.5-2-0.2-2.5,0.6C1075.1,194.1,1075,195.1,1075.2,196.1z"/>
			<path fill="#B1C5BA" d="M1085.8,195.4c-0.5,0.2-1-0.1-1.3-0.5c-0.9-0.8-1.7-1.8-2.5-2.7c-0.1-0.2-0.3-0.4-0.3-0.6
				c0-0.2,0.1-0.5,0.3-0.5c0.1,0,0.3,0,0.4,0.1c1.2,0.6,2.4,1.2,3.3,2.1c0.3,0.3,0.5,0.6,0.6,1.1
				C1086.3,194.8,1086.1,195.3,1085.8,195.4z"/>
			<path fill="#B4D5C9" d="M1078.1,197c0.2-0.3,0.2-0.8,0.3-1.2c0.3-1.7,1.7-2.9,3-4c0.3-0.2,0.6-0.4,0.9-0.3
				c0.1-0.5,0.1-1.1-0.2-1.4c-0.4-0.3-1-0.2-1.4,0c-1.5,0.6-2.7,1.9-3.2,3.4C1076.9,194.7,1077,196.3,1078.1,197z"/>
		</g>
		<g>
			<circle fill="#C4CABF" cx="1166.5" cy="323.4" r="11.5"/>
			<g>
				<g>
					<path fill="#93BDAF" d="M1156.7,317.6c3.5-4.6,9.7-6.2,14.8-3.3c5.4,3,7.5,9.7,4.2,14.9c-7.4,11.6-26-0.2-18.7-11.9
						c0.3-0.5,0.8-1.7,0.1-0.5c-3.2,5.2-3.7,11.7,1.2,16.1c5.4,4.9,13.5,3.4,17.4-2.4c3.2-4.6,3.8-10.7,0-15.2
						c-5.1-6.1-13.9-4.8-18.4,1.2C1157.1,316.5,1156.3,318.2,1156.7,317.6z"/>
				</g>
			</g>
			<path fill="#B2C5BA" d="M1157.9,319.1c0.4-1,1-2,1.7-2.9c0.6-0.7,1.3-1.4,2.3-1.7c0.9-0.3,2.1,0,2.5,0.9c0.4,0.6,0.3,1.4,0.2,2.2
				c-0.1,0.4-0.1,0.8-0.2,1.3c-0.1,0.5-0.1,0.9-0.2,1.4c-0.3,1.3-0.8,2.5-1.6,3.5c-0.4,0.6-0.9,1.1-1.6,1.3
				c-1.3,0.5-2.8-0.5-3.3-1.8C1157,321.9,1157.3,320.4,1157.9,319.1z"/>
			<path fill="#B1C5BA" d="M1172.6,324.3c-0.6-0.4-1.4-0.2-2.1,0.1c-1.6,0.8-3.1,1.8-4.6,2.8c-0.3,0.2-0.6,0.4-0.7,0.7
				c-0.1,0.3-0.1,0.7,0.2,0.9c0.2,0.1,0.4,0,0.6,0c1.9-0.3,3.9-0.7,5.6-1.7c0.5-0.3,1-0.7,1.3-1.2S1173.1,324.7,1172.6,324.3z"/>
			<path fill="#B4D5C9" d="M1162.3,319c0.2,0.6,0,1.2-0.1,1.7c-0.3,2.5,1.2,4.8,2.7,6.9c0.3,0.4,0.7,0.8,1.2,0.8
				c-0.1,0.7-0.2,1.6-0.9,1.9c-0.7,0.3-1.4-0.1-2-0.5c-1.8-1.5-3-3.7-3.2-6.1C1159.9,321.8,1160.5,319.5,1162.3,319z"/>
		</g>
		<g>
			<circle fill="#C4CABF" cx="1306.8" cy="261.4" r="7.4"/>
			<g>
				<g>
					<path fill="#93BDAF" d="M1300.4,257.9c2.2-2.9,6.3-3.9,9.5-2.1c3.2,1.8,4.9,6.1,2.8,9.3c-4.6,7-16.5-0.5-12.1-7.6
						c0.3-0.5,0.8-1.7,0.1-0.5c-2.1,3.5-2.7,7.7,0.6,10.8c3.5,3.2,8.8,2.1,11.4-1.7c2.1-3.1,2.8-7.2,0.2-10.3c-3.4-4-9-3-11.9,0.8
						C1300.8,256.8,1300,258.5,1300.4,257.9z"/>
				</g>
			</g>
			<path fill="#B2C5BA" d="M1301.3,258.7c0.3-0.7,0.6-1.3,1.1-1.8c0.4-0.5,0.9-0.9,1.5-1.1c0.6-0.2,1.3,0,1.6,0.6
				c0.2,0.4,0.2,0.9,0.1,1.4c0,0.3-0.1,0.5-0.1,0.8c0,0.3-0.1,0.6-0.2,0.9c-0.2,0.8-0.5,1.6-1,2.3c-0.3,0.4-0.6,0.7-1,0.9
				c-0.9,0.3-1.8-0.3-2.1-1.2C1300.7,260.4,1300.9,259.5,1301.3,258.7z"/>
			<path fill="#B1C5BA" d="M1310.8,262c-0.4-0.3-0.9-0.1-1.3,0.1c-1,0.5-2,1.2-3,1.8c-0.2,0.1-0.4,0.3-0.5,0.5
				c-0.1,0.2,0,0.5,0.2,0.6c0.1,0.1,0.3,0,0.4,0c1.2-0.2,2.5-0.5,3.6-1.1c0.3-0.2,0.7-0.4,0.8-0.8
				C1311.1,262.7,1311.1,262.2,1310.8,262z"/>
			<path fill="#B4D5C9" d="M1304.2,258.6c0.1,0.4,0,0.7,0,1.1c-0.2,1.6,0.8,3.1,1.8,4.4c0.2,0.3,0.4,0.5,0.8,0.5
				c0,0.5-0.1,1-0.6,1.2c-0.4,0.2-0.9-0.1-1.3-0.4c-1.2-1-1.9-2.4-2.1-3.9C1302.5,260.3,1303,258.9,1304.2,258.6z"/>
		</g>
		<g>
			<circle fill="#C4CABF" cx="287.5" cy="270.5" r="15.1"/>
			<g>
				<g>
					<path fill="#93BDAF" d="M281.6,257.3c6-2,12.5-0.8,16.7,4.1c6.3,7.1,4.4,18.7-4.9,22.4C276.9,290.1,263.6,265.2,281.6,257.3
						c0.5-0.2,0.7-1.6,0.9-1.7c-6.1,2.7-10.7,9.1-10.6,15.9c0.1,10.3,10.9,17.7,20.6,13.9c5.8-2.3,10.1-8.4,10.6-14.6
						c0.8-11.2-10.3-18.7-20.5-15.2C282,255.8,281.9,257.2,281.6,257.3z"/>
				</g>
			</g>
			<path fill="#B2C5BA" d="M281.3,259.4c1.2-0.8,2.6-1.4,4-1.8c1.2-0.4,2.5-0.6,3.7-0.2c1.2,0.4,2.2,1.6,2.1,2.8
				c-0.1,1-0.8,1.7-1.4,2.5c-0.4,0.4-0.8,0.8-1.1,1.2c-0.4,0.4-0.8,0.9-1.3,1.3c-1.3,1.2-2.8,2.1-4.4,2.6c-0.9,0.3-1.8,0.5-2.7,0.3
				c-1.8-0.5-2.7-2.7-2.2-4.5S279.8,260.5,281.3,259.4z"/>
			<path fill="#B1C5BA" d="M293.5,276.1c-0.3-0.9-1.4-1.2-2.4-1.4c-2.4-0.3-4.7-0.3-7.1-0.3c-0.4,0-0.9,0-1.3,0.2
				c-0.4,0.2-0.6,0.8-0.4,1.1c0.1,0.2,0.4,0.3,0.6,0.5c2.4,1.1,4.8,2.1,7.3,2.3c0.8,0.1,1.6,0,2.3-0.4S293.7,276.8,293.5,276.1z"/>
			<path fill="#B4D5C9" d="M286.3,262.6c-0.2,0.7-0.9,1.3-1.4,1.8c-2.2,2.5-2.3,6.2-2.2,9.5c0,0.7,0.1,1.4,0.7,1.7
				c-0.6,0.7-1.4,1.5-2.3,1.4c-1-0.1-1.5-1.2-1.8-2.1c-0.9-3-0.5-6.3,1-9C281.5,263.8,283.9,261.9,286.3,262.6z"/>
		</g>
		<g>
			<circle fill="#C4CABF" cx="1175.9" cy="86.2" r="16.1"/>
			<g>
				<g>
					<path fill="#93BDAF" d="M1191.6,86.8c-0.8,21.1-31.3,18.1-31.4-1.1c-0.1-10.2,10-16.8,19.3-14.4
						C1186.7,73.1,1191.3,79.5,1191.6,86.8c0-0.2,0.8-0.9,0.8-1.3c-0.6-11.3-12-19.5-22.8-14.6c-6,2.8-10.3,9.5-10.2,16.1
						c0.1,11.5,12.3,19.3,22.8,14.6c6.2-2.8,10-9.4,10.2-16.1C1192.4,85.7,1191.7,86.3,1191.6,86.8z"/>
				</g>
			</g>
			<path fill="#96BAB0" d="M1169.4,72.8c-1.9,0.5-3.3,2-4.6,3.4c-1.3,1.4-2.6,2.9-3.4,4.7c-0.5,1.1-0.7,2.2-0.9,3.3
				c-0.3,2.2-0.3,4.6,0.4,6.7c0.8,2.1,2.4,4,4.5,4.8c0.3-0.3,0.6-0.7,0.6-1.1c-0.2-0.1-0.4-0.2-0.6-0.2c-2.8-4.6-2.1-11,1.5-15
				c1.5-1.6,3.4-2.8,4.5-4.6c0.2-0.2,0.3-0.5,0.3-0.8C1171.9,73,1170.4,72.6,1169.4,72.8z"/>
			<path fill="#D5E0DA" d="M1162.9,77.5c-1.6,3.1-0.7,7.4,2.2,9.5c1.4,1,3,1.5,4.6,2c0.4,0.1,0.9,0.3,1.3,0.4
				c0.1-3.3,1.5-6.5,3.8-8.9c2.2-2.3,5.5-4.1,6.1-7.3c-2-1.4-4.3-3-6.8-2.7c-1.2,0.1-2.2,0.6-3.3,1.1
				C1167.7,73,1164.4,74.5,1162.9,77.5z"/>
			<path fill="#B1C5BA" d="M1174,92.7c1.5,1.6,4.1,2,6,1c1.9-1,3.1-3.3,2.8-5.5c-0.3-2.5-2.5-4.6-5.1-5c-0.5-0.1-1-0.1-1.5,0.1
				c-0.5,0.2-0.9,0.6-0.9,1.1c-0.1,0.9,0.8,1.5,1.6,1.8s1.8,0.3,2.4,0.9c0.8,0.7,0.8,2,0.2,2.9c-0.6,0.9-1.7,1.3-2.7,1.4
				s-2.1-0.3-3-0.8c-0.2,0.4-0.5,0.9-0.4,1.4C1173.6,92.3,1173.8,92.5,1174,92.7z"/>
		</g>
		<g>
			<circle fill="#C4CABF" cx="1089.7" cy="65.5" r="11.2"/>
			<g>
				<g>
					<path fill="#93BDAF" d="M1100.3,66.4c-0.8,14-21.3,10.9-21.3-1.8c0-6.6,6.6-10.4,12.5-9.1C1096.8,56.6,1100,61.2,1100.3,66.4
						c0-0.3,1.1-1.2,1.1-1.8c-0.4-7.9-8.2-13.7-15.9-10.2c-4.3,2-7.6,7.3-7.6,12c0,8,8.5,13.6,15.9,10.2c4.5-2.1,7.4-7.2,7.6-12
						C1101.4,64.9,1100.4,65.8,1100.3,66.4z"/>
				</g>
			</g>
			<path fill="#D5E0DA" d="M1080.6,59.3c-1.2,2.2-0.5,5.1,1.5,6.6c0.9,0.7,2.1,1.1,3.2,1.4c0.3,0.1,0.6,0.2,0.9,0.3
				c0.1-2.3,1.1-4.5,2.7-6.1c1.6-1.6,3.8-2.8,4.2-5.1c-1.4-1-3-2.1-4.7-1.9c-0.8,0.1-1.6,0.4-2.3,0.7
				C1084,56.2,1081.7,57.3,1080.6,59.3z"/>
		</g>
		<g>
			<circle fill="#C4CABF" cx="846.6" cy="100.8" r="11.2"/>
			<g>
				<g>
					<path fill="#93BDAF" d="M855,95c3.9,5.6,2.5,13.3-4.4,15.6c-4.5,1.4-9.5-0.2-12.4-3.9c-4.1-5.4-2.4-13.4,4.4-15.6
						C847.2,89.6,851.9,91.3,855,95c-0.1-0.1,1.3-1.6,1.1-1.9c-4.7-5.7-13.3-5.8-18,0.1c-3.5,4.4-4.6,10.6-1,15.3
						c9.5,12.4,27.2-3.5,18.9-15.4C856.1,93.2,854.7,94.6,855,95z"/>
				</g>
			</g>
			<path fill="#D5E0DA" d="M835.7,101.4c0.4,2.4,2.7,4.4,5.1,4.4c1.2,0,2.3-0.4,3.4-0.8c0.3-0.1,0.6-0.2,0.9-0.3
				c-1.3-1.9-1.9-4.2-1.6-6.5c0.3-2.2,1.3-4.6,0.3-6.6c-1.7,0-3.6,0.1-4.9,1.3c-0.6,0.5-1,1.3-1.4,2
				C836.5,96.8,835.3,99.1,835.7,101.4z"/>
		</g>
		<g>
			<circle fill="#C4CABF" cx="1059.3" cy="435.4" r="11.2"/>
			<g>
				<g>
					<path fill="#93BDAF" d="M1070,436.3c-0.8,14-21.3,10.9-21.3-1.8c0-6.6,6.6-10.4,12.5-9.1C1066.4,426.5,1069.7,431.1,1070,436.3
						c0-0.3,1.1-1.2,1.1-1.8c-0.4-7.9-8.2-13.7-15.9-10.2c-4.3,2-7.6,7.3-7.6,12c0,8,8.5,13.6,15.9,10.2c4.5-2.1,7.4-7.2,7.6-12
						C1071,434.8,1070,435.7,1070,436.3z"/>
				</g>
			</g>
			<path fill="#D5E0DA" d="M1050.3,429.3c-1.2,2.2-0.5,5.1,1.5,6.6c0.9,0.7,2.1,1.1,3.2,1.4c0.3,0.1,0.6,0.2,0.9,0.3
				c0.1-2.3,1.1-4.5,2.7-6.1c1.6-1.6,3.8-2.8,4.2-5.1c-1.4-1-3-2.1-4.7-1.9c-0.8,0.1-1.6,0.4-2.3,0.7
				C1053.6,426.1,1051.3,427.2,1050.3,429.3z"/>
		</g>
		<g>
			<circle fill="#C4CABF" cx="477" cy="311.4" r="11.2"/>
			<g>
				<g>
					<path fill="#93BDAF" d="M481.6,302.4c4.2,2.4,7,7.1,5.8,12c-1.5,6.6-9.6,8.8-15.1,6c-4-2.1-7.2-7.4-5.8-12
						C468.5,301.6,475.8,299.7,481.6,302.4c0.2,0.1,1.2-1.8,1.1-1.9c-13.5-6.2-24.8,14.8-11.4,21.8c13.3,6.9,24.3-14.3,11.4-21.8
						C482.5,300.4,481.4,302.3,481.6,302.4z"/>
				</g>
			</g>
			<path fill="#D5E0DA" d="M467.4,316.6c1.4,2,4.3,2.8,6.5,1.7c1.1-0.5,1.9-1.3,2.7-2.2c0.2-0.2,0.5-0.4,0.7-0.7
				c-2-1.1-3.5-3-4.2-5.2c-0.7-2.1-0.8-4.7-2.5-6.1c-1.5,0.8-3.2,1.7-3.9,3.3c-0.3,0.7-0.4,1.6-0.4,2.4
				C466.1,312.2,466.1,314.7,467.4,316.6z"/>
		</g>
		<g>
			<circle fill="#C4CABF" cx="1241.3" cy="158.8" r="18.4"/>
			<g>
				<g>
					<path fill="#93BDAF" d="M1259.3,159.6c-0.4,11.5-11.3,19-22.1,16.1c-8-2.1-13.7-9.5-13.8-17.8c0-11.3,11.1-18.6,21.5-16.3
						C1253.4,143.6,1258.9,151.1,1259.3,159.6c0-0.3,1-1.1,1-1.7c-0.5-12.6-12.8-21.9-25-17.3c-7.5,2.8-12.9,11-12.9,19
						c0,12.7,13.1,21.8,25,17.3c7.7-2.9,12.6-10.9,12.9-19C1260.3,158.3,1259.3,159.1,1259.3,159.6z"/>
				</g>
			</g>
			<path fill="#96BAB0" d="M1233.9,143.4c-2.1,0.6-3.8,2.3-5.3,3.9c-1.5,1.6-3,3.3-4,5.3c-0.5,1.2-0.9,2.5-1.1,3.8
				c-0.4,2.6-0.4,5.3,0.4,7.7c0.9,2.4,2.7,4.6,5.1,5.5c0.4-0.3,0.7-0.8,0.7-1.3c-0.2-0.1-0.4-0.2-0.7-0.2
				c-3.1-5.3-2.3-12.6,1.9-17.1c1.7-1.8,3.9-3.2,5.2-5.3c0.2-0.3,0.3-0.6,0.4-0.9C1236.8,143.6,1235.1,143.1,1233.9,143.4z"/>
			<path fill="#CBDCD7" d="M1236.8,145.7c0.2,1.7,0.2,3.6-0.5,5.2c-0.7,1.6-2.4,2.9-4.1,2.7c-1.5-0.2-2.7-1.6-3-3.1
				c-0.3-1.5,0.2-3.1,0.9-4.4c1.6-2.7,4.6-4.5,7.7-5.2c3.1-0.8,6.3-0.7,9.5-0.5c0.5,0.2,0.6,0.9,0.3,1.3s-0.8,0.6-1.3,0.8
				c-3.3,1.2-6.5,2.3-9.8,3.5"/>
			<path fill="#B1C5BA" d="M1236.5,167c1.3,0,2.5-0.3,3.7-0.9c1.4-0.8,2.5-2.1,3.2-3.5c1.5-3.7-0.8-8.5-4.7-9.6
				c-3.9-1.1-8.3,1.8-8.9,5.8C1229.1,162.8,1232.5,166.9,1236.5,167z"/>
			<path fill="none" d="M1252.2,148.9c-1.7,1.5-2.3,4.2-1.4,6.3c0.4,1,1.1,1.9,1.1,3c0,1.1-1.6,2-2.2,1.1c-2.4-1.6-3.7-4.6-3.2-7.4
				c0.5-2.8,2.8-5.2,5.5-5.8c0.3,1,0.5,1.9,0.8,2.9"/>
		</g>
		<g>
			<circle fill="#C4CABF" cx="1177.9" cy="26.5" r="18.4"/>
			<g>
				<g>
					<path fill="#93BDAF" d="M1192.9,37.6c5.2-8,5.7-18.3-1.7-25.3c-8.3-7.9-21.6-6.1-28.1,3.1c-5.2,7.4-5.6,17.5,0.7,24.5
						c8.2,9,21.9,7.2,29-2.1c0.2-0.2,1.1-1.9,0.6-1.3c-5.5,7.3-15.6,9.9-23.7,5.4c-3.5-1.9-6.4-5-8-8.7c-2.5-5.6-1.9-10.5,1.2-15.7
						c3-5,6.7-7.8,12.7-8.4c3.9-0.4,8,0.5,11.4,2.5c8.4,5,11.9,16.6,6.4,25.1C1193,36.9,1192.2,38.6,1192.9,37.6z"/>
				</g>
			</g>
			<path fill="#96BAB0" d="M1163.1,34.9c-1.4-1.7-1.8-4-2.1-6.2c-0.3-2.2-0.6-4.4-0.2-6.6c0.2-1.3,0.7-2.5,1.3-3.7
				c1.1-2.3,2.7-4.5,4.8-6.1s4.9-2.3,7.4-1.6c0.1,0.5,0.1,1-0.2,1.5c-0.2,0-0.5-0.1-0.7-0.2c-5.6,2.5-9.1,9-8.3,15.1
				c0.4,2.4,1.3,4.8,1.2,7.3c0,0.3-0.1,0.7-0.2,0.9C1165.6,36.4,1163.9,35.9,1163.1,34.9z"/>
			<path fill="#CBDCD7" d="M1166.8,34.7c1.1-1.3,2.2-2.8,2.6-4.5c0.4-1.7-0.3-3.8-1.8-4.5c-1.4-0.7-3.1-0.2-4.2,0.8
				c-1.1,1.1-1.6,2.6-1.7,4.1c-0.2,3.2,1.2,6.3,3.3,8.7c2.1,2.4,4.8,4.2,7.5,5.8c0.5,0.1,1-0.4,1-0.9s-0.3-1-0.6-1.4
				c-2-2.8-4-5.6-6-8.4"/>
			<path fill="#B1C5BA" d="M1178.7,17c1.1,0.7,1.9,1.7,2.5,2.8c0.7,1.4,0.9,3.1,0.6,4.7c-0.9,3.9-5.5,6.5-9.3,5.1
				c-3.8-1.3-5.8-6.3-4-9.9S1175.4,14.8,1178.7,17z"/>
			<path fill="none" d="M1181.2,40.9c-0.5-2.2,0.5-4.7,2.5-5.9c0.9-0.6,2-0.9,2.6-1.8s-0.1-2.5-1.1-2.1c-2.8-0.1-5.6,1.6-6.8,4.2
				c-1.2,2.6-0.7,5.8,1.2,8c0.8-0.6,1.5-1.3,2.3-1.9"/>
		</g>
		<g>
			<circle fill="#C4CABF" cx="918.8" cy="24.6" r="23.7"/>
			<g>
				<g>
					<path fill="#93BDAF" d="M942.9,25.6c0.6-11.6-6.7-22.4-18.3-25c-9.9-2.3-19.9,2.1-25.4,10.5c-5.1,7.8-6.2,17.7-1.5,26
						c6,10.6,19.5,15,30.5,9.9C936.5,43.1,941.9,34.6,942.9,25.6c0,0.3-1,1.1-1,1.7c-1.6,14.6-16.3,23.3-29.9,18.9
						c-10.3-3.3-17.2-13.6-16.3-24.4c1.2-14.7,16.6-23.2,29.9-18.9c10.5,3.4,16.9,13.5,16.3,24.4C941.9,27,942.9,26.2,942.9,25.6z"
						/>
				</g>
			</g>
			<path fill="#96BAB0" d="M907.7,43.5c-2.7-0.9-4.6-3.3-6.3-5.5c-1.8-2.2-3.5-4.5-4.5-7.2c-0.6-1.6-0.8-3.3-1-5
				c-0.3-3.3,0-6.8,1.4-9.8s3.9-5.7,7.2-6.5c0.5,0.4,0.8,1.1,0.8,1.7c-0.3,0.2-0.6,0.2-0.9,0.2c-4.6,6.5-4.3,15.9,0.6,22.1
				c2,2.5,4.6,4.5,6.1,7.3c0.2,0.4,0.4,0.8,0.4,1.2C911.4,43.5,909.2,44,907.7,43.5z"/>
			<path fill="#CBDCD7" d="M911.6,40.8c0.4-2.2,0.6-4.6-0.1-6.7c-0.7-2.1-2.7-4-5-3.9c-2,0.1-3.6,1.7-4.1,3.6
				c-0.5,1.9-0.1,3.9,0.8,5.7c1.8,3.7,5.5,6.2,9.3,7.5s8,1.5,12.1,1.6c0.6-0.2,0.8-1.1,0.5-1.7c-0.3-0.6-1-0.9-1.6-1.2
				c-4-1.8-8.1-3.6-12.1-5.4"/>
			<path fill="#B1C5BA" d="M913.5,13.5c1.6,0.1,3.2,0.6,4.6,1.5c1.7,1.1,3.1,2.9,3.7,4.9c1.6,4.9-1.9,10.8-7,11.8
				c-5.1,1-10.5-3.2-10.8-8.3S908.3,13.3,913.5,13.5z"/>
			<path fill="none" d="M931.6,38.3c-2-2.1-2.5-5.6-1.1-8.2c0.6-1.2,1.6-2.3,1.7-3.7s-1.8-2.7-2.6-1.6c-3.2,1.7-5.2,5.5-4.8,9.1
				c0.3,3.6,3,6.9,6.5,8.1c0.4-1.2,0.9-2.4,1.3-3.6"/>
		</g>
		<g>
			<circle fill="#C4CABF" cx="747.4" cy="330" r="13.4"/>
			<g>
				<g>
					<path fill="#93BDAF" d="M760.4,330.8c-0.4,8.4-8.7,13.5-16.4,11.1c-5.5-1.7-9.4-7-9.4-12.8c0-8.6,8.9-13.4,16.4-11.1
						C756.6,319.8,760.1,325,760.4,330.8c0-0.2,1.1-1.1,1-1.7c-0.5-9.3-9.6-16.2-18.7-12.4c-5.3,2.2-9.2,8.3-9.2,14.1
						c0,9.5,10,16.1,18.7,12.4c5.5-2.3,8.9-8.3,9.2-14.1C761.4,329.4,760.4,330.2,760.4,330.8z"/>
				</g>
			</g>
			<path fill="#96BAB0" d="M742.1,318.8c-1.6,0.4-2.7,1.6-3.8,2.8c-1.1,1.2-2.2,2.4-2.9,3.9c-0.4,0.9-0.6,1.8-0.8,2.8
				c-0.3,1.9-0.3,3.8,0.3,5.6c0.6,1.8,2,3.4,3.7,4c0.3-0.2,0.5-0.6,0.5-0.9c-0.1-0.1-0.3-0.2-0.5-0.2c-2.3-3.9-1.7-9.2,1.4-12.4
				c1.2-1.3,2.8-2.3,3.8-3.8c0.1-0.2,0.2-0.4,0.3-0.6C744.2,318.9,742.9,318.6,742.1,318.8z"/>
			<path fill="#CBDCD7" d="M744.2,320.5c0.1,1.3,0.2,2.6-0.4,3.8c-0.5,1.2-1.7,2.1-3,2c-1.1-0.2-2-1.1-2.2-2.2
				c-0.2-1.1,0.1-2.2,0.7-3.2c1.2-2,3.4-3.2,5.6-3.8c2.3-0.6,4.6-0.5,6.9-0.3c0.4,0.1,0.4,0.7,0.2,1c-0.2,0.3-0.6,0.5-1,0.6
				c-2.4,0.8-4.7,1.7-7.1,2.5"/>
			<path fill="#B1C5BA" d="M744,336c0.9,0,1.9-0.2,2.7-0.6c1-0.6,1.9-1.5,2.3-2.6c1.1-2.7-0.6-6.2-3.4-7c-2.8-0.8-6.1,1.3-6.5,4.2
				C738.6,332.9,741,335.9,744,336z"/>
			<path fill="none" d="M755.3,322.8c-1.2,1.1-1.6,3-1,4.6c0.3,0.7,0.8,1.4,0.8,2.2c0,0.8-1.1,1.4-1.6,0.8c-1.7-1.1-2.7-3.3-2.3-5.4
				c0.4-2,2-3.8,4-4.3c0.2,0.7,0.4,1.4,0.6,2.1"/>
		</g>
		<g>
			<circle fill="#C4CABF" cx="1312.2" cy="100.5" r="8.6"/>
			<g>
				<g>
					<path fill="#93BDAF" d="M1320.3,101.4c-0.6,10.6-16.2,7.8-16.2-1.7c0-5,5-7.7,9.4-6.7C1317.6,93.9,1320.1,97.4,1320.3,101.4
						c0-0.2,1.1-1.1,1-1.7c-0.3-6.1-6.3-10.5-12.2-7.9c-3.4,1.5-6,5.8-6,9.5c0,6.2,6.6,10.4,12.2,7.9c3.6-1.6,5.9-5.8,6.1-9.6
						C1321.3,100,1320.4,100.8,1320.3,101.4z"/>
				</g>
			</g>
			<path fill="#96BAB0" d="M1308.8,93.4c-1,0.3-1.8,1.1-2.5,1.8c-0.7,0.8-1.4,1.5-1.8,2.5c-0.3,0.6-0.4,1.2-0.5,1.8
				c-0.2,1.2-0.2,2.5,0.2,3.6c0.4,1.1,1.3,2.2,2.4,2.6c0.2-0.1,0.3-0.4,0.3-0.6c-0.1-0.1-0.2-0.1-0.3-0.1c-1.5-2.5-1.1-5.9,0.9-8
				c0.8-0.8,1.8-1.5,2.4-2.5c0.1-0.1,0.2-0.3,0.2-0.4C1310.1,93.5,1309.3,93.2,1308.8,93.4z"/>
			<path fill="#CBDCD7" d="M1310.1,94.4c0.1,0.8,0.1,1.7-0.2,2.4c-0.3,0.8-1.1,1.4-1.9,1.3c-0.7-0.1-1.3-0.7-1.4-1.4
				c-0.1-0.7,0.1-1.4,0.4-2c0.8-1.3,2.2-2.1,3.6-2.4c1.4-0.4,3-0.3,4.4-0.2c0.2,0.1,0.3,0.4,0.1,0.6c-0.1,0.2-0.4,0.3-0.6,0.4
				c-1.5,0.5-3,1.1-4.6,1.6"/>
			<path fill="#B1C5BA" d="M1310,104.4c0.6,0,1.2-0.1,1.7-0.4c0.7-0.4,1.2-1,1.5-1.7c0.7-1.7-0.4-4-2.2-4.5s-3.9,0.9-4.2,2.7
				C1306.5,102.4,1308.1,104.3,1310,104.4z"/>
			<path fill="none" d="M1317.3,95.9c-0.8,0.7-1.1,2-0.6,2.9c0.2,0.5,0.5,0.9,0.5,1.4c0,0.5-0.7,0.9-1,0.5c-1.1-0.7-1.7-2.1-1.5-3.4
				s1.3-2.4,2.6-2.7c0.1,0.4,0.2,0.9,0.4,1.3"/>
		</g>
		<g>
			<circle fill="#C4CABF" cx="88" cy="47.9" r="13.4"/>
			<g>
				<g>
					<path fill="#93BDAF" d="M94.9,58.9c-5.7,2.7-12.6,1.7-16.7-3.3c-4.7-5.8-3.8-14.9,3.1-18.6C95,29.5,109.4,50.1,94.9,58.9
						c-0.5,0.3-0.7,1.6-0.9,1.7c5.1-3,8.6-9.1,8-15.1c-1.1-9.3-11.5-14.7-19.7-10.3c-5.1,2.8-8.6,9.3-8,15.1
						c1.2,9.6,11.4,14.3,19.7,10.3C94.4,60.4,94.7,59,94.9,58.9z"/>
				</g>
			</g>
			<path fill="#96BAB0" d="M95.4,37.9c-1.1-1.2-2.7-1.6-4.3-2c-1.6-0.4-3.2-0.8-4.8-0.7c-1,0.1-1.9,0.3-2.8,0.6
				c-1.8,0.6-3.5,1.5-4.8,2.9c-1.3,1.4-2,3.3-1.8,5.2c0.3,0.1,0.7,0.2,1.1,0c0-0.2,0-0.4-0.1-0.5c2.3-3.8,7.3-5.8,11.6-4.7
				c1.7,0.5,3.4,1.4,5.2,1.5c0.2,0,0.5,0,0.7-0.1C96.2,39.8,96,38.5,95.4,37.9z"/>
			<path fill="#CBDCD7" d="M94.9,40.5c-1.1,0.7-2.2,1.4-3.5,1.5c-1.3,0.1-2.7-0.5-3.1-1.7c-0.4-1,0.1-2.3,0.9-3c0.9-0.7,2-1,3.1-0.9
				c2.3,0.1,4.5,1.4,6,3.1c1.6,1.7,2.6,3.8,3.6,5.9c0.1,0.4-0.4,0.7-0.8,0.6s-0.7-0.3-1-0.6c-1.9-1.7-3.7-3.4-5.6-5.1"/>
			<path fill="#B1C5BA" d="M81.1,47.7c0.4,0.8,1,1.5,1.8,2c1,0.6,2.2,0.9,3.4,0.8c2.9-0.3,5.2-3.5,4.5-6.3s-4-4.7-6.8-3.7
				C81.3,41.5,79.8,45.1,81.1,47.7z"/>
			<path fill="none" d="M98.1,51.5c-1.6-0.6-3.5,0-4.5,1.3c-0.5,0.6-0.8,1.4-1.5,1.7c-0.7,0.3-1.8-0.3-1.4-1
				c0.2-2.1,1.7-3.9,3.6-4.6s4.3,0,5.6,1.5c-0.5,0.5-1,1-1.6,1.5"/>
		</g>
		<g>
			<circle fill="#C4CABF" cx="923.7" cy="74.7" r="10.9"/>
			<g>
				<g>
					<path fill="#93BDAF" d="M932.9,71.3c2.6,6.2-0.7,12.6-7.7,13.1c-4.4,0.3-8.7-2.2-10.6-6.2c-2.9-6.1,0.9-12.6,7.7-13.1
						C926.9,64.8,930.8,67.3,932.9,71.3c-0.1-0.3,1.8-1.9,1.5-2.5c-3.6-6.8-12.7-8.4-18-2.6c-3.5,3.8-5.5,9.6-3.2,14.5
						c3.3,7,12.9,8.2,18,2.6c3.7-3.9,5.3-9.5,3.2-14.5C934.5,69.1,932.6,70.6,932.9,71.3z"/>
				</g>
			</g>
			<path fill="#A8C0B7" d="M925.8,67.9c-0.8,1.6-1.8,3.1-3,4.4c-0.5,0.6-1.1,1.2-1.9,1.4c-0.7,0.3-1.7,0.2-2.2-0.5
				c-0.8-0.9-0.6-2.6-1.7-2.9c-0.6-0.2-1.2,0.3-1.7,0.7c-0.5,0.4-1.3,0.6-1.8,0.1c1.2-4.3,5.6-7.5,10-7.3c0.9,0,2,0.2,2.5,1
				C926.6,65.7,926.3,66.9,925.8,67.9z"/>
			<path fill="#B3D2C6" d="M927.8,80.2c0.1,0.2,0.2,0.4,0.2,0.6c0.6,1.4,2.5,1.9,3.7,1c1.1-0.9,0.8-3.1-0.6-3.6
				c-1-0.3-2.2,0.4-2.4,1.4c-0.3,0.1-0.6,0.1-0.8,0.2"/>
		</g>
		<g>
			<circle fill="#C4CABF" cx="1273" cy="80.2" r="6.9"/>
			<g>
				<g>
					<path fill="#93BDAF" d="M1278.5,78.5c1.6,3.7-0.1,7.1-4.3,7.4c-2.8,0.2-5.5-1.4-6.7-3.9c-1.8-3.7,0.3-7.1,4.3-7.4
						C1274.7,74.3,1277.2,76,1278.5,78.5c-0.1-0.3,1.8-1.9,1.5-2.5c-2.3-4.3-8.1-5.3-11.5-1.6c-2.4,2.6-4.1,6.7-2.5,10.1
						c2.1,4.5,8.2,5.2,11.5,1.6c2.5-2.7,4-6.6,2.5-10.1C1280.1,76.3,1278.2,77.8,1278.5,78.5z"/>
				</g>
			</g>
			<path fill="#A8C0B7" d="M1274.3,75.9c-0.5,1-1.1,2-1.9,2.8c-0.3,0.4-0.7,0.7-1.2,0.9s-1.1,0.1-1.4-0.3c-0.5-0.6-0.4-1.7-1.1-1.8
				c-0.4-0.1-0.8,0.2-1.1,0.4c-0.3,0.2-0.9,0.4-1.1,0.1c0.8-2.7,3.5-4.7,6.4-4.7c0.6,0,1.2,0.2,1.6,0.6
				C1274.8,74.5,1274.6,75.3,1274.3,75.9z"/>
			<path fill="#B3D2C6" d="M1275.5,83.7c0.1,0.1,0.1,0.3,0.2,0.4c0.4,0.9,1.6,1.2,2.3,0.6c0.7-0.6,0.5-2-0.4-2.3
				c-0.6-0.2-1.4,0.2-1.6,0.9c-0.2,0-0.4,0.1-0.5,0.1"/>
		</g>
		<g>
			<circle fill="#C4CABF" cx="1259.8" cy="37" r="13.2"/>
			<g>
				<g>
					<path fill="#93BDAF" d="M1271.8,37.7c-0.8,15.6-24.2,13.5-24.1-1.3c0-7.1,6.7-12,13.5-10.9
						C1267.4,26.4,1271.5,31.6,1271.8,37.7c0.1,1.9,2.4-0.1,2.3-1.3c-0.4-8.2-6.9-14.9-15.4-13.9c-7.5,0.8-13.3,7.7-13.3,15.2
						c0.1,8.2,7.2,14.8,15.4,13.9c7.8-0.8,12.9-7.7,13.3-15.2C1274.2,34.5,1271.9,36.5,1271.8,37.7z"/>
				</g>
			</g>
			<path fill="#A6C6BD" d="M1254.5,26c-1.5,0.4-2.7,1.6-3.8,2.8c-1.1,1.2-2.2,2.4-2.8,3.8c-0.4,0.9-0.6,1.8-0.8,2.7
				c-0.3,1.8-0.3,3.8,0.3,5.5c0.6,1.8,1.9,3.3,3.7,3.9c0.3-0.2,0.5-0.6,0.5-0.9c-0.1-0.1-0.3-0.1-0.5-0.1c-2.2-3.8-1.7-9,1.3-12.2
				c1.2-1.3,2.8-2.3,3.7-3.8c0.1-0.2,0.2-0.4,0.3-0.6C1256.6,26.2,1255.3,25.8,1254.5,26z"/>
			<path fill="#CBDCD7" d="M1257.7,30c1.7-2.1,1.8-5.3-0.4-4.7c-2.2,0.5-4.4,1.8-5.5,3.7c-0.6,0.9-0.9,2.1-0.7,3.1
				c0.2,1.1,1.1,2,2.1,2.2c1.2,0.2,2.4-0.8,2.9-1.9C1256.7,31.2,1257.1,30.5,1257.7,30"/>
		</g>
		<g>
			<circle fill="#C4CABF" cx="1151.2" cy="30.2" r="6.9"/>
			<g>
				<g>
					<path fill="#93BDAF" d="M1156.9,30.9c-0.4,7.4-11.5,5.4-11.5-1.3c0-3.3,3.3-5.2,6.3-4.7C1154.7,25.4,1156.8,27.9,1156.9,30.9
						c0.1,1.9,2.4-0.1,2.3-1.3c-0.2-4.5-3.8-8.2-8.5-7.6c-4.3,0.5-7.6,4.7-7.5,8.9c0,4.5,3.8,8.1,8.4,7.6c4.5-0.5,7.4-4.6,7.7-8.9
						C1159.3,27.8,1157,29.7,1156.9,30.9z"/>
				</g>
			</g>
			<path fill="#A6C6BD" d="M1148.4,24.5c-0.8,0.2-1.4,0.8-2,1.4c-0.6,0.6-1.1,1.2-1.5,2c-0.2,0.4-0.3,0.9-0.4,1.4
				c-0.2,1-0.2,2,0.2,2.9c0.3,0.9,1,1.7,1.9,2.1c0.1-0.1,0.2-0.3,0.3-0.5c-0.1-0.1-0.2-0.1-0.3-0.1c-1.2-2-0.9-4.7,0.7-6.4
				c0.6-0.7,1.4-1.2,1.9-2c0.1-0.1,0.1-0.2,0.1-0.3C1149.5,24.6,1148.9,24.4,1148.4,24.5z"/>
			<path fill="#CBDCD7" d="M1150.1,26.6c0.9-1.1,0.9-2.7-0.2-2.5c-1.2,0.3-2.3,0.9-2.9,1.9c-0.3,0.5-0.5,1.1-0.3,1.6
				c0.1,0.6,0.6,1.1,1.1,1.1c0.6,0.1,1.3-0.4,1.5-1C1149.6,27.2,1149.8,26.8,1150.1,26.6"/>
		</g>
		<g>
			<circle fill="#C4CABF" cx="1120.3" cy="368.4" r="9.1"/>
			<g>
				<g>
					<path fill="#93BDAF" d="M1128.3,369c-0.6,10.3-16,8.2-15.9-1.3c0-4.6,4.5-7.6,8.9-6.9C1125.3,361.6,1128,365,1128.3,369
						c0.1,1.9,2.4-0.1,2.3-1.3c-0.3-5.8-4.9-10.6-11-9.8c-5.4,0.6-9.6,5.8-9.5,11.1c0,5.8,5,10.5,10.8,9.8c5.7-0.6,9.4-5.7,9.7-11.1
						C1130.6,365.9,1128.3,367.8,1128.3,369z"/>
				</g>
			</g>
			<path fill="#A6C6BD" d="M1116.7,360.8c-1.1,0.3-1.9,1.1-2.6,1.9c-0.7,0.8-1.5,1.6-1.9,2.6c-0.3,0.6-0.4,1.2-0.5,1.9
				c-0.2,1.3-0.2,2.6,0.2,3.8s1.3,2.3,2.5,2.7c0.2-0.2,0.3-0.4,0.4-0.6c-0.1-0.1-0.2-0.1-0.3-0.1c-1.5-2.6-1.1-6.2,0.9-8.4
				c0.8-0.9,1.9-1.6,2.6-2.6c0.1-0.1,0.2-0.3,0.2-0.4C1118.1,360.9,1117.2,360.6,1116.7,360.8z"/>
			<path fill="#CBDCD7" d="M1118.9,363.5c1.2-1.4,1.2-3.6-0.3-3.3c-1.5,0.4-3,1.2-3.8,2.6c-0.4,0.6-0.6,1.4-0.5,2.2
				c0.1,0.7,0.7,1.4,1.5,1.5c0.9,0.1,1.7-0.5,2-1.3C1118.2,364.4,1118.5,363.9,1118.9,363.5"/>
		</g>
		<g>
			<circle fill="#C4CABF" cx="1369.3" cy="419" r="9.3"/>
			<g>
				<g>
					<path fill="#93BDAF" d="M1377.5,419.6c-0.6,10.6-16.4,8.5-16.3-1.3c0-4.8,4.7-7.8,9.1-7.1
						C1374.5,412,1377.3,415.5,1377.5,419.6c0.1,1.9,2.4-0.1,2.3-1.3c-0.3-5.9-5-10.8-11.2-10c-5.5,0.6-9.8,5.9-9.7,11.3
						c0,5.9,5.1,10.7,11.1,10.1c5.8-0.6,9.5-5.8,9.8-11.3C1379.9,416.5,1377.6,418.4,1377.5,419.6z"/>
				</g>
			</g>
			<path fill="#A6C6BD" d="M1365.6,411.2c-1.1,0.3-1.9,1.1-2.7,2c-0.8,0.8-1.5,1.7-2,2.7c-0.3,0.6-0.4,1.3-0.5,1.9
				c-0.2,1.3-0.2,2.6,0.2,3.9c0.4,1.2,1.4,2.3,2.6,2.8c0.2-0.2,0.3-0.4,0.4-0.7c-0.1-0.1-0.2-0.1-0.3-0.1c-1.6-2.7-1.2-6.4,1-8.6
				c0.9-0.9,1.9-1.6,2.6-2.7c0.1-0.1,0.2-0.3,0.2-0.5C1367.1,411.3,1366.2,411.1,1365.6,411.2z"/>
			<path fill="#CBDCD7" d="M1367.9,414c1.2-1.5,1.3-3.7-0.3-3.3c-1.6,0.4-3.1,1.3-3.9,2.6c-0.4,0.7-0.6,1.4-0.5,2.2
				c0.2,0.8,0.7,1.4,1.5,1.5c0.9,0.1,1.7-0.5,2.1-1.4C1367.2,414.9,1367.5,414.4,1367.9,414"/>
		</g>
		<g>
			<circle fill="#C4CABF" cx="1360" cy="64.6" r="9.3"/>
			<g>
				<g>
					<path fill="#93BDAF" d="M1364.9,58.6c3.4,2.9,4.7,8.4,1.1,11.7c-3,2.8-7.8,2.7-10.9,0.2c-3.5-2.8-4.6-8.5-1.1-11.7
						C1357.2,55.9,1361.7,56.3,1364.9,58.6c1,0.7,2.7-2,1.6-2.8c-11-7.8-23.5,9.4-13,17.5c4.8,3.7,11.6,2,14.9-2.9
						c3.2-4.8,2.5-10.9-1.9-14.6C1365.6,55.1,1363.9,57.7,1364.9,58.6z"/>
				</g>
			</g>
			<path fill="#A6C6BD" d="M1351.6,62.8c-0.4,1-0.3,2.2-0.1,3.3c0.2,1.1,0.4,2.2,0.9,3.2c0.3,0.6,0.7,1.1,1.2,1.6
				c0.9,1,2,1.8,3.2,2.2s2.7,0.4,3.8-0.4c0-0.3-0.1-0.5-0.3-0.7c-0.1,0-0.2,0.1-0.3,0.2c-3.1-0.4-5.7-3-6.2-6
				c-0.2-1.2-0.1-2.5-0.5-3.7c-0.1-0.2-0.1-0.3-0.2-0.4C1352.6,61.7,1351.9,62.2,1351.6,62.8z"/>
			<path fill="#CBDCD7" d="M1355.2,62.7c-0.4-1.8-2.2-3.3-2.8-1.8c-0.7,1.5-0.9,3.2-0.3,4.7c0.3,0.7,0.8,1.4,1.5,1.7
				s1.6,0.3,2.1-0.2c0.6-0.6,0.6-1.7,0.2-2.5C1355.5,63.8,1355.3,63.2,1355.2,62.7"/>
		</g>
		<g>
			<circle fill="#C4CABF" cx="1174.3" cy="118.1" r="7.6"/>
			<g>
				<g>
					<path fill="#93BDAF" d="M1178.1,113.5c2.6,2.2,3.7,6.4,1,9.1c-2.3,2.2-6.2,2-8.6,0.1c-2.7-2.1-3.6-6.5-1-9.1
						C1171.9,111.3,1175.6,111.7,1178.1,113.5c1,0.7,2.7-2,1.6-2.8c-9.1-6.5-19.6,8-10.8,14.7c4,3.1,9.6,1.5,12.4-2.4
						c2.7-4,2.2-9.1-1.5-12.3C1178.8,110,1177.1,112.6,1178.1,113.5z"/>
				</g>
			</g>
			<path fill="#A6C6BD" d="M1167.5,116.6c-0.4,0.8-0.2,1.8-0.1,2.7c0.2,0.9,0.3,1.8,0.7,2.6c0.3,0.5,0.6,0.9,1,1.3
				c0.7,0.8,1.6,1.5,2.6,1.8c1,0.3,2.2,0.3,3.1-0.3c0-0.2-0.1-0.4-0.2-0.6c-0.1,0-0.2,0.1-0.2,0.2c-2.5-0.3-4.7-2.4-5.1-4.9
				c-0.2-1-0.1-2.1-0.4-3c0-0.1-0.1-0.3-0.2-0.3C1168.3,115.7,1167.7,116.2,1167.5,116.6z"/>
			<path fill="#CBDCD7" d="M1170.4,116.5c-0.3-1.5-1.8-2.7-2.3-1.5c-0.5,1.2-0.7,2.6-0.2,3.8c0.2,0.6,0.6,1.1,1.2,1.4
				c0.6,0.3,1.3,0.2,1.7-0.2c0.5-0.5,0.5-1.4,0.2-2C1170.6,117.5,1170.4,117,1170.4,116.5"/>
		</g>
		<g>
			<circle fill="#C4CABF" cx="1108.7" cy="59.7" r="5.4"/>
			<g>
				<g>
					<path fill="#93BDAF" d="M1111.2,56.8c1.6,1.4,2.5,4.1,0.8,5.8c-1.6,1.5-4.2,1.3-5.9,0c-1.7-1.3-2.5-4.1-0.8-5.8
						C1107,55.3,1109.5,55.6,1111.2,56.8c1,0.7,2.7-2,1.6-2.8c-6.9-4.9-14.8,6.3-8.2,11.3c3,2.3,7.2,1,9.2-1.9c2.1-3,1.8-7-1-9.4
						C1111.9,53.3,1110.2,56,1111.2,56.8z"/>
				</g>
			</g>
			<path fill="#A6C6BD" d="M1103.8,58.7c-0.3,0.6-0.2,1.3,0,1.9c0.1,0.6,0.2,1.3,0.5,1.9c0.2,0.3,0.4,0.6,0.7,0.9
				c0.5,0.6,1.1,1,1.9,1.3c0.7,0.2,1.6,0.2,2.2-0.2c0-0.1-0.1-0.3-0.2-0.4c-0.1,0-0.1,0.1-0.2,0.1c-1.8-0.2-3.3-1.7-3.6-3.5
				c-0.1-0.7,0-1.5-0.3-2.1c0-0.1-0.1-0.2-0.1-0.2C1104.4,58.1,1104,58.4,1103.8,58.7z"/>
			<path fill="#CBDCD7" d="M1105.9,58.6c-0.2-1.1-1.3-1.9-1.6-1s-0.5,1.9-0.2,2.7c0.2,0.4,0.4,0.8,0.8,1c0.4,0.2,0.9,0.2,1.2-0.1
				c0.4-0.4,0.4-1,0.1-1.4C1106.1,59.3,1105.9,59,1105.9,58.6"/>
		</g>
		<g>
			<circle fill="#C4CABF" cx="35.9" cy="185.8" r="16.4"/>
			<path fill="#B1C5BA" d="M40.3,176.3c1.7,0.1,3.4,0.5,4.8,1.4c1.4,0.9,2.4,2.6,2.2,4.2c-0.8,0-1.6-0.1-2.4-0.1
				c-1.8-2-3.7-4-5.7-5.8"/>
			<path fill="#B1C5BA" d="M47.1,194c0.4,0.7,0.3,1.5,0,2.2c-0.4,0.6-1.1,1.1-1.8,1.1c-0.3-0.6-0.3-1.4,0.1-2
				c0.4-0.6,1.1-0.9,1.9-0.8"/>
			<g>
				<g>
					<path fill="#93BDAF" d="M36.3,204.3c8.3-1.2,14.2-7.9,16.5-15.7c3.3-11-5.7-22.4-17.3-21.2c-8.3,0.9-14.2,8.1-16.5,15.7
						C15.6,194.4,24.8,205,36.3,204.3c1.2-0.1,1.9-4.3,2.5-4.3c-7,0.4-13.6-3-16.6-9.6c-3.9-8.8,1.2-17.7,10.8-18.7
						c6.5-0.7,12.9,2.7,16,8.4c1.8,3.3,2.6,7.6,1.6,11.3c-1.5,5.3-6.9,7.8-11.8,8.5C37.6,200.1,37,204.2,36.3,204.3z"/>
				</g>
			</g>
			<path fill="#D5E0DA" d="M26.9,196.5c2.5,1.2,5.2,2.1,7.9,2.5c1.4,0.2,3.1,0.1,3.7-1.1c0.4-0.9-0.1-2.1-0.9-2.8
				c-0.8-0.7-1.7-1.1-2.6-1.8c-2.3-1.8-3.3-4.8-4-7.6c-0.4-1.3-0.7-2.7,0-3.8c0.4-0.6,1-1.1,1.5-1.5c1.3-1,2.7-1.9,4-2.9
				c-2.8-1-5.9-1.5-8.9-1.4c-1.7,0-3.5,0.3-4.8,1.3c-0.7,0.5-1.2,1.2-1.7,1.9c-1,1.4-1.9,2.8-2.3,4.4c-0.7,2.6,0.1,5.6,1.7,7.8
				C22.1,193.6,24.5,195.3,26.9,196.5z"/>
		</g>
		<g>
			<circle fill="#C4CABF" cx="718.4" cy="243.9" r="13.4"/>
			<path fill="#B1C5BA" d="M722,236.1c1.4,0.1,2.8,0.4,3.9,1.1s2,2.1,1.8,3.5c-0.7,0-1.3-0.1-2-0.1c-1.5-1.7-3.1-3.3-4.7-4.8"/>
			<path fill="#B1C5BA" d="M727.6,250.7c0.3,0.5,0.3,1.2,0,1.8c-0.3,0.5-0.9,0.9-1.5,0.9c-0.3-0.5-0.2-1.2,0.1-1.7s0.9-0.7,1.5-0.7"
				/>
			<g>
				<g>
					<path fill="#93BDAF" d="M718.5,259.4c7-1.1,11.9-6.8,13.9-13.4c2.8-9.1-4.4-18.6-14.1-17.7c-7,0.7-12,7.1-13.9,13.4
						C701.4,251.2,708.9,259.9,718.5,259.4c1.2-0.1,2-4.3,2.5-4.3c-5.4,0.3-10.5-2.1-13.1-6.9c-3.9-7.1-0.2-14.6,7.9-15.5
						c13.9-1.5,21.6,19.9,5.2,22.4C719.7,255.3,719.2,259.3,718.5,259.4z"/>
				</g>
			</g>
			<path fill="#D5E0DA" d="M711,252.7c2,1,4.2,1.7,6.5,2c1.1,0.2,2.6,0.1,3.1-0.9c0.4-0.8-0.1-1.7-0.7-2.3c-0.6-0.6-1.4-0.9-2.1-1.4
				c-1.9-1.4-2.7-3.9-3.3-6.2c-0.3-1-0.6-2.2,0-3.1c0.3-0.5,0.8-0.9,1.3-1.2c1.1-0.8,2.2-1.6,3.3-2.4c-2.3-0.8-4.8-1.2-7.3-1.2
				c-1.4,0-2.9,0.2-4,1.1c-0.5,0.4-1,1-1.4,1.6c-0.8,1.1-1.6,2.3-1.9,3.6c-0.6,2.2,0.1,4.6,1.4,6.4C707.1,250.3,709,251.7,711,252.7
				z"/>
		</g>
		<g>
			<circle fill="#C4CABF" cx="291.4" cy="396.5" r="6.9"/>
			<g>
				<g>
					<path fill="#93BDAF" d="M299,395.4c-0.2-4.9-5-8.5-9.8-6.4c-3,1.3-5.4,5.4-5.5,8.6c0,5,5.2,8.5,9.8,6.4
						C296.6,402.6,298.8,398.6,299,395.4c0,0.4-1.4,1.5-1.4,2.3c-0.2,3.7-4.2,5.1-7.4,4.2c-2.9-0.8-5-3.6-5-6.6c0-3.5,4-5,7-4.3
						c3.2,0.7,5.2,3.5,5.4,6.7C297.6,397.3,299,396.1,299,395.4z"/>
				</g>
			</g>
			<path fill="#B1C5BA" d="M287.7,395.9c0,1,0.5,1.1,1.2,1.7c0.4,0.3,0.9,0.6,1.3,0.9c0.4,0.4,0.7,0.9,0.6,1.4c-0.1,0.6-0.8,1-1.4,1
				c-1.7,0.1-2.9-1.4-3.9-2.7c-0.3-0.4-0.6-0.8-0.7-1.3c-0.1-0.7,0.3-1.4,1-1.6C286.5,395,287.3,395.3,287.7,395.9"/>
		</g>
		<g>
			<circle fill="#C4CABF" cx="206.5" cy="387.1" r="6.6"/>
			<g>
				<g>
					<path fill="#93BDAF" d="M213,383.1c-2.3-4.1-7.8-4.9-10.9-1.3c-2.2,2.5-3.7,6.2-2.1,9.4c2.1,4.2,7.9,4.7,10.9,1.3
						C213.2,389.9,214.4,386.4,213,383.1c0.1,0.3-1.5,1.6-1.2,2.1c1.6,3.5,0,7-4.1,7.4c-2.6,0.2-5.3-1.2-6.5-3.6
						c-1.7-3.5,0.1-7,4.1-7.4c2.8-0.2,5.1,1.3,6.5,3.6C211.6,385.1,213.2,383.6,213,383.1z"/>
				</g>
			</g>
			<path fill="#B2C5BB" d="M203.1,388.3c0.4,0.8,0.9,0.7,1.8,0.9c0.5,0.1,1,0.1,1.5,0.2c0.5,0.1,1,0.4,1.1,0.9
				c0.2,0.6-0.2,1.2-0.7,1.5c-1.3,0.8-3.1,0.1-4.5-0.6c-0.4-0.2-0.9-0.5-1.1-0.8c-0.4-0.5-0.3-1.3,0.1-1.8
				C201.7,388.1,202.5,387.9,203.1,388.3"/>
		</g>
		<g>
			<circle fill="#C4CABF" cx="189.5" cy="111.8" r="6.6"/>
			<g>
				<g>
					<path fill="#93BDAF" d="M196,107.8c-2.3-4.1-7.8-4.9-10.9-1.3c-2.2,2.5-3.7,6.2-2.1,9.4c2.1,4.2,7.9,4.7,10.9,1.3
						C196.2,114.6,197.4,111.1,196,107.8c0.1,0.3-1.5,1.6-1.2,2.1c1.6,3.5,0,7-4.1,7.4c-2.6,0.2-5.3-1.2-6.5-3.6
						c-1.7-3.5,0.1-7,4.1-7.4c2.8-0.2,5.1,1.3,6.5,3.6C194.6,109.7,196.3,108.3,196,107.8z"/>
				</g>
			</g>
			<path fill="#B2C5BB" d="M186.1,112.9c0.4,0.8,0.9,0.7,1.8,0.9c0.5,0.1,1,0.1,1.5,0.2s1,0.4,1.1,0.9c0.2,0.6-0.2,1.2-0.7,1.5
				c-1.3,0.8-3.1,0.1-4.5-0.6c-0.4-0.2-0.9-0.5-1.1-0.8c-0.4-0.5-0.3-1.3,0.1-1.8C184.8,112.7,185.5,112.6,186.1,112.9"/>
		</g>
		<g>
			<circle fill="#C4CABF" cx="283.7" cy="210.9" r="8.6"/>
			<g>
				<g>
					<path fill="#93BDAF" d="M292.9,210.1c-0.3-6.1-6.3-10.6-12.2-8c-3.4,1.5-6.1,5.9-6.2,9.6c-0.1,6.2,6.5,10.5,12.2,8
						C290.3,218.2,292.6,214,292.9,210.1c0,0.3-1,1.2-1.1,1.8c-0.7,10.5-16.3,7.6-16.2-1.9c0-4.9,5.1-7.5,9.5-6.5
						c4,0.9,6.5,4.4,6.7,8.5C291.8,211.6,292.9,210.7,292.9,210.1z"/>
				</g>
			</g>
			<path fill="#D5E0DA" d="M279.9,215.9c0.7,0.3,1.6,0.4,2.1-0.2c0.2-0.2,0.2-0.5,0.3-0.7c0.1-0.8,0.1-1.6-0.3-2.3
				c-0.2-0.4-0.4-0.7-0.6-1.1c-0.5-0.9-0.7-1.9-0.5-2.9c0.1-0.9,0.4-2-0.3-2.6c-1.1-0.1-2.1,0.5-2.7,1.5c-0.6,0.9-0.8,2-0.9,3.1
				c-0.1,1.3-0.1,2.7,0.6,3.7C278.2,215.2,279,215.6,279.9,215.9z"/>
			<path fill="#B1C5BA" d="M285.7,213.8c0.5,0.1,0.7,0.8,0.5,1.2c-0.8,0.1-1.6-0.9-1.3-1.7c0.3-0.1,0.6-0.1,0.8,0
				c0.3,0.1,0.4,0.5,0.2,0.7"/>
			<path fill="#B2C2B3" d="M281.9,215.6c0.6-0.2,1.2-0.2,1.8-0.1c0.4,0.3,0.4,0.9,0.1,1.3c-0.3,0.4-0.8,0.5-1.3,0.4
				c-0.4-0.1-0.8-0.4-0.9-0.8s0.2-0.9,0.6-0.9"/>
		</g>
		<g>
			<circle fill="#C4CABF" cx="39.3" cy="297.2" r="7.8"/>
			<g>
				<g>
					<path fill="#93BDAF" d="M47.7,296.2c-0.3-5.5-5.6-9.6-11-7.2c-3.2,1.4-5.8,5.7-5.9,9.2c-0.1,5.6,5.8,9.5,11,7.2
						C45.2,303.9,47.5,299.8,47.7,296.2c0,0.4-1.2,1.4-1.3,2.1c-0.6,9.1-14.4,6-14.3-2.2c0-4.2,4.6-6.2,8.3-5.4c3.6,0.8,5.9,4,6,7.6
						C46.4,298,47.8,296.9,47.7,296.2z"/>
				</g>
			</g>
			<path fill="#D5E0DA" d="M34.9,300c0.5,0.4,0.8,0.1,0.9-0.1c0.3-0.6,0-1.1-0.6-1.8c-0.2-0.3-0.5-1-0.6-1.4c-0.2-0.9,0.4-2,1-2.7
				c0.6-0.6,2.9-1.6,2.5-2.3c-0.9-0.4-2-0.1-2.8,0.5s-1.2,1.5-1.6,2.4c-0.5,1.1-0.9,2.3-0.5,3.4C33.5,298.9,34.2,299.5,34.9,300z"/>
			<path fill="#B1C6B5" d="M41.8,298.5c0.4,0.1,0.7,0.7,0.4,1.1c-0.8,0.1-1.4-0.8-1.2-1.5c0.2-0.1,0.5-0.1,0.7,0
				c0.2,0.1,0.4,0.4,0.2,0.6"/>
		</g>
		<g>
			<circle fill="#C4CABF" cx="34.1" cy="121.8" r="15.4"/>
			<g>
				<g>
					<path fill="#93BDAF" d="M50.1,120.9C49.8,110,39,102,28.5,106.5c-6,2.6-10.5,9.6-10.5,16.2c-0.1,11,11.5,18.7,21.6,14.3
						C45.8,134.3,49.8,127.5,50.1,120.9c0,0.4-1.2,1.4-1.3,2.1c-1,19.5-29.7,15.4-29.6-2.3c0.1-9.4,9.7-14.9,18.2-12.6
						c6.9,1.8,11.2,8,11.4,15C48.8,122.6,50.2,121.5,50.1,120.9z"/>
				</g>
			</g>
			<path fill="#D5E0DA" d="M25.3,127.3c1,0.8,1.6,0.2,1.9-0.2c0.7-1.2-0.1-2.1-1.1-3.6c-0.5-0.6-1.1-2-1.2-2.7c-0.3-1.8,0.7-4,2-5.3
				c1.2-1.1,5.8-3.2,4.9-4.5c-1.8-0.8-4-0.2-5.5,1s-2.5,3-3.3,4.8c-0.9,2.1-1.7,4.5-0.9,6.7C22.6,125.1,23.9,126.3,25.3,127.3z"/>
			<path fill="#B1C6B5" d="M39,124.4c0.9,0.3,1.3,1.4,0.8,2.2c-1.5,0.1-2.9-1.6-2.3-3c0.5-0.1,1-0.2,1.4,0s0.7,0.8,0.4,1.2"/>
		</g>
		<g>
			<circle fill="#C4CABF" cx="83.6" cy="436.9" r="6"/>
			<g>
				<g>
					<path fill="#93BDAF" d="M81,443.2c7.5,2.5,13-9.5,5.3-12.6C78.9,427.6,73.5,439.8,81,443.2c0.2,0.1,0.9-1.5,0.9-1.5
						c-2.3-1-4.1-3.3-3.8-6c0.4-3.5,4.4-4.8,7.3-3.6c2.3,0.9,4,3.4,3.8,6c-0.4,3.7-4.4,4.6-7.3,3.6C81.6,441.6,81,443.2,81,443.2z"
						/>
				</g>
			</g>
			<path fill="#B2C5BA" d="M81.1,441.2c0.5,0.3,1,0.6,1.6,0.7c0.5,0.1,1,0.2,1.5,0.1c0.5-0.2,0.9-0.6,0.8-1.1c0-0.4-0.3-0.7-0.6-1
				c-0.1-0.2-0.3-0.3-0.4-0.5c-0.2-0.2-0.3-0.4-0.5-0.5c-0.5-0.5-1.1-0.8-1.7-1.1c-0.3-0.1-0.7-0.2-1.1-0.1
				c-0.7,0.2-1.1,1.1-0.9,1.8C80,440.3,80.5,440.8,81.1,441.2z"/>
			<path fill="#B1C5BA" d="M86,434.7c-0.1,0.4-0.6,0.5-0.9,0.5c-0.9,0.1-1.9,0.1-2.8,0.1c-0.2,0-0.4,0-0.5-0.1
				c-0.2-0.1-0.3-0.3-0.2-0.5c0.1-0.1,0.2-0.1,0.2-0.2c0.9-0.4,1.9-0.8,2.9-0.9c0.3,0,0.6,0,0.9,0.2C85.9,434.1,86.1,434.4,86,434.7
				z"/>
			<path fill="#B4D5C9" d="M83.1,440c-0.1-0.3-0.3-0.5-0.5-0.7c-0.9-1-0.9-2.5-0.8-3.8c0-0.3,0-0.6,0.3-0.7
				c-0.2-0.3-0.5-0.6-0.9-0.6c-0.4,0-0.6,0.5-0.7,0.8c-0.3,1.2-0.2,2.5,0.4,3.6C81.2,439.5,82.2,440.3,83.1,440z"/>
		</g>
		<g>
			<circle fill="#C4CABF" cx="106.2" cy="341.4" r="5.7"/>
			<g>
				<g>
					<path fill="#93BDAF" d="M103.5,347.6c7.1,2.4,12.7-9.4,5.3-12.4C101.8,332.4,96.3,344.3,103.5,347.6c0.2,0.1,1.2-1.8,1.1-1.9
						c-2.1-1-3.9-3.2-3.5-5.6c0.4-3.1,4.1-4,6.6-3c2.2,0.8,3.9,3.3,3.5,5.6c-0.4,3.2-4.1,3.9-6.6,3
						C104.3,345.6,103.5,347.6,103.5,347.6z"/>
				</g>
			</g>
			<path fill="#B2C5BA" d="M103.8,345.5c0.5,0.3,1,0.5,1.5,0.7c0.5,0.1,0.9,0.2,1.4,0.1s0.8-0.6,0.8-1c0-0.4-0.3-0.7-0.5-0.9
				c-0.1-0.2-0.3-0.3-0.4-0.5c-0.2-0.2-0.3-0.3-0.5-0.5c-0.5-0.4-1-0.8-1.6-1c-0.3-0.1-0.7-0.2-1-0.1c-0.7,0.2-1,1-0.9,1.7
				S103.2,345.1,103.8,345.5z"/>
			<path fill="#B1C5BA" d="M108.4,339.3c-0.1,0.3-0.5,0.5-0.9,0.5c-0.9,0.1-1.8,0.1-2.7,0.1c-0.2,0-0.3,0-0.5-0.1
				c-0.1-0.1-0.2-0.3-0.1-0.4c0.1-0.1,0.1-0.1,0.2-0.2c0.9-0.4,1.8-0.8,2.8-0.8c0.3,0,0.6,0,0.9,0.2
				C108.3,338.7,108.5,339,108.4,339.3z"/>
			<path fill="#B4D5C9" d="M105.7,344.3c-0.1-0.3-0.3-0.5-0.5-0.7c-0.8-0.9-0.8-2.3-0.8-3.6c0-0.2,0-0.5,0.3-0.6
				c-0.2-0.3-0.5-0.6-0.9-0.5c-0.4,0-0.6,0.4-0.7,0.8c-0.3,1.1-0.2,2.3,0.3,3.4C103.9,343.9,104.8,344.6,105.7,344.3z"/>
		</g>
		<g>
			<circle fill="#C4CABF" cx="649.7" cy="185.3" r="19.4"/>
			<g>
				<g>
					<path fill="#93BDAF" d="M669.6,184.8c-0.3-13.1-12.9-23.1-25.8-18.7c-8,2.8-13.8,11.1-14,19.6c-0.2,13.2,13.2,23,25.8,18.7
						C663.9,201.6,669.2,193.3,669.6,184.8c0,0.3-0.9,1-0.9,1.5c-0.6,12-12.1,19.9-23.5,16.9c-8.5-2.3-14.5-10.2-14.4-19
						c0.1-11.9,11.8-19.6,22.8-17.1c9,2,14.8,10.1,15,19.2C668.7,186.1,669.6,185.3,669.6,184.8z"/>
				</g>
			</g>
			<path fill="#96BAB0" d="M641.7,201.3c-2.2-0.6-3.9-2.4-5.5-4.2c-1.6-1.7-3.1-3.5-4.1-5.7c-0.6-1.3-0.9-2.6-1.1-4
				c-0.4-2.7-0.4-5.5,0.6-8.1c1-2.6,2.9-4.8,5.5-5.7c0.4,0.3,0.7,0.8,0.7,1.4c-0.2,0.1-0.5,0.2-0.7,0.2c-3.4,5.5-2.6,13.2,1.7,18
				c1.8,1.9,4,3.4,5.4,5.6c0.2,0.3,0.3,0.6,0.4,0.9C644.8,201.2,643,201.7,641.7,201.3z"/>
			<path fill="#D5E0DA" d="M633.9,195.7c-1.9-3.8-0.7-8.9,2.7-11.4c1.6-1.2,3.6-1.8,5.6-2.4c0.5-0.2,1.1-0.3,1.6-0.5
				c0.1,3.9,1.7,7.8,4.5,10.7c2.7,2.8,6.6,5,7.2,8.9c-2.5,1.7-5.2,3.5-8.2,3.2c-1.4-0.1-2.7-0.7-4-1.3
				C639.6,201.2,635.7,199.3,633.9,195.7z"/>
			<path fill="#B1C5BA" d="M647.4,177.5c1.8-1.9,4.9-2.4,7.3-1.2c2.3,1.2,3.7,4,3.4,6.6c-0.4,3-3.1,5.6-6.1,6
				c-0.6,0.1-1.3,0.1-1.8-0.1s-1.1-0.7-1.1-1.4c-0.1-1,1-1.8,2-2.1c1-0.3,2.2-0.3,2.9-1c1-0.8,1-2.4,0.3-3.5c-0.7-1.1-2-1.6-3.3-1.7
				c-1.3,0-2.5,0.4-3.7,0.9c-0.3-0.5-0.5-1.1-0.4-1.7C647,178,647.2,177.7,647.4,177.5z"/>
		</g>
		<g>
			<circle fill="#C4CABF" cx="1200.1" cy="385.4" r="13.6"/>
			<g>
				<g>
					<path fill="#93BDAF" d="M1214.1,384.8c-0.3-9.5-9.5-16.6-18.7-12.8c-5.3,2.2-9.3,8.2-9.4,13.9c-0.1,9.6,9.8,16.4,18.7,12.8
						C1210.4,396.5,1213.8,390.6,1214.1,384.8c0,0.3-0.9,1-0.9,1.5c-1.1,17.2-26.6,14.1-26.3-1.9c0.2-8.1,8.1-13.2,15.6-11.5
						c6.4,1.4,10.4,7,10.7,13.4C1213.2,386.1,1214.2,385.3,1214.1,384.8z"/>
				</g>
			</g>
			<path fill="#96BAB0" d="M1194.5,396.6c-1.6-0.4-2.7-1.7-3.8-2.9c-1.1-1.2-2.2-2.5-2.9-4c-0.4-0.9-0.6-1.9-0.8-2.8
				c-0.3-1.9-0.3-3.9,0.4-5.7c0.7-1.8,2-3.4,3.9-4c0.3,0.2,0.5,0.6,0.5,1c-0.1,0.1-0.3,0.1-0.5,0.1c-2.4,3.9-1.9,9.3,1.2,12.6
				c1.2,1.3,2.8,2.4,3.8,3.9c0.1,0.2,0.2,0.4,0.3,0.7C1196.6,396.5,1195.3,396.9,1194.5,396.6z"/>
			<path fill="#D5E0DA" d="M1189,392.6c-1.4-2.7-0.5-6.2,1.9-8c1.1-0.8,2.5-1.3,3.9-1.7c0.4-0.1,0.7-0.2,1.1-0.3
				c0.1,2.8,1.2,5.5,3.1,7.5c1.9,2,4.6,3.5,5.1,6.2c-1.7,1.2-3.6,2.5-5.7,2.3c-1-0.1-1.9-0.5-2.8-0.9
				C1193,396.5,1190.3,395.2,1189,392.6z"/>
			<path fill="#B1C5BA" d="M1198.5,379.9c1.3-1.3,3.5-1.7,5.1-0.8s2.6,2.8,2.4,4.6c-0.3,2.1-2.2,3.9-4.3,4.2
				c-0.4,0.1-0.9,0.1-1.3-0.1c-0.4-0.2-0.7-0.5-0.8-1c-0.1-0.7,0.7-1.3,1.4-1.5s1.5-0.2,2.1-0.7c0.7-0.6,0.7-1.7,0.2-2.5
				s-1.4-1.1-2.3-1.2c-0.9,0-1.8,0.3-2.6,0.7c-0.2-0.4-0.4-0.8-0.3-1.2C1198.2,380.3,1198.3,380.1,1198.5,379.9z"/>
		</g>
		<g>
			<circle fill="#C4CABF" cx="1032.8" cy="23.5" r="21"/>
			<g>
				<g>
					<path fill="#93BDAF" d="M1043.9,6.8c9.8,6.9,13.2,21.4,4.2,30.7c-6.9,7.1-18.2,8.1-26.4,2.7c-9.8-6.5-12.5-20.3-5.1-29.8
						C1023.1,2.1,1035.4,1.6,1043.9,6.8c0.1,0.1,1-1.5,0.9-1.6c-10.7-6.6-23.9-3.1-30.2,7.7c-5.7,9.8-3.6,22.5,6.2,28.9
						c23.1,15.3,46.5-20.7,24-36.6C1044.7,5.1,1043.7,6.7,1043.9,6.8z"/>
				</g>
			</g>
			<path fill="#96BAB0" d="M1013.5,20.9c-0.8,2.4-0.2,5,0.4,7.4c0.6,2.5,1.2,4.9,2.6,7.1c0.8,1.3,1.8,2.4,2.9,3.4
				c2.2,2,4.7,3.7,7.6,4.4c2.9,0.7,6.1,0.3,8.5-1.4c0-0.6-0.3-1.1-0.8-1.5c-0.3,0.1-0.5,0.3-0.6,0.5c-7-0.4-13.4-5.7-15.1-12.5
				c-0.7-2.7-0.6-5.7-1.8-8.2c-0.2-0.3-0.3-0.7-0.6-0.9C1015.6,18.2,1014,19.5,1013.5,20.9z"/>
			<path fill="#D5E0DA" d="M1013.8,31.3c2.2,4,7.5,6.1,11.8,4.6c2.1-0.7,3.8-2.1,5.6-3.5c0.5-0.4,0.9-0.7,1.4-1.1
				c-3.5-2.5-5.9-6.3-6.8-10.5c-0.9-4.1-0.5-8.9-3.5-11.8c-3,1.1-6.3,2.5-7.9,5.3c-0.7,1.3-1,2.9-1.2,4.3
				C1012.4,22.8,1011.8,27.5,1013.8,31.3z"/>
			<path fill="#B1C5BA" d="M1038.4,30.3c2.8-0.4,5.2-2.9,5.5-5.8c0.3-2.8-1.3-5.8-3.9-7c-3-1.5-6.9-0.6-9.1,1.8
				c-0.4,0.5-0.8,1.1-1,1.7s0,1.4,0.5,1.8c0.9,0.7,2.2,0.2,3.1-0.5c0.9-0.7,1.6-1.7,2.7-2c1.3-0.3,2.8,0.6,3.3,1.8s0.2,2.8-0.5,4
				c-0.7,1.2-1.9,2-3.1,2.7c0.3,0.6,0.6,1.1,1.2,1.4C1037.6,30.4,1038,30.4,1038.4,30.3z"/>
		</g>
		<g>
			<circle fill="#C4CABF" cx="734.4" cy="112.1" r="21.2"/>
			<g>
				<g>
					<path fill="#93BDAF" d="M756,111.7c-0.2-14.2-13.7-25-27.6-20.6c-9,2.8-15.6,12.1-15.7,21.5c-0.2,14.2,14,24.9,27.6,20.6
						C749.6,130.2,755.6,121.1,756,111.7c0,0.3-0.9,1-0.9,1.5c-0.6,13-12.9,21.8-25.4,18.7c-9.5-2.3-16.2-11.1-16.1-20.9
						c0.1-12.8,12.7-21.5,24.7-18.9c10,2.1,16.6,11,16.8,21.1C755.1,112.9,756.1,112.2,756,111.7z"/>
				</g>
			</g>
			<path fill="#96BAB0" d="M725.6,129.7c-2.5-0.7-4.3-2.7-6-4.6c-1.7-1.9-3.4-3.9-4.5-6.2c-0.6-1.4-1-2.9-1.2-4.4
				c-0.4-3-0.4-6.1,0.6-8.9c1-2.8,3.2-5.3,6-6.3c0.5,0.4,0.7,0.9,0.8,1.5c-0.2,0.2-0.5,0.2-0.8,0.2c-3.7,6-2.9,14.5,1.9,19.7
				c1.9,2.1,4.4,3.7,5.9,6.2c0.2,0.3,0.4,0.7,0.4,1C728.9,129.5,726.9,130,725.6,129.7z"/>
			<path fill="#D5E0DA" d="M717,123.5c-2.1-4.1-0.8-9.7,2.9-12.5c1.8-1.3,4-2,6.1-2.6c0.6-0.2,1.2-0.4,1.7-0.5
				c0.1,4.3,1.9,8.6,4.9,11.7c2.9,3.1,7.2,5.5,7.9,9.7c-2.7,1.9-5.7,3.9-9,3.5c-1.5-0.2-2.9-0.8-4.3-1.4
				C723.3,129.5,719,127.4,717,123.5z"/>
			<path fill="#B1C5BA" d="M731.9,103.5c2-2.1,5.4-2.6,8-1.3c2.6,1.3,4.1,4.4,3.7,7.2c-0.5,3.3-3.4,6.1-6.7,6.6
				c-0.7,0.1-1.4,0.1-2-0.2c-0.6-0.3-1.2-0.8-1.2-1.5c-0.1-1.1,1.1-2,2.2-2.3c1.1-0.3,2.4-0.4,3.2-1.1c1.1-0.9,1.1-2.7,0.4-3.8
				c-0.8-1.2-2.2-1.8-3.6-1.8c-1.4,0-2.8,0.4-4,1c-0.3-0.6-0.6-1.2-0.4-1.8C731.3,104.1,731.6,103.8,731.9,103.5z"/>
		</g>
		<g>
			<circle fill="#C4CABF" cx="1380.1" cy="302.5" r="4.3"/>
			<g>
				<g>
					<path fill="#93BDAF" d="M1384.9,301.8c-0.1-3.1-3.1-5.3-6-4c-1.9,0.8-3.4,3.4-3.5,5.4c-0.1,3.1,3.2,5.3,6,4
						C1383.4,306.4,1384.8,303.9,1384.9,301.8c0,0.3-0.9,1-0.9,1.5c-0.2,2.2-2.6,3.1-4.6,2.5c-1.8-0.5-3.1-2.2-3.1-4.1
						c0-2.2,2.5-3,4.4-2.6c2,0.5,3.2,2.2,3.3,4.2C1384,303.1,1384.9,302.3,1384.9,301.8z"/>
				</g>
			</g>
			<path fill="#96BAB0" d="M1378.4,306.1c-0.5-0.1-0.9-0.5-1.2-0.9c-0.3-0.4-0.7-0.8-0.9-1.3c-0.1-0.3-0.2-0.6-0.2-0.9
				c-0.1-0.6-0.1-1.2,0.1-1.8c0.2-0.6,0.6-1.1,1.2-1.3c0.1,0.1,0.2,0.2,0.2,0.3c0,0-0.1,0-0.2,0c-0.7,1.2-0.6,2.9,0.4,4
				c0.4,0.4,0.9,0.8,1.2,1.2c0,0.1,0.1,0.1,0.1,0.2C1379,306,1378.7,306.1,1378.4,306.1z"/>
			<path fill="#D5E0DA" d="M1376.6,304.8c-0.4-0.8-0.2-2,0.6-2.5c0.4-0.3,0.8-0.4,1.2-0.5c0.1,0,0.2-0.1,0.3-0.1
				c0,0.9,0.4,1.7,1,2.4c0.6,0.6,1.5,1.1,1.6,2c-0.5,0.4-1.2,0.8-1.8,0.7c-0.3,0-0.6-0.2-0.9-0.3
				C1377.9,306,1377.1,305.6,1376.6,304.8z"/>
			<path fill="#B1C5BA" d="M1379.6,300.8c0.4-0.4,1.1-0.5,1.6-0.3c0.5,0.3,0.8,0.9,0.7,1.5c-0.1,0.7-0.7,1.2-1.4,1.3
				c-0.1,0-0.3,0-0.4,0c-0.1-0.1-0.2-0.2-0.2-0.3c0-0.2,0.2-0.4,0.4-0.5c0.2-0.1,0.5-0.1,0.7-0.2c0.2-0.2,0.2-0.5,0.1-0.8
				s-0.4-0.4-0.7-0.4c-0.3,0-0.6,0.1-0.8,0.2c-0.1-0.1-0.1-0.2-0.1-0.4C1379.5,300.9,1379.6,300.8,1379.6,300.8z"/>
		</g>
		<g>
			<circle fill="#C4CABF" cx="1210.3" cy="239.1" r="4.3"/>
			<g>
				<g>
					<path fill="#93BDAF" d="M1215,238.4c-0.1-3.1-3.1-5.3-6-4c-1.9,0.8-3.4,3.4-3.5,5.4c-0.1,3.1,3.2,5.3,6,4
						C1213.5,242.9,1214.9,240.4,1215,238.4c0,0.3-0.9,1-0.9,1.5c-0.2,2.2-2.6,3.1-4.6,2.5c-1.8-0.5-3.1-2.2-3.1-4.1
						c0-2.2,2.5-3,4.4-2.6c2,0.5,3.2,2.2,3.3,4.2C1214.1,239.7,1215,238.9,1215,238.4z"/>
				</g>
			</g>
			<path fill="#D5E0DA" d="M1208.9,238.2"/>
			<path fill="#D5E0DA" d="M1211.5,242.5c-0.5,0.4-1.2,0.8-1.8,0.7c-0.3,0-0.6-0.2-0.9-0.3c-0.8-0.4-1.7-0.8-2.1-1.6"/>
		</g>
		<g>
			<circle fill="#C4CABF" cx="1323.1" cy="155.3" r="2.6"/>
			<g>
				<g>
					<path fill="#93BDAF" d="M1323.3,158.6c1.4-0.4,2.4-2,2.8-3.4c0.5-1.9-1.2-3.8-3.2-3.3c-1.4,0.4-2.4,2-2.8,3.3
						C1319.6,157.3,1321.3,159,1323.3,158.6c0.2,0,0.4-0.6,0.5-0.7c0-0.1,0.4-0.8,0.4-0.8c-1,0.2-2-0.1-2.7-0.9
						c-0.4-0.5-0.6-1.1-0.6-1.7c0-0.6,0.5-0.8,1.1-1c1-0.3,2.1,0.1,2.7,0.9c0.3,0.4,0.6,1,0.6,1.5c0,0.7-0.4,0.9-1.1,1.1
						c-0.2,0.1-0.4,0.6-0.5,0.7C1323.6,157.9,1323.4,158.6,1323.3,158.6z"/>
				</g>
			</g>
			<path fill="#D5E0DA" d="M1323.4,154.4"/>
			<path fill="#D5E0DA" d="M1321.3,156.6c-0.3-0.3-0.6-0.6-0.7-1c0-0.2,0-0.4,0-0.6c0.1-0.5,0.2-1.1,0.6-1.5"/>
		</g>
		<g>
			<circle fill="#C4CABF" cx="1302.1" cy="148.7" r="2.6"/>
			<g>
				<g>
					<path fill="#93BDAF" d="M1301,152c3.4,0.7,6.1-5.7,2.2-6.7C1299.7,144.5,1297.1,150.8,1301,152c0.2,0.1,0.9-1.6,0.9-1.6
						c-1-0.3-1.8-1-1.9-2.1c-0.1-0.8,0-1,0.7-1.3c0.5-0.2,1.1-0.3,1.6-0.1c1,0.2,1.8,1.1,1.9,2.1c0.1,0.6,0.1,0.9-0.5,1.2
						c-0.6,0.3-1.2,0.3-1.8,0.2C1301.6,150.4,1301,152,1301,152z"/>
				</g>
			</g>
			<path fill="#D5E0DA" d="M1302.8,148"/>
			<path fill="#D5E0DA" d="M1299.8,149c-0.2-0.4-0.3-0.8-0.2-1.2c0.1-0.2,0.2-0.3,0.3-0.5c0.3-0.4,0.7-0.9,1.2-1"/>
		</g>
		<g>
			<circle fill="#C4CABF" cx="372.6" cy="88.3" r="16.1"/>
			<g>
				<g>
					<path fill="#93BDAF" d="M389.2,87.8c-0.3-11.3-11.5-19.8-22.5-15.1c-6.1,2.6-10.6,9.4-10.7,16.1c-0.1,11.5,11.9,19.6,22.5,15.1
						C384.8,101.2,388.8,94.5,389.2,87.8c0,0.3-0.9,1-0.9,1.5c-1.2,20.8-31.6,17.1-31.3-2c0.1-10.1,10.3-16.3,19.5-13.7
						c7.2,2,11.6,8.5,11.8,15.7C388.2,89,389.2,88.3,389.2,87.8z"/>
				</g>
			</g>
			<path fill="#96BAB0" d="M365.9,101.6c-1.9-0.5-3.3-2-4.5-3.5c-1.3-1.4-2.6-2.9-3.4-4.7c-0.5-1.1-0.7-2.2-0.9-3.3
				c-0.3-2.2-0.3-4.6,0.5-6.7s2.4-4,4.6-4.7c0.3,0.3,0.6,0.7,0.6,1.1c-0.2,0.1-0.4,0.2-0.6,0.2c-2.8,4.6-2.2,11,1.4,15
				c1.5,1.6,3.3,2.8,4.5,4.7c0.1,0.2,0.3,0.5,0.3,0.8C368.5,101.5,367,101.9,365.9,101.6z"/>
			<path fill="#D5E0DA" d="M359.5,96.9c-1.6-3.1-0.6-7.4,2.2-9.5c1.4-1,3-1.5,4.6-2c0.4-0.1,0.9-0.3,1.3-0.4
				c0.1,3.3,1.5,6.5,3.7,8.9c2.2,2.3,5.4,4.2,6,7.4c-2,1.4-4.3,2.9-6.8,2.7c-1.2-0.1-2.2-0.6-3.3-1.1
				C364.2,101.5,361,99.9,359.5,96.9z"/>
			<path fill="#B1C5BA" d="M370.7,81.8c1.5-1.6,4.1-2,6-1s3.1,3.3,2.8,5.5c-0.3,2.5-2.6,4.6-5.1,5c-0.5,0.1-1,0.1-1.5-0.1
				S372,90.5,372,90c-0.1-0.9,0.8-1.5,1.7-1.7c0.8-0.2,1.8-0.3,2.5-0.9c0.8-0.7,0.9-2,0.3-2.9c-0.6-0.9-1.7-1.4-2.7-1.4
				c-1.1,0-2.1,0.3-3.1,0.8c-0.2-0.4-0.5-0.9-0.3-1.4C370.3,82.2,370.5,82,370.7,81.8z"/>
		</g>
		<g>
			<circle fill="#C4CABF" cx="144.4" cy="95.9" r="10.3"/>
			<g>
				<g>
					<path fill="#93BDAF" d="M149.3,105.5c3.5-2.4,6.2-6.8,5.8-11.1c-0.6-7.5-9.1-11.9-15.6-8c-3.6,2.2-6.1,6.9-5.8,11.1
						C134.3,105.3,142.8,109,149.3,105.5c0.4-0.2,0.6-1.4,0.8-1.6c-4,2.2-8.8,1.9-12.2-1.3c-4.3-3.9-4.6-11.6,0.8-14.8
						c10-6,22.3,8.8,11.4,16.1C149.7,104.2,149.5,105.4,149.3,105.5z"/>
				</g>
			</g>
			<path fill="#96BAB0" d="M135,96.8c-0.4-1.2,0-2.4,0.3-3.6c0.3-1.2,0.7-2.4,1.4-3.4c0.4-0.6,0.9-1.1,1.5-1.6
				c1.1-0.9,2.4-1.7,3.8-2s3,0,4.1,0.9c0,0.3-0.2,0.5-0.4,0.7c-0.1-0.1-0.2-0.1-0.3-0.3c-3.4,0-6.7,2.5-7.6,5.8
				c-0.4,1.3-0.4,2.8-1,4c-0.1,0.2-0.2,0.3-0.3,0.4C135.9,98.1,135.2,97.5,135,96.8z"/>
			<path fill="#D5E0DA" d="M135.3,91.7c1.2-1.9,3.8-2.8,5.9-2c1,0.4,1.8,1.1,2.6,1.8c0.2,0.2,0.4,0.4,0.7,0.6c-1.7,1.2-3,3-3.6,5
				c-0.5,2-0.4,4.4-2,5.7c-1.5-0.6-3-1.4-3.7-2.8c-0.3-0.7-0.4-1.4-0.5-2.2C134.5,95.8,134.2,93.5,135.3,91.7z"/>
			<path fill="#B1C5BA" d="M147.3,92.7c1.4,0.3,2.5,1.5,2.6,2.9s-0.8,2.8-2,3.4c-1.5,0.7-3.4,0.2-4.4-1.1c-0.2-0.3-0.4-0.5-0.4-0.9
				c-0.1-0.3,0-0.7,0.3-0.9c0.4-0.3,1.1-0.1,1.5,0.3c0.4,0.4,0.8,0.9,1.3,1c0.6,0.2,1.4-0.2,1.7-0.8s0.2-1.4-0.2-1.9s-0.9-1-1.5-1.4
				c0.2-0.3,0.3-0.5,0.6-0.6C146.9,92.6,147.1,92.7,147.3,92.7z"/>
		</g>
		<g>
			<circle fill="#C4CABF" cx="493.6" cy="45.2" r="6.8"/>
			<g>
				<g>
					<path fill="#93BDAF" d="M496.7,51.8c2.4-1.6,4.4-4.9,4.1-7.9c-0.4-5-6-7.9-10.3-5.3c-2.5,1.5-4.4,5-4.1,7.9
						C486.8,51.7,492.4,54.1,496.7,51.8c0.4-0.2,0.6-1.4,0.8-1.6c-2.6,1.4-5.8,1.2-8.1-0.8c-2.6-2.4-3.2-7.2,0.2-9.2
						c2.5-1.5,5.9-1.2,8.1,0.8c2.7,2.5,3.1,7-0.2,9.2C497.1,50.5,496.9,51.7,496.7,51.8z"/>
				</g>
			</g>
			<path fill="#96BAB0" d="M487.3,45.8c-0.2-0.8,0-1.6,0.2-2.4c0.2-0.8,0.5-1.6,0.9-2.3c0.3-0.4,0.6-0.7,1-1.1
				c0.7-0.6,1.6-1.1,2.5-1.3c0.9-0.2,2,0,2.7,0.6c0,0.2-0.1,0.4-0.3,0.5c-0.1,0-0.1-0.1-0.2-0.2c-2.3,0-4.4,1.7-5,3.9
				c-0.2,0.9-0.3,1.8-0.7,2.6c-0.1,0.1-0.1,0.2-0.2,0.3C488,46.7,487.5,46.3,487.3,45.8z"/>
			<path fill="#D5E0DA" d="M487.6,42.5c0.8-1.3,2.5-1.9,3.9-1.3c0.7,0.3,1.2,0.7,1.7,1.2c0.1,0.1,0.3,0.3,0.4,0.4
				c-1.1,0.8-2,2-2.3,3.3c-0.3,1.3-0.3,2.9-1.3,3.8c-1-0.4-2-0.9-2.5-1.8c-0.2-0.4-0.3-0.9-0.3-1.4C487,45.2,486.9,43.7,487.6,42.5z
				"/>
			<path fill="#B1C5BA" d="M495.5,43.1c0.9,0.2,1.6,1,1.7,1.9c0.1,0.9-0.5,1.8-1.3,2.2c-1,0.4-2.2,0.1-2.9-0.7
				c-0.1-0.2-0.3-0.4-0.3-0.6s0-0.5,0.2-0.6c0.3-0.2,0.7,0,1,0.2s0.5,0.6,0.9,0.7c0.4,0.1,0.9-0.1,1.1-0.6c0.2-0.4,0.1-0.9-0.1-1.3
				s-0.6-0.7-1-0.9c0.1-0.2,0.2-0.4,0.4-0.4C495.2,43.1,495.4,43.1,495.5,43.1z"/>
		</g>
		<g>
			<circle fill="#C4CABF" cx="107.4" cy="118.4" r="6.8"/>
			<g>
				<g>
					<path fill="#93BDAF" d="M110.5,125c2.4-1.6,4.4-4.9,4.1-7.9c-0.4-5-6-7.9-10.3-5.3c-2.5,1.5-4.4,5-4.1,7.9
						C100.5,124.9,106.1,127.3,110.5,125c0.4-0.2,0.6-1.4,0.8-1.6c-2.6,1.4-5.8,1.2-8.1-0.8c-2.6-2.4-3.2-7.2,0.2-9.2
						c2.5-1.5,5.9-1.2,8.1,0.8c2.7,2.5,3.1,7-0.2,9.2C110.9,123.7,110.7,124.8,110.5,125z"/>
				</g>
			</g>
			<path fill="#96BAB0" d="M101.1,119c-0.2-0.8,0-1.6,0.2-2.4c0.2-0.8,0.5-1.6,0.9-2.3c0.3-0.4,0.6-0.7,1-1.1
				c0.7-0.6,1.6-1.1,2.5-1.3c0.9-0.2,2,0,2.7,0.6c0,0.2-0.1,0.4-0.3,0.5c-0.1,0-0.1-0.1-0.2-0.2c-2.3,0-4.4,1.7-5,3.9
				c-0.2,0.9-0.3,1.8-0.7,2.6c-0.1,0.1-0.1,0.2-0.2,0.3C101.7,119.9,101.2,119.4,101.1,119z"/>
			<path fill="#D5E0DA" d="M101.3,115.6c0.8-1.3,2.5-1.9,3.9-1.3c0.7,0.3,1.2,0.7,1.7,1.2c0.1,0.1,0.3,0.3,0.4,0.4
				c-1.1,0.8-2,2-2.3,3.3c-0.3,1.3-0.3,2.9-1.3,3.8c-1-0.4-2-0.9-2.5-1.8c-0.2-0.4-0.3-0.9-0.3-1.4
				C100.8,118.4,100.6,116.8,101.3,115.6z"/>
			<path fill="#B1C5BA" d="M109.3,116.3c0.9,0.2,1.6,1,1.7,1.9c0.1,0.9-0.5,1.8-1.3,2.2c-1,0.4-2.2,0.1-2.9-0.7
				c-0.1-0.2-0.3-0.4-0.3-0.6s0-0.5,0.2-0.6c0.3-0.2,0.7,0,1,0.2c0.3,0.2,0.5,0.6,0.9,0.7c0.4,0.1,0.9-0.1,1.1-0.6s0.1-0.9-0.1-1.3
				s-0.6-0.7-1-0.9c0.1-0.2,0.2-0.4,0.4-0.4C109,116.2,109.1,116.3,109.3,116.3z"/>
		</g>
		<g>
			<circle fill="#C4CABF" cx="148.6" cy="141.8" r="11.5"/>
			<g>
				<g>
					<path fill="#93BDAF" d="M154.1,152.4c3.9-2.6,6.8-7.4,6.4-12.3c-0.7-8.4-10.2-13.3-17.4-8.9c-4,2.4-6.7,7.6-6.4,12.3
						C137.3,152.2,146.8,156.3,154.1,152.4c0.4-0.2,0.6-1.4,0.8-1.6c-4.5,2.4-9.8,2.1-13.7-1.4c-4.9-4.4-5.1-13.1,0.9-16.7
						c11.3-6.8,24.9,9.9,12.7,18.1C154.5,151.1,154.3,152.2,154.1,152.4z"/>
				</g>
			</g>
			<path fill="#96BAB0" d="M138,142.8c-0.4-1.3,0-2.7,0.4-4.1c0.4-1.3,0.8-2.7,1.6-3.8c0.5-0.7,1.1-1.3,1.7-1.8
				c1.2-1,2.7-1.9,4.2-2.2c1.6-0.3,3.3-0.1,4.6,1c0,0.3-0.2,0.6-0.5,0.8c-0.1-0.1-0.3-0.2-0.3-0.3c-3.8,0-7.5,2.8-8.5,6.5
				c-0.4,1.5-0.5,3.1-1.1,4.5c-0.1,0.2-0.2,0.4-0.4,0.5C139.1,144.3,138.2,143.5,138,142.8z"/>
			<path fill="#D5E0DA" d="M138.4,137.1c1.3-2.2,4.2-3.2,6.6-2.2c1.1,0.4,2.1,1.2,3,2c0.2,0.2,0.5,0.4,0.7,0.6
				c-1.9,1.3-3.4,3.3-4,5.6c-0.6,2.2-0.5,4.9-2.2,6.4c-1.6-0.7-3.4-1.5-4.2-3.1c-0.4-0.7-0.5-1.6-0.6-2.4
				C137.4,141.7,137.2,139.1,138.4,137.1z"/>
			<path fill="#B1C5BA" d="M151.8,138.2c1.5,0.3,2.8,1.7,2.9,3.3s-0.8,3.1-2.3,3.8c-1.7,0.7-3.8,0.2-4.9-1.2c-0.2-0.3-0.4-0.6-0.5-1
				s0-0.8,0.3-1c0.5-0.4,1.2-0.1,1.7,0.3c0.5,0.4,0.9,1,1.5,1.2c0.7,0.2,1.5-0.2,1.9-0.9c0.3-0.7,0.2-1.5-0.2-2.2s-1-1.2-1.6-1.6
				c0.2-0.3,0.4-0.6,0.7-0.7C151.4,138.1,151.6,138.1,151.8,138.2z"/>
		</g>
		<g>
			<circle fill="#C4CABF" cx="348.3" cy="366" r="5.2"/>
			<g>
				<g>
					<path fill="#93BDAF" d="M353.9,365.4c-0.2-3.7-3.8-6.4-7.4-4.8c-2.2,1-3.9,3.8-3.9,6.2c0,3.7,3.9,6.4,7.4,4.8
						C352.2,370.5,353.8,367.8,353.9,365.4c0,0.2-0.8,0.9-0.9,1.4c-0.4,6.1-9.6,4-9.6-1.5c0-2.8,3.1-4.2,5.5-3.6
						c2.4,0.6,3.9,2.7,4,5.1C353,366.6,353.9,365.8,353.9,365.4z"/>
				</g>
			</g>
			<path fill="#D5E0DA" d="M344,368.8c-0.5-1-0.2-2.4,0.7-3.1c0.4-0.3,1-0.5,1.5-0.7c0.1,0,0.3-0.1,0.4-0.1c0,1.1,0.5,2.1,1.2,2.9
				c0.7,0.8,1.8,1.3,2,2.4c-0.7,0.5-1.4,1-2.2,0.9c-0.4,0-0.7-0.2-1.1-0.3C345.6,370.3,344.5,369.8,344,368.8z"/>
		</g>
		<g>
			<circle fill="#C4CABF" cx="201.7" cy="223" r="5.2"/>
			<g>
				<g>
					<path fill="#93BDAF" d="M207.3,222.3c-0.2-3.7-3.8-6.4-7.4-4.8c-2.2,1-3.9,3.8-3.9,6.2c0,3.7,3.9,6.4,7.4,4.8
						C205.7,227.5,207.2,224.7,207.3,222.3c0,0.2-0.8,0.9-0.9,1.4c-0.4,6.1-9.6,4-9.6-1.5c0-2.8,3.1-4.2,5.5-3.6
						c2.4,0.6,3.9,2.7,4,5.1C206.5,223.5,207.4,222.8,207.3,222.3z"/>
				</g>
			</g>
			<path fill="#D5E0DA" d="M197.5,225.8c-0.5-1-0.2-2.4,0.7-3.1c0.4-0.3,1-0.5,1.5-0.7c0.1,0,0.3-0.1,0.4-0.1c0,1.1,0.5,2.1,1.2,2.9
				c0.7,0.8,1.8,1.3,2,2.4c-0.7,0.5-1.4,1-2.2,0.9c-0.4,0-0.7-0.2-1.1-0.3C199,227.3,198,226.7,197.5,225.8z"/>
		</g>
		<g>
			<circle fill="#C4CABF" cx="146.4" cy="36.2" r="5.2"/>
			<g>
				<g>
					<path fill="#93BDAF" d="M152.1,35.6c-0.2-3.7-3.8-6.4-7.4-4.8c-2.2,1-3.9,3.8-3.9,6.2c0,3.7,3.9,6.4,7.4,4.8
						C150.4,40.7,151.9,38,152.1,35.6c0,0.2-0.8,0.9-0.9,1.4c-0.4,6.1-9.6,4-9.6-1.5c0-2.8,3.1-4.2,5.5-3.6c2.4,0.6,3.9,2.7,4,5.1
						C151.2,36.8,152.1,36,152.1,35.6z"/>
				</g>
			</g>
			<path fill="#D5E0DA" d="M142.2,39.1c-0.5-1-0.2-2.4,0.7-3.1c0.4-0.3,1-0.5,1.5-0.7c0.1,0,0.3-0.1,0.4-0.1c0,1.1,0.5,2.1,1.2,2.9
				c0.7,0.8,1.8,1.3,2,2.4c-0.7,0.5-1.4,1-2.2,0.9c-0.4,0-0.7-0.2-1.1-0.3C143.8,40.5,142.7,40,142.2,39.1z"/>
		</g>
		<g>
			<circle fill="#C4CABF" cx="654.4" cy="412.4" r="18.4"/>
			<g>
				<g>
					<path fill="#93BDAF" d="M673.3,411.8c-0.4-12.6-12.6-22.1-24.9-17.5c-7.5,2.8-13,10.9-13,18.8c-0.1,12.7,12.9,21.9,24.9,17.5
						C668,427.7,673,419.8,673.3,411.8c0,0.3-1,1.1-1,1.7c-0.5,11.5-11.5,18.9-22.3,15.9c-8-2.2-13.6-9.6-13.6-17.9
						c0-11.3,11.3-18.5,21.6-16.1c8.5,2,14,9.6,14.2,18.1C672.3,413.2,673.4,412.3,673.3,411.8z"/>
				</g>
			</g>
			<path fill="#96BAB0" d="M646.9,427.7c-2.1-0.6-3.7-2.3-5.2-3.9c-1.5-1.6-3-3.3-3.9-5.4c-0.5-1.2-0.8-2.5-1-3.8
				c-0.4-2.6-0.4-5.3,0.5-7.7c0.9-2.4,2.7-4.6,5.2-5.5c0.4,0.3,0.7,0.8,0.7,1.3c-0.2,0.1-0.4,0.2-0.7,0.2
				c-3.2,5.3-2.4,12.6,1.7,17.1c1.7,1.8,3.8,3.2,5.1,5.3c0.2,0.3,0.3,0.6,0.4,0.9C649.8,427.5,648.1,428.1,646.9,427.7z"/>
			<path fill="#CBDCD7" d="M649.8,425.4c0.2-1.7,0.2-3.6-0.4-5.2s-2.3-2.9-4.1-2.7c-1.5,0.2-2.7,1.6-3,3s0.1,3.1,0.9,4.4
				c1.6,2.7,4.6,4.5,7.7,5.3c3.1,0.8,6.3,0.7,9.5,0.5c0.5-0.2,0.6-0.9,0.3-1.3s-0.8-0.6-1.3-0.8c-3.2-1.2-6.5-2.4-9.7-3.5"/>
			<path fill="#B1C5BA" d="M649.7,404.1c1.3,0,2.5,0.3,3.7,0.9c1.4,0.8,2.5,2.1,3.1,3.6c1.5,3.7-0.9,8.5-4.8,9.5s-8.3-1.9-8.9-5.9
				S645.7,404.2,649.7,404.1z"/>
			<path fill="none" d="M665.2,422.4c-1.7-1.6-2.2-4.2-1.3-6.3c0.4-1,1.1-1.9,1.1-3c0-1.1-1.5-2-2.1-1.1c-2.4,1.5-3.7,4.6-3.3,7.3
				c0.5,2.8,2.7,5.2,5.5,5.9c0.3-1,0.5-1.9,0.8-2.9"/>
		</g>
		<g>
			<circle fill="#C4CABF" cx="439.1" cy="55.4" r="9.3"/>
			<g>
				<g>
					<path fill="#93BDAF" d="M449,54.7c-0.3-6.6-6.7-11.4-13.1-8.6c-3.7,1.6-6.5,6.1-6.5,10.1c-0.1,6.7,7,11.3,13.1,8.6
						C446.3,63.1,448.7,58.7,449,54.7c0,0.3-1,1.1-1,1.7c-0.7,11.5-17.7,8.5-17.6-1.8c0-5.4,5.6-8.4,10.4-7.3c4.3,1,7,4.8,7.2,9.1
						C447.9,56.1,449,55.2,449,54.7z"/>
				</g>
			</g>
			<path fill="#96BAB0" d="M435.4,63.1c-1.1-0.3-1.9-1.2-2.6-2c-0.8-0.8-1.5-1.7-2-2.7c-0.3-0.6-0.4-1.3-0.5-1.9
				c-0.2-1.3-0.2-2.6,0.3-3.9c0.4-1.2,1.4-2.3,2.6-2.8c0.2,0.2,0.3,0.4,0.4,0.7c-0.1,0.1-0.2,0.1-0.3,0.1c-1.6,2.7-1.2,6.4,0.9,8.6
				c0.8,0.9,1.9,1.6,2.6,2.7c0.1,0.1,0.2,0.3,0.2,0.5C436.8,63,436,63.3,435.4,63.1z"/>
			<path fill="#CBDCD7" d="M436.8,62c0.1-0.9,0.1-1.8-0.2-2.6s-1.2-1.5-2.1-1.4c-0.8,0.1-1.4,0.8-1.5,1.5s0.1,1.5,0.5,2.2
				c0.8,1.4,2.3,2.3,3.9,2.7c1.6,0.4,3.2,0.4,4.8,0.3c0.2-0.1,0.3-0.5,0.1-0.7c-0.2-0.2-0.4-0.3-0.7-0.4c-1.6-0.6-3.3-1.2-4.9-1.8"
				/>
			<path fill="#B1C5BA" d="M436.8,51.2c0.6,0,1.3,0.1,1.8,0.5c0.7,0.4,1.3,1,1.6,1.8c0.8,1.9-0.5,4.3-2.4,4.8c-2,0.5-4.2-1-4.5-3
				C433,53.3,434.7,51.3,436.8,51.2z"/>
			<path fill="none" d="M444.6,60.4c-0.8-0.8-1.1-2.1-0.7-3.2c0.2-0.5,0.6-1,0.6-1.5c0-0.5-0.8-1-1.1-0.6c-1.2,0.8-1.9,2.3-1.6,3.7
				s1.4,2.6,2.8,3c0.1-0.5,0.3-1,0.4-1.4"/>
		</g>
		<g>
			<circle fill="#C4CABF" cx="68.5" cy="57.9" r="7.5"/>
			<g>
				<g>
					<path fill="#93BDAF" d="M76.5,57.2c-0.2-5.3-5.4-9.2-10.6-6.9c-3,1.3-5.4,5.2-5.4,8.5c-0.1,5.4,5.6,9.1,10.5,6.9
						C74.3,64.3,76.3,60.5,76.5,57.2c0,0.3-1,1.1-1,1.7c-0.6,9-14,6.3-13.9-1.8c0-4.2,4.4-6.4,8.1-5.5c3.5,0.8,5.7,3.8,5.8,7.3
						C75.5,58.6,76.6,57.7,76.5,57.2z"/>
				</g>
			</g>
			<path fill="#96BAB0" d="M65.5,64.2c-0.9-0.2-1.5-0.9-2.1-1.6c-0.6-0.7-1.2-1.4-1.6-2.2c-0.2-0.5-0.3-1-0.4-1.5
				c-0.2-1-0.2-2.1,0.2-3.1c0.4-1,1.1-1.9,2.1-2.2c0.2,0.1,0.3,0.3,0.3,0.5c-0.1,0.1-0.2,0.1-0.3,0.1c-1.3,2.1-1,5.1,0.7,6.9
				c0.7,0.7,1.6,1.3,2.1,2.2c0.1,0.1,0.1,0.2,0.1,0.4C66.7,64.1,66,64.3,65.5,64.2z"/>
			<path fill="#CBDCD7" d="M66.7,63.2c0.1-0.7,0.1-1.4-0.2-2.1s-0.9-1.2-1.7-1.1c-0.6,0.1-1.1,0.6-1.2,1.2c-0.1,0.6,0.1,1.2,0.4,1.8
				c0.7,1.1,1.9,1.8,3.1,2.1s2.6,0.3,3.9,0.2c0.2-0.1,0.2-0.4,0.1-0.5c-0.1-0.2-0.3-0.3-0.5-0.3c-1.3-0.5-2.6-1-3.9-1.4"/>
			<path fill="#B1C5BA" d="M66.6,54.6c0.5,0,1,0.1,1.5,0.4c0.6,0.3,1,0.8,1.3,1.4c0.6,1.5-0.4,3.4-1.9,3.9c-1.6,0.4-3.4-0.8-3.6-2.4
				C63.6,56.3,65,54.6,66.6,54.6z"/>
			<path fill="none" d="M72.9,62c-0.7-0.6-0.9-1.7-0.5-2.6c0.2-0.4,0.5-0.8,0.4-1.2s-0.6-0.8-0.9-0.5c-1,0.6-1.5,1.8-1.3,3
				c0.2,1.1,1.1,2.1,2.2,2.4c0.1-0.4,0.2-0.8,0.3-1.2"/>
		</g>
		<g>
			<circle fill="#C4CABF" cx="277.5" cy="82.2" r="15.7"/>
			<g>
				<g>
					<path fill="#93BDAF" d="M287.5,94.8c4.8-4.7,7.6-11.5,5.5-18.2c-3.3-10.7-17.1-14.3-25.4-6.9c-5,4.4-7.5,11.8-5.5,18.2
						C265.6,98.9,279,101.7,287.5,94.8c0.4-0.4,0.7-1.5,0.9-1.7c-5.5,4.5-13.1,5.3-19.1,1.3c-7.5-5-9.8-16.5-2.7-23
						c13.7-12.5,35.9,8,21.8,21.7C288,93.5,287.8,94.5,287.5,94.8z"/>
				</g>
			</g>
			<path fill="#96BAB0" d="M263.6,86.2c-0.9-1.7-0.7-3.7-0.5-5.5c0.2-1.9,0.4-3.8,1.1-5.5c0.5-1,1.1-2,1.8-2.8
				c1.4-1.7,3.1-3.2,5.1-4.1c2-0.8,4.5-0.9,6.4,0.2c0,0.4-0.1,0.9-0.4,1.2c-0.2,0-0.4-0.2-0.5-0.3c-5.1,1-9.3,5.7-9.8,10.9
				c-0.2,2.1,0.2,4.3-0.4,6.3c-0.1,0.3-0.2,0.5-0.4,0.7C265.4,87.9,264.1,87.1,263.6,86.2z"/>
			<path fill="#CBDCD7" d="M266.7,86.7c1.2-0.9,2.4-1.9,3-3.2c0.6-1.4,0.5-3.2-0.6-4.1c-1-0.8-2.5-0.8-3.6-0.2s-1.9,1.8-2.2,3.1
				c-0.8,2.6-0.2,5.5,1.1,7.8c1.3,2.4,3.2,4.4,5.1,6.3c0.4,0.2,0.9-0.2,1-0.6c0.1-0.4-0.1-0.9-0.2-1.3c-1.1-2.7-2.2-5.4-3.3-8.1"/>
			<path fill="#B1C5BA" d="M280.1,74.5c0.7,0.8,1.3,1.8,1.5,2.8c0.3,1.3,0.1,2.8-0.5,4c-1.5,3.1-5.9,4.3-8.7,2.4
				c-2.9-1.8-3.6-6.3-1.4-8.9S277.7,72,280.1,74.5z"/>
			<path fill="none" d="M277.4,94.7c0-1.9,1.4-3.8,3.2-4.4c0.9-0.3,1.8-0.4,2.5-1c0.6-0.6,0.4-2.1-0.5-2c-2.3-0.6-5,0.3-6.5,2.1
				s-1.7,4.7-0.6,6.8c0.8-0.4,1.5-0.8,2.3-1.1"/>
		</g>
		<g>
			<circle fill="#C4CABF" cx="109.5" cy="268.2" r="13.4"/>
			<g>
				<g>
					<path fill="#93BDAF" d="M123.4,267.5c-0.4-9.4-9.5-16.3-18.6-12.6c-5.3,2.2-9.2,8.3-9.3,14c-0.1,9.5,9.8,16.1,18.6,12.6
						C119.7,279.2,123.1,273.3,123.4,267.5c0,0.3-1,1.1-1,1.7c-0.5,8.4-8.8,13.4-16.5,11c-5.5-1.7-9.4-7.1-9.3-12.9
						c0.1-8.6,9-13.3,16.5-11c5.7,1.8,9.1,7,9.3,12.9C122.4,268.9,123.5,268.1,123.4,267.5z"/>
				</g>
			</g>
			<path fill="#96BAB0" d="M104,279.4c-1.6-0.4-2.7-1.7-3.8-2.9c-1.1-1.2-2.2-2.4-2.8-3.9c-0.4-0.9-0.6-1.8-0.8-2.8
				c-0.3-1.9-0.3-3.8,0.4-5.6s2-3.4,3.8-4c0.3,0.2,0.5,0.6,0.5,0.9c-0.1,0.1-0.3,0.1-0.5,0.1c-2.3,3.8-1.8,9.2,1.3,12.5
				c1.2,1.3,2.8,2.3,3.7,3.9c0.1,0.2,0.2,0.4,0.3,0.7C106.1,279.2,104.9,279.6,104,279.4z"/>
			<path fill="#CBDCD7" d="M106.1,277.7c0.1-1.3,0.2-2.6-0.3-3.8s-1.7-2.1-3-2c-1.1,0.1-2,1.1-2.2,2.2s0.1,2.2,0.7,3.2
				c1.2,2,3.3,3.3,5.6,3.8c2.2,0.6,4.6,0.5,6.9,0.4c0.4-0.1,0.4-0.7,0.2-1s-0.6-0.5-1-0.6c-2.4-0.9-4.7-1.7-7.1-2.6"/>
			<path fill="#B1C5BA" d="M106.1,262.2c0.9,0,1.9,0.2,2.7,0.7c1,0.6,1.8,1.5,2.3,2.6c1.1,2.7-0.7,6.2-3.5,6.9
				c-2.8,0.8-6.1-1.4-6.5-4.3S103.1,262.3,106.1,262.2z"/>
			<path fill="none" d="M117.3,275.5c-1.2-1.1-1.6-3.1-1-4.6c0.3-0.7,0.8-1.4,0.8-2.1c0-0.8-1.1-1.4-1.6-0.8
				c-1.7,1.1-2.7,3.3-2.4,5.3s2,3.8,4,4.3c0.2-0.7,0.4-1.4,0.6-2.1"/>
		</g>
		<g>
			<circle fill="#C4CABF" cx="170.6" cy="344.4" r="4.4"/>
			<g>
				<g>
					<path fill="#93BDAF" d="M175.2,345.5c1.2-2.7,0.3-6-2.9-6.7c-3-0.7-4.9,1.8-6.1,4.2c-1.2,2.5-0.7,5.7,2.2,6.8
						c3.1,1.2,5.2-1.3,6.6-3.7c0.1-0.1,0.6-1,0.4-1c-0.2,0-0.9,1.4-1,1.5c0.2-0.4-0.7,0.3-0.8,0.4c-0.5,0.3-1.1,0.5-1.6,0.5
						c-0.8,0.1-1.7-0.1-2.4-0.4c-1.4-0.7-3.2-3-2.4-4.7c0.8-1.6,3.8-1.3,5-0.6c1.9,1,2.8,3.4,2,5.4c-0.2,0.5-0.1,0.4,0.2,0.1
						C174.6,346.8,174.9,346,175.2,345.5z"/>
				</g>
			</g>
			<path fill="#A8C0B7" d="M171.4,347.1c-0.3-0.7-0.7-1.3-1.2-1.8c-0.2-0.2-0.5-0.5-0.8-0.6c-0.3-0.1-0.7-0.1-0.9,0.2
				c-0.3,0.4-0.2,1.1-0.7,1.2c-0.3,0.1-0.5-0.1-0.7-0.3c-0.2-0.1-0.5-0.2-0.7,0c0.5,1.7,2.2,3,4,3c0.4,0,0.8-0.1,1-0.4
				C171.7,348,171.6,347.5,171.4,347.1z"/>
			<path fill="#B3D2C6" d="M172.2,342.2c0-0.1,0.1-0.2,0.1-0.3c0.2-0.5,1-0.8,1.5-0.4c0.5,0.4,0.3,1.3-0.3,1.4
				c-0.4,0.1-0.9-0.2-1-0.6c-0.1,0-0.2-0.1-0.3-0.1"/>
		</g>
		<g>
			<circle fill="#C4CABF" cx="278.9" cy="318.8" r="10.9"/>
			<g>
				<g>
					<path fill="#93BDAF" d="M289.3,322.8c2.8-6.5,0-14.3-7.4-15.9c-6.1-1.3-10.9,2.6-13.4,7.7c-2.9,5.9-0.7,13.3,5.8,15.7
						c6.5,2.4,11.7-1.6,14.7-7c1-1.8-0.2-0.3-0.6,0.5c-5.9,10.8-24.3,1-18.6-10c2.5-4.8,8.9-5.9,13.6-3.4c5,2.7,6.9,8.7,4.7,13.9
						C287.7,325.5,289.2,323.1,289.3,322.8z"/>
				</g>
			</g>
			<path fill="#A8C0B7" d="M280.9,325.7c-0.8-1.6-1.8-3.1-3-4.4c-0.5-0.6-1.1-1.2-1.9-1.4c-0.7-0.3-1.7-0.2-2.2,0.4
				c-0.8,0.9-0.6,2.6-1.7,2.9c-0.6,0.1-1.2-0.3-1.7-0.7c-0.5-0.4-1.3-0.6-1.8-0.1c1.2,4.3,5.5,7.5,10,7.4c0.9,0,2-0.2,2.5-1
				C281.7,327.9,281.3,326.6,280.9,325.7z"/>
			<path fill="#B3D2C6" d="M283,313.4c0.1-0.2,0.2-0.4,0.2-0.6c0.6-1.4,2.5-1.9,3.7-1c1.1,1,0.7,3.1-0.7,3.5c-1,0.3-2.2-0.4-2.4-1.4
				c-0.3-0.1-0.6-0.1-0.8-0.2"/>
		</g>
		<g>
			<circle fill="#C4CABF" cx="894.8" cy="390.9" r="10.1"/>
			<g>
				<g>
					<path fill="#93BDAF" d="M901.7,399.7c4.4-4.1,6-10.8,2.3-15.9c-3.7-5.3-11.3-5.8-16.1-1.7c-4.5,3.9-5.9,10.9-2.3,15.9
						C889.5,403.4,896.8,403.6,901.7,399.7c1.1-0.8,1-3.5-0.6-2.2c-3.5,2.8-8.5,2.7-11.9-0.2c-3.9-3.2-4.6-9.6-0.6-13
						c8.3-7.1,20.9,5.4,12.5,13.2C900.1,398.4,900.2,401.1,901.7,399.7z"/>
				</g>
			</g>
			<path fill="#A6C6BD" d="M885.8,393.3c-0.5-1.1-0.4-2.4-0.3-3.6c0.1-1.2,0.3-2.4,0.8-3.5c0.3-0.7,0.7-1.3,1.2-1.8
				c0.9-1.1,2-2,3.4-2.6c1.3-0.5,2.9-0.5,4.1,0.2c0,0.3-0.1,0.6-0.3,0.8c-0.1,0-0.2-0.1-0.3-0.2c-3.3,0.6-6.1,3.5-6.5,6.9
				c-0.1,1.3,0,2.7-0.3,4c-0.1,0.2-0.1,0.3-0.2,0.5C886.9,394.4,886.1,393.9,885.8,393.3z"/>
			<path fill="#CBDCD7" d="M889.7,393.2c-0.4,2-2.2,3.7-3,2.1c-0.8-1.6-1.1-3.4-0.6-5.1c0.3-0.8,0.8-1.5,1.5-1.9s1.7-0.4,2.3,0.2
				c0.7,0.6,0.8,1.8,0.3,2.7S889.7,392.6,889.7,393.2"/>
		</g>
		<g>
			<circle fill="#C4CABF" cx="813" cy="259.4" r="5.2"/>
			<g>
				<g>
					<path fill="#93BDAF" d="M816.7,264.4c2.5-2.3,3.6-6.3,1.5-9.3c-2.1-2.9-6.3-3.1-8.9-0.8c-2.6,2.2-3.6,6.4-1.5,9.3
						C810,266.6,814,266.6,816.7,264.4c1.1-0.8,1-3.5-0.6-2.2c-1.6,1.3-4,1.1-5.6-0.2c-1.5-1.3-2.2-4-0.5-5.5c3.5-3,9.7,2.3,6.1,5.7
						c-0.5,0.5-1.1,1.4-0.8,2.1C815.6,264.9,816.2,264.9,816.7,264.4z"/>
				</g>
			</g>
			<path fill="#A6C6BD" d="M808.4,260.6c-0.3-0.6-0.2-1.2-0.1-1.8c0.1-0.6,0.2-1.3,0.4-1.8c0.2-0.3,0.4-0.6,0.6-0.9
				c0.5-0.6,1-1.1,1.7-1.3c0.7-0.3,1.5-0.3,2.1,0.1c0,0.1,0,0.3-0.1,0.4c-0.1,0-0.1-0.1-0.2-0.1c-1.7,0.3-3.1,1.8-3.3,3.5
				c-0.1,0.7,0,1.4-0.2,2.1c0,0.1-0.1,0.2-0.1,0.2C809,261.2,808.5,260.9,808.4,260.6z"/>
			<path fill="#CBDCD7" d="M810.4,260.6c-0.2,1-1.1,1.9-1.5,1.1c-0.4-0.8-0.6-1.8-0.3-2.6c0.1-0.4,0.4-0.8,0.8-1s0.9-0.2,1.2,0.1
				c0.4,0.3,0.4,0.9,0.2,1.4C810.5,259.9,810.4,260.3,810.4,260.6"/>
		</g>
		<g>
			<circle fill="#C4CABF" cx="644" cy="294.3" r="7.9"/>
			<g>
				<g>
					<path fill="#93BDAF" d="M649.4,301.5c3.5-3.3,4.9-8.7,2-12.9c-3-4.2-9-4.6-12.9-1.3c-3.7,3.1-4.9,8.9-2,12.9
						C639.7,304.5,645.5,304.6,649.4,301.5c1.1-0.8,1-3.5-0.6-2.2c-2.7,2.1-6.5,2-9.1-0.2c-2.8-2.4-3.6-7.1-0.6-9.6
						c6.1-5.3,15.9,4,9.7,9.8C647.8,300.2,647.9,302.9,649.4,301.5z"/>
				</g>
			</g>
			<path fill="#A6C6BD" d="M636.9,296.2c-0.4-0.9-0.3-1.9-0.2-2.8c0.1-0.9,0.2-1.9,0.6-2.8c0.2-0.5,0.6-1,0.9-1.4
				c0.7-0.9,1.6-1.6,2.6-2s2.3-0.4,3.2,0.1c0,0.2-0.1,0.4-0.2,0.6c-0.1,0-0.2-0.1-0.3-0.2c-2.6,0.5-4.8,2.8-5,5.4
				c-0.1,1.1,0,2.1-0.3,3.2c0,0.1-0.1,0.3-0.2,0.4C637.8,297.1,637.2,296.7,636.9,296.2z"/>
			<path fill="#CBDCD7" d="M640,296.2c-0.3,1.6-1.7,2.9-2.3,1.6c-0.6-1.2-0.9-2.7-0.4-4c0.2-0.6,0.6-1.2,1.2-1.5
				c0.6-0.3,1.3-0.3,1.8,0.1c0.6,0.5,0.6,1.4,0.3,2.1C640.2,295.2,640,295.7,640,296.2"/>
		</g>
		<g>
			<circle fill="#C4CABF" cx="322.9" cy="42.4" r="11.2"/>
			<g>
				<g>
					<path fill="#93BDAF" d="M330.5,52c4.8-4.4,6.5-11.7,2.5-17.3c-4.1-5.8-12.4-6.4-17.6-1.9c-4.9,4.2-6.3,11.9-2.5,17.3
						C317.1,56,325.1,56.2,330.5,52c1.1-0.8,1-3.5-0.6-2.2c-3.9,3.1-9.4,3.1-13.3-0.2c-4.3-3.6-5.1-10.7-0.6-14.6
						c9.3-8,23.2,6.1,13.9,14.8C328.9,50.7,329,53.4,330.5,52z"/>
				</g>
			</g>
			<path fill="#A6C6BD" d="M313,45c-0.6-1.2-0.4-2.6-0.3-3.9c0.2-1.3,0.3-2.7,0.9-3.9c0.3-0.7,0.8-1.4,1.3-2c1-1.2,2.2-2.3,3.7-2.8
				c1.5-0.6,3.2-0.6,4.6,0.2c0,0.3-0.1,0.6-0.3,0.8c-0.1,0-0.3-0.1-0.4-0.2c-3.7,0.6-6.7,3.9-7.1,7.6c-0.2,1.5,0.1,3-0.4,4.5
				c-0.1,0.2-0.1,0.4-0.3,0.5C314.2,46.3,313.3,45.7,313,45z"/>
			<path fill="#CBDCD7" d="M317.3,45c-0.4,2.2-2.4,4-3.3,2.3c-0.9-1.7-1.2-3.8-0.6-5.6c0.3-0.9,0.8-1.7,1.6-2.1
				c0.8-0.4,1.9-0.4,2.6,0.2c0.8,0.7,0.8,2,0.4,2.9C317.5,43.6,317.3,44.3,317.3,45"/>
		</g>
	</g>
</g>
</svg>
