<?xml version="1.0" encoding="utf-8"?>
<!-- Generator: Adobe Illustrator 18.1.1, SVG Export Plug-In . SVG Version: 6.00 Build 0)  -->
<svg version="1.1" xmlns="http://www.w3.org/2000/svg" xmlns:xlink="http://www.w3.org/1999/xlink" x="0px" y="0px"
	 viewBox="0 0 433.285 205.225" enable-background="new 0 0 433.285 205.225" xml:space="preserve">
<g id="_x33_4up">
</g>
<g id="_x33_4">
	<g id="_x33_4back">
	</g>
	<g id="_x33_4front">
	</g>
	<g id="_x33_4back_copy">
	</g>
	<g id="_x33_4front_copy">
		<g id="XMLID_7_">
			<g>
				<path d="M433.035,41.55c0.03,0.41-1.43,0.66-1.45,0.39c-0.02-0.23-0.03-0.45-0.05-0.68c0.33-0.13,0.66-0.28,0.99-0.43
					c0.28-0.13,0.4-0.3,0.4-0.45h0.03C432.985,40.77,433.005,41.16,433.035,41.55z"/>
				<path d="M432.495,33.74c0.15,2.21,0.31,4.43,0.46,6.64h-0.03c0-0.34-0.53-0.62-1.04-0.39c-0.14,0.06-0.28,0.13-0.42,0.18
					c-0.14-1.95-0.27-3.91-0.41-5.87C431.535,34.12,432.015,33.93,432.495,33.74z"/>
				<path d="M432.925,40.38c0,0.15-0.12,0.32-0.4,0.45c-0.33,0.15-0.66,0.3-0.99,0.43c-0.02-0.36-0.05-0.73-0.07-1.09
					c0.14-0.05,0.28-0.12,0.42-0.18C432.395,39.76,432.925,40.04,432.925,40.38z"/>
				<path d="M432.445,33.03c0.47,0.07,0.74,0.44,0.06,0.71h-0.01C432.475,33.5,432.465,33.27,432.445,33.03z"/>
				<path d="M432.445,33.03c0.02,0.24,0.03,0.47,0.05,0.71c-0.48,0.19-0.96,0.38-1.44,0.56c-0.02-0.29-0.04-0.58-0.06-0.87
					c0.31-0.11,0.61-0.23,0.91-0.35C432.085,33.01,432.285,33,432.445,33.03z"/>
				<path d="M431.185,33c0.39-0.24,1.23-0.33,1.25-0.12c0,0.05,0.01,0.1,0.01,0.15c-0.16-0.03-0.36-0.02-0.54,0.05
					c-0.3,0.12-0.6,0.24-0.91,0.35c0-0.06-0.01-0.11-0.01-0.17C430.975,33.16,431.055,33.07,431.185,33z"/>
				<path d="M431.465,40.17c0.02,0.36,0.05,0.73,0.07,1.09c-4.02,1.75-8.33,3.07-12.69,4.26c-0.06-0.55-1.34-0.38-1.48,0.25
					c-0.01,0.05-0.02,0.11-0.04,0.16c-4.01,1.07-8.02,2.05-11.85,3.18c-36.31,10.67-72.71,21.02-109.14,31.27
					c-16.32,4.6-32.66,9.18-49.02,13.64c-7.18,1.95-14.9,4.99-22.35,5.72c-0.5,0.05-0.66-0.19-0.61-0.46
					c0.22,0.05,0.43,0.09,0.65,0.13c0.33,0.06,1.57-0.48,1.19-0.55c-0.31-0.06-0.62-0.12-0.93-0.18c2.85-0.31,5.75-1.35,8.5-2.08
					c6.35-1.66,12.68-3.39,19-5.12c36.26-9.96,72.43-20.25,108.56-30.63c16.1-4.62,32.18-9.26,48.24-13.99
					C416.695,44.75,424.635,43.22,431.465,40.17z"/>
				<path fill="#B3B3B3" d="M431.055,34.3c0.14,1.96,0.27,3.92,0.41,5.87c-6.83,3.05-14.77,4.58-21.9,6.69
					c-16.06,4.73-32.14,9.37-48.24,13.99c-36.13,10.38-72.3,20.67-108.56,30.63c-6.32,1.73-12.65,3.46-19,5.12
					c-2.75,0.73-5.65,1.77-8.5,2.08c-0.43-0.08-0.86-0.17-1.29-0.26c-0.1-0.16-0.4-0.19-0.69-0.13
					c-24.78-4.85-49.44-10.44-74.12-15.73c-38.49-8.26-76.97-16.52-115.36-25.24c-6.24-1.42-12.82-2.54-19.24-4.07
					c-4.07-0.95-8.08-2.07-11.88-3.53c0-1.34,0-2.69,0-4.03c8.07,2.59,16.61,4.12,24.83,6c17.09,3.9,34.22,7.63,51.36,11.32
					c38.02,8.2,76.09,16.21,114.2,24.02c10.84,2.22,21.68,4.6,32.59,6.49c0.09,0.02,0.2,0,0.31-0.03c0.07,0.01,0.14,0,0.22-0.02
					c24.04-5.58,47.75-13.34,71.47-20.13c35.77-10.25,71.54-20.53,107.22-31.1C413.545,39.68,422.585,37.53,431.055,34.3z"/>
				<path fill="#B3B3B3" d="M409.605,33.2c7.2-0.06,14.38-0.14,21.58-0.2c-0.13,0.07-0.21,0.16-0.2,0.26c0,0.06,0.01,0.11,0.01,0.17
					c-7.27,2.81-15.06,4.67-22.51,6.88c-15.98,4.75-31.98,9.41-47.99,14.06c-35.46,10.29-70.94,20.5-106.48,30.55
					c-9.19,2.6-18.39,5.5-27.71,7.68c-26.33-4.55-52.47-10.57-78.62-16.04c-38.06-7.97-76.12-15.99-114.05-24.56
					c-10.05-2.27-20.56-4.07-30.4-7.27c6.55-0.26,13.08-0.51,19.63-0.77c-0.56,0.02-1.42,0.65-0.68,0.88
					c8.68,2.7,17.72,4.42,26.59,6.34c15.4,3.34,30.86,6.48,46.31,9.57c33.24,6.64,66.52,13.05,99.88,19.02
					c10.25,1.83,20.52,3.86,30.86,5.1c0.07,0.01,0.14,0,0.21-0.02c0.06-0.01,0.11-0.02,0.17-0.04
					c51.96-14.85,104.12-29.02,156.18-43.53c8.9-2.48,17.8-4.93,26.68-7.47C409.515,33.68,409.675,33.4,409.605,33.2z"/>
				<path d="M430.995,33.43c0.02,0.29,0.04,0.58,0.06,0.87c-8.47,3.23-17.51,5.38-26.17,7.94c-35.68,10.57-71.45,20.85-107.22,31.1
					c-23.72,6.79-47.43,14.55-71.47,20.13c-0.08,0.02-0.15,0.03-0.22,0.02c0.56-0.14,1.26-0.73,0.55-0.85
					c-0.07-0.01-0.15-0.03-0.22-0.04c9.32-2.18,18.52-5.08,27.71-7.68c35.54-10.05,71.02-20.26,106.48-30.55
					c16.01-4.65,32.01-9.31,47.99-14.06C415.935,38.1,423.725,36.24,430.995,33.43z"/>
				<path d="M418.845,45.52c0.01,0.04,0,0.09-0.01,0.15c-7.59,33.8-17.2,67.1-25.65,100.68c-0.08,0.35-0.51,0.55-0.88,0.57
					c0.09-0.02,0.17-0.05,0.26-0.08c0.86-0.28,0.65-1.16-0.23-0.88c-0.18,0.06-0.36,0.12-0.54,0.18
					c8.41-33.43,17.97-66.57,25.53-100.21C417.835,45.79,418.335,45.65,418.845,45.52z"/>
				<path d="M417.365,45.77c0.14-0.63,1.42-0.8,1.48-0.25c-0.51,0.13-1.01,0.27-1.52,0.41
					C417.345,45.88,417.355,45.82,417.365,45.77z"/>
				<path d="M409.605,33.2c0.07,0.2-0.09,0.48-0.54,0.61c-8.88,2.54-17.78,4.99-26.68,7.47c-52.06,14.51-104.22,28.68-156.18,43.53
					c0.52-0.19,0.94-0.76,0.16-0.86c-0.04,0-0.08-0.01-0.12-0.01c8.79-2.52,17.61-4.94,26.42-7.4
					c51.81-14.44,103.74-28.55,155.46-43.32C408.615,33.21,409.115,33.21,409.605,33.2z"/>
				<path d="M409.605,33.2c-0.49,0.01-0.99,0.01-1.48,0.02c0.24-0.07,0.48-0.14,0.72-0.21C409.265,32.89,409.535,33.01,409.605,33.2
					z"/>
				<path fill="#B3B3B3" d="M405.475,49.11c3.83-1.13,7.84-2.11,11.85-3.18c-7.56,33.64-17.12,66.78-25.53,100.21
					c-49.76,16.13-99.29,32.99-148.93,49.47c-8.2,2.72-16.39,5.48-24.61,8.14c1.91-34.85,3.82-69.69,5.73-104.54
					c0.12,0.03,0.25,0.05,0.37,0.07c-0.05,0.27,0.11,0.51,0.61,0.46c7.45-0.73,15.17-3.77,22.35-5.72
					c16.36-4.46,32.7-9.04,49.02-13.64C332.765,70.13,369.165,59.78,405.475,49.11z"/>
				<path d="M392.335,145.96c0.88-0.28,1.09,0.6,0.23,0.88c-0.09,0.03-0.17,0.06-0.26,0.08c-0.36,0.04-0.68-0.11-0.59-0.47
					c0.03-0.1,0.05-0.21,0.08-0.31C391.975,146.08,392.155,146.02,392.335,145.96z"/>
				<path d="M391.715,146.45c-0.09,0.36,0.23,0.51,0.59,0.47c-8.42,2.74-16.82,5.56-25.22,8.35
					c-49.82,16.54-99.53,33.46-149.46,49.65c-0.3,0.1-0.52,0.06-0.65-0.06c0.03,0.01,0.06,0.02,0.09,0.02c0.02,0,0.04,0,0.07,0h0.01
					c0.42,0.05,1.07-0.18,1.08-0.5c0.01-0.21,0.02-0.42,0.03-0.63c8.22-2.66,16.41-5.42,24.61-8.14
					c49.64-16.48,99.17-33.34,148.93-49.47C391.765,146.24,391.745,146.35,391.715,146.45z"/>
				<path d="M226.525,92.64c0.71,0.12,0.01,0.71-0.55,0.85c-0.69,0.05-0.79-0.63,0.01-0.81c0.11-0.02,0.21-0.05,0.32-0.08
					C226.375,92.61,226.455,92.63,226.525,92.64z"/>
				<path d="M226.365,83.95c0.78,0.1,0.36,0.67-0.16,0.86c-0.06,0.02-0.11,0.03-0.17,0.04c-0.73,0.11-0.86-0.61-0.05-0.84
					c0.09-0.02,0.17-0.05,0.26-0.07C226.285,83.94,226.325,83.95,226.365,83.95z"/>
				<path d="M3.235,44.73c9.84,3.2,20.35,5,30.4,7.27c37.93,8.57,75.99,16.59,114.05,24.56c26.15,5.47,52.29,11.49,78.62,16.04
					c-0.11,0.03-0.21,0.06-0.32,0.08c-0.8,0.18-0.7,0.86-0.01,0.81c-0.11,0.03-0.22,0.05-0.31,0.03
					c-10.91-1.89-21.75-4.27-32.59-6.49c-38.11-7.81-76.18-15.82-114.2-24.02c-17.14-3.69-34.27-7.42-51.36-11.32
					c-8.22-1.88-16.76-3.41-24.83-6c0-0.38,0-0.77,0-1.15C2.865,44.61,3.055,44.67,3.235,44.73z"/>
				<path d="M226.245,83.94c-0.09,0.02-0.17,0.05-0.26,0.07c-0.81,0.23-0.68,0.95,0.05,0.84c-0.07,0.02-0.14,0.03-0.21,0.02
					c-10.34-1.24-20.61-3.27-30.86-5.1c-33.36-5.97-66.64-12.38-99.88-19.02c-15.45-3.09-30.91-6.23-46.31-9.57
					c-8.87-1.92-17.91-3.64-26.59-6.34c-0.74-0.23,0.12-0.86,0.68-0.88c0.01,0,0.03,0,0.04,0c0.06,0,0.1,0.01,0.15,0.02
					c10.13,3.16,20.72,5.1,31.08,7.31c32.86,7.03,65.85,13.44,98.86,19.7C177.265,75.59,201.695,81,226.245,83.94z"/>
				<path d="M226.195,98.86c0.38,0.07-0.86,0.61-1.19,0.55c-0.22-0.04-0.43-0.08-0.65-0.13c0.06-0.26,0.34-0.54,0.74-0.58
					c0.06-0.01,0.11-0.01,0.17-0.02C225.575,98.74,225.885,98.8,226.195,98.86z"/>
				<path d="M225.265,98.68c-0.06,0.01-0.11,0.01-0.17,0.02c-0.4,0.04-0.68,0.32-0.74,0.58c-0.12-0.02-0.25-0.04-0.37-0.07
					c0.01-0.21,0.02-0.43,0.03-0.64c0-0.06-0.01-0.11-0.04-0.15C224.405,98.51,224.835,98.6,225.265,98.68z"/>
				<path d="M223.975,98.42c0.03,0.04,0.04,0.09,0.04,0.15c-0.01,0.21-0.02,0.43-0.03,0.64c-0.48-0.09-0.95-0.19-1.43-0.28
					c0-0.06,0.01-0.11,0.01-0.17c0.02-0.23,0.37-0.41,0.72-0.47C223.515,98.34,223.745,98.38,223.975,98.42z"/>
				<path d="M223.985,99.21c-1.91,34.85-3.82,69.69-5.73,104.54c-0.25,0.09-0.51,0.17-0.76,0.25c-0.22-0.03-0.44-0.07-0.67-0.11
					c1.9-34.99,3.82-69.97,5.73-104.96C223.035,99.02,223.505,99.12,223.985,99.21z"/>
				<path d="M223.975,98.42c-0.23-0.04-0.46-0.08-0.69-0.13C223.575,98.23,223.875,98.26,223.975,98.42z"/>
				<path d="M223.285,98.29c-0.35,0.06-0.7,0.24-0.72,0.47c0,0.06-0.01,0.11-0.01,0.17c-9.61-1.9-19.17-4.02-28.75-6.05
					c-38.64-8.19-77.26-16.48-115.84-24.93c-17.27-3.79-34.53-7.59-51.76-11.55c-3.65-0.84-7.43-1.56-11.19-2.38
					c-0.07-0.19-0.14-0.39-0.22-0.58c-0.04-0.08-0.13-0.13-0.24-0.15l0.01-0.04c6.42,1.53,13,2.65,19.24,4.07
					c38.39,8.72,76.87,16.98,115.36,25.24C173.845,87.85,198.505,93.44,223.285,98.29z"/>
				<path fill="#B3B3B3" d="M222.555,98.93c-1.91,34.99-3.83,69.97-5.73,104.96c-6.65-1.12-13.23-3.11-19.75-4.8
					c-12.57-3.27-25.09-6.67-37.61-10.1c-28.14-7.7-56.24-15.57-84.25-23.7c-8.54-2.47-17.18-4.78-25.58-7.71
					C38.805,122.79,28.215,88,15.015,54.02c3.76,0.82,7.54,1.54,11.19,2.38c17.23,3.96,34.49,7.76,51.76,11.55
					c38.58,8.45,77.2,16.74,115.84,24.93C203.385,94.91,212.945,97.03,222.555,98.93z"/>
				<path d="M217.495,204c0.25-0.08,0.51-0.16,0.76-0.25c-0.01,0.21-0.02,0.42-0.03,0.63c-0.01,0.32-0.66,0.55-1.08,0.5
					c0.51,0,1.58-0.69,0.8-0.8C217.795,204.06,217.645,204.03,217.495,204z"/>
				<path d="M217.945,204.08c0.78,0.11-0.29,0.8-0.8,0.8h-0.01c-0.08-0.01-0.15-0.03-0.2-0.06c-0.2-0.21-0.08-0.61,0.45-0.78
					c0.04-0.01,0.07-0.02,0.11-0.04C217.645,204.03,217.795,204.06,217.945,204.08z"/>
				<path d="M217.495,204c-0.04,0.02-0.07,0.03-0.11,0.04c-0.53,0.17-0.65,0.57-0.45,0.78c-0.1-0.04-0.16-0.13-0.15-0.25
					c0.01-0.23,0.02-0.45,0.04-0.68C217.055,203.93,217.275,203.97,217.495,204z"/>
				<path d="M217.135,204.88c-0.03,0-0.05,0-0.07,0c-0.03,0-0.06-0.01-0.09-0.02c-0.01,0-0.01,0-0.01,0
					c-0.02-0.01-0.03-0.02-0.03-0.04C216.985,204.85,217.055,204.87,217.135,204.88z"/>
				<path d="M216.935,204.82c0,0.02,0.01,0.03,0.03,0.04c-8.42-1.31-16.75-3.91-24.96-6.07c-28.26-7.42-56.4-15.27-84.51-23.22
					c-19.7-5.56-39.78-10.56-59.12-17.3c-0.12-0.04-0.16-0.11-0.14-0.17c0.12,0.4,1.56-0.01,1.44-0.38
					c-0.01-0.05-0.03-0.09-0.04-0.14c8.4,2.93,17.04,5.24,25.58,7.71c28.01,8.13,56.11,16,84.25,23.7
					c12.52,3.43,25.04,6.83,37.61,10.1c6.52,1.69,13.1,3.68,19.75,4.8c-0.02,0.23-0.03,0.45-0.04,0.68
					C216.775,204.69,216.835,204.78,216.935,204.82z"/>
				<path d="M49.675,157.72c0.12,0.37-1.32,0.78-1.44,0.38v-0.01c0.05-0.28,0.94-0.66,1.3-0.54c0.03,0.01,0.07,0.02,0.1,0.03
					C49.645,157.63,49.665,157.67,49.675,157.72z"/>
				<path d="M49.635,157.58c-0.03-0.01-0.07-0.02-0.1-0.03c-0.36-0.12-1.25,0.26-1.3,0.54c-10.91-35.02-21.57-70.05-34.89-104.27
					c-0.02-0.05-0.01-0.1,0.03-0.15c0.54,0.12,1.09,0.24,1.64,0.35C28.215,88,38.805,122.79,49.635,157.58z"/>
				<path d="M14.795,53.44c0.08,0.19,0.15,0.39,0.22,0.58c-0.55-0.11-1.1-0.23-1.64-0.35c0.16-0.22,0.81-0.44,1.18-0.38
					C14.665,53.31,14.755,53.36,14.795,53.44z"/>
				<path d="M14.565,53.25l-0.01,0.04c-0.37-0.06-1.02,0.16-1.18,0.38c-3.75-0.84-7.47-1.8-11-3.07c0.18-0.1,0.31-0.23,0.31-0.38
					c0-0.17,0-0.33,0-0.5C6.485,51.18,10.495,52.3,14.565,53.25z"/>
				<path d="M2.685,49.72c0,0.17,0,0.33,0,0.5c0,0.15-0.13,0.28-0.31,0.38c-0.38-0.13-0.75-0.27-1.12-0.41
					c-0.11-0.04,0.98-0.64,1.37-0.49C2.645,49.71,2.665,49.72,2.685,49.72z"/>
				<path d="M2.685,45.69c0,1.34,0,2.69,0,4.03c-0.02,0-0.04-0.01-0.06-0.02c-0.39-0.15-1.48,0.45-1.37,0.49
					c0.37,0.14,0.74,0.28,1.12,0.41c-0.42,0.22-1.14,0.27-1.14,0c0-1.8,0-3.59,0-5.39C1.715,45.38,2.195,45.54,2.685,45.69z"/>
				<path d="M2.685,44.54c0,0.38,0,0.77,0,1.15c-0.49-0.15-0.97-0.31-1.45-0.48c0-0.2,0-0.41,0-0.61c0-0.17,0.17-0.32,0.39-0.42
					C1.975,44.31,2.325,44.43,2.685,44.54z"/>
				<path d="M2.685,44.22c0,0.11,0,0.21,0,0.32c-0.36-0.11-0.71-0.23-1.06-0.36C2.055,43.99,2.685,43.97,2.685,44.22z"/>
				<path d="M1.405,44.11c0.07,0.03,0.15,0.05,0.22,0.07c-0.22,0.1-0.39,0.25-0.39,0.42c0,0.2,0,0.41,0,0.61
					c-0.23-0.07-0.46-0.15-0.69-0.23C-0.295,44.69,0.875,43.92,1.405,44.11z"/>
			</g>
		</g>
	</g>
</g>
<g id="_x33_4down">
	<g id="info">
	</g>
	<g id="_x33_4down_safecopy" display="none">
	</g>
</g>
<g id="concept_ref">
</g>
</svg>
