<?xml version="1.0" encoding="utf-8"?>
<!-- Generator: Adobe Illustrator 18.1.1, SVG Export Plug-In . SVG Version: 6.00 Build 0)  -->
<svg version="1.1" id="Layer_1" xmlns="http://www.w3.org/2000/svg" xmlns:xlink="http://www.w3.org/1999/xlink" x="0px" y="0px"
	 viewBox="0 0 612 792" enable-background="new 0 0 612 792" xml:space="preserve">
<g id="_x33_4up">
	<g id="notes" opacity="0.21">
	</g>
	<g id="Layer_12" display="none">
	</g>
	<g id="_x33_4up_1_">
	</g>
	<g id="_x33_4up_copy">
		<path fill="#76C26C" stroke="#1CE200" stroke-miterlimit="10" d="M611.7,371c-0.4-0.8-0.5-2-0.4-3.1l0,0c0-0.1,0-0.1,0-0.3
			s0-0.3,0-0.4c-0.1-0.3-0.4-0.1-0.7,0c-7.6-5.2-18.1-8.1-26.4-11.5c-19.3-8.1-38.6-15.8-58-23.6c-43.5-17.6-87.1-34.9-130.4-52.7
			c-10.6-4.3-23.1-7.8-32.9-14c0-0.1,0-0.3,0-0.3c0-0.3-0.1-0.3-0.4-0.1l0,0l0,0c-12.3,3.6-25,6.2-37.4,9.3
			c-28.3,7-56.6,13.8-84.9,20.8c-63.6,15.6-127.2,31-190.9,46.4c-15.3,3.8-30.7,7.9-46.2,11.1H3l0,0c-0.1,0-0.3,0.1-0.4,0.3l0,0
			c-0.1,0.1-0.3,0.1-0.3,0.1c-0.5,0.4-0.9,0.9-0.9,1.6s0,1.5,0,2.1c-0.7,0.5-1.2,1.6-0.9,1.7c0.3,0,0.7,0.1,0.9,0.3
			c0,0.1,0.1,0.1,0.1,0.1c11.3,4.7,22.9,9.1,33.8,14.8c0.1,0.1,0.3,0,0.5,0c4.4,10.9,8.1,22.4,12.1,33.3c8.1,21.5,16,42.9,24,64.3
			c1.9,5.1,3.5,11,6.2,15.7l0.1,0.1c6.2,1.5,12.5,2.7,18.8,3.9c19.2,3.8,38.4,6.7,57.6,10.1c35.2,6.2,70.2,12.3,105.2,18.8
			c11.8,2.1,23.8,4.3,35.3,7.1l0,0l0,0c0.1,0,0.1,0,0.3,0c8.7-0.5,17.8-3,26.4-4.6c19.2-3.6,38.5-7.2,57.7-11
			c43.7-8.5,87.5-16.9,131.1-25.5c11.1-2.1,22.1-4.4,33.1-6.4l0,0c0.4,0.1,1.3-0.9,1.6-1.6l0,0c11.9-32.9,27.4-64.7,42.5-96.2
			c2.8-0.4,5.4-1.7,7.9-2.8c4.7-2.1,9.4-4.3,14.4-5.6c0,0,0.1,0,0.1-0.1C611.1,372.5,611.9,371.4,611.7,371z"/>
	</g>
	<g id="_x33_4up_copy_2">
		<g>
			<g id="XMLID_13_">
				<g>
					<path fill="#76C26C" stroke="#1CE200" stroke-miterlimit="10" d="M611.7,371c0.1,0.4-0.7,1.5-1.3,1.9c0.1-0.1,0.4-0.4,0.5-0.5
						l0,0c0.1-0.1,0.1-0.1,0.1-0.3c0,0,0-0.1,0.1-0.1c0,0,0.1-0.1,0.1-0.3c0.3-0.5,0.4-0.9,0-0.8c-0.1,0-0.1,0-0.3,0.1
						c-0.5-0.3-1.1-0.7-1.6-0.9c0-0.4,0-0.7,0-1.1l0,0l0,0c0,0.5,0.5,0.3,0.8,0.1c0.4-0.3,0.8-0.8,1.1-1.2
						C611.2,368.9,611.3,370.2,611.7,371z"/>
					<path fill="#76C26C" stroke="#1CE200" stroke-miterlimit="10" d="M611.3,370.9c0.4-0.1,0.3,0.3,0,0.8c0.1-0.3,0.1-0.4,0-0.5
						c-0.1-0.1-0.3-0.1-0.4-0.3C611.2,370.9,611.2,370.9,611.3,370.9z"/>
					<path fill="#76C26C" stroke="#1CE200" stroke-miterlimit="10" d="M611.3,371.2c0.1,0,0.1,0.3,0,0.5c0,0.1-0.1,0.1-0.1,0.3
						c0,0,0,0.1-0.1,0.1c0,0.1-0.1,0.1-0.1,0.3l0,0c-0.3,0.3-0.7,0.5-0.9,0.4c-0.1-0.1-0.3-0.1-0.4-0.3c-0.1-0.3-0.1-0.7-0.1-0.9
						c0.5-0.1,1.1-0.4,1.6-0.5C611.2,371,611.3,371,611.3,371.2z"/>
					<path fill="#76C26C" stroke="#1CE200" stroke-miterlimit="10" d="M611.3,367.3c0,0.1,0,0.3,0,0.4s0,0.1,0,0.3
						c0-0.1,0-0.4,0.1-0.5c-0.1,0.1-0.1,0.1-0.3,0.3l0,0c-0.1-0.1-0.3-0.3-0.4-0.3C610.8,367.2,611.2,366.9,611.3,367.3z"/>
					<path fill="#76C26C" stroke="#1CE200" stroke-miterlimit="10" d="M611.3,367.4c0,0.1,0,0.3-0.1,0.5l0,0
						c-0.1,0.4-0.7,0.9-1.1,1.2c-0.3,0.1-0.8,0.5-0.8-0.1l0,0l0,0c0.1,0,0.1,0.1,0.3,0.1c0.4,0.3,1.6-1.1,1.3-1.5
						C611.2,367.6,611.2,367.6,611.3,367.4z"/>
					<path fill="#76C26C" stroke="#1CE200" stroke-miterlimit="10" d="M611.2,372C611.2,372,611.2,371.8,611.2,372
						C611.2,371.8,611.2,372,611.2,372z"/>
					<path fill="#76C26C" stroke="#1CE200" stroke-miterlimit="10" d="M611.1,367.7c0.3,0.4-0.9,1.7-1.3,1.5c0,0-0.1-0.1-0.3-0.1
						C610,368.5,610.5,368.1,611.1,367.7z"/>
					<path fill="#76C26C" stroke="#1CE200" stroke-miterlimit="10" d="M611.1,367.6C611.1,367.6,611.1,367.7,611.1,367.6
						c-0.5,0.5-1.1,0.9-1.5,1.3c0,0,0,0-0.1,0c0,0,0,0,0-0.1c0.1-0.5,0.5-1.1,0.9-1.3c0,0,0.1-0.1,0.3-0.1
						C610.8,367.4,610.9,367.6,611.1,367.6z"/>
					<path fill="#76C26C" stroke="#1CE200" stroke-miterlimit="10" d="M610.9,372.2c0-0.1,0.1-0.1,0.1-0.3
						C611.1,372.1,611.1,372.1,610.9,372.2z"/>
					<path fill="#76C26C" stroke="#1CE200" stroke-miterlimit="10" d="M610.9,372.2c-0.1,0.3-0.4,0.4-0.5,0.5
						c-0.3,0.1-0.5,0.1-0.5,0s-0.1-0.3-0.1-0.4c0.1,0.1,0.3,0.1,0.4,0.3C610.3,372.8,610.7,372.7,610.9,372.2z"/>
					<path fill="#76C26C" stroke="#1CE200" stroke-miterlimit="10" d="M610.5,367.3c-0.1,0.1-0.1,0.1-0.3,0.1
						c-0.4,0.4-0.8,0.8-0.9,1.3c0,0,0,0,0,0.1c-3-2-6.6-3.1-9.8-4.6c-7.6-3.4-15.3-6.4-22.9-9.7c-43.3-17.8-86.9-35.3-130.4-52.7
						c-19.3-7.8-38.8-15.6-58.1-23.5c-8.2-3.4-17.6-6.2-25.4-10.6c0-0.8,0-1.6,0-2.3c9.8,6.2,22.3,9.7,32.9,14
						c43.3,17.7,86.9,35.2,130.4,52.7c19.3,7.8,38.6,15.6,58,23.6C592.5,359.2,603,362.2,610.5,367.3z"/>
					<path fill="#76C26C" stroke="#1CE200" stroke-miterlimit="10" d="M610.4,372.9l-0.1,0.1c-5,1.5-9.5,3.6-14.4,5.6
						c-2.5,1.1-5.1,2.4-7.9,2.8c0.4-0.7,0.7-1.3,0.9-2c3.8-0.4,7.5-2.5,10.9-4c2.8-1.3,5.8-2.5,8.7-3.5c0.4,0.3,0.8,0.4,1.2,0.7
						c0,0.1,0.1,0.3,0.1,0.4C609.9,373.1,610.1,373.1,610.4,372.9z"/>
					<path fill="#76C26C" stroke="#1CE200" stroke-miterlimit="10" d="M611.1,370.9c-0.5,0.1-1.1,0.3-1.6,0.5c0-0.4-0.1-0.7-0.1-1.1
						c0-0.1,0-0.3,0-0.4C610,370.4,610.5,370.6,611.1,370.9z"/>
					<path fill="#76C26C" stroke="#1CE200" stroke-miterlimit="10" d="M609.6,372.4c-0.4-0.3-0.8-0.4-1.2-0.7
						c0.3-0.1,0.7-0.3,0.9-0.3C609.5,371.8,609.6,372.1,609.6,372.4z"/>
					<path fill="#76C26C" stroke="#1CE200" stroke-miterlimit="10" d="M609.5,368.9L609.5,368.9C609.5,369,609.5,369,609.5,368.9
						C609.5,369,609.5,369,609.5,368.9L609.5,368.9z"/>
					<path fill="#76C26C" stroke="#1CE200" stroke-miterlimit="10" d="M609.5,371.4c-0.3,0.1-0.7,0.1-0.9,0.3
						c-9.7-5.4-20.9-8.9-31-13c-43.2-18-86.7-35.6-130-53.3c-19.5-7.9-39-15.8-58.5-23.6c-9-3.6-17.8-7.6-27-10.7
						c0.4-0.4,0.9-1.1,0.9-1.3c0-0.1,0-0.1,0-0.3c10.9,3.6,21.5,8.5,32.2,12.7c43.6,17.4,87.2,35.2,130.7,53
						c19.6,8.1,39.2,16.1,58.8,24.3c8.2,3.4,17.2,6.2,25,10.5c0,0.1,0,0.3,0,0.4C609.5,370.8,609.5,371,609.5,371.4z"/>
					<path fill="#76C26C" stroke="#1CE200" stroke-miterlimit="10" d="M609.5,368.9L609.5,368.9c0,0.4,0,0.8,0,1.1
						c-7.8-4.3-16.8-7.1-25-10.5c-19.6-8.2-39.2-16.2-58.8-24.3c-43.5-17.8-87.1-35.4-130.7-53c-10.6-4.3-21.2-9.1-32.2-12.7l0,0
						c0-0.4,0-0.8,0-0.9l0,0c0-0.3,0-0.4,0-0.7c7.8,4.4,17.2,7.2,25.4,10.6c19.3,7.9,38.6,15.7,58.1,23.5
						c43.5,17.6,87.1,34.9,130.4,52.7c7.6,3.1,15.3,6.3,22.9,9.7C602.7,365.8,606.5,367,609.5,368.9z"/>
					<path fill="#76C26C" stroke="#1CE200" stroke-miterlimit="10" d="M608.5,371.8c-3,1.1-5.9,2.3-8.7,3.5c-3.4,1.5-7.1,3.8-10.9,4
						c0.7-1.3,1.3-2.7,2-4l0,0c0.4-0.4,0.8-1.1,0.5-1.2c-8.1-1.9-16.1-5.8-23.8-8.6c-18.1-6.6-36.1-13.3-54.2-20
						c-40.8-15-81.7-30.2-122.5-45.1c-6.8-2.5-13.8-5-20.7-7.5c-2.5-0.9-5.5-2.4-8.3-2.8V290c0,0,0-0.1-0.1-0.1
						c0-0.1-0.1-0.1-0.3-0.1c-38.5,6.8-76.8,16.1-115.1,24.4c-55.7,12.1-111.4,24.2-167.1,36.2c-15.7,3.4-31.3,6.8-47,10.1
						c-0.1-0.1-0.1-0.3-0.3-0.5c-0.4-0.7-2.1,1.2-1.9,1.7c1.5,2.8,2.8,5.8,4,8.7c-9.1-4.6-18.8-8.3-28.2-12.2
						c11.7-1.3,23.6-5.6,34.6-8.3c27.8-6.7,55.6-13.6,83.2-20.3c63.6-15.6,127.2-31.1,190.8-46.7c15.3-3.8,30.7-7.5,46-11.3v0.1
						c0.1,0.4,0.5,0.1,0.9-0.3c9.1,3.1,18.1,7.1,27,10.7c19.6,7.8,39,15.7,58.5,23.6c43.5,17.6,86.8,35.3,130,53.3
						C587.6,362.9,598.9,366.3,608.5,371.8z"/>
					<path fill="#76C26C" stroke="#1CE200" stroke-miterlimit="10" d="M591.5,374.1c0.4,0.1,0,0.8-0.5,1.2c0.7-1.3-0.7-0.5-1.3,0.1
						c-9.7-2.4-19.3-7-28.6-10.5c-40.9-15-81.7-30.2-122.5-45.2c-18.1-6.7-36.1-13.3-54.2-19.9c-5.8-2-11.4-4.2-17.2-6.2
						c-1.6-0.5-3.4-1.5-5.1-1.9c0-0.7,0-1.2,0-1.9c2.7,0.4,5.8,2,8.3,2.8c7,2.4,13.8,5,20.7,7.5c40.9,14.9,81.7,30.1,122.5,45.1
						c18.1,6.7,36.1,13.3,54.2,20C575.4,368.4,583.4,372.1,591.5,374.1z"/>
					<path fill="#76C26C" stroke="#1CE200" stroke-miterlimit="10" d="M589.6,375.5c0.5-0.7,2-1.5,1.3-0.1l0,0
						c-0.3,0.3-0.4,0.4-0.7,0.3C590.1,375.6,589.9,375.6,589.6,375.5z"/>
					<path fill="#76C26C" stroke="#1CE200" stroke-miterlimit="10" d="M590.9,375.3c-0.7,1.3-1.3,2.7-2,4c-0.1,0-0.3,0-0.4,0
						c-0.8,0-2,2.1-1.5,2.1c0.3,0,0.7,0,0.9-0.1c-15.2,31.5-30.6,63.3-42.5,96.2c0-0.1,0-0.3,0-0.4c0,0,0-0.1-0.1-0.1l0,0
						c-0.3-0.1-0.7-0.3-0.9-0.3c12.7-34.5,29.1-67.9,45.1-101c0-0.1,0.1-0.1,0.1-0.3c0.3,0.1,0.4,0.1,0.7,0.1
						C590.5,375.7,590.7,375.6,590.9,375.3z"/>
					<path fill="#76C26C" stroke="#1CE200" stroke-miterlimit="10" d="M589.6,375.5c-0.1,0.1-0.1,0.3-0.1,0.3
						c-16,33.1-32.3,66.6-45.1,101c-50.5-17.6-101.8-32.2-152.8-48.3c-9.4-3-18.8-5.9-28.2-9c0-21.1,0.4-42.1-0.1-63.2
						c-0.5-21.5-1.3-42.9-1.5-64.4c1.7,0.5,3.5,1.3,5.1,1.9c5.8,2,11.4,4.2,17.2,6.2c18.1,6.6,36.2,13.1,54.2,19.9
						C479,334.8,520,350,560.7,365C570.3,368.5,579.9,373.1,589.6,375.5z"/>
					<path fill="#76C26C" stroke="#1CE200" stroke-miterlimit="10" d="M588.9,379.4c-0.3,0.7-0.7,1.3-0.9,2c-0.3,0-0.7,0.1-0.9,0.1
						c-0.5,0,0.7-2.1,1.5-2.1C588.7,379.4,588.8,379.4,588.9,379.4z"/>
					<path fill="#76C26C" stroke="#1CE200" stroke-miterlimit="10" d="M545.4,477.2c0.1,0.1,0.1,0.3,0,0.4c0,0,0,0,0,0.1
						s-0.3,0.4-0.4,0.5c0.1-0.1,0.1-0.3,0.3-0.4l0,0v-0.1c0-0.1,0.1-0.3,0.1-0.3C545.4,477.3,545.4,477.2,545.4,477.2z"/>
					<path fill="#76C26C" stroke="#1CE200" stroke-miterlimit="10" d="M545.4,477.2v0.1c0-0.1,0-0.3-0.1-0.3
						C545.3,477.2,545.3,477.2,545.4,477.2C545.3,477.2,545.3,477.2,545.4,477.2L545.4,477.2z"/>
					<path fill="#76C26C" stroke="#1CE200" stroke-miterlimit="10" d="M545.4,477.3c0,0.1,0,0.1-0.1,0.3v0.1l0,0
						c-0.1,0.1-0.1,0.3-0.3,0.4l0,0c-0.4,0.4-1.1,0.9-1.3,0.8c0-0.4,0.8-1.7,1.5-2c0,0,0,0,0.1,0
						C545.4,477.2,545.4,477.2,545.4,477.3z"/>
					<path fill="#76C26C" stroke="#1CE200" stroke-miterlimit="10" d="M545.3,477.2C545.4,477.2,545.4,477.2,545.3,477.2
						C545.4,477.2,545.4,477.2,545.3,477.2z"/>
					<path fill="#76C26C" stroke="#1CE200" stroke-miterlimit="10" d="M545.3,477.9v-0.1C545.3,477.7,545.3,477.7,545.3,477.9z"/>
					<path fill="#76C26C" stroke="#1CE200" stroke-miterlimit="10" d="M545.3,477.2L545.3,477.2c-0.1,0-0.1,0-0.1,0
						c-0.3,0-0.7,0.1-0.9,0.1c0-0.1,0.1-0.4,0.1-0.5C544.6,476.9,545,477,545.3,477.2z"/>
					<path fill="#76C26C" stroke="#1CE200" stroke-miterlimit="10" d="M545,478.3c0.1-0.3,0.4-0.4,0.4-0.5c-0.3,0.7-1.2,1.7-1.6,1.6
						h0.1C544.2,479.2,544.8,478.7,545,478.3z"/>
					<path fill="#76C26C" stroke="#1CE200" stroke-miterlimit="10" d="M544.2,477.3c0.3-0.1,0.7-0.1,0.9-0.1c-0.7,0.3-1.5,1.5-1.5,2
						c-0.1,0-0.1-0.1,0-0.4C543.8,478.3,544,477.7,544.2,477.3z"/>
					<path fill="#76C26C" stroke="#1CE200" stroke-miterlimit="10" d="M545.3,477.9c0,0.1-0.1,0.3-0.3,0.4l0,0
						C545,478.1,545.2,478,545.3,477.9z"/>
					<path fill="#76C26C" stroke="#1CE200" stroke-miterlimit="10" d="M545,478.3L545,478.3c-0.3,0.4-0.7,0.9-1.1,0.9
						C544.4,479.1,544.6,478.7,545,478.3L545,478.3z"/>
					<path fill="#76C26C" stroke="#1CE200" stroke-miterlimit="10" d="M544.4,476.8c-0.1,0.1-0.1,0.4-0.1,0.5
						c-1.3,0.3-2.5,0.5-3.9,0.7c-8.9-3.1-17.8-5.8-26.7-8.6c-50.6-16.1-101.7-30.6-151.9-47.9h0.1c0.4,0,0.9-0.7,1.2-1.2l0,0
						c0.1-0.3,0.3-0.4,0.3-0.7c0,0,0,0,0-0.1c9.3,3.2,18.8,6,28.2,9C442.5,444.6,494.1,459.2,544.4,476.8z"/>
					<path fill="#76C26C" stroke="#1CE200" stroke-miterlimit="10" d="M544.2,477.3c-0.1,0.4-0.4,0.9-0.5,1.3
						c-0.1,0.3-0.1,0.4,0,0.4v0.1c-1.1-0.4-2.3-0.8-3.4-1.2C541.7,477.9,542.9,477.6,544.2,477.3z"/>
					<path fill="#76C26C" stroke="#1CE200" stroke-miterlimit="10" d="M545,478.3c-0.3,0.4-0.7,0.8-1.1,0.9h-0.1l0,0h-0.1
						c0,0,0,0,0-0.1C543.8,479.2,544.5,478.8,545,478.3z"/>
					<path fill="#76C26C" stroke="#1CE200" stroke-miterlimit="10" d="M543.7,479.2L543.7,479.2c-11,2.1-22,4.4-33,6.6
						c-43.7,8.6-87.4,17.2-131.1,25.5c-19.2,3.8-38.5,7.4-57.7,11c-8.6,1.6-17.6,4.2-26.4,4.6c0.7-0.3,1.6-1.6,1.3-2
						c0,0,0-0.1-0.1-0.1c11.1-0.5,22.7-3.9,33.7-5.9c43.3-8.2,86.7-16.6,130-25.1c26.7-5.2,53.3-10.6,80-15.7
						C541.4,478.4,542.6,478.8,543.7,479.2z"/>
					<path fill="#76C26C" stroke="#1CE200" stroke-miterlimit="10" d="M513.6,469.4c8.9,2.8,17.8,5.6,26.7,8.6
						c-26.7,5-53.3,10.5-80,15.7c-43.3,8.5-86.7,16.9-130,25.1c-11,2-22.5,5.4-33.7,5.9c-25.9-6.3-52.6-10.3-78.9-14.9
						c-34.9-6.2-69.6-12.2-104.5-18.7c-4.8-0.9-9.8-1.7-14.8-2.7c0,0,0,0-0.1,0c0,0,0,0-0.1,0c-5.1-0.9-10.1-1.9-15.2-3
						c30.9-8.3,62.4-14.6,93.5-21.9c48.6-11.3,97.3-22.4,146-33.4c13-3,25.9-6.2,39-8.7l0,0C411.9,438.8,463.1,453.3,513.6,469.4z
						 M503.4,474.6c0-0.1,0-0.1,0-0.3c-0.4-1.6-3.4-0.9-4.4-0.8c-1.6,0.4-4.3,1.7-4,3.8c0.3,2.1,3.2,1.7,4.6,1.2
						C501,478,503.3,476.5,503.4,474.6C503.4,474.8,503.4,474.6,503.4,474.6z M482.4,467.8c0-0.1,0-0.1,0-0.3
						c-0.5-1.7-3.9-1.1-5.1-0.8c-1.7,0.4-4.7,1.7-4.3,4c0.3,2.4,3.8,1.9,5.2,1.2C479.7,471.3,482.2,469.7,482.4,467.8L482.4,467.8z
						 M456.5,484.2c0-0.1,0-0.1,0-0.1c-0.4-1.5-3.4-0.9-4.4-0.8c-1.6,0.4-4.3,1.7-4,3.8c0.3,2.1,3.2,1.7,4.6,1.2
						C454.2,487.5,456.5,486,456.5,484.2C456.5,484.3,456.5,484.2,456.5,484.2L456.5,484.2z M444,456.8c0-0.1,0-0.3,0-0.4
						c-0.5-2-4.4-1.2-5.9-0.9c-1.9,0.4-5.1,1.9-4.8,4.4c0.3,2.7,4.3,2.3,6,1.5C441.1,460.7,443.7,458.9,444,456.8
						C444,456.9,444,456.8,444,456.8z M436.4,477.4c0-0.1,0-0.1,0-0.3c-0.5-1.7-3.9-1.1-5.1-0.8c-1.7,0.4-4.7,1.7-4.3,4
						c0.3,2.4,3.8,1.9,5.2,1.3C433.8,481.1,436.2,479.5,436.4,477.4L436.4,477.4z M419.2,493v-0.1c-0.4-1.5-3.4-0.9-4.4-0.8
						c-1.6,0.4-4.3,1.7-4,3.8c0.3,2.1,3.2,1.7,4.6,1.2C416.8,496.4,419,494.9,419.2,493L419.2,493L419.2,493z M401.7,443.2
						c0-0.1,0-0.3,0-0.4c-0.7-2.3-5-1.3-6.6-1.1c-2.1,0.4-5.6,2-5.2,4.7c0.4,3.1,4.8,2.5,6.8,1.6
						C398.7,447.4,401.6,445.5,401.7,443.2z M401.2,465.1c0-0.1,0-0.3,0-0.3c-0.5-2-4.4-1.2-5.8-0.9c-1.9,0.4-5.1,1.9-4.8,4.4
						c0.3,2.7,4.3,2.3,6,1.5C398.2,469,401.1,467.3,401.2,465.1z M399.5,485.5c0-0.1,0-0.1,0-0.3c-0.5-1.7-3.9-1.1-5.1-0.8
						c-1.7,0.4-4.6,1.7-4.3,4c0.3,2.4,3.8,1.9,5.2,1.2C396.8,489.1,399.3,487.5,399.5,485.5C399.5,485.6,399.5,485.5,399.5,485.5z
						 M382,501.1c0-0.1,0-0.1,0-0.3c-0.4-1.5-3.4-0.9-4.4-0.8c-1.6,0.4-4.3,1.7-4,3.8c0.3,2.1,3.2,1.7,4.6,1.2
						C379.6,504.4,381.9,502.9,382,501.1L382,501.1z M369,431.8c0-0.1,0-0.3,0-0.3c-0.8-2.7-7-1.3-8.9-1.1c-2.4,0.4-7.6,1.9-7.1,5.4
						C353.7,441.9,368.3,437.1,369,431.8z M368.1,472.8c0-0.1,0-0.3,0-0.4c-0.5-2-4.4-1.2-5.9-0.9c-1.9,0.4-5.1,1.9-4.8,4.4
						c0.3,2.7,4.3,2.3,6,1.5C365.1,476.5,367.9,474.9,368.1,472.8L368.1,472.8z M363.6,452.5c0-0.1,0-0.1,0-0.1
						c-0.7-2.1-5-1.3-6.6-0.9c-2,0.4-5.6,2-5.2,4.7c0.4,3.1,4.8,2.5,6.8,1.6C360.5,456.9,363.6,454.9,363.6,452.5
						C363.6,452.6,363.6,452.6,363.6,452.5C363.6,452.6,363.6,452.5,363.6,452.5z M362.4,493.4c0-0.1,0-0.1,0-0.3
						c-0.5-1.7-3.8-1.1-5.1-0.8c-1.7,0.4-4.7,1.7-4.3,4c0.3,2.4,3.8,1.9,5.2,1.2C359.9,497,362.3,495.4,362.4,493.4L362.4,493.4z
						 M347.7,508.3c0-0.1,0-0.3,0-0.4c-0.4-1.5-3.4-0.9-4.4-0.7c-1.6,0.4-4.3,1.7-4,3.8c0.3,2.1,3.2,1.7,4.6,1.2
						C345.2,511.5,347.5,510.1,347.7,508.3z M331.2,459.9c0-0.1,0-0.1,0-0.3c-0.7-2.1-5-1.3-6.6-1.1c-2.1,0.4-5.6,2-5.2,4.7
						c0.4,3.1,4.8,2.5,6.8,1.6C328.1,464.2,331,462.3,331.2,459.9L331.2,459.9z M330.9,439.6c0-0.1,0-0.3,0-0.3
						c-0.8-2.7-7-1.3-8.9-1.1c-2.4,0.4-7.6,1.9-7.1,5.4C315.6,449.7,330.4,444.8,330.9,439.6z M330.6,481.7c0-0.1,0-0.3,0-0.4
						c-0.5-2-4.4-1.2-5.9-0.9c-1.9,0.4-5.1,1.9-4.8,4.4c0.3,2.7,4.3,2.3,6,1.5S330.4,483.9,330.6,481.7L330.6,481.7z M327.8,500.9
						c0-0.1,0-0.1,0-0.1c-0.5-1.7-3.9-1.1-5.1-0.8c-1.7,0.4-4.6,1.7-4.3,4c0.3,2.4,3.8,1.9,5.2,1.2
						C325.1,504.6,327.7,502.9,327.8,500.9C327.8,501.1,327.8,501.1,327.8,500.9L327.8,500.9z M322.6,513.1c0-0.1,0-0.3,0-0.3
						c-0.4-1.6-3.4-0.9-4.4-0.8c-1.6,0.4-4.3,1.7-4,3.8c0.3,2.1,3.2,1.7,4.6,1.2C320.2,516.5,322.4,514.9,322.6,513.1z M304.9,517.6
						c0-0.1,0-0.3,0-0.3c-0.4-1.6-3.4-0.9-4.4-0.8c-1.6,0.4-4.3,1.7-4,3.8c0.3,2.1,3.2,1.7,4.6,1.2
						C302.4,520.8,304.7,519.3,304.9,517.6z M299,446.9c0-0.1,0-0.3,0-0.3c-0.8-2.7-7-1.3-8.9-1.1c-2.4,0.4-7.6,1.9-7.1,5.4
						C283.8,456.9,298.4,452.1,299,446.9z M298.2,507.1c0-0.1,0-0.3,0-0.3c-0.5-1.7-3.9-1.1-5.1-0.8c-1.7,0.4-4.6,1.7-4.3,4
						c0.3,2.4,3.8,1.9,5.2,1.2C295.5,510.6,298,509,298.2,507.1z M296.4,490.9c0-0.1,0-0.1,0-0.3c-0.5-2-4.4-1.2-5.9-0.9
						c-1.9,0.4-5.1,1.9-4.8,4.4c0.4,2.7,4.3,2.3,6,1.5C293.5,494.9,296.3,493.1,296.4,490.9L296.4,490.9z M295.6,467.7
						c0-0.1,0-0.3,0-0.4c-0.7-2.1-5-1.3-6.6-1.1c-2.1,0.4-5.6,2-5.2,4.7c0.4,3.1,4.8,2.5,6.8,1.6
						C292.4,471.8,295.5,469.9,295.6,467.7z M278.2,511.4v-0.1c-0.5-1.7-3.8-1.1-5.1-0.8c-1.7,0.4-4.6,1.7-4.3,4
						c0.3,2.4,3.8,1.9,5.2,1.2C275.6,515,278,513.4,278.2,511.4L278.2,511.4L278.2,511.4z M265.9,454.9c0-0.1,0-0.3,0-0.3
						c-0.8-2.7-7-1.3-8.9-1.1c-2.4,0.4-7.6,1.9-7.1,5.4C250.8,465,265.4,460.1,265.9,454.9z M263.3,496.8c0-0.1,0-0.1,0-0.3
						c-0.5-2-4.4-1.2-5.9-0.9c-1.9,0.4-5.1,1.9-4.8,4.4c0.4,2.7,4.3,2.3,6,1.5C260.4,500.7,263.1,498.9,263.3,496.8L263.3,496.8z
						 M259,477.4c0-0.1,0-0.1,0-0.3c-0.7-2.1-5-1.3-6.6-1.1c-2,0.4-5.6,2-5.2,4.7c0.4,3.1,4.8,2.5,6.8,1.6
						C255.7,481.7,258.7,479.9,259,477.4L259,477.4z M238.2,502.9c0-0.1,0-0.1,0-0.3c-0.5-2-4.4-1.2-5.9-0.9
						c-1.9,0.4-5.1,1.9-4.8,4.4c0.4,2.7,4.3,2.3,6,1.5C235.2,507,238,505.2,238.2,502.9C238.2,503.1,238.2,502.9,238.2,502.9z
						 M226.2,463.6c0-0.1,0-0.3,0-0.3c-0.8-2.7-7-1.3-8.9-1.1c-2.4,0.4-7.6,1.9-7.1,5.4C211.1,473.7,225.7,468.9,226.2,463.6z
						 M221.3,484.7c0-0.1,0-0.1,0-0.3c-0.7-2.3-5-1.3-6.6-1.1c-2.1,0.4-5.6,2-5.2,4.7c0.4,3.1,4.8,2.5,6.8,1.6
						C218,489,221.1,487,221.3,484.7L221.3,484.7z M193.4,491.4c0-0.1,0-0.1,0-0.3c-0.7-2.1-5-1.3-6.6-1.1c-2.1,0.4-5.6,2-5.2,4.7
						c0.4,3.1,4.8,2.5,6.8,1.6C190.1,495.7,193.2,493.8,193.4,491.4L193.4,491.4z M186.5,471.8c0-0.1,0-0.3,0-0.3
						c-0.8-2.7-7-1.3-8.9-1.1c-2.4,0.4-7.6,1.9-7.1,5.4C171.2,481.9,185.8,476.9,186.5,471.8z M151.5,481.1c0-0.1,0-0.3,0-0.3
						c-0.8-2.7-7-1.3-8.9-1.1c-2.4,0.4-7.6,1.9-7.1,5.4C136.2,491.1,150.8,486.3,151.5,481.1z"/>
					<path fill="#76C26C" stroke="#1CE200" stroke-miterlimit="10" d="M496.9,475.7c-0.1,0.1-0.3,0.3-0.4,0.4c0.1,0,0.3-0.1,0.4-0.1
						l0,0c0.1,0.1,0.3,0.4,0.3,0.4c0.1,0.1,0.4,0.3,0.5,0.4c0.5,0.3,1.2,0.3,1.7,0.3c0.5-0.1,1.1-0.3,1.6-0.5
						c0.1-0.1,0.4-0.1,0.5-0.3l0,0c0.1,0.5,1.7-0.7,1.9-1.5c-0.1,1.7-2.4,3.4-3.9,3.9c-1.3,0.5-4.3,0.9-4.6-1.2
						c-0.3-2,2.4-3.5,4-3.8c1.1-0.3,4-0.8,4.4,0.8c0,0.1,0,0.1,0,0.3c0,0,0,0,0-0.1c0-0.9-1.9,0.8-1.9,1.5v0.1l0,0
						c-0.3-0.7-1.7-0.7-2.4-0.5c-0.5,0-0.9,0.1-1.5,0.3c-0.3,0-0.4,0.1-0.7,0.3C496.9,475.8,496.9,475.7,496.9,475.7z"/>
					<path fill="#76C26C" stroke="#1CE200" stroke-miterlimit="10" d="M501.6,476.1L501.6,476.1L501.6,476.1
						c-0.1-0.7,1.7-2.4,1.7-1.5c0,0,0,0,0,0.1l0,0c-0.1,0.8-1.7,2-1.9,1.5l0,0C501.4,476.1,501.6,476.1,501.6,476.1
						C501.6,476.2,501.6,476.1,501.6,476.1z"/>
					<path fill="#76C26C" stroke="#1CE200" stroke-miterlimit="10" d="M501.6,476.1L501.6,476.1
						C501.6,476.1,501.6,476.2,501.6,476.1z"/>
					<path fill="#76C26C" stroke="#1CE200" stroke-miterlimit="10" d="M501.4,476.1c-0.1,0.1-0.4,0.3-0.5,0.3
						c-0.5,0.3-1.1,0.5-1.6,0.5s-1.2,0-1.7-0.3c-0.1-0.1-0.4-0.1-0.5-0.4c0,0-0.1-0.3-0.3-0.4c0.3,0,0.5-0.1,0.7-0.3
						c0.5-0.1,0.9-0.1,1.5-0.3C499.7,475.6,501.2,475.4,501.4,476.1z"/>
					<path fill="#76C26C" stroke="#1CE200" stroke-miterlimit="10" d="M496.9,476L496.9,476c-0.1,0-0.3,0.1-0.5,0.1
						c0.1-0.1,0.3-0.3,0.4-0.4C496.9,475.7,496.9,475.8,496.9,476z"/>
					<path fill="#76C26C" stroke="#1CE200" stroke-miterlimit="10" d="M480.5,469.3L480.5,469.3c0.1,0.5,1.7-0.7,1.9-1.5
						c-0.1,1.9-2.5,3.5-4.2,4.2c-1.5,0.7-5,1.1-5.2-1.2c-0.3-2.3,2.5-3.6,4.3-4c1.2-0.3,4.6-0.9,5.1,0.8c0,0.1,0,0.1,0,0.3
						c0,0,0,0,0-0.1c0-0.9-1.9,0.8-1.9,1.5V469.3L480.5,469.3c-0.3-0.9-2-0.7-2.8-0.7c-0.5,0-1.1,0.1-1.7,0.3
						c-0.4,0.1-1.2,0.5-1.2,0.3c-0.1,1.2,2.3,1.5,3,1.3c0.7-0.1,1.2-0.3,1.9-0.7C479.8,469.7,480.2,469.4,480.5,469.3L480.5,469.3z"
						/>
					<path fill="#76C26C" stroke="#1CE200" stroke-miterlimit="10" d="M480.5,469.1c0-0.7,1.9-2.4,1.9-1.5c0,0,0,0,0,0.1l0,0
						c-0.1,0.8-1.7,2-1.9,1.5l0,0C480.5,469.3,480.5,469.3,480.5,469.1C480.5,469.3,480.5,469.3,480.5,469.1
						C480.5,469.3,480.5,469.1,480.5,469.1z"/>
					<path fill="#76C26C" stroke="#1CE200" stroke-miterlimit="10" d="M480.5,469.3L480.5,469.3L480.5,469.3L480.5,469.3
						L480.5,469.3z"/>
					<path fill="#76C26C" stroke="#1CE200" stroke-miterlimit="10" d="M480.5,469.3c-0.3,0.3-0.5,0.4-0.8,0.5
						c-0.5,0.3-1.2,0.5-1.9,0.7c-0.7,0.1-3.2-0.1-3-1.3c0,0.3,0.8-0.1,1.2-0.3c0.5-0.1,1.1-0.1,1.7-0.3
						C478.4,468.5,480.1,468.3,480.5,469.3z"/>
					<path fill="#76C26C" stroke="#1CE200" stroke-miterlimit="10" d="M449.9,485.2c-0.1,0.1-0.3,0.3-0.4,0.4
						c0.1-0.1,0.3-0.1,0.4-0.1c0.1,0.1,0.3,0.4,0.3,0.4c0.1,0.1,0.4,0.3,0.5,0.4c0.5,0.3,1.2,0.3,1.7,0.3c0.5-0.1,1.1-0.3,1.6-0.5
						c0.1-0.1,0.4-0.1,0.5-0.3c0,0,0,0,0,0.1c0.1,0.5,1.7-0.7,1.9-1.5c-0.1,1.7-2.4,3.4-3.9,4c-1.3,0.5-4.3,0.9-4.6-1.2
						c-0.3-2,2.4-3.5,4-3.8c1.1-0.3,4-0.8,4.4,0.8v0.1c0-0.9-1.9,0.8-1.9,1.5c0,0,0,0,0,0.1l0,0c-0.3-0.7-1.7-0.5-2.4-0.5
						c-0.5,0-0.9,0.1-1.5,0.1c-0.3,0.1-0.5,0.1-0.8,0.3C450,485.4,449.9,485.4,449.9,485.2z"/>
					<path fill="#76C26C" stroke="#1CE200" stroke-miterlimit="10" d="M456.5,484.2L456.5,484.2
						C456.5,484.2,456.5,484.3,456.5,484.2c-0.1,0.9-1.7,2.1-1.9,1.6c0,0,0,0,0-0.1l0,0c0,0.1,0,0,0.1-0.1l-0.1,0.1c0,0,0,0,0-0.1
						C454.6,485,456.6,483.2,456.5,484.2z"/>
					<path fill="#76C26C" stroke="#1CE200" stroke-miterlimit="10" d="M454.6,485.6l0.1-0.1C454.7,485.6,454.6,485.9,454.6,485.6z"
						/>
					<path fill="#76C26C" stroke="#1CE200" stroke-miterlimit="10" d="M454.6,485.6c-0.1,0.1-0.4,0.3-0.5,0.3
						c-0.5,0.3-1.1,0.5-1.6,0.5c-0.5,0-1.2,0-1.7-0.3c-0.1-0.1-0.4-0.3-0.5-0.4c0,0-0.1-0.3-0.3-0.4c0.3,0,0.5-0.1,0.8-0.3
						c0.5-0.1,0.9-0.1,1.5-0.1C452.9,485.1,454.3,485,454.6,485.6z"/>
					<path fill="#76C26C" stroke="#1CE200" stroke-miterlimit="10" d="M450,485.5c-0.1,0.1-0.3,0.1-0.4,0.1c0.1-0.1,0.3-0.3,0.4-0.4
						C449.9,485.4,450,485.4,450,485.5z"/>
					<path fill="#76C26C" stroke="#1CE200" stroke-miterlimit="10" d="M444,456.5c0,0.1,0,0.3,0,0.4v-0.1c0-0.9-1.9,0.8-1.9,1.5v0.1
						c-0.4-1.1-2.4-0.9-3.2-0.8c-0.5,0-3.4,0.1-3.6,0.8c-0.3,0.5,0.8,1.2,1.2,1.5c0.7,0.3,1.5,0.4,2.3,0.3c0.8-0.1,3.2-0.8,3.4-1.7
						l0,0c0.1,0.5,1.6-0.7,1.9-1.3c-0.1,2.1-3,3.8-4.6,4.6c-1.7,0.8-5.8,1.2-6-1.5c-0.3-2.5,3-3.9,4.8-4.4
						C439.6,455.3,443.5,454.5,444,456.5z"/>
					<path fill="#76C26C" stroke="#1CE200" stroke-miterlimit="10" d="M442.1,458.1c0-0.7,1.9-2.4,1.9-1.5c0,0.1,0,0.1,0,0.1l0,0
						C443.7,457.6,442.3,458.7,442.1,458.1C442.1,458.3,442.1,458.3,442.1,458.1L442.1,458.1z"/>
					<path fill="#76C26C" stroke="#1CE200" stroke-miterlimit="10" d="M442.1,458.3c-0.3,0.9-2.7,1.6-3.4,1.7
						c-0.8,0.1-1.6,0-2.3-0.3c-0.4-0.1-1.5-0.8-1.2-1.5c0.3-0.5,3.1-0.8,3.6-0.8C439.7,457.3,441.7,457.2,442.1,458.3z"/>
					<path fill="#76C26C" stroke="#1CE200" stroke-miterlimit="10" d="M428.8,478.8c-0.1,1.2,2.3,1.5,3,1.3c0.7,0,1.2-0.3,1.9-0.7
						c0.3-0.1,0.7-0.3,0.8-0.5l0,0l0,0l0,0c0.1,0.5,1.7-0.7,1.9-1.5c-0.1,1.9-2.5,3.6-4.2,4.3c-1.5,0.7-5,1.1-5.2-1.3
						c-0.3-2.3,2.5-3.6,4.3-4c1.2-0.3,4.6-0.9,5.1,0.8c0,0,0,0.1,0,0.3c0,0,0,0,0-0.1c0-0.9-1.9,0.8-1.9,1.5v0.1l0,0
						c-0.3-0.9-2-0.7-2.8-0.7c-0.5,0-1.1,0.1-1.7,0.3C429.6,478.7,428.8,479.1,428.8,478.8z"/>
					<path fill="#76C26C" stroke="#1CE200" stroke-miterlimit="10" d="M434.5,478.8c0-0.7,1.9-2.4,1.9-1.5c0,0,0,0,0,0.1l0,0
						c-0.1,0.8-1.7,2-1.9,1.5l0,0l0,0C434.5,478.9,434.5,478.9,434.5,478.8C434.5,478.9,434.5,478.9,434.5,478.8
						C434.5,478.9,434.5,478.9,434.5,478.8z"/>
					<path fill="#76C26C" stroke="#1CE200" stroke-miterlimit="10" d="M434.5,478.9L434.5,478.9L434.5,478.9L434.5,478.9
						L434.5,478.9z"/>
					<path fill="#76C26C" stroke="#1CE200" stroke-miterlimit="10" d="M434.5,478.9c-0.3,0.3-0.5,0.4-0.8,0.5
						c-0.5,0.3-1.2,0.5-1.9,0.7s-3.2-0.1-3-1.3c0,0.3,0.8-0.1,1.2-0.3c0.5-0.1,1.1-0.3,1.7-0.3C432.5,478.3,434.2,478.1,434.5,478.9
						z"/>
					<path fill="#76C26C" stroke="#1CE200" stroke-miterlimit="10" d="M412.5,494.1c-0.1,0.1-0.3,0.3-0.4,0.4c0.1,0,0.3-0.1,0.4-0.1
						l0,0c0.1,0.1,0.3,0.4,0.3,0.4c0.1,0.1,0.4,0.3,0.5,0.4c0.5,0.3,1.2,0.3,1.7,0.3c0.5,0,1.1-0.3,1.6-0.5c0.1-0.1,0.4-0.1,0.5-0.3
						c0,0,0,0,0,0.1c0.1,0.5,1.7-0.7,1.9-1.5c-0.1,1.7-2.4,3.4-3.9,4c-1.3,0.7-4.3,0.9-4.6-1.2c-0.3-2,2.4-3.5,4-3.8
						c1.1-0.3,4-0.8,4.4,0.8v0.1c0-0.9-1.9,0.8-1.9,1.5c0,0,0,0,0,0.1l0,0c-0.3-0.7-1.7-0.5-2.4-0.5c-0.5,0-0.9,0.1-1.5,0.3
						c-0.3,0-0.5,0.1-0.7,0.3C412.6,494.2,412.5,494.1,412.5,494.1z"/>
					<path fill="#76C26C" stroke="#1CE200" stroke-miterlimit="10" d="M419.2,493L419.2,493L419.2,493c-0.1,0.9-1.7,2.1-1.9,1.6
						c0,0,0,0,0-0.1l0,0c0,0.1,0,0,0.1-0.1l-0.1,0.1c0,0,0,0,0-0.1C417.3,493.7,419.2,492.1,419.2,493z"/>
					<path fill="#76C26C" stroke="#1CE200" stroke-miterlimit="10" d="M417.3,494.5l0.1-0.1C417.3,494.5,417.3,494.6,417.3,494.5z"
						/>
					<path fill="#76C26C" stroke="#1CE200" stroke-miterlimit="10" d="M417.2,494.5c-0.1,0.1-0.4,0.3-0.5,0.3
						c-0.5,0.3-1.1,0.5-1.6,0.5c-0.5,0-1.2,0-1.7-0.3c-0.1-0.1-0.4-0.1-0.5-0.4c0,0-0.1-0.3-0.3-0.4c0.3-0.1,0.5-0.1,0.7-0.3
						c0.5-0.1,0.9-0.1,1.5-0.3C415.4,494,416.9,493.8,417.2,494.5z"/>
					<path fill="#76C26C" stroke="#1CE200" stroke-miterlimit="10" d="M412.6,494.4L412.6,494.4c-0.1,0-0.3,0.1-0.5,0.1
						c0.1-0.1,0.3-0.3,0.4-0.4C412.5,494.1,412.6,494.2,412.6,494.4z"/>
					<path fill="#76C26C" stroke="#1CE200" stroke-miterlimit="10" d="M401.9,442.8c0,0.1,0,0.3,0,0.4v-0.1c0-0.9-1.9,0.8-1.9,1.5
						v0.1c-0.4-1.2-2.7-1.1-3.8-0.9c-0.8,0-4,0.3-4.3,1.2c-0.3,0.7,0.9,1.5,1.3,1.6c0.8,0.4,1.7,0.4,2.7,0.3c0.9-0.1,3.9-0.9,4-2.1
						l0,0c0.1,0.5,1.6-0.7,1.9-1.5c-0.1,2.3-3.2,4.2-5.1,5c-2,0.8-6.4,1.5-6.8-1.6c-0.3-2.7,3.2-4.3,5.2-4.7
						C396.8,441.5,401.2,440.7,401.9,442.8z"/>
					<path fill="#76C26C" stroke="#1CE200" stroke-miterlimit="10" d="M399.9,444.4c0-0.7,1.9-2.4,1.9-1.5v0.1
						c-0.3,0.8-1.7,2-1.9,1.5C399.9,444.7,399.9,444.6,399.9,444.4C399.9,444.6,399.9,444.6,399.9,444.4z"/>
					<path fill="#76C26C" stroke="#1CE200" stroke-miterlimit="10" d="M401.2,464.7c0,0.1,0,0.1,0,0.3v-0.1c0-0.9-1.9,0.8-1.9,1.5
						v0.1c-0.4-1.1-2.4-0.9-3.2-0.8c-0.5,0-3.4,0.3-3.6,0.8c-0.3,0.5,0.8,1.2,1.2,1.5c0.7,0.3,1.5,0.4,2.3,0.3s3.1-0.8,3.4-1.7l0,0
						c0.1,0.5,1.7-0.7,1.9-1.5c-0.1,2.1-3,3.9-4.6,4.7c-1.7,0.8-5.8,1.3-6-1.5c-0.3-2.4,3-3.9,4.8-4.4
						C396.8,463.5,400.7,462.8,401.2,464.7z"/>
					<path fill="#76C26C" stroke="#1CE200" stroke-miterlimit="10" d="M399.3,466.3c0-0.7,1.9-2.4,1.9-1.5v0.1
						c-0.1,0.8-1.7,2-1.9,1.5l0,0C399.3,466.4,399.3,466.4,399.3,466.3z"/>
					<path fill="#76C26C" stroke="#1CE200" stroke-miterlimit="10" d="M391.9,486.8c-0.1,1.2,2.3,1.5,3,1.3s1.2-0.3,1.9-0.7
						c0.3-0.1,0.7-0.3,0.8-0.5l0,0l0,0c0.1,0.5,1.7-0.7,1.9-1.5c-0.1,1.9-2.7,3.5-4.2,4.2c-1.5,0.7-5,1.1-5.2-1.2
						c-0.3-2.3,2.5-3.6,4.3-4c1.2-0.3,4.6-0.9,5.1,0.8c0,0.1,0,0.1,0,0.3c0,0,0,0,0-0.1c0-0.9-1.9,0.8-1.9,1.5v0.1l0,0
						c-0.3-0.9-2-0.7-2.8-0.7c-0.5,0-1.2,0.1-1.7,0.3C392.7,486.7,391.9,487.1,391.9,486.8z"/>
					<path fill="#76C26C" stroke="#1CE200" stroke-miterlimit="10" d="M397.6,487L397.6,487L397.6,487c0-0.8,1.9-2.5,1.9-1.6
						c0,0,0,0,0,0.1l0,0C399.2,486.4,397.7,487.6,397.6,487C397.6,487.1,397.6,487.1,397.6,487C397.6,487.1,397.6,487.1,397.6,487
						C397.6,487.1,397.6,487,397.6,487z"/>
					<path fill="#76C26C" stroke="#1CE200" stroke-miterlimit="10" d="M399.9,444.6c-0.3,1.2-3.1,2-4,2.1c-0.8,0.1-1.9,0-2.7-0.3
						c-0.5-0.3-1.6-0.9-1.3-1.6c0.4-0.9,3.5-1.1,4.3-1.2C397.2,443.6,399.5,443.4,399.9,444.6z"/>
					<path fill="#76C26C" stroke="#1CE200" stroke-miterlimit="10" d="M399.3,466.4c-0.3,0.9-2.5,1.6-3.4,1.7s-1.6,0-2.3-0.3
						c-0.4-0.1-1.5-0.9-1.2-1.5c0.3-0.5,3.1-0.8,3.6-0.8C396.9,465.6,398.9,465.5,399.3,466.4z"/>
					<path fill="#76C26C" stroke="#1CE200" stroke-miterlimit="10" d="M397.6,487C397.6,487,397.6,487.1,397.6,487L397.6,487
						L397.6,487z"/>
					<path fill="#76C26C" stroke="#1CE200" stroke-miterlimit="10" d="M397.6,487.1c-0.3,0.3-0.5,0.4-0.8,0.5
						c-0.5,0.3-1.2,0.5-1.9,0.7c-0.7,0.1-3.2-0.1-3-1.3c0,0.3,0.8-0.1,1.2-0.3c0.5-0.1,1.1-0.1,1.7-0.3
						C395.4,486.3,397.2,486.2,397.6,487.1z"/>
					<path fill="#76C26C" stroke="#1CE200" stroke-miterlimit="10" d="M375.4,502.1c-0.1,0.1-0.3,0.3-0.4,0.4c0.1,0,0.3-0.1,0.4-0.1
						c0.1,0.1,0.3,0.4,0.3,0.4c0.1,0.1,0.4,0.3,0.5,0.4c0.5,0.3,1.2,0.3,1.7,0.3c0.5-0.1,1.1-0.3,1.6-0.5c0.1-0.1,0.4-0.1,0.5-0.3
						c0,0,0,0,0,0.1c0.1,0.5,1.7-0.7,1.9-1.5c-0.1,1.7-2.4,3.4-3.9,4c-1.3,0.7-4.3,0.9-4.6-1.2c-0.3-2,2.4-3.5,4-3.8
						c1.1-0.3,4-0.8,4.4,0.8c0,0.1,0,0.1,0,0.3c0,0,0,0,0-0.1c0-0.9-1.9,0.8-1.9,1.5c0,0,0,0,0,0.1l0,0c-0.3-0.7-1.7-0.5-2.4-0.5
						c-0.5,0-0.9,0.1-1.5,0.3c-0.3,0-0.5,0.1-0.7,0.3C375.4,502.3,375.4,502.1,375.4,502.1z"/>
					<path fill="#76C26C" stroke="#1CE200" stroke-miterlimit="10" d="M380.1,502.4c0-0.7,1.9-2.4,1.9-1.5c0,0,0,0,0,0.1l0,0
						c-0.1,0.8-1.7,2-1.9,1.5C380.1,502.7,380,502.5,380.1,502.4C380,502.5,380.1,502.5,380.1,502.4c0,0.3,0,0.1,0.1,0
						C380.1,502.4,380.1,502.5,380.1,502.4C380.1,502.5,380.1,502.5,380.1,502.4z"/>
					<path fill="#76C26C" stroke="#1CE200" stroke-miterlimit="10" d="M380.1,502.5l0.1-0.1C380.1,502.5,380.1,502.7,380.1,502.5z"
						/>
					<path fill="#76C26C" stroke="#1CE200" stroke-miterlimit="10" d="M380,502.5c-0.1,0.1-0.4,0.3-0.5,0.3
						c-0.5,0.3-1.1,0.5-1.6,0.5c-0.5,0.1-1.2,0-1.7-0.3c-0.1-0.1-0.4-0.1-0.5-0.4c0,0-0.1-0.3-0.3-0.4c0.3,0,0.5-0.1,0.7-0.3
						c0.5-0.1,0.9-0.1,1.5-0.3C378.3,502,379.7,501.9,380,502.5z"/>
					<path fill="#76C26C" stroke="#1CE200" stroke-miterlimit="10" d="M375.4,502.4c-0.1,0.1-0.3,0.1-0.4,0.1
						c0.1-0.1,0.3-0.3,0.4-0.4C375.4,502.1,375.4,502.3,375.4,502.4z"/>
					<path fill="#76C26C" stroke="#1CE200" stroke-miterlimit="10" d="M369,431.6c0,0.1,0,0.1,0,0.3v-0.1c0-0.9-1.9,0.7-1.9,1.5v0.1
						c-0.9-2.4-9.7-0.9-11.1,0.1c-3.1,2,3,3,4.2,3c1.3-0.1,6.6-1.2,7-3.1l0,0c0.1,0.5,1.6-0.7,1.9-1.5c-0.5,5.1-15.2,10.1-16,4
						c-0.4-3.5,4.8-4.8,7.1-5.4C362,430.2,368.1,428.9,369,431.6z"/>
					<path fill="#76C26C" stroke="#1CE200" stroke-miterlimit="10" d="M367.1,433.2c0-0.7,1.9-2.4,1.9-1.5v0.1
						c-0.3,0.8-1.7,2-1.9,1.5C367.1,433.3,367,433.3,367.1,433.2C367,433.3,367.1,433.2,367.1,433.2z"/>
					<path fill="#76C26C" stroke="#1CE200" stroke-miterlimit="10" d="M368.1,472.3c0,0.1,0,0.3,0,0.4v-0.1c0-0.9-1.9,0.8-1.9,1.5
						v0.1c-0.4-1.1-2.4-0.8-3.2-0.8c-0.5,0-3.4,0.1-3.6,0.8c-0.3,0.5,0.8,1.3,1.2,1.5c0.7,0.3,1.5,0.4,2.3,0.3
						c0.8-0.1,3.2-0.8,3.4-1.7l0,0c0.1,0.5,1.6-0.7,1.9-1.3c-0.1,2.1-3,3.8-4.6,4.6c-1.7,0.8-5.8,1.2-6-1.5c-0.3-2.5,3-3.9,4.8-4.4
						C363.6,471.1,367.5,470.3,368.1,472.3z"/>
					<path fill="#76C26C" stroke="#1CE200" stroke-miterlimit="10" d="M366.2,474c0-0.7,1.9-2.4,1.9-1.5v0.1l0,0
						C367.8,473.4,366.3,474.5,366.2,474C366.2,474.1,366.2,474.1,366.2,474C366.2,474.1,366.2,474,366.2,474z"/>
					<path fill="#76C26C" stroke="#1CE200" stroke-miterlimit="10" d="M366.2,474.1c-0.3,0.9-2.7,1.6-3.4,1.7
						c-0.8,0.1-1.6,0-2.3-0.3c-0.4-0.1-1.5-0.9-1.2-1.5c0.3-0.5,3.1-0.8,3.6-0.8C363.8,473.3,365.8,473,366.2,474.1z"/>
					<path fill="#76C26C" stroke="#1CE200" stroke-miterlimit="10" d="M367,433.3c-0.4,1.7-5.6,3-7,3.1c-1.2,0.1-7.2-0.8-4.2-3
						C357.5,432.5,366.2,430.9,367,433.3z"/>
					<path fill="#76C26C" stroke="#1CE200" stroke-miterlimit="10" d="M363.6,452.4v0.1c0-0.9-1.9,0.8-1.9,1.5v0.1
						c-0.4-1.2-2.7-1.1-3.8-0.9c-0.8,0-4,0.3-4.3,1.2c-0.3,0.7,0.9,1.5,1.3,1.6c0.8,0.4,1.7,0.4,2.7,0.3c0.9-0.1,3.9-0.9,4-2.1l0,0
						c0.1,0.5,1.7-0.7,1.9-1.5c-0.1,2.4-3.2,4.3-5.1,5.1c-2,0.8-6.4,1.5-6.8-1.6c-0.3-2.7,3.2-4.3,5.2-4.7
						C358.7,451,363.1,450.1,363.6,452.4z"/>
					<path fill="#76C26C" stroke="#1CE200" stroke-miterlimit="10" d="M363.6,452.5C363.6,452.5,363.6,452.6,363.6,452.5
						C363.6,452.6,363.6,452.6,363.6,452.5c-0.1,0.8-1.7,2.1-1.9,1.6l0,0V454C361.8,453.3,363.8,451.6,363.6,452.5z"/>
					<path fill="#76C26C" stroke="#1CE200" stroke-miterlimit="10" d="M363.4,356.3c0.5,21.1,0.1,42.1,0.1,63.2c0,0-0.1,0-0.1-0.1
						c-0.1,0-0.3,0-0.4,0.1c-0.4,0.1-0.9,0.1-1.3,0.3c0-20.5,0.4-41.1-0.1-61.7c-0.5-22.1-1.5-44.1-1.5-66.2c0.1,0,0.3,0,0.4,0
						c0.1,0,0.3-0.1,0.4-0.1c0.4,0,0.8,0.1,1.2,0.3C362,313.3,362.8,334.8,363.4,356.3z"/>
					<path fill="#76C26C" stroke="#1CE200" stroke-miterlimit="10" d="M363.5,419.5C363.5,419.5,363.5,419.6,363.5,419.5
						c0,0.3-0.1,0.5-0.3,0.8c0.3-0.4,0.3-0.9-0.1-0.8H363c0.1-0.1,0.3-0.1,0.4-0.1C363.4,419.5,363.4,419.5,363.5,419.5z"/>
					<path fill="#76C26C" stroke="#1CE200" stroke-miterlimit="10" d="M363.1,419.5c0.4-0.1,0.4,0.3,0.1,0.8l0,0
						c-0.4,0.5-1.3,1.2-1.5,1.1c-0.3-0.4,0.7-1.6,1.2-1.9H363.1z"/>
					<path fill="#76C26C" stroke="#1CE200" stroke-miterlimit="10" d="M361.6,419.8c0.4-0.1,0.9-0.1,1.3-0.3
						c-0.7,0.3-1.5,1.5-1.2,1.9c0,0,0,0,0-0.1C361.6,420.8,361.6,420.3,361.6,419.8z"/>
					<path fill="#76C26C" stroke="#1CE200" stroke-miterlimit="10" d="M362.8,268.5c0.1,0.3,0.1,0.7,0,0.9l0,0l0,0l0,0
						c0-0.1,0-0.4,0-0.5l0,0c0-0.1,0-0.3,0-0.1C362.8,268.7,362.8,268.7,362.8,268.5L362.8,268.5z"/>
					<path fill="#76C26C" stroke="#1CE200" stroke-miterlimit="10" d="M362.8,269.6L362.8,269.6c0,0.1,0,0.3,0,0.3
						c0,0.3-0.4,0.9-0.9,1.3c-0.1,0-0.3-0.1-0.4-0.1l0.1-0.1c0.3-0.3,0.8-0.7,0.9-1.2c0,0,0,0,0.1-0.1
						C362.8,269.6,362.8,269.6,362.8,269.6L362.8,269.6z"/>
					<path fill="#76C26C" stroke="#1CE200" stroke-miterlimit="10" d="M362.8,265.3c0,0.1,0,0.3,0,0.3s-0.1,0-0.1-0.1
						c0.1-0.3,0-0.4-0.1-0.4C362.7,265,362.8,265,362.8,265.3z"/>
					<path fill="#76C26C" stroke="#1CE200" stroke-miterlimit="10" d="M362.8,268.8C362.8,268.7,362.8,268.8,362.8,268.8
						C362.8,268.9,362.8,268.8,362.8,268.8L362.8,268.8L362.8,268.8z"/>
					<path fill="#76C26C" stroke="#1CE200" stroke-miterlimit="10" d="M362.8,265.6c0,0.8,0,1.6,0,2.3c-0.4-0.3-0.9-0.5-1.3-0.8
						c0.4-0.3,1.1-1.1,1.2-1.6C362.7,265.6,362.8,265.6,362.8,265.6z"/>
					<path fill="#76C26C" stroke="#1CE200" stroke-miterlimit="10" d="M362.8,269.7L362.8,269.7v-0.1l0,0
						C362.8,269.6,362.8,269.6,362.8,269.7z"/>
					<path fill="#76C26C" stroke="#1CE200" stroke-miterlimit="10" d="M362.8,268.8L362.8,268.8L362.8,268.8v0.1
						c-0.1,0-0.1,0.1-0.3,0.1l0,0c0,0,0,0-0.1,0c-0.4,0.1-0.7,0.1-1.1,0.3c0.4-0.5,1.2-1.3,1.5-0.9
						C362.8,268.7,362.8,268.7,362.8,268.8z"/>
					<path fill="#76C26C" stroke="#1CE200" stroke-miterlimit="10" d="M362.8,267.9c0,0.1,0,0.4,0,0.7c-0.3-0.5-1.1,0.3-1.5,0.9
						c-0.1,0-0.3,0-0.4,0.1c0-0.7,0-1.5,0-2.3c0.1,0,0.3-0.1,0.4-0.1c0,0,0.1,0,0.1-0.1l0,0C361.9,267.3,362.4,267.6,362.8,267.9z"
						/>
					<path fill="#76C26C" stroke="#1CE200" stroke-miterlimit="10" d="M362.8,268.9c0,0.1,0,0.4,0,0.5
						C362.8,269.3,362.8,269.1,362.8,268.9z"/>
					<path fill="#76C26C" stroke="#1CE200" stroke-miterlimit="10" d="M362.8,268.9L362.8,268.9c0,0.1,0,0.4,0,0.5l0,0l0,0
						c0,0,0,0-0.1,0c0-0.3,0-0.4-0.1-0.4C362.6,269.1,362.7,269.1,362.8,268.9C362.8,268.9,362.8,268.8,362.8,268.9
						C362.8,268.8,362.8,268.9,362.8,268.9z"/>
					<path fill="#76C26C" stroke="#1CE200" stroke-miterlimit="10" d="M362.8,269.5L362.8,269.5L362.8,269.5L362.8,269.5
						L362.8,269.5z"/>
					<path fill="#76C26C" stroke="#1CE200" stroke-miterlimit="10" d="M362.8,269.5L362.8,269.5c0,0.1,0,0.1,0,0.3
						c-0.1,0.1-0.1,0.1-0.3,0.3C362.6,269.9,362.7,269.6,362.8,269.5C362.7,269.5,362.7,269.5,362.8,269.5z"/>
					<path fill="#76C26C" stroke="#1CE200" stroke-miterlimit="10" d="M362.4,270c0.1,0,0.1-0.1,0.3-0.3c-0.1,0.4-0.7,0.9-0.9,1.2
						c0,0-0.1,0-0.1,0.1C361.9,270.8,362.2,270.4,362.4,270z"/>
					<path fill="#76C26C" stroke="#1CE200" stroke-miterlimit="10" d="M362.6,265.2c0.3,0,0.3,0.1,0.1,0.4l-0.1-0.1
						c-0.5-0.3-1.7,1.3-1.3,1.5c0.1,0,0.1,0.1,0.3,0.1l-0.1,0.1c-0.1,0-0.3,0-0.4,0.1c0-0.1,0-0.1,0-0.3c0-0.5,0.4-1.1,0.8-1.5
						C361.8,265.6,362.2,265.3,362.6,265.2L362.6,265.2z"/>
					<path fill="#76C26C" stroke="#1CE200" stroke-miterlimit="10" d="M362.6,269.2c0.1,0,0.3,0.1,0.1,0.4c-0.1,0-0.1,0-0.3-0.1
						c-0.1,0-0.1,0-0.3,0C362.3,269.3,362.4,269.3,362.6,269.2L362.6,269.2z"/>
					<path fill="#76C26C" stroke="#1CE200" stroke-miterlimit="10" d="M362.6,265.4c0,0,0.1,0,0.1,0.1c-0.1,0.5-0.8,1.3-1.2,1.6l0,0
						c-0.1,0-0.1-0.1-0.3-0.1C360.8,266.6,362,265.2,362.6,265.4z"/>
					<path fill="#76C26C" stroke="#1CE200" stroke-miterlimit="10" d="M362.4,269.5c0.1,0,0.1,0,0.3,0.1c0,0.1-0.1,0.4-0.3,0.5
						c-0.4,0.3-0.8,0.7-1.2,0.9l0,0c-0.4-0.1,0-0.8,0.5-1.2c0,0,0.1,0,0.1-0.1l0.1-0.1l0,0C362.2,269.5,362.3,269.3,362.4,269.5z"/>
					<path fill="#76C26C" stroke="#1CE200" stroke-miterlimit="10" d="M362.6,269.2c-0.1,0.1-0.3,0.3-0.4,0.3l0,0c0,0-0.1,0-0.1,0.1
						l-0.1,0.1c-0.3,0.3-0.5,0.4-0.8,0.7c0,0.1,0,0.4,0,0.5c0,0.3,0,0.1,0,0.3c0,0,0-0.1,0-0.3c0,0,0,0,0-0.1s0-0.1,0-0.3
						c0-0.1,0-0.1,0-0.3l0,0l0,0c0-0.1,0-0.3,0.1-0.4c0-0.1,0.1-0.3,0.4-0.5C361.8,269.3,362,269.2,362.6,269.2
						C362.4,269.2,362.4,269.2,362.6,269.2z"/>
					<path fill="#76C26C" stroke="#1CE200" stroke-miterlimit="10" d="M362.4,265.2L362.4,265.2c-0.3,0.1-0.7,0.4-0.7,0.4
						c-0.4,0.4-0.8,0.9-0.8,1.5c0,0.1,0,0.1,0,0.3c-15.2,4.4-30.6,7.6-45.9,11.3c-63.6,15.6-127.2,31.1-190.8,46.6
						c-40.3,9.8-80.4,20.9-121,29.3c0-0.5,0-1.1,0-1.6c0-0.1-0.1-0.1-0.1-0.1c15.6-3.2,30.9-7.4,46.2-11.1
						c63.6-15.4,127.2-30.9,190.9-46.4c28.3-6.8,56.6-13.8,84.9-20.7C337.5,271.3,350.2,268.7,362.4,265.2z"/>
					<path fill="#76C26C" stroke="#1CE200" stroke-miterlimit="10" d="M354.9,494.8c-0.1,1.2,2.3,1.5,3,1.3c0.7-0.1,1.2-0.3,1.9-0.7
						c0.3-0.1,0.7-0.3,0.8-0.5l0,0l0,0l0,0c0.1,0.5,1.7-0.7,1.9-1.5c-0.1,1.9-2.7,3.5-4.2,4.2s-5,1.1-5.2-1.2
						c-0.3-2.3,2.5-3.6,4.3-4c1.2-0.3,4.6-0.9,5.1,0.8c0,0.1,0,0.1,0,0.3c0,0,0,0,0-0.1c0-0.9-1.9,0.8-1.9,1.5v0.1l0,0
						c-0.3-0.9-2-0.7-2.8-0.7c-0.5,0-1.2,0.1-1.7,0.3C355.7,494.6,354.9,495,354.9,494.8z"/>
					<path fill="#76C26C" stroke="#1CE200" stroke-miterlimit="10" d="M360.5,494.8c0-0.7,1.9-2.4,1.9-1.5c0,0,0,0,0,0.1l0,0
						c-0.3,0.8-1.7,2-1.9,1.5l0,0l0,0C360.5,494.9,360.5,494.9,360.5,494.8c0,0.1,0,0.1,0,0.1S360.5,494.9,360.5,494.8z"/>
					<path fill="#76C26C" stroke="#1CE200" stroke-miterlimit="10" d="M361.3,270.9c0.4-0.3,0.8-0.7,1.2-0.9
						c-0.3,0.4-0.5,0.8-0.9,1.1l0,0C361.5,271.1,361.3,271.1,361.3,270.9L361.3,270.9z"/>
					<path fill="#76C26C" stroke="#1CE200" stroke-miterlimit="10" d="M362,269.5l-0.1,0.1C362,269.6,362,269.5,362,269.5z"/>
					<path fill="#76C26C" stroke="#1CE200" stroke-miterlimit="10" d="M363.2,420.3c-0.3,0.5-0.8,1.2-1.2,1.2h-0.1l0,0
						c-0.1,0-0.1,0-0.1-0.1C361.9,421.5,362.7,421,363.2,420.3z"/>
					<path fill="#76C26C" stroke="#1CE200" stroke-miterlimit="10" d="M361.9,290c0,0.7,0,1.2,0,1.9c-0.4-0.1-0.8-0.1-1.2-0.3
						C361.2,291.3,361.8,290.4,361.9,290L361.9,290z"/>
					<path fill="#76C26C" stroke="#1CE200" stroke-miterlimit="10" d="M361.6,271.1c0.1,0,0.3,0.1,0.4,0.1c-0.4,0.4-0.8,0.7-0.9,0.3
						v-0.1c0.1,0,0.3,0,0.4-0.1l0,0C361.3,271.2,361.5,271.2,361.6,271.1L361.6,271.1z"/>
					<path fill="#76C26C" stroke="#1CE200" stroke-miterlimit="10" d="M361.9,289.9v0.1c0,0,0,0-0.1,0
						C361.9,289.9,361.9,289.9,361.9,289.9L361.9,289.9z"/>
					<path fill="#76C26C" stroke="#1CE200" stroke-miterlimit="10" d="M361.8,289.9c0,0,0,0.1,0,0.3c-0.1,0-0.1,0-0.3,0h-0.1
						C361.6,289.9,361.8,289.9,361.8,289.9z"/>
					<path fill="#76C26C" stroke="#1CE200" stroke-miterlimit="10" d="M361.5,290c0.1,0,0.3,0,0.3,0c0,0.4-0.7,1.2-1.1,1.6
						c-0.1,0-0.3,0-0.3,0c-0.1,0-0.1-0.4,0.1-0.7l0.5-0.1c-0.1,0-0.3,0-0.4,0.1c0-0.1,0.1-0.3,0.1-0.3l0,0c0.3-0.1,0.4-0.4,0.5-0.5
						C361.5,290,361.5,290,361.5,290z"/>
					<path fill="#76C26C" stroke="#1CE200" stroke-miterlimit="10" d="M360.9,270.4c0.3-0.3,0.5-0.4,0.8-0.7
						c-0.4,0.4-0.8,1.2-0.5,1.2l0,0l0,0c-0.1,0.1-0.1,0.1-0.3,0.3c0,0,0,0-0.1-0.1c0,0,0,0,0-0.3
						C360.9,270.7,360.9,270.5,360.9,270.4z"/>
					<path fill="#76C26C" stroke="#1CE200" stroke-miterlimit="10" d="M361.6,421.5c0,0,0,0.1,0.1,0.1c-13.1,2.4-26,5.8-39,8.7
						c-48.7,11-97.3,22.3-146,33.4c-31.1,7.2-62.7,13.6-93.5,21.9c-1.1-0.3-2.3-0.5-3.4-0.8l0,0c13-3.6,26.3-6.3,39.4-9.4
						c48.7-11.4,97.4-22.7,146.1-33.8c32.1-7.4,64-15.7,96.3-21.7C361.6,420.3,361.6,420.8,361.6,421.5
						C361.6,421.4,361.6,421.5,361.6,421.5z"/>
					<path fill="#76C26C" stroke="#1CE200" stroke-miterlimit="10" d="M361.5,289.7c0.1,0,0.3,0,0.3,0.1c-0.1,0-0.3,0.1-0.4,0.1
						c-0.1,0-0.4,0.3-0.5,0.5l0,0c-0.1,0.1-0.3,0.3-0.3,0.4c-23.6,4.3-239.6,51.3-309,66.3c-1.2,0.3-2.3,0.5-3.4,0.7
						c-1.2,0.3-2.4,0.5-3.5,0.8l-3,0.7c-0.5,0.1-0.9,0.3-1.3,0.3l-2.5,0.5c-0.4,0.1-0.8,0.1-1.1,0.3l-2,0.4l-1.6,0.4H33
						c-0.1-0.3-0.3-0.5-0.4-0.8c15.7-3.2,31.3-6.7,47-10.1c55.7-12.1,111.4-24.2,167.1-36.2C284.7,305.8,323,296.6,361.5,289.7z"/>
					<path fill="#76C26C" stroke="#1CE200" stroke-miterlimit="10" d="M361.5,358c0.5,20.5,0.1,41.1,0.1,61.7
						c-32.3,6.2-64.3,14.5-96.3,21.7c-48.7,11.1-97.4,22.4-146.1,33.8c-13.1,3.1-26.4,5.9-39.4,9.4c-2.4-4.2-3.8-9.1-5.4-13.6
						c-3.6-9.4-7.1-18.9-10.6-28.3c-8.1-21.6-16-43.2-24.3-64.7c-0.8-2.1-1.6-4.3-2.4-6.4c-1.2-3.2-2.4-6.6-3.9-9.7
						c37.6-7.9,75.1-16.2,112.7-24.4c55.7-12.1,111.4-24.2,167.1-36c15.6-3.4,31.1-7,46.8-9.8C360,314,360.9,336,361.5,358z"/>
					<path fill="#76C26C" stroke="#1CE200" stroke-miterlimit="10" d="M361.6,271.1c-0.1,0.1-0.1,0.1-0.3,0.1s-0.1,0-0.3,0
						c0.1-0.1,0.1-0.1,0.3-0.3C361.3,271.1,361.5,271.1,361.6,271.1z"/>
					<path fill="#76C26C" stroke="#1CE200" stroke-miterlimit="10" d="M360.9,269.6c0.1,0,0.3-0.1,0.4-0.1c-0.1,0.3-0.3,0.4-0.4,0.5
						c0,0.1-0.1,0.3-0.1,0.4C360.9,270,360.9,269.7,360.9,269.6z"/>
					<path fill="#76C26C" stroke="#1CE200" stroke-miterlimit="10" d="M361.3,271.2L361.3,271.2c-0.1,0-0.3,0.1-0.4,0.1
						c0-0.1,0-0.3,0-0.4c0,0.1,0,0.1,0,0.3c0,0,0,0,0,0.1c0,0,0.1,0,0.1-0.1C361.1,271.2,361.2,271.2,361.3,271.2z"/>
					<path fill="#76C26C" stroke="#1CE200" stroke-miterlimit="10" d="M361.1,271.2C360.9,271.2,360.9,271.2,361.1,271.2
						C360.9,271.2,360.9,271.2,361.1,271.2C360.9,271.2,360.9,271.2,361.1,271.2z"/>
					<path fill="#76C26C" stroke="#1CE200" stroke-miterlimit="10" d="M360.9,290.8l-0.5,0.1l0,0
						C360.7,290.8,360.8,290.8,360.9,290.8z"/>
					<path fill="#76C26C" stroke="#1CE200" stroke-miterlimit="10" d="M360.9,267.3c0,0.7,0,1.5,0,2.3
						c-40.3,9.9-80.4,19.7-120.6,29.7c-62.8,15.3-125.6,30.7-188.4,46c-10.5,2.5-20.9,5.1-31.5,7.6c-5.6,1.3-11.4,3.1-17.2,3.5
						c0-0.7,0-1.2,0-1.9c40.5-8.5,80.8-19.6,121-29.4c63.6-15.4,127.2-31,190.8-46.6C330.4,274.8,345.8,271.6,360.9,267.3z"/>
					<path fill="#76C26C" stroke="#1CE200" stroke-miterlimit="10" d="M360.9,270.3L360.9,270.3L360.9,270.3c0,0.3,0,0.4,0,0.5
						c0,0,0,0,0,0.1s0,0.3,0,0.4c-15.3,3.8-30.7,7.5-46,11.3c-63.6,15.6-127.2,31.1-190.8,46.7c-27.8,6.7-55.4,13.6-83.2,20.3
						c-11.1,2.7-22.9,7-34.6,8.3c-0.9-0.4-2-0.8-3-1.2c0-0.1,0-0.4,0-0.5c5.8-0.4,11.5-2,17.2-3.5c10.5-2.5,20.9-5.1,31.5-7.6
						c62.8-15.3,125.6-30.7,188.4-46c40.1-9.7,80.2-19.5,120.5-29.4C360.9,269.7,360.9,270,360.9,270.3z"/>
					<path fill="#76C26C" stroke="#1CE200" stroke-miterlimit="10" d="M360.9,270.4c0,0.1,0,0.1,0,0.3s0,0.1,0,0.3
						C360.9,270.7,360.9,270.5,360.9,270.4z"/>
					<path fill="#76C26C" stroke="#1CE200" stroke-miterlimit="10" d="M361.3,290c-0.1,0.1-0.4,0.3-0.5,0.5
						C360.9,290.3,361.2,290,361.3,290z"/>
					<path fill="#76C26C" stroke="#1CE200" stroke-miterlimit="10" d="M360.4,291.6c0.1,0,0.3,0,0.3,0c-0.1,0.1-0.3,0.1-0.4,0.1
						c-0.1,0-0.3,0-0.4,0v-0.1c0-0.3,0.1-0.5,0.4-0.8h0.1C360.3,291.2,360.1,291.6,360.4,291.6z"/>
					<path fill="#76C26C" stroke="#1CE200" stroke-miterlimit="10" d="M360.5,494.9L360.5,494.9L360.5,494.9L360.5,494.9
						L360.5,494.9z"/>
					<path fill="#76C26C" stroke="#1CE200" stroke-miterlimit="10" d="M360.7,290.5c-0.1,0.1-0.1,0.1-0.1,0.3h-0.1
						C360.5,290.8,360.5,290.7,360.7,290.5z"/>
					<path fill="#76C26C" stroke="#1CE200" stroke-miterlimit="10" d="M360.5,290.8L360.5,290.8L360.5,290.8
						C360.4,290.9,360.4,290.9,360.5,290.8C360.4,290.8,360.4,290.8,360.5,290.8z"/>
					<path fill="#76C26C" stroke="#1CE200" stroke-miterlimit="10" d="M361.8,454.1c-0.3,1.2-3.1,2-4,2.1c-0.8,0.1-1.9,0-2.7-0.3
						c-0.4-0.3-1.6-0.9-1.3-1.6c0.4-0.9,3.5-1.1,4.3-1.2C359.1,453,361.3,452.9,361.8,454.1z"/>
					<path fill="#76C26C" stroke="#1CE200" stroke-miterlimit="10" d="M360.4,290.9L360.4,290.9L51.5,357.2
						C120.9,342.2,336.9,295.2,360.4,290.9z"/>
					<path fill="#76C26C" stroke="#1CE200" stroke-miterlimit="10" d="M51.5,357.2l308.9-66.3c-0.3,0.3-0.4,0.5-0.4,0.8
						c0,0.1,0,0.1,0,0.1c-15.7,2.8-31.3,6.4-46.8,9.8c-55.7,11.8-111.4,24-167.1,36c-37.6,8.2-75.1,16.5-112.7,24.4
						c-0.1-0.3-0.3-0.5-0.4-0.8h0.1c0.5-0.1,1.1-0.3,1.6-0.4c0.7-0.1,1.3-0.3,2-0.4c0.4-0.1,0.7-0.1,1.1-0.3
						c0.8-0.1,1.6-0.4,2.5-0.5c0.4-0.1,0.9-0.1,1.3-0.3c0.9-0.3,1.9-0.4,3-0.7c1.1-0.3,2.3-0.5,3.5-0.8L51.5,357.2z"/>
					<path fill="#76C26C" stroke="#1CE200" stroke-miterlimit="10" d="M360.5,494.9c-0.3,0.3-0.5,0.4-0.8,0.5
						c-0.5,0.3-1.2,0.5-1.9,0.7c-0.8,0.1-3.2-0.1-3-1.3c0,0.3,0.8-0.1,1.2-0.3c0.5-0.1,1.1-0.1,1.7-0.3
						C358.5,494.2,360.3,494.1,360.5,494.9z"/>
					<path fill="#76C26C" stroke="#1CE200" stroke-miterlimit="10" d="M345.8,509.7C345.8,509.7,345.8,509.8,345.8,509.7
						c0.1,0.5,1.6-0.5,1.9-1.3c-0.1,1.7-2.4,3.2-3.9,3.9c-1.3,0.5-4.3,0.9-4.6-1.2c-0.3-2,2.4-3.5,4-3.8c1.1-0.3,4-0.8,4.4,0.7
						c0,0.1,0,0.3,0,0.4v-0.1C347.7,507.2,345.8,509,345.8,509.7L345.8,509.7L345.8,509.7z M341.1,509.2c-0.1,0.1-0.3,0.3-0.4,0.4
						c0.1-0.1,0.3-0.1,0.4-0.1c0.1,0.1,0.3,0.4,0.3,0.4c0.1,0.1,0.4,0.3,0.5,0.4c0.5,0.3,1.2,0.3,1.7,0.3s1.1-0.3,1.6-0.5
						c0.1-0.1,0.4-0.1,0.5-0.3c-0.3-0.7-1.7-0.7-2.4-0.5c-0.5,0-0.9,0.1-1.5,0.3c-0.3,0.1-0.5,0.1-0.8,0.3
						C341.1,509.4,341.1,509.4,341.1,509.2z"/>
					<path fill="#76C26C" stroke="#1CE200" stroke-miterlimit="10" d="M345.8,509.7c0-0.7,1.9-2.4,1.9-1.5v0.1
						c-0.3,0.8-1.7,2-1.9,1.5V509.7L345.8,509.7c0,0.3,0,0,0.1-0.1C345.9,509.5,345.9,509.7,345.8,509.7L345.8,509.7z"/>
					<path fill="#76C26C" stroke="#1CE200" stroke-miterlimit="10" d="M345.8,509.7l0.1-0.1C345.8,509.7,345.8,509.9,345.8,509.7z"
						/>
					<path fill="#76C26C" stroke="#1CE200" stroke-miterlimit="10" d="M345.8,509.7c-0.1,0.1-0.4,0.3-0.5,0.3
						c-0.5,0.3-1.1,0.5-1.6,0.5c-0.5,0-1.2,0-1.7-0.3c-0.1-0.1-0.4-0.1-0.5-0.4c0,0-0.1-0.3-0.3-0.4c0.3,0,0.5-0.1,0.8-0.3
						c0.5-0.1,0.9-0.1,1.5-0.3C344,509.1,345.5,509,345.8,509.7z"/>
					<path fill="#76C26C" stroke="#1CE200" stroke-miterlimit="10" d="M341.2,509.5c-0.1,0-0.3,0.1-0.4,0.1c0.1-0.1,0.3-0.3,0.4-0.4
						C341.1,509.4,341.1,509.4,341.2,509.5z"/>
					<path fill="#76C26C" stroke="#1CE200" stroke-miterlimit="10" d="M331.2,459.6c0,0.1,0,0.1,0,0.3c0,0,0,0,0-0.1
						c0-0.9-1.9,0.8-1.9,1.5v0.1c-0.4-1.2-2.7-1.1-3.8-0.9c-0.8,0-4,0.3-4.3,1.2c-0.3,0.7,0.9,1.5,1.3,1.6c0.8,0.4,1.7,0.4,2.7,0.3
						c0.9-0.1,3.9-0.9,4-2.1l0,0c0.1,0.5,1.7-0.7,1.9-1.5c-0.1,2.4-3.2,4.3-5.1,5.1c-2,0.8-6.4,1.5-6.8-1.6
						c-0.3-2.7,3.2-4.3,5.2-4.7C326.2,458.3,330.6,457.3,331.2,459.6z"/>
					<path fill="#76C26C" stroke="#1CE200" stroke-miterlimit="10" d="M329.3,461.2c0-0.7,1.9-2.4,1.9-1.5c0,0,0,0,0,0.1l0,0
						c-0.3,0.8-1.7,2-1.9,1.5l0,0V461.2z"/>
					<path fill="#76C26C" stroke="#1CE200" stroke-miterlimit="10" d="M330.9,439.3c0,0.1,0,0.1,0,0.3v-0.1c0-0.9-1.9,0.8-1.9,1.5
						v0.1c-0.8-2.4-9.7-0.9-11.1,0.1c-3.1,2,3,3,4.2,2.8c1.3-0.1,6.6-1.2,7-3.1l0,0c0.1,0.5,1.7-0.7,1.9-1.5
						c-0.5,5.2-15.2,10.1-16,4c-0.4-3.5,4.8-4.8,7.1-5.4C323.9,438,330,436.7,330.9,439.3z"/>
					<path fill="#76C26C" stroke="#1CE200" stroke-miterlimit="10" d="M329,441c0-0.7,1.9-2.3,1.9-1.5v0.1c-0.1,0.8-1.7,2-1.9,1.5
						l0,0C328.9,441.1,329,441,329,441z"/>
					<path fill="#76C26C" stroke="#1CE200" stroke-miterlimit="10" d="M330.6,481.3c0,0.1,0,0.3,0,0.4v-0.1c0-0.9-1.9,0.8-1.9,1.5
						v0.1c-0.4-1.1-2.4-0.8-3.2-0.8c-0.5,0-3.4,0.1-3.6,0.8c-0.3,0.5,0.8,1.2,1.2,1.5c0.7,0.3,1.5,0.4,2.3,0.3s3.2-0.8,3.4-1.7l0,0
						c0.1,0.5,1.6-0.7,1.9-1.3c-0.3,2.1-3,3.8-4.6,4.6c-1.7,0.8-5.8,1.2-6-1.5c-0.3-2.5,3-3.9,4.8-4.4
						C326.2,480.1,330.1,479.3,330.6,481.3z"/>
					<path fill="#76C26C" stroke="#1CE200" stroke-miterlimit="10" d="M328.7,482.9c0-0.7,1.9-2.4,1.9-1.5c0,0.1,0,0.1,0,0.1l0,0
						C330.4,482.4,328.9,483.5,328.7,482.9C328.7,483.1,328.7,483.1,328.7,482.9C328.7,483.1,328.7,482.9,328.7,482.9z"/>
					<path fill="#76C26C" stroke="#1CE200" stroke-miterlimit="10" d="M329.3,461.3c-0.3,1.2-3.1,2-4,2.1c-0.9,0.1-1.9,0-2.7-0.3
						c-0.5-0.3-1.6-0.9-1.3-1.6c0.4-0.9,3.5-1.1,4.3-1.2C326.6,460.3,328.9,460.1,329.3,461.3z"/>
					<path fill="#76C26C" stroke="#1CE200" stroke-miterlimit="10" d="M320.3,502.3c-0.1,1.2,2.3,1.5,3,1.3s1.2-0.4,1.9-0.7
						c0.3-0.1,0.5-0.3,0.8-0.5l0,0l0,0c0.1,0.5,1.7-0.7,1.9-1.5c-0.1,1.9-2.7,3.5-4.2,4.2c-1.5,0.7-5,1.1-5.2-1.2
						c-0.3-2.3,2.5-3.6,4.3-4c1.2-0.3,4.6-0.9,5.1,0.8v0.1c0-0.9-1.9,0.8-1.9,1.5v0.1l0,0l0,0c-0.3-0.9-2-0.8-2.8-0.7
						c-0.5,0-1.2,0.1-1.7,0.3C321.1,502.1,320.3,502.5,320.3,502.3z"/>
					<path fill="#76C26C" stroke="#1CE200" stroke-miterlimit="10" d="M325.9,502.4C325.9,502.4,325.9,502.5,325.9,502.4
						L325.9,502.4c0-0.8,1.9-2.4,1.9-1.5c0,0,0,0,0,0.1l0,0C327.5,501.9,326.1,503.1,325.9,502.4L325.9,502.4
						C325.9,502.5,325.9,502.5,325.9,502.4C325.9,502.5,325.9,502.5,325.9,502.4C325.9,502.5,325.9,502.4,325.9,502.4z"/>
					<path fill="#76C26C" stroke="#1CE200" stroke-miterlimit="10" d="M328.7,483.1c-0.3,0.9-2.5,1.6-3.4,1.7
						c-0.8,0.1-1.6,0-2.3-0.3c-0.4-0.1-1.5-0.8-1.2-1.5c0.3-0.5,3.1-0.8,3.6-0.8C326.3,482.1,328.3,482,328.7,483.1z"/>
					<path fill="#76C26C" stroke="#1CE200" stroke-miterlimit="10" d="M328.9,441.1c-0.4,1.9-5.6,3-7,3.1c-1.2,0.1-7.2-0.8-4.2-2.8
						C319.4,440.3,328.1,438.7,328.9,441.1z"/>
					<path fill="#76C26C" stroke="#1CE200" stroke-miterlimit="10" d="M325.9,502.4C325.9,502.4,325.9,502.5,325.9,502.4
						L325.9,502.4C325.9,502.5,325.9,502.4,325.9,502.4z"/>
					<path fill="#76C26C" stroke="#1CE200" stroke-miterlimit="10" d="M325.9,502.5c-0.3,0.3-0.5,0.4-0.8,0.5
						c-0.5,0.3-1.2,0.5-1.9,0.7c-0.7,0.1-3.2-0.1-3-1.3c0,0.3,0.8-0.1,1.2-0.3c0.5-0.1,1.1-0.3,1.7-0.3
						C323.8,501.7,325.5,501.6,325.9,502.5z"/>
					<path fill="#76C26C" stroke="#1CE200" stroke-miterlimit="10" d="M316,514.1c-0.1,0.1-0.3,0.3-0.4,0.4c0.1,0,0.3-0.1,0.4-0.1
						l0,0c0.1,0.1,0.3,0.4,0.3,0.4c0.1,0.1,0.3,0.3,0.5,0.4c0.5,0.3,1.2,0.3,1.7,0.3s1.1-0.3,1.6-0.5c0.1-0.1,0.4-0.1,0.5-0.3
						c0,0,0,0,0,0.1c0.1,0.5,1.6-0.7,1.9-1.5c-0.1,1.7-2.4,3.4-3.9,3.9c-1.3,0.5-4.3,0.9-4.6-1.2c-0.3-2,2.4-3.5,4-3.8
						c1.1-0.3,4-0.8,4.4,0.8c0,0.1,0,0.1,0,0.3v-0.1c0-0.9-1.9,0.8-1.9,1.5v0.1l0,0c-0.3-0.7-1.7-0.7-2.4-0.5
						c-0.5,0-0.9,0.1-1.5,0.3c-0.3,0-0.5,0.1-0.7,0.3C316,514.2,316,514.2,316,514.1z"/>
					<path fill="#76C26C" stroke="#1CE200" stroke-miterlimit="10" d="M320.8,514.5C320.8,514.5,320.7,514.5,320.8,514.5
						C320.7,514.5,320.7,514.5,320.8,514.5c-0.1-0.7,1.7-2.4,1.7-1.5v0.1c-0.3,0.8-1.7,2-1.9,1.5c0,0,0,0,0-0.1
						C320.7,514.5,320.7,514.5,320.8,514.5C320.7,514.6,320.7,514.6,320.8,514.5z"/>
					<path fill="#76C26C" stroke="#1CE200" stroke-miterlimit="10" d="M320.7,514.5C320.7,514.5,320.8,514.5,320.7,514.5
						C320.7,514.6,320.7,514.6,320.7,514.5z"/>
					<path fill="#76C26C" stroke="#1CE200" stroke-miterlimit="10" d="M320.7,514.5c-0.1,0.1-0.4,0.3-0.5,0.3
						c-0.5,0.3-1.1,0.5-1.6,0.5s-1.2,0-1.7-0.3c-0.1-0.1-0.4-0.1-0.5-0.4c0,0-0.1-0.3-0.3-0.4c0.3,0,0.4-0.1,0.7-0.3
						c0.5-0.1,0.9-0.1,1.5-0.3C318.9,513.9,320.4,513.8,320.7,514.5z"/>
					<path fill="#76C26C" stroke="#1CE200" stroke-miterlimit="10" d="M316.1,514.3L316.1,514.3c-0.1,0-0.3,0.1-0.5,0.1
						c0.1-0.1,0.3-0.3,0.4-0.4C316,514.2,316,514.2,316.1,514.3z"/>
					<path fill="#76C26C" stroke="#1CE200" stroke-miterlimit="10" d="M298.3,518.5c-0.1,0.1-0.3,0.3-0.4,0.4c0.1,0,0.3-0.1,0.4-0.1
						l0,0c0.1,0.1,0.3,0.4,0.3,0.4c0.1,0.1,0.4,0.3,0.5,0.4c0.5,0.3,1.2,0.3,1.7,0.3s1.1-0.3,1.6-0.5c0.1-0.1,0.4-0.1,0.5-0.3l0,0
						c0.1,0.5,1.6-0.7,1.9-1.5c-0.1,1.7-2.4,3.2-3.9,3.9c-1.3,0.5-4.3,0.9-4.6-1.2c-0.3-2,2.4-3.5,4-3.8c1.1-0.3,4-0.8,4.4,0.8
						c0,0.1,0,0.3,0,0.3v-0.1c0-0.9-1.9,0.8-1.9,1.5v0.1l0,0c-0.3-0.7-1.7-0.7-2.4-0.5c-0.5,0-0.9,0.1-1.5,0.3
						c-0.3,0-0.5,0.1-0.7,0.3C298.3,518.6,298.3,518.5,298.3,518.5z"/>
					<path fill="#76C26C" stroke="#1CE200" stroke-miterlimit="10" d="M303.1,518.8C303.1,518.9,303,518.9,303.1,518.8
						C303,518.9,303,518.9,303.1,518.8c-0.1-0.7,1.7-2.4,1.7-1.5v0.1c-0.3,0.8-1.7,2-1.9,1.5l0,0C303,518.9,303,518.9,303.1,518.8
						C303,519,303,518.9,303.1,518.8z"/>
					<path fill="#76C26C" stroke="#1CE200" stroke-miterlimit="10" d="M303,518.9C303,518.9,303.1,518.9,303,518.9
						C303,518.9,303,519,303,518.9z"/>
					<path fill="#76C26C" stroke="#1CE200" stroke-miterlimit="10" d="M303,518.9c-0.1,0.1-0.4,0.3-0.5,0.3
						c-0.5,0.3-1.1,0.5-1.6,0.5c-0.5,0-1.2,0-1.7-0.3c-0.1-0.1-0.4-0.1-0.5-0.4c0,0-0.1-0.3-0.3-0.4c0.3,0,0.5-0.1,0.7-0.3
						c0.5-0.1,0.9-0.1,1.5-0.3C301.2,518.4,302.7,518.2,303,518.9z"/>
					<path fill="#76C26C" stroke="#1CE200" stroke-miterlimit="10" d="M299.1,446.6c0,0.1,0,0.1,0,0.3v-0.1c0-0.9-1.9,0.8-1.9,1.5
						v0.1c-0.9-2.4-9.7-0.9-11.1,0.1c-3.1,2,3,3,4.2,2.8c1.3-0.1,6.6-1.2,7-3.1l0,0c0.1,0.5,1.6-0.7,1.9-1.5
						c-0.5,5.2-15.2,10.1-16,4c-0.4-3.5,4.8-4.8,7.1-5.4C292.1,445.2,298.2,444,299.1,446.6z"/>
					<path fill="#76C26C" stroke="#1CE200" stroke-miterlimit="10" d="M297.1,448.2c0-0.7,1.9-2.4,1.9-1.5v0.1
						c-0.3,0.8-1.7,2-1.9,1.5l0,0V448.2z"/>
					<path fill="#76C26C" stroke="#1CE200" stroke-miterlimit="10" d="M298.4,518.8L298.4,518.8c-0.1,0-0.3,0.1-0.4,0.1
						c0.1-0.1,0.3-0.3,0.4-0.4C298.3,518.5,298.3,518.6,298.4,518.8z"/>
					<path fill="#76C26C" stroke="#1CE200" stroke-miterlimit="10" d="M290.6,508.3c-0.1,1.2,2.3,1.5,3,1.3c0.7-0.1,1.2-0.3,1.9-0.7
						c0.3-0.1,0.5-0.3,0.8-0.5l0,0l0,0c0.1,0.5,1.6-0.7,1.9-1.5c-0.1,1.9-2.7,3.5-4.2,4.2c-1.5,0.7-5,1.1-5.2-1.2
						c-0.3-2.3,2.5-3.6,4.3-4c1.2-0.3,4.6-0.9,5.1,0.8c0,0.1,0,0.1,0,0.3v-0.1c0-0.9-1.9,0.8-1.9,1.5c0,0.1,0,0.1,0,0.1l0,0
						c-0.3-0.9-2-0.7-2.8-0.7c-0.5,0-1.2,0.1-1.7,0.3C291.4,508.2,290.6,508.6,290.6,508.3z"/>
					<path fill="#76C26C" stroke="#1CE200" stroke-miterlimit="10" d="M296.3,508.3c0-0.7,1.9-2.4,1.9-1.5v0.1
						c-0.3,0.8-1.7,2-1.9,1.5l0,0C296.3,508.4,296.3,508.4,296.3,508.3c0,0.1,0,0.1,0,0.1S296.3,508.4,296.3,508.3z"/>
					<path fill="#76C26C" stroke="#1CE200" stroke-miterlimit="10" d="M295.3,526.8c0.7-0.1,1.6-1.6,1.5-2c0.3,0.4-0.7,1.7-1.3,2
						C295.3,526.8,295.3,526.8,295.3,526.8z"/>
					<path fill="#76C26C" stroke="#1CE200" stroke-miterlimit="10" d="M296.8,524.8c0.1,0.4-0.8,1.9-1.5,2h-0.1l0,0l0,0l0,0
						C294.8,526.6,296,524.8,296.8,524.8C296.7,524.8,296.8,524.8,296.8,524.8z"/>
					<path fill="#76C26C" stroke="#1CE200" stroke-miterlimit="10" d="M296.8,524.8C296.8,524.8,296.7,524.8,296.8,524.8
						C296.7,524.8,296.8,524.8,296.8,524.8z"/>
					<path fill="#76C26C" stroke="#1CE200" stroke-miterlimit="10" d="M296.4,490.6c0,0,0,0.1,0,0.3c0,0,0,0,0-0.1
						c0-0.9-1.9,0.8-1.9,1.5v0.1c-0.4-1.1-2.4-0.8-3.2-0.8c-0.5,0-3.4,0.3-3.6,0.8c-0.3,0.5,0.8,1.2,1.2,1.5
						c0.7,0.3,1.6,0.4,2.3,0.3c0.8-0.1,3.1-0.8,3.4-1.7l0,0c0.1,0.5,1.7-0.7,1.9-1.5c-0.1,2.1-3,3.9-4.6,4.7c-1.7,0.8-5.6,1.2-6-1.5
						c-0.3-2.5,3-3.9,4.8-4.4C292,489.4,295.9,488.7,296.4,490.6z"/>
					<path fill="#76C26C" stroke="#1CE200" stroke-miterlimit="10" d="M294.5,492.2c0-0.7,1.9-2.4,1.9-1.5c0,0,0,0,0,0.1l0,0
						c-0.1,0.8-1.7,2-1.9,1.5C294.5,492.5,294.5,492.5,294.5,492.2C294.5,492.3,294.5,492.3,294.5,492.2z"/>
					<path fill="#76C26C" stroke="#1CE200" stroke-miterlimit="10" d="M296.3,508.4L296.3,508.4L296.3,508.4L296.3,508.4z"/>
					<path fill="#76C26C" stroke="#1CE200" stroke-miterlimit="10" d="M296.3,508.4L296.3,508.4
						C296.3,508.6,296.3,508.6,296.3,508.4L296.3,508.4z"/>
					<path fill="#76C26C" stroke="#1CE200" stroke-miterlimit="10" d="M296.3,508.4c-0.3,0.3-0.5,0.4-0.8,0.5
						c-0.5,0.3-1.2,0.5-1.9,0.7c-0.7,0.1-3.2-0.1-3-1.3c0,0.3,0.8-0.1,1.2-0.3c0.5-0.1,1.1-0.3,1.7-0.3
						C294.1,507.8,295.9,507.6,296.3,508.4z"/>
					<path fill="#76C26C" stroke="#1CE200" stroke-miterlimit="10" d="M295.6,467.3c0,0.1,0,0.3,0,0.4v-0.1c0-0.9-1.9,0.8-1.9,1.5
						v0.1c-0.4-1.2-2.7-1.1-3.8-0.9c-0.8,0-4,0.3-4.3,1.2c-0.3,0.7,0.9,1.5,1.3,1.6c0.8,0.4,1.7,0.4,2.7,0.3s3.9-0.9,4-2.1l0,0
						c0.1,0.5,1.6-0.7,1.9-1.5c-0.1,2.3-3.2,4.2-5.1,5c-2,0.8-6.4,1.5-6.8-1.6c-0.3-2.7,3.2-4.3,5.2-4.7
						C290.6,465.9,294.9,465.1,295.6,467.3z"/>
					<path fill="#76C26C" stroke="#1CE200" stroke-miterlimit="10" d="M293.7,468.9c0-0.7,1.9-2.4,1.9-1.5v0.1
						c-0.3,0.8-1.7,2-1.9,1.5C293.7,469,293.7,469,293.7,468.9C293.7,469,293.7,468.9,293.7,468.9z"/>
					<path fill="#76C26C" stroke="#1CE200" stroke-miterlimit="10" d="M295.3,526.8h0.1C295.3,526.8,295.2,526.8,295.3,526.8
						C295.2,526.8,295.2,526.8,295.3,526.8z"/>
					<path fill="#76C26C" stroke="#1CE200" stroke-miterlimit="10" d="M295.1,526.8C295.1,526.8,295.2,526.8,295.1,526.8
						C295.2,526.8,295.1,526.8,295.1,526.8z"/>
					<path fill="#76C26C" stroke="#1CE200" stroke-miterlimit="10" d="M295.1,526.8L295.1,526.8c-11.7-2.8-23.5-4.8-35.3-7.1
						c-35-6.6-70.2-12.6-105.2-18.8c-19.2-3.4-38.5-6.4-57.6-10.1v-0.3c0.7,0,1.9-1.7,1.6-2c5,0.9,9.8,1.7,14.8,2.7
						c34.8,6.3,69.6,12.3,104.5,18.7c26.3,4.7,52.9,8.6,78.9,14.9C296,524.8,294.8,526.6,295.1,526.8z"/>
					<path fill="#76C26C" stroke="#1CE200" stroke-miterlimit="10" d="M296.7,524.8c-0.7,0-1.9,1.7-1.6,2.1
						C294.8,526.6,296,524.8,296.7,524.8z"/>
					<path fill="#76C26C" stroke="#1CE200" stroke-miterlimit="10" d="M297.1,448.3c-0.4,1.7-5.6,3-7,3.1c-1.2,0.1-7.2-0.8-4.2-2.8
						C287.4,447.5,296.3,445.9,297.1,448.3z"/>
					<path fill="#76C26C" stroke="#1CE200" stroke-miterlimit="10" d="M294.4,492.3c-0.3,0.9-2.5,1.6-3.4,1.7s-1.6,0-2.3-0.3
						c-0.4-0.1-1.5-0.9-1.2-1.5c0.3-0.5,3.1-0.8,3.6-0.8C292.1,491.5,294.1,491.4,294.4,492.3z"/>
					<path fill="#76C26C" stroke="#1CE200" stroke-miterlimit="10" d="M293.7,469c-0.3,1.2-3.1,2-4,2.1c-0.9,0.1-1.9,0-2.7-0.3
						c-0.5-0.3-1.6-0.9-1.3-1.6c0.4-0.9,3.5-1.1,4.3-1.2C290.9,467.9,293.3,467.8,293.7,469z"/>
					<path fill="#76C26C" stroke="#1CE200" stroke-miterlimit="10" d="M270.6,512.7c-0.1,1.2,2.3,1.5,3,1.3c0.7-0.1,1.2-0.4,1.9-0.7
						c0.3-0.1,0.5-0.3,0.8-0.5l0,0l0,0l0,0c0.1,0.5,1.7-0.7,1.9-1.5c-0.1,1.9-2.5,3.5-4.2,4.2c-1.5,0.7-5,1.1-5.2-1.2
						c-0.3-2.3,2.5-3.6,4.3-4c1.2-0.3,4.6-0.9,5.1,0.8v0.1c0-0.9-1.9,0.8-1.9,1.5v0.1l0,0c-0.3-0.8-2-0.7-2.8-0.7
						c-0.5,0-1.2,0.1-1.7,0.3C271.4,512.6,270.8,513,270.6,512.7z"/>
					<path fill="#76C26C" stroke="#1CE200" stroke-miterlimit="10" d="M278.2,511.4L278.2,511.4L278.2,511.4
						c-0.3,0.9-1.7,2.1-1.9,1.6l0,0l0,0c0,0,0,0,0.1-0.1c0,0,0,0-0.1,0v-0.1C276.3,512.1,278.2,510.5,278.2,511.4z"/>
					<path fill="#76C26C" stroke="#1CE200" stroke-miterlimit="10" d="M276.3,512.9C276.3,512.9,276.4,512.9,276.3,512.9
						L276.3,512.9L276.3,512.9L276.3,512.9z"/>
					<path fill="#76C26C" stroke="#1CE200" stroke-miterlimit="10" d="M276.3,512.9c-0.3,0.3-0.5,0.4-0.8,0.5
						c-0.5,0.3-1.2,0.5-1.9,0.7c-0.8,0.1-3.1-0.1-3-1.3c0,0.3,0.8-0.1,1.2-0.3c0.5-0.1,1.1-0.3,1.7-0.3S276,512.1,276.3,512.9z"/>
					<path fill="#76C26C" stroke="#1CE200" stroke-miterlimit="10" d="M265.9,454.6c0,0.1,0,0.1,0,0.3v-0.1c0-0.9-1.9,0.8-1.9,1.5
						v0.1c-0.8-2.4-9.7-0.9-11.1,0.1c-3.1,2,3,3,4.2,2.8c1.3-0.1,6.6-1.2,7-3.1l0,0c0.1,0.5,1.7-0.7,1.9-1.5
						c-0.5,5.2-15.2,10.1-16,4c-0.4-3.5,4.8-4.8,7.1-5.4C259.1,453.3,265.1,452,265.9,454.6z"/>
					<path fill="#76C26C" stroke="#1CE200" stroke-miterlimit="10" d="M264.1,456.2c0-0.7,1.9-2.3,1.9-1.5v0.1
						c-0.1,0.8-1.7,2-1.9,1.5l0,0V456.2z"/>
					<path fill="#76C26C" stroke="#1CE200" stroke-miterlimit="10" d="M263.3,496.5c0,0.1,0,0.1,0,0.3l0,0c0-0.9-1.9,0.8-1.9,1.5
						v0.1c-0.4-1.1-2.4-0.8-3.2-0.8c-0.5,0-3.4,0.3-3.6,0.8s0.8,1.3,1.2,1.5c0.7,0.3,1.6,0.4,2.3,0.3c0.8-0.1,3.1-0.8,3.4-1.7l0,0
						c0.1,0.5,1.7-0.7,1.9-1.5c-0.1,2.1-3,3.9-4.6,4.7c-1.7,0.8-5.6,1.2-6-1.5c-0.3-2.4,3-3.9,4.8-4.4
						C258.8,495.3,262.7,494.6,263.3,496.5z"/>
					<path fill="#76C26C" stroke="#1CE200" stroke-miterlimit="10" d="M261.4,498.1c0-0.7,1.9-2.4,1.9-1.5l0,0l0,0
						C263.1,497.4,261.5,498.6,261.4,498.1C261.4,498.2,261.4,498.2,261.4,498.1C261.4,498.2,261.4,498.1,261.4,498.1z"/>
					<path fill="#76C26C" stroke="#1CE200" stroke-miterlimit="10" d="M264.1,456.4c-0.4,1.7-5.6,3-7,3.1c-1.2,0.1-7.2-0.8-4.2-2.8
						C254.4,455.4,263.1,454,264.1,456.4z"/>
					<path fill="#76C26C" stroke="#1CE200" stroke-miterlimit="10" d="M261.4,498.2c-0.3,0.9-2.5,1.6-3.4,1.7
						c-0.8,0.1-1.6,0-2.3-0.3c-0.4-0.1-1.5-0.9-1.2-1.5c0.3-0.5,3.1-0.7,3.6-0.8C259,497.4,261,497.2,261.4,498.2z"/>
					<path fill="#76C26C" stroke="#1CE200" stroke-miterlimit="10" d="M259,477.2c0,0.1,0,0.1,0,0.3c0,0,0,0,0-0.1
						c0-0.9-1.9,0.8-1.9,1.5v0.1c-0.4-1.2-2.7-1.1-3.8-0.9c-0.8,0-4,0.3-4.3,1.2c-0.3,0.7,0.9,1.5,1.3,1.6c0.8,0.4,1.7,0.4,2.5,0.3
						c0.9-0.1,3.9-0.9,4-2.1l0,0c0.1,0.5,1.7-0.7,1.9-1.5c-0.1,2.4-3.2,4.3-5.1,5.1c-2,0.8-6.4,1.5-6.8-1.6
						c-0.3-2.7,3.2-4.3,5.2-4.7C253.9,475.8,258.3,474.9,259,477.2z"/>
					<path fill="#76C26C" stroke="#1CE200" stroke-miterlimit="10" d="M257.1,478.8c0-0.7,1.9-2.4,1.9-1.5c0,0,0,0,0,0.1l0,0
						c-0.1,0.8-1.7,2-1.9,1.5l0,0C257,478.9,257.1,478.8,257.1,478.8z"/>
					<path fill="#76C26C" stroke="#1CE200" stroke-miterlimit="10" d="M257,478.9c-0.3,1.2-3.1,2-4,2.1c-0.8,0.1-1.9,0-2.5-0.3
						c-0.5-0.3-1.6-0.9-1.3-1.6c0.4-0.9,3.5-1.1,4.3-1.2C254.3,477.9,256.6,477.7,257,478.9z"/>
					<path fill="#76C26C" stroke="#1CE200" stroke-miterlimit="10" d="M238.2,502.8c0,0.1,0,0.1,0,0.3c0,0,0,0,0-0.1
						c0-0.9-1.9,0.8-1.9,1.5v0.1c-0.4-1.1-2.4-0.9-3.2-0.8c-0.5,0-3.4,0.1-3.6,0.8c-0.3,0.5,0.8,1.3,1.2,1.5
						c0.7,0.3,1.5,0.4,2.3,0.3c0.8-0.1,3.1-0.8,3.4-1.7l0,0c0.1,0.5,1.7-0.7,1.9-1.5c-0.1,2.1-3,3.9-4.7,4.7c-1.7,0.8-5.6,1.2-6-1.5
						c-0.3-2.4,3-3.9,4.8-4.4C233.7,501.5,237.6,500.8,238.2,502.8z"/>
					<path fill="#76C26C" stroke="#1CE200" stroke-miterlimit="10" d="M236.3,504.4c0-0.7,1.9-2.4,1.9-1.5c0,0,0,0,0,0.1l0,0
						c-0.3,0.8-1.7,2-1.9,1.5l0,0C236.3,504.4,236.3,504.4,236.3,504.4z"/>
					<path fill="#76C26C" stroke="#1CE200" stroke-miterlimit="10" d="M236.3,504.6c-0.3,0.9-2.5,1.6-3.4,1.7s-1.6,0-2.3-0.3
						c-0.4-0.1-1.5-0.9-1.2-1.5c0.3-0.5,3.1-0.7,3.6-0.8C233.9,503.6,235.9,503.5,236.3,504.6z"/>
					<path fill="#76C26C" stroke="#1CE200" stroke-miterlimit="10" d="M226.2,463.4c0,0.1,0,0.1,0,0.3v-0.1c0-0.9-1.9,0.8-1.9,1.5
						v0.1c-0.8-2.4-9.7-0.9-11.1,0.1c-3.1,2,3,3,4.2,2.8c1.3-0.1,6.6-1.2,7-3.1l0,0c0.1,0.5,1.7-0.7,1.9-1.5
						c-0.5,5.2-15.2,10.1-16,4c-0.4-3.5,4.8-4.8,7.1-5.4C219.4,462,225.4,460.7,226.2,463.4z"/>
					<path fill="#76C26C" stroke="#1CE200" stroke-miterlimit="10" d="M224.4,465c0-0.7,1.9-2.3,1.9-1.5v0.1c-0.1,0.8-1.7,2-1.9,1.5
						l0,0V465z"/>
					<path fill="#76C26C" stroke="#1CE200" stroke-miterlimit="10" d="M224.4,465.1c-0.4,1.7-5.6,3-7,3.1c-1.2,0.1-7.2-0.8-4.2-2.8
						C214.7,464.2,223.4,462.7,224.4,465.1z"/>
					<path fill="#76C26C" stroke="#1CE200" stroke-miterlimit="10" d="M221.3,484.4c0,0,0,0.1,0,0.3c0,0,0,0,0-0.1
						c0-0.9-1.9,0.8-1.9,1.5v0.1c-0.4-1.2-2.7-1.1-3.8-0.9c-0.8,0-4,0.3-4.3,1.2c-0.3,0.7,0.9,1.5,1.3,1.6c0.8,0.4,1.7,0.4,2.7,0.3
						s3.9-0.9,4-2.1l0,0c0.1,0.5,1.7-0.7,1.9-1.5c-0.1,2.4-3.2,4.3-5.1,5.1c-2,0.8-6.4,1.5-6.8-1.6c-0.3-2.7,3.2-4.3,5.2-4.7
						C216.2,483.1,220.6,482.1,221.3,484.4z"/>
					<path fill="#76C26C" stroke="#1CE200" stroke-miterlimit="10" d="M219.4,486c0-0.7,1.9-2.4,1.9-1.5c0,0,0,0,0,0.1l0,0
						c-0.3,0.8-1.7,2-1.9,1.5l0,0C219.4,486,219.4,486,219.4,486z"/>
					<path fill="#76C26C" stroke="#1CE200" stroke-miterlimit="10" d="M219.4,486.2c-0.3,1.2-3.1,2-4,2.1c-0.8,0.1-1.9,0-2.7-0.3
						c-0.5-0.3-1.6-0.9-1.3-1.6c0.4-0.9,3.5-1.1,4.3-1.2C216.6,485.1,219,485,219.4,486.2z"/>
					<path fill="#76C26C" stroke="#1CE200" stroke-miterlimit="10" d="M193.4,491.1c0,0.1,0,0.1,0,0.3c0,0,0,0,0-0.1
						c0-0.9-1.9,0.8-1.9,1.5v0.1c-0.4-1.2-2.7-1.1-3.8-0.9c-0.8,0-4,0.3-4.3,1.2c-0.3,0.7,0.9,1.5,1.3,1.6c0.8,0.4,1.7,0.4,2.7,0.3
						c0.9-0.1,3.9-0.9,4-2.1l0,0c0.1,0.5,1.7-0.7,1.9-1.5c-0.1,2.4-3.2,4.2-5.1,5.1c-1.9,0.8-6.4,1.5-6.8-1.6
						c-0.3-2.7,3.2-4.3,5.2-4.7C188.4,489.8,192.7,489,193.4,491.1z"/>
					<path fill="#76C26C" stroke="#1CE200" stroke-miterlimit="10" d="M191.5,492.7c0-0.7,1.9-2.4,1.9-1.5c0,0,0,0,0,0.1l0,0
						c-0.3,0.8-1.7,2-1.9,1.5C191.5,492.9,191.5,492.9,191.5,492.7C191.5,492.9,191.5,492.7,191.5,492.7z"/>
					<path fill="#76C26C" stroke="#1CE200" stroke-miterlimit="10" d="M191.5,492.9c-0.3,1.2-3.1,2-4,2.1c-0.8,0.1-1.9,0-2.7-0.3
						c-0.5-0.3-1.6-0.9-1.3-1.6c0.4-0.9,3.5-1.1,4.3-1.2C188.7,491.8,191.1,491.7,191.5,492.9z"/>
					<path fill="#76C26C" stroke="#1CE200" stroke-miterlimit="10" d="M186.5,471.5c0,0.1,0,0.1,0,0.3v-0.1c0-0.9-1.9,0.8-1.9,1.5
						v0.1c-0.9-2.4-9.7-0.8-11.1,0.1c-3.1,2,3,3,4.2,2.8c1.3-0.1,6.6-1.2,7-3.1l0,0c0.1,0.5,1.6-0.7,1.9-1.5
						c-0.5,5.1-15.2,10.1-16,4c-0.4-3.5,4.8-4.8,7.1-5.4C179.5,470.1,185.6,468.9,186.5,471.5z"/>
					<path fill="#76C26C" stroke="#1CE200" stroke-miterlimit="10" d="M184.6,473.2c0-0.7,1.9-2.4,1.9-1.5v0.1
						c-0.3,0.8-1.7,2-1.9,1.5l0,0C184.5,473.2,184.6,473.2,184.6,473.2z"/>
					<path fill="#76C26C" stroke="#1CE200" stroke-miterlimit="10" d="M184.5,473.3c-0.4,1.9-5.6,3-7,3.1c-1.2,0.1-7.2-0.8-4.2-2.8
						C175,472.3,183.7,470.7,184.5,473.3z"/>
					<path fill="#76C26C" stroke="#1CE200" stroke-miterlimit="10" d="M151.5,480.8c0,0.1,0,0.1,0,0.3v-0.1c0-0.9-1.9,0.8-1.9,1.5
						v0.1c-0.9-2.4-9.7-0.9-11.1,0.1c-3.1,2,3,3,4.2,2.8c1.3-0.1,6.6-1.2,7-3.1l0,0c0.1,0.5,1.7-0.7,1.9-1.5
						c-0.5,5.2-15.2,10.1-16,4c-0.4-3.5,4.8-4.8,7.1-5.4C144.5,479.3,150.6,478.1,151.5,480.8z"/>
					<path fill="#76C26C" stroke="#1CE200" stroke-miterlimit="10" d="M149.6,482.4c0-0.7,1.9-2.3,1.9-1.5v0.1
						c-0.3,0.8-1.7,2-1.9,1.5l0,0C149.5,482.4,149.6,482.4,149.6,482.4z"/>
					<path fill="#76C26C" stroke="#1CE200" stroke-miterlimit="10" d="M149.5,482.5c-0.4,1.7-5.6,3-7,3.1c-1.2,0.1-7.2-0.8-4.2-2.8
						C140,481.6,148.7,480.1,149.5,482.5z"/>
					<path fill="#76C26C" stroke="#1CE200" stroke-miterlimit="10" d="M98.6,488.6c0.3,0.3-0.9,2-1.6,2c-0.5,0,0.7-1.9,1.3-2.1
						C98.5,488.6,98.5,488.6,98.6,488.6z"/>
					<path fill="#76C26C" stroke="#1CE200" stroke-miterlimit="10" d="M98.6,488.6c0,0-0.1,0-0.3,0
						C98.5,488.6,98.5,488.6,98.6,488.6C98.5,488.6,98.6,488.6,98.6,488.6z"/>
					<path fill="#76C26C" stroke="#1CE200" stroke-miterlimit="10" d="M97,490.6v0.3c-6.3-1.2-12.5-2.5-18.8-3.9c0,0,0,0,0.1,0l0,0
						c1.6-0.4,3.2-0.9,4.8-1.3c5,1.1,10.1,2,15.2,3C97.7,488.7,96.5,490.6,97,490.6z"/>
					<path fill="#76C26C" stroke="#1CE200" stroke-miterlimit="10" d="M79.8,484.8c1.1,0.3,2.3,0.5,3.4,0.8
						c-1.6,0.4-3.2,0.8-4.8,1.3c0.1,0,0.3-0.1,0.4-0.3C79.4,486.2,80.1,485.2,79.8,484.8L79.8,484.8z"/>
					<path fill="#76C26C" stroke="#1CE200" stroke-miterlimit="10" d="M79.8,484.8c0.3,0.5-0.4,1.3-1.1,1.7
						C79.4,486,80.1,484.8,79.8,484.8C79.7,484.8,79.8,484.8,79.8,484.8L79.8,484.8z"/>
					<path fill="#76C26C" stroke="#1CE200" stroke-miterlimit="10" d="M79.8,484.7C79.8,484.7,79.8,484.8,79.8,484.7
						C79.8,484.8,79.7,484.8,79.8,484.7C79.7,484.8,79.7,484.8,79.8,484.7C79.7,484.7,79.7,484.7,79.8,484.7z"/>
					<path fill="#76C26C" stroke="#1CE200" stroke-miterlimit="10" d="M79.7,484.8c0.4,0-0.3,1.2-0.9,1.9c-0.1,0.1-0.3,0.3-0.4,0.3
						l0,0c-0.5,0.1,0-1.1,0.7-1.7l0.1-0.1C79.3,485,79.4,484.8,79.7,484.8C79.6,484.8,79.7,484.8,79.7,484.8z"/>
					<path fill="#76C26C" stroke="#1CE200" stroke-miterlimit="10" d="M79.8,484.7C79.7,484.7,79.7,484.7,79.8,484.7
						c-0.8,0-2,1.7-1.7,2.1l0,0l0,0l0,0l0,0c-0.1,0-0.1,0-0.1-0.1c-2.7-4.7-4.3-10.6-6.2-15.7c-8.1-21.5-16-42.9-24-64.3
						c-4-10.9-7.6-22.4-12.1-33.3c0.7-0.4,1.5-1.6,1.3-1.9h0.1c0.8,2.1,1.6,4.3,2.4,6.4c8.2,21.5,16.2,43.1,24.3,64.7
						c3.5,9.4,7.1,18.9,10.6,28.3C76.1,475.6,77.4,480.7,79.8,484.7z"/>
					<path fill="#76C26C" stroke="#1CE200" stroke-miterlimit="10" d="M79.7,484.8C79.7,484.8,79.6,484.8,79.7,484.8
						C79.6,484.8,79.7,484.8,79.7,484.8L79.7,484.8z"/>
					<path fill="#76C26C" stroke="#1CE200" stroke-miterlimit="10" d="M79.7,484.7C79.7,484.8,79.6,484.8,79.7,484.7
						c-0.3,0.1-0.4,0.1-0.5,0.4l-0.1,0.1c-0.5,0.5-1.1,1.3-0.9,1.6C77.8,486.4,79,484.7,79.7,484.7z"/>
					<path fill="#76C26C" stroke="#1CE200" stroke-miterlimit="10" d="M79.2,485.1C79,485.1,79,485.2,79.2,485.1
						C79,485.1,79,485.1,79.2,485.1z"/>
					<path fill="#76C26C" stroke="#1CE200" stroke-miterlimit="10" d="M78.4,486.8C78.2,486.8,78.2,486.8,78.4,486.8
						c-0.1,0-0.1,0-0.1,0l0,0l0,0c-0.1-0.3,0.4-1.1,0.9-1.6C78.4,485.9,77.8,487,78.4,486.8z"/>
					<path fill="#76C26C" stroke="#1CE200" stroke-miterlimit="10" d="M78.2,486.8L78.2,486.8C78.2,486.8,78.2,487,78.2,486.8
						L78.2,486.8z"/>
					<path fill="#76C26C" stroke="#1CE200" stroke-miterlimit="10" d="M78.1,486.8L78.1,486.8L78.1,486.8z"/>
					<path fill="#76C26C" stroke="#1CE200" stroke-miterlimit="10" d="M51.5,357.2l-3.4,0.7C49.2,357.6,50.5,357.5,51.5,357.2z"/>
					<path fill="#76C26C" stroke="#1CE200" stroke-miterlimit="10" d="M41.7,359.4l3-0.7C43.6,359,42.7,359.1,41.7,359.4z"/>
					<path fill="#76C26C" stroke="#1CE200" stroke-miterlimit="10" d="M37.8,360.2l2.5-0.5C39.4,359.8,38.5,360,37.8,360.2z"/>
					<path fill="#76C26C" stroke="#1CE200" stroke-miterlimit="10" d="M37.2,371.7L37.2,371.7c-0.1,0-0.1,0-0.1,0
						c-0.8-0.4-1.7-0.9-2.7-1.3c-1.2-3-2.5-5.8-4-8.7c-0.3-0.5,1.5-2.4,1.9-1.7c0.1,0.1,0.1,0.3,0.3,0.5h-0.1c-0.7,0.1-2,2.3-1.2,2
						c0.7-0.1,1.5-0.3,2.1-0.4C34.8,365.1,36,368.4,37.2,371.7z"/>
					<path fill="#76C26C" stroke="#1CE200" stroke-miterlimit="10" d="M37.2,371.7c0.1,0.4-0.7,1.6-1.3,1.9
						c-0.4-1.1-0.9-2.3-1.3-3.4C35.3,370.8,36.2,371.2,37.2,371.7C37,371.7,37.2,371.7,37.2,371.7z"/>
					<path fill="#76C26C" stroke="#1CE200" stroke-miterlimit="10" d="M34.6,360.8l2-0.4C36,360.6,35.3,360.7,34.6,360.8z"/>
					<path fill="#76C26C" stroke="#1CE200" stroke-miterlimit="10" d="M35.8,373.6c-0.1,0.1-0.4,0.1-0.5,0
						c-10.9-5.6-22.4-10.1-33.8-14.8c0.3,0,0.8-0.4,0.8-0.5c1.3,0,2.5-0.1,3.8-0.4c9.5,3.9,19.1,7.6,28.2,12.2
						C34.9,371.4,35.4,372.5,35.8,373.6z"/>
					<path fill="#76C26C" stroke="#1CE200" stroke-miterlimit="10" d="M33,361.1l1.6-0.4C34.1,361,33.5,361.1,33,361.1z"/>
					<path fill="#76C26C" stroke="#1CE200" stroke-miterlimit="10" d="M32.9,361.2c0.1,0.3,0.3,0.5,0.4,0.8
						c-0.7,0.1-1.5,0.3-2.1,0.4c-0.9,0.1,0.5-1.9,1.2-2h0.1C32.6,360.6,32.7,361,32.9,361.2z"/>
					<path fill="#76C26C" stroke="#1CE200" stroke-miterlimit="10" d="M3.2,356.8c0.9,0.4,2,0.8,3,1.2c-1.2,0.1-2.5,0.3-3.8,0.4
						C2.8,358,3.2,357.5,3.2,356.8C3.2,357,3.2,356.8,3.2,356.8z"/>
					<path fill="#76C26C" stroke="#1CE200" stroke-miterlimit="10" d="M3.2,352.8c0,0.5,0,1.1,0,1.6c-0.5,0.1-0.9,0.3-1.5,0.4
						c-0.7,0.1,0-1.2,0.7-1.7l0,0c0.1-0.1,0.3-0.3,0.5-0.3h0.1C3.2,352.7,3.2,352.7,3.2,352.8z"/>
					<path fill="#76C26C" stroke="#1CE200" stroke-miterlimit="10" d="M1.7,354.8c0.5-0.1,0.9-0.3,1.5-0.4c0,0.7,0,1.2,0,1.9
						c-0.4,0-0.8,0-1.1,0H2l0,0c-0.1,0-0.4,0.1-0.7,0.4c0-0.7,0-1.3,0-2.1c0-0.5,0.4-1.1,0.8-1.5c0,0,0.1-0.1,0.3-0.1
						C1.7,353.6,0.9,354.9,1.7,354.8z"/>
					<path fill="#76C26C" stroke="#1CE200" stroke-miterlimit="10" d="M3.2,356.3c0,0.1,0,0.4,0,0.5c-0.4-0.1-0.7-0.3-1.1-0.4H2
						c0,0,0,0,0.1,0C2.4,356.3,2.8,356.3,3.2,356.3z"/>
					<path fill="#76C26C" stroke="#1CE200" stroke-miterlimit="10" d="M3.2,356.8C3.2,356.8,3.2,357,3.2,356.8
						c0,0.7-0.4,1.2-0.8,1.6c-0.4,0-0.7,0-1.1,0c0-0.5,0-1.1,0-1.6c0.3-0.3,0.4-0.4,0.7-0.5l0,0h0.1C2.5,356.6,2.8,356.7,3.2,356.8z
						"/>
					<path fill="#76C26C" stroke="#1CE200" stroke-miterlimit="10" d="M2.8,352.7C3,352.7,3,352.7,2.8,352.7s-0.3,0.1-0.4,0.3
						C2.5,352.8,2.7,352.7,2.8,352.7z"/>
					<path fill="#76C26C" stroke="#1CE200" stroke-miterlimit="10" d="M1.3,358.4c0.4,0,0.7,0,1.1,0c0,0.1-0.5,0.4-0.8,0.5
						c0,0-0.1,0-0.1-0.1c0,0,0,0,0-0.1C1.3,358.6,1.3,358.6,1.3,358.4z"/>
					<path fill="#76C26C" stroke="#1CE200" stroke-miterlimit="10" d="M1.5,358.8c-0.1,0-0.1,0-0.1-0.1
						C1.3,358.8,1.5,358.8,1.5,358.8z"/>
					<path fill="#76C26C" stroke="#1CE200" stroke-miterlimit="10" d="M1.3,356.7c0.3-0.1,0.4-0.3,0.7-0.4c-0.3,0.1-0.4,0.3-0.7,0.5
						C1.3,356.8,1.3,356.8,1.3,356.7z"/>
					<path fill="#76C26C" stroke="#1CE200" stroke-miterlimit="10" d="M1.3,358.7C1.3,358.7,1.3,358.8,1.3,358.7
						c-0.3,0-0.5-0.1-0.9-0.3c-0.3-0.1,0.3-1.2,0.9-1.7v0.1c-0.5,0.7-1.1,1.6-0.7,1.6c0.3,0,0.4,0,0.7,0
						C1.3,358.6,1.3,358.6,1.3,358.7z"/>
					<path fill="#76C26C" stroke="#1CE200" stroke-miterlimit="10" d="M1.3,356.8c0,0.5,0,1.1,0,1.6c-0.3,0-0.5,0-0.7,0
						C0.3,358.4,0.7,357.5,1.3,356.8z"/>
				</g>
			</g>
		</g>
	</g>
</g>
<g id="_x33_4">
	<g id="_x33_4back">
	</g>
	<g id="_x33_4front">
	</g>
	<g id="_x33_4back_copy">
	</g>
	<g id="_x33_4front_copy">
	</g>
</g>
<g id="_x33_4down">
	<g id="info">
	</g>
	<g id="_x33_4down_safecopy" display="none">
	</g>
</g>
<g id="concept_ref">
</g>
</svg>
