<?xml version="1.0" encoding="utf-8"?>
<!-- Generator: Adobe Illustrator 18.1.1, SVG Export Plug-In . SVG Version: 6.00 Build 0)  -->
<!DOCTYPE svg PUBLIC "-//W3C//DTD SVG 1.1//EN" "http://www.w3.org/Graphics/SVG/1.1/DTD/svg11.dtd">
<svg version="1.1" xmlns="http://www.w3.org/2000/svg" xmlns:xlink="http://www.w3.org/1999/xlink" x="0px" y="0px"
	 viewBox="0 0 476.3 103.2" enable-background="new 0 0 476.3 103.2" xml:space="preserve">
<g id="_x33_4up">
	<g id="Layer_12" display="none">
	</g>
	<g id="_x33_4up_1_">
	</g>
	<g id="_x33_4up_copy">
	</g>
	<g id="_x33_4up_copy_2">
	</g>
</g>
<g id="_x33_4">
	<g id="_x33_4back">
	</g>
	<g id="_x33_4front">
	</g>
	<g id="_x33_4back_copy">
	</g>
	<g id="_x33_4front_copy">
	</g>
</g>
<g id="_x33_4down">
	<g id="info">
	</g>
	<g id="_x33_4down_safecopy" display="none">
	</g>
</g>
<g id="_x33_4down_highlight">
</g>
<g id="concept_ref">
</g>
<g id="ch02A-09-2">
	<g id="_x33_4back_copy_2">
	</g>
	<g id="_x33_4front_copy_2">
	</g>
	<g>
		<g>
			<g id="XMLID_15_">
				<g>
					<path fill="#19C839" d="M476.1,36.8L252,102.9c0,0-226.8-47.4-251.8-54l43.7,2.3c0,0,104.8,25.6,207.1,40.5
						c0,0,121.2-32.9,186-51.6L476.1,36.8z"/>
				</g>
			</g>
		</g>
		<path opacity="0.51" fill="#19C839" d="M249.1,0.3L0.3,48.9c25,6.6,251.8,54,251.8,54l224.1-66.1L249.1,0.3z"/>
		<g>
			<g id="XMLID_12_">
				<g>
					<path fill="#19C839" d="M476.1,36.8L252,102.9c0,0-226.8-47.4-251.8-54l43.7,2.3c0,0,104.8,25.6,207.1,40.5
						c0,0,121.2-32.9,186-51.6L476.1,36.8z"/>
					<path fill="#19C839" d="M476.1,36.8L437,40c0,0-117.2-19.6-186.8-29.7c0,0-191.7,38.9-206.2,40.9L0.3,48.9L249.1,0.3
						L476.1,36.8z"/>
				</g>
			</g>
		</g>
	</g>
</g>
<g id="ch02A-13-1_x5F_diffuser_plate">
</g>
</svg>
