<?xml version="1.0" encoding="utf-8"?>
<!-- Generator: Adobe Illustrator 18.1.1, SVG Export Plug-In . SVG Version: 6.00 Build 0)  -->
<svg version="1.1" xmlns="http://www.w3.org/2000/svg" xmlns:xlink="http://www.w3.org/1999/xlink" x="0px" y="0px"
	 viewBox="1260.6 2376.7 108.3 92.2" enable-background="new 1260.6 2376.7 108.3 92.2" xml:space="preserve">
<g id="additional_reference">
</g>
<g id="ch07-09-1">
</g>
<g id="ch04-05-1">
</g>
<g id="ch04-11-2">
</g>
<g id="ch04-06-1">
	<g id="older_version">
		<g id="head_3_" display="none">
			<g id="hair_3_">
			</g>
		</g>
		<g id="hands" display="none">
		</g>
		<g id="head_4_" display="none">
		</g>
		<g id="new_path" display="none">
		</g>
		<g id="handback" display="none">
		</g>
		<g id="handFront">
		</g>
		<g id="Layer_21" display="none">
		</g>
	</g>
	<g id="path_copy-with_stroke">
		<g id="handBack_copy">
		</g>
		<g id="head_copy">
		</g>
		<g id="neck_copy">
		</g>
		<g id="sleeve_copy">
		</g>
		<g id="handFront_copy">
		</g>
		<g id="skirt_copy">
		</g>
		<g id="torso_copy">
		</g>
	</g>
	<g id="comp_layer">
		<g id="skirt_copy_3">
			<g id="skirt_copy_3_2_">
			</g>
			<g id="skirt_copy_3_1_">
			</g>
		</g>
		<g id="torso_copy_2">
		</g>
		<g id="sleeve_copy_2">
		</g>
		<g id="neck_5_">
		</g>
		<g id="head_copy_2">
			<g id="head-silo_copy">
			</g>
		</g>
		<g id="head_copy_3">
			<g id="head-silo_copy_2">
			</g>
		</g>
		<g id="handFront_copy_2">
		</g>
		<g id="handBack_copy_2">
		</g>
	</g>
	<g id="skirt_5_">
		<g id="skirt_4_">
		</g>
		<g id="skirt_copy_2">
		</g>
	</g>
	<g id="torso_copy_3">
	</g>
	<g id="sleeve">
	</g>
	<g id="neck_6_">
	</g>
	<g id="handBack">
	</g>
	<g id="handFront_1_">
	</g>
</g>
<g id="ch04-03-2">
	<g>
	</g>
	<g id="assets_2_">
		<g id="torso_x5F_34down_2_">
			<g id="XMLID_19_">
				<g>
				</g>
			</g>
		</g>
	</g>
	<path fill="#49301C" d="M1368.9,2431C1368.9,2430.9,1368.9,2430.9,1368.9,2431c-8.3-4.3-17.5-0.8-26.3-1.2
		c-11.1-0.5-20.4-9-28.2-16.3c-0.1-0.1-0.4-0.1-0.7,0.1c-0.3-1.6-2.1-10.6-1.9-14.4c0.2-4.2,0.3-19.7,0.3-19.7l-0.4,0
		c0.4-0.5,0.8-1.2,0.5-1.1c-11.2,2-20.5,3.9-30.6,9.2c-0.4,0.2-3.5,3.8-3.5,3.9l-17.5,17.2c-0.4,0.3,3.2,5.1,3.3,5.2
		c3.7,3.1,5.1,5.9,7.5,10.1c1.9,3.3,4.6,6.1,7.5,8.6c3.2,2.7,6.6,5.2,10,7.5c2.7,1.9,6.9,5.9,10.1,6.3c4.2,4.2,8.4,8.4,12.7,12.6
		c3.9,3.8,7.5,5,12.7,6.4c3.2,0.9,6.3,1.8,9.5,2.6c1.3,0.3,2.8,1,4.2,0.7c1.3-0.4,2.1-1.3,2.1-2.6c0-0.1-0.1-0.1-0.3-0.1
		c-1.9-2.2-4.1-4.5-6.6-5.9c-3-1.6-6.4-1.1-9.6-2.1c-5.6-1.8-7.9-7.4-11.6-11.6c1.6,0.6,3.2,1.3,5.1,2.1c3.5,1.5,6.9,3.7,10.5,4.9
		c3.4,1.1,7,0.9,10.5,1c4.2,0.1,8.5,0.3,12.7,0.4c1.5,0.1,4,0.7,5.4-0.3c2.9-2-0.2-4.4-2.5-5.7c0,0,0,0,0,0c0,0,0,0,0,0
		c1.5,0,3.5,0.1,5-0.4c1.5-0.5,2.4-1.7,1.5-4.3c-1.2-3.2-6.1-2.8-8.8-3.2c-3.2-0.5-6.4-0.9-9.6-1.4c0.3,0,0.5-0.1,0.8-0.1
		c3-0.5,6-1.1,9-1.8c4.2-0.9,8.6-0.9,12.7-1.7C1367.3,2435.6,1368,2433.9,1368.9,2431C1368.9,2431,1368.9,2431,1368.9,2431z"/>
	<g>
		<g id="XMLID_24_">
			<g>
				<path fill="#734E27" d="M1342.4,2447.8c-3.4,0-7.2,0.4-10.4-0.6c-3.1-0.9-6-2.6-8.9-4c-6.4-3.1-10.2-5.1-16.7-7.9
					c-0.5-0.2-3.3-1.9-3.7-1.6c-0.3,0.3-0.1,0.8,0,0.9l1.8,0.9c8.4,4.2,14.7,8.1,23.4,11.7c6.7,2.9,15.1,2,22.6,1.8
					c0.5,0.3,1.1,0.6,1.4,0.7c0,0,0,0.1,0,0.1c1.1,0.5,2.5,1.1,3.2,2.1c1.1,1.5,0.9,1.5-0.2,2c-1.8,0.9-6.8-0.2-8.8-0.3
					c-6.1-0.2-13.1,0.6-18.7-1.9c-5.7-2.5-12.1-4.6-17.9-7.6c-3.3-1.6-6.3-3.5-9-5.9c-0.2-0.2-1.9-1.3-2.3-1
					c-0.3,0.3,1.4,1.5,1.5,1.6l1.1,1.3c2.8,2.5,5.5,4,8.3,5.3c4.3,3.8,5.9,10.1,10.9,13c2.8,1.6,5.9,1.2,8.9,2c3.8,1,6.7,4,9.3,6.9
					c-1.2,0.6-9.9-2-10.7-2.2c-3.6-1-7.6-1.6-10.8-3.8c-6.1-4-11.2-10.6-16.4-15.7c0-0.1,0-0.1,0-0.2c0-0.1-0.1-0.1-0.2-0.1
					c0,0,0,0,0,0c-0.1-0.1-0.3-0.1-0.5,0c-1.6-0.5-3.4-2.1-4.6-2.9c-2.1-1.4-4.2-2.8-6.2-4.2c-3.3-2.3-6.7-4.8-9.7-7.5
					c-5.8-5.3-7.8-12.7-13.7-17.6c-0.2-0.2-4.5-4.5-4.9-4.2l17.5-17.2c0,0.1,1.6-1.1,2-1.4c9.7-5.2,20.2-8.4,31.1-10.3
					c0.1,0,0.3-0.2,0.5-0.4l0.4,0c0,0-0.2,15.5-0.3,19.7c-0.2,3.8,1.6,12.8,2,14.4c-0.5,0.3-1.1,0.8-0.9,0.9
					c6.9,6.5,15.7,14.7,25.4,16.1c9.6,1.4,20-3.2,29,1.3c-0.5,1.1-0.4,1.8-1.6,2.7c-0.7,0.3-1.3,0.5-1.9,0.5
					c-1.1,0.3-2.5,0.2-3.7,0.3c-2.2,0.3-4.6,0.4-6.8,0.8c-5.2,1.1-10.3,2.4-15.7,2.5c-0.2,0-0.3,0-0.5,0c-10,0-15.5-3.8-23.2-9.5
					c-0.2-0.2-4.6-2.8-5-2.6c-0.4,0.3-0.9,0.2-0.8,0.3l3,2.1c5.3,4,7.8,5.1,13.6,8.3c3.6,2.1,7.5,2.8,11.5,2.7c0,0,0,0,0,0
					c3.4,0.5,6.9,1,10.3,1.5c3.1,0.4,6.8,0.4,9.7,1.4c1.5,0.5,4,3.2,2.7,4.8c-0.1,0.1-0.2,0.1-0.3,0.1c-1,0.3-4.1-0.2-4.6-0.2
					C1350.2,2447.9,1346.3,2447.8,1342.4,2447.8z"/>
				<path fill="#49301C" d="M1368.8,2430.9C1368.9,2430.9,1368.9,2430.9,1368.8,2430.9c0.1,0.1,0.1,0.1,0.1,0.1
					c-0.9,2.9-1.6,4.6-4.4,5.2c-4.2,0.8-8.5,0.8-12.7,1.7c-3,0.6-6,1.3-9,1.8c-0.3,0-0.5,0.1-0.8,0.1c3.2,0.5,6.4,0.9,9.6,1.4
					c2.7,0.4,7.6,0,8.8,3.2c0.9,2.6,0,3.7-1.5,4.3l-0.2-0.5c0.1,0,0.2-0.1,0.3-0.1c1.3-1.6-1.2-4.3-2.7-4.8c-2.9-1-6.7-1-9.7-1.4
					c-3.4-0.5-6.9-1-10.3-1.5c0,0,0,0,0,0c-4,0-7.8-0.7-11.5-2.7c-5.8-3.3-8.3-4.4-13.6-8.3l-3-2.1c-0.1-0.1,0.4,0,0.8-0.3
					c0.4-0.3,4.8,2.4,5,2.6c7.7,5.7,13.2,9.5,23.2,9.5c0.2,0,0.3,0,0.5,0c5.3-0.1,10.4-1.4,15.7-2.5c2.2-0.4,4.5-0.6,6.8-0.8
					c1.2-0.1,2.6-0.1,3.7-0.3c0.6,0,1.2-0.2,1.9-0.5c1.1-0.9,1.1-1.7,1.6-2.7c-9-4.5-19.4,0.1-29-1.3c-9.7-1.4-18.5-9.6-25.4-16.1
					c-0.1-0.1,0.4-0.6,0.9-0.9c0.3-0.1,0.5-0.2,0.7-0.1c7.7,7.3,17,15.8,28.2,16.3C1351.4,2430.2,1360.6,2426.7,1368.8,2430.9z"/>
				<path fill="#49301C" d="M1311.2,2379.9c-10.8,2-21.3,5.1-31.1,10.3c-0.4,0.2-2,1.5-2,1.4c0-0.2,3.1-3.7,3.5-3.9
					c10.1-5.4,19.4-7.2,30.6-9.2c0.3-0.1-0.1,0.6-0.5,1.1C1311.5,2379.7,1311.3,2379.9,1311.2,2379.9z"/>
				<path fill="#49301C" d="M1328,2447.2c-8.7-3.7-15-7.5-23.4-11.7l-1.8-0.9c-0.2-0.1-0.4-0.6,0-0.9c0.4-0.3,3.2,1.4,3.7,1.6
					c6.5,2.9,10.3,4.8,16.7,7.9c2.8,1.4,5.8,3.1,8.9,4c3.3,0.9,7,0.6,10.4,0.6c3.9,0,7.8,0.1,11.7,0.1c0.5,0,3.6,0.5,4.6,0.2
					l0.2,0.5c-1.5,0.5-3.6,0.4-5,0.4c0,0,0,0,0,0c0,0,0,0,0,0c2.4,1.3,5.5,3.7,2.5,5.7c-1.4,1-3.9,0.3-5.4,0.3
					c-4.2-0.1-8.5-0.3-12.7-0.4c-3.5-0.1-7.1,0.1-10.5-1c-3.6-1.2-7-3.4-10.5-4.9c-1.8-0.8-3.5-1.4-5.1-2.1c3.7,4.1,6,9.7,11.6,11.6
					c3.2,1,6.6,0.5,9.6,2.1c2.6,1.4,4.7,3.7,6.6,5.9c0.2,0,0.3,0,0.3,0.1c0,1.3-0.8,2.2-2.2,2.6c-1.3,0.4-2.9-0.3-4.2-0.7
					c-3.2-0.8-6.3-1.7-9.5-2.6c-5.2-1.4-8.8-2.6-12.7-6.4c-4.3-4.1-8.5-8.4-12.7-12.6c-3.2-0.4-7.4-4.4-10.1-6.3
					c-3.4-2.4-6.9-4.8-10-7.5c-2.9-2.5-5.5-5.3-7.5-8.6c-2.4-4.1-3.8-7-7.5-10.1c-0.1-0.1-3.7-4.9-3.3-5.2s4.7,4.1,4.9,4.2
					c6,4.9,8,12.4,13.7,17.6c3,2.8,6.4,5.2,9.7,7.5c2,1.5,4.1,2.9,6.2,4.2c1.2,0.8,3,2.4,4.6,2.9c0.2-0.1,0.4-0.1,0.5,0c0,0,0,0,0,0
					c0.1,0,0.1,0,0.2,0.1c0,0.1,0,0.1,0,0.2c5.2,5.1,10.3,11.7,16.4,15.7c3.2,2.1,7.2,2.8,10.8,3.8c0.8,0.2,9.5,2.9,10.7,2.2
					c-2.6-2.9-5.5-5.9-9.3-6.9c-3-0.8-6.1-0.3-8.9-2c-5-2.9-6.7-9.2-10.9-13c-2.8-1.3-5.5-2.8-8.3-5.3l-1.1-1.3
					c-0.1-0.1-1.9-1.3-1.5-1.6c0.4-0.3,2,0.9,2.3,1c2.6,2.3,5.7,4.2,9,5.9c5.8,2.9,12.2,5.1,17.9,7.6c5.6,2.4,12.7,1.7,18.7,1.9
					c2,0.1,6.9,1.2,8.8,0.3c1.1-0.5,1.2-0.5,0.2-2c-0.7-0.9-2.1-1.6-3.2-2.1c0,0,0,0,0-0.1c-0.3-0.2-0.9-0.5-1.4-0.7
					C1343.1,2449.3,1334.7,2450.1,1328,2447.2z"/>
			</g>
		</g>
	</g>
</g>
<g id="ch04-02-2_safe_copy" display="none">
	<g id="mainComp_x5F_paths-back-up_copy">
		<g id="eye_x5F_close_x5F_comp_copy_2_1_" display="inline">
		</g>
		<g id="eye_x5F_far_x5F_comp_copy_2_1_" display="inline">
		</g>
	</g>
	<g id="mainComp_copy" display="inline">
		<g id="eye_x5F_close_x5F_comp_copy_2">
		</g>
		<g id="eye_x5F_far_x5F_comp_copy_2">
		</g>
	</g>
	<g id="eye_x5F_close_copy" display="inline">
	</g>
	<g id="eye_x5F_far_copy" display="inline">
	</g>
	<g id="pupil_copy" display="inline">
	</g>
</g>
<g id="ch04-02-1">
	<g id="mainComp_x5F_paths-back-up" display="none">
		<g id="eye_x5F_close_x5F_comp_copy" display="inline">
		</g>
		<g id="eye_x5F_far_x5F_comp_copy" display="inline">
		</g>
	</g>
	<g id="mainComp">
		<g id="eye_x5F_close_x5F_comp">
		</g>
		<g id="eye_x5F_far_x5F_comp">
		</g>
	</g>
	<g id="eye_x5F_close_copy_2">
	</g>
	<g id="eye_x5F_close">
	</g>
	<g id="eye_x5F_far_copy_2">
	</g>
	<g id="eye_x5F_far">
	</g>
	<g id="pupil_copy_2">
	</g>
	<g id="pupil_4_">
	</g>
</g>
<g id="ch05-07-1">
	<g id="main_x5F_comp_1_">
		<g id="hand_washing_copy">
		</g>
	</g>
	<g id="assets">
	</g>
	<g id="hand_washing">
	</g>
</g>
</svg>
