<?xml version="1.0" encoding="utf-8"?>
<!-- Generator: Adobe Illustrator 18.1.1, SVG Export Plug-In . SVG Version: 6.00 Build 0)  -->
<svg version="1.1" xmlns="http://www.w3.org/2000/svg" xmlns:xlink="http://www.w3.org/1999/xlink" x="0px" y="0px"
	 viewBox="1294.2 764.1 40.1 22.7" enable-background="new 1294.2 764.1 40.1 22.7" xml:space="preserve">
<g id="additional_reference">
</g>
<g id="ch07-09-1">
</g>
<g id="ch04-05-1">
</g>
<g id="ch04-11-2">
</g>
<g id="ch04-06-1">
	<g id="older_version">
		<g id="head_3_" display="none">
			<g id="hair_3_">
			</g>
		</g>
		<g id="hands" display="none">
		</g>
		<g id="head_4_" display="none">
		</g>
		<g id="new_path" display="none">
		</g>
		<g id="handback" display="none">
		</g>
		<g id="handFront">
		</g>
		<g id="Layer_21" display="none">
		</g>
	</g>
	<g id="path_copy-with_stroke">
		<g id="handBack_copy">
		</g>
		<g id="head_copy">
		</g>
		<g id="neck_copy">
		</g>
		<g id="sleeve_copy">
		</g>
		<g id="handFront_copy">
		</g>
		<g id="skirt_copy">
		</g>
		<g id="torso_copy">
		</g>
	</g>
	<g id="comp_layer">
		<g id="skirt_copy_3">
			<g id="skirt_copy_3_2_">
			</g>
			<g id="skirt_copy_3_1_">
			</g>
		</g>
		<g id="torso_copy_2">
		</g>
		<g id="sleeve_copy_2">
		</g>
		<g id="neck_5_">
		</g>
		<g id="head_copy_2">
			<g id="head-silo_copy">
			</g>
		</g>
		<g id="head_copy_3">
			<g id="head-silo_copy_2">
			</g>
		</g>
		<g id="handFront_copy_2">
		</g>
		<g id="handBack_copy_2">
		</g>
	</g>
	<g id="skirt_5_">
		<g id="skirt_4_">
		</g>
		<g id="skirt_copy_2">
		</g>
	</g>
	<g id="torso_copy_3">
	</g>
	<g id="sleeve">
	</g>
	<g id="neck_6_">
	</g>
	<g id="handBack">
	</g>
	<g id="handFront_1_">
	</g>
</g>
<g id="ch04-03-2">
</g>
<g id="ch04-02-2_safe_copy" display="none">
	<g id="mainComp_x5F_paths-back-up_copy">
		<g id="eye_x5F_close_x5F_comp_copy_2_1_" display="inline">
		</g>
		<g id="eye_x5F_far_x5F_comp_copy_2_1_" display="inline">
		</g>
	</g>
	<g id="mainComp_copy" display="inline">
		<g id="eye_x5F_close_x5F_comp_copy_2">
		</g>
		<g id="eye_x5F_far_x5F_comp_copy_2">
		</g>
	</g>
	<g id="mouth_5_" display="inline">
		<g>
			<path d="M1332.3,768.6c0.2,0.1,0.4,0.7,0.6,1.4c-0.1,0-0.3,0.1-0.4,0.2c-0.1,0-0.2,0-0.3,0c-0.1-0.1-0.2-0.2-0.2-0.1
				c0,0.1,0,0.1-0.1,0.2c-2.2-0.1-4-1.6-6.4-0.6c-0.7,0.3-1.2,0.7-1.8,1.1c-3-3.1-7.9-0.7-11.6-0.3c-4.4,0.4-8.9-0.7-13-2.2
				c0,0,0,0,0,0c-0.2-0.2-0.4-0.3-0.6-0.5c0,0-0.1-0.1-0.2-0.1l1.8-1.5c-6.3,0.9-6,5.2-6,5.2l2.5-2.2c4,8.1,11.3,17.8,21.4,17.6
				c3.7-0.1,7.1-1.3,9.6-4.1c2.2-2.5,3.1-6.1,4.3-9.3c0.4-0.6,0.8-1.3,1.1-2c0,0,0,0,0,0c0.2,0.9,0.3,1.6,0.3,1.6
				C1335.8,768.9,1332.8,768.6,1332.3,768.6z M1333,771C1333,771,1333,771,1333,771C1333.1,771,1333.1,770.9,1333,771
				c0.1,0,0.1,0.1,0.1,0.1C1333.1,771.1,1333.1,771.1,1333,771z"/>
			<path d="M1322,768.2c0.3,0.1,2.4-0.2,2.1-0.2c-0.8,0-2.2-0.2-2.8-1.1c-0.2-0.3-0.5-0.7-0.5-1.4c0-0.7-0.3-1.3-0.3-1.3
				c-0.2,0.8-0.4,1.9,0,2.8C1320.7,767.8,1321,767.8,1322,768.2z"/>
		</g>
		<g id="XMLID_43_">
			<g>
				<path fill="#490B0B" d="M1299.2,769.1c0,0,6.7,4.5,15.9,5.8c0,0,6.8,1.2,13.2-1.5l3.7-1.6c0,0-1.6,4.9-7.9,5.8c0,0-8,1.8-16-1.8
					C1308.1,775.7,1300.2,772.4,1299.2,769.1z"/>
				<path id="teeth_2_" fill="#E7E3C3" d="M1329.6,773c-4.8,5.1-10.4,4.5-17.1,3c-5.9-1.4-9.8-4.4-11.6-5.3
					C1308.6,773.2,1319.3,777.8,1329.6,773z"/>
				<g>
					<path fill="#7E5323" d="M1331.3,771.2c-2.5,0.1-5.5-1.8-7.2-0.1c0,0-0.1,0.1-0.1,0.1c-0.1,0.1-1.2,1.1-1.4,0.9
						c-3.1-3.7-9.1-0.5-13.1-0.4c-1.5,0-3-0.1-4.5-0.3C1313.6,774.8,1324,776.5,1331.3,771.2z"/>
					<path fill="#7E5323" d="M1299.7,770.8L1299.7,770.8c-0.1-0.1-0.3-0.2-0.4-0.3c3.4,6.2,7.8,11,14.6,13.9
						c3.8,1.6,9.4,1.6,12.6-1.4c1.7-1.6,2.8-4.7,3.8-7.5C1322.6,783.1,1307.4,777.9,1299.7,770.8z"/>
				</g>
				<g>
					<path d="M1332.3,768.6c0.2,0.1,0.4,0.7,0.6,1.4c-0.1,0-0.9,0.2-0.9,0.2c-2.2-0.1-4-1.6-6.4-0.6c-0.7,0.3-1.2,0.7-1.8,1.1
						c-3-3.1-7.9-0.7-11.6-0.3c-4.4,0.4-8.9-0.7-13-2.2c0,0,0,0,0,0c-0.2-0.2-0.4-0.3-0.6-0.5c0,0-0.1-0.1-0.2-0.1l1.8-1.5
						c-6.3,0.9-6,5.2-6,5.2l2.5-2.2c4,8.1,11.3,17.8,21.4,17.6c3.7-0.1,7.1-1.3,9.6-4.1c2.2-2.5,3.1-6.1,4.3-9.3
						c0.4-0.6,0.8-1.3,1.1-2c0,0,0,0,0,0c0.2,0.9,0.3,1.6,0.3,1.6C1335.8,768.9,1332.8,768.6,1332.3,768.6z M1326.5,783.1
						c-3.2,3-8.8,3-12.6,1.4c-6.8-2.9-11.2-7.7-14.6-13.9c0.1,0.1,0.3,0.2,0.4,0.3l0,0c7.7,7,22.9,12.3,30.6,4.7
						C1329.4,778.4,1328.3,781.5,1326.5,783.1z M1300.8,771.1c1.9,0.9,4,1.8,6.1,2.4c0,0,0,0,0,0l0,0c7.7,2.6,16.1,3.3,22.9-0.4v0
						c0.2-0.1,0.3-0.2,0.5-0.3c-2,2.5-4.6,3.9-7.6,4.5l0,0c-1.3,0.2-2.6,0.3-3.8,0.3c-0.5,0-1,0-1.5,0c-0.1,0-0.1,0-0.2,0
						c0,0-0.1,0-0.1,0C1311.4,777.3,1305.2,774.6,1300.8,771.1z M1305,771.3c1.5,0.2,3,0.4,4.5,0.3c4.1-0.1,10-3.3,13.1,0.4
						c0.2,0.2,1.3-0.8,1.4-0.9c0,0,0.1-0.1,0.1-0.1c1.7-1.7,4.7,0.2,7.2,0.1C1324,776.5,1313.6,774.8,1305,771.3z M1331.6,772.1
						L1331.6,772.1C1331.6,772.1,1331.6,772.1,1331.6,772.1C1331.6,772.1,1331.6,772.1,1331.6,772.1z M1332.9,770.2"/>
					<path d="M1322,768.2c0.3,0.1,2.4-0.2,2.1-0.2c-0.8,0-2.2-0.2-2.8-1.1c-0.2-0.3-0.5-0.7-0.5-1.4c0-0.7-0.3-1.3-0.3-1.3
						c-0.2,0.8-0.4,1.9,0,2.8C1320.7,767.8,1321,767.8,1322,768.2z"/>
				</g>
			</g>
		</g>
	</g>
	<g id="eye_x5F_close_copy" display="inline">
	</g>
	<g id="eye_x5F_far_copy" display="inline">
	</g>
	<g id="pupil_copy" display="inline">
	</g>
</g>
<g id="ch04-02-1">
	<g id="mainComp_x5F_paths-back-up" display="none">
		<g id="eye_x5F_close_x5F_comp_copy" display="inline">
		</g>
		<g id="eye_x5F_far_x5F_comp_copy" display="inline">
		</g>
	</g>
	<g id="mainComp">
		<g id="eye_x5F_close_x5F_comp">
		</g>
		<g id="eye_x5F_far_x5F_comp">
		</g>
	</g>
	<g>
		<path fill="#54381E" d="M1332.3,768.6c0.2,0,0.4,0.7,0.6,1.4c-0.1,0-0.5,0.1-0.7,0.2c-0.1-0.1-0.1-0.1-0.1-0.1
			c0,0.1-0.1,0.1-0.1,0.2c-2.2-0.1-4-1.6-6.4-0.6c-0.7,0.3-1.2,0.7-1.8,1.1c-3-3.1-7.9-0.7-11.6-0.3c-4.4,0.4-8.9-0.7-13-2.2
			c0,0,0,0,0,0c-0.2-0.2-0.4-0.3-0.6-0.5c0,0-0.1-0.1-0.2-0.1l1.8-1.5c-6.3,0.9-6,5.2-6,5.2l2.5-2.2c3.9,8.1,11.3,17.8,21.4,17.6
			c3.7-0.1,7.1-1.3,9.6-4c2.2-2.5,3.1-6.1,4.3-9.3c0.4-0.6,0.8-1.3,1.1-2c0,0,0,0,0,0c0.2,0.9,0.3,1.6,0.3,1.6
			C1335.8,768.9,1332.8,768.6,1332.3,768.6z"/>
		<path fill="#54381E" d="M1322,768.2c0.3,0.1,2.4-0.2,2.1-0.2c-0.8,0-2.2-0.2-2.8-1.1c-0.2-0.3-0.5-0.7-0.5-1.4
			c0-0.7-0.3-1.3-0.3-1.3c-0.2,0.8-0.4,1.9,0,2.8C1320.7,767.8,1321,767.8,1322,768.2z"/>
	</g>
	<g id="mouth_9_">
		<g>
			<g>
				<g id="XMLID_80_">
					<g>
						<path fill="#49301C" d="M1332,771.8l-3.7,1.6c-1.8,0.8-3.7,1.2-5.4,1.5c0,0-0.1,0-0.1,0c-6.6,0.8-13.1-1.2-18.5-3.1
							c-3.3-1.4-5.2-2.8-5.2-2.8c1,3.3,8.9,6.6,8.9,6.6c8.1,3.7,16,1.8,16,1.8C1330.2,776.7,1331.9,772.1,1332,771.8z M1332.3,768.6
							c0.5,0,3.5,0.3,1.1,4.4c0,0-0.1-0.7-0.3-1.6c0,0,0,0,0,0c-0.3,0.7-0.7,1.4-1.1,2c-1.2,3.3-2.1,6.8-4.3,9.3
							c-2.5,2.7-5.9,4-9.6,4c-10.1,0.2-17.5-9.4-21.4-17.6l-2.5,2.2c0,0-0.3-4.3,6-5.2l-1.8,1.5c0.1,0,0.1,0,0.2,0.1
							c0.2,0.2,0.4,0.3,0.6,0.5c0,0,0,0,0,0c4.2,1.4,8.6,2.6,13,2.2c3.7-0.3,8.6-2.8,11.6,0.3c0.5-0.5,1.1-0.8,1.8-1.1
							c2.4-1,4.1,0.5,6.4,0.6c0,0,0.1,0,0.2-0.1c0,0,0.1,0,0.1,0.1c0.1,0,0.2,0,0.3,0c0.1-0.1,0.3-0.2,0.4-0.2
							C1332.7,769.3,1332.5,768.6,1332.3,768.6z M1333.1,771.1c0-0.1,0-0.1,0-0.2c0,0,0,0,0,0c0,0,0,0,0,0.1
							C1333.1,771.1,1333.1,771.1,1333.1,771.1z M1331.3,771.2c-2.5,0.1-5.5-1.8-7.2-0.1c0,0-0.1,0.1-0.1,0.1
							c-0.1,0.1-1.2,1.1-1.4,0.9c-3.1-3.7-9.1-0.5-13.1-0.4c-1.5,0-3-0.1-4.5-0.3C1313.6,774.8,1324,776.5,1331.3,771.2z
							 M1326.5,783.1c1.7-1.6,2.8-4.7,3.8-7.5c-7.7,7.6-22.9,2.3-30.6-4.7v0c-0.1-0.1-0.3-0.2-0.4-0.3c3.4,6.2,7.8,11,14.6,13.9
							C1317.7,786,1323.3,786,1326.5,783.1z"/>
						<path d="M1333.1,770.9c0,0.1,0,0.2,0,0.2C1333.1,771.1,1333.1,771.1,1333.1,770.9C1333,771,1333,771,1333.1,770.9
							C1333,771,1333.1,770.9,1333.1,770.9z"/>
						<path d="M1332.9,770c-0.1,0-0.3,0.1-0.4,0.2c-0.1,0-0.2,0-0.3,0c0,0-0.1,0-0.1-0.1C1332.4,770.1,1332.8,770,1332.9,770z"/>
						<path d="M1332,770.1c0,0,0.1,0,0.1,0.1c-0.1,0-0.2,0.1-0.2,0.1C1332,770.2,1332,770.1,1332,770.1z"/>
						<path fill="#49301C" d="M1328.3,773.4l3.7-1.6c-0.1,0.3-1.8,4.9-7.9,5.7c0,0-8,1.8-16-1.8c0,0-7.8-3.4-8.9-6.6
							c0,0,1.9,1.3,5.2,2.8c-1.2-0.4-2.4-0.8-3.4-1.2c0.7,0.4,1.8,1.1,3.2,1.9c-1.1-0.4-2.2-0.9-3.3-1.4c4.4,3.5,10.6,6.2,16.5,6.6
							c0,0,0.1,0,0.1,0c0.1,0,0.1,0,0.2,0c0.5,0,1,0,1.5,0c1.2,0,2.5-0.1,3.8-0.3c3-0.6,5.6-2.1,7.6-4.5c-0.2,0.1-0.3,0.2-0.5,0.3
							c-0.3,0.1-0.5,0.3-0.8,0.4c0.2-0.2,0.3-0.3,0.5-0.5c-2.2,1-4.5,1.6-6.7,1.9C1324.6,774.7,1326.5,774.2,1328.3,773.4z"/>
						<path fill="#7E5323" d="M1324.1,771c1.7-1.7,4.8,0.2,7.2,0.1c-7.3,5.4-17.7,3.6-26.3,0.1c1.5,0.3,3,0.4,4.5,0.3
							c4.1-0.1,10-3.3,13.1,0.4C1322.8,772.2,1323.9,771.3,1324.1,771C1324,771.1,1324,771.1,1324.1,771z"/>
						<path fill="#490B0B" d="M1329.8,773.2c0.2-0.1,0.3-0.2,0.5-0.3c-1.9,2.5-4.6,3.9-7.6,4.5c-1.3,0.2-2.6,0.3-3.8,0.3
							c-0.5,0-1,0-1.5,0c-0.1,0-0.1,0-0.2,0c0,0-0.1,0-0.1,0c-5.9-0.5-12.1-3.2-16.5-6.6c1.1,0.5,2.2,1,3.3,1.4
							c2.1,1.2,4.9,2.6,8.4,3.4c6.5,1.5,11.9,2.1,16.6-2.4C1329.3,773.4,1329.6,773.3,1329.8,773.2z"/>
						<path fill="#49301C" d="M1329.6,773c-0.2,0.2-0.3,0.3-0.5,0.5c-6.7,3.3-14.8,2.5-22.2,0l0,0c0,0,0,0,0,0
							c-0.9-0.3-1.9-0.7-2.8-1c-1.4-0.8-2.4-1.5-3.2-1.9c1.1,0.4,2.3,0.8,3.4,1.2c2.8,1.2,6.5,2.5,10.7,3.1c0,0,3.5,0.6,7.8,0
							c0,0,0,0,0.1,0C1325.1,774.6,1327.4,774,1329.6,773z"/>
						<path fill="#7E5323" d="M1330.3,775.5c-1,2.8-2,5.9-3.8,7.5c-3.2,3-8.8,3-12.6,1.3c-6.8-2.9-11.2-7.7-14.6-13.9
							c0.1,0.1,0.3,0.2,0.4,0.3v0C1307.4,777.8,1322.6,783.1,1330.3,775.5z"/>
						<path fill="#49301C" d="M1324,768c0.4,0-1.7,0.4-2.1,0.2c-1-0.4-1.3-0.4-1.6-1.2c-0.4-0.9-0.2-2,0-2.8c0,0,0.3,0.6,0.3,1.3
							c0,0.7,0.3,1.1,0.5,1.4C1321.9,767.8,1323.3,767.9,1324,768z"/>
						<path fill="#E7E3C3" d="M1329.1,773.5c-4.7,4.6-10.1,4-16.6,2.4c-3.5-0.8-6.3-2.2-8.4-3.4c0.9,0.4,1.8,0.7,2.8,1c0,0,0,0,0,0
							l0,0C1314.3,776.1,1322.4,776.8,1329.1,773.5z"/>
						<path fill="#54381E" d="M1304.4,771.8c5.4,1.9,11.9,3.9,18.5,3.1c-4.3,0.6-7.8,0-7.8,0C1310.8,774.3,1307.1,773,1304.4,771.8z
							"/>
					</g>
				</g>
			</g>
		</g>
	</g>
	<g id="eye_x5F_close_copy_2">
	</g>
	<g id="eye_x5F_close">
	</g>
	<g id="eye_x5F_far_copy_2">
	</g>
	<g id="eye_x5F_far">
	</g>
	<g id="pupil_copy_2">
	</g>
	<g id="pupil_4_">
	</g>
</g>
<g id="ch05-07-1">
	<g id="main_x5F_comp_1_">
		<g id="hand_washing_copy">
		</g>
	</g>
	<g id="assets">
	</g>
	<g id="hand_washing">
	</g>
</g>
</svg>
