<?xml version="1.0" encoding="utf-8"?>
<!-- Generator: Adobe Illustrator 18.1.1, SVG Export Plug-In . SVG Version: 6.00 Build 0)  -->
<svg version="1.1" xmlns="http://www.w3.org/2000/svg" xmlns:xlink="http://www.w3.org/1999/xlink" x="0px" y="0px"
	 viewBox="1267.7 2496.8 108.3 92.2" enable-background="new 1267.7 2496.8 108.3 92.2" xml:space="preserve">
<g id="additional_reference">
</g>
<g id="ch07-09-1">
</g>
<g id="ch04-05-1">
</g>
<g id="ch04-11-2">
</g>
<g id="ch04-06-1">
	<g id="older_version">
		<g id="head_3_" display="none">
			<g id="hair_3_">
			</g>
		</g>
		<g id="hands" display="none">
		</g>
		<g id="head_4_" display="none">
		</g>
		<g id="new_path" display="none">
		</g>
		<g id="handback" display="none">
		</g>
		<g id="handFront">
		</g>
		<g id="Layer_21" display="none">
		</g>
	</g>
	<g id="path_copy-with_stroke">
		<g id="handBack_copy">
		</g>
		<g id="head_copy">
		</g>
		<g id="neck_copy">
		</g>
		<g id="sleeve_copy">
		</g>
		<g id="handFront_copy">
		</g>
		<g id="skirt_copy">
		</g>
		<g id="torso_copy">
		</g>
	</g>
	<g id="comp_layer">
		<g id="skirt_copy_3">
			<g id="skirt_copy_3_2_">
			</g>
			<g id="skirt_copy_3_1_">
			</g>
		</g>
		<g id="torso_copy_2">
		</g>
		<g id="sleeve_copy_2">
		</g>
		<g id="neck_5_">
		</g>
		<g id="head_copy_2">
			<g id="head-silo_copy">
			</g>
		</g>
		<g id="head_copy_3">
			<g id="head-silo_copy_2">
			</g>
		</g>
		<g id="handFront_copy_2">
		</g>
		<g id="handBack_copy_2">
		</g>
	</g>
	<g id="skirt_5_">
		<g id="skirt_4_">
		</g>
		<g id="skirt_copy_2">
		</g>
	</g>
	<g id="torso_copy_3">
	</g>
	<g id="sleeve">
	</g>
	<g id="neck_6_">
	</g>
	<g id="handBack">
	</g>
	<g id="handFront_1_">
	</g>
</g>
<g id="ch04-03-2">
	<g>
	</g>
	<g id="assets_2_">
		<g id="torso_x5F_34down_2_">
			<g id="XMLID_19_">
				<g>
				</g>
			</g>
		</g>
	</g>
	<g>
		<g id="XMLID_73_">
			<g>
				<path fill="#49301C" d="M1357.9,2500.2c0.8,6.9-13,5.9-17.2,6.4c-5.2,0.7-10.8,1.5-15.7,3.3c-2,0.7-3.9,1.9-5.2,3.7
					c-4.1,5.7-0.7,14.6-0.1,20.9c0,0-7.9-11.2-9-21.8c-1.1-10.6,7.3-12.7,7.3-12.7c4.5,0.8,8.3-0.1,12.8-1
					c5.8-1.2,11.3-0.8,17.2-0.8C1350.9,2498.1,1357.5,2496.5,1357.9,2500.2z"/>
				<path fill="#49301C" d="M1319.8,2521.7c0.3,4,1.3,7.9,1.7,12c0,0.4-1.6,1.2-1.6,0.8c-0.6-6.3-4-15.1,0.1-20.9
					c1.3-1.8,3.2-2.9,5.2-3.7c4.9-1.8,10.5-2.6,15.7-3.3c4.2-0.6,17.9,0.4,17.2-6.4c-0.4-3.7-7.1-2.1-9.9-2
					c-5.8,0-11.4-0.4-17.2,0.8c-4.4,0.9-8.3,1.8-12.8,1c-0.2,0,0.7-1.6,1.2-1.5c6.1,1.1,11.2-0.7,17.2-1.4c5.7-0.6,11.6,0,17.4-0.1
					c1.8,0,4.6-0.7,5.6,1.2c1,1.8,0,5.1-1.4,6.3c-2.2,1.9-5.5,2.7-8.3,2.9c-6.2,0.6-12.6,1.3-18.8,2.7c-4.1,0.9-8.9,1.1-10.5,5.7
					C1320,2517.7,1319.7,2519.7,1319.8,2521.7z"/>
			</g>
		</g>
	</g>
	<g>
		<g id="XMLID_35_">
			<g>
				<path fill="#734E27" d="M1357.9,2500.2c0.8,6.9-13,5.9-17.2,6.4c-5.2,0.7-10.8,1.5-15.7,3.3c-2,0.7-3.9,1.9-5.2,3.7
					c-4.1,5.7-0.7,14.6-0.1,20.9c0,0-7.9-11.2-9-21.8c-1.1-10.6,7.3-12.7,7.3-12.7c4.5,0.8,8.3-0.1,12.8-1
					c5.8-1.2,11.3-0.8,17.2-0.8C1350.9,2498.1,1357.5,2496.5,1357.9,2500.2z"/>
				<path fill="#49301C" d="M1319.8,2521.7c0.3,4,1.3,7.9,1.7,12c0,0.4-1.6,1.2-1.6,0.8c-0.6-6.3-4-15.1,0.1-20.9
					c1.3-1.8,3.2-2.9,5.2-3.7c4.9-1.8,10.5-2.6,15.7-3.3c4.2-0.6,17.9,0.4,17.2-6.4c-0.4-3.7-7.1-2.1-9.9-2
					c-5.8,0-11.4-0.4-17.2,0.8c-4.4,0.9-8.3,1.8-12.8,1c-0.2,0,0.7-1.6,1.2-1.5c6.1,1.1,11.2-0.7,17.2-1.4c5.7-0.6,11.6,0,17.4-0.1
					c1.8,0,4.6-0.7,5.6,1.2c1,1.8,0,5.1-1.4,6.3c-2.2,1.9-5.5,2.7-8.3,2.9c-6.2,0.6-12.6,1.3-18.8,2.7c-4.1,0.9-8.9,1.1-10.5,5.7
					C1320,2517.7,1319.7,2519.7,1319.8,2521.7z"/>
			</g>
		</g>
	</g>
</g>
<g id="ch04-02-2_safe_copy" display="none">
	<g id="mainComp_x5F_paths-back-up_copy">
		<g id="eye_x5F_close_x5F_comp_copy_2_1_" display="inline">
		</g>
		<g id="eye_x5F_far_x5F_comp_copy_2_1_" display="inline">
		</g>
	</g>
	<g id="mainComp_copy" display="inline">
		<g id="eye_x5F_close_x5F_comp_copy_2">
		</g>
		<g id="eye_x5F_far_x5F_comp_copy_2">
		</g>
	</g>
	<g id="eye_x5F_close_copy" display="inline">
	</g>
	<g id="eye_x5F_far_copy" display="inline">
	</g>
	<g id="pupil_copy" display="inline">
	</g>
</g>
<g id="ch04-02-1">
	<g id="mainComp_x5F_paths-back-up" display="none">
		<g id="eye_x5F_close_x5F_comp_copy" display="inline">
		</g>
		<g id="eye_x5F_far_x5F_comp_copy" display="inline">
		</g>
	</g>
	<g id="mainComp">
		<g id="eye_x5F_close_x5F_comp">
		</g>
		<g id="eye_x5F_far_x5F_comp">
		</g>
	</g>
	<g id="eye_x5F_close_copy_2">
	</g>
	<g id="eye_x5F_close">
	</g>
	<g id="eye_x5F_far_copy_2">
	</g>
	<g id="eye_x5F_far">
	</g>
	<g id="pupil_copy_2">
	</g>
	<g id="pupil_4_">
	</g>
</g>
<g id="ch05-07-1">
	<g id="main_x5F_comp_1_">
		<g id="hand_washing_copy">
		</g>
	</g>
	<g id="assets">
	</g>
	<g id="hand_washing">
	</g>
</g>
</svg>
