<?xml version="1.0" encoding="utf-8"?>
<!-- Generator: Adobe Illustrator 18.1.1, SVG Export Plug-In . SVG Version: 6.00 Build 0)  -->
<svg version="1.1" xmlns="http://www.w3.org/2000/svg" xmlns:xlink="http://www.w3.org/1999/xlink" x="0px" y="0px"
	 viewBox="1375.3 1885.1 30 37.9" enable-background="new 1375.3 1885.1 30 37.9" xml:space="preserve">
<g id="additional_reference">
</g>
<g id="ch07-09-1">
</g>
<g id="ch04-05-1">
</g>
<g id="ch04-11-2">
</g>
<g id="ch04-06-1">
	<g id="older_version">
		<g id="head_3_" display="none">
			<g id="hair_3_">
			</g>
		</g>
		<g id="hands" display="none">
		</g>
		<g id="head_4_" display="none">
		</g>
		<g id="new_path" display="none">
		</g>
		<g id="handback" display="none">
		</g>
		<g id="handFront">
		</g>
		<g id="Layer_21" display="none">
		</g>
	</g>
	<g id="path_copy-with_stroke">
		<g id="handBack_copy">
		</g>
		<g id="head_copy">
		</g>
		<g id="neck_copy">
		</g>
		<g id="sleeve_copy">
		</g>
		<g id="handFront_copy">
		</g>
		<g id="skirt_copy">
		</g>
		<g id="torso_copy">
		</g>
	</g>
	<g id="comp_layer">
		<g id="skirt_copy_3">
			<g id="skirt_copy_3_2_">
			</g>
			<g id="skirt_copy_3_1_">
			</g>
		</g>
		<g id="torso_copy_2">
		</g>
		<g id="sleeve_copy_2">
		</g>
		<g id="neck_5_">
		</g>
		<g id="head_copy_2">
			<g id="head-silo_copy">
			</g>
		</g>
		<g id="head_copy_3">
			<g id="head-silo_copy_2">
			</g>
		</g>
		<g id="handFront_copy_2">
		</g>
		<g id="handBack_copy_2">
		</g>
	</g>
	<g id="skirt_5_">
		<g id="skirt_4_">
		</g>
		<g id="skirt_copy_2">
		</g>
	</g>
	<g id="torso_copy_3">
	</g>
	<g id="sleeve">
	</g>
	<g id="neck_6_">
	</g>
	<g id="handBack">
	</g>
	<g id="handFront_1_">
	</g>
</g>
<g id="ch04-03-2">
	<g>
	</g>
	<g id="assets_2_">
		<g id="torso_x5F_34down_2_">
			<g id="XMLID_19_">
				<g>
				</g>
			</g>
		</g>
	</g>
	<path fill="#734E27" d="M1400.1,1885.3c-3.3-0.8-8.1,1.5-11.1,2.8s-5.1,2.3-10.8,1.3c-4.6-0.8-3,21.6,0,22.5c0,0,0,0.1,0,0.1
		c-0.1,0.2,1.4-0.3,1.6-0.8c3.4-9.2,15.9-9.3,23.2-14.5c0,0,0,0,0,0c0.6-0.5,0.5-0.6,0.1-0.5c0.3-1.3,1.2-4.8,2-6.8
		C1406.1,1886.8,1403.3,1886,1400.1,1885.3z"/>
	<g id="eye_x5F_34down_x5F_far_2_">
		<g>
			<path fill="#734E27" d="M1400,1885.3c-3.3-0.8-8.1,1.5-11.1,2.8s-5.1,2.3-10.8,1.3c-4.6-0.8-3,21.6,0,22.5
				c4.9-11.9,15.6-10.4,24.1-15.4c0.3-0.1,0.6-0.3,0.8-0.3c0.3-1.3,1.2-4.8,2-6.8C1406,1886.8,1403.3,1886,1400,1885.3z
				 M1398.9,1896.1c-6.3,0.1-15.1,1.3-17.6,8c-0.2,0.5-1.7,1-1.6,0.8c2.9-7.9,13-9.9,20.4-10
				C1400.7,1895,1399.4,1896.1,1398.9,1896.1z"/>
			<path d="M1379.8,1904.9c-0.1,0.2,1.4-0.3,1.6-0.8c2.5-6.8,11.2-8,17.6-8c0.4,0,1.8-1.1,1.2-1.1
				C1392.8,1895.1,1382.6,1897.1,1379.8,1904.9z"/>
			<path d="M1378.1,1911.9C1378.1,1911.9,1378.1,1911.9,1378.1,1911.9c-0.1,0.3,1.4-0.2,1.6-0.7c3.4-9.2,15.9-9.3,23.2-14.5
				c0,0,0,0,0,0c0.6-0.5,0.5-0.6,0.1-0.5c-0.2,0-0.6,0.2-0.8,0.3C1393.7,1901.4,1383,1900,1378.1,1911.9z"/>
		</g>
	</g>
</g>
<g id="ch04-02-2_safe_copy" display="none">
	<g id="mainComp_x5F_paths-back-up_copy">
		<g id="eye_x5F_close_x5F_comp_copy_2_1_" display="inline">
		</g>
		<g id="eye_x5F_far_x5F_comp_copy_2_1_" display="inline">
		</g>
	</g>
	<g id="mainComp_copy" display="inline">
		<g id="eye_x5F_close_x5F_comp_copy_2">
		</g>
		<g id="eye_x5F_far_x5F_comp_copy_2">
		</g>
	</g>
	<g id="eye_x5F_close_copy" display="inline">
	</g>
	<g id="eye_x5F_far_copy" display="inline">
	</g>
	<g id="pupil_copy" display="inline">
	</g>
</g>
<g id="ch04-02-1">
	<g id="mainComp_x5F_paths-back-up" display="none">
		<g id="eye_x5F_close_x5F_comp_copy" display="inline">
		</g>
		<g id="eye_x5F_far_x5F_comp_copy" display="inline">
		</g>
	</g>
	<g id="mainComp">
		<g id="eye_x5F_close_x5F_comp">
		</g>
		<g id="eye_x5F_far_x5F_comp">
		</g>
	</g>
	<g id="eye_x5F_close_copy_2">
	</g>
	<g id="eye_x5F_close">
	</g>
	<g id="eye_x5F_far_copy_2">
	</g>
	<g id="eye_x5F_far">
	</g>
	<g id="pupil_copy_2">
	</g>
	<g id="pupil_4_">
	</g>
</g>
<g id="ch05-07-1">
	<g id="main_x5F_comp_1_">
		<g id="hand_washing_copy">
		</g>
	</g>
	<g id="assets">
	</g>
	<g id="hand_washing">
	</g>
</g>
</svg>
