<?xml version="1.0" encoding="utf-8"?>
<!-- Generator: Adobe Illustrator 18.1.1, SVG Export Plug-In . SVG Version: 6.00 Build 0)  -->
<svg version="1.1" xmlns="http://www.w3.org/2000/svg" xmlns:xlink="http://www.w3.org/1999/xlink" x="0px" y="0px"
	 viewBox="977.5 2299.1 191.9 266" enable-background="new 977.5 2299.1 191.9 266" xml:space="preserve">
<g id="additional_reference">
</g>
<g id="ch07-09-1">
</g>
<g id="ch04-05-1">
</g>
<g id="ch04-11-2">
</g>
<g id="ch04-06-1">
	<g id="older_version">
		<g id="head_3_" display="none">
			<g id="hair_3_">
			</g>
		</g>
		<g id="hands" display="none">
		</g>
		<g id="head_4_" display="none">
		</g>
		<g id="new_path" display="none">
		</g>
		<g id="handback" display="none">
		</g>
		<g id="handFront">
		</g>
		<g id="Layer_21" display="none">
		</g>
	</g>
	<g id="path_copy-with_stroke">
		<g id="handBack_copy">
		</g>
		<g id="head_copy">
		</g>
		<g id="neck_copy">
		</g>
		<g id="sleeve_copy">
		</g>
		<g id="handFront_copy">
		</g>
		<g id="skirt_copy">
		</g>
		<g id="torso_copy">
		</g>
	</g>
	<g id="comp_layer">
		<g id="skirt_copy_3">
			<g id="skirt_copy_3_2_">
			</g>
			<g id="skirt_copy_3_1_">
			</g>
		</g>
		<g id="torso_copy_2">
		</g>
		<g id="sleeve_copy_2">
		</g>
		<g id="neck_5_">
		</g>
		<g id="head_copy_2">
			<g id="head-silo_copy">
			</g>
		</g>
		<g id="head_copy_3">
			<g id="head-silo_copy_2">
			</g>
		</g>
		<g id="handFront_copy_2">
		</g>
		<g id="handBack_copy_2">
		</g>
	</g>
	<g id="skirt_5_">
		<g id="skirt_4_">
		</g>
		<g id="skirt_copy_2">
		</g>
	</g>
	<g id="torso_copy_3">
	</g>
	<g id="sleeve">
	</g>
	<g id="neck_6_">
	</g>
	<g id="handBack">
	</g>
	<g id="handFront_1_">
	</g>
</g>
<g id="ch04-03-2">
	<g>
		<path fill="#ADAB5C" d="M1149.5,2328.6c-3.1-1.4-6.4-2.5-9.4-4.1c-4-2.2-7-5.6-10.2-8.8c-8.2-8.1-17.5-16.3-29.6-16.4
			c-12.2-0.1-27.1,0-37.3,7.4c-4,2.9-7.1,6.5-11.8,8.4c-4.4,1.8-9.3,2.9-13.7,4.4c-7.3,2.3-13.9,5.2-20.6,9
			c-11.4,6.5-23.8,15.3-29.3,27.8c-3.7,9.6-0.6,21.1-0.9,31.1c-0.4,12.9,0.8,26.1,3.6,38.7c2.7,12.2,7.6,23.8,13.1,34.9
			c1.8,3.6,4.1,7.3,5.8,11.1c-0.1,0.1-0.1,0.2-0.1,0.3c-0.3,3.6-0.5,5.2-3.4,7.6c-3,2.4-6.1,5.6-8.8,8.3c-3.3,3.5-6.4,7.9-9.2,11.8
			c-2.8,3.8-5.2,7.3-7.4,11.5c-4.2,7.8-3.3,14.6,3,21.1c6.1,6.3,13.4,12.1,21.3,15.7c9.9,4.6,20.6,7.6,31.2,10
			c10.4,2.4,21.3,5.4,32,6.2c10.6,0.7,22.5-1.8,32.7-4.5c8.1-2.1,16.3-4.7,23.3-9.3c6.8-4.5,11.5-11.7,12.7-19.8
			c1.5-10.7-6.8-18.8-8.9-28.7c0,0,0,0,0,0c1.4-2,1.6-4.2-0.7-6.4c2.1-4.3,0.3-8.1-0.6-12.6c-1.2-6.6,4.2-13.2,7.8-18.4
			c3.6-5.2,7.6-10,10.7-15.5c3.7-6.6,7.2-13.9,10-21c6.2-15.6,10.5-32.3,13.2-48.9c2-12.5,2.6-28.5-4.6-39.6
			C1159.9,2334.8,1155,2331.1,1149.5,2328.6z"/>
	</g>
	<g id="assets_2_">
		<g id="torso_x5F_34down_2_">
			<g id="XMLID_19_">
				<g>
					<path fill="#ADAB5C" d="M1163.2,2339.9c7.2,11.1,6.6,27.1,4.6,39.6c-2.6,16.6-7,33.3-13.2,48.9c-2.8,7.1-6.3,14.4-10,21
						c-3.1,5.5-7.1,10.3-10.7,15.5c-3.5,5.2-9,11.8-7.8,18.4c0.9,4.6,2.7,8.3,0.6,12.6c2.4,2.2,2.1,4.4,0.7,6.4c0,0,0,0,0,0
						c2.2,10,10.4,18,8.9,28.7c-1.1,8.1-5.9,15.4-12.7,19.8c-7.1,4.7-15.2,7.2-23.3,9.3c-10.2,2.6-22.1,5.2-32.7,4.5
						c-10.7-0.7-21.6-3.8-32-6.2c-10.6-2.4-21.3-5.4-31.2-10c-7.9-3.7-15.2-9.4-21.3-15.7c-6.3-6.5-7.3-13.3-3-21.1
						c2.3-4.2,4.6-7.7,7.4-11.5c2.8-3.9,5.9-8.3,9.2-11.8c2.6-2.8,5.8-5.9,8.8-8.3c2.9-2.4,3.2-4,3.4-7.6c0-0.1,0.1-0.2,0.1-0.3
						c-1.7-3.8-3.9-7.5-5.8-11.1c-5.5-11.2-10.4-22.7-13.1-34.9c-2.8-12.6-4-25.9-3.6-38.7c0.3-10-2.8-21.6,0.9-31.1
						c5.4-12.4,17.8-21.3,29.3-27.8c6.7-3.8,13.3-6.7,20.6-9c4.5-1.4,9.4-2.6,13.7-4.4c4.7-1.9,7.7-5.5,11.8-8.4
						c10.2-7.4,25.1-7.5,37.3-7.4c12.1,0.1,21.4,8.3,29.6,16.4c3.2,3.2,6.2,6.6,10.2,8.8c3,1.7,6.3,2.7,9.4,4.1
						C1155,2331.1,1159.9,2334.8,1163.2,2339.9z M1167.4,2366.8c0-11.1-1.6-23.3-10.3-31.3c-5-4.6-11.2-6.3-17.1-9.2
						c-5.4-2.7-9.1-7.2-13.4-11.2c-9-8.5-17.8-15.2-30.7-14.5c-7.6,0.4-15.6,0.7-22.9,2.9c-6.8,2-11.2,6.7-16.8,10.5
						c-4.7,3.2-10,4.3-15.3,5.9c-6.9,2-13.3,4.6-19.6,8c-12.4,6.7-25,14.4-30.9,27.8v0c-3.7,9.6-1.8,20.9-2.1,31
						c-0.4,14,0.9,28.5,4.4,42c3.1,12.1,8.2,23.5,13.9,34.6c1.4,2.7,3,5.4,4.3,8.3c0.9,2.1,1.7,4.2,1.9,6.5c0.6,4.5-1.3,8-2.9,12.1
						c-0.2,0.5-2.4,4.1-2.3,3.9c1.9-4.9,4.6-12,3.2-17.3c-0.1-0.5-0.3-0.9-0.4-1.4c-0.1,1.2-0.4,2.3-1,3.2c-1,1.6-3.1,2.6-4.5,3.9
						c-7.8,7.3-14.2,16-20.1,25c-5.2,7.9-7.7,15.6-0.9,23.3c5.5,6.3,13.2,11.1,20.6,14.8c16.8,8.4,36.2,12.3,54.7,15.4
						c10.6,1.8,20.7,1.7,31.3-0.3c10.9-2.1,22.6-4.9,31.9-11c7.6-5,12.2-13.2,11.9-22.3c-0.3-8.5-6.3-15.4-8.3-23.5
						c-2.5,2.4-6.2,4.4-8.2,5.3c-1.2,0.6,0.8-2.1,1.5-2.4c2-0.9,4.9-2.2,6.5-4c1.4-1.5,1.9-3.3-0.1-5.4c-4.5,6.3-16.7,7.4-23.4,9.1
						c0,0-0.1,0-0.1,0c0.3-0.2,6.3-2.6,6.7-2.7c5.5-1.4,10.5-1.2,14.4-5.8c5-5.9,0.4-11.1,1.1-17.4c1.3-11.3,11.5-20.2,17-29.5
						c7.7-13,13.1-27.4,17.5-41.8C1163.1,2395.7,1167.3,2381.3,1167.4,2366.8z"/>
					<path fill="#C1C18A" d="M1157.1,2335.5c8.6,7.9,10.3,20.1,10.3,31.3c0,14.5-4.2,28.9-8.4,42.7c-4.4,14.4-9.7,28.8-17.5,41.8
						c-5.5,9.3-15.7,18.2-17,29.5c-0.7,6.3,3.9,11.5-1.1,17.4c-3.9,4.7-8.9,4.4-14.4,5.8c-0.3,0.1-6.4,2.5-6.7,2.7c0,0,0,0,0.1,0
						c6.8-1.7,18.9-2.9,23.4-9.1c1.9,2.1,1.5,3.9,0.1,5.4c-1.6,1.7-4.5,3-6.5,4c-0.7,0.3-2.7,2.9-1.5,2.4c2-1,5.7-2.9,8.2-5.3
						c2,8.1,8,15,8.3,23.5c0.3,9.1-4.3,17.4-11.9,22.3c-9.3,6.1-21.1,8.9-31.9,11c-10.5,2-20.7,2.1-31.3,0.3
						c-18.4-3.1-37.8-7-54.7-15.4c-7.4-3.7-15.1-8.6-20.6-14.8c-6.8-7.7-4.3-15.4,0.9-23.3c5.9-8.9,12.3-17.6,20.1-25
						c1.3-1.2,3.4-2.3,4.5-3.9c0.6-0.9,0.9-2.1,1-3.2c0.2,0.4,0.3,0.9,0.4,1.4c1.4,5.3-1.3,12.4-3.2,17.3c-0.1,0.2,2.1-3.4,2.3-3.9
						c1.6-4.1,3.5-7.6,2.9-12.1c-0.3-2.2-1-4.4-1.9-6.5c-1.3-2.9-2.9-5.6-4.3-8.3c-5.7-11.1-10.8-22.5-13.9-34.6
						c-3.5-13.6-4.8-28-4.4-42c0.3-10-1.5-21.4,2.1-31v0c5.9-13.4,18.5-21.1,30.9-27.8c6.3-3.4,12.7-6,19.6-8
						c5.4-1.6,10.7-2.7,15.3-5.9c5.7-3.8,10-8.5,16.8-10.5c7.3-2.2,15.3-2.4,22.9-2.9c12.9-0.7,21.6,6,30.7,14.5
						c4.3,4.1,8,8.6,13.4,11.2C1146,2329.2,1152.1,2330.9,1157.1,2335.5z M1117.7,2399.4c7-9.2,13.2-19.3,13-31.2
						c-0.1-7.1-2.2-14-3-21c-0.7-5.9-2.3-11.1-4.6-16.6c-2.2-5.4-5.5-10.3-9.7-14.3c-4-3.8-8.8-6.7-14.3-8.1
						c-9.7-2.6-19.8-0.7-29.5,1.2c0,0-0.1,0-0.1,0c0,0,0,0,0,0c-0.1,0-0.2,0.1-0.3,0.1c-6.9,3.8-12,9.3-14.3,16.3
						c-0.9,2.7-1.3,5.6-1.3,8.7c0,12.2,5.5,23.5,14.7,31.4c9.3,8.1,20.9,13.1,30.9,20.2c4.1,2.9,7.9,6.2,11.4,9.9
						c1.3,1.4,3,3.2,4.3,5.1c2.1,2.9,3.5,6.3,2.3,9.5c-0.1,0.2,1.5-3.4,1.6-3.9C1119.8,2404.1,1119.2,2401.7,1117.7,2399.4z"/>
					<path fill="#ADAB5C" d="M1130.6,2368.3c0.2,11.9-6,22-13,31.2c1.5,2.2,2.2,4.7,1.2,7.4c-0.2,0.5-1.7,4.1-1.6,3.9
						c1.2-3.2-0.2-6.6-2.3-9.5c-1.4-1.9-3-3.7-4.3-5.1c-3.4-3.7-7.3-7-11.4-9.9c-10.1-7.1-21.6-12.1-30.9-20.2
						c-9.1-7.9-14.6-19.2-14.7-31.4c0-3.1,0.5-6,1.3-8.7c2.3-7,7.3-12.5,14.3-16.3c0.1-0.1,0.2-0.1,0.3-0.1c0,0,0,0,0,0
						c0,0,0.1,0,0.1,0c9.7-1.9,19.8-3.8,29.5-1.2c5.4,1.5,10.3,4.3,14.3,8.1c4.2,3.9,7.5,8.9,9.7,14.3c2.3,5.5,3.9,10.7,4.6,16.6
						C1128.4,2354.3,1130.5,2361.2,1130.6,2368.3z M1116.8,2398.3c7.1-9.6,11.6-18.8,10.8-31.4c-0.4-5.8-1.5-11.6-2.2-17.4
						c-0.7-6.1-1.7-12.1-4.1-17.9c-2.2-5.3-5.4-10.1-9.5-13.9c-0.1,0-0.1,0-0.2,0c-7.9-3.9-18.3-3.1-26.9-2.1
						c-10,1.1-20.6,4.4-28.6,10.7c-1.7,6.3-1.1,13.5,1.2,20.6c3.6,11.2,12.2,18.8,21.8,25.1c8.8,5.7,18.4,10.3,26.4,17.1
						C1108.7,2391.6,1113.8,2394.7,1116.8,2398.3z M1108.2,2314.7c-2.7-1.9-5.7-3.4-9-4.4c-9.8-3-20.3-1.4-30.2,0.6
						c0,0,0,0.1-0.1,0.1c-6.1,3.3-9.9,8-11.9,13.3c6.8-5,15-8.2,23.3-9.7C1088.6,2313.1,1099.3,2312.2,1108.2,2314.7z"/>
					<path fill="#734E27" d="M1127.7,2366.9c0.8,12.6-3.7,21.8-10.8,31.4c-3-3.7-8.1-6.8-11.1-9.3c-8.1-6.8-17.6-11.4-26.4-17.1
						c-9.7-6.2-18.2-13.8-21.8-25.1c-2.3-7.1-2.9-14.3-1.2-20.6c8-6.4,18.6-9.6,28.6-10.7c8.6-1,19-1.9,26.9,2.1c0.1,0,0.1,0,0.2,0
						c4.1,3.8,7.3,8.6,9.5,13.9c2.4,5.8,3.3,11.7,4.1,17.9C1126.2,2355.3,1127.3,2361.1,1127.7,2366.9z"/>
					<path fill="#969469" d="M1099.2,2310.3c3.3,1,6.3,2.5,9,4.4c-8.8-2.5-19.6-1.6-28-0.1c-8.2,1.5-16.4,4.7-23.3,9.7
						c2-5.3,5.8-10,11.9-13.3c0,0,0.1,0,0.1-0.1C1078.9,2308.9,1089.4,2307.3,1099.2,2310.3z"/>
				</g>
			</g>
		</g>
	</g>
</g>
<g id="ch04-02-2_safe_copy" display="none">
	<g id="mainComp_x5F_paths-back-up_copy">
		<g id="eye_x5F_close_x5F_comp_copy_2_1_" display="inline">
		</g>
		<g id="eye_x5F_far_x5F_comp_copy_2_1_" display="inline">
		</g>
	</g>
	<g id="mainComp_copy" display="inline">
		<g id="eye_x5F_close_x5F_comp_copy_2">
		</g>
		<g id="eye_x5F_far_x5F_comp_copy_2">
		</g>
	</g>
	<g id="eye_x5F_close_copy" display="inline">
	</g>
	<g id="eye_x5F_far_copy" display="inline">
	</g>
	<g id="pupil_copy" display="inline">
	</g>
</g>
<g id="ch04-02-1">
	<g id="mainComp_x5F_paths-back-up" display="none">
		<g id="eye_x5F_close_x5F_comp_copy" display="inline">
		</g>
		<g id="eye_x5F_far_x5F_comp_copy" display="inline">
		</g>
	</g>
	<g id="mainComp">
		<g id="eye_x5F_close_x5F_comp">
		</g>
		<g id="eye_x5F_far_x5F_comp">
		</g>
	</g>
	<g id="eye_x5F_close_copy_2">
	</g>
	<g id="eye_x5F_close">
	</g>
	<g id="eye_x5F_far_copy_2">
	</g>
	<g id="eye_x5F_far">
	</g>
	<g id="pupil_copy_2">
	</g>
	<g id="pupil_4_">
	</g>
</g>
<g id="ch05-07-1">
	<g id="main_x5F_comp_1_">
		<g id="hand_washing_copy">
		</g>
	</g>
	<g id="assets">
	</g>
	<g id="hand_washing">
	</g>
</g>
</svg>
