<?xml version="1.0" encoding="utf-8"?>
<!-- Generator: Adobe Illustrator 18.1.1, SVG Export Plug-In . SVG Version: 6.00 Build 0)  -->
<svg version="1.1" xmlns="http://www.w3.org/2000/svg" xmlns:xlink="http://www.w3.org/1999/xlink" x="0px" y="0px"
	 viewBox="1085 2147.3 77.5 84" enable-background="new 1085 2147.3 77.5 84" xml:space="preserve">
<g id="additional_reference">
</g>
<g id="ch07-09-1">
</g>
<g id="ch04-05-1">
</g>
<g id="ch04-11-2">
</g>
<g id="ch04-06-1">
	<g id="older_version">
		<g id="head_3_" display="none">
			<g id="hair_3_">
			</g>
		</g>
		<g id="hands" display="none">
		</g>
		<g id="head_4_" display="none">
		</g>
		<g id="new_path" display="none">
		</g>
		<g id="handback" display="none">
		</g>
		<g id="handFront">
		</g>
		<g id="Layer_21" display="none">
		</g>
	</g>
	<g id="path_copy-with_stroke">
		<g id="handBack_copy">
		</g>
		<g id="head_copy">
		</g>
		<g id="neck_copy">
		</g>
		<g id="sleeve_copy">
		</g>
		<g id="handFront_copy">
		</g>
		<g id="skirt_copy">
		</g>
		<g id="torso_copy">
		</g>
	</g>
	<g id="comp_layer">
		<g id="skirt_copy_3">
			<g id="skirt_copy_3_2_">
			</g>
			<g id="skirt_copy_3_1_">
			</g>
		</g>
		<g id="torso_copy_2">
		</g>
		<g id="sleeve_copy_2">
		</g>
		<g id="neck_5_">
		</g>
		<g id="head_copy_2">
			<g id="head-silo_copy">
			</g>
		</g>
		<g id="head_copy_3">
			<g id="head-silo_copy_2">
			</g>
		</g>
		<g id="handFront_copy_2">
		</g>
		<g id="handBack_copy_2">
		</g>
	</g>
	<g id="skirt_5_">
		<g id="skirt_4_">
		</g>
		<g id="skirt_copy_2">
		</g>
	</g>
	<g id="torso_copy_3">
	</g>
	<g id="sleeve">
	</g>
	<g id="neck_6_">
	</g>
	<g id="handBack">
	</g>
	<g id="handFront_1_">
	</g>
</g>
<g id="ch04-03-2">
	<g>
		<path fill="#49301C" d="M1104.3,2147.4c-0.1-0.3-1.2,0.2-1,0.6c2,4.6-0.5,11.9-1.9,16.5c-2.4,8.3-7.9,15.7-15.8,22.3
			c-0.6,0.5-0.7,0.8-0.4,0.8c0.2,0.7,7.2,21.9,22.3,35c14.9,13,41.1,7.9,42.4,7.6c0,0,0.1,0,0.1,0c0.4-0.2-0.3-4.6-0.4-4.8
			c-0.6-2.6-1.4-2.7-0.7-5.4c0.4-1.8,2.7-2.8,4.2-3.7c2.3-1.4,4.9-3.7,7.8-4.1c0.4-0.1,2.3-1.8,1.7-1.9c0,0-6.3-20.3-21-38.9
			C1126.7,2152.6,1105.4,2147.6,1104.3,2147.4z"/>
	</g>
	<g id="assets_2_">
		<g id="torso_x5F_34down_2_">
			<g id="XMLID_19_">
				<g>
					<path fill="#604222" d="M1162.4,2210.2c-3.7-0.1-8.5,3.4-11.4,5.3c-0.8,0.5-1.9,1.1-2.7,1.9c-2.1-0.9-4-2-5.9-3.3
						c-5.9-3.9-11.1-8.9-17.3-12.2c-4.1-2.2-8.7-3.7-12.8-5.9c-2.6-1.4-5.1-3.1-6.9-5.4c-2-2.6-3-5.9-3.6-9.2
						c-0.8-3.8-1.2-7.8-1.1-11.7c0.5-0.9,0.9-1.9,1.2-2.8c2.1-5.2,4.8-14.1,2.4-19.6c1.1,0.2,22.4,5.2,37.1,23.9
						C1156.1,2189.9,1162.4,2210.2,1162.4,2210.2z"/>
					<path fill="#49301C" d="M1085.5,2186.8c7.9-6.6,13.4-14,15.8-22.3c1.3-4.6,3.9-11.8,1.9-16.5c-0.2-0.4,0.9-0.9,1.1-0.6
						c2.3,5.5-0.4,14.4-2.4,19.6c-0.4,0.9-0.8,1.9-1.2,2.8c-3.3,6.8-8.6,13.6-14.8,17.4c-0.3,0.2-0.6,0.3-0.7,0.3
						C1084.9,2187.5,1085,2187.2,1085.5,2186.8z"/>
					<path fill="#734E27" d="M1125.1,2201.9c6.2,3.4,11.4,8.3,17.3,12.2c1.8,1.2,3.8,2.3,5.9,3.3c-0.3,0.3-0.6,0.6-0.8,1
						c-1.8,2.8-0.2,5.3,0.5,8.1c0,0.1,1.4,3.6,1.9,3.6c-1.3,0.3-27.5,5.4-42.4-7.6c-15.1-13.1-22.1-34.3-22.3-35
						c0.1,0,0.4-0.1,0.7-0.3c6.2-3.8,11.6-10.7,14.8-17.4c0,3.9,0.4,7.8,1.1,11.7c0.7,3.3,1.6,6.5,3.6,9.2c1.8,2.3,4.3,4,6.9,5.4
						C1116.5,2198.2,1121,2199.7,1125.1,2201.9z"/>
					<path fill="#49301C" d="M1152.9,2216.1c-1.5,0.9-3.8,1.9-4.2,3.7c-0.6,2.7,0.1,2.8,0.7,5.4c0.1,0.3,0.8,4.6,0.4,4.8
						c0,0,0,0,0,0c-0.5-0.1-1.8-3.5-1.9-3.6c-0.7-2.8-2.3-5.3-0.5-8.1c0.2-0.3,0.5-0.7,0.8-1c0.8-0.8,1.9-1.4,2.7-1.9
						c3-1.9,7.7-5.4,11.4-5.3c0.5,0-1.3,1.8-1.7,1.9C1157.8,2212.4,1155.2,2214.7,1152.9,2216.1z"/>
				</g>
			</g>
		</g>
	</g>
</g>
<g id="ch04-02-2_safe_copy" display="none">
	<g id="mainComp_x5F_paths-back-up_copy">
		<g id="eye_x5F_close_x5F_comp_copy_2_1_" display="inline">
		</g>
		<g id="eye_x5F_far_x5F_comp_copy_2_1_" display="inline">
		</g>
	</g>
	<g id="mainComp_copy" display="inline">
		<g id="eye_x5F_close_x5F_comp_copy_2">
		</g>
		<g id="eye_x5F_far_x5F_comp_copy_2">
		</g>
	</g>
	<g id="eye_x5F_close_copy" display="inline">
	</g>
	<g id="eye_x5F_far_copy" display="inline">
	</g>
	<g id="pupil_copy" display="inline">
	</g>
</g>
<g id="ch04-02-1">
	<g id="mainComp_x5F_paths-back-up" display="none">
		<g id="eye_x5F_close_x5F_comp_copy" display="inline">
		</g>
		<g id="eye_x5F_far_x5F_comp_copy" display="inline">
		</g>
	</g>
	<g id="mainComp">
		<g id="eye_x5F_close_x5F_comp">
		</g>
		<g id="eye_x5F_far_x5F_comp">
		</g>
	</g>
	<g id="eye_x5F_close_copy_2">
	</g>
	<g id="eye_x5F_close">
	</g>
	<g id="eye_x5F_far_copy_2">
	</g>
	<g id="eye_x5F_far">
	</g>
	<g id="pupil_copy_2">
	</g>
	<g id="pupil_4_">
	</g>
</g>
<g id="ch05-07-1">
	<g id="main_x5F_comp_1_">
		<g id="hand_washing_copy">
		</g>
	</g>
	<g id="assets">
	</g>
	<g id="hand_washing">
	</g>
</g>
</svg>
