<?xml version="1.0" encoding="utf-8"?>
<!-- Generator: Adobe Illustrator 18.1.1, SVG Export Plug-In . SVG Version: 6.00 Build 0)  -->
<svg version="1.1" xmlns="http://www.w3.org/2000/svg" xmlns:xlink="http://www.w3.org/1999/xlink" x="0px" y="0px"
	 viewBox="1384.6 929.5 135.6 182.6" enable-background="new 1384.6 929.5 135.6 182.6" xml:space="preserve">
<g id="additional_reference">
</g>
<g id="ch07-09-1">
</g>
<g id="ch04-05-1">
</g>
<g id="ch04-11-2">
</g>
<g id="ch04-06-1">
	<g id="older_version">
		<g id="head_3_" display="none">
			<g id="hair_3_">
			</g>
		</g>
		<g id="hands" display="none">
		</g>
		<g id="head_4_" display="none">
		</g>
		<g id="new_path" display="none">
		</g>
		<g id="handback" display="none">
		</g>
		<g id="handFront">
		</g>
		<g id="Layer_21" display="none">
		</g>
	</g>
	<g id="path_copy-with_stroke">
		<g id="handBack_copy">
		</g>
		<g id="head_copy">
		</g>
		<g id="neck_copy">
		</g>
		<g id="sleeve_copy">
		</g>
		<g id="handFront_copy">
		</g>
		<g id="skirt_copy">
		</g>
		<g id="torso_copy">
		</g>
	</g>
	<g id="comp_layer">
		<g id="skirt_copy_3">
			<g id="skirt_copy_3_2_">
			</g>
			<g id="skirt_copy_3_1_">
			</g>
		</g>
		<g id="torso_copy_2">
		</g>
		<g id="sleeve_copy_2">
		</g>
		<g id="neck_5_">
		</g>
		<g id="head_copy_2">
			<g id="head-silo_copy">
			</g>
		</g>
		<g id="head_copy_3">
			<g id="head-silo_copy_2">
			</g>
		</g>
		<g id="handFront_copy_2">
		</g>
		<g id="handBack_copy_2">
		</g>
	</g>
	<g id="skirt_5_">
		<g id="skirt_4_">
		</g>
		<g id="skirt_copy_2">
		</g>
	</g>
	<g id="torso_copy_3">
	</g>
	<g id="sleeve">
	</g>
	<g id="neck_6_">
	</g>
	<g id="handBack">
	</g>
	<g id="handFront_1_">
	</g>
</g>
<g id="ch04-03-2">
</g>
<g id="ch04-02-2_safe_copy" display="none">
	<g id="mainComp_x5F_paths-back-up_copy">
		<g id="eye_x5F_close_x5F_comp_copy_2_1_" display="inline">
		</g>
		<g id="eye_x5F_far_x5F_comp_copy_2_1_" display="inline">
		</g>
	</g>
	<g id="mainComp_copy" display="inline">
		<g id="eye_x5F_close_x5F_comp_copy_2">
		</g>
		<g id="eye_x5F_far_x5F_comp_copy_2">
		</g>
	</g>
	<g id="eye_x5F_close_copy" display="inline">
	</g>
	<g id="eye_x5F_far_copy" display="inline">
	</g>
	<g id="torso_x2B_sleeves_1_" display="inline">
		<g id="torso_4_">
			<path d="M1506.7,1083.9c-2.4-12.8-2.3-25.6-0.8-38.5c1.1-9.8,4-19.4,6.1-29c4-18,10.7-38.4,7-56.9c-1.5-7.4-7.2-10.5-13.9-12.9
				c-5.4-2-10.5-4.6-15.8-6.6c-7-2.6-14.4-4.6-21.7-6.4c-9.4-2.3-19.2-4.3-28.9-3.9c-2.6,0.1-6.5,0.1-9.1,1.4c-0.1,0-0.2,0-0.3,0.1
				c0,0,0,0-0.1,0.1c-0.3,0.2-0.6,0.3-0.8,0.5c-0.3,0.2-0.7,0.4-1,0.7c-6,4.7-11.4,9.5-18.5,12.3c-6.4,2.6-16,3.9-20.7,9.2
				c-2.7,3-3.9,6.9-3,10.9c1.3,6.2,3.7,12.4,5.6,18.5c4,12.9,7.3,25.8,9.8,39.1c1.5,7.7,2.6,15.5,3.7,23.3c1,6.7,1.8,13.5,2.4,20.3
				c0.5,5.1,1.6,10.6,0.9,15.8c-0.6,4.6-3.7,9.5-5.1,14.1c-0.5,1.8-2.4,5.5-0.7,7.1c0.7,0.7,1.3,0.5,2.2,0.5c2.5,0,5.4-1.3,8-1.6
				c6-0.7,12.1-0.7,18.1-0.2c9.3,0.7,17.8,2.9,26.6,5.4c11.3,3.2,24.2,4.8,36,4.5c6.2-0.2,12.3-1.7,17.5-5.3
				c2.6-1.8,2.6-3.8,1.8-6.6C1510.2,1094.4,1507.8,1089.6,1506.7,1083.9z"/>
			<g id="torso_8_">
				<g>
					<path d="M1518.9,959.6c3.7,18.6-3,38.9-7,56.9c-2.1,9.6-4.9,19.2-6.1,29c-1.5,12.9-1.6,25.7,0.8,38.5
						c1.1,5.6,3.5,10.4,5.2,15.8c0.9,2.8,0.8,4.8-1.8,6.6c-5.2,3.6-11.3,5.2-17.5,5.3c-11.7,0.3-24.7-1.3-36-4.5
						c-8.8-2.5-17.4-4.8-26.6-5.4c-6-0.4-12.1-0.5-18.1,0.2c-2.6,0.3-5.5,1.6-8,1.6c-0.9,0-1.5,0.3-2.2-0.5
						c-1.7-1.6,0.2-5.3,0.7-7.1c1.4-4.5,4.5-9.5,5.1-14.1c0.6-5.1-0.5-10.7-0.9-15.8c-0.7-6.8-1.4-13.5-2.4-20.3
						c-1.1-7.8-2.2-15.6-3.7-23.3c-2.5-13.2-5.8-26.2-9.8-39.1c-1.9-6.1-4.3-12.3-5.6-18.5c-0.8-4,0.3-7.9,3-10.9
						c4.8-5.3,14.3-6.6,20.7-9.2c7.1-2.8,12.5-7.6,18.5-12.3c-0.5,0.5,0.2,2.1,0.7,1.9c0,0,0,0,0,0c-2.2,1.7-4.5,3.5-6.7,5.2
						c-6.5,5.1-13.3,7.8-21.2,10.5c-9.1,3.1-16.2,6.9-13,17.9c6.4,22.2,13.2,43.9,16.5,66.9c1.3,9.2,2.8,18.5,3.7,27.8
						c0.5,4.4,1,8.9,1.2,13.4c0.1,2.8,0.6,6.1-0.3,8.8c-1.7,5-4.4,9.7-5.5,14.9c-0.6,2.9,1,1.7,3.2,1.2c3.1-0.7,6.3-1.1,9.5-1.3
						c10.8-0.7,21.8,0.4,32.3,2.9c15.6,3.9,32.1,8.9,48.5,6.9c3.5-0.4,6.8-1.6,9.9-3.2c3-1.5,5.1-2.4,4.6-6.2c-0.3-2-1.4-4.2-2.2-6
						c-3.7-9.1-4.8-19.3-5.1-29.2c-0.5-20.2,5.1-39.3,9.3-58.8c1.4-6.4,2.9-12.8,4.1-19.3c1.1-5.7,2-11.8,1.8-17.7
						c-0.3-5.9-0.2-12.7-5.3-16.6c-3.4-2.6-7.6-3.8-11.6-5.3c-4.8-1.8-9.3-4.3-14.2-6c-0.8-0.3-1.6-0.6-2.5-0.8
						c-0.1-0.2-0.2-0.3-0.3-0.4c-0.5-0.7-1.5-0.8-1.3-0.1c-10.8-3.5-22-6.3-33.2-7.7c-5.8-0.7-12.1-1.2-17.8,0.2
						c-0.6,0.2-1.4,0.3-2.1,0.6c0.1-0.1,0.2-0.3,0.3-0.4c0.4-0.5-0.5-1.5-1.1-1.5c2.7-1.3,6.6-1.3,9.1-1.4
						c9.7-0.4,19.5,1.6,28.9,3.9c7.3,1.8,14.7,3.8,21.7,6.4c5.4,2,10.4,4.6,15.8,6.6C1511.7,949,1517.5,952.1,1518.9,959.6z"/>
					<path fill="#C1C18A" d="M1513.4,952.6c5.1,3.9,5.1,10.7,5.3,16.6c0.3,5.9-0.7,11.9-1.8,17.7c-1.2,6.4-2.7,12.9-4.1,19.3
						c-4.2,19.5-9.8,38.6-9.3,58.8c0.2,9.8,1.3,20.1,5.1,29.2c0.8,1.8,1.9,4.1,2.2,6c0.5,3.8-1.6,4.7-4.6,6.2
						c-3.1,1.6-6.4,2.7-9.9,3.2c-16.3,2.1-32.8-3-48.5-6.9c-10.5-2.6-21.5-3.6-32.3-2.9c-3.2,0.2-6.4,0.6-9.5,1.3
						c-2.2,0.5-3.8,1.7-3.2-1.2c1-5.2,3.8-9.9,5.5-14.9c0.9-2.7,0.5-5.9,0.3-8.8c-0.2-4.5-0.8-8.9-1.2-13.4
						c-0.9-9.3-2.4-18.5-3.7-27.8c-3.3-22.9-10.1-44.7-16.5-66.9c-3.2-11,3.9-14.8,13-17.9c7.9-2.7,14.7-5.4,21.2-10.5
						c2.2-1.7,4.4-3.5,6.7-5.2c-0.2,2.9,1.2,6.4,2.1,8.4c1.7,3.8,3.6,7.1,6.7,9.9c5.1,4.7,11.9,9.2,18.5,11.4
						c8.4,2.8,17.1,5.2,23.4,11.8c0.2,0.2,0.8,0.6,1.1,0.3c10-9.1,13-24.4,5.3-35.8c0.8,0.3,1.6,0.5,2.5,0.8c4.9,1.7,9.4,4.2,14.2,6
						C1505.7,948.8,1509.9,950,1513.4,952.6z"/>
					<path d="M1485.1,940.5c7.7,11.4,4.7,26.7-5.3,35.8c-0.3,0.3-0.9-0.1-1.1-0.3c-6.3-6.6-15-9-23.4-11.8
						c-6.5-2.2-13.4-6.7-18.5-11.4c-3.1-2.8-5-6.1-6.7-9.9c-0.9-2-2.3-5.5-2.1-8.4c0,0,0,0,0,0c0,0,0.1-0.1,0.1-0.1
						c0.5-0.6,1.3-0.9,2.1-1.2c-2.6,3.9,1.9,11.7,3.6,14.5c2.1,3.6,5.7,6.4,9.2,8.7c3.5,2.4,7.5,4.9,11.5,6.3
						c2.4,0.8,4.9,1.4,7.3,2.3c6.1,2.2,12.2,5.1,16.8,9.7c-0.1,0.1-0.2,0.3-0.4,0.4c0.4,0.1,0.7,0.2,1.1,0.3
						c-0.2-0.2-0.5-0.5-0.7-0.7c9.1-8.7,12.5-23.4,4.9-34.2c-0.1-0.2-0.2-0.3-0.2-0.4C1484,940.2,1484.6,940.3,1485.1,940.5z"/>
					<path d="M1484.8,940.1c0.1,0.2,0.2,0.3,0.3,0.4c-0.5-0.2-1.1-0.3-1.6-0.5C1483.3,939.3,1484.3,939.4,1484.8,940.1z"/>
					<path fill="#734E27" d="M1483.7,940.4c7.6,10.8,4.2,25.5-4.9,34.2c-4.7-4.6-10.7-7.5-16.8-9.7c-2.4-0.9-4.9-1.4-7.3-2.3
						c-4-1.4-8-3.9-11.5-6.3c-3.5-2.4-7.1-5.1-9.2-8.7c-1.7-2.8-6.2-10.6-3.6-14.5c0.7-0.3,1.5-0.4,2.1-0.6c5.8-1.4,12-0.9,17.8-0.2
						c11.2,1.4,22.4,4.2,33.2,7.7C1483.5,940.1,1483.6,940.3,1483.7,940.4z"/>
					<path d="M1478.8,974.6c0.2,0.2,0.5,0.5,0.7,0.7c-0.4-0.1-0.7-0.2-1.1-0.3C1478.5,974.8,1478.7,974.7,1478.8,974.6z"/>
					<path d="M1429.6,931.2c0.6,0,1.5,1.1,1.1,1.5c-0.1,0.1-0.2,0.3-0.3,0.4c-0.8,0.3-1.6,0.7-2.1,1.2c0.3-0.2,0.2-0.8,0.1-1.2
						c0.2-0.6,0.4-1.2,0.9-1.7C1429.3,931.3,1429.4,931.3,1429.6,931.2z"/>
					<path d="M1429.6,931.2c-0.1,0.1-0.3,0.1-0.4,0.2c0,0,0-0.1,0.1-0.1C1429.3,931.2,1429.4,931.2,1429.6,931.2z"/>
					<path d="M1428.4,931.9c0.3-0.2,0.5-0.4,0.8-0.5c-0.4,0.5-0.7,1.1-0.9,1.7c-0.2-0.5-0.6-0.8-0.9-0.6
						C1427.7,932.3,1428.1,932.2,1428.4,931.9z"/>
					<path d="M1428.3,933.2c0.2,0.4,0.2,1-0.1,1.2c0,0-0.1,0.1-0.1,0.1c0,0,0,0,0,0C1428.1,934,1428.2,933.6,1428.3,933.2z"/>
					<path d="M1428.3,933.2c-0.1,0.4-0.2,0.8-0.2,1.3c-0.6,0.2-1.2-1.4-0.7-1.9C1427.8,932.3,1428.1,932.7,1428.3,933.2z"/>
					<path d="M1428.1,934.4C1428.1,934.5,1428.1,934.5,1428.1,934.4C1428.1,934.5,1428.1,934.5,1428.1,934.4
						C1428.1,934.5,1428.1,934.4,1428.1,934.4z"/>
				</g>
			</g>
		</g>
	</g>
	<g id="pupil_copy" display="inline">
	</g>
</g>
<g id="ch04-02-1">
	<g id="mainComp_x5F_paths-back-up" display="none">
		<g id="eye_x5F_close_x5F_comp_copy" display="inline">
		</g>
		<g id="eye_x5F_far_x5F_comp_copy" display="inline">
		</g>
	</g>
	<g id="mainComp">
		<g id="eye_x5F_close_x5F_comp">
		</g>
		<g id="eye_x5F_far_x5F_comp">
		</g>
	</g>
	<g id="eye_x5F_close_copy_2">
	</g>
	<g id="eye_x5F_close">
	</g>
	<g id="eye_x5F_far_copy_2">
	</g>
	<g id="eye_x5F_far">
	</g>
	<g>
		<path fill="#ADAB5C" d="M1512,1016.5c4-18,10.7-38.4,7-56.9c-1.5-7.4-7.2-10.5-13.9-12.9c-5.4-2-10.5-4.6-15.8-6.6
			c-7-2.6-14.4-4.6-21.7-6.4c-9.4-2.3-19.2-4.3-28.9-3.9c-1.3,0-2.9,0.1-4.6,0.3c-0.2,0-0.3,0-0.5,0.1c-0.1,0-0.3,0-0.4,0.1
			c-0.9,0.1-1.8,0.3-2.6,0.6c-0.1,0-0.3,0.1-0.4,0.2c-0.1,0-0.1,0-0.2,0.1c-0.2,0.1-0.3,0.1-0.5,0.2l0,0c-0.1,0-0.2,0-0.3,0.1
			c0,0,0,0-0.1,0.1l0,0c-0.1,0.1-0.2,0.1-0.3,0.2c-0.2,0.1-0.4,0.2-0.5,0.3c-0.3,0.2-0.7,0.4-1,0.7c-6,4.7-11.4,9.5-18.5,12.3
			c-6.4,2.6-16,3.9-20.7,9.2c-2.7,3-3.9,6.9-3,10.9c1.3,6.2,3.7,12.4,5.6,18.5c4,12.9,7.3,25.8,9.8,39.1c1.5,7.7,2.6,15.5,3.7,23.3
			c1,6.7,1.8,13.5,2.4,20.3c0.5,5.1,1.6,10.6,0.9,15.8c-0.6,4.6-3.7,9.5-5.1,14.1c-0.5,1.8-2.4,5.5-0.7,7.1c0.7,0.7,1.3,0.5,2.2,0.5
			c2.5,0,5.4-1.3,8-1.6c6-0.7,12.1-0.7,18.1-0.2c9.3,0.7,17.8,2.9,26.6,5.4c11.3,3.2,24.2,4.8,36,4.5c6.2-0.2,12.3-1.7,17.5-5.3
			c2.6-1.8,2.6-3.8,1.8-6.6c-1.7-5.4-4.1-10.2-5.2-15.8c-2.4-12.8-2.3-25.6-0.8-38.5C1507,1035.7,1509.9,1026.1,1512,1016.5z"/>
	</g>
	<g id="torso_x2B_sleeves_2_">
		<g id="sleeve_far_4_">
			<g id="torso_3_">
				<g>
					<path fill="#ADAB5C" d="M1430.7,930.8c-0.1,0-0.3,0.1-0.4,0.2C1430.4,930.9,1430.5,930.8,1430.7,930.8z"/>
					<path fill="#ADAB5C" d="M1434.1,930.1c-0.2,0-0.3,0-0.5,0.1C1433.8,930.1,1434,930.1,1434.1,930.1z"/>
					<path fill="#ADAB5C" d="M1429.2,931.4c-0.4,0.5-0.7,1.1-0.9,1.7c-0.2-0.5-0.6-0.8-0.9-0.6c0.3-0.3,0.7-0.4,1-0.7
						c0.2-0.1,0.3-0.3,0.5-0.3C1429,931.5,1429.1,931.5,1429.2,931.4z"/>
					<path fill="#ADAB5C" d="M1429.2,931.4c-0.1,0.1-0.2,0.1-0.3,0.2C1429,931.5,1429.1,931.5,1429.2,931.4z"/>
					<path fill="#ADAB5C" d="M1429.6,931.2c0.6,0.1,1.5,1.1,1.1,1.5c-0.1,0.1-0.2,0.3-0.3,0.4c-0.8,0.3-1.6,0.7-2.1,1.2
						c0.3-0.2,0.2-0.8,0.1-1.2c0.2-0.6,0.4-1.2,0.9-1.7l0,0C1429.3,931.3,1429.4,931.3,1429.6,931.2L1429.6,931.2z"/>
					<path d="M1428.9,931.6c-0.2,0.1-0.4,0.2-0.5,0.3C1428.5,931.8,1428.7,931.7,1428.9,931.6z"/>
					<path fill="#ADAB5C" d="M1430,931c-0.2,0.1-0.3,0.1-0.5,0.2C1429.7,931.1,1429.9,931.1,1430,931z"/>
					<path fill="#ADAB5C" d="M1407.6,1081.9c0.6-5.1-0.5-10.7-0.9-15.8c-0.7-6.8-1.4-13.5-2.4-20.3c-1.1-7.8-2.2-15.6-3.7-23.3
						c-2.5-13.2-5.8-26.2-9.8-39.1c-1.9-6.1-4.3-12.3-5.6-18.5c-0.8-4,0.3-7.9,3-10.9c4.8-5.3,14.3-6.6,20.7-9.2
						c7.1-2.8,12.5-7.6,18.5-12.3c-0.5,0.5,0.2,2.1,0.7,1.9c0,0,0,0,0,0c-2.2,1.7-4.5,3.5-6.7,5.2c-6.5,5.1-13.3,7.8-21.2,10.5
						c-9.1,3.1-16.2,6.9-13,17.9c6.4,22.2,13.2,43.9,16.5,66.9c1.3,9.2,2.8,18.5,3.7,27.8c0.5,4.4,1,8.9,1.2,13.4
						c0.1,2.8,0.6,6.1-0.3,8.8c-1.7,5-4.4,9.7-5.5,14.9c-0.6,2.9,1,1.7,3.2,1.2c3.1-0.7,6.3-1.1,9.5-1.3c10.8-0.7,21.8,0.4,32.3,2.9
						c15.6,3.9,32.1,8.9,48.5,6.9c3.5-0.4,6.8-1.6,9.9-3.2c3-1.5,5.1-2.4,4.6-6.2c-0.3-2-1.4-4.2-2.2-6c-3.7-9.1-4.8-19.3-5.1-29.2
						c-0.5-20.2,5.1-39.3,9.3-58.8c1.4-6.4,2.9-12.8,4.1-19.3c1.1-5.7,2-11.8,1.8-17.7c-0.3-5.9-0.2-12.7-5.3-16.6
						c-3.4-2.6-7.6-3.8-11.6-5.3c-4.8-1.8-9.3-4.3-14.2-6c-0.8-0.3-1.6-0.6-2.5-0.8c-0.1-0.2-0.2-0.3-0.3-0.4
						c-0.5-0.7-1.5-0.8-1.3-0.1c-10.8-3.5-22-6.3-33.2-7.7c-5.8-0.7-12.1-1.2-17.8,0.2c-0.6,0.2-1.4,0.3-2.1,0.6
						c0.1-0.1,0.2-0.3,0.3-0.4c0.4-0.5-0.5-1.5-1.1-1.5c0.2-0.1,0.3-0.1,0.5-0.2c0.1,0,0.1-0.1,0.2-0.1c0.1-0.1,0.3-0.1,0.4-0.2
						c0.8-0.3,1.7-0.5,2.6-0.6c0.1,0,0.3,0,0.4-0.1c0.1,0,0.3,0,0.5-0.1c1.6-0.2,3.3-0.2,4.6-0.3c9.7-0.4,19.5,1.6,28.9,3.9
						c7.3,1.8,14.7,3.8,21.7,6.4c5.4,2,10.4,4.6,15.8,6.6c6.6,2.4,12.4,5.5,13.9,12.9c3.7,18.6-3,38.9-7,56.9
						c-2.1,9.6-4.9,19.2-6.1,29c-1.5,12.9-1.6,25.7,0.8,38.5c1.1,5.6,3.5,10.4,5.2,15.8c0.9,2.8,0.8,4.8-1.8,6.6
						c-5.2,3.6-11.3,5.2-17.5,5.3c-11.7,0.3-24.7-1.3-36-4.5c-8.8-2.5-17.4-4.8-26.6-5.4c-6-0.4-12.1-0.5-18.1,0.2
						c-2.6,0.3-5.5,1.6-8,1.6c-0.9,0-1.5,0.3-2.2-0.5c-1.7-1.6,0.2-5.3,0.7-7.1C1403.9,1091.5,1407,1086.5,1407.6,1081.9z"/>
					<path d="M1433.7,930.1c-0.1,0-0.3,0-0.4,0.1C1433.4,930.1,1433.5,930.1,1433.7,930.1z"/>
					<path fill="#C1C18A" d="M1513.4,952.6c5.1,3.9,5.1,10.7,5.3,16.6c0.3,5.9-0.7,11.9-1.8,17.7c-1.2,6.4-2.7,12.9-4.1,19.3
						c-4.2,19.5-9.8,38.6-9.3,58.8c0.2,9.8,1.3,20.1,5.1,29.2c0.8,1.8,1.9,4.1,2.2,6c0.5,3.8-1.6,4.7-4.6,6.2
						c-3.1,1.6-6.4,2.7-9.9,3.2c-16.3,2.1-32.8-3-48.5-6.9c-10.5-2.6-21.5-3.6-32.3-2.9c-3.2,0.2-6.4,0.6-9.5,1.3
						c-2.2,0.5-3.8,1.7-3.2-1.2c1-5.2,3.8-9.9,5.5-14.9c0.9-2.7,0.5-5.9,0.3-8.8c-0.2-4.5-0.8-8.9-1.2-13.4
						c-0.9-9.3-2.4-18.5-3.7-27.8c-3.3-22.9-10.1-44.7-16.5-66.9c-3.2-11,3.9-14.8,13-17.9c7.9-2.7,14.7-5.4,21.2-10.5
						c2.2-1.7,4.4-3.5,6.7-5.2c-0.2,2.9,1.2,6.4,2.1,8.4c1.7,3.8,3.6,7.1,6.7,9.9c5.1,4.7,11.9,9.2,18.5,11.4
						c8.4,2.8,17.1,5.2,23.4,11.8c0.2,0.2,0.8,0.6,1.1,0.3c10-9.1,13-24.4,5.3-35.8c0.8,0.3,1.6,0.5,2.5,0.8c4.9,1.7,9.4,4.2,14.2,6
						C1505.7,948.8,1509.9,950,1513.4,952.6z"/>
					<path fill="#ADAB5C" d="M1485.1,940.5c7.7,11.4,4.7,26.7-5.3,35.8c-0.3,0.3-0.9-0.1-1.1-0.3c-6.3-6.6-15-9-23.4-11.8
						c-6.5-2.2-13.4-6.7-18.5-11.4c-3.1-2.8-5-6.1-6.7-9.9c-0.9-2-2.3-5.5-2.1-8.4c0,0,0,0,0,0c0,0,0.1-0.1,0.1-0.1
						c0.5-0.6,1.3-0.9,2.1-1.2c-2.6,3.9,1.9,11.7,3.6,14.5c2.1,3.6,5.7,6.4,9.2,8.7c3.5,2.4,7.5,4.9,11.5,6.3
						c2.4,0.8,4.9,1.4,7.3,2.3c6.1,2.2,12.2,5.1,16.8,9.7c-0.1,0.1-0.2,0.3-0.4,0.4c0.4,0.1,0.7,0.2,1.1,0.3
						c-0.2-0.2-0.5-0.5-0.7-0.7c9.1-8.7,12.5-23.4,4.9-34.2c-0.1-0.2-0.2-0.3-0.2-0.4C1484,940.2,1484.6,940.3,1485.1,940.5z"/>
					<path fill="#ADAB5C" d="M1484.8,940.1c0.1,0.2,0.2,0.3,0.3,0.4c-0.5-0.2-1.1-0.3-1.6-0.5
						C1483.3,939.3,1484.3,939.4,1484.8,940.1z"/>
					<path fill="#734E27" d="M1483.7,940.4c7.6,10.8,4.2,25.5-4.9,34.2c-4.7-4.6-10.7-7.5-16.8-9.7c-2.4-0.9-4.9-1.4-7.3-2.3
						c-4-1.4-8-3.9-11.5-6.3c-3.5-2.4-7.1-5.1-9.2-8.7c-1.7-2.8-6.2-10.6-3.6-14.5c0.7-0.3,1.5-0.4,2.1-0.6c5.8-1.4,12-0.9,17.8-0.2
						c11.2,1.4,22.4,4.2,33.2,7.7C1483.5,940.1,1483.6,940.3,1483.7,940.4z"/>
					<path fill="#ADAB5C" d="M1478.8,974.6c0.2,0.2,0.5,0.5,0.7,0.7c-0.4-0.1-0.7-0.2-1.1-0.3
						C1478.5,974.8,1478.7,974.7,1478.8,974.6z"/>
					<path fill="#ADAB5C" d="M1429.6,931.2c-0.1,0.1-0.3,0.1-0.4,0.2c0,0,0-0.1,0.1-0.1C1429.3,931.2,1429.4,931.2,1429.6,931.2z"/>
					<path fill="#ADAB5C" d="M1428.3,933.2c0.2,0.4,0.2,1-0.1,1.2c0,0-0.1,0.1-0.1,0.1c0,0,0,0,0,0
						C1428.1,934,1428.2,933.6,1428.3,933.2z"/>
					<path fill="#ADAB5C" d="M1428.3,933.2c-0.1,0.4-0.2,0.8-0.2,1.3c-0.6,0.2-1.2-1.4-0.7-1.9
						C1427.8,932.3,1428.1,932.7,1428.3,933.2z"/>
					<path fill="#ADAB5C" d="M1428.1,934.4C1428.1,934.5,1428.1,934.5,1428.1,934.4C1428.1,934.5,1428.1,934.5,1428.1,934.4
						C1428.1,934.5,1428.1,934.4,1428.1,934.4z"/>
				</g>
			</g>
		</g>
	</g>
	<g id="pupil_copy_2">
	</g>
	<g id="pupil_4_">
	</g>
</g>
<g id="ch05-07-1">
	<g id="main_x5F_comp_1_">
		<g id="hand_washing_copy">
		</g>
	</g>
	<g id="assets">
	</g>
	<g id="hand_washing">
	</g>
</g>
</svg>
