<?xml version="1.0" encoding="utf-8"?>
<!-- Generator: Adobe Illustrator 18.1.1, SVG Export Plug-In . SVG Version: 6.00 Build 0)  -->
<!DOCTYPE svg PUBLIC "-//W3C//DTD SVG 1.1//EN" "http://www.w3.org/Graphics/SVG/1.1/DTD/svg11.dtd">
<svg version="1.1" xmlns="http://www.w3.org/2000/svg" xmlns:xlink="http://www.w3.org/1999/xlink" x="0px" y="0px"
	 viewBox="1213.9 729.4 17.7 25.3" enable-background="new 1213.9 729.4 17.7 25.3" xml:space="preserve">
<g id="additional_reference">
</g>
<g id="ch04-05-1">
</g>
<g id="ch04-11-2">
</g>
<g id="ch04-06-1">
	<g id="older_version">
		<g id="head_3_" display="none">
			<g id="hair_3_">
			</g>
		</g>
		<g id="hands" display="none">
		</g>
		<g id="head_4_" display="none">
		</g>
		<g id="new_path" display="none">
		</g>
		<g id="handback" display="none">
		</g>
		<g id="handFront">
		</g>
		<g id="Layer_21" display="none">
		</g>
	</g>
	<g id="path_copy-with_stroke">
		<g id="handBack_copy">
		</g>
		<g id="head_copy">
		</g>
		<g id="neck_copy">
		</g>
		<g id="sleeve_copy">
		</g>
		<g id="handFront_copy">
		</g>
		<g id="skirt_copy">
		</g>
		<g id="torso_copy">
		</g>
	</g>
	<g id="comp_layer" display="none">
		<g id="skirt_copy_3" display="inline">
			<g id="skirt_copy_3_2_">
			</g>
			<g id="skirt_copy_3_1_">
			</g>
		</g>
		<g id="torso_copy_2" display="inline">
		</g>
		<g id="sleeve_copy_2" display="inline">
		</g>
		<g id="neck_5_" display="inline">
		</g>
		<g id="head_copy_2" display="inline">
			<g id="head-silo_copy">
			</g>
		</g>
		<g id="head_copy_3" display="inline">
			<g id="head-silo_copy_2">
			</g>
		</g>
		<g id="handFront_copy_2" display="inline">
		</g>
		<g id="handBack_copy_2" display="inline">
		</g>
	</g>
	<g id="skirt_5_">
		<g id="skirt_4_">
		</g>
		<g id="skirt_copy_2">
		</g>
	</g>
	<g id="torso_copy_3">
	</g>
	<g id="sleeve">
	</g>
	<g id="neck_6_">
	</g>
	<g id="handBack">
	</g>
	<g id="handFront_1_">
	</g>
</g>
<g id="ch04-03-2">
</g>
<g id="ch04-02-1">
	<g id="mainComp_x5F_paths-back-up" display="none">
		<g id="eye_x5F_close_x5F_comp_copy" display="inline">
		</g>
		<g id="eye_x5F_far_x5F_comp_copy" display="inline">
		</g>
	</g>
	<g id="mainComp">
		<g id="eye_x5F_close_x5F_comp">
		</g>
		<g id="eye_x5F_far_x5F_comp">
		</g>
	</g>
	<g id="eye_x5F_close">
	</g>
	<g id="eye_x5F_far">
		<g>
			<path fill="#734E27" d="M1230.7,747.7c-0.6-0.1-0.6,0-0.6-0.2c0.5-2.5,0.5-4.4-0.7-6.8c-0.3-0.5-1.2,0.3-0.9,0.8
				c1.7,2.5,1.3,4.9,0.7,6.2c-4.5,1.1-8.9,0.9-13.2-0.7c0.8-2.5,2-5.8,4.5-6.8c0.4-0.2,1.4-1.8,0.8-1.5c-1.5,0.6-2.7,1.7-3.7,3
				c-0.4,0.2-3.4,2.6-3.4,2.6c-0.2,0.8-0.3,1.7-0.2,2.6c-0.3,0.1-0.1,0.3,0,0.4c0.1,0,0.2,0.1,0.3,0.1c0.3,1.6,0.4,4.4,0.6,4.8
				c1.8,2.7,5.4,2.7,10.5,2.5c2.2-0.1,3.9-1,4.1-1.8c0.3-1,0.5-3.9,0.4-4.8v0c0.1,0,0.3,0,0.4-0.1
				C1230.7,748,1231,747.8,1230.7,747.7z"/>
			<path d="M1230.7,747.7c-0.6-0.1-0.6,0-0.6-0.2c0.5-2.5,0.5-4.4-0.7-6.8c-0.3-0.5-1.2,0.3-0.9,0.8c1.7,2.5,1.3,4.9,0.7,6.2
				c-4.5,1.1-8.9,0.9-13.2-0.7c0.8-2.5,2-5.8,4.5-6.8c0.4-0.2,1.4-1.8,0.8-1.5c-1.5,0.6-2.7,1.7-3.7,3c-0.3,0.4-0.6,0.8-0.8,1.2
				c-0.5,0.8-0.9,1.7-1.3,2.5c-0.2,0.4-0.4,0.9-0.5,1.3l0,0c0,0,0,0-0.1,0c-0.2,0-0.3,0-0.4,0c-0.1,0-0.1,0-0.2,0.1
				c-0.1,0-0.1,0.1-0.2,0.1c0,0-0.1,0-0.1,0s-0.1,0-0.1,0l0,0c-0.3,0.1-0.1,0.3,0,0.4c0.1,0,0.2,0.1,0.3,0.1c0.1,0,0.1,0,0.2,0.1
				c2.4,1,5,1.4,7.7,1.4c2.6,0.1,5.3-0.3,7.8-0.7c0.1,0,0.3,0,0.4-0.1C1230.7,748,1231,747.8,1230.7,747.7z"/>
		</g>
	</g>
	<g id="pupil_4_">
	</g>
</g>
</svg>
