<?xml version="1.0" encoding="utf-8"?>
<!-- Generator: Adobe Illustrator 18.1.1, SVG Export Plug-In . SVG Version: 6.00 Build 0)  -->
<svg version="1.1" xmlns="http://www.w3.org/2000/svg" xmlns:xlink="http://www.w3.org/1999/xlink" x="0px" y="0px"
	 viewBox="990.4 1904.9 160.3 197.4" enable-background="new 990.4 1904.9 160.3 197.4" xml:space="preserve">
<g id="additional_reference">
</g>
<g id="ch07-09-1">
</g>
<g id="ch04-05-1">
</g>
<g id="ch04-11-2">
</g>
<g id="ch04-06-1">
	<g id="older_version">
		<g id="head_3_" display="none">
			<g id="hair_3_">
			</g>
		</g>
		<g id="hands" display="none">
		</g>
		<g id="head_4_" display="none">
		</g>
		<g id="new_path" display="none">
		</g>
		<g id="handback" display="none">
		</g>
		<g id="handFront">
		</g>
		<g id="Layer_21" display="none">
		</g>
	</g>
	<g id="path_copy-with_stroke">
		<g id="handBack_copy">
		</g>
		<g id="head_copy">
		</g>
		<g id="neck_copy">
		</g>
		<g id="sleeve_copy">
		</g>
		<g id="handFront_copy">
		</g>
		<g id="skirt_copy">
		</g>
		<g id="torso_copy">
		</g>
	</g>
	<g id="comp_layer">
		<g id="skirt_copy_3">
			<g id="skirt_copy_3_2_">
			</g>
			<g id="skirt_copy_3_1_">
			</g>
		</g>
		<g id="torso_copy_2">
		</g>
		<g id="sleeve_copy_2">
		</g>
		<g id="neck_5_">
		</g>
		<g id="head_copy_2">
			<g id="head-silo_copy">
			</g>
		</g>
		<g id="head_copy_3">
			<g id="head-silo_copy_2">
			</g>
		</g>
		<g id="handFront_copy_2">
		</g>
		<g id="handBack_copy_2">
		</g>
	</g>
	<g id="skirt_5_">
		<g id="skirt_4_">
		</g>
		<g id="skirt_copy_2">
		</g>
	</g>
	<g id="torso_copy_3">
	</g>
	<g id="sleeve">
	</g>
	<g id="neck_6_">
	</g>
	<g id="handBack">
	</g>
	<g id="handFront_1_">
	</g>
</g>
<g id="ch04-03-2">
	<g>
		<path fill="#49301C" d="M992.2,1975.1c-1.5,1.2-1.9,6.1,1.7,6.2c-3.1,2.9-1.2,6.6,0.6,8.1c-2.8,0.6-1.3,3.8,0,4
			c-0.9,1.2-0.5,4.6,1.3,5.2c0.2-0.1,0.3-0.5,0.4-0.8c0,3.4,0.9,7.2,1.4,10c1.2,5.9,3.1,12.7,6.6,17.8c1.1,1.7,2.6,2.7,4.2,3.8
			c1.4,0.9,2.6,1.5,3.4,3c0.8,1.3,0.6,3,1.5,4.3c2.3,3.5,6.2,3.3,8.9,1.3c0.8-0.5,1.5-1.2,2-2c1.7,11.5,3.6,25.4,11,34.6
			c9.2,11.4,23.4,16.1,34.7,24.8c4.9,3.8,9.7,6.8,16.1,6.9c5.2,0.1,11-0.4,15.6-3.1c9.2-5.4,13.4-17.6,19.3-25.9
			c4.4-6.2,9.4-12.2,13.2-18.8c3.7-6.3,2.7-13.3,1.1-20.1c7.2-5.9,13.9-15.8,15.2-25.1c0.8-5.6-1-12.5-7.7-10.3
			c0.7-4.3,0.7-8.7,0.5-13.1c-0.2-4.1-0.3-8.3-1.5-12.2c0.6-0.5,1-1.3,1-2.1c-0.5-0.9-1.3-1.8-2.3-2.6c0,0-0.1-0.1-0.1-0.1
			c-0.2-0.1-0.4-0.3-0.7-0.4c2,1,1.3-4.8-0.3-5.8c0.7-2.1,1.1-6.7-1.8-6.8c2-0.2,0.3-4.4-1.9-4.8c1.5-3.3,1.1-8.4-3.2-8.6
			c1.5-3.8-2.1-6.9-6-8.2c0-3.6-2.9-3.9-4.9-5.8c-1.1-1.1-1.4-3-2.8-4.2c-1.5-1.3-3.3-2.2-5.2-2.3c2.5-2.1-1.8-4-3.4-4.4
			c-1-0.2-3,0.3-3.8-0.1c-0.9-0.4-1.4-1.6-2.3-2.1c-1.6-1-6.1-3.8-7-2.1c-2.2-4.8-8.8-7.8-10.2-5.4c-0.8-2.2-4.8-3.9-7-2
			c-0.1,0.5-0.1,0.9,0.2,1.3c-1.3-1.3-3.1-2.2-5-2.2c-2.3,0-2.1,1.3-3.5,1.5c-2.9,0.4-9.4-1.8-10.6,2.6c-2.2-0.4-5.8-1.7-6.9,1.4
			c-3.7-1.2-7.2-1.1-9.7,2.5c-2.1-0.2-8.4-2.8-8.1,2.1c-3.6-1.6-6.5-0.7-6.9,3.8c-2.6-1-5.6,0.7-5.8,3.6c-4-2.9-9.2,0.3-9.7,4.9
			c-2.7-1.2-4.5,1.9-5,4.2c-3.3-0.9-6,3.8-2.8,5.7c-3.4-0.6-4,3.8-3.2,5.7c-2.4,0.8-4.6,4.5-3.4,6.9c-2.7-1.3-2.6,4.7-2.3,6.1
			c-4.2-2.1-6.9,8.2-2.8,10.4C990.8,1966.3,988.6,1973.7,992.2,1975.1z"/>
	</g>
	<g id="assets_2_">
		<g id="torso_x5F_34down_2_">
			<g id="XMLID_19_">
				<g>
					<path fill="#734E27" d="M1148.8,2010.9c-1.5,8.1-7.3,17.3-13.6,22.8c0-0.1,0-0.1,0-0.2v0c0-2.5-0.1-5,0-7.5
						c2.4-3.3,4.5-6.9,6.1-10.6c0.4-0.2,0.9-0.4,1-0.6c1.8-3.9,4.1-8.6,0-11.4c-0.1-0.1-0.2-0.1-0.3,0c0.1-0.4,0.2-0.9,0.3-1.3
						c0.2-0.7,0.3-1.5,0.4-2.2C1149,1998.1,1149.6,2006.6,1148.8,2010.9z"/>
					<path fill="#734E27" d="M1064.8,1966.8c-0.3,0.2-0.6,0.4-0.9,0.5C1064,1967.1,1064.3,1966.9,1064.8,1966.8z"/>
					<path fill="#604222" d="M1011.5,2017.8c-0.4,1-0.5,2.4-0.2,3.8c-3-1.9-5-5-6.8-8.2c0.5-0.2,1.2-0.7,1-0.9
						c-1.6-3.8-2.9-8.3,0.5-11.4c0.5,0.6,1.1,1.2,1.6,1.9c0.7,0.9,1.4,1.7,2.1,2.6c1.7,2.2,3.4,4.5,4.9,6.9c0.8,1.2,1.6,2.3,2.3,3.2
						C1014.8,2014.8,1012.6,2015,1011.5,2017.8z"/>
					<path fill="#49301C" d="M1103.9,2049c-0.3-1.6-1.1-4.9-0.6-10.7l0.4-5.2c0-0.3,0.1-2,0.5-2.2c0.3-0.2,0.4,5,0.4,5.2
						c-0.5,5.7-0.3,6.6,0.4,12.6c0,0.4,0,2-0.1,2.9C1104.8,2051.8,1103.9,2049.2,1103.9,2049z"/>
					<path fill="#604222" d="M1135.2,2026c0.1-2.7,0.5-5.4,1.2-8c1.3-4.5,3.6-8.6,5-13.1c2.9,2.8,1.1,7.3-0.7,10.4
						c-0.1,0.2,0.2,0.2,0.5,0C1139.7,2019.2,1137.6,2022.7,1135.2,2026z"/>
					<path fill="#734E27" d="M1072,2060.9c-0.6,1.7,0.7,3.9,2.2,4.6c2.1,0.9,4.7-0.4,6.9-0.2c0.5,0,1.5-1,1.3-1
						c-3.1-0.2-7.1,2.4-8.9-1.2c-1.4-2.9,7.6-5.7,5.5-5.4c0.4-0.1,1.5-1.1,1.1-1C1077.6,2057.1,1073.1,2057.9,1072,2060.9z
						 M1112.4,2064c-1,0.2-2,0.4-3,0.8c-0.4,0.2-1.7,1.3-0.6,0.9c5.8-2.1,5.7,0.7,7.9-3.1c0.7-1.3,0.1-3.3-0.7-4.5
						c-0.8-1.2-1.6-1.4-3-1.4c-0.2,0-2.3,0.1-2.6,0.3c-0.4,0.3,1.3,0.5,1.7,0.6c1.1,0.2,2.3,0.5,3,1.4c0.7,0.9,0.4,2.6,0.2,3.7
						C1115,2063.8,1113.4,2063.8,1112.4,2064z M1103.9,2049c0,0.2,0.9,2.8,1,2.4c0.1-0.9,0.1-2.4,0.1-2.9c-0.7-6-0.9-6.9-0.4-12.6
						c0-0.1-0.1-5.3-0.4-5.2c-0.4,0.2-0.5,2-0.5,2.2l-0.4,5.2C1102.8,2044.1,1103.6,2047.4,1103.9,2049z M1086.4,2064.5
						c6.1,8,16.2,7.4,21.9-0.6c0.3-0.4-1.3,0.3-1.5,0.6c-4.1,5.7-12.2,7.6-18.3-0.5c-0.1-0.2-1-0.6-1.4-0.3
						C1086.7,2064,1086.3,2064.3,1086.4,2064.5z M1012.7,2025.2c1.6,1.8,3.5,1,5.2-0.1c0.5-0.3,0.6-0.5,0.6-0.6l0.1-0.2
						c-0.7-0.5-1.2-1.3-1.4-2.2c-0.1-0.7,0-1.5,0.6-1.8c0.3-0.1,0.5-0.2,0.8-0.2c0.6,0,1.3,0,1.9,0.1c0.7,1,1.3,2.2,2,3.5
						c0.1,0.3,2.4,4.1,1.6,1.7c-3.1-9-9.1-16.9-15.4-24.2c-0.5-0.6-1-1.1-1.5-1.4c-2.9-2.4-5.3-1.4-7.8,2.3
						c-0.3,0.4,1.3-0.2,1.5-0.6c0.5,0,1-0.1,1.5-0.1c-0.5,0.6-0.8,1.4-0.9,2.1c-0.5,2.4,0.3,4.7,1.4,6.9c0.3,1,0.6,2,1,3
						c0,0.1,0.3,0.1,0.5,0c1.8,3.2,3.8,6.3,6.8,8.2C1011.5,2023,1011.9,2024.4,1012.7,2025.2z M1132.2,1966.8c0.8,0.2,1.7-0.3,2-1.1
						c-0.2,0.9,0.7,1.9,1.6,1.6c0.2,1.8,0.3,3.6,1.3,5c0.4,0.7,1.1,1.2,1.8,1.5c0.4,0.2,0.9,0.3,1.3,0.3c1.5,4.5,1.6,9.6,1.7,14.3
						c0.1,3.8,0,7.7-0.6,11.4c-0.2,1.5-0.6,3-1,4.5c-1.4,5-4.1,9.4-5.5,14.3c-0.9,3-1.2,6.2-1.3,9.3c-0.1,2.1,0,4.2,0,6.2
						c0,0,0,0,0,0s0,0,0,0.1c2.3,9.5,2.2,16.3-3.4,24.5c-4,5.8-8.3,11.4-12.3,17.2c-4,5.9-7,12.8-11.7,18.2c-7,8-20.6,9-29.5,3.7
						c-6.3-3.8-11.8-8.5-18.2-12.1c-7.5-4.3-14.9-7.8-20.8-14.2c-9-9.6-10.3-26.2-12.1-38.6v0c0,0,0-0.1,0-0.1c0-0.1-1,0.2-1.4,0.6
						c0,0-0.1,0-0.1,0.1c0,0,0,0-0.1,0.1c0,0-0.1,0.1-0.1,0.1c0,0,0,0,0,0c-0.4,1.8-1.1,3-2,3.7c-2.3,1.7-5.7,0.2-7.1-1.9
						c-1-1.5-0.9-3.3-1.9-4.8c-1.3-2-4-2.8-5.7-4.5c-4.8-4.6-6.9-13.3-8.2-19.6c-0.7-3.5-1.9-8.2-1.2-11.8c1.2-6.3,7.5-4.2,11.1-1.4
						c1.1,0.9,2.2,1.8,3.2,2.7c1.6,1.8,3.4,4.6,4.5,6.2c1.3,1.9,1.3,1,2.1,2.8c0.6,1.4,1.5,2.1,2.3,3.3c1,2.1,3.2,4.4,2.7,3.2
						c-0.1-0.3-0.3-0.6-0.4-0.9c0.2,0,0.4,0,0.6-0.1c2.9-0.8,1.3-4.4,0.1-6c3-0.2,1.2-5.8,0-7.2c2.1-1,2.6-4.4,1.2-6.2
						c2.2-0.5,1.3-3.9,0.5-5.3c3.7-2.8,2.9-6.4,2.1-10.6c2.1,0.5,3.4-2.2,2.9-4c1.4,0.2,2.5-0.9,2.7-2.3c1.9,0.5,8.3,0.3,7.6-2.8
						c2.3,3.3,7.1,1.1,9.1-1.4c0.9,1.9,3.3,1.2,4.4-0.1c0,2.5,4,1,5.1,0.2c-0.7,2.5,2.2,3,4,2.3c-0.1,0.4,0.1,1,0.5,1.4
						c1.3,1.5,4.1,0,5.3-0.7c1.3,2.4,3.9,1.8,5.5,3.1c1.3,1.1,1,3.4,2.8,4.3c0,0,0,0,0,0c0.1,0,0.3,0.1,0.4,0.2
						c-0.1,0.2-0.1,0.4-0.2,0.6c0.8,1.5,2.8,2.4,4.3,1.7c0.9,2,4,2.4,5.4,0.7c1,2.3,4.6,2.7,6.1,0.7c1.5,0.8,3.5-0.4,3.7-2.1
						c0.8,0.9,2.2,1.2,3.3,0.8c1.1-0.4,2-1.5,2.1-2.8c3.8-0.4,7.3-3.4,8.4-7.2c0.8,1.3,2.5,1.9,4,1.3c1.4-0.6,2.3-2.2,2.1-3.7
						c0.2,1.2,1.6,2,2.7,1.6c1.1-0.4,1.7-2,1.1-3.1c1.3,1.2,3.6,1.1,4.8-0.2c0.6,1.7,3.3,2,4.3,0.6
						C1130.6,1965.7,1131.3,1966.7,1132.2,1966.8z"/>
					<path fill="#734E27" d="M1134.3,1965.4c0,0.1-0.1,0.2-0.1,0.3C1134.2,1965.6,1134.3,1965.5,1134.3,1965.4z"/>
					<path fill="#49301C" d="M1023.8,2011.8c0.5,1.1-1.7-1.1-2.7-3.2c0.1,0.1,0.1,0.2,0.2,0.3c0.5,0.9,1.1,1.9,2.1,2.1
						C1023.5,2011.2,1023.7,2011.5,1023.8,2011.8z"/>
					<path fill="#49301C" d="M1011.2,2021.6c-0.2-1.4-0.1-2.8,0.2-3.8c1.1-2.8,3.4-3,5.5-2.2c-0.7-1-1.5-2-2.3-3.2
						c-1.5-2.3-3.2-4.6-4.9-6.9c-0.7-0.9-1.4-1.8-2.1-2.6c-0.5-0.6-1.1-1.3-1.6-1.9c-3.4,3.1-2.1,7.6-0.5,11.4
						c0.1,0.3-0.5,0.8-1,0.9c-0.3,0.1-0.5,0.1-0.5,0c-0.4-1-0.8-2-1-3c-0.9-3.4-0.7-6.7,2.2-9.3c-0.9,0.1-1.7,0.2-2.6,0.3
						c-0.5,0-1,0.1-1.5,0.1c-0.2,0.4-1.8,1-1.5,0.6c2.4-3.7,4.9-4.7,7.8-2.3c0.5,0.4,1,0.9,1.5,1.4c6.3,7.2,12.3,15.1,15.4,24.2
						c0.8,2.4-1.5-1.4-1.6-1.7c-0.6-1.4-1.3-2.5-2-3.5c-0.7-1.1-1.4-2-2.1-2.9v0c-1.1-0.3-2.4-0.6-3.1-0.9c-1.6-0.6-2.4,0.8-2.5,2.3
						c0,2.4,1.1,8.2,4.8,6c0.5-0.3,0.8-0.3,0.9-0.2c0.1,0.1-0.1,0.4-0.6,0.6c-1.7,1-3.7,1.8-5.2,0.1
						C1011.9,2024.4,1011.5,2023,1011.2,2021.6z"/>
					<path fill="#49301C" d="M1074.3,2065.5c-1.6-0.7-2.8-2.9-2.2-4.6c1.1-3,5.6-3.7,8.2-4.2c0.4-0.1-0.7,1-1.1,1
						c2.1-0.3-6.9,2.5-5.5,5.4c1.8,3.6,5.8,1,8.9,1.2c0.2,0-0.8,1-1.3,1C1079,2065.1,1076.4,2066.4,1074.3,2065.5z"/>
					<path d="M1139.3,1972.2c-0.3-2.2-7.5-46.5-72.8-50.4c-67-4-64.9,67.8-64.9,67.8c-4.2,1-5.4,4.4-5.4,8.2
						c-0.1,0.4-0.2,0.7-0.4,0.8c-1.8-0.6-2.2-4.1-1.3-5.2c-1.2-0.2-2.8-3.4,0.1-4c-1.8-1.4-3.8-5.1-0.6-8.1c-3.6-0.1-3.2-5-1.7-6.2
						c-3.6-1.4-1.4-8.8,2.3-8.8c-4.1-2.3-1.4-12.5,2.8-10.4c-0.3-1.4-0.4-7.4,2.3-6.1c-1.2-2.4,0.9-6.1,3.3-6.9
						c-0.9-1.9-0.2-6.3,3.2-5.7c-3.1-2-0.5-6.6,2.8-5.7c0.5-2.3,2.3-5.4,5-4.2c0.5-4.6,5.7-7.8,9.7-4.9c0.2-2.9,3.2-4.7,5.8-3.6
						c0.4-4.5,3.3-5.4,6.9-3.8c-0.3-4.9,6-2.3,8.1-2.1c2.5-3.6,5.9-3.7,9.7-2.5c1.1-3.1,4.7-1.8,6.9-1.4c1.1-4.4,7.7-2.1,10.6-2.6
						c1.4-0.2,1.2-1.5,3.5-1.5c1.8,0,3.7,1,5,2.2c-0.2-0.4-0.3-0.8-0.2-1.3c2.2-1.9,6.2-0.3,7,2c1.5-2.5,8.1,0.5,10.2,5.4
						c0.9-1.8,5.5,1.1,7,2.1c0.9,0.6,1.5,1.8,2.3,2.1c0.9,0.4,2.8-0.1,3.8,0.1c1.6,0.3,5.9,2.3,3.4,4.3c2,0.1,3.7,1,5.2,2.3
						c1.4,1.2,1.7,3.1,2.8,4.2c1.9,2,4.8,2.2,4.9,5.8c3.9,1.3,7.5,4.4,6,8.2c4.3,0.2,4.7,5.4,3.2,8.6c2.3,0.4,3.9,4.6,1.9,4.8
						c2.9,0.2,2.5,4.7,1.8,6.8c1.6,1.1,2.2,6.9,0.3,5.8c0.2,0.1,0.5,0.3,0.7,0.4c0,0-0.1,0.1-0.1,0.1c0.1,0,0.1,0,0.2,0
						c1.1,0.8,1.8,1.6,2.3,2.6c0,0.8-0.4,1.6-1,2.1c-0.3-0.8-0.6-1.6-0.9-2.4C1140.8,1971,1139.4,1971.8,1139.3,1972.2z"/>
					<path fill="#49301C" d="M1016.8,2002.4c-1.1-1.6-2.9-4.4-4.5-6.2c3.8,3.4,6.5,7.1,8.7,12.2c0,0.1,0,0.1,0.1,0.2
						c-0.8-1.3-1.6-1.9-2.3-3.3C1018,2003.5,1018.1,2004.4,1016.8,2002.4z"/>
					<path fill="#49301C" d="M1136.4,2018c-0.7,2.6-1.1,5.3-1.2,8c-0.1,2.5-0.1,5,0,7.5v0c0,0.1,0,0.1,0,0.2
						c6.3-5.4,12.1-14.7,13.6-22.8c0.8-4.4,0.2-12.8-6-11.2c-0.1,0.7-0.3,1.5-0.4,2.2c-0.1,0.4-0.2,0.9-0.3,1.3c0.1,0,0.2,0,0.3,0
						c4.1,2.8,1.8,7.6,0,11.4c-0.1,0.2-0.6,0.5-1,0.6c-0.4,0.1-0.7,0.2-0.5,0c1.8-3.1,3.6-7.6,0.7-10.4
						C1140,2009.4,1137.7,2013.5,1136.4,2018z M1134.2,2054.4c-3.8,6.6-8.8,12.6-13.2,18.8c-5.9,8.3-10.1,20.6-19.3,25.9
						c-4.6,2.7-10.4,3.2-15.6,3.1c-6.4-0.1-11.2-3.1-16.1-6.9c-11.3-8.7-25.5-13.4-34.7-24.8c-7.4-9.1-9.3-23-11-34.5
						c-0.6,0.8-1.2,1.4-2,2l-0.3-0.4c0.9-0.7,1.6-1.8,2-3.7c0,0,0,0,0,0c0,0,0-0.1,0.1-0.1c0,0,0,0,0.1-0.1c0,0,0-0.1,0.1-0.1
						c0.4-0.4,1.4-0.7,1.4-0.6c0,0,0,0.1,0,0.1v0c1.9,12.4,3.2,29,12.1,38.6c5.9,6.4,13.3,9.9,20.8,14.2c6.4,3.6,11.9,8.3,18.2,12.1
						c8.8,5.3,22.5,4.4,29.5-3.7c4.7-5.4,7.7-12.3,11.7-18.2c4-5.8,8.3-11.4,12.3-17.2c5.6-8.2,5.7-15,3.4-24.5c0,0,0,0,0-0.1
						s0,0,0,0c0-2.1-0.1-4.1,0-6.2c0.1-3.1,0.4-6.3,1.3-9.3c1.4-4.9,4.1-9.4,5.5-14.3c0.4-1.5,0.7-3,1-4.5c0.6-3.8,0.7-7.6,0.6-11.4
						c-0.1-4.7-0.2-9.8-1.7-14.3c0.5,0,0.9-0.1,1.3-0.3c0.1-0.1,0.3-0.2,0.4-0.3c1.2,3.9,1.3,8.2,1.5,12.2c0.2,4.3,0.1,8.7-0.5,13.1
						c6.6-2.2,8.4,4.7,7.7,10.3c-1.3,9.3-8,19.2-15.2,25.1C1137,2041.1,1137.9,2048.1,1134.2,2054.4z"/>
					<path fill="#49301C" d="M1007.3,2026.4c1.7,1.6,4.4,2.4,5.7,4.5c1,1.5,0.9,3.3,1.9,4.8c1.4,2.1,4.8,3.6,7.1,1.9l0.3,0.4
						c-2.8,1.9-6.6,2.1-8.9-1.3c-0.9-1.3-0.8-3-1.5-4.3c-0.8-1.5-2-2.1-3.4-3c-1.6-1.1-3-2.1-4.2-3.8c-3.5-5-5.4-11.8-6.6-17.8
						c-0.6-2.8-1.5-6.5-1.4-10c0.1-0.5,0.2-1,0.3-1.2c0.4-1.7,1.8-4.9,3.4-5.7c1.7-0.8,3.9-1.1,6-0.3c1.7,0.6,4,3.5,5.4,4.7
						c0.3,0.3,0.7,0.6,1,0.9c-1-0.9-2-1.8-3.2-2.7c-3.6-2.8-10-4.9-11.1,1.4c-0.7,3.6,0.5,8.3,1.2,11.8
						C1000.5,2013,1002.6,2021.8,1007.3,2026.4z"/>
					<path fill="#49301C" d="M1139.3,1972.2c0.1-0.4,1.5-1.2,1.6-0.9c0.4,0.8,0.7,1.6,0.9,2.4c-0.1,0.1-0.3,0.2-0.4,0.3
						c-0.4,0.2-0.9,0.3-1.3,0.3C1139.9,1973.6,1139.6,1972.9,1139.3,1972.2C1139.3,1972.3,1139.3,1972.3,1139.3,1972.2
						C1139.3,1972.3,1139.3,1972.2,1139.3,1972.2z"/>
					<path fill="#604222" d="M1001.5,2003.5c0.1-0.8,0.5-1.5,0.9-2.1c0.9-0.1,1.7-0.2,2.6-0.3c-2.8,2.6-3.1,5.9-2.2,9.3
						C1001.8,2008.2,1001,2005.8,1001.5,2003.5z"/>
					<path fill="#49301C" d="M1001.6,1989.6c8.9-2.2,18.1,13.2,21.8,21.3c-1-0.1-1.7-1.2-2.1-2.1c0-0.1-0.1-0.2-0.2-0.3
						c0-0.1-0.1-0.1-0.1-0.2c-2.3-5-4.9-8.7-8.7-12.2c-0.3-0.4-0.7-0.7-1-0.9c-1.4-1.2-3.7-4.1-5.4-4.7c-2.1-0.8-4.4-0.5-6,0.3
						c-1.6,0.8-3,4-3.4,5.7c-0.1,0.2-0.1,0.8-0.3,1.2C996.2,1994,997.4,1990.6,1001.6,1989.6z"/>
					<path fill="#49301C" d="M1140.5,1969c-0.1,0-0.2,0-0.2,0c0,0,0.1-0.1,0.1-0.1C1140.4,1968.9,1140.5,1968.9,1140.5,1969z"/>
					<path fill="#49301C" d="M1108.3,2063.9c-5.7,7.9-15.8,8.5-21.9,0.6c-0.1-0.1,0.2-0.5,0.6-0.7c0.4-0.3,1.3,0.1,1.4,0.3
						c6.1,8.1,14.2,6.2,18.3,0.5C1107,2064.2,1108.6,2063.5,1108.3,2063.9z"/>
					<path fill="#604222" d="M1012.8,2018.7c0-1.5,0.8-2.8,2.5-2.3c0.7,0.3,2,0.5,3.1,0.9v0c0.8,0.9,1.5,1.9,2.1,2.9
						c-0.6-0.1-1.3-0.1-1.9-0.1c-0.3,0-0.6,0-0.8,0.2c-0.6,0.3-0.7,1.2-0.6,1.8c0.2,0.9,0.7,1.6,1.4,2.2l-0.1,0.2
						c-0.1-0.1-0.4-0.1-0.9,0.2C1013.9,2026.9,1012.7,2021.1,1012.8,2018.7z"/>
					<path fill="#49301C" d="M1116.7,2062.6c-2.2,3.8-2.1,1.1-7.9,3.1c-1.1,0.4,0.1-0.8,0.6-0.9c1-0.4,2-0.6,3-0.8
						c1-0.2,2.7-0.2,2.9-1.4c0.3-1.1,0.5-2.8-0.2-3.7c-0.7-0.9-1.9-1.2-3-1.4c-0.4-0.1-2.1-0.3-1.7-0.6c0.3-0.2,2.4-0.3,2.6-0.3
						c1.4,0,2.2,0.2,3,1.4C1116.7,2059.2,1117.4,2061.3,1116.7,2062.6z"/>
					<path d="M1134.2,1965.7c-0.3,0.8-1.2,1.3-2,1.1c-0.9-0.2-1.6-1.2-1.4-2.1c-1.1,1.5-3.7,1.1-4.3-0.6c-1.3,1.3-3.5,1.4-4.8,0.2
						c0.6,1.1,0.1,2.6-1.1,3.1c-1.1,0.4-2.5-0.4-2.7-1.6c0.3,1.5-0.7,3.2-2.1,3.7c-1.4,0.6-3.2,0-4-1.3c-1.1,3.8-4.6,6.7-8.4,7.2
						c-0.1,1.3-1,2.4-2.1,2.8c-1.1,0.4-2.5,0.1-3.3-0.8c-0.1,1.7-2.2,2.9-3.7,2.1c-1.5,2-5.1,1.6-6.1-0.7c-1.4,1.7-4.5,1.3-5.4-0.7
						c-1.6,0.7-3.6-0.2-4.3-1.7c0-0.2,0.1-0.4,0.2-0.6c-0.2-0.1-0.3-0.1-0.4-0.2c0,0,0,0,0,0c-1.9-0.9-1.5-3.2-2.8-4.3
						c-1.6-1.3-4.2-0.6-5.5-3.1c-1.3,0.7-4,2.2-5.3,0.7c-0.4-0.5-0.6-1-0.5-1.4c0.4-0.1,0.7-0.3,0.9-0.5c-0.5,0-0.8,0.3-0.9,0.5
						c-1.8,0.7-4.6,0.2-4-2.3c-1.1,0.8-5.1,2.3-5.1-0.2c-1.2,1.3-3.6,1.9-4.4,0.1c-2,2.5-6.8,4.7-9.1,1.4c0.7,3.1-5.7,3.3-7.6,2.8
						c-0.3,1.4-1.3,2.5-2.7,2.3c0.5,1.8-0.8,4.4-2.9,4c0.8,4.3,1.6,7.8-2.1,10.6c0.7,1.4,1.7,4.8-0.5,5.3c1.4,1.8,0.9,5.2-1.2,6.2
						c1.1,1.4,3,6.9,0,7.2c1.2,1.7,2.7,5.2-0.1,6c-0.2,0.1-0.4,0.1-0.6,0.1c-3.7-8.1-12.9-23.4-21.8-21.3c0,0-2.1-71.8,64.9-67.8
						c65.3,3.9,72.5,48.2,72.8,50.4c0,0,0,0,0,0c0,0,0,0,0,0c0.3,0.6,0.6,1.3,0.8,2c-0.5,0-0.9-0.1-1.3-0.3
						c-0.7-0.3-1.3-0.9-1.8-1.5c-0.9-1.5-1.1-3.3-1.3-5C1134.9,1967.6,1134,1966.6,1134.2,1965.7c0.1-0.1,0.1-0.2,0.1-0.3
						C1134.3,1965.5,1134.2,1965.6,1134.2,1965.7z"/>
				</g>
			</g>
		</g>
	</g>
</g>
<g id="ch04-02-2_safe_copy" display="none">
	<g id="mainComp_x5F_paths-back-up_copy">
		<g id="eye_x5F_close_x5F_comp_copy_2_1_" display="inline">
		</g>
		<g id="eye_x5F_far_x5F_comp_copy_2_1_" display="inline">
		</g>
	</g>
	<g id="mainComp_copy" display="inline">
		<g id="eye_x5F_close_x5F_comp_copy_2">
		</g>
		<g id="eye_x5F_far_x5F_comp_copy_2">
		</g>
	</g>
	<g id="eye_x5F_close_copy" display="inline">
	</g>
	<g id="eye_x5F_far_copy" display="inline">
	</g>
	<g id="pupil_copy" display="inline">
	</g>
</g>
<g id="ch04-02-1">
	<g id="mainComp_x5F_paths-back-up" display="none">
		<g id="eye_x5F_close_x5F_comp_copy" display="inline">
		</g>
		<g id="eye_x5F_far_x5F_comp_copy" display="inline">
		</g>
	</g>
	<g id="mainComp">
		<g id="eye_x5F_close_x5F_comp">
		</g>
		<g id="eye_x5F_far_x5F_comp">
		</g>
	</g>
	<g id="eye_x5F_close_copy_2">
	</g>
	<g id="eye_x5F_close">
	</g>
	<g id="eye_x5F_far_copy_2">
	</g>
	<g id="eye_x5F_far">
	</g>
	<g id="pupil_copy_2">
	</g>
	<g id="pupil_4_">
	</g>
</g>
<g id="ch05-07-1">
	<g id="main_x5F_comp_1_">
		<g id="hand_washing_copy">
		</g>
	</g>
	<g id="assets">
	</g>
	<g id="hand_washing">
	</g>
</g>
</svg>
