<?xml version="1.0" encoding="utf-8"?>
<!-- Generator: Adobe Illustrator 18.1.1, SVG Export Plug-In . SVG Version: 6.00 Build 0)  -->
<svg version="1.1" xmlns="http://www.w3.org/2000/svg" xmlns:xlink="http://www.w3.org/1999/xlink" x="0px" y="0px"
	 viewBox="1019.6 969.1 26.9 121.6" enable-background="new 1019.6 969.1 26.9 121.6" xml:space="preserve">
<g id="additional_reference">
</g>
<g id="ch07-09-1">
</g>
<g id="ch04-05-1">
</g>
<g id="ch04-11-2">
</g>
<g id="ch04-06-1">
	<g id="older_version">
		<g id="head_3_" display="none">
			<g id="hair_3_">
			</g>
		</g>
		<g id="hands" display="none">
		</g>
		<g id="head_4_" display="none">
		</g>
		<g id="new_path" display="none">
		</g>
		<g id="handback" display="none">
		</g>
		<g id="handFront">
		</g>
		<g id="Layer_21" display="none">
		</g>
	</g>
	<g id="path_copy-with_stroke">
		<g id="handBack_copy">
		</g>
		<g id="head_copy">
		</g>
		<g id="neck_copy">
		</g>
		<g id="sleeve_copy">
		</g>
		<g id="handFront_copy">
		</g>
		<g id="skirt_copy">
		</g>
		<g id="torso_copy">
		</g>
	</g>
	<g id="comp_layer">
		<g id="skirt_copy_3">
			<g id="skirt_copy_3_2_">
			</g>
			<g id="skirt_copy_3_1_">
			</g>
		</g>
		<g id="torso_copy_2">
		</g>
		<g id="sleeve_copy_2">
		</g>
		<g id="neck_5_">
		</g>
		<g id="head_copy_2">
			<g id="head-silo_copy">
			</g>
		</g>
		<g id="head_copy_3">
			<g id="head-silo_copy_2">
			</g>
		</g>
		<g id="handFront_copy_2">
		</g>
		<g id="handBack_copy_2">
		</g>
	</g>
	<g id="skirt_5_">
		<g id="skirt_4_">
		</g>
		<g id="skirt_copy_2">
		</g>
	</g>
	<g id="torso_copy_3">
	</g>
	<g id="sleeve">
	</g>
	<g id="neck_6_">
	</g>
	<g id="handBack">
	</g>
	<g id="handFront_1_">
	</g>
</g>
<g id="ch04-03-2">
</g>
<g id="ch04-02-2_safe_copy" display="none">
	<g id="mainComp_x5F_paths-back-up_copy">
		<g id="eye_x5F_close_x5F_comp_copy_2_1_" display="inline">
		</g>
		<g id="eye_x5F_far_x5F_comp_copy_2_1_" display="inline">
		</g>
	</g>
	<g id="mainComp_copy" display="inline">
		<g id="eye_x5F_close_x5F_comp_copy_2">
		</g>
		<g id="eye_x5F_far_x5F_comp_copy_2">
		</g>
	</g>
	<g id="eye_x5F_close_copy" display="inline">
	</g>
	<g id="eye_x5F_far_copy" display="inline">
	</g>
	<g id="forearm_4_" display="inline">
		<path fill="#734E27" d="M1045.4,986.7c-0.5-4.5-2.3-9.6-5.5-13.1c-0.4-0.5-0.9-0.9-1.3-1.3c-0.7-0.6-1.4-1.1-2.2-1.5
			c0,0,0.1,0.1,0.1,0.1c-0.6-0.6-1.3-1-2.2-1.3c-1.6-0.5-3.1-0.6-4.4-0.2c-2.4,0.6-4.4,2.5-6,4.7c0,0,0,0,0,0
			c-2,4.4-2.7,9.8-3.3,14.5c-1,7.6-1.3,15.1-0.9,22.8c1,22.5,2.9,45,5.3,67.4c0.2,2.4,0.7,5.2,1.9,7.5c0.8,1.5,1.9,2.8,3.4,3.6
			c4.7,2.5,7.5-1,9.1-5.4c1.3-3.4,1.8-7.3,2-9.4c1.4-17.6,3-35.2,4.4-52.8C1046.8,1010.5,1046.8,998.5,1045.4,986.7z"/>
		<g>
			<path d="M1045.4,986.7c-0.5-4.5-2.3-9.6-5.5-13.1c1.1,1.5,2,3.6,2.6,5.6c0,0,0,0.1,0,0.1c0.9,2.9,1.4,5.5,1.4,5.5
				c1,6.7,0.9,13.9,1,20.7c0.4,19.4-2.5,39.1-4.1,58.4c-0.2,2.5-0.3,5.3-0.5,8c0,0.1,0,0.1,0,0.2c0,0.1,0,0.2,0,0.4
				c-0.1,2-0.5,8.7-0.9,12c1.3-3.4,1.8-7.3,2-9.4c1.4-17.6,3-35.2,4.4-52.8C1046.8,1010.5,1046.8,998.5,1045.4,986.7z"/>
			<path d="M1024,974.1C1024,974.1,1024,974.1,1024,974.1c-2,4.5-2.7,9.8-3.3,14.5c-1,7.6-1.3,15.1-0.9,22.8c1,22.5,2.9,45,5.3,67.4
				c0.2,2.4,0.7,5.2,1.9,7.5l-0.6-5.7c0,0,0-0.1,0-0.1c-1.7-10.2-2-20.8-2.8-31.1c-0.9-11-1.6-22-2.2-33.1
				c-0.4-7.5-0.4-14.8,0.3-22.3c0.4-4.5,0.9-9.6,2.1-14.2c0,0,0,0,0,0c0-0.3,0.3-2.5,1.1-4.8c0,0,0,0,0,0c0.9-2.3,2.4-4.8,5-5.7
				C1027.5,969.9,1025.5,971.8,1024,974.1z"/>
		</g>
	</g>
	<g id="pupil_copy" display="inline">
	</g>
</g>
<g id="ch04-02-1">
	<g id="mainComp_x5F_paths-back-up" display="none">
		<g id="eye_x5F_close_x5F_comp_copy" display="inline">
		</g>
		<g id="eye_x5F_far_x5F_comp_copy" display="inline">
		</g>
	</g>
	<g id="mainComp">
		<g id="eye_x5F_close_x5F_comp">
		</g>
		<g id="eye_x5F_far_x5F_comp">
		</g>
	</g>
	<g id="eye_x5F_close_copy_2">
	</g>
	<g id="eye_x5F_close">
	</g>
	<g id="eye_x5F_far_copy_2">
	</g>
	<g id="eye_x5F_far">
	</g>
	<path fill="#734E27" d="M1045.4,986.7c-0.5-4.5-2.3-9.6-5.5-13.1c-0.4-0.5-0.9-0.9-1.3-1.3c-0.7-0.6-1.4-1.1-2.2-1.5
		c0,0,0.1,0.1,0.1,0.1c-0.6-0.6-1.3-1-2.3-1.3c-1.6-0.5-3.1-0.5-4.4-0.2c-2.4,0.6-4.4,2.4-6,4.7c0,0,0,0,0,0
		c-2,4.4-2.7,9.8-3.3,14.5c-1,7.6-1.3,15.2-0.9,22.8c1,22.5,2.9,45,5.3,67.4c0.2,2.4,0.7,5.2,1.9,7.5c0.8,1.5,1.9,2.8,3.4,3.6
		c4.7,2.5,7.5-1,9.1-5.4c1.3-3.4,1.8-7.3,2-9.4c1.4-17.6,3.1-35.2,4.4-52.8C1046.8,1010.5,1046.8,998.5,1045.4,986.7z"/>
	<g>
		<g id="XMLID_63_">
			<g>
				<path fill="#734E27" d="M1045,1005.5c0.3,19.4-2.5,39.1-4.1,58.4c-0.2,2.6-0.3,5.3-0.5,8c0,0.1,0,0.2,0,0.2c0,0.1,0,0.2,0,0.4
					c-0.1,2-0.5,8.7-0.9,12c-1.6,4.4-4.4,7.9-9.1,5.4c-1.5-0.8-2.6-2.1-3.4-3.6l-0.6-5.7c0,0,0-0.1,0-0.1c-1.7-10.2-2-20.8-2.8-31.1
					c-0.9-11-1.7-22-2.2-33.1c-0.4-7.5-0.4-14.8,0.3-22.4c0.4-4.5,0.9-9.5,2.1-14.1c0,0,0,0,0,0c0-0.3,0.3-2.5,1.1-4.8c0,0,0,0,0,0
					c0.9-2.3,2.4-4.8,5-5.7c1.3-0.3,2.8-0.3,4.4,0.2c0.9,0.3,1.6,0.8,2.3,1.3c0,0,0-0.1-0.1-0.1c0.8,0.4,1.5,1,2.2,1.5
					c0.5,0.4,0.9,0.8,1.3,1.3c1.1,1.5,2,3.6,2.7,5.6c0,0,0,0.1,0,0.1c0.9,2.9,1.4,5.5,1.4,5.5
					C1045.1,991.5,1044.9,998.8,1045,1005.5z"/>
				<path fill="#734E27" d="M1041.4,1075.1c-0.2,2.1-0.7,6-2,9.4c0.4-3.3,0.8-9.9,0.9-12c0-0.1,0-0.3,0-0.4c0-0.1,0-0.2,0-0.2
					c0.2-2.7,0.3-5.4,0.5-8c1.7-19.3,4.5-39,4.1-58.4c-0.1-6.8,0-14-1-20.7c0,0-0.4-2.6-1.4-5.5c0,0,0-0.1,0-0.1
					c-0.7-2-1.5-4.1-2.7-5.6c3.2,3.5,4.9,8.6,5.5,13.1c1.4,11.7,1.3,23.8,0.4,35.6C1044.5,1039.9,1042.8,1057.5,1041.4,1075.1z"/>
				<path fill="#734E27" d="M1023.5,1049.4c0.8,10.3,1.2,20.9,2.8,31.1c0,0,0,0.1,0,0.1l0.6,5.7c-1.2-2.3-1.7-5.2-1.9-7.5
					c-2.3-22.4-4.2-44.9-5.3-67.4c-0.3-7.6-0.1-15.2,0.9-22.8c0.6-4.8,1.2-10.1,3.3-14.5c0,0,0,0,0,0c1.5-2.3,3.5-4.1,6-4.7
					c-2.6,0.9-4.1,3.3-5,5.7c0,0,0,0,0,0c-0.9,2.4-1.1,4.6-1.1,4.8c0,0,0,0,0,0c-1.3,4.6-1.7,9.6-2.1,14.1
					c-0.7,7.5-0.7,14.8-0.3,22.4C1021.9,1027.4,1022.6,1038.4,1023.5,1049.4z"/>
			</g>
		</g>
	</g>
	<g id="pupil_copy_2">
	</g>
	<g id="pupil_4_">
	</g>
</g>
<g id="ch05-07-1">
	<g id="main_x5F_comp_1_">
		<g id="hand_washing_copy">
		</g>
	</g>
	<g id="assets">
	</g>
	<g id="hand_washing">
	</g>
</g>
</svg>
