<?xml version="1.0" encoding="utf-8"?>
<!-- Generator: Adobe Illustrator 18.1.1, SVG Export Plug-In . SVG Version: 6.00 Build 0)  -->
<!DOCTYPE svg PUBLIC "-//W3C//DTD SVG 1.1//EN" "http://www.w3.org/Graphics/SVG/1.1/DTD/svg11.dtd">
<svg version="1.1" xmlns="http://www.w3.org/2000/svg" xmlns:xlink="http://www.w3.org/1999/xlink" x="0px" y="0px"
	 viewBox="1152.2 684.6 36.7 35.7" enable-background="new 1152.2 684.6 36.7 35.7" xml:space="preserve">
<g id="additional_reference">
</g>
<g id="ch04-05-1">
</g>
<g id="ch04-11-2">
</g>
<g id="ch04-06-1">
	<g id="older_version">
		<g id="head_3_" display="none">
			<g id="hair_3_">
			</g>
		</g>
		<g id="hands" display="none">
		</g>
		<g id="head_4_" display="none">
		</g>
		<g id="new_path" display="none">
		</g>
		<g id="handback" display="none">
		</g>
		<g id="handFront">
		</g>
		<g id="Layer_21" display="none">
		</g>
	</g>
	<g id="path_copy-with_stroke">
		<g id="handBack_copy">
		</g>
		<g id="head_copy">
		</g>
		<g id="neck_copy">
		</g>
		<g id="sleeve_copy">
		</g>
		<g id="handFront_copy">
		</g>
		<g id="skirt_copy">
		</g>
		<g id="torso_copy">
		</g>
	</g>
	<g id="comp_layer" display="none">
		<g id="skirt_copy_3" display="inline">
			<g id="skirt_copy_3_2_">
			</g>
			<g id="skirt_copy_3_1_">
			</g>
		</g>
		<g id="torso_copy_2" display="inline">
		</g>
		<g id="sleeve_copy_2" display="inline">
		</g>
		<g id="neck_5_" display="inline">
		</g>
		<g id="head_copy_2" display="inline">
			<g id="head-silo_copy">
			</g>
		</g>
		<g id="head_copy_3" display="inline">
			<g id="head-silo_copy_2">
			</g>
		</g>
		<g id="handFront_copy_2" display="inline">
		</g>
		<g id="handBack_copy_2" display="inline">
		</g>
	</g>
	<g id="skirt_5_">
		<g id="skirt_4_">
		</g>
		<g id="skirt_copy_2">
		</g>
	</g>
	<g id="torso_copy_3">
	</g>
	<g id="sleeve">
	</g>
	<g id="neck_6_">
	</g>
	<g id="handBack">
	</g>
	<g id="handFront_1_">
	</g>
</g>
<g id="ch04-03-2">
</g>
<g id="ch04-02-1">
	<g id="mainComp_x5F_paths-back-up" display="none">
		<g id="eye_x5F_close_x5F_comp_copy" display="inline">
		</g>
		<g id="eye_x5F_far_x5F_comp_copy" display="inline">
		</g>
	</g>
	<g id="mainComp">
		<g id="eye_x5F_close_x5F_comp">
		</g>
		<g id="eye_x5F_far_x5F_comp">
		</g>
	</g>
	<g id="eye_x5F_close">
		<g id="upper_lid">
			<path fill="#734E27" d="M1183.4,686.8c-4.7-2.5-15.3-2.8-20.5-1.6c-3,0.7-6,1.8-8.1,4c-2.1,2.2-3.2,9.6-2.1,12.4
				c0.4,0.9,1.8,3.5,5.3,1.5c-0.2,0.5,0.3,0.6,0.9,0c2.7-2.9,8.7-3.5,12.3-3.3c5.3,0.3,9.3,3,11.3,7.9c0.1,0.3,0.6,0,1-0.4
				c0.2,0.4,0.6,0.6,1,0.6C1189.1,709,1191.8,691.2,1183.4,686.8z"/>
			<path d="M1183.8,706.5c-3.8-9.4-18.8-11.3-25.6-3.8c-0.2,0.2-0.3,0.4-0.3,0.5c-0.2,0.5,0.3,0.6,0.9,0c2.7-2.9,8.7-3.5,12.3-3.3
				c5.3,0.3,9.3,3,11.3,7.9c0.1,0.3,0.6,0,1-0.4C1183.7,707.1,1183.9,706.7,1183.8,706.5z"/>
		</g>
	</g>
	<g id="eye_x5F_far">
	</g>
	<g id="pupil_4_">
	</g>
</g>
</svg>
