<?xml version="1.0" encoding="utf-8"?>
<!-- Generator: Adobe Illustrator 18.1.1, SVG Export Plug-In . SVG Version: 6.00 Build 0)  -->
<!DOCTYPE svg PUBLIC "-//W3C//DTD SVG 1.1//EN" "http://www.w3.org/Graphics/SVG/1.1/DTD/svg11.dtd">
<svg version="1.1" xmlns="http://www.w3.org/2000/svg" xmlns:xlink="http://www.w3.org/1999/xlink" x="0px" y="0px"
	 viewBox="1214 691.2 17.7 25.3" enable-background="new 1214 691.2 17.7 25.3" xml:space="preserve">
<g id="additional_reference">
</g>
<g id="ch04-05-1">
</g>
<g id="ch04-11-2">
</g>
<g id="ch04-06-1">
	<g id="older_version">
		<g id="head_3_" display="none">
			<g id="hair_3_">
			</g>
		</g>
		<g id="hands" display="none">
		</g>
		<g id="head_4_" display="none">
		</g>
		<g id="new_path" display="none">
		</g>
		<g id="handback" display="none">
		</g>
		<g id="handFront">
		</g>
		<g id="Layer_21" display="none">
		</g>
	</g>
	<g id="path_copy-with_stroke">
		<g id="handBack_copy">
		</g>
		<g id="head_copy">
		</g>
		<g id="neck_copy">
		</g>
		<g id="sleeve_copy">
		</g>
		<g id="handFront_copy">
		</g>
		<g id="skirt_copy">
		</g>
		<g id="torso_copy">
		</g>
	</g>
	<g id="comp_layer" display="none">
		<g id="skirt_copy_3" display="inline">
			<g id="skirt_copy_3_2_">
			</g>
			<g id="skirt_copy_3_1_">
			</g>
		</g>
		<g id="torso_copy_2" display="inline">
		</g>
		<g id="sleeve_copy_2" display="inline">
		</g>
		<g id="neck_5_" display="inline">
		</g>
		<g id="head_copy_2" display="inline">
			<g id="head-silo_copy">
			</g>
		</g>
		<g id="head_copy_3" display="inline">
			<g id="head-silo_copy_2">
			</g>
		</g>
		<g id="handFront_copy_2" display="inline">
		</g>
		<g id="handBack_copy_2" display="inline">
		</g>
	</g>
	<g id="skirt_5_">
		<g id="skirt_4_">
		</g>
		<g id="skirt_copy_2">
		</g>
	</g>
	<g id="torso_copy_3">
	</g>
	<g id="sleeve">
	</g>
	<g id="neck_6_">
	</g>
	<g id="handBack">
	</g>
	<g id="handFront_1_">
	</g>
</g>
<g id="ch04-03-2">
</g>
<g id="ch04-02-1">
	<g id="mainComp_x5F_paths-back-up" display="none">
		<g id="eye_x5F_close_x5F_comp_copy" display="inline">
		</g>
		<g id="eye_x5F_far_x5F_comp_copy" display="inline">
		</g>
	</g>
	<g id="mainComp">
		<g id="eye_x5F_close_x5F_comp">
		</g>
		<g id="eye_x5F_far_x5F_comp">
		</g>
	</g>
	<g id="eye_x5F_close">
	</g>
	<g id="eye_x5F_far">
		<g>
			<path fill="#734E27" d="M1222.3,691.3c-7.4-0.1-7.5,8.8-7.7,11.5c0,0.2-0.4,3.5-0.2,3.4c0.1-0.1,0.2-0.2,0.3-0.3c0,0,0,0,0,0
				c0.1,0.2,0.5,0.2,0.9-0.3c2.4-2.6,5.5-4.1,9.2-3.5c2.2,0.4,4.7,1.2,5.5,3.3c0.2,0.5,1.2-0.4,1-0.9c-0.2-0.5-0.4-0.9-0.7-1.3
				c0.3-1.4,0.7-3.8,0.7-4.2C1232.1,694.6,1231.9,691.4,1222.3,691.3z"/>
			<path d="M1230.6,703c0-0.1-0.1-0.1-0.1-0.2c-0.4-0.6-1-1.1-1.6-1.5c-1.7-1-3.8-1.4-5.8-1.2c-2.7,0.3-4.8,1.8-6.6,3.6
				c-0.1,0.1-0.2,0.2-0.3,0.3c-0.3,0.3-0.7,0.7-1,1c-0.3,0.4-0.4,0.6-0.4,0.8c0,0,0,0,0,0c0.1,0.2,0.4,0.2,0.9-0.3
				c2.4-2.6,5.5-4.1,9.2-3.5c2.2,0.4,4.7,1.2,5.5,3.3c0.2,0.5,1.2-0.4,1-0.9c-0.2-0.5-0.4-0.9-0.7-1.3c0,0,0,0,0,0
				C1230.6,703.1,1230.6,703.1,1230.6,703z"/>
		</g>
	</g>
	<g id="pupil_4_">
	</g>
</g>
</svg>
