<?xml version="1.0" encoding="utf-8"?>
<!-- Generator: Adobe Illustrator 18.1.1, SVG Export Plug-In . SVG Version: 6.00 Build 0)  -->
<svg version="1.1" xmlns="http://www.w3.org/2000/svg" xmlns:xlink="http://www.w3.org/1999/xlink" x="0px" y="0px"
	 viewBox="1204.9 1145.5 33.5 67.8" enable-background="new 1204.9 1145.5 33.5 67.8" xml:space="preserve">
<g id="additional_reference">
</g>
<g id="ch07-09-1">
</g>
<g id="ch04-05-1">
</g>
<g id="ch04-11-2">
</g>
<g id="ch04-06-1">
	<g id="older_version">
		<g id="head_3_" display="none">
			<g id="hair_3_">
			</g>
		</g>
		<g id="hands" display="none">
		</g>
		<g id="head_4_" display="none">
		</g>
		<g id="new_path" display="none">
		</g>
		<g id="handback" display="none">
		</g>
		<g id="handFront">
		</g>
		<g id="Layer_21" display="none">
		</g>
	</g>
	<g id="path_copy-with_stroke">
		<g id="handBack_copy">
		</g>
		<g id="head_copy">
		</g>
		<g id="neck_copy">
		</g>
		<g id="sleeve_copy">
		</g>
		<g id="handFront_copy">
		</g>
		<g id="skirt_copy">
		</g>
		<g id="torso_copy">
		</g>
	</g>
	<g id="comp_layer">
		<g id="skirt_copy_3">
			<g id="skirt_copy_3_2_">
			</g>
			<g id="skirt_copy_3_1_">
			</g>
		</g>
		<g id="torso_copy_2">
		</g>
		<g id="sleeve_copy_2">
		</g>
		<g id="neck_5_">
		</g>
		<g id="head_copy_2">
			<g id="head-silo_copy">
			</g>
		</g>
		<g id="head_copy_3">
			<g id="head-silo_copy_2">
			</g>
		</g>
		<g id="handFront_copy_2">
		</g>
		<g id="handBack_copy_2">
		</g>
	</g>
	<g id="skirt_5_">
		<g id="skirt_4_">
		</g>
		<g id="skirt_copy_2">
		</g>
	</g>
	<g id="torso_copy_3">
	</g>
	<g id="sleeve">
	</g>
	<g id="neck_6_">
	</g>
	<g id="handBack">
	</g>
	<g id="handFront_1_">
	</g>
</g>
<g id="ch04-03-2">
</g>
<g id="ch04-02-2_safe_copy" display="none">
	<g id="mainComp_x5F_paths-back-up_copy">
		<g id="eye_x5F_close_x5F_comp_copy_2_1_" display="inline">
		</g>
		<g id="eye_x5F_far_x5F_comp_copy_2_1_" display="inline">
		</g>
	</g>
	<g id="mainComp_copy" display="inline">
		<g id="eye_x5F_close_x5F_comp_copy_2">
		</g>
		<g id="eye_x5F_far_x5F_comp_copy_2">
		</g>
	</g>
	<g id="eye_x5F_close_copy" display="inline">
	</g>
	<g id="eye_x5F_far_copy" display="inline">
	</g>
	<g id="pupil_copy" display="inline">
	</g>
	<g display="inline">
		<path fill="#734E27" d="M1238,1181.4c-0.2-3.3-0.1-6.8-0.7-10.1c-1.2-6.7-5.7-14.1-10.3-19.1c-9.9-12.1-17.5-3.9-17.5-3.9
			c0.2-0.3-0.9,0.4-1.1,0.7c-5.4,9.2-2.2,19.3,3.2,27.5c1.4,2.5,3.1,4.5,4.4,6.9c-0.2,0.2-0.4,0.5-0.5,0.8c-2.3-2.5-7.2-3.3-9.7-0.8
			c-3,3,2.1,5.4,4.3,6.8c-2.5,1.1-4.3,3.2-3.3,6.5c0,0,0,0,0,0c3.9,0,7.9-1.8,11.8-1.2c0,0,0.1,0,0.1,0c0.1,0.2,0.2,0.4,0.3,0.6
			c-2.7,2.3-7,6-7.1,9.6c-0.1,2.8,2.5,4.3,4.9,2.9c1.8-1,3-3.5,4.3-5c1.9-2.2,4.1-3.8,6.2-5.7c2-1.8,3-5.2,3.6-8.3
			c0.2,0.4,0.3,0.9,0.5,1.3c0,0,0,0.1,0,0.1c-0.9,2.8-2.1,7.3-0.8,10.2c-0.4,1.7-2.4,13.9,3,12c2.1-0.7,2.1-4,2.4-5.6
			c0.7-4.6,1.4-9.2,2.2-13.8C1238.8,1189.7,1238.2,1185.4,1238,1181.4z"/>
		<path d="M1238,1181.4c-0.2-3.3-0.1-6.8-0.7-10.1c-1.2-6.7-5.7-14.1-10.3-19.1l0,0l0,0l-2.4-2.6c0.2,1.7,1.3,3.6,1.3,3.6
			c4,4.4,7,9.9,9.1,15.4c2.5,6.9,2,15.1,2.1,22.3c0.1,6.2-1.5,12.9-2.6,19c-0.2,1.3,0,2.7-1.3,2.4c-0.5-0.1-1.1-0.9-1.4-1.4
			c-1.5-2.4-1.1-5.7-0.6-8.5c0,0,0,0,0,0.1c0.2,0.2,1.3-0.8,1.1-1c-2-2.3-1.4-6.3-0.5-9.4c0.3-0.1,1.2-0.7,1-1
			c-0.6-1.4-1.1-2.9-1.6-4.4c0,0,0-0.1,0-0.1c0,0,0,0,0,0c-0.3-1.2-0.6-2.5-0.6-3.8c0-0.2-1.2,0.5-1.2,0.9c0.1,1.3,0.3,2.6,0.7,3.9
			c-0.5,3.1-1.2,7.5-3,9.9c-0.5,0.6-1.7,1.2-2.3,1.7c-1.5,1.3-2.8,2.8-4.2,4.3c-1.7,1.9-3.1,6-6.2,4.4c-4.9-2.4,2.3-9.2,4.7-11.4
			c0.2,0.3,0.4,0.6,0.7,0.8c1.7,1.7,3,1.3,4.6-0.1c2.2-2,2.2-5.5,1.7-8.2c-0.1-0.8-0.3-1.5-0.6-2.2c-0.6-1.9-0.7-3.9-0.4-5.9
			c0-0.1-1.1,0.4-1.2,0.9c0,0.3-0.1,0.6-0.1,0.8c-0.5-1.3-0.8-2.7-0.7-4.4c0.1-2.2,0.3-2.8,1.5-4.5c1.2-1.8,2.1-3.7,2.4-5.9
			c0-0.1-1.1,0.4-1.2,0.9c-0.5,3.6-3.5,5.8-3.8,9.3c-0.4,3.5,0.3,5.6,1.7,8.7c1.1,2.5,1.9,5.3,1.2,8.1c-1.1,4.2-3.6,2.8-4.9,0.5
			c-1-1.7-1.2-3.9-1.3-5.8c-0.2-2.8-0.7-5.3-2-7.8c-1.5-3.2-4-5.3-4.9-8.7c-1.2-4.5-2.5-10.5-0.1-14.9c0.2-0.3-0.9,0.4-1.1,0.7
			c-0.7,1.3-1.1,2.7-1.2,4.2c-0.2,2-0.2,4.6,0.2,7.2c-3.2-6.9-4.3-14.7-0.1-21.8c0.2-0.3-0.9,0.4-1.1,0.7
			c-5.4,9.2-2.2,19.3,3.1,27.5c1.4,2.5,3.1,4.5,4.4,6.9c-0.2,0.2-0.4,0.5-0.5,0.8c-2.3-2.4-7.2-3.3-9.7-0.8c-3,3,2.1,5.4,4.3,6.9
			c-2.5,1.1-4.2,3.2-3.3,6.5c0,0,0,0,0.1,0c3.9,0,7.9-1.8,11.8-1.2c0,0,0.1,0,0.1,0c0.1,0.2,0.2,0.4,0.3,0.6c-2.7,2.3-7,6-7.1,9.6
			c-0.1,2.8,2.5,4.3,4.9,2.9c1.8-1,3-3.5,4.3-5c1.9-2.2,4.1-3.8,6.2-5.7c2-1.8,3-5.2,3.6-8.3c0.2,0.4,0.3,0.8,0.5,1.3
			c0,0,0,0.1-0.1,0.1c-0.9,2.8-2.1,7.3-0.7,10.2c-0.4,1.7-2.4,13.9,3,12c2.1-0.7,2.1-4,2.4-5.6c0.7-4.6,1.4-9.2,2.2-13.8
			C1238.8,1189.7,1238.2,1185.4,1238,1181.4z M1207,1186.4c-0.5-0.5-0.9-1.6-0.8-2.3c0.2-1.5,2.7-1.3,3.8-1.2c2,0.3,3.8,1.1,5,2.9
			c0.2,0.3,1.1-0.7,1.2-0.9c0-0.1,0.1-0.6,0.2-1c0.6,1.3,1.1,2.8,1.3,4.5c0,0.3,0.1,0.6,0.1,0.9c-1.8-0.3-4-0.2-6,0.4
			c0-0.1,0-0.1,0-0.1c-0.5-0.4-1-0.7-1.5-1.1C1209.3,1187.8,1207.7,1187.2,1207,1186.4z M1214.2,1195c-1.5,0.3-3,0.6-4.6,0.7
			c-1.4,0.1-1.9,0.3-1.9-1.5c0-2,1.3-3.1,3-3.6c0,0,0,0,0.1,0c2.2-0.7,5.1-0.5,7,0c0,0,0,0,0,0c0.1,1.3,0.2,2.6,0.5,3.9
			C1216.9,1194.4,1215.6,1194.7,1214.2,1195z"/>
	</g>
</g>
<g id="ch04-02-1">
	<g id="mainComp_x5F_paths-back-up" display="none">
		<g id="eye_x5F_close_x5F_comp_copy" display="inline">
		</g>
		<g id="eye_x5F_far_x5F_comp_copy" display="inline">
		</g>
	</g>
	<g id="mainComp">
		<g id="eye_x5F_close_x5F_comp">
		</g>
		<g id="eye_x5F_far_x5F_comp">
		</g>
	</g>
	<g id="eye_x5F_close_copy_2">
	</g>
	<g id="eye_x5F_close">
	</g>
	<g id="eye_x5F_far_copy_2">
	</g>
	<g id="eye_x5F_far">
	</g>
	<g id="pupil_copy_2">
	</g>
	<g id="pupil_4_">
	</g>
	<path fill="#49301C" d="M1238.2,1184.4c-0.1-1-0.1-2.1-0.2-3.1c-0.2-3.3-0.1-6.8-0.7-10.1c-0.9-5.5-4.1-11.4-7.7-16.1
		c-0.5-0.7-1.1-1.4-1.7-2.1c-0.3-0.3-0.6-0.7-0.8-1l0,0c-0.8-1-1.6-1.9-2.4-2.6l0,0c0,0,0,0,0,0c-8.5-7.9-14.7-1.6-15.1-1.2
		c0.1-0.2-0.7,0.3-1,0.6c0,0-0.1,0.1-0.1,0.1c-3.2,5.5-3.4,11.4-1.8,17c0.1,0.4,0.2,0.7,0.3,1.1c1.1,3.3,2.7,6.5,4.6,9.4
		c0.4,0.6,0.7,1.2,1.1,1.8c0.6,0.8,1.1,1.7,1.7,2.5c0.6,0.8,1.1,1.7,1.6,2.6c-0.1,0.1-0.1,0.1-0.1,0.2c-0.1,0.2-0.3,0.4-0.4,0.6
		c-0.1-0.1-0.2-0.2-0.3-0.3c-0.6-0.5-1.3-1-2-1.3c-0.2-0.1-0.4-0.2-0.6-0.2c-0.2-0.1-0.3-0.1-0.5-0.2c-2.2-0.7-4.7-0.4-6.3,1.2
		c-0.1,0.1-0.2,0.2-0.2,0.3c-0.1,0.1-0.1,0.2-0.2,0.2c-0.1,0.2-0.2,0.3-0.3,0.5c0,0,0,0,0,0c-0.1,0.3-0.2,0.5-0.2,0.8
		c0,0.3,0,0.5,0.1,0.7c0.1,0.2,0.1,0.4,0.3,0.6c0.1,0.2,0.2,0.4,0.4,0.5c0,0,0,0,0,0c0.1,0.1,0.2,0.2,0.3,0.3c0,0,0,0,0,0
		c0.1,0.1,0.2,0.2,0.3,0.3c0.1,0.1,0.2,0.2,0.3,0.3c0.1,0.1,0.3,0.2,0.4,0.3c0.2,0.2,0.4,0.3,0.6,0.5c0.1,0.1,0.2,0.2,0.3,0.2
		c0.1,0.1,0.3,0.2,0.4,0.3c0.1,0.1,0.2,0.1,0.3,0.2c0.1,0.1,0.3,0.2,0.4,0.3c0.2,0.1,0.4,0.2,0.6,0.4c0.2,0.1,0.4,0.2,0.5,0.3
		c-0.9,0.4-1.7,0.9-2.3,1.6c-1.1,1.2-1.6,2.8-1,4.9c0,0,0,0,0.1,0c1.5,0,3-0.2,4.5-0.5c2.4-0.5,4.9-1,7.3-0.6c0,0,0,0,0,0
		c0,0,0,0,0,0c0,0,0,0,0,0c0.1,0.2,0.2,0.4,0.3,0.5c-0.3,0.3-0.7,0.6-1.1,0.9c-0.8,0.7-1.6,1.4-2.3,2.2c-1.9,2-3.7,4.2-3.7,6.5
		c0,0.3,0,0.6,0.1,0.9c0,0.2,0.1,0.4,0.2,0.6c0.1,0.2,0.2,0.3,0.2,0.5c0.1,0.2,0.3,0.4,0.4,0.5c0.2,0.2,0.4,0.4,0.7,0.5
		c0.3,0.1,0.6,0.2,0.8,0.3c0.2,0,0.3,0.1,0.5,0.1c0.6,0,1.3-0.1,2-0.5c0.3-0.2,0.7-0.4,1-0.7c0.6-0.6,1.1-1.3,1.6-2
		c0.1-0.1,0.2-0.2,0.3-0.4c0.2-0.2,0.3-0.5,0.5-0.7c0.1-0.1,0.2-0.2,0.2-0.3c0.2-0.2,0.3-0.5,0.5-0.7c0.1-0.1,0.1-0.2,0.2-0.3
		c0.7-0.8,1.5-1.6,2.2-2.3c1.3-1.2,2.6-2.2,3.9-3.4c2-1.8,3-5.2,3.6-8.3c0,0.1,0.1,0.2,0.1,0.3c0.1,0.3,0.2,0.6,0.3,0.9
		c0,0,0,0,0,0.1c0,0,0,0,0,0c-0.9,2.8-2.1,7.3-0.8,10.2c-0.3,1.3-1.6,9,0.4,11.5c0.6,0.7,1.4,0.9,2.6,0.5c0.4-0.1,0.7-0.4,1-0.7
		c1.1-1.2,1.2-3.7,1.4-5c0.7-4.6,1.4-9.2,2.2-13.8c0.1-0.7,0.2-1.5,0.3-2.2c0,0,0,0,0,0C1238.5,1189.2,1238.4,1186.8,1238.2,1184.4z
		"/>
	<g>
		<g id="XMLID_17_">
			<g>
				<path d="M1238.2,1184.4c0.2,2.3,0.3,4.7,0.1,7.1C1238.5,1189.2,1238.4,1186.8,1238.2,1184.4z"/>
				<path fill="#49301C" d="M1230.9,1189.6c-0.6,3.1-1.6,6.5-3.6,8.3c-1.3,1.2-2.6,2.3-3.9,3.4c-0.8,0.7-1.5,1.4-2.2,2.3
					c-0.3,0.3-0.5,0.6-0.7,0.9c-0.1,0.1-0.2,0.2-0.2,0.3c-0.2,0.2-0.3,0.5-0.5,0.7c-0.1,0.1-0.2,0.2-0.3,0.4c-0.5,0.7-1,1.4-1.6,2
					c-0.3,0.3-0.6,0.5-1,0.7c-0.7,0.4-1.4,0.6-2,0.5c-0.2,0-0.3,0-0.4,0c-0.3-0.1-0.6-0.2-0.9-0.3c-0.3-0.1-0.5-0.3-0.7-0.5
					c-0.2-0.2-0.3-0.3-0.4-0.5c-0.1-0.2-0.2-0.3-0.2-0.5c-0.1-0.2-0.1-0.4-0.2-0.6c-0.1-0.3-0.1-0.6-0.1-0.9
					c0.1-2.2,1.8-4.5,3.7-6.5c0.8-0.8,1.6-1.5,2.3-2.2c0.4-0.3,0.7-0.6,1.1-0.9c0,0,0,0,0,0c-0.1-0.2-0.2-0.3-0.3-0.5c0,0,0,0,0,0h0
					c0,0,0,0,0,0c0,0,0,0-0.1,0c-2.4-0.4-4.8,0.2-7.3,0.7c-1.5,0.3-3,0.5-4.5,0.5c0,0,0,0-0.1,0c-0.6-2.1-0.1-3.7,1-4.9
					c0.6-0.7,1.4-1.2,2.3-1.6c0,0,0,0,0,0c-0.2-0.1-0.3-0.2-0.5-0.3c-0.2-0.1-0.4-0.2-0.6-0.4c-0.1-0.1-0.3-0.2-0.4-0.3
					c-0.1-0.1-0.2-0.1-0.4-0.2c-0.1-0.1-0.3-0.2-0.4-0.3c-0.1-0.1-0.2-0.2-0.3-0.2c-0.2-0.2-0.4-0.3-0.6-0.5
					c-0.1-0.1-0.3-0.2-0.4-0.3c-0.1-0.1-0.2-0.2-0.3-0.3c-0.1-0.1-0.2-0.2-0.3-0.3c0,0,0,0,0,0c-0.1-0.1-0.2-0.2-0.3-0.3
					c0,0,0,0,0,0c-0.1-0.2-0.3-0.4-0.4-0.5c-0.1-0.2-0.2-0.4-0.3-0.6c-0.1-0.5-0.1-1,0.1-1.5c0,0,0,0,0,0c0.1-0.2,0.2-0.3,0.3-0.5
					c0.1-0.1,0.1-0.2,0.2-0.2c0.1-0.1,0.2-0.2,0.2-0.2c1.6-1.6,4.1-1.8,6.3-1.2c0.2,0,0.3,0.1,0.5,0.1c0.2,0.1,0.4,0.2,0.6,0.2
					c0.8,0.3,1.4,0.8,2,1.3c0.1,0.1,0.2,0.2,0.3,0.3h0c0.1-0.2,0.2-0.4,0.3-0.6c0-0.1,0.1-0.1,0.2-0.2c-0.5-0.9-1-1.7-1.6-2.6
					c-0.6-0.8-1.1-1.7-1.7-2.5c-0.4-0.6-0.8-1.2-1.1-1.8c-1.9-2.9-3.6-6.1-4.6-9.4c-1.9-5.9-2-12.2,1.5-18.1c0,0,0-0.1,0.1-0.1
					c0.3-0.3,1.1-0.8,1-0.6c0,0,0,0,0,0c0,0,0,0,0,0c-4.2,7.1-3.1,14.9,0.1,21.8c-0.4-2.6-0.4-5.3-0.2-7.2c0.2-1.5,0.5-2.9,1.2-4.2
					c0.2-0.3,1.3-0.9,1.1-0.7c-2.4,4.3-1.1,10.4,0.1,14.9c0.9,3.4,3.4,5.5,4.9,8.7c1.2,2.5,1.8,5,2,7.8c0.1,1.9,0.3,4.1,1.3,5.8
					c1.3,2.3,3.8,3.8,4.9-0.5c0.7-2.8-0.1-5.6-1.2-8.1c-1.4-3.2-2.1-5.3-1.7-8.7c0.4-3.5,3.3-5.7,3.8-9.3c0.1-0.4,1.2-0.9,1.2-0.9
					c-0.3,2.2-1.2,4.1-2.4,5.9c-1.1,1.7-1.3,2.3-1.5,4.5c-0.1,1.6,0.3,3,0.7,4.4c0-0.3,0-0.6,0.1-0.8c0.1-0.4,1.2-0.9,1.2-0.9
					c-0.3,1.9-0.1,4,0.4,5.9c0.3,0.7,0.5,1.5,0.6,2.3c0.5,2.7,0.5,6.3-1.7,8.2c-1.6,1.5-3,1.8-4.7,0.1c-0.3-0.3-0.5-0.6-0.7-0.8
					c-2.4,2.2-9.5,8.9-4.7,11.4c3.1,1.6,4.5-2.6,6.2-4.4c1.3-1.5,2.7-3,4.2-4.3c0.6-0.6,1.8-1.1,2.3-1.7c1.9-2.3,2.6-6.8,3-9.9
					c-0.4-1.3-0.6-2.6-0.7-3.9c0-0.4,1.2-1,1.2-0.9c0.1,1.3,0.3,2.5,0.6,3.8c0,0,0,0,0,0c0,0,0,0.1,0,0.1c0.4,1.5,1,3,1.6,4.4
					c0.1,0.3-0.8,0.9-1.1,1c-0.8,3.1-1.4,7.1,0.6,9.4c0.2,0.2-1,1.2-1.2,1c0,0,0,0,0-0.1c-0.6,2.8-1,6.1,0.6,8.5
					c0.3,0.4,0.8,1.2,1.4,1.4c1.3,0.3,1.1-1.1,1.3-2.4c1.1-6,2.7-12.8,2.6-19c-0.1-7.2,0.4-15.5-2.1-22.3c-2-5.5-5.1-11-9.1-15.4
					c0,0-1.1-1.9-1.3-3.6l2.4,2.6l0,0c0.3,0.3,0.6,0.6,0.8,1c0.6,0.7,1.1,1.3,1.7,2.1c3.6,4.7,6.8,10.6,7.7,16.1
					c0.6,3.3,0.5,6.8,0.7,10.1c0.1,1,0.1,2.1,0.2,3.1c0.2,2.3,0.3,4.7,0.1,7.1c0,0,0,0,0,0c-0.1,0.7-0.1,1.5-0.3,2.2
					c-0.8,4.6-1.5,9.2-2.2,13.8c-0.2,1.3-0.3,3.7-1.4,5c-0.3,0.3-0.6,0.5-1,0.6c-1.2,0.4-2,0.1-2.6-0.5c-2-2.4-0.7-10.1-0.4-11.5
					c-1.3-3-0.1-7.5,0.8-10.2c0,0,0,0,0,0c0,0,0,0,0-0.1c-0.1-0.3-0.2-0.6-0.3-0.9C1231,1189.8,1230.9,1189.7,1230.9,1189.6z
					 M1214.2,1195c1.4-0.3,2.8-0.6,4.2-0.6c-0.3-1.2-0.5-2.6-0.5-3.9c0,0,0,0,0,0c-1.8-0.5-4.8-0.7-7,0c0,0,0,0-0.1,0
					c-1.7,0.5-3,1.7-3,3.6c0,1.8,0.5,1.6,1.9,1.5C1211.1,1195.5,1212.7,1195.3,1214.2,1195z M1217.7,1189.3c0-0.3-0.1-0.6-0.1-0.9
					c-0.2-1.7-0.7-3.1-1.3-4.5c-0.1,0.4-0.1,0.9-0.2,1c-0.1,0.2-1,1.2-1.2,0.9c-1.1-1.8-3-2.6-5-2.9c-1.2-0.2-3.6-0.4-3.8,1.2
					c-0.1,0.7,0.3,1.8,0.8,2.3c0.7,0.8,2.3,1.4,3.2,2c0.5,0.4,1,0.7,1.5,1.1c0,0,0,0.1,0,0.1
					C1213.7,1189.1,1215.9,1189,1217.7,1189.3z"/>
				<path d="M1238.3,1191.5c-0.1,0.7-0.1,1.5-0.3,2.2c-0.8,4.6-1.5,9.2-2.2,13.8c0.7-4.6,1.4-9.2,2.2-13.8
					C1238.2,1193,1238.3,1192.3,1238.3,1191.5z"/>
				<path fill="#734E27" d="M1237.2,1190.8c0.1,6.2-1.5,12.9-2.6,19c-0.2,1.3,0,2.7-1.3,2.4c-0.5-0.1-1.1-1-1.4-1.4
					c-1.5-2.4-1.2-5.7-0.6-8.5c0,0,0,0,0,0.1c0.2,0.2,1.3-0.8,1.2-1c-2-2.3-1.4-6.3-0.6-9.4c0.3-0.1,1.2-0.7,1.1-1
					c-0.6-1.4-1.1-2.9-1.6-4.4c0,0,0-0.1,0-0.1c0,0,0,0,0,0c-0.3-1.2-0.6-2.5-0.6-3.8c0-0.2-1.2,0.5-1.2,0.9
					c0.1,1.3,0.3,2.6,0.7,3.9c-0.5,3.1-1.2,7.5-3,9.9c-0.5,0.6-1.7,1.2-2.3,1.7c-1.5,1.3-2.8,2.8-4.2,4.3c-1.7,1.9-3.1,6-6.2,4.4
					c-4.8-2.4,2.3-9.2,4.7-11.4c0.2,0.3,0.4,0.6,0.7,0.8c1.7,1.7,3,1.3,4.7-0.1c2.2-2,2.2-5.5,1.7-8.2c-0.1-0.8-0.4-1.5-0.6-2.3
					c-0.6-1.9-0.7-3.9-0.4-5.9c0-0.1-1.1,0.4-1.2,0.9c0,0.3-0.1,0.6-0.1,0.8c-0.5-1.3-0.8-2.7-0.7-4.4c0.1-2.2,0.3-2.8,1.5-4.5
					c1.2-1.8,2.1-3.7,2.4-5.9c0-0.1-1.1,0.5-1.2,0.9c-0.6,3.6-3.5,5.8-3.8,9.3c-0.4,3.5,0.3,5.6,1.7,8.7c1.1,2.5,1.9,5.3,1.2,8.1
					c-1.1,4.2-3.6,2.8-4.9,0.5c-1-1.7-1.2-3.9-1.3-5.8c-0.2-2.8-0.7-5.3-2-7.8c-1.5-3.2-4-5.3-4.9-8.7c-1.2-4.5-2.5-10.5-0.1-14.9
					c0.2-0.3-0.9,0.4-1.1,0.7c-0.7,1.3-1.1,2.7-1.2,4.2c-0.2,2-0.2,4.6,0.2,7.2c-3.2-6.9-4.3-14.7-0.1-21.8c0,0,0,0,0,0
					c0.4-0.4,7.8-8,17.5,3.9l-2.4-2.6c0.2,1.7,1.3,3.6,1.3,3.6c4,4.4,7,9.9,9.1,15.4C1237.6,1175.3,1237,1183.6,1237.2,1190.8z"/>
				<path d="M1233.6,1213.2c0.4-0.1,0.7-0.4,1-0.6C1234.3,1212.8,1233.9,1213,1233.6,1213.2c-1.2,0.4-2,0.1-2.6-0.5
					C1231.6,1213.3,1232.4,1213.6,1233.6,1213.2z"/>
				<path fill="#734E27" d="M1231,1189.9c0.1,0.3,0.2,0.6,0.3,0.9c0,0,0,0,0,0.1c0,0,0,0,0-0.1
					C1231.2,1190.5,1231.1,1190.2,1231,1189.9z"/>
				<path d="M1228,1153.1c0.6,0.7,1.1,1.3,1.7,2.1C1229.1,1154.5,1228.5,1153.8,1228,1153.1z"/>
				<path d="M1223.4,1201.3c-0.8,0.7-1.5,1.4-2.2,2.3c-0.3,0.3-0.5,0.6-0.7,0.9c0.2-0.3,0.5-0.7,0.7-0.9
					C1221.8,1202.7,1222.6,1202,1223.4,1201.3z"/>
				<path d="M1220.2,1204.8c-0.2,0.2-0.3,0.5-0.5,0.7C1219.8,1205.3,1220,1205,1220.2,1204.8z"/>
				<path d="M1219.4,1205.9c-0.5,0.7-1,1.4-1.6,2C1218.4,1207.3,1218.9,1206.6,1219.4,1205.9z"/>
				<path fill="#734E27" d="M1219,1196C1219,1196,1219,1196.1,1219,1196c-0.3,0.3-0.7,0.6-1.1,0.9
					C1218.3,1196.7,1218.7,1196.3,1219,1196z"/>
				<path fill="#734E27" d="M1218.7,1195.5C1218.7,1195.5,1218.7,1195.5,1218.7,1195.5C1218.7,1195.5,1218.7,1195.5,1218.7,1195.5
					L1218.7,1195.5z"/>
				<path d="M1218.7,1195.5C1218.7,1195.5,1218.6,1195.5,1218.7,1195.5c-2.4-0.4-4.9,0.2-7.3,0.7
					C1213.8,1195.7,1216.2,1195.1,1218.7,1195.5C1218.6,1195.5,1218.7,1195.5,1218.7,1195.5z"/>
				<path fill="#734E27" d="M1218.3,1194.4c-1.4,0-2.8,0.3-4.2,0.6c-1.5,0.3-3,0.6-4.6,0.7c-1.4,0.1-1.9,0.3-1.9-1.5
					c0-2,1.3-3.1,3-3.6c0,0,0,0,0.1,0c2.2-0.7,5.1-0.5,7,0c0,0,0,0,0,0C1217.9,1191.8,1218,1193.2,1218.3,1194.4z"/>
				<path fill="#734E27" d="M1217.6,1188.4c0,0.3,0.1,0.6,0.1,0.9c-1.8-0.3-4-0.2-6,0.4c0-0.1,0-0.1,0-0.1c-0.5-0.4-1-0.7-1.5-1.1
					c-0.9-0.6-2.5-1.2-3.2-2c-0.5-0.5-0.9-1.6-0.8-2.3c0.2-1.6,2.7-1.3,3.8-1.2c2,0.3,3.8,1.1,5,2.9c0.2,0.3,1.1-0.7,1.2-0.9
					c0-0.1,0.1-0.6,0.2-1C1216.9,1185.3,1217.4,1186.7,1217.6,1188.4z"/>
				<path fill="#734E27" d="M1215.8,1183.5c-0.1,0.2-0.3,0.4-0.3,0.6h0v0C1215.6,1183.9,1215.7,1183.7,1215.8,1183.5z"/>
				<path d="M1215.5,1184.1L1215.5,1184.1c-0.1-0.1-0.2-0.2-0.3-0.3C1215.3,1183.9,1215.4,1184,1215.5,1184.1z"/>
				<path fill="#734E27" d="M1215.6,1199.2c-1.9,2-3.7,4.3-3.7,6.5c0,0.3,0,0.6,0.1,0.9c-0.1-0.3-0.1-0.6-0.1-0.9
					C1211.9,1203.4,1213.7,1201.1,1215.6,1199.2z"/>
				<path d="M1214.4,1209c0.1,0,0.3,0,0.4,0C1214.6,1209.1,1214.5,1209,1214.4,1209z"/>
				<path fill="#734E27" d="M1212.7,1178.3c0.6,0.8,1.1,1.7,1.7,2.5C1213.9,1179.9,1213.3,1179.1,1212.7,1178.3z"/>
				<path d="M1212.8,1208.2c0.2,0.2,0.4,0.4,0.7,0.5C1213.2,1208.6,1213,1208.4,1212.8,1208.2z"/>
				<path fill="#734E27" d="M1212.6,1182.3c0.2,0.1,0.4,0.2,0.6,0.2C1213,1182.5,1212.8,1182.4,1212.6,1182.3z"/>
				<path d="M1212.1,1207.1c0.1,0.2,0.2,0.3,0.2,0.5C1212.3,1207.5,1212.2,1207.3,1212.1,1207.1z"/>
				<path fill="#734E27" d="M1212.1,1182.2c-2.2-0.7-4.7-0.4-6.3,1.2c-0.1,0.1-0.2,0.2-0.2,0.2c0.1-0.1,0.1-0.2,0.2-0.3
					C1207.4,1181.7,1209.9,1181.5,1212.1,1182.2z"/>
				<path fill="#734E27" d="M1210.2,1190.2C1210.2,1190.2,1210.2,1190.2,1210.2,1190.2c-0.9,0.4-1.7,0.9-2.3,1.6
					C1208.4,1191.1,1209.2,1190.6,1210.2,1190.2z"/>
				<path d="M1209.6,1189.8c0.2,0.1,0.4,0.2,0.5,0.3C1210,1190.1,1209.8,1190,1209.6,1189.8z"/>
				<path d="M1209.6,1148.3C1209.6,1148.3,1209.6,1148.3,1209.6,1148.3C1209.6,1148.3,1209.6,1148.3,1209.6,1148.3
					C1209.6,1148.3,1209.6,1148.3,1209.6,1148.3z"/>
				<path d="M1209,1189.5c0.2,0.1,0.4,0.2,0.6,0.4C1209.4,1189.7,1209.2,1189.6,1209,1189.5z"/>
				<path fill="#734E27" d="M1208.6,1148.9C1208.5,1148.9,1208.5,1148.9,1208.6,1148.9c-3.6,6-3.5,12.3-1.6,18.2
					C1205.1,1161.1,1205,1154.8,1208.6,1148.9C1208.5,1148.9,1208.5,1148.9,1208.6,1148.9z"/>
				<path d="M1208.3,1189c0.1,0.1,0.2,0.2,0.4,0.2C1208.5,1189.2,1208.4,1189.1,1208.3,1189z"/>
				<path d="M1207.5,1188.5c0.1,0.1,0.2,0.2,0.3,0.2C1207.8,1188.7,1207.6,1188.6,1207.5,1188.5z"/>
				<path d="M1206.5,1187.8c0.1,0.1,0.3,0.2,0.4,0.3C1206.7,1188,1206.6,1187.9,1206.5,1187.8z"/>
				<path d="M1205.9,1187.3c0.1,0.1,0.2,0.2,0.3,0.3C1206.1,1187.4,1206,1187.3,1205.9,1187.3z"/>
				<path fill="#734E27" d="M1205.6,1186.9c0.1,0.1,0.2,0.2,0.3,0.3C1205.8,1187.1,1205.7,1187,1205.6,1186.9z"/>
				<path fill="#734E27" d="M1205.3,1186.4c0.1,0.2,0.2,0.4,0.4,0.5C1205.5,1186.7,1205.4,1186.5,1205.3,1186.4z"/>
				<path fill="#734E27" d="M1205.4,1183.8c-0.1,0.2-0.2,0.3-0.3,0.5C1205.2,1184.1,1205.3,1184,1205.4,1183.8z"/>
				<path fill="#734E27" d="M1205.1,1184.3c-0.3,0.5-0.3,1-0.1,1.5C1204.9,1185.3,1204.9,1184.8,1205.1,1184.3z"/>
			</g>
		</g>
	</g>
</g>
<g id="ch05-07-1">
	<g id="main_x5F_comp_1_">
		<g id="hand_washing_copy">
		</g>
	</g>
	<g id="assets">
	</g>
	<g id="hand_washing">
	</g>
</g>
</svg>
