<?xml version="1.0" encoding="utf-8"?>
<!-- Generator: Adobe Illustrator 18.1.1, SVG Export Plug-In . SVG Version: 6.00 Build 0)  -->
<svg version="1.1" xmlns="http://www.w3.org/2000/svg" xmlns:xlink="http://www.w3.org/1999/xlink" x="0px" y="0px"
	 viewBox="1309.2 2080.7 53.4 25.9" enable-background="new 1309.2 2080.7 53.4 25.9" xml:space="preserve">
<g id="additional_reference">
</g>
<g id="ch07-09-1">
</g>
<g id="ch04-05-1">
</g>
<g id="ch04-11-2">
</g>
<g id="ch04-06-1">
	<g id="older_version">
		<g id="head_3_" display="none">
			<g id="hair_3_">
			</g>
		</g>
		<g id="hands" display="none">
		</g>
		<g id="head_4_" display="none">
		</g>
		<g id="new_path" display="none">
		</g>
		<g id="handback" display="none">
		</g>
		<g id="handFront">
		</g>
		<g id="Layer_21" display="none">
		</g>
	</g>
	<g id="path_copy-with_stroke">
		<g id="handBack_copy">
		</g>
		<g id="head_copy">
		</g>
		<g id="neck_copy">
		</g>
		<g id="sleeve_copy">
		</g>
		<g id="handFront_copy">
		</g>
		<g id="skirt_copy">
		</g>
		<g id="torso_copy">
		</g>
	</g>
	<g id="comp_layer">
		<g id="skirt_copy_3">
			<g id="skirt_copy_3_2_">
			</g>
			<g id="skirt_copy_3_1_">
			</g>
		</g>
		<g id="torso_copy_2">
		</g>
		<g id="sleeve_copy_2">
		</g>
		<g id="neck_5_">
		</g>
		<g id="head_copy_2">
			<g id="head-silo_copy">
			</g>
		</g>
		<g id="head_copy_3">
			<g id="head-silo_copy_2">
			</g>
		</g>
		<g id="handFront_copy_2">
		</g>
		<g id="handBack_copy_2">
		</g>
	</g>
	<g id="skirt_5_">
		<g id="skirt_4_">
		</g>
		<g id="skirt_copy_2">
		</g>
	</g>
	<g id="torso_copy_3">
	</g>
	<g id="sleeve">
	</g>
	<g id="neck_6_">
	</g>
	<g id="handBack">
	</g>
	<g id="handFront_1_">
	</g>
</g>
<g id="ch04-03-2">
	<g>
		<path fill="#49301C" d="M1359,2080.8c-0.4,0.3,0.5,0.9,0.6,1l0.6,0.7c0.7,0.8,1,1.5,1.1,2.3c-0.2,0.1-0.3,0.1-0.3,0.2
			c-4.3,3.9-9.4,0.6-14.1,2.2c-1.1,0.4-1.7,1-2.7,1.6c-1.2,0.6-2.9,2.1-4.4,1.9c-1.4-0.2-2.6-1.7-3.8-2.2c-3.4-1.5-7,0.1-10.5,0.6
			c-5,0.7-9.1-1.5-13.9-1.9c-0.1,0-0.2,0-0.3,0c0.3-0.6,0.7-1.2,1.1-1.8c0.3-0.3,0.4-0.5,0.1-0.5c-0.4,0-1.2,0.7-1.4,1
			c-1.3,1.7-2.6,3.8-1.5,6c0.2,0.3,1.8-0.7,1.6-1.1c-0.4-0.7-0.5-1.3-0.4-2c0.3,0.1,0.7,0.1,1,0.2c5.7,4.3,8.1,11.9,14.3,15.5
			c4.8,2.8,10.9,2.7,16.2,1.6c4.2-0.9,8.5-1.6,11.9-5.9c1.3-1.6,2-2.6,3-4.6c1.5-3,1.7-5.7,3.2-8.7c0.3-0.2,0.6-0.4,0.8-0.7
			c-0.1,0.7-0.3,1.4-0.5,2.3c0,0.2,1.6-0.6,1.6-1.2c0.4-2.7,0-3.6-1.9-5.6C1360.4,2081.5,1359.4,2080.5,1359,2080.8z"/>
	</g>
	<g id="assets_2_">
		<g id="torso_x5F_34down_2_">
			<g id="XMLID_19_">
				<g>
					<path fill="#7E5323" d="M1321.8,2092c-1.4-0.8-2.7-1.7-4.1-2.5c2.5,0.5,5,0.9,7.8,0.4c4.4-0.8,6.8-1.9,11,0.1
						c1.3,0.6,1.8,2,3.5,1.8c1.2-0.2,2.2-1,3.2-1.5c3.5-1.9,6.5-1.9,10.4-1.9c2.3,0,4.2-0.5,5.9-1.5c-0.1,0.1-0.2,0.2-0.2,0.2
						c0,0.1-0.1,0.2-0.2,0.3c-2.6,2.1-4.7,3.4-6.9,4.8c-5.2,3.1-12,3.9-17.8,3.7C1329.8,2095.6,1325.9,2094.3,1321.8,2092z"/>
					<path fill="#49301C" d="M1315.3,2089.8c5.3,7.1,9.2,15.1,19.5,15.5c5.6,0.2,12.6-0.1,16.8-3.7c4.8-4,4.1-5.7,5.6-10.3
						c0.3-0.9,0.8-1.8,1.3-2.7c-5,5.1-9.5,7.4-17,8.1c-5.2,0.5-11.2,0.8-16.1-1.4C1322,2093.8,1318.8,2091.3,1315.3,2089.8z
						 M1311.5,2087c4.9,0.4,9,2.6,13.9,1.9c3.5-0.5,7.1-2.1,10.5-0.6c1.2,0.5,2.4,2.1,3.8,2.2c1.4,0.2,3.2-1.3,4.3-1.9
						c1-0.5,1.6-1.2,2.7-1.6c4.7-1.6,9.8,1.7,14.1-2.2c0.1-0.1,0.2-0.1,0.3-0.2c-0.1-0.7-0.4-1.4-1.1-2.3l-0.6-0.7
						c-0.1-0.1-1-0.7-0.6-1c0.4-0.3,1.3,0.7,1.5,0.9c1.9,2,2.3,2.9,1.9,5.6c-0.1,0.5-1.7,1.4-1.6,1.2c0.2-0.9,0.3-1.7,0.5-2.4
						c-0.3,0.2-0.6,0.5-0.8,0.7c-1.5,3-1.7,5.8-3.2,8.7c-1,1.9-1.7,2.9-3,4.6c-3.3,4.3-7.8,5-11.9,5.9c-5.3,1.1-11.4,1.2-16.2-1.6
						c-6.2-3.6-8.7-11.2-14.3-15.5c-0.3-0.1-0.7-0.1-1-0.2c-0.1,0.6,0,1.3,0.4,2c0.2,0.4-1.4,1.4-1.6,1.1c-1.1-2.1,0.1-4.2,1.5-6
						c0.2-0.3,1.1-0.9,1.4-1c0.3,0,0.2,0.2-0.1,0.5c-0.4,0.5-0.8,1.1-1.1,1.8C1311.4,2087,1311.5,2087,1311.5,2087z M1325.6,2089.9
						c-2.8,0.5-5.3,0.1-7.8-0.4c1.3,0.8,2.7,1.7,4.1,2.5c4.1,2.3,7.9,3.5,12.7,3.8c5.8,0.3,12.6-0.6,17.8-3.7
						c2.3-1.4,4.3-2.7,6.9-4.8c0.1-0.1,0.1-0.2,0.2-0.3c0-0.1,0.1-0.2,0.2-0.2c-1.8,1-3.7,1.5-5.9,1.5c-3.9,0-6.9,0-10.4,1.9
						c-1,0.6-2,1.4-3.2,1.5c-1.7,0.2-2.2-1.2-3.5-1.8C1332.3,2088.1,1330,2089.1,1325.6,2089.9z"/>
					<path fill="#7E5323" d="M1315.3,2089.8c3.5,1.5,6.7,4,10.1,5.5c4.9,2.2,10.9,1.9,16.1,1.4c7.5-0.7,12-3,17-8.1
						c-0.5,0.9-1,1.7-1.3,2.7c-1.5,4.6-0.8,6.3-5.6,10.3c-4.3,3.6-11.2,3.9-16.8,3.7C1324.5,2104.9,1320.6,2097,1315.3,2089.8z"/>
				</g>
			</g>
		</g>
	</g>
</g>
<g id="ch04-02-2_safe_copy" display="none">
	<g id="mainComp_x5F_paths-back-up_copy">
		<g id="eye_x5F_close_x5F_comp_copy_2_1_" display="inline">
		</g>
		<g id="eye_x5F_far_x5F_comp_copy_2_1_" display="inline">
		</g>
	</g>
	<g id="mainComp_copy" display="inline">
		<g id="eye_x5F_close_x5F_comp_copy_2">
		</g>
		<g id="eye_x5F_far_x5F_comp_copy_2">
		</g>
	</g>
	<g id="eye_x5F_close_copy" display="inline">
	</g>
	<g id="eye_x5F_far_copy" display="inline">
	</g>
	<g id="pupil_copy" display="inline">
	</g>
</g>
<g id="ch04-02-1">
	<g id="mainComp_x5F_paths-back-up" display="none">
		<g id="eye_x5F_close_x5F_comp_copy" display="inline">
		</g>
		<g id="eye_x5F_far_x5F_comp_copy" display="inline">
		</g>
	</g>
	<g id="mainComp">
		<g id="eye_x5F_close_x5F_comp">
		</g>
		<g id="eye_x5F_far_x5F_comp">
		</g>
	</g>
	<g id="eye_x5F_close_copy_2">
	</g>
	<g id="eye_x5F_close">
	</g>
	<g id="eye_x5F_far_copy_2">
	</g>
	<g id="eye_x5F_far">
	</g>
	<g id="pupil_copy_2">
	</g>
	<g id="pupil_4_">
	</g>
</g>
<g id="ch05-07-1">
	<g id="main_x5F_comp_1_">
		<g id="hand_washing_copy">
		</g>
	</g>
	<g id="assets">
	</g>
	<g id="hand_washing">
	</g>
</g>
</svg>
