<?xml version="1.0" encoding="utf-8"?>
<!-- Generator: Adobe Illustrator 18.1.1, SVG Export Plug-In . SVG Version: 6.00 Build 0)  -->
<svg version="1.1" xmlns="http://www.w3.org/2000/svg" xmlns:xlink="http://www.w3.org/1999/xlink" x="0px" y="0px"
	 viewBox="1023.6 780.1 31.4 109.2" enable-background="new 1023.6 780.1 31.4 109.2" xml:space="preserve">
<g id="additional_reference">
</g>
<g id="ch07-09-1">
</g>
<g id="ch04-05-1">
</g>
<g id="ch04-11-2">
</g>
<g id="ch04-06-1">
	<g id="older_version">
		<g id="head_3_" display="none">
			<g id="hair_3_">
			</g>
		</g>
		<g id="hands" display="none">
		</g>
		<g id="head_4_" display="none">
		</g>
		<g id="new_path" display="none">
		</g>
		<g id="handback" display="none">
		</g>
		<g id="handFront">
		</g>
		<g id="Layer_21" display="none">
		</g>
	</g>
	<g id="path_copy-with_stroke">
		<g id="handBack_copy">
		</g>
		<g id="head_copy">
		</g>
		<g id="neck_copy">
		</g>
		<g id="sleeve_copy">
		</g>
		<g id="handFront_copy">
		</g>
		<g id="skirt_copy">
		</g>
		<g id="torso_copy">
		</g>
	</g>
	<g id="comp_layer">
		<g id="skirt_copy_3">
			<g id="skirt_copy_3_2_">
			</g>
			<g id="skirt_copy_3_1_">
			</g>
		</g>
		<g id="torso_copy_2">
		</g>
		<g id="sleeve_copy_2">
		</g>
		<g id="neck_5_">
		</g>
		<g id="head_copy_2">
			<g id="head-silo_copy">
			</g>
		</g>
		<g id="head_copy_3">
			<g id="head-silo_copy_2">
			</g>
		</g>
		<g id="handFront_copy_2">
		</g>
		<g id="handBack_copy_2">
		</g>
	</g>
	<g id="skirt_5_">
		<g id="skirt_4_">
		</g>
		<g id="skirt_copy_2">
		</g>
	</g>
	<g id="torso_copy_3">
	</g>
	<g id="sleeve">
	</g>
	<g id="neck_6_">
	</g>
	<g id="handBack">
	</g>
	<g id="handFront_1_">
	</g>
</g>
<g id="ch04-03-2">
</g>
<g id="ch04-02-2_safe_copy" display="none">
	<g id="mainComp_x5F_paths-back-up_copy">
		<g id="eye_x5F_close_x5F_comp_copy_2_1_" display="inline">
		</g>
		<g id="eye_x5F_far_x5F_comp_copy_2_1_" display="inline">
		</g>
	</g>
	<g id="mainComp_copy" display="inline">
		<g id="eye_x5F_close_x5F_comp_copy_2">
		</g>
		<g id="eye_x5F_far_x5F_comp_copy_2">
		</g>
	</g>
	<g id="eye_x5F_close_copy" display="inline">
	</g>
	<g id="eye_x5F_far_copy" display="inline">
	</g>
	<g id="arm_4_" display="inline">
		<path fill="#734E27" d="M1054.3,806.4c-0.4-6.1-2.1-11.4-5.3-16.8c-3.3-5.6-7-9.7-13.8-9.4c-0.1,0-0.2,0-0.2,0
			c-5.7,0.4-8.3,4.3-9.6,9.9c-2.5,10.9-1.7,23.5-1.5,34.7c0.3,17.9,1.6,36,4.2,53.8l0,0c0.4,2.1,1.1,4,2,5.5c0,0,0,0,0,0
			c2.3,3.8,6.1,5.9,11.4,5.1c3.6-0.5,5.9-2.4,7.4-5c0.1-0.1,0.1-0.2,0.2-0.3c1.1-2,1.7-4.4,2.2-6.8
			C1055.1,854,1055.7,829.7,1054.3,806.4z"/>
		<path d="M1054.3,806.4c-0.4-6.1-2.1-11.4-5.3-16.8c-3.3-5.6-7-9.7-13.8-9.4c-0.1,0-0.2,0-0.2,0c-5.7,0.4-8.3,4.3-9.6,9.9
			c-2.5,10.9-1.7,23.5-1.5,34.7c0.3,17.9,1.6,36,4.2,53.8l0,0c0.4,2.1,1.1,4,2,5.5c-0.8-1.7-1-3.8-0.9-5.5c0-0.1,0-0.2,0-0.3
			c0.1-1.9,0.4-3.4,0.4-3.4c-1.3-10.3-2.2-20.7-2.9-31.1c-0.6-9.8-1-19.7-0.9-29.5c0.1-8.2-0.4-17.9,2-25.9c0.9-3,2.4-6.8,5.7-7.7
			c0.5-0.1,0.9-0.2,1.4-0.3c4.4-0.4,7.5,2.9,9.9,6.2c3.2,4.5,6.3,10,7.2,15.5c0.8,4.6,0.6,9.6,0.7,14.2c0.2,9.2,0.1,18.3-0.4,27.5
			c-0.5,9.4-0.7,19.6-2.3,29.2l0,0c0,0.5,0.2,8-1.1,10.9c1.1-2,1.7-4.4,2.2-6.8C1055.1,854,1055.7,829.7,1054.3,806.4z"/>
	</g>
	<g id="pupil_copy" display="inline">
	</g>
</g>
<g id="ch04-02-1">
	<g id="mainComp_x5F_paths-back-up" display="none">
		<g id="eye_x5F_close_x5F_comp_copy" display="inline">
		</g>
		<g id="eye_x5F_far_x5F_comp_copy" display="inline">
		</g>
	</g>
	<g id="mainComp">
		<g id="eye_x5F_close_x5F_comp">
		</g>
		<g id="eye_x5F_far_x5F_comp">
		</g>
	</g>
	<g id="eye_x5F_close_copy_2">
	</g>
	<g id="eye_x5F_close">
	</g>
	<g id="eye_x5F_far_copy_2">
	</g>
	<g id="eye_x5F_far">
	</g>
	<path fill="#734E27" d="M1054.3,806.4c-0.4-6.1-2.1-11.4-5.3-16.8c-3.2-5.4-6.8-9.5-13.3-9.4c-0.2,0-0.4,0-0.5,0
		c-0.1,0-0.2,0-0.2,0c-5.7,0.4-8.3,4.3-9.6,9.9c-2.5,10.9-1.7,23.5-1.5,34.7c0.4,17.9,1.6,36,4.2,53.8l0,0c0.4,2.1,1,4,2,5.5
		c0,0,0,0,0,0c2.3,3.8,6.1,5.9,11.4,5.1c3.6-0.5,5.9-2.4,7.4-5c0-0.1,0.1-0.2,0.2-0.3c1.1-2,1.7-4.4,2.2-6.8
		C1055.1,854,1055.7,829.7,1054.3,806.4z"/>
	<g id="arm_8_">
		<g id="XMLID_20_">
			<g>
				<path fill="#734E27" d="M1052.8,816.3c0.2,9.2,0.1,18.3-0.3,27.5c-0.5,9.4-0.7,19.6-2.3,29.2h0c0,0.5,0.2,8-1.1,10.9
					c-0.1,0.1-0.1,0.2-0.2,0.3c-1.5,2.6-3.8,4.5-7.4,5c-5.3,0.8-9.1-1.3-11.4-5.1c0,0,0,0,0,0c-0.8-1.7-1-3.8-0.9-5.5
					c0-0.1,0-0.2,0-0.3c0.1-1.9,0.4-3.4,0.4-3.4c-1.4-10.3-2.2-20.7-2.9-31.1c-0.6-9.8-1-19.7-0.9-29.5c0.1-8.2-0.4-17.9,2-25.9
					c0.9-3,2.4-6.8,5.7-7.7c0.5-0.1,0.9-0.2,1.4-0.3c0.3,0,0.5,0,0.8,0c4,0,6.9,3.1,9.1,6.3c3.2,4.5,6.3,10,7.2,15.5
					C1052.8,806.7,1052.6,811.7,1052.8,816.3z"/>
				<path fill="#734E27" d="M1052.4,843.8c0.5-9.2,0.6-18.3,0.3-27.5c-0.1-4.7,0-9.6-0.7-14.2c-0.9-5.5-4-11-7.2-15.5
					c-2.2-3.1-5.1-6.3-9.1-6.3v-0.1c6.5-0.1,10.1,4,13.3,9.4c3.2,5.4,4.9,10.7,5.3,16.8c1.4,23.3,0.8,47.6-3.2,70.6
					c-0.4,2.5-1.1,4.9-2.2,6.8c1.4-2.8,1.2-10.4,1.1-10.9h0C1051.8,863.4,1051.9,853.2,1052.4,843.8z"/>
				<path fill="#734E27" d="M1028.1,878.5L1028.1,878.5c-2.5-17.8-3.8-35.8-4.2-53.8c-0.2-11.1-1-23.8,1.5-34.7
					c1.3-5.6,3.9-9.5,9.6-9.9c0.1,0,0.2,0,0.2,0c0.2,0,0.4,0,0.5,0v0.1c-0.3,0-0.5,0-0.8,0c-0.5,0-0.9,0.1-1.4,0.3
					c-3.3,0.9-4.8,4.7-5.7,7.7c-2.5,7.9-1.9,17.6-2,25.9c-0.1,9.8,0.2,19.7,0.9,29.5c0.6,10.4,1.5,20.8,2.9,31.1
					c0,0-0.4,1.5-0.4,3.4c0,0.1,0,0.2,0,0.3c-0.1,1.8,0.1,3.8,0.9,5.5C1029.1,882.5,1028.5,880.6,1028.1,878.5z"/>
			</g>
		</g>
	</g>
	<g id="pupil_copy_2">
	</g>
	<g id="pupil_4_">
	</g>
</g>
<g id="ch05-07-1">
	<g id="main_x5F_comp_1_">
		<g id="hand_washing_copy">
		</g>
	</g>
	<g id="assets">
	</g>
	<g id="hand_washing">
	</g>
</g>
</svg>
