<?xml version="1.0" encoding="utf-8"?>
<!-- Generator: Adobe Illustrator 18.1.1, SVG Export Plug-In . SVG Version: 6.00 Build 0)  -->
<svg version="1.1" xmlns="http://www.w3.org/2000/svg" xmlns:xlink="http://www.w3.org/1999/xlink" x="0px" y="0px"
	 viewBox="621.1 3877.7 38.3 40.4" enable-background="new 621.1 3877.7 38.3 40.4" xml:space="preserve">
<g id="additional_reference">
</g>
<g id="ch07-09-1">
</g>
<g id="ch04-05-1">
</g>
<g id="ch04-11-2">
	<path fill="#49301C" d="M658,3901.3L658,3901.3C658,3901.3,658,3901.2,658,3901.3c-0.2-0.6-0.1-1.4-0.2-2c-0.1-0.9-0.3-1.7-0.7-2.5
		c-0.3-0.7-0.8-1.4-1.2-2c-0.5-0.8-0.9-1.6-1.4-2.4c-1.1-1.6-2.4-3.3-3.6-4.8c-0.9-1-2.4-1.9-3.8-1.8c-0.5,0-1,0.2-1.4,0.3
		c-0.4,0.1-0.7,0.3-1,0.5c0,0,0,0,0,0c0,0,0,0,0,0c-0.2-0.1-0.4,0.3-0.5,0.4c0,0-0.1,0.1-0.1,0.1c-0.1,0.2-0.2,0.3-0.1,0.3
		c-0.3,0.6-0.5,5.1-0.6,5.3c-0.3,1.8-1.1,3.8-2.1,5.3c0,0,0,0,0,0c0,0,0,0.1,0,0.1c0,0,0,0.1-0.1,0.1c0,0,0,0,0,0
		c-1.3,2.7-4.2,5.9-7,6.9c-1.8,0.6-4.3,2.5-6,2.3c0,0,0,0,0,0c-0.4-0.1-1,0.3-1.3,0.7c-0.4,0.8,0.2,1.7,0.6,2.3c1,1.2,2.5,2.1,3.7,3
		c0.5,0.3,0.9,0.7,1.3,0.8c0,0,0,0.1,0.1,0.1c2.5,0.3,4.5,1.1,6.8,2.3c2.1,1.1,4.3,1.1,6.6,1.1c0.1-0.2,1.1-0.4,1.4-0.6h0
		c0.7,0,1.4-0.6,2-0.9c0.7-0.4,1.3-0.9,1.9-1.4c1.2-0.9,2.3-2,3.2-3.3c0.3-0.5,0.7-1.1,0.8-1.8c0.1-0.1,0.2-0.1,0.2-0.2
		c1.6-2.4,1.8-5.6,2.6-8.2C658.1,3901.3,658.1,3901.3,658,3901.3z"/>
	<g id="palm_4_">
		<g>
			<g id="XMLID_67_">
				<g>
					<path fill="#49301C" d="M655.2,3909.9c-0.2,0.2-0.4,0.2-0.2-0.2c1.5-2.2,1.7-5.3,2.4-7.8c0-0.2,0.4-0.6,0.6-0.6
						c0,0,0,0.1,0,0.2c-0.8,2.7-1,5.9-2.6,8.2C655.4,3909.8,655.3,3909.9,655.2,3909.9z"/>
					<path fill="#734E27" d="M658,3901.2C658,3901.2,658,3901.3,658,3901.2L658,3901.2c-0.1,0.1-0.5,0.5-0.5,0.7
						c-0.7,2.5-0.9,5.6-2.4,7.8c-0.3,0.4-0.1,0.4,0.2,0.2c-0.1,0.6-0.4,1.3-0.8,1.8c-0.9,1.3-2,2.3-3.2,3.3c-0.6,0.5-1.3,1-1.9,1.4
						c-0.6,0.3-1.3,0.9-2,0.9c0,0,0,0,0.1-0.1c-0.1,0-0.9,0.1-1.2,0.1c0,0,0,0,0,0c-3-0.1-5-0.9-7.6-2.2c-1.7-0.8-3.6-1.2-5.4-1.4
						c-0.2,0-0.6,0.5-0.6,0.8c-0.5-0.1-0.9-0.5-1.3-0.8c-1.2-0.9-2.8-1.8-3.7-3c-0.5-0.6-1-1.5-0.7-2.3c0.2-0.5,0.8-0.8,1.3-0.7
						c-0.3,0.1-0.7,0.8-0.5,0.8c1.6,0.1,2.8-1,4.2-1.7c1.5-0.7,3.2-0.9,4.5-1.9c2.1-1.7,4.2-4.4,5.4-6.8c0,0,0,0,0,0
						c0.9-1.3,1.4-2.8,1.9-4.3c0.7-2.3,0.3-4.7,1.1-6.9c0,0,0.1-0.2,0-0.2h0c0.3-0.2,0.6-0.4,1-0.5c0.5-0.1,0.9-0.3,1.4-0.3
						c1.4-0.1,2.9,0.7,3.8,1.8c1.3,1.5,2.5,3.1,3.6,4.8c0.5,0.8,1,1.6,1.4,2.4c0.4,0.7,0.9,1.3,1.2,2c0.3,0.8,0.5,1.7,0.7,2.5
						C657.9,3899.9,657.8,3900.7,658,3901.2z M646.3,3900.7c0.2-0.2,0.5-1,0.1-0.6c-2.1,2.1-3.6,4.8-4.4,7.7
						c-0.4,1.4-1.3,5.1,0.1,6.2c0.2,0.1,0.8-0.7,0.6-0.8c-1-0.8-0.6-3.1-0.5-4.3C642.8,3906,644.2,3902.9,646.3,3900.7z"/>
					<path fill="#49301C" d="M647.3,3917.2c-0.3,0.2-1.3,0.4-1.4,0.6c-2.3,0-4.5,0-6.5-1.1c-2.2-1.2-4.2-1.9-6.8-2.3c0,0,0,0,0-0.1
						c0-0.2,0.4-0.8,0.6-0.8c1.8,0.2,3.7,0.6,5.4,1.4c2.6,1.3,4.7,2.1,7.6,2.2c0,0,0,0,0,0C646.5,3917.3,647.3,3917.1,647.3,3917.2
						C647.4,3917.2,647.3,3917.2,647.3,3917.2L647.3,3917.2z"/>
					<path fill="#49301C" d="M646.4,3900.2c0.4-0.5,0.1,0.4-0.1,0.6c-2.1,2.1-3.5,5.3-4,8.3c-0.2,1.2-0.6,3.5,0.5,4.3
						c0.2,0.1-0.4,0.9-0.6,0.8c-1.4-1.1-0.5-4.8-0.1-6.2C642.9,3905,644.3,3902.3,646.4,3900.2z"/>
					<path fill="#49301C" d="M644.7,3886.7C644.7,3886.7,644.7,3886.7,644.7,3886.7L644.7,3886.7c0.1,0,0,0.2,0,0.2
						c-0.8,2.2-0.4,4.6-1.1,6.9c-0.5,1.5-1,3-1.9,4.3c0.3-0.5-0.3-0.1-0.5,0.2c0,0,0,0,0,0c1-1.5,1.7-3.5,2.1-5.3
						c0-0.2,0.3-4.7,0.6-5.3c0.1,0,0.4-0.1,0.5-0.4c0,0,0.1-0.1,0.1-0.1c-0.2,0.1-0.3,0.3-0.5,0.4c0,0-0.1,0-0.1,0.1
						c0,0,0-0.1,0.1-0.3c0,0,0.1-0.1,0.1-0.1C644.2,3887,644.5,3886.6,644.7,3886.7C644.7,3886.7,644.7,3886.7,644.7,3886.7z"/>
					<path fill="#49301C" d="M644.5,3887c0,0.1-0.1,0.1-0.1,0.1c-0.1,0.2-0.4,0.4-0.5,0.4c0-0.1,0.1-0.1,0.1-0.1
						C644.2,3887.3,644.4,3887.2,644.5,3887z"/>
					<path fill="#49301C" d="M641.3,3898.2c0.2-0.3,0.7-0.7,0.5-0.2c0,0,0,0,0,0c0,0,0,0.1,0,0.1c-0.2,0.3-0.6,0.5-0.5,0.3
						c0,0,0,0,0,0C641.2,3898.3,641.2,3898.3,641.3,3898.2C641.3,3898.3,641.3,3898.2,641.3,3898.2z"/>
					<path fill="#49301C" d="M628.1,3907.6C628.1,3907.6,628.1,3907.6,628.1,3907.6c1.8,0.1,4.3-1.8,6.1-2.3c2.8-0.9,5.7-4.2,7-6.9
						c-0.1,0.2,0.3,0,0.5-0.3c0,0,0-0.1,0-0.1c-1.2,2.4-3.3,5.2-5.4,6.8c-1.3,1-3,1.2-4.5,1.9c-1.4,0.7-2.5,1.8-4.2,1.7
						C627.4,3908.4,627.8,3907.7,628.1,3907.6z"/>
					<path fill="#49301C" d="M641.3,3898.3c0,0,0,0.1-0.1,0.1C641.2,3898.4,641.2,3898.3,641.3,3898.3z"/>
				</g>
			</g>
		</g>
	</g>
</g>
<g id="ch04-06-1">
	<g id="older_version">
		<g id="head_3_" display="none">
			<g id="hair_3_">
			</g>
		</g>
		<g id="hands" display="none">
		</g>
		<g id="head_4_" display="none">
		</g>
		<g id="new_path" display="none">
		</g>
		<g id="handback" display="none">
		</g>
		<g id="handFront">
		</g>
		<g id="Layer_21" display="none">
		</g>
	</g>
	<g id="path_copy-with_stroke">
		<g id="handBack_copy">
		</g>
		<g id="head_copy">
		</g>
		<g id="neck_copy">
		</g>
		<g id="sleeve_copy">
		</g>
		<g id="handFront_copy">
		</g>
		<g id="skirt_copy">
		</g>
		<g id="torso_copy">
		</g>
	</g>
	<g id="comp_layer">
		<g id="skirt_copy_3">
			<g id="skirt_copy_3_2_">
			</g>
			<g id="skirt_copy_3_1_">
			</g>
		</g>
		<g id="torso_copy_2">
		</g>
		<g id="sleeve_copy_2">
		</g>
		<g id="neck_5_">
		</g>
		<g id="head_copy_2">
			<g id="head-silo_copy">
			</g>
		</g>
		<g id="head_copy_3">
			<g id="head-silo_copy_2">
			</g>
		</g>
		<g id="head_copy_4">
			<g id="head-silo_copy_3">
			</g>
		</g>
		<g id="handFront_copy_2">
		</g>
		<g id="handBack_copy_2">
		</g>
	</g>
	<g id="skirt_copy_4">
		<g id="skirt_copy_4_2_">
		</g>
		<g id="skirt_copy_4_1_">
		</g>
	</g>
	<g id="skirt_5_">
		<g id="skirt_4_">
		</g>
		<g id="skirt_copy_2">
		</g>
	</g>
	<g id="torso_copy_3">
	</g>
	<g id="torso_copy_4">
	</g>
	<g id="sleeve_copy_3">
	</g>
	<g id="sleeve">
	</g>
	<g id="neck_6_">
	</g>
	<g id="neck_copy_2">
	</g>
	<g id="handBack_copy_3">
	</g>
	<g id="handBack">
	</g>
	<g id="handFront_copy_3">
	</g>
	<g id="handFront_1_">
	</g>
</g>
<g id="ch04-03-2">
</g>
<g id="ch04-02-2_safe_copy" display="none">
	<g id="mainComp_x5F_paths-back-up_copy">
		<g id="eye_x5F_close_x5F_comp_copy_2_1_" display="inline">
		</g>
		<g id="eye_x5F_far_x5F_comp_copy_2_1_" display="inline">
		</g>
	</g>
	<g id="mainComp_copy" display="inline">
		<g id="eye_x5F_close_x5F_comp_copy_2">
		</g>
		<g id="eye_x5F_far_x5F_comp_copy_2">
		</g>
	</g>
	<g id="eye_x5F_close_copy" display="inline">
	</g>
	<g id="eye_x5F_far_copy" display="inline">
	</g>
	<g id="pupil_copy" display="inline">
	</g>
</g>
<g id="ch04-02-1">
	<g id="mainComp_x5F_paths-back-up" display="none">
		<g id="eye_x5F_close_x5F_comp_copy" display="inline">
		</g>
		<g id="eye_x5F_far_x5F_comp_copy" display="inline">
		</g>
	</g>
	<g id="mainComp">
		<g id="eye_x5F_close_x5F_comp">
		</g>
		<g id="eye_x5F_far_x5F_comp">
		</g>
	</g>
	<g id="eye_x5F_close_copy_2">
	</g>
	<g id="eye_x5F_close">
	</g>
	<g id="eye_x5F_far_copy_2">
	</g>
	<g id="eye_x5F_far">
	</g>
	<g id="pupil_copy_2">
	</g>
	<g id="pupil_4_">
	</g>
</g>
<g id="ch05-07-1">
	<g id="main_x5F_comp_1_">
		<g id="hand_washing_copy">
		</g>
	</g>
	<g id="assets">
	</g>
	<g id="hand_washing">
	</g>
</g>
</svg>
