<?xml version="1.0" encoding="utf-8"?>
<!-- Generator: Adobe Illustrator 18.1.1, SVG Export Plug-In . SVG Version: 6.00 Build 0)  -->
<svg version="1.1" xmlns="http://www.w3.org/2000/svg" xmlns:xlink="http://www.w3.org/1999/xlink" x="0px" y="0px"
	 viewBox="1353.4 1376.9 80.4 225.6" enable-background="new 1353.4 1376.9 80.4 225.6" xml:space="preserve">
<g id="additional_reference">
</g>
<g id="ch07-09-1">
</g>
<g id="ch04-05-1">
</g>
<g id="ch04-11-2">
</g>
<g id="ch04-06-1">
	<g id="older_version">
		<g id="head_3_" display="none">
			<g id="hair_3_">
			</g>
		</g>
		<g id="hands" display="none">
		</g>
		<g id="head_4_" display="none">
		</g>
		<g id="new_path" display="none">
		</g>
		<g id="handback" display="none">
		</g>
		<g id="handFront">
		</g>
		<g id="Layer_21" display="none">
		</g>
	</g>
	<g id="path_copy-with_stroke">
		<g id="handBack_copy">
		</g>
		<g id="head_copy">
		</g>
		<g id="neck_copy">
		</g>
		<g id="sleeve_copy">
		</g>
		<g id="handFront_copy">
		</g>
		<g id="skirt_copy">
		</g>
		<g id="torso_copy">
		</g>
	</g>
	<g id="comp_layer">
		<g id="skirt_copy_3">
			<g id="skirt_copy_3_2_">
			</g>
			<g id="skirt_copy_3_1_">
			</g>
		</g>
		<g id="torso_copy_2">
		</g>
		<g id="sleeve_copy_2">
		</g>
		<g id="neck_5_">
		</g>
		<g id="head_copy_2">
			<g id="head-silo_copy">
			</g>
		</g>
		<g id="head_copy_3">
			<g id="head-silo_copy_2">
			</g>
		</g>
		<g id="handFront_copy_2">
		</g>
		<g id="handBack_copy_2">
		</g>
	</g>
	<g id="skirt_5_">
		<g id="skirt_4_">
		</g>
		<g id="skirt_copy_2">
		</g>
	</g>
	<g id="torso_copy_3">
	</g>
	<g id="sleeve">
	</g>
	<g id="neck_6_">
	</g>
	<g id="handBack">
	</g>
	<g id="handFront_1_">
	</g>
</g>
<g id="ch04-03-2">
</g>
<g id="ch04-02-2_safe_copy" display="none">
	<g id="mainComp_x5F_paths-back-up_copy">
		<g id="eye_x5F_close_x5F_comp_copy_2_1_" display="inline">
		</g>
		<g id="eye_x5F_far_x5F_comp_copy_2_1_" display="inline">
		</g>
	</g>
	<g id="mainComp_copy" display="inline">
		<g id="eye_x5F_close_x5F_comp_copy_2">
		</g>
		<g id="eye_x5F_far_x5F_comp_copy_2">
		</g>
	</g>
	<g id="eye_x5F_close_copy" display="inline">
	</g>
	<g id="eye_x5F_far_copy" display="inline">
	</g>
	<g id="legs_1_" display="inline">
		<g id="front_leg_4_">
			<g>
				<path d="M1363.9,1570.4c-5.4,4.6-14.7,13-8.5,20.7c7.1,8.8,20.7,9.6,30.9,10.6c10.7,1,23.1,1.3,33.2-3.1
					c9.4-4.1,16.6-12.7,13.1-23.3c0.1-3.5-0.2-5.3-1.1-7.8c-1.1-3-3.5-3.7-4.9-5.9c-1.5-2.3-2.6-7.3-3-10c-0.4-2.9,1-5.4,1.7-8.2
					c1.7-7.1-4.3-11.9-5.7-18.2c-0.8-3.4,0-8,0.3-11.5c0.4-4.1,1-8.2,1.5-12.3c3.9-31.9,4.8-63.7,5.4-95.7
					c0.2-11.2,0.3-27-14.5-28.4c-15.3-1.5-18.8,15.6-20,27.1c-0.7,7.3-0.8,14.5-0.5,21.8c0.3,7.2-2.1,14.4-2.8,21.6
					c-1.3,15.6-0.9,31.1-0.3,46.7c0.4,8.8,1.1,17.6,1.4,26.4c0.2,4,0.5,8.3-0.1,12.2c-0.6,4.1-2.1,7.9-3.1,11.9
					c-0.9,3.7-0.4,6.3-2.9,9.5c-1,1.3-2.2,2.9-3.6,3.8c-1.5,1-2,0.8-3.8,1C1373.6,1559.6,1361.5,1567.2,1363.9,1570.4
					 M1380.4,1559.1"/>
			</g>
			<g id="front_leg_5_">
				<g>
					<g id="XMLID_42_">
						<g>
							<path d="M1431.5,1567.5c-1.1-3-3.5-3.7-4.9-5.9c-1.5-2.3-2.6-7.3-3-10c-0.4-2.9,1-5.4,1.7-8.2c1.7-7.1-4.3-11.9-5.7-18.2
								c-0.8-3.4,0-8,0.3-11.5c0.4-4.1,1-8.2,1.5-12.3c3.9-31.9,4.8-63.7,5.4-95.7c0.2-11.2,0.3-27-14.5-28.4
								c-15.3-1.5-18.8,15.6-20,27.1c-0.7,7.3-0.8,14.5-0.5,21.8c0.3,7.2-2.1,14.4-2.8,21.6c-1.3,15.6-0.9,31.1-0.3,46.7
								c0.4,8.8,1.1,17.6,1.4,26.4c0.2,4,0.5,8.3-0.1,12.2c-0.6,4.1-2.1,7.9-3.1,11.9c-0.9,3.7-0.4,6.3-2.9,9.5
								c-1,1.3-2.2,2.9-3.6,3.8c-1.5,1-2,0.8-3.8,1c-3,0.4-15.1,8.1-12.7,11.3c1.6-1.3,1-1.4,1.7-2.9c0.6-1.2,2.6-2.8,3.6-3.7
								c2.6-2.3,5.1-3.5,8.6-3.2c6.5,0.5,13.5,1.5,19.7,3.9c2.4,0.9,5.9,4.1,8.1,3.6c3.6-0.8,6.7-3.7,10.5-4.4
								c6.9-1.4,13.3,0.3,14.8,7.7c0.4,1.9,0.5,3.2,0.5,5.6c0.1,3.8,1.1,6.8-0.3,10.4c-2.4,5.9-8.1,9.6-14,11.4
								c-12.6,3.8-28.6,2.7-41.4,0.1c-6.5-1.3-14.4-4.2-19-9.3c-2.3-2.5-2.1-6.8-0.7-9.9c0.8-1.9,2.2-3.4,3.6-4.8
								c0.8-0.8,4.9-3.7,4.3-4.5c-5.4,4.6-14.7,13-8.5,20.7c7.1,8.8,20.7,9.6,30.9,10.6c10.7,1,23.1,1.3,33.2-3.1
								c9.4-4.1,16.6-12.7,13.1-23.3C1432.7,1571.8,1432.4,1569.9,1431.5,1567.5z M1424,1539.6c0.8,2.9-0.4,5.8-1.2,8.5
								c-1.4-5.9-2.4-11.8-2.9-17.8C1421.3,1533.4,1423.1,1536.3,1424,1539.6C1424.8,1542.5,1423.1,1536.4,1424,1539.6z
								 M1388.6,1541.3c0.4-1.3,0.9-2.6,1.3-3.9c-0.3,3.9-0.9,7.7-2.5,11.3C1387.6,1546.2,1387.8,1543.7,1388.6,1541.3
								C1389.1,1540,1387.8,1543.8,1388.6,1541.3z M1415.9,1562.4c-3.4,0.3-5.8,3.4-8.9,3.8c-2.6,0.4-4.2-1.5-6.7-2.5
								c-6.2-2.6-13.2-4.4-19.9-4.6c9.4-7.4,10.9-18.6,11.1-29.8c0.2-13.7-1.1-27.4-1.5-41.1c-0.5-13.8-0.8-27.7,0.6-41.4
								c0.6-6.6,2.6-13.2,2.7-19.9c0.1-6.6-0.3-13.1,0.1-19.7c0.6-9.8,1.2-24.4,12.6-27.9c10.2-3.1,18.4,5.6,19.5,15.1
								c0.7,6.1,0,12.4-0.2,18.5c-0.3,7.2-0.5,14.5-0.4,21.7c0.1,13.7-0.8,27.3-2,40.9c-1.3,15.2-4.3,30.7-4.4,46
								c-0.1,13.7,2.4,27.3,6.5,40.4C1421.9,1561.4,1418.8,1561.7,1415.9,1562.4C1412.6,1563.2,1418.2,1562.2,1415.9,1562.4z"/>
							<path d="M1430.7,1582.4c0,3.4-6,7.5-8.5,8.9c-3.9,2.2-8.4,3.5-12.8,4.3c-10,1.7-20.7,1.2-30.6-0.7c-5.5-1.1-11-2.8-15.9-5.7
								c-1.2-0.7-6.6-3.8-4.8-4.7c1.8-0.9,4.6,2.3,5.8,3c10.6,6.2,24.5,7.9,36.5,7.4c6.3-0.3,12.9-1,18.8-3.2c2.5-0.9,5-2.2,7-4
								c1.1-1,1.8-2.1,2.7-3.2C1428.9,1584.3,1430.7,1582,1430.7,1582.4z"/>
							<path d="M1428.7,1567.8c-0.1-0.2-0.1-0.3-0.2-0.5C1428.8,1567.2,1428.9,1567.4,1428.7,1567.8
								C1428.6,1567.6,1428.8,1567.5,1428.7,1567.8z"/>
							<path fill="#734E27" d="M1427.5,1569.6c-0.6-3-13.3-1.6-15.6-0.8c-3.7,1.2-5.2,3.5-5.6,7.2c-0.6,5.1-0.7,8.5,3.9,11.4
								c3.2,2.1,7.1,2.6,10.6,0.9c3.2-1.5,5.1-4.5,5.4-8c0.2-2.2-0.7-4.4-1.1-6.6c-0.2-0.9-0.8-1.5-0.6-2.4c0.1-0.2,1-1.2,1.1-1.1
								c1.3,2.6,2,5.6,1.8,8.5C1428.2,1575.8,1427.7,1572.4,1427.5,1569.6z M1425.8,1577.5c1.2,1.8-2.9,1.2-2.8,1.3
								c-2.3-0.1-4.5-0.2-6.8,0c-3.5,0.4-5.9,2.6-5.4-1.8c0.4-3.1,2.6-3.2,5.6-3.7C1421.4,1572.5,1423,1573.4,1425.8,1577.5
								C1426,1577.8,1425.1,1576.5,1425.8,1577.5z"/>
							<path d="M1427.5,1569.6C1427.5,1569.5,1427.4,1569.5,1427.5,1569.6C1427.5,1569.6,1427.5,1569.5,1427.5,1569.6z"/>
							<path d="M1428.9,1568.3c0-2.4-8.8-1.8-10.5-1.7c-4.9,0.3-11,1.7-12.9,6.8c-3.9-3.7-10.9-5.3-15.9-6.4
								c-3.3-0.8-6.7-1.3-10.1-1.6c-2.2-0.2-5.1-1-7.3-0.6c-2.3,0.4-5.7,3.8-7.1,5.4c-0.8,1-0.4,1-1.3,2.1c-0.9,1-2.1,1.6-3,2.6
								c-1.4,1.4-2.8,3.5-2.4,5.5c0.5,2.7,3.2,3.3,5.6,3.2c3.3-0.2,2.1-0.9,4.5,1.1c2.5,2.1,3.9,1.5,6.7,0.3c2.5-1.1,2.4,0,4.2,1.8
								c4.3,4.2,7.6-1.8,11.5,0c2.8,1.3,3.6,4.1,7.5,3.5c2.9-0.4,5.2-2.7,6.9-4.8c5,6,12.9,6.8,18.5,1.2c2.1-2.2,3.5-5.3,4.7-7.9
								C1429.8,1575.5,1429.2,1571.9,1428.9,1568.3C1428.9,1568.3,1429,1569.9,1428.9,1568.3z M1404.9,1576.2
								c-0.2,2.9,0.6,7.8-1,9.9c-1.5,2-4.8,3-7.1,2.5c-2.5-0.6-5.2-2.8-5.7-5.4c-0.3-1.4,0-3.2,0.5-4.5c0.4-1.1,1.9-2.5,2-3.5
								c0-0.2-2.1,2.1-2.4,2.5c-1.3,2.3-0.7,4.6-1.5,6.8c-0.9,2.8-6.8,2.9-9.1,1.3c-1.8-1.3-3.4-4.3-3-6.6c0.4-2.4,1.7-1.7,3.6-2.5
								c1-0.4,3-3,3.2-3.1c-0.5,0.1-1,1-1.5,1.2c-1,0.5-2,0.5-2.9,0.9c-1.5,0.7-2.5,1.4-3.2,3c-0.9,2,0.2,3.9-1.2,5.1
								c-1,0.8-3.1,1-4.3,0.6c-2.3-0.7-4.7-4.4-3.3-6.8c0.9-1.6,2.2-0.6,3.9-1.2c0.8-0.3,3.2-3.2,3.2-3.2c-0.8,0.1-1.4,1.5-2.1,1.8
								c-1.2,0.5-2.6-0.3-3.7,0.3c-1.3,0.6-2.2,2.4-2.6,3.7c-0.6,2.3,0.5,2.8-2,3.3c-2.9,0.5-6.1-1.8-4.9-4.9
								c0.6-1.6,2.4-2.3,3.5-3.4c0.9-0.9,1.5-1.9,2.3-2.9c1-1.3,2.2-2.7,3.5-3.7c1.9-1.3,3.9-0.8,6.3-0.5c4.5,0.4,9,1,13.3,2
								C1389.1,1568.8,1406.5,1574.6,1404.9,1576.2C1404.9,1576.5,1404.9,1576.2,1404.9,1576.2z M1427.5,1578.3
								c0.4-1.6-0.8-6-1.9-8.2c-0.1-0.1-1,0.7-1,0.8c-0.5,0.9,0,1.1,0.3,2.1c0.6,2.5,1.6,4.6,1.4,7.2c-0.3,3.1-1.8,5.9-4.5,7.5
								c-3.2,2-7.1,2-10.4,0.3c-5.2-2.7-5.6-5.8-5.1-11.3c0.4-3.9,1.7-6.7,5.7-8c2.3-0.8,14.9-2.1,15.6,0.8
								C1427.5,1572.5,1428.1,1575.4,1427.5,1578.3C1427.5,1578.4,1428.1,1575.5,1427.5,1578.3z"/>
							<path d="M1426.2,1580.2c0,0.1,0,0.1,0,0.2C1426.2,1580.3,1426.2,1580.3,1426.2,1580.2z"/>
							<path fill="#58719A" d="M1431.3,1576.9c0.2-3,0-11.1-6.4-13.1c-4.1-1.3-8.8-0.6-12.7,0.9c-1.9,0.7-3.7,1.7-5.4,2.6
								c-2.6,1.4-2.2,0.8-4.7-0.7c-6.7-4.1-14.9-4.9-22.5-5.9c-3.6-0.5-6.4-0.1-9.3,2.1c-1.3,1-3.9,3-4.6,4.5
								c-0.3,0.3-0.5,0.6-0.8,0.9c0.2,0.3,0.4,0.5,0.6,0.8c-0.3,0.8-1.9,0.8-1.2,1.7c1.9-1.6,3.9-4.4,6.4-5.6c2.5-1.3,6.8,0,9.5,0.3
								c4.9,0.6,9.7,1.4,14.3,2.9c3.5,1.1,8.2,2.5,11,5.1c2-5.3,8.4-6.6,13.4-6.9c2.6-0.1,5.6-0.2,8.2,0.4c1,0.2,1.7,0.3,1.9,1.9
								c0.3,3.2,0.7,7.2-0.6,9.9c-1.3,2.6-2.5,5.7-4.7,7.9c-5.6,5.7-13.5,4.9-18.5-1.2c-2.1,2.6-5.1,5.3-8.7,4.8
								c-2.8-0.3-4.3-3-6.5-3.4c-2.9-0.5-5.2,2.6-8.5,1.4c-2.7-1-2.9-4.5-5.9-3.6c-3.6,1.1-4.3,2-7.6-0.5c-0.5-0.4-0.9-1-1.4-1.2
								c-1.6-0.4-3.6,0.9-5.5,0.3c-9-3,4.4-10.9,3.3-12.6c-4.1,3.4-9,7-9.2,12.8c-0.2,4.9,2.4,7.1,6.3,9.7c7.9,5.2,17.8,6.5,27,7.1
								c9.8,0.6,20.5,1.3,29.9-2C1427.3,1595.2,1434.4,1586.9,1431.3,1576.9C1431.3,1576.8,1431.2,1578.6,1431.3,1576.9z
								 M1430.7,1582.6c-6.1,14.6-37.5,15.9-53.1,11.9c-7.4-1.8-10.9-3.1-15.7-6.1c-1-0.7-5.2-2.5-2.9-4c1-0.6,3.8,2.1,6.1,3.6
								c10.4,6.7,24.8,7.4,37,6.7c6.1-0.4,12.6-1.2,18.2-3.5c2.5-1,4.9-2.4,6.8-4.3c1-1,1.3-1.7,2.3-2.7
								C1429.4,1584,1430.9,1582,1430.7,1582.6C1424.9,1594.8,1430.7,1582.5,1430.7,1582.6z"/>
							<path fill="#734E27" d="M1425.5,1397.8c0.2-11.2-9.4-23.6-21.5-17.8c-5.5,2.6-7.9,8-9.1,13.7c-1.6,8.1-2,16.4-1.9,24.6
								c0,3.6,0.5,7.2,0.2,10.8c-0.4,4.1-1.3,8.1-1.9,12.2c-1.2,8-1.5,16.1-1.6,24.1c-0.2,16.5,0.8,32.9,1.6,49.4
								c0.7,15.1,2.5,33.8-10.7,44.3c4.3,0.2,8.5,1,12.7,2.2c4.1,1.2,7.7,3.3,11.6,4.7c2.8,1,5.4-1.2,8-2.4
								c3.7-1.7,8.2-2.4,12.2-1.7c-3.6-11.5-6-23.6-6.4-35.6c-0.6-14.2,2.2-28.5,3.6-42.6
								C1424.8,1455.1,1425.3,1426.4,1425.5,1397.8z M1420.2,1434.6c-4.3,2-9.1,3.3-13.9,2.7c-1.8-0.2-12.4-4.1-9.9-6.6
								c1.1-1.1,3.5,2,4.6,2.8c1.9,1.2,4.1,2,6.4,2.3c4.7,0.6,9.4-0.7,13.6-2.6C1421.1,1433.2,1420.6,1434.4,1420.2,1434.6
								C1411.9,1438.4,1420.6,1434.4,1420.2,1434.6z"/>
							<path fill="#734E27" d="M1422.8,1548.2c-1.4-5.9-2.4-11.8-2.9-17.8c1.3,2.8,3,5.6,3.9,8.6
								C1424.8,1542.3,1423.7,1545,1422.8,1548.2C1421.4,1542.3,1423.6,1545.3,1422.8,1548.2z"/>
							<path fill="#B2987B" d="M1423.2,1577.1c-3.4-0.3-7.5,0.3-11,1.1c0.4-0.6-0.6-1.9-0.1-2.7c0.4-0.7,3.9-0.8,4.6-0.8
								C1419.6,1574.4,1421.4,1574.5,1423.2,1577.1C1421.1,1577,1422.9,1576.8,1423.2,1577.1z"/>
							<path d="M1420.2,1434.6c-4.3,2-9.1,3.3-13.9,2.7c-1.8-0.2-12.4-4.1-9.9-6.6c1.1-1.1,3.5,2,4.6,2.8c1.9,1.2,4.1,2,6.4,2.3
								c4.7,0.6,9.4-0.7,13.6-2.6C1421.1,1433.2,1420.6,1434.4,1420.2,1434.6C1411.9,1438.4,1420.6,1434.4,1420.2,1434.6z"/>
							<path d="M1418.4,1526.8c-0.1-0.2-0.1-0.4,0-0.6C1418.4,1526.4,1418.4,1526.6,1418.4,1526.8
								C1418.4,1526.8,1418.4,1526.6,1418.4,1526.8z"/>
							<path d="M1425.8,1577.5c-2.6-3.9-3.8-4.9-8.7-4.3c-3.1,0.4-6,0.5-6.4,3.8c-0.5,4.1,1.3,2.3,4.6,1.9c2.6-0.4,5-0.2,7.6-0.1
								C1423.1,1578.7,1426.8,1579.1,1425.8,1577.5C1425.1,1576.5,1426,1577.8,1425.8,1577.5z M1417,1577.3
								c-1.5,0.2-3.4,0.4-4.8,0.9c0.4-0.6-0.6-1.9-0.1-2.7c0.4-0.7,3.9-0.8,4.6-0.8c3-0.3,4.8-0.1,6.6,2.5
								C1421.1,1577,1419,1577,1417,1577.3C1415.7,1577.4,1419,1577,1417,1577.3z"/>
							<path d="M1406.3,1575.1C1406.3,1575.6,1406.3,1574.5,1406.3,1575.1C1406.3,1575.1,1406.3,1575,1406.3,1575.1z"/>
							<path fill="#734E27" d="M1397.9,1571.6c-6.9-2.9-14.4-4.2-21.8-4.9c-1.5-0.1-4.5-0.9-5.9-0.5c-1.4,0.5-3.3,2.9-4.2,4
								c-1.3,1.6-2.4,3.1-3.9,4.4c-1.8,1.6-3.9,3.8-1.6,6.2c1.5,1.6,5,1.6,6,0.2c0.5-0.8,0.2-2.8,0.9-3.9c0.7-1.2,1.4-1.9,2.7-2.2
								c1.1-0.3,2.2,0.3,3.3-0.2c0.7-0.3,0.9-1.6,1.8-1.6c-0.1,0-1.9,2.6-2.7,3c-1.3,0.6-3.3,0.1-4.1,0.9c-2.1,2.2,0.8,6.7,3,7.4
								c1.2,0.4,2.7,0.2,3.8-0.4c2.2-1.2,0.7-2.5,1.5-4.7c0.5-1.4,1.6-3,3-3.6c0.8-0.4,1.9-0.2,2.8-0.6c0.6-0.3,1.4-1.4,2-1.5
								c0,0-2.1,2.6-2.8,2.9c-1.8,0.8-3.3,0.2-4,2.3c-0.7,2.3,1.2,5.8,3,7c1.8,1.3,7.8,1.8,9.2-0.6c0.2-0.4,0.4-3.4,0.5-4
								c0.2-1,0.2-2,0.6-3c0.3-0.6,2.6-3,2.6-3c-0.1,1.4-1.8,3.1-2.3,4.7c-0.7,2.5-0.3,4.3,1.3,6.1c2.8,3.2,7,3.7,10.4,1.1
								c2.4-1.8,2.1-3.5,2.1-6.2c0-1.4,0.5-3.5,0.1-4.9C1404.4,1573.4,1400.1,1572.5,1397.9,1571.6
								C1389.3,1568,1399.2,1572.2,1397.9,1571.6z M1365.1,1577.2c-0.4-0.4-3.3-1.8-3.5-0.9c0.3-1.4,2.9-2.3,4.1-1.3
								C1366.9,1576.1,1365.2,1577.3,1365.1,1577.2C1364.3,1576.2,1365.3,1577.4,1365.1,1577.2z M1374.4,1579.4
								c-1-1.3-4.2-0.7-4.3-0.8c-0.9-1.2,3.2-2.1,4-1.9C1377.1,1577.6,1374.4,1579.4,1374.4,1579.4
								C1373.4,1578.2,1374.6,1579.6,1374.4,1579.4z M1388.1,1580.1c-1.4-3.1-5.6-2.4-8.2-1.2c0.1,0,0.9-1.4,1.4-1.6
								c1.1-0.6,3-0.9,4.2-0.7c1.1,0.1,2.6,0.6,3.1,1.6c0.7,1.3-0.9,2-0.9,2C1386.4,1577,1388.2,1580.2,1388.1,1580.1z
								 M1403.6,1579.8c0,2.6-4.5,0.4-5.6,0.4c-0.4,0-5.8,0.5-5.8,0.9c0-1.2,2.1-3.6,3-4.4c1.7-1.5,3.9-2,6.1-1.7
								C1404.5,1575.5,1403.6,1577,1403.6,1579.8z"/>
							<path d="M1403.6,1575.7c-2.4-1-5.4-1.2-7.6,0.3c-1.1,0.7-3.8,3.6-3.8,5.1c0-0.1,4.2-0.8,4.5-0.9c1.3-0.1,5.3,1.3,6.1,0.8
								C1403.9,1580.3,1404.1,1576.7,1403.6,1575.7C1401.4,1574.8,1403.6,1575.7,1403.6,1575.7z M1402.3,1579.2
								c-2.8-0.9-5.9-0.5-8.6,0.4c1.2-2.3,2.4-3.2,5-3.2C1401,1576.5,1402.4,1576.7,1402.3,1579.2
								C1399.6,1578.3,1402.3,1578.7,1402.3,1579.2z"/>
							<path fill="#B2987B" d="M1402.3,1579.2c-2.8-0.9-5.9-0.5-8.6,0.4c1.2-2.3,2.4-3.2,5-3.2
								C1401,1576.5,1402.4,1576.7,1402.3,1579.2C1399.6,1578.3,1402.3,1578.7,1402.3,1579.2z"/>
							<path fill="#734E27" d="M1389.9,1537.4c-0.3,3.9-0.9,7.7-2.5,11.3C1387.6,1544.7,1388.7,1541.2,1389.9,1537.4
								C1389.8,1538.9,1389.5,1538.7,1389.9,1537.4z"/>
							<path d="M1389.2,1579.4c-1.2,2.1-2-0.4-3.4-1c-1.8-0.8-4.2-0.3-5.9,0.5c0,0,0.7-1.2,1-1.5c0.8-0.6,2.3-0.8,3.3-0.9
								C1385.1,1576.4,1390.5,1577.3,1389.2,1579.4C1388.9,1579.9,1389.3,1579.2,1389.2,1579.4z"/>
							<path d="M1374.4,1579.4c-1-1.3-4.2-0.7-4.3-0.8c-0.9-1.2,3.2-2.1,4-1.9C1377.1,1577.6,1374.4,1579.4,1374.4,1579.4
								C1373.4,1578.2,1374.6,1579.6,1374.4,1579.4z"/>
							<path d="M1371.3,1564.8c-0.2,0.1-0.4,0.3-0.6,0.4C1370.9,1565,1371.1,1564.8,1371.3,1564.8z"/>
							<path d="M1368.3,1567.3c-0.2,0.2-0.4,0.4-0.6,0.6C1367.8,1567.7,1368,1567.5,1368.3,1567.3
								C1368.2,1567.3,1368,1567.4,1368.3,1567.3z"/>
							<path d="M1365.1,1577.2c-0.4-0.4-3.3-1.8-3.5-0.9c0.3-1.4,2.9-2.3,4.1-1.3C1366.9,1576.1,1365.2,1577.3,1365.1,1577.2
								C1364.3,1576.2,1365.3,1577.4,1365.1,1577.2z"/>
							<path d="M1366,1570.3c-0.1,0.2-0.3,0.4-0.4,0.6C1365.7,1570.7,1365.8,1570.5,1366,1570.3z"/>
						</g>
					</g>
				</g>
				<path fill="#604222" d="M1393.1,1427.5c0,0,15.3,4.3,24.6,0c0,0,4.2-2.1,7.4-2.1c0,0,0.8-26.9,0.2-31c0,0-0.5-9.8-9.8-14.5
					c0,0-8.5-4.3-15.3,2.8c0,0-6.8,1.8-7.1,26.6V1427.5z"/>
			</g>
		</g>
	</g>
	<g id="pupil_copy" display="inline">
	</g>
</g>
<g id="ch04-02-1">
	<g id="mainComp_x5F_paths-back-up" display="none">
		<g id="eye_x5F_close_x5F_comp_copy" display="inline">
		</g>
		<g id="eye_x5F_far_x5F_comp_copy" display="inline">
		</g>
	</g>
	<g id="mainComp">
		<g id="eye_x5F_close_x5F_comp">
		</g>
		<g id="eye_x5F_far_x5F_comp">
		</g>
	</g>
	<g id="eye_x5F_close_copy_2">
	</g>
	<g id="eye_x5F_close">
	</g>
	<g id="eye_x5F_far_copy_2">
	</g>
	<g id="eye_x5F_far">
	</g>
	<g>
		<path fill="#49301C" d="M1431.5,1567.5c-0.9-2.4-2.6-3.3-4-4.7c-0.3-0.3-0.7-0.7-0.9-1.1c-1.5-2.3-2.6-7.3-3-10
			c-0.4-2.9,1-5.4,1.7-8.2c1.7-7.1-4.3-11.9-5.7-18.2c-0.8-3.5,0-8,0.3-11.5c0.4-4.1,1-8.2,1.5-12.3c3.9-31.9,4.8-63.7,5.4-95.8
			c0.2-11.2,0.3-27-14.5-28.4c-8-0.8-12.7,3.5-15.6,9.3c-2.7,5.4-3.8,12.2-4.3,17.8c-0.7,7.3-0.8,14.5-0.5,21.8
			c0.3,7.2-2.2,14.4-2.8,21.6c-1.3,15.6-0.9,31.1-0.3,46.6c0.4,8.8,1.1,17.6,1.4,26.4c0.2,4,0.5,8.3-0.1,12.2
			c-0.6,4.1-2.1,7.9-3.1,11.9c-0.9,3.7-0.4,6.3-2.9,9.5c-1,1.3-2.2,2.9-3.6,3.8c-0.8,0.6-1.4,0.8-2,0.9c0,0,0,0,0,0
			c-0.5,0.1-1,0.1-1.8,0.2c-3,0.4-15.1,8.1-12.7,11.3c-5.4,4.6-14.7,13-8.5,20.7c7.1,8.8,20.7,9.6,30.9,10.6
			c10.7,1,23.1,1.3,33.2-3.1c1.8-0.8,3.6-1.8,5.2-2.9c6.6-4.6,10.7-11.9,7.9-20.5C1432.7,1571.8,1432.4,1569.9,1431.5,1567.5z
			 M1427.7,1577.4C1427.7,1577.5,1427.7,1577.5,1427.7,1577.4C1427.7,1577.5,1427.7,1577.5,1427.7,1577.4L1427.7,1577.4z"/>
	</g>
	<g id="legs_2_">
		<g id="_x33_4front_leg_6_">
			<g id="XMLID_27_">
				<g>
					<g id="XMLID_81_">
						<g>
							<path fill="#3D5270" d="M1432.6,1575.2c2.8,8.5-1.3,15.8-7.9,20.5l-0.3-0.4c2.9-2,5.3-4.6,6.6-8c0.3-0.7,0.5-1.4,0.6-2.1
								c0,0,0,0,0-0.1c0.6-2.5,0.6-5.3-0.3-8.2c0.2-3,0-11.1-6.4-13.1c-1-0.3-2.1-0.5-3.3-0.6c-0.1,0-0.3,0-0.5,0
								c-0.2,0-0.3,0-0.5,0c-0.8,0-1.7,0-2.5,0.1c-0.7,0.1-1.4,0.2-2.2,0.3c-0.3,0.1-0.6,0.1-0.9,0.2c0,0,0,0,0,0
								c-1,0.2-2,0.5-2.9,0.9c-1.9,0.7-3.7,1.7-5.4,2.6c-0.7,0.4-1.1,0.6-1.5,0.7c-0.5,0-1-0.1-1.5-0.3c0,0,0,0,0,0
								c-0.4-0.3-0.9-0.7-1.7-1.2c-2.5-1.5-5.2-2.6-8-3.4c0,0-0.1,0-0.1,0c-5.2-1.5-10.8-2.2-16.1-2.6c-2.3-0.2-4.1,0.3-5.8,1.2
								c0,0-0.1,0-0.1,0.1c-0.6,0.3-1.1,0.7-1.7,1.1c-1.3,1-3.6,2.7-4.5,4.2c-0.1,0.1-0.1,0.2-0.2,0.3c-0.3,0.3-0.5,0.6-0.8,0.9
								c0.1,0.1,0.2,0.3,0.3,0.4c-0.1,0.4-0.2,0.7-0.7,1.1h0c-0.2,0.1-0.3,0.2-0.4,0.3c-0.1,0.1-0.1,0.1-0.2,0.1
								c-2.4-3.2,9.7-10.9,12.7-11.3c0.8-0.1,1.3-0.1,1.8-0.2c0,0,0,0,0,0c0.6,0,1.3,0.1,1.9,0.1l0,0c0.1,0,0.2,0,0.3,0
								c0.4,0,0.9,0,1.3,0.1c3.7,0.3,7.4,1.1,11,2.1c4.1,1.2,7.7,3.3,11.6,4.7c0.3,0.1,0.6,0.2,0.9,0.2c0,0,0,0,0,0
								c0.5,0.1,1,0.1,1.5,0c1.3-0.2,2.6-0.9,3.8-1.7c0.1,0,0.1-0.1,0.2-0.1c0.5-0.3,1.1-0.6,1.6-0.8c0.8-0.4,1.5-0.7,2.3-0.9
								c0.5,0,2.4-0.4,1.1-0.3c0.3-0.1,0.6-0.1,0.8-0.2c0.2,0,0.3-0.1,0.5-0.1c1.7-0.3,3.5-0.5,5.3-0.4c0.3,0,0.5,0,0.7,0
								c0.3,0,0.5,0,0.7,0.1c0.2,0,0.4,0.1,0.6,0.1c0,0,0,0,0,0c0.9,0.3,1.9,0.6,2.8,0.9c1.4,1.4,3.1,2.3,4,4.7
								C1432.4,1569.9,1432.7,1571.8,1432.6,1575.2z"/>
							<path fill="#58719A" d="M1431.3,1576.9c0.9,2.9,0.9,5.7,0.3,8.2c0.2-0.9,0.2-1.8,0.1-2.7
								C1431.7,1580.7,1431.4,1578.9,1431.3,1576.9z"/>
							<path fill="#58719A" d="M1429.2,1585.8c0.9-1.1,1.6-2.3,1.6-3.4l1,0c0,0.9,0,1.8-0.1,2.7c0,0,0,0,0,0.1
								c-1.4,5.4-5.8,9.8-11.3,12.3c-0.4,0.2-0.7,0.3-1.1,0.5c-0.7,0.3-1.5,0.5-2.2,0.8c-1.4,0.4-2.9,0.8-4.5,1.1
								c-0.3,0.1-0.6,0.1-0.9,0.2c-7.7,1.3-15.8,0.8-23.4,0.3c-3.7-0.2-7.5-0.6-11.3-1.3c0,0-0.1,0-0.1,0c-0.4-0.1-0.9-0.2-1.3-0.3
								c-3.6-0.7-7.6-2-11.3-3.8c-0.3-0.1-0.5-0.3-0.8-0.4c-0.8-0.4-1.5-0.9-2.3-1.4c-3.8-2.5-6.5-4.8-6.3-9.7
								c0-0.9,0.2-1.8,0.4-2.6c0.6-2,1.8-3.8,3.3-5.3c0.3-0.3,0.7-0.7,1-1c0.7-0.7,2.6-2.1,3.6-3.1c0.3-0.3,0.6-0.5,0.9-0.8
								c0.2,0.3-0.1,0.8-0.6,1.5c0,0,0,0,0,0.1c-0.1,0.1-0.1,0.1-0.2,0.2c0,0-0.1,0.1-0.1,0.1c-0.8,0.8-1.9,1.4-2.7,2.2
								c-1,1-2,2.4-2.3,3.8c0,0,0,0,0,0c-0.7,1.5-0.6,3,1.2,4l-0.8,1.5c-0.3,0-0.5,0.1-0.7,0.2c-0.6,0.3-0.3,0.9,0.3,1.6
								c0.5,0.8,1.9,1.6,2.8,2.1c0,0,0,0,0,0c0.1,0.1,0.2,0.1,0.3,0.2c0,0,0,0,0,0c0.3,0.2,0.5,0.3,0.7,0.4c0.1,0.1,0.3,0.2,0.4,0.2
								c2.4,1.4,4.6,2.4,7.2,3.3c0,0,0.1,0,0.1,0c2.4,0.9,4.8,1.5,7.3,2.1c0.1,0,0.1,0,0.2,0.1c3.4,0.9,7.6,1.5,12.1,1.8
								c6.7,0.5,13.4,0.4,19.9-0.8c4.4-0.8,8.8-2,12.8-4.3C1423.9,1590.3,1427.2,1588.1,1429.2,1585.8z"/>
							<path fill="#58719A" d="M1431.3,1577.5c0-0.1,0-0.3,0-0.6c0,2,0.3,3.7,0.4,5.5l-1,0c0-0.4-1.8,1.9-1.8,2
								c-0.7,1-1.4,1.9-2.2,2.8c-0.4,0.4-0.8,0.7-1.2,1.1c-1.1,0.8-2.2,1.5-3.4,2.1c-0.2,0.1-0.3,0.2-0.5,0.2
								c-0.2,0.1-0.4,0.2-0.5,0.3c-0.3,0.1-0.6,0.3-0.8,0.4c-0.7,0.3-1.4,0.6-2.2,0.8c-1.5,0.5-3,0.9-4.5,1.2
								c-0.8,0.2-1.6,0.3-2.5,0.5c-3,0.5-6.1,0.8-9.1,1c-0.5,0-1.1,0.1-1.6,0.1c-0.1,0-0.1,0-0.2,0c-11.6,0.4-24.8-1.1-35.2-6.8
								c0,0,0,0,0,0c-1.2-0.8-2.4-1.8-3.6-2.6c0,0,0,0,0,0c-0.9-0.7-1.8-1.2-2.6-1.2l0.8-1.5c0.4,0.2,0.9,0.4,1.4,0.6
								c0.4,0.1,0.8,0.2,1.1,0.2c0,0,0,0,0,0c0.6,0.1,1.1,0.1,1.7,0c2.9-0.2,2.3-0.8,3.8,0.5c0.1,0.1,0.1,0.1,0.2,0.2c0,0,0,0,0,0
								c0.1,0.1,0.3,0.2,0.4,0.4c2.5,2.1,3.9,1.5,6.7,0.3c0.3-0.2,0.6-0.3,0.9-0.3c0,0,0,0,0.1,0c0.7-0.1,1.2,0,1.6,0.3
								c0.4,0.4,0.9,1.1,1.7,1.9c0.1,0.1,0.2,0.2,0.3,0.2c0,0,0,0,0,0c0.5,0.5,1,1,1.8,1.3c3.3,1.2,5.6-1.8,8.5-1.4
								c2,0.3,3.4,2.6,5.8,3.2c0.1,0,0.2,0.1,0.3,0.1c0.6,0.2,1.3,0.2,2.2,0.1c2.4-0.4,4.5-2.1,6.2-3.9c0.3-0.3,0.5-0.6,0.8-0.9
								c0.5,0.6,1.1,1.2,1.6,1.7c0.4,0.3,0.8,0.7,1.2,0.9c0.2,0.2,0.4,0.3,0.6,0.4c2.7,1.8,5.8,2.4,8.8,1.8c0.8-0.2,1.5-0.4,2.3-0.7
								c0.3-0.1,0.6-0.3,0.9-0.4c1.1-0.6,2.2-1.4,3.2-2.4c0.1-0.1,0.3-0.3,0.4-0.4c0.2-0.2,0.4-0.4,0.5-0.6c0.3-0.4,0.6-0.8,0.9-1.2
								c1.2-1.8,2.1-3.8,2.9-5.6c0.2-0.4,0.3-0.8,0.5-1.3c0.7-2.4,0.5-5,0.3-7.5c0-0.2,0-0.5-0.1-0.7c0-0.1,0-0.3,0-0.4c0,0,0,0,0,0
								c0,0,0,0,0-0.1c0,0,0-0.1,0-0.1c0-0.1,0-0.1,0-0.2c0,0,0,0,0,0c0,0,0,0,0-0.1c0,0,0-0.1,0-0.1c0-0.1,0-0.1,0-0.1
								c0-0.2-0.1-0.4-0.2-0.6l0,0c0,0,0-0.1,0-0.1c0.1-0.1,0.1-0.2,0.1-0.2l0.3-0.2c0.8,1.1,1.3,2.4,1.7,4.1
								c0.4,1.9,0.5,3.2,0.5,5.6C1431.3,1576.9,1431.3,1577.3,1431.3,1577.5z"/>
							<path fill="#58719A" d="M1424.9,1563.8c6.4,2,6.6,10.1,6.4,13.1c0-2.4-0.1-3.8-0.5-5.6c-0.3-1.6-0.9-3-1.7-4.1
								c-1.7-2.5-4.4-3.7-7.5-4C1422.8,1563.3,1423.8,1563.5,1424.9,1563.8z"/>
							<path fill="#58719A" d="M1431.3,1576.9c0,0.3,0,0.5,0,0.6C1431.3,1577.3,1431.3,1576.9,1431.3,1576.9z"/>
							<path fill="#3D5270" d="M1431.6,1585.2c-0.1,0.7-0.3,1.4-0.6,2.1c-1.3,3.3-3.7,6-6.6,8c-1.3,0.9-2.6,1.6-4.1,2.3
								C1425.8,1595,1430.2,1590.7,1431.6,1585.2z"/>
							<path fill="#58719A" d="M1428.9,1584.4c0,0,1.8-2.3,1.8-2c0,1.1-0.6,2.2-1.6,3.4c0-0.1,0.1-0.2,0.1-0.2
								c0.1-0.1,0.1-0.3,0.2-0.4c0.1-0.1,0.1-0.2,0.2-0.4c0.1-0.2,0.2-0.4,0.3-0.6c0.1-0.2,0.1-0.3,0.2-0.5c0,0,0,0,0-0.1
								c0,0,0,0,0-0.1c0,0,0,0,0-0.1c0-0.1,0.1-0.1,0.1-0.2c0-0.1,0.1-0.1,0.1-0.2c0-0.1,0-0.1,0-0.1c0,0,0,0,0,0
								c0-0.1,0.1-0.2,0.1-0.2c0,0,0-0.1,0-0.1c0,0,0,0,0,0c0,0,0-0.1,0.1-0.1c0.3-0.6-1.2,1.4-1.4,1.6c-0.9,1-1.3,1.7-2.3,2.7
								c-0.1,0.1-0.2,0.2-0.3,0.3C1427.6,1586.3,1428.2,1585.4,1428.9,1584.4z"/>
							<path fill="#3D5270" d="M1429.3,1584.2c0.2-0.2,1.7-2.2,1.4-1.6c0,0,0,0.1-0.1,0.1c0,0,0,0,0,0c0,0,0,0.1,0,0.1
								c0,0.1-0.1,0.1-0.1,0.2c0,0,0,0,0,0c0,0,0,0,0,0.1c0,0.1,0,0.1-0.1,0.2c0,0.1-0.1,0.1-0.1,0.2c0,0,0,0,0,0.1c0,0,0,0,0,0v0
								c0,0,0,0.1,0,0.1c-5.6,10.5-25,13.5-40.5,12.6c-3.7-0.3-7.3-0.8-10.8-1.5c-0.4-0.1-0.9-0.2-1.3-0.3c-0.1,0-0.1,0-0.2-0.1
								c-2.9-0.7-5.2-1.4-7.3-2.1c0,0-0.1,0-0.1,0c-2.5-0.9-4.8-2-7.1-3.3c0,0-0.1,0-0.1-0.1c-0.1-0.1-0.3-0.2-0.4-0.2
								c-0.2-0.1-0.4-0.2-0.6-0.4c0,0-0.1-0.1-0.1-0.1c0,0,0,0,0,0c-0.1-0.1-0.2-0.1-0.3-0.2c0,0,0,0,0,0c-1-0.6-2.1-1.4-2.8-2.1
								c-0.3-0.5-0.3-1.1,0.5-1.6c0.5-0.3,1.4,0.2,2.5,1c0,0,0,0,0,0c1,0.7,1.9,1.6,2.4,1.9c0.4,0.2,0.8,0.4,1.1,0.6c0,0,0,0,0,0
								c9.9,6.4,23.4,7.3,35.2,6.8c0.1,0,0.1,0,0.2,0c3.5-0.2,7.2-0.5,10.7-1.1c0.8-0.1,1.6-0.3,2.5-0.5c1.5-0.3,3-0.7,4.5-1.2
								c0.7-0.3,1.5-0.5,2.2-0.8c0.3-0.1,0.6-0.2,0.8-0.4c0.2-0.1,0.4-0.2,0.5-0.3c0.2-0.1,0.3-0.1,0.5-0.2c1.2-0.6,2.4-1.3,3.4-2.1
								c0.4-0.3,0.8-0.7,1.2-1.1c0.1-0.1,0.2-0.2,0.3-0.3C1428,1585.8,1428.3,1585.2,1429.3,1584.2z"/>
							<path fill="#54381E" d="M1430.5,1582.8c0,0.1-0.1,0.2-0.1,0.2C1430.5,1583,1430.5,1582.9,1430.5,1582.8z"/>
							<path fill="#58719A" d="M1430.3,1583.3c0,0.1-0.1,0.1-0.1,0.2h0C1430.3,1583.5,1430.3,1583.4,1430.3,1583.3z"/>
							<path fill="#54381E" d="M1430.2,1583.5C1430.2,1583.6,1430.2,1583.6,1430.2,1583.5
								C1430.2,1583.6,1430.2,1583.6,1430.2,1583.5L1430.2,1583.5z"/>
							<path fill="#54381E" d="M1430.2,1583.6C1430.2,1583.6,1430.2,1583.6,1430.2,1583.6L1430.2,1583.6
								C1430.2,1583.6,1430.2,1583.6,1430.2,1583.6z"/>
							<path fill="#58719A" d="M1430.1,1583.7c-0.1,0.2-0.1,0.3-0.2,0.5c-0.1,0.2-0.2,0.4-0.3,0.6c-0.1,0.1-0.1,0.3-0.2,0.4
								c-0.1,0.1-0.1,0.3-0.2,0.4c0,0-0.1,0.1-0.1,0.2c-1.9,2.4-5.3,4.6-6.9,5.5c-3.9,2.2-8.3,3.5-12.8,4.3
								c-6.4,1.1-13.2,1.3-19.9,0.8C1405.1,1597.3,1424.5,1594.3,1430.1,1583.7z"/>
							<path fill="#58719A" d="M1429.3,1585.6c0.1-0.1,0.1-0.3,0.2-0.4C1429.4,1585.3,1429.3,1585.4,1429.3,1585.6z"/>
							<path fill="#58719A" d="M1429.1,1567.2l-0.3,0.2c0-0.1-0.1-0.2-0.3-0.2c0.1,0.2,0.1,0.3,0.2,0.4c0,0,0,0,0,0.1l0,0
								c-1.1-1.4-6.5-1.3-9.1-1.2c-0.1,0-0.1,0-0.2,0c-0.2,0-0.3,0-0.5,0c-1.1,0.1-2.2,0.2-3.3,0.4c-0.3,0-0.6,0.1-0.9,0.2
								c0,0-0.1,0-0.1,0c-0.3,0.1-0.6,0.1-0.9,0.2c-0.3,0.1-0.6,0.1-0.8,0.2c-0.1,0-0.3,0.1-0.4,0.1c-0.2,0-0.4,0.1-0.5,0.2
								c-0.1,0-0.1,0-0.2,0.1c-0.5,0.2-0.9,0.3-1.3,0.6c-0.3,0.1-0.6,0.3-0.9,0.4c-0.1,0.1-0.3,0.2-0.4,0.3
								c-0.1,0.1-0.3,0.2-0.4,0.3c-0.1,0.1-0.3,0.2-0.4,0.3c-0.1,0.1-0.2,0.1-0.3,0.2c0,0-0.1,0.1-0.1,0.1c-0.1,0.1-0.2,0.2-0.4,0.3
								c-0.2,0.2-0.4,0.4-0.6,0.6c-0.1,0.1-0.3,0.3-0.4,0.4c-0.3,0.4-0.5,0.8-0.8,1.2c-0.2,0.3-0.3,0.6-0.4,0.9
								c-0.2-0.2-0.4-0.3-0.6-0.5c-0.2-0.2-0.4-0.3-0.6-0.4c-3.7-2.8-9.4-4.3-13.8-5.3c-0.5-0.1-1-0.2-1.6-0.3
								c-0.5-0.1-1-0.2-1.5-0.3c-0.5-0.1-1.1-0.2-1.6-0.3c-0.1,0-0.1,0-0.2,0c-0.6-0.1-1.2-0.2-1.8-0.3c-1.2-0.2-2.4-0.3-3.6-0.5h0
								c-2.7-0.3-7-1.6-9.5-0.3c0.2-0.2,0.4-0.3,0.6-0.4c-0.2,0-0.4,0.2-0.6,0.4c-1.2,0.6-2.3,1.6-3.3,2.6c0,0-0.1,0-0.1,0.1
								c0,0-0.1,0.1-0.1,0.1c-0.7,0.7-1.4,1.3-1.8,1.9c0,0-0.1,0.1-0.1,0.1c-0.3,0.3-0.6,0.6-0.9,0.8c-0.2-0.2-0.3-0.4-0.2-0.6
								c0.2-0.1,0.3-0.2,0.4-0.3h0c0.3-0.2,0.8-0.4,0.9-0.8c-0.1-0.1-0.2-0.2-0.3-0.3c0.1-0.3,0.2-0.7,0.4-1.3
								c0-0.1,0.1-0.2,0.2-0.3c0.7-1.2,2.5-2.6,3.5-3.4c0.9-0.8,1.7-1.4,2.6-1.9c0,0,0.1,0,0.1-0.1c2.3-1.2,4.7-1.3,7.5-1
								c4.8,0.6,9.7,1.1,14.4,2.4c0,0,0.1,0,0.1,0c1.2,0.3,2.3,0.7,3.4,1.2c1.8,0.7,4.3,2.7,6.3,3.4c0,0,0,0,0,0
								c0.5,0.3,0.9,0.4,1.5,0.3c0.1,0,0.2,0,0.3,0c3.3-0.7,6.2-3.2,9.6-4.2c0,0,0,0,0,0c1-0.3,2-0.4,3.1-0.6
								c0.8-0.1,1.7-0.1,2.5-0.1c0.2,0,0.3,0,0.5,0c0.2,0,0.3,0,0.5,0C1424.7,1563.5,1427.4,1564.7,1429.1,1567.2z"/>
							<path fill="#58719A" d="M1428.8,1577.6c0.6-2.2,0.5-5,0.3-7.5C1429.3,1572.6,1429.5,1575.2,1428.8,1577.6z"/>
							<path fill="#3D5270" d="M1396,1570.8c0.1,0,0.1,0.1,0.2,0.1C1396.2,1570.9,1396.1,1570.9,1396,1570.8z M1367.7,1567.8
								c0.2-0.2,0.3-0.3,0.5-0.5C1368,1567.5,1367.8,1567.7,1367.7,1567.8z M1368.2,1567.3L1368.2,1567.3
								C1368.2,1567.3,1368.2,1567.3,1368.2,1567.3C1368.2,1567.3,1368.2,1567.3,1368.2,1567.3
								C1368.2,1567.3,1368.2,1567.3,1368.2,1567.3z M1397.2,1571.3c-2.8-1.1-5.6-2-8.5-2.6c-0.6-0.1-1.2-0.3-1.7-0.4
								c-0.5-0.1-1.1-0.2-1.6-0.3c-0.9-0.2-1.9-0.3-2.8-0.5c-0.3-0.1-0.6-0.1-0.9-0.1c-1.8-0.3-3.7-0.5-5.6-0.7
								c-1.5-0.1-4.5-0.9-5.9-0.5c-1.1,0.4-2.5,1.9-3.5,3.1c-0.2,0.2-0.3,0.3-0.4,0.5c-0.8,0.7-1.6,1.5-2.4,2.2
								c0.7-0.9,0.3-1,1.1-1.9c0.1-0.1,0.1-0.1,0.2-0.2c0,0,0.1-0.1,0.1-0.1c0.6-0.6,1.2-1.2,1.8-1.9c0-0.1,0.1-0.1,0.1-0.1
								c0,0,0.1-0.1,0.1-0.1c1.5-1.4,3.4-2.8,4.8-3c2.2-0.4,5.1,0.4,7.3,0.6c0.2,0,0.5,0,0.7,0.1h0c1.2,0.1,2.4,0.3,3.6,0.5
								c0.6,0.1,1.2,0.2,1.8,0.3c0.1,0,0.1,0,0.2,0c0.5,0.1,1.1,0.2,1.6,0.3c0.5,0.1,1,0.2,1.5,0.3c0.5,0.1,1.1,0.2,1.6,0.3
								c1.3,0.3,2.7,0.7,4,1.1c3.1,1,7.1,2.1,9.8,4.2c0.2,0.1,0.4,0.3,0.6,0.4c0.2,0.2,0.4,0.3,0.6,0.5c0.1-0.3,0.3-0.6,0.4-0.9
								c0.2-0.4,0.5-0.8,0.8-1.2c0.1-0.2,0.2-0.3,0.4-0.4c0.2-0.2,0.4-0.4,0.6-0.6c0.1-0.1,0.2-0.2,0.4-0.3c0,0,0.1-0.1,0.1-0.1
								c0.1-0.1,0.2-0.1,0.3-0.2c0.1-0.1,0.3-0.2,0.4-0.3s0.3-0.2,0.4-0.3c0.1-0.1,0.3-0.2,0.4-0.3c0.3-0.2,0.6-0.3,0.9-0.4
								c0.4-0.2,0.9-0.4,1.3-0.6c0,0,0.1-0.1,0.2-0.1c0.2-0.1,0.4-0.1,0.5-0.2c0.1-0.1,0.2-0.1,0.4-0.1c0.3-0.1,0.6-0.2,0.8-0.2
								c0.3-0.1,0.6-0.1,0.9-0.2c0,0,0.1,0,0.1,0c0.3,0,0.6-0.1,0.9-0.2c1-0.2,1.9-0.3,2.8-0.3c0.2,0,0.6,0,1-0.1c0.1,0,0.1,0,0.2,0
								c2.4-0.1,5.2-0.1,7.5,0.4c1,0.2,1.6,0.3,1.8,1.6c0,0,0,0,0,0c0,0.1,0,0.1,0,0.2c0,0,0,0.1,0,0.1c0,0,0,0.1,0,0.1
								c0,0.1,0,0.3,0,0.4c0,0.2,0,0.4,0.1,0.7c0.2,2.5,0.4,5.3-0.3,7.5c-0.1,0.4-0.3,0.9-0.5,1.3c-0.2,0.3-0.3,0.7-0.5,1l-0.1,0
								c0-0.8,0-1.7,0-2.5c0,0,0,0,0,0c0,0,0,0,0,0s0,0,0-0.1c0.4-2.5-0.1-5.2-0.2-7.6v0c0,0,0,0,0,0v0v0c0-0.1,0-0.1-0.1-0.2
								c-0.1-0.3-0.4-0.6-0.9-0.8c-0.2-0.1-0.5-0.2-0.7-0.3c-0.2-0.1-0.5-0.1-0.8-0.2c0,0-0.1,0-0.1,0c-2.3-0.5-5.9-0.3-8.7,0
								c0,0,0,0,0,0c-0.4,0-0.8,0.1-1.2,0.2c-1.4,0.2-2.5,0.4-3.1,0.6c-0.3,0.1-0.6,0.2-0.9,0.3c-0.2,0.1-0.3,0.1-0.5,0.2
								c-0.2,0.1-0.4,0.2-0.5,0.3c0,0,0,0-0.1,0c-2,1.2-3.1,3-3.5,5.5c0,0.1,0,0.1,0,0.2c0,0.3-0.1,0.5-0.1,0.8
								c-0.1,0.1-0.2,0.3-0.3,0.4c-0.4-0.8-1-1.4-1.7-2c-0.1-0.1-0.2-0.2-0.3-0.3c-1.6-1.2-4.2-1.9-5.8-2.5c0,0,0,0,0,0l0,0
								c0,0,0,0-0.1,0c0,0-0.1,0-0.1,0c0,0,0,0,0,0c0,0,0,0,0,0c-0.1,0-0.1-0.1-0.2-0.1c0,0,0,0-0.1,0c-0.1,0-0.2-0.1-0.2-0.1
								L1397.2,1571.3C1397.3,1571.4,1397.3,1571.4,1397.2,1571.3z"/>
							<path fill="#54381E" d="M1428.9,1569c0,0.1,0,0.3,0,0.4C1429,1569.3,1428.9,1569.1,1428.9,1569z"/>
							<path fill="#54381E" d="M1428.9,1569C1428.9,1569,1428.9,1569,1428.9,1569C1428.9,1569,1428.9,1569,1428.9,1569
								C1428.9,1568.9,1428.9,1568.9,1428.9,1569z"/>
							<path fill="#54381E" d="M1428.9,1568.8c0,0,0,0.1,0,0.1C1428.9,1568.9,1428.9,1568.8,1428.9,1568.8z"/>
							<path fill="#58719A" d="M1428.9,1568.6C1428.9,1568.6,1428.9,1568.6,1428.9,1568.6
								C1428.9,1568.6,1428.9,1568.6,1428.9,1568.6z"/>
							<path fill="#58719A" d="M1428.9,1568.5C1428.9,1568.6,1428.9,1568.6,1428.9,1568.5c-0.2-1.3-0.9-1.3-1.8-1.5
								c-2.3-0.5-5.1-0.5-7.5-0.4c2.6-0.2,8.1-0.3,9.1,1.2c0.1,0.2,0.2,0.3,0.2,0.6c0,0,0,0,0,0.1
								C1428.9,1568.5,1428.9,1568.5,1428.9,1568.5z"/>
							<path fill="#58719A" d="M1428.9,1568.4c0,0,0,0.1,0,0.1C1428.9,1568.5,1428.9,1568.5,1428.9,1568.4z"/>
							<path fill="#58719A" d="M1428.8,1567.4c0,0.1,0,0.1-0.1,0.2c0-0.1-0.1-0.1-0.1,0c-0.1-0.1-0.1-0.3-0.2-0.4
								C1428.7,1567.2,1428.8,1567.3,1428.8,1567.4z"/>
							<path fill="#58719A" d="M1428.7,1567.7C1428.7,1567.6,1428.8,1567.6,1428.7,1567.7
								C1428.7,1567.7,1428.7,1567.7,1428.7,1567.7C1428.7,1567.7,1428.7,1567.7,1428.7,1567.7z"/>
							<path fill="#58719A" d="M1427.8,1579.8c0.2-0.3,0.3-0.7,0.5-1c-0.8,1.8-1.7,3.8-2.9,5.6
								C1426.3,1583,1427.1,1581.4,1427.8,1579.8z"/>
							<path fill="#49301C" d="M1427.7,1579.8l0.1,0c-0.7,1.5-1.5,3.2-2.4,4.6c-0.3,0.4-0.6,0.8-0.9,1.2l-0.3-0.2
								c0.1-0.1,0.1-0.2,0.2-0.3c0.2-0.2,0.3-0.5,0.5-0.7c0.1-0.2,0.2-0.4,0.3-0.5c0.1-0.2,0.2-0.4,0.3-0.6c0.1-0.3,0.2-0.6,0.3-0.9
								c0.1-0.2,0.1-0.4,0.2-0.6c0.1-0.3,0.2-0.7,0.2-1c0-0.2,0-0.4,0.1-0.6c0,0,0,0,0,0c0-0.1,0-0.1,0-0.2c0,0,0-0.1,0-0.1
								c0-0.2,0-0.3,0-0.4c0-1.8-0.4-3.3-0.9-5c0,0,0,0,0-0.1c-0.1-0.3-0.1-0.6-0.2-0.9c-0.1-0.3-0.2-0.7-0.3-0.9c0-0.1,0-0.1,0-0.1
								c0-0.1-0.1-0.2-0.1-0.3c0-0.1-0.1-0.1-0.1-0.2c-0.1-0.3-0.1-0.6,0-0.9c0.1-0.2,0.9-1.1,1.1-1.1c0,0,0,0,0,0
								c0,0,0,0.1,0.1,0.1c0.1,0.1,0.1,0.3,0.2,0.4c0.1,0.2,0.2,0.4,0.3,0.7c0.3,0.9,0.7,1.9,0.9,3c0,0.1,0.1,0.3,0.1,0.4
								c0.3,1.3,0.4,2.6,0.3,3.9c0-0.1,0.1-0.2,0.1-0.3c0,0,0,0,0,0c0,0,0,0,0,0c0,0,0-0.1,0-0.1c0,0,0,0,0,0c0-0.1,0-0.1,0-0.2
								c0-0.1,0.1-0.3,0.1-0.4c0,0,0-0.1,0-0.1c0,0,0,0,0-0.1c0,0,0,0,0,0c0,0,0,0,0,0c0,0,0-0.1,0-0.1
								C1427.7,1578.1,1427.7,1579,1427.7,1579.8z"/>
							<path fill="#3D5270" d="M1427.7,1577.3C1427.7,1577.3,1427.7,1577.3,1427.7,1577.3c0,0.1,0,0.1,0,0.1c0,0,0,0,0,0
								c0,0,0,0,0,0c0,0,0,0,0,0.1c0,0,0,0,0,0c0,0,0,0.1,0,0.1c0,0.1,0,0.1,0,0.2c0,0.1,0,0.2-0.1,0.3c0,0,0,0.1,0,0.1c0,0,0,0,0,0
								c0-0.1,0-0.1,0-0.2c0,0,0,0,0,0c0.5-2.8-0.1-5.6-0.1-8.4C1427.7,1572,1428.1,1574.7,1427.7,1577.3
								C1427.7,1577.2,1427.7,1577.2,1427.7,1577.3C1427.7,1577.3,1427.7,1577.3,1427.7,1577.3z"/>
							<path fill="#54381E" d="M1427.7,1577.2C1427.7,1577.2,1427.7,1577.3,1427.7,1577.2
								C1427.7,1577.2,1427.7,1577.2,1427.7,1577.2z"/>
							<path fill="#54381E" d="M1427.7,1577.4C1427.7,1577.4,1427.7,1577.4,1427.7,1577.4L1427.7,1577.4
								C1427.7,1577.4,1427.7,1577.4,1427.7,1577.4z"/>
							<path fill="#54381E" d="M1427.6,1577.5c0,0,0,0.1,0,0.1C1427.6,1577.6,1427.6,1577.6,1427.6,1577.5
								C1427.6,1577.5,1427.6,1577.5,1427.6,1577.5z"/>
							<path fill="#54381E" d="M1427.6,1577.8c0,0,0-0.1,0-0.2c0,0.1,0,0.3-0.1,0.4C1427.6,1577.9,1427.6,1577.8,1427.6,1577.8z"/>
							<path fill="#734E27" d="M1406.3,1576c0,0,0-0.1,0-0.1c0-0.2,0-0.4,0.1-0.6c0-0.1,0-0.2,0-0.2c0.4-2.4,1.4-4.2,3.5-5.5
								c0,0,0,0,0.1,0c0.2-0.1,0.3-0.2,0.5-0.3c0.2-0.1,0.3-0.2,0.5-0.2c0.3-0.1,0.6-0.2,0.9-0.3c0.5-0.2,1.7-0.4,3.1-0.6
								c0.4,0,0.8-0.1,1.2-0.2c0,0,0,0,0,0c2.8-0.3,6.4-0.4,8.7,0c0,0,0.1,0,0.1,0c0.3,0.1,0.5,0.1,0.8,0.2c0.3,0.1,0.5,0.2,0.7,0.3
								c0.4,0.2,0.7,0.5,0.9,0.8c0,0.1,0.1,0.1,0.1,0.2c0,0,0,0,0,0.1v0c0,2.8,0.5,5.6,0.1,8.4c0.1-0.8-0.1-2-0.4-3.2
								c0-0.1-0.1-0.3-0.1-0.4c-0.2-1-0.5-2-0.9-3c-0.1-0.2-0.2-0.4-0.3-0.7c-0.1-0.2-0.1-0.3-0.2-0.4c0,0,0-0.1-0.1-0.1
								c0,0,0,0,0,0c-0.2,0-0.9,0.7-1,0.8c-0.3,0.6-0.2,0.9,0,1.3c0,0.1,0.1,0.1,0.1,0.2c0,0.1,0.1,0.2,0.1,0.3c0,0,0,0.1,0,0.1
								c0,0.1,0.1,0.1,0.1,0.2c0.1,0.6,0.3,1.1,0.4,1.6c0,0,0,0,0,0.1c0.4,1.7,0.9,3.3,0.9,5c0,0.1,0,0.3,0,0.4c0,0,0,0.1,0,0.1
								c0,0,0,0.1,0,0.1c0,0.2,0,0.4-0.1,0.6c-0.1,0.3-0.1,0.7-0.2,1c0,0.2-0.1,0.4-0.2,0.6c-0.1,0.3-0.2,0.6-0.3,0.9
								c-0.1,0.2-0.2,0.4-0.3,0.6c-0.1,0.2-0.2,0.4-0.3,0.5c-0.1,0.3-0.3,0.5-0.5,0.7c-0.5,0.8-1.2,1.4-2,2c0,0,0,0,0,0
								c-0.3,0.3-0.7,0.5-1.1,0.7c-0.2,0.1-0.4,0.2-0.6,0.3c-0.2,0.1-0.4,0.2-0.5,0.2c-0.2,0.1-0.4,0.2-0.5,0.2
								c-0.2,0.1-0.4,0.1-0.6,0.2c-0.1,0-0.3,0.1-0.4,0.1c-0.4,0.1-0.7,0.1-1.1,0.2c-0.1,0-0.2,0-0.3,0c-0.1,0-0.2,0-0.3,0
								c-0.5,0-1,0-1.4,0c-0.5,0-1-0.1-1.5-0.2c-1.1-0.3-2.1-0.7-3.1-1.2c-0.2-0.1-0.5-0.3-0.7-0.4c-1.6-1-2.6-2-3.2-3.2
								c-0.9-1.6-1-3.5-0.9-5.9c0-0.1,0-0.2,0-0.3C1406.1,1577.4,1406.2,1576.7,1406.3,1576z M1423,1578.7c0.6,0.1,3.6,0.3,2.8-1.1
								c0,0,0,0,0-0.1c0,0,0,0,0-0.1c0,0,0,0,0,0c0,0,0,0,0,0c0-0.1-0.1-0.1-0.1-0.1c0,0,0,0,0,0c-0.1-0.1-0.1-0.2-0.1-0.2
								c-0.2-0.3-0.4-0.5-0.5-0.8c-1.6-2.2-2.8-3.2-5.1-3.3c0,0,0,0-0.1,0c-0.8-0.1-1.7,0-2.7,0.1c0,0,0,0-0.1,0c-0.1,0-0.1,0-0.2,0
								c-1.8,0.2-3.5,0.4-4.7,1.2c0,0,0,0,0,0c-0.1,0.1-0.1,0.1-0.2,0.1c-0.1,0.1-0.1,0.1-0.2,0.2c0,0,0,0-0.1,0.1
								c-0.1,0.1-0.2,0.2-0.2,0.2c0,0,0,0.1-0.1,0.1c-0.1,0.1-0.2,0.2-0.2,0.4c-0.1,0.1-0.2,0.3-0.2,0.4c0,0,0,0,0,0.1
								c-0.1,0.1-0.1,0.3-0.1,0.4c-0.1,0.2-0.1,0.4-0.1,0.6c0,0.2,0,0.4-0.1,0.6c-0.1,1.3,0.1,1.9,0.6,2.1c0,0,0,0,0,0
								c0.9,0.3,2.6-0.6,4.8-0.8c0.1,0,0.2,0,0.2,0c1.6-0.2,3.1-0.1,4.6-0.1c0.1,0,0.3,0,0.4,0
								C1421.8,1578.7,1422.4,1578.7,1423,1578.7C1422.9,1578.7,1423,1578.7,1423,1578.7z"/>
							<path fill="#54381E" d="M1427.1,1574.7c0.3,1.2,0.5,2.4,0.4,3.2c0,0,0,0,0,0c0,0.1,0,0.1,0,0.2c0,0.1,0,0.1,0,0.1
								c0,0,0,0,0,0c0,0,0,0,0,0c0,0.1-0.1,0.2-0.1,0.3C1427.5,1577.3,1427.4,1576,1427.1,1574.7z"/>
							<path fill="#54381E" d="M1427.5,1578c0,0.1,0,0.1,0,0.2c0,0,0,0,0,0C1427.5,1578.1,1427.5,1578.1,1427.5,1578z"/>
							<path fill="#734E27" d="M1427.5,1578.2C1427.5,1578.2,1427.5,1578.2,1427.5,1578.2L1427.5,1578.2
								C1427.5,1578.2,1427.5,1578.2,1427.5,1578.2z"/>
							<path fill="#54381E" d="M1427.5,1578.2C1427.5,1578.2,1427.5,1578.2,1427.5,1578.2
								C1427.5,1578.2,1427.5,1578.2,1427.5,1578.2L1427.5,1578.2z"/>
							<path fill="#734E27" d="M1427.5,1578.2C1427.5,1578.2,1427.5,1578.2,1427.5,1578.2
								C1427.5,1578.2,1427.5,1578.3,1427.5,1578.2C1427.5,1578.3,1427.5,1578.3,1427.5,1578.2z"/>
							<path fill="#54381E" d="M1427.5,1569.5C1427.5,1569.5,1427.5,1569.6,1427.5,1569.5
								C1427.5,1569.5,1427.5,1569.5,1427.5,1569.5C1427.5,1569.5,1427.5,1569.5,1427.5,1569.5L1427.5,1569.5z"/>
							<path fill="#54381E" d="M1427.5,1569.5L1427.5,1569.5C1427.5,1569.5,1427.5,1569.5,1427.5,1569.5c0-0.1-0.1-0.1-0.1-0.2
								C1427.4,1569.4,1427.4,1569.4,1427.5,1569.5z"/>
							<path fill="#49301C" d="M1424.2,1540.3c0,0,0-0.1-0.1-0.2C1424.2,1540.2,1424.2,1540.3,1424.2,1540.3z M1423.8,1538.8
								c0-0.1,0-0.1,0-0.1C1423.8,1538.7,1423.8,1538.8,1423.8,1538.8z M1423.9,1539.2c0-0.1,0-0.1,0-0.2
								C1423.8,1539.1,1423.9,1539.1,1423.9,1539.2z M1424.1,1540c0-0.1-0.1-0.2-0.1-0.4c0,0,0-0.1,0-0.1c0-0.1-0.1-0.2-0.1-0.3
								c0,0,0,0.1,0,0.2c0-0.2-0.1-0.3-0.1-0.4c0,0,0,0,0,0c-0.1-0.3-0.2-0.6-0.3-0.8c-0.7-2-1.7-3.9-2.7-5.8
								c-0.3-0.7-0.7-1.3-1-1.9c0.5,5.7,1.4,11.4,2.7,17c0,0,0,0,0,0.1c0,0.3,0.1,0.5,0.2,0.8c0.1-0.3,0.2-0.6,0.3-0.8
								c0.8-2.4,1.6-5,1-7.5C1424.1,1539.9,1424.1,1540,1424.1,1540z M1426.6,1561.6c0.3,0.4,0.6,0.8,0.9,1.1
								c-0.9-0.3-1.9-0.7-2.8-0.9c0.1,0,0.1,0,0.1,0c-0.1-0.3-0.2-0.7-0.3-1c-0.3-0.9-0.5-1.8-0.8-2.7c-0.1-0.1-0.1-0.3-0.1-0.4
								c-0.1-0.3-0.2-0.5-0.2-0.8c-0.4-1.4-0.8-2.9-1.1-4.3c-0.1-0.6-0.3-1.2-0.4-1.8c-1.7-7.4-2.9-14.9-3.3-22.4c0,0,0,0,0-0.1
								c0-0.6-0.1-1.1-0.1-1.7c0,0,0,0,0,0c0-0.2,0-0.3,0-0.5c0-0.3,0-0.7,0-1c0-0.3,0-0.6,0-0.9c-0.3-13.6,2.3-27.2,3.6-40.7
								c0.2-2.1,0.4-4.1,0.6-6.2c0,0,0,0,0,0c0.1-0.6,0.1-1.3,0.2-1.9c1-11.2,1.8-22.5,1.9-33.8c0.2-5.5,0.4-10.9,0.5-16.4
								c0,0,0-0.6,0-1.6c0.1-3.6,0.3-12.3,0.4-19.4c0.1-3.1,0.2-6.2-0.1-9.2c0,0,0,0,0-0.1c0-0.3,0-0.5-0.1-0.7c0,0,0,0,0-0.1
								c-0.1-0.9-0.7-6.8-5.4-11.3c-0.1-0.1-0.1-0.1-0.2-0.2c-0.8-0.7-1.6-1.4-2.5-2c0,0-0.1,0-0.1-0.1c-0.1-0.1-0.2-0.1-0.3-0.2
								c-0.5-0.3-1-0.6-1.5-0.8c-1.8-0.8-3.7-1.3-5.8-1.2c-0.1,0-0.1,0-0.2,0c-2.5,0-5.3,0.8-8,3.1c-0.1,0.1-0.3,0.2-0.4,0.4
								c-0.2,0.2-0.4,0.4-0.7,0.6c0,0,0,0,0,0c-0.3,0.1-1.8,0.9-3.4,4l-0.2-0.1c2.9-5.9,7.7-10.1,15.6-9.3
								c14.8,1.4,14.7,17.3,14.5,28.4c-0.6,32.1-1.5,63.8-5.4,95.8c-0.5,4.1-1.1,8.2-1.5,12.3c-0.3,3.5-1.1,8.1-0.3,11.5
								c1.4,6.3,7.4,11.1,5.7,18.2c-0.7,2.8-2.1,5.3-1.7,8.2C1424,1554.3,1425,1559.3,1426.6,1561.6z"/>
							<path fill="#54381E" d="M1426.5,1568.5c0.4,0.2,0.7,0.5,0.9,0.8C1427.2,1569,1426.9,1568.7,1426.5,1568.5z"/>
							<path fill="#54381E" d="M1426.1,1571.4c0.4,1,0.7,2,0.9,3C1426.8,1573.3,1426.5,1572.3,1426.1,1571.4z"/>
							<path fill="#54381E" d="M1425.3,1574.7c0.5,1.6,1,3.2,0.9,5C1426.2,1578,1425.7,1576.3,1425.3,1574.7z"/>
							<path fill="#54381E" d="M1426.2,1580.1c0,0,0,0.1,0,0.1c0,0,0,0,0,0C1426.2,1580.2,1426.2,1580.1,1426.2,1580.1z"/>
							<path fill="#54381E" d="M1426.2,1580.2c0,0.1,0,0.1,0,0.2c0,0,0,0,0,0C1426.2,1580.3,1426.2,1580.3,1426.2,1580.2
								C1426.2,1580.2,1426.2,1580.2,1426.2,1580.2z"/>
							<path fill="#54381E" d="M1426.2,1580.2C1426.2,1580.2,1426.2,1580.2,1426.2,1580.2
								C1426.2,1580.3,1426.2,1580.2,1426.2,1580.2C1426.2,1580.2,1426.2,1580.2,1426.2,1580.2z"/>
							<path fill="#54381E" d="M1426.2,1580.3c0,0,0-0.1,0-0.1C1426.2,1580.2,1426.2,1580.3,1426.2,1580.3
								C1426.2,1580.3,1426.2,1580.3,1426.2,1580.3z"/>
							<path fill="#54381E" d="M1425.9,1581.9c0.1-0.3,0.2-0.7,0.2-1C1426.1,1581.3,1426,1581.6,1425.9,1581.9z"/>
							<path fill="#54381E" d="M1425.8,1570.7c0.1,0.2,0.2,0.4,0.3,0.7C1426,1571.1,1425.9,1570.9,1425.8,1570.7z"/>
							<path fill="#54381E" d="M1425.8,1582.5c0.1-0.2,0.1-0.4,0.2-0.6C1425.9,1582.1,1425.8,1582.3,1425.8,1582.5z"/>
							<path fill="#54381E" d="M1423,1578.7c0.6,0,3.5,0.2,2.8-1.1C1426.6,1579.1,1423.6,1578.8,1423,1578.7z"/>
							<path fill="#49301C" d="M1425.8,1577.6c0.7,1.3-2.2,1.2-2.8,1.1c0,0-0.1,0-0.1,0c-0.5,0-1.1,0-1.6-0.1c-0.1,0-0.3,0-0.4,0
								c-1.5-0.1-3-0.1-4.6,0.1c-0.1,0-0.2,0-0.2,0c-0.2,0-0.5,0.1-0.7,0.1c-1.9,0.3-3.3,1-4,0.7c0,0,0,0,0,0
								c-0.5-0.2-0.7-0.8-0.6-2.1c0-0.2,0-0.3,0.1-0.6c0-0.2,0.1-0.4,0.1-0.6c0-0.1,0.1-0.3,0.1-0.4c0,0,0,0,0-0.1
								c0.1-0.2,0.1-0.3,0.2-0.4c0.1-0.1,0.2-0.3,0.2-0.4c0,0,0-0.1,0.1-0.1c0.1-0.1,0.2-0.2,0.2-0.2c0,0,0.1,0,0.1-0.1
								c0.1-0.1,0.1-0.1,0.2-0.2c0.1,0,0.1-0.1,0.2-0.1c0,0,0,0,0,0c1-0.7,2.5-0.8,4.1-1.1c0.2,0,0.4-0.1,0.6-0.1c0.1,0,0.1,0,0.2,0
								c0,0,0,0,0.1,0c1.1-0.1,1.9-0.2,2.7-0.1c0,0,0,0,0.1,0c2.2,0.2,3.5,1.1,5.1,3.3c0.2,0.2,0.4,0.5,0.5,0.8c0,0,0,0.1,0.1,0.2
								c0,0,0,0,0,0c0,0,0.1,0.1,0.1,0.1c0,0,0,0,0,0c0,0,0,0,0,0C1425.8,1577.5,1425.8,1577.5,1425.8,1577.6
								C1425.8,1577.6,1425.8,1577.6,1425.8,1577.6z M1423,1577.1c0.1,0,0.1,0,0.1,0c-1.7-2.6-3.5-2.7-6.6-2.5
								c-0.6,0.1-4.1,0.2-4.6,0.8c-0.5,0.8,0.6,2.1,0.1,2.7C1415.6,1577.5,1419.7,1576.9,1423,1577.1z"/>
							<path fill="#54381E" d="M1425.8,1570.7c-0.1-0.2-0.1-0.3-0.2-0.4C1425.7,1570.4,1425.8,1570.6,1425.8,1570.7z"/>
							<path fill="#54381E" d="M1424.6,1570.9c0-0.1,0.8-0.8,1-0.8c-0.1,0-1,0.8-1.1,1.1c-0.1,0.3-0.1,0.6,0,0.9
								C1424.4,1571.8,1424.3,1571.5,1424.6,1570.9z"/>
							<path fill="#54381E" d="M1425.4,1395.1c0.3,3,0.3,6.1,0.1,9.2C1425.5,1400.4,1425.5,1396.9,1425.4,1395.1z"/>
							<path fill="#54381E" d="M1425.4,1395.1c0.1,1.8,0.2,5.2,0.1,9.2c0,0.8-0.1,1.6-0.1,2.4c0-3,0.1-6,0.1-8.9
								c0.1-6.6-3.2-13.7-8.4-17.1c0,0,0.1,0.1,0.1,0.1c0.9,0.6,1.8,1.3,2.5,2c0.1,0.1,0.1,0.1,0.2,0.2c3,2.9,4.9,7.1,5.4,11.3
								c0,0.1,0,0.1,0,0.1C1425.3,1394.6,1425.4,1394.8,1425.4,1395.1C1425.4,1395.1,1425.4,1395.1,1425.4,1395.1z"/>
							<path fill="#604222" d="M1417,1380.7c5.3,3.4,8.6,10.5,8.4,17.1c0,3-0.1,6-0.1,8.9c-0.1,2.1-0.2,4.1-0.3,6.1
								c-0.2,4.2-0.3,8.4-0.4,12.5c-3.1,0.2-7,2.1-7,2.1c-9.2,4.2-24,0.2-24.6,0c0-0.7,0-1.4,0-2.2c0,0,0-0.1,0-0.1c0-1.5,0-3,0-4.5
								v-11.3c0-0.8,0-1.6,0.1-2.3c0.1-1.1,0.1-2.3,0.2-3.4c0.3-3.4,0.7-6.7,1.4-10c0.8-4.2,2.4-8.2,5.4-11.1c0,0,0,0,0,0
								c0.1-0.1,0.2-0.2,0.3-0.3c1-0.9,2.1-1.7,3.4-2.3c0.2-0.1,0.5-0.2,0.7-0.3c0.1,0,0.1,0,0.2-0.1c0.3-0.1,0.7-0.2,1-0.3
								c3.8-1.2,7.4-0.7,10.4,0.9c0.1,0,0.1,0.1,0.2,0.1C1416.6,1380.4,1416.8,1380.5,1417,1380.7z"/>
							<path fill="#54381E" d="M1425.2,1583.9c0.1-0.2,0.2-0.4,0.3-0.6C1425.4,1583.6,1425.3,1583.8,1425.2,1583.9z"/>
							<path fill="#604222" d="M1425.4,1406.7c0-0.8,0.1-1.6,0.1-2.4c-0.1,7.1-0.3,15.9-0.4,19.4
								C1425.3,1418.1,1425.3,1412.4,1425.4,1406.7z"/>
							<path fill="#604222" d="M1425.4,1395.1c0-0.2,0-0.5-0.1-0.7C1425.3,1394.6,1425.4,1394.8,1425.4,1395.1z"/>
							<path fill="#54381E" d="M1425.8,1568.2c-0.2-0.1-0.5-0.1-0.8-0.2C1425.3,1568.1,1425.5,1568.2,1425.8,1568.2z"/>
							<path fill="#54381E" d="M1425.1,1573.7c0,0.3,0.1,0.6,0.2,0.9c-0.2-0.5-0.3-1.1-0.4-1.6c0-0.1,0-0.2-0.1-0.2
								C1424.9,1573,1425,1573.3,1425.1,1573.7z"/>
							<path fill="#604222" d="M1425.4,1406.7c-0.1,5.7-0.1,11.3-0.2,17c0,1,0,1.6,0,1.6c-0.1,0-0.3,0-0.4,0
								c0.1-4.2,0.2-8.3,0.4-12.5C1425.2,1410.8,1425.3,1408.8,1425.4,1406.7z"/>
							<path fill="#54381E" d="M1424.9,1584.5c0.1-0.2,0.2-0.4,0.3-0.5C1425.1,1584.1,1425,1584.3,1424.9,1584.5z"/>
							<path fill="#734E27" d="M1424.7,1425.4c0.1,0,0.3,0,0.4,0c-0.1,5.5-0.3,10.9-0.5,16.4c0-2.4,0.1-4.8,0-7.2
								C1424.6,1431.5,1424.7,1428.5,1424.7,1425.4z"/>
							<path fill="#734E27" d="M1417.6,1435.8c0.1,0,0.2-0.1,0.3-0.1C1417.8,1435.7,1417.7,1435.8,1417.6,1435.8z M1418.5,1435.4
								c0.2-0.1,0.4-0.2,0.6-0.3C1418.9,1435.2,1418.7,1435.3,1418.5,1435.4z M1418.4,1435.4c-0.1,0-0.2,0.1-0.2,0.1
								C1418.2,1435.5,1418.3,1435.5,1418.4,1435.4z M1419.5,1434.9c0,0,0.1,0,0.1,0c0,0,0.1,0,0.1,0c0.1,0,0.2-0.1,0.3-0.1
								c0.1,0,0.1,0,0.2-0.1c0,0,0,0,0.1,0c0.4-0.2,0.9-1.4,1-1.5c-4.2,2-9,3.3-13.6,2.6c-2.3-0.3-4.4-1.1-6.4-2.3
								c-1.2-0.7-3.5-3.9-4.7-2.8c-2.5,2.5,8.1,6.4,9.8,6.6C1410.8,1437.9,1415.4,1436.7,1419.5,1434.9z M1380.4,1559.1
								c1.2-0.9,2.2-1.9,3.2-3c0.2-0.3,0.5-0.5,0.7-0.8c0.3-0.4,0.6-0.7,0.9-1.1c0.1-0.2,0.3-0.4,0.4-0.5c0.2-0.3,0.3-0.5,0.5-0.8
								c0.2-0.3,0.4-0.6,0.5-0.9c5.5-9.2,5.3-21.3,4.8-32.2c0,0,0-0.1,0-0.1c-0.3-10.5-1.1-21-1.5-31.5c-0.1-3-0.2-5.9-0.3-8.9
								c0-0.3,0-0.6,0-0.9c-0.1-4.3-0.1-8.6-0.1-12.9c0.1-3.9,0.2-7.9,0.4-11.8c0-0.6,0.1-1.2,0.1-1.8c0.1-0.7,0.1-1.4,0.2-2.1
								c0-0.3,0.1-0.6,0.1-1c0.1-0.6,0.1-1.2,0.2-1.8c0.1-0.5,0.1-1,0.2-1.5c0.7-5.4,2-10.7,2.4-16.1c0,0,0,0,0-0.1
								c0-0.1,0-0.1,0-0.2c0.1-0.5,0.1-1.1,0.1-1.6c0.6,0.2,15.4,4.2,24.6,0c0,0,3.9-2,7-2.1c-0.1,3.1-0.1,6.1-0.1,9.2
								c0,2.4,0,4.8,0,7.2c-0.4,11.9-1.1,23.8-2.1,35.6c0,0,0,0,0,0c-1.4,14.6-4.1,29.4-4.2,44.1c0,0.9,0,1.9,0,2.8
								c0,0.3,0,0.6,0,0.9c0,0.3,0,0.7,0,1c-0.1,0.2-0.1,0.4,0,0.6c0,0,0-0.1,0-0.1c0,0.6,0.1,1.1,0.1,1.7c0,0,0,0,0,0.1
								c0.4,7.5,1.6,15,3.3,22.4c0.1,0.6,0.3,1.2,0.4,1.8c0.4,1.4,0.7,2.9,1.1,4.3c0.1,0.3,0.1,0.5,0.2,0.8c0,0.1,0.1,0.3,0.1,0.4
								c0.3,0.9,0.5,1.8,0.8,2.7c0.1,0.3,0.2,0.7,0.3,1c-0.1,0-0.1,0-0.1,0c0,0,0,0,0,0c0,0,0,0,0,0c-0.2,0-0.4-0.1-0.6-0.1
								c-0.2,0-0.5,0-0.7-0.1c-0.2,0-0.5,0-0.7,0c-1.8-0.1-3.5,0.1-5.3,0.4c-0.2,0-0.3,0.1-0.5,0.1c-0.3,0.1-0.7,0.1-1,0.2
								c-1.8,0.1-3.4,1.1-4.9,2.1c-0.1,0-0.1,0.1-0.2,0.1c-1.7,0.9-3.5,1.9-5.3,1.7c0,0,0,0,0,0c-1.8-0.3-3.2-1.7-5.2-2.5
								c-5.7-2.4-12.1-4.1-18.3-4.5c-0.4,0-0.9-0.1-1.3-0.1C1380.6,1559.1,1380.5,1559.1,1380.4,1559.1L1380.4,1559.1z"/>
							<path fill="#54381E" d="M1424.7,1572.6c0-0.1-0.1-0.2-0.1-0.3C1424.7,1572.4,1424.7,1572.5,1424.7,1572.6z"/>
							<path fill="#3D5270" d="M1424.4,1595.3l0.3,0.4c-1.6,1.1-3.3,2.1-5.2,2.9c-10.1,4.3-22.5,4.2-33.2,3.1
								c-10.2-1-23.8-1.8-30.9-10.6c-6.2-7.7,3.1-16.1,8.5-20.7c0.2,0.2-0.1,0.7-0.6,1.2c-1.2,1-2.4,2-3.6,3.1c-0.4,0.3-0.7,0.7-1,1
								c-1.1,1.2-2.1,2.4-2.8,3.9c-0.2,0.4-0.4,0.9-0.5,1.4c-0.9,2.9-0.8,6.3,1.2,8.5c1.9,2.1,4.3,3.8,6.9,5.1
								c0.3,0.1,0.5,0.3,0.8,0.4c3.9,2,8.2,3.2,12.6,4c0,0,0.1,0,0.1,0c10.8,2.1,23.6,3,34.6,0.9c0.3-0.1,0.6-0.1,0.9-0.2
								c1.9-0.4,3.8-0.9,5.7-1.5c0.3-0.1,0.7-0.2,1-0.4c0.4-0.1,0.7-0.3,1.1-0.5C1421.8,1596.9,1423.1,1596.1,1424.4,1595.3z"/>
							<path fill="#734E27" d="M1424.7,1561.8c-0.2,0-0.4-0.1-0.6-0.1C1424.3,1561.8,1424.5,1561.8,1424.7,1561.8
								C1424.7,1561.8,1424.7,1561.8,1424.7,1561.8z"/>
							<path fill="#49301C" d="M1424.3,1585.5l0.3,0.2c-0.2,0.2-0.3,0.4-0.5,0.6c-0.1,0.2-0.3,0.3-0.4,0.4c-1,1-2.1,1.8-3.2,2.4
								c-0.3,0.2-0.6,0.3-0.9,0.4c-0.7,0.3-1.5,0.6-2.3,0.7c-3,0.6-6.1,0-8.8-1.8c-0.2-0.1-0.4-0.3-0.6-0.4
								c-0.4-0.3-0.8-0.6-1.2-0.9c-0.6-0.5-1.1-1.1-1.6-1.7c-0.3,0.3-0.5,0.6-0.8,0.9c-2.1,2.3-4.8,4.3-7.9,3.9
								c-0.2,0-0.3,0-0.5-0.1c-0.1,0-0.2-0.1-0.3-0.1c-1.9-0.6-2.9-2.3-4.9-3.3c-1-0.5-2-0.4-3-0.1l-0.1-0.2
								c0.9-0.3,1.7-0.7,2.1-1.4c0.2-0.4,0.4-3.4,0.5-4c0.2-1,0.2-1.9,0.6-2.9c0-0.1,0-0.1,0.1-0.1v0c0.3-0.7,2.6-3,2.6-3
								c0,0.1,0,0.1,0,0.2c-0.2,1-1.6,2.4-1.9,3.4c-0.2,0.5-0.3,1-0.4,1.5c0,0,0,0.1,0,0.1c-0.3,1.5-0.3,2.7,0.2,3.8c0,0,0,0,0,0
								c0.9,2.2,3.2,3.9,5.4,4.4c2.4,0.5,5.6-0.5,7.1-2.5c0,0,0.1-0.1,0.1-0.1c1.2-1.5,1.1-3,1.1-5.2c0-1.4,0.5-3.5,0.1-4.9
								c-0.2-0.5-0.5-1-1-1.4c0.7,0.6,1.3,1.3,1.7,2c0.1-0.1,0.2-0.3,0.3-0.4c0,0.2-0.1,0.4-0.1,0.6c0,0.4-0.1,0.9-0.1,1.3
								c0,0.1,0,0.2,0,0.3c-0.2,2.3-0.1,4.2,0.9,5.9c0.7,1.4,1.9,2.5,3.9,3.6c0.1,0.1,0.3,0.2,0.4,0.2c0.9,0.5,1.8,0.8,2.7,1
								c0.5,0.1,1,0.2,1.5,0.2c0.5,0,0.9,0,1.4,0c0.1,0,0.2,0,0.3,0c0.1,0,0.2,0,0.3,0c0.4-0.1,0.7-0.1,1.1-0.2
								c0.1,0,0.3-0.1,0.4-0.1c0.2,0,0.4-0.1,0.6-0.2c0.2-0.1,0.4-0.1,0.5-0.2c0.2-0.1,0.4-0.1,0.5-0.2c0.2-0.1,0.4-0.2,0.6-0.3
								c0.1-0.1,0.2-0.1,0.3-0.2c0.3-0.2,0.5-0.3,0.7-0.5c0,0,0,0,0,0C1423.1,1586.7,1423.7,1586.1,1424.3,1585.5z"/>
							<path fill="#54381E" d="M1424.4,1585.2c0,0.1-0.1,0.2-0.2,0.3c-0.5,0.7-1.1,1.3-1.8,1.8
								C1423.2,1586.7,1423.9,1586,1424.4,1585.2z"/>
							<path fill="#54381E" d="M1424.6,1585.7c-0.2,0.2-0.3,0.4-0.5,0.6C1424.2,1586.1,1424.4,1585.9,1424.6,1585.7z"/>
							<path fill="#54381E" d="M1424.2,1540.2c0,0.1,0,0.1,0.1,0.2C1424.2,1540.3,1424.2,1540.2,1424.2,1540.2z"/>
							<path fill="#734E27" d="M1423.8,1558.2c0.3,0.9,0.5,1.8,0.8,2.7C1424.3,1560,1424,1559.1,1423.8,1558.2z"/>
							<path fill="#54381E" d="M1424.1,1539.9c0.6,2.5-0.3,5.1-1,7.5c0.9-2.8,1.6-5.4,0.8-8.4c0.1,0.1,0.1,0.3,0.1,0.4
								c0,0.1,0,0.1,0.1,0.2c0,0,0,0,0,0C1424,1539.7,1424,1539.7,1424.1,1539.9C1424.1,1539.8,1424.1,1539.9,1424.1,1539.9z"/>
							<path fill="#604222" d="M1419.9,1382.9c4.7,4.6,5.4,10.5,5.4,11.3C1424.8,1390,1422.8,1385.8,1419.9,1382.9z"/>
							<path fill="#54381E" d="M1424.1,1540c0,0,0-0.1,0-0.1c0,0,0,0,0,0c0-0.1,0-0.1,0-0.2
								C1424.1,1539.8,1424.1,1539.9,1424.1,1540z"/>
							<path fill="#54381E" d="M1424,1539.6c0,0.1,0,0.1,0,0.2C1424,1539.7,1424,1539.7,1424,1539.6
								C1424,1539.6,1424,1539.6,1424,1539.6z"/>
							<path fill="#54381E" d="M1424,1539.5C1424,1539.6,1424,1539.6,1424,1539.5C1424,1539.6,1424,1539.6,1424,1539.5
								C1424,1539.6,1424,1539.6,1424,1539.5z"/>
							<path fill="#54381E" d="M1424,1539.5c0-0.1,0-0.1-0.1-0.2c0-0.1,0-0.1,0-0.2C1423.9,1539.3,1424,1539.4,1424,1539.5z"/>
							<path fill="#734E27" d="M1423.8,1539c0.9,3,0.1,5.5-0.8,8.4c-0.1,0.3-0.2,0.6-0.3,0.8c0.8-2.7-1.2-5.6-0.2-0.8
								c-1.3-5.6-2.3-11.3-2.7-17c0.3,0.7,0.6,1.3,1,1.9c1,1.9,1.9,3.8,2.7,5.8C1423.6,1538.4,1423.7,1538.7,1423.8,1539
								C1423.8,1538.9,1423.8,1538.9,1423.8,1539z"/>
							<path fill="#54381E" d="M1423.8,1539c0,0.1,0,0.1,0,0.2C1423.9,1539.1,1423.8,1539.1,1423.8,1539z"/>
							<path fill="#54381E" d="M1423.8,1538.9c-0.1-0.3-0.2-0.6-0.3-0.8C1423.6,1538.4,1423.7,1538.7,1423.8,1538.9z"/>
							<path fill="#54381E" d="M1423.8,1538.7c0,0,0,0.1,0,0.1C1423.8,1538.8,1423.8,1538.7,1423.8,1538.7z"/>
							<path fill="#54381E" d="M1423.4,1557c0.1,0.3,0.1,0.5,0.2,0.8C1423.5,1557.5,1423.5,1557.3,1423.4,1557z"/>
							<path fill="#3D5270" d="M1423.4,1561.7c-0.2,0-0.5,0-0.7,0C1422.9,1561.6,1423.1,1561.7,1423.4,1561.7z"/>
							<path fill="#B2987B" d="M1423.2,1577.1c0,0-0.1,0-0.1,0c0,0-0.1,0-0.1,0C1421.3,1576.9,1423,1576.8,1423.2,1577.1z"/>
							<path fill="#54381E" d="M1424.6,1441.8c-0.2,11.3-0.9,22.5-1.9,33.8c-0.1,0.6-0.1,1.3-0.2,1.9
								C1423.6,1465.5,1424.2,1453.6,1424.6,1441.8z"/>
							<path fill="#54381E" d="M1422.9,1577.1c0,0,0.1,0,0.1,0c-3.3-0.3-7.4,0.3-10.8,1.1c1.3-0.5,3.1-0.7,4.5-0.9c0,0,0,0,0.1,0
								c0,0,0.1,0,0.1,0c0,0,0,0,0.1,0c0,0,0.1,0,0.1,0c0.1,0,0.1,0,0.2,0c0,0,0,0,0,0c0,0,0,0,0.1,0c0,0,0.1,0,0.1,0
								C1419.3,1577,1421.1,1577,1422.9,1577.1z"/>
							<path fill="#54381E" d="M1422.1,1590.4c1.2-0.6,2.4-1.3,3.4-2.1C1424.5,1589.1,1423.3,1589.8,1422.1,1590.4z"/>
							<path fill="#734E27" d="M1422.6,1547.4c-1-4.8,1-1.9,0.2,0.8C1422.7,1547.9,1422.7,1547.7,1422.6,1547.4
								C1422.6,1547.4,1422.6,1547.4,1422.6,1547.4z"/>
							<path fill="#B2987B" d="M1417.5,1577.2C1417.5,1577.2,1417.5,1577.2,1417.5,1577.2c-0.1,0-0.1,0-0.1,0l0,0c0,0,0,0,0,0
								c0,0-0.1,0-0.2,0c0,0-0.1,0-0.1,0c-0.1,0-0.2,0-0.1,0c-0.1,0-0.1,0-0.1,0c-0.1,0-0.1,0-0.1,0c-1.4,0.2-3.2,0.3-4.5,0.9
								c0.4-0.6-0.7-1.9-0.1-2.7c0.4-0.7,3.9-0.8,4.6-0.8c3-0.3,4.8-0.2,6.6,2.5c-0.2-0.3-1.9-0.2-0.3,0
								C1421.1,1577,1419.3,1577,1417.5,1577.2z"/>
							<path fill="#3D5270" d="M1422.6,1561.6c-1.8-0.1-3.6,0.1-5.3,0.4C1419.1,1561.7,1420.9,1561.5,1422.6,1561.6z"/>
							<path fill="#734E27" d="M1422.5,1477.4c-0.2,2.1-0.4,4.2-0.6,6.2c-1.3,13.5-3.9,27.1-3.6,40.7c0-0.9,0-1.9,0-2.8
								C1418.4,1506.8,1421.2,1492,1422.5,1477.4z"/>
							<path fill="#734E27" d="M1421.8,1550.9c0.1,0.6,0.3,1.2,0.4,1.8C1422.1,1552.1,1422,1551.5,1421.8,1550.9z"/>
							<path fill="#54381E" d="M1422.4,1587.2c-0.2,0.2-0.5,0.3-0.7,0.5c-0.1,0.1-0.2,0.1-0.3,0.2
								C1421.7,1587.7,1422.1,1587.5,1422.4,1587.2z"/>
							<path fill="#54381E" d="M1422.9,1578.7c-0.5,0-1.1,0-1.6-0.1C1421.8,1578.7,1422.4,1578.7,1422.9,1578.7z"/>
							<path fill="#54381E" d="M1424.9,1568c-2.3-0.4-5.9-0.3-8.7,0C1419,1567.7,1422.6,1567.6,1424.9,1568z"/>
							<path fill="#58719A" d="M1421.1,1590.8c0.2-0.1,0.4-0.2,0.5-0.3C1421.5,1590.7,1421.3,1590.8,1421.1,1590.8z"/>
							<path fill="#58719A" d="M1421.6,1563.2c-0.2,0-0.3,0-0.5,0C1421.3,1563.2,1421.5,1563.2,1421.6,1563.2z"/>
							<path fill="#54381E" d="M1420.8,1588.2c0.2-0.1,0.4-0.2,0.6-0.3C1421.2,1588.1,1421,1588.2,1420.8,1588.2z"/>
							<path fill="#58719A" d="M1421.2,1563.2c-0.2,0-0.3,0-0.5,0C1420.9,1563.2,1421,1563.2,1421.2,1563.2z"/>
							<path fill="#734E27" d="M1423.5,1538.1c-0.7-2-1.7-3.9-2.7-5.8C1421.8,1534.2,1422.8,1536.1,1423.5,1538.1z"/>
							<path fill="#734E27" d="M1418.5,1528.5c0.4,7.5,1.6,15,3.3,22.4C1420.1,1543.6,1418.9,1536,1418.5,1528.5z"/>
							<path fill="#49301C" d="M1421.1,1433.1c-0.1,0.1-0.5,1.3-1,1.5c0,0-0.1,0-0.1,0c-0.1,0-0.1,0.1-0.2,0.1
								c-0.1,0-0.2,0.1-0.3,0.1c0,0-0.1,0-0.1,0c0,0-0.1,0-0.1,0c-4.1,1.8-8.7,3-13.2,2.4c-1.8-0.2-12.4-4.1-9.8-6.6
								c1.1-1.1,3.5,2,4.7,2.8c1.9,1.2,4.1,2,6.4,2.3C1412.2,1436.4,1416.9,1435.1,1421.1,1433.1z"/>
							<path fill="#54381E" d="M1420.2,1588.5c0.2-0.1,0.4-0.1,0.5-0.2C1420.6,1588.3,1420.4,1588.4,1420.2,1588.5z"/>
							<path fill="#54381E" d="M1419.9,1573.1c2.3,0.1,3.5,1.1,5.1,3.3C1423.4,1574.2,1422.1,1573.2,1419.9,1573.1z"/>
							<path fill="#54381E" d="M1419.7,1588.7c0.2-0.1,0.4-0.1,0.5-0.2C1420,1588.6,1419.9,1588.6,1419.7,1588.7z"/>
							<path fill="#54381E" d="M1420.1,1434.6c-0.1,0-0.1,0.1-0.2,0.1C1420,1434.7,1420.1,1434.7,1420.1,1434.6z"/>
							<path fill="#58719A" d="M1420.4,1589.2c-0.3,0.2-0.6,0.3-0.9,0.4C1419.8,1589.5,1420.1,1589.3,1420.4,1589.2z"/>
							<path fill="#54381E" d="M1420.9,1578.7c-1.5-0.1-3.1-0.1-4.6,0.1C1417.9,1578.6,1419.4,1578.6,1420.9,1578.7z"/>
							<path fill="#54381E" d="M1419.8,1573.1c-0.8,0-1.7,0-2.7,0.1C1418.2,1573.1,1419.1,1573,1419.8,1573.1z"/>
							<path fill="#54381E" d="M1418.9,1566.6c0.2,0,0.3,0,0.5,0c-0.4,0-0.8,0-1,0.1c-0.9,0.1-1.9,0.2-2.8,0.3
								C1416.7,1566.8,1417.8,1566.7,1418.9,1566.6z"/>
							<path fill="#54381E" d="M1418.7,1589c0.1,0,0.3-0.1,0.4-0.1C1419,1588.9,1418.8,1588.9,1418.7,1589z"/>
							<path fill="#58719A" d="M1419.2,1598c-0.3,0.1-0.7,0.3-1,0.4c-1.9,0.7-3.7,1.2-5.7,1.5c1.5-0.3,3-0.7,4.5-1.1
								C1417.8,1598.5,1418.5,1598.3,1419.2,1598z"/>
							<path fill="#54381E" d="M1419.1,1435.1c-0.2,0.1-0.4,0.2-0.6,0.3C1418.7,1435.3,1418.9,1435.2,1419.1,1435.1z"/>
							<path fill="#734E27" d="M1418.4,1526.7c0,0.6,0.1,1.1,0.1,1.7C1418.5,1527.9,1418.4,1527.3,1418.4,1526.7z"/>
							<path fill="#54381E" d="M1418.4,1526.8c-0.1-0.2-0.1-0.4,0-0.6c0,0.2,0,0.3,0,0.5c0,0,0,0,0,0
								C1418.4,1526.8,1418.4,1526.8,1418.4,1526.8z M1418.4,1526.8C1418.4,1526.8,1418.4,1526.8,1418.4,1526.8
								C1418.4,1526.8,1418.4,1526.8,1418.4,1526.8z"/>
							<path fill="#734E27" d="M1418.4,1526.2c0,0.2,0,0.3,0,0.5C1418.4,1526.6,1418.4,1526.4,1418.4,1526.2z"/>
							<path fill="#54381E" d="M1418.4,1526.7C1418.4,1526.8,1418.4,1526.8,1418.4,1526.7
								C1418.4,1526.8,1418.4,1526.8,1418.4,1526.7z"/>
							<path fill="#54381E" d="M1418.4,1435.4c-0.1,0-0.2,0.1-0.2,0.1C1418.2,1435.5,1418.3,1435.5,1418.4,1435.4z"/>
							<path fill="#734E27" d="M1418.3,1524.3c0,0.3,0,0.6,0,0.9C1418.3,1524.9,1418.3,1524.6,1418.3,1524.3z"/>
							<path fill="#54381E" d="M1419.6,1382.7c-0.7-0.7-1.5-1.3-2.5-2C1418.1,1381.3,1418.9,1382,1419.6,1382.7z"/>
							<path fill="#54381E" d="M1417.9,1435.7c-0.1,0-0.2,0.1-0.3,0.1C1417.7,1435.8,1417.8,1435.7,1417.9,1435.7z"/>
							<path fill="#54381E" d="M1417.3,1589.2c0.1,0,0.2,0,0.3,0C1417.5,1589.2,1417.4,1589.2,1417.3,1589.2z"/>
							<path fill="#B2987B" d="M1417.4,1577.2C1417.4,1577.2,1417.4,1577.2,1417.4,1577.2L1417.4,1577.2
								C1417.4,1577.2,1417.4,1577.2,1417.4,1577.2z"/>
							<path fill="#B2987B" d="M1417.3,1577.2c-0.1,0-0.1,0-0.2,0C1417.3,1577.3,1417.3,1577.2,1417.3,1577.2z"/>
							<path fill="#54381E" d="M1416.9,1589.2c0.1,0,0.2,0,0.3,0C1417.2,1589.2,1417,1589.2,1416.9,1589.2z"/>
							<path fill="#54381E" d="M1416,1563.6c0.7-0.1,1.5-0.3,2.2-0.3c-1,0.1-2.1,0.3-3.1,0.6
								C1415.4,1563.7,1415.7,1563.7,1416,1563.6z"/>
							<path fill="#734E27" d="M1416.8,1380.5c0.1,0.1,0.2,0.1,0.3,0.2c-0.2-0.1-0.4-0.3-0.7-0.4
								C1416.5,1380.4,1416.6,1380.4,1416.8,1380.5z"/>
							<path fill="#54381E" d="M1416.9,1573.2c-0.2,0-0.4,0.1-0.6,0.1c-1.7,0.3-3.1,0.4-4.1,1.1
								C1413.3,1573.6,1415.1,1573.5,1416.9,1573.2z"/>
							<path fill="#734E27" d="M1416.8,1562.2c-0.3,0.1-0.6,0.1-0.8,0.2c0,0-0.1,0-0.1,0C1416.2,1562.3,1416.5,1562.2,1416.8,1562.2
								z"/>
							<path fill="#734E27" d="M1416.8,1380.5c-0.1-0.1-0.3-0.2-0.4-0.2c-0.1,0-0.1-0.1-0.2-0.1c-0.2-0.1-0.4-0.3-0.7-0.4
								c0,0-0.1,0-0.3-0.1C1415.8,1379.9,1416.3,1380.2,1416.8,1380.5z"/>
							<path fill="#3D5270" d="M1416,1562.4c1.3-0.1-0.6,0.3-1.1,0.3C1415.3,1562.6,1415.7,1562.5,1416,1562.4z"/>
							<path fill="#604222" d="M1415.5,1379.8c0.2,0.1,0.5,0.2,0.7,0.4c-3-1.6-6.6-2.1-10.4-0.9c-0.3,0.1-0.7,0.2-1,0.3
								c1.5-0.6,3-1,4.5-1.1c0.1,0,0.1,0,0.2,0c2.8,0,5,0.8,5.8,1.2C1415.4,1379.8,1415.5,1379.8,1415.5,1379.8z"/>
							<path fill="#54381E" d="M1415.4,1578.9c0.2,0,0.5-0.1,0.7-0.1c-2.1,0.3-3.8,1.2-4.8,0.8
								C1412.1,1579.8,1413.5,1579.1,1415.4,1578.9z"/>
							<path fill="#734E27" d="M1415.9,1562.4c0,0,0.1,0,0.1,0c-0.4,0.1-0.7,0.2-1.1,0.3C1414.7,1562.7,1414.8,1562.6,1415.9,1562.4
								z"/>
							<path fill="#54381E" d="M1408.5,1588.6c2.7,1.7,5.8,2.4,8.8,1.8C1414.3,1591,1411.2,1590.3,1408.5,1588.6z"/>
							<path fill="#54381E" d="M1415.5,1567c-0.3,0-0.6,0.1-0.9,0.2C1414.9,1567.1,1415.2,1567,1415.5,1567z"/>
							<path fill="#54381E" d="M1416.2,1568c-0.4,0.1-0.8,0.1-1.2,0.2C1415.3,1568.1,1415.8,1568,1416.2,1568z"/>
							<path fill="#734E27" d="M1415.9,1562.4c-1.1,0.3-1.2,0.3-0.9,0.3c-0.8,0.3-1.6,0.6-2.3,0.9c-0.5,0.3-1.1,0.5-1.6,0.8
								C1412.5,1563.5,1414,1562.5,1415.9,1562.4z"/>
							<path fill="#54381E" d="M1414,1589c0.5,0.1,1,0.2,1.5,0.2C1415,1589.2,1414.5,1589.1,1414,1589z"/>
							<path fill="#58719A" d="M1418.1,1592c-1.5,0.5-3,0.9-4.5,1.2C1415.1,1592.9,1416.6,1592.5,1418.1,1592z"/>
							<path fill="#54381E" d="M1414.5,1567.1c-0.3,0.1-0.6,0.1-0.9,0.2C1413.9,1567.3,1414.2,1567.2,1414.5,1567.1z"/>
							<path fill="#54381E" d="M1413.6,1567.4c-0.3,0.1-0.6,0.1-0.8,0.2C1413.1,1567.5,1413.3,1567.4,1413.6,1567.4z"/>
							<path fill="#58719A" d="M1412.2,1564.7c0.9-0.4,1.9-0.7,2.9-0.9c-3.4,1-6.3,3.5-9.6,4.2c-0.1,0-0.2,0-0.3,0
								c0.4-0.1,0.9-0.3,1.5-0.7C1408.5,1566.4,1410.3,1565.5,1412.2,1564.7z"/>
							<path fill="#54381E" d="M1412.4,1567.7c-0.2,0.1-0.4,0.1-0.5,0.2C1412,1567.8,1412.2,1567.7,1412.4,1567.7z"/>
							<path fill="#54381E" d="M1412.2,1574.4c-0.1,0-0.1,0.1-0.2,0.1C1412,1574.5,1412.1,1574.4,1412.2,1574.4z"/>
							<path fill="#54381E" d="M1412,1574.5c-0.1,0.1-0.1,0.1-0.2,0.2C1411.8,1574.6,1411.9,1574.6,1412,1574.5z"/>
							<path fill="#54381E" d="M1414,1589c-0.9-0.2-1.8-0.5-2.7-1c-0.1-0.1-0.3-0.1-0.4-0.2C1411.9,1588.3,1412.9,1588.7,1414,1589z
								"/>
							<path fill="#54381E" d="M1411.7,1567.9c-0.5,0.2-0.9,0.3-1.3,0.6C1410.8,1568.3,1411.3,1568.1,1411.7,1567.9z"/>
							<path fill="#54381E" d="M1411.7,1574.8c-0.1,0.1-0.2,0.2-0.2,0.2C1411.5,1574.9,1411.6,1574.8,1411.7,1574.8z"/>
							<path fill="#54381E" d="M1411.4,1575.1c-0.1,0.1-0.2,0.2-0.2,0.4C1411.2,1575.3,1411.3,1575.2,1411.4,1575.1z"/>
							<path fill="#54381E" d="M1411.2,1575.5c-0.1,0.1-0.2,0.3-0.2,0.4C1411,1575.7,1411.1,1575.6,1411.2,1575.5z"/>
							<path fill="#54381E" d="M1411.1,1593.7c-3.6,0.6-7.2,0.9-10.7,1.1c0.6,0,1.1-0.1,1.6-0.1
								C1405,1594.5,1408.1,1594.3,1411.1,1593.7z"/>
							<path fill="#54381E" d="M1411,1569.1c-0.2,0.1-0.3,0.2-0.5,0.2C1410.6,1569.2,1410.8,1569.1,1411,1569.1z"/>
							<path fill="#54381E" d="M1410.9,1576c0,0.1-0.1,0.3-0.1,0.4C1410.9,1576.2,1410.9,1576.1,1410.9,1576z"/>
							<path fill="#734E27" d="M1409.5,1378.6c2.1-0.1,4,0.3,5.8,1.2C1414.5,1379.4,1412.3,1378.5,1409.5,1378.6z"/>
							<path fill="#54381E" d="M1410.1,1587.3c0.2,0.1,0.5,0.3,0.7,0.4c-2-1.1-3.2-2.2-3.9-3.6
								C1407.6,1585.3,1408.6,1586.3,1410.1,1587.3z"/>
							<path fill="#54381E" d="M1410.7,1577.5c-0.1,1.3,0.2,1.8,0.6,2.1C1410.8,1579.4,1410.6,1578.9,1410.7,1577.5z"/>
							<path fill="#54381E" d="M1410.5,1569.3c-0.2,0.1-0.4,0.2-0.5,0.3C1410.1,1569.5,1410.3,1569.4,1410.5,1569.3z"/>
							<path fill="#54381E" d="M1410.4,1568.5c-0.3,0.1-0.6,0.3-0.9,0.4C1409.8,1568.8,1410.1,1568.6,1410.4,1568.5z"/>
							<path fill="#54381E" d="M1409.5,1568.9c-0.1,0.1-0.3,0.2-0.4,0.3C1409.2,1569.1,1409.4,1569,1409.5,1568.9z"/>
							<path fill="#54381E" d="M1409.1,1569.2c-0.1,0.1-0.3,0.2-0.4,0.3C1408.8,1569.3,1409,1569.2,1409.1,1569.2z"/>
							<path fill="#54381E" d="M1408.7,1569.4c-0.1,0.1-0.3,0.2-0.4,0.3C1408.4,1569.6,1408.6,1569.5,1408.7,1569.4z"/>
							<path fill="#54381E" d="M1406.4,1575.1c0.4-2.5,1.5-4.3,3.5-5.5C1407.8,1570.8,1406.8,1572.7,1406.4,1575.1z"/>
							<path fill="#54381E" d="M1408.1,1569.9c0,0-0.1,0.1-0.1,0.1C1408,1570,1408,1569.9,1408.1,1569.9z"/>
							<path fill="#54381E" d="M1408,1570c-0.1,0.1-0.2,0.2-0.4,0.3C1407.7,1570.2,1407.8,1570.1,1408,1570z"/>
							<path fill="#3D5270" d="M1410.8,1564.5c-1.2,0.8-2.4,1.5-3.8,1.7c-0.5,0.1-1,0.1-1.5,0
								C1407.3,1566.4,1409.1,1565.5,1410.8,1564.5z"/>
							<path fill="#54381E" d="M1407,1570.9c0.2-0.2,0.4-0.4,0.6-0.6C1407.4,1570.5,1407.2,1570.7,1407,1570.9z"/>
							<path fill="#54381E" d="M1406.8,1587.3c0.4,0.3,0.8,0.6,1.2,0.9C1407.5,1587.9,1407.1,1587.6,1406.8,1587.3z"/>
							<path fill="#54381E" d="M1406.3,1575.3c0,0.2-0.1,0.4-0.1,0.6c0,0,0,0.1,0,0.1c0,0,0,0,0,0
								C1406.3,1575.8,1406.3,1575.5,1406.3,1575.3z"/>
							<path fill="#54381E" d="M1406.2,1576.1C1406.2,1576.1,1406.3,1576,1406.2,1576.1c-0.1,0.7-0.1,1.3-0.2,1.9
								c0-0.4,0.1-0.8,0.1-1.3C1406.2,1576.5,1406.2,1576.3,1406.2,1576.1z"/>
							<path fill="#54381E" d="M1405.9,1572.5c0.2-0.4,0.5-0.8,0.8-1.2C1406.4,1571.7,1406.1,1572.1,1405.9,1572.5z"/>
							<path fill="#54381E" d="M1406,1578.3c-0.1,2.4,0,4.3,0.9,5.9C1406,1582.5,1405.9,1580.6,1406,1578.3z"/>
							<path fill="#604222" d="M1409.3,1378.6c-1.4,0.1-2.9,0.4-4.5,1.1c-0.1,0-0.1,0.1-0.2,0.1c-1.3,0.5-2.4,1.2-3.4,2
								C1403.9,1379.3,1406.8,1378.6,1409.3,1378.6z"/>
							<path fill="#3D5270" d="M1403.8,1567.8c0.5,0.2,1,0.3,1.5,0.3C1404.6,1568.3,1404.3,1568.2,1403.8,1567.8z"/>
							<path fill="#734E27" d="M1405.1,1575.9c0.4,1.4-0.1,3.4-0.1,4.9c0,2.2,0.2,3.7-1.1,5.2c1.3-1.9,0.9-5.7,0.9-8.5
								c0-0.5,0-0.9,0-1.3c0,0,0,0,0,0c1.6-1.6-14.8-7.1-16.1-7.5c2.9,0.7,5.7,1.5,8.5,2.6c0,0,0.1,0,0.1,0c0,0,0.1,0,0.1,0.1
								s0.1,0,0.1,0c0,0,0,0,0.1,0c0.1,0,0.1,0.1,0.2,0.1c0,0,0,0,0,0c0,0,0,0,0,0c0,0,0,0,0.1,0c0,0,0.1,0,0.1,0l0,0c0,0,0,0,0,0
								c1.6,0.7,4.2,1.3,5.8,2.5c0.1,0.1,0.2,0.2,0.3,0.3C1404.6,1574.9,1405,1575.4,1405.1,1575.9z"/>
							<path fill="#734E27" d="M1403,1575.5c-0.1,0-0.1-0.1-0.2-0.1C1402.9,1575.4,1402.9,1575.4,1403,1575.5z M1404.9,1576.2
								c0,0.4,0,0.8,0,1.3l-1,0c0-0.7-0.1-1.4-0.3-1.8c0,0-0.1,0-0.1-0.1c0,0,0,0,0,0c0,0-0.1,0-0.1,0c0,0,0,0,0,0c0,0,0,0-0.1,0
								c-0.1,0-0.1-0.1-0.2-0.1c0,0,0,0,0.1,0c-0.3-0.1-0.5-0.2-0.8-0.3c0,0,0,0-0.1,0c-0.1,0-0.3-0.1-0.5-0.1
								c-0.2,0-0.3-0.1-0.5-0.1c-0.1,0-0.2,0-0.3,0c0,0-0.1,0-0.1,0c-0.1,0-0.2,0-0.3,0c-0.4,0-0.8,0-1.2,0c-0.2,0-0.4,0-0.6,0.1
								c-0.2,0-0.4,0.1-0.6,0.1c-0.7,0.2-1.4,0.5-2,0.9c-0.1,0.1-0.2,0.2-0.3,0.3c-0.1,0.1-0.3,0.2-0.4,0.4c0,0-0.1,0.1-0.1,0.1
								c-0.1,0.1-0.1,0.1-0.2,0.2c-0.2,0.2-0.4,0.4-0.6,0.6c-0.2,0.2-0.3,0.4-0.5,0.6c-0.1,0.1-0.2,0.2-0.3,0.3
								c-0.5,0.6-1,1.3-1.2,1.9c-0.1,0.1-0.1,0.2-0.1,0.3c-0.1,0.2-0.1,0.4-0.1,0.5l-1.1-0.1c0-0.2,0.1-0.4,0.1-0.7c0,0,0-0.1,0-0.1
								c0-0.1,0.1-0.2,0.1-0.4c0.4-1.5,2-3.1,2.2-4.5c0-0.1,0-0.1,0-0.2c0-0.2-2.1,2.1-2.4,2.5c-0.1,0.2-0.2,0.3-0.3,0.5v0
								c0,0.1,0,0.1-0.1,0.1c-0.1,0.2-0.2,0.4-0.2,0.6l-1.2-0.1c0.1-0.6-0.5-1.1-1.2-1.5c-0.7-0.5-1.8-0.8-2.5-0.9
								c-1-0.1-2.3,0-3.4,0.3c0,0-0.1,0-0.1,0c-0.2,0.1-0.4,0.1-0.6,0.2l-0.2-0.5c0.1,0,0.2-0.1,0.3-0.1c0.7-0.3,2.8-2.9,2.8-2.9
								c-0.1,0-0.1,0-0.2,0.1c-0.5,0.2-1.1,0.9-1.6,1.3c0,0,0,0,0,0c-0.6,0.3-1.2,0.3-1.8,0.5c0,0,0,0,0,0c-0.4,0.1-0.8,0.1-1.2,0.3
								c-1,0.5-1.9,1.4-2.5,2.5l-1.5-0.1c0.1-0.5-0.2-1-1.5-1.3c-0.3-0.1-1.4,0-2.3,0.3l-0.2-0.6c0.1,0,0.2-0.1,0.3-0.1
								c0.1,0,0.1-0.1,0.2-0.1c0.1,0,0.2-0.1,0.3-0.1c0.7-0.3,2.1-2.1,2.5-2.8c0.1-0.1,0.1-0.1,0.1-0.2c0,0,0,0,0,0
								c-0.2,0-0.3,0.1-0.4,0.2c-0.6,0.4-1.1,1.3-1.7,1.6c0,0,0,0,0,0c-0.9,0.3-1.8-0.1-2.7,0.1c0,0,0,0,0,0c-0.3,0-0.7,0-1,0.2
								c-0.6,0.3-1.2,0.9-1.6,1.6l-1.7-0.1c0.3-0.4,0.4-1-0.2-1.6c-0.8-0.7-2.5-0.5-3.4,0.3l-0.3-0.4v0c0,0,0,0,0.1,0
								c0.5-0.3,0.9-0.7,1.3-1c0.9-0.9,1.5-1.9,2.3-2.9c0,0,0,0,0,0c0.2-0.2,0.3-0.3,0.4-0.5c0,0,0,0,0-0.1c0.1-0.1,0.2-0.3,0.3-0.4
								c0.1-0.1,0.3-0.3,0.4-0.5c0.7-0.8,1.5-1.6,2.3-2.2c1.9-1.3,3.9-0.8,6.3-0.5c0.3,0,0.5,0,0.7,0.1c1.9,0.2,3.7,0.4,5.6,0.7
								c0.3,0,0.6,0.1,0.9,0.1c0.9,0.2,1.9,0.3,2.8,0.5c0.6,0.1,1.1,0.2,1.6,0.3c0.6,0.1,1.2,0.2,1.7,0.4
								C1390.1,1569.1,1406.4,1574.6,1404.9,1576.2C1404.9,1576.2,1404.9,1576.2,1404.9,1576.2z"/>
							<path fill="#734E27" d="M1405.5,1566.2c-0.3,0-0.6-0.1-0.9-0.2c-3.9-1.4-7.5-3.6-11.6-4.7c-3.6-1-7.3-1.8-11-2.1
								c6.2,0.4,12.6,2.2,18.3,4.5C1402.3,1564.5,1403.7,1565.9,1405.5,1566.2z"/>
							<path fill="#58719A" d="M1404.9,1573c-0.2-0.2-0.4-0.3-0.6-0.4C1404.5,1572.7,1404.7,1572.9,1404.9,1573z"/>
							<path fill="#734E27" d="M1404.9,1577.5c0,2.8,0.4,6.6-0.9,8.5c-0.3,0.3-0.6,0.7-1.1,1c-3.4,2.6-7.6,2.2-10.4-1.1
								c-0.5-0.6-0.9-1.2-1.1-1.7c0,0,0,0,0,0c-0.1-0.3-0.2-0.6-0.3-0.9c-0.1-0.7-0.1-1.5,0-2.3l1.1,0.1c0,0,0,0,0,0
								c0.2-0.1,1.7-0.4,3-0.6c0.1,0,0.2,0,0.3,0c0.6-0.1,1.3-0.1,1.7-0.2c0,0,0,0,0.1,0c1.6,0.2,4.9,1.3,5.6,0.8c0,0,0.1,0,0.1-0.1
								c0.5-0.1,0.8-0.5,0.8-1.2c0-0.1,0-0.2,0-0.3c0.2-0.6,0.2-1.4,0.2-2.1L1404.9,1577.5z"/>
							<path fill="#54381E" d="M1404.6,1379.7c-0.2,0.1-0.5,0.2-0.7,0.3c-1.3,0.6-2.5,1.4-3.4,2.3c0.1-0.1,0.2-0.2,0.3-0.3
								c0.2-0.1,0.3-0.3,0.4-0.4C1402.2,1380.9,1403.3,1380.2,1404.6,1379.7z"/>
							<path fill="#54381E" d="M1404,1586c0,0,0,0.1-0.1,0.1c-1.5,2-4.8,3-7.1,2.5c-2.2-0.5-4.5-2.3-5.4-4.4
								c0.3,0.6,0.6,1.2,1.1,1.7c2.8,3.2,7,3.7,10.4,1.1C1403.3,1586.6,1403.7,1586.3,1404,1586z"/>
							<path fill="#54381E" d="M1403.9,1577.5c0,0.7-0.1,1.4-0.2,2.1c0-2.3,0.6-3.6-1.3-4.3c0.3,0.1,0.6,0.2,0.8,0.3
								c0,0,0.1,0,0.1,0c0,0,0,0,0.1,0c0,0,0,0,0,0c0,0,0.1,0,0.1,0c0,0,0,0,0,0c0,0,0.1,0,0.1,0.1
								C1403.8,1576.1,1403.9,1576.7,1403.9,1577.5z"/>
							<path fill="#49301C" d="M1402.3,1575.3c1.9,0.6,1.4,2,1.3,4.3c-0.2,0.7-0.4,1.2-0.8,1.5c-1.3,0.5-4-0.8-4.9-0.8
								c-0.1,0-0.4,0-0.8,0.1c0,0-0.1,0-0.1,0c-0.2,0-0.3,0-0.4,0c-0.1,0-0.6,0.1-1.3,0.2c-0.1,0-0.2,0-0.3,0c-1.5,0.2-3,0.4-3,0.6
								c0,0,0,0,0,0c0-0.2,0-0.3,0.1-0.5c0-0.1,0.1-0.2,0.1-0.3c0.3-0.6,0.7-1.3,1.2-1.9c0.1-0.1,0.2-0.2,0.3-0.3
								c0.2-0.2,0.3-0.4,0.5-0.6c0.2-0.2,0.4-0.4,0.6-0.6c0.1-0.1,0.2-0.2,0.3-0.3c0.2-0.1,0.3-0.3,0.4-0.4c0.7-0.5,1.5-0.9,2.3-1.1
								c0.2-0.1,0.4-0.1,0.6-0.1c0.2,0,0.4-0.1,0.6-0.1c0.4,0,0.8,0,1.2,0c0.1,0,0.2,0,0.3,0c0,0,0.1,0,0.1,0c0.3,0,0.6,0.1,0.9,0.1
								C1401.9,1575.2,1402.1,1575.2,1402.3,1575.3C1402.3,1575.2,1402.3,1575.3,1402.3,1575.3z M1402.3,1579.2
								C1402.3,1579.2,1402.3,1579.2,1402.3,1579.2c0.1-2.5-1.3-2.7-3.5-2.7c-2.6,0-3.8,0.9-5,3.1
								C1396.4,1578.6,1399.5,1578.2,1402.3,1579.2z"/>
							<path fill="#54381E" d="M1403.6,1579.5c0,0.1,0,0.2,0,0.3c0,0.7-0.3,1-0.8,1.2C1403.2,1580.7,1403.5,1580.2,1403.6,1579.5z"
								/>
							<path fill="#54381E" d="M1403.3,1575.6c0,0-0.1,0-0.1,0c0,0,0,0-0.1,0C1403.1,1575.5,1403.2,1575.5,1403.3,1575.6z"/>
							<path fill="#54381E" d="M1402.8,1575.4c0,0,0.1,0,0.2,0.1C1402.9,1575.4,1402.9,1575.4,1402.8,1575.4z"/>
							<path fill="#54381E" d="M1402.9,1581C1402.8,1581,1402.8,1581,1402.9,1581c-0.8,0.5-4.1-0.6-5.7-0.8c0.4,0,0.7-0.1,0.8-0.1
								C1398.8,1580.2,1401.5,1581.5,1402.9,1581z"/>
							<path fill="#58719A" d="M1404.3,1586.5c-1.6,1.8-3.7,3.5-6.2,3.9c-0.9,0.1-1.6,0.1-2.2-0.1c0.2,0,0.3,0.1,0.5,0.1
								C1399.6,1590.8,1402.3,1588.7,1404.3,1586.5z"/>
							<path fill="#58719A" d="M1402,1566.7c0.8,0.5,1.3,0.9,1.7,1.2c-2-0.7-4.5-2.7-6.3-3.4c-1.1-0.4-2.3-0.8-3.4-1.2
								C1396.8,1564.1,1399.5,1565.1,1402,1566.7z"/>
							<path fill="#B2987B" d="M1402.3,1579.2C1402.3,1579.2,1402.3,1579.2,1402.3,1579.2
								C1399.6,1578.3,1402.3,1578.7,1402.3,1579.2z"/>
							<path fill="#B2987B" d="M1398.8,1576.5c2.2,0,3.6,0.2,3.5,2.7c0-0.5-2.7-0.9,0,0c-2.8-1-5.9-0.6-8.6,0.4
								C1394.9,1577.3,1396.1,1576.4,1398.8,1576.5z"/>
							<path fill="#54381E" d="M1402.2,1575.2c-0.2,0-0.3-0.1-0.5-0.1C1401.9,1575.2,1402.1,1575.2,1402.2,1575.2z"/>
							<path fill="#3D5270" d="M1388.3,1600.4c7.6,0.5,15.7,1,23.4-0.3c-11.1,2.1-23.9,1.1-34.6-0.9
								C1380.8,1599.8,1384.6,1600.1,1388.3,1600.4z"/>
							<path fill="#54381E" d="M1401.2,1575c0.2,0,0.4,0.1,0.5,0.1c-0.3-0.1-0.6-0.1-0.9-0.1C1401,1575,1401.1,1575,1401.2,1575z"/>
							<path fill="#58719A" d="M1404.3,1572.6c-2.8-2-6.8-3.2-9.8-4.2c-1.3-0.4-2.7-0.8-4-1.1
								C1394.9,1568.3,1400.6,1569.8,1404.3,1572.6z"/>
							<path fill="#54381E" d="M1400.8,1382c-0.1,0.1-0.2,0.2-0.3,0.3c-0.1,0.1-0.2,0.2-0.3,0.3c0,0,0,0,0,0c0,0,0,0-0.1,0
								C1400.4,1382.4,1400.6,1382.2,1400.8,1382z"/>
							<path fill="#54381E" d="M1400.8,1575c-0.1,0-0.2,0-0.3,0C1400.5,1574.9,1400.6,1575,1400.8,1575z"/>
							<path fill="#734E27" d="M1400.5,1382.4c-0.1,0.1-0.2,0.2-0.3,0.3C1400.3,1382.5,1400.4,1382.4,1400.5,1382.4z"/>
							<path fill="#604222" d="M1400.1,1382.6C1400.2,1382.6,1400.2,1382.6,1400.1,1382.6c-2.9,2.8-4.5,6.9-5.3,11
								c-0.7,3.3-1.1,6.6-1.4,10C1393.9,1396.4,1395,1387.7,1400.1,1382.6C1400.1,1382.6,1400.1,1382.6,1400.1,1382.6z"/>
							<path fill="#54381E" d="M1399.2,1575c-0.2,0-0.4,0-0.6,0.1C1398.8,1575,1399,1575,1399.2,1575z"/>
							<path fill="#54381E" d="M1398.6,1575c-0.2,0-0.4,0.1-0.6,0.1C1398.2,1575.1,1398.4,1575.1,1398.6,1575z"/>
							<path fill="#58719A" d="M1365,1588.1c10.4,5.7,23.6,7.2,35.2,6.8C1388.5,1595.4,1374.9,1594.5,1365,1588.1z"/>
							<path fill="#54381E" d="M1398.1,1571.7C1398.1,1571.7,1398,1571.7,1398.1,1571.7C1398,1571.7,1398,1571.7,1398.1,1571.7z"/>
							<path fill="#734E27" d="M1397.6,1571.5c0,0-0.1,0-0.1,0s-0.1,0-0.1-0.1C1397.4,1571.4,1397.5,1571.5,1397.6,1571.5z"/>
							<path fill="#54381E" d="M1397.5,1571.4c0,0-0.1,0-0.1-0.1h0C1397.4,1571.4,1397.4,1571.4,1397.5,1571.4z"/>
							<path fill="#604222" d="M1396.8,1386.6c1.5-3.1,3-3.9,3.4-4c-5.1,5-6.2,13.7-6.7,21.1c-0.1,1.3-0.2,2.7-0.3,4
								C1393.4,1396.3,1395.1,1390,1396.8,1386.6z"/>
							<path fill="#54381E" d="M1396.7,1580.2c0.1,0,0.3,0,0.4,0c-0.5,0.1-1.1,0.1-1.7,0.2
								C1396.1,1580.3,1396.6,1580.2,1396.7,1580.2z"/>
							<path fill="#49301C" d="M1388.6,1541.5c-0.7,2.1-1,4.3-1.1,6.5c0,0.2,0,0.5-0.1,0.7c1.5-3.4,2.1-7.1,2.5-10.8
								c0-0.1,0-0.3,0.1-0.5c0,0.1-0.1,0.2-0.1,0.3c-0.4,1.1-0.7,2.2-1.1,3.3c0,0,0,0,0,0.1c0,0.1-0.1,0.1-0.1,0.2
								C1388.6,1541.4,1388.6,1541.4,1388.6,1541.5z M1396.6,1386.5l0.2,0.1c-1.7,3.4-3.4,9.7-3.6,21.1c-0.2,3.5-0.3,7.1-0.2,10.6
								c0,1.9,0.1,3.9,0.2,5.8v3.4c0,0,0,0,0,0c0,0.6-0.1,1.2-0.1,1.8c0,0,0,0,0,0.1c-0.4,4-1.3,8-1.9,11.9
								c-0.2,1.4-0.4,2.8-0.5,4.2c-0.1,0.5-0.1,1-0.2,1.5c-0.1,0.6-0.1,1.2-0.2,1.8c0,0.3-0.1,0.6-0.1,1c0,0.7-0.1,1.4-0.2,2.1
								c0,0.6-0.1,1.2-0.1,1.8c-0.5,8.2-0.5,16.5-0.3,24.8c0,0.3,0,0.6,0,0.9c0.3,11.9,0.9,23.7,1.5,35.6c0.1,1.6,0.2,3.2,0.2,4.8
								c0,0.1,0,0.1,0,0.1c0.1,3.2,0.1,6.3,0.1,9.5c-0.1,8.1-0.9,16.1-4.9,22.8c-0.2,0.3-0.3,0.6-0.5,0.9c-0.2,0.3-0.3,0.5-0.5,0.8
								c-0.1,0.2-0.3,0.4-0.4,0.5c-0.3,0.4-0.6,0.8-0.9,1.1c-0.2,0.3-0.5,0.5-0.7,0.8c-0.9,1.1-2,2.1-3.2,3c-0.6,0-1.3-0.1-1.9-0.1
								c0.6-0.1,1.2-0.3,2-0.8c1.4-1,2.6-2.5,3.6-3.8c2.5-3.2,1.9-5.8,2.9-9.5c1-4,2.5-7.8,3.1-11.9c0.6-3.9,0.2-8.2,0.1-12.2
								c-0.4-8.8-1.1-17.6-1.4-26.3c-0.6-15.6-1.1-31.1,0.3-46.7c0.6-7.2,3.1-14.4,2.8-21.6c-0.3-7.3-0.3-14.5,0.5-21.8
								C1392.8,1398.8,1393.9,1392,1396.6,1386.5z"/>
							<path fill="#54381E" d="M1396,1576c0.6-0.4,1.3-0.7,2-0.9c-0.8,0.2-1.6,0.6-2.3,1.1C1395.8,1576.2,1395.9,1576.1,1396,1576z"
								/>
							<path fill="#734E27" d="M1396,1570.8c0.1,0,0.1,0.1,0.2,0.1C1396.2,1570.9,1396.1,1570.9,1396,1570.8z"/>
							<path fill="#54381E" d="M1395.2,1576.6c-0.1,0.1-0.2,0.2-0.3,0.3C1395,1576.8,1395.1,1576.8,1395.2,1576.6
								C1395.1,1576.7,1395.2,1576.7,1395.2,1576.6z"/>
							<path fill="#54381E" d="M1394.9,1576.9c-0.2,0.2-0.4,0.4-0.6,0.6C1394.5,1577.3,1394.7,1577.1,1394.9,1576.9z"/>
							<path fill="#54381E" d="M1395.1,1580.5c-1.3,0.2-2.8,0.5-3,0.6C1392.2,1580.9,1393.7,1580.7,1395.1,1580.5z"/>
							<path fill="#54381E" d="M1393.8,1578.1c-0.1,0.1-0.2,0.2-0.3,0.3C1393.6,1578.3,1393.7,1578.2,1393.8,1578.1z"/>
							<path fill="#54381E" d="M1393.6,1578.4c-0.5,0.6-1,1.3-1.2,1.9C1392.6,1579.7,1393,1579.1,1393.6,1578.4z"/>
							<path fill="#734E27" d="M1391.2,1577.6c0.2-0.4,2.4-2.7,2.4-2.5c0,0-2.3,2.3-2.6,3C1391,1578,1391.1,1577.8,1391.2,1577.6z"
								/>
							<path fill="#54381E" d="M1395.7,1590.2c-2.4-0.7-3.7-2.9-5.8-3.2c-2.9-0.4-5.2,2.6-8.5,1.4c-0.8-0.3-1.3-0.7-1.8-1.3
								c3.1,2.7,5.6,0.4,8.2-0.4c1-0.3,2-0.4,3,0.1C1392.8,1587.9,1393.8,1589.6,1395.7,1590.2z"/>
							<path fill="#604222" d="M1393.4,1403.7c-0.1,1.2-0.2,2.3-0.2,3.4c-0.1,0.8-0.1,1.6-0.1,2.3v-0.3c0-0.5,0-1,0-1.5
								C1393.2,1406.4,1393.3,1405,1393.4,1403.7z"/>
							<path fill="#604222" d="M1393.2,1425.3c0,0.7,0,1.4,0,2.2c0,0,0,0,0,0c0-0.2,0-0.4,0-0.7
								C1393.2,1426.3,1393.2,1425.8,1393.2,1425.3z"/>
							<path fill="#604222" d="M1393.1,1420.7c0,1.5,0,3,0,4.5c0-0.4,0-0.8,0-1.2V1420.7z"/>
							<path fill="#604222" d="M1393.2,1425.3C1393.2,1425.3,1393.2,1425.3,1393.2,1425.3c0,0.6,0,1.1,0,1.6c0,0.2,0,0.4,0,0.7
								c0,0,0,0,0,0v-3.4C1393.1,1424.5,1393.1,1424.9,1393.2,1425.3z"/>
							<path fill="#734E27" d="M1393.1,1407.7c0,0.5,0,1,0,1.5v0.3c-0.1,3.8-0.1,7.5,0,11.3v3.3c-0.1-1.9-0.2-3.9-0.2-5.8
								C1392.9,1414.8,1392.9,1411.3,1393.1,1407.7z"/>
							<path fill="#54381E" d="M1393.1,1427.5c0,0.5,0,1.1-0.1,1.6c0,0.1,0,0.1,0,0.2C1393.1,1428.7,1393.1,1428.1,1393.1,1427.5
								C1393.1,1427.5,1393.1,1427.5,1393.1,1427.5z"/>
							<path fill="#734E27" d="M1393.1,1409.5v11.3C1393.1,1417,1393,1413.2,1393.1,1409.5z"/>
							<path fill="#54381E" d="M1391.6,1578.7c0.3-1,1.7-2.4,1.9-3.4c-0.2,1.4-1.8,3-2.2,4.5c0,0.1-0.1,0.3-0.1,0.4
								C1391.3,1579.7,1391.4,1579.2,1391.6,1578.7z"/>
							<path fill="#3D5270" d="M1393.9,1563.3c-4.7-1.3-9.7-1.8-14.4-2.4c-2.8-0.4-5.2-0.2-7.5,1c1.7-0.9,3.5-1.4,5.8-1.2
								C1383.1,1561,1388.8,1561.7,1393.9,1563.3z"/>
							<path fill="#54381E" d="M1392.3,1580.3c0,0.1-0.1,0.2-0.1,0.3C1392.3,1580.5,1392.3,1580.4,1392.3,1580.3z"/>
							<path fill="#734E27" d="M1393,1429.4c-0.4,5.4-1.8,10.7-2.4,16.1c0.2-1.4,0.3-2.8,0.5-4.2
								C1391.7,1437.3,1392.7,1433.4,1393,1429.4z"/>
							<path fill="#54381E" d="M1391.4,1529.2c0.1-3.2,0-6.3-0.1-9.5c0.5,11,0.7,23-4.8,32.2
								C1390.5,1545.3,1391.3,1537.3,1391.4,1529.2z"/>
							<path fill="#734E27" d="M1391.1,1583.2c0.1,0.3,0.2,0.6,0.3,0.9c-0.5-1.1-0.6-2.3-0.2-3.8c0,0.2-0.1,0.4-0.1,0.7
								C1390.9,1581.8,1390.9,1582.5,1391.1,1583.2z"/>
							<path fill="#734E27" d="M1391.3,1519.6c-0.1-1.6-0.2-3.3-0.2-4.8c-0.6-11.8-1.2-23.7-1.5-35.6c0.1,3,0.2,6,0.3,8.9
								C1390.3,1498.6,1391.1,1509.1,1391.3,1519.6z"/>
							<path fill="#734E27" d="M1390.6,1578.9c0.1-0.2,0.2-0.4,0.2-0.6c-0.4,1-0.4,1.9-0.6,2.9c-0.1,0.6-0.3,3.6-0.5,4
								c-0.4,0.7-1.2,1.1-2.1,1.4c-1,0.3-2.2,0.3-3.3,0.3c2.3,0.1,4.8-0.6,5.3-2.3C1390.3,1582.6,1390,1580.8,1390.6,1578.9z"/>
							<path fill="#734E27" d="M1389.2,1579.4c0.1-0.2,0.2-0.3,0.2-0.5l1.2,0.1c-0.6,1.9-0.3,3.7-0.9,5.5c-0.5,1.7-3,2.4-5.3,2.3
								c0,0-0.1,0-0.1,0c-1.3-0.1-2.5-0.4-3.3-0.8c0,0-0.1,0-0.1-0.1c-0.1,0-0.2-0.1-0.3-0.2c-0.2-0.1-0.4-0.3-0.6-0.5
								c-0.3-0.3-0.6-0.6-0.8-0.9c-0.1-0.1-0.2-0.2-0.3-0.4c-0.3-0.5-0.6-1.1-0.9-1.6c-0.4-1.1-0.7-2.2-0.5-3.2
								c0-0.3,0.1-0.5,0.2-0.7c0,0,0,0,0-0.1c0.2-0.5,0.4-0.7,0.7-0.9c0,0,0.1,0,0.1-0.1c0.6-0.3,1.5-0.3,2.6-0.7c0,0,0,0,0.1,0
								c0,0,0,0,0,0l0.2,0.5v0c-0.2,0.1-0.4,0.2-0.6,0.3c-0.3,0.2-1,1.5-1,1.5c0.2-0.1,0.3-0.1,0.5-0.2c0.2-0.1,0.3-0.1,0.5-0.2
								c0.1-0.1,0.3-0.1,0.4-0.1c0.2-0.1,0.3-0.1,0.4-0.1c1.4-0.3,2.8-0.4,4,0.2c0.8,0.4,1.5,1.5,2.1,1.8c0.4,0.2,0.8,0.1,1.2-0.5
								c0,0,0,0,0,0c0,0,0,0,0,0l0,0l0,0l0,0L1389.2,1579.4L1389.2,1579.4z"/>
							<path fill="#734E27" d="M1390.4,1446.9c-0.1,0.6-0.1,1.2-0.2,1.8C1390.3,1448.1,1390.4,1447.5,1390.4,1446.9z"/>
							<path fill="#734E27" d="M1390.2,1449.7c0,0.7-0.1,1.4-0.2,2.1C1390.1,1451.1,1390.1,1450.4,1390.2,1449.7z"/>
							<path fill="#734E27" d="M1389.9,1537.4c0,0.2,0,0.3-0.1,0.5C1389.8,1538.9,1389.6,1538.6,1389.9,1537.4z"/>
							<path fill="#734E27" d="M1389.8,1537.8c0-0.1,0.1-0.2,0.1-0.3c-0.4,1.1-0.2,1.4-0.1,0.5c-0.3,3.7-0.9,7.4-2.5,10.8
								c0-0.3,0-0.5,0.1-0.7C1387.8,1544.4,1388.7,1541.2,1389.8,1537.8z"/>
							<path fill="#54381E" d="M1389.9,1453.6c-0.2,3.9-0.3,7.9-0.4,11.8c-0.1,4.3,0,8.6,0.1,12.9
								C1389.4,1470.1,1389.4,1461.8,1389.9,1453.6z"/>
							<path fill="#54381E" d="M1388.1,1580c0.4-0.3,1.2-0.9,0.7-1.9c-0.2-0.3-0.4-0.5-0.6-0.7c0.8,0.4,1.3,0.9,1.2,1.5
								c0,0.2-0.1,0.3-0.2,0.5l0,0c0,0,0,0.1-0.1,0.1c0,0,0,0,0,0l0,0c0,0,0,0,0,0.1c0,0,0,0,0,0c-0.4,0.7-0.8,0.7-1.2,0.5
								C1387.9,1580.1,1387.9,1580.1,1388.1,1580L1388.1,1580z"/>
							<path fill="#54381E" d="M1388.7,1541c0.4-1.1,0.8-2.2,1.1-3.3c-1.1,3.4-2.1,6.6-2.3,10.2c0.1-2.2,0.4-4.4,1.1-6.5
								c0-0.1,0-0.1,0-0.2C1388.7,1541.2,1388.7,1541.2,1388.7,1541C1388.7,1541.1,1388.7,1541,1388.7,1541z"/>
							<path fill="#734E27" d="M1389.2,1579.4L1389.2,1579.4L1389.2,1579.4C1389.1,1579.4,1389.1,1579.4,1389.2,1579.4z"/>
							<path fill="#54381E" d="M1389.1,1579.5L1389.1,1579.5C1389.1,1579.5,1389.1,1579.5,1389.1,1579.5L1389.1,1579.5z"/>
							<path fill="#734E27" d="M1389.1,1579.5L1389.1,1579.5C1389.1,1579.5,1389.1,1579.6,1389.1,1579.5
								C1389.1,1579.6,1389.1,1579.5,1389.1,1579.5z"/>
							<path fill="#58719A" d="M1388.9,1567c-0.5-0.1-1-0.2-1.5-0.3C1387.9,1566.7,1388.4,1566.8,1388.9,1567z"/>
							<path fill="#49301C" d="M1388.7,1578.1c0.5,0.9-0.3,1.6-0.7,1.9c-0.1-0.2-0.2-0.3-0.3-0.5c0,0,0-0.1-0.1-0.1
								c-0.3-0.5-0.6-1-0.4-0.4c-1.4-1.4-3.6-1.3-5.6-0.8c-0.2,0-0.3,0.1-0.4,0.1c-0.1,0-0.3,0.1-0.4,0.1c-0.2,0-0.3,0.1-0.5,0.2
								c-0.2,0.1-0.3,0.1-0.5,0.2c0.1,0,0.9-1.4,1.4-1.6c0.2-0.1,0.5-0.2,0.7-0.3c0,0,0.1,0,0.1,0c0.7-0.2,1.4-0.3,2-0.3
								c0.6,0,2.6,0.2,4,0.9C1388.4,1577.6,1388.6,1577.8,1388.7,1578.1z"/>
							<path fill="#54381E" d="M1388.7,1541C1388.7,1541,1388.7,1541.1,1388.7,1541C1388.7,1541,1388.7,1541,1388.7,1541z"/>
							<path fill="#54381E" d="M1388.1,1580L1388.1,1580c-0.1-0.1-0.2-0.3-0.3-0.5C1387.9,1579.6,1388,1579.8,1388.1,1580z"/>
							<path fill="#54381E" d="M1388.1,1580c-0.1,0.1-0.2,0.1-0.2,0.1c-0.3-0.6-0.4-0.9-0.5-1.1c0.1,0.1,0.3,0.3,0.4,0.4
								c0,0,0,0.1,0.1,0.1C1387.9,1579.7,1388,1579.9,1388.1,1580z"/>
							<path fill="#49301C" d="M1387.7,1586.5l0.1,0.2c-2.6,0.8-5.1,3-8.2,0.4c0,0,0,0,0,0c-0.7-0.8-1.2-1.6-1.9-2.1
								c-0.4-0.4-0.8-0.5-1.6-0.3c0,0,0,0-0.1,0c-0.1,0-0.3,0.1-0.4,0.1c-3.6,1.1-4.3,2-7.6-0.4c0,0,0,0,0,0
								c-0.1-0.1-0.1-0.1-0.2-0.2c-0.4-0.4-0.8-0.9-1.2-1c-1.3-0.3-2.8,0.4-4.3,0.4c0,0,0,0,0,0c-1.8-0.2-3.5-1.1-3.9-3.1
								c-0.1-0.6-0.1-1.1,0.1-1.7c0,0,0,0,0,0c1-2.1,3.6-4.4,5-6c0,0,0.1-0.1,0.1-0.1c0.1-0.1,0.2-0.2,0.2-0.3
								c0.1-0.1,0.1-0.2,0.2-0.2c0,0,0,0,0,0c0.8-0.8,1.6-1.5,2.4-2.2c-0.1,0.2-0.2,0.3-0.3,0.4c-0.1,0.1-0.2,0.2-0.2,0.3
								c-1.2,1.5-2.2,2.8-3.7,4.1c0,0-0.1,0.1-0.1,0.1c0,0,0,0-0.1,0c-0.9,0.6-1.8,1.3-2.2,2.3c-0.2,0.4-0.3,0.9-0.3,1.3
								c0,0,0,0.1,0,0.1c-0.1,0.8,0.2,1.6,1,2.4c1.1,1.1,3.1,1.5,4.5,1.1c0,0,0,0,0.1,0c0.8-0.2,1.1-0.4,1.2-0.7c0,0,0,0,0,0
								c0.1-0.1,0.1-0.1,0.1-0.2c0.5-0.8,0.2-2.8,0.9-3.9c0.7-1.2,1.4-1.9,2.7-2.2c0.1,0,0.1,0,0.2,0c0,0,0,0,0,0
								c0.9,0,1.8,0.3,2.7-0.1c0,0,0,0,0,0c0.1,0,0.2-0.1,0.4-0.1c0.5-0.2,0.8-1.1,1.3-1.5c0.1-0.1,0.3-0.2,0.4-0.2c0,0,0,0,0,0
								c0,0-0.1,0.1-0.1,0.2c-0.5,0.6-2,2.4-2.8,2.9c-1.3,0.4-3.1,0-3.8,0.8c-0.9,0.9-0.9,2.1-0.5,3.3c0,0,0,0,0,0
								c0.5,1.8,2.1,3.5,3.5,4c0.4,0.1,0.9,0.2,1.4,0.2c1,0,2.2-0.3,2.8-0.8c1.5-1.2,0.4-3.1,1.3-5.1c0.7-1.6,1.7-2.3,3.2-3
								c0.2-0.1,0.5-0.2,0.7-0.2c0,0,0,0,0,0c0.5-0.1,1.1-0.1,1.6-0.4c0.1,0,0.2-0.1,0.3-0.1c0,0,0,0,0,0c0.1,0,0.2-0.1,0.3-0.1
								c0.4-0.2,0.8-0.9,1.3-1.1c0.1,0,0.1-0.1,0.2-0.1c-0.2,0.1-2.1,2.5-3.1,3c0,0,0,0,0,0c-1,0.4-2,0.3-2.6,0.8c0,0-0.1,0-0.1,0.1
								c-0.3,0.2-0.6,0.5-0.7,0.9c0,0,0,0,0,0.1c0,0.1-0.1,0.2-0.1,0.3c-0.3,1.1-0.1,2.4,0.4,3.7c0.2,0.6,0.5,1.1,0.9,1.6
								c0.1,0.1,0.2,0.2,0.3,0.4c0.3,0.3,0.5,0.7,0.8,0.9c0.2,0.2,0.4,0.3,0.6,0.5c0.1,0.1,0.2,0.1,0.3,0.2c0,0,0.1,0,0.1,0.1
								c0.9,0.5,2.1,0.8,3.3,0.8c0,0,0.1,0,0.1,0C1385.5,1586.9,1386.7,1586.8,1387.7,1586.5z"/>
							<path fill="#54381E" d="M1385.6,1576.5c0.8,0.1,1.8,0.4,2.5,0.9c-1.4-0.7-3.4-0.9-4-0.9c-0.6,0-1.3,0.1-2,0.3
								C1383.3,1576.5,1384.6,1576.3,1385.6,1576.5z"/>
							<path fill="#54381E" d="M1387.4,1579c0.1,0.2,0.2,0.6,0.5,1.1c-0.6-0.3-1.2-1.4-2.1-1.8c-1.2-0.6-2.7-0.5-4-0.2
								C1383.8,1577.7,1386,1577.6,1387.4,1579L1387.4,1579z"/>
							<path fill="#54381E" d="M1387.7,1579.4c-0.1-0.2-0.3-0.3-0.4-0.4v0C1387.1,1578.4,1387.5,1578.9,1387.7,1579.4z"/>
							<path fill="#58719A" d="M1387.4,1566.6c-0.5-0.1-1.1-0.2-1.6-0.3C1386.3,1566.4,1386.9,1566.5,1387.4,1566.6z"/>
							<path fill="#734E27" d="M1387.1,1568.3c-0.5-0.1-1.1-0.2-1.6-0.3C1386,1568.1,1386.5,1568.2,1387.1,1568.3z"/>
							<path fill="#54381E" d="M1386,1552.8c0.2-0.3,0.4-0.6,0.5-0.9C1386.4,1552.3,1386.2,1552.6,1386,1552.8z"/>
							<path fill="#58719A" d="M1385.6,1566.3c-0.6-0.1-1.2-0.2-1.8-0.3C1384.4,1566.1,1385,1566.2,1385.6,1566.3z"/>
							<path fill="#734E27" d="M1385.1,1554.1c0.1-0.2,0.3-0.4,0.4-0.5C1385.4,1553.8,1385.3,1554,1385.1,1554.1z"/>
							<path fill="#734E27" d="M1383.6,1556.1c0.2-0.3,0.5-0.5,0.7-0.8C1384,1555.5,1383.8,1555.8,1383.6,1556.1z"/>
							<path fill="#54381E" d="M1382.6,1574.9c0.5-0.4,1.1-1,1.6-1.3c-0.5,0.3-0.9,0.9-1.3,1.1
								C1382.8,1574.8,1382.7,1574.8,1382.6,1574.9z"/>
							<path fill="#54381E" d="M1384.4,1573.5c0,0-2.1,2.6-2.8,2.9c-0.1,0.1-0.2,0.1-0.3,0.1
								C1382.3,1576,1384.2,1573.6,1384.4,1573.5z"/>
							<path fill="#734E27" d="M1382.6,1574.9c-0.1,0.1-0.2,0.1-0.3,0.1c-0.5,0.2-1,0.3-1.6,0.4
								C1381.4,1575.2,1382,1575.1,1382.6,1574.9z"/>
							<path fill="#54381E" d="M1382.6,1567.5c-0.3-0.1-0.6-0.1-0.9-0.1C1382,1567.4,1382.3,1567.5,1382.6,1567.5z"/>
							<path fill="#734E27" d="M1382,1559.2c-0.4,0-0.9-0.1-1.3-0.1C1381.1,1559.1,1381.5,1559.1,1382,1559.2z"/>
							<path fill="#54381E" d="M1381.8,1578.2c-0.2,0-0.3,0.1-0.4,0.1C1381.5,1578.3,1381.6,1578.2,1381.8,1578.2z"/>
							<path fill="#54381E" d="M1382.1,1576.8c-0.3,0.1-0.5,0.2-0.7,0.3c-0.5,0.3-1.3,1.6-1.4,1.6c0,0,0.7-1.3,1-1.5
								c0.2-0.1,0.4-0.2,0.6-0.3v0C1381.7,1577,1381.9,1576.9,1382.1,1576.8z"/>
							<path fill="#734E27" d="M1381.2,1576.6C1381.2,1576.6,1381.2,1576.6,1381.2,1576.6c-1.1,0.4-2,0.4-2.6,0.8
								C1379.3,1576.9,1380.2,1577,1381.2,1576.6z"/>
							<path fill="#3D5270" d="M1378.8,1594.8c3.5,0.7,7.1,1.2,10.8,1.5c-4.5-0.3-8.7-0.9-12.1-1.8
								C1378,1594.7,1378.4,1594.7,1378.8,1594.8z"/>
							<path fill="#54381E" d="M1381,1586c0.8,0.4,2,0.7,3.3,0.8C1383,1586.7,1381.8,1586.5,1381,1586z"/>
							<path fill="#54381E" d="M1380.9,1578.4c-0.2,0-0.3,0.1-0.5,0.2C1380.6,1578.6,1380.8,1578.5,1380.9,1578.4z"/>
							<path fill="#734E27" d="M1380.6,1585.7c0.1,0.1,0.2,0.1,0.3,0.2C1380.8,1585.8,1380.7,1585.8,1380.6,1585.7z"/>
							<path fill="#54381E" d="M1380.7,1575.4c-0.2,0.1-0.5,0.1-0.7,0.2c-1.5,0.7-2.5,1.4-3.2,3c-0.9,2,0.2,3.9-1.3,5.1
								c-0.7,0.5-1.8,0.8-2.8,0.8c0.8,0,1.7-0.2,2.3-0.6c2.2-1.2,0.7-2.5,1.5-4.7c0.1-0.4,0.3-0.7,0.5-1.1c0.6-1.1,1.5-2,2.5-2.5
								C1379.9,1575.5,1380.3,1575.5,1380.7,1575.4z"/>
							<path fill="#734E27" d="M1380.6,1585.7c-0.2-0.1-0.4-0.3-0.6-0.5C1380.2,1585.4,1380.4,1585.6,1380.6,1585.7z"/>
							<path fill="#3D5270" d="M1380.1,1565.5c-0.2,0-0.5-0.1-0.7-0.1c-2.2-0.3-5.1-1-7.3-0.6c-1.4,0.3-3.3,1.6-4.8,3
								c1-1,2.1-2,3.3-2.6C1373.1,1564,1377.4,1565.2,1380.1,1565.5z"/>
							<path fill="#58719A" d="M1379.5,1587.1c-0.1-0.1-0.2-0.2-0.3-0.2c-0.8-0.8-1.2-1.5-1.7-1.9
								C1378.3,1585.5,1378.8,1586.3,1379.5,1587.1z"/>
							<path fill="#54381E" d="M1378.9,1584c0.1,0.1,0.2,0.2,0.3,0.4C1379.1,1584.2,1379,1584.1,1378.9,1584z"/>
							<path fill="#54381E" d="M1378.5,1577.4c-0.3,0.2-0.5,0.5-0.7,0.9C1377.9,1577.9,1378.2,1577.6,1378.5,1577.4z"/>
							<path fill="#734E27" d="M1377.6,1578.7c0-0.1,0.1-0.2,0.1-0.3c-0.1,0.2-0.1,0.4-0.2,0.7c-0.2,1,0.1,2.2,0.5,3.2
								C1377.5,1581.1,1377.3,1579.8,1377.6,1578.7z"/>
							<path fill="#734E27" d="M1374.4,1579.4c0,0,1-0.6,1.1-1.3l1.5,0.1c-0.2,0.4-0.4,0.7-0.5,1.1c-0.7,2.2,0.7,3.5-1.5,4.7
								c-0.7,0.4-1.5,0.6-2.3,0.6c-0.5,0-1-0.1-1.4-0.2c-1.3-0.4-2.9-2.2-3.5-4c0,0,0,0,0,0c-0.3-1-0.3-2,0.2-2.8
								c0.9-1.5,2-0.8,3.6-1.1l0.2,0.6c-1.1,0.3-2.2,0.9-1.7,1.6C1370.2,1578.7,1373.4,1578.1,1374.4,1579.4z"/>
							<path fill="#58719A" d="M1375.7,1598.8c0.4,0.1,0.9,0.2,1.3,0.3c-4.4-0.8-8.7-2-12.6-4
								C1368,1596.9,1372.1,1598.1,1375.7,1598.8z"/>
							<path fill="#54381E" d="M1376,1584.7c0.8-0.2,1.2-0.1,1.6,0.3C1377.2,1584.7,1376.7,1584.6,1376,1584.7z"/>
							<path fill="#734E27" d="M1376.1,1566.8c-0.3,0-0.5,0-0.7-0.1c-2.4-0.2-4.4-0.8-6.3,0.5c-0.8,0.6-1.6,1.4-2.3,2.2
								c1-1.2,2.3-2.7,3.5-3.1C1371.6,1565.8,1374.6,1566.6,1376.1,1566.8z"/>
							<path fill="#58719A" d="M1375.5,1584.8c0.2-0.1,0.3-0.1,0.4-0.1c-0.3,0.1-0.6,0.2-0.9,0.3c-2.8,1.2-4.2,1.8-6.7-0.3
								c-0.2-0.1-0.3-0.3-0.4-0.4C1371.2,1586.8,1371.9,1585.9,1375.5,1584.8z"/>
							<path fill="#49301C" d="M1374.4,1579.4c-1-1.3-4.2-0.7-4.3-0.8c-0.5-0.7,0.5-1.2,1.7-1.6c0.9-0.3,2-0.4,2.3-0.3
								c1.2,0.4,1.5,0.9,1.5,1.3C1375.4,1578.8,1374.4,1579.4,1374.4,1579.4z"/>
							<path fill="#734E27" d="M1374.9,1573.3c0-0.1,0.1-0.1,0.1-0.2C1375,1573.2,1374.9,1573.2,1374.9,1573.3z"/>
							<path fill="#734E27" d="M1374.6,1573.3c-0.5,0.4-0.8,1.2-1.3,1.5c-0.1,0.1-0.2,0.1-0.4,0.1
								C1373.5,1574.6,1374,1573.7,1374.6,1573.3z"/>
							<path fill="#54381E" d="M1374.9,1573.3c-0.5,0.6-1.9,2.5-2.5,2.8c-0.1,0-0.2,0.1-0.3,0.1
								C1372.8,1575.7,1374.4,1573.9,1374.9,1573.3z"/>
							<path fill="#54381E" d="M1370.2,1575c0.9-0.2,1.8,0.2,2.7-0.1C1372,1575.2,1371.1,1575,1370.2,1575z"/>
							<path fill="#734E27" d="M1372.1,1576.2c-0.1,0-0.2,0.1-0.2,0.1c-0.1,0-0.2,0.1-0.3,0.1c-1.5,0.4-2.7-0.3-3.6,1.1
								c-0.5,0.8-0.5,1.8-0.2,2.8c-0.4-1.2-0.3-2.4,0.5-3.3C1369,1576.2,1370.8,1576.6,1372.1,1576.2z"/>
							<path fill="#58719A" d="M1377.3,1594.5c-2.5-0.5-4.9-1.2-7.3-2.1C1372.1,1593.1,1374.4,1593.8,1377.3,1594.5z"/>
							<path fill="#58719A" d="M1371.3,1564.8c-0.2,0.1-0.4,0.3-0.6,0.4C1370.9,1565,1371.1,1564.8,1371.3,1564.8z"/>
							<path fill="#58719A" d="M1370.2,1562.9c0.5-0.4,1.1-0.8,1.7-1.1c-0.9,0.5-1.8,1.2-2.6,1.9c-0.9,0.8-2.7,2.2-3.5,3.4
								C1366.6,1565.7,1369,1563.9,1370.2,1562.9z"/>
							<path fill="#734E27" d="M1370.2,1575c-0.1,0-0.1,0-0.2,0c-1.3,0.4-2,1-2.7,2.2c-0.6,1.1-0.3,3.2-0.9,3.9
								c0,0.1-0.1,0.1-0.1,0.2c0.2-0.5,0-1.2,0.3-2.5c0.2-0.6,0.5-1.4,0.9-2.1c0.4-0.7,1-1.3,1.6-1.6
								C1369.5,1575,1369.8,1575,1370.2,1575z"/>
							<path fill="#3D5270" d="M1370,1592.4c-2.6-0.9-4.8-1.9-7.2-3.3c0,0,0.1,0,0.1,0.1C1365.2,1590.5,1367.5,1591.5,1370,1592.4z"
								/>
							<path fill="#54381E" d="M1368.2,1567.3C1368.2,1567.3,1368.2,1567.3,1368.2,1567.3
								C1368.2,1567.3,1368.2,1567.3,1368.2,1567.3L1368.2,1567.3C1368.2,1567.3,1368.2,1567.3,1368.2,1567.3z"/>
							<path fill="#3D5270" d="M1367.7,1567.8c0.2-0.2,0.3-0.3,0.5-0.5C1368,1567.5,1367.9,1567.7,1367.7,1567.8z"/>
							<path fill="#54381E" d="M1371.3,1584.4c-1.5-0.4-3-2.2-3.5-4C1368.3,1582.2,1369.9,1584,1371.3,1584.4z"/>
							<path fill="#734E27" d="M1365.9,1576.6l1.7,0.1c-0.4,0.7-0.8,1.5-0.9,2.1c-0.3,1.3-0.2,2-0.3,2.5c0,0,0,0,0,0
								c-0.3,0.3-0.7,0.5-1.2,0.7c0,0,0,0-0.1,0c-0.1,0-0.2,0-0.3,0.1c-2.4,0.4-5.2-1.2-5.2-3.6c0,0,0-0.1,0-0.1
								c0.2-1.3,1.3-2.6,2.4-3.6l0.3,0.4c-0.3,0.3-0.6,0.6-0.7,1c0.2-0.9,3.1,0.5,3.5,0.9c0,0,0,0,0,0
								C1365.2,1577.2,1365.6,1577,1365.9,1576.6z"/>
							<path fill="#54381E" d="M1367.3,1567.8C1367.3,1567.9,1367.3,1567.9,1367.3,1567.8
								C1367.3,1567.9,1367.3,1567.9,1367.3,1567.8z"/>
							<path fill="#58719A" d="M1366.5,1583.2c0.5,0.1,0.8,0.6,1.2,1c-1.6-1.3-0.9-0.7-3.8-0.5c-0.6,0-1.1,0-1.7,0
								C1363.7,1583.6,1365.2,1582.8,1366.5,1583.2z"/>
							<path fill="#49301C" d="M1365.1,1577.2c-0.4-0.4-3.3-1.8-3.5-0.9c0.1-0.4,0.3-0.7,0.7-1c0.9-0.8,2.6-1,3.4-0.3
								c0.7,0.6,0.5,1.2,0.2,1.6C1365.6,1577,1365.2,1577.2,1365.1,1577.2C1365.1,1577.2,1365.1,1577.2,1365.1,1577.2z"/>
							<path fill="#54381E" d="M1366,1570.3C1366,1570.3,1365.9,1570.3,1366,1570.3c-0.1,0.2-0.2,0.3-0.3,0.4c0-0.1,0.1-0.1,0.1-0.2
								C1365.8,1570.5,1365.9,1570.4,1366,1570.3z"/>
							<path fill="#54381E" d="M1365.6,1570.7c0.1-0.1,0.2-0.3,0.3-0.4c-0.1,0.2-0.3,0.4-0.4,0.5
								C1365.5,1570.8,1365.6,1570.8,1365.6,1570.7z"/>
							<path fill="#734E27" d="M1365.7,1570.6c0,0-0.1,0.1-0.1,0.2c0,0-0.1,0.1-0.1,0.1c0,0,0,0,0,0c-0.8,1-1.4,2-2.3,2.9
								c-0.4,0.4-0.8,0.7-1.3,1c0,0,0.1-0.1,0.1-0.1C1363.5,1573.4,1364.5,1572,1365.7,1570.6z"/>
							<path fill="#58719A" d="M1364.8,1568.4c0.3-0.3,0.5-0.6,0.8-0.9c-0.3,0.6-0.4,1-0.4,1.3
								C1365.1,1568.6,1364.9,1568.5,1364.8,1568.4z"/>
							<path fill="#3D5270" d="M1365.2,1568.8c0.1,0.1,0.2,0.2,0.3,0.3c-0.2,0.4-0.6,0.6-0.9,0.8
								C1365,1569.4,1365.1,1569.2,1365.2,1568.8z"/>
							<path fill="#58719A" d="M1367.1,1568.1c-0.6,0.6-1.2,1.3-1.8,1.9C1365.8,1569.4,1366.4,1568.7,1367.1,1568.1z"/>
							<path fill="#54381E" d="M1365,1582c0.5-0.1,0.9-0.4,1.2-0.7C1366.1,1581.6,1365.8,1581.8,1365,1582z"/>
							<path fill="#3D5270" d="M1365.2,1570c-0.1,0.1-0.1,0.1-0.2,0.2c-0.8,0.9-0.4,1-1.1,1.9c0,0,0,0,0,0c-0.1,0.1-0.1,0.1-0.2,0.2
								c0.5-0.7,0.8-1.2,0.6-1.5C1364.6,1570.6,1364.9,1570.3,1365.2,1570z"/>
							<path fill="#54381E" d="M1365.1,1577.2C1365.1,1577.2,1365.1,1577.2,1365.1,1577.2
								C1365.1,1577.2,1365.1,1577.2,1365.1,1577.2z"/>
							<path fill="#734E27" d="M1364.6,1582.1c0.1,0,0.2,0,0.3-0.1c-1.5,0.4-3.5,0.1-4.5-1.1c-0.8-0.8-1.1-1.7-1-2.4
								C1359.5,1581,1362.2,1582.6,1364.6,1582.1z"/>
							<path fill="#3D5270" d="M1365,1588.1c-0.4-0.2-0.8-0.4-1.1-0.6c-0.6-0.3-1.4-1.2-2.4-1.9
								C1362.6,1586.3,1363.8,1587.3,1365,1588.1z"/>
							<path fill="#58719A" d="M1364.5,1569.9c-0.1,0.1-0.2,0.2-0.4,0.3C1364.2,1570.1,1364.3,1570,1364.5,1569.9z"/>
							<path fill="#3D5270" d="M1363.9,1570.4c0.1-0.1,0.1-0.1,0.2-0.1c-0.1,0.2,0,0.3,0.2,0.6c-0.3,0.3-0.6,0.5-0.9,0.8
								C1363.8,1571.1,1364.1,1570.6,1363.9,1570.4z"/>
							<path fill="#54381E" d="M1363.7,1572.3c0.1-0.1,0.1-0.1,0.2-0.2C1363.8,1572.2,1363.8,1572.3,1363.7,1572.3
								c-0.1,0.1-0.2,0.2-0.2,0.3C1363.5,1572.5,1363.6,1572.4,1363.7,1572.3C1363.7,1572.3,1363.7,1572.3,1363.7,1572.3z"/>
							<path fill="#58719A" d="M1361.8,1588.5c0.2,0.1,0.4,0.3,0.6,0.4c-0.2-0.1-0.5-0.3-0.7-0.4
								C1361.7,1588.4,1361.8,1588.4,1361.8,1588.5z"/>
							<path fill="#3D5270" d="M1361.3,1593.3c0.7,0.5,1.5,0.9,2.3,1.4c-2.6-1.4-5-3.1-6.9-5.1c-2-2.2-2.1-5.6-1.2-8.5
								c-0.2,0.8-0.4,1.7-0.4,2.6C1354.8,1588.5,1357.5,1590.8,1361.3,1593.3z"/>
							<path fill="#54381E" d="M1361.9,1574.9L1361.9,1574.9c-1.1,1-2.3,2.2-2.4,3.6c0-0.4,0.1-0.8,0.3-1.3
								C1360.1,1576.2,1361,1575.5,1361.9,1574.9z"/>
							<path fill="#58719A" d="M1361.6,1588.4c-0.1-0.1-0.2-0.1-0.3-0.2C1361.4,1588.2,1361.5,1588.3,1361.6,1588.4z"/>
							<path fill="#54381E" d="M1362.1,1583.6c-0.4,0-0.8-0.1-1.1-0.2c-0.6-0.2-1-0.4-1.4-0.6c-1.9-1.1-2-2.5-1.2-4
								c-0.1,0.6-0.2,1.1-0.1,1.7C1358.6,1582.5,1360.3,1583.4,1362.1,1583.6z"/>
							<path fill="#58719A" d="M1360.7,1574.9c0.8-0.8,1.8-1.4,2.7-2.2c-1.4,1.6-4,3.9-5,6
								C1358.7,1577.3,1359.7,1575.9,1360.7,1574.9z"/>
							<path fill="#58719A" d="M1359.8,1574.7c1.1-1.1,2.4-2.1,3.6-3.1C1362.4,1572.7,1360.5,1574.1,1359.8,1574.7z"/>
							<path fill="#58719A" d="M1361.4,1585.5c-1.1-0.8-2-1.3-2.5-1c-0.8,0.5-0.8,1-0.5,1.6c-0.7-0.7-1-1.3-0.3-1.6
								c0.2-0.1,0.5-0.2,0.7-0.2C1359.6,1584.3,1360.6,1584.8,1361.4,1585.5z"/>
							<path fill="#54381E" d="M1358.7,1575.8c-1.5,1.6-2.6,3.3-3.3,5.3c0.1-0.5,0.3-1,0.5-1.4
								C1356.6,1578.2,1357.6,1576.9,1358.7,1575.8z"/>
							<path fill="#3D5270" d="M1358.4,1586.1c0.7,0.7,1.8,1.5,2.8,2.1C1360.4,1587.7,1358.9,1586.9,1358.4,1586.1z"/>
						</g>
					</g>
				</g>
			</g>
		</g>
	</g>
	<g id="pupil_copy_2">
	</g>
	<g id="pupil_4_">
	</g>
</g>
<g id="ch05-07-1">
	<g id="main_x5F_comp_1_">
		<g id="hand_washing_copy">
		</g>
	</g>
	<g id="assets">
	</g>
	<g id="hand_washing">
	</g>
</g>
</svg>
