<?xml version="1.0" encoding="utf-8"?>
<!-- Generator: Adobe Illustrator 18.1.1, SVG Export Plug-In . SVG Version: 6.00 Build 0)  -->
<svg version="1.1" xmlns="http://www.w3.org/2000/svg" xmlns:xlink="http://www.w3.org/1999/xlink" x="0px" y="0px"
	 viewBox="1023.3 646.9 48.3 66.9" enable-background="new 1023.3 646.9 48.3 66.9" xml:space="preserve">
<g id="additional_reference">
</g>
<g id="ch07-09-1">
</g>
<g id="ch04-05-1">
</g>
<g id="ch04-11-2">
</g>
<g id="ch04-06-1">
	<g id="older_version">
		<g id="head_3_" display="none">
			<g id="hair_3_">
			</g>
		</g>
		<g id="hands" display="none">
		</g>
		<g id="head_4_" display="none">
		</g>
		<g id="new_path" display="none">
		</g>
		<g id="handback" display="none">
		</g>
		<g id="handFront">
		</g>
		<g id="Layer_21" display="none">
		</g>
	</g>
	<g id="path_copy-with_stroke">
		<g id="handBack_copy">
		</g>
		<g id="head_copy">
		</g>
		<g id="neck_copy">
		</g>
		<g id="sleeve_copy">
		</g>
		<g id="handFront_copy">
		</g>
		<g id="skirt_copy">
		</g>
		<g id="torso_copy">
		</g>
	</g>
	<g id="comp_layer">
		<g id="skirt_copy_3">
			<g id="skirt_copy_3_2_">
			</g>
			<g id="skirt_copy_3_1_">
			</g>
		</g>
		<g id="torso_copy_2">
		</g>
		<g id="sleeve_copy_2">
		</g>
		<g id="neck_5_">
		</g>
		<g id="head_copy_2">
			<g id="head-silo_copy">
			</g>
		</g>
		<g id="head_copy_3">
			<g id="head-silo_copy_2">
			</g>
		</g>
		<g id="handFront_copy_2">
		</g>
		<g id="handBack_copy_2">
		</g>
	</g>
	<g id="skirt_5_">
		<g id="skirt_4_">
		</g>
		<g id="skirt_copy_2">
		</g>
	</g>
	<g id="torso_copy_3">
	</g>
	<g id="sleeve">
	</g>
	<g id="neck_6_">
	</g>
	<g id="handBack">
	</g>
	<g id="handFront_1_">
	</g>
</g>
<g id="ch04-03-2">
</g>
<g id="ch04-02-2_safe_copy" display="none">
	<g id="mainComp_x5F_paths-back-up_copy">
		<g id="eye_x5F_close_x5F_comp_copy_2_1_" display="inline">
		</g>
		<g id="eye_x5F_far_x5F_comp_copy_2_1_" display="inline">
		</g>
	</g>
	<g id="mainComp_copy" display="inline">
		<g id="eye_x5F_close_x5F_comp_copy_2">
		</g>
		<g id="eye_x5F_far_x5F_comp_copy_2">
		</g>
	</g>
	<g id="eye_x5F_close_copy" display="inline">
	</g>
	<g id="eye_x5F_far_copy" display="inline">
	</g>
	<g id="neck_4_" display="inline">
		<path fill="#734E27" d="M1070.2,670.6C1070.2,670.6,1070.1,670.6,1070.2,670.6c-5.4-16.8-21.4-24.9-38.2-23.3
			c-0.4,0-0.5,0.1-0.5,0.3c0,0,0,0,0,0c0,0,0,0,0,0v0c1,14.4,0,31.6-7.8,44.1h0c0.1,0,0.5,0.2,0.9,0.3c-0.2,0.3-0.3,0.7-0.3,0.9
			c2.3,5,5.8,9.8,9.8,13.5c8.4,7.7,18.9,9.1,29.3,4.5c0.1-0.1,0.2-0.3,0.2-0.5c0.5,0.1,1,0,1-0.3c0.7-7.9,1.7-16.5,4.7-24
			C1071.6,680.6,1072,676.5,1070.2,670.6z"/>
		<g id="neck_8_">
			<g id="XMLID_37_">
				<g>
					<path d="M1070.2,670.6c1.9,5.9,1.5,10-0.8,15.5c-3,7.4-4,16-4.7,24c-1.2-2-1.4-4.6-1.3-6.7c0,0,0,0,0,0c0.2-1.3,0.4-2.7,0.6-4
						c0.5-3.2,1.2-6.4,2.1-9.5c0.8-3,2-5.5,2.7-8h0C1070.9,675.8,1070.2,671.1,1070.2,670.6z"/>
					<path fill="#734E27" d="M1070.2,670.6c0.1,0.5,0.8,5.2-1.4,11.3h0c0.6-2.2,0.9-4.4,0.5-7.2c-3-17.6-18.7-27.9-35.9-26.5
						c0-0.1,0-0.1,0-0.2c0-0.3-1.7-0.4-1.9-0.4v0c0-0.1,0.1-0.2,0.5-0.3C1048.8,645.7,1064.8,653.9,1070.2,670.6
						C1070.1,670.6,1070.2,670.6,1070.2,670.6z"/>
					<path fill="#734E27" d="M1069.3,674.7c0.5,2.8,0.2,5-0.5,7.2c-0.7,2.5-1.9,5-2.7,8c-0.9,3.1-1.5,6.3-2.1,9.5c0,0-0.5,1.8-0.6,4
						c0,0,0,0,0,0c-0.3,2-0.5,4-0.7,6.1c-10,3.9-20,2.4-28.1-5c-3.7-3.4-7-7.7-9.3-12.3c0.1,0,0.1,0,0.1,0c2-3.3,3.6-6.8,4.8-10.6
						c2.1-6.6,3-13.7,3.3-20.7c0.1-1.2,0.1-2.4,0.1-3.5c0-3.1-0.1-6.2-0.3-9.2C1050.6,646.8,1066.3,657.1,1069.3,674.7z"/>
					<path fill="#734E27" d="M1064.7,710.1c0,0.3-0.5,0.4-1,0.3c0.1-0.5,0.1-1.3,0.3-1.4c-0.4,0.2-0.8,0.4-1.3,0.5
						c0.2-2,0.4-4,0.7-6.1C1063.3,705.6,1063.5,708.1,1064.7,710.1z"/>
					<path fill="#734E27" d="M1064,709c-0.3,0.1-0.3,0.9-0.3,1.4c-0.5-0.1-0.9-0.3-0.9-0.6c0-0.1,0-0.2,0-0.3
						C1063.1,709.3,1063.6,709.2,1064,709z"/>
					<path fill="#734E27" d="M1064,699.4c-0.2,1.3-0.4,2.7-0.6,4C1063.5,701.1,1064,699.4,1064,699.4z"/>
					<path fill="#734E27" d="M1063.6,710.4c0,0.3-0.1,0.5-0.2,0.5c-10.4,4.5-20.9,3.2-29.3-4.5c-4.1-3.7-7.6-8.5-9.8-13.5
						c-0.1-0.2,0.1-0.5,0.3-0.9c0.4,0.1,0.7,0.2,0.9,0.2c2.3,4.6,5.5,8.9,9.3,12.3c8.1,7.4,18.1,8.9,28.1,5c0,0.1,0,0.2,0,0.3
						C1062.7,710.1,1063.2,710.3,1063.6,710.4z"/>
					<path fill="#734E27" d="M1033.6,657.4c0.1,1.1,0,2.2-0.1,3.5C1033.6,659.7,1033.6,658.6,1033.6,657.4z"/>
					<path fill="#734E27" d="M1033.3,648.2c0.2,3,0.3,6.1,0.3,9.2c-0.2-6-2.1-9.6-2.2-9.8c0,0,0,0,0,0v0c0,0.3,0.9,0.7,1.4,0.7
						C1033,648.2,1033.2,648.2,1033.3,648.2z"/>
					<path d="M1033.6,660.9c-0.3,7-1.2,14.1-3.3,20.7c-2.2,6.9-6.4,9.9-6.7,10.2h0c7.8-12.6,8.8-29.7,7.8-44.1c0,0,0,0,0,0
						c0.1,0.2,2,3.8,2.2,9.8C1033.6,658.6,1033.6,659.7,1033.6,660.9z"/>
					<path fill="#734E27" d="M1033.3,648c0,0.1,0,0.1,0,0.2c-0.2,0-0.4,0-0.6,0c-0.5,0-1.3-0.4-1.4-0.7
						C1031.7,647.7,1033.3,647.7,1033.3,648z"/>
					<path d="M1031.4,647.6C1031.4,647.6,1031.4,647.6,1031.4,647.6S1031.4,647.6,1031.4,647.6L1031.4,647.6z"/>
					<path fill="#734E27" d="M1023.6,691.7c0.3-0.2,4.6-3.2,6.7-10.2c-1.2,3.8-2.8,7.3-4.8,10.6c0,0-0.1,0-0.1,0
						c-0.2-0.4-0.4-0.8-0.6-1.2c0.1,0.2-0.1,0.6-0.3,1C1024.1,691.9,1023.7,691.7,1023.6,691.7z"/>
					<path fill="#734E27" d="M1025.4,692.2c-0.2,0-0.5-0.1-0.9-0.2c0.2-0.4,0.5-0.8,0.3-1C1025,691.4,1025.2,691.8,1025.4,692.2z"/>
				</g>
			</g>
		</g>
	</g>
	<g id="pupil_copy" display="inline">
	</g>
</g>
<g id="ch04-02-1">
	<g id="mainComp_x5F_paths-back-up" display="none">
		<g id="eye_x5F_close_x5F_comp_copy" display="inline">
		</g>
		<g id="eye_x5F_far_x5F_comp_copy" display="inline">
		</g>
	</g>
	<g id="mainComp">
		<g id="eye_x5F_close_x5F_comp">
		</g>
		<g id="eye_x5F_far_x5F_comp">
		</g>
	</g>
	<g id="eye_x5F_close_copy_2">
	</g>
	<g id="eye_x5F_close">
	</g>
	<g id="eye_x5F_far_copy_2">
	</g>
	<g id="eye_x5F_far">
	</g>
	<path fill="#734E27" d="M1070.2,670.6C1070.2,670.6,1070.1,670.6,1070.2,670.6c-5.4-16.8-21.4-24.9-38.2-23.3
		c-0.4,0-0.5,0.1-0.5,0.3c0,0,0,0,0,0c0,0,0,0,0,0v0c1,14.4,0,31.6-7.8,44.1h0c0.1,0,0.5,0.2,0.9,0.3c-0.2,0.3-0.3,0.7-0.3,0.9
		c2.3,5,5.8,9.8,9.8,13.5c8.4,7.7,18.9,9.1,29.3,4.5c0.1-0.1,0.2-0.3,0.2-0.5c0.5,0.1,1,0,1-0.3c0.7-7.9,1.7-16.5,4.7-24
		C1071.6,680.6,1072,676.5,1070.2,670.6z"/>
	<g id="neck_11_">
		<path fill="#734E27" d="M1070.2,670.6C1070.2,670.6,1070.1,670.6,1070.2,670.6c-5.4-16.8-21.4-24.9-38.2-23.3
			c-0.4,0-0.5,0.1-0.5,0.3c0,0,0,0,0,0c0,0,0,0,0,0v0c1,14.4,0,31.6-7.8,44.1h0c0.1,0,0.5,0.2,0.9,0.3c-0.2,0.3-0.3,0.7-0.3,0.9
			c2.3,5,5.8,9.8,9.8,13.5c8.4,7.7,18.9,9.1,29.3,4.5c0.1-0.1,0.2-0.3,0.2-0.5c0.5,0.1,1,0,1-0.3c0.7-7.9,1.7-16.5,4.7-24
			C1071.6,680.6,1072,676.5,1070.2,670.6z"/>
		<g id="neck_12_">
			<g id="XMLID_9_">
				<g>
					<path fill="#49301C" d="M1070.2,670.6c1.9,5.9,1.5,10-0.8,15.5c-3,7.4-4,16-4.7,24c-1.2-2-1.4-4.6-1.3-6.7c0,0,0,0,0,0
						c0.2-1.3,0.4-2.7,0.6-4c0.5-3.2,1.2-6.4,2.1-9.5c0.8-3,2-5.5,2.7-8h0C1070.9,675.8,1070.2,671.1,1070.2,670.6z"/>
					<path fill="#734E27" d="M1070.2,670.6c0.1,0.5,0.8,5.2-1.4,11.3h0c0.6-2.2,0.9-4.4,0.5-7.2c-3-17.6-18.7-27.9-35.9-26.5
						c0-0.1,0-0.1,0-0.2c0-0.3-1.7-0.4-1.9-0.4v0c0-0.1,0.1-0.2,0.5-0.3C1048.8,645.7,1064.8,653.9,1070.2,670.6
						C1070.1,670.6,1070.2,670.6,1070.2,670.6z"/>
					<path fill="#734E27" d="M1069.3,674.7c0.5,2.8,0.2,5-0.5,7.2c-0.7,2.5-1.9,5-2.7,8c-0.9,3.1-1.5,6.3-2.1,9.5c0,0-0.5,1.8-0.6,4
						c0,0,0,0,0,0c-0.3,2-0.5,4-0.7,6.1c-10,3.9-20,2.4-28.1-5c-3.7-3.4-7-7.7-9.3-12.3c0.1,0,0.1,0,0.1,0c2-3.3,3.6-6.8,4.8-10.6
						c2.1-6.6,3-13.7,3.3-20.7c0.1-1.2,0.1-2.4,0.1-3.5c0-3.1-0.1-6.2-0.3-9.2C1050.6,646.8,1066.3,657.1,1069.3,674.7z"/>
					<path fill="#734E27" d="M1064.7,710.1c0,0.3-0.5,0.4-1,0.3c0.1-0.5,0.1-1.3,0.3-1.4c-0.4,0.2-0.8,0.4-1.3,0.5
						c0.2-2,0.4-4,0.7-6.1C1063.3,705.6,1063.5,708.1,1064.7,710.1z"/>
					<path fill="#734E27" d="M1064,709c-0.3,0.1-0.3,0.9-0.3,1.4c-0.5-0.1-0.9-0.3-0.9-0.6c0-0.1,0-0.2,0-0.3
						C1063.1,709.3,1063.6,709.2,1064,709z"/>
					<path fill="#734E27" d="M1064,699.4c-0.2,1.3-0.4,2.7-0.6,4C1063.5,701.1,1064,699.4,1064,699.4z"/>
					<path fill="#734E27" d="M1063.6,710.4c0,0.3-0.1,0.5-0.2,0.5c-10.4,4.5-20.9,3.2-29.3-4.5c-4.1-3.7-7.6-8.5-9.8-13.5
						c-0.1-0.2,0.1-0.5,0.3-0.9c0.4,0.1,0.7,0.2,0.9,0.2c2.3,4.6,5.5,8.9,9.3,12.3c8.1,7.4,18.1,8.9,28.1,5c0,0.1,0,0.2,0,0.3
						C1062.7,710.1,1063.2,710.3,1063.6,710.4z"/>
					<path fill="#734E27" d="M1033.6,657.4c0.1,1.1,0,2.2-0.1,3.5C1033.6,659.7,1033.6,658.6,1033.6,657.4z"/>
					<path fill="#734E27" d="M1033.3,648.2c0.2,3,0.3,6.1,0.3,9.2c-0.2-6-2.1-9.6-2.2-9.8c0,0,0,0,0,0v0c0,0.3,0.9,0.7,1.4,0.7
						C1033,648.2,1033.2,648.2,1033.3,648.2z"/>
					<path fill="#49301C" d="M1033.6,660.9c-0.3,7-1.2,14.1-3.3,20.7c-2.2,6.9-6.4,9.9-6.7,10.2h0c7.8-12.6,8.8-29.7,7.8-44.1
						c0,0,0,0,0,0c0.1,0.2,2,3.8,2.2,9.8C1033.6,658.6,1033.6,659.7,1033.6,660.9z"/>
					<path fill="#734E27" d="M1033.3,648c0,0.1,0,0.1,0,0.2c-0.2,0-0.4,0-0.6,0c-0.5,0-1.3-0.4-1.4-0.7
						C1031.7,647.7,1033.3,647.7,1033.3,648z"/>
					<path d="M1031.4,647.6C1031.4,647.6,1031.4,647.6,1031.4,647.6S1031.4,647.6,1031.4,647.6L1031.4,647.6z"/>
					<path fill="#734E27" d="M1023.6,691.7c0.3-0.2,4.6-3.2,6.7-10.2c-1.2,3.8-2.8,7.3-4.8,10.6c0,0-0.1,0-0.1,0
						c-0.2-0.4-0.4-0.8-0.6-1.2c0.1,0.2-0.1,0.6-0.3,1C1024.1,691.9,1023.7,691.7,1023.6,691.7z"/>
					<path fill="#734E27" d="M1025.4,692.2c-0.2,0-0.5-0.1-0.9-0.2c0.2-0.4,0.5-0.8,0.3-1C1025,691.4,1025.2,691.8,1025.4,692.2z"/>
				</g>
			</g>
		</g>
	</g>
	<g id="pupil_copy_2">
	</g>
	<g id="pupil_4_">
	</g>
</g>
<g id="ch05-07-1">
	<g id="main_x5F_comp_1_">
		<g id="hand_washing_copy">
		</g>
	</g>
	<g id="assets">
	</g>
	<g id="hand_washing">
	</g>
</g>
</svg>
