<?xml version="1.0" encoding="utf-8"?>
<!-- Generator: Adobe Illustrator 18.1.1, SVG Export Plug-In . SVG Version: 6.00 Build 0)  -->
<svg version="1.1" xmlns="http://www.w3.org/2000/svg" xmlns:xlink="http://www.w3.org/1999/xlink" x="0px" y="0px"
	 viewBox="631.4 3967.2 15.7 13.4" enable-background="new 631.4 3967.2 15.7 13.4" xml:space="preserve">
<g id="additional_reference">
</g>
<g id="ch07-09-1">
</g>
<g id="ch04-05-1">
</g>
<g id="ch04-11-2">
	<path fill="#49301C" d="M645.7,3972.2c0.2,0.3,0.5,0.6,0.9,0.6c0,0,0.1,0,0.1,0c0-0.1,0-0.2-0.1-0.3c-0.1-0.1-0.2-0.2-0.3-0.3
		c-0.1-0.1-0.1-0.1-0.2-0.2c-0.3-0.3-0.4-0.7-0.7-1.1c-0.2-0.3-0.7-0.3-0.5-0.1c0.2,0.2,0.3,0.5,0.4,0.8c-0.1,0-0.1,0.2-0.2,0.1
		c0,0,0,0,0,0c-0.1,0-0.3,0.1-0.5,0.1c-0.1,0-0.1,0-0.4-0.1c0,0-0.1-0.2-0.1-0.2c-0.2-0.4-0.6-0.8-0.6-0.8c-0.2-0.3-0.5-0.5-0.8-0.7
		c-0.5-0.4-1.2-0.8-1.8-0.9c-0.7-0.1-1,0.1-1.3,0.4v0c0-0.2,0-0.7-0.1-0.8c-0.1-0.1-0.2-0.1-0.3-0.1c-0.3-0.2-0.6,0-0.8-0.4
		c-0.2-0.3-0.7-0.8-0.6-0.5c0.2,0.4,0.6,1.1,1,1.3c0.1,0.1,0.5,0.2,0.5,0.3c0,0.1-0.2,0.4-0.2,0.5c-0.2,0.2-0.4,0-0.7-0.1
		c-1.2-0.4-0.6-1.3-1.3-2.1c-0.2-0.2-0.6-0.6-0.6-0.6c0,0,0,0,0,0c0.3,0.4,0.3,0.9,0.5,1.3c0.1,0.3,0.3,0.6,0.5,0.9
		c0.2,0.3,0.5,0.6,0.8,0.8c-0.9-0.1-1.7-0.8-2.7-0.1c-1.3,0.9-1.2,3.1-2.4,4c-0.3,0.1-0.5,0.2-0.8,0.3c0,0-0.1,0-0.1,0c0,0,0,0,0,0
		v0c0-0.3,0-0.6-0.2-0.9c0,0,0,0,0-0.1c0,0-0.1-0.1-0.2-0.1c0,0.3,0,0.6,0,0.9c0,0,0,0,0,0.1c0,0.1,0,0.3-0.1,0.4
		c0,0.1-0.1,0.2-0.1,0.2c0,0,0,0.1,0,0.1c-0.1,0.2-0.2,0.4-0.3,0.6c0,0.1,0,0.1,0,0.1c0.1,0,0.2-0.1,0.2-0.1c0,0,0.1-0.1,0.1-0.1
		c0.1-0.1,0.2-0.3,0.4-0.5l0,0c0,0,0,0,0,0c0,0,0,0,0,0c3.6,0.6,5,4.6,8.5,4.5l0.1,0c0,0,0,0,0,0c1.8,0.1,3-0.5,3.7-1.1c0,0,0,0,0,0
		c0.4-0.3,0.8-0.7,1.1-1.1C646.8,3975.8,645,3974.1,645.7,3972.2C645.6,3972.3,645.7,3972.3,645.7,3972.2z"/>
	<g id="mouth_2_">
		<g id="XMLID_84_">
			<g>
				<path fill="#490B0B" d="M643.3,3972.9c-1.5,1-3.3,1.9-5.2,1.5c-0.4-0.1-0.7-0.2-1.1-0.3c0.5-0.9,1.2-1.7,2.2-2.1
					c1.5-0.6,3-0.1,4.3,0.7C643.5,3972.8,643.4,3972.8,643.3,3972.9z"/>
				<path fill="#7E5323" d="M645.1,3972.3c-0.3,0.9,0.1,1.4,0.2,2.4c0.5,3-2.4,4.9-5.3,4.7c-2.2-0.2-3.2-2.4-4.8-3.6
					c-0.8-0.6-1.5-0.8-2.4-1c0.1,0,0.1-0.1,0.2-0.1c1.2-0.4,2.3-0.5,3.5-0.3c0.5,0.1,1.1,0.3,1.7,0.4c0.9,0.3,1.9,0.6,2.9,0.3
					c0.7-0.2,0.9-0.4,1.5-0.9c0.3-0.5,0.7-1,1.2-1.4c0.2-0.3,0.4-0.5,0.7-0.6c0,0,0.1,0,0.1-0.1h0
					C644.9,3972.4,645,3972.4,645.1,3972.3z"/>
				<path fill="#7E5323" d="M643.5,3972.1C643.5,3972.1,643.5,3972.1,643.5,3972.1c-1.3-0.6-2.6-1.1-4-0.7c-1.3,0.4-2.2,1.4-2.9,2.5
					c-0.3-0.1-0.7-0.2-1-0.2c-0.5,0-1,0.1-1.5,0.2c0.1-0.1,0.1-0.2,0.2-0.3c0.2-0.3,0.3-0.7,0.5-1c0.8-1.7,1.5-1.8,3.5-1.7
					c0.9,0,0.9,0.1,1.7-0.2c0,0,0.1-0.1,0.1-0.1c0.1-0.5,0.6-0.8,1.5-0.6c0.9,0.1,1.7,1.1,2.4,1.8c0.2,0.1,0.3,0.3,0.4,0.4
					c-0.1,0-0.1,0.1-0.2,0.1c0,0,0,0-0.1,0h0c0,0,0,0,0,0c0,0,0,0,0,0h0c0,0,0,0,0,0c-0.1,0-0.1-0.1-0.2-0.1
					C643.6,3972.1,643.5,3972.1,643.5,3972.1z"/>
				<path fill="#49301C" d="M643.5,3972.1C643.5,3972.1,643.5,3972.1,643.5,3972.1c0.1,0,0.2,0.1,0.2,0.1c0.1,0,0.1,0.1,0.2,0.1
					c0,0,0,0,0,0h0c0,0,0,0,0,0c0,0,0,0,0,0h0c0,0,0.1,0,0.1,0c0.1,0,0.1-0.1,0.2-0.1c-0.1-0.2-0.3-0.3-0.4-0.4
					c-0.7-0.8-1.5-1.7-2.4-1.8c-0.9-0.1-1.4,0.1-1.5,0.6c0,0,0,0.1-0.1,0.1c-0.8,0.3-0.8,0.3-1.7,0.2c-1.9-0.1-2.7,0-3.5,1.7
					c-0.2,0.3-0.3,0.7-0.5,1c-0.1,0.1-0.1,0.2-0.2,0.3c0.5-0.2,1-0.2,1.5-0.2c0.4,0,0.7,0.1,1,0.2c0.7-1.2,1.5-2.1,2.9-2.5
					C640.9,3971,642.2,3971.5,643.5,3972.1z M640,3979.5c2.9,0.2,5.7-1.8,5.3-4.7c-0.2-1-0.5-1.5-0.2-2.4c-0.1,0-0.2,0.1-0.3,0.1h0
					c0,0-0.1,0.1-0.1,0.1c-0.3,0.1-0.5,0.3-0.7,0.6c-0.5,0.4-0.9,0.8-1.2,1.4c-0.6,0.5-0.8,0.7-1.5,0.9c-1,0.2-2-0.1-2.9-0.3
					c-0.6-0.2-1.2-0.4-1.7-0.4c-1.2-0.2-2.3-0.2-3.5,0.3c0,0-0.1,0.1-0.2,0.1c0.8,0.2,1.6,0.4,2.4,1
					C636.8,3977.1,637.9,3979.3,640,3979.5z M638.1,3974.4c1.9,0.4,3.7-0.6,5.2-1.5c0.1-0.1,0.2-0.1,0.3-0.2
					c-1.4-0.7-2.8-1.3-4.3-0.7c-1,0.4-1.6,1.2-2.2,2.1C637.4,3974.2,637.7,3974.4,638.1,3974.4z M639,3969.2c-0.4-0.2-0.8-0.9-1-1.3
					c-0.2-0.3,0.4,0.3,0.5,0.6c0.2,0.3,0.4,0.2,0.8,0.3c0.1,0.1,0.2,0.1,0.3,0.1c0.1,0.1,0.2,0.6,0.1,0.8v0c0.3-0.3,0.6-0.5,1.3-0.4
					c0.6,0.1,1.3,0.5,1.8,0.9c0.3,0.2,0.6,0.4,0.8,0.7c0,0,0.4,0.4,0.6,0.8c0,0,0.1,0.2,0.2,0.2c0.3,0.1,0.3,0.1,0.4,0.1
					c0.1,0,0.3-0.1,0.5-0.1c0,0,0,0,0,0c0.1,0,0.1-0.1,0.2-0.1c-0.1-0.3-0.3-0.6-0.4-0.8c-0.2-0.2,0.3-0.2,0.5,0.1
					c0.3,0.4,0.4,0.8,0.7,1.1c0,0.1,0.1,0.1,0.2,0.2c0.1,0.1,0.2,0.2,0.3,0.3c0,0.1,0.1,0.2,0.1,0.3c0,0-0.1,0-0.1,0
					c-0.5-0.1-0.7-0.3-0.9-0.6c0,0-0.1,0-0.1,0c-0.7,1.8,1.2,3.6,0,5.3c-0.3,0.4-0.6,0.8-1.1,1.1c0,0,0,0,0,0
					c-0.7,0.6-1.9,1.3-3.7,1.1c0,0,0,0,0,0l-0.1,0c-3.5,0.1-4.9-3.9-8.5-4.5c0,0,0,0,0,0c0,0,0,0,0,0.1l0,0
					c-0.1,0.1-0.2,0.3-0.4,0.5c0,0.1-0.1,0.1-0.1,0.2c-0.1,0-0.1,0.1-0.2,0.1c0,0,0-0.1,0-0.1c0.1-0.2,0.2-0.4,0.3-0.7
					c0,0,0-0.1,0-0.1c0-0.1,0.1-0.2,0.1-0.2c0-0.1,0.1-0.3,0.1-0.4c0,0,0,0,0-0.1c0-0.3,0-0.6,0-0.9c0.1,0,0.1,0,0.2,0.1
					c0,0,0,0,0,0.1c0.2,0.3,0.2,0.6,0.2,0.9v0c0,0,0,0,0,0c0,0,0.1,0,0.1,0c0.2-0.1,0.5-0.3,0.8-0.3c1.2-0.9,1.2-3.1,2.5-4
					c1-0.7,1.8,0,2.7,0.1c-0.3-0.2-0.6-0.6-0.8-0.8c-0.2-0.3-0.3-0.6-0.4-0.9c-0.1-0.4-0.1-1-0.5-1.3c0,0,0,0,0,0
					c0.1,0,0.5,0.4,0.6,0.6c0.7,0.8,0.1,1.7,1.3,2.1c0.3,0.1,0.5,0.3,0.7,0.1c0,0,0.3-0.4,0.2-0.5
					C639.5,3969.3,639.1,3969.2,639,3969.2z"/>
			</g>
		</g>
	</g>
</g>
<g id="ch04-06-1">
	<g id="older_version">
		<g id="head_3_" display="none">
			<g id="hair_3_">
			</g>
		</g>
		<g id="hands" display="none">
		</g>
		<g id="head_4_" display="none">
		</g>
		<g id="new_path" display="none">
		</g>
		<g id="handback" display="none">
		</g>
		<g id="handFront">
		</g>
		<g id="Layer_21" display="none">
		</g>
	</g>
	<g id="path_copy-with_stroke">
		<g id="handBack_copy">
		</g>
		<g id="head_copy">
		</g>
		<g id="neck_copy">
		</g>
		<g id="sleeve_copy">
		</g>
		<g id="handFront_copy">
		</g>
		<g id="skirt_copy">
		</g>
		<g id="torso_copy">
		</g>
	</g>
	<g id="comp_layer">
		<g id="skirt_copy_3">
			<g id="skirt_copy_3_2_">
			</g>
			<g id="skirt_copy_3_1_">
			</g>
		</g>
		<g id="torso_copy_2">
		</g>
		<g id="sleeve_copy_2">
		</g>
		<g id="neck_5_">
		</g>
		<g id="head_copy_2">
			<g id="head-silo_copy">
			</g>
		</g>
		<g id="head_copy_3">
			<g id="head-silo_copy_2">
			</g>
		</g>
		<g id="head_copy_4">
			<g id="head-silo_copy_3">
			</g>
		</g>
		<g id="handFront_copy_2">
		</g>
		<g id="handBack_copy_2">
		</g>
	</g>
	<g id="skirt_copy_4">
		<g id="skirt_copy_4_2_">
		</g>
		<g id="skirt_copy_4_1_">
		</g>
	</g>
	<g id="skirt_5_">
		<g id="skirt_4_">
		</g>
		<g id="skirt_copy_2">
		</g>
	</g>
	<g id="torso_copy_3">
	</g>
	<g id="torso_copy_4">
	</g>
	<g id="sleeve_copy_3">
	</g>
	<g id="sleeve">
	</g>
	<g id="neck_6_">
	</g>
	<g id="neck_copy_2">
	</g>
	<g id="handBack_copy_3">
	</g>
	<g id="handBack">
	</g>
	<g id="handFront_copy_3">
	</g>
	<g id="handFront_1_">
	</g>
</g>
<g id="ch04-03-2">
</g>
<g id="ch04-02-2_safe_copy" display="none">
	<g id="mainComp_x5F_paths-back-up_copy">
		<g id="eye_x5F_close_x5F_comp_copy_2_1_" display="inline">
		</g>
		<g id="eye_x5F_far_x5F_comp_copy_2_1_" display="inline">
		</g>
	</g>
	<g id="mainComp_copy" display="inline">
		<g id="eye_x5F_close_x5F_comp_copy_2">
		</g>
		<g id="eye_x5F_far_x5F_comp_copy_2">
		</g>
	</g>
	<g id="eye_x5F_close_copy" display="inline">
	</g>
	<g id="eye_x5F_far_copy" display="inline">
	</g>
	<g id="pupil_copy" display="inline">
	</g>
</g>
<g id="ch04-02-1">
	<g id="mainComp_x5F_paths-back-up" display="none">
		<g id="eye_x5F_close_x5F_comp_copy" display="inline">
		</g>
		<g id="eye_x5F_far_x5F_comp_copy" display="inline">
		</g>
	</g>
	<g id="mainComp">
		<g id="eye_x5F_close_x5F_comp">
		</g>
		<g id="eye_x5F_far_x5F_comp">
		</g>
	</g>
	<g id="eye_x5F_close_copy_2">
	</g>
	<g id="eye_x5F_close">
	</g>
	<g id="eye_x5F_far_copy_2">
	</g>
	<g id="eye_x5F_far">
	</g>
	<g id="pupil_copy_2">
	</g>
	<g id="pupil_4_">
	</g>
</g>
<g id="ch05-07-1">
	<g id="main_x5F_comp_1_">
		<g id="hand_washing_copy">
		</g>
	</g>
	<g id="assets">
	</g>
	<g id="hand_washing">
	</g>
</g>
</svg>
