<?xml version="1.0" encoding="utf-8"?>
<!-- Generator: Adobe Illustrator 18.1.1, SVG Export Plug-In . SVG Version: 6.00 Build 0)  -->
<svg version="1.1" xmlns="http://www.w3.org/2000/svg" xmlns:xlink="http://www.w3.org/1999/xlink" x="0px" y="0px"
	 viewBox="1375.6 1165.3 145.9 195.1" enable-background="new 1375.6 1165.3 145.9 195.1" xml:space="preserve">
<g id="additional_reference">
</g>
<g id="ch07-09-1">
</g>
<g id="ch04-05-1">
</g>
<g id="ch04-11-2">
</g>
<g id="ch04-06-1">
	<g id="older_version">
		<g id="head_3_" display="none">
			<g id="hair_3_">
			</g>
		</g>
		<g id="hands" display="none">
		</g>
		<g id="head_4_" display="none">
		</g>
		<g id="new_path" display="none">
		</g>
		<g id="handback" display="none">
		</g>
		<g id="handFront">
		</g>
		<g id="Layer_21" display="none">
		</g>
	</g>
	<g id="path_copy-with_stroke">
		<g id="handBack_copy">
		</g>
		<g id="head_copy">
		</g>
		<g id="neck_copy">
		</g>
		<g id="sleeve_copy">
		</g>
		<g id="handFront_copy">
		</g>
		<g id="skirt_copy">
		</g>
		<g id="torso_copy">
		</g>
	</g>
	<g id="comp_layer">
		<g id="skirt_copy_3">
			<g id="skirt_copy_3_2_">
			</g>
			<g id="skirt_copy_3_1_">
			</g>
		</g>
		<g id="torso_copy_2">
		</g>
		<g id="sleeve_copy_2">
		</g>
		<g id="neck_5_">
		</g>
		<g id="head_copy_2">
			<g id="head-silo_copy">
			</g>
		</g>
		<g id="head_copy_3">
			<g id="head-silo_copy_2">
			</g>
		</g>
		<g id="handFront_copy_2">
		</g>
		<g id="handBack_copy_2">
		</g>
	</g>
	<g id="skirt_5_">
		<g id="skirt_4_">
		</g>
		<g id="skirt_copy_2">
		</g>
	</g>
	<g id="torso_copy_3">
	</g>
	<g id="sleeve">
	</g>
	<g id="neck_6_">
	</g>
	<g id="handBack">
	</g>
	<g id="handFront_1_">
	</g>
</g>
<g id="ch04-03-2">
</g>
<g id="ch04-02-2_safe_copy" display="none">
	<g id="mainComp_x5F_paths-back-up_copy">
		<g id="eye_x5F_close_x5F_comp_copy_2_1_" display="inline">
		</g>
		<g id="eye_x5F_far_x5F_comp_copy_2_1_" display="inline">
		</g>
	</g>
	<g id="mainComp_copy" display="inline">
		<g id="eye_x5F_close_x5F_comp_copy_2">
		</g>
		<g id="eye_x5F_far_x5F_comp_copy_2">
		</g>
	</g>
	<g id="eye_x5F_close_copy" display="inline">
	</g>
	<g id="eye_x5F_far_copy" display="inline">
	</g>
	<g id="skirt_6_" display="inline">
		<path d="M1521.2,1352.3c-9.8-12.7-5.3-33.7-4.5-48.2c0.8-15.1,1.1-30.2,0.8-45.4c-0.3-16.7-1.4-33.4-5-49.8
			c-1.6-7.1-3.4-13.8-6.9-20.3c-3.3-6.1-7.6-10.3-13.6-13.8c-13.2-7.6-29.2-9.5-44.1-9.4c-5.3,0-10.5,0.3-15.8,0.9
			c-4.2,0.5-8.4,0.5-12.5,1.8c-5.2,1.6-11.1,4.5-15,8.4c-5.3,5.3-8.7,13.8-11.1,20.7c-4.9,14-7,28.4-8.4,43.1
			c-2.1,23-4.3,45.8-4.1,69c0.1,7.7-0.9,15.4-1.5,23c-0.6,7.1-1.4,13.9-3.7,20.7c0,0.1,0,0.2,0.1,0.2c0,0.1,0.2,0.1,0.5,0
			c10.7-4,22.9-5.6,34.3-5.3c9.1,0.2,16.8,2.9,25.4,5.1c11.7,3,23.7,4.8,35.7,6c9.1,0.9,18.3,1.5,27.4,0.2c6.9-1,14.1-2.6,20.4-5.8
			c0.2-0.1,0.5-0.2,0.7-0.3C1520.5,1353.2,1521.5,1352.6,1521.2,1352.3z"/>
		<g>
			<path d="M1521.2,1352.3c0.2,0.3-0.7,0.9-0.9,1c-0.2,0.1-0.5,0.2-0.7,0.3l-0.1-0.2c0.3-0.3,0.6-0.7,0.9-1
				c-0.4,0.2-0.8,0.4-1.2,0.6c-9.7-13.2-4.9-34.9-4.2-49.7c0.8-16.8,1.2-33.8,0.6-50.6c-0.5-15.4-1.9-30.5-5.4-45.5
				c-1.7-7.4-4.2-14.3-8.2-20.9c-3.5-5.7-9.7-9.5-15.6-12.2c-13.4-6.2-28.9-7.6-43.5-7.2c-10.4,0.3-22.9,0.8-31.9,6.2
				c-7.3,4.4-10.9,11.7-14.2,19.4c-3.2,7.7-5.4,15.8-7,24c-3.2,16.9-4.6,34.7-5.8,51.9c-1,14.6-0.8,29.1-1.1,43.7
				c-0.2,8.3-1.3,16.6-2.1,24.8c-0.5,5.2-1.6,10.3-3.2,15.3c-0.3,0.1-0.5,0.2-0.7,0.3c-0.4,0.2-1.1,0.8-1,1.1c-0.1,0-0.1-0.1,0-0.2
				c2.2-6.8,3.1-13.6,3.7-20.7c0.7-7.7,1.6-15.4,1.6-23c-0.3-23.2,1.9-46,4.1-69c1.3-14.7,3.5-29.1,8.4-43.1
				c2.4-6.9,5.9-15.4,11.1-20.7c3.9-3.9,9.8-6.8,15-8.4c4-1.3,8.3-1.3,12.5-1.8c5.2-0.6,10.5-0.9,15.8-0.9c15,0,31,1.9,44.2,9.4
				c6.1,3.5,10.4,7.6,13.6,13.8c3.4,6.5,5.3,13.2,6.9,20.3c3.6,16.4,4.7,33,5,49.8c0.2,15.1-0.1,30.3-0.8,45.4
				C1516,1318.6,1511.4,1339.6,1521.2,1352.3z"/>
			<path d="M1520.4,1352.4c-0.3,0.3-0.6,0.7-0.9,1c-0.1-0.1-0.2-0.3-0.3-0.4C1519.6,1352.8,1520,1352.6,1520.4,1352.4z"/>
			<path d="M1519.6,1353.4l0.1,0.2c-6.3,3.1-13.5,4.8-20.4,5.8c-9.2,1.3-18.3,0.7-27.4-0.2c-12-1.2-24-3-35.7-6
				c-8.6-2.2-16.3-4.9-25.4-5.1c-11.4-0.3-23.6,1.3-34.3,5.3c-0.4,0.1-0.5,0.1-0.5,0c0.3,0.2,1.5-0.5,1.6-0.9c0-0.2,0.1-0.3,0.1-0.5
				c10.6-3.9,22.3-5.3,33.5-5.2c7.6,0.1,14.6,1.7,21.8,3.9c12.4,3.8,25.6,5.7,38.5,7c15.8,1.7,33.1,2.4,47.8-4.8
				C1519.3,1353.1,1519.5,1353.2,1519.6,1353.4z"/>
			<path fill="#3E3A59" d="M1515.7,1252.7c0.6,16.8,0.2,33.8-0.6,50.6c-0.7,14.8-5.6,36.5,4.2,49.7c-14.7,7.2-32,6.4-47.8,4.8
				c-12.9-1.3-26-3.3-38.5-7c-7.2-2.2-14.2-3.8-21.8-3.9c-11.2-0.1-22.9,1.3-33.5,5.2c1.6-5,2.7-10.1,3.2-15.3
				c0.7-8.2,1.8-16.5,2.1-24.8c0.4-14.6,0.1-29.1,1.1-43.7c1.2-17.2,2.6-34.9,5.8-51.9c1.5-8.2,3.8-16.3,7-24
				c3.3-7.8,6.8-15,14.2-19.4c9-5.4,21.4-5.9,31.9-6.2c14.6-0.4,30.1,1,43.5,7.2c5.9,2.8,12.1,6.5,15.6,12.2
				c4,6.5,6.5,13.5,8.2,20.9C1513.8,1222.2,1515.1,1237.3,1515.7,1252.7z"/>
			<path d="M1377.7,1352c0,0.2-0.1,0.3-0.1,0.5c-0.1,0.4-1.3,1-1.6,0.9c0-0.2,0.6-0.9,1-1.1
				C1377.2,1352.2,1377.4,1352.1,1377.7,1352z"/>
		</g>
	</g>
	<g id="pupil_copy" display="inline">
	</g>
</g>
<g id="ch04-02-1">
	<g id="mainComp_x5F_paths-back-up" display="none">
		<g id="eye_x5F_close_x5F_comp_copy" display="inline">
		</g>
		<g id="eye_x5F_far_x5F_comp_copy" display="inline">
		</g>
	</g>
	<g id="mainComp">
		<g id="eye_x5F_close_x5F_comp">
		</g>
		<g id="eye_x5F_far_x5F_comp">
		</g>
	</g>
	<g id="eye_x5F_close_copy_2">
	</g>
	<g id="eye_x5F_close">
	</g>
	<g id="eye_x5F_far_copy_2">
	</g>
	<g id="eye_x5F_far">
	</g>
	<path fill="#312F49" d="M1521.2,1352.3c-9.8-12.7-5.3-33.7-4.5-48.2c0.8-15.1,1.1-30.2,0.9-45.3c-0.3-16.7-1.4-33.4-5-49.8
		c-1.6-7.1-3.4-13.8-6.9-20.3c-3.3-6.1-7.6-10.3-13.6-13.8c-13.2-7.6-29.2-9.5-44.2-9.4c-5.3,0-10.5,0.3-15.8,0.9
		c-4.2,0.5-8.4,0.5-12.5,1.8c-5.2,1.6-11.1,4.5-15,8.4c-5.3,5.3-8.7,13.8-11.1,20.7c-4.9,14-7,28.4-8.4,43.1
		c-2.1,23-4.3,45.8-4.1,69c0.1,7.7-0.9,15.4-1.5,23c-0.6,7.1-1.4,13.8-3.7,20.7c0,0.1,0,0.2,0,0.2c0,0.1,0.2,0.1,0.5,0
		c10.7-4.1,22.9-5.6,34.3-5.3c9.1,0.2,16.8,2.9,25.4,5.1c11.7,3,23.7,4.8,35.7,6c9.1,0.9,18.3,1.5,27.4,0.2c6.9-1,14.1-2.6,20.4-5.8
		c0.2-0.1,0.5-0.2,0.7-0.3C1520.5,1353.2,1521.5,1352.6,1521.2,1352.3z"/>
	<g>
		<g id="XMLID_8_">
			<g>
				<path fill="#312F49" d="M1521.2,1352.3c0.2,0.3-0.7,0.9-0.9,1c-0.2,0.1-0.5,0.2-0.7,0.3l-0.1-0.2c0.3-0.3,0.6-0.7,0.9-1
					c-0.4,0.2-0.8,0.4-1.2,0.6c-9.7-13.2-4.9-34.9-4.2-49.7c0.8-16.8,1.2-33.8,0.6-50.6c-0.5-15.4-1.9-30.5-5.4-45.5
					c-1.7-7.4-4.2-14.3-8.2-20.9c-3.5-5.7-9.7-9.5-15.6-12.2c-13.4-6.2-28.9-7.6-43.5-7.2c-10.4,0.3-22.9,0.8-31.9,6.2
					c-7.3,4.4-10.9,11.7-14.2,19.4c-3.2,7.7-5.5,15.8-7,24c-3.2,16.9-4.6,34.7-5.8,51.9c-1,14.6-0.8,29.1-1.2,43.7
					c-0.2,8.3-1.3,16.6-2.1,24.8c-0.5,5.2-1.6,10.3-3.2,15.3c-0.3,0.1-0.5,0.2-0.7,0.3c-0.4,0.1-1.1,0.8-1,1.1
					c-0.1,0-0.1-0.1-0.1-0.2c2.2-6.9,3.1-13.6,3.7-20.7c0.7-7.7,1.6-15.3,1.5-23c-0.3-23.2,2-46,4.1-69c1.3-14.7,3.4-29.1,8.4-43.1
					c2.4-6.9,5.9-15.4,11.1-20.7c3.9-3.9,9.8-6.8,15-8.4c4-1.3,8.3-1.3,12.5-1.8c5.2-0.6,10.5-0.9,15.8-0.9c14.9,0,31,1.9,44.2,9.4
					c6,3.5,10.4,7.6,13.6,13.8c3.4,6.5,5.3,13.2,6.9,20.3c3.6,16.3,4.7,33,5,49.8c0.2,15.1-0.1,30.3-0.8,45.3
					C1516,1318.6,1511.4,1339.5,1521.2,1352.3z"/>
				<path fill="#312F49" d="M1520.4,1352.4c-0.3,0.3-0.6,0.7-0.9,1c-0.1-0.1-0.2-0.3-0.3-0.4
					C1519.6,1352.8,1520,1352.6,1520.4,1352.4z"/>
				<path fill="#312F49" d="M1519.6,1353.4l0.1,0.2c-6.3,3.1-13.5,4.8-20.4,5.8c-9.2,1.3-18.3,0.7-27.4-0.2c-12-1.2-24-3-35.7-6
					c-8.6-2.2-16.3-4.9-25.4-5.1c-11.4-0.3-23.6,1.3-34.3,5.3c-0.4,0.1-0.5,0.1-0.5,0c0.3,0.2,1.5-0.5,1.6-0.9
					c0.1-0.2,0.1-0.3,0.2-0.5c10.6-3.9,22.3-5.4,33.5-5.2c7.6,0.1,14.6,1.7,21.8,3.9c12.4,3.8,25.6,5.7,38.5,7.1
					c15.8,1.7,33.1,2.4,47.8-4.8C1519.3,1353.1,1519.5,1353.2,1519.6,1353.4z"/>
				<path fill="#3E3A59" d="M1515.7,1252.7c0.6,16.8,0.2,33.8-0.6,50.6c-0.7,14.8-5.6,36.5,4.2,49.7c-14.7,7.2-32,6.4-47.8,4.8
					c-12.9-1.3-26-3.3-38.5-7.1c-7.2-2.2-14.2-3.8-21.8-3.9c-11.2-0.1-23,1.4-33.5,5.2c1.6-5,2.7-10.1,3.2-15.3
					c0.7-8.2,1.8-16.5,2.1-24.8c0.4-14.6,0.2-29.1,1.2-43.7c1.2-17.2,2.6-34.9,5.8-51.9c1.5-8.2,3.8-16.3,7-24
					c3.3-7.8,6.8-15,14.2-19.4c9-5.4,21.5-5.9,31.9-6.2c14.7-0.4,30.1,1,43.5,7.2c5.9,2.8,12.1,6.6,15.6,12.2
					c4,6.6,6.5,13.5,8.2,20.9C1513.8,1222.2,1515.1,1237.3,1515.7,1252.7z"/>
				<path fill="#312F49" d="M1377,1352.3c0.2-0.1,0.5-0.2,0.7-0.3c0,0.2-0.1,0.3-0.2,0.5c-0.1,0.4-1.3,1-1.6,0.9
					C1375.9,1353.1,1376.6,1352.4,1377,1352.3z"/>
			</g>
		</g>
	</g>
	<g id="pupil_copy_2">
	</g>
	<g id="pupil_4_">
	</g>
</g>
<g id="ch05-07-1">
	<g id="main_x5F_comp_1_">
		<g id="hand_washing_copy">
		</g>
	</g>
	<g id="assets">
	</g>
	<g id="hand_washing">
	</g>
</g>
</svg>
