<?xml version="1.0" encoding="utf-8"?>
<!-- Generator: Adobe Illustrator 18.1.1, SVG Export Plug-In . SVG Version: 6.00 Build 0)  -->
<svg version="1.1" xmlns="http://www.w3.org/2000/svg" xmlns:xlink="http://www.w3.org/1999/xlink" x="0px" y="0px"
	 viewBox="1276.1 1940.5 45.7 38.7" enable-background="new 1276.1 1940.5 45.7 38.7" xml:space="preserve">
<g id="additional_reference">
</g>
<g id="ch07-09-1">
</g>
<g id="ch04-05-1">
</g>
<g id="ch04-11-2">
</g>
<g id="ch04-06-1">
	<g id="older_version">
		<g id="head_3_" display="none">
			<g id="hair_3_">
			</g>
		</g>
		<g id="hands" display="none">
		</g>
		<g id="head_4_" display="none">
		</g>
		<g id="new_path" display="none">
		</g>
		<g id="handback" display="none">
		</g>
		<g id="handFront">
		</g>
		<g id="Layer_21" display="none">
		</g>
	</g>
	<g id="path_copy-with_stroke">
		<g id="handBack_copy">
		</g>
		<g id="head_copy">
		</g>
		<g id="neck_copy">
		</g>
		<g id="sleeve_copy">
		</g>
		<g id="handFront_copy">
		</g>
		<g id="skirt_copy">
		</g>
		<g id="torso_copy">
		</g>
	</g>
	<g id="comp_layer">
		<g id="skirt_copy_3">
			<g id="skirt_copy_3_2_">
			</g>
			<g id="skirt_copy_3_1_">
			</g>
		</g>
		<g id="torso_copy_2">
		</g>
		<g id="sleeve_copy_2">
		</g>
		<g id="neck_5_">
		</g>
		<g id="head_copy_2">
			<g id="head-silo_copy">
			</g>
		</g>
		<g id="head_copy_3">
			<g id="head-silo_copy_2">
			</g>
		</g>
		<g id="handFront_copy_2">
		</g>
		<g id="handBack_copy_2">
		</g>
	</g>
	<g id="skirt_5_">
		<g id="skirt_4_">
		</g>
		<g id="skirt_copy_2">
		</g>
	</g>
	<g id="torso_copy_3">
	</g>
	<g id="sleeve">
	</g>
	<g id="neck_6_">
	</g>
	<g id="handBack">
	</g>
	<g id="handFront_1_">
	</g>
</g>
<g id="ch04-03-2">
	<g>
	</g>
	<g id="assets_2_">
		<g id="torso_x5F_34down_2_">
			<g id="XMLID_19_">
				<g>
				</g>
			</g>
		</g>
	</g>
	<path fill="#734E27" d="M1316.3,1964.9c-0.1-0.3-0.2-0.5-0.3-0.8c-0.1-0.3-1.8,0.6-1.6,1c0.9,2.1,1,6-0.9,7.7c0,0,0,0,0,0
		c-10.8-0.5-28.3-3.9-29.1-16.5c0-0.3-0.9,0-1.3,0.4c-0.6-1.3-2.9-6.1-5.5-2.1c-3,4.6-2.8,19.6,17.6,23.3
		c20.4,3.8,25.8-2.1,25.8-7.6C1321,1965.1,1317.2,1961.9,1316.3,1964.9z"/>
	<g>
		<g id="XMLID_72_">
			<g>
				<path fill="#734E27" d="M1314.7,1974c0.4,0,1.8-1.1,1.2-1.1c-0.5,0-0.9,0-1.4,0c0,0,0,0,0,0c2.1-1.9,2.7-5.2,1.9-7.9
					c0,0,0,0,0,0c0.9-3,4.7,0.2,4.6,5.5c-0.1,5.5-5.4,11.3-25.8,7.6c-20.4-3.8-20.6-18.8-17.6-23.3c2.6-4,5,0.8,5.5,2.1
					c-0.2,0.1-0.3,0.3-0.3,0.4C1283.7,1971,1304.1,1973.9,1314.7,1974z"/>
				<path d="M1315.9,1972.9c0.5,0-0.8,1.1-1.2,1.1c-10.6-0.1-31-3-31.9-16.8c0-0.1,0.1-0.3,0.3-0.4c0.5-0.4,1.3-0.7,1.3-0.4
					c0.8,12.6,18.4,16,29.1,16.5c0,0,0,0,0,0c0.3,0,0.6,0,0.9,0c0,0,0,0,0,0C1315,1972.9,1315.4,1972.9,1315.9,1972.9z"/>
				<path fill="#734E27" d="M1316.3,1964.9c0.8,2.8,0.2,6-1.9,7.9c-0.3-0.1-0.6-0.1-0.9,0c2-1.7,1.8-5.6,0.9-7.7
					c-0.2-0.4,1.5-1.3,1.6-1C1316.2,1964.4,1316.3,1964.7,1316.3,1964.9C1316.3,1964.9,1316.3,1964.9,1316.3,1964.9z"/>
			</g>
		</g>
	</g>
</g>
<g id="ch04-02-2_safe_copy" display="none">
	<g id="mainComp_x5F_paths-back-up_copy">
		<g id="eye_x5F_close_x5F_comp_copy_2_1_" display="inline">
		</g>
		<g id="eye_x5F_far_x5F_comp_copy_2_1_" display="inline">
		</g>
	</g>
	<g id="mainComp_copy" display="inline">
		<g id="eye_x5F_close_x5F_comp_copy_2">
		</g>
		<g id="eye_x5F_far_x5F_comp_copy_2">
		</g>
	</g>
	<g id="eye_x5F_close_copy" display="inline">
	</g>
	<g id="eye_x5F_far_copy" display="inline">
	</g>
	<g id="pupil_copy" display="inline">
	</g>
</g>
<g id="ch04-02-1">
	<g id="mainComp_x5F_paths-back-up" display="none">
		<g id="eye_x5F_close_x5F_comp_copy" display="inline">
		</g>
		<g id="eye_x5F_far_x5F_comp_copy" display="inline">
		</g>
	</g>
	<g id="mainComp">
		<g id="eye_x5F_close_x5F_comp">
		</g>
		<g id="eye_x5F_far_x5F_comp">
		</g>
	</g>
	<g id="eye_x5F_close_copy_2">
	</g>
	<g id="eye_x5F_close">
	</g>
	<g id="eye_x5F_far_copy_2">
	</g>
	<g id="eye_x5F_far">
	</g>
	<g id="pupil_copy_2">
	</g>
	<g id="pupil_4_">
	</g>
</g>
<g id="ch05-07-1">
	<g id="main_x5F_comp_1_">
		<g id="hand_washing_copy">
		</g>
	</g>
	<g id="assets">
	</g>
	<g id="hand_washing">
	</g>
</g>
</svg>
