<?xml version="1.0" encoding="utf-8"?>
<!-- Generator: Adobe Illustrator 18.1.1, SVG Export Plug-In . SVG Version: 6.00 Build 0)  -->
<svg version="1.1" xmlns="http://www.w3.org/2000/svg" xmlns:xlink="http://www.w3.org/1999/xlink" x="0px" y="0px"
	 viewBox="1372.9 1940.9 30 37.9" enable-background="new 1372.9 1940.9 30 37.9" xml:space="preserve">
<g id="additional_reference">
</g>
<g id="ch07-09-1">
</g>
<g id="ch04-05-1">
</g>
<g id="ch04-11-2">
</g>
<g id="ch04-06-1">
	<g id="older_version">
		<g id="head_3_" display="none">
			<g id="hair_3_">
			</g>
		</g>
		<g id="hands" display="none">
		</g>
		<g id="head_4_" display="none">
		</g>
		<g id="new_path" display="none">
		</g>
		<g id="handback" display="none">
		</g>
		<g id="handFront">
		</g>
		<g id="Layer_21" display="none">
		</g>
	</g>
	<g id="path_copy-with_stroke">
		<g id="handBack_copy">
		</g>
		<g id="head_copy">
		</g>
		<g id="neck_copy">
		</g>
		<g id="sleeve_copy">
		</g>
		<g id="handFront_copy">
		</g>
		<g id="skirt_copy">
		</g>
		<g id="torso_copy">
		</g>
	</g>
	<g id="comp_layer">
		<g id="skirt_copy_3">
			<g id="skirt_copy_3_2_">
			</g>
			<g id="skirt_copy_3_1_">
			</g>
		</g>
		<g id="torso_copy_2">
		</g>
		<g id="sleeve_copy_2">
		</g>
		<g id="neck_5_">
		</g>
		<g id="head_copy_2">
			<g id="head-silo_copy">
			</g>
		</g>
		<g id="head_copy_3">
			<g id="head-silo_copy_2">
			</g>
		</g>
		<g id="handFront_copy_2">
		</g>
		<g id="handBack_copy_2">
		</g>
	</g>
	<g id="skirt_5_">
		<g id="skirt_4_">
		</g>
		<g id="skirt_copy_2">
		</g>
	</g>
	<g id="torso_copy_3">
	</g>
	<g id="sleeve">
	</g>
	<g id="neck_6_">
	</g>
	<g id="handBack">
	</g>
	<g id="handFront_1_">
	</g>
</g>
<g id="ch04-03-2">
	<g>
	</g>
	<g id="assets_2_">
		<g id="torso_x5F_34down_2_">
			<g id="XMLID_19_">
				<g>
				</g>
			</g>
		</g>
	</g>
	<path fill="#734E27" d="M1399.9,1956.2c0.2-1.2,0.6-2.3,0.8-3.5c0.2-1.2,0.1-2.4-0.5-3.5c-0.6-1-2.1-0.6-2.8,0.4
		c-0.6,0.9-0.6,2.7-0.5,4.3c-0.5,0.2-1,0.6-1,0.9c1.9,7.1-6.8,16.6-14.3,16.3c0,0-0.1,0-0.1,0c-2.9-1.6-2.6-5.6-1.8-8.4
		c0.1-0.2-1.5,0.3-1.6,0.8c0,0,0,0.1,0,0.1c-0.3-0.4-0.8-0.6-1.3-0.7c-1.2,0-2,1.2-2.5,2.3c-0.5,1-1,2.1-1.2,3.2
		c-0.6,3.2,1.5,6.5,4.3,8.3c3.2,2.1,7.4,2.7,11.1,1.4c1.9-0.6,3.6-1.7,5.2-2.8c1.2-0.8,2.3-1.7,3.4-2.6c0.7-0.6,1.4-1.1,1.8-1.9
		c0.4-0.8,1.1-1.7,1.2-2.6c0.2-2.3-0.2-4.2-0.2-6.5c0-1.4-0.2-3.1-0.1-4.6C1399.8,1956.8,1399.8,1956.5,1399.9,1956.2z"/>
	<g id="eye_x5F_34down_x5F_far_x5F_lowerlid_1_">
		<g id="XMLID_34_">
			<g>
				<path fill="#734E27" d="M1381.6,1971c-1.2-0.1-2.4-0.4-3.5-1c0,0,0.1,0,0.1,0c0,0,0,0,0.1,0c-0.9-1.9-0.6-4.5-0.1-6.6
					c0,0,0-0.1,0-0.1c0.1-0.5,1.7-1.1,1.6-0.8C1379.1,1965.4,1378.7,1969.4,1381.6,1971z"/>
				<path d="M1378.2,1970.1c1.1,0.5,2.3,0.9,3.5,1c0,0,0.1,0,0.1,0c7.5,0.3,16.2-9.1,14.3-16.3c-0.1-0.3,0.5-0.7,1-0.9
					c0.3-0.1,0.6-0.2,0.6-0.1c0.3,1,0.3,2.1,0.2,3.1c-0.8,7.3-9.7,15.5-17.1,15.3c-0.1,0-0.2,0.1-0.3,0c0,0,0,0-0.1,0
					c-1.3-0.1-2.5-0.4-3.6-1.1C1376.4,1971,1377.7,1970,1378.2,1970.1C1378.1,1970.1,1378.2,1970.1,1378.2,1970.1z"/>
				<path fill="#734E27" d="M1399.9,1956.2c-0.1,0.3-0.1,0.7-0.1,1c-0.1,1.5,0.1,3.2,0.1,4.6c0,2.3,0.4,4.2,0.2,6.5
					c-0.1,0.9-0.8,1.8-1.2,2.6c-0.4,0.8-1.1,1.4-1.8,1.9c-1.1,0.9-2.3,1.8-3.5,2.6c-1.6,1.1-3.3,2.2-5.2,2.8
					c-3.7,1.2-7.9,0.7-11.1-1.4c-2.8-1.8-4.8-5-4.3-8.3c0.2-1.1,0.7-2.2,1.2-3.2c0.5-1.1,1.3-2.3,2.5-2.3c0.5,0,1,0.3,1.3,0.7
					c-0.5,2.1-0.8,4.7,0.1,6.6c0,0,0,0-0.1,0c0,0,0,0-0.1,0c0,0,0,0,0,0c-0.5-0.1-1.7,0.9-1.4,1.1c1.1,0.6,2.3,1,3.6,1.1
					c0,0,0,0,0.1,0c0.1,0,0.2,0,0.3,0c7.4,0.2,16.3-8,17.1-15.3c0.1-1.1,0.1-2.1-0.2-3.1c0-0.1-0.3,0-0.6,0.1
					c-0.1-1.6-0.1-3.4,0.5-4.3c0.6-1,2.1-1.4,2.8-0.4c0.6,1,0.7,2.3,0.5,3.5C1400.5,1953.9,1400.1,1955,1399.9,1956.2z"/>
			</g>
		</g>
	</g>
</g>
<g id="ch04-02-2_safe_copy" display="none">
	<g id="mainComp_x5F_paths-back-up_copy">
		<g id="eye_x5F_close_x5F_comp_copy_2_1_" display="inline">
		</g>
		<g id="eye_x5F_far_x5F_comp_copy_2_1_" display="inline">
		</g>
	</g>
	<g id="mainComp_copy" display="inline">
		<g id="eye_x5F_close_x5F_comp_copy_2">
		</g>
		<g id="eye_x5F_far_x5F_comp_copy_2">
		</g>
	</g>
	<g id="eye_x5F_close_copy" display="inline">
	</g>
	<g id="eye_x5F_far_copy" display="inline">
	</g>
	<g id="pupil_copy" display="inline">
	</g>
</g>
<g id="ch04-02-1">
	<g id="mainComp_x5F_paths-back-up" display="none">
		<g id="eye_x5F_close_x5F_comp_copy" display="inline">
		</g>
		<g id="eye_x5F_far_x5F_comp_copy" display="inline">
		</g>
	</g>
	<g id="mainComp">
		<g id="eye_x5F_close_x5F_comp">
		</g>
		<g id="eye_x5F_far_x5F_comp">
		</g>
	</g>
	<g id="eye_x5F_close_copy_2">
	</g>
	<g id="eye_x5F_close">
	</g>
	<g id="eye_x5F_far_copy_2">
	</g>
	<g id="eye_x5F_far">
	</g>
	<g id="pupil_copy_2">
	</g>
	<g id="pupil_4_">
	</g>
</g>
<g id="ch05-07-1">
	<g id="main_x5F_comp_1_">
		<g id="hand_washing_copy">
		</g>
	</g>
	<g id="assets">
	</g>
	<g id="hand_washing">
	</g>
</g>
</svg>
