<?xml version="1.0" encoding="utf-8"?>
<!-- Generator: Adobe Illustrator 18.1.1, SVG Export Plug-In . SVG Version: 6.00 Build 0)  -->
<svg version="1.1" xmlns="http://www.w3.org/2000/svg" xmlns:xlink="http://www.w3.org/1999/xlink" x="0px" y="0px"
	 viewBox="1276.1 1878.5 45.7 38.7" enable-background="new 1276.1 1878.5 45.7 38.7" xml:space="preserve">
<g id="additional_reference">
</g>
<g id="ch07-09-1">
</g>
<g id="ch04-05-1">
</g>
<g id="ch04-11-2">
</g>
<g id="ch04-06-1">
	<g id="older_version">
		<g id="head_3_" display="none">
			<g id="hair_3_">
			</g>
		</g>
		<g id="hands" display="none">
		</g>
		<g id="head_4_" display="none">
		</g>
		<g id="new_path" display="none">
		</g>
		<g id="handback" display="none">
		</g>
		<g id="handFront">
		</g>
		<g id="Layer_21" display="none">
		</g>
	</g>
	<g id="path_copy-with_stroke">
		<g id="handBack_copy">
		</g>
		<g id="head_copy">
		</g>
		<g id="neck_copy">
		</g>
		<g id="sleeve_copy">
		</g>
		<g id="handFront_copy">
		</g>
		<g id="skirt_copy">
		</g>
		<g id="torso_copy">
		</g>
	</g>
	<g id="comp_layer">
		<g id="skirt_copy_3">
			<g id="skirt_copy_3_2_">
			</g>
			<g id="skirt_copy_3_1_">
			</g>
		</g>
		<g id="torso_copy_2">
		</g>
		<g id="sleeve_copy_2">
		</g>
		<g id="neck_5_">
		</g>
		<g id="head_copy_2">
			<g id="head-silo_copy">
			</g>
		</g>
		<g id="head_copy_3">
			<g id="head-silo_copy_2">
			</g>
		</g>
		<g id="handFront_copy_2">
		</g>
		<g id="handBack_copy_2">
		</g>
	</g>
	<g id="skirt_5_">
		<g id="skirt_4_">
		</g>
		<g id="skirt_copy_2">
		</g>
	</g>
	<g id="torso_copy_3">
	</g>
	<g id="sleeve">
	</g>
	<g id="neck_6_">
	</g>
	<g id="handBack">
	</g>
	<g id="handFront_1_">
	</g>
</g>
<g id="ch04-03-2">
	<g>
	</g>
	<g id="assets_2_">
		<g id="torso_x5F_34down_2_">
			<g id="XMLID_19_">
				<g>
				</g>
			</g>
		</g>
	</g>
	<path fill="#734E27" d="M1319.8,1886.5c-3.8-6.3-16.7-6.8-25.3-7.9c-8.6-1.1-14.3,5.1-14.3,5.1l-2.8,8.6c0,0,0.1,0,0.3,0.1
		c-0.5,0.3-0.9,0.8-0.7,0.9c12.8,4.8,32.4,0.8,41.3,13.6c0.2,0.2,0.8-0.1,1.2-0.4c1,1,1.6,1.6,1.6,1.6S1323.5,1892.8,1319.8,1886.5z
		"/>
	<g id="eye_close_3_">
		<g id="eye_x5F_34down_x5F_close_x5F_upperlid_1_">
			<path fill="#734E27" d="M1319.8,1886.5c-3.8-6.3-16.7-6.8-25.3-7.9c-8.6-1.1-14.3,5.1-14.3,5.1l-2.8,8.6c0,0,0.1,0,0.3,0.1
				c0.3-0.2,0.5-0.3,0.7-0.2c12.9,4.8,32.5,0.8,41.4,13.7c0.1,0.1-0.1,0.3-0.4,0.6c1,1,1.6,1.6,1.6,1.6S1323.5,1892.8,1319.8,1886.5
				z"/>
			<path d="M1319.7,1905.9c-8.9-12.9-28.5-8.9-41.4-13.7c-0.2-0.1-0.4,0-0.7,0.2c-0.5,0.3-0.9,0.8-0.7,0.9
				c12.8,4.8,32.4,0.8,41.3,13.6c0.1,0.2,0.8-0.1,1.2-0.4C1319.7,1906.3,1319.8,1906.1,1319.7,1905.9z"/>
			<path d="M1285.8,1891.3c4.7-1.2,10.1-1.8,14.9-0.7c4.7,1,8.6,4,12.4,6.7c0.4,0.3,1.8-0.9,1.6-1c-4.3-3.1-8.5-6.3-13.9-7
				c-4.7-0.7-9.5-0.2-14.1,1C1286.4,1890.3,1285,1891.5,1285.8,1891.3L1285.8,1891.3z"/>
		</g>
	</g>
</g>
<g id="ch04-02-2_safe_copy" display="none">
	<g id="mainComp_x5F_paths-back-up_copy">
		<g id="eye_x5F_close_x5F_comp_copy_2_1_" display="inline">
		</g>
		<g id="eye_x5F_far_x5F_comp_copy_2_1_" display="inline">
		</g>
	</g>
	<g id="mainComp_copy" display="inline">
		<g id="eye_x5F_close_x5F_comp_copy_2">
		</g>
		<g id="eye_x5F_far_x5F_comp_copy_2">
		</g>
	</g>
	<g id="eye_x5F_close_copy" display="inline">
	</g>
	<g id="eye_x5F_far_copy" display="inline">
	</g>
	<g id="pupil_copy" display="inline">
	</g>
</g>
<g id="ch04-02-1">
	<g id="mainComp_x5F_paths-back-up" display="none">
		<g id="eye_x5F_close_x5F_comp_copy" display="inline">
		</g>
		<g id="eye_x5F_far_x5F_comp_copy" display="inline">
		</g>
	</g>
	<g id="mainComp">
		<g id="eye_x5F_close_x5F_comp">
		</g>
		<g id="eye_x5F_far_x5F_comp">
		</g>
	</g>
	<g id="eye_x5F_close_copy_2">
	</g>
	<g id="eye_x5F_close">
	</g>
	<g id="eye_x5F_far_copy_2">
	</g>
	<g id="eye_x5F_far">
	</g>
	<g id="pupil_copy_2">
	</g>
	<g id="pupil_4_">
	</g>
</g>
<g id="ch05-07-1">
	<g id="main_x5F_comp_1_">
		<g id="hand_washing_copy">
		</g>
	</g>
	<g id="assets">
	</g>
	<g id="hand_washing">
	</g>
</g>
</svg>
