<?xml version="1.0" encoding="utf-8"?>
<!-- Generator: Adobe Illustrator 18.1.1, SVG Export Plug-In . SVG Version: 6.00 Build 0)  -->
<svg version="1.1" xmlns="http://www.w3.org/2000/svg" xmlns:xlink="http://www.w3.org/1999/xlink" x="0px" y="0px"
	 viewBox="0 0 200.9 192.7" enable-background="new 0 0 200.9 192.7" xml:space="preserve">
<g id="Layer_1">
	<g id="Layer_2_copy" display="none">
	</g>
	<g id="Layer_2_copy_2" display="none">
	</g>
	<g id="Layer_2" display="none">
	</g>
	<g id="basin_x5F_new">
	</g>
	<g id="basin_x5F_new_copy">
	</g>
	<g id="handle">
	</g>
	<g id="handle_copy">
	</g>
	<g id="Layer_3_copy">
	</g>
</g>
<g id="ch08-17-01">
	<g id="handle_1_">
	</g>
	<path fill="#725D07" d="M191.4,30.1c-2.4-1-4.9-1.4-7.5-1.5c0.2-0.2,0.1-0.5-0.5-0.4c-1.6,0.2-3.4-0.5-5-0.9c-1.7-0.5-3.4-1-5-1.9
		c-0.1-0.1-0.4-0.1-0.6,0c-0.3-0.4-0.6-0.9-1-1.2c-0.1-0.1-0.2-0.1-0.3,0c-1.2-0.9-2.7-1.3-4.3-1.5c0,0,0,0,0,0
		c-11.3-2.3-35.1-9.7-46.3-11.2c-0.4-0.1-1.8-0.1-1,0c-1.9,0.2-16.6,0.7-22.6,0.5c-0.8-0.2-1.5-0.3-2.3-0.5c0,0-0.1,0-0.1,0
		c0,0,0,0,0,0c-0.3-0.1-0.8,0.5-1,0.8l0,0c-0.9,2.5-1.8,4.9-2.8,7.4c-4.3,0.2-10.9,0.9-15.6,1.2c-7.3-2.6-15.4-6.2-22.9-7.6
		c-0.2,0-0.3,0-0.4,0.2c-0.4,0-1.2,0-2.2,0.1c-5.1,0.6-8.8,1.2-13.1,1.8c-1.1,0.1-2.5,0-3.4,0.7c-1.3,1.1-2.3,3.6-3.2,5.1
		c-0.6,1-2,3-2.4,3.4c-0.4,0.4-2.3,0.4-2.9,0.5c-1.4,0.2-2.9,0.4-4.3,0.6C14.6,26.4,9.3,27.9,5,32.6c-5,5.6-4.8,11.8-4.8,18.6
		c0.1,8.7,0.1,17.4,0.2,26.1c0.1,21.6,0.3,43.3,0.4,64.9c0,4.4,0,8.8,0.1,13.2c0.2,7.3,4.5,12.3,11.2,14.7c2,0.7,4,1.5,6,2.3
		c10.2,3.9,20.4,7.7,30.6,11.6c6.2,2.3,12.3,5,18.5,7.1c3.7,1.3,7.5,1.8,11.4,1.1c0.3,0,0.7-0.5,0.7-0.8c0.5,0,1.1,0,1.6-0.1
		c10.4-0.9,20.9-5.2,30.9-8.1c21.7-6.3,43.6-11.5,65.5-17c6.8-1.7,14.7-4.2,19.5-9.6c3.2-3.6,2.9-7.4,3.1-12.1
		c0.2-6.1,0.3-12.2,0.3-18.2c0.2-24-0.1-48,0.3-72.1C200.7,44.7,201.7,34.5,191.4,30.1z M136.2,92.1c-0.3,0.1-0.6,0.2-0.9,0.3
		c0.2-0.2,0.3-0.4,0.5-0.6C135.9,91.9,136.1,92,136.2,92.1z M147.9,33.3L147.9,33.3C147.9,33.3,147.9,33.3,147.9,33.3
		C147.9,33.3,147.9,33.3,147.9,33.3z M124.7,107.1c0,0.2,0,0.5,0,0.7c-0.1-0.1-0.2-0.1-0.3-0.2C124.5,107.4,124.6,107.3,124.7,107.1
		z M139.5,118.3c0.3-0.1,0.6-0.2,0.8-0.3c-0.2,0.2-0.3,0.4-0.5,0.6C139.8,118.4,139.7,118.4,139.5,118.3z M183.3,127
		C183.3,127,183.3,127,183.3,127C183.3,127,183.3,127,183.3,127c-0.5-0.4,0.5-1.3,1-1C184.7,126.4,183.8,127.3,183.3,127z
		 M151,103.2c0-0.2,0-0.5,0-0.7c0.1,0.1,0.2,0.1,0.3,0.2C151.3,102.9,151.1,103.1,151,103.2z"/>
	<g>
		<g id="XMLID_12_">
			<g>
				<path fill="#725D07" d="M180.3,28.9c1.2-0.2,2.4-0.3,3.7-0.2c-0.1,0.2-0.4,0.3-0.7,0.4C182.4,29.1,181.3,29,180.3,28.9z"/>
				<path fill="#DBA110" d="M178.5,49.6c2,1.4,3.8,3,4.2,5.4c0.3,2.1-0.5,3.8-1.6,5.4c-5.2,7.3-10.5,14.5-15.8,21.7
					c-5,6.9-10,13.8-15.1,20.8c0,0-0.1,0.1-0.1,0.2l-5.2,0.1h0l33.2-46.3C180.2,53.9,181.5,51.7,178.5,49.6z"/>
				<path fill="#FFD700" d="M176.4,29.6c-0.7,0.2-1.3,0.5-1.7-0.4c-0.3-0.8-0.6-1.6-1.1-2.4c2,0.9,4.3,1.7,6.6,2.1
					c-0.5,0.1-1.1,0.2-1.6,0.3C178.4,29.2,176.3,29.6,176.4,29.6z"/>
				<path fill="#725D07" d="M173.5,25.4c1.6,0.9,3.3,1.5,5,1.9c1.6,0.4,3.4,1.1,5,0.9c0.6-0.1,0.7,0.2,0.5,0.4
					c-1.2,0-2.5,0.1-3.7,0.2c-2.3-0.3-4.6-1.1-6.6-2.1c-0.2-0.5-0.5-1-0.8-1.4C173.1,25.3,173.3,25.3,173.5,25.4z"/>
				<path fill="#725D07" d="M172.3,25.7c0.3,0.3,0.5,0.6,0.7,0.8c-0.3-0.1-0.5-0.3-0.7-0.4C172.1,26,172.1,25.8,172.3,25.7z"/>
				<path fill="#725D07" d="M172.9,25.4c0,0-0.1,0-0.1,0c0-0.1,0-0.2-0.1-0.3c-0.3-0.4-0.7-0.7-1-1c0.1,0,0.2,0,0.3,0
					C172.2,24.6,172.6,25,172.9,25.4z"/>
				<path fill="#725D07" d="M172.7,25.4c0,0.2-0.1,0.4-0.3,0.2c0,0,0,0,0,0C172.5,25.5,172.6,25.5,172.7,25.4z"/>
				<path fill="#725D07" d="M173,26.5c-0.2-0.3-0.4-0.5-0.7-0.8c0,0,0,0,0,0c0,0,0,0,0,0c0.2,0.2,0.3,0,0.3-0.2c0,0,0.1,0,0.1,0
					c0.3,0.4,0.6,0.9,0.8,1.4C173.5,26.7,173.3,26.6,173,26.5z"/>
				<path fill="#725D07" d="M172.3,25.7c-0.2-0.2-0.4-0.4-0.6-0.7C171.9,25.2,172.2,25.4,172.3,25.7
					C172.4,25.6,172.4,25.6,172.3,25.7z"/>
				<path fill="#725D07" d="M171.6,24.1c0.4,0.3,0.7,0.6,1,1c0.1,0.1,0.1,0.2,0.1,0.3c-0.1,0-0.3,0.1-0.4,0.2
					c-0.2-0.2-0.4-0.5-0.7-0.6c-0.1-0.2-0.3-0.3-0.5-0.5C171.1,24.3,171.3,24.2,171.6,24.1z"/>
				<path fill="#725D07" d="M171.2,24.5c0.2,0.2,0.4,0.4,0.5,0.5c-1.2-0.9-2.7-1.4-4.3-1.6c0.5-0.2,0.9-0.5,0.4-0.7
					c-0.1,0-0.3-0.1-0.4-0.1c1.6,0.2,3.1,0.6,4.3,1.5C171.3,24.2,171.1,24.3,171.2,24.5z"/>
				<path fill="#725D07" d="M167.7,22.7c0.6,0.1,0.1,0.5-0.4,0.7c-0.4,0-0.8-0.1-1.2-0.1c0,0,0,0,0,0c-0.8-0.2-1.5-0.4-2.3-0.6
					c1.1-0.1,2.3-0.1,3.4,0c0,0,0,0,0,0C167.4,22.7,167.6,22.7,167.7,22.7z"/>
				<path fill="#725D07" d="M167.4,23.4c-0.2,0.1-0.4,0.1-0.5,0.1c-0.2-0.1-0.4-0.1-0.7-0.2C166.6,23.3,167,23.3,167.4,23.4z"/>
				<path fill="#725D07" d="M162.4,23.4c-2.3,0.2-6.1,0.7-7.8,2.4c-0.2,0.2-1.2,0.3-1.4,0.2c0,0,0-0.1,0-0.1c2-1.9,5.4-2.5,8.1-2.9
					c0.8-0.1,1.7-0.2,2.6-0.3c0,0,0,0,0,0c0.7,0.2,1.5,0.4,2.3,0.6C164.8,23.2,163.5,23.3,162.4,23.4z"/>
				<path fill="#DBA110" d="M180,128.6c-6.3-4.6-32-23.2-35.1-25.4v0l5.2-0.1c-0.1,0.2-0.2,0.4,0.1,0.5c11,7.8,22.1,15.6,33.1,23.3
					c0,0,0,0,0,0c0,0,0,0,0,0c3.4,2.7,3.2,6.6,0.8,9.9c-2.1,2.9-4.3,5.8-8.4,4.7c-1.3-0.4-2.6-1.2-3.8-2.1c2.5,0.5,5.3-0.4,6.9-2.7
					C180.7,134,184.6,131.9,180,128.6z"/>
				<path fill="#725D07" d="M152.2,27.9c-0.7,0.9-1.2,1.9-1.8,2.8c-0.5,0.9-1.2,2-1.2,3.1c0,0.1-0.1,0.3-0.2,0.3
					c-0.3-0.3-0.8-0.7-1.2-0.8v0c0.2-0.7,0.6-1.4,0.9-2c0.6-1.2,1.3-2.3,2.1-3.4c0.1-0.2,0.6-0.3,1-0.3
					C152.1,27.5,152.4,27.6,152.2,27.9z"/>
				<path fill="#725D07" d="M147.9,33.3c0.4,0.2,0.9,0.6,1.2,0.8c-0.2,0.1-0.4,0.2-0.7,0.3c-0.3,0-0.6,0-0.6-0.2
					C147.8,33.9,147.8,33.6,147.9,33.3z"/>
				<path fill="#FFD700" d="M144.9,103.2c3.1,2.2,28.8,20.8,35.1,25.4c4.6,3.3,0.7,5.4-1.2,8.2c-1.6,2.4-4.3,3.3-6.9,2.7
					c-0.9-0.7-1.8-1.4-2.6-1.9c-7.5-5.3-15-10.6-22.4-15.8c-2.1-1.5-4.3-3-6.5-4.5c0,0-0.1,0-0.2,0v0l-4.7-1.8l-30.6,41.9
					c-2,2.8-5.8,3.6-8.8,2c-1.4-1.1-2.5-2.5-2.8-4.4c-0.3-2.1,0.5-3.8,1.6-5.4c5.2-7.2,10.4-14.4,15.6-21.5
					c5-6.9,9.9-13.7,14.9-20.6c0.2-0.2,0.3-0.5,0-0.7c-14.4-10.2-28.8-20.3-43.3-30.5c-3.8-2.7-7.1-5.9-4-10.9c0.6-1,1.3-2,2.1-2.9
					c1.9-1.1,4.8-1.4,8.5,0.9c1,0.7,41.3,29.2,41.3,29.2l5,0.6c0,0,0.1,0,0.1,0.1c0.3,0.2,0.7-0.2,0.9-0.4
					c9.9-13.6,19.8-27.3,29.7-40.9c0.6-0.8,1.1-1.6,1.7-2.3c2.4-3,5.9-3.2,9-1.3c0.6,0.4,1.3,0.8,1.9,1.3c0,0,0,0,0.1,0
					c3,2.2,1.8,4.3-0.4,7.3L144.9,103.2L144.9,103.2L144.9,103.2z"/>
				<path fill="#725D07" d="M140.4,117.2c2.1,1.5,4.3,3,6.5,4.5c7.5,5.3,15,10.6,22.4,15.8c0.8,0.6,1.7,1.3,2.6,1.9
					c1.2,0.9,2.5,1.7,3.8,2.1c4.1,1.1,6.4-1.8,8.4-4.7c2.4-3.3,2.6-7.2-0.8-9.9c0.4,0.3,1.3-0.6,1-1c0,0,0,0,0,0
					c3.2,2.5,3.7,6.6,1.6,9.9c-1.2,1.9-2.7,4.3-4.5,5.6c-3.6,2.6-7.2,1.2-10.3-1c-3.7-2.6-7.5-5.3-11.2-7.9
					c-6.6-4.7-13.3-9.4-19.9-14c0.2-0.2,0.3-0.4,0.5-0.6c-0.3,0.1-0.6,0.2-0.8,0.3l-0.3-0.2c0.1-0.2,0.2-0.3,0.4-0.5
					c0.1-0.1,0.4-0.4,0.7-0.4C140.3,117.2,140.4,117.2,140.4,117.2z"/>
				<path fill="#DBA110" d="M135.6,115.4l4.7,1.8v0c-0.3,0-0.6,0.3-0.7,0.4c-0.1,0.2-0.2,0.3-0.4,0.5c-9.7,13.4-19.5,26.9-29.2,40.3
					c-0.5,0.7-1,1.4-1.5,2.1c-2.4,3-6.1,3.1-9.2,1.1c-1-0.7-2.2-1.4-3.1-2.2c3,1.6,6.8,0.8,8.8-2L135.6,115.4z"/>
				<path fill="#725D07" d="M148.4,34.5c-10,0.8-19.4,2-29.5,2.9l0-0.1c-0.1,0-0.2-0.5-0.3-0.6c0,0,0,0,0,0l0-0.1
					c9.4-0.9,19.3-2.1,29.4-3.3c0,0,0,0,0,0c-0.1,0.3-0.1,0.6-0.1,0.9c0,0.2,0.3,0.3,0.6,0.2L148.4,34.5z"/>
				<path fill="#FFD700" d="M107.5,29.5c-3-0.5-10.4-2-13.2-3c-5.2-1.8-11.8-3.2-17.1-5c4.8-0.2,9-0.6,13.9-0.8c0,0,0,0,0,0
					c16.2,3.2,32.4,6.4,48.6,9.7c0.2-0.1,0.5-0.2,0.7-0.3c0.1-0.3,0.4-0.5,0.7-0.3c0,0,0.1,0,0.1,0c0.2-0.1,0.3-0.1,0.5-0.2
					c-14.1-2.8-28.3-5.6-42.4-8.5c-2.4-0.5-4.8-1-7.2-1.4c0.9-2.4,1.8-4.7,2.7-7.1c17.6,3.4,35.1,6.8,52.7,10.2c0.1,0,0.1,0,0.2,0
					c0.6-0.3,1.2-0.6,1.9-0.8c-15.7-3-31.3-6.1-47-9.1c-1.7-0.3-3.3-0.6-5-1c6,0.2,20.7-0.3,22.6-0.5l18.3,4.7
					c10.2,2.7,16.3,4,25.6,6.5c-0.9,0.1-1.8,0.2-2.6,0.3c-2.6,0.4-6.1,1-8.1,2.9c-0.1,0.1-0.1,0.1,0,0.1l-1.4,1.5
					c-0.4,0-0.8,0.1-1,0.3c-0.8,1.1-1.5,2.2-2.1,3.4c-0.3,0.6-0.7,1.3-0.9,2c0,0,0,0,0,0c-10,1.2-20,2.4-29.4,3.3l0,0.1c0,0,0,0,0,0
					l-2.1,0.2c-1.2-2.8-2.3-4.9-3.7-6.1l-0.1,0c-0.2,0.2-0.4,0.5-0.3,0.5c0,0-0.1-0.1-0.1-0.1l-1.5-0.9c0-0.3,0.1-0.5,0.1-0.8h0
					C109.6,29.5,108.6,29.5,107.5,29.5C107.6,29.5,107.6,29.5,107.5,29.5z"/>
				<path fill="#725D07" d="M120,11.4c-0.8-0.1,0.5-0.1,1,0c11.2,1.5,35,8.9,46.3,11.2c-1.1-0.1-2.3-0.1-3.4,0c0,0,0,0,0,0
					c-9.2-2.5-15.4-3.8-25.6-6.5L120,11.4z"/>
				<path fill="#FFD700" d="M94.6,33.1L94.6,33.1c-0.2-0.2-0.4-0.2-0.6-0.4l0,0c-2.1,2.2-3.1,4.8-3.9,7.3
					C91.5,39.5,93.1,34.1,94.6,33.1z M8.1,38.8c15,4,28.1,10,43.1,14c2.1,0.6,4.2,1.1,6.4,1.7c0.4,0.1,1.3-0.9,0.9-1
					c-15-4-28.1-10-43.1-14c-2.1-0.6-4.3-1.1-6.4-1.7C8.7,37.7,7.8,38.7,8.1,38.8z M42.4,18c-0.7-0.2-1.5-0.4-2.2-0.6
					c-0.7,0.1-1.4,0.4-2.1,0.7c9.9,2.5,34.5,9.1,48.5,12.6c1,0.3,2.1,0.7,3.1,1c0.5-0.3,0.7-0.5,1.1-0.8
					C74.5,26.7,58.7,22.1,42.4,18z M75,21.5l0.2,0c0.9,0.3,1.7,0.7,2.6,1c7.5,2.7,18.5,5.8,26.4,7.2c-3,0.3-5.9,0.8-8.7,1.7l0,0
					c0.3,0.2,0.7,0.3,1,0.4c4.2-1.3,9.8-2.1,14.1-1.6l0.1,0l1.5,0.9c0,0,0.1,0.1,0.1,0.1c1.4,1.2,3.3,4.8,3.8,6.8
					c0.1-0.3,0.3-0.7,0.3-1.2l0.1,0l2.1-0.2c0.1,0.1,0.2,0.6,0.3,0.6l0,0.1c10.1-0.9,19.5-2.1,29.5-2.9l0-0.1c0.2,0,0.5-0.1,0.7-0.3
					c0.1-0.1,0.2-0.2,0.2-0.3c0-1,0.7-2.2,1.2-3.1c0.5-1,1.1-1.9,1.8-2.8c0.2-0.3-0.1-0.4-0.4-0.4l1.4-1.5c0.2,0.1,1.1,0,1.4-0.2
					c1.8-1.8,5.5-2.2,7.8-2.4c1.1-0.1,2.4-0.2,3.7-0.1c0,0,0,0,0,0c0.2,0.1,0.4,0.1,0.7,0.2c0.1,0,0.3,0,0.5-0.1
					c1.6,0.2,3.2,0.7,4.3,1.6c0.2,0.2,0.4,0.5,0.6,0.7c-0.2,0.1-0.3,0.3,0,0.4c0.2,0.1,0.5,0.3,0.7,0.4c0.6,0.8,1,1.6,1.5,3
					c0,0.1,0.7,0.7,0.8,0.7c9-2.7,22-0.9,24.2,10.1c1.7,8.3,0.2,17.7,0.1,26c-0.3,19.4,0.1,38.8,0,58.2c0,4.4-0.1,8.8-0.2,13.3
					c-0.1,5.3,1.1,12.7-2.1,17.3c-4.8,7-14.5,9.4-22.2,11.3c-17.9,4.4-35.8,8.5-53.5,13.6c-10.5,3-20.9,6.2-31.4,9
					c-6.7,1.8-13,2.9-19-1.4c-3-2.1-5.4-4.1-7.1-7.7c-0.1-0.2-1.1,0.3-1,0.5c1.2,3.5,4.8,6.2,8.4,8.3c2.1,1.3,4,2,6.2,2.3
					c-7.4,0.7-15.1-3.4-21.8-5.9c-10.1-3.8-20.2-7.7-30.3-11.5c-3.5-1.3-7-2.7-10.5-4c-3.3-1.3-6.6-2.3-9.1-5.1
					c-4.5-5-3.8-11.6-3.8-17.8C2,127.1,1.8,107.2,1.7,87.3C1.6,73,1.2,58.6,1.4,44.3C1.5,36,7.9,28.7,16.2,27.2c2-0.3,4-0.6,6-0.8
					c1.7-0.2,4.3-0.1,5.8-0.8c1.1-0.5,1.7-2.1,2.4-3.1c0.7-1.1,1.4-2.2,2.1-3.3c0.3-0.5,1.1-1.6,1.5-2.2c0.2-0.2,0.8-0.6,1.7-0.7
					c2.7-0.3,7-1.2,9.7-1.5c1.5-0.2,4.7-0.6,5.6-0.7c0.7-0.1,1.2-0.2,1.5-0.3h0c7,1.3,14.3,4.5,21.2,7.2C73.4,21,74.5,21.6,75,21.5z
					 M185.9,136c2.2-3.4,1.6-7.4-1.6-9.9c0,0,0,0,0,0c0,0,0,0-0.1-0.1c-11-7.7-21.9-15.5-32.9-23.2c10.2-14.1,20.5-28.1,30.6-42.2
					c2.7-3.8,2.5-8.2-1.5-11.1c-2.3-1.7-4.7-3.8-7.7-3.6c-2.4,0.1-4.5,1.4-6,3.2c-5.3,6.6-9.9,13.7-14.9,20.5
					c-5.4,7.4-10.8,14.8-16.1,22.2c-14.9-10.5-29.7-21.1-44.7-31.5c-3.9-2.7-8.4-2.3-11.4,1.6c-1.5,1.9-3.4,4.2-3.8,6.6
					c-0.5,2.8,0.8,5.3,3,7c7,5.4,14.5,10.2,21.7,15.3c7.9,5.6,15.9,11.2,23.8,16.8c-10.1,14-20.4,27.8-30.4,41.9
					c-2.7,3.8-2.5,8.1,1.4,11c2.1,1.6,4.3,3.5,7,3.7c2.7,0.2,5.1-1.2,6.7-3.2c5.2-6.5,9.8-13.4,14.6-20.1
					c5.4-7.4,10.8-14.8,16.1-22.3c6.6,4.7,13.3,9.4,19.9,14c3.7,2.6,7.5,5.3,11.2,7.9c3.2,2.2,6.7,3.6,10.3,1
					C183.2,140.2,184.7,137.9,185.9,136z M83.4,42.5c-0.6-0.3-1.2-0.5-1.8-0.7c-2.7,0.4-5.3,0.7-7.8,1.9
					c-6.4,2.8-10.9,8.8-11.9,15.6c0.4,0,0.8,0,1.2,0c0.9-7.3,6-13.7,13.4-15.6C78.7,43,81,42.8,83.4,42.5z M62.3,171h1.2
					c0-3-0.8-6.3-1-10.7C62,146.8,62,136.3,62,123.8c0.1-19.9-1-38.9,0.8-57.1c-0.4,0-0.8,0-1.2,0c-2.5,17.6-0.9,35.6-1,53.4
					C60.5,136.5,60.7,153.8,62.3,171z M58.8,179.7c0.4,0.1,0.9-0.4,0.5-0.5c-14.9-5.4-29.9-10.7-44.8-16.1c-2.2-0.8-4.3-1.6-6.5-2.3
					c-0.4-0.1-0.9,0.4-0.5,0.5c14.9,5.4,29.9,10.7,44.8,16.1C54.5,178.2,56.7,179,58.8,179.7z"/>
				<path fill="#725D07" d="M112.7,30.8c1.4,1.2,2.5,3.3,3.7,6.1l-0.1,0c0,0.5-0.2,0.9-0.3,1.2c-0.5-2-2.4-5.6-3.8-6.8
					c-0.1,0,0.1-0.4,0.3-0.5L112.7,30.8z"/>
				<path fill="#725D07" d="M107.5,29.5c-0.4,0.1-2.9,0.3-3.4,0.2C105.3,29.6,106.4,29.5,107.5,29.5z"/>
				<path fill="#725D07" d="M104.2,29.7c0.5,0,3-0.1,3.4-0.2c0,0,0,0,0,0c1.1,0,2.1,0,3.1,0h0c0,0.3-0.1,0.5-0.1,0.8l-0.1,0
					c-4.3-0.5-9.9,0.3-14.1,1.6c-0.4-0.1-0.7-0.2-1-0.4l0,0C98.2,30.6,101.2,30,104.2,29.7C104.1,29.7,104.1,29.7,104.2,29.7z"/>
				<path fill="#725D07" d="M99.2,21.1c14.2,2.8,28.3,5.6,42.4,8.5c-0.2,0.1-0.3,0.1-0.5,0.2c0,0-0.1,0-0.1,0
					c-0.3-0.2-0.6,0.1-0.7,0.3c-0.3,0.1-0.5,0.2-0.7,0.3c-16.2-3.2-32.4-6.4-48.6-9.7c0.4,0,0.8-0.5,0.9-0.8c0-0.1,0-0.1,0.1-0.2
					C94.4,20.1,96.8,20.6,99.2,21.1z"/>
				<path fill="#725D07" d="M94.7,12.6c0.1-0.4,0.3-0.7,0.4-1.1c0.8,0.2,1.6,0.3,2.3,0.5c1.7,0.3,3.4,0.7,5,1
					c15.7,3.1,31.3,6.1,47,9.1c-0.6,0.2-1.3,0.5-1.9,0.8c-0.1,0-0.1,0-0.2,0C129.8,19.4,112.3,16,94.7,12.6z"/>
				<path fill="#725D07" d="M93.9,12.3c0.1-0.3,0.7-0.9,1-0.8c0,0,0,0,0,0c0,0,0.1,0,0.1,0c-0.1,0.4-0.3,0.7-0.4,1.1
					c-0.2,0-0.5-0.1-0.7-0.1C93.9,12.4,93.9,12.3,93.9,12.3z"/>
				<path fill="#725D07" d="M90.1,40.1c0.8-2.5,1.8-5.1,3.9-7.3l0,0c0.2,0.1,0.4,0.2,0.6,0.3l0,0C93.1,34.1,91.5,39.5,90.1,40.1z"/>
				<path fill="#725D07" d="M91.8,19.6c-0.3,0.3-0.6,0.5-0.9,0.8c0-0.1,0-0.1,0.1-0.2c0.2-0.2,0.4-0.5,0.7-0.6h0
					C91.7,19.6,91.7,19.6,91.8,19.6z"/>
				<path fill="#725D07" d="M94,12.4c0.2,0,0.5,0.1,0.7,0.1c-0.9,2.4-1.8,4.7-2.7,7.1c-0.1,0-0.2,0-0.3-0.1c0,0-0.1,0-0.2,0h0
					c-0.1,0-0.3,0-0.4,0c0.9-2.5,1.8-4.9,2.8-7.4l0,0C93.9,12.3,93.9,12.4,94,12.4z"/>
				<path fill="#725D07" d="M91.6,19.6c-0.2,0.1-0.5,0.4-0.7,0.6c0.1-0.2,0.1-0.4,0.2-0.6C91.3,19.6,91.4,19.6,91.6,19.6z"/>
				<path fill="#725D07" d="M91.8,19.6c-0.1,0-0.1,0-0.2,0C91.6,19.6,91.7,19.6,91.8,19.6c0.1,0,0.2,0,0.3,0c0,0.1,0,0.1-0.1,0.2
					c-0.1,0.3-0.5,0.8-0.9,0.8c-0.1,0-0.2,0-0.3-0.1c-0.1,0,0-0.2,0.1-0.3c0,0.1,0,0.1-0.1,0.2C91.2,20.1,91.5,19.9,91.8,19.6z"/>
				<path fill="#DBA110" d="M130.2,92.5c0,0-40.3-28.5-41.3-29.2c-3.7-2.4-6.6-2.1-8.5-0.9c1.7-2,3.9-3.4,6.9-2.6
					c1.2,0.3,2.1,1,3.1,1.7c7.7,5.4,15.4,10.8,23.1,16.3c7.2,5.1,14.5,10.2,21.7,15.3L130.2,92.5z"/>
				<path fill="#725D07" d="M79.4,191.4c-0.6,0-1.1,0-1.7-0.1c0.4,0,0.9-0.1,1.3-0.2C79.3,191,79.4,191.2,79.4,191.4z"/>
				<path fill="#725D07" d="M94,149.5c10-14,20.3-27.9,30.4-41.9c0.1,0.1,0.2,0.1,0.3,0.2c0-0.2,0-0.5,0-0.7
					c-0.1,0.2-0.2,0.3-0.4,0.5c-7.9-5.6-15.9-11.2-23.8-16.8c-7.2-5.1-14.7-9.9-21.7-15.3c-2.2-1.7-3.5-4.2-3-7
					c0.4-2.4,2.4-4.7,3.8-6.6c3-3.9,7.5-4.3,11.4-1.6c15,10.4,29.8,21,44.7,31.5c-0.2,0.2-0.3,0.4-0.5,0.6c0.3-0.1,0.6-0.2,0.9-0.3
					c-0.1-0.1-0.3-0.2-0.4-0.3c5.4-7.4,10.7-14.8,16.1-22.2c4.9-6.8,9.6-13.9,14.9-20.5c1.5-1.9,3.5-3.1,6-3.2
					c3.1-0.1,5.4,1.9,7.7,3.6c4,2.9,4.2,7.3,1.5,11.1c-10.1,14.1-20.4,28.1-30.6,42.2c-0.1-0.1-0.2-0.1-0.3-0.2c0,0.2,0,0.5,0,0.7
					c0.1-0.2,0.2-0.3,0.4-0.5c11,7.7,21.9,15.5,32.9,23.2c0,0,0,0,0.1,0.1c-0.5-0.3-1.5,0.6-1.1,0.9c-11-7.8-22.1-15.6-33.1-23.3
					c-0.2-0.2-0.2-0.4-0.1-0.5c0-0.1,0.1-0.1,0.1-0.2c5-6.9,10-13.9,15.1-20.8c5.3-7.2,10.6-14.5,15.8-21.7c1.1-1.6,2-3.3,1.6-5.4
					c-0.4-2.4-2.2-4.1-4.2-5.4c0,0,0,0-0.1,0c-0.6-0.4-1.3-0.8-1.9-1.3c-3.1-2-6.6-1.7-9,1.3c-0.6,0.8-1.1,1.6-1.7,2.3
					c-9.9,13.6-19.8,27.3-29.7,40.9c-0.1,0.2-0.6,0.5-0.9,0.4c0,0-0.1,0-0.1-0.1c-7.2-5.1-14.5-10.2-21.7-15.3
					c-7.7-5.4-15.4-10.8-23.1-16.3c-1-0.7-1.9-1.3-3.1-1.7c-3-0.8-5.2,0.6-6.9,2.6c-0.8,0.9-1.5,1.9-2.1,2.9c-3.2,5,0.2,8.3,4,10.9
					c14.4,10.2,28.8,20.3,43.3,30.5c0.3,0.2,0.1,0.5,0,0.7c-5,6.9-9.9,13.7-14.9,20.6c-5.2,7.2-10.5,14.3-15.6,21.5
					c-1.1,1.6-2,3.3-1.6,5.4c0.3,1.9,1.4,3.2,2.8,4.4c1,0.8,2.1,1.5,3.1,2.2c3,2.1,6.7,2,9.2-1.1c0.5-0.7,1-1.4,1.5-2.1
					c9.7-13.4,19.5-26.9,29.2-40.3l0.3,0.2c0.1,0.1,0.3,0.2,0.4,0.3c-5.4,7.4-10.8,14.9-16.1,22.3c-4.9,6.7-9.4,13.7-14.6,20.1
					c-1.6,2-4,3.4-6.7,3.2c-2.7-0.1-5-2.1-7-3.7C91.5,157.6,91.3,153.2,94,149.5z"/>
				<path fill="#725D07" d="M77.2,21.4c-0.2-0.1-0.4-0.1-0.6-0.2c-0.4-0.1-0.7-0.3-1.1-0.4c4.7-0.3,11.3-1,15.6-1.2
					c-0.1,0.2-0.1,0.4-0.2,0.6c-0.1,0.2-0.2,0.3-0.1,0.3c0.1,0,0.2,0,0.3,0.1c0,0,0,0,0,0C86.2,20.8,82,21.2,77.2,21.4z"/>
				<path fill="#725D07" d="M94.3,26.4c2.9,1,10.2,2.5,13.2,3c0.1,0,0.1,0,0,0c0,0,0,0,0,0c-1.1,0-2.2,0.1-3.4,0.2c0,0,0,0,0,0
					c-7.8-1.4-18.9-4.6-26.4-7.2c-0.9-0.3-1.7-0.6-2.6-1l1.8-0.1c0.1,0,0.1,0,0.2,0C82.5,23.2,89.1,24.6,94.3,26.4z"/>
				<path fill="#725D07" d="M75,21.5c-0.5,0-1.6-0.5-1.4-0.6c0.5,0.2,1.1,0.4,1.6,0.6L75,21.5z"/>
				<path fill="#725D07" d="M75.2,21.5c-0.5-0.2-1-0.4-1.6-0.6c0,0,0,0,0,0c0.6,0,1.2-0.1,1.8-0.1c0.4,0.1,0.7,0.3,1.1,0.4
					c0.2,0.1,0.4,0.1,0.6,0.2c0,0-0.1,0-0.2,0L75.2,21.5z"/>
				<path fill="#725D07" d="M73.7,43.6c2.5-1.1,5.2-1.5,7.8-1.9c0.6,0.2,1.2,0.5,1.8,0.7c-2.3,0.3-4.7,0.5-6.9,1.1
					C69,45.5,63.9,52,63,59.3c-0.4,0-0.8,0-1.2,0C62.8,52.5,67.4,46.5,73.7,43.6z"/>
				<path fill="#725D07" d="M71.5,188.9c-3.6-2.2-7.2-4.8-8.4-8.3c-0.1-0.2,0.9-0.7,1-0.5c1.6,3.5,4.1,5.5,7.1,7.7
					c6,4.3,12.3,3.2,19,1.4c10.5-2.8,20.9-6,31.4-9c17.7-5.1,35.6-9.2,53.5-13.6c7.7-1.9,17.5-4.3,22.2-11.3c3.1-4.6,2-12,2.1-17.3
					c0.1-4.4,0.1-8.9,0.2-13.3c0.1-19.4-0.3-38.8,0-58.2c0.1-8.4,1.6-17.8-0.1-26c-2.2-11-15.2-12.8-24.2-10.1
					c-0.1,0-0.7-0.6-0.8-0.7c-0.4-1.4-0.8-2.2-1.5-3c0.2,0.1,0.4,0.2,0.7,0.3c0.4,0.8,0.8,1.6,1.1,2.4c0.3,0.9,1,0.6,1.7,0.4
					c-0.2,0,2-0.5,2.3-0.5c0.5-0.1,1.1-0.2,1.6-0.3c1,0.2,2,0.2,3,0.1c0.3,0,0.6-0.2,0.7-0.4c2.6,0,5.1,0.5,7.5,1.5
					c10.3,4.4,9.3,14.7,9.1,24.1c-0.4,24-0.1,48-0.3,72.1c0,6.1-0.1,12.2-0.3,18.2c-0.1,4.7,0.1,8.4-3.1,12.1
					c-4.8,5.5-12.7,7.9-19.5,9.6c-21.9,5.6-43.8,10.7-65.5,17c-10,2.9-20.5,7.2-30.9,8.1c-0.6,0-1.1,0.1-1.6,0.1
					c0-0.2-0.1-0.3-0.4-0.3c-0.4,0.1-0.9,0.1-1.3,0.2C75.6,191,73.6,190.2,71.5,188.9z"/>
				<path fill="#725D07" d="M62.8,66.6c-1.7,18.2-0.7,37.2-0.8,57.1c-0.1,12.6-0.1,23.1,0.5,36.5c0.2,4.4,1,7.7,1,10.7h-1.2
					c-1.6-17.2-1.7-34.4-1.7-50.9c0.1-17.8-1.5-35.8,1-53.4C62,66.6,62.4,66.6,62.8,66.6z"/>
				<path fill="#725D07" d="M42.4,18c16.2,4.1,32.1,8.7,48.3,12.8c-0.4,0.3-0.6,0.6-1.1,0.8c-1-0.2-2.1-0.7-3.1-1
					C72.7,27.1,48,20.6,38.1,18.1c0.7-0.3,1.4-0.5,2.1-0.7C40.9,17.6,41.7,17.8,42.4,18z"/>
				<path fill="#725D07" d="M73.6,20.9c-6.9-2.7-14.2-5.8-21.2-7.2h0c0.5-0.2,0.4-0.3-0.2-0.4c0.1-0.1,0.2-0.2,0.4-0.2
					c7.5,1.4,15.6,5,22.9,7.6C74.8,20.9,74.2,20.9,73.6,20.9C73.6,20.9,73.6,20.9,73.6,20.9z"/>
				<path fill="#725D07" d="M52.4,13.8c-0.3-0.1-0.3-0.2-0.2-0.4C52.8,13.4,52.9,13.6,52.4,13.8z"/>
				<path fill="#725D07" d="M51.3,52.8c-15-4-28.1-9.9-43.1-14c-0.3-0.1,0.6-1.1,1-1c2.1,0.6,4.2,1.1,6.4,1.7c15,4,28.1,9.9,43.1,14
					c0.4,0.1-0.5,1.1-0.9,1C55.5,53.9,53.4,53.3,51.3,52.8z"/>
				<path fill="#725D07" d="M52.4,177.4c-14.9-5.4-29.9-10.7-44.8-16.1c-0.4-0.1,0.1-0.6,0.5-0.5c2.2,0.8,4.3,1.5,6.5,2.3
					c14.9,5.4,29.8,10.7,44.8,16.1c0.4,0.1-0.1,0.7-0.5,0.5C56.7,179,54.5,178.2,52.4,177.4z"/>
				<path fill="#725D07" d="M16.2,27.2C7.9,28.7,1.5,36,1.4,44.3C1.2,58.6,1.6,73,1.7,87.3c0.1,19.9,0.3,39.8,0.4,59.6
					c0,6.2-0.7,12.8,3.8,17.8c2.5,2.7,5.8,3.8,9.1,5.1c3.5,1.3,7,2.7,10.5,4c10.1,3.8,20.2,7.7,30.3,11.5c6.7,2.6,14.5,6.6,21.8,5.9
					c0.5,0.1,1.1,0.1,1.7,0.1c0,0.3-0.4,0.8-0.7,0.8c-3.8,0.7-7.7,0.2-11.4-1.1c-6.2-2.1-12.4-4.7-18.5-7.1
					c-10.2-3.9-20.4-7.7-30.6-11.6c-2-0.8-4-1.5-6-2.3c-6.7-2.4-11-7.5-11.2-14.7c-0.1-4.4-0.1-8.8-0.1-13.2
					C0.7,120.6,0.6,99,0.4,77.3c0-8.7-0.1-17.4-0.2-26.1c0-6.8-0.2-13,4.8-18.6c4.2-4.7,9.6-6.3,15.7-7.1c1.4-0.2,2.8-0.4,4.3-0.6
					c0.6-0.1,2.4-0.1,2.9-0.5c0.4-0.4,1.8-2.4,2.4-3.4c0.9-1.4,1.9-4,3.2-5.1c0.9-0.7,2.3-0.6,3.4-0.7c4.4-0.6,8-1.1,13.1-1.8
					c1-0.1,1.8-0.2,2.2-0.1c-0.1,0.1-0.1,0.3,0.2,0.4c-0.3,0.1-0.8,0.2-1.5,0.3c-0.9,0.1-4.1,0.5-5.6,0.7c-2.7,0.4-7,1.2-9.7,1.5
					c-0.9,0.1-1.5,0.5-1.7,0.7c-0.4,0.6-1.2,1.8-1.5,2.2c-0.7,1.1-1.4,2.2-2.1,3.3c-0.6,1-1.2,2.6-2.4,3.1c-1.6,0.7-4.1,0.5-5.8,0.8
					C20.2,26.7,18.2,26.9,16.2,27.2z"/>
			</g>
		</g>
	</g>
	<g id="handle_copy_2">
	</g>
	<g id="handle_copy_3">
	</g>
</g>
</svg>
