<?xml version="1.0" encoding="utf-8"?>
<!-- Generator: Adobe Illustrator 18.1.1, SVG Export Plug-In . SVG Version: 6.00 Build 0)  -->
<svg version="1.1" xmlns="http://www.w3.org/2000/svg" xmlns:xlink="http://www.w3.org/1999/xlink" x="0px" y="0px"
	 viewBox="0 0 200.9 192.7" enable-background="new 0 0 200.9 192.7" xml:space="preserve">
<g id="Layer_1">
	<g id="Layer_2_copy" display="none">
	</g>
	<g id="Layer_2_copy_2" display="none">
	</g>
	<g id="Layer_2" display="none">
	</g>
	<g id="basin_x5F_new">
	</g>
	<g id="basin_x5F_new_copy">
	</g>
	<g id="handle">
	</g>
	<g id="handle_copy">
	</g>
	<g id="Layer_3_copy">
	</g>
</g>
<g id="ch08-17-01">
	<g id="handle_1_">
	</g>
	<g id="handle_copy_2">
		<g>
			<path fill="#725D07" d="M120.8,4.8c0.1-0.2-0.1-0.4-0.4-0.6c-10.4-5-21.8-5.4-32.6-0.8c-6.9,3-11.2,10-14.9,16.2
				c-0.1,0.1-0.2,0.2-0.2,0.2c0,0,0.1,0,0.1,0c0.2,0.1,0.5,0.2,0.7,0.2v0c4.6,1.5,9.2,3.1,13.8,4.6c0,0,0,0,0,0.1
				c-0.1,0.4,1.3,0.5,1.7,0.6c4.4,1.2,7.3,1.9,11.6,2.7c0.4,0.1,0.8-0.1,0.9-0.5c1.5-4.9,5.2-10.1,10.7-10.4
				c7.9-0.4,13.7,5.5,18.7,10.8c0.2,0.2,0.4,0.3,0.5,0.2c0.3,0,0.5-0.1,0.7-0.4C138.2,16.5,131.2,7.6,120.8,4.8z"/>
			<path fill="#725D07" d="M72.6,19.9C72.5,19.9,72.5,19.9,72.6,19.9L72.6,19.9z"/>
		</g>
	</g>
	<g id="handle_copy_3">
		<g>
			<g id="XMLID_13_">
				<g>
					<path fill="#725D07" d="M120.8,4.8c10.5,2.7,17.5,11.6,11.3,23c-0.2,0.3-0.4,0.4-0.7,0.4c0.3-0.1,0.4-0.8,0-1.3
						c-0.1-0.1-0.2-0.3-0.3-0.4c5.5-11-2.6-20-13.2-21.6c-8.7-1.3-18.3,1.5-24,8.4c-1.9,2.3-3.5,4.9-4.5,7.7c-0.2,0.5-1,3.1-1,3.2
						c0.1,0.2,0,0.3,0.3,0.5l-0.1,0.1c-0.1-0.1-0.3-0.2-0.5-0.3c-0.3-0.1-0.5-0.2-0.7-0.3c3.3-13.8,15.7-21.7,29.9-19.9
						c0.4,0.1,0.9,0.1,1.3,0.2c0.4,0.2,0.8,0.4,1.2,0.5C120.4,5.2,120.7,5.1,120.8,4.8z"/>
					<path fill="#725D07" d="M131.4,26.8c0.4,0.5,0.3,1.2,0,1.3c-0.5,0-0.9-0.5-0.6-1.1c0.1-0.2,0.2-0.4,0.3-0.6
						C131.2,26.5,131.3,26.7,131.4,26.8z"/>
					<path fill="#725D07" d="M131.4,28.2c-0.1,0.1-0.3,0-0.5-0.2c-4.9-5.3-10.8-11.2-18.7-10.8c-5.6,0.3-9.2,5.5-10.7,10.4
						c-0.1,0.4-0.5,0.6-0.9,0.5c-4.3-0.8-7.2-1.5-11.6-2.7c-0.4-0.1-1.8-0.2-1.7-0.6c0,0,0,0,0-0.1c0.3,0.1,0.5,0.2,0.8,0.3
						c0.7,0.2,0.9-0.1,0.6-0.5l0.1-0.1c0.1,0.1,0.4,0.2,0.7,0.3c3.2,1.3,6.5,2.3,10.4,2.5c1.3,0.1,2.9-8,9.7-10.2
						c6.3-2.1,16.3,3.3,21.5,9.3c-0.1,0.2-0.2,0.4-0.3,0.6C130.4,27.6,130.9,28.1,131.4,28.2z"/>
					<path fill="#FFD700" d="M117.9,4.8c10.6,1.7,18.7,10.7,13.2,21.6c-5.2-6.1-15.2-11.5-21.5-9.3c-6.8,2.3-8.4,10.3-9.7,10.2
						c-3.8-0.2-7.2-1.2-10.4-2.5c-0.4-0.1-0.6-0.3-0.7-0.3c-0.2-0.1-0.2-0.3-0.3-0.5c0-0.1,0.8-2.7,1-3.2c1-2.8,2.6-5.4,4.5-7.7
						C99.6,6.3,109.2,3.4,117.9,4.8z"/>
					<path fill="#725D07" d="M73.2,19.6c0.1,0,0.5,0.1,0.3,0.5c0,0,0,0.1-0.1,0.1l0,0c-0.2-0.1-0.4-0.1-0.7-0.2c-0.1,0-0.1,0-0.2,0
						c0.1,0,0.1-0.1,0.2-0.2c3.7-6.2,8.1-13.2,14.9-16.2c10.8-4.7,22.1-4.3,32.6,0.8c0.4,0.2,0.5,0.4,0.4,0.6
						c-0.7-0.2-1.4-0.3-2.1-0.4c-8.8-3.8-18.5-4.5-27.7-1.5C84.4,5,80.6,9.6,76.8,15.1c-1,1.5-1.9,3-2.9,4.5h0
						C73.4,19.6,73.3,19.6,73.2,19.6z"/>
					<path fill="#725D07" d="M120.8,4.8c-0.1,0.2-0.4,0.3-0.9,0.1c-0.4-0.2-0.8-0.4-1.2-0.5C119.4,4.5,120.1,4.7,120.8,4.8z"/>
					<path fill="#FFD700" d="M118.6,4.4c-0.4-0.1-0.9-0.2-1.3-0.2c-14.2-1.8-26.6,6-29.9,19.9c-3.6-1.2-7.2-2.4-10.8-3.6
						c-0.7-0.2-1.9-0.9-2.6-0.9c0,0-0.1,0-0.1,0c1-1.5,1.9-3,2.9-4.5C80.6,9.6,84.4,5,90.9,2.9C100.1-0.1,109.9,0.6,118.6,4.4z"/>
					<path fill="#725D07" d="M88.6,24.6c0.3,0.3,0.1,0.7-0.6,0.5c-0.3-0.1-0.5-0.2-0.8-0.3c0.1-0.2,0.1-0.5,0.2-0.7
						c0.3,0.1,0.5,0.2,0.7,0.3C88.4,24.4,88.5,24.5,88.6,24.6z"/>
					<path fill="#725D07" d="M87.4,24.1c-0.1,0.2-0.1,0.5-0.2,0.7c-4.6-1.5-9.2-3.1-13.8-4.6v0l0,0c0,0,0-0.1,0.1-0.1
						c0.1-0.2,0.2-0.3,0.3-0.5h0c0,0,0.1,0,0.1,0c0.8,0,1.9,0.7,2.6,0.9C80.2,21.7,83.8,22.9,87.4,24.1z"/>
					<path fill="#725D07" d="M73.8,19.6c-0.1,0.2-0.2,0.3-0.3,0.5c0.3-0.4-0.2-0.5-0.3-0.5C73.3,19.6,73.4,19.6,73.8,19.6z"/>
					<path fill="#725D07" d="M72.6,19.9C72.5,19.9,72.5,19.9,72.6,19.9L72.6,19.9z"/>
				</g>
			</g>
		</g>
	</g>
</g>
</svg>
