<?xml version="1.0" encoding="utf-8"?>
<!-- Generator: Adobe Illustrator 18.1.1, SVG Export Plug-In . SVG Version: 6.00 Build 0)  -->
<svg version="1.1" id="ruler" xmlns="http://www.w3.org/2000/svg" xmlns:xlink="http://www.w3.org/1999/xlink" x="0px" y="0px"
	 viewBox="0 0 61.1 339.1" enable-background="new 0 0 61.1 339.1" xml:space="preserve">
<g id="fitted">
	<g>
		<path id="body_x5F_fill_1_" fill="#D4E7EC" d="M56.6,337.6H4.5c-1.7,0-3-1.4-3-3V4.5c0-1.7,1.3-3,3-3h52.1c1.6,0,3,1.3,3,3v330.1
			C59.6,336.3,58.2,337.6,56.6,337.6z"/>
		<path id="hilite2_1_" fill="#DEEDF0" stroke="#DEEDF0" stroke-width="9.375000e-02" stroke-miterlimit="10" d="M55.8,201.6
			c-0.2-0.1,0.1,48.4,0,48.3L1.7,300l-0.3-48.8L55.8,201.6z"/>
		<path id="hilite1_1_" fill="#DEEDF0" stroke="#DEEDF0" stroke-width="9.375000e-02" stroke-miterlimit="10" d="M55.8,88.8
			c0.1,7.8,0,19,0,26.9L1.7,167.3l-0.3-28.9L55.8,88.8z"/>
		<g id="measures_1_">
			<g>
				<g>
					<path fill="#FFFFFF" d="M2.1,334.1"/>
					<path fill="#FFFFFF" d="M2.1,330.8"/>
					<line fill="#FFFFFF" x1="2.3" y1="327.8" x2="23.9" y2="327.8"/>
				</g>
				<g>
					<line fill="#FFFFFF" x1="2.1" y1="324.5" x2="13.2" y2="324.5"/>
					<line fill="#FFFFFF" x1="2.1" y1="321.4" x2="13.2" y2="321.4"/>
					<line fill="#FFFFFF" x1="2.1" y1="318.2" x2="13.2" y2="318.2"/>
					<line fill="#FFFFFF" x1="2.1" y1="314.9" x2="13.2" y2="314.9"/>
					<line fill="#FFFFFF" x1="2.3" y1="311.9" x2="18.6" y2="311.9"/>
				</g>
				<g>
					<line fill="#FFFFFF" x1="2.1" y1="308.7" x2="13.2" y2="308.7"/>
					<line fill="#FFFFFF" x1="2.1" y1="305.6" x2="13.2" y2="305.6"/>
					<line fill="#FFFFFF" x1="2.1" y1="302.4" x2="13.2" y2="302.4"/>
					<line fill="#FFFFFF" x1="2.1" y1="299.1" x2="13.2" y2="299.1"/>
					<line fill="#FFFFFF" x1="2.3" y1="296.1" x2="23.9" y2="296.1"/>
				</g>
				<g>
					<line fill="#FFFFFF" x1="2.1" y1="292.8" x2="13.2" y2="292.8"/>
					<line fill="#FFFFFF" x1="2.1" y1="289.7" x2="13.2" y2="289.7"/>
					<line fill="#FFFFFF" x1="2.1" y1="286.5" x2="13.2" y2="286.5"/>
					<line fill="#FFFFFF" x1="2.1" y1="283.2" x2="13.2" y2="283.2"/>
					<line fill="#FFFFFF" x1="2.3" y1="280.2" x2="18.6" y2="280.2"/>
				</g>
				<g>
					<line fill="#FFFFFF" x1="2.1" y1="276.9" x2="13.2" y2="276.9"/>
					<line fill="#FFFFFF" x1="2.1" y1="273.7" x2="13.2" y2="273.7"/>
					<line fill="#FFFFFF" x1="2.1" y1="270.6" x2="13.2" y2="270.6"/>
					<line fill="#FFFFFF" x1="2.1" y1="267.3" x2="13.2" y2="267.3"/>
					<line fill="#FFFFFF" x1="2.3" y1="264.2" x2="23.9" y2="264.2"/>
				</g>
				<g>
					<line fill="#FFFFFF" x1="2.1" y1="261.1" x2="13.2" y2="261.1"/>
					<line fill="#FFFFFF" x1="2.1" y1="258" x2="13.2" y2="258"/>
					<line fill="#FFFFFF" x1="2.1" y1="254.8" x2="13.2" y2="254.8"/>
					<line fill="#FFFFFF" x1="2.1" y1="251.5" x2="13.2" y2="251.5"/>
					<line fill="#FFFFFF" x1="2.3" y1="248.4" x2="18.6" y2="248.4"/>
				</g>
				<g>
					<line fill="#FFFFFF" x1="2.1" y1="245.3" x2="13.2" y2="245.3"/>
					<line fill="#FFFFFF" x1="2.1" y1="242.2" x2="13.2" y2="242.2"/>
					<line fill="#FFFFFF" x1="2.1" y1="239" x2="13.2" y2="239"/>
					<line fill="#FFFFFF" x1="2.1" y1="235.7" x2="13.2" y2="235.7"/>
					<line fill="#FFFFFF" x1="2.3" y1="232.7" x2="23.9" y2="232.7"/>
				</g>
				<g>
					<line fill="#FFFFFF" x1="2.1" y1="229.6" x2="13.2" y2="229.6"/>
					<line fill="#FFFFFF" x1="2.1" y1="226.4" x2="13.2" y2="226.4"/>
					<line fill="#FFFFFF" x1="2.1" y1="223.3" x2="13.2" y2="223.3"/>
					<line fill="#FFFFFF" x1="2.1" y1="220" x2="13.2" y2="220"/>
					<line fill="#FFFFFF" x1="2.3" y1="216.9" x2="18.6" y2="216.9"/>
				</g>
				<g>
					<line fill="#FFFFFF" x1="2.1" y1="213.6" x2="13.2" y2="213.6"/>
					<line fill="#FFFFFF" x1="2.1" y1="210.4" x2="13.2" y2="210.4"/>
					<line fill="#FFFFFF" x1="2.1" y1="207.3" x2="13.2" y2="207.3"/>
					<line fill="#FFFFFF" x1="2.1" y1="204" x2="13.2" y2="204"/>
					<line fill="#FFFFFF" x1="2.3" y1="200.9" x2="23.9" y2="200.9"/>
				</g>
				<g>
					<line fill="#FFFFFF" x1="2.1" y1="197.9" x2="13.2" y2="197.9"/>
					<line fill="#FFFFFF" x1="2.1" y1="194.7" x2="13.2" y2="194.7"/>
					<line fill="#FFFFFF" x1="2.1" y1="191.6" x2="13.2" y2="191.6"/>
					<line fill="#FFFFFF" x1="2.1" y1="188.3" x2="13.2" y2="188.3"/>
					<line fill="#FFFFFF" x1="2.3" y1="185.2" x2="18.6" y2="185.2"/>
				</g>
				<g>
					<line fill="#FFFFFF" x1="2.1" y1="182" x2="13.2" y2="182"/>
					<line fill="#FFFFFF" x1="2.1" y1="178.8" x2="13.2" y2="178.8"/>
					<line fill="#FFFFFF" x1="2.1" y1="175.7" x2="13.2" y2="175.7"/>
					<line fill="#FFFFFF" x1="2.1" y1="172.4" x2="13.2" y2="172.4"/>
					<line fill="#FFFFFF" x1="2.3" y1="169.3" x2="23.9" y2="169.3"/>
				</g>
				<g>
					<line fill="#FFFFFF" x1="2.1" y1="166.2" x2="13.2" y2="166.2"/>
					<line fill="#FFFFFF" x1="2.1" y1="163" x2="13.2" y2="163"/>
					<line fill="#FFFFFF" x1="2.1" y1="159.9" x2="13.2" y2="159.9"/>
					<line fill="#FFFFFF" x1="2.1" y1="156.6" x2="13.2" y2="156.6"/>
					<line fill="#FFFFFF" x1="2.3" y1="153.5" x2="18.6" y2="153.5"/>
				</g>
				<g>
					<line fill="#FFFFFF" x1="2.1" y1="150.4" x2="13.2" y2="150.4"/>
					<line fill="#FFFFFF" x1="2.1" y1="147.2" x2="13.2" y2="147.2"/>
					<line fill="#FFFFFF" x1="2.1" y1="144.1" x2="13.2" y2="144.1"/>
					<line fill="#FFFFFF" x1="2.1" y1="140.8" x2="13.2" y2="140.8"/>
					<line fill="#FFFFFF" x1="2.3" y1="137.7" x2="23.9" y2="137.7"/>
				</g>
				<g>
					<line fill="#FFFFFF" x1="2.1" y1="134.7" x2="13.2" y2="134.7"/>
					<line fill="#FFFFFF" x1="2.1" y1="131.5" x2="13.2" y2="131.5"/>
					<line fill="#FFFFFF" x1="2.1" y1="128.3" x2="13.2" y2="128.3"/>
					<line fill="#FFFFFF" x1="2.1" y1="125" x2="13.2" y2="125"/>
					<line fill="#FFFFFF" x1="2.3" y1="122" x2="18.6" y2="122"/>
				</g>
				<g>
					<line fill="#FFFFFF" x1="2.1" y1="118.7" x2="13.2" y2="118.7"/>
					<line fill="#FFFFFF" x1="2.1" y1="115.5" x2="13.2" y2="115.5"/>
					<line fill="#FFFFFF" x1="2.1" y1="112.3" x2="13.2" y2="112.3"/>
					<line fill="#FFFFFF" x1="2.1" y1="109" x2="13.2" y2="109"/>
					<line fill="#FFFFFF" x1="2.3" y1="106" x2="23.9" y2="106"/>
				</g>
				<g>
					<line fill="#FFFFFF" x1="2.1" y1="102.8" x2="13.2" y2="102.8"/>
					<line fill="#FFFFFF" x1="2.1" y1="99.6" x2="13.2" y2="99.6"/>
					<line fill="#FFFFFF" x1="2.1" y1="96.4" x2="13.2" y2="96.4"/>
					<line fill="#FFFFFF" x1="2.1" y1="93.1" x2="13.2" y2="93.1"/>
					<line fill="#FFFFFF" x1="2.3" y1="90.1" x2="18.6" y2="90.1"/>
				</g>
				<g>
					<line fill="#FFFFFF" x1="2.1" y1="86.9" x2="13.2" y2="86.9"/>
					<line fill="#FFFFFF" x1="2.1" y1="83.7" x2="13.2" y2="83.7"/>
					<line fill="#FFFFFF" x1="2.1" y1="80.5" x2="13.2" y2="80.5"/>
					<line fill="#FFFFFF" x1="2.1" y1="77.2" x2="13.2" y2="77.2"/>
					<line fill="#FFFFFF" x1="2.3" y1="74.2" x2="23.9" y2="74.2"/>
				</g>
				<g>
					<line fill="#FFFFFF" x1="2.1" y1="71.1" x2="13.2" y2="71.1"/>
					<line fill="#FFFFFF" x1="2.1" y1="67.9" x2="13.2" y2="67.9"/>
					<line fill="#FFFFFF" x1="2.1" y1="64.7" x2="13.2" y2="64.7"/>
					<line fill="#FFFFFF" x1="2.1" y1="61.4" x2="13.2" y2="61.4"/>
					<line fill="#FFFFFF" x1="2.3" y1="58.4" x2="18.6" y2="58.4"/>
				</g>
				<g>
					<line fill="#FFFFFF" x1="2.1" y1="55.3" x2="13.2" y2="55.3"/>
					<line fill="#FFFFFF" x1="2.1" y1="52.1" x2="13.2" y2="52.1"/>
					<line fill="#FFFFFF" x1="2.1" y1="48.9" x2="13.2" y2="48.9"/>
					<line fill="#FFFFFF" x1="2.1" y1="45.6" x2="13.2" y2="45.6"/>
					<line fill="#FFFFFF" x1="2.3" y1="42.6" x2="23.9" y2="42.6"/>
				</g>
				<g>
					<line fill="#FFFFFF" x1="2.1" y1="39.5" x2="13.2" y2="39.5"/>
					<line fill="#FFFFFF" x1="2.1" y1="36.4" x2="13.2" y2="36.4"/>
					<line fill="#FFFFFF" x1="2.1" y1="33.2" x2="13.2" y2="33.2"/>
					<line fill="#FFFFFF" x1="2.1" y1="29.9" x2="13.2" y2="29.9"/>
					<line fill="#FFFFFF" x1="2.3" y1="26.9" x2="18.6" y2="26.9"/>
				</g>
				<g>
					<line fill="#FFFFFF" x1="2.1" y1="23.6" x2="13.2" y2="23.6"/>
					<line fill="#FFFFFF" x1="2.1" y1="20.4" x2="13.2" y2="20.4"/>
					<line fill="#FFFFFF" x1="2.1" y1="17.2" x2="13.2" y2="17.2"/>
					<line fill="#FFFFFF" x1="2.1" y1="13.9" x2="13.2" y2="13.9"/>
					<line fill="#FFFFFF" x1="2.3" y1="10.9" x2="23.9" y2="10.9"/>
				</g>
			</g>
			<g>
				<g>
					<path fill="none" stroke="#BF0ED8" stroke-width="2" stroke-miterlimit="10" d="M2.1,334.1"/>
					<path fill="none" stroke="#BF0ED8" stroke-width="2" stroke-miterlimit="10" d="M2.1,330.8"/>
					<line fill="none" stroke="#000000" stroke-miterlimit="10" x1="2.3" y1="327.8" x2="23.9" y2="327.8"/>
				</g>
				<g>
					<line fill="none" stroke="#829EB2" stroke-width="0.75" stroke-miterlimit="10" x1="2.1" y1="324.5" x2="13.2" y2="324.5"/>
					<line fill="none" stroke="#829EB2" stroke-width="0.75" stroke-miterlimit="10" x1="2.1" y1="321.4" x2="13.2" y2="321.4"/>
					<line fill="none" stroke="#829EB2" stroke-width="0.75" stroke-miterlimit="10" x1="2.1" y1="318.2" x2="13.2" y2="318.2"/>
					<line fill="none" stroke="#829EB2" stroke-width="0.75" stroke-miterlimit="10" x1="2.1" y1="314.9" x2="13.2" y2="314.9"/>
					<line fill="none" stroke="#000000" stroke-miterlimit="10" x1="2.3" y1="311.9" x2="18.6" y2="311.9"/>
				</g>
				<g>
					<line fill="none" stroke="#829EB2" stroke-width="0.75" stroke-miterlimit="10" x1="2.1" y1="308.7" x2="13.2" y2="308.7"/>
					<line fill="none" stroke="#829EB2" stroke-width="0.75" stroke-miterlimit="10" x1="2.1" y1="305.6" x2="13.2" y2="305.6"/>
					<line fill="none" stroke="#829EB2" stroke-width="0.75" stroke-miterlimit="10" x1="2.1" y1="302.4" x2="13.2" y2="302.4"/>
					<line fill="none" stroke="#829EB2" stroke-width="0.75" stroke-miterlimit="10" x1="2.1" y1="299.1" x2="13.2" y2="299.1"/>
					<line fill="none" stroke="#000000" stroke-miterlimit="10" x1="2.3" y1="296.1" x2="23.9" y2="296.1"/>
				</g>
				<g>
					<line fill="none" stroke="#829EB2" stroke-width="0.75" stroke-miterlimit="10" x1="2.1" y1="292.8" x2="13.2" y2="292.8"/>
					<line fill="none" stroke="#829EB2" stroke-width="0.75" stroke-miterlimit="10" x1="2.1" y1="289.7" x2="13.2" y2="289.7"/>
					<line fill="none" stroke="#829EB2" stroke-width="0.75" stroke-miterlimit="10" x1="2.1" y1="286.5" x2="13.2" y2="286.5"/>
					<line fill="none" stroke="#829EB2" stroke-width="0.75" stroke-miterlimit="10" x1="2.1" y1="283.2" x2="13.2" y2="283.2"/>
					<line fill="none" stroke="#000000" stroke-miterlimit="10" x1="2.3" y1="280.2" x2="18.6" y2="280.2"/>
				</g>
				<g>
					<line fill="#D4E7EC" stroke="#829EB2" stroke-width="0.75" stroke-miterlimit="10" x1="2.1" y1="276.9" x2="13.2" y2="276.9"/>
					<line fill="none" stroke="#829EB2" stroke-width="0.75" stroke-miterlimit="10" x1="2.1" y1="273.7" x2="13.2" y2="273.7"/>
					<line fill="none" stroke="#829EB2" stroke-width="0.75" stroke-miterlimit="10" x1="2.1" y1="270.6" x2="13.2" y2="270.6"/>
					<line fill="none" stroke="#829EB2" stroke-width="0.75" stroke-miterlimit="10" x1="2.1" y1="267.3" x2="13.2" y2="267.3"/>
					<line fill="none" stroke="#000000" stroke-miterlimit="10" x1="2.3" y1="264.2" x2="23.9" y2="264.2"/>
				</g>
				<g>
					<line fill="none" stroke="#829EB2" stroke-width="0.75" stroke-miterlimit="10" x1="2.1" y1="261.1" x2="13.2" y2="261.1"/>
					<line fill="none" stroke="#829EB2" stroke-width="0.75" stroke-miterlimit="10" x1="2.1" y1="258" x2="13.2" y2="258"/>
					<line fill="none" stroke="#829EB2" stroke-width="0.75" stroke-miterlimit="10" x1="2.1" y1="254.8" x2="13.2" y2="254.8"/>
					<line fill="none" stroke="#829EB2" stroke-width="0.75" stroke-miterlimit="10" x1="2.1" y1="251.5" x2="13.2" y2="251.5"/>
					<line fill="none" stroke="#000000" stroke-miterlimit="10" x1="2.3" y1="248.4" x2="18.6" y2="248.4"/>
				</g>
				<g>
					<line fill="none" stroke="#829EB2" stroke-width="0.75" stroke-miterlimit="10" x1="2.1" y1="245.3" x2="13.2" y2="245.3"/>
					<line fill="none" stroke="#829EB2" stroke-width="0.75" stroke-miterlimit="10" x1="2.1" y1="242.2" x2="13.2" y2="242.2"/>
					<line fill="none" stroke="#829EB2" stroke-width="0.75" stroke-miterlimit="10" x1="2.1" y1="239" x2="13.2" y2="239"/>
					<line fill="none" stroke="#829EB2" stroke-width="0.75" stroke-miterlimit="10" x1="2.1" y1="235.7" x2="13.2" y2="235.7"/>
					<line fill="none" stroke="#000000" stroke-miterlimit="10" x1="2.3" y1="232.7" x2="23.9" y2="232.7"/>
				</g>
				<g>
					<line fill="none" stroke="#829EB2" stroke-width="0.75" stroke-miterlimit="10" x1="2.1" y1="229.6" x2="13.2" y2="229.6"/>
					<line fill="none" stroke="#829EB2" stroke-width="0.75" stroke-miterlimit="10" x1="2.1" y1="226.4" x2="13.2" y2="226.4"/>
					<line fill="none" stroke="#829EB2" stroke-width="0.75" stroke-miterlimit="10" x1="2.1" y1="223.3" x2="13.2" y2="223.3"/>
					<line fill="none" stroke="#829EB2" stroke-width="0.75" stroke-miterlimit="10" x1="2.1" y1="220" x2="13.2" y2="220"/>
					<line fill="none" stroke="#000000" stroke-miterlimit="10" x1="2.3" y1="216.9" x2="18.6" y2="216.9"/>
				</g>
				<g>
					<line fill="none" stroke="#829EB2" stroke-width="0.75" stroke-miterlimit="10" x1="2.1" y1="213.6" x2="13.2" y2="213.6"/>
					<line fill="none" stroke="#829EB2" stroke-width="0.75" stroke-miterlimit="10" x1="2.1" y1="210.4" x2="13.2" y2="210.4"/>
					<line fill="none" stroke="#829EB2" stroke-width="0.75" stroke-miterlimit="10" x1="2.1" y1="207.3" x2="13.2" y2="207.3"/>
					<line fill="none" stroke="#829EB2" stroke-width="0.75" stroke-miterlimit="10" x1="2.1" y1="204" x2="13.2" y2="204"/>
					<line fill="none" stroke="#000000" stroke-miterlimit="10" x1="2.3" y1="200.9" x2="23.9" y2="200.9"/>
				</g>
				<g>
					<line fill="none" stroke="#829EB2" stroke-width="0.75" stroke-miterlimit="10" x1="2.1" y1="197.9" x2="13.2" y2="197.9"/>
					<line fill="none" stroke="#829EB2" stroke-width="0.75" stroke-miterlimit="10" x1="2.1" y1="194.7" x2="13.2" y2="194.7"/>
					<line fill="none" stroke="#829EB2" stroke-width="0.75" stroke-miterlimit="10" x1="2.1" y1="191.6" x2="13.2" y2="191.6"/>
					<line fill="none" stroke="#829EB2" stroke-width="0.75" stroke-miterlimit="10" x1="2.1" y1="188.3" x2="13.2" y2="188.3"/>
					<line fill="none" stroke="#000000" stroke-miterlimit="10" x1="2.3" y1="185.2" x2="18.6" y2="185.2"/>
				</g>
				<g>
					<line fill="none" stroke="#829EB2" stroke-width="0.75" stroke-miterlimit="10" x1="2.1" y1="182" x2="13.2" y2="182"/>
					<line fill="none" stroke="#829EB2" stroke-width="0.75" stroke-miterlimit="10" x1="2.1" y1="178.8" x2="13.2" y2="178.8"/>
					<line fill="none" stroke="#829EB2" stroke-width="0.75" stroke-miterlimit="10" x1="2.1" y1="175.7" x2="13.2" y2="175.7"/>
					<line fill="none" stroke="#829EB2" stroke-width="0.75" stroke-miterlimit="10" x1="2.1" y1="172.4" x2="13.2" y2="172.4"/>
					<line fill="none" stroke="#000000" stroke-miterlimit="10" x1="2.3" y1="169.3" x2="23.9" y2="169.3"/>
				</g>
				<g>
					<line fill="none" stroke="#829EB2" stroke-width="0.75" stroke-miterlimit="10" x1="2.1" y1="166.2" x2="13.2" y2="166.2"/>
					<line fill="none" stroke="#829EB2" stroke-width="0.75" stroke-miterlimit="10" x1="2.1" y1="163" x2="13.2" y2="163"/>
					<line fill="none" stroke="#829EB2" stroke-width="0.75" stroke-miterlimit="10" x1="2.1" y1="159.9" x2="13.2" y2="159.9"/>
					<line fill="none" stroke="#829EB2" stroke-width="0.75" stroke-miterlimit="10" x1="2.1" y1="156.6" x2="13.2" y2="156.6"/>
					<line fill="none" stroke="#000000" stroke-miterlimit="10" x1="2.3" y1="153.5" x2="18.6" y2="153.5"/>
				</g>
				<g>
					<line fill="none" stroke="#829EB2" stroke-width="0.75" stroke-miterlimit="10" x1="2.1" y1="150.4" x2="13.2" y2="150.4"/>
					<line fill="none" stroke="#829EB2" stroke-width="0.75" stroke-miterlimit="10" x1="2.1" y1="147.2" x2="13.2" y2="147.2"/>
					<line fill="none" stroke="#829EB2" stroke-width="0.75" stroke-miterlimit="10" x1="2.1" y1="144.1" x2="13.2" y2="144.1"/>
					<line fill="none" stroke="#829EB2" stroke-width="0.75" stroke-miterlimit="10" x1="2.1" y1="140.8" x2="13.2" y2="140.8"/>
					<line fill="none" stroke="#000000" stroke-miterlimit="10" x1="2.3" y1="137.7" x2="23.9" y2="137.7"/>
				</g>
				<g>
					<line fill="none" stroke="#829EB2" stroke-width="0.75" stroke-miterlimit="10" x1="2.1" y1="134.7" x2="13.2" y2="134.7"/>
					<line fill="none" stroke="#829EB2" stroke-width="0.75" stroke-miterlimit="10" x1="2.1" y1="131.5" x2="13.2" y2="131.5"/>
					<line fill="none" stroke="#829EB2" stroke-width="0.75" stroke-miterlimit="10" x1="2.1" y1="128.3" x2="13.2" y2="128.3"/>
					<line fill="none" stroke="#829EB2" stroke-width="0.75" stroke-miterlimit="10" x1="2.1" y1="125" x2="13.2" y2="125"/>
					<line fill="none" stroke="#000000" stroke-miterlimit="10" x1="2.3" y1="122" x2="18.6" y2="122"/>
				</g>
				<g>
					<line fill="none" stroke="#829EB2" stroke-width="0.75" stroke-miterlimit="10" x1="2.1" y1="118.7" x2="13.2" y2="118.7"/>
					<line fill="none" stroke="#829EB2" stroke-width="0.75" stroke-miterlimit="10" x1="2.1" y1="115.5" x2="13.2" y2="115.5"/>
					<line fill="none" stroke="#829EB2" stroke-width="0.75" stroke-miterlimit="10" x1="2.1" y1="112.3" x2="13.2" y2="112.3"/>
					<line fill="none" stroke="#829EB2" stroke-width="0.75" stroke-miterlimit="10" x1="2.1" y1="109" x2="13.2" y2="109"/>
					<line fill="none" stroke="#000000" stroke-miterlimit="10" x1="2.3" y1="106" x2="23.9" y2="106"/>
				</g>
				<g>
					<line fill="none" stroke="#829EB2" stroke-width="0.75" stroke-miterlimit="10" x1="2.1" y1="102.8" x2="13.2" y2="102.8"/>
					<line fill="none" stroke="#829EB2" stroke-width="0.75" stroke-miterlimit="10" x1="2.1" y1="99.6" x2="13.2" y2="99.6"/>
					<line fill="none" stroke="#829EB2" stroke-width="0.75" stroke-miterlimit="10" x1="2.1" y1="96.4" x2="13.2" y2="96.4"/>
					<line fill="none" stroke="#829EB2" stroke-width="0.75" stroke-miterlimit="10" x1="2.1" y1="93.1" x2="13.2" y2="93.1"/>
					<line fill="none" stroke="#000000" stroke-miterlimit="10" x1="2.3" y1="90.1" x2="18.6" y2="90.1"/>
				</g>
				<g>
					<line fill="none" stroke="#829EB2" stroke-width="0.75" stroke-miterlimit="10" x1="2.1" y1="86.9" x2="13.2" y2="86.9"/>
					<line fill="none" stroke="#829EB2" stroke-width="0.75" stroke-miterlimit="10" x1="2.1" y1="83.7" x2="13.2" y2="83.7"/>
					<line fill="none" stroke="#829EB2" stroke-width="0.75" stroke-miterlimit="10" x1="2.1" y1="80.5" x2="13.2" y2="80.5"/>
					<line fill="none" stroke="#829EB2" stroke-width="0.75" stroke-miterlimit="10" x1="2.1" y1="77.2" x2="13.2" y2="77.2"/>
					<line fill="none" stroke="#000000" stroke-miterlimit="10" x1="2.3" y1="74.2" x2="23.9" y2="74.2"/>
				</g>
				<g>
					<line fill="none" stroke="#829EB2" stroke-width="0.75" stroke-miterlimit="10" x1="2.1" y1="71.1" x2="13.2" y2="71.1"/>
					<line fill="none" stroke="#829EB2" stroke-width="0.75" stroke-miterlimit="10" x1="2.1" y1="67.9" x2="13.2" y2="67.9"/>
					<line fill="none" stroke="#829EB2" stroke-width="0.75" stroke-miterlimit="10" x1="2.1" y1="64.7" x2="13.2" y2="64.7"/>
					<line fill="none" stroke="#829EB2" stroke-width="0.75" stroke-miterlimit="10" x1="2.1" y1="61.4" x2="13.2" y2="61.4"/>
					<line fill="none" stroke="#000000" stroke-miterlimit="10" x1="2.3" y1="58.4" x2="18.6" y2="58.4"/>
				</g>
				<g>
					<line fill="none" stroke="#829EB2" stroke-width="0.75" stroke-miterlimit="10" x1="2.1" y1="55.3" x2="13.2" y2="55.3"/>
					<line fill="none" stroke="#829EB2" stroke-width="0.75" stroke-miterlimit="10" x1="2.1" y1="52.1" x2="13.2" y2="52.1"/>
					<line fill="none" stroke="#829EB2" stroke-width="0.75" stroke-miterlimit="10" x1="2.1" y1="48.9" x2="13.2" y2="48.9"/>
					<line fill="none" stroke="#829EB2" stroke-width="0.75" stroke-miterlimit="10" x1="2.1" y1="45.6" x2="13.2" y2="45.6"/>
					<line fill="none" stroke="#000000" stroke-miterlimit="10" x1="2.3" y1="42.6" x2="23.9" y2="42.6"/>
				</g>
				<g>
					<line fill="none" stroke="#829EB2" stroke-width="0.75" stroke-miterlimit="10" x1="2.1" y1="39.5" x2="13.2" y2="39.5"/>
					<line fill="none" stroke="#829EB2" stroke-width="0.75" stroke-miterlimit="10" x1="2.1" y1="36.4" x2="13.2" y2="36.4"/>
					<line fill="none" stroke="#829EB2" stroke-width="0.75" stroke-miterlimit="10" x1="2.1" y1="33.2" x2="13.2" y2="33.2"/>
					<line fill="none" stroke="#829EB2" stroke-width="0.75" stroke-miterlimit="10" x1="2.1" y1="29.9" x2="13.2" y2="29.9"/>
					<line fill="none" stroke="#000000" stroke-miterlimit="10" x1="2.3" y1="26.9" x2="18.6" y2="26.9"/>
				</g>
				<g>
					<line fill="none" stroke="#829EB2" stroke-width="0.75" stroke-miterlimit="10" x1="2.1" y1="23.6" x2="13.2" y2="23.6"/>
					<line fill="none" stroke="#829EB2" stroke-width="0.75" stroke-miterlimit="10" x1="2.1" y1="20.4" x2="13.2" y2="20.4"/>
					<line fill="none" stroke="#829EB2" stroke-width="0.75" stroke-miterlimit="10" x1="2.1" y1="17.2" x2="13.2" y2="17.2"/>
					<line fill="none" stroke="#829EB2" stroke-width="0.75" stroke-miterlimit="10" x1="2.1" y1="13.9" x2="13.2" y2="13.9"/>
					<line fill="none" stroke="#000000" stroke-miterlimit="10" x1="2.3" y1="10.9" x2="23.9" y2="10.9"/>
				</g>
			</g>
		</g>
		<path id="body_x5F_outline_1_" fill="none" stroke="#829EB2" stroke-width="3" stroke-miterlimit="10" d="M56.6,337.6H4.5
			c-1.7,0-3-1.4-3-3V4.5c0-1.7,1.3-3,3-3h52.1c1.6,0,3,1.3,3,3v330.1C59.6,336.3,58.2,337.6,56.6,337.6z"/>
	</g>
	<g>
		<path fill="#020202" d="M30.8,328c0-0.9,0.1-1.7,0.3-2.2c0.2-0.6,0.5-1,0.8-1.3c0.4-0.3,0.8-0.5,1.4-0.5c0.4,0,0.8,0.1,1.1,0.3
			c0.3,0.2,0.6,0.4,0.8,0.7c0.2,0.3,0.4,0.7,0.5,1.2c0.1,0.5,0.2,1.1,0.2,1.8c0,0.9-0.1,1.7-0.3,2.2c-0.2,0.6-0.5,1-0.8,1.3
			c-0.4,0.3-0.8,0.5-1.4,0.5c-0.8,0-1.3-0.3-1.8-0.8C31.1,330.5,30.8,329.5,30.8,328z M31.8,328c0,1.3,0.1,2.1,0.4,2.6
			c0.3,0.4,0.7,0.6,1.1,0.6c0.4,0,0.8-0.2,1.1-0.6c0.3-0.4,0.4-1.3,0.4-2.6c0-1.3-0.1-2.1-0.4-2.6c-0.3-0.4-0.7-0.6-1.1-0.6
			c-0.4,0-0.8,0.2-1.1,0.6C32,325.9,31.8,326.7,31.8,328z"/>
		<path fill="#020202" d="M41.9,329.8l0.9,0.1c-0.1,0.6-0.4,1.2-0.8,1.5c-0.4,0.4-0.9,0.6-1.6,0.6c-0.8,0-1.4-0.3-1.9-0.8
			c-0.5-0.5-0.7-1.2-0.7-2.2c0-0.6,0.1-1.1,0.3-1.6c0.2-0.5,0.5-0.8,0.9-1c0.4-0.2,0.9-0.3,1.3-0.3c0.6,0,1.1,0.2,1.5,0.5
			c0.4,0.3,0.6,0.8,0.8,1.3l-0.9,0.1c-0.1-0.4-0.2-0.7-0.5-0.9c-0.2-0.2-0.5-0.3-0.8-0.3c-0.5,0-0.9,0.2-1.2,0.5
			c-0.3,0.3-0.5,0.9-0.5,1.6c0,0.8,0.1,1.3,0.4,1.7c0.3,0.3,0.7,0.5,1.1,0.5c0.4,0,0.7-0.1,0.9-0.3
			C41.7,330.6,41.9,330.3,41.9,329.8z"/>
		<path fill="#020202" d="M43.7,331.9v-5.7h0.9v0.8c0.2-0.3,0.4-0.5,0.7-0.7c0.3-0.2,0.6-0.3,1-0.3c0.4,0,0.8,0.1,1,0.3
			c0.3,0.2,0.5,0.4,0.6,0.7c0.4-0.7,1-1,1.7-1c0.6,0,1,0.2,1.3,0.5c0.3,0.3,0.5,0.8,0.5,1.4v3.9h-1v-3.6c0-0.4,0-0.7-0.1-0.8
			c-0.1-0.2-0.2-0.3-0.3-0.4c-0.2-0.1-0.4-0.2-0.6-0.2c-0.4,0-0.7,0.1-1,0.4c-0.3,0.3-0.4,0.7-0.4,1.3v3.3h-1v-3.7
			c0-0.4-0.1-0.7-0.2-1c-0.2-0.2-0.4-0.3-0.8-0.3c-0.3,0-0.5,0.1-0.7,0.2c-0.2,0.1-0.4,0.3-0.5,0.6c-0.1,0.3-0.2,0.7-0.2,1.2v2.9
			H43.7z"/>
	</g>
	<g>
		<path fill="#020202" d="M30.8,170l1-0.1c0.1,0.5,0.2,0.9,0.5,1.1c0.3,0.2,0.6,0.4,1,0.4c0.5,0,0.9-0.2,1.2-0.5
			c0.3-0.3,0.5-0.8,0.5-1.4c0-0.5-0.2-1-0.5-1.3c-0.3-0.3-0.7-0.5-1.2-0.5c-0.3,0-0.6,0.1-0.8,0.2c-0.2,0.1-0.4,0.3-0.6,0.5
			l-0.9-0.1l0.8-4h3.9v0.9h-3.1l-0.4,2.1c0.5-0.3,1-0.5,1.5-0.5c0.7,0,1.3,0.2,1.7,0.7c0.5,0.5,0.7,1.1,0.7,1.8
			c0,0.7-0.2,1.3-0.6,1.8c-0.5,0.6-1.2,0.9-2,0.9c-0.7,0-1.3-0.2-1.7-0.6C31.1,171.2,30.9,170.7,30.8,170z"/>
		<path fill="#020202" d="M41.9,170l0.9,0.1c-0.1,0.6-0.4,1.2-0.8,1.5c-0.4,0.4-0.9,0.6-1.6,0.6c-0.8,0-1.4-0.3-1.9-0.8
			c-0.5-0.5-0.7-1.2-0.7-2.2c0-0.6,0.1-1.1,0.3-1.6c0.2-0.5,0.5-0.8,0.9-1c0.4-0.2,0.9-0.3,1.3-0.3c0.6,0,1.1,0.2,1.5,0.5
			c0.4,0.3,0.6,0.8,0.8,1.3l-0.9,0.1c-0.1-0.4-0.2-0.7-0.5-0.9c-0.2-0.2-0.5-0.3-0.8-0.3c-0.5,0-0.9,0.2-1.2,0.5
			c-0.3,0.3-0.5,0.9-0.5,1.6c0,0.8,0.1,1.3,0.4,1.7c0.3,0.3,0.7,0.5,1.1,0.5c0.4,0,0.7-0.1,0.9-0.3C41.7,170.8,41.9,170.5,41.9,170z
			"/>
		<path fill="#020202" d="M43.7,172.1v-5.7h0.9v0.8c0.2-0.3,0.4-0.5,0.7-0.7c0.3-0.2,0.6-0.3,1-0.3c0.4,0,0.8,0.1,1,0.3
			c0.3,0.2,0.5,0.4,0.6,0.7c0.4-0.7,1-1,1.7-1c0.6,0,1,0.2,1.3,0.5c0.3,0.3,0.5,0.8,0.5,1.4v3.9h-1v-3.6c0-0.4,0-0.7-0.1-0.8
			c-0.1-0.2-0.2-0.3-0.3-0.4c-0.2-0.1-0.4-0.2-0.6-0.2c-0.4,0-0.7,0.1-1,0.4c-0.3,0.3-0.4,0.7-0.4,1.3v3.3h-1v-3.7
			c0-0.4-0.1-0.7-0.2-1c-0.2-0.2-0.4-0.3-0.8-0.3c-0.3,0-0.5,0.1-0.7,0.2c-0.2,0.1-0.4,0.3-0.5,0.6c-0.1,0.3-0.2,0.7-0.2,1.2v2.9
			H43.7z"/>
	</g>
	<g>
		<path fill="#020202" d="M28.4,14.5h-1V8.4c-0.2,0.2-0.5,0.4-0.9,0.7c-0.4,0.2-0.7,0.4-1,0.5V8.7c0.5-0.3,1-0.6,1.4-0.9
			c0.4-0.4,0.7-0.7,0.9-1h0.6V14.5z"/>
		<path fill="#020202" d="M30.1,10.7c0-0.9,0.1-1.7,0.3-2.2c0.2-0.6,0.5-1,0.8-1.3c0.4-0.3,0.8-0.5,1.4-0.5c0.4,0,0.8,0.1,1.1,0.3
			c0.3,0.2,0.6,0.4,0.8,0.7C34.7,8,34.9,8.4,35,8.8c0.1,0.5,0.2,1.1,0.2,1.8c0,0.9-0.1,1.7-0.3,2.2c-0.2,0.6-0.5,1-0.8,1.3
			c-0.4,0.3-0.8,0.5-1.4,0.5c-0.8,0-1.3-0.3-1.8-0.8C30.3,13.2,30.1,12.1,30.1,10.7z M31.1,10.7c0,1.3,0.1,2.1,0.4,2.6
			c0.3,0.4,0.7,0.6,1.1,0.6c0.4,0,0.8-0.2,1.1-0.6c0.3-0.4,0.4-1.3,0.4-2.6c0-1.3-0.1-2.1-0.4-2.6c-0.3-0.4-0.7-0.6-1.1-0.6
			c-0.4,0-0.8,0.2-1.1,0.6C31.2,8.5,31.1,9.4,31.1,10.7z"/>
		<path fill="#020202" d="M42,12.5l0.9,0.1c-0.1,0.6-0.4,1.2-0.8,1.5c-0.4,0.4-0.9,0.6-1.6,0.6c-0.8,0-1.4-0.3-1.9-0.8
			c-0.5-0.5-0.7-1.2-0.7-2.2c0-0.6,0.1-1.1,0.3-1.6c0.2-0.5,0.5-0.8,0.9-1c0.4-0.2,0.9-0.3,1.3-0.3c0.6,0,1.1,0.2,1.5,0.5
			c0.4,0.3,0.6,0.8,0.8,1.3l-0.9,0.1c-0.1-0.4-0.2-0.7-0.5-0.9c-0.2-0.2-0.5-0.3-0.8-0.3c-0.5,0-0.9,0.2-1.2,0.5
			C39.2,10.4,39,11,39,11.7c0,0.8,0.1,1.3,0.4,1.7c0.3,0.3,0.7,0.5,1.1,0.5c0.4,0,0.7-0.1,0.9-0.3S41.9,12.9,42,12.5z"/>
		<path fill="#020202" d="M43.8,14.5V8.9h0.9v0.8c0.2-0.3,0.4-0.5,0.7-0.7c0.3-0.2,0.6-0.3,1-0.3c0.4,0,0.8,0.1,1,0.3
			c0.3,0.2,0.5,0.4,0.6,0.7c0.4-0.7,1-1,1.7-1c0.6,0,1,0.2,1.3,0.5c0.3,0.3,0.5,0.8,0.5,1.4v3.9h-1V11c0-0.4,0-0.7-0.1-0.8
			c-0.1-0.2-0.2-0.3-0.3-0.4c-0.2-0.1-0.4-0.2-0.6-0.2c-0.4,0-0.7,0.1-1,0.4c-0.3,0.3-0.4,0.7-0.4,1.3v3.3h-1v-3.7
			c0-0.4-0.1-0.7-0.2-1c-0.2-0.2-0.4-0.3-0.8-0.3c-0.3,0-0.5,0.1-0.7,0.2c-0.2,0.1-0.4,0.3-0.5,0.6c-0.1,0.3-0.2,0.7-0.2,1.2v2.9
			H43.8z"/>
	</g>
</g>
</svg>
