<?xml version="1.0" encoding="iso-8859-1"?>
<!-- Generator: Adobe Illustrator 18.1.1, SVG Export Plug-In . SVG Version: 6.00 Build 0)  -->
<!DOCTYPE svg PUBLIC "-//W3C//DTD SVG 1.1//EN" "http://www.w3.org/Graphics/SVG/1.1/DTD/svg11.dtd">
<svg version="1.1" xmlns="http://www.w3.org/2000/svg" xmlns:xlink="http://www.w3.org/1999/xlink" x="0px" y="0px"
	 viewBox="906.1 1459.3 452.2 628.1" enable-background="new 906.1 1459.3 452.2 628.1" xml:space="preserve">
<g id="main_x5F_comp_x5F_back-up_paths">
	<g id="body">
	</g>
	<g id="lid_1_">
	</g>
	<g id="spout_x5F_side_1_">
		<g id="spout_x5F_side">
		</g>
	</g>
	<g id="spout_x5F_34front">
		<g id="base">
		</g>
		<g id="tube">
		</g>
		<g id="spout">
		</g>
	</g>
	<g id="spout_x5F_front">
		<g id="base_copy_2">
		</g>
		<g id="lever_1_">
		</g>
	</g>
	<g id="cap_x5F_on">
	</g>
	<g id="cap_x5F_off">
	</g>
</g>
<g id="lip_x5F_front_1_">
</g>
<g id="lip_x5F_back">
</g>
<g id="body_x5F_back">
	<g id="back_2_">
		<g>
			<path d="M910.6,1512.5c0,0,0-0.1,0.1-0.2C910.7,1512.3,910.7,1512.4,910.6,1512.5c-0.2,1.6-1.6,2.5-2.5,2.3c-0.7-1.3-1-2.1-1-2.1
				c0.8-5.5,5.1-10.5,9-14.1c13.1-12.3,31.9-17.9,49-21.8c33.3-7.6,67.7-11.7,101.7-14.8c33.2-3,66.2-2.8,99.5-1.2
				c13.8,0.6,27.7,1.1,41.5,2.1c22.8,1.6,45.2,5.1,67.6,9.3c16.8,3.1,33.4,7.7,49,14.8c13.3,6,27.8,12.4,32.9,27.5
				c0.7,2.1-2.4,5.5-3.4,2.6c-3.1-9.3-12.4-17-21-21c-8.4-3.9-17-7.5-25.8-10.5c-18-6.2-36.9-9.7-55.7-12.7
				c-33.9-5.4-68.5-6.7-102.8-7.8c-31.4-1-62.2-0.3-93.5,3c-31.9,3.3-64.8,7-96,15c-14.5,3.7-30.5,9-41.6,19.5
				c-2.4,2.3-4.6,4.8-6,7.8c-0.3,0.6-0.5,1.1-0.7,1.9c0,0.1,0,0.1-0.1,0.2C910.7,1512.1,910.6,1512.4,910.6,1512.5z"/>
			<path fill="#E5E5E5" d="M1332.9,1495.9c8.6,4,17.8,11.7,21,21c-0.9,17.3-27.2,26.1-27.2,26.1c-59.5,19.4-148.4,26.9-148.4,26.9
				c-104.1,2.9-190.9-10-190.9-10c-59-14-75.6-37.9-79.4-45.1c1,0.2,2.4-0.7,2.6-2.3c0,0,0-0.1,0-0.1v0c0,0,0-0.1,0.1-0.2
				c0.3-0.8,0.5-1.3,0.7-1.9c1.4-3,3.7-5.6,6-7.8c11.2-10.5,27.1-15.8,41.6-19.5c31.2-8,64-11.7,96-15c31.3-3.2,62.1-3.9,93.5-3
				c34.3,1,68.9,2.4,102.8,7.8c18.8,3,37.7,6.5,55.7,12.7C1315.8,1488.3,1324.5,1492,1332.9,1495.9z"/>
			<path d="M910.6,1512.5c0-0.1,0.1-0.4,0.1-0.2v0C910.6,1512.4,910.6,1512.4,910.6,1512.5z"/>
			<path d="M907.1,1512.6c0,0,0.3,0.8,1,2.1C907.4,1514.6,906.9,1514,907.1,1512.6z"/>
		</g>
	</g>
</g>
<g id="body_x5F_front">
</g>
<g id="body_x5F_front_copy" display="none">
</g>
<g id="lid_copy_4">
	<g id="Layer_40">
	</g>
	<g id="Layer_40_copy">
	</g>
	<g id="Layer_40_copy_2">
	</g>
</g>
<g id="spout_x5F_side_2_">
	<g id="spout_x5F_side_3_">
	</g>
</g>
<g id="tap_x5F_side_1_">
</g>
<g id="spout_x5F_34front_1_">
	<g id="base_copy_5">
	</g>
	<g id="tube_copy_4">
	</g>
	<g id="spout_copy_3">
	</g>
</g>
<g id="tap_x5F_34front">
</g>
<g id="spout_x5F_front_1_">
	<g id="base_1_">
	</g>
	<g id="tap_x5F_centre">
	</g>
</g>
<g id="cap_x5F_on_1_">
</g>
<g id="cap_x5F_34off">
</g>
<g id="line_art_ref" display="none">
</g>
</svg>
