<?xml version="1.0" encoding="iso-8859-1"?>
<!-- Generator: Adobe Illustrator 18.1.1, SVG Export Plug-In . SVG Version: 6.00 Build 0)  -->
<!DOCTYPE svg PUBLIC "-//W3C//DTD SVG 1.1//EN" "http://www.w3.org/Graphics/SVG/1.1/DTD/svg11.dtd">
<svg version="1.1" xmlns="http://www.w3.org/2000/svg" xmlns:xlink="http://www.w3.org/1999/xlink" x="0px" y="0px"
	 viewBox="310.9 1053.5 92.3 44.9" enable-background="new 310.9 1053.5 92.3 44.9" xml:space="preserve">
<g id="main_x5F_comp_x5F_back-up_paths">
	<g id="body">
	</g>
	<g id="lid_1_">
	</g>
	<g id="spout_x5F_side_1_">
		<g id="spout_x5F_side">
		</g>
	</g>
	<g id="spout_x5F_34front">
		<g id="base">
		</g>
		<g id="tube">
		</g>
		<g id="spout">
		</g>
	</g>
	<g id="spout_x5F_front">
		<g id="base_copy_2">
		</g>
		<g id="lever_1_">
		</g>
	</g>
	<g id="cap_x5F_on">
	</g>
	<g id="cap_x5F_off">
	</g>
</g>
<g id="lip_x5F_front_1_">
	<g>
		<path d="M402.3,1063.1c0-0.3-0.4-0.4-0.9-0.4c-0.5,0-1.1,0.2-1.4,0.5c-0.2,0.2-0.4,0.4-0.3,0.6c0,0.2,0.1,0.4,0.1,0.6
			c-1.6,3.2-7.9,4.8-11.3,5.9c-14.5,4.6-32.2,3.8-47.2,1.9c-1.8-0.2-24.5-3.3-27.2-7.1c0-0.2,0-0.4,0-0.6c0-0.2-0.1-0.4-0.2-0.5
			c-0.4-0.2-1.4-0.1-1.9,0.2c-0.3,0.2-0.5,0.4-0.5,0.6c-0.3,3.9-0.2,7.9-0.1,11.9c0.1,3.4-0.6,8.1,1,11.2c2.7,5.4,13.3,7,18.8,8
			c9.3,1.7,18.9,2.6,28.4,2.4c11.6-0.3,24.9-1.1,35.3-6.3c3.7-1.8,7.1-4.3,7.6-8.2C403.3,1076.9,403.1,1069.8,402.3,1063.1z
			 M399.9,1081.9c-0.3,4.4-2,6.8-6.7,9.1c-10,4.9-23,5.5-34.1,5.7c-8,0.1-15.9-0.7-23.7-1.9c-5.6-0.9-17.3-2.2-20.4-7.6
			c-1.7-3-1-7.7-1.1-11c-0.1-3-0.2-6-0.1-8.9c4.6,3.5,15.8,5.2,18.7,5.8c9.9,1.9,20.1,2.8,30.2,2.7c8.5-0.1,17.7-0.5,25.8-2.9
			c3.6-1.1,8.7-2.6,11.5-5.4C400.3,1072.3,400.2,1077.1,399.9,1081.9z"/>
		<path fill="#FD0000" d="M388.5,1072.8c-8.1,2.5-17.3,2.8-25.8,2.9c-10.1,0.1-20.3-0.8-30.2-2.7c-2.9-0.5-14-2.3-18.7-5.8
			c-0.1,3,0,6,0.1,8.9c0.1,3.3-0.6,8,1.1,11c3.1,5.4,14.8,6.7,20.4,7.6c7.9,1.2,15.7,2,23.7,1.9c11.1-0.2,24.1-0.8,34.1-5.7
			c4.6-2.3,6.3-4.7,6.7-9.1c0.3-4.8,0.4-9.6,0.1-14.4C397.3,1070.3,392.1,1071.7,388.5,1072.8z"/>
	</g>
</g>
<g id="lip_x5F_back">
</g>
<g id="body_x5F_back">
</g>
<g id="body_x5F_front">
</g>
<g id="body_x5F_front_copy" display="none">
</g>
<g id="lid_copy_4">
	<g id="Layer_40">
	</g>
	<g id="Layer_40_copy">
	</g>
	<g id="Layer_40_copy_2">
	</g>
</g>
<g id="spout_x5F_side_2_">
	<g id="spout_x5F_side_3_">
	</g>
</g>
<g id="tap_x5F_side_1_">
</g>
<g id="spout_x5F_34front_1_">
	<g id="base_copy_5">
	</g>
	<g id="tube_copy_4">
	</g>
	<g id="spout_copy_3">
	</g>
</g>
<g id="tap_x5F_34front">
</g>
<g id="spout_x5F_front_1_">
	<g id="base_1_">
	</g>
	<g id="tap_x5F_centre">
	</g>
</g>
<g id="cap_x5F_on_1_">
</g>
<g id="cap_x5F_34off">
</g>
<g id="line_art_ref" display="none">
</g>
</svg>
