<?xml version="1.0" encoding="iso-8859-1"?>
<!-- Generator: Adobe Illustrator 18.1.1, SVG Export Plug-In . SVG Version: 6.00 Build 0)  -->
<!DOCTYPE svg PUBLIC "-//W3C//DTD SVG 1.1//EN" "http://www.w3.org/Graphics/SVG/1.1/DTD/svg11.dtd">
<svg version="1.1" xmlns="http://www.w3.org/2000/svg" xmlns:xlink="http://www.w3.org/1999/xlink" x="0px" y="0px"
	 viewBox="986.4 2143.5 40.3 59.1" enable-background="new 986.4 2143.5 40.3 59.1" xml:space="preserve">
<g id="main_x5F_comp_x5F_back-up_paths">
	<g id="body">
	</g>
	<g id="lid_1_">
	</g>
	<g id="spout_x5F_side_1_">
		<g id="spout_x5F_side">
		</g>
	</g>
	<g id="spout_x5F_34front">
		<g id="base">
		</g>
		<g id="tube">
		</g>
		<g id="spout">
		</g>
	</g>
	<g id="spout_x5F_front">
		<g id="base_copy_2">
		</g>
		<g id="lever_1_">
		</g>
	</g>
	<g id="cap_x5F_on">
	</g>
	<g id="cap_x5F_off">
	</g>
</g>
<g id="lip_x5F_front_1_">
</g>
<g id="lip_x5F_back">
</g>
<g id="body_x5F_back">
</g>
<g id="body_x5F_front">
</g>
<g id="body_x5F_front_copy" display="none">
</g>
<g id="lid_copy_4">
	<g id="Layer_40">
	</g>
	<g id="Layer_40_copy">
	</g>
	<g id="Layer_40_copy_2">
	</g>
</g>
<g id="spout_x5F_side_2_">
	<g id="spout_x5F_side_3_">
	</g>
</g>
<g id="tap_x5F_side_1_">
</g>
<g id="spout_x5F_34front_1_">
	<g id="base_copy_5">
	</g>
	<g id="tube_copy_4">
	</g>
	<g id="spout_copy_3">
	</g>
</g>
<g id="tap_x5F_34front">
	<g>
		<path d="M1026.4,2146.2c-0.1,0-0.3-0.1-0.4-0.1c-4.6-1-9.8-2.4-14.4-2.3c-7.6,0.1-15.5,1.7-22.9,2.8c0,0-0.1,0-0.1,0
			c-0.1-0.4-0.5,0-0.8,0.5c-0.6,0.6-1.1,1.4-1,1.8c0,0.2,0.3,0.5,0.5,0.7c0.6,8.7,1.6,17.4,2.7,26.1c0.5,4.1,1.1,8.2,1.7,12.2
			c0.4,2.6,0.2,7.7,1.7,9.9c1,1.4,4.4,2.8,5.9,3.6c0.4,0.2,0.7,0.3,1.1,0.4c0,0,0,0.1,0,0.1c0,0,0-0.1,0-0.1
			c1.3,0.4,2.4,0.4,4.1,0.3c3.3-0.1,9.6-0.4,11.7-3.6c1-1.6,1-4.5,1.3-6.2c2.7-15.1,5.7-30.2,8.8-45.3c0-0.2,0.1-0.4,0.1-0.6
			C1026.4,2146.4,1026.5,2146.2,1026.4,2146.2z M1009.4,2145.4c4.5-0.2,9.6,1,14.1,1.9c-7.2,2.8-15.8,4.3-23.2,4.8
			c-0.6,0-1.2,0-1.8-0.1c0-0.2,0-0.4-0.1-0.6c0,0.2-0.1,0.4-0.3,0.5c-2.8-0.6-5.7-2.3-8.2-3.4
			C996.4,2147.3,1002.9,2145.6,1009.4,2145.4z M997.2,2197c-3.3-2-3-3.2-3.7-7.1c-1.1-7.1-2.1-14.3-3-21.5
			c-0.7-5.9-1.3-11.9-1.8-17.9c2.8,1.3,7.4,2.6,8.2,2.7c0,0,0,0,0,0c1.6,15,2.4,30.2,3,45.3C999.1,2198.2,998.2,2197.6,997.2,2197z
			 M1016.7,2188.8c-0.3,1.7-0.4,7.7-1.6,9c0.3-0.3-1.6,0.1-1.8,0.1c-1.1,0.2-2.2,0.7-3.3,0.9c-2.3,0.5-5,0.8-7.3,0.6
			c-0.3,0-0.6-0.1-0.8-0.1c-0.6-15.5-1.6-30.5-3.2-45.9c3,0.1,6.4-0.7,9.3-1c5.7-0.7,11-1.5,16.3-3.9c0.1,0,0.3-0.2,0.5-0.4
			C1021.9,2161.7,1019.2,2175.2,1016.7,2188.8z"/>
		<path fill="#FD0000" d="M1008,2152.5c-2.9,0.3-6.3,1.1-9.3,1c1.6,15.4,2.5,30.4,3.2,45.9c0.3,0.1,0.5,0.1,0.8,0.1
			c2.3,0.2,5-0.1,7.3-0.6c1.1-0.2,2.2-0.7,3.3-0.9c0.2,0,2.1-0.4,1.8-0.1c1.3-1.3,1.3-7.3,1.6-9c2.5-13.6,5.1-27.1,8-40.6
			c-0.2,0.2-0.4,0.3-0.5,0.4C1019,2151,1013.7,2151.8,1008,2152.5z"/>
		<path fill="#FD0000" d="M998.5,2151.5c0,0.2,0,0.4,0.1,0.6c0.6,0.1,1.2,0.1,1.8,0.1c7.3-0.5,16-2,23.2-4.8
			c-4.5-1-9.6-2.1-14.1-1.9c-6.5,0.2-13,1.9-19.4,3.1c2.5,1.1,5.4,2.9,8.2,3.4C998.4,2151.8,998.5,2151.6,998.5,2151.5z"/>
		<path fill="#FD0000" d="M997,2153.4c-0.8-0.1-5.4-1.4-8.2-2.7c0.5,6,1.1,11.9,1.8,17.9c0.8,7.2,1.8,14.4,3,21.5
			c0.6,3.9,0.4,5.1,3.7,7.1c1,0.6,1.9,1.2,2.9,1.7C999.4,2183.6,998.6,2168.4,997,2153.4C997,2153.4,997,2153.4,997,2153.4z"/>
	</g>
</g>
<g id="spout_x5F_front_1_">
	<g id="base_1_">
	</g>
	<g id="tap_x5F_centre">
	</g>
</g>
<g id="cap_x5F_on_1_">
</g>
<g id="cap_x5F_34off">
</g>
<g id="line_art_ref" display="none">
</g>
</svg>
