<?xml version="1.0" encoding="iso-8859-1"?>
<!-- Generator: Adobe Illustrator 18.1.1, SVG Export Plug-In . SVG Version: 6.00 Build 0)  -->
<!DOCTYPE svg PUBLIC "-//W3C//DTD SVG 1.1//EN" "http://www.w3.org/Graphics/SVG/1.1/DTD/svg11.dtd">
<svg version="1.1" xmlns="http://www.w3.org/2000/svg" xmlns:xlink="http://www.w3.org/1999/xlink" x="0px" y="0px"
	 viewBox="285.8 1199.9 472.8 141.1" enable-background="new 285.8 1199.9 472.8 141.1" xml:space="preserve">
<g id="main_x5F_comp_x5F_back-up_paths">
	<g id="body">
	</g>
	<g id="lid_1_">
	</g>
	<g id="spout_x5F_side_1_">
		<g id="spout_x5F_side">
		</g>
	</g>
	<g id="spout_x5F_34front">
		<g id="base">
		</g>
		<g id="tube">
		</g>
		<g id="spout">
		</g>
	</g>
	<g id="spout_x5F_front">
		<g id="base_copy_2">
		</g>
		<g id="lever_1_">
		</g>
	</g>
	<g id="cap_x5F_on">
	</g>
	<g id="cap_x5F_off">
	</g>
</g>
<g id="lip_x5F_front_1_">
</g>
<g id="lip_x5F_back">
</g>
<g id="body_x5F_back">
</g>
<g id="body_x5F_front">
</g>
<g id="body_x5F_front_copy" display="none">
</g>
<g id="lid_copy_4">
	<g id="Layer_40">
	</g>
	<g id="Layer_40_copy">
		<path d="M758.3,1278.2c0.1,6,1.1,12.9-1.9,18.4c-3.4,6.3-10.2,10.4-16.4,13.5c-15.8,7.9-33.1,12.3-50.3,16
			c-36.4,7.9-73.5,11.5-110.6,13.4c-38.5,1.9-77,2.1-115.5-0.1c-36.1-2-72.8-5.3-108.3-13c-15.7-3.4-31.3-7.8-46-14.4
			c-5.6-2.5-11.2-5.4-15.8-9.5c-2.1-1.9-4.1-4.1-5.4-6.6c-1.6-3.1-2.5-3.3-2.2-6.8c0.9-9.2,1.5-18.4,1-27.6
			c-0.3-4.5-1.1-8.6,0.1-12.9c0.9-3.3,2.4-6,4.8-8.5c11.2-12,30.5-16.9,45.8-21c35.6-9.6,72.5-13.9,109.2-16.5
			c38.6-2.7,77.3-3.4,116-1.9c36.9,1.4,74.1,4.2,110.5,10.7c17.8,3.2,35.5,7.4,52.5,13.4c7.6,2.7,15.3,6,21.9,10.8
			c2.8,2,5.5,4.3,7.5,7.1c1,1.5,1.9,3.1,2.4,4.9c0.1,0.5,1.1,3.6,1.1,3.2C758,1259.9,758.1,1269.1,758.3,1278.2z"/>
	</g>
	<g id="Layer_40_copy_2">
		<g>
			<path fill="#FD0000" d="M755.8,1259c-5.6,11.2-23.1,16.7-34,20.5c-15.3,5.2-31.2,8.7-47.1,11.6c-32,5.9-64.4,8.9-96.8,10.5
				c-65.3,3.3-131.5,1.6-196.3-8.3c-17-2.6-33.9-6-50.3-11.1c-13.7-4.2-33-9.3-41.7-21.6c0.4,8.6-0.1,17.3-0.9,25.9
				c-0.7,6.7,1.3,10.9,6.9,15.2c12.7,9.9,30.4,14.5,45.6,18.3c36.9,9.3,75,13.6,113,15.9c38.7,2.4,77.5,2.9,116.2,1.1
				c37.9-1.7,76.1-4.8,113.2-12.5c19.8-4.1,41.3-8.8,58.9-19.2c6.1-3.6,13.2-8.6,13.6-15.9C756.5,1279.4,755.4,1269.2,755.8,1259
				C755.7,1259.2,755.5,1266.9,755.8,1259z"/>
			<path fill="#FD0000" d="M288.7,1250.9c0.6,3.8,0.8,6.2,3.5,9.2c2.3,2.6,5.2,4.6,8.2,6.4c6,3.6,12.5,6.4,19,8.8
				c14.9,5.5,30.6,9,46.2,12.1c32.9,6.4,66.5,9.5,100,11.3c67.7,3.6,137.3,2.3,204.2-9.3c15.8-2.7,31.6-6.3,47-11
				c12.1-3.7,26.8-8.4,35.8-17.9c21.7-22.8-47.1-39-59.4-41.7c-65.9-14.8-135.2-17.2-202.6-15.3c-37.1,1.1-74.5,3.8-111.1,9.7
				c-17.9,2.9-35.6,6.7-52.8,12.3c-7.7,2.5-15.5,5.2-22.6,9.1C298.2,1237.5,287.7,1243.6,288.7,1250.9
				C288.9,1252.6,288.6,1250.6,288.7,1250.9z"/>
			<path d="M758.6,1250.8c0,0.4-1-2.7-1.1-3.2c-0.5-1.8-1.4-3.4-2.4-4.9c-2-2.8-4.7-5.1-7.5-7.1c-6.7-4.7-14.2-8-21.9-10.8
				c-17-6.1-34.7-10.2-52.5-13.4c-36.4-6.6-73.6-9.3-110.5-10.7c-38.7-1.5-77.4-0.8-116,1.9c-36.8,2.6-73.6,6.9-109.2,16.5
				c-15.3,4.1-34.6,9-45.7,21c-2.3,2.5-3.8,5.2-4.8,8.5c-1.2,4.3-0.3,8.4-0.1,12.9c0.5,9.2-0.1,18.4-1,27.6
				c-0.4,3.5,0.6,3.7,2.2,6.8c1.3,2.5,3.3,4.7,5.4,6.6c4.6,4.1,10.2,7,15.8,9.5c14.6,6.6,30.3,11,46,14.4c35.4,7.8,72.1,11,108.3,13
				c38.5,2.2,77,2,115.5,0.1c37.1-1.9,74.3-5.5,110.6-13.4c17.2-3.7,34.5-8.1,50.3-16c6.2-3.1,13-7.1,16.4-13.5
				c3-5.5,2-12.4,1.9-18.4C758.1,1269.1,758,1259.9,758.6,1250.8C758.6,1250.6,757.8,1263.4,758.6,1250.8z M296.1,1239.4
				c12.1-9.2,27.9-13.7,42.4-17.7c15.5-4.3,31.2-7.3,47.1-9.7c33.3-4.9,66.9-7.5,100.5-8.6c67.4-2.3,136.8,0.1,202.9,14.3
				c15.1,3.2,30.2,7.2,44.4,13.3c9.5,4.1,27.6,12.7,21.8,25.5c-2.5,5.5-9.3,9.1-14.3,11.9c-6.5,3.6-13.5,6.3-20.5,8.6
				c-15.2,5-30.9,8.6-46.6,11.5c-66.7,12.2-136.4,13.7-204,10.3c-37.1-1.8-74.3-5.1-110.6-12.8c-17.4-3.6-35-7.9-51.1-15.5
				c-6.1-2.9-12.8-6.2-17-11.7C285.5,1251.5,289.7,1244.3,296.1,1239.4C304.4,1233,292.5,1242.2,296.1,1239.4z M755.9,1285.7
				c0.1,2.8,0.6,5-0.5,7.6c-1.4,3.2-4,5.7-6.7,7.8c-6.2,4.9-13.6,8.3-20.8,11.1c-16.6,6.4-34.2,10.5-51.6,13.8
				c-35.6,6.7-72,9.6-108.1,11.2c-36.9,1.6-73.9,1.2-110.7-1c-36.3-2.2-72.7-6-108.2-14.2c-17.1-4-35.3-8.6-50.3-17.9
				c-5.9-3.7-11.1-8.5-10.4-15.8c0.9-9.2,1.6-18.4,1.1-27.6c7.8,11,23.7,15.7,35.9,19.7c15,5,30.4,8.6,45.9,11.3
				c31.2,5.5,63.1,8.3,94.7,9.9c65.6,3.5,133,2.1,197.9-8.6c17.4-2.9,34.9-6.4,51.8-11.6c8.3-2.6,16.6-5.6,24.3-9.6
				c5.7-2.9,12.6-6.8,15.6-12.8C755.5,1267.9,755.7,1276.8,755.9,1285.7C756,1287.2,755.9,1284.7,755.9,1285.7z"/>
		</g>
	</g>
</g>
<g id="spout_x5F_side_2_">
	<g id="spout_x5F_side_3_">
	</g>
</g>
<g id="tap_x5F_side_1_">
</g>
<g id="spout_x5F_34front_1_">
	<g id="base_copy_5">
	</g>
	<g id="tube_copy_4">
	</g>
	<g id="spout_copy_3">
	</g>
</g>
<g id="tap_x5F_34front">
</g>
<g id="spout_x5F_front_1_">
	<g id="base_1_">
	</g>
	<g id="tap_x5F_centre">
	</g>
</g>
<g id="cap_x5F_on_1_">
</g>
<g id="cap_x5F_34off">
</g>
<g id="line_art_ref" display="none">
</g>
</svg>
