<?xml version="1.0" encoding="iso-8859-1"?>
<!-- Generator: Adobe Illustrator 18.1.1, SVG Export Plug-In . SVG Version: 6.00 Build 0)  -->
<!DOCTYPE svg PUBLIC "-//W3C//DTD SVG 1.1//EN" "http://www.w3.org/Graphics/SVG/1.1/DTD/svg11.dtd">
<svg version="1.1" xmlns="http://www.w3.org/2000/svg" xmlns:xlink="http://www.w3.org/1999/xlink" x="0px" y="0px"
	 viewBox="-129.1 2152.3 119.8 95.1" enable-background="new -129.1 2152.3 119.8 95.1" xml:space="preserve">
<g id="main_x5F_comp_x5F_back-up_paths">
	<g id="body">
	</g>
	<g id="lid_1_">
	</g>
	<g id="spout_x5F_side_1_">
		<g id="spout_x5F_side">
		</g>
	</g>
	<g id="spout_x5F_34front">
		<g id="base">
		</g>
		<g id="tube">
		</g>
		<g id="spout">
		</g>
	</g>
	<g id="spout_x5F_front">
		<g id="base_copy_2">
		</g>
		<g id="lever_1_">
		</g>
	</g>
	<g id="cap_x5F_on">
	</g>
	<g id="cap_x5F_off">
	</g>
</g>
<g id="lip_x5F_front_1_">
</g>
<g id="lip_x5F_back">
</g>
<g id="body_x5F_back">
</g>
<g id="body_x5F_front">
</g>
<g id="body_x5F_front_copy" display="none">
</g>
<g id="lid_copy_4">
	<g id="Layer_40">
	</g>
	<g id="Layer_40_copy">
	</g>
	<g id="Layer_40_copy_2">
	</g>
</g>
<g id="spout_x5F_side_2_">
	<g id="spout_x5F_side_3_">
		<g id="spout_3_">
			<g>
				<path d="M-15.2,2156.4c-13-5.8-30.4-4.2-43.8-1c0,0,0,0-0.1,0c0,0,0,0,0,0c-0.1,0-0.1,0.1-0.2,0.1c-3.6,1.6-7.8,4.4-9.5,8
					c-1,2.2-0.8,4.1,0.2,5.8c0.6,3.7,1.3,7.4,1.9,11.2c0.5,0,0.9,0,1.4,0c-0.6-3.1-1.1-6.2-1.6-9.1c4.2,3.9,12.5,6.1,16.3,6.6
					c6.8,0.9,17,1.5,24.7,0.1c3.9-0.7,7.8-2.1,11.1-4.3c0.9-0.6,1.8-1.7,2.6-3c0.8-1.3,1.5-2.8,2-4.1c0.2-0.4,0.3-0.9,0.4-1.3
					C-8.9,2161.6-12,2157.8-15.2,2156.4z M-11.7,2166.8c-1.2,8-20.8,8.1-25.6,8.3c-9.2,0.3-18.3,0.1-26.1-5.4
					c-6.3-4.4-3.3-9.7,2.6-12.3c10.8-2.6,24-4,35-2.3c5.7,0.9,13.9,2.9,14.1,10.8C-11.7,2166.1-11.7,2166.5-11.7,2166.8z"/>
				<path fill="#FFFFFF" d="M-11.7,2165.8c0,0.3,0,0.6-0.1,1c-1.2,8-20.8,8.1-25.6,8.3c-9.2,0.3-18.3,0.1-26.1-5.4
					c-6.3-4.4-3.3-9.7,2.6-12.3c10.8-2.6,24-4,35-2.3C-20.1,2156-11.9,2158-11.7,2165.8z"/>
				<path fill="#FFFFFF" d="M-12.1,2170.8c-1.6,13.3-3.7,26.6-6.5,39.7c-0.8,3.9-1.6,7.3-2.5,11.1c-0.7,2.9-2.5,3.8-5.3,5.6
					c-7.2,4.7-17.9,2.8-26.2-0.8c-0.9-0.4-1.5-1.1-1.8-1.5c-0.9-1.1-1.8-3.4-2.1-4.8c-0.5-1.9-0.9-3.6-1.4-5.5
					c0-0.2-0.1-0.3-0.1-0.5c0.1-0.1,0.2-0.2,0.2-0.4c0-11-1.4-22-3.9-32.7c-0.1-0.6-1.4-0.6-1.8-0.6c-0.5,0-1.1,0-1.6,0
					c-0.6-3.1-1.1-6.2-1.6-9.1c4.2,3.9,12.5,6.1,16.3,6.6c6.8,0.9,17,1.5,24.7,0.1c3.9-0.7,7.8-2.1,11.1-4.3
					C-13.8,2173.1-12.9,2172-12.1,2170.8z"/>
				<path fill="#00DDFD" d="M-28.7,2232.5v7.1c0,5.4-7,6.1-11.2,5.7c-9-0.9-7.8-7.2-7.6-13.9c0.7,0.2,1.3,0.4,1.9,0.5
					c4.9,1.4,10.2,2.1,15.2,0.9C-29.8,2232.9-29.3,2232.7-28.7,2232.5z"/>
			</g>
		</g>
		<g id="base_3_">
			<g id="XMLID_12_">
				<g>
					<g>
						<path fill="#00DDFD" d="M-110.7,2199.6c-0.1,3.6-0.2,10.9,3.3,13.3c1.2,0.8,2.6,0.6,4,0.6c1.2,0,2.5,0,3.7,0.1
							c-1.4,6.9-3.5,13.7-7.5,19.3c-2.4,3.4-6.9,4.4-10.1,0.7c-2.7-3.2-3.2-10.4-3.7-14.5c-1.5-13.6,1-29.4,4.4-42.4
							c1.5-5.6,4.5-12.9,9.5-16.3c1-0.7,3.7-2.3,5.1-2.3c2.6,0,4,3.1,4.8,5.1c2.2,5.6,1.9,11.4,1.7,17.3c-2.4,0-4.8-0.1-7.3-0.2
							c-0.3,0-0.6,0-0.8,0.1c-0.1,0-0.2,0-0.3,0.1C-110.3,2183-110.5,2194.2-110.7,2199.6z"/>
					</g>
					<g>
						<path d="M-12.1,2170.8c-1.6,13.3-3.7,26.6-6.5,39.7c-0.8,3.9-1.6,7.3-2.5,11.1c-0.7,2.9-2.5,3.8-5.3,5.6
							c-7.2,4.7-17.9,2.8-26.2-0.8c-0.9-0.4-1.5-1.1-1.8-1.5c-0.9-1.1-1.8-3.4-2.1-4.8c-0.5-1.9-0.9-3.6-1.4-5.5
							c0-0.2-0.1-0.3-0.1-0.5c0.1-0.1,0.2-0.2,0.2-0.4c0-11-1.4-22-3.9-32.7c-0.1-0.6-1.4-0.6-1.8-0.6c-0.5,0-1.1,0-1.6,0
							c-0.5,0-0.9,0-1.4,0c-9.2,0.2-18.4,0.3-27.6,0.1c0-0.3,0-0.6,0-0.8c0.3-6.2,0.2-12.3-2.1-18.2c-1-2.6-2.3-4.9-4.2-5.8
							c-4.1-2.8-12.1-0.4-15.2,2.4c-4.6,4.2-7.1,12.9-8.9,18.8c-3.1,10.4-4.4,21.9-4.4,32.8c-0.1,7.5,0.2,17.1,4.3,23.7
							c2,3.3,5.9,4.6,9.7,4.7c2.1,1.1,4.6,1.3,6.5-0.3c4-3.1,6.2-9.7,7.6-14.3c1.1-3.3,1.8-6.7,2.5-10.1c12.9,0.2,25.9,0.5,38.8,0.7
							c0.9,3.8,1.9,7.5,3,11.3c0.4,1.2,0.5,1.9,1.3,2.7c1.2,1,3,1.8,4.9,2.4c-0.1,3.2-0.6,6.8,0.1,9.9c1,4.5,6.5,6.1,10.2,6.4
							c3.8,0.4,11.3-0.4,13.6-4.4c0.9-1.6,0.5-3.8,0.5-5.6v-5.6c2.3-1.2,4.5-2.9,5.5-5c1.1-2.4,1.4-5.7,2-8.3
							c3.8-16.8,6.6-33.9,8.4-51c0-0.1,0-0.3,0-0.4 M-125.7,2204.4c0.6-9.9,1.7-20.4,5-29.8c1.5-4.4,3.2-8.9,5.6-13
							c1.7-2.9,7.1-7.5,11-5.9c-0.3,0.1-0.7,0.2-1,0.4c-7,3.2-10.7,11.6-12.5,18.6c-3.7,13.7-6,29.5-4.6,43.6
							c0.5,5.4,1.3,11.5,3.8,16.3c0.4,0.8,1,1.5,1.7,2.2C-127.4,2233.9-126.2,2212.9-125.7,2204.4z M-107.2,2233
							c-2.4,3.4-6.9,4.4-10.1,0.7c-2.7-3.2-3.2-10.4-3.7-14.5c-1.5-13.6,1-29.4,4.4-42.4c1.5-5.6,4.5-12.9,9.5-16.3
							c1-0.7,3.7-2.3,5.1-2.3c2.6,0,4,3.1,4.8,5.1c2.2,5.6,1.9,11.4,1.7,17.3c-2.4,0-4.8-0.1-7.3-0.2c-0.3,0-0.6,0-0.8,0.1
							c-0.1,0-0.2,0-0.3,0.1c-6.6,2.4-6.8,13.6-6.9,19.1c-0.1,3.6-0.2,10.9,3.3,13.3c1.2,0.8,2.6,0.6,4,0.6c1.2,0,2.5,0,3.7,0.1
							C-101.1,2220.5-103.2,2227.4-107.2,2233z M-60.1,2207.1c0,0.3,0,0.7,0,1c0,0.3,0,0.6,0,0.9c0,0.6-0.1,1.2-0.1,1.7c0,0,0,0,0,0
							c0,0.2,0,0.4-0.1,0.6c0,0.2-0.1,0.4-0.1,0.6c0,0.1,0,0.2-0.1,0.3c0,0.2-0.1,0.4-0.1,0.7c-12.4-0.2-24.9-0.5-37.3-0.7
							c-0.3,0-0.7,0-1.1,0c-0.1,0-0.3,0-0.4,0c-1.7,0.1-4.8,0.5-6.1-0.1c-0.1,0-0.2,0-0.3,0c0.3-0.1-1.1-3.9-1.2-4.2
							c-0.7-2.3-0.8-4.7-0.8-7.1c0.1-4.7,0-16.4,5.7-19c2.2,0.1,4.4,0.1,6.6,0.1c0.4,0,0.9,0,1.3,0c9.3,0.1,18.6,0,27.9-0.1
							c0.5,0,0.9,0,1.4,0c0.2,0,0.4,0,0.7,0c0.2,0.3,0.3,0.6,0.5,0.9c0.1,0.2,0.1,0.3,0.2,0.5c0,0,0,0.1,0,0.1
							c0.1,0.3,0.2,0.5,0.3,0.8c0.2,0.4,0.3,0.9,0.5,1.3c0.1,0.2,0.1,0.4,0.2,0.7c0.1,0.3,0.1,0.5,0.2,0.8c0.1,0.2,0.1,0.5,0.2,0.7
							c0.1,0.2,0.1,0.5,0.2,0.8c0.5,2.3,0.9,4.8,1.3,7.5c0,0.4,0.1,0.9,0.2,1.3c0,0.2,0,0.3,0,0.5c0,0.4,0.1,0.8,0.1,1.3
							c0,0.6,0.1,1.1,0.1,1.7c0,0.6,0.1,1.1,0.1,1.7c0,1.1,0.1,2.1,0.1,3.1v0.3c0,0,0,0,0,0C-60.1,2206.1-60.1,2206.6-60.1,2207.1z
							 M-28.7,2239.6c0,5.4-7,6.1-11.2,5.7c-9-0.9-7.8-7.2-7.6-13.9c0.7,0.2,1.3,0.4,1.9,0.5c4.9,1.4,10.2,2.1,15.2,0.9
							c0.5-0.1,1-0.3,1.6-0.4V2239.6z"/>
						<path fill="#00DDFD" d="M-60.1,2207.1c0,0.3,0,0.7,0,1c0,0.3,0,0.6,0,0.9c0,0.6-0.1,1.2-0.1,1.7c0,0,0,0,0,0
							c0,0.2,0,0.4-0.1,0.6c0,0.2-0.1,0.4-0.1,0.6c0,0.1,0,0.2-0.1,0.3c0,0.2-0.1,0.4-0.1,0.7c-12.4-0.2-24.9-0.5-37.3-0.7
							c-0.3,0-0.7,0-1.1,0c-0.1,0-0.3,0-0.4,0c-1.7,0.1-4.8,0.5-6.1-0.1c-0.1,0-0.2,0-0.3,0c0.3-0.1-1.1-3.9-1.2-4.2
							c-0.7-2.3-0.8-4.7-0.8-7.1c0.1-4.7,0-16.4,5.7-19c2.2,0.1,4.4,0.1,6.6,0.1c0.4,0,0.9,0,1.3,0c9.3,0.1,18.6,0,27.9-0.1
							c0.5,0,0.9,0,1.4,0c0.2,0,0.4,0,0.7,0c0.2,0.3,0.3,0.6,0.5,0.9c0.1,0.2,0.1,0.3,0.2,0.5c0,0,0,0.1,0,0.1
							c0.1,0.3,0.2,0.5,0.3,0.8c0.2,0.4,0.3,0.9,0.5,1.3c0.1,0.2,0.1,0.4,0.2,0.7c0.1,0.3,0.1,0.5,0.2,0.8c0.1,0.2,0.1,0.5,0.2,0.7
							c0.1,0.2,0.1,0.5,0.2,0.8c0.5,2.3,0.9,4.8,1.3,7.5c0,0.4,0.1,0.9,0.2,1.3c0,0.2,0,0.3,0,0.5c0,0.4,0.1,0.8,0.1,1.3
							c0,0.6,0.1,1.1,0.1,1.7c0,0.6,0.1,1.1,0.1,1.7c0,1.1,0.1,2.1,0.1,3.1v0.3c0,0,0,0,0,0C-60.1,2206.1-60.1,2206.6-60.1,2207.1z"
							/>
					</g>
					<g>
						<path fill="#00DDFD" d="M-104.1,2155.8c-0.3,0.1-0.7,0.2-1,0.4c-7,3.2-10.7,11.6-12.5,18.6c-3.7,13.7-6,29.5-4.6,43.6
							c0.5,5.4,1.3,11.5,3.8,16.3c0.4,0.8,1,1.5,1.7,2.2c-10.6-3-9.4-24-8.8-32.5c0.6-9.9,1.7-20.4,5-29.8c1.5-4.4,3.2-8.9,5.6-13
							C-113.4,2158.8-108,2154.2-104.1,2155.8z"/>
					</g>
				</g>
			</g>
		</g>
	</g>
</g>
<g id="tap_x5F_side_1_">
</g>
<g id="spout_x5F_34front_1_">
	<g id="base_copy_5">
	</g>
	<g id="tube_copy_4">
	</g>
	<g id="spout_copy_3">
	</g>
</g>
<g id="tap_x5F_34front">
</g>
<g id="spout_x5F_front_1_">
	<g id="base_1_">
	</g>
	<g id="tap_x5F_centre">
	</g>
</g>
<g id="cap_x5F_on_1_">
</g>
<g id="cap_x5F_34off">
</g>
<g id="line_art_ref" display="none">
</g>
</svg>
