<?xml version="1.0" encoding="iso-8859-1"?>
<!-- Generator: Adobe Illustrator 18.1.1, SVG Export Plug-In . SVG Version: 6.00 Build 0)  -->
<!DOCTYPE svg PUBLIC "-//W3C//DTD SVG 1.1//EN" "http://www.w3.org/Graphics/SVG/1.1/DTD/svg11.dtd">
<svg version="1.1" xmlns="http://www.w3.org/2000/svg" xmlns:xlink="http://www.w3.org/1999/xlink" x="0px" y="0px"
	 viewBox="591.9 1058.8 147.4 54.9" enable-background="new 591.9 1058.8 147.4 54.9" xml:space="preserve">
<g id="main_x5F_comp_x5F_back-up_paths">
	<g id="body">
	</g>
	<g id="lid_1_">
	</g>
	<g id="spout_x5F_side_1_">
		<g id="spout_x5F_side">
		</g>
	</g>
	<g id="spout_x5F_34front">
		<g id="base">
		</g>
		<g id="tube">
		</g>
		<g id="spout">
		</g>
	</g>
	<g id="spout_x5F_front">
		<g id="base_copy_2">
		</g>
		<g id="lever_1_">
		</g>
	</g>
	<g id="cap_x5F_on">
	</g>
	<g id="cap_x5F_off">
	</g>
</g>
<g id="lip_x5F_front_1_">
</g>
<g id="lip_x5F_back">
</g>
<g id="body_x5F_back">
</g>
<g id="body_x5F_front">
</g>
<g id="body_x5F_front_copy" display="none">
</g>
<g id="lid_copy_4">
	<g id="Layer_40">
	</g>
	<g id="Layer_40_copy">
	</g>
	<g id="Layer_40_copy_2">
	</g>
</g>
<g id="spout_x5F_side_2_">
	<g id="spout_x5F_side_3_">
	</g>
</g>
<g id="tap_x5F_side_1_">
</g>
<g id="spout_x5F_34front_1_">
	<g id="base_copy_5">
	</g>
	<g id="tube_copy_4">
	</g>
	<g id="spout_copy_3">
	</g>
</g>
<g id="tap_x5F_34front">
</g>
<g id="spout_x5F_front_1_">
	<g id="base_1_">
	</g>
	<g id="tap_x5F_centre">
	</g>
</g>
<g id="cap_x5F_on_1_">
</g>
<g id="cap_x5F_34off">
	<g>
		<path fill="#FD0000" d="M638.9,1076.8c0.1-0.7,0.2-1.4,0.4-2.1c-1.4-0.6-2.9-1.2-4.4-1.6c-4.8-1.3-9.4-2-14.4-0.9
			c-0.2,0-0.3-0.1-0.5-0.3c-0.1,0.2-0.3,0.3-0.4,0.3c-4.9,1.1-9.8,2.9-14.3,5.3c2.4-0.6,4.8-1,7.2-1.1c6.2-0.4,12.6,0.9,17.7,3.7
			c1.5,0.8,3,1.8,4.3,3c0.5,0.4,1.5,1.9,2.4,2.9c0.1,0.1,0.2,0.2,0.3,0.3C637.3,1083.2,638.4,1079.7,638.9,1076.8z"/>
		<path fill="#840D0D" d="M609.9,1078.6c-4.9,0.8-9.6,2.6-13.4,5.3C601.2,1082.7,605.9,1081.1,609.9,1078.6z"/>
		<path d="M738.2,1082c-0.2-2.3-2-4.7-4.2-6.1c-2.5-1.6-5.9-2.6-8.7-3.7c-6.3-2.5-12.7-4.7-19.3-6.4c-10.4-2.7-20.9-4.9-31.7-6
			c-5.1-0.5-10.2-0.7-15.2-0.7c-4.3,0-12.8-0.7-15.9,2.7c-0.5,0.6-0.9,1.2-1,1.9c-0.3,0.1-0.6,0.3-0.6,0.5c-0.9,3-1.6,6.2-2.1,9.3
			c-6.1-3.3-13.9-4.3-20.1-2.9c0,0,0,0.1,0,0.2c-6.8,1.6-13.4,4.5-19,8.6c-3.1,1.4-5.9,3.3-8.2,5.8c-0.3,0.4,0.9,1.9,1,1.7
			c0.1-0.1,0.3-0.3,0.4-0.4c0.1,0.1,0.3,0.2,0.4,0.1c6.6-1.5,13.7-3.7,19.1-7.9c0.1-0.1,0.2-0.3,0.2-0.5c8.7-0.5,17.6,2.1,23.3,8.1
			c0.2,0.2,0.4,0.5,0.6,0.7c0,0.7,0.1,1.3,0.3,2c1.7,6.3,12.7,10.5,18.2,12.7c9.6,3.9,19.6,7,29.8,8.9c12.5,2.3,26.8,4.4,39.1,1.2
			c4.3-1.1,8.5-3,10-7.1c2.4-7,3.8-14.7,4.5-22C739.1,1082.3,738.7,1082.1,738.2,1082z M651.8,1062.1c3.3-0.3,6.6-0.3,9.8-0.3
			c4.3,0.1,8.6,0.3,12.8,0.7c17.2,1.8,34.5,6,50.6,12.4c2.3,0.9,11.9,3.9,11.5,7.4c-0.3,0.1-0.5,0.3-0.5,0.6c0,0.2,0,0.5-0.1,0.7
			c-2.5,3-9.5,3.4-13.3,3.7c-16.5,1.6-35.2-3.1-50.8-8.5c-1.9-0.6-25.4-9-27.5-13.6c0.1-0.2,0.1-0.4,0.2-0.7s0-0.4-0.2-0.5
			C645.4,1062.4,650.2,1062.2,651.8,1062.1z M596.6,1083.9c3.8-2.8,8.5-4.6,13.4-5.3C605.9,1081.1,601.2,1082.7,596.6,1083.9z
			 M636.9,1086c-0.9-1-1.9-2.4-2.4-2.9c-1.3-1.2-2.8-2.2-4.3-3c-5.1-2.8-11.5-4-17.7-3.7c-2.5,0.1-4.9,0.5-7.2,1.1
			c4.5-2.5,9.4-4.3,14.3-5.3c0.2,0,0.3-0.2,0.4-0.3c0.2,0.2,0.3,0.4,0.5,0.3c5-1.1,9.6-0.4,14.4,0.9c1.5,0.4,3,0.9,4.4,1.6
			c-0.1,0.7-0.3,1.4-0.4,2.1c-0.5,2.8-1.7,6.4-1.7,9.6C637.1,1086.3,637,1086.2,636.9,1086z M732.3,1102.3c-1.3,4.7-3.7,6.9-9.1,8.2
			c-11.8,3-25.8,0.8-37.7-1.5c-8.5-1.6-16.8-4.2-24.9-7.3c-5.8-2.2-18-6.2-20.1-12.7c-1.2-3.6,0.7-8.4,1.3-12
			c0.5-3.2,1.1-6.4,1.9-9.6c4.2,4.8,15.7,9.1,18.6,10.3c10.2,4.2,20.8,7.4,31.7,9.6c9.1,1.8,18.9,3.4,28.2,2.6
			c4.1-0.4,9.9-0.8,13.4-3.2C734.9,1092.1,733.7,1097.2,732.3,1102.3z"/>
		<path fill="#FD0000" d="M694,1087.4c-10.8-2.1-21.5-5.4-31.7-9.6c-2.9-1.2-14.5-5.5-18.6-10.3c-0.8,3.2-1.4,6.4-1.9,9.6
			c-0.6,3.5-2.4,8.4-1.3,12c2.1,6.5,14.3,10.5,20.1,12.7c8.1,3,16.4,5.6,24.9,7.3c11.9,2.3,25.9,4.5,37.7,1.5
			c5.4-1.4,7.8-3.6,9.1-8.2c1.4-5.1,2.6-10.2,3.3-15.4c-3.5,2.4-9.3,2.8-13.4,3.2C713,1090.9,703.1,1089.2,694,1087.4z"/>
		<path fill="#840000" d="M644.6,1064.4c-0.1,0.2-0.1,0.4-0.2,0.7c2.1,4.6,25.6,13,27.5,13.6c15.6,5.4,34.3,10.1,50.8,8.5
			c3.8-0.4,10.9-0.7,13.3-3.7c0-0.2,0-0.5,0.1-0.7c0-0.3,0.2-0.5,0.5-0.6c0.3-3.5-9.2-6.5-11.5-7.4c-16.1-6.4-33.4-10.6-50.6-12.4
			c-4.3-0.4-8.6-0.6-12.8-0.7c-3.3-0.1-6.6,0-9.8,0.3c-1.6,0.1-6.4,0.3-7.4,1.8C644.6,1064,644.7,1064.2,644.6,1064.4z"/>
	</g>
</g>
<g id="line_art_ref" display="none">
</g>
</svg>
