<?xml version="1.0" encoding="iso-8859-1"?>
<!-- Generator: Adobe Illustrator 18.1.1, SVG Export Plug-In . SVG Version: 6.00 Build 0)  -->
<!DOCTYPE svg PUBLIC "-//W3C//DTD SVG 1.1//EN" "http://www.w3.org/Graphics/SVG/1.1/DTD/svg11.dtd">
<svg version="1.1" xmlns="http://www.w3.org/2000/svg" xmlns:xlink="http://www.w3.org/1999/xlink" x="0px" y="0px"
	 viewBox="374.6 917.4 115.7 62.2" enable-background="new 374.6 917.4 115.7 62.2" xml:space="preserve">
<g id="main_x5F_comp_x5F_back-up_paths">
	<g id="body">
	</g>
	<g id="lid_1_">
	</g>
	<g id="spout_x5F_side_1_">
		<g id="spout_x5F_side">
		</g>
	</g>
	<g id="spout_x5F_34front">
		<g id="base">
		</g>
		<g id="tube">
		</g>
		<g id="spout">
		</g>
	</g>
	<g id="spout_x5F_front">
		<g id="base_copy_2">
		</g>
		<g id="lever_1_">
		</g>
	</g>
	<g id="cap_x5F_on">
	</g>
	<g id="cap_x5F_off">
	</g>
</g>
<g id="lip_x5F_front_1_">
</g>
<g id="lip_x5F_back">
</g>
<g id="body_x5F_back">
</g>
<g id="body_x5F_front">
</g>
<g id="body_x5F_front_copy" display="none">
</g>
<g id="lid_copy_4">
	<g id="Layer_40">
	</g>
	<g id="Layer_40_copy">
	</g>
	<g id="Layer_40_copy_2">
	</g>
</g>
<g id="spout_x5F_side_2_">
	<g id="spout_x5F_side_3_">
	</g>
</g>
<g id="tap_x5F_side_1_">
</g>
<g id="spout_x5F_34front_1_">
	<g id="base_copy_5">
	</g>
	<g id="tube_copy_4">
	</g>
	<g id="spout_copy_3">
	</g>
</g>
<g id="tap_x5F_34front">
</g>
<g id="spout_x5F_front_1_">
	<g id="base_1_">
	</g>
	<g id="tap_x5F_centre">
	</g>
</g>
<g id="cap_x5F_on_1_">
	<g>
		<path fill="none" d="M474.3,950.2c-0.3,2.3-1.5,4.1-3.1,5.5c0,0.2,0,0.4,0,0.6c0.1,0,0.2,0,0.3,0c0.7,0,1.4,0.1,2,0
			c0.3,0,0.7-0.1,1.1-0.1h0c0,0,0,0,0,0c0-0.1,0.1-0.2,0.1-0.4c0,0,0,0,0,0c1-2.8,0.9-5.8-0.2-8.4
			C474.5,948.4,474.4,949.3,474.3,950.2z"/>
		<path fill="#FD0000" d="M455.2,963.4c-0.1-0.1-0.2-0.2-0.2-0.3c-8.9,2.2-18.6,2.7-27.4,2.9c-10.4,0.3-20.8-0.8-31-2.6
			c-3.7-0.7-9.7-1.7-14.4-3.7c-0.1,2.9-0.2,6.3,1.1,8.7c3.1,5.4,14.8,6.7,20.4,7.6c7.9,1.2,15.7,2,23.7,1.9
			c11.1-0.2,24.1-0.8,34.1-5.7c3.9-1.9,5.7-3.9,6.4-7.2C463.6,965.9,458.6,965.1,455.2,963.4z"/>
		<path fill="#FD0000" d="M401.3,962.4c8.6,1.3,17.2,2.2,25.9,2c8.9-0.1,19-0.5,28-2.9c0.2-0.2,0.4-0.3,0.7-0.2
			c2.9-0.8,5.8-1.8,8.4-3.1c5-2.5,6.9-5.1,7.3-9.9c0.1-1.6,0.2-3.1,0.2-4.7c-0.8-0.7-1.7-1.2-2.8-1.7c-4.8-2-10.7-2.4-16.3-2
			c-7.1,1.3-14.6,1.6-21.7,1.7c-11,0.1-22.1-0.9-32.9-2.9c-3.1-0.6-15.3-2.5-20.3-6.3c-0.1,3.3,0,6.5,0.1,9.7
			c0.1,3.6-0.7,8.7,1.2,12C382.4,960,395.2,961.5,401.3,962.4z"/>
		<path fill="#FD0000" d="M378,929.2c0,0.2,0,0.5-0.1,0.7c3,4.1,27.7,7.5,29.7,7.7c11.7,1.5,24.8,2.3,37.1,0.9
			c0.1-0.2,0.2-0.4,0.4-0.4c2.2-0.3,4.7-0.7,7.4-0.8c2.3-0.5,4.5-1,6.7-1.7c2.8-0.9,7.5-2.1,10.3-4.2c-0.1-0.3,0-0.5,0.6-0.5
			c0.6-0.5,1-1,1.3-1.6c0-0.2,0-0.5-0.1-0.7c0-0.3,0.1-0.5,0.4-0.7c-0.4-3.5-10.3-4.4-12.8-4.9c-17-3-34.8-3.5-52-1.8
			c-4.3,0.5-8.5,1.2-12.7,2c-3.2,0.6-6.5,1.3-9.6,2.3c-1.6,0.5-6.2,1.6-6.9,3.3C377.9,928.8,378,928.9,378,929.2z"/>
		<path d="M474.5,931.2c-0.1-1.2-0.2-2.3-0.4-3.5c0-0.3-0.4-0.5-0.9-0.5c-0.7-2.3-2.9-4.2-5.4-5.1c-2.8-1-6.3-1.3-9.3-1.8
			c-6.7-1.2-13.4-2-20.2-2.4c-10.8-0.5-21.5-0.5-32.2,0.6c-5,0.6-10.1,1.4-15,2.4c-4.2,0.9-12.7,2-15,5.9c-0.4,0.7-0.6,1.4-0.6,2
			c-0.3,0.2-0.5,0.4-0.5,0.6c-0.3,4.3-0.3,8.6-0.1,12.9c0.1,3.7-0.6,8.8,1.1,12.2c0.7,1.4,1.9,2.6,3.5,3.6c0,3.3-0.5,7.7,1,10.6
			c2.7,5.4,13.3,7,18.8,8c9.3,1.7,18.9,2.6,28.4,2.4c11.6-0.3,24.9-1.1,35.3-6.3c3.7-1.8,7.1-4.3,7.6-8.2c0-0.3,0.1-0.5,0.1-0.8
			c0.4-0.2,0.8-0.4,1.1-0.6c9.3-2.7,16.9-8.4,18.1-17.7C491.1,936.5,483.3,932.4,474.5,931.2z M384.6,925.4c3.1-1,6.3-1.7,9.6-2.3
			c4.2-0.8,8.4-1.5,12.7-2c17.2-1.8,35-1.2,52,1.8c2.5,0.4,12.4,1.4,12.8,4.9c-0.3,0.2-0.4,0.4-0.4,0.7c0,0.2,0.1,0.5,0.1,0.7
			c-0.3,0.6-0.8,1.1-1.3,1.6c-0.6,0-0.7,0.2-0.6,0.5c-2.8,2.1-7.5,3.4-10.3,4.2c-2.2,0.7-4.4,1.2-6.7,1.7c-2.7,0.2-5.2,0.5-7.4,0.8
			c-0.2,0-0.3,0.2-0.4,0.4c-12.3,1.4-25.4,0.6-37.1-0.9c-2-0.3-26.7-3.6-29.7-7.7c0-0.2,0-0.5,0.1-0.7c0-0.2-0.1-0.4-0.3-0.5
			C378.3,927,383,925.9,384.6,925.4z M377.9,942.1c-0.1-3.2-0.2-6.5-0.1-9.7c5,3.8,17.2,5.7,20.3,6.3c10.8,2,21.9,3,32.9,2.9
			c7.1-0.1,14.6-0.3,21.7-1.7c5.6-0.4,11.5,0,16.3,2c1.1,0.4,2,1,2.8,1.7c-0.1,1.6-0.1,3.1-0.2,4.7c-0.3,4.8-2.2,7.5-7.3,9.9
			c-2.6,1.3-5.5,2.3-8.4,3.1c-0.3-0.1-0.5,0-0.7,0.2c-9,2.4-19.1,2.8-28,2.9c-8.7,0.1-17.3-0.7-25.9-2c-6.1-0.9-18.9-2.4-22.3-8.3
			C377.2,950.8,378,945.7,377.9,942.1z M465.8,962.8c-3.3,0.5-6.9,0-9.7-1.4c2.3-0.5,7.3-1.7,11-3.9c-0.1,0.2-0.1,0.3,0.1,0.4
			c1.8,0.5,4.6,0.6,6.8,0C472.2,960.7,469.1,962.3,465.8,962.8z M474.8,955.9C474.8,955.9,474.8,955.9,474.8,955.9
			c-0.1,0.1-0.1,0.2-0.2,0.4c0,0,0,0,0,0h0c-0.3,0-0.7,0.1-1.1,0.1c-0.7,0.1-1.4,0-2,0c-0.1,0-0.2,0-0.3,0c0-0.2,0-0.4,0-0.6
			c1.6-1.5,2.8-3.3,3.1-5.5c0.1-0.9,0.2-1.8,0.3-2.8C475.7,950.1,475.8,953.1,474.8,955.9z M461.5,972.1c-10,4.9-23,5.5-34.1,5.7
			c-8,0.1-15.9-0.7-23.7-1.9c-5.6-0.9-17.3-2.2-20.4-7.6c-1.3-2.3-1.2-5.7-1.1-8.7c4.7,2.1,10.6,3.1,14.4,3.7
			c10.2,1.8,20.6,2.9,31,2.6c8.8-0.2,18.5-0.7,27.4-2.9c0.1,0.1,0.1,0.2,0.2,0.3c3.4,1.7,8.4,2.5,12.7,1.5
			C467.2,968.2,465.4,970.2,461.5,972.1z M485.4,951c-2,4.1-5.8,7-10.1,9c0.7-1.3,1.2-2.7,1.5-4.2c0,0,0,0,0,0
			c0.1-0.3,0.2-0.6,0.3-0.9c0-0.1,0-0.2-0.2-0.2c0.4-3.7-0.5-7.6-2.2-10.5c-3.1-5.1-10-6.8-17-7c3.7-1.2,7.9-2.8,12.2-5.2
			c0.4,0.3,0.8,0.5,1.3,0.5c4.5,0.2,10.5,1,13.7,4.1C488.6,940.2,487.5,946.8,485.4,951z"/>
		<path fill="#FD0000" d="M471.2,932.4c-0.4,0-0.9-0.2-1.3-0.5c-4.3,2.4-8.5,4.1-12.2,5.2c7,0.2,13.8,1.8,17,7
			c1.8,2.9,2.6,6.9,2.2,10.5c0.1,0,0.2,0.1,0.2,0.2c-0.1,0.3-0.2,0.6-0.3,0.9c0,0,0,0,0,0c-0.3,1.5-0.7,2.9-1.5,4.2
			c4.3-2,8.1-4.9,10.1-9c2.1-4.1,3.1-10.7-0.5-14.4C481.7,933.4,475.8,932.6,471.2,932.4z"/>
		<path fill="#840D0D" d="M467.1,957.9c-0.2,0-0.2-0.2-0.1-0.4c-3.7,2.1-8.7,3.4-11,3.9c2.8,1.4,6.4,2,9.7,1.4
			c3.3-0.5,6.4-2.2,8.1-4.9C471.7,958.6,468.9,958.4,467.1,957.9z"/>
	</g>
</g>
<g id="cap_x5F_34off">
</g>
<g id="line_art_ref" display="none">
</g>
</svg>
