<?xml version="1.0" encoding="iso-8859-1"?>
<!-- Generator: Adobe Illustrator 18.1.1, SVG Export Plug-In . SVG Version: 6.00 Build 0)  -->
<!DOCTYPE svg PUBLIC "-//W3C//DTD SVG 1.1//EN" "http://www.w3.org/Graphics/SVG/1.1/DTD/svg11.dtd">
<svg version="1.1" xmlns="http://www.w3.org/2000/svg" xmlns:xlink="http://www.w3.org/1999/xlink" x="0px" y="0px"
	 viewBox="296.1 1459.3 452.2 628.1" enable-background="new 296.1 1459.3 452.2 628.1" xml:space="preserve">
<g id="main_x5F_comp_x5F_back-up_paths">
	<g id="body">
	</g>
	<g id="lid_1_">
	</g>
	<g id="spout_x5F_side_1_">
		<g id="spout_x5F_side">
		</g>
	</g>
	<g id="spout_x5F_34front">
		<g id="base">
		</g>
		<g id="tube">
		</g>
		<g id="spout">
		</g>
	</g>
	<g id="spout_x5F_front">
		<g id="base_copy_2">
		</g>
		<g id="lever_1_">
		</g>
	</g>
	<g id="cap_x5F_on">
	</g>
	<g id="cap_x5F_off">
	</g>
</g>
<g id="lip_x5F_front_1_">
</g>
<g id="lip_x5F_back">
</g>
<g id="body_x5F_back">
</g>
<g id="body_x5F_front">
	<g id="body_2_">
		<g>
			<path fill="#FFFFFF" d="M741.7,1541.9c-0.6,12.2-1.3,24.5-2.1,36.7c-1.6,26.2-3.3,52.4-5.2,78.5c-3.5,48-7.4,96-11.8,144
				c-4.4,48.7-9.3,97.3-14.6,145.9c-2.5,22.8-2.5,48.1-8,70.3c-4.3,17.2-18.8,24.6-33.5,33.6c-76.4,46.4-187.4,40.4-269.5,11.8
				c-17.8-6.2-39-15.1-51.5-30c-13.4-15.9-10.4-41.4-12.1-61.4c-4.3-50.4-8.2-100.8-11.9-151.3c-4-54.7-7.8-109.4-11.4-164.1
				c-1.8-27.4-3.5-54.7-5.2-82.1c-0.9-14-1.7-28-2.5-42c-0.1-2,0.2-5.8,0.1-9.3c9.1,9.2,24.6,20.3,25.5,20.8
				c16.3,8.5,33.9,13.6,51.9,17c43.1,8.2,88.7,9.3,132.5,10.6c43.2,1.3,86.8-2.5,129.4-9.3c24.7-4,79.5-9.1,99.5-33.1
				C741.4,1533.4,741.9,1538.5,741.7,1541.9z"/>
			<path d="M746.5,1520.4c0-1.8,0-3.3-0.1-4.4c-0.1-1.5-0.3-2.3-0.6-2.3c-3,0-11.1,15.7-14.8,18.4c-6.5,4.9-14.7,6.8-22.3,9.4
				c-21.5,7.3-43.4,12.5-65.9,16.2c-42.7,7-86.4,11-129.6,9.9c-40.9-1-83.5-2.8-123.9-9.5c-19.7-3.3-38.9-8-56.8-17
				c-5.1-2.6-26.6-22.3-32.7-28.5c-1.6-2.6-3.5-4.8-3.5-0.7c-0.4,0.7-0.3,1.7,0.1,2.8c0-0.1,0-0.2,0-0.3c0,0.1,0,0.2,0,0.3v0.1
				c0,0.1,0,0.2,0,0.4c0,0,0,0.1,0,0.1c0,0.2,0,0.4,0,0.6c0,0,0,0,0,0s0,0,0,0s0,0,0,0v0.1c0,0.1,0,0.1,0,0.2c0,0,0,0.1,0,0.2
				c0,0.1,0,0.3,0,0.4c0,0.4,0,0.8,0.1,1.2c0,0.1,0,0.3,0,0.4c0,0.1,0,0.2,0,0.3c0,0.2,0,0.3,0,0.5c5.5,98.3,12.1,196.6,19.3,294.8
				c3.7,50.4,7.6,100.8,11.9,151.1c1.4,16.8,0,37.6,4.4,53.8c5.1,18.8,26.5,31.2,43.3,39.3c75.9,36.2,185.8,41,264.3,11.3
				c16.7-6.3,33.8-16.3,47.9-27.2c17.5-13.6,17.4-25.7,19.9-47c5.7-49.4,10.9-98.9,15.7-148.5
				C725.9,1820.3,746.7,1565.2,746.5,1520.4z M296.5,1514c0-0.1,0-0.1,0-0.2c0-0.1,0-0.2,0-0.3c0,0.1,0,0.2,0,0.3V1514z
				 M741.7,1541.9c-0.6,12.2-1.3,24.5-2.1,36.7c-1.6,26.2-3.3,52.4-5.2,78.5c-3.5,48-7.4,96-11.8,144c-4.4,48.7-9.3,97.3-14.6,145.9
				c-2.5,22.8-2.5,48.1-8,70.3c-4.3,17.2-18.8,24.6-33.5,33.6c-76.4,46.4-187.4,40.4-269.5,11.8c-17.8-6.2-39-15.1-51.5-30
				c-13.4-15.9-10.4-41.4-12.1-61.4c-4.3-50.4-8.2-100.8-11.9-151.3c-4-54.7-7.8-109.4-11.4-164.1c-1.8-27.4-3.5-54.7-5.2-82.1
				c-0.9-14-1.7-28-2.5-42c-0.1-2,0.2-5.8,0.1-9.3c9.1,9.2,24.6,20.3,25.5,20.8c16.3,8.5,33.9,13.6,51.9,17
				c43.1,8.2,88.7,9.3,132.5,10.6c43.2,1.3,86.8-2.5,129.4-9.3c24.7-4,79.5-9.1,99.5-33.1C741.4,1533.4,741.9,1538.5,741.7,1541.9z"
				/>
		</g>
	</g>
</g>
<g id="body_x5F_front_copy" display="none">
	<g id="body_1_" display="inline">
		<g>
			<path d="M743.1,1515.2c0.5-2,5-2.1,4.9,0.2c0,0.2,0,0.3,0,0.5h0c-1.6-0.1-3.3-0.1-4.9-0.2l-0.1,0
				C743,1515.5,743.1,1515.4,743.1,1515.2z"/>
			<path d="M748,1515.9L748,1515.9c-0.9,18.5-1.8,37.1-2.9,55.6c-4.3,72.9-9.9,145.7-16.4,218.4c-5,55.3-10.5,110.5-16.5,165.7
				c-1.8,16.6-3.7,33.1-5.6,49.7c-0.6,4.8-1.1,9.5-1.7,14.3c-0.2,1.9-0.1,4.5-0.8,6.3c-1,2.8-4,5.4-6,7.4
				c-4.8,4.9-10.1,9.2-15.8,13.1c-6.4,4.4-13.5,7.8-19.9,12.1c-18.4,12.3-41.8,17.5-63.2,21.5c-6.2,1.2-12.3,2.6-18.5,3.7
				c-12.3,2.2-24.8,3-37.2,3.3c-17.3,0.5-34.8,0.4-52.1-1.3c-24.3-2.4-48.4-7.1-72.1-12.7c-23.8-5.6-47.5-13.9-67.1-28.8
				c-5.3-4-10.3-8.5-14.5-13.6c-1.4-1.8-3.6-4-4.4-6.2c-1.1-3.1-0.8-7.5-1-10.8c-0.4-4-0.7-8-1.1-12.1c-0.8-8.7-1.5-17.3-2.3-26
				c-1.5-17.1-2.9-34.3-4.3-51.4c-5.4-66.3-10.2-132.7-14.8-199.1c-3.5-50.5-6.7-101-9.8-151.6c-1.2-20.3-2.4-40.5-3.6-60.7
				c-0.1-1,0.8-1.7,1.8-1.9c-1.1,0.3-2.1,1.2-1.6,2.4c1.3,3.8,3.2,7.2,5.5,10.3c1.5,25.5,3,51.1,4.6,76.6
				c3.4,54.1,7,108.3,10.8,162.4c4.7,66.3,9.7,132.6,15.2,198.8c1.4,16.8,2.9,33.5,4.4,50.3c0.5,5.9-0.1,10.5,3.3,15
				c9.8,12.9,24.4,22.2,38.9,28.9c20.6,9.7,42.3,14.4,64.3,18.9c21.4,4.3,43,7.8,64.8,8.7c23.4,0.9,47.5,1.2,70.7-2.9
				c16-2.8,32.2-6,47.7-10.6c11.5-3.4,23.4-7.5,33.3-14.4c6.4-4.5,13.7-7.7,20.1-12.2c5.7-4,11.1-8.4,15.7-13.6
				c1.3-1.4,2.8-2.7,3.3-4.5c0.7-2.2,0.6-5,0.9-7.3c4-33.5,7.7-67,11.2-100.5c6.3-60.3,12-120.8,17.1-181.2
				c5.8-69.5,10.6-139.1,14.1-208.7C745,1523.6,747,1519.9,748,1515.9z"/>
			<path d="M743,1515.7c1.6,0.1,3.3,0.1,4.9,0.2c-1,4.1-2.9,7.8-5.5,11.1C742.7,1523.2,742.9,1519.4,743,1515.7z"/>
			<path d="M743,1515.7c-0.2,3.7-0.4,7.5-0.6,11.2c-5.3,6.8-13.3,11.9-21.1,14.4c-9,2.9-17.9,6.2-27,8.9
				c-31.3,9.1-63.6,13.7-95.9,17.1c-19.8,2.1-39.7,3.4-59.7,3.9c-21,0.5-41.8-0.8-62.8-2c-29-1.7-57.9-2.7-86.6-7.2
				c-18.6-2.9-37.5-7.3-54.6-15.3c-11.9-5.6-24.8-12.4-32.8-23.1c-0.1-2.4-0.3-4.9-0.4-7.3c-0.1-1.3-0.1-2.5-0.2-3.8
				c0-0.1,0-0.2,0-0.3c3.1,8.5,9.8,15.6,16.9,21c4.4,3.3,9.4,5.7,14.3,8c6.3,3,12.5,6.1,19.2,8.2c18.5,5.8,37.5,9.2,56.6,11.4
				c24.8,2.9,49.6,3.2,74.3,5.3c40.5,3.4,81.6,1.5,121.9-3.2c31.9-3.7,63.6-8.4,94.4-18c6.5-2,12.8-4.6,19.4-6.5
				C729.1,1535.2,740,1526.9,743,1515.7L743,1515.7z"/>
			<path fill="#FFFFFF" d="M721.4,1541.3c7.8-2.5,15.8-7.6,21.1-14.4c-3.5,69.6-8.3,139.2-14.1,208.7c-5,60.5-10.7,120.9-17.1,181.2
				c-3.5,33.5-7.2,67-11.2,100.5c-0.3,2.3-0.2,5.1-0.9,7.3c-0.5,1.8-2.1,3.1-3.3,4.5c-4.6,5.2-10.1,9.6-15.7,13.6
				c-6.5,4.6-13.7,7.8-20.1,12.2c-9.9,6.9-21.8,11-33.3,14.4c-15.5,4.6-31.7,7.8-47.7,10.6c-23.1,4.1-47.3,3.8-70.7,2.9
				c-21.8-0.9-43.4-4.4-64.8-8.7c-22-4.4-43.7-9.2-64.3-18.9c-14.5-6.8-29.1-16-38.9-28.9c-3.4-4.6-2.8-9.1-3.3-15
				c-1.5-16.8-2.9-33.5-4.4-50.3c-5.6-66.2-10.6-132.5-15.2-198.8c-3.8-54.1-7.4-108.2-10.8-162.4c-1.6-25.5-3.1-51.1-4.6-76.6
				c8,10.7,20.9,17.5,32.8,23.1c17.1,8.1,36,12.4,54.6,15.3c28.8,4.6,57.6,5.6,86.6,7.2c21,1.2,41.7,2.4,62.8,2
				c19.9-0.5,39.8-1.8,59.7-3.9c32.3-3.4,64.6-8,95.9-17.1C703.5,1547.5,712.4,1544.3,721.4,1541.3z"/>
			<path d="M301.6,1516.2c0.1,2.4,0.3,4.9,0.4,7.3c-2.3-3.1-4.2-6.5-5.5-10.3c-0.4-1.2,0.5-2.1,1.6-2.4c0.1,0,0.2,0,0.2-0.1
				c0,0,0.1,0,0.1,0c0,0,0,0,0.1,0c0.9-0.1,1.8,0.1,2.4,0.6c0,0,0.1,0,0.1,0.1c0,0.1,0.1,0.1,0.1,0.2c0.1,0.1,0.1,0.2,0.1,0.3
				c0,0.1,0,0.2,0.1,0.2c0,0.1,0,0.2,0,0.3C301.4,1513.6,301.5,1514.9,301.6,1516.2z"/>
			<path d="M301.3,1512.1c0-0.1,0-0.2-0.1-0.2c0-0.1-0.1-0.2-0.1-0.3C301.2,1511.7,301.3,1511.9,301.3,1512.1z"/>
			<path d="M301.1,1511.6c0-0.1-0.1-0.1-0.1-0.2C301,1511.4,301.1,1511.5,301.1,1511.6z"/>
			<path d="M301,1511.4C300.9,1511.4,300.9,1511.3,301,1511.4C300.9,1511.3,300.9,1511.4,301,1511.4z"/>
			<path d="M298.5,1510.7c0.9-0.2,1.8,0,2.4,0.6C300.4,1510.8,299.4,1510.6,298.5,1510.7z"/>
			<path d="M298.4,1510.7c-0.1,0-0.2,0-0.2,0.1C298.2,1510.8,298.3,1510.7,298.4,1510.7z"/>
		</g>
	</g>
</g>
<g id="lid_copy_4">
	<g id="Layer_40">
	</g>
	<g id="Layer_40_copy">
	</g>
	<g id="Layer_40_copy_2">
	</g>
</g>
<g id="spout_x5F_side_2_">
	<g id="spout_x5F_side_3_">
	</g>
</g>
<g id="tap_x5F_side_1_">
</g>
<g id="spout_x5F_34front_1_">
	<g id="base_copy_5">
	</g>
	<g id="tube_copy_4">
	</g>
	<g id="spout_copy_3">
	</g>
</g>
<g id="tap_x5F_34front">
</g>
<g id="spout_x5F_front_1_">
	<g id="base_1_">
	</g>
	<g id="tap_x5F_centre">
	</g>
</g>
<g id="cap_x5F_on_1_">
</g>
<g id="cap_x5F_34off">
</g>
<g id="line_art_ref" display="none">
</g>
</svg>
