<?xml version="1.0" encoding="utf-8"?>
<!-- Generator: Adobe Illustrator 18.1.1, SVG Export Plug-In . SVG Version: 6.00 Build 0)  -->
<!DOCTYPE svg PUBLIC "-//W3C//DTD SVG 1.1//EN" "http://www.w3.org/Graphics/SVG/1.1/DTD/svg11.dtd">
<svg version="1.1" xmlns="http://www.w3.org/2000/svg" xmlns:xlink="http://www.w3.org/1999/xlink" x="0px" y="0px"
	 viewBox="2607.5 165.2 170.4 168.6" enable-background="new 2607.5 165.2 170.4 168.6" xml:space="preserve">
<g id="BG_reference" display="none">
</g>
<g id="old_version">
</g>
<g id="new_version">
	<g>
		<path fill="none" d="M2633.2,197c0.7-0.5,1.5-1.1,2.2-1.6c-2.7,1.7-5.3,3.8-7.6,6.1c-3.7,3.7-6.7,8.2-8.7,13
			C2622.1,207.6,2627.2,201.6,2633.2,197z"/>
		<path fill="none" d="M2636.8,242.6c0.2,0,0.4-0.1,0.6-0.1C2637.3,242.5,2637.1,242.5,2636.8,242.6
			C2636.9,242.5,2636.9,242.6,2636.8,242.6z"/>
		<path fill="none" d="M2616.3,226.8c0,0.1,0.1,0.2,0,0.3C2616.5,226.9,2616.4,226.8,2616.3,226.8z"/>
		<path fill="none" d="M2653,218.1c-0.2-4.5-0.2-9.2,0.3-13.8C2652.8,208.8,2652.8,213.6,2653,218.1z"/>
		<path fill="none" d="M2616.5,230.9c-0.1-0.9-0.1-1.7-0.1-2.4C2616.4,229.2,2616.4,230,2616.5,230.9z"/>
		<path fill="none" d="M2625.2,246.8c0.4-0.1,0.7-0.2,1.1-0.3c2.6-0.9,5.7-2.4,8.3-3.3c0,0-0.1,0-0.1,0
			C2631.8,244.1,2628,245.9,2625.2,246.8z"/>
		<path fill="none" d="M2622.7,242.4c2.6,0.6,8.5,1,11.8,0.7c0,0,0.1,0,0.1,0C2631.3,243.4,2625.4,243,2622.7,242.4z"/>
		<path fill="none" d="M2643.5,262.2c-3.3-7.5-6-16.1-6.4-18.2c0.1,1,0.3,2,0.5,2.9C2637.9,248.6,2640.5,255.7,2643.5,262.2z"/>
		<path fill="none" d="M2623.8,293.5c0.1,0,0.2,0,0.3,0C2624.1,293.4,2624,293.4,2623.8,293.5z"/>
		<path fill="none" d="M2683.9,317.6c-0.1,0-0.2,0.1-0.3,0.2C2683.7,317.7,2683.8,317.6,2683.9,317.6z"/>
		<path fill="none" d="M2656.4,277.2c0.3-1,0.5-2,0.9-3C2656.9,275.2,2656.6,276.2,2656.4,277.2z"/>
		<path fill="none" d="M2629.2,281.3c4.2,7.6,10.9,13.5,20.3,15.3C2640.6,294.8,2633.7,288.8,2629.2,281.3z"/>
		<path fill="none" d="M2616.7,233.3c-0.1-0.8-0.2-1.5-0.2-2.2C2616.6,231.8,2616.6,232.6,2616.7,233.3z"/>
		<path fill="none" d="M2614.5,231.3c-3,7-5.5,14.4-5.8,22.1c0,0.1,0,0.2,0,0.3c0,0,0,0.1,0,0.1c0,1.3,0,2.7,0.1,4.1
			C2608.2,249,2611,239.6,2614.5,231.3z"/>
		<path fill="none" d="M2654.2,217c0,0.1,0,0.2,0,0.4c0,0.1,0,0.2,0,0.3c0,0,0,0.1,0,0.1c0,0.1,0,0.2,0,0.2c0,0.4,0.1,0.7,0,0.9
			c1-8-0.4-15.9,1.8-23.9C2654.1,202.1,2654,209.9,2654.2,217z"/>
		<path fill="none" d="M2748.4,249.8c0,0.1,0,0.2,0,0.3c0,0,0-0.1,0-0.1c0,0.1,0,0.2,0,0.3c0,0,0-0.1,0-0.1c0,0.1,0,0.2,0,0.3
			c0.1,3.9,0,8.1-1.2,11.9c1.5-4.5,1.4-9.5,1.1-14.2c0-0.2,0-0.3,0-0.3c-0.1-0.6-0.1-1.2-0.2-1.8c-0.2-2.2-3.5-14.7-2.4-16
			C2744.2,231.8,2748.3,246.5,2748.4,249.8z M2748.4,248.7c0-0.1,0-0.2,0-0.3C2748.4,248.5,2748.4,248.6,2748.4,248.7z"/>
		<path fill="none" d="M2739.2,184.9L2739.2,184.9c0,0,0,0.1,0,0.2C2739.2,185,2739.2,184.9,2739.2,184.9z"/>
		<path fill="none" d="M2683.8,172.3c-1.1-0.7-2.4-1.2-3.7-1.5C2680.8,171,2682.3,171.5,2683.8,172.3z"/>
		<path fill="none" d="M2744.9,186.3c0.8,0.4,1.6,0.7,2.3,1.1C2746.4,187,2745.7,186.6,2744.9,186.3z"/>
		<path fill="none" d="M2768.7,217.8c-0.3-2.2-0.8-4.3-1.4-6.4c0,0,0,0,0,0v0c0,0,0,0,0,0c0,0,0-0.1,0-0.1c0,0,0,0,0-0.1
			c0,0,0-0.1,0-0.1c0-0.1-0.1-0.3-0.1-0.4c-3.3-10.1-10.6-18.4-19.8-23.3C2758.6,193.5,2766.8,204.8,2768.7,217.8z"/>
		<path fill="none" d="M2654.3,198.1c-0.4,1.6-0.7,3.2-0.9,4.8C2653.7,201.3,2654,199.7,2654.3,198.1z"/>
		<path fill="none" d="M2745,264.9c0.1-0.4,0.4-0.8,0.8-1C2745.4,264.1,2745.1,264.4,2745,264.9z"/>
		<path fill="none" d="M2707.6,275.3c2.4,0.8,4.9,1.3,7.4,1.5C2712.1,276.4,2709.1,275.7,2707.6,275.3z"/>
		<path fill="none" d="M2656.4,277.2c-1.7,6.7-1.2,13.8,1.5,20.1v0c2.3,5.5,6.2,10.3,11,13.7
			C2658.3,303.4,2653.3,289.9,2656.4,277.2z"/>
		<path fill="none" d="M2735.3,181.6c-2.5-3.3-5.6-5.9-9.1-8C2729.7,175.8,2732.9,178.4,2735.3,181.6z"/>
		<path fill="none" d="M2690.5,224.3c-0.2-0.1-0.4-0.2-0.5-0.2c-0.1,0-0.1-0.1-0.2-0.1c0,0,0,0,0,0c0,0,0,0-0.1,0c0,0,0,0,0,0h0
			c0,0-0.1,0-0.1,0c-0.1,0-0.1-0.1-0.2-0.1c-0.1,0-0.1-0.1-0.2-0.1c-0.1,0-0.2-0.1-0.3-0.1c1,0.5,1.6,1,1.5,1.2
			C2690.5,224.5,2690.6,224.3,2690.5,224.3z"/>
		<path fill="none" d="M2656.2,218.3c5.6-1.9,11.6-1.6,17.3-0.3C2667.8,216.6,2661.9,216.3,2656.2,218.3z"/>
		<path fill="none" d="M2685.5,222.1c-3.3-1.4-6.7-2.7-10.2-3.7C2677,218.9,2681.8,220.6,2685.5,222.1z"/>
		<path fill="none" d="M2728.4,322.4c-0.7,0.3-1.4,0.7-2.1,1C2727,323.1,2727.7,322.8,2728.4,322.4z"/>
		<path fill="none" d="M2746.4,305.3c-1.7,1.1-2.9,1.8-2.9,1.9c-0.1,0.2,0,0.3,0.1,0.2c0.1-0.1,0.3-0.1,0.4-0.1
			c6.9-2.4,13-6.5,18-11.8c-0.5,0.5-1.7,1.3-3.3,2.3C2755.1,301,2751,303.5,2746.4,305.3C2746.4,305.3,2746.4,305.3,2746.4,305.3z"
			/>
		<path fill="none" d="M2765.7,289.3c0.1-0.1,0.1-0.2,0.1-0.2c0,0,0,0,0,0C2765.8,289.2,2765.7,289.3,2765.7,289.3z"/>
		<path fill="none" d="M2681.5,331.8c-1.4-0.3-2.8-0.6-4.1-0.9C2679.4,331.4,2680.7,331.7,2681.5,331.8z"/>
		<path fill="none" d="M2672.8,313.5c-5.9-3.1-14-6.9-18.4-12.5c6.1,7.9,19.7,14.1,28.5,16.5C2679.4,316.6,2676,315.1,2672.8,313.5z
			"/>
		<path fill="none" d="M2690.7,326.4c1.1,0.3,2.3,0.5,3.4,0.7c0.1,0,0.1,0,0.2,0c0,0,0,0,0,0c0.1,0,0.1,0,0.1,0c0,0,0.1,0,0.1,0
			c0.1,0,0.2,0,0.3,0c0.1,0,0.2,0,0.3,0c0,0,0,0,0.1,0c8.8,1.3,17.9,0.6,26.3-2.2C2711.7,328.3,2700.9,328.8,2690.7,326.4z"/>
		<path fill="none" d="M2688.9,262.5c-0.2,0.3-0.5,0.5-0.7,0.7C2688.5,262.9,2688.7,262.7,2688.9,262.5z"/>
		<path fill="none" d="M2726,323.5c-0.6,0.3-1.3,0.5-1.9,0.8C2724.7,324,2725.3,323.8,2726,323.5z"/>
		<path fill="none" d="M2735.3,318c-0.9,0.2-1.6,0.6-2.2,1.2C2733.8,318.6,2734.9,318.2,2735.3,318z"/>
		<path fill="none" d="M2723.8,324.4c-0.7,0.3-1.4,0.5-2.1,0.7C2722.4,324.9,2723.1,324.6,2723.8,324.4z"/>
		<path fill="none" d="M2753.6,305.3c-0.4,0.4-0.9,0.8-1.3,1.2C2752.8,306.1,2753.2,305.7,2753.6,305.3z"/>
		<path fill="none" d="M2718.1,281.9c-7.9-0.4-17.1-1.5-24.2-5.6C2701,280.8,2709.8,281.6,2718.1,281.9z"/>
		<path fill="none" d="M2684,264.2C2684,264.2,2684,264.2,2684,264.2c-0.6,2.1,1.6,5,4.1,7.5c-1.7-2-3.1-4.4-4-7.2
			C2684.1,264.4,2684.1,264.3,2684,264.2z M2684.9,267C2684.9,267,2684.9,266.9,2684.9,267C2684.9,266.9,2684.9,267,2684.9,267z
			 M2684.8,266.7c0-0.1-0.1-0.2-0.1-0.3C2684.7,266.5,2684.8,266.6,2684.8,266.7z M2684.6,266c0-0.1-0.1-0.3-0.1-0.4
			C2684.5,265.8,2684.5,265.9,2684.6,266z M2684.4,265.3c-0.1-0.2-0.1-0.4-0.2-0.6C2684.2,264.9,2684.3,265.1,2684.4,265.3z"/>
		<path fill="none" d="M2719.3,282c-0.1,0-0.3,0.1-0.4,0.1C2719,282.1,2719.2,282.1,2719.3,282z"/>
		<path fill="none" d="M2765.6,289.6c-0.2,0.3-0.3,0.6-0.5,0.9C2765.3,290.1,2765.5,289.8,2765.6,289.6z"/>
		<path fill="none" d="M2744.1,312.9C2744.1,312.9,2744.1,312.9,2744.1,312.9c0.1,0,0.1-0.1,0.1-0.1c0,0,0.1-0.1,0.2-0.1
			c0,0,0,0,0,0c0.1-0.1,0.3-0.2,0.4-0.3c0.2-0.1,0.3-0.2,0.5-0.3c2.3-1.6,4.6-3.4,6.7-5.3c-2.7,2.4-5.6,4.6-8.7,6.6
			C2743.6,313.2,2743.8,313.1,2744.1,312.9z"/>
		<path fill="none" d="M2776.4,251c-0.6,5.9-2,11.9-3.7,17.6C2774.4,262.8,2775.8,256.9,2776.4,251z"/>
		<path fill="none" d="M2749.1,239.9c1,6,1.4,12.4,0.3,18.2C2750.5,252.3,2750.1,245.9,2749.1,239.9z"/>
		<path fill="#FFFFFF" d="M2776.4,251c0.1-0.5,0.1-1.1,0.1-1.6c0.4-5.5,0-11-1.7-16.4c0-0.1,0-0.1-0.1-0.2c0-0.1,0-0.1-0.1-0.2
			c0,0,0,0,0,0c0,0,0-0.1,0-0.1c0,0,0-0.1,0-0.1c0,0,0-0.1,0-0.1c0,0,0,0,0-0.1c0,0,0,0,0,0c-1.1-3.2-2.6-6.3-4.7-9c0,0,0,0-0.1-0.1
			c-1,1.2-1.6-0.8-1.3-1.7c-2.3-2.6-5-4.8-8.1-6.3c-2.4,6.4-7.2,11.7-13.3,14.7c0,0,0,0.1-0.1,0.1c0.6,2.3,1.1,4.7,1.6,7.3
			c0.2,0.8,0.3,1.7,0.5,2.6c0,0,0,0,0,0c1,6,1.4,12.4,0.3,18.2c-0.1,0.6-0.3,1.2-0.4,1.8c-0.1,0.4-0.2,0.8-0.3,1.2
			c-0.1,0.2-0.1,0.4-0.2,0.6c-0.4,1-0.8,2.1-1.3,3c0,0.1-0.1,0.2-0.1,0.3c4.8,5.3,9.6,10.6,14.4,16c2.7-1.5,5.4-2.9,8.1-4.4
			c0.3-0.2,0.6-0.3,0.9-0.5c0.2-0.6,0.4-1.2,0.6-1.8c0.2-0.6,0.4-1.2,0.6-1.8c0.4-1.2,0.8-2.5,1.1-3.8
			C2774.3,262.9,2775.8,256.9,2776.4,251z"/>
		<path fill="#FFFFFF" d="M2775.8,236c0,0,0-0.1,0-0.1c0,0,0,0,0-0.1C2775.7,235.9,2775.8,235.9,2775.8,236z"/>
		<path fill="none" stroke="#FFFFFF" stroke-width="0" stroke-linecap="round" stroke-linejoin="round" d="M2775.6,235.4
			c0-0.1-0.1-0.2-0.1-0.3"/>
		<path fill="none" stroke="#FFFFFF" stroke-width="0" stroke-linecap="round" stroke-linejoin="round" d="M2775.5,235.1
			c0-0.1,0-0.1-0.1-0.2"/>
		<path fill="#FFFFFF" d="M2775,233.7c0.1,0.3,0.2,0.6,0.3,0.9C2775.2,234.3,2775.1,234,2775,233.7z"/>
		<path fill="none" stroke="#FFFFFF" stroke-width="0" stroke-linecap="round" stroke-linejoin="round" d="M2775,233.5
			c0-0.1-0.1-0.2-0.1-0.3"/>
		<path fill="none" stroke="#231F20" stroke-width="0" stroke-linecap="round" stroke-linejoin="round" d="M2774.8,232.8
			c0-0.1,0-0.1-0.1-0.2"/>
		<path fill="none" stroke="#231F20" stroke-width="0" stroke-linecap="round" stroke-linejoin="round" d="M2774.7,232.5
			C2774.6,232.5,2774.6,232.4,2774.7,232.5"/>
		<path fill="none" stroke="#FFFFFF" stroke-width="0" stroke-linecap="round" stroke-linejoin="round" d="M2774.6,232.3
			C2774.6,232.3,2774.6,232.3,2774.6,232.3"/>
		<path fill="none" stroke="#231F20" stroke-width="0" stroke-linecap="round" stroke-linejoin="round" d="M2774.6,232.3
			C2774.6,232.3,2774.6,232.3,2774.6,232.3"/>
		<path fill="#231F20" d="M2771.7,275.2c0.1-0.2,0.2-0.5,0.2-0.7c5.4-17,11-38.1-1.5-53.5c-0.7-18.6-14.3-34.8-32.5-38.8
			c-10.1-16-37.4-20.9-55.1-13.8c-1.5,0.6-3,1.3-4.4,2.1c-8.6-0.9-18.3,4.1-25.4,8.3c-3.5,2.1-17.5,10.5-17.2,15.6
			c-0.2,0.1-0.3,0.2-0.5,0.3c-0.8,0.1-1.4,0.5-1.8,1.3c-2.1,1.6-4.1,3.3-6,5.3c-7,7.2-12,16.7-12.3,26.8c-0.4,0.5-0.7,1-0.7,1.6
			c-3.9,8.7-7.2,17.9-6.9,27.6c0.1,1.9,3.4,21.8,8,20.4c0.2,1.3,6.7,21.3,9.3,19.4c11.2,17.7,29.7,30.5,50.2,34.7
			c0.1,0.2,0.3,0.3,0.5,0.1c0.1,0,0.1,0,0.2-0.1c0.3-0.1,0.5-0.3,0.8-0.4c0.1,0,0.1,0,0.1-0.1c0,0,0,0,0,0
			c-1.6,1.9,13.9,2.7,15.6,2.6c4-0.3,14.5-0.9,16.4-4.8c4.2-0.4,26.2-4.1,26.7-10.1c4.2-2.2,8.2-4.7,12-7.5c1.7-1.3,3.4-2.7,5-4.1
			c5.1-4.6,9.6-9.8,13-15.8c0.1-0.1,0.2-0.3,0.3-0.5c2.5-4.6,4.4-9.5,5.5-14.6C2771.4,276.4,2771.8,275.2,2771.7,275.2
			C2772.3,274.9,2771.8,275,2771.7,275.2z M2775.8,236c0,0,0-0.1-0.1-0.2c0,0,0,0.1,0,0.1C2775.8,235.9,2775.8,235.9,2775.8,236z
			 M2775,233.5c0-0.1-0.1-0.2-0.1-0.3C2774.9,233.3,2774.9,233.4,2775,233.5z M2775.3,234.6c-0.1-0.3-0.2-0.5-0.3-0.9
			C2775.1,234,2775.2,234.3,2775.3,234.6z M2775.5,235.1c0,0.1,0.1,0.2,0.1,0.3C2775.6,235.3,2775.5,235.2,2775.5,235.1
			c0-0.1,0-0.1-0.1-0.2C2775.5,235,2775.5,235,2775.5,235.1z M2766.4,208.8c0-0.1-0.1-0.2-0.1-0.3
			C2766.4,208.7,2766.4,208.8,2766.4,208.8z M2738.9,184.1c0.6,0.2,1.2,0.3,1.8,0.5c0.4,0.1,0.8,0.3,1.2,0.4
			c0.4,0.2,0.9,0.3,1.3,0.5c0.6,0.2,1.2,0.5,1.7,0.7c0.8,0.4,1.6,0.7,2.3,1.1c0,0,0,0,0,0c9.2,4.9,16.5,13.2,19.8,23.3
			c0.1,0.1,0.1,0.3,0.1,0.4c0,0,0,0.1,0,0.1c0,0,0,0,0,0.1c0,0,0,0.1,0,0.1c0,0,0,0,0,0v0c0,0,0,0,0,0c0.6,2.1,1.1,4.2,1.4,6.4
			c0,0,0,0.1,0,0.1c0.1,0.5,0.1,1,0.2,1.5c-0.1-0.1-0.1-0.1-0.2-0.2c-1.4-1.4-5.9-5.9-7.6-5.5c-0.1,0-0.1,0-0.2,0.1
			c0.1-0.2,0-0.3-0.3-0.4c0,0,0,0,0,0c-3.1-11.9-12.4-20.4-21.4-28.2c0,0,0-0.1,0-0.1c0-0.1,0-0.2,0-0.2h0c0-0.2-0.2-0.2-0.6-0.2
			C2738.8,184.5,2738.9,184.3,2738.9,184.1z M2744.2,227.3C2744.2,227.3,2744.2,227.3,2744.2,227.3c0.3,0.3,0.6,0.5,0.8,0.7
			c0.1,0.1,0.2,0.1,0.2,0.2c0.1,0.1,0.3,0.2,0.4,0.3c0.2,0.2,0.3,0.3,0.4,0.4c-0.3,0.4-0.5,0.9-0.3,0.8c0,0,0.1,0,0.1,0
			c-1,1.4,2.3,13.8,2.4,16c0.1,0.6,0.1,1.2,0.2,1.8c0,0,0,0.1,0,0.3c0.3,4.7,0.4,9.7-1.1,14.2c-0.2,0.7-0.5,1.4-0.8,2
			c-0.2-0.3-0.5-0.3-0.7-0.3c0,0,0,0,0,0c-0.4,0.1-0.7,0.6-0.8,1c-0.4,0.1-0.8,0.5-1.1,0.8c-0.3,0.2-0.5,0.3-0.8,0.5
			c-6.7,4-14.7,6.7-21,11c0,0.1-0.1,0.1-0.2,0.2l0,0c0,0,0,0-0.1,0c0,0,0,0,0,0c-0.2,0.1-0.5,0.1-0.8,0.1c-0.2,0.3-0.3,0.5-0.4,0.7
			c0,0,0,0,0,0.1c-3.6,0.4-7.3,0.1-10.8-0.6c-8.7-1.9-16.6-7.1-21.6-14.5c0.3-0.2,0.5-0.4,0.7-0.7c0,0,0,0,0,0
			c0.2-0.3,0.3-0.5,0.3-0.9c2.3-11.6,2.8-23.6,1.4-35.4c0-0.1,0-0.3,0-0.4c0.1-0.1,0.2-0.2,0.3-0.3c7.8-6.2,16.7-10.7,26.3-13.3
			c0.1-0.1,0.1-0.2,0.2-0.3c0.1-0.1,0.3-0.2,0.4-0.3h0C2721.6,210.5,2738.3,222.5,2744.2,227.3z M2711.1,308
			c-0.1,0.1-0.3,0.2-0.4,0.2C2710.9,308.2,2711,308.1,2711.1,308z M2710.9,309.1c0.2-0.1,0.4-0.2,0.7-0.3c0,0,0.1-0.1,0.1-0.1
			c0.2-0.1,0.4-0.2,0.6-0.3c0.1-0.1,0.3-0.1,0.4-0.2c0.1-0.1,0.3-0.2,0.4-0.2c0,0,0,0,0,0c0.4-0.2,0.7-0.4,1-0.6
			c0.1,0.1,0.3,0.1,0.4,0.2c0,0,0,0.1,0,0.1c0,0,0.1,0,0.1,0c0,0,0.1,0,0.1,0.1c0.3,0.1,0.5,0.3,0.8,0.4c8.8,2.1,18.1,1.8,26.6-1
			c-0.1,0.1-0.2,0.2-0.3,0.3v0c-0.2,0.2-0.4,0.4-0.7,0.6c-2.3,2.2-3.9,3.5-4.9,4l0,0c-9.4,6.8-20.9,9.9-32.4,9.1
			c-5.1-0.4-10.1-1.5-14.9-3.5C2696.6,315.6,2704,312.7,2710.9,309.1z M2683.1,169.3c12.8-4.5,30.2-3.3,42.6,3.9
			c0.2,0.1,0.3,0.2,0.5,0.3c3.5,2.1,6.6,4.7,9.1,8c0.3,0.4,0.6,0.8,0.9,1.2c-0.3,0.6-0.2,0.9,0.5,0.8c0.1,0.2,0.3,0.4,0.4,0.6
			c-7.9-2.3-16.4-1.9-24,1.1c0-0.4-0.2-0.5-0.6-0.3c-6.8-6.4-16.1-9.8-25.4-9.3c0-0.1,0-0.1,0-0.2c0-0.1,0-0.1,0-0.2
			c0,0-0.1-0.1-0.1-0.1c0,0,0,0-0.1-0.1c-0.9-1.3-1.9-2.2-3.1-3c0,0,0,0,0,0c-1.4-0.7-2.9-1.3-3.7-1.5c-0.1,0-0.2,0-0.3-0.1
			C2680.8,170.2,2682,169.8,2683.1,169.3z M2656.6,193.6c1-0.7,1.9-1.4,2.9-2.1c1.9-1.3,3.7-2.7,5.6-3.9c1.1-0.8,2.2-1.5,3.4-2.2
			c1.7-1.1,3.4-2.2,5.2-3.1c1.2-0.7,2.4-1.3,3.6-1.9c2.5-1.2,5-2.3,7.8-3.2c0-0.2,0.8-0.2,1.9-0.1c3.3,0.2,9.7,1.3,10.3,1.4
			c5.2,1.5,10.1,4.2,14.1,8c-0.3,0.6,0,0.6,0.5,0.4c0.1,0,0.1,0.1,0.1,0.2c-1.4,2.7,4.3,20.7,4.6,24.3c-9.5,2.8-18.4,7.5-26.1,13.8
			c0-0.1,0-0.2,0-0.3c0.1-0.2-0.5-0.7-1.5-1.2c0,0-0.1,0-0.1-0.1c0,0-0.1,0-0.1,0s-0.1,0-0.1-0.1s-0.1,0-0.1,0c0,0,0,0,0,0
			c-0.1,0-0.1,0-0.2-0.1c0,0,0,0,0,0c0,0-0.1,0-0.1,0c-0.1,0-0.1,0-0.1-0.1c-0.1,0-0.2-0.1-0.3-0.1c-0.1,0-0.1,0-0.2-0.1
			c-0.1,0-0.2-0.1-0.2-0.1c-0.6-0.3-1.2-0.5-1.8-0.8c-3.7-1.5-8.5-3.1-10.2-3.7c-0.2,0-0.3-0.1-0.5-0.1c-0.2,0-0.3-0.1-0.5-0.1
			c-0.3-0.1-0.6-0.1-0.8-0.2c-5.7-1.3-11.7-1.6-17.3,0.3c-0.4,0.1-0.8,0.3-1.3,0.5c-0.2,0.1-0.4,0.2-0.7,0.3c0-0.3,0-0.6,0-0.9
			c0-0.1,0-0.2,0-0.2c0,0,0-0.1,0-0.1c0-0.1,0-0.2,0-0.3c0-0.2,0-0.3,0-0.4c-0.2-7.1-0.1-14.9,1.9-21.8c0.1-0.3,0.1-0.5,0.2-0.8
			c0,0,0,0,0,0C2656.4,194.1,2656.5,193.8,2656.6,193.6z M2616.3,227.2C2616.4,227.2,2616.4,227.1,2616.3,227.2
			C2616.4,227.1,2616.4,227.1,2616.3,227.2c0-0.1,0-0.1,0-0.1c0-0.1,0-0.2,0-0.3c0-0.4,0-0.8,0.1-1.1c0-0.1,0-0.1,0-0.2
			c0-0.1,0-0.2,0-0.3c0-0.2,0-0.4,0.1-0.6c0-0.4,0.1-0.8,0.1-1.2c0,0,0,0,0-0.1c0.1-1.1,0.4-2.3,0.6-3.4c0.3-1,0.6-2.1,0.9-3.1
			c0.1-0.3,0.2-0.7,0.4-1c0.2-0.5,0.4-1,0.6-1.5c2-4.8,5-9.3,8.7-13c2.3-2.3,4.9-4.4,7.6-6.1c0.3-0.2,0.5-0.3,0.8-0.5
			c6.5-0.5,13-1,19.5-1.5c-0.1,0.2-0.1,0.4-0.2,0.6c-0.5,1.3-0.9,2.7-1.2,4.1c-0.4,1.6-0.6,3.2-0.9,4.8c-0.1,0.4-0.1,0.8-0.1,1.3
			c-0.5,4.6-0.5,9.4-0.3,13.8c0,0.6,0.1,1.2,0.1,1.8c-6.4,6.4-11.4,14.7-15.6,22.7c-0.2,0-0.4,0-0.6,0.1h0c0,0,0,0-0.1,0
			c0,0-0.1,0.1-0.1,0.1c0,0,0,0,0,0c-0.4,0.2-1.1,0.3-2,0.4c-2.6,0.9-5.7,2.4-8.3,3.3c-0.4,0.1-0.8,0.3-1.1,0.3
			c-0.1,0-0.1,0-0.2,0.1c-1.4,0.4-2.5,0.6-3.2,0.4c-2.6-0.9-4.1-7-4.9-12.4c-0.1-0.5-0.1-1-0.2-1.5c-0.1-0.8-0.2-1.5-0.2-2.2
			c0-0.1,0-0.2,0-0.3c-0.1-0.9-0.1-1.7-0.1-2.4C2616.3,228,2616.3,227.5,2616.3,227.2z M2608.6,254.7c0-0.1,0-0.3,0-0.4
			C2608.7,254.4,2608.6,254.6,2608.6,254.7z M2615.1,274.3c0,0-0.1-0.1-0.1-0.1c0,0,0,0,0,0v0c0,0,0,0-0.1,0c-0.1,0-0.1,0-0.2,0.1
			c-3.4-4.4-5.3-9.8-5.9-15.4c0-0.3-0.1-0.6-0.1-0.8c-0.1-1.4-0.1-2.7-0.1-4.1c0,0,0-0.1,0-0.1c0-0.1,0-0.2,0-0.3
			c0.3-7.7,2.8-15.1,5.8-22.1c0.2-0.5,0.4-1,0.7-1.5c0,0.1,0,0.3,0,0.5c0.2,3.2,1.8,14.6,4.1,17.6c0,0,0,0,0,0
			c0.1,0.2,0.3,0.3,0.4,0.4c0,0,0.1,0.1,0.1,0.1c0.1,0.1,0.2,0.1,0.3,0.1c0.1,0,0.2,0.1,0.3,0.1c0.1,0.5,0.3,1.1,0.6,1.6
			C2616.7,257.5,2614.5,266,2615.1,274.3z M2620.7,251.9c-0.1,0.2-0.2,0.3-0.3,0.5C2620.5,252.2,2620.6,252.1,2620.7,251.9z
			 M2651.3,299.3c-8.6,0-17.1-1.2-25.4-3.6c-0.1-0.5-0.3-0.7-0.7-0.4c-0.3-0.5-0.6-1-0.9-1.5l0,0c0,0-0.1-0.1-0.1-0.2
			c-0.1,0-0.2,0-0.3,0c-0.3-0.4-0.6-0.9-0.9-1.3c-2.7-4-4.4-8.2-5.3-12.3c-2.5-10.2-1.1-21.2,4.6-30.3c0.1-0.1,0.1-0.2,0.1-0.3
			c0.4-0.6,0.8-1.3,1.3-1.9c0.9-0.4,1.9-0.7,2.8-1c3.5-1.2,7-2,10.8-2.6c0,0.1,0,0.1,0,0.2c0.3,2.1,3.1,10.7,6.4,18.2
			c0,0.1,0.1,0.2,0.1,0.3c3.1,6.6,6.7,12.5,9,11.5c0.1,0,0.1,0,0.2-0.1c0.1,0,0.2,0,0.3-0.1c-0.1,0.2-0.3,0.3-0.4,0.5
			c-3.6,4.9-2.5,17.1-1.7,22.4c0,0.2,0.1,0.4,0.1,0.7c0,0.2,0.1,0.4,0.1,0.5c0.1,0.3,0.1,0.5,0.1,0.7
			C2651.3,298.9,2651.3,299,2651.3,299.3C2651.4,299.2,2651.3,299.2,2651.3,299.3z M2654.3,301c-0.2-0.2-0.3-0.4-0.4-0.6
			c-0.1-0.2-0.2-0.3-0.4-0.5c-0.2-0.2-0.3-0.5-0.4-0.7c0-0.1,0-0.1-0.1-0.1c-0.1-0.2-0.2-0.4-0.4-0.6c-1.7-8.1-1.3-16.5,1.1-24.4
			c0-0.1,0.1-0.3,0.1-0.4c1.3-0.3,2.6-0.6,3.9-0.9c1.1-0.3,2.2-0.6,3.3-0.9c7.8-2.1,15.5-4.7,22.9-7.8c0.6-0.3,1.3-0.5,1.9-0.8
			c5.1,8.7,14.1,13.2,23.6,15.3c3.6,0.8,7.4,1.3,11,1.6c0,0.5,0,1.1-0.1,1.6v0c-0.5,8.4-2.5,16.6-5.8,24.3c-0.2,0.1-0.4,0.2-0.6,0.4
			c-0.1,0-0.1,0.1-0.2,0.1c0,0-0.1,0-0.2,0.1l-0.5,0.3c-3.8,2.1-7.8,4-11.9,5.6c-0.7,0.3-1.4,0.5-2.1,0.8c-0.6,0.2-1.2,0.5-1.9,0.7
			c-0.5,0.2-1,0.4-1.5,0.5c-0.8,0.3-1.6,0.5-2.4,0.8c-0.5,0.2-0.9,0.3-1.4,0.4c-0.2,0.1-0.4,0.1-0.6,0.2c-0.5,0.2-1.1,0.3-1.6,0.5
			c-0.6,0.2-1.2,0.3-1.8,0.5c-1.3,0.3-2.6,0.6-4,0.9c0,0,0-0.1,0-0.1c0,0,0,0,0,0s0,0-0.1,0s0,0-0.1,0c-0.1,0-0.2,0.1-0.3,0.2
			c-0.2-0.1-0.4-0.2-0.7-0.2C2674,315.1,2660.4,308.9,2654.3,301z M2707.4,329.2c-8.2,3.3-17.2,4.1-25.9,2.5c0,0,0,0,0,0
			c-0.7-0.1-2-0.4-4.1-0.9c2.1-1.3,3.9-3.2,5.1-5.4c7.8,3.1,16.3,4.3,24.7,3.7C2707.3,329.2,2707.4,329.2,2707.4,329.2
			C2707.4,329.2,2707.4,329.2,2707.4,329.2z M2698.9,327.9c0.1,0,0.2,0,0.3,0C2699.1,327.9,2699,327.9,2698.9,327.9z M2735.5,318
			c0,0-0.1,0-0.1,0c-0.4,0.2-1.5,0.6-2.2,1.2c-0.3,0.2-0.5,0.5-0.8,0.8l0,0c0,0.1-0.1,0.2-0.1,0.4c0,0,0,0.1,0,0.1
			c-1.2,0.7-2.5,1.4-3.8,2c-0.7,0.3-1.4,0.7-2.1,1c-0.1,0-0.2,0.1-0.3,0.1c-0.6,0.3-1.3,0.5-1.9,0.8c-0.1,0-0.2,0.1-0.3,0.1
			c-0.7,0.3-1.4,0.5-2.1,0.7c0,0-0.1,0-0.1,0c-8.4,2.7-17.5,3.5-26.3,2.2c0,0,0,0-0.1,0c-0.1,0-0.2,0-0.3,0c-0.1,0-0.2,0-0.3,0
			c0,0-0.1,0-0.1,0c-0.1,0-0.1,0-0.1,0c0,0,0,0,0,0c-0.1,0-0.1,0-0.2,0c-1.2-0.2-2.3-0.4-3.4-0.7c-0.4-0.1-0.9-0.2-1.3-0.3
			c-0.4-0.1-0.8-0.2-1.2-0.3c-1.7-0.5-3.4-1.1-5.1-1.8c0.6-1.6,1-3.3,1-5c1.2-0.3,2.4-0.6,3.6-0.9c-1.2,1.6,8.1,3,16.2,3.7
			c5.1,0.4,9.6,0.6,10.7,0.4c10.5-1.7,20.2-6.7,27.7-14.3c0,0,0,0,0,0c-1.2,2.9-2.8,5.5-4.8,7.9
			C2736.9,316.5,2736.2,317.3,2735.5,318z M2765.8,289.1c0,0,0,0.1-0.1,0.2c0,0.1-0.1,0.1-0.1,0.2c-0.1,0.2-0.3,0.5-0.5,0.9
			c-0.1,0.2-0.2,0.3-0.3,0.5c-0.4,0.3-0.7,0.9-0.7,1.2c-1.6,2-3.4,3.9-5.3,5.6c1.6-1,2.8-1.8,3.3-2.3c0,0,0.1-0.1,0.1-0.1
			c-0.3,0.5-0.7,1-1,1.5c-0.2,0.2-0.3,0.5-0.5,0.7c-0.2,0.3-0.4,0.5-0.6,0.8c-0.2,0.3-0.4,0.5-0.6,0.8c-0.3,0.4-0.7,0.9-1,1.3
			c-0.4,0.5-0.8,1-1.3,1.5c-0.1,0.1-0.1,0.1-0.2,0.2c-0.4,0.4-0.8,0.9-1.2,1.3c0,0.1-0.1,0.1-0.1,0.1c-0.6,0.6-1.2,1.2-1.9,1.9
			c-0.4,0.4-0.9,0.8-1.3,1.2c-0.1,0.1-0.2,0.2-0.3,0.3c-2.1,1.9-4.3,3.7-6.7,5.3c-0.2,0.1-0.3,0.2-0.5,0.3c-0.2,0.1-0.3,0.2-0.4,0.3
			c0,0,0,0,0,0c-0.1,0-0.1,0.1-0.2,0.1c0,0,0,0-0.1,0c0,0,0,0,0,0c-0.3,0.2-0.5,0.3-0.8,0.5c-0.8,0.5-1.6,1-2.4,1.5
			c-1.2,0.7-2.4,1.4-3.6,2.1c0.2-0.3,0.5-0.5,0.7-0.8c2.3-2.6,4.1-5.7,5.4-8.9c0,0,0,0,0,0s0,0,0,0c0-0.1,1.2-0.9,2.9-1.9
			c-0.5,0.2-0.9,0.4-1.4,0.5c6.9-6.5,12.3-14.5,15.6-23.4c0.2,0.1,0.7-0.3,0.9-0.7c2.8-1.5,5.6-3.1,8.4-4.6
			C2769.1,281.3,2767.7,285.3,2765.8,289.1z M2771,274.1c-0.2,0.6-0.4,1.2-0.6,1.8c-0.3,0.2-0.6,0.3-0.9,0.5
			c-2.7,1.5-5.4,2.9-8.1,4.4c-4.8-5.3-9.6-10.6-14.4-16c0-0.1,0.1-0.2,0.1-0.3c0.5-1,0.9-2,1.3-3c0.1-0.2,0.1-0.4,0.2-0.6
			c0.1-0.4,0.2-0.8,0.3-1.2c0.2-0.6,0.3-1.2,0.4-1.8c1.1-5.7,0.7-12.1-0.3-18.2c0,0,0,0,0,0c-0.1-0.9-0.3-1.7-0.5-2.6
			c-0.5-2.6-1.1-5-1.6-7.3c0,0,0-0.1,0.1-0.1c6.1-3,11-8.3,13.3-14.7c3.1,1.5,5.8,3.7,8.1,6.3c-0.2,0.8,0.3,2.8,1.3,1.7
			c0,0,0,0,0.1,0.1c2.1,2.7,3.6,5.8,4.7,9c0,0,0,0,0,0c0,0,0,0,0,0.1c0,0,0,0,0,0.1c0,0,0,0,0,0.1c0,0,0,0.1,0,0.1c0,0,0,0,0,0
			c0,0,0,0.1,0.1,0.2c0,0.1,0.1,0.1,0.1,0.2c1.7,5.4,2.1,10.9,1.7,16.4c0,0.5-0.1,1.1-0.1,1.6c-0.6,5.9-2,11.8-3.7,17.6
			c-0.4,1.3-0.8,2.5-1.1,3.8C2771.4,272.9,2771.2,273.5,2771,274.1z"/>
		<path fill="#FFFFFF" d="M2760.6,282.4c-3.3,8.9-8.7,16.9-15.6,23.4c0.5-0.2,0.9-0.3,1.4-0.5c0,0,0,0,0,0c4.5-1.8,8.7-4.3,12.3-7.5
			c1.9-1.7,3.7-3.6,5.3-5.6c0-0.3,0.3-0.9,0.7-1.2c0.1-0.2,0.2-0.3,0.3-0.5c0.2-0.3,0.3-0.6,0.5-0.9c0-0.1,0.1-0.1,0.1-0.2
			c0-0.1,0.1-0.1,0.1-0.2c0,0,0,0,0,0c1.9-3.8,3.3-7.8,4.1-12c-2.8,1.5-5.6,3-8.4,4.6C2761.2,282.1,2760.8,282.5,2760.6,282.4z"/>
		<path fill="#FFFFFF" d="M2739.2,184.9L2739.2,184.9c0.1,0,0.1,0.1,0,0.2c0,0,0,0.1,0,0.1c9,7.8,18.3,16.3,21.4,28.2c0,0,0,0,0,0
			c0.3,0,0.4,0.2,0.3,0.4c0.1,0,0.1-0.1,0.2-0.1c1.8-0.5,6.3,4,7.6,5.5c0.1,0.1,0.2,0.2,0.2,0.2c-0.1-0.5-0.1-1-0.2-1.5
			c0,0,0-0.1,0-0.1c-1.9-13-10.1-24.3-21.5-30.3c0,0,0,0,0,0c-0.8-0.4-1.5-0.8-2.3-1.1c-0.6-0.3-1.1-0.5-1.7-0.7
			c-0.4-0.2-0.9-0.3-1.3-0.5c-0.4-0.1-0.8-0.3-1.2-0.4c-0.6-0.2-1.2-0.4-1.8-0.5c0,0.2-0.1,0.4-0.3,0.6
			C2738.9,184.7,2739.1,184.7,2739.2,184.9L2739.2,184.9z"/>
		<path fill="none" stroke="#231F20" stroke-width="0" stroke-linecap="round" stroke-linejoin="round" d="M2767.2,211.3
			C2767.2,211.3,2767.2,211.3,2767.2,211.3"/>
		<path fill="none" stroke="#231F20" stroke-width="0" stroke-linecap="round" stroke-linejoin="round" d="M2767.2,211.2
			C2767.2,211.2,2767.2,211.2,2767.2,211.2"/>
		<path fill="none" stroke="#231F20" stroke-width="0" stroke-linecap="round" stroke-linejoin="round" d="M2766.3,208.6
			c0,0.1,0.1,0.2,0.1,0.3"/>
		<path fill="#A09F9F" d="M2744.1,307.3c-0.1,0-0.3,0.1-0.4,0.1c-0.2,0-0.2,0-0.1-0.2c0,0,0,0,0,0s0,0,0,0c-1.3,3.2-3.1,6.3-5.4,8.9
			c-0.2,0.3-0.5,0.5-0.7,0.8c1.2-0.7,2.4-1.4,3.6-2.1c0.8-0.5,1.6-1,2.4-1.5c3-2,5.9-4.2,8.7-6.6c0.1-0.1,0.2-0.2,0.3-0.3
			c0.4-0.4,0.9-0.8,1.3-1.2c0.6-0.6,1.3-1.2,1.9-1.9c0.1,0,0.1-0.1,0.1-0.1c0.4-0.4,0.8-0.8,1.2-1.3c0.1-0.1,0.1-0.2,0.2-0.2
			c0.4-0.5,0.9-1,1.3-1.5c0.4-0.4,0.7-0.8,1-1.3c0.2-0.3,0.4-0.5,0.6-0.8c0.2-0.3,0.4-0.5,0.6-0.8c0.2-0.2,0.3-0.4,0.5-0.7
			c0.3-0.5,0.7-1,1-1.5c0,0-0.1,0.1-0.1,0.1C2757.1,300.8,2750.9,304.9,2744.1,307.3z"/>
		<path fill="none" stroke="#A09F9F" stroke-width="0" stroke-linecap="round" stroke-linejoin="round" d="M2761.1,296.8
			c-0.2,0.2-0.3,0.5-0.5,0.7"/>
		<path fill="none" stroke="#A09F9F" stroke-width="0" stroke-linecap="round" stroke-linejoin="round" d="M2760,298.2
			c-0.2,0.3-0.4,0.5-0.6,0.8"/>
		<path fill="#FFFFFF" d="M2748.4,250c0,0,0,0.1,0,0.1c0,0,0,0.1,0,0.1C2748.5,250.1,2748.4,250.1,2748.4,250z"/>
		<path fill="none" stroke="#FFFFFF" stroke-width="0" stroke-linecap="round" stroke-linejoin="round" d="M2748.4,248.5
			c0,0.1,0,0.2,0,0.3"/>
		<path fill="none" stroke="#FFFFFF" stroke-width="0" stroke-linecap="round" stroke-linejoin="round" d="M2745.2,228.2
			c0.1,0.1,0.3,0.2,0.4,0.3"/>
		<path fill="none" stroke="#231F20" stroke-width="0" stroke-linecap="round" stroke-linejoin="round" d="M2744.2,312.8
			c0,0,0.1-0.1,0.2-0.1"/>
		<path fill="none" stroke="#231F20" stroke-width="0" stroke-linecap="round" stroke-linejoin="round" d="M2744.1,312.9
			C2744.2,312.9,2744.2,312.8,2744.1,312.9"/>
		<path fill="none" stroke="#231F20" stroke-width="0" stroke-linecap="round" stroke-linejoin="round" d="M2744.1,312.9
			C2744.1,312.9,2744.1,312.9,2744.1,312.9"/>
		<path fill="#A09F9F" d="M2742.3,307.9C2742.3,307.9,2742.3,307.9,2742.3,307.9c-7.5,7.5-17.2,12.6-27.7,14.2
			c-1.1,0.2-5.7,0-10.7-0.4c-8-0.7-17.4-2-16.2-3.7c-1.2,0.3-2.4,0.6-3.6,0.9c0,1.7-0.3,3.4-1,5c1.7,0.7,3.4,1.3,5.1,1.8
			c0.4,0.1,0.8,0.2,1.2,0.3c0.4,0.1,0.9,0.2,1.3,0.3c10.1,2.4,21,2,30.9-1.2c0,0,0.1,0,0.1,0c0.7-0.2,1.4-0.5,2.1-0.7
			c0.1,0,0.2-0.1,0.3-0.1c0.6-0.2,1.3-0.5,1.9-0.8c0.1,0,0.2-0.1,0.3-0.1c0.7-0.3,1.4-0.6,2.1-1c1.3-0.6,2.6-1.3,3.8-2
			c0,0,0-0.1,0-0.1c0-0.1,0.1-0.3,0.1-0.4l0,0c0.2-0.3,0.5-0.5,0.8-0.8c0.6-0.5,1.4-0.9,2.2-1.2c0.1,0,0.1,0,0.1,0
			c0.8-0.7,1.5-1.4,2.1-2.2C2739.6,313.4,2741.2,310.8,2742.3,307.9z M2732.3,319.9C2732.3,319.9,2732.3,319.9,2732.3,319.9
			C2732.3,319.8,2732.3,319.8,2732.3,319.9C2732.4,319.8,2732.4,319.8,2732.3,319.9C2732.4,319.8,2732.3,319.9,2732.3,319.9z"/>
		<path fill="#FFFFFF" d="M2683.8,172.3C2683.8,172.3,2683.8,172.3,2683.8,172.3c1.2,0.8,2.2,1.7,3.1,3c0,0,0,0,0.1,0.1
			c0,0,0,0.1,0.1,0.1c0,0,0,0.1,0,0.2c0,0,0,0.1,0,0.2c9.3-0.5,18.6,2.9,25.4,9.3c0.4-0.2,0.6-0.1,0.6,0.3c7.7-3,16.1-3.3,24-1.1
			c-0.1-0.2-0.2-0.4-0.4-0.6c-0.7,0.1-0.9-0.2-0.5-0.8c-0.3-0.4-0.6-0.8-0.9-1.2c-2.4-3.2-5.5-5.8-9.1-8c-0.2-0.1-0.3-0.2-0.5-0.3
			c-12.3-7.2-29.8-8.5-42.6-3.9c-1.2,0.4-2.3,0.9-3.3,1.4c0.1,0,0.2,0,0.3,0.1C2681.4,171.1,2682.6,171.5,2683.8,172.3z
			 M2686.4,174.5c0,0,0.1,0.1,0.1,0.1C2686.4,174.6,2686.4,174.6,2686.4,174.5z M2686.5,174.7c0.1,0.1,0.1,0.2,0.2,0.3
			C2686.7,174.9,2686.6,174.8,2686.5,174.7z M2705.2,167.5c-0.1,0-0.1,0-0.2,0C2705.1,167.5,2705.1,167.5,2705.2,167.5z
			 M2703.5,167.4c-0.1,0-0.1,0-0.2,0C2703.4,167.4,2703.4,167.4,2703.5,167.4z"/>
		<path fill="#FFFFFF" d="M2704,321.2c11.4,0.8,23-2.3,32.4-9.1l0,0c1-0.6,2.6-1.8,4.9-4c0.2-0.2,0.4-0.4,0.7-0.6v0
			c0.1-0.1,0.2-0.2,0.3-0.3c-8.6,2.8-17.9,3.1-26.6,1c-0.3-0.1-0.5-0.3-0.8-0.4c0,0-0.1,0-0.1-0.1c0,0-0.1,0-0.1,0c0,0,0,0,0-0.1
			c-0.1-0.1-0.3-0.1-0.4-0.2c-0.3,0.2-0.7,0.4-1,0.6c0,0,0,0,0,0c-0.1,0.1-0.3,0.1-0.4,0.2c-0.1,0.1-0.3,0.1-0.4,0.2
			c-0.2,0.1-0.4,0.2-0.6,0.3c-0.1,0-0.1,0.1-0.1,0.1c-0.2,0.1-0.4,0.2-0.7,0.3c-7,3.6-14.3,6.5-21.9,8.6
			C2693.9,319.6,2698.9,320.8,2704,321.2z"/>
		<path fill="#231F20" d="M2732.3,319.9C2732.3,319.9,2732.3,319.9,2732.3,319.9C2732.3,319.9,2732.4,319.8,2732.3,319.9
			C2732.4,319.8,2732.4,319.8,2732.3,319.9C2732.3,319.8,2732.3,319.8,2732.3,319.9z"/>
		<path fill="#A09F9F" d="M2722.2,276.8C2722.2,276.8,2722.2,276.8,2722.2,276.8c-2.4,0.3-4.8,0.3-7.2,0.1c0,0,0,0-0.1,0
			c-2.5-0.2-5-0.8-7.4-1.5c0,0,0,0-0.1,0c-3.7-1.2-7.1-3-10.3-5.3c-0.3-0.2-0.6-0.4-0.9-0.6c-0.3-0.2-0.5-0.4-0.8-0.7
			c-0.4-0.3-0.8-0.6-1.1-1c-0.2-0.2-0.5-0.4-0.7-0.7c-0.8-0.7-1.5-1.5-2.2-2.3c-0.3-0.3-0.5-0.6-0.8-0.9c-0.3-0.3-0.5-0.6-0.7-0.9
			c-0.3-0.3-0.5-0.7-0.8-1.1c-0.1-0.1-0.1-0.2-0.2-0.3c0,0.3-0.1,0.6-0.3,0.9c0,0,0,0,0,0c-0.2,0.3-0.4,0.5-0.7,0.7
			c5,7.4,12.9,12.6,21.6,14.5c3.5,0.8,7.2,1,10.8,0.6c0,0,0,0,0-0.1c0.1-0.2,0.2-0.4,0.4-0.7c0.1-0.1,0.2-0.2,0.2-0.3
			c0.1-0.1,0.1-0.1,0.2-0.1c0,0,0.1,0,0.1,0c0.1-0.1,0.3-0.1,0.3,0c0,0,0,0.1,0,0.1c0,0.1,0,0.1,0,0.2c0,0,0,0,0,0c0,0,0,0,0.1,0
			l0,0c0.1-0.1,0.1-0.1,0.2-0.2c0,0,0-0.1,0-0.1C2722.2,276.9,2722.3,276.8,2722.2,276.8z"/>
		<path fill="#FFFFFF" d="M2722.1,277.2c-0.1,0.1-0.2,0.1-0.2,0.2C2722,277.3,2722.1,277.3,2722.1,277.2z"/>
		<path fill="#FFFFFF" d="M2721.8,277.1c0-0.1-0.1-0.1-0.3,0c0,0-0.1,0-0.1,0c-0.1,0-0.1,0.1-0.2,0.1c-0.1,0.1-0.2,0.2-0.2,0.3
			c0.4,0,0.6,0,0.8-0.1c0-0.1,0-0.2,0-0.2C2721.8,277.1,2721.8,277.1,2721.8,277.1z"/>
		<path fill="none" stroke="#FFFFFF" stroke-width="0" stroke-linecap="round" stroke-linejoin="round" d="M2721.8,277.1
			c0,0,0,0.1,0,0.1"/>
		<path fill="none" stroke="#A09F9F" stroke-width="0" stroke-linecap="round" stroke-linejoin="round" d="M2721.3,277.2
			c0.1-0.1,0.1-0.1,0.2-0.1"/>
		<path fill="#A09F9F" d="M2684,264.2C2684,264.2,2684,264.2,2684,264.2c0,0.2,0.1,0.3,0.1,0.3c0.9,2.8,2.3,5.2,4,7.2
			c1.6,1.9,3.6,3.4,5.7,4.6c0,0,0,0,0.1,0c7,4.1,16.3,5.2,24.2,5.6c0.2,0,0.4,0,0.6,0c0.2,0,0.4,0,0.7,0c0.1,0,0.3-0.1,0.4-0.1
			c0,0,0,0,0,0c0.3,0,0.5-0.1,0.8-0.2v0c0-0.5,0.1-1.1,0.1-1.6c-3.6-0.2-7.3-0.7-11-1.6c-9.5-2.1-18.5-6.6-23.6-15.3
			c-0.6,0.3-1.3,0.5-1.9,0.8L2684,264.2C2684,264.1,2684,264.1,2684,264.2z"/>
		<path fill="#FFFFFF" d="M2656.4,277.2c-3.1,12.7,1.9,26.2,12.5,33.8c0.2,0.1,0.4,0.3,0.5,0.4c0.3,0.2,0.5,0.4,0.8,0.5
			c0.1,0,0.1,0.1,0.2,0.1c0.3,0.2,0.5,0.3,0.8,0.5c0.5,0.3,1,0.6,1.5,0.8c0,0,0,0,0,0c3.2,1.7,6.6,3.1,10.1,4.1c0.2,0,0.5,0,0.7,0.2
			c0.1-0.1,0.2-0.1,0.3-0.2c0,0,0,0,0.1,0s0,0,0.1,0s0,0,0,0c0,0,0,0.1,0,0.1c1.3-0.3,2.6-0.6,4-0.9c0.6-0.2,1.2-0.3,1.8-0.5
			c0.6-0.2,1.1-0.3,1.6-0.5c0.2-0.1,0.4-0.1,0.6-0.2c0.5-0.1,0.9-0.3,1.4-0.4c0.8-0.3,1.6-0.5,2.4-0.8c0.5-0.2,1-0.3,1.5-0.5
			c0.6-0.2,1.3-0.4,1.9-0.7c0.7-0.3,1.4-0.5,2.1-0.8c4.1-1.6,8.1-3.5,11.9-5.6l0.5-0.3c0.1,0,0.2-0.1,0.2-0.1c0.1,0,0.1-0.1,0.2-0.1
			c0.2-0.1,0.4-0.2,0.6-0.4c3.4-7.7,5.3-16,5.8-24.3c-0.3,0.1-0.5,0.1-0.8,0.2c0,0,0,0,0,0c-0.1,0.1-0.1,0.1-0.2,0.1c0,0,0,0,0,0h0
			h0c0,0-0.1,0-0.1,0c-0.1,0.1-0.3,0.1-0.4,0.1c0,0,0,0,0,0c0,0-0.1,0-0.1,0c-0.1,0-0.2,0-0.2-0.1c-0.2,0-0.4,0-0.6,0
			c-8.2-0.3-17-1.1-24.2-5.6c0,0,0,0-0.1,0c-2.1-1.2-4.1-2.8-5.7-4.6c-2.5-2.5-4.6-5.3-4.1-7.5c0,0,0-0.1,0-0.1v0
			c-7.4,3.1-15.1,5.7-22.9,7.8c-1.1,0.3-2.2,0.6-3.3,0.9c-0.2,0.5-0.4,1-0.6,1.5C2656.9,275.2,2656.6,276.2,2656.4,277.2z"/>
		<path fill="#231F20" d="M2719.4,282L2719.4,282L2719.4,282C2719.5,282,2719.5,282,2719.4,282c0.1,0,0.2,0,0.3-0.1
			c-0.1,0-0.3,0.1-0.4,0.1C2719.3,282,2719.4,282,2719.4,282z"/>
		<path fill="#231F20" d="M2718.8,282.1C2718.8,282.1,2718.8,282.1,2718.8,282.1C2718.9,282.1,2718.9,282.1,2718.8,282.1
			c0.2,0,0.3-0.1,0.5-0.1c-0.2,0-0.4,0-0.7,0C2718.6,282.1,2718.7,282.1,2718.8,282.1z"/>
		<path fill="#FFFFFF" d="M2717.8,211.7L2717.8,211.7c-0.2,0-0.3,0.1-0.4,0.3c-0.1,0.1-0.1,0.2-0.2,0.3c-9.6,2.6-18.5,7.1-26.3,13.3
			c-0.1,0.1-0.2,0.2-0.3,0.3c0,0.1,0,0.3,0,0.4c1.4,11.8,0.9,23.7-1.4,35.4c0.1,0.1,0.1,0.2,0.2,0.3c0.2,0.4,0.5,0.7,0.8,1.1
			c0.2,0.3,0.5,0.6,0.7,0.9c0.3,0.3,0.5,0.6,0.8,0.9c0.7,0.8,1.4,1.6,2.2,2.3c0.2,0.2,0.5,0.4,0.7,0.7c0.4,0.3,0.7,0.7,1.1,1
			c0.3,0.2,0.5,0.5,0.8,0.7c0.3,0.2,0.6,0.4,0.9,0.6c3.1,2.3,6.6,4.1,10.3,5.3c0,0,0,0,0.1,0c1.6,0.4,4.6,1.1,7.4,1.5c0,0,0,0,0.1,0
			c2.4,0.2,4.7,0.2,7.1-0.1c0,0,0.1,0,0.1,0c0.1,0,0,0.1,0,0.3c0,0,0,0,0,0.1c6.3-4.3,14.3-7,21-11c0.3-0.1,0.5-0.3,0.8-0.5
			c0.2-0.4,0.6-0.7,1.1-0.8c0.1-0.5,0.4-0.9,0.8-1c0,0,0,0,0,0c0.2-0.1,0.5,0,0.7,0.3c0.3-0.7,0.6-1.3,0.8-2
			c1.2-3.8,1.3-7.9,1.2-11.9c0-0.1,0-0.2,0-0.3c0-0.1,0-0.2,0-0.3c-0.1-3.3-4.2-18-2.7-20c0,0-0.1,0-0.1,0c-0.2,0,0-0.4,0.3-0.8
			c-0.1-0.1-0.2-0.2-0.4-0.4c-0.1-0.1-0.2-0.2-0.4-0.3c-0.1-0.1-0.1-0.1-0.2-0.2c-0.2-0.2-0.5-0.4-0.8-0.7c0,0,0,0,0,0
			C2738.3,222.5,2721.6,210.5,2717.8,211.7z"/>
		<path fill="none" stroke="#FFFFFF" stroke-width="0" stroke-linecap="round" stroke-linejoin="round" d="M2712.3,308.4
			c-0.2,0.1-0.4,0.2-0.6,0.3"/>
		<path fill="#FFFFFF" d="M2656.1,195.2c-2.2,7.9-0.8,15.8-1.8,23.9c0.2-0.1,0.4-0.2,0.7-0.3c0.4-0.2,0.8-0.3,1.3-0.5
			c5.7-2,11.6-1.7,17.3-0.3c0.3,0,0.6,0.1,0.8,0.2c0.2,0,0.3,0.1,0.5,0.1c0.2,0,0.3,0.1,0.5,0.1c3.5,1,6.9,2.3,10.2,3.7
			c0.6,0.3,1.2,0.5,1.8,0.8c0.1,0,0.1,0.1,0.2,0.1c0.1,0,0.1,0.1,0.2,0.1c0.1,0,0.2,0.1,0.3,0.1c0,0,0.1,0,0.1,0.1c0,0,0.1,0,0.1,0
			c0,0,0,0,0,0c0.1,0,0.1,0,0.2,0.1c0,0,0,0,0,0c0,0,0.1,0,0.1,0s0.1,0,0.1,0.1s0.1,0,0.1,0c0,0,0.1,0,0.1,0.1
			c0.1,0,0.2,0.1,0.3,0.1c0.1,0,0.1,0.1,0.2,0.1c0.1,0,0.1,0.1,0.2,0.1c0,0,0.1,0,0.1,0h0c0,0,0,0,0,0c0,0,0.1,0,0.1,0c0,0,0,0,0,0
			c0.1,0,0.1,0.1,0.2,0.1c0.2,0.1,0.4,0.2,0.5,0.2c0.1,0,0.1,0.3-0.1,0.5c0,0.1,0,0.2,0,0.3c7.7-6.3,16.6-11,26.1-13.8
			c-0.3-3.6-6-21.6-4.6-24.3c0-0.1-0.1-0.1-0.1-0.2c-0.5,0.2-0.8,0.1-0.5-0.4c-4-3.7-8.9-6.5-14.1-8c-0.6-0.2-7-1.2-10.3-1.4
			c-1.2-0.1-1.9,0-1.9,0.1c-2.8,0.9-5.3,2-7.8,3.2c-1.2,0.6-2.4,1.2-3.6,1.9c-1.8,1-3.5,2-5.2,3.1c-1.1,0.7-2.3,1.5-3.4,2.2
			c-1.9,1.3-3.7,2.6-5.6,3.9c-1,0.7-1.9,1.4-2.9,2.1c-0.1,0.3-0.2,0.5-0.3,0.8c0,0,0,0,0,0C2656.2,194.6,2656.1,194.9,2656.1,195.2z
			"/>
		<path fill="none" stroke="#FFFFFF" stroke-width="0" stroke-linecap="round" stroke-linejoin="round" d="M2710.8,308.3
			c0.1-0.1,0.2-0.1,0.4-0.2"/>
		<path fill="#A09F9F" d="M2682.4,325.5c-1.2,2.2-2.9,4-5.1,5.4c1.4,0.4,2.7,0.7,4.1,0.9c0,0,0,0,0,0c8.7,1.6,17.7,0.7,25.9-2.5
			c0,0,0,0,0,0c0,0-0.1,0-0.3,0C2698.8,329.8,2690.3,328.5,2682.4,325.5z M2704.1,329.4c0.1,0,0.2,0,0.3,0
			C2704.3,329.4,2704.2,329.4,2704.1,329.4z M2704.5,329.4c0.1,0,0.2,0,0.3,0C2704.7,329.4,2704.6,329.4,2704.5,329.4z
			 M2705.3,329.3c0.1,0,0.2,0,0.3,0C2705.4,329.3,2705.4,329.3,2705.3,329.3z M2705.6,329.3c0.2,0,0.4,0,0.6,0
			C2706,329.3,2705.8,329.3,2705.6,329.3z M2706.4,329.3c0.2,0,0.3,0,0.4,0C2706.7,329.2,2706.5,329.2,2706.4,329.3z"/>
		<path fill="none" stroke="#A09F9F" stroke-width="0" stroke-linecap="round" stroke-linejoin="round" d="M2706.8,329.2
			c-0.1,0-0.3,0-0.4,0"/>
		<path fill="none" stroke="#A09F9F" stroke-width="0" stroke-linecap="round" stroke-linejoin="round" d="M2706.2,329.3
			c-0.2,0-0.4,0-0.6,0"/>
		<path fill="none" stroke="#A09F9F" stroke-width="0" stroke-linecap="round" stroke-linejoin="round" d="M2705.5,329.3
			c-0.1,0-0.2,0-0.3,0"/>
		<path fill="none" stroke="#FFFFFF" stroke-width="0" stroke-linecap="round" stroke-linejoin="round" d="M2705,167.5
			c0.1,0,0.1,0,0.2,0"/>
		<path fill="none" stroke="#A09F9F" stroke-width="0" stroke-linecap="round" stroke-linejoin="round" d="M2704.8,329.4
			c-0.1,0-0.2,0-0.3,0"/>
		<path fill="none" stroke="#A09F9F" stroke-width="0" stroke-linecap="round" stroke-linejoin="round" d="M2704.5,329.4
			c-0.1,0-0.2,0-0.3,0"/>
		<path fill="none" stroke="#FFFFFF" stroke-width="0" stroke-linecap="round" stroke-linejoin="round" d="M2703.5,167.4
			c-0.1,0-0.1,0-0.2,0"/>
		<path fill="none" stroke="#231F20" stroke-width="0" stroke-linecap="round" stroke-linejoin="round" d="M2698.9,327.9
			c0.1,0,0.2,0,0.3,0"/>
		<path fill="none" stroke="#A09F9F" stroke-width="0" stroke-linecap="round" stroke-linejoin="round" d="M2696.4,269.4
			c0.3,0.2,0.6,0.4,0.9,0.6"/>
		<path fill="none" stroke="#A09F9F" stroke-width="0" stroke-linecap="round" stroke-linejoin="round" d="M2695.6,268.7
			c0.3,0.2,0.5,0.5,0.8,0.7"/>
		<path fill="none" stroke="#231F20" stroke-width="0" stroke-linecap="round" stroke-linejoin="round" d="M2695.3,327.3
			C2695.3,327.3,2695.3,327.3,2695.3,327.3"/>
		<path fill="none" stroke="#FFFFFF" stroke-width="0" stroke-linecap="round" stroke-linejoin="round" d="M2688.4,223.3
			c0,0,0.1,0,0.1,0"/>
		<path fill="none" stroke="#FFFFFF" stroke-width="0" stroke-linecap="round" stroke-linejoin="round" d="M2687.7,223
			c-0.1,0-0.1,0-0.2-0.1"/>
		<path fill="none" stroke="#231F20" stroke-width="0" stroke-linecap="round" stroke-linejoin="round" d="M2686.7,175.1
			c-0.1-0.1-0.2-0.2-0.2-0.3"/>
		<path fill="none" stroke="#231F20" stroke-width="0" stroke-linecap="round" stroke-linejoin="round" d="M2686.5,174.7
			c0-0.1-0.1-0.1-0.1-0.1"/>
		<path fill="none" stroke="#A09F9F" stroke-width="0" stroke-linecap="round" stroke-linejoin="round" d="M2684.9,267
			C2684.9,267,2684.9,266.9,2684.9,267"/>
		<path fill="none" stroke="#A09F9F" stroke-width="0" stroke-linecap="round" stroke-linejoin="round" d="M2684.8,266.7
			c0-0.1-0.1-0.2-0.1-0.3"/>
		<path fill="none" stroke="#A09F9F" stroke-width="0" stroke-linecap="round" stroke-linejoin="round" d="M2684.6,266
			c0-0.1-0.1-0.3-0.1-0.4"/>
		<path fill="none" stroke="#A09F9F" stroke-width="0" stroke-linecap="round" stroke-linejoin="round" d="M2684.4,265.3
			c-0.1-0.2-0.1-0.4-0.2-0.6"/>
		<path fill="none" stroke="#FFFFFF" stroke-width="0" stroke-linecap="round" stroke-linejoin="round" d="M2684,317.6
			C2684,317.6,2684,317.6,2684,317.6"/>
		<path fill="#A09F9F" d="M2672.8,313.5C2672.8,313.4,2672.7,313.4,2672.8,313.5c-0.6-0.3-1.1-0.6-1.6-0.9c-0.3-0.2-0.6-0.3-0.8-0.5
			c-0.1,0-0.1-0.1-0.2-0.1c-0.3-0.2-0.5-0.4-0.8-0.5c-0.2-0.1-0.4-0.3-0.5-0.4c-4.8-3.4-8.7-8.2-11-13.7v0
			c-2.7-6.4-3.1-13.5-1.5-20.1c0.2-1,0.5-2,0.9-3c0.2-0.5,0.4-1,0.6-1.5c-1.3,0.3-2.6,0.6-3.9,0.9c0,0.1-0.1,0.3-0.1,0.4
			c-2.4,7.9-2.8,16.3-1.1,24.4c0.1,0.2,0.2,0.4,0.4,0.6c0,0,0.1,0,0.1,0.1c0.1,0.2,0.3,0.5,0.4,0.7c0.1,0.2,0.2,0.3,0.4,0.5
			c0.1,0.2,0.3,0.4,0.4,0.6C2658.8,306.6,2666.9,310.4,2672.8,313.5z"/>
		<path fill="none" stroke="#A09F9F" stroke-width="0" stroke-linecap="round" stroke-linejoin="round" d="M2671.2,312.6
			c-0.3-0.2-0.6-0.3-0.8-0.5"/>
		<path fill="none" stroke="#A09F9F" stroke-width="0" stroke-linecap="round" stroke-linejoin="round" d="M2670.2,312
			c-0.3-0.2-0.5-0.4-0.8-0.5"/>
		<path fill="none" stroke="#FFFFFF" stroke-width="0" stroke-linecap="round" stroke-linejoin="round" d="M2657.8,272.7
			c1.1-0.3,2.2-0.6,3.3-0.9"/>
		<path fill="#FFFFFF" d="M2620.8,237.1c0.3,1.8,0.7,3.5,1.2,5.2c0.2,0.1,0.5,0.1,0.8,0.2c2.7,0.6,8.6,0.9,11.9,0.7
			c0.9-0.3,1.7-0.5,2.2-0.6c0.2,0,0.4,0,0.6,0c4.2-8,9.1-16.3,15.6-22.7c0-0.6-0.1-1.2-0.1-1.8c-0.2-4.5-0.2-9.2,0.3-13.8
			c0-0.4,0.1-0.8,0.1-1.3c0.2-1.6,0.5-3.2,0.9-4.8c0.3-1.4,0.7-2.7,1.2-4.1c0.1-0.2,0.1-0.4,0.2-0.6c-6.5,0.5-13,1-19.5,1.5
			c-0.3,0.1-0.5,0.3-0.8,0.5c-0.8,0.5-1.5,1-2.2,1.6C2622.9,207.3,2618.4,222.7,2620.8,237.1z"/>
		<path fill="#FFFFFF" d="M2623.6,252c-0.1,0.7-0.1,1.4-0.2,2.1c-0.5,9.1,1.3,18.9,5.7,26.9c0,0.1,0.1,0.1,0.1,0.2
			c4.4,7.6,11.3,13.5,20.3,15.3c0.5,0.1,1,0.2,1.4,0.3h0c-0.8-5.3-1.9-17.5,1.7-22.4c0.1-0.2,0.3-0.3,0.4-0.5c-0.1,0-0.2,0-0.3,0.1
			c-0.1,0-0.1,0.1-0.2,0.1c-2.3,1-5.9-5-9-11.5c-0.1-0.1-0.1-0.2-0.1-0.3c-3.1-6.5-5.6-13.6-5.9-15.2
			C2632.5,246.9,2627.5,248.7,2623.6,252z"/>
		<path fill="#A09F9F" d="M2651.1,298c0-0.2-0.1-0.4-0.1-0.5c0-0.2-0.1-0.4-0.1-0.7h0c-0.5-0.1-1-0.1-1.4-0.3
			c-9.4-1.8-16-7.7-20.3-15.3c0-0.1-0.1-0.1-0.1-0.2c-4.4-8-6.1-17.9-5.7-26.9c0-0.7,0.1-1.4,0.2-2.1c3.8-3.3,8.9-5.1,14-5
			c-0.2-1-0.3-2-0.5-2.9c0-0.1,0-0.1,0-0.2c-3.8,0.5-7.3,1.4-10.8,2.6c-0.9,0.3-1.8,0.7-2.8,1c-0.4,0.6-0.9,1.2-1.3,1.9
			c0,0.1-0.1,0.2-0.1,0.3c-5.6,9-7.1,20.1-4.6,30.3c0.9,4.2,2.6,8.3,5.3,12.3c0.3,0.4,0.6,0.9,0.9,1.3c0.1-0.1,0.3-0.1,0.3,0
			c0.1,0.1,0.1,0.2,0.1,0.2l0,0c0.3,0.5,0.6,1,0.9,1.5c0.4-0.3,0.6-0.1,0.7,0.4c8.3,2.4,16.8,3.6,25.4,3.6c0,0,0-0.1,0-0.1
			c0-0.1-0.1-0.3-0.1-0.4C2651.2,298.5,2651.2,298.2,2651.1,298z M2623.6,264.2C2623.7,264.2,2623.7,264.3,2623.6,264.2
			C2623.7,264.3,2623.7,264.2,2623.6,264.2z M2623.7,264.4c0,0.1,0,0.1,0,0.2C2623.7,264.5,2623.7,264.4,2623.7,264.4z M2624,266.6
			c0,0.1,0,0.2,0,0.3C2624,266.8,2624,266.7,2624,266.6z M2624,267.2c0,0.1,0,0.1,0,0.2C2624,267.3,2624,267.2,2624,267.2z"/>
		<path fill="none" stroke="#A09F9F" stroke-width="0" stroke-linecap="round" stroke-linejoin="round" d="M2651.1,298
			c0.1,0.3,0.1,0.5,0.1,0.7"/>
		<path fill="#A09F9F" d="M2634.6,243.1C2634.6,243.1,2634.6,243.1,2634.6,243.1C2634.6,243.1,2634.6,243.1,2634.6,243.1
			c1-0.1,1.7-0.2,2-0.4c0,0,0,0,0,0c0,0,0.1,0,0.1-0.1c0,0,0,0,0.1,0h0c0,0,0,0,0,0C2636.3,242.6,2635.5,242.8,2634.6,243.1z"/>
		<path fill="none" stroke="#A09F9F" stroke-width="0" stroke-linecap="round" stroke-linejoin="round" d="M2636.8,242.6
			c0,0-0.1,0.1-0.1,0.1"/>
		<path fill="#A09F9F" d="M2616.5,230.9c0,0.1,0,0.2,0,0.3c0.1,0.7,0.1,1.4,0.2,2.2c0.1,0.5,0.1,1,0.2,1.5
			c0.7,5.4,2.2,11.5,4.9,12.4c0.7,0.2,1.8,0,3.2-0.4c0.1,0,0.1,0,0.2-0.1c2.9-0.9,6.6-2.7,9.4-3.6c-3.3,0.3-9.2-0.1-11.8-0.7
			c-0.3-0.1-0.5-0.1-0.8-0.2c-0.5-1.7-0.9-3.4-1.2-5.2c-2.4-14.3,2.2-29.7,12.4-40.1c-6,4.6-11.1,10.6-14.1,17.5
			c-0.2,0.5-0.4,1-0.6,1.5c-0.1,0.3-0.3,0.7-0.4,1c-0.3,1-0.6,2-0.9,3.1c-0.3,1.1-0.5,2.2-0.6,3.4c0,0,0,0,0,0.1
			c-0.1,0.4-0.1,0.8-0.1,1.2c0,0.2,0,0.4-0.1,0.6c0,0.1,0,0.2,0,0.3c0,0.1,0,0.1,0,0.2c0,0.4-0.1,0.7-0.1,1.1c0.1,0,0.1,0,0,0.3
			c0,0,0,0,0,0c0,0,0,0,0,0c0,0,0,0,0,0.1c0,0.3,0,0.8,0,1.3C2616.4,229.2,2616.4,230,2616.5,230.9z"/>
		<path fill="none" stroke="#A09F9F" stroke-width="0" stroke-linecap="round" stroke-linejoin="round" d="M2624,267.2
			c0,0.1,0,0.1,0,0.2"/>
		<path fill="none" stroke="#A09F9F" stroke-width="0" stroke-linecap="round" stroke-linejoin="round" d="M2624,266.6
			c0,0.1,0,0.2,0,0.3"/>
		<path fill="none" stroke="#A09F9F" stroke-width="0" stroke-linecap="round" stroke-linejoin="round" d="M2623.7,264.6
			c0-0.1,0-0.2,0-0.2"/>
		<path fill="none" stroke="#A09F9F" stroke-width="0" stroke-linecap="round" stroke-linejoin="round" d="M2623.7,264.3
			C2623.7,264.3,2623.7,264.2,2623.7,264.3"/>
		<path fill="none" stroke="#231F20" stroke-width="0" stroke-linecap="round" stroke-linejoin="round" d="M2620.4,252.4
			c0.1-0.1,0.2-0.3,0.3-0.5"/>
		<path fill="#A09F9F" d="M2620.3,248.8c-0.1,0-0.2,0-0.3-0.1c-0.1,0-0.2-0.1-0.3-0.1c0,0-0.1-0.1-0.1-0.1c-0.1-0.1-0.3-0.3-0.4-0.4
			c0,0,0,0,0,0c-2.3-3.1-3.8-14.5-4.1-17.6c0-0.2,0-0.4,0-0.5c-0.2,0.5-0.4,1-0.7,1.5c-3.5,8.2-6.3,17.7-5.7,26.6
			c0,0.3,0,0.6,0.1,0.8c0.6,5.6,2.5,11,5.9,15.4c0.1-0.1,0.2-0.1,0.2-0.1c0,0,0.1,0,0.1,0v0c0,0,0,0,0,0c0,0,0.1,0.1,0.1,0.1
			c-0.6-8.3,1.5-16.8,5.8-23.9C2620.7,249.9,2620.5,249.3,2620.3,248.8z"/>
		<path fill="none" stroke="#231F20" stroke-width="0" stroke-linecap="round" stroke-linejoin="round" d="M2620,248.7
			c-0.1,0-0.2-0.1-0.3-0.1"/>
		<path fill="none" stroke="#A09F9F" stroke-width="0" stroke-linecap="round" stroke-linejoin="round" d="M2616.5,224.7
			c0-0.4,0.1-0.8,0.1-1.2"/>
		<path fill="none" stroke="#231F20" stroke-width="0" stroke-linecap="round" stroke-linejoin="round" d="M2615.1,274.3
			c0,0-0.1-0.1-0.1-0.1"/>
		<path fill="none" stroke="#231F20" stroke-width="0" stroke-linecap="round" stroke-linejoin="round" d="M2608.6,254.7
			c0-0.1,0-0.3,0-0.4"/>
	</g>
</g>
</svg>
