<?xml version="1.0" encoding="utf-8"?>
<!-- Generator: Adobe Illustrator 18.1.1, SVG Export Plug-In . SVG Version: 6.00 Build 0)  -->
<!DOCTYPE svg PUBLIC "-//W3C//DTD SVG 1.1//EN" "http://www.w3.org/Graphics/SVG/1.1/DTD/svg11.dtd">
<svg version="1.1" xmlns="http://www.w3.org/2000/svg" xmlns:xlink="http://www.w3.org/1999/xlink" x="0px" y="0px"
	 viewBox="0 0 7.9 246.6" enable-background="new 0 0 7.9 246.6" xml:space="preserve">
<g id="water_pouring_instances_-_boards">
</g>
<g id="water_pour_cycle_x5F_main_comp">
	<g id="POSE2">
		<g id="Layer_6">
		</g>
	</g>
	<g id="POSE3">
	</g>
</g>
<g id="POSE1_2_" opacity="0.5">
</g>
<g id="POSE2_1_" opacity="0.5">
</g>
<g id="POSE3_1_" opacity="0.5">
</g>
<g id="ch06-12-1">
	<g id="water_off_hand4" opacity="0.5">
	</g>
	<g id="water_off_hand4_copy" opacity="0.5">
	</g>
</g>
<g id="Layer_12">
	<g id="basin">
		<g id="Layer_15">
		</g>
		<g id="Layer_20">
		</g>
		<g id="Layer_14">
		</g>
		<g id="Layer_17" opacity="0.49">
			<g id="Layer_16">
			</g>
		</g>
		<g id="Layer_17_copy_2" opacity="0.49">
			<g id="Layer_16_copy">
			</g>
		</g>
		<g id="Layer_17_copy" opacity="0.49">
		</g>
	</g>
</g>
<g id="Layer_22">
	<g id="Layer_23">
	</g>
	<g id="Layer_24">
	</g>
	<g id="Layer_24_copy">
	</g>
</g>
<g id="ch02A-09-4">
	<g id="dirtydrips_x5F_fromholes">
	</g>
	<g id="dirtydrips_x5F_fromholes_copy">
		<g id="_x31__9_" opacity="0.5">
			<g id="_x31__11_">
				<path fill="#6A5C50" d="M2.5,5.6c0,2.3,0,4.7,0,7c-0.1,0-0.2,0.1-0.3,0.1V4.9H1.8v8.1c-0.3,0.3-0.7,0.7-0.7,1c0,1,0,1.9,0,2.9
					c0,0.4,0.9-0.1,1-0.2c0.1-0.1,0.3-0.2,0.5-0.4c0,7.3,0,14.5,0,21.8c0,0.3,0.4,0.2,0.8,0v14.3h0.5V37.9c0.4-0.3,0.8-0.7,0.8-1.1
					c0-10.9,0-21.7,0-32.6C4.5,3.6,2.5,4.8,2.5,5.6z"/>
				<path fill="#6A5C50" d="M5.9,17c0,0.3,0,0.5,0,0.8H5.4V35h0.5c0,3,0,5.9,0,8.9H5.1v17.3h1v-6.6c0.6-0.1,1.7-0.9,1.7-1.5
					c0-12.5,0-25,0-37.5C7.9,15,5.9,16.2,5.9,17z"/>
				<rect x="6.4" y="1.8" fill="#6A5C50" width="1" height="5.4"/>
				<rect x="1.5" y="40.6" fill="#6A5C50" width="1" height="26.2"/>
				<rect x="0" y="21.2" fill="#6A5C50" width="1" height="3.4"/>
				<polygon fill="#6A5C50" points="6.1,10.1 5.9,10.1 5.9,3.5 5.4,3.5 5.4,10.1 5.1,10.1 5.1,16.3 6.1,16.3 				"/>
				<rect x="3" y="60.2" fill="#6A5C50" width="1" height="9.3"/>
				<rect x="3" y="75.2" fill="#6A5C50" width="1" height="10.1"/>
				<polygon fill="#6A5C50" points="6.1,78.5 5.9,78.5 5.9,77.1 6.1,77.1 6.1,64.9 5.9,64.9 5.9,63.2 5.4,63.2 5.4,64.9 5.1,64.9 
					5.1,77.1 5.4,77.1 5.4,78.5 5.1,78.5 5.1,92.9 6.1,92.9 				"/>
				<rect x="1.5" y="83.3" fill="#6A5C50" width="1" height="2.5"/>
				<rect x="5.1" y="110" fill="#6A5C50" width="1" height="12.2"/>
				<rect x="3" y="89.8" fill="#6A5C50" width="1" height="3.9"/>
				<rect x="1.5" y="99.9" fill="#6A5C50" width="1" height="1.6"/>
				<polygon fill="#6A5C50" points="6.6,68.4 6.6,81.2 6.4,81.2 6.4,85.3 6.6,85.3 6.6,86.1 7.1,86.1 7.1,85.3 7.4,85.3 7.4,81.2 
					7.1,81.2 7.1,68.4 				"/>
				<polygon fill="#6A5C50" points="5.4,130.9 5.4,138.3 5.4,146.5 5.9,146.5 5.9,138.3 5.9,130.9 5.9,125.1 5.4,125.1 				"/>
				<polygon fill="#6A5C50" points="3.8,106.3 3.8,104.5 3.8,97.7 3.3,97.7 3.3,104.5 3.3,106.3 3.3,108 3.8,108 				"/>
				<rect x="1.8" y="113.8" fill="#6A5C50" width="0.5" height="7.2"/>
				<rect x="3.3" y="109.8" fill="#6A5C50" width="0.5" height="3.9"/>
				<rect x="0.2" y="40.6" fill="#6A5C50" width="0.5" height="2.1"/>
				<rect x="0.2" y="30.1" fill="#6A5C50" width="0.5" height="1.2"/>
				<path fill="#6A5C50" d="M6.1,96v-1.4h-1v11.7h0.7c0,0.8,0,1.6,0,2.4c0,0.1,0.2,0.1,0.5,0v2.6h0.3v7h0.5v-7h0.3V108
					c0.3-0.2,0.5-0.5,0.5-0.7c0-4.1,0-8.1,0-12.2C7.8,94.8,6.7,95.4,6.1,96z"/>
				<rect x="3" y="117.4" fill="#6A5C50" width="1" height="12.3"/>
				<rect x="3" y="138.3" fill="#6A5C50" width="1" height="7.4"/>
			</g>
			<g id="_x31__10_">
				<path fill="#6A5C50" d="M2.5,146.7c0,2.3,0,4.7,0,7c-0.1,0-0.2,0.1-0.3,0.1v-7.8H1.8v8.1c-0.3,0.3-0.7,0.7-0.7,1
					c0,1,0,1.9,0,2.9c0,0.4,0.9-0.1,1-0.2c0.1-0.1,0.3-0.2,0.5-0.4c0,7.3,0,14.5,0,21.8c0,0.3,0.4,0.2,0.8,0v14.3h0.5V179
					c0.4-0.3,0.8-0.7,0.8-1.1c0-10.9,0-21.7,0-32.6C4.5,144.7,2.5,145.9,2.5,146.7z"/>
				<path fill="#6A5C50" d="M5.9,158.1c0,0.3,0,0.5,0,0.8H5.4v17.3h0.5c0,3,0,5.9,0,8.9H5.1v17.3h1v-6.6c0.6-0.1,1.7-0.9,1.7-1.5
					c0-12.5,0-25,0-37.5C7.9,156.1,5.9,157.3,5.9,158.1z"/>
				<rect x="6.4" y="143" fill="#6A5C50" width="1" height="5.4"/>
				<rect x="1.5" y="181.7" fill="#6A5C50" width="1" height="26.2"/>
				<rect x="0" y="162.3" fill="#6A5C50" width="1" height="3.4"/>
				<polygon fill="#6A5C50" points="6.1,151.2 5.9,151.2 5.9,144.6 5.4,144.6 5.4,151.2 5.1,151.2 5.1,157.4 6.1,157.4 				"/>
				<rect x="3" y="201.3" fill="#6A5C50" width="1" height="9.3"/>
				<rect x="3" y="216.3" fill="#6A5C50" width="1" height="10.1"/>
				<path fill="#6A5C50" d="M5.1,219.6v11.8c0.2,0,0.4-0.1,0.6-0.1c0.1,0,0.3,0,0.4,0v-11.6H5.9v-1.4h0.3V206H5.9v-1.8H5.4v1.8H5.1
					v12.2h0.3v1.4H5.1z"/>
				<rect x="1.5" y="224.4" fill="#6A5C50" width="1" height="2.5"/>
				<polygon fill="#6A5C50" points="6.6,209.5 6.6,222.3 6.4,222.3 6.4,226.4 6.6,226.4 6.6,227.2 7.1,227.2 7.1,226.4 7.4,226.4 
					7.4,222.3 7.1,222.3 7.1,209.5 				"/>
				<rect x="0.2" y="181.7" fill="#6A5C50" width="0.5" height="2.1"/>
				<rect x="0.2" y="171.2" fill="#6A5C50" width="0.5" height="1.2"/>
			</g>
		</g>
	</g>
</g>
</svg>
