<?xml version="1.0" encoding="utf-8"?>
<!-- Generator: Adobe Illustrator 18.1.1, SVG Export Plug-In . SVG Version: 6.00 Build 0)  -->
<svg version="1.1" xmlns="http://www.w3.org/2000/svg" xmlns:xlink="http://www.w3.org/1999/xlink" x="0px" y="0px"
	 viewBox="0 0 241.7 250.4" enable-background="new 0 0 241.7 250.4" xml:space="preserve">
<g id="water_pouring_instances_-_boards">
</g>
<g id="water_pour_cycle_x5F_main_comp">
	<g id="POSE2">
		<g id="Layer_6">
		</g>
	</g>
	<g id="POSE3">
	</g>
</g>
<g id="POSE1_2_" opacity="0.5">
</g>
<g id="POSE2_1_" opacity="0.5">
</g>
<g id="POSE3_1_" opacity="0.5">
</g>
<g id="ch06-12-1">
	<g id="drops" opacity="0.5">
		<g>
			<g id="XMLID_1_">
				<g>
					<path fill="#6BAFD3" d="M240.4,30.8c1,6.3,2.1,13.2-1.2,19l-0.1-0.1c-0.1-0.3-0.2-0.7-0.3-1c2.9-6.8,0.4-15.4-0.7-22.4
						c-0.2-1.4-0.4-2.8-0.6-4.1c0.3-2.5,0.6-5,0.9-7.5C238.6,20.1,239.5,25.5,240.4,30.8z"/>
					<path fill="#6BAFD3" d="M239.3,191.7c0.2-0.1,0.3,0.1,0.3,0.2c-0.1,4.4,0.8,8.7-0.2,13.1c-0.1,0.3-1.4,1.7-1.4,1.2
						c0,0,0-0.1,0-0.1h0c0.5-0.4,0.9-0.8,1.4-1.2c-0.3-3.9-0.4-7.8-0.4-11.8v0c0.1-0.4,0-0.5,0.1-1c0,0-0.1,0.1-0.1,0.1
						c0-0.1,0-0.3,0-0.4C239.2,191.7,239.3,191.7,239.3,191.7z"/>
					<path fill="#6BAFD3" d="M239.5,0.3c0,0,0.1,0,0,0.1C239.5,0.4,239.5,0.3,239.5,0.3z"/>
					<path fill="#6BAFD3" d="M239.5,0.4L239.5,0.4c-1.3,4.8-1.6,9.6-1.3,14.3c-0.3,2.5-0.6,5-0.9,7.5c-0.3-2-0.5-4-0.6-6
						c0.6-5,1.2-9.9,1.3-14.7c0.1-0.4,1.2-1.3,1.4-1.2C239.5,0.3,239.5,0.4,239.5,0.4z"/>
					<path fill="#6BAFD3" d="M239.5,0.3c-0.2-0.1-1.3,0.8-1.4,1.2C238.2,1.1,239.3,0,239.5,0.3z"/>
					<path fill="#6BAFD3" d="M239.5,204.8c-0.5,0.4-0.9,0.8-1.4,1.2c0.6-2.5,0.5-4.9,0.4-7.4c0-0.2-0.3-2.9-0.4-4.4
						c0.4-0.2,0.9-0.7,1-1c0-0.1,0.1-0.2,0.1-0.3C239.1,197,239.2,200.9,239.5,204.8z"/>
					<path fill="#6BAFD3" d="M239.2,49.8c-0.1,0.1-0.2,0.3-0.3,0.4c-0.1,0.2-1.1,1.4-1.3,0.8c-3.8-11.1-2.3-23.1-0.9-34.8
						c0.1,2,0.3,4,0.6,6c-0.9,9-1.3,18,1.3,26.5c-0.3,0.6-0.6,1.2-0.9,1.8c0.4-0.3,0.9-0.6,1.3-0.8L239.2,49.8z"/>
					<path fill="#6BAFD3" d="M239.1,192.1C239.1,192.1,239.2,192.1,239.1,192.1c0,0.5,0.1,0.5,0,0.9
						C239.1,192.8,239.1,192.5,239.1,192.1z"/>
					<path fill="#6BAFD3" d="M237.7,192.2c0-0.5,1.4-1.8,1.4-1.1c0,0.2,0,0.4,0,0.6c-0.1,0-0.1,0.1-0.2,0.1
						c-0.5,0.2-1.1,0.8-1.1,1.3c0,0.2,0,0.8-0.1,0.9c0,0,0,0.1,0,0.1C237.7,193.5,237.7,192.9,237.7,192.2z"/>
					<path fill="#6BAFD3" d="M239.1,191.7c0,0.1,0,0.3,0,0.4c-0.4,0.4-0.7,0.8-1.1,1.2c0,0,0,0.4,0,1c-0.2,0.1-0.3,0.1-0.4,0
						c0,0,0,0,0,0c0,0,0-0.1,0-0.1v0c0,0,0-0.1,0-0.1c0.1-0.1,0-0.7,0.1-0.9c0.1-0.5,0.7-1.1,1.1-1.3
						C239,191.8,239,191.8,239.1,191.7z"/>
					<path fill="#6BAFD3" d="M239.1,192.1c0,0.3,0,0.6,0,0.9v0c0,0.1,0,0.1-0.1,0.3c-0.1,0.3-0.6,0.8-1,1c0-0.6,0-0.9,0-1
						C238.4,193,238.7,192.6,239.1,192.1z"/>
					<path fill="#6BAFD3" d="M239.1,49.8c-0.4,0.3-0.8,0.6-1.3,0.8c0.4-0.6,0.7-1.2,0.9-1.8C238.8,49.1,239,49.4,239.1,49.8z"/>
					<path fill="#95CDE9" d="M238,26.4c1.2,7,3.6,15.6,0.7,22.4c-2.6-8.5-2.3-17.5-1.3-26.5C237.6,23.6,237.8,25,238,26.4z"/>
					<path fill="#6BAFD3" d="M239.5,0.5c-0.1,4.7-0.7,9.5-1.3,14.3C238,10,238.2,5.2,239.5,0.5z"/>
					<path fill="#6BAFD3" d="M238.4,198.7c0.2,2.5,0.2,4.9-0.4,7.4h0c-0.3-3.9-0.4-7.8-0.4-11.7c0,0.1,0.2,0.1,0.4,0
						C238.1,195.8,238.4,198.5,238.4,198.7z"/>
					<path fill="#6BAFD3" d="M237.7,194.3c0,0,0-0.1,0-0.1C237.7,194.2,237.7,194.3,237.7,194.3z"/>
					<path fill="#6BAFD3" d="M236.6,141.5c1.1,7.2,3.8,13,0.6,20l-0.1,0c-0.1-0.6-0.2-1.1-0.3-1.6c1.6-5.5-0.3-10.9-1.4-16.5
						c-0.1-7.4,0.4-14.8,0.6-22.2c0-0.6-1,0.2-1.3,0.8c0.3-0.6,1.2-1.3,1.3-0.9C237.7,127.5,235.6,134.8,236.6,141.5z"/>
					<path fill="#6BAFD3" d="M237.2,161.4c-0.1,0.2-0.1,0.3-0.2,0.5c-0.1,0.1-1.1,1.4-1.3,0.8c-2.7-13.3-1.4-27-1.1-40.5
						c1.2,4.9,0.1,10.8,0.2,15.8c0,1.7,0.3,3.5,0.6,5.2c0,5.5,0.4,11,1.4,16.5c-0.2,0.8-0.6,1.7-1,2.5
						C236.3,162,236.7,161.7,237.2,161.4L237.2,161.4z"/>
					<path fill="#6BAFD3" d="M237.1,161.4c-0.4,0.3-0.8,0.6-1.3,0.9c0.4-0.8,0.7-1.7,1-2.5C236.9,160.3,237,160.9,237.1,161.4z"/>
					<path fill="#95CDE9" d="M235.5,143.3c1,5.6,2.9,11,1.4,16.5C235.9,154.3,235.5,148.8,235.5,143.3z"/>
					<path fill="#6BAFD3" d="M238.1,1.5c-0.1,4.8-0.7,9.7-1.3,14.7C236.5,11.3,236.8,6.4,238.1,1.5z"/>
					<path fill="#6BAFD3" d="M234.8,121.9c0.3-0.6,1.3-1.4,1.3-0.8c-0.2,7.4-0.7,14.8-0.6,22.2c-0.3-1.7-0.6-3.4-0.6-5.2
						c-0.1-5.1,1-10.9-0.2-15.8c0,0,0,0,0,0c0,0,0-0.1,0-0.1c0,0,0-0.1,0-0.1C234.7,122,234.7,122,234.8,121.9
						C234.7,121.9,234.8,121.9,234.8,121.9z"/>
					<path fill="#6BAFD3" d="M234.7,121.9c0,0.1-0.1,0.1-0.1,0.2C234.7,122,234.7,122,234.7,121.9z"/>
					<path fill="#6BAFD3" d="M234.6,66.8c0.7,6.4,2,15.6-3.5,20.4c-0.1,0.1-0.7,0.6-0.8,0.2c-4.6-14.2-2.2-29.4-1.8-44
						c0,0,0,0,0.1,0.1c0.3,0.3,1.2-0.6,1.4-1.2c-0.3,9.7-1.4,19.4-0.9,29c0.2,3.4,0.1,8.5,1.7,11.6c0,1.8,0.6,2.1,1.9,0.8
						c0.3-0.9,0.5-1.8,0.7-2.7c0.3-1.8,0.4-3.7,0.3-5.5c-0.1-13.5-3-27.1-4.5-40.5c0,0,0,0,0,0c0.3-1.8,0.8-3.5,1.1-4.6h0
						C231.3,42.6,233.2,54.7,234.6,66.8z"/>
					<path fill="#6BAFD3" d="M234.7,122.1C234.7,122.1,234.7,122.1,234.7,122.1C234.7,122.1,234.7,122.1,234.7,122.1z"/>
					<path fill="#6BAFD3" d="M234.7,122.1C234.7,122.2,234.7,122.2,234.7,122.1C234.7,122.2,234.7,122.2,234.7,122.1z"/>
					<path fill="#95CDE9" d="M233.7,75.6c0,1.8,0,3.7-0.3,5.5c-0.1,0.9-0.4,1.8-0.7,2.7c-1.3,1.3-1.9,1.1-1.9-0.8
						c-1.6-3.1-1.5-8.2-1.7-11.6c-0.5-9.7,0.6-19.4,0.9-29c0-0.1,0-0.3-0.1-0.3c-1.3-1.4-1.2-4.3-0.7-7
						C230.6,48.5,233.5,62.1,233.7,75.6z"/>
					<path fill="#6BAFD3" d="M230.2,30.3c0,0,0,0.1,0,0.1h0c-0.5,0.4-0.9,0.8-1.4,1.2c0.1,1.1,0.2,2.3,0.3,3.4c0,0,0,0,0,0
						c-0.4,2.7-0.5,5.5,0.7,7c0.1,0.1,0.1,0.2,0.1,0.3c0,0,0-0.1,0-0.1c0-0.7-1.4,0.6-1.4,1.1c0,0,0,0.1,0,0.2
						c-2.1-2.5-0.4-9.3,0.3-12C228.9,31.3,230.1,29.7,230.2,30.3z"/>
					<path fill="#6BAFD3" d="M228.8,31.6c0.5-0.4,0.9-0.8,1.4-1.2c-0.3,1.1-0.8,2.8-1.1,4.6C229,33.9,228.9,32.8,228.8,31.6z"/>
					<path fill="#6BAFD3" d="M228.5,43.3c0-0.5,1.4-1.8,1.4-1.1c0,0,0,0.1,0,0.1c-0.2,0.6-1.1,1.5-1.4,1.2c0,0,0,0-0.1-0.1
						C228.5,43.4,228.5,43.4,228.5,43.3z"/>
					<path fill="#6BAFD3" d="M227.6,173.5c1-0.8,0.3,0.8-0.2,1.2c-1.4,1.1-0.5,4.5-0.4,6c0.1,1.4,0.1,2.8-0.4,4.2l-0.1,0
						c-0.9-2.8-0.5-5.8-0.5-8.6c0-0.2-0.1-0.3-0.4-0.2C226,175.1,226.6,174.3,227.6,173.5z"/>
					<path fill="#6BAFD3" d="M226.7,184.9c0,0.1-0.1,0.2-0.1,0.3c-0.1,0.2-1.2,1.6-1.4,1c-0.9-2.9-0.5-6-0.5-8.9c0-0.3,0.6-1,1-1.2
						c-1,3,0.8,6.6-0.5,9.8C225.7,185.5,226.1,185.2,226.7,184.9L226.7,184.9z"/>
					<path fill="#6BAFD3" d="M226.6,184.8c-0.4,0.3-0.9,0.7-1.4,1c1.4-3.2-0.5-6.8,0.5-9.8c0,0,0,0,0,0c0.2-0.1,0.4-0.1,0.4,0.2
						C226,179.1,225.7,182,226.6,184.8z"/>
					<path fill="#95CDE9" d="M221.1,66c-0.3,3.8,1.9,8.6,1.8,12.2c-0.1,2.7-0.9,4.9-2.4,7.1l-0.2-0.1c0-0.4,0-0.8,0-1.2
						c1.5-3.1,1.2-6.3,0.6-9.7c0.1-2.6-0.1-5.1-0.9-7.5c0,0,0,0,0,0C220.5,66.8,220.9,66.4,221.1,66z"/>
					<path fill="#6BAFD3" d="M221.8,18.9c-0.1,8,0.6,16,0.4,24.1c-0.1,3.4,0.5,11.2-3.6,12.9c-0.1,0-0.3,0-0.3-0.1
						c-0.3-9.4-0.8-18.8,1.2-28c0,0.1,0,0.2,0,0.3c-0.1,0.4,0.6,0,1-0.4c0,0.4,0,0.8,0,1.2c-1.3,7.4-0.9,14.9-0.9,22.4
						c0,0.4-0.6,4.2,0.1,2.4c0.3-0.9,0.4-1.9,0.6-2.8c0.3-1.9,0.4-3.9,0.5-5.9c0.2-5.4-0.1-10.8-0.2-16.2c0.1-0.6,0.2-1.1,0.3-1.7
						c0-0.1,0-0.1,0.1-0.1C221.4,24.4,221.6,21.6,221.8,18.9z"/>
					<path fill="#6BAFD3" d="M221.8,64.5c0.5-0.2,0,0.8-0.5,1.3c0.1-0.2,0.1-0.3,0.1-0.5c0-0.2,0-0.5,0.1-0.7
						C221.5,64.6,221.7,64.5,221.8,64.5z"/>
					<path fill="#6BAFD3" d="M220.4,20c0-0.5,1.4-1.8,1.4-1.1C221.3,19.3,220.8,19.6,220.4,20z"/>
					<path fill="#6BAFD3" d="M220.4,20c0.5-0.4,0.9-0.7,1.4-1.1c-0.1,2.7-0.4,5.4-0.9,8.1c0-0.1,0-0.2,0.1-0.3c0,0,0-0.1,0-0.1
						c0,0,0,0,0,0h0c-0.1-0.1-0.3,0-0.5,0.1C220.4,24.5,220.3,22.2,220.4,20z"/>
					<path fill="#6BAFD3" d="M220.1,65.3c0.1-0.4,1.5-1.5,1.4-0.9c0,0.1,0,0.2,0,0.2c0,0,0,0,0,0c0,0,0,0,0-0.1
						c-0.5,0.3-0.9,0.6-1.4,0.9C220.1,65.4,220.1,65.4,220.1,65.3z"/>
					<path fill="#6BAFD3" d="M221.4,64.6c0,0.2,0,0.5-0.1,0.7c0,0.1,0,0.3-0.1,0.5l0,0c0,0-0.1,0.1-0.1,0.1
						C221.2,65.5,221.3,65.1,221.4,64.6C221.4,64.7,221.4,64.7,221.4,64.6z"/>
					<path fill="#6BAFD3" d="M221.4,64.6C221.4,64.6,221.4,64.6,221.4,64.6c-0.6,0.4-1,0.9-1.4,1.4c0,0,0,0-0.1,0.1
						c0-0.1,0-0.2,0.1-0.4c0-0.1,0-0.1,0.1-0.2C220.5,65.2,220.9,64.9,221.4,64.6z"/>
					<path fill="#6BAFD3" d="M221.1,65.9C221.2,65.9,221.2,65.8,221.1,65.9c0.1,0,0,0.1,0,0.1C221.1,66,221.1,65.9,221.1,65.9z"/>
					<path fill="#6BAFD3" d="M221.2,65.2c-0.1,0.3-0.2,0.6-0.3,0.8c0.1,0,0.2-0.1,0.2-0.2c0,0,0,0.1,0,0.1c-0.3,0.4-0.7,0.8-1,0.8
						c0,0,0,0,0,0c0-0.1,0-0.1-0.1-0.2C220.4,66.1,220.8,65.7,221.2,65.2z"/>
					<path fill="#6BAFD3" d="M220.9,66c0.1-0.3,0.2-0.6,0.3-0.8c-0.4,0.5-0.8,0.9-1.2,1.4c0,0,0,0,0,0c0,0,0-0.1-0.1-0.1
						c0-0.2,0-0.3,0-0.4c0,0,0-0.1,0.1-0.1c0.4-0.5,0.8-1,1.4-1.3c-0.1,0.4-0.2,0.8-0.2,1.2C221.1,66,221,66,220.9,66z"/>
					<path fill="#6BAFD3" d="M221.1,221.9c0.1,3.9-0.3,9.3-4.7,10.7c-0.1,0-0.3,0-0.3-0.1c-0.3-5,0.6-10,0.9-15
						c0.1-0.1,0.1-0.2,0.1-0.3c0-0.3,0-0.6,0-0.9c0.2-0.6,1.4-1.6,1.4-0.9c-0.1,3-0.5,5.9-0.8,8.9c-0.1,1.2-1.1,5.3,0.5,5.1
						c1.3-0.2,1.1-1.1,1.3-2.1c0.5-3.4,0-7-0.4-10.3c-0.5-3.8-1.5-7.7-2-11.6c0,0,0,0,0,0c0.1-2.1,0.5-4.2,1.1-6.2
						c-0.4,0.3-0.9,0.6-1.3,0.9c0,0,0-0.1,0-0.1c0.1-0.3,1.4-1.7,1.4-0.9C218,206.5,220.9,214.2,221.1,221.9z"/>
					<path fill="#95CDE9" d="M221,74.3c0.6,3.4,0.9,6.6-0.6,9.7C220.4,80.8,220.9,77.5,221,74.3z"/>
					<path fill="#6BAFD3" d="M220.1,66.8c0.8,2.4,1,5,0.9,7.5c-0.1-0.7-0.3-1.4-0.4-2.1c-0.3-1.6-0.8-3.6-0.7-5.4c0,0,0,0,0,0
						C219.9,66.8,220,66.8,220.1,66.8z"/>
					<path fill="#6BAFD3" d="M220.9,26.6c0,0,0,0.1,0,0.1C220.9,26.6,220.9,26.6,220.9,26.6z"/>
					<path fill="#6BAFD3" d="M220.9,26.6c0,0,0,0.1,0,0.1c0,0.1-0.1,0.2-0.1,0.3c-0.1,0.1-0.3,0.2-0.4,0.3c0-0.2,0-0.4,0-0.6
						C220.7,26.6,220.8,26.5,220.9,26.6L220.9,26.6C220.9,26.6,220.9,26.6,220.9,26.6z"/>
					<path fill="#6BAFD3" d="M220.9,26.7c0,0.1,0,0.2-0.1,0.3c0,0,0,0,0,0C220.9,26.9,220.9,26.8,220.9,26.7z"/>
					<path fill="#6BAFD3" d="M220.9,26.5c-0.1,0-0.3,0-0.5,0.2c0,0,0,0,0-0.1C220.7,26.5,220.8,26.5,220.9,26.5z"/>
					<path fill="#6BAFD3" d="M220.9,27C220.9,27,220.9,27,220.9,27c0,0,0,0.1,0,0.1C220.8,27.1,220.9,27.1,220.9,27z"/>
					<path fill="#6BAFD3" d="M220.9,27c0,0,0,0.1,0,0.1c-0.1,0.1-0.2,0.3-0.4,0.5c0-0.1,0-0.2,0-0.3C220.6,27.2,220.7,27.1,220.9,27
						z"/>
					<path fill="#95CDE9" d="M220.5,28.8c0.2,5.4,0.4,10.8,0.2,16.2c-0.1,2-0.2,3.9-0.5,5.9c-0.1,0.9-0.3,1.9-0.6,2.8
						c-0.7,1.8-0.1-2-0.1-2.4C219.7,43.7,219.2,36.3,220.5,28.8z"/>
					<path fill="#6BAFD3" d="M220.6,72.2c0.1,0.7,0.3,1.4,0.4,2.1c-0.1,3.2-0.6,6.5-0.6,9.7c-0.3,0.6-0.7,1.2-1.1,1.8
						c0.4-0.2,0.8-0.4,1.1-0.6l0.2,0.1c-0.1,0.2-0.3,0.4-0.4,0.6c-0.1,0.1-1.1,1.2-1.1,0.6c-0.1-6.1,1.7-12.7-0.4-18.6
						c-0.1-0.4,0.7-1.3,1.1-1.4c-0.1,0.2-0.1,0.3,0.1,0.3C219.8,68.6,220.3,70.6,220.6,72.2z"/>
					<path fill="#6BAFD3" d="M220.8,27.2c-0.1,0.6-0.2,1.1-0.3,1.7c0-0.4,0-0.8,0-1.2C220.6,27.5,220.8,27.3,220.8,27.2z"/>
					<path fill="#6BAFD3" d="M220.5,27.3c0,0.1,0,0.2,0,0.3c-0.4,0.5-1.1,0.9-1,0.4C219.8,27.8,220.1,27.6,220.5,27.3z"/>
					<path fill="#6BAFD3" d="M220.4,26.7c0,0.2,0,0.4,0,0.6c-0.3,0.3-0.6,0.5-1,0.8c0-0.1,0.1-0.3,0.1-0.4c0,0,0,0,0,0
						C219.7,27.4,220.1,27,220.4,26.7z"/>
					<path fill="#6BAFD3" d="M220.4,26.7C220.4,26.7,220.4,26.7,220.4,26.7c-0.3,0.3-0.8,0.7-0.9,1
						C219.6,27.4,220.1,26.9,220.4,26.7z"/>
					<path fill="#6BAFD3" d="M220.4,20c0,2.2,0,4.5,0.1,6.7c-0.4,0.3-0.8,0.7-0.9,1C220,25.2,220.2,22.5,220.4,20z"/>
					<path fill="#6BAFD3" d="M220.4,84c0,0.4,0,0.8,0,1.2c-0.4,0.2-0.8,0.4-1.1,0.6C219.7,85.2,220.1,84.6,220.4,84z"/>
					<path fill="#6BAFD3" d="M220,66.6c0,0.1,0,0.1,0.1,0.2c-0.1,0-0.1,0-0.2,0c0,0,0,0,0,0c0-0.1,0-0.2,0-0.3c0,0,0.1,0,0.1,0
						C219.9,66.5,220,66.6,220,66.6C220,66.6,220,66.6,220,66.6z"/>
					<path fill="#6BAFD3" d="M220,66.6C220,66.6,220,66.6,220,66.6C220,66.6,220,66.6,220,66.6C220,66.6,219.9,66.5,220,66.6
						C220,66.5,220,66.5,220,66.6z"/>
					<path fill="#6BAFD3" d="M219.9,66.1c0-0.1,0-0.3,0.1-0.4C220,65.8,219.9,65.9,219.9,66.1C219.9,66.1,219.9,66.1,219.9,66.1z"/>
					<path fill="#6BAFD3" d="M219.9,66c0,0.1,0,0.2,0,0.4c0,0,0,0-0.1,0C219.9,66.3,219.9,66.2,219.9,66
						C219.9,66.1,219.9,66.1,219.9,66z"/>
					<path fill="#6BAFD3" d="M219.9,66.1c0,0.1,0,0.2,0,0.4c0,0-0.1,0-0.1,0C219.8,66.3,219.9,66.2,219.9,66.1z"/>
					<path fill="#6BAFD3" d="M219.7,66.5c0,0,0.1,0,0.1,0c0,0.1,0,0.2,0,0.3C219.7,66.8,219.7,66.6,219.7,66.5z"/>
					<path fill="#95CDE9" d="M219.2,216.8c0.4,3.4,0.9,6.9,0.4,10.3c-0.2,1.1,0,2-1.3,2.1c-1.6,0.2-0.6-3.8-0.5-5.1
						c0.3-3,0.6-5.9,0.8-8.9c0-0.6-1.2,0.4-1.4,0.9c0-3.7-0.3-7.4,0-11C217.7,209.2,218.7,213,219.2,216.8z"/>
					<path fill="#6BAFD3" d="M219.5,27.7c0,0.1,0,0.3-0.1,0.4C219.5,28,219.5,27.9,219.5,27.7C219.5,27.7,219.5,27.7,219.5,27.7z"/>
					<path fill="#6BAFD3" d="M216.9,199.9c0.5-0.3,0.9-0.6,1.3-0.9c-0.6,2-0.9,4.1-1.1,6.2C217,203.5,216.8,201.7,216.9,199.9
						C216.9,200,216.9,199.9,216.9,199.9z"/>
					<path fill="#95CDE9" d="M215.4,128c1.2,3.8,5.3,12.6,2.2,16.1c-1.5,1.7-1.6-0.5-2.2-2.1c-0.3-1-0.5-2.1-0.7-3.1
						c-0.5-2.8-0.6-5.8-0.6-8.6c0-1.9,0.1-3.9,0.2-5.8C214.7,125.7,215.1,126.9,215.4,128z"/>
					<path fill="#6BAFD3" d="M217.6,144.2c3.1-3.5-1-12.3-2.2-16.1c-0.4-1.1-0.8-2.3-1.1-3.5c0.1-2,0.2-4.1,0.4-6.1
						c1.2,9.6,9.8,20.4,2.4,28.4c-0.1,0.1-0.7,0.8-0.9,0.5c-3.4-4.2-3.4-10.6-3.4-15.7c0-4,0.3-7.9,0.5-11.9
						c0.2,1.6,0.6,3.2,1.1,4.7c-0.1,1.9-0.2,3.9-0.2,5.8c0,2.9,0.1,5.8,0.6,8.6c0.2,1,0.4,2.1,0.7,3.1
						C216,143.7,216.1,145.9,217.6,144.2z"/>
					<path fill="#6BAFD3" d="M217.2,205.3C217.2,205.3,217.2,205.3,217.2,205.3c-0.3,3.7,0,7.4,0,11.1c0,0,0,0.1,0,0.1
						c0,0.4,0,0.7-0.1,1.1c-0.3,0.6-1.3,1.3-1.3,1c0.1-6.2-0.6-12.5,1.1-18.6C216.8,201.7,217,203.5,217.2,205.3z"/>
					<path fill="#6BAFD3" d="M217.2,216.3c0,0.3,0,0.6,0,0.9c0,0.1,0,0.2-0.1,0.3c0-0.4,0-0.7,0.1-1.1
						C217.1,216.4,217.1,216.3,217.2,216.3z"/>
					<path fill="#6BAFD3" d="M216.9,199.9C216.9,199.9,216.9,199.9,216.9,199.9C216.9,199.9,216.9,200,216.9,199.9
						C216.9,200,216.9,200,216.9,199.9z"/>
					<path fill="#6BAFD3" d="M214.9,113.1c0,0,0.1,0.1,0,0.1C214.9,113.2,214.9,113.1,214.9,113.1z"/>
					<path fill="#6BAFD3" d="M214.9,113.2L214.9,113.2c-0.4,1.7-0.5,3.4-0.2,5.2c0,0,0,0,0,0c-0.1,2-0.3,4.1-0.4,6.1
						c-0.5-1.6-0.9-3.1-1.1-4.7c0.1-1.8,0.2-3.7,0.3-5.5c0.1-0.4,1.2-1.3,1.4-1.2C214.9,113.1,214.9,113.2,214.9,113.2z"/>
					<path fill="#6BAFD3" d="M214.9,113.1c-0.2-0.1-1.3,0.8-1.4,1.2C213.5,113.9,214.7,112.8,214.9,113.1z"/>
					<path fill="#6BAFD3" d="M214.9,113.2c0,1.7-0.1,3.4-0.2,5.2C214.5,116.6,214.5,114.9,214.9,113.2z"/>
					<path fill="#6BAFD3" d="M214.3,87c0.4,5.1,2.7,10.1-0.1,14.8l-0.1-0.1c-0.1-0.3-0.2-0.6-0.4-0.9c1.7-4.7-0.9-11.8-0.9-16.5
						c0-2.6,0-5-0.3-7.5c0.1-2.7,0.2-5.5,0-8.2c0.6,2.3,1.2,4.7,1.6,7.1C214.6,79.5,213.9,83.3,214.3,87z"/>
					<path fill="#6BAFD3" d="M214,101.7l0.1,0.1c-0.1,0.2-0.3,0.4-0.4,0.6c-0.1,0.2-1,1.1-1.2,0.6c-0.8-2-1.3-3.8-1.4-6
						c0-0.2,0.1-0.4,0.3-0.7c-0.3,0.5-0.4,1.1,0.3,0.6c0.3-0.4,0.4-0.6,0.6-0.6c0.1,0.2,0.1,0.3,0.2,0.5c0,0.1,0.1,0.1,0.2,0.1
						c0.1,1.3,0.4,2.5,0.9,3.8c-0.2,0.5-0.5,1.1-0.8,1.5C213.3,102.1,213.6,101.9,214,101.7z"/>
					<path fill="#6BAFD3" d="M213.9,94.8c0.1,0.2,0.1,0.4,0.1,0.7c-0.1-0.3-0.2-0.5-0.3-0.8C213.8,94.7,213.9,94.8,213.9,94.8z"/>
					<path fill="#95CDE9" d="M214,95.5c0-0.3,0-0.5-0.1-0.7c0-0.1-0.1-0.1-0.2-0.1c-1.8-5.8-1.4-11.8-1.2-17.9
						c0.3,2.5,0.3,4.9,0.3,7.5c-0.1,4.7,2.6,11.8,0.9,16.5c-0.5-1.3-0.8-2.5-0.9-3.8C213.1,97,214,95.9,214,95.5z"/>
					<path fill="#6BAFD3" d="M214,95.5c0,0.4-0.9,1.5-1.3,1.4c0-0.1,0-0.2,0-0.2C213.2,96.3,213.6,95.9,214,95.5z"/>
					<path fill="#95CDE9" d="M214,95.5c-0.4,0.4-0.9,0.8-1.3,1.2c0-0.3-0.1-0.7-0.1-1c0-0.1-0.2-0.1-0.4,0.1c0,0,0-0.1,0-0.1
						c0.4-0.3,0.8-0.6,1.3-0.9c0.1,0,0.2-0.1,0.3-0.1C213.8,95,213.9,95.3,214,95.5z"/>
					<path fill="#6BAFD3" d="M214,101.7c-0.4,0.2-0.8,0.4-1.1,0.6c0.3-0.5,0.6-1,0.8-1.5C213.8,101.1,213.9,101.4,214,101.7z"/>
					<path fill="#6BAFD3" d="M213.7,94.7c-0.1,0-0.2,0-0.3,0.1c-0.5,0.3-0.8,0.5-1.3,0.9c-2.5-8.2-0.5-16.9-1.1-25.4
						c0.3,1.1,0.6,2.3,0.8,3.4c0.3,1.1,0.4,2.1,0.6,3.2C212.3,82.9,211.9,88.9,213.7,94.7z"/>
					<path fill="#6BAFD3" d="M213.5,114.3c-0.1,1.8-0.2,3.7-0.3,5.5C213,118,213,116.1,213.5,114.3z"/>
					<path fill="#6BAFD3" d="M212.7,96.7c0,0.1,0,0.2,0,0.2c-0.1,0-0.1,0-0.2-0.1C212.6,96.8,212.7,96.8,212.7,96.7z"/>
					<path fill="#6BAFD3" d="M212.7,96.7c0,0-0.1,0.1-0.1,0.1c0.1-0.4,0-0.6-0.2-0.5c-0.1-0.2-0.1-0.4-0.2-0.5
						c0.2-0.1,0.4-0.2,0.4-0.1C212.7,96.1,212.7,96.4,212.7,96.7z"/>
					<path fill="#6BAFD3" d="M212.4,96.3c0.2-0.1,0.2,0.1,0.2,0.5C212.5,96.7,212.5,96.5,212.4,96.3z"/>
					<path fill="#6BAFD3" d="M212.5,68.7c0.2,2.7,0.1,5.4,0,8.2c-0.1-1.1-0.3-2.1-0.6-3.2c-0.3-1.2-0.6-2.3-0.8-3.4
						c-0.1-2.4-0.5-4.7-1.2-7.1c0.5-0.5,0.9-0.9,1.4-1.3C211.5,64.2,212,66.5,212.5,68.7z"/>
					<path fill="#6BAFD3" d="M212.3,95.8c0,0.2,0.1,0.3,0.2,0.5c-0.1,0.1-0.3,0.3-0.6,0.6c-0.7,0.5-0.6,0-0.3-0.6c0,0,0,0,0,0
						C211.8,96.1,212,95.9,212.3,95.8z"/>
					<path fill="#6BAFD3" d="M212.2,95.7c0,0,0,0.1,0,0.1c-0.2,0.1-0.5,0.3-0.7,0.6c0.1-0.2,0.3-0.5,0.4-0.6
						C212.1,95.8,212.2,95.7,212.2,95.7z"/>
					<path fill="#6BAFD3" d="M211.4,61.9c0.6,2.2,1,4.5,1.1,6.8C212,66.5,211.5,64.2,211.4,61.9z"/>
					<path fill="#6BAFD3" d="M211.4,61.9c-0.5,0.4-0.9,0.9-1.4,1.3C210,62.8,211.2,61.3,211.4,61.9z"/>
					<path fill="#6BAFD3" d="M211.1,70.3c-0.6-2.3-1.1-4.6-1.2-7.1C210.7,65.5,211,67.9,211.1,70.3z"/>
					<path fill="#6BAFD3" d="M198.9,35.1c0.4,2.8,1.4,8.1-1.9,9.9c-3.3,1.8-3.5-4-3.8-6.1c-0.4-3.2-0.4-6.5-0.5-9.8
						c0.5,0,1.2-1,1.2-1.3c0-0.1,0.1-0.3,0.1-0.4c0,1.7,0.1,3.3,0.2,4.9c0.1,1.9-0.2,10,1.9,11.2c2.9,1.6,0.9-10.4,0.6-11.8
						c-0.6-3.3-1.1-7.6-2.6-10.9c0.2-1.4,0.3-2.7,0.3-3.2l0,0C197.7,22.1,198.3,29.9,198.9,35.1z"/>
					<path fill="#95CDE9" d="M196.8,31.7c0.3,1.4,2.3,13.4-0.6,11.8c-2.1-1.2-1.8-9.3-1.9-11.2c-0.1-1.6-0.1-3.3-0.2-4.9
						c0-0.1,0.1-0.2,0.1-0.2c0.2-0.5,0.1-0.6-0.1-0.5h0c0-1-0.1-2-0.2-3c0.1-0.9,0.2-1.9,0.3-2.8C195.7,24.1,196.2,28.5,196.8,31.7z
						"/>
					<path fill="#6BAFD3" d="M196.2,121.9c0-0.2-0.1-0.3-0.1-0.5c1.6-2.5,0.6-7.2-0.6-11.2c0.1-1.6,0.2-3.2,0.3-4.7
						c1.7,5.6,4.5,13.4-0.2,17.5c-0.1,0.1-0.7,0.6-0.8,0.2c-1.7-5.4-0.7-11-0.5-16.6c0.3,1.1,0.7,2.3,1.1,3.5
						c-0.3,3.8-0.4,7.5,0.6,11.2c-0.2,0.3-0.4,0.5-0.6,0.8C195.7,122.1,195.9,122,196.2,121.9z"/>
					<path fill="#6BAFD3" d="M196,121.4c0.1,0.2,0.1,0.3,0.1,0.5c-0.3,0.1-0.5,0.2-0.8,0.2C195.7,122,195.9,121.7,196,121.4z"/>
					<path fill="#95CDE9" d="M195.4,110.2c1.2,4,2.3,8.7,0.6,11.2C195,117.8,195.2,114,195.4,110.2z"/>
					<path fill="#6BAFD3" d="M195.5,104.6c0.2-0.1,0.3,0,0.3,0.2c0,0.2,0,0.5,0,0.7C195.7,105.2,195.6,104.9,195.5,104.6z"/>
					<path fill="#6BAFD3" d="M195.5,104.6c0.1,0.3,0.2,0.6,0.3,0.9c-0.1,1.6-0.2,3.1-0.3,4.7c-0.4-1.3-0.8-2.5-1.1-3.5
						c0-0.3,0-0.6,0-0.8C194.4,105.5,195.1,104.8,195.5,104.6z"/>
					<path fill="#6BAFD3" d="M194.3,160.8c2.9,6.8,4.4,18.8,1.1,25.9l-0.1,0c0-0.9-0.1-1.8-0.1-2.8c0.6-3.5,0.2-7.4-0.1-10.6
						c-0.3-3.4-0.7-7-1.9-10.2c0.2-0.6,0.4-1.1,0.8-1.6c-0.4,0.2-0.8,0.4-1.1,0.6c0.1,0.3,0.3,0.6,0.4,1c-0.2,0.7-0.3,1.4-0.4,2.2
						c-0.4,0-1.2,0.9-1.3,1.3c0,0.5-0.1,1.1-0.1,1.6c-0.2-2.3,0.2-4.5,1.6-6.7C193.3,161.2,194.1,160.3,194.3,160.8z"/>
					<path fill="#6BAFD3" d="M195.4,186.7c-0.1,0.1-0.1,0.3-0.2,0.4c-0.1,0.1-1.3,1.4-1.3,0.8c0-6.7-2.4-13.1-2.4-19.9
						c0.1,1,0.3,2.1,0.6,3.2c0.1,0.3,0.6-0.1,1-0.5c0.5,4.4,1.6,8.7,2,13.1c-0.2,1.3-0.6,2.5-1.1,3.6
						C194.5,187.2,194.9,186.9,195.4,186.7L195.4,186.7z"/>
					<path fill="#6BAFD3" d="M195.4,186.6c-0.4,0.3-0.8,0.6-1.3,0.8c0.6-1.1,0.9-2.3,1.1-3.6C195.3,184.8,195.4,185.7,195.4,186.6z"
						/>
					<path fill="#6BAFD3" d="M195.1,103.3c0.1,0.4,0.2,0.8,0.3,1.3c-0.4,0.2-1.1,0.9-1.1,1.2c0,0.3,0,0.6,0,0.8
						c-0.2-0.8-0.4-1.5-0.6-2.1C193.6,104.1,195,102.9,195.1,103.3z"/>
					<path fill="#95CDE9" d="M195.2,173.3c0.3,3.2,0.7,7.1,0.1,10.6c-0.4-4.4-1.5-8.7-2-13.1c0.3-0.3,0.5-0.6,0.4-0.8
						c-0.3-0.9-0.5-1.9-0.6-2.9c0-0.5,0-1.1,0.1-1.6c0-0.1-0.1-0.2-0.1-0.2c0-0.7,0.1-1.4,0.4-2.2
						C194.4,166.3,194.9,169.9,195.2,173.3z"/>
					<path fill="#6BAFD3" d="M194.4,17.7L194.4,17.7c-0.5,0.5-0.9,1-1.4,1.4c0.4,0.5,0.7,1.1,1.1,1.8c-0.1,0.9-0.2,1.9-0.3,2.8
						c0-0.3-0.1-0.7-0.1-1c0-0.2-0.4,0-0.8,0.3c0.1-1.3,0.2-2.6,0.1-3.9C193,18.7,194,17.1,194.4,17.7
						C194.4,17.6,194.4,17.6,194.4,17.7z"/>
					<path fill="#6BAFD3" d="M194.4,17.7c0,0.5-0.1,1.8-0.3,3.2c-0.3-0.6-0.6-1.2-1.1-1.8C193.5,18.6,194,18.1,194.4,17.7z"/>
					<path fill="#6BAFD3" d="M194,26.6c0.2-0.1,0.3,0,0.1,0.5c0,0.1-0.1,0.2-0.1,0.2C194,27.1,194,26.8,194,26.6z"/>
					<path fill="#6BAFD3" d="M194.1,147.3c0.1,0.6-1.3,1.8-1.4,1.3c-1-4.9-0.4-9.8-1-14.7c-0.1-0.6,1.4-1.7,1.4-1.3
						C193.7,137.5,193.1,142.5,194.1,147.3z"/>
					<path fill="#6BAFD3" d="M194,26.6c0,0.3,0,0.5,0,0.8c0,0.1-0.1,0.3-0.1,0.4c0,0.3-0.7,1.4-1.2,1.3c0-0.2,0-0.3,0-0.5
						c0.4-0.4,0.8-0.7,1.2-1.1c-0.1-0.1-0.2-0.3-0.2-0.7C193.8,26.7,193.9,26.6,194,26.6L194,26.6z"/>
					<path fill="#6BAFD3" d="M192.9,162.1c0.4-0.2,0.8-0.4,1.1-0.6c-0.3,0.5-0.6,1.1-0.8,1.6C193.2,162.7,193,162.4,192.9,162.1z"/>
					<path fill="#6BAFD3" d="M193.9,27.5c-0.4,0.4-0.8,0.7-1.2,1.1c0-0.2,0-0.3,0-0.5c0.1-0.2,0.2-0.4,0.3-0.7
						c0.1-0.2,0.4-0.5,0.7-0.7C193.7,27.2,193.7,27.4,193.9,27.5z"/>
					<path fill="#6BAFD3" d="M193.8,23.6c0.1,1,0.2,2,0.2,3c-0.1,0-0.2,0.1-0.4,0.2C193.6,26.1,193.7,24.9,193.8,23.6z"/>
					<path fill="#6BAFD3" d="M193.7,22.6c0.1,0.3,0.1,0.7,0.1,1c-0.1,1.3-0.2,2.4-0.2,3.2c-0.3,0.2-0.6,0.5-0.7,0.7
						c-0.1,0.3-0.2,0.5-0.3,0.7c0-0.8-0.1-1.5-0.2-2.3c0.1-1,0.3-2,0.4-2.9C193.2,22.6,193.7,22.4,193.7,22.6z"/>
					<path fill="#6BAFD3" d="M193.6,170c0.1,0.2-0.1,0.6-0.4,0.8c-0.1-1.2-0.2-2.5-0.2-3.8C193.1,168,193.3,169,193.6,170z"/>
					<path fill="#6BAFD3" d="M192.9,165.2c0.1,0,0.1,0.1,0.1,0.2c0,0.6-0.1,1.1-0.1,1.6C192.9,166.4,192.9,165.8,192.9,165.2z"/>
					<path fill="#6BAFD3" d="M193,167.1c0,1.3,0.1,2.5,0.2,3.8c-0.4,0.4-0.9,0.8-1,0.5c-0.3-1.1-0.5-2.2-0.6-3.2c0,0,0,0,0,0
						c0-0.5,0-1.1,0.1-1.6c0-0.4,0.9-1.3,1.3-1.3C192.9,165.8,192.9,166.4,193,167.1z"/>
					<path fill="#6BAFD3" d="M192.7,28.6c0,0.1,0,0.3,0,0.5c-0.1,0-0.1,0-0.2-0.1c-0.1-0.1-0.3-0.2-0.4-0.3c-0.1-0.1-0.1-0.1,0-0.2
						c0.1-0.9,0.3-1.8,0.4-2.7c0.1,0.8,0.1,1.5,0.2,2.3c-0.1,0.2-0.1,0.4-0.2,0.7C192.6,28.8,192.6,28.7,192.7,28.6z"/>
					<path fill="#6BAFD3" d="M192.7,28.2c0,0.2,0,0.3,0,0.5c-0.1,0.1-0.1,0.1-0.2,0.2C192.6,28.5,192.6,28.3,192.7,28.2z"/>
					<path fill="#6BAFD3" d="M192.9,22.9c-0.1,1-0.2,2-0.4,2.9c-0.1-0.6-0.1-1.3-0.2-2C192.2,23.7,192.5,23.2,192.9,22.9z"/>
					<path fill="#6BAFD3" d="M186.2,201.8c0.3,3.6,0.5,7.2,0.4,10.8c-0.1,4-0.2,10.1-4.6,11.9c-0.1,0-0.3,0-0.3-0.1
						c-0.2-4.6-0.8-9.7,0.4-14.3c-0.1,1.7,0,3.3,0.4,5c0,0.1,0.2,0.1,0.4,0c0,0.6,0,1.2,0,1.8c0,1-0.2,2.6,0.1,3.6
						c-0.2,1.6,0,1.7,0.8,0.5c0.5-0.3,0.8-0.8,0.8-1.3c1.3-3.5,0.6-8.3,0.4-11.9c-0.1-2.4-0.3-4.6-0.7-6.9c0.1-0.7,0.1-1.5,0.2-2.2
						c0.1-1.5,0.1-3.1,0.1-4.6C185.2,196.6,186,199.3,186.2,201.8z"/>
					<path fill="#95CDE9" d="M185,207.7c0.2,3.6,0.9,8.4-0.4,11.9c0,0.6-0.3,1-0.8,1.3c-0.8,1.3-1,1.1-0.8-0.5
						c-0.3-1-0.1-2.5-0.1-3.6c0-0.6,0-1.2,0-1.8c0.4-0.3,1.1-0.9,1-1.3c-0.4-1.5-0.5-3.1-0.4-4.6c0.1-0.6,0.3-1.2,0.5-1.8
						c0.2-0.4-0.1-0.4-0.4-0.2c0.2-2.1,0.6-4.3,0.8-6.4C184.7,203.1,184.9,205.4,185,207.7z"/>
					<path fill="#6BAFD3" d="M183.3,185c0.1-0.2,1.4-1.7,1.4-0.9c-0.1,3.3,0,6.6,0,9.9c-0.8-3.3-1.2-6.6,0-9.7
						c-0.4,0.3-0.9,0.6-1.4,0.9h0C183.2,185.1,183.3,185.1,183.3,185z"/>
					<path fill="#6BAFD3" d="M184.6,194c0,1.5,0,3.1-0.1,4.6c0,0.7-0.1,1.5-0.2,2.2c-0.2-1.5-0.5-3.1-0.9-4.6
						c-0.1-0.4-0.2-0.9-0.3-1.3c0-3.2-0.1-6.5,0-9.7c0.4-0.3,0.9-0.6,1.4-0.9C183.4,187.4,183.9,190.7,184.6,194z"/>
					<path fill="#6BAFD3" d="M183.6,207.2c0.3-0.2,0.6-0.3,0.4,0.2c-0.2,0.6-0.4,1.2-0.5,1.8C183.5,208.5,183.5,207.9,183.6,207.2z"
						/>
					<path fill="#6BAFD3" d="M183.9,213.8c0.1,0.4-0.6,1.1-1,1.3c0-2,0.1-4,0.6-5.9C183.4,210.7,183.5,212.2,183.9,213.8z"/>
					<path fill="#6BAFD3" d="M183.5,196.2c0.4,1.6,0.6,3.1,0.9,4.6c-0.2,2.1-0.6,4.3-0.8,6.4c-0.4,0.2-0.8,0.7-0.9,0.9
						c-0.2,0.6-0.4,1.3-0.6,1.9c0.1-2.9,0.8-5.7,0.9-8.6c0.1-2.2,0.2-4.3,0.2-6.5C183.3,195.3,183.4,195.8,183.5,196.2z"/>
					<path fill="#6BAFD3" d="M183.6,207.2c-0.1,0.6-0.1,1.3-0.1,2c-0.5,1.9-0.6,3.9-0.6,5.9c-0.2,0.1-0.4,0.1-0.4,0
						c-0.4-1.7-0.5-3.4-0.4-5c0.2-0.6,0.4-1.3,0.6-1.9C182.8,207.9,183.2,207.4,183.6,207.2z"/>
					<path fill="#6BAFD3" d="M183.2,185.2L183.2,185.2c-0.1,3.2,0,6.5,0,9.7C182.5,191.6,182,188.4,183.2,185.2z"/>
					<path fill="#6BAFD3" d="M176.2,113.6c1.1,3.5,1.6,6.9,0.6,10.5l0,0c-0.8-3.4-0.3-7.1-0.8-10.6
						C176.1,113.4,176.2,113.5,176.2,113.6z"/>
					<path fill="#6BAFD3" d="M176.8,124c0,0,0,0.1,0,0.1c-0.1,0.2-1.3,1.8-1.4,1.2c-1.2-4.8,0.3-10-1.8-14.5
						c-0.2-0.5,1.2-1.8,1.4-1.3c0.6,1.3,0.9,2.6,1.1,3.9c-0.4,0-1.4,1-1.2,1.4c1.1,3.4,1.5,6.8,0.6,10.3
						C175.9,124.8,176.3,124.4,176.8,124L176.8,124z"/>
					<path fill="#6BAFD3" d="M176.8,124c-0.5,0.4-0.9,0.8-1.4,1.2c1-3.5,0.5-6.9-0.6-10.3c-0.1-0.4,0.8-1.4,1.2-1.4
						C176.5,116.9,176,120.6,176.8,124z"/>
					<path fill="#6BAFD3" d="M173.3,34.8c0-2.3-0.3-4.7-0.8-6.9c-0.7-3.2-1.6-6.4-2.5-9.5c0.1-1.6,0.3-3.2,0.5-4.8
						c0.1-0.7-1.3,0.6-1.4,1.1c0.1-0.6,1.3-1.6,1.4-1.2c2,7.9,7.9,20.4,1.6,27.7c-0.1,0.1-0.7,0.8-0.9,0.5
						c-2.6-3.5-2.6-8.7-2.7-12.8c-0.1-4.7,0.1-9.4,0.6-14.1c0,0,0,0,0,0.1c0.3,1.2,0.6,2.4,0.9,3.6c-0.6,6.4-0.9,13.3,1.1,19.1
						C172.6,41.6,173.3,36.9,173.3,34.8z"/>
					<path fill="#95CDE9" d="M172.5,27.8c0.5,2.3,0.8,4.6,0.8,6.9c0,2.1-0.7,6.8-2.1,2.7c-2-5.8-1.7-12.8-1.1-19.1
						C171,21.5,171.9,24.6,172.5,27.8z"/>
					<path fill="#6BAFD3" d="M171.2,75.5c0.2,4.8,2.3,9.5-0.1,14l-0.1-0.1c-0.1-0.4-0.3-0.8-0.3-1.1c0.6-2.1,0.3-4.5-0.1-6.9
						C170.8,79.4,171.1,77.4,171.2,75.5z"/>
					<path fill="#6BAFD3" d="M171.1,74.2c0,0.4,0,0.8,0,1.2C171.1,75,171.1,74.6,171.1,74.2z"/>
					<path fill="#6BAFD3" d="M171.2,75.4C171.2,75.4,171.2,75.5,171.2,75.4c-0.1,2-0.4,4-0.6,5.9c-0.3-1.7-0.7-3.5-0.8-5.1
						c0-0.2,0-0.5,0-0.7c0-0.1,0-0.1,0-0.2v0c0-0.5,1-1.3,1.3-1.4c0.1,0,0.1,0.1,0.1,0.2v0c0,0,0,0,0,0
						C171.1,74.6,171.1,75,171.2,75.4z"/>
					<path fill="#6BAFD3" d="M171.1,74.1c0,0,0,0.1,0,0.1c0-0.1,0-0.2-0.1-0.2C171.1,74,171.1,74,171.1,74.1z"/>
					<path fill="#6BAFD3" d="M171.1,89.4c-0.1,0.2-0.2,0.4-0.4,0.6c-0.1,0.2-1,1.1-1.1,0.6c-1.7-4.8,0.2-9.5,0.2-14.4
						c0.1,1.6,0.4,3.3,0.8,5.1c-0.3,2.3-0.4,4.6,0.1,6.9c-0.2,0.6-0.4,1.2-0.8,1.8C170.2,89.8,170.6,89.6,171.1,89.4L171.1,89.4z"/>
					<path fill="#6BAFD3" d="M169.7,75.3c0-0.4,1-1.3,1.3-1.3c-0.3,0.1-1.3,0.9-1.3,1.4C169.7,75.4,169.7,75.3,169.7,75.3z"/>
					<path fill="#6BAFD3" d="M171,89.4c-0.4,0.2-0.8,0.4-1.1,0.6c0.4-0.6,0.6-1.2,0.8-1.8C170.7,88.6,170.8,89,171,89.4z"/>
					<path fill="#6BAFD3" d="M169.1,14.6c0.1-0.5,1.5-1.7,1.4-1.1c-0.2,1.5-0.3,3.1-0.5,4.8c-0.3-1.2-0.6-2.4-0.9-3.6
						C169.1,14.7,169.1,14.7,169.1,14.6C169.1,14.6,169.1,14.6,169.1,14.6z"/>
					<path fill="#6BAFD3" d="M169.7,75.6c0,0.2,0,0.5,0,0.7C169.7,76,169.7,75.8,169.7,75.6z"/>
					<path fill="#6BAFD3" d="M168.9,169.5c1,2.9,0.9,6.2-0.2,9l0,0c-0.3-0.9-0.5-1.7-0.6-2.6c0.1-0.8,0.1-1.6,0-2.4
						c0.1-1.3,0.3-2.6,0.8-3.8C168.9,169.6,168.9,169.6,168.9,169.5z"/>
					<path fill="#6BAFD3" d="M168.9,169.4c0,0,0.1,0.1,0.1,0.1C168.9,169.5,168.9,169.4,168.9,169.4z"/>
					<path fill="#6BAFD3" d="M168.9,169.5c0,0.1,0,0.1,0,0.2c-0.4,1.2-0.7,2.5-0.8,3.8c-0.1-0.9-0.3-1.9-0.7-2.7
						c0-0.1,0.1-0.2,0.1-0.3c0.1-0.4,1-1.2,1.3-1.1C168.9,169.4,168.9,169.5,168.9,169.5z"/>
					<path fill="#6BAFD3" d="M168.9,169.4c-0.3-0.1-1.2,0.7-1.3,1.1c0,0.1-0.1,0.2-0.1,0.3c-0.2-0.5-0.4-0.9-0.6-1.4
						c-0.2-0.4,1.2-1.8,1.4-1.3C168.5,168.5,168.7,168.9,168.9,169.4z"/>
					<path fill="#6BAFD3" d="M168.8,178.5c0,0.1-0.1,0.2-0.1,0.3c-0.1,0.2-1.2,1.6-1.4,1c-1-3-0.8-6.1,0.2-9.1
						c0.3,0.9,0.5,1.8,0.7,2.7c-0.1,0.8-0.1,1.6,0,2.4c-0.1,1.2-0.4,2.5-0.8,3.6C167.8,179.2,168.3,178.9,168.8,178.5L168.8,178.5z"
						/>
					<path fill="#6BAFD3" d="M168.7,178.5c-0.5,0.3-0.9,0.7-1.4,1c0.4-1.2,0.7-2.4,0.8-3.6C168.3,176.8,168.4,177.7,168.7,178.5z"/>
					<path fill="#6BAFD3" d="M168.2,143.6c0.3,4,1,9.6-2.1,12.7c-0.1,0.1-0.7,0.7-0.9,0.5c-3-2.6-2.8-8.5-2.8-12.1
						c-0.1-4.5,0.2-9.1,0.7-13.6c0-0.3,0.6-0.9,1-1.1c0.1,0.3,0.2,0.6,0.3,0.9c-0.5,4.5-0.7,9.1-0.6,13.6c0.1,2.3,0.2,4.6,0.7,6.8
						c0.5,2,1.2,4.9,2.1,1.8c1.3-4.3,0-10-0.7-14.3c-0.4-2.5-0.8-5.3-1.6-7.9c0-0.3,0.1-0.6,0.1-0.9c0-0.3-0.2-0.2-0.4-0.1
						c-0.3-0.7-0.6-1.4-0.9-2.1c-0.2-0.4,1.1-1.8,1.4-1.3C167.2,131.5,167.8,138.2,168.2,143.6z"/>
					<path fill="#95CDE9" d="M166,138.8c0.7,4.3,1.9,10.1,0.7,14.3c-0.9,3.2-1.7,0.2-2.1-1.8c-0.5-2.2-0.6-4.5-0.7-6.8
						c-0.1-4.5,0.1-9.1,0.6-13.6C165.2,133.5,165.6,136.3,166,138.8z"/>
					<path fill="#6BAFD3" d="M164.1,130c0.3-0.2,0.4-0.2,0.4,0.1c0,0.3-0.1,0.6-0.1,0.9C164.3,130.6,164.2,130.3,164.1,130z"/>
					<path fill="#6BAFD3" d="M163.5,56c0.7,5.3,1.9,12.3-0.7,17.3l-0.1-0.1c-0.1-0.4-0.3-0.8-0.4-1.1c2.3-6.4-0.4-15.8-1.3-22
						c-0.1-0.8-0.3-1.8-0.5-2.7c0.1-2.1,0.3-4.2,0.4-6.2c0.4,2,0.9,3.9,1.2,5.3C162.6,49.6,163.1,52.8,163.5,56z"/>
					<path fill="#6BAFD3" d="M162.8,73.2c-0.1,0.1-0.2,0.3-0.2,0.4c-0.1,0.2-1.1,1.4-1.3,0.9c-3.4-10.2-2.5-21.1-1.8-31.8
						c0.3,1.6,0.7,3.2,1,4.6c-0.5,8.4-0.6,16.8,1.8,24.7c-0.2,0.7-0.5,1.3-0.9,2c0.4-0.3,0.8-0.6,1.3-0.8L162.8,73.2z"/>
					<path fill="#6BAFD3" d="M162.7,73.2c-0.4,0.3-0.8,0.6-1.3,0.8c0.4-0.6,0.7-1.3,0.9-2C162.4,72.4,162.5,72.8,162.7,73.2z"/>
					<path fill="#95CDE9" d="M161,50c0.9,6.2,3.5,15.6,1.3,22c-2.4-8-2.3-16.4-1.8-24.7C160.7,48.3,160.9,49.2,161,50z"/>
					<path fill="#6BAFD3" d="M161,31.9c0.3-0.2,0.5-0.2,0.5,0.1c-0.1,3-0.3,6.1-0.5,9.1c-0.6-3.1-1.1-6.6,0.3-8.5
						C161.7,31.8,161.4,31.7,161,31.9z"/>
					<path fill="#6BAFD3" d="M161,31.9c0.4-0.2,0.7-0.1,0.2,0.6c-1.3,2-0.9,5.4-0.3,8.5c-0.1,2.1-0.3,4.1-0.4,6.2
						c-0.3-1.5-0.7-3-1-4.6c0.2-3.2,0.5-6.5,0.6-9.6c0-0.1,0.1-0.2,0.2-0.4C160.4,32.4,160.7,32.1,161,31.9
						C161,31.9,161,31.9,161,31.9z"/>
					<path fill="#6BAFD3" d="M160.3,32.5c0.2-0.2,0.4-0.4,0.6-0.5c-0.3,0.2-0.6,0.5-0.7,0.7C160.2,32.6,160.3,32.5,160.3,32.5z"/>
					<path fill="#6BAFD3" d="M160.2,32.7c-0.1,0.1-0.2,0.3-0.2,0.4c-0.1,3.2-0.3,6.4-0.6,9.6C158.8,39.1,158.5,35.4,160.2,32.7z"/>
					<path fill="#6BAFD3" d="M155.6,169.1c0.7,11.6,5.2,24.3-0.6,35.1l-0.1-0.1c-0.1-0.3-0.2-0.7-0.4-1c3.5-8.1,1.5-17.4,0.3-26.2
						c0.3-2.6,0.6-5.2,0.7-7.7c0-0.1,0-0.2-0.1-0.2C155.6,169,155.6,169,155.6,169.1z"/>
					<path fill="#6BAFD3" d="M155.5,169c0.1,0,0.1,0.1,0.1,0.2c-0.1,2.5-0.4,5.1-0.7,7.7c-0.3-2.2-0.6-4.4-0.7-6.5
						C154.2,169.9,155.2,169.1,155.5,169z"/>
					<path fill="#6BAFD3" d="M154.2,170.3c0-0.4,1-1.4,1.3-1.3c-0.3,0-1.3,0.9-1.3,1.4c0.1,2.1,0.4,4.3,0.7,6.5
						c-1.1,8.8-2.9,17.9-0.3,26.2c-0.3,0.6-0.6,1.3-0.9,1.9c0.4-0.3,0.9-0.6,1.3-0.8l0.1,0.1c-0.1,0.1-0.1,0.3-0.2,0.4
						c-0.1,0.2-1.1,1.4-1.3,0.8C149.5,194.3,153.8,181.8,154.2,170.3z"/>
					<path fill="#6BAFD3" d="M154.6,203.1c0.1,0.3,0.2,0.7,0.4,1c-0.4,0.3-0.9,0.6-1.3,0.8C154,204.4,154.3,203.8,154.6,203.1z"/>
					<path fill="#95CDE9" d="M154.9,176.9c1.2,8.8,3.2,18.1-0.3,26.2C151.9,194.8,153.7,185.7,154.9,176.9z"/>
					<path fill="#6BAFD3" d="M153.6,114.1c0.1,5.6,0,11.8-2.9,16.8l-0.1-0.1c0-0.5-0.1-1-0.1-1.6c2.6-6.2,1.8-14.2,1.4-20.6
						c-0.5-8.3-1.1-16.5-1.9-24.8c-0.8-8.5-0.4-17.2-0.5-25.8c0.5-4.8,0.9-9.7,0.8-14.5c0.4,5,0.5,10,0.4,15.1
						c-0.1,9.9,0.4,19.6,1.2,29.5C152.8,96.8,153.5,105.5,153.6,114.1z"/>
					<path fill="#95CDE9" d="M152,108.7c0.4,6.4,1.2,14.4-1.4,20.6c-0.4-9.2,0-18.4-0.2-27.5c-0.2-9.1-1.5-18.1-1.7-27.2
						c-0.2-5.3,0.4-10.9,1-16.5c0.1,8.6-0.3,17.3,0.5,25.8C150.9,92.2,151.5,100.4,152,108.7z"/>
					<path fill="#6BAFD3" d="M150.7,131c-0.1,0.1-0.1,0.3-0.2,0.4c-0.1,0.1-1.3,1.4-1.3,0.8c-0.5-9.7-0.1-19.4-0.3-29.1
						c-0.2-9.1-1.5-18.1-1.7-27.2c-0.3-10.3,2.2-21.4,1.7-32c0.5,4.7,0.7,9.4,0.7,14.1c-0.6,5.6-1.2,11.2-1,16.5
						c0.3,9.1,1.5,18.1,1.7,27.2c0.2,9.2-0.1,18.4,0.2,27.5c-0.3,0.8-0.7,1.6-1.2,2.4c0.4-0.3,0.8-0.6,1.3-0.8L150.7,131z"/>
					<path fill="#6BAFD3" d="M150.6,129.4c0,0.5,0,1,0.1,1.6c-0.4,0.3-0.8,0.6-1.3,0.8C149.8,131,150.2,130.2,150.6,129.4z"/>
					<path fill="#6BAFD3" d="M150.4,43.6c0.1,4.8-0.3,9.6-0.8,14.5c0-4.7-0.2-9.5-0.7-14.1c0,0,0,0,0-0.1c-0.2-4-0.8-8-2.2-11.7
						c-0.1-0.4,0.7-1.2,1.1-1.4c0,0,0.1,0,0.1,0c0,0,0,0,0.1,0c0,0,0.1,0,0.1,0c0,0,0,0.1,0.1,0.1C149.3,35.1,150,39.3,150.4,43.6
						C150.4,43.6,150.4,43.6,150.4,43.6z"/>
					<path fill="#6BAFD3" d="M150.4,43.6c-0.4-4.3-1.1-8.5-2.2-12.7C149.6,35,150.3,39.2,150.4,43.6z"/>
					<path fill="#6BAFD3" d="M148.1,30.9C148.1,30.8,148.1,30.8,148.1,30.9C148.1,30.8,148.1,30.8,148.1,30.9z"/>
					<path fill="#6BAFD3" d="M147.9,30.8C147.9,30.8,147.9,30.8,147.9,30.8C147.9,30.8,147.9,30.8,147.9,30.8z"/>
					<path fill="#6BAFD3" d="M148.9,43.9c-0.4-4-1.1-7.9-2.2-11.7C148.1,36,148.7,39.9,148.9,43.9z"/>
					<path fill="#6BAFD3" d="M147.8,30.8c-0.4,0.2-1.2,1-1.1,1.4C146.6,31.8,147.4,31,147.8,30.8z"/>
					<path fill="#6BAFD3" d="M145.1,148.4c0.6,1.8,1.4,3.6,1.2,5.5c-0.1,1.1-1.5,2.6-1.8,3.6c0,0,0-0.1,0-0.1
						c-0.3-0.2-0.5-0.4-0.7-0.7c0.1-0.2,0.2-0.4,0.3-0.6c1-2.6,0.3-4.1-0.4-6.3c0-0.1,0-0.2,0-0.3c0-1.8,0-3.6-0.3-5.4
						c0.7-4.3,0.2-9.3,0.8-13.2C144.4,136.9,143.2,142.7,145.1,148.4z"/>
					<path fill="#6BAFD3" d="M144.6,157.5c0,0,0,0.1,0,0.1c0,0.1,0,0.3-0.1,0.4c-0.1,0.3-1.4,1.7-1.4,1.2c0-0.1,0-0.1,0-0.1
						c0.5-0.4,0.9-0.8,1.4-1.2C144.5,157.8,144.5,157.7,144.6,157.5z"/>
					<path fill="#6BAFD3" d="M144.5,157.5C144.6,157.5,144.6,157.5,144.5,157.5c0,0.2,0,0.4,0,0.5c-0.5,0.4-0.9,0.8-1.4,1.2
						c0-0.8,0.4-1.6,0.8-2.4C144,157,144.3,157.3,144.5,157.5z"/>
					<path fill="#95CDE9" d="M143.7,149.8c0.8,2.2,1.4,3.7,0.4,6.3c-0.1,0.2-0.2,0.4-0.3,0.6C142.9,155,143.6,151.6,143.7,149.8z"/>
					<path fill="#6BAFD3" d="M144.3,130.9c0,0,0,0.1,0,0.1c-0.5,0.4-0.9,0.8-1.4,1.2c0,2-0.1,4.1-0.3,6.2c0-2.4,0-4.6,0.3-6.3
						C143,131.7,144.3,130.4,144.3,130.9z"/>
					<path fill="#6BAFD3" d="M142.9,132.2c0.5-0.4,0.9-0.8,1.4-1.2c-0.7,3.9-0.1,8.8-0.8,13.2c-0.1-1.1-0.3-2.3-0.6-3.4
						c0-0.1-0.1-0.1-0.3,0c0-0.8,0-1.6,0-2.4C142.8,136.3,143,134.2,142.9,132.2z"/>
					<path fill="#6BAFD3" d="M143.5,144.2c0.2,1.8,0.3,3.6,0.3,5.4c0,0.1,0,0.2,0,0.3c-0.2-0.4-0.3-0.8-0.4-1.3
						c-0.2-0.6-0.3-1.2-0.4-1.7C143.1,145.9,143.3,145.1,143.5,144.2z"/>
					<path fill="#6BAFD3" d="M143.3,148.5c0.1,0.5,0.3,0.9,0.4,1.3c-0.1,1.8-0.8,5.2,0.2,6.9c-0.3,0.8-0.8,1.6-0.8,2.4
						c-0.5,2.9-1.1-1.1-1.2-1.2c-0.4-0.8,0.2-3.5,0.3-4.5c0.1-1.8,0.1-3.5,0.1-5.2c0.2-0.5,0.4-0.9,0.6-1.4
						C143,147.3,143.1,147.9,143.3,148.5z"/>
					<path fill="#6BAFD3" d="M142.9,140.8c0.2,1.1,0.4,2.3,0.6,3.4c-0.2,0.9-0.4,1.8-0.6,2.6c-0.2-1.1-0.3-2.2-0.4-3.4
						c0.1-0.9,0.1-1.8,0.1-2.7C142.8,140.7,142.9,140.7,142.9,140.8z"/>
					<path fill="#6BAFD3" d="M142.7,138.4c0,0.8,0,1.6,0,2.4c0,0-0.1,0-0.1,0.1C142.5,140,142.6,139.2,142.7,138.4z"/>
					<path fill="#6BAFD3" d="M142.5,140.8c0,0,0.1-0.1,0.1-0.1c0,0.9-0.1,1.8-0.1,2.7C142.5,142.5,142.5,141.7,142.5,140.8z"/>
					<path fill="#6BAFD3" d="M142.5,143.4c0,1.1,0.1,2.3,0.4,3.4c-0.2,0.5-0.3,1-0.6,1.4c0-0.7-0.1-1.5-0.2-2.2
						C142.3,145.2,142.4,144.3,142.5,143.4z"/>
					<path fill="#6BAFD3" d="M142.5,140.8c0,0.9-0.1,1.7,0,2.6c-0.1,0.9-0.2,1.8-0.4,2.6c-0.1-1.3-0.3-2.6-0.6-3.9
						C141.4,141.7,142.1,141.1,142.5,140.8z"/>
					<path fill="#6BAFD3" d="M142.1,146c0.1,0.8,0.1,1.5,0.2,2.2c-0.5,1.1-1.2,2.1-2.2,3c-1,0.9-0.8-0.3-0.2-0.9
						C141.1,149.3,141.7,147.7,142.1,146z"/>
					<path fill="#6BAFD3" d="M139.1,215.7c-2.3,5,2,10.9,1.7,16.1c-0.1,1.5-1.3,5.3-3.4,5.4c-3.3,0.3-0.7-20.1-0.4-21.3
						c0.1-0.5,1.6-1.7,1.4-1.1c-0.1,0.3-0.2,0.7-0.2,1c-0.2,0.2-0.4,0.4-0.5,0.5c-1.1,2.3-0.7,4.8-0.1,7.3c0,1.5,0,3-0.2,4.6
						c-0.1,1.8-0.9,5.1,0.1,6.7c1.6,2.6,1.8-3.9,1.6-4.8c-0.3-1.7-0.8-3.4-1.2-5.1c-0.1-0.4-0.2-0.9-0.3-1.3
						c0.1-2.6,0.1-5.2,0.6-7.8C138.8,215.4,139.4,215.1,139.1,215.7z"/>
					<path fill="#95CDE9" d="M139.2,230.2c0.1,0.8,0,7.4-1.6,4.8c-1-1.6-0.2-4.9-0.1-6.7c0.1-1.5,0.1-3,0.2-4.6
						c0.1,0.4,0.2,0.9,0.3,1.3C138.4,226.7,138.9,228.4,139.2,230.2z"/>
					<path fill="#6BAFD3" d="M136.8,37.4c2.2,3.1,2.3,8.2,2.1,11.8c-0.1,2.9-0.7,6.5-3.5,8c-0.1,0-0.4,0.2-0.4,0c0-1.5,0-3.1,0-4.6
						c0.1,0.4,1.3-0.7,1.4-1.1c0,1.6-0.1,3,0,3c0.9,0,0.7-0.6,0.9-1.5c0.3-1.7,0.3-3.6,0.3-5.3c0-0.9-0.1-1.8-0.2-2.7
						C137.5,42.3,137.4,39.8,136.8,37.4L136.8,37.4z"/>
					<path fill="#6BAFD3" d="M137.8,216.4c0.1-0.1,0.3-0.3,0.5-0.5c-0.5,2.6-0.6,5.2-0.6,7.8C137.1,221.3,136.8,218.8,137.8,216.4z"
						/>
					<path fill="#6BAFD3" d="M136.3,167.2c0.1-0.5,1.6-1.6,1.4-1.1c-1.1,4.2,0.8,8.6-1.3,12.5l-0.1-0.1c-0.1-3.4,0.6-7.1-0.1-10.4
						C136.1,167.8,136.2,167.5,136.3,167.2z"/>
					<path fill="#95CDE9" d="M137.5,47.6c0.1,1.8,0.1,3.6-0.3,5.3c-0.2,1,0,1.6-0.9,1.5c0,0,0-1.4,0-3c0,0,0,0,0,0
						c0.4-2.2,0.8-4.4,1-6.6C137.4,45.8,137.5,46.7,137.5,47.6z"/>
					<path fill="#6BAFD3" d="M136.8,37.4c0.6,2.5,0.7,5,0.5,7.5c-0.2-2.2-0.7-4.4-1.9-6C135.8,38.3,136.3,37.9,136.8,37.4z"/>
					<path fill="#6BAFD3" d="M135.4,38.8c1.2,1.6,1.7,3.9,1.9,6c-0.2,2.2-0.6,4.4-1,6.6c0,0,0,0,0,0c0-1.7,0.1-3.6,0.1-4
						c0-0.4-0.4-0.2-0.7,0.1C136.1,44.6,136.1,41.6,135.4,38.8c-0.2-0.5,1-1.9,1.3-1.5c0,0,0,0.1,0.1,0.1h0
						C136.3,37.9,135.8,38.3,135.4,38.8z"/>
					<path fill="#6BAFD3" d="M135.7,47.5c0.4-0.3,0.7-0.5,0.7-0.1c0,0.4-0.1,2.3-0.1,4c-0.1,0.5-1.3,1.5-1.4,1.1c0,0,0-0.1,0-0.1
						C135.2,50.8,135.5,49.2,135.7,47.5z"/>
					<path fill="#6BAFD3" d="M136.2,178.6l0.1,0.1c-0.1,0.2-0.3,0.4-0.4,0.6c-0.1,0.1-1.1,1.1-1.1,0.6c-0.1-3.9,0.8-8.2-0.5-12
						c-0.2-0.5,1.2-1.8,1.4-1.3c0.2,0.5,0.3,1,0.4,1.5c-0.5,3.6,1.2,7.8-1,11.1C135.4,179,135.8,178.8,136.2,178.6z"/>
					<path fill="#6BAFD3" d="M136.1,168.1c0.7,3.4,0,7.1,0.1,10.4c-0.4,0.2-0.8,0.4-1.1,0.6C137.3,176,135.5,171.8,136.1,168.1z"/>
					<path fill="#6BAFD3" d="M135.7,47.5c-0.2,1.6-0.5,3.3-0.8,4.9c0-1.3,0.1-2.6,0.1-4C135,48.2,135.4,47.8,135.7,47.5z"/>
					<path fill="#95CDE9" d="M134.9,71.8c0.4-1.4,0.1-3.1-0.3-4.7c0-0.5,0-1.1,0-1.6c0-1.5,0-2.9-0.1-4.4c0.1,0,0.2,0,0.2,0.1
						c0.9,4,3.9,11.1-1.3,13.3c-0.1,0-0.3,0-0.3-0.1c-0.1-5.1,0.4-10.2-0.4-15.3c-0.1-0.6,1.3-1.8,1.4-1.3c0.2,1.1,0.3,2.2,0.4,3.3
						c-0.4,0.1-1.3,1-1.2,1.4c0.3,1.4,0.9,3,1.3,4.6c0,0.6,0,1.2,0,1.7C134.6,69.4,134.6,73.2,134.9,71.8z"/>
					<path fill="#6BAFD3" d="M134.9,52.5C134.9,52.5,134.9,52.4,134.9,52.5C134.9,52.5,134.9,52.5,134.9,52.5
						C134.9,52.6,134.9,52.5,134.9,52.5z"/>
					<path fill="#6BAFD3" d="M134.6,61.2c0.1,1.5,0.1,2.9,0.1,4.4c0,0.6,0,1.1,0,1.6c-0.4-1.6-1-3.2-1.3-4.6
						C133.3,62.1,134.1,61.3,134.6,61.2z"/>
					<path fill="#6BAFD3" d="M130.7,93.8c1.8,9.6,5.6,21.6,1.9,31.2l-0.2-0.1c-0.3,0-0.5-0.1-0.7-0.2c2.5-7.6,0.4-16.8-1.4-24.8
						c0.2-2,0.3-4,0.4-5.9c0-0.3-0.2-0.2-0.5-0.1C130.4,93.7,130.6,93.7,130.7,93.8z"/>
					<path fill="#6BAFD3" d="M132.6,125c0,0.1-0.1,0.2-0.1,0.3c-0.2,0.4-0.7,1.2-1.2,1.2c-4.3-0.7-3.4-9.3-3.4-12.2
						c0.1-6.4,1.2-12.8,1.4-19.2c0.3,1.5,0.6,3.1,1,4.8c-0.3,3.4-0.7,6.7-0.9,10.1c-0.1,2.6-1.4,13,2.3,14.7
						c-0.1,0.5-0.3,0.9-0.5,1.4c0.4-0.4,0.8-0.8,1.2-1.2L132.6,125z"/>
					<path fill="#6BAFD3" d="M132.4,125c-0.4,0.4-0.8,0.8-1.2,1.2c0.2-0.5,0.4-0.9,0.5-1.4C131.9,124.8,132.1,124.9,132.4,125z"/>
					<path fill="#95CDE9" d="M130.3,99.9c1.8,8.1,3.8,17.2,1.4,24.8c-3.6-1.7-2.4-12.1-2.3-14.7C129.6,106.6,130,103.3,130.3,99.9z"
						/>
					<path fill="#6BAFD3" d="M130.7,148.7c1.7,3.6,1.6,7.8,0.6,11.6l0,0c-0.4-1-0.6-1.9-0.7-2.9c0.1-0.9,0.1-1.7,0-2.6
						c0-0.1,0.1-0.2,0-0.3c0-0.1,0-0.2-0.1-0.3c0-0.3,0.1-0.6,0.1-0.9c0-0.2-0.1-0.2-0.2-0.2c-0.1-1.4,0.1-2.9,0.3-4.3
						c-0.5,0.4-0.9,0.8-1.4,1.2h0c0-0.1,0-0.1,0-0.1C129.3,149.6,130.4,148.2,130.7,148.7z"/>
					<path fill="#6BAFD3" d="M131.3,160.3c0,0,0,0.1,0,0.1c-0.1,0.2-1.2,1.8-1.4,1.2c-0.8-2-0.9-4.1-0.8-6.2c0,0.1,0,0.3,0.1,0.4
						c0.1,0.3,1-0.3,1.3-0.9c0,0.8,0,1.7,0.1,2.5c-0.1,1.4-0.3,2.8-0.7,4.1C130.4,161.1,130.8,160.7,131.3,160.3L131.3,160.3z"/>
					<path fill="#6BAFD3" d="M131.3,160.3c-0.5,0.4-0.9,0.8-1.4,1.2c0.4-1.3,0.6-2.7,0.7-4.1C130.7,158.4,130.9,159.3,131.3,160.3z"
						/>
					<path fill="#6BAFD3" d="M129.3,150.1c0.5-0.4,0.9-0.8,1.4-1.2c-0.1,1.3-0.3,2.8-0.3,4.3c0,0-0.1,0-0.1,0
						C130.1,152.1,129.8,151.1,129.3,150.1z"/>
					<path fill="#6BAFD3" d="M130.2,93.9c0.3-0.2,0.5-0.2,0.5,0.1c-0.1,2-0.2,4-0.4,5.9c-0.4-1.6-0.7-3.2-1-4.8v0c0,0,0-0.1,0-0.1
						c0,0,0,0,0-0.1c0,0,0-0.1,0-0.1c0,0,0-0.1,0.1-0.1c0-0.1,0.1-0.1,0.1-0.2v0c0,0,0,0,0,0c0-0.1,0.1-0.1,0.2-0.2
						c0,0,0.1-0.1,0.1-0.1c0.1-0.1,0.2-0.2,0.3-0.3C130.1,94,130.1,93.9,130.2,93.9C130.1,93.9,130.2,93.9,130.2,93.9z"/>
					<path fill="#6BAFD3" d="M130.4,153.1c0.1-0.1,0.2,0,0.2,0.2c0,0.3-0.1,0.6-0.1,0.9C130.5,153.9,130.4,153.5,130.4,153.1z"/>
					<path fill="#6BAFD3" d="M130.6,154.5c0,0.1,0,0.2,0,0.3C130.6,154.7,130.5,154.6,130.6,154.5c-0.1-0.2-0.1-0.2-0.1-0.3
						C130.6,154.3,130.6,154.4,130.6,154.5z"/>
					<path fill="#6BAFD3" d="M130.5,154.4c0,0.1,0,0.3,0,0.4c0,0,0,0.1-0.1,0.1C130.5,154.8,130.5,154.6,130.5,154.4z"/>
					<path fill="#6BAFD3" d="M130.5,154.2c0,0.1,0,0.1,0,0.2c0-0.4-0.1-0.8-0.2-1.3c0,0,0.1,0,0.1,0
						C130.4,153.5,130.5,153.9,130.5,154.2z"/>
					<path fill="#6BAFD3" d="M130.5,154.4c0,0.2,0,0.3,0,0.5c-0.3,0.6-1.2,1.3-1.3,0.9c0-0.1-0.1-0.3-0.1-0.4c0-0.4,0.1-0.7,0.1-1.1
						c0-0.3,0.7-1,1.1-1.2C130.4,153.6,130.5,154,130.5,154.4z"/>
					<path fill="#6BAFD3" d="M129.8,94.2C129.7,94.3,129.7,94.3,129.8,94.2C129.7,94.3,129.7,94.3,129.8,94.2z"/>
					<path fill="#6BAFD3" d="M129.3,150.1c0.5,1,0.8,2,1,3.1c-0.4,0.2-1.1,0.9-1.1,1.2c0,0.4-0.1,0.7-0.1,1.1
						C128.8,153.8,129.1,151.7,129.3,150.1L129.3,150.1z"/>
					<path fill="#6BAFD3" d="M129.7,94.3c-0.1,0.1-0.1,0.1-0.2,0.2C129.6,94.5,129.6,94.4,129.7,94.3z"/>
					<path fill="#6BAFD3" d="M129.4,94.8C129.3,94.8,129.3,94.8,129.4,94.8C129.3,94.8,129.3,94.8,129.4,94.8z"/>
					<path fill="#6BAFD3" d="M129.3,94.8C129.3,94.9,129.3,94.9,129.3,94.8C129.3,94.9,129.3,94.9,129.3,94.8z"/>
					<path fill="#6BAFD3" d="M129.3,94.9C129.3,95,129.3,95,129.3,94.9c0,0.1,0,0.2,0,0.2C129.3,95.1,129.3,95,129.3,94.9z"/>
					<path fill="#6BAFD3" d="M119.5,29.1c0-0.1,0-0.3,0-0.4c0.2-0.6,1.4-1.4,1.4-1.1c0,8,3.7,17.2-0.7,24.6c-0.2,0.3-0.7,1.1-1.1,1
						c-0.4-0.1-0.8-0.2-1.2-0.3c-0.1,0-0.1,0-0.1-0.1c-1.7-7.8,0.1-15.5,0.4-23.3c0-0.5,1.4-1.8,1.4-1.1c0,0.1,0,0.2,0,0.4
						c0,0.1,0,0.1,0,0.2S119.5,29,119.5,29.1z M119.5,29.1c-0.5,4.7-3.2,20,0.2,22.3c-0.2,0.4-0.4,0.8-0.6,1.2
						c0.4-0.3,0.8-0.6,1.1-1c-0.2,0-0.3-0.1-0.5-0.2C122.7,44.7,119.6,36.2,119.5,29.1z"/>
					<path fill="#6BAFD3" d="M120.5,203.5c0.5,6-0.1,12.5-5.6,16c-0.1,0.1-0.4,0.2-0.4,0c-0.2-9.9,0.3-19.8,0.6-29.7
						c0.3-10.8-0.5-21.2-1.4-31.8c-0.3-3.6-0.5-7.3-0.8-10.9c0.3,1.1,0.6,2.2,0.9,3.3c0.4,1.4,0.8,2.9,1.1,4.4
						c0,0.6,0.1,1.3,0.1,1.9c0.4,4.9,0.9,9.7,1.2,14.6c-0.1,5.5-0.4,11.1,0.2,16.6c0,0.1,0,0.2,0,0.3c-0.2,6.9-0.6,13.8-0.7,20.8
						c0,1.6-0.4,4,0,5.6c0.3,1.3-0.8,1.9,1,1.7c1.8-0.3,2-3,2.2-4.5c0.4-3,0.2-6-0.2-9c-0.6-4.9-1.8-9.6-2.4-14.5c0-2,0.1-4,0.1-6.1
						c0-3.6-0.1-7.2-0.4-10.8c0.1-2.8,0.1-5.6-0.1-8.4c-0.2-2.7-0.6-5.4-1.2-8c-0.2-2.9-0.4-5.8-0.6-8.7c0.6,2.4,1.5,4.9,2,7.3
						c1.4,6.2,1.4,12.5,1.3,18.8c-0.1,6.2-0.2,12.3,0.8,18.3C119.3,194.8,120.2,199.1,120.5,203.5z"/>
					<path fill="#6BAFD3" d="M120.2,51.6c-0.4,0.3-0.8,0.6-1.1,1c0.2-0.4,0.4-0.8,0.6-1.2C119.8,51.5,120,51.6,120.2,51.6z"/>
					<path fill="#95CDE9" d="M119.5,29.1c0.1,7.1,3.3,15.6,0.2,22.3C116.3,49.1,119,33.9,119.5,29.1z"/>
					<path fill="#6BAFD3" d="M119.5,28.7c0,0.1,0,0.2,0,0.4c0-0.1,0-0.1,0-0.2S119.5,28.8,119.5,28.7z"/>
					<path fill="#95CDE9" d="M118.9,202.5c0.3,3,0.6,6,0.2,9c-0.2,1.6-0.4,4.3-2.2,4.5c-1.8,0.3-0.6-0.3-1-1.7c-0.4-1.6,0-3.9,0-5.6
						c0.1-6.9,0.5-13.9,0.7-20.8C117.1,192.8,118.3,197.6,118.9,202.5z"/>
					<path fill="#6BAFD3" d="M116.3,171.1c0.2,3.6,0.4,7.2,0.4,10.8c0,2-0.1,4-0.1,6.1c0-0.1,0-0.2,0-0.3
						C115.9,182.2,116.2,176.7,116.3,171.1z"/>
					<path fill="#95CDE9" d="M116.1,162.7c0.2,2.8,0.2,5.6,0.1,8.4c-0.3-4.8-0.8-9.7-1.2-14.6c-0.1-0.6-0.1-1.3-0.1-1.9
						C115.5,157.3,115.9,160,116.1,162.7z"/>
					<path fill="#6BAFD3" d="M113.7,118.6c0.6,4.9,3.5,9.3,2.1,14.2c-0.6,2.2-1.5,4.1-1.9,6.2c-0.1-1.2-0.1-2.3-0.2-3.5
						c0.9-2.2,1.7-4.4,0.9-6.8c-0.9-3-2-5.4-2.3-8.7c-0.5-4.3-0.5-8.7-0.5-13c0-1.8,0.6-5.4,0-7.8c0.3-1.1,0.1-2.3,0.1-3.5
						c-0.5,0.5-0.9,0.9-1.4,1.4c0.6,0.4,1,1.2,1.2,2.1c-0.1,0.3-0.2,0.6-0.3,0.9c-0.1,0.2-0.5,0.7-0.8,0.9c0-0.3,0-0.5,0-0.8
						c0.3-0.2,0.6-0.5,0.9-0.7c-0.3-0.5-0.7-0.9-1-1.4c0,0,0,0,0,0c0,0,0,0,0,0c0-0.3,0-0.7-0.1-1c0-0.4,0.8-1.8,1.4-1.4
						c0.4,0.2,0.8,0.3,1.2,0.5c0.1,0,0.1,0,0.1,0.1C113.4,103.7,112.9,111.2,113.7,118.6z"/>
					<path fill="#95CDE9" d="M114.6,128.6c0.8,2.5,0,4.6-0.9,6.8c-0.2-2.6-0.4-5.3-0.7-7.9c-0.3-2.5-0.5-5.1-0.8-7.6l0.1,0
						C112.7,123.2,113.7,125.6,114.6,128.6z"/>
					<path fill="#6BAFD3" d="M114.4,146c0.2,2.9,0.3,5.8,0.6,8.7c-0.3-1.5-0.7-2.9-1.1-4.4c-0.3-1.1-0.6-2.2-0.9-3.3
						c-0.2-2.6-0.3-5.3-0.5-7.9c0.3-1.2,0.8-2.4,1.3-3.6c0.1,1.2,0.2,2.3,0.2,3.5c-0.2,1.2-0.3,2.5-0.2,3.9
						C113.9,143.9,114.1,145,114.4,146z"/>
					<path fill="#6BAFD3" d="M113.9,139c0.2,2.3,0.3,4.7,0.4,7c-0.3-1-0.5-2.1-0.6-3.1C113.6,141.5,113.7,140.2,113.9,139z"/>
					<path fill="#6BAFD3" d="M113.1,127.5c0.3,2.6,0.5,5.3,0.7,7.9c-0.5,1.2-1,2.4-1.3,3.6c-0.2-3.7-0.5-7.4-0.9-11.1
						c-1-9.5-2.3-19.1-2.4-28.7c0.6,1.2,0.3,1,1.1,1.6c0.1,0.1,0.2,0.1,0.4,0c0.2,6.4,0.9,12.7,1.6,19
						C112.5,122.5,112.8,125,113.1,127.5z"/>
					<path fill="#6BAFD3" d="M112.5,139.1c0.2,2.6,0.3,5.3,0.5,7.9c-0.6-2.3-1-4.7-0.7-7C112.3,139.7,112.4,139.4,112.5,139.1z"/>
					<path fill="#95CDE9" d="M112.3,119.9L112.3,119.9c-0.8-6.3-1.5-12.6-1.7-19c0.3-0.2,0.7-0.7,0.8-0.9c0.2-0.3,0.3-0.6,0.3-0.9
						c0.6,2.4,0,6,0,7.8C111.8,111.3,111.8,115.6,112.3,119.9z"/>
					<path fill="#6BAFD3" d="M111.9,95.6c0,1.1,0.1,2.4-0.1,3.5c-0.2-0.9-0.6-1.6-1.2-2.1C111,96.6,111.5,96.1,111.9,95.6z"/>
					<path fill="#6BAFD3" d="M110.6,98c0.3,0.5,0.7,0.9,1,1.4c-0.3,0.2-0.6,0.5-0.9,0.7C110.6,99.4,110.6,98.7,110.6,98z"/>
					<path fill="#6BAFD3" d="M111.4,64c0.1,7.7,4.5,19.3-2.6,25.2c-0.1,0-0.6,0.4-0.6,0.1c-0.3-8.3-0.1-16.5,1.1-24.7
						c0.1-0.5,1.5-1.7,1.4-1.1c0,0.3-0.1,0.6-0.1,0.9c-0.3,0.3-0.6,0.7-0.6,0.9c0,0.9,0.1,1.9,0.1,2.9c-0.3,3.1-0.5,6.2-0.6,9.3
						c0,1.8-0.5,5,0,7c-0.5,1.5-0.3,2.1,0.9,1.7c0.3-0.9,0.6-1.9,0.7-2.8c0.7-5-0.5-10.1-0.9-15.1c0.1-1.3,0.3-2.5,0.5-3.8
						C111,64.1,111.4,63.8,111.4,64z"/>
					<path fill="#95CDE9" d="M110.1,68.2c0.5,5,1.7,10.1,0.9,15.1c-0.1,1-0.3,1.9-0.7,2.8c-1.1,0.4-1.4-0.2-0.9-1.7
						c-0.5-2,0-5.1,0-7C109.6,74.4,109.8,71.3,110.1,68.2z"/>
					<path fill="#6BAFD3" d="M110.6,100.2c0,0.3,0,0.5,0,0.8c-0.2,0.1-0.3,0.1-0.4,0c-0.7-0.5-0.5-0.4-1.1-1.6
						c0-0.5,1.1-1.4,1.3-1.4l0,0c0,0,0,0,0,0c0,0.8-0.1,1.6-0.2,2.4C110.4,100.3,110.5,100.2,110.6,100.2z"/>
					<path fill="#6BAFD3" d="M110.6,100.2c-0.1,0.1-0.2,0.1-0.3,0.2c0.2-0.8,0.2-1.6,0.2-2.4c0,0,0,0,0,0
						C110.6,98.7,110.6,99.4,110.6,100.2z"/>
					<path fill="#6BAFD3" d="M110.6,98C110.5,98,110.5,98,110.6,98C110.5,98,110.5,98,110.6,98C110.6,98,110.6,98,110.6,98z"/>
					<path fill="#6BAFD3" d="M109.2,99.4c-0.2-0.4,1-1.7,1.3-1.4C110.2,98,109.2,98.8,109.2,99.4z"/>
					<path fill="#6BAFD3" d="M110.6,64.4c-0.2,1.3-0.3,2.5-0.5,3.8c-0.1-1-0.1-1.9-0.1-2.9C110,65.1,110.3,64.7,110.6,64.4z"/>
					<path fill="#6BAFD3" d="M102.2,163.9c1,6.9,3.6,13.8,1.1,20.8l-0.1,0c-0.2-0.5-0.4-1.1-0.6-1.6c1.1-5.1-0.3-10.3-1.3-15.4
						c0-0.1,0.1-0.3,0.1-0.4c0.2-0.2,0.3-0.4,0.3-0.5c0-0.3,0-0.6,0-0.9C101.8,165.1,102,164.5,102.2,163.9z"/>
					<path fill="#6BAFD3" d="M103.3,184.7c0,0.1-0.1,0.2-0.1,0.3c-0.1,0.2-1.1,1.6-1.4,1c-2.4-5.6-3-12.9-1.6-19.1
						c0,0.3,0,0.6,0,0.8c0,0.4,0.6,0.1,1-0.4c0,0.1,0,0.2,0,0.3c-0.8,5.1-0.3,10.7,1.3,15.4c-0.2,0.9-0.4,1.8-0.8,2.6
						C102.3,185.3,102.8,185,103.3,184.7L103.3,184.7z"/>
					<path fill="#6BAFD3" d="M103.2,184.6c-0.4,0.3-0.9,0.7-1.4,1c0.3-0.9,0.6-1.8,0.8-2.6C102.8,183.6,103,184.1,103.2,184.6z"/>
					<path fill="#95CDE9" d="M101.3,167.6c1,5.2,2.4,10.3,1.3,15.4C101,178.3,100.4,172.7,101.3,167.6z"/>
					<path fill="#6BAFD3" d="M102.1,163.2c0.2-0.1,0.4-0.1,0.2,0.3c-0.1,0.1-0.1,0.3-0.1,0.4C102.2,163.7,102.1,163.4,102.1,163.2z"
						/>
					<path fill="#6BAFD3" d="M102.1,163.2c0,0.2,0.1,0.5,0.1,0.7c-0.2,0.6-0.4,1.2-0.5,1.8c0-0.8,0-1.5,0-2.3
						C101.9,163.3,102,163.2,102.1,163.2z"/>
					<path fill="#6BAFD3" d="M102,122.1c1,9,3.3,23.2-5.7,29.1c0,0-0.3,0.1-0.4,0.1c-4.9-7.6-0.6-19.9,0.4-28.2
						c0.8-6.8,0.3-13.8,0.5-20.6c0.2-8.3,0.7-16.5,0.9-24.8c0.3,2.9,0.7,5.7,1.1,8.5c-0.2,5.4-0.4,10.7-0.6,16.1
						c-0.2,6.5,0.4,13.2-0.4,19.7c-0.7,5.5-1.8,10.9-2.2,16.4c-0.2,2.5-0.6,5.8,0.4,8.2c0.7,1.7,1.7,2.4,3.4,0.6
						c0.9-0.9,1.2-3.2,1.5-4.4c2.1-10.3-0.7-21.4-1.6-31.7c-0.5-5.3,0.3-10.2,0.3-15.5c0-3.2-0.3-6.3-0.7-9.4
						c0.1-3.2,0.2-6.5,0.3-9.7c0-0.1,0-0.2-0.2-0.2c0.1,0,0.1,0,0.2,0.1c0.9,8.7,2,16.8,1.4,25.6C99.9,108.7,101.3,115.5,102,122.1z
						"/>
					<path fill="#6BAFD3" d="M100.5,158.3c0-0.5,1.4-1.8,1.4-1.1C101.4,157.6,100.9,157.9,100.5,158.3z"/>
					<path fill="#6BAFD3" d="M101.9,157.2c0,0.8,0,1.6-0.1,2.4C101.8,158.8,101.8,158,101.9,157.2z"/>
					<path fill="#6BAFD3" d="M100.5,158.3c0.5-0.3,0.9-0.7,1.4-1.1c-0.1,0.8-0.1,1.6-0.1,2.4c0,1.3-0.1,2.6-0.1,3.8
						c-0.3,0.3-0.6,0.6-0.7,0.8c-0.1,0.2-0.2,0.5-0.2,0.7c-0.2-1.4-0.4-2.9-0.4-4.3C100.4,159.8,100.4,159.1,100.5,158.3z"/>
					<path fill="#6BAFD3" d="M101.8,159.6c0,1.2,0.1,2.4,0.3,3.6c-0.1,0-0.3,0.1-0.4,0.3C101.8,162.2,101.8,160.9,101.8,159.6z"/>
					<path fill="#6BAFD3" d="M101.7,163.4c0,0.8,0,1.5,0,2.3c-0.1,0.5-0.2,1-0.3,1.4c0,0.1-0.1,0.1-0.1,0.1
						c-0.2-0.8-0.3-1.6-0.4-2.4c0.1-0.2,0.2-0.5,0.2-0.7C101.1,164,101.4,163.7,101.7,163.4z"/>
					<path fill="#6BAFD3" d="M101.7,165.7c0,0.3,0,0.6,0,0.9c0,0.1-0.1,0.3-0.3,0.5C101.4,166.7,101.6,166.2,101.7,165.7z"/>
					<path fill="#6BAFD3" d="M101.4,167.2c0,0.1-0.1,0.3-0.1,0.4c0-0.1,0-0.2,0-0.3C101.3,167.3,101.3,167.2,101.4,167.2z"/>
					<path fill="#6BAFD3" d="M100.8,164.9c0.1,0.8,0.3,1.6,0.4,2.4c-0.4,0.5-1,0.8-1,0.4c0-0.3,0-0.6,0-0.8
						C100.4,166.2,100.6,165.5,100.8,164.9z"/>
					<path fill="#95CDE9" d="M99.2,111.1c0.9,10.3,3.7,21.4,1.6,31.7c-0.2,1.1-0.6,3.4-1.5,4.4c-1.7,1.8-2.7,1.1-3.4-0.6
						c-0.9-2.4-0.5-5.7-0.4-8.2c0.4-5.5,1.5-10.9,2.2-16.4c0.8-6.5,0.3-13.1,0.4-19.7c0.1-5.4,0.4-10.7,0.6-16.1
						c0.4,3.1,0.7,6.2,0.7,9.4C99.5,100.9,98.8,105.9,99.2,111.1z"/>
					<path fill="#6BAFD3" d="M100.5,158.3c0,0.8,0,1.6-0.1,2.4C100.4,159.8,100.4,159.1,100.5,158.3z"/>
					<path fill="#6BAFD3" d="M100.4,160.6c0,1.4,0.2,2.9,0.4,4.3c-0.2,0.6-0.4,1.3-0.6,2C100.3,164.8,100.4,162.7,100.4,160.6z"/>
					<path fill="#6BAFD3" d="M98.9,76.3c0.1,0,0.2,0.1,0.2,0.2c-0.1,3.3-0.2,6.5-0.3,9.7c-0.4-2.8-0.8-5.7-1.1-8.5c0,0,0,0,0,0
						C97.7,77.2,98.5,76.5,98.9,76.3C98.9,76.3,98.9,76.3,98.9,76.3z"/>
					<path fill="#6BAFD3" d="M97.7,77.6c0-0.4,0.9-1.2,1.2-1.3C98.5,76.5,97.7,77.2,97.7,77.6C97.7,77.7,97.7,77.6,97.7,77.6z"/>
					<path fill="#6BAFD3" d="M91.2,91c0.2,3.3,0,6.7-0.3,10c-0.1-1-0.3-1.9-0.4-2.9c-0.9-6.7-0.8-13.5-0.4-20.2
						C90.5,82.2,91,86.6,91.2,91z"/>
					<path fill="#6BAFD3" d="M91,101c0.8,5.8,1.4,11.5-0.8,17.1l-0.1,0c-0.1-1.2-0.1-2.3-0.1-3.5c0.4-2.1,0.4-4.3,0.3-6.4
						C90.5,105.7,90.8,103.3,91,101z"/>
					<path fill="#6BAFD3" d="M89.4,72.1c0,0.2-0.7,0.2-0.8,0.2c-0.1,0-0.1,0-0.1-0.1c0-0.2,0-0.4-0.1-0.6c0,0,0-0.1,0-0.1
						c0.1-0.5,1.1-1.3,1.3-1.3c0,0,0,0,0,0c0,0,0,0,0,0c0,0.2,0,0.3,0,0.5c0,0,0,0,0,0c0,2.4,0.1,4.8,0.3,7.2
						c-0.4,6.8-0.5,13.6,0.4,20.2c0.1,1,0.3,1.9,0.4,2.9c-0.2,2.4-0.4,4.8-0.6,7.2c-0.1-2.3-0.4-4.7-0.7-7c0.2-2.9,0.3-5.8,0.2-8.8
						c-0.2-4.3-0.7-8.6-1-12.9c0-0.8,0.1-1.6,0.1-2.3C88.9,75.9,89.5,72.4,89.4,72.1z"/>
					<path fill="#6BAFD3" d="M89.9,70.6c0.2-0.2,0.8-0.6,0.8-0.1c-0.2,2.4-0.3,4.8-0.5,7.3C90,75.4,89.9,73,89.9,70.6z"/>
					<path fill="#6BAFD3" d="M90.1,118c0,0.1-0.1,0.2-0.1,0.3c-0.1,0.2-1.3,1.6-1.4,1c-0.3-6.1,0.5-12.2,1-18.3
						c0.3,2.3,0.6,4.7,0.7,7c-0.2,2.2-0.3,4.3-0.3,6.4c-0.3,1.5-0.7,3-1.3,4.5C89.2,118.7,89.6,118.4,90.1,118L90.1,118z"/>
					<path fill="#6BAFD3" d="M90.1,118c-0.5,0.3-0.9,0.7-1.4,1c0.6-1.5,1-3,1.3-4.5C90,115.7,90,116.9,90.1,118z"/>
					<path fill="#6BAFD3" d="M89.9,70.2c0,0.1,0,0.3,0,0.4c0,0,0,0,0,0C89.9,70.5,89.9,70.4,89.9,70.2z"/>
					<path fill="#6BAFD3" d="M89.9,70.2C89.9,70.2,89.9,70.2,89.9,70.2C89.9,70.1,89.9,70.2,89.9,70.2z"/>
					<path fill="#6BAFD3" d="M89.8,92.3c0.2,2.9,0.1,5.9-0.2,8.8c-0.5-3.7-1.1-7.4-1.1-10.9c0-3.6,0-7.2,0.2-10.8
						C89.1,83.7,89.6,88,89.8,92.3z"/>
					<path fill="#6BAFD3" d="M88.5,71.4c0.1-0.5,1.1-1.4,1.3-1.3C89.6,70.1,88.6,70.9,88.5,71.4z"/>
					<path fill="#6BAFD3" d="M89.4,72.1c0.1,0.4-0.5,3.9-0.6,5c0,0.8-0.1,1.5-0.1,2.3c-0.2-2.6-0.3-5.3-0.3-7.9c0,0.2,0,0.4,0.1,0.6
						c0,0.1,0.1,0.1,0.1,0.1C88.7,72.3,89.4,72.2,89.4,72.1z"/>
					<path fill="#6BAFD3" d="M86.4,184c0.4-0.4,1-0.7,0.9-0.4c-0.2,0.8-0.4,1.6-0.7,2.4C86.5,185.4,86.4,184.7,86.4,184z"/>
					<path fill="#6BAFD3" d="M86.6,186.1c0.6,6.8,1.2,13.5-0.7,20.1c-0.1,0.2-1.1,1.8-1.4,1.3c0-0.1-0.1-0.1-0.1-0.2l0.1,0
						c0.5-0.4,0.9-0.9,1.4-1.3c-0.3-0.5-0.5-1-0.7-1.5c0.8-4.6,0.7-9.3,0.3-13.9C85.8,189,86.2,187.5,86.6,186.1z"/>
					<path fill="#6BAFD3" d="M86.6,186.1L86.6,186.1c-0.4,1.4-0.8,2.9-1.1,4.5c-0.1-1.1-0.2-2.3-0.3-3.4c0,0,0,0,0,0
						c0.2-0.9,0.5-1.7,0.7-2.5c0-0.2,0.3-0.5,0.5-0.7C86.4,184.7,86.5,185.4,86.6,186.1z"/>
					<path fill="#6BAFD3" d="M84.7,175.3c0-0.5,1.4-1.8,1.4-1.1c-0.2,3.2,0,6.5,0.3,9.7c-0.3,0.2-0.5,0.5-0.5,0.7
						c-0.2,0.8-0.5,1.6-0.7,2.5C84.8,183.2,84.5,179.3,84.7,175.3z"/>
					<path fill="#6BAFD3" d="M85.9,206c-0.5,0.4-0.9,0.9-1.4,1.3c0.3-0.9,0.5-1.9,0.6-2.8C85.3,205,85.6,205.5,85.9,206z"/>
					<path fill="#95CDE9" d="M85.4,190.6c0.4,4.7,0.6,9.3-0.3,13.9C83.7,200.7,84.4,195.3,85.4,190.6z"/>
					<path fill="#6BAFD3" d="M85.1,187.2c0.1,1.1,0.2,2.3,0.3,3.4c-1.1,4.8-1.7,10.1-0.3,13.9c-0.2,0.9-0.4,1.9-0.6,2.8l-0.1,0
						C81.5,202.1,83.4,193.3,85.1,187.2z"/>
					<path fill="#6BAFD3" d="M81.7,45.4c0.1-0.5,1.4-1.8,1.4-1.1C82.7,44.7,82.2,45.1,81.7,45.4z"/>
					<path fill="#6BAFD3" d="M81.7,45.4c0.5-0.4,0.9-0.7,1.4-1.1c-0.4,3.3-0.8,6.6-1.3,10C81.7,51.3,81.6,48.4,81.7,45.4z"/>
					<path fill="#6BAFD3" d="M83.1,44.4c-0.6,15.2,3.6,30.7-0.5,45.7c-0.1,0.2-1.1,1.8-1.4,1.3c0-0.1-0.1-0.1-0.1-0.2l0,0
						c0.5-0.4,0.9-0.9,1.4-1.3c-0.3-0.5-0.5-1-0.7-1.5c2.3-11.2,0.5-22.7,0-34.1C82.3,51,82.7,47.7,83.1,44.4z"/>
					<path fill="#6BAFD3" d="M82.6,89.9c-0.4,0.4-0.9,0.9-1.4,1.3c0.3-0.9,0.5-1.9,0.7-2.8C82.1,88.9,82.3,89.4,82.6,89.9z"/>
					<path fill="#95CDE9" d="M81.9,54.3c0.6,11.4,2.4,22.9,0,34.1c-1.7-4.7-0.5-10.8-0.2-15.5c0.2-2.5,1.3-8.3-1-10.2
						C81.1,59.9,81.5,57.1,81.9,54.3z"/>
					<path fill="#6BAFD3" d="M80.7,62.6c2.3,2,1.1,7.7,1,10.2c-0.3,4.7-1.5,10.8,0.2,15.5c-0.2,0.9-0.4,1.9-0.7,2.8l0,0
						c-2-3.7-1.4-8.6-1.2-12.7c0.2-3.3,2.3-12-0.7-14.4c-0.1-0.1-0.1-0.2,0-0.4c0,0,0,0.1,0,0.1c-0.1,0.7,1.3-0.6,1.4-1.1
						C80.7,62.7,80.7,62.7,80.7,62.6z"/>
					<path fill="#6BAFD3" d="M81.7,45.4c-0.1,3,0,5.9,0.1,8.9c-0.3,2.8-0.7,5.5-1.1,8.3c0,0,0,0-0.1-0.1c-0.3-0.3-1.2,0.6-1.3,1.1
						C80.2,57.6,80.9,51.5,81.7,45.4z"/>
					<path fill="#6BAFD3" d="M80.7,62.6c0,0,0,0.1,0,0.2c-0.1,0.5-1.5,1.7-1.4,1.1c0,0,0-0.1,0-0.1C79.5,63.2,80.4,62.3,80.7,62.6
						C80.7,62.6,80.7,62.6,80.7,62.6z"/>
					<path fill="#6BAFD3" d="M79.8,129.3c0.2,3.8,1.1,7.4,0.3,11.1h0l0,0c-0.9-3.6-1.1-7.2-0.9-10.9
						C79.5,129.3,79.8,129.1,79.8,129.3z"/>
					<path fill="#6BAFD3" d="M80.1,140.5c0,0,0,0.1,0,0.1c-0.1,0.3-1.3,1.8-1.4,1.2c-0.9-3.7-1.1-7.5-0.9-11.3
						c0-0.5,1.4-1.8,1.4-1.1c0,0.1,0,0.1,0,0.1c-0.4,0.3-0.8,0.8-0.7,1.1c0.2,3.7,1.1,7.3,0.3,11C79.2,141.3,79.6,140.9,80.1,140.5
						L80.1,140.5z"/>
					<path fill="#6BAFD3" d="M80.1,140.5c-0.5,0.4-0.9,0.8-1.4,1.2c0.9-3.7-0.1-7.3-0.3-11c0-0.3,0.4-0.8,0.7-1.1
						C79,133.2,79.2,136.9,80.1,140.5z"/>
					<path fill="#6BAFD3" d="M76.4,221.9c0.8,3.2,0.1,6.8-0.9,9.9c0.1-3.3,0.2-6.7,0.8-10C76.3,221.8,76.3,221.8,76.4,221.9z"/>
					<path fill="#6BAFD3" d="M75,221.8c0.1-0.5,1.5-1.7,1.4-1.1c-0.1,0.4-0.1,0.8-0.2,1.1c-0.4,0.1-1.4,1-1.2,1.4
						c0.7,3,0.1,6.6-0.9,9.4c0.5-0.3,0.9-0.6,1.4-0.9c0,0,0,0.1,0,0.2c-0.1,0.3-1.4,1.7-1.4,0.9C74.2,229.2,74.2,225.4,75,221.8z"/>
					<path fill="#6BAFD3" d="M73.6,150c1.8,10.4,5.6,21,1.6,31.1l-0.1,0c-0.2-0.3-0.4-0.6-0.6-0.9c2.7-8.8-0.2-17.9-1.9-26.9
						c0.1-0.6,0.3-1.2,0.5-1.8c0.2-0.3,0.4-0.6,0.4-0.8C73.5,150.4,73.6,150.2,73.6,150z"/>
					<path fill="#6BAFD3" d="M76.2,221.8c-0.5,3.3-0.6,6.6-0.8,10c-0.4,0.3-0.9,0.6-1.4,0.9c1-2.9,1.6-6.4,0.9-9.4
						C74.8,222.8,75.8,221.9,76.2,221.8z"/>
					<path fill="#6BAFD3" d="M75.2,181.1c0,0.1-0.1,0.2-0.1,0.3c-0.1,0.2-1,1.5-1.3,1.1c-5.8-8.3-4.9-21.9-1.8-31
						c0-0.1,0.1-0.2,0.2-0.4c0,0,0,0,0,0c-0.3,0.4-0.4,0.8,0,0.7c0.1,0,0.1,0,0.1,0c0.1,0.4,0.2,0.8,0.2,1.3
						c-2.3,8.4-2.6,19.5,1.9,26.9c-0.2,0.7-0.4,1.4-0.7,2.1c0.4-0.4,0.9-0.7,1.3-1.1L75.2,181.1z"/>
					<path fill="#6BAFD3" d="M75.1,181.1c-0.4,0.4-0.9,0.8-1.3,1.1c0.3-0.7,0.5-1.4,0.7-2.1C74.7,180.4,74.9,180.7,75.1,181.1z"/>
					<path fill="#95CDE9" d="M72.6,153.2c1.7,9.1,4.5,18.2,1.9,26.9C70,172.7,70.3,161.6,72.6,153.2z"/>
					<path fill="#6BAFD3" d="M73,138.8c-0.3,3.7,0.9,7.6,0.6,11.2C73,146.2,72.6,142.5,73,138.8z"/>
					<path fill="#6BAFD3" d="M73.6,150c0,0.2,0,0.4-0.1,0.6c0,0.2-0.2,0.6-0.4,0.8c0.1-0.2,0.1-0.4,0.2-0.6c0.2-0.7-0.5-0.2-1,0.3
						c0.2-0.3,0.6-0.7,0.8-0.7c-0.5,0.1-0.8-0.1-1.1-0.5c-0.2-1.1-0.3-2.3-0.4-3.4c0,0,0,0,0,0c0-0.1,0-0.2,0-0.3
						c-0.2-2.1-0.2-4.2,0-6.3c0.5-0.4,0.9-0.7,1.4-1.1C72.6,142.5,73,146.2,73.6,150z"/>
					<path fill="#6BAFD3" d="M72.3,151.1c0.5-0.5,1.2-1,1-0.3c-0.1,0.2-0.1,0.4-0.2,0.6c-0.2,0.3-0.5,0.4-0.7,0.5c0,0,0,0,0,0
						c0-0.2-0.1-0.5-0.1-0.7C72.2,151.2,72.3,151.1,72.3,151.1C72.3,151.1,72.3,151.1,72.3,151.1z"/>
					<path fill="#6BAFD3" d="M72,149.9c0.2,0.4,0.5,0.6,1.1,0.5c-0.2,0-0.5,0.3-0.8,0.7c0,0,0,0,0,0c0,0,0,0-0.1,0.1
						C72.2,150.7,72.1,150.3,72,149.9z"/>
					<path fill="#6BAFD3" d="M71.5,139.9c0.1-0.5,1.4-1.8,1.4-1.1C72.5,139.2,72,139.5,71.5,139.9z"/>
					<path fill="#6BAFD3" d="M73.1,151.4c-0.2,0.6-0.4,1.1-0.5,1.8c-0.1-0.4-0.2-0.8-0.2-1.3c0,0,0,0,0,0
						C72.6,151.9,72.9,151.7,73.1,151.4z"/>
					<path fill="#6BAFD3" d="M72.2,151.2c0.1,0.2,0.1,0.5,0.1,0.7c0,0-0.1,0-0.1,0C71.9,152,72,151.6,72.2,151.2z"/>
					<path fill="#6BAFD3" d="M72.3,151.1C72.3,151.1,72.2,151.2,72.3,151.1C72.2,151.2,72.2,151.2,72.3,151.1
						C72.2,151.2,72.3,151.1,72.3,151.1z"/>
					<path fill="#6BAFD3" d="M71.6,146.5c0.1,1.1,0.3,2.3,0.4,3.4C71.6,149.1,71.7,147.6,71.6,146.5z"/>
					<path fill="#6BAFD3" d="M71.6,146.2c0,0.1,0,0.2,0,0.3c-0.2-2.2-0.3-4.4-0.1-6.6C71.4,142,71.4,144.1,71.6,146.2z"/>
					<path fill="#6BAFD3" d="M64.7,101.1c0.4-0.5,1.2-1,1.1-0.6c-0.3,0.9-0.5,1.8-0.6,2.8C65.1,102.5,64.9,101.8,64.7,101.1z"/>
					<path fill="#6BAFD3" d="M65.8,100.4c0.1-0.4-0.7,0.1-1.1,0.6c-0.3-1.2-0.6-2.4-0.9-3.4c-0.1-0.6,1.3-1.8,1.4-1.3
						c1.7,6.4,3.8,14.8-0.2,20.7l-0.2-0.1c0-0.3,0-0.7,0-1c1.8-3.5,1.3-8.3,0.4-12.7C65.4,102.3,65.6,101.4,65.8,100.4z"/>
					<path fill="#95CDE9" d="M65.2,103.2c0.9,4.3,1.4,9.1-0.4,12.7C64.7,111.6,64.5,107.4,65.2,103.2z"/>
					<path fill="#6BAFD3" d="M64.9,116.9l0.2,0.1c-0.2,0.3-0.4,0.5-0.6,0.8c0,0-1,0.9-1,0.4c-0.3-5.6-0.6-11.3,0.9-16.7
						c0-0.1,0.2-0.3,0.3-0.5c0.2,0.7,0.3,1.4,0.5,2.2c-0.7,4.2-0.6,8.4-0.4,12.7c-0.3,0.5-0.6,1-0.9,1.5
						C64.3,117.2,64.6,117.1,64.9,116.9z"/>
					<path fill="#6BAFD3" d="M64.9,115.9c0,0.3,0,0.7,0,1c-0.3,0.1-0.6,0.3-1,0.4C64.3,116.9,64.6,116.4,64.9,115.9z"/>
					<path fill="#6BAFD3" d="M61.1,159.7c-0.1,10.9,3.8,24.1-0.3,34.5l-0.1,0c-0.2-0.4-0.4-0.9-0.6-1.3c0,0,0,0,0,0
						c1.3-4.9,0.7-10.3,0.3-15.2c-0.2-2.5-0.4-5-0.5-7.5C60.6,166.6,61.1,163.1,61.1,159.7z"/>
					<path fill="#6BAFD3" d="M61.1,159.6c0,0,0,0.1,0,0.1C61.1,159.6,61.1,159.5,61.1,159.6C61.1,159.5,61.1,159.5,61.1,159.6z"/>
					<path fill="#6BAFD3" d="M61.1,159.7L61.1,159.7c0,3.4-0.5,6.9-1.1,10.5c-0.2-2.8-0.3-5.6-0.3-8.4c0-0.1,0-0.3,0-0.5
						c0-0.1,0-0.2,0-0.3c0,0,0-0.1,0-0.1c0-0.5,1-1.4,1.3-1.4h0C61.1,159.5,61.1,159.6,61.1,159.7z"/>
					<path fill="#6BAFD3" d="M59.7,160.8c0-0.4,1-1.4,1.3-1.3c-0.3,0-1.3,0.9-1.3,1.4C59.7,160.8,59.7,160.8,59.7,160.8z"/>
					<path fill="#6BAFD3" d="M60.9,194.2c0,0.1-0.1,0.2-0.1,0.3c-0.1,0.2-1.1,1.6-1.4,1c-5.3-10.4,0.1-22.8,0.3-33.8
						c0,2.8,0.1,5.6,0.3,8.4c-1.3,7.7-2.8,15.7,0.2,22.7c0,0,0,0,0,0c-0.2,0.8-0.5,1.6-0.8,2.3C59.9,194.9,60.4,194.5,60.9,194.2
						L60.9,194.2z"/>
					<path fill="#6BAFD3" d="M60.8,194.2c-0.4,0.3-0.9,0.7-1.4,1c0.3-0.8,0.6-1.5,0.8-2.3C60.4,193.3,60.6,193.8,60.8,194.2z"/>
					<path fill="#95CDE9" d="M60.6,177.7c0.3,4.9,0.9,10.3-0.3,15.2c-3-7.1-1.5-15-0.2-22.7C60.2,172.7,60.4,175.2,60.6,177.7z"/>
					<path fill="#6BAFD3" d="M56.3,61.8c0.4,7.6,1.2,15.1,0.5,22.7l-0.2,0c-0.4-0.1-0.8-0.2-1.1-0.3c0.6-7.6-0.3-15.2-0.7-22.8
						c-0.3-6.6-0.6-13-2.2-19.3c0.1-1.3,0.4-2.5,0.7-3.8c-0.5,0.4-0.9,0.8-1.4,1.2l0,0c0,0,0-0.1,0-0.1c0.1-0.3,1.2-1.8,1.4-1.2
						C55.8,46,55.9,53.8,56.3,61.8z"/>
					<path fill="#6BAFD3" d="M56.8,84.6c0,0.1,0,0.2,0,0.3c0,0.4-0.8,1.5-1.3,1.3c-0.3-0.1-0.7-0.2-1-0.3c0.2-0.5,0.3-0.9,0.5-1.4
						c-0.4,0.4-0.8,0.8-1.2,1.2c0.2,0.1,0.5,0.1,0.7,0.2c-0.9,2.9-0.8,6.3-0.8,9.2c-0.1,4.3,0,8.7-0.2,13
						c-0.2,3.4-0.1,10.5-4.4,11.9c-0.1,0-0.3,0-0.3-0.1c-1.7-9.2-0.4-18.6,0-27.9c0.5-10.1,0.4-20.2,0.5-30.3c0,0,0,0,0,0.1
						c0.1,0.6,1.3-0.9,1.4-1.2c-0.2,10.4-0.1,20.8-0.6,31.3c-0.3,5-0.8,10-0.8,15c0,2.8-0.2,5.8,0.3,8.5c0.4,2.3,0.9,3.2,1.6,0.5
						c1.4-5.4,0.9-11.5,1-17.1c0.1-4.3-0.4-9.6,1.5-13.6c0.1-0.3,0.8-1.3,1.2-1.2c0.2,0.1,0.4,0.1,0.6,0.2c0,0.5-0.1,1.1-0.2,1.7
						c0.4-0.4,0.8-0.9,1.3-1.3L56.8,84.6z"/>
					<path fill="#6BAFD3" d="M56.6,84.6c-0.4,0.4-0.8,0.9-1.3,1.3c0.1-0.5,0.1-1.1,0.2-1.7C55.9,84.3,56.2,84.4,56.6,84.6z"/>
					<path fill="#95CDE9" d="M54.8,61.4c0.3,7.6,1.3,15.2,0.7,22.8c-0.2-0.1-0.4-0.1-0.6-0.2c-0.5-0.1-1.1,0.8-1.2,1.2
						c-1.9,4-1.4,9.3-1.5,13.6c-0.1,5.6,0.4,11.6-1,17.1c-0.7,2.7-1.2,1.8-1.6-0.5c-0.5-2.7-0.4-5.7-0.3-8.5c0.1-5,0.6-10,0.8-15
						c0.5-10.4,0.4-20.8,0.6-31.3c0,0,0,0,0,0c1.5-6,1-12.3,1.8-18.4C54.2,48.5,54.5,54.9,54.8,61.4z"/>
					<path fill="#6BAFD3" d="M53.8,85.6c0.4-0.4,0.8-0.8,1.2-1.2c-0.2,0.4-0.4,0.9-0.5,1.4C54.2,85.8,54,85.7,53.8,85.6z"/>
					<path fill="#6BAFD3" d="M53.8,130.7c0.8,6.9,3.8,13.9,0.5,20.4l-0.2-0.1c-0.2-0.2-0.3-0.5-0.5-0.7c1.9-5,0.1-10.4-0.8-15.6
						c0.3-1.1,0.6-2.1,0.9-3c0.3-0.9-1.1,0.2-1.3,0.7c0-0.1,0-0.2,0-0.3C52.3,131.5,53.8,130.3,53.8,130.7z"/>
					<path fill="#6BAFD3" d="M54.1,151.1l0.2,0.1c-0.1,0.2-0.2,0.3-0.3,0.5c-0.1,0.1-1,1.3-1.2,0.9c-3.7-5-2.4-14.7-0.4-20.2
						c0,0,0,0,0,0c0.1,0.8,0.2,1.6,0.4,2.3c-1.2,5-1.6,11.6,0.8,15.6c-0.2,0.6-0.5,1.1-0.8,1.6C53.3,151.7,53.7,151.4,54.1,151.1z"
						/>
					<path fill="#6BAFD3" d="M54.1,151.1c-0.4,0.3-0.8,0.6-1.2,0.9c0.3-0.5,0.5-1.1,0.8-1.6C53.8,150.6,53.9,150.8,54.1,151.1z"/>
					<path fill="#95CDE9" d="M52.8,134.7c1,5.2,2.7,10.7,0.8,15.6C51.2,146.3,51.6,139.7,52.8,134.7z"/>
					<path fill="#6BAFD3" d="M52.4,132.4c0.2-0.5,1.6-1.6,1.3-0.7c-0.3,0.9-0.6,1.9-0.9,3C52.7,133.9,52.5,133.1,52.4,132.4z"/>
					<path fill="#6BAFD3" d="M53.2,218.1c1.2,9.7,2.7,21.2-1.4,30.5l-0.1-0.1c-0.2-0.2-0.4-0.4-0.6-0.6c3.8-10,1.5-22.2,0.2-32.5
						c-0.4-2.9-0.8-5.9-1.2-8.8c0,0,0,0,0,0c0.1-4.5,0.1-9.1,0-13.6C50.9,201.4,52.2,209.8,53.2,218.1z"/>
					<path fill="#6BAFD3" d="M51.9,39.6c0.5-0.4,0.9-0.8,1.4-1.2c-0.3,1.3-0.5,2.5-0.7,3.8C52.4,41.3,52.1,40.4,51.9,39.6z"/>
					<path fill="#6BAFD3" d="M51.9,39.6c0.3,0.9,0.5,1.7,0.8,2.6c-0.8,6.1-0.3,12.4-1.8,18.4c0,0,0,0,0,0c0,0,0-0.1,0-0.1v0h0
						c0-0.5,0-1,0-1.5c0,0,0-0.1,0-0.1v0c0-0.1,0-0.1,0-0.2c-0.1-0.1-0.5,0.1-0.9,0.4C51,52.6,50.4,46,51.9,39.6L51.9,39.6z"/>
					<path fill="#6BAFD3" d="M51.8,248.6c0,0.1-0.1,0.2-0.1,0.3c-0.1,0.3-0.9,1.5-1.3,1.1c-3.1-2.7-3-8.2-3.1-11.9
						c-0.1-5.3,0.3-10.6,0.7-15.9c0.8-9.6,0.9-19.3,0.7-29c0.4,4.5,1,8.9,1.5,13.3c0,0,0,0,0,0c-0.1,3.9-0.3,7.8-0.6,11.7
						c-0.4,5.8-1,11.6-0.9,17.3c0,3.6-0.2,9.2,2.4,12.2c-0.2,0.6-0.4,1.2-0.7,1.7c0.4-0.4,0.9-0.7,1.3-1.1L51.8,248.6z"/>
					<path fill="#6BAFD3" d="M51.7,248.5c-0.4,0.4-0.9,0.8-1.3,1.1c0.3-0.6,0.5-1.1,0.7-1.7C51.3,248.2,51.5,248.4,51.7,248.5z"/>
					<path fill="#95CDE9" d="M51.3,215.5c1.3,10.2,3.5,22.5-0.2,32.5c-2.6-3-2.4-8.6-2.4-12.2c-0.1-5.8,0.5-11.6,0.9-17.3
						c0.3-3.9,0.5-7.8,0.6-11.7C50.5,209.6,50.9,212.5,51.3,215.5z"/>
					<path fill="#6BAFD3" d="M50.8,58.6c0,0,0.1,0.1,0,0.2C50.8,58.7,50.8,58.6,50.8,58.6z"/>
					<path fill="#6BAFD3" d="M50.8,58.7L50.8,58.7c0,0,0,0.1,0,0.1c0,0.5,0,1,0,1.5v0c-0.5,0.4-0.9,0.8-1.4,1.2
						c0.2-0.8,0.4-1.7,0.5-2.5c0.3-0.3,0.8-0.6,0.9-0.6C50.8,58.6,50.8,58.7,50.8,58.7z"/>
					<path fill="#6BAFD3" d="M50.8,58.9c0,0.5,0,1,0,1.5h0C50.8,59.9,50.8,59.4,50.8,58.9z"/>
					<path fill="#6BAFD3" d="M50.8,60.4c0,0,0,0.1,0,0.1c-0.1,0.3-1.3,1.8-1.4,1.2c0,0,0,0,0-0.1s0,0,0-0.1h0
						C49.8,61.2,50.3,60.8,50.8,60.4z"/>
					<path fill="#6BAFD3" d="M50.8,58.6c-0.1-0.1-0.5,0.2-0.9,0.6c0,0,0-0.1,0-0.2C50.2,58.7,50.6,58.4,50.8,58.6z"/>
					<path fill="#6BAFD3" d="M50.1,193c0.1,4.6,0.2,9.1,0,13.6c-0.6-4.4-1.1-8.9-1.5-13.3c0,0,0,0,0-0.1c-0.1-4.8-0.3-9.7-0.7-14.5
						c0-1.1,0-2.3,0.1-3.4c0,0,0,0,0,0c0.2,0.3,0.8-0.4,1.1-0.8c0.1,0.9,0.1,1.9,0.2,2.8C49.3,182.7,49.6,187.8,50.1,193z"/>
					<path fill="#6BAFD3" d="M49.9,59c0,0.1,0,0.1,0,0.2c-0.2,0.2-0.5,0.5-0.5,0.7C49.4,59.6,49.6,59.3,49.9,59z"/>
					<path fill="#6BAFD3" d="M49.9,59.2c-0.1,0.8-0.3,1.7-0.5,2.5h0c0-0.6,0-1.2,0-1.8C49.4,59.6,49.6,59.4,49.9,59.2z"/>
					<path fill="#6BAFD3" d="M49.5,173.5c0,0.2,0,0.4,0,0.5c0-0.1,0-0.3,0-0.4c-0.1,0.1-0.1,0.1-0.2,0.2c0-0.1-0.1-0.2-0.1-0.3
						C49.4,173.4,49.5,173.4,49.5,173.5z"/>
					<path fill="#6BAFD3" d="M49.5,173.6c0,0.1,0,0.3,0,0.4c0,0,0,0,0,0c0,0.1,0,0.2-0.1,0.3c0,0-0.1,0.2-0.2,0.3c0-0.2,0-0.3,0-0.5
						c0.1-0.1,0.2-0.1,0.3-0.2c0,0-0.1-0.1-0.1-0.1C49.4,173.7,49.4,173.7,49.5,173.6z"/>
					<path fill="#6BAFD3" d="M49.4,174.3c0-0.1,0.1-0.2,0.1-0.3c-0.1,1.1-0.1,2.3-0.1,3.4c-0.1-0.9-0.1-1.9-0.2-2.8
						C49.3,174.5,49.4,174.4,49.4,174.3z"/>
					<path fill="#6BAFD3" d="M49.4,177.5c0.3,5.2,0.6,10.4,0.7,15.6C49.6,187.8,49.3,182.7,49.4,177.5z"/>
					<path fill="#6BAFD3" d="M49.4,59.8c0,0.6,0,1.2,0,1.8c0,0,0,0,0,0.1C49.1,60.6,49.1,61,49.4,59.8z"/>
					<path fill="#6BAFD3" d="M49.3,173.8c0,0.1,0.1,0.1,0.1,0.1c-0.1,0.1-0.2,0.1-0.3,0.2c0-0.1,0-0.1,0-0.2
						C49.2,173.9,49.2,173.8,49.3,173.8z"/>
					<path fill="#6BAFD3" d="M49.3,173.8c-0.1,0.1-0.1,0.1-0.2,0.1c0-0.1,0-0.3,0-0.4c0,0,0.1,0,0.1-0.1
						C49.2,173.6,49.3,173.7,49.3,173.8z"/>
					<path fill="#6BAFD3" d="M49.2,173.5C49.1,173.5,49.1,173.5,49.2,173.5c-0.1-0.1-0.1-0.3-0.1-0.5
						C49.1,173.2,49.1,173.3,49.2,173.5z"/>
					<path fill="#6BAFD3" d="M49.1,174.1c0,0.2,0,0.3,0,0.5c-0.3,0.4-0.9,1.1-1.1,0.8c0,0,0,0,0,0c0-0.1,0-0.2,0-0.4
						C48.4,174.7,48.8,174.4,49.1,174.1z"/>
					<path fill="#6BAFD3" d="M49.1,173.9c0,0.1,0,0.1,0,0.2c-0.4,0.3-0.7,0.6-1.1,0.9c0-0.1,0-0.1,0-0.2
						C48.4,174.5,48.8,174.2,49.1,173.9z"/>
					<path fill="#6BAFD3" d="M49.1,173.5c0,0.1,0,0.3,0,0.4c-0.4,0.3-0.7,0.6-1.1,0.9c0,0,0-0.1,0-0.1
						C48.1,174.4,48.7,173.8,49.1,173.5z"/>
					<path fill="#6BAFD3" d="M49.1,173c0,0.2,0,0.4,0,0.6c-0.4,0.3-1,0.8-1,1.1c0,0,0,0.1,0,0.1c0,0.1,0,0.1,0,0.2
						c0,0.1,0,0.2,0,0.4c-0.2-0.3-0.3-0.6-0.4-1c-0.1-0.8-0.1-1.7-0.2-2.5c0,0,0,0,0,0c0-0.1,0.1-0.3,0.2-0.4c0-0.1,0.1-0.2,0.2-0.2
						c0,0,0.1-0.1,0.1-0.1c0,0,0.1-0.1,0.1-0.1c0.1-0.1,0.1-0.1,0.2-0.2c0,0,0.1-0.1,0.1-0.1c0.2-0.1,0.3-0.2,0.4-0.2c0,0,0,0,0.1,0
						c0,0,0,0,0,0c0,0.1,0,0.2,0,0.3C48.9,171.4,48.9,172.2,49.1,173C49.1,172.9,49.1,173,49.1,173z"/>
					<path fill="#6BAFD3" d="M48.9,170.9c0.1,0.7,0.1,1.3,0.1,2C48.9,172.2,48.9,171.4,48.9,170.9z"/>
					<path fill="#6BAFD3" d="M48.9,170.6C48.9,170.6,48.9,170.6,48.9,170.6C48.9,170.6,48.9,170.6,48.9,170.6z"/>
					<path fill="#6BAFD3" d="M48,171c0,0-0.1,0.1-0.1,0.1C47.9,171.1,48,171.1,48,171z"/>
					<path fill="#6BAFD3" d="M48,178.8c0.3,4.8,0.5,9.6,0.7,14.5C48.2,188.4,47.9,183.6,48,178.8z"/>
					<path fill="#6BAFD3" d="M48,175.4c0,1.1-0.1,2.3-0.1,3.4c-0.1-1.5-0.2-2.9-0.3-4.4C47.7,174.8,47.8,175.1,48,175.4z"/>
					<path fill="#6BAFD3" d="M47.8,171.2c-0.1,0.1-0.1,0.2-0.2,0.2C47.7,171.4,47.7,171.3,47.8,171.2z"/>
					<path fill="#6BAFD3" d="M47.5,171.9c0.1,0.8,0.1,1.7,0.2,2.5C47.5,173.6,47.5,172.7,47.5,171.9z"/>
					<path fill="#6BAFD3" d="M40.5,71.7c1.5,3.3,1.9,7.5,0,10.7l-0.1-0.1c0-0.9,0-1.7,0-2.6c0.1-0.6,0.1-1.2,0-1.8
						c0-2.1,0.1-4.1,0.1-6.1c0-0.7-1.4,0.6-1.4,1.1c0,0,0,0.1,0,0.1C38.9,72.5,40.3,71.2,40.5,71.7z"/>
					<path fill="#6BAFD3" d="M40.5,82.4c-0.1,0.2-0.3,0.4-0.4,0.6c-0.1,0.1-1.1,1.1-1.1,0.6c-0.2-3.5,0-7.1,0.1-10.6
						c0.6,1.4,1.1,3.2,1.3,4.9c0,0.6,0,1.2,0,1.8c-0.1,1.2-0.4,2.3-1.1,3.2c0.4-0.2,0.8-0.4,1.1-0.6L40.5,82.4z"/>
					<path fill="#6BAFD3" d="M39.1,72.9c0-0.5,1.4-1.8,1.4-1.1c0,2-0.1,4.1-0.1,6.1c-0.1-1.8-0.6-3.5-1.3-4.9c0,0,0,0,0,0
						C39.1,73,39.1,73,39.1,72.9z"/>
					<path fill="#6BAFD3" d="M40.4,82.3c-0.4,0.2-0.8,0.4-1.1,0.6c0.6-0.9,1-2,1.1-3.2C40.4,80.6,40.4,81.5,40.4,82.3z"/>
					<path fill="#6BAFD3" d="M37.9,153c0.1,7.2,4,16.5-1.8,22.5c-0.1,0.1-0.6,0.5-0.8,0.3c-4.5-6.5,0.4-15.9,0.5-23
						c0-0.5,1.4-1.8,1.4-1.1c0,0.5,0,1-0.1,1.5c-0.3,0.3-0.7,0.7-0.7,1c0,1,0.1,1.9,0.2,2.9c-0.3,1.5-0.6,3-0.8,4.5
						c-0.5,2.6-1.9,7.8-0.3,10.1c1.6,2.4,2.2-2,2.2-3.4c0-1.7-0.1-3.4-0.3-5.1c-0.2-2-0.6-4-0.8-6.1c0.2-1.3,0.4-2.6,0.5-3.9
						C37.6,153,37.9,152.8,37.9,153z"/>
					<path fill="#95CDE9" d="M37.5,163.3c0.2,1.7,0.3,3.4,0.3,5.1c0,1.4-0.7,5.8-2.2,3.4c-1.6-2.3-0.1-7.5,0.3-10.1
						c0.3-1.5,0.6-3,0.8-4.5C36.9,159.3,37.2,161.3,37.5,163.3z"/>
					<path fill="#6BAFD3" d="M37.2,153.3c-0.1,1.3-0.3,2.6-0.5,3.9c-0.1-1-0.2-1.9-0.2-2.9C36.5,154,36.9,153.6,37.2,153.3z"/>
					<path fill="#6BAFD3" d="M33.6,110.4c-0.5,7.9,3.8,15.3,0.8,23.1l-0.2-0.1c-0.3-0.1-0.5-0.2-0.7-0.3c1.5-4.8,0.2-9.6-0.6-14.4
						c0.3-1.2,0.6-2.2,0.7-3c0.1-0.4-0.6,0-1.1,0.5c-0.2-1.6-0.3-3.2-0.2-4.8C32.2,110.9,33.6,109.7,33.6,110.4z"/>
					<path fill="#6BAFD3" d="M34.4,133.5c0,0.1-0.1,0.2-0.1,0.3c-0.1,0.3-0.8,1.3-1.2,1.2c-6.1-1.7-1.7-14.2-0.9-18.2
						c0-0.1,0.2-0.3,0.3-0.5c0.1,0.8,0.2,1.6,0.4,2.4c-1.2,4.9-3,12.6,0.6,14.4c-0.1,0.5-0.3,0.9-0.5,1.4c0.4-0.4,0.8-0.8,1.2-1.1
						L34.4,133.5z"/>
					<path fill="#6BAFD3" d="M34.1,133.4c-0.4,0.4-0.8,0.8-1.2,1.1c0.2-0.5,0.4-0.9,0.5-1.4C33.7,133.2,33.9,133.3,34.1,133.4z"/>
					<path fill="#6BAFD3" d="M32.4,116.2c0.4-0.5,1.2-1,1.1-0.5c-0.1,0.7-0.4,1.8-0.7,3C32.6,117.8,32.5,117,32.4,116.2z"/>
					<path fill="#95CDE9" d="M32.8,118.6c0.9,4.8,2.1,9.6,0.6,14.4C29.8,131.2,31.6,123.5,32.8,118.6z"/>
					<path fill="#6BAFD3" d="M27,192.9c-0.7,9.4,2.9,19.2-0.1,28.4l-0.2-0.1c-0.3,0-0.6-0.1-0.8-0.2c1.8-6.9,0.1-14.2-0.3-21.4
						C26.2,196.5,26.7,194,27,192.9z"/>
					<path fill="#6BAFD3" d="M27,192.7c0,0,0,0.1,0,0.1C27,192.8,27,192.8,27,192.7z"/>
					<path fill="#6BAFD3" d="M27,192.9C27,192.9,27,192.9,27,192.9c-0.3,1.2-0.8,3.7-1.4,6.7c-0.1-1.9-0.2-3.8,0-5.6
						c0.1-0.4,1.2-1.3,1.4-1.2C27,192.8,27,192.8,27,192.9z"/>
					<path fill="#6BAFD3" d="M27,192.7c-0.2-0.1-1.3,0.8-1.4,1.2C25.6,193.5,26.8,192.5,27,192.7z"/>
					<path fill="#6BAFD3" d="M27,221.3c0,0.1-0.1,0.2-0.1,0.4c-0.1,0.4-0.7,1.2-1.2,1.2c-0.6,0-1.2,0-1.8,0c-0.1,0-0.1-0.1-0.2-0.1
						c-1.8-9.5-0.3-19.3,1.9-28.7c-0.1,1.9-0.1,3.7,0,5.6c-1.4,7.9-2.9,19.7,0.3,21.4c-0.1,0.5-0.3,0.9-0.4,1.4
						c0.4-0.4,0.8-0.8,1.2-1.2L27,221.3z"/>
					<path fill="#6BAFD3" d="M26.8,221.2c-0.4,0.4-0.8,0.8-1.2,1.2c0.1-0.5,0.3-0.9,0.4-1.4C26.2,221.1,26.5,221.2,26.8,221.2z"/>
					<path fill="#95CDE9" d="M25.6,199.6c0.5,7.2,2.1,14.5,0.3,21.4C22.7,219.3,24.2,207.5,25.6,199.6z"/>
					<path fill="#6BAFD3" d="M17.9,189.5c0.5,4.4,2.3,15.2-2,18.4c-5.9,4.4-4.4-12.8-4.5-14.7c-0.1-14.5,0.9-28.9,1.3-43.4
						c0.6,3,0.9,6,1.1,9c-0.3,8.1-0.7,16.2-0.8,24.4c-0.1,5.1,0,10.3,0,15.4c0,1.7-0.2,3.6,0.1,5.3c0.4,2.2,2.1,3.9,3.5,0.9
						c1.1-2.4,0.5-6.6,0.4-9.2c-0.2-5.4-1.2-10.8-2.1-16.1c-1.2-6.9-0.7-13.8-1.1-20.7c0.1-3.4,0.2-6.8,0.3-10.2
						c0-0.2-0.1-0.2-0.3-0.2c0.2-0.1,0.3-0.1,0.3,0c1.5,7.1,0.9,14.2,1.2,21.4C15.4,176.5,17.2,182.9,17.9,189.5z"/>
					<path fill="#95CDE9" d="M16.8,195.6c0.1,2.6,0.8,6.8-0.4,9.2c-1.4,3-3,1.3-3.5-0.9c-0.3-1.7-0.1-3.5-0.1-5.3
						c0-5.1-0.1-10.3,0-15.4c0.2-8.1,0.5-16.2,0.8-24.4c0.3,6.9-0.1,13.9,1.1,20.7C15.7,184.9,16.6,190.2,16.8,195.6z"/>
					<path fill="#6BAFD3" d="M15.1,103.5c0.3,4.3,1.7,8.5-1.1,12.3c-0.1,0.1-1.1,1.1-1.1,0.6c-0.1-2-0.2-4,0-6.1
						c0-0.2,0.2-0.4,0.4-0.7c0,0.3,0.1,0.6,0.2,0.8c0.1,0.2,0.4,0.1,0.7-0.2c-0.1,1-0.1,2,0,3c-0.2,0.8-0.5,1.7-1,2.4
						c0.4-0.2,0.8-0.4,1.1-0.6c0-0.6-0.1-1.2-0.1-1.8c0.2-1,0.2-2,0.2-3.1c0.4-0.3,0.7-0.8,0.6-1.1
						C14.3,107.5,14.8,105.2,15.1,103.5L15.1,103.5z"/>
					<path fill="#6BAFD3" d="M15.1,103.3c0,0.1,0,0.1,0,0.1h0c-0.5,0.4-0.9,0.8-1.4,1.2c0.1,1.4,0.4,2.9,0.6,4.4
						c-0.1-0.1-0.6,0.2-0.9,0.5c-0.3-1.6,0.1-3.6,0.4-5.1C13.7,104.2,15.1,102.8,15.1,103.3z"/>
					<path fill="#6BAFD3" d="M13.7,104.7c0.5-0.4,0.9-0.8,1.4-1.2c-0.3,1.7-0.8,4-0.1,5.7c0.1,0.3-0.2,0.7-0.6,1.1
						c0-0.3-0.1-0.5-0.1-0.8c0,0,0-0.1,0-0.1c0-0.1,0-0.1,0-0.2C14.1,107.6,13.8,106.1,13.7,104.7z"/>
					<path fill="#6BAFD3" d="M14.7,226.5c0.2,0,0.2,0,0.1,0.3c-0.1,0.2-0.1,0.4-0.2,0.6c0,0,0-0.1,0-0.1
						C14.7,227,14.7,226.7,14.7,226.5z"/>
					<path fill="#6BAFD3" d="M14.7,227.4c0.7,4.4,2.2,9.9-2.4,11.8c-0.2,0.1-0.3-0.1-0.3-0.2c0.4-3.4,0.3-6.9,1.2-10.2
						c0,0,0,0,0,0.1c-0.1,0.8-0.3,1.5-0.4,2.2c-0.1,0.3,0.3,0.1,0.8-0.3c0.1,0.7,0.2,1.3,0.3,2c-0.1,0.6-0.1,1.1-0.1,1.7
						c0,0.4-0.5,3.3,0.1,2.2c0.4-0.6,0.1-2,0.1-2.6c0-0.4-0.1-0.9-0.1-1.3c0.1-0.9,0.2-1.8,0.3-2.7c0-0.1,0.1-0.1,0.1-0.1
						c0.2-0.8,0.4-1.6,0.5-2.5C14.6,227.5,14.7,227.4,14.7,227.4z"/>
					<path fill="#6BAFD3" d="M14.4,223.9c0.2,0.9,0.3,1.7,0.3,2.6c-0.1,0-0.1,0-0.2,0.1c-0.1-0.9-0.2-1.8-0.1-2.5
						c-0.5,0.4-0.9,0.8-1.4,1.2h0c0,0,0-0.1,0-0.1C13.1,224.7,14.3,223.3,14.4,223.9z"/>
					<path fill="#6BAFD3" d="M14.7,226.5c0,0.3,0,0.6-0.1,0.8c0-0.3-0.1-0.5-0.1-0.8C14.6,226.5,14.7,226.5,14.7,226.5z"/>
					<path fill="#6BAFD3" d="M14.7,227.3C14.7,227.3,14.7,227.4,14.7,227.3c0,0.1,0,0.2,0,0.2C14.6,227.4,14.6,227.4,14.7,227.3z"/>
					<path fill="#6BAFD3" d="M14.7,227.3c0,0.1,0,0.1,0,0.2c-0.2,0.9-0.4,1.7-0.5,2.6c-0.1,0.2-0.3,0.5-0.6,0.7
						c-0.1-0.7-0.2-1.3-0.3-2c0-0.1,0-0.1,0-0.2c0.1-0.4,0.2-0.7,0.3-1.1c0.1-0.3,0.6-0.8,1-1C14.6,226.8,14.6,227,14.7,227.3z"/>
					<path fill="#6BAFD3" d="M14.4,224c-0.1,0.7,0,1.6,0.1,2.5c-0.4,0.2-0.9,0.7-1,1c-0.1,0.4-0.2,0.7-0.3,1.1
						c0.1-1.1,0.1-2.3-0.2-3.4C13.5,224.8,14,224.4,14.4,224z"/>
					<path fill="#6BAFD3" d="M14.3,109.4c0,0.3,0.1,0.5,0.1,0.8c0,0-0.1,0.1-0.1,0.1C14.2,110,14.3,109.7,14.3,109.4z"/>
					<path fill="#6BAFD3" d="M14.3,115.1c-0.4,0.2-0.8,0.4-1.1,0.6c0.5-0.8,0.9-1.6,1-2.4C14.2,113.9,14.3,114.5,14.3,115.1z"/>
					<path fill="#6BAFD3" d="M14.3,109.1c0,0,0.1,0.1,0,0.2c0,0,0,0.1,0,0.1C14.3,109.3,14.3,109.2,14.3,109.1z"/>
					<path fill="#6BAFD3" d="M14.3,109.1c0,0.1,0,0.2,0,0.3c0,0.3-0.1,0.6-0.1,0.9c-0.3,0.3-0.6,0.4-0.7,0.2
						c-0.1-0.3-0.2-0.6-0.2-0.8C13.7,109.3,14.1,109,14.3,109.1z"/>
					<path fill="#6BAFD3" d="M14.6,227.5c-0.1,0.8-0.3,1.6-0.5,2.5c0,0,0,0.1-0.1,0.1C14.2,229.2,14.4,228.3,14.6,227.5z"/>
					<path fill="#6BAFD3" d="M13.7,148.4c0.2-0.1,0.3-0.1,0.3,0.2c-0.1,3.4-0.2,6.8-0.3,10.2c-0.1-3-0.4-6-1.1-9c0,0,0,0,0,0
						c0,0,0-0.1,0-0.1c0,0,0,0,0-0.1v0c0-0.1,0.1-0.2,0.1-0.3c0,0,0,0,0,0c0,0,0-0.1,0.1-0.1c0,0,0.1-0.1,0.1-0.1
						c0.1-0.1,0.1-0.1,0.2-0.2c0.1-0.1,0.2-0.1,0.2-0.2c0.1-0.1,0.1-0.1,0.2-0.1C13.6,148.5,13.7,148.4,13.7,148.4z"/>
					<path fill="#95CDE9" d="M13.9,234c0,0.7,0.3,2-0.1,2.6c-0.6,1.1-0.2-1.8-0.1-2.2c0-0.6,0.1-1.1,0.1-1.7
						C13.9,233.2,13.9,233.6,13.9,234z"/>
					<path fill="#6BAFD3" d="M14.1,230.1c-0.1,0.9-0.2,1.8-0.3,2.7c-0.1-0.7-0.2-1.3-0.3-2C13.8,230.5,14,230.3,14.1,230.1z"/>
					<path fill="#6BAFD3" d="M13,225.2c0.3,1.1,0.3,2.3,0.2,3.4c0,0,0,0.1,0,0.1C13,227.5,12.9,226.4,13,225.2L13,225.2z"/>
					<path fill="#6BAFD3" d="M13.1,73.7c1.1,6.1,4.2,12.8-0.1,18.1l-0.2-0.2c0-0.3,0-0.5,0-0.8c1.9-3.1,1.1-7.1,0.1-10.9
						c0.1-1.8,0.1-3.6,0.2-5.5c0-0.6-1,0.3-1.3,0.8c0-0.1,0-0.2-0.1-0.3C11.6,74.5,13,73.3,13.1,73.7z"/>
					<path fill="#6BAFD3" d="M13.2,228.8c0.1,0.7,0.2,1.3,0.3,2c-0.4,0.4-0.8,0.6-0.8,0.3C12.9,230.3,13.1,229.5,13.2,228.8z"/>
					<path fill="#6BAFD3" d="M13.2,228.7C13.2,228.7,13.2,228.6,13.2,228.7C13.2,228.7,13.2,228.7,13.2,228.7
						C13.2,228.8,13.2,228.7,13.2,228.7z"/>
					<path fill="#6BAFD3" d="M11.8,75.4c0.3-0.6,1.4-1.4,1.3-0.8C13,76.4,13,78.2,12.9,80C12.5,78.4,12,76.8,11.8,75.4z"/>
					<path fill="#95CDE9" d="M12.9,80c1,3.8,1.8,7.8-0.1,10.9C12.7,87.3,12.8,83.6,12.9,80z"/>
					<path fill="#6BAFD3" d="M12.8,91.7l0.2,0.2c-0.2,0.3-0.4,0.5-0.6,0.7c0,0-1,0.9-1,0.4c-0.2-5.8,0.1-11.6,0.3-17.4
						c0-0.1,0-0.2,0.1-0.2c0.3,1.4,0.7,3,1.2,4.6c-0.1,3.6-0.2,7.3-0.1,10.9c-0.3,0.4-0.6,0.8-0.9,1.2C12.2,92,12.5,91.8,12.8,91.7z
						"/>
					<path fill="#6BAFD3" d="M12.8,90.9c0,0.3,0,0.5,0,0.8c-0.3,0.1-0.7,0.3-1,0.4C12.2,91.7,12.5,91.3,12.8,90.9z"/>
					<path fill="#6BAFD3" d="M12.6,149.7c0,0,0,0.1,0,0.1C12.6,149.7,12.6,149.7,12.6,149.7z"/>
					<path fill="#6BAFD3" d="M6.2,122.9c0.9,5.6,1.6,11.1-2.4,15.6c-0.1,0.1-0.7,0.8-0.9,0.5c-3.1-3.7-2.7-9.5-2.6-14
						c0.1-4.8,0.8-9.5,1.1-14.2c0.1,1.1,0.3,2.2,0.6,3.3c0.1,0.2,0.2,0.2,0.5,0c-0.2,2.2-0.4,4.5-0.6,6.7c-0.2,3.1-0.3,6.2,0,9.4
						c0.1,1.4,0.3,5.3,1.6,6.1c2.4,1.6,2-7.6,1.8-9.4c-0.4-3.1-1.2-6.1-1.4-9.3c-0.2-1.6-0.3-3.2-0.4-4.8c0.6-2.1-0.1-4.8-0.4-6.8
						c0-0.1,0-0.1-0.1-0.1c0-0.3,0-0.5,0-0.8c0.3-3.6,1.2-7.3,1.7-10.8C3.6,103.8,4.7,113.8,6.2,122.9z"/>
					<path fill="#95CDE9" d="M5.3,127c0.2,1.8,0.6,11-1.8,9.4c-1.3-0.9-1.4-4.7-1.6-6.1c-0.3-3.1-0.2-6.3,0-9.4
						c0.1-2.3,0.3-4.5,0.6-6.7c0.4-0.3,0.9-0.9,0.9-1c0-0.1,0-0.1,0.1-0.2c0.1,1.6,0.3,3.2,0.4,4.8C4.1,120.9,4.9,123.9,5.3,127z"/>
					<path fill="#6BAFD3" d="M3.2,95.6c0.1-0.5,1.5-1.7,1.4-1.1C4.2,94.9,3.7,95.3,3.2,95.6z"/>
					<path fill="#6BAFD3" d="M3.2,95.6c0.5-0.4,0.9-0.7,1.4-1.1c-0.5,3.4-1.4,7.1-1.7,10.8C2.8,102.1,2.9,98.8,3.2,95.6z"/>
					<path fill="#6BAFD3" d="M3,106.2c0.2,2,1,4.7,0.4,6.8c0,0,0-0.1,0-0.1c0,0,0,0,0,0c-0.2-1.9-0.3-3.8-0.4-5.7c0-0.3,0-0.5,0-0.8
						C3,106.2,3,106.2,3,106.2C2.9,106.1,2.9,106.1,3,106.2C3,106.1,3,106.1,3,106.2z"/>
					<path fill="#6BAFD3" d="M3.4,113c0,0.1,0,0.1-0.1,0.2c0,0.1-0.5,0.7-0.9,1c0-0.2,0-0.4,0.1-0.6c0.3-0.2,0.6-0.5,0.9-0.7
						C3.4,112.9,3.4,112.9,3.4,113z"/>
					<path fill="#6BAFD3" d="M3.4,112.8C3.4,112.8,3.4,112.9,3.4,112.8c-0.3,0.3-0.6,0.5-0.9,0.7c0.1-1.3,0.3-2.6,0.3-4
						C2.9,110.7,3.1,111.8,3.4,112.8z"/>
					<path fill="#6BAFD3" d="M3,107.1c0.1,1.9,0.2,3.8,0.4,5.7c-0.3-1.1-0.5-2.1-0.5-3.3C2.9,108.8,3,108,3,107.1z"/>
					<path fill="#6BAFD3" d="M2.9,106.1c0.1,0,0.1,0.1,0.1,0.2c0,0.3,0,0.5,0,0.8C3,106.8,3,106.5,2.9,106.1z"/>
					<path fill="#6BAFD3" d="M2.9,106.1c0,0.3,0,0.7,0.1,1c0,0.8-0.1,1.6-0.2,2.4C2.8,108.4,2.8,107.3,2.9,106.1
						C2.9,106.1,2.9,106.1,2.9,106.1z"/>
					<path fill="#6BAFD3" d="M2.9,106.1C2.9,106.1,2.9,106.1,2.9,106.1C2.9,106.1,2.9,106.1,2.9,106.1L2.9,106.1
						C2.9,106.1,2.9,106.1,2.9,106.1z"/>
					<path fill="#6BAFD3" d="M2.9,105.3c0,0.3,0,0.5-0.1,0.8v0c0,0,0,0-0.1,0c0,0-0.1,0-0.1,0c-0.4,0.2-1,0.9-1.1,1.2
						c0,0,0,0.1,0,0.1c0,1.1-0.1,2.3-0.2,3.4c-0.4-5,1.1-10.4,1.8-15.2C2.9,98.8,2.8,102.1,2.9,105.3z"/>
					<path fill="#6BAFD3" d="M2.8,106.1C2.8,106.1,2.8,106.1,2.8,106.1c0,1.2,0,2.3,0.1,3.4c-0.1,1.3-0.2,2.6-0.3,4
						c-0.2,0.1-0.3,0.2-0.5,0.3c0.6-1.8-0.2-4.6-0.4-6.4c0,0,0,0,0,0C1.6,107.1,2.3,106.4,2.8,106.1C2.7,106.2,2.8,106.2,2.8,106.1z
						"/>
					<path fill="#6BAFD3" d="M2,113.9c0.2-0.1,0.3-0.2,0.5-0.3c0,0.2,0,0.4-0.1,0.6c-0.2,0.2-0.4,0.2-0.5,0
						c-0.3-1.1-0.5-2.2-0.6-3.3c0.1-1.1,0.2-2.3,0.2-3.4c0,0,0,0,0,0C1.8,109.3,2.6,112.1,2,113.9z"/>
					<path fill="#6BAFD3" d="M1.6,107.4c0-0.3,0.7-1,1.1-1.2C2.3,106.4,1.6,107.1,1.6,107.4C1.6,107.4,1.6,107.4,1.6,107.4z"/>
				</g>
			</g>
		</g>
	</g>
	<g id="water_off_hand4" opacity="0.5">
	</g>
	<g id="water_off_hand4_copy" opacity="0.5">
	</g>
</g>
</svg>
