<?xml version="1.0" encoding="utf-8"?>
<!-- Generator: Adobe Illustrator 18.1.1, SVG Export Plug-In . SVG Version: 6.00 Build 0)  -->
<svg version="1.1" xmlns="http://www.w3.org/2000/svg" xmlns:xlink="http://www.w3.org/1999/xlink" x="0px" y="0px"
	 viewBox="0 0 141.8 495.9" enable-background="new 0 0 141.8 495.9" xml:space="preserve">
<g id="water_pouring_instances_-_boards">
</g>
<g id="water_pour_cycle_x5F_main_comp">
	<g id="POSE2">
		<g id="Layer_6">
		</g>
	</g>
	<g id="POSE3">
	</g>
</g>
<g id="POSE1_2_" opacity="0.5">
	<g id="POSE1_3_">
		<g id="XMLID_33_">
			<g>
				<path fill="#6A5C50" d="M120.6,16.1c-6.7,0.5-14.4,3.2-21,2.9l-0.1-0.4c1.8-0.4,3.7-0.9,5.4-1.7c3.5-1.5,9.3-3.3,13.8-4.3
					l-0.1-0.3c5.1-1.2,12.3-1.1,17.9-1c0.5,0,0.9,0,1.3,0c-0.4-0.1-0.9-0.2-1.3-0.3v-0.2c0.2,0.1,0.4,0.1,0.6,0.2c0,0-0.1,0-0.1,0.1
					c0.1,0,0.1,0,0.2-0.1c1.4,0.6,3.1,1.8,3.4,3.3c-1,0.6-2.4,1-4,1.2C131.4,16.3,124.2,15.8,120.6,16.1z"/>
				<path fill="#A38F7F" d="M124.5,8.1c-7.4-2.7-18.8-0.4-26.4,0.1l-1.9,0c-2.2-0.3-4.9-0.5-7.9-0.6c8.6-1.4,17-4.2,25.8-5.1
					c7.8-0.8,14.9-0.1,22.4,0.6v0v2.7c-0.8,0.3-1.7,0.7-2.5,0.9c-2.8,0.7-6.1,0.3-8.7,1.8l0,0.2c-0.4-0.1-0.9-0.1-1.3-0.2l0-0.1
					C124.1,8.2,124.3,8.1,124.5,8.1z"/>
				<path fill="#A38F7F" d="M59.2,54.3c-0.1,1.6,0.2,3.1,0,4.8c-0.7,4.8-4.7,11.2-6.9,16.2c0.7-3.8,0.3-7.7,2-11.5
					c1.4-3.3,3.8-6,4.1-9.6L59.2,54.3z"/>
				<path fill="#4C3E33" d="M56.5,106c1.2,2.5,0.5,5.9,0.2,8.6c-3-0.3-1.5-5.6-0.7-7C56.2,107,56.4,106.5,56.5,106z"/>
				<path fill="#4C3E33" d="M55,90.4c0.9,0.4,0.5,17.3-3.3,17.1C51.5,103,50.4,93.3,55,90.4z"/>
				<path fill="#4C3E33" d="M49.4,385.5c-1.8-0.4-0.3-9.7-0.3-10.6c0,1.9,0.4,0.9,0.2,0.3C50.1,377,51.1,385.8,49.4,385.5z"/>
				<path fill="#4C3E33" d="M44.5,392.1c1.1,3,3.6,12.5-0.6,12.5c-2.2,0,0.2-10.6,0.3-11.9c-0.1,1.9,0.2,0.2,0.1-0.2
					C44.5,392.3,44.5,392.2,44.5,392.1z"/>
				<path fill="#6A5C50" d="M30.6,270.9c-0.5-3.3-1.4-6.6-2-9.6c-0.1-0.7-0.3-1.4-0.4-2c-1-6.2-2.3-12.2-3.7-18.3
					c-1.7-7.1-1.4-13.8-1.9-21c-0.6-7.7-1.9-15.4-1.3-23.2l-1.1-0.1c0.9-7.5,2.2-15,2.8-22.3c0,0,0,0,0,0.1
					c2.1-4.2,0.3-12.2-0.2-18.1c1.1-11,3.7-22.5,4.7-32.4c1.7-16.3,8.6-31.3,12.1-47.2c3-13.3,8.4-27.7,18.7-37.2
					c2.4-2.2,3.5-3.2,5-6c0.3-0.5-0.6-1.9,0.2-3.3c2.5-4.4,12.9-6.8,18-8.5c0.4-0.1,0.7-0.2,1.1-0.4l0.3,0.5
					c-0.2,0.1-0.3,0.2-0.5,0.4c-4.4,3.5-7,9.2-11,12.9c-4.4,4.1-6.6,6.9-9.1,12.3c-0.7,1.4-2.6,3.8-3,5.3c-0.1,0.6-0.2,1.1-0.2,1.7
					l-0.9,0c-0.2,3.6-2.7,6.4-4.1,9.6c-1.7,3.8-1.3,7.6-2,11.5c-0.2,0.5-0.4,1-0.6,1.4c-0.1,0.2-0.2,0.4-0.2,0.6
					c-4.7,11.9-9.8,23.6-11.9,36.2c-0.5,2.7-0.6,5.3-0.6,7.9l-0.4,0c-0.4,15.1-6,30.3-7.1,45.4c-0.6,7.9-0.8,15.9-0.8,23.8
					c0,3.2,0,6.4,0,9.6c0,1.8-0.5,7.8,0,6.6l0.8,0.1c-1.1,6.9-1.9,13.9-2.1,21.3c-0.3,14.1,1.9,28.2,1.4,42.4
					C30.6,270.8,30.6,270.8,30.6,270.9z"/>
				<path fill="#4C3E33" d="M30.5,206.8c-0.5,1.3,0-4.8,0-6.6c-0.1-3.2,0-6.4,0-9.6c0-8,0.2-15.9,0.8-23.8
					c1.2-15.1,6.8-30.3,7.1-45.4l0.4,0c0,3.1,0,6.3-0.3,9.4c-0.8,7.2-2.1,14-2.4,21.4c-0.5,12.8,1.2,26-1.6,38.7
					c-1.2,5.4-2.2,10.7-3.1,15.9L30.5,206.8z"/>
				<path fill="#BDE5F4" d="M30.4,489c-2.5-11.3-0.7-25.5-0.2-37c0.6,7.3,0.4,14.5,0.4,21.9c0,5,0.5,10.1,0.4,15.1h0H30.4z"/>
				<path fill="#4C3E33" d="M30.1,452c-0.4,11.5-2.2,25.7,0.2,37H16.8c-0.1-7.1-0.9-14.3-0.9-21.5c0.7-1.7,1.5-3.3,1.7-5.4
					c0.3-3.3-0.5-6.6-0.1-9.9c0.6-6.4,3.4-12.4,4.3-18.8c0.1-0.5,0.2-1,0.2-1.5c2.4-13.5,8.7-27,9.7-40.5c0.4,2,0.6,4.1,0.4,6.5
					c-1.1,11.1-4,25.1-4,37.6v0c0,5.3,0.6,10.2,2.1,14.6v0C30.2,450.8,30.2,451.4,30.1,452z"/>
				<path fill="#BDE5F4" d="M28.1,435.5c1.8,3.4,2.2,8.6,2.1,14.6C28.7,445.8,28.2,440.8,28.1,435.5z"/>
				<path fill="#A38F7F" d="M28.6,261.2c0.6,3.1,1.5,6.4,2,9.6c-0.1,2.5,0,5.1,0.1,7.8c0,0.2,0,0.3,0,0.5c0-0.1,0-0.2,0-0.2
					c0.4,10.4,1.5,22.2-2,31.1c-0.6,0.9-1,2.1-1.2,3.3l-2.4-0.4c0.6-3.7,0.6-7.4,0.6-11.1c0-0.5,0-3.8,0-4.8
					c0.2-9.9,4.4-24.7,2.1-35.5L28.6,261.2z"/>
				<path fill="#4C3E33" d="M32.8,44.5c-2.5,4.2-7.8,14-9.7,10.9C20.8,51.6,28.8,46.8,32.8,44.5z"/>
				<path fill="#6A5C50" d="M29.6,382.8c0.6,3.2,1.5,5.9,2.1,8.7c-1,13.5-7.4,27-9.7,40.5l-1.5-0.3c2-9.4-0.2-19.2-2.4-28.8
					c1.8-7.1,11.9-17.2,9-23.9c-2-5.4,2.7-12.8,4.2-18.4c-0.1,2.6-0.3,5.1-0.8,7.7C29.6,373.2,28.8,377.9,29.6,382.8z"/>
				<path fill="#BDE5F4" d="M22.8,156.3c0.5,5.9,2.4,13.8,0.2,18.1c0,0,0,0,0-0.1C22.1,168.7,22.2,162.6,22.8,156.3z"/>
				<path fill="#4C3E33" d="M39.6,76.7c-3.5,15.8-10.5,30.9-12.1,47.2c-1,9.9-3.6,21.4-4.7,32.4c-0.1-1-0.1-2-0.1-2.8
					c0.3-8,0.4-16.2,1.2-24.2c0.8-7.5,2.3-15,3.3-22.5c0.9-6.7,0.5-13.6,1.7-20.3c1.2-6.7,1.3-14.3,3.7-20.7
					c2.1-5.6,5.6-10.5,8.2-15.9c2.8-5.9,2.3-12.1,5.5-17.9c3.1-5.6,7.8-10.4,12.3-14.9l0-0.3c4.5-7.1,18.8-9.3,29.7-9.2
					c3,0,5.7,0.2,7.9,0.6l1.9,0c7.7-0.5,19.1-2.7,26.4-0.1c-0.2,0.1-0.5,0.1-0.7,0.2l0,0.1c0.4,0.1,0.9,0.1,1.3,0.2l0-0.2
					c2.6-1.5,5.9-1,8.7-1.8c0.8-0.2,1.7-0.6,2.5-0.9c1.7-0.7,3.3-1.5,5-1.6c0.6,2.6-2.2,6.1-4.4,7c0,0,0,0-0.1,0
					c-0.2-0.1-0.4-0.2-0.6-0.2V11v0.3c-5.6-0.1-12.8-0.2-17.9,1l0.1,0.3c-4.5,0.9-10.3,2.7-13.8,4.3c-1.7,0.8-3.6,1.3-5.4,1.7
					c-5.8,1.2-11.8,1-16.9,3.5c0.1-0.1,0.3-0.2,0.5-0.4l-0.3-0.5c-0.3,0.1-0.7,0.2-1.1,0.4c-5.2,1.7-15.5,4.1-18,8.5
					c-0.8,1.4,0.1,2.8-0.2,3.3c-1.5,2.7-2.7,3.7-5,6C48.1,48.9,42.6,63.4,39.6,76.7z"/>
				<path fill="#6A5C50" d="M14.4,294.2c-0.5-8.4,3.2-17.2,3.9-25.5h0c-0.1,8.7,0.3,17.4,1,26c0.5,5.7-1.5,11.5-0.8,17
					c0,0.3,0.1,0.7,0.1,1l-1.4,0.2C16.4,306.7,14.8,300.5,14.4,294.2z"/>
				<path fill="#4C3E33" d="M17.2,398.9c-0.3-1.6-0.7-3.3-0.7-5.2c-0.1-6.6-0.4-14-0.2-21.2c-1,6.7-1.6,13.2-0.4,19.9
					C16.2,394.6,16.7,396.7,17.2,398.9z M18.9,258.1c1.1-14.7,0.9-29,0.3-43.5c-0.2-5.8,0.3-11.9,1.1-17.9l1.1,0.1
					c-0.6,7.8,0.7,15.5,1.3,23.2c0.5,7.2,0.2,13.9,1.9,21c1.4,6.1,2.8,12.1,3.7,18.3c0.1,0.7,0.2,1.3,0.4,2l-0.9,0.2
					c2.3,10.8-1.9,25.6-2.1,35.5c0,1,0,4.2,0,4.8c0,3.7,0,7.5-0.6,11.1l2.4,0.4c-1,6.5,3,16.7,2.5,22.4c0.4,8.5,1.6,16.7,1.3,25
					c0,0,0,0,0,0c-1.5,5.5-6.1,12.9-4.2,18.4c2.9,6.6-7.2,16.8-9,23.9c2.2,9.5,4.4,19.3,2.4,28.8c-0.4,2-1,4-1.9,6
					c-0.1,0.2-1.3,1.2-1.5,0.8c-0.6-1.2-1.1-2.5-1.4-3.9c-0.4-1.4-0.6-3-0.8-4.5c-0.5-4.5-0.3-9.2-0.8-13.3
					c-1-7.5-3.4-14.7-4.4-22.2c-2-13.8,3.3-28.5,8.3-41.5c0.5-1.3,1-2.5,1.5-3.7c0-0.1,0.2-0.3,0.5-0.4c1.8-6.2,3.3-11.9,1.6-19.6
					c-0.1-5-1.9-10.6-2.7-15.6c-0.1-0.4-0.1-0.7-0.2-1.1c0-0.3-0.1-0.7-0.1-1c-0.6-5.5,1.3-11.3,0.8-17c-0.7-8.6-1.1-17.3-1-26
					C18.4,265.2,18.6,261.6,18.9,258.1z"/>
				<path fill="#6A5C50" d="M18,353.2c0.5-3.5,1-7.5,0.8-9.1c-5.2-64.3-0.5-17.8-0.8-24.8c-0.1-1.8-0.3-3.5-0.5-5.2
					c-0.1-0.3-0.1-0.7-0.2-1l1.4-0.2c0.1,0.4,0.1,0.7,0.2,1.1c0.9,5,2.6,10.6,2.7,15.6c1.7,7.8,0.2,13.4-1.6,19.6
					c-0.2,0.2-0.5,0.3-0.5,0.4C19,350.7,18.5,351.9,18,353.2z"/>
				<path fill="#BDE5F4" d="M15,440.3c0-3.4,0-6.8,0-10.2c0.2,1.5,0.4,3.1,0.8,4.5c-0.3,1.9-0.5,3.8-0.5,5.7H15z"/>
				<path fill="#6A5C50" d="M21.7,433.5c-1,6.3-3.7,12.4-4.3,18.8c-0.3,3.3,0.5,6.6,0.1,9.9c-0.2,2-1,3.6-1.7,5.4
					c-0.3,0.9-0.7,1.7-0.9,2.7c0.8-8.6-0.7-17.3,0-25.9l0.2,0c-0.2-1.3-0.3-2.3-0.2-2.9c0-0.4,0-0.7,0-1.1h0.2
					c0-1.9,0.2-3.8,0.5-5.7c0.4,1.4,0.8,2.7,1.4,3.9c0.2,0.5,1.4-0.5,1.5-0.8c0.8-2,1.4-4,1.9-6L22,432
					C21.9,432.5,21.8,433,21.7,433.5z"/>
				<path fill="#4C3E33" d="M3.5,340.8c0.5,1.7,4.1,13.1-0.2,12.9C-0.2,353.5,2,343.7,3.5,340.8z"/>
			</g>
		</g>
	</g>
</g>
<g id="POSE2_1_" opacity="0.5">
</g>
<g id="POSE3_1_" opacity="0.5">
</g>
<g id="ch06-12-1">
	<g id="water_off_hand4" opacity="0.5">
	</g>
	<g id="water_off_hand4_copy" opacity="0.5">
	</g>
</g>
<g id="Layer_12">
	<g id="basin">
		<g id="Layer_15">
		</g>
		<g id="Layer_20">
		</g>
		<g id="Layer_14">
		</g>
		<g id="Layer_17" opacity="0.49">
			<g id="Layer_16">
			</g>
		</g>
		<g id="Layer_17_copy_2" opacity="0.49">
			<g id="Layer_16_copy">
			</g>
		</g>
		<g id="Layer_17_copy" opacity="0.49">
		</g>
	</g>
</g>
<g id="Layer_22">
	<g id="Layer_23">
	</g>
	<g id="Layer_24">
	</g>
	<g id="Layer_24_copy">
	</g>
</g>
<g id="ch02A-09-4">
	<g id="dirtydrips_x5F_fromholes">
	</g>
	<g id="dirtydrips_x5F_fromholes_copy">
	</g>
</g>
<g id="muddy_x5F_water_x5F_pose1">
</g>
<g id="muddy_x5F_water_x5F_pose2" opacity="0.61">
</g>
<g id="muddy_x5F_water_x5F_pose2_copy">
</g>
</svg>
