<?xml version="1.0" encoding="utf-8"?>
<!-- Generator: Adobe Illustrator 18.1.1, SVG Export Plug-In . SVG Version: 6.00 Build 0)  -->
<!DOCTYPE svg PUBLIC "-//W3C//DTD SVG 1.1//EN" "http://www.w3.org/Graphics/SVG/1.1/DTD/svg11.dtd">
<svg version="1.1" xmlns="http://www.w3.org/2000/svg" xmlns:xlink="http://www.w3.org/1999/xlink" x="0px" y="0px"
	 viewBox="0 0 257.3 308.2" enable-background="new 0 0 257.3 308.2" xml:space="preserve">
<g id="water_pouring_instances_-_boards">
</g>
<g id="water_pour_cycle_x5F_main_comp">
	<g id="POSE2">
		<g id="Layer_6">
		</g>
	</g>
	<g id="POSE3">
	</g>
</g>
<g id="POSE1_2_" opacity="0.5">
</g>
<g id="ch04-06-1_x5F_comp">
	<g id="ch04-06-1_x5F_comp_1_">
		<g id="linked_files_for_comp">
		</g>
		<g id="comp">
		</g>
	</g>
</g>
<g id="ch04-06-1_x5F_water_splash_-_Geoff_x27_s">
	<g id="pose4">
	</g>
	<g id="pose3">
	</g>
	<g id="pose2">
	</g>
	<g id="pose1">
	</g>
</g>
<g id="ch04-06-1_x5F_water_splash_-_Stu_x27_s">
	<g id="water_x5F_alt_splash_x5F_1a_to_4a">
	</g>
	<g id="water_x5F_alt_splash_x5F_DIRTY">
		<g id="_x31_alt_1_">
			<g id="water3a_1_">
				<g opacity="0.8">
					<path fill="#A3907F" d="M157.5,85.3c3.4,0.9,6,2.3,9.1,4.1c1.2,0.7,3,1.4,3.8,2.7c0.7,1.2,0.5,3,1.1,4.3
						c1.4,3.1,4.7,5.2,6.6,7.8c2.5,3.3,4.7,7.1,6.4,11.1c1.8,4.3,11.1,24.8-1.3,21.8c-6.9-1.7-10.3-14.4-16.3-18.2
						c-3.2-2-5.9-1.3-8.8,0.9c-1.3,0.9-1.8,2.3-3.5,2.7c-1.4,0.3-3.5-1-4.8-0.4c-3.2,1.6-1.5,9.7-0.6,12.5c1.9,6,3.2,16.7-1.4,12.4
						c-3-2.9-3.4-10.6-4.1-14.9c-0.6-3.8-4.3-12.1-5.7-6.4c-0.7,2.9-1.8,4.7-4.8,3.3c-2.7-1.3-4.3-7.1-4.8-9.9c-0.3-1.7,0-4.5-1-5.8
						c-0.1-0.1-1.7-0.2-2.1-0.6c-0.7-0.6-0.9-2.2-1.7-2.7c-5.3-3.1-1.9,8.7-5.2,10.4c-6,3.1-8.5-6.2-9.2-11c-0.5-3.1,0.8-6.5-1-9.2
						c-2.3-3.4-6.7-2.9-9.9-1.5c-4.9,2-7,6.3-11.1,9.5c-3.1,2.4-9.6,1.1-8.5-4.8c0.7-3.6,6-6,8.3-8.1c2.9-2.6,6.2-8.9,1.9-12
						c-3.4-2.4-8.5,2.4-11.4-0.3c-5.1-4.8,4.9-7.4,7.6-7c4.8,0.8,9.7,0.8,14.5,1.8c2.7,0.6,4.1,0.6,6.9,0c1.6-0.4,5.1-1.9,6.3-0.6
						c3.3,3.8-9.9,5.1-11.7,5.6c-1.1,7.2,7.6,1.2,9.8,4.1c0.4,0.5,0.2,2,0.4,2.6c0.2,0.4,1.4,1,1.8,2.2c0.9,2.4-0.6,8.9,2.4,6.2
						c3-2.6,5-10.7,9.1-12c2.9-1,2.9,4.3,3.2,7.1c0.5,4.1-0.2,9.7,2.4,12.9c3.3,4,5-0.4,5-4.1c0-3.8-0.4-8.4-1.1-12.1
						c2.2,2,4.5,6.8,6,9.7c1.2,2.4,3.4,7.8,5.9,8.9c3.9,1.7,0.5-3.5,1.3-5.6c1.5-3.8,4,1.5,6,1.9c1.7-2.9,4.7,4.2,6.9,2.6
						c2.2-1.6-2.5-7.9-3.2-9.3c3.1-1.5,4.6,2.5,7.6,1.7c0.6-2-1.1-2.7-2.4-3.6c-2-1.5-2.2-2.2-3.5-4.1c-2.5-3.3-8.9-0.6-11.2-4.9
						c-0.6-1.1,0.5-2.6,0-3.5c-0.8-1.3-2.8-0.5-3.8-1.1c-2.1-1.2-1.6-3.5-2.5-5.7c2.8-1,6.6,1.1,8.8,2.7
						C153.1,82,153.5,84.2,157.5,85.3z"/>
					<path fill="#A3907F" d="M117.4,76.1c2,0,3.1-0.2,4.7,1.3c1.3,1.3,1.2,3,3.3,3.2c1.5,0.2,3-2.1,4.1-0.9c0.8,0.8-0.5,3.4,0.3,4.6
						c2,3.2,8.4,1.5,10-0.8c1.5-2.1,1.4-4.9,3.4-6.5c3-2.4,5.8,0.3,9.1,0c5.3-0.4,1.3-4.4,1.1-7.4c-0.3-3.9,5.3-2.1,7.8-0.7
						c5.1,2.9,8.8,5,14.3,5.2c3.6,0.2,12.1-1.6,9.4-7.3c-1-2.2-2.3-2.2-4.2-2.3c-3.1-0.2-6-0.5-8.8-2.1c-5.6-3.3-1.4-8.9,3.2-9.9
						c4.6-1,9.5,2.6,13.9,4.1c1.5,0.5,4.6,1.9,5.9,0.2c1.6-2.2-1-4.6-2.4-5.5c-5.2-3.5-13.1-6.8-18.8-3.8c-3.5,1.8-5.6,6.5-8.3,9.4
						c-2.5,2.8-5.5,4.2-8.9,5.3c-1.7,0.6-7.3,2.4-8.5-0.2c-1.4-3.1,4.3-4.3,5.5-6.3c1.9-3.2-0.4-5.3-3.2-3c-2.6,2.2-3,6.5-6.1,8.7
						c-3.2,2.2-4.6,2-5.5-1.7c-0.7-2.9-2-6.2-5.5-2.9c-2,1.9-0.2,4.8-2.5,6.2c-0.7,0.5-1.7-0.1-2.4,0c-1.3,0.3-3.2,2-4.5,0.8
						c-0.9-0.8-0.5-3.4-1.2-4.7c-1.4-2.4-5.6-4.5-7.2-1.3c-1.2,2.3,1.2,4.3,2.3,5.8c0.7,1,2,3.6,1.4,4.9c-1,2-3.5,0.5-5.2,0.9
						c-2.6,0.5-4,1.8-1.5,3.9C112.8,73.8,117.1,76.1,117.4,76.1z"/>
					<path fill="#A3907F" d="M111.4,41.6c-1.4-0.7-1.9-1.5-3.5-1.7c-1.1-0.2-2.1,0.3-3.1,0c-1.9-0.7-4.3-4.5-2.2-6.4
						C106.3,30,115.6,39.6,111.4,41.6z"/>
					<path fill="#A3907F" d="M110.6,59.1c-0.8-2.5-3.7-5.8-5.9-7.1c-2.2-1.3-5.1-0.9-6.9-3c-2.5-2.9-1.1-6.1,2.3-4.4
						c2.5,1.2,5,2.8,6.7,5.3C108.2,51.6,111.6,57.3,110.6,59.1z"/>
					<path fill="#A3907F" d="M140.4,55c0.8-1.9-1.2-13.8,3.4-10.5C146.3,46.2,143.3,52.9,140.4,55z"/>
					<path fill="#A3907F" d="M147.1,36.9c-1.5-0.9-12.4-3.6-8-7.2C142.7,26.6,149.4,36.9,147.1,36.9z"/>
					<path fill="#A3907F" d="M157.6,52.5c-0.1-2.6,4-10.5,6.1-5.3c1.3,3.1-3.5,5.7-5.7,6c-0.5-1-0.4-2.2,0.4-2.9"/>
					<path fill="#A3907F" d="M173.2,34.6c1.5-2.7,8.3-0.4,4.9,1.8c-1.3,0.8-4.9,0.1-5.1-1.7c0.6-0.3,1.3-0.4,1.8-0.2"/>
					<path fill="#A3907F" d="M183.2,41.3c1.8-1.6,5.7-0.5,7.5,0.7c1.8,1.2,3.8,3.4,0.6,4.1c-1.8,0.4-7.5-3.2-7.6-4.8
						C184.1,41.1,184.2,40.7,183.2,41.3z"/>
					<path fill="#A3907F" d="M194,111.1c2.6-0.9,4.5,7.1,5.1,9.4c0.7,2.7,4.3,7.2,4.4,1.9c0-4.8-4.9-10.4-8.8-11.5
						C194.3,111.6,194.7,111.7,194,111.1z"/>
					<path fill="#A3907F" d="M215,132.1c-0.2,1.2,0.3,2.4,0.2,3.6c0,1.2-0.6,2.5-0.6,3.7c0,1.8,0.3,6.1,2.9,5.6
						C221.2,144.3,217.1,132.6,215,132.1z"/>
					<path fill="#A3907F" d="M231.2,109.8c0.3,1.3,1.4,11.2,3.6,7.4c1-1.8-0.4-8.7-3.2-7.1c-0.2,0.8,0,1.1,0.2,1.2"/>
					<path fill="#A3907F" d="M190.2,212.7c1.5,1.9-1.3,8-1.1,10.7c0.2,2.3,0.9,7.4,3.6,4.5C196.2,224.3,192.3,217,190.2,212.7z"/>
					<path fill="#A3907F" d="M183.3,223.4c-0.1,2.7-1,5.7-0.4,8.4c0.6,2.4,2.4,3.4,3.1,0.2C186.5,230,184.8,220.3,183.3,223.4z"/>
					<path fill="#A3907F" d="M155.4,199.5c0.6,2.5,2.7,4.6,2.5,7.4c-0.1,2.8-2.9,3.8-4.7,1.5c-2.8-3.6-1.4-10.5-2.5-14.9
						C151.6,195.1,153.8,207.1,155.4,199.5z"/>
					<path fill="#A3907F" d="M142.2,198c1.4,2.6,2.1,7.7,0.9,10.3c-1.5,3.5-3.2,2.6-3.8-1c-0.4-2.4,0.6-4,1.2-6.2
						c0.3-1.2,1.6-6.4,2.8-2.1C143.3,199.4,143.1,199.7,142.2,198z"/>
					<path fill="#A3907F" d="M111.2,189c0.3,3.8,1.2,5.4,3,8.5c1.3,2.2,1.2,5.4-2.1,3.9C108.9,199.9,108.4,192.3,111.2,189z"/>
					<path fill="#A3907F" d="M89.7,161.4c-0.5,3.4,0,6.6,0.6,10c0.2,1,0.2,3.1,1.1,3.7c1.3,0.8,2.3-0.4,2.4-1.7
						c2.1,1.7,0.1,2.9-0.9,4.2c-0.9,1.2-1.6,1.9-0.7,4c1.2,2.9,7.1,2.6,6.2,6.9c-0.4,2.3-3.5,3.2-5.2,2.2c-1.3-0.8-2-3.5-2.5-5
						c-1.1-3.5-1.2-7-1.6-10.6c-0.3-2.9-1-5.8-1.1-8.7C88,165,88.4,160,89.7,161.4z"/>
					<path fill="#A3907F" d="M83.1,171c0.6,2.9,0,9.9-3.6,10.2c-1-2.4-1.4-4.8-2.5-7.2c-1.5-3.1-3.5-3.7-3.5,0.6
						c0,4.6,1.4,10.3-3.9,11.2c-1.3-1.5-1.2-4-1.4-6c-0.5-3.8-1.6-7.5-1.5-11.3c0.1-5.2,0-15.5,4.4-18.8c1.3,1.9-0.7,6.7-0.8,9
						c-0.2,2.7-0.6,6.4,0.1,9.1c1.4-0.3,2.1-3.6,3-5c1.3-1.9,2.7-3.1,5-3.3c0.6,2.9-3,6.8-1,10.2c1.2,2,4.7,3,5-0.2
						C82.5,170.5,82.8,171.7,83.1,171z"/>
					<path fill="#A3907F" d="M57.8,138.4c-0.5,0.7,1.9,6.3,2.2,8c0.3,1.7,1.2,7.9,2.9,3.8C64.7,145.8,59.2,141.5,57.8,138.4z"/>
					<path fill="#A3907F" d="M149.7,111.6c1.5,3,5.6,5.3,7.6,8.1c2.4,3.3,4.8,8.1,5.4,12.3c0.6,4.1-2.7,6.6-5.7,3.3
						c-2.2-2.5-3.6-7-4.3-10.3C152.1,122.6,149.2,113.7,149.7,111.6z"/>
				</g>
				<g opacity="0.7">
					<path fill="#6A5C50" d="M136.8,67.5c0,0,0.1,0.1,0.3,0.2c0.2,0.1,0.4,0.3,0.8,0.4c0.3,0.2,0.7,0.3,1.2,0.4
						c0.5,0.1,1,0.2,1.6,0.2c0.6,0,1.3,0,1.9-0.1c0.7-0.1,1.4-0.2,2.2-0.4c0.7-0.2,1.5-0.4,2.3-0.6c0.8-0.2,1.5-0.5,2.4-0.8
						c0.8-0.3,1.7-0.5,2.5-0.7c0.8-0.2,1.7-0.3,2.5-0.4c0.8-0.1,1.6-0.1,2.4-0.1c0.4,0,0.8,0,1.1,0.1c0.4,0.1,0.7,0.1,1,0.2
						c0.3,0.1,0.6,0.2,0.9,0.3c0.3,0.1,0.5,0.3,0.8,0.4c0.2,0.2,0.4,0.3,0.6,0.4c0.2,0.1,0.3,0.3,0.5,0.5c0.3,0.3,0.4,0.6,0.5,0.7
						c0.1,0.2,0.1,0.3,0.1,0.3s-0.1-0.1-0.2-0.2c-0.2-0.1-0.3-0.3-0.7-0.5c-0.3-0.2-0.7-0.3-1.1-0.5c-0.2,0-0.5-0.1-0.8-0.2
						c-0.3,0-0.6-0.1-0.8-0.1c-0.6,0-1.2,0-1.9,0.1c-0.7,0.1-1.4,0.2-2.2,0.4c-0.8,0.1-1.5,0.4-2.3,0.6c-0.8,0.2-1.6,0.5-2.4,0.7
						c-0.8,0.2-1.6,0.5-2.5,0.7c-0.8,0.2-1.7,0.4-2.5,0.5c-1.6,0.2-3.2,0.2-4.5-0.1c-0.7-0.1-1.3-0.4-1.7-0.6
						c-0.5-0.2-0.9-0.5-1.2-0.8c-0.3-0.2-0.5-0.5-0.6-0.6C136.9,67.6,136.8,67.5,136.8,67.5z"/>
					<path fill="#6A5C50" d="M153.3,72.6c0.7,0.2,1.3,0.7,1.7,1.4c0.4,0.6,0.6,1.4,0.7,2.2l0,0.2l-0.3,0.1c-0.8,0.3-1.6,0.6-2.5,0.8
						c-0.9,0.1-1.8,0.1-2.7,0c-1.7-0.2-3.4-0.5-4.8-0.3c-0.7,0.1-1.3,0.4-1.8,0.8c-0.2,0.2-0.4,0.5-0.6,0.7
						c-0.1,0.2-0.2,0.3-0.2,0.4c-0.1,0.2-0.2,0.4-0.2,0.5c-0.3,0.7-0.4,1.4-0.6,2.3c-0.1,0.5-0.3,1-0.7,1.5
						c-0.4,0.5-0.8,0.8-1.2,1.1c-0.4,0.3-0.8,0.5-1.3,0.6c-0.4,0.2-0.9,0.3-1.3,0.4c-0.9,0.2-1.8,0.4-2.7,0.4
						c-0.9,0-1.9-0.1-2.8-0.5c-0.4-0.2-0.9-0.4-1.3-0.7c-0.4-0.3-0.8-0.6-1.1-1.1c-0.3-0.4-0.4-0.9-0.6-1.3l-0.1-0.3l-0.1-0.3
						c0,0,0,0,0-0.1c0-0.1,0-0.2,0-0.3c0.1-0.3,0.2-0.5,0.2-0.7c0.1-0.2,0.1-0.3,0.1-0.5c0-0.1,0-0.2,0-0.2
						c-0.3-0.4-0.4-0.5-0.7-0.6c-0.5-0.1-1.3,0.4-1.9,0.9c-0.6,0.6-1.2,1.2-1.7,1.9c0.4-0.8,0.8-1.5,1.3-2.2c0.3-0.4,0.6-0.7,0.9-1
						c0.4-0.3,0.8-0.5,1.4-0.5c0.3,0,0.6,0.1,0.8,0.3c0.3,0.2,0.4,0.3,0.5,0.5c0.3,0.4,0.3,0.7,0.3,1c0,0.3-0.1,0.5-0.1,0.8
						c-0.1,0.2-0.1,0.4-0.1,0.5c0,0,0-0.1,0-0.1c0-0.1,0,0,0,0l0,0c0,0-0.1-0.2,0-0.1l0,0l0,0l0,0.1l0.1,0.3c0.2,0.4,0.3,0.7,0.5,1
						c0.4,0.5,1.1,0.9,1.7,1.1c0.7,0.2,1.4,0.3,2.2,0.2c0.8,0,1.5-0.2,2.2-0.4c0.4-0.1,0.7-0.2,1.1-0.4c0.3-0.1,0.7-0.3,1-0.5
						c0.3-0.2,0.5-0.4,0.7-0.6c0.2-0.2,0.2-0.5,0.3-0.8c0.2-0.7,0.3-1.6,0.7-2.5c0.1-0.2,0.2-0.4,0.3-0.6c0.1-0.2,0.2-0.4,0.4-0.7
						c0.3-0.4,0.6-0.8,1-1.2c0.8-0.7,1.9-1,2.8-1.1c1.9-0.2,3.6,0.3,5.2,0.6c0.8,0.2,1.6,0.3,2.4,0.3c0.8,0,1.6-0.2,2.4-0.4
						l-0.3,0.4c0.1-0.7,0-1.3-0.3-2C154.4,73.6,154,73,153.3,72.6z"/>
					<path fill="#6A5C50" d="M124.7,71.1c0,0-0.2-0.2-0.5-0.5c-0.3-0.3-0.7-0.9-1-1.6c-0.2-0.4-0.3-0.8-0.4-1.3
						c-0.1-0.5-0.2-1,0-1.7c0.1-0.6,0.5-1.2,1-1.6c0.5-0.4,1-0.7,1.6-0.9c1.1-0.4,2.1-0.5,3-0.7c0.9-0.1,1.7-0.2,2.3-0.4
						c0.3-0.1,0.6-0.2,0.8-0.4c0.1-0.1,0.2-0.2,0.3-0.2c0.1-0.1,0.2-0.2,0.2-0.2c0.2-0.3,0.3-0.6,0.3-0.6c0,0,0.1,0.2,0,0.7
						c0,0.2-0.1,0.5-0.3,0.8c-0.2,0.3-0.5,0.6-0.8,0.9c-0.7,0.5-1.6,0.9-2.5,1.2c-0.9,0.3-1.8,0.5-2.6,0.8c-0.4,0.1-0.8,0.3-1,0.5
						c-0.3,0.2-0.5,0.4-0.6,0.7c-0.1,0.3-0.2,0.6-0.2,1c0,0.4,0,0.7,0,1.1c0.1,0.7,0.2,1.3,0.3,1.7
						C124.7,70.9,124.7,71.1,124.7,71.1z"/>
					<path fill="#6A5C50" d="M148.2,79.6c0,0,0.1,0.1,0.3,0.2c0.2,0.1,0.4,0.2,0.8,0.4c0.4,0.1,0.9,0.3,1.4,0.6
						c0.3,0.1,0.6,0.3,0.9,0.5c0.2,0.1,0.3,0.2,0.5,0.3c0.1,0.1,0.3,0.3,0.5,0.4c0.3,0.3,0.6,0.6,0.9,0.8c0.3,0.2,0.6,0.4,1,0.5
						c0.4,0.1,0.9,0.3,1.3,0.4c0.5,0.1,1,0.3,1.5,0.5c2.1,0.6,4.4,1.4,6.9,2.5c1.2,0.5,2.5,1.1,3.9,1.9c0.7,0.4,1.3,0.9,2,1.5
						c0.6,0.6,1.2,1.3,1.6,2.2c0.1,0.2,0.2,0.4,0.3,0.7l0.1,0.3l0.1,0.4c0.1,0.5,0.1,0.9,0.2,1.3c0.1,0.8,0,1.6,0.2,2.2
						c0.1,0.3,0.1,0.6,0.3,0.9c0.1,0.3,0.3,0.6,0.5,0.9c0.4,0.6,0.9,1.2,1.5,1.8c2.3,2.4,4.5,5.2,6.5,8.1c2,2.9,3.8,6,5.5,9.2
						c0.8,1.6,1.5,3.3,2.2,5c0.6,1.7,1.2,3.3,1.7,5.1c0.4,1.8,0.8,3.6,0.5,5.7l-0.2,0.8c-0.1,0.3-0.2,0.5-0.3,0.8
						c-0.1,0.3-0.3,0.5-0.4,0.8l-0.5,0.6c-0.1,0.1-0.3,0.4-0.5,0.6c-0.2,0.2-0.4,0.4-0.7,0.6c-0.4,0.3-1,0.6-1.5,0.8
						c-1.1,0.4-2.2,0.4-3.2,0.2c-1-0.2-1.9-0.6-2.8-1c-0.8-0.5-1.6-1-2.2-1.7c-0.6-0.6-1.2-1.5-1.6-2c-1.8-2.8-2.8-5.5-4-7.8
						c-1.2-2.3-2.5-4.1-4-5.5c-0.7-0.6-1.5-1.1-2.3-1.5c-0.8-0.3-1.6-0.5-2.3-0.6c-1.5-0.2-2.7-0.2-3.6-0.3
						c-0.8-0.1-1.3-0.1-1.3-0.1l0-0.3c0,0,0.4,0,1.3-0.1c0.8-0.1,2-0.3,3.6-0.3c1.6-0.1,3.8,0.4,5.7,1.8c1.9,1.3,3.7,3.3,5.1,5.7
						c1.4,2.3,2.7,5,4.2,7.3c0.5,0.7,0.8,1.1,1.3,1.6c0.5,0.4,1,0.9,1.6,1.2c1.1,0.6,2.4,0.9,3.4,0.6c0.2-0.1,0.5-0.2,0.7-0.4
						c0.1-0.1,0.2-0.2,0.3-0.2c0.1-0.1,0.2-0.1,0.3-0.3l0.2-0.2l0.1-0.1l0.1-0.1l0,0c0,0,0.1-0.1,0,0.1c0.1-0.1,0.1-0.2,0.2-0.3
						l0.2-0.4l0.1-0.5c0.3-1.3,0.1-3-0.2-4.6c-0.3-1.6-0.8-3.3-1.2-5c-0.4-1.7-0.9-3.3-1.5-5c-1.2-3.3-2.7-6.5-4.7-9.3
						c-1.9-2.9-4.3-5.4-6.8-7.5c-0.6-0.5-1.3-1.1-1.9-1.8c-0.3-0.3-0.6-0.7-0.8-1.1c-0.2-0.4-0.4-0.8-0.6-1.3
						c-0.3-0.9-0.4-1.8-0.5-2.5c-0.1-0.4-0.1-0.7-0.2-1l-0.1-0.2l-0.1-0.3l-0.2-0.4c-0.5-1-1.5-1.8-2.6-2.5
						c-1.1-0.7-2.3-1.3-3.5-1.8c-2.3-1.2-4.6-2-6.5-2.9c-1-0.4-1.9-0.8-2.8-1.3c-0.5-0.2-0.9-0.5-1.3-0.9c-0.4-0.4-0.6-0.7-0.8-1
						c-0.1-0.1-0.2-0.3-0.3-0.4c-0.1-0.1-0.2-0.2-0.3-0.4c-0.2-0.2-0.5-0.4-0.7-0.6c-0.5-0.3-0.9-0.6-1.3-0.8
						c-0.4-0.2-0.6-0.5-0.8-0.6c-0.2-0.2-0.2-0.3-0.2-0.3L148.2,79.6z"/>
					<path fill="#6A5C50" d="M151.3,120.9c0,0,0.1,0.2,0,0.6c0,0.2-0.2,0.4-0.4,0.6c-0.3,0.2-0.6,0.2-1,0.3c-0.4,0-0.8,0.1-1.2,0.1
						c-0.4,0.1-0.8,0.2-1.1,0.4c-0.5,0.5-0.4,1.6-0.2,2.8c0.1,0.6,0.2,1.2,0.3,1.9c0.1,0.7,0.2,1.3,0.3,2c0.2,1.4,0.6,2.8,0.9,4.2
						c0.4,1.4,0.8,2.9,1.3,4.4c0.5,1.4,1.2,3,1.6,4.7c0.2,0.8,0.3,1.7,0.3,2.7l-0.1,0.7c-0.1,0.3-0.1,0.5-0.2,0.8
						c-0.1,0.3-0.3,0.5-0.5,0.7c-0.2,0.2-0.4,0.5-0.7,0.6l-0.4,0.2l-0.2,0.1l0,0c0,0-0.3,0.1-0.2,0l0,0l-0.1,0l-0.3,0.1
						c-0.2,0-0.4,0-0.6,0c-0.8-0.1-1.1-0.4-1.5-0.8c-0.7-0.6-1.2-1.4-1.6-2.1c-0.8-1.4-1.3-2.8-1.7-4.3c-0.3-1.5-0.4-2.8-0.5-4
						c-0.2-2.4-0.2-4.5-0.2-5.9c0-1.4-0.1-2.2-0.1-2.2s0.2,0.8,0.5,2.2c0.3,1.4,0.6,3.4,1,5.8c0.2,1.2,0.5,2.5,0.8,3.7
						c0.4,1.2,1,2.6,1.8,3.8c0.4,0.6,0.8,1.2,1.3,1.5c0.1,0.1,0.2,0.1,0.3,0.2c0.1,0,0.1,0,0.1,0l0.1,0c0,0,0,0,0,0c0,0,0,0,0,0
						l0.3-0.1l0.1,0l0,0c0.1,0-0.2,0-0.1,0l0,0l0.1,0c0,0,0.1-0.1,0.1-0.1c0.3-0.2,0.5-0.6,0.5-1.3c0-0.7-0.1-1.4-0.3-2.1
						c-0.3-1.5-0.9-3-1.4-4.5c-0.5-1.6-0.9-3.1-1.2-4.6c-0.3-1.5-0.5-3-0.7-4.4c-0.1-0.7-0.1-1.4-0.2-2.1c0-0.7-0.1-1.2-0.1-1.9
						c0-0.6-0.1-1.2,0-1.8c0-0.3,0.1-0.6,0.2-0.9c0.2-0.3,0.3-0.6,0.6-0.8c0.5-0.4,1.1-0.4,1.5-0.4c0.4,0,0.8,0,1.2,0.1
						c0.7,0.1,1.2-0.1,1.3-0.5C151.4,121.1,151.3,120.9,151.3,120.9z"/>
					<path fill="#6A5C50" d="M141.5,124.8c0,0-0.1,0-0.4-0.1c-0.1,0-0.3,0-0.5-0.1c-0.2,0-0.4,0-0.5,0c-0.2,0.1-0.4,0.1-0.4,0.2
						c-0.1,0-0.1,0.1-0.1,0.1c0,0,0,0.1-0.1,0.2c-0.1,0.3-0.2,1-0.3,1.8c-0.1,0.4-0.2,0.9-0.3,1.4c-0.2,0.5-0.4,1.1-0.9,1.6
						c-0.3,0.3-0.6,0.6-1,0.7l-0.4,0.1c-0.1,0-0.4,0.1-0.6,0.1c-0.8,0.1-1.5-0.1-2.1-0.4c-1.1-0.7-1.8-1.5-2.6-2.4
						c-0.7-0.9-1.5-1.7-2.2-2.7c-0.2-0.3-0.3-0.5-0.5-0.8c-0.1-0.2-0.3-0.5-0.4-0.8c-0.2-0.6-0.4-1.2-0.5-1.8
						c-0.2-1.2-0.2-2.3-0.3-3.3c-0.1-1-0.1-1.9-0.2-2.7c0-0.2,0-0.4-0.1-0.6l0-0.1l0,0c0,0,0-0.1,0,0.1l0,0l0,0l0-0.2
						c0-0.1-0.1-0.3-0.1-0.3c0-0.2-0.2-0.5-0.3-0.8c-0.3-0.6-0.8-1.1-1.2-1.6c-0.4-0.5-0.9-0.9-1.2-1.3c-0.3-0.4-0.6-0.7-0.7-1
						c-0.1-0.2-0.2-0.4-0.2-0.4l0.2-0.2c0,0,0.5,0.2,1.4,0.6c0.5,0.2,1,0.4,1.7,0.7c0.6,0.3,1.4,0.8,2.1,1.4c0.4,0.4,0.7,0.7,1,1.4
						c0.1,0.2,0.1,0.2,0.2,0.4l0.1,0.2l0,0l0,0l0,0.1l0,0.1c0.1,0.3,0.2,0.5,0.2,0.8c0.2,1.1,0.3,2.2,0.2,3.3
						c-0.1,1.1-0.2,2.1-0.2,3.1c0,0.5,0,1,0,1.5c0,0.2,0,0.5,0.1,0.8c0,0.2,0.1,0.5,0.1,0.7c0.2,1,0.7,2,1.4,2.8
						c0.6,0.8,1.6,1.4,2.4,1.5c0.2,0,0.4,0,0.6,0c0.1-0.1,0.3-0.1,0.4-0.2c0,0,0,0,0.1-0.1l0.3-0.2l0.1-0.1l0,0l0,0l0,0
						c0.1-0.1-0.1,0.1-0.1,0.1l0-0.1c0,0,0,0,0.1-0.1c0.2-0.4,0.5-1.2,0.7-1.9c0.3-0.8,0.5-1.6,1.2-2.4c0.3-0.4,0.8-0.7,1.3-0.7
						c0.5-0.1,0.8,0.1,1.2,0.2c0.3,0.2,0.5,0.3,0.7,0.4c0.1,0.1,0.3,0.3,0.4,0.4c0.2,0.2,0.3,0.3,0.3,0.3L141.5,124.8z"/>
					<path fill="#6A5C50" d="M125,106.7c0,0-0.1,0.1-0.4,0.2c-0.3,0.2-0.7,0.4-1.2,0.7c-0.2,0.2-0.5,0.4-0.7,0.6
						c-0.2,0.3-0.5,0.5-0.7,0.8c-0.4,0.6-0.8,1.4-1,2.3c-0.2,0.9-0.3,2-0.3,3.1c-0.1,1.1,0,2.4-0.4,3.8c-0.1,0.3-0.2,0.7-0.4,1
						l-0.3,0.5c-0.1,0.2-0.3,0.3-0.4,0.5c-0.1,0.2-0.3,0.3-0.4,0.5l-0.5,0.4c-0.2,0.1-0.3,0.2-0.6,0.4c-0.2,0.1-0.3,0.1-0.5,0.2
						c-0.9,0.3-1.8,0.3-2.7,0c-0.8-0.3-1.5-0.8-2-1.3c-1.1-1.1-1.8-2.3-2.4-3.6c-0.6-1.3-1-2.5-1.4-3.8c-0.3-1.3-0.6-2.5-0.6-3.7
						c-0.1-1.3,0.1-2.4,0.2-3.4c0.2-2,0.3-3.7,0.1-4.8c-0.1-0.6-0.3-1-0.5-1.2c-0.2-0.2-0.3-0.3-0.3-0.3s0.2,0.1,0.4,0.3
						c0.2,0.2,0.6,0.6,0.8,1.2c0.4,1.2,0.6,2.9,0.6,4.9c0,1,0,2.1,0.1,3.2c0.2,1.1,0.5,2.2,0.8,3.4c0.4,1.2,0.9,2.3,1.4,3.5
						c0.6,1.1,1.3,2.2,2.1,3c0.4,0.4,0.9,0.7,1.3,0.9c0.4,0.2,0.9,0.1,1.3,0c1-0.4,1.7-1.1,2.1-2.1c0.3-1,0.5-2.2,0.6-3.4
						c0.1-1.2,0.3-2.3,0.7-3.3c0.2-0.5,0.4-1,0.7-1.4c0.3-0.4,0.6-0.8,0.9-1.1c0.3-0.3,0.6-0.6,0.9-0.8c0.3-0.2,0.6-0.3,0.9-0.5
						c0.5-0.3,1-0.4,1.3-0.5C124.8,106.8,125,106.7,125,106.7z"/>
					<path fill="#6A5C50" d="M101.1,98.3c0,0-0.8,0.3-2.1,0.9c-1.3,0.6-3.1,1.6-4.9,3.2c-0.9,0.8-1.8,1.7-2.6,2.8
						c-0.8,1.1-1.5,2.5-2.9,3.6c-0.7,0.6-1.6,1.1-2.5,1.2c-0.9,0.1-1.9,0.1-2.7-0.1c-0.9-0.2-1.8-0.5-2.6-1c-0.8-0.5-1.6-1.3-2-2.3
						c-0.4-1-0.4-2.1-0.2-3l0.2-0.7c0.1-0.2,0.2-0.5,0.3-0.7c0.2-0.4,0.5-0.8,0.8-1.2c1.1-1.4,2.4-2.4,3.7-3.4
						c1.2-1,2.4-1.8,3.2-2.8c0.9-1.1,1.7-2.1,2.4-3.1c1.4-2,2.1-3.9,2.2-5.3c0-0.7-0.1-1.3-0.2-1.6c-0.1-0.4-0.2-0.6-0.2-0.6
						s0.1,0.2,0.3,0.5c0.2,0.3,0.4,0.9,0.5,1.6c0.2,1.5-0.3,3.7-1.6,5.9c-0.6,1.1-1.4,2.3-2.2,3.4C87,97,85.8,98,84.6,99
						c-1.2,1-2.3,2-3.2,3.2c-0.2,0.3-0.4,0.6-0.6,0.9l-0.2,0.4l-0.1,0.5c-0.1,0.7-0.1,1.3,0.1,1.9c0.4,1.1,1.7,1.9,3.1,2.2
						c0.7,0.1,1.4,0.2,2.1,0.1c0.6-0.1,1.2-0.3,1.7-0.7c1-0.8,1.9-2.1,2.8-3.2c0.2-0.3,0.5-0.6,0.7-0.8c0.3-0.3,0.5-0.5,0.8-0.8
						c0.6-0.5,1-0.9,1.6-1.2c2.1-1.5,4.1-2.3,5.5-2.7c0.7-0.2,1.3-0.3,1.6-0.4C100.9,98.3,101.1,98.3,101.1,98.3z"/>
					<path fill="none" stroke="#6A5C50" stroke-miterlimit="10" d="M90.3,90.3c2.4-4-1.9-8.8-7.2-6.9c-1.8,0.7-3.7,1.5-5.4,0.3
						c-1.4-1-1.6-3.5-0.7-5.2c1.4-2.6,8.3-2.6,10.7-2.4c4,0.5,7.7,1.2,11.8,1.8c4.7,0.6,8.1,0.8,12-1.1"/>
					<path fill="#6A5C50" d="M117.4,76.2c0-0.2,0-0.4,0-0.6c0-0.2-0.1-0.4-0.1-0.6c-0.1-0.4-0.2-0.7-0.4-1l0.3,0.3
						c-0.6-0.1-1.5,0.1-2.3,0.2c-0.9,0.1-1.9,0.2-3-0.3c-0.5-0.3-1-0.7-1.3-1.3l-0.2-0.4l0-0.1l0-0.1l0,0l0,0c0-0.1,0,0.1,0-0.1
						l0-0.2l-0.1-0.3c0-0.1,0-0.4,0-0.6c0.1-0.8,0.8-1.4,1.4-1.5c0.5-0.2,1-0.2,1.5-0.2c0.9,0,1.8,0.1,2.7,0.1
						c0.8,0,1.7,0.1,2.4-0.3c0.7-0.4,1.1-1.1,0.9-1.8c-0.1-0.7-0.6-1.5-1-2.1c-0.9-1.4-2-2.7-2.9-4.3c-0.2-0.4-0.4-0.9-0.6-1.4
						c-0.1-0.5-0.2-1.2,0-1.9c0.3-0.7,0.9-1.2,1.4-1.4c0.5-0.3,1-0.4,1.5-0.4c0.5-0.1,0.9-0.1,1.5-0.1c0.7,0,1.3,0.3,1.7,0.6
						c0.9,0.7,1.4,1.6,1.7,2.5c0.3,0.8,0.6,1.7,0.9,2.5c0.3,0.7,0.6,1.6,1.4,1.5l0.1,0.2c-0.2,0.1-0.5,0.2-0.7,0.1
						c-0.3,0-0.5-0.2-0.7-0.3c-0.4-0.3-0.7-0.7-1-1.1c-0.5-0.8-0.9-1.5-1.3-2.2c-0.4-0.7-0.9-1.3-1.4-1.6c-0.2-0.1-0.5-0.2-0.7-0.2
						c-0.3,0-0.8,0.1-1.1,0.1c-0.7,0.1-1.3,0.4-1.3,0.6c-0.1,0.2,0,0.9,0.3,1.6c0.6,1.4,1.7,2.9,2.3,4.6c0.3,0.8,0.7,1.7,0.7,2.7
						c0,0.5-0.1,1-0.4,1.4c-0.3,0.4-0.7,0.8-1.1,1c-0.1,0.1-0.2,0.1-0.3,0.2l-0.4,0.1c-0.2,0.1-0.5,0.1-0.7,0.1
						c-0.4,0.1-0.9,0.1-1.3,0.1c-0.9,0.1-1.7,0.2-2.5,0.4c-0.4,0.1-0.8,0.2-1,0.4c-0.3,0.2-0.3,0.3-0.3,0.3c0,0.5,0.2,1,0.7,1.3
						c0.5,0.3,1.3,0.4,2.1,0.4c0.8,0.1,1.8,0,2.8,0.4l0.2,0.1l0,0.2c0.1,0.4,0.2,0.9,0.2,1.3c0,0.2,0,0.4-0.1,0.7
						c-0.1,0.2-0.1,0.4-0.2,0.6L117.4,76.2z"/>
					<path fill="#6A5C50" d="M149.7,63.3c2.9,0.3,5.7-0.8,8.2-2.2c1.3-0.7,2.5-1.5,3.7-2.3c0.6-0.4,1.2-0.9,1.7-1.3
						c0.6-0.5,1-0.9,1.5-1.4c1.9-2.1,3.3-4.7,5.4-7c1.1-1.1,2.4-2.1,3.9-2.7c0.4-0.2,0.7-0.2,1.1-0.3c0.4-0.1,0.8-0.2,1.2-0.2
						c0.8-0.1,1.5-0.2,2.3-0.2c3.1-0.1,6.1,0.9,8.8,2.2c1.3,0.7,2.6,1.4,3.8,2.3c1.2,0.9,2.4,1.8,3.4,2.9c0.5,0.6,1,1.2,1.2,2
						c0.1,0.4,0.1,0.9-0.1,1.3c-0.2,0.4-0.4,0.7-0.8,1c-0.6,0.5-1.4,0.8-2.1,0.9c-0.8,0.2-1.6,0.1-2.3-0.1c-1.5-0.3-2.8-1-4.1-1.7
						c-1.3-0.7-2.6-1.4-3.8-2.1c-1.2-0.6-2.6-0.8-4.1-0.8c-1.4,0-2.8,0.1-4.2,0.4c-1.3,0.3-2.6,0.9-3.5,1.7
						c-0.1,0.1-0.2,0.2-0.3,0.3l-0.1,0.2c0,0.1,0-0.1,0,0l0,0l0,0.1l-0.1,0.1l-0.3,0.5l-0.1,0.2l0,0.2c0,0.1-0.1,0.2-0.1,0.4
						c0,0.1,0,0.3,0,0.4c-0.1,0.3,0.1,0.5,0.1,0.8c0.4,1,1.4,1.9,2.5,2.6c1.2,0.7,2.5,1.2,3.8,1.5c0.3,0.1,0.7,0.2,1,0.2l1.1,0.2
						c0.8,0.2,1.5,0.4,2.2,0.7c0.7,0.3,1.4,0.6,2.1,1.1c0.7,0.4,1.4,1,1.9,1.8c0.5,0.8,0.9,2,0.5,2.9c-0.3,1-0.8,1.7-1.4,2.3
						c-0.3,0.3-0.5,0.6-0.9,0.8c-0.3,0.2-0.5,0.4-0.9,0.6c-0.8,0.5-1.5,0.8-2.3,1c-3.1,0.9-6.3,0.4-9.2-0.4
						c-1.4-0.4-2.9-0.9-4.2-1.5l-0.5-0.2l-0.5-0.2c-0.3-0.2-0.7-0.4-1-0.5c-0.7-0.4-1.3-0.8-1.9-1.2c-1.2-0.8-2.4-1.7-3.6-2.3
						c-1.2-0.7-2.6-1-4-1.1l0.3-0.2c-0.6,1.1-1.2,2.3-1.6,3.5l-0.2-0.1c0.3-1.3,0.7-2.5,1.3-3.7l0.1-0.2l0.2,0
						c1.5-0.1,3.1,0.2,4.4,0.8c1.4,0.6,2.7,1.4,3.9,2.2c0.6,0.4,1.2,0.7,1.9,1c0.3,0.2,0.6,0.3,0.9,0.4l0.5,0.2l0.5,0.2
						c1.4,0.5,2.7,0.9,4.1,1.3c2.7,0.7,5.6,0.9,8.1,0.1c2.2-0.6,5.1-3.2,3.9-4.6c-0.3-0.4-0.7-0.8-1.3-1.2c-0.5-0.4-1.2-0.6-1.8-0.9
						c-0.6-0.3-1.3-0.5-1.9-0.7l-1.1-0.3c-0.4-0.1-0.7-0.2-1.1-0.3c-1.5-0.5-2.9-1-4.2-1.8c-0.7-0.4-1.3-0.9-1.9-1.5
						c-0.6-0.6-1.1-1.4-1.4-2.2c-0.1-0.5-0.2-0.9-0.1-1.4c0-0.2,0-0.5,0.1-0.7l0.2-0.7l0.1-0.3l0.1-0.2l0.3-0.5l0.1-0.1l0-0.1l0,0
						c0,0,0.1-0.1,0.1-0.1l0.2-0.3c0.1-0.2,0.3-0.4,0.4-0.5c1.3-1.2,2.8-1.7,4.3-2c1.5-0.3,3-0.3,4.6-0.2c0.8,0.1,1.5,0.2,2.3,0.4
						c0.8,0.2,1.5,0.5,2.2,0.8c1.3,0.7,2.5,1.5,3.8,2.3c1.2,0.7,2.5,1.4,3.9,1.7c0.7,0.2,1.4,0.2,2,0.1c0.7-0.1,1.4-0.4,1.9-0.8
						c0.5-0.4,0.8-1,0.6-1.6c-0.2-0.6-0.6-1.2-1.1-1.7c-1-1-2.2-1.9-3.4-2.6c-1.2-0.8-2.5-1.4-3.8-2c-2.6-1.1-5.5-1.7-8.2-1.6
						c-0.7,0-1.4,0.1-2.1,0.2c-0.3,0.1-0.7,0.1-1,0.2c-0.3,0.1-0.8,0.2-1,0.3c-1.2,0.4-2.3,1.2-3.2,2.2c-1.9,2-3.4,4.6-5.5,6.8
						c-0.5,0.6-1.2,1.1-1.7,1.5c-0.7,0.5-1.2,0.8-1.9,1.2c-1.3,0.8-2.6,1.5-3.9,2.1c-1.4,0.6-2.8,1.1-4.2,1.4c-1.5,0.3-3,0.4-4.4,0
						L149.7,63.3z"/>
					<path fill="#6A5C50" d="M149.5,62.5c0,0-0.2,0-0.6,0c-0.2,0-0.4,0-0.7-0.1c-0.3-0.1-0.6-0.2-0.8-0.6c-0.2-0.4,0-0.9,0.2-1.3
						c0.2-0.4,0.5-0.8,0.9-1.1c0.7-0.7,1.5-1.5,2.4-2.3c0.5-0.4,0.9-0.8,1.4-1.2c0.2-0.2,0.5-0.5,0.5-0.5c0.1-0.3,0.3-0.6,0.4-0.9
						c0.2-0.5,0.2-1.2,0.1-1.4c-0.1-0.1-0.2-0.1-0.3-0.2c-0.2,0-0.4,0-0.7,0.1c-0.5,0.1-1.1,0.5-1.6,0.9c-0.2,0.2-0.5,0.4-0.7,0.7
						c-0.1,0.1-0.2,0.3-0.3,0.4c-0.1,0.2-0.2,0.3-0.3,0.4c-0.8,1.2-1.6,2.6-2.5,4c-0.4,0.7-0.9,1.4-1.4,2c-0.6,0.7-1.1,1.3-2,1.8
						c-0.8,0.5-1.8,0.7-2.8,0.6c-0.9,0-1.8-0.3-2.5-0.7c-0.2-0.1-0.4-0.2-0.6-0.3l-0.1-0.1l-0.1-0.1l0,0l-0.1,0
						c-0.1-0.1-0.1-0.1-0.2-0.2c-0.5-0.5-0.6-1-0.7-1.5c0-1,0.2-1.6,0.2-2.2c0-0.3,0-0.5,0-0.8c0-0.1-0.1-0.2-0.1-0.3
						c-0.1-0.1-0.2-0.3-0.2-0.4c-0.3-0.4-0.7-0.6-1.1-0.7c-0.5-0.1-0.9,0-1.3,0.2c-0.2,0.1-0.4,0.2-0.5,0.4
						c-0.2,0.2-0.3,0.3-0.3,0.5c-0.3,0.8-0.3,1.6-0.3,2.3c0,0.7-0.1,1.3-0.2,1.6c-0.1,0.4-0.3,0.5-0.2,0.5c0,0,0.1-0.2,0.1-0.5
						c0.1-0.4,0-0.9-0.1-1.6c-0.1-0.7-0.4-1.5-0.1-2.6c0.1-0.3,0.2-0.6,0.4-0.8c0.2-0.3,0.4-0.5,0.7-0.7c0.5-0.4,1.2-0.6,2-0.5
						c0.7,0.1,1.5,0.4,2,1c0.2,0.2,0.2,0.3,0.3,0.4c0.1,0.2,0.2,0.4,0.3,0.6c0.1,0.4,0.2,0.9,0.2,1.2c0,0.8-0.2,1.5-0.1,2
						c0,0.2,0.2,0.4,0.2,0.4c0,0,0.1,0.1,0.2,0.2l0.1,0l0,0c0,0,0.1,0.1,0,0l0,0l0.1,0.1c0.1,0.1,0.3,0.2,0.4,0.2
						c1.2,0.6,2.5,0.6,3.5,0c0.5-0.3,1-0.8,1.5-1.4c0.5-0.6,0.9-1.2,1.3-1.9c0.8-1.3,1.6-2.7,2.6-4.1c0.1-0.2,0.3-0.4,0.4-0.5
						c0.1-0.1,0.2-0.3,0.4-0.5c0.3-0.3,0.6-0.6,1-0.9c0.7-0.5,1.5-1,2.4-1.2c0.4-0.1,1-0.1,1.5,0c0.5,0.1,1.1,0.5,1.4,1.1
						c0.1,0.3,0.2,0.5,0.2,0.8c0,0.2,0,0.5,0,0.7l-0.1,0.6l-0.2,0.6c-0.1,0.4-0.3,0.6-0.5,0.9l-0.1,0.1c-0.1,0.1-0.1,0.2-0.2,0.3
						c-0.1,0.1-0.2,0.2-0.2,0.2c-0.1,0.1-0.3,0.2-0.4,0.3c-0.5,0.4-1.1,0.7-1.6,1.1c-1,0.7-1.9,1.3-2.6,1.9
						c-0.4,0.3-0.7,0.6-0.9,0.9c-0.2,0.3-0.4,0.6-0.3,0.9c0,0.2,0.3,0.4,0.5,0.5c0.2,0.1,0.5,0.2,0.6,0.2
						C149.3,62.5,149.5,62.5,149.5,62.5z"/>
					<path fill="#6A5C50" d="M150.7,111.4c0.3,0.5,0.7,0.8,1.2,1.2c0.4,0.4,0.8,0.8,1.1,1.2c0.4,0.4,0.7,0.8,1.2,1.1
						c0.4,0.4,0.9,0.7,1.3,1.1c0.8,0.8,1.6,1.6,2.3,2.4c0.8,0.9,1.4,1.8,2,2.8c1.2,1.9,2.1,4,2.8,6.2c0.3,1.1,0.6,2.2,0.8,3.3
						c0.2,1.1,0.4,2.3,0.1,3.7c-0.1,0.7-0.5,1.4-1.1,2c-0.2,0.1-0.3,0.2-0.5,0.3l-0.1,0l0,0l-0.1,0l-0.1,0l-0.2,0.1
						c-0.2,0.1-0.7,0.2-1.1,0.2c-0.8,0-1.5-0.2-2.1-0.6c-0.6-0.4-1-0.8-1.5-1.3c-0.8-1-1.3-2-1.8-3.1c-0.5-1.1-0.8-2.1-1.2-3.1
						c-0.4-1-0.8-2.1-1.1-3.2c-0.3-1.1-0.5-2.3-0.6-3.4c-0.1-2.2,0-4.4-0.7-6.5l0.1,0l0.1,0.6l-0.2-0.6l0.1,0c1.1,2,1.3,4.3,1.6,6.4
						c0.2,1.1,0.4,2.1,0.8,3.1c0.4,1,0.8,2,1.3,3c0.5,1,0.9,2.1,1.4,3c0.5,0.9,1,1.8,1.6,2.6c0.6,0.7,1.4,1.2,2,1.2
						c0.1,0,0.2,0,0.5-0.1l0.2-0.1l0.1,0l0,0c0.1,0-0.1,0-0.1,0l0,0l0,0c0.1,0,0.1-0.1,0.2-0.1c0.2-0.2,0.3-0.5,0.4-0.9
						c0.2-0.8,0.1-1.9-0.1-2.9c-0.2-1-0.5-2.1-0.7-3.1c-0.6-2.1-1.3-4.1-2.3-6c-0.5-1-1-1.9-1.7-2.7c-0.6-0.9-1.3-1.7-2-2.6
						c-0.3-0.4-0.7-0.8-1.1-1.2c-0.4-0.4-0.8-0.9-1.1-1.3c-0.3-0.5-0.6-0.9-0.9-1.4C151.3,112.4,150.9,111.9,150.7,111.4z"/>
					<path fill="#6A5C50" d="M110.3,58.2c0,0-0.5-0.4-1.4-1.1c-0.9-0.7-2-1.9-3.5-2.9c-0.8-0.5-1.6-1-2.5-1.4
						c-1-0.4-2.1-0.9-3.2-1.5c-1.1-0.6-2.2-1.6-2.8-2.8c-0.3-0.6-0.5-1.3-0.4-2.1c0.1-0.7,0.5-1.5,1.1-2c0.6-0.5,1.4-0.7,2.2-0.8
						c0.2,0,0.4,0,0.6,0c0.2,0,0.3,0,0.5,0.1c0.4,0.1,0.7,0.2,1.1,0.2c1.3,0.4,2.6,1.1,3.6,1.9c1,0.8,1.9,1.7,2.6,2.8
						c0.7,1,1.1,2,1.5,3c0.7,1.9,0.9,3.6,1,4.8c0,0.6,0,1-0.1,1.4l-0.1,0.7L110.3,58.2z M110.1,57.5c-0.1-0.3-0.2-0.6-0.3-1
						c-0.3-1.1-0.9-2.5-1.8-4.2c-0.4-0.8-1-1.7-1.6-2.5c-0.6-0.8-1.3-1.6-2.2-2.3c-0.8-0.7-1.8-1.4-2.9-1.8
						c-0.3-0.1-0.5-0.2-0.8-0.3c-0.1,0-0.3-0.1-0.5-0.1c-0.1,0-0.2,0-0.4-0.1c-0.5-0.1-1,0-1.5,0.2c-0.5,0.2-0.8,0.7-1,1.2
						c-0.1,0.5-0.1,1.1,0.2,1.7c0.5,1.1,1.5,1.8,2.7,2.1c1.1,0.3,2.3,0.5,3.4,0.9c1.2,0.4,2.1,1,2.9,1.7c1.6,1.3,2.5,2.7,3.1,3.7
						C109.8,56.9,110,57.2,110.1,57.5z"/>
					<path fill="#6A5C50" d="M111.4,41.5c0,0-0.5,0-1.3-0.2c-0.8-0.2-2-0.5-3.3-0.8c-0.6-0.2-1.5-0.3-2.3-0.6
						c-0.8-0.4-1.7-1.1-2.2-2c-0.2-0.5-0.4-1-0.5-1.5l-0.1-0.7l-0.1-0.3l0-0.4c0-0.3,0-0.5,0.1-0.8c0.1-0.3,0.1-0.5,0.2-0.8l0.2-0.4
						c0.1-0.1,0.2-0.2,0.3-0.3c0.2-0.2,0.4-0.4,0.7-0.6c1-0.6,2.1-0.7,3.2-0.6c1,0.1,2,0.4,3,0.8c0.5,0.2,0.9,0.5,1.3,0.8
						c0.2,0.2,0.4,0.3,0.6,0.6l0.2,0.2l0.2,0.3c0.5,0.8,0.8,1.6,1,2.4c0.2,0.8,0.3,1.5,0.3,2.1c0,0.7-0.1,1.2-0.3,1.7
						c-0.2,0.4-0.5,0.7-0.7,0.9L111.4,41.5L111.4,41.5z M111.4,41.2c0,0,0.1-0.1,0.1-0.2c0.1-0.2,0.2-0.5,0.2-0.8
						c0-0.7-0.3-1.8-0.9-3c-0.3-0.6-0.7-1.2-1.1-1.8l-0.1-0.2l-0.2-0.2c-0.1,0-0.2-0.2-0.3-0.3c-0.3-0.2-0.6-0.4-0.9-0.6
						c-0.7-0.4-1.5-0.7-2.3-0.9c-0.8-0.2-1.7-0.3-2.4-0.1c-0.2,0.1-0.4,0.1-0.5,0.2c-0.1,0.1-0.2,0.1-0.2,0.2l-0.2,0.2
						c-0.2,0.3-0.3,0.8-0.3,1.2c0,0.9,0.3,1.8,0.9,2.3c0.6,0.5,1.3,0.8,2,1c0.8,0.2,1.5,0.4,2.1,0.6c1.5,0.5,2.5,1.2,3.2,1.7
						C111,40.9,111.3,41.1,111.4,41.2z"/>
					<path fill="#6A5C50" d="M147.4,37.3c0,0-0.1,0-0.3,0.1c-0.2,0-0.5,0.1-0.9,0c-0.7,0-1.8-0.2-3-0.6c-0.6-0.2-1.2-0.4-1.9-0.8
						c-0.7-0.3-1.4-0.7-2-1.2c-0.6-0.5-1.4-1.1-1.7-2.2c-0.2-0.6-0.2-0.9-0.2-1.6c0-0.6,0.3-1.4,1-1.8c0.6-0.4,1.2-0.4,1.8-0.4
						c0.5,0,1,0.1,1.4,0.2c0.9,0.2,1.6,0.6,2.3,1c0.7,0.4,1.4,0.8,1.9,1.4c0.3,0.2,0.6,0.6,0.8,0.9c0.2,0.3,0.4,0.6,0.5,0.9
						c0.6,1.2,0.8,2.3,0.7,3.1C147.7,37,147.4,37.3,147.4,37.3z M147.4,37.3c0,0,0-0.1,0-0.3c0-0.2,0-0.5,0-0.8
						c-0.1-0.7-0.5-1.5-1.3-2.4c-0.2-0.2-0.4-0.4-0.6-0.7c-0.2-0.2-0.4-0.3-0.7-0.5c-0.5-0.3-1.2-0.7-1.8-1c-0.7-0.3-1.4-0.5-2-0.7
						c-0.7-0.2-1.4-0.2-1.6,0c-0.1,0-0.1,0.1-0.1,0.3c0,0.1,0,0.6,0.1,0.8c0.1,0.5,0.6,1,1.1,1.5c0.5,0.5,1.1,0.9,1.6,1.3
						c0.6,0.4,1.1,0.7,1.6,1c1,0.6,1.9,1,2.6,1.3c0.3,0.1,0.6,0.2,0.8,0.2C147.3,37.3,147.4,37.3,147.4,37.3z"/>
					<path fill="#6A5C50" d="M140.6,54.8c0,0,0.1-0.1,0.1-0.3c0.1-0.2,0.1-0.4,0.1-0.8c0-0.7-0.2-1.6-0.3-2.8
						c-0.1-0.6-0.2-1.2-0.2-1.9c-0.1-0.7-0.1-1.4-0.1-2.2c0-0.4,0.1-0.8,0.2-1.3c0.1-0.4,0.3-0.9,0.7-1.4c0.4-0.5,1.1-0.8,1.7-0.8
						c0.6,0,1.1,0.1,1.6,0.3c0.1,0,0.4,0.2,0.7,0.4c0.2,0.2,0.4,0.3,0.6,0.6c0.4,0.4,0.6,1,0.7,1.5c0.2,1,0,1.9-0.2,2.7
						c-0.2,0.8-0.6,1.5-1,2.1c-0.4,0.6-0.8,1.1-1.2,1.6c-0.8,0.9-1.6,1.6-2.2,1.9c-0.3,0.2-0.6,0.3-0.8,0.3
						C140.7,54.8,140.6,54.8,140.6,54.8z M140.6,54.8c0,0,0.3-0.2,0.8-0.7c0.5-0.5,1-1.3,1.6-2.3c0.5-1,1.1-2.2,1.4-3.5
						c0.1-0.6,0.2-1.3,0-1.8c-0.1-0.5-0.4-0.8-0.9-1c-0.2-0.1-0.6-0.2-0.7-0.2c-0.2,0-0.2,0-0.3,0.1c-0.2,0.2-0.5,0.9-0.5,1.6
						c-0.2,1.3-0.2,2.7-0.3,3.9c-0.1,1.2-0.2,2.2-0.4,2.9c-0.1,0.3-0.2,0.6-0.4,0.8C140.6,54.8,140.6,54.8,140.6,54.8z"/>
					<path fill="#6A5C50" d="M157.7,51.5c0,0,0.1-0.3,0.2-0.9c0.1-0.6,0.3-1.3,0.6-2.3c0.1-0.5,0.3-1,0.6-1.5
						c0.2-0.5,0.5-1.1,0.9-1.7c0.2-0.3,0.5-0.6,0.9-0.8c0.1-0.1,0.2-0.1,0.4-0.2c0.2,0,0.3-0.1,0.5-0.1c0.3,0,0.7,0.1,0.9,0.2
						c0.5,0.3,0.8,0.7,1,1c0.2,0.3,0.4,0.7,0.5,1l0.1,0.3l0,0.1l0,0.1l0,0.1l0.1,0.2l0.1,0.3c0.1,0.4,0.1,0.8,0,1.3
						c-0.1,0.9-0.6,1.6-1.1,2.1c-0.5,0.5-1,0.9-1.5,1.2c-0.5,0.3-1.1,0.6-1.6,0.7c-0.5,0.2-1,0.2-1.4,0.2c-0.5,0-0.9-0.2-1.1-0.5
						c-0.1-0.1-0.2-0.3-0.2-0.4c0-0.1,0-0.2,0-0.3C157.7,51.5,157.7,51.5,157.7,51.5z M157.7,51.5c0,0,0,0.1,0.1,0.2
						c0.1,0.1,0.2,0.3,0.4,0.4c0.4,0.2,1.1,0,1.8-0.5c0.4-0.2,0.7-0.5,1.1-0.9c0.4-0.4,0.8-0.7,1.1-1.1c0.3-0.4,0.4-0.8,0.5-1.2
						c0-0.2,0-0.4,0-0.6l0-0.1l-0.1-0.2l0-0.1c0,0,0-0.1,0,0l0,0l-0.1-0.2c-0.1-0.3-0.2-0.5-0.3-0.7c-0.1-0.2-0.2-0.4-0.3-0.4
						c0,0,0.1,0,0,0c-0.1,0-0.3,0.2-0.5,0.3c-0.3,0.4-0.7,0.8-1,1.2c-0.3,0.4-0.6,0.9-0.8,1.3c-0.5,0.8-0.9,1.5-1.3,2
						C157.9,51.2,157.7,51.5,157.7,51.5z"/>
					<path fill="#6A5C50" d="M173.1,33.9c0,0,0,0,0.1-0.1c0.1-0.1,0.2-0.2,0.4-0.3c0.4-0.2,0.9-0.4,1.6-0.4c0.3,0,0.7,0,1.1,0.1
						c0.4,0.1,0.8,0.3,1.1,0.6c0.4,0.3,0.8,0.5,1.1,0.9c0.2,0.2,0.3,0.6,0.2,0.9c0,0.3-0.2,0.6-0.3,0.8l0,0l0,0c0,0-0.1,0.1-0.1,0.1
						l0,0l0,0l0,0.1l-0.1,0.1c0,0.1-0.2,0.2-0.3,0.3c-0.3,0.2-0.5,0.3-0.8,0.4c-0.5,0.2-1,0.2-1.5,0.2c-0.5,0-1-0.1-1.4-0.4
						c-0.4-0.2-0.8-0.5-1.1-0.9c-0.3-0.3-0.5-0.8-0.5-1.2c0-0.4,0.1-0.7,0.2-0.9c0.1-0.2,0.3-0.3,0.4-0.4c0.1-0.1,0.1-0.1,0.1-0.1
						l0.2,0.1c0,0,0,0.1,0,0.2c0,0.1,0,0.2,0.1,0.4c0,0.1,0.1,0.1,0.1,0.2c0.1,0.1,0.1,0.1,0.2,0.2c0.1,0.1,0.3,0.2,0.5,0.2
						c0.2,0.1,0.4,0.2,0.7,0.2c0.3,0.1,0.5,0.1,0.8,0.2c0.3,0.1,0.6,0.1,0.9,0.1c0.1,0,0.3,0,0.4,0c0.1,0.1,0.4-0.1,0.5-0.1
						c0.3-0.2,0.5-0.4,0.4-0.6c-0.2-0.2-0.6-0.3-1-0.3c-0.4,0-0.7,0.1-1.1,0.1c-0.3,0-0.6-0.1-0.9-0.1c-0.6-0.1-1.1-0.3-1.4-0.4
						c-0.2-0.1-0.3-0.1-0.4-0.2c-0.1,0-0.2-0.1-0.2-0.1L173.1,33.9z"/>
					<path fill="#6A5C50" d="M185.3,41c0,0,0.3-0.1,0.8-0.1c0.5-0.1,1.3-0.1,2.2-0.1c0.9,0.1,2,0.2,3.2,0.7c0.6,0.3,1.2,0.6,1.7,1.2
						c0.3,0.3,0.5,0.6,0.7,1c0,0.1,0,0.1,0.1,0.3c0,0.1,0.1,0.3,0.1,0.4c0,0.3,0,0.7-0.2,1c-0.2,0.3-0.5,0.6-0.7,0.7
						c-0.3,0.1-0.5,0.2-0.7,0.2c-0.4,0.1-0.8,0-1.2,0c-0.7-0.1-1.3-0.3-1.9-0.6c-1.1-0.5-2-1.2-2.6-2c-0.7-0.7-1-1.4-1.2-1.9
						c-0.1-0.2-0.2-0.5-0.2-0.6C185.3,41.1,185.3,41,185.3,41z M185.3,41c0,0,0.2,0.2,0.6,0.6c0.4,0.4,0.9,0.8,1.7,1.3
						c0.7,0.4,1.6,0.9,2.6,1.2c0.5,0.2,1,0.3,1.5,0.3c0.2,0,0.5,0,0.6,0c0.2,0,0.1-0.1,0,0.1c0,0.1,0,0.1,0,0.1c0,0,0,0,0,0
						c0,0,0-0.1-0.1-0.2c-0.1-0.1-0.2-0.3-0.3-0.5c-0.3-0.3-0.6-0.6-1-0.9c-0.4-0.2-0.9-0.5-1.3-0.7c-0.4-0.2-0.9-0.3-1.3-0.5
						c-0.8-0.3-1.5-0.5-2.1-0.7C185.6,41.1,185.3,41,185.3,41z"/>
					<path fill="#6A5C50" d="M200.6,115.5c0,0,0.2,0.4,0.6,0.9c0.4,0.6,1,1.4,1.7,2.4c0.3,0.5,0.7,1.1,1,1.8
						c0.2,0.3,0.3,0.7,0.4,1.1c0.1,0.2,0.1,0.4,0.2,0.6c0,0.2,0.1,0.5,0.1,0.7c0,0.5,0,1-0.2,1.5c-0.1,0.3-0.3,0.6-0.6,0.8
						c-0.3,0.2-0.7,0.4-1,0.5c-0.7,0.1-1.3-0.2-1.8-0.4c-0.5-0.3-0.8-0.6-1.1-1c-0.7-0.9-0.9-1.7-1.2-2.5c-0.2-0.8-0.4-1.6-0.6-2.3
						c-0.3-1.5-0.6-2.8-0.8-4c-0.3-1.1-0.6-2-1-2.6c-0.2-0.3-0.4-0.5-0.5-0.6c-0.1-0.1-0.2-0.2-0.2-0.2c0,0,0.4,0.1,1,0.5
						c0.6,0.5,1.3,1.3,1.8,2.5c0.6,1.1,1,2.5,1.5,3.9c0.2,0.7,0.5,1.4,0.7,2.2c0.2,0.7,0.5,1.4,0.9,1.8c0.4,0.5,1,0.8,1.1,0.8
						c0,0,0,0,0.1-0.1c0.1-0.1,0.1-0.4,0.1-0.7c0-0.2,0-0.3,0-0.4c0-0.2-0.1-0.3-0.1-0.5c-0.1-0.3-0.1-0.6-0.2-1
						c-0.2-0.6-0.4-1.2-0.6-1.8c-0.5-1.1-0.8-2.1-1-2.8C200.7,115.9,200.6,115.5,200.6,115.5z"/>
					<path fill="#6A5C50" d="M216.9,134.8c1,1.1,1.8,2.3,2.5,3.7c0.2,0.3,0.3,0.7,0.4,1.1c0.1,0.4,0.2,0.7,0.3,1.1
						c0.2,0.8,0.2,1.7-0.1,2.6c-0.1,0.2-0.2,0.5-0.3,0.7c-0.2,0.3-0.2,0.3-0.4,0.5c-0.3,0.4-0.6,0.7-1.2,1c-0.3,0.1-0.7,0.2-1.1,0.1
						c-0.4-0.1-0.7-0.3-0.9-0.5c-0.4-0.4-0.6-0.8-0.8-1.2c-0.2-0.4-0.3-0.8-0.3-1.1c-0.1-0.4-0.2-0.8-0.2-1.1
						c-0.1-0.8-0.1-1.5,0-2.2l0.2,0.2c-0.2-0.1-0.6,0-0.9,0.2c0.1-0.2,0.2-0.3,0.3-0.5c0.2-0.1,0.4-0.2,0.6-0.2l0.2,0l0.1,0.2
						c0.2,0.7,0.5,1.4,0.7,2c0.3,0.6,0.5,1.3,0.8,1.8c0.1,0.3,0.3,0.5,0.5,0.6c0.1,0,0.1,0,0.1,0c0,0-0.1,0-0.1,0
						c0,0,0.3-0.2,0.4-0.4c0.1-0.1,0.2-0.3,0.3-0.4c0-0.1,0.1-0.2,0.1-0.3c0.2-0.4,0.2-1,0.1-1.7c0-0.3-0.1-0.6-0.1-1
						c-0.1-0.3-0.1-0.7-0.2-1c-0.2-0.7-0.3-1.4-0.5-2C217.2,136.3,217,135.6,216.9,134.8z"/>
					<path fill="#6A5C50" d="M233.8,110.9c0,0,0.6,0.4,1.2,1.3c0.3,0.4,0.7,1,0.9,1.6c0.2,0.7,0.3,1.5,0,2.4
						c-0.1,0.4-0.4,0.8-0.7,1.2c-0.2,0.2-0.2,0.3-0.4,0.4c-0.2,0.2-0.3,0.3-0.6,0.4c-0.1,0-0.1,0.1-0.2,0.1c-0.1,0-0.2,0-0.3,0.1
						c-0.2,0-0.5,0-0.7-0.1c-0.4-0.2-0.5-0.5-0.6-0.7c-0.2-0.4-0.2-0.6-0.2-0.9c-0.1-0.5-0.1-0.9-0.2-1.1c-0.1-0.3-0.2-0.4-0.2-0.4
						c0,0,0.2,0,0.5,0.2c0.3,0.2,0.6,0.5,0.9,0.9c0.2,0.2,0.3,0.4,0.5,0.5c0.1,0.1,0.1,0,0-0.1c-0.1-0.1-0.2-0.1-0.2-0.1
						c0,0-0.1,0-0.1,0c0,0,0,0,0,0c0,0,0.1-0.1,0.1-0.1l0.1-0.2l0.1-0.1l0,0l0,0c-0.1,0.1,0,0,0,0l0,0c0.1-0.2,0.2-0.4,0.3-0.6
						c0.3-0.8,0.1-2-0.1-3c-0.1-0.5-0.1-0.9-0.2-1.2C233.8,111.1,233.8,110.9,233.8,110.9z"/>
					<path fill="#6A5C50" d="M58.7,138.8c-0.1,0.6,0.1,1.2,0.4,1.7c0.3,0.5,0.8,0.9,1.2,1.4c0.9,0.9,1.8,1.7,2.6,2.8
						c0.2,0.3,0.3,0.6,0.5,0.9c0.1,0.4,0.2,0.7,0.2,1c0.1,0.6,0.1,1.3,0.1,2c0,0.7-0.1,1.3-0.4,2c-0.1,0.3-0.3,0.7-0.6,0.9
						c-0.3,0.3-0.7,0.4-1.1,0.4l-0.3,0l-0.1-0.3c-0.4-1.5-0.8-3.1-1-4.7l0.9,2.2c0.3,0.7,0.6,1.5,0.9,2.2l-0.4-0.3
						c0.5,0,0.7-0.4,0.9-0.9c0.2-0.5,0.2-1.1,0.2-1.7c0-0.6,0-1.2-0.1-1.8c0-0.3-0.1-0.6-0.2-0.8c-0.1-0.2-0.2-0.5-0.3-0.7
						c-0.6-1-1.5-1.9-2.3-2.9c-0.4-0.5-0.8-1-1-1.6c-0.1-0.3-0.2-0.6-0.3-1C58.5,139.4,58.6,139,58.7,138.8z"/>
					<path fill="#6A5C50" d="M83.5,171.8c0.2,0.7,0.3,1.5,0.2,2.3c-0.1,0.8-0.2,1.5-0.4,2.3c-0.2,0.8-0.4,1.5-0.7,2.2
						c-0.3,0.7-0.6,1.4-1.2,2.1c-0.2,0.2-0.4,0.3-0.6,0.5c-0.3,0.1-0.7,0.2-1,0.1c-0.7-0.3-0.9-0.7-1.2-1c-0.5-0.7-0.7-1.5-1-2.2
						c-0.1-0.4-0.3-0.7-0.4-1l-0.2-0.5l-0.2-0.5c-0.3-0.7-0.6-1.4-0.9-2c-0.2-0.3-0.3-0.6-0.5-0.8C75,173,74.9,173,75,173
						c0.1-0.1-0.1,0.1-0.2,0.3c-0.2,0.3-0.2,0.5-0.3,0.8c-0.1,0.6-0.1,1.3-0.2,2.1l0,2.3c0,0.4,0,0.8,0,1.2c0,0.2,0,0.4-0.1,0.6
						c0,0.2-0.1,0.4-0.1,0.6c-0.2,0.8-0.4,1.6-0.8,2.4c-0.4,0.8-0.9,1.5-1.6,2c-0.7,0.5-1.7,0.8-2.5,0.8l-0.4,0l-0.2-0.3
						c-0.6-1.2-0.8-2.3-0.9-3.5c-0.1-1.1-0.2-2.3-0.3-3.4c-0.1-1.1-0.2-2.2-0.4-3.3c-0.2-1.1-0.3-2.3-0.4-3.4c-0.1-2.3,0-4.6,0-6.8
						c0-2.2,0-4.5,0.1-6.8c0.1-1.1,0.2-2.3,0.4-3.5c0.1-0.6,0.3-1.2,0.4-1.7c0.2-0.6,0.4-1.1,0.7-1.7c0.3-0.5,0.6-1.1,1.1-1.6
						c0.1-0.1,0.3-0.3,0.5-0.4c0.2-0.1,0.5-0.3,1-0.2c0.4,0.1,0.8,0.4,0.9,0.6c0.2,0.2,0.2,0.4,0.3,0.6c0.2,0.7,0.3,1.3,0.3,1.9
						c0,0.7,0,1.1,0,1.8c-0.1,2.4-0.5,4.6-0.7,6.8c-0.3,2.2-0.5,4.4-0.2,6.5l-1.7-0.7c0.1-0.1,0.2-0.2,0.3-0.3
						c0.1-0.1,0.2-0.3,0.3-0.5c0.2-0.4,0.3-0.9,0.5-1.3c0.3-1,0.6-2,1.3-3.1c0.2-0.3,0.4-0.5,0.6-0.7c0.2-0.2,0.4-0.4,0.6-0.6
						c0.4-0.4,0.9-0.8,1.4-1.1c1-0.6,2.1-1,3.2-1.1l0.8-0.1l0.2,0.7c0.1,0.4,0.1,0.6,0.1,0.9c0,0.2,0,0.4-0.1,0.6
						c-0.1,0.4-0.1,0.8-0.2,1.2l-0.5,2.2c-0.3,1.4-0.6,2.9-0.7,4.3c0,0.7,0,1.4,0.2,2c0.2,0.6,0.6,1,1.3,1c0.2,0,0.3,0,0.5,0
						c0.2,0,0.4,0,0.6,0c0.2,0,0.4,0.1,0.6,0.2l0.1,0.1c0.1,0,0.1,0,0.1,0c0.1,0,0.1,0,0.2,0c0.4,0,0.8,0.1,1.1,0.2
						C82.7,171.5,83.1,171.6,83.5,171.8L83.5,171.8L83.5,171.8z M83.3,171.9c-0.3-0.1-0.7-0.2-1-0.2c-0.4,0-0.7,0-1.1,0
						c-0.1,0-0.2,0-0.3,0c-0.1,0-0.1,0-0.2,0l-0.1,0c-0.1,0-0.3-0.1-0.5-0.1c-0.2,0-0.3,0-0.5,0.1c-0.2,0-0.4,0.1-0.6,0.1
						c-0.4,0-0.9-0.1-1.3-0.4c-0.4-0.3-0.7-0.7-0.8-1.1c-0.3-0.8-0.4-1.6-0.4-2.4c0-1.6,0.2-3.1,0.4-4.6l0.4-2.2
						c0.1-0.4,0.1-0.7,0.1-1.1c0-0.2,0-0.3,0-0.5c0-0.1,0-0.3,0-0.3l1,0.6c-0.9,0.2-1.8,0.5-2.5,1c-0.4,0.2-0.7,0.5-1,0.9
						c-0.2,0.2-0.3,0.3-0.5,0.5c-0.2,0.2-0.3,0.3-0.4,0.5c-0.4,0.7-0.7,1.6-1,2.6c-0.2,0.5-0.3,1-0.6,1.6c-0.1,0.3-0.3,0.6-0.5,0.8
						c-0.2,0.3-0.4,0.6-0.7,0.8l-1.5,1.3l-0.2-2c-0.3-2.4-0.1-4.8,0.2-7c0.3-2.3,0.7-4.5,0.9-6.6c0.1-1.1,0.1-2.3-0.1-3
						c0-0.2-0.2-0.1,0.2,0c0.2,0,0.2,0,0.2,0c0,0-0.1,0.1-0.2,0.1c-0.3,0.3-0.6,0.7-0.8,1.1c-0.3,0.4-0.5,0.9-0.7,1.4
						c-0.2,0.5-0.3,1-0.5,1.6c-0.3,1.1-0.5,2.1-0.6,3.2c-0.3,2.2-0.4,4.5-0.6,6.7c-0.2,2.3-0.4,4.5-0.3,6.8c0,1.1,0.2,2.2,0.4,3.3
						c0.3,1.1,0.4,2.3,0.6,3.4c0.1,1.1,0.3,2.2,0.5,3.3c0.2,1.1,0.5,2.2,1,3l-0.5-0.3c0.7-0.1,1.2-0.3,1.7-0.7
						c0.5-0.4,0.8-1,1.1-1.6c0.2-0.6,0.4-1.3,0.5-2c0-0.2,0.1-0.4,0.1-0.5c0-0.2,0-0.3,0-0.5c0-0.3,0-0.7,0-1.1l0-2.3
						c0-0.8,0-1.6,0.2-2.4c0.1-0.5,0.3-0.9,0.5-1.3c0.1-0.2,0.3-0.4,0.5-0.6c0.2-0.2,0.5-0.4,1-0.5c0.4-0.1,0.9,0.1,1.1,0.3
						c0.3,0.2,0.4,0.4,0.6,0.6c0.3,0.4,0.5,0.7,0.7,1.1c0.4,0.7,0.6,1.5,0.9,2.2l0.2,0.5l0.2,0.5c0.2,0.4,0.3,0.8,0.4,1.1
						c0.2,0.7,0.5,1.4,0.8,2c0.1,0.3,0.4,0.5,0.4,0.5c0,0,0,0,0.1,0c0.1,0,0.2-0.1,0.3-0.2c0.5-0.4,0.8-1.1,1.2-1.7
						c0.3-0.6,0.6-1.3,0.9-2c0.3-0.7,0.5-1.4,0.6-2.1C83.3,173.4,83.4,172.7,83.3,171.9z"/>
					<path fill="#6A5C50" d="M97.3,185.2c0,0,0.2,0,0.4,0.2c0.2,0.2,0.6,0.5,0.9,0.9c0.3,0.5,0.7,1.1,0.7,2c0,0.4-0.1,0.9-0.4,1.4
						c-0.4,0.5-0.8,0.7-1.3,1c-0.5,0.2-1,0.4-1.4,0.5c-0.5,0.2-1.1,0.3-1.8,0.3c-0.7,0-1.4-0.2-2-0.6c-0.6-0.4-1.1-0.9-1.5-1.4
						c-0.2-0.3-0.4-0.5-0.5-0.8l-0.3-0.5l-0.2-0.4c-0.3-0.7-0.5-1.3-0.6-1.9c-0.3-1.3-0.5-2.6-0.5-3.9c0-0.6,0-1.3,0-1.9
						c0-0.6,0-1.2,0-1.8c-0.1-1.2-0.2-2.4-0.2-3.6c0-0.6-0.1-1.2-0.1-1.7c0-0.3,0-0.6,0-0.8c0-0.3,0-0.6,0-0.8c-0.1-1-0.2-2-0.3-3
						c-0.2-1.9-0.3-3.5,0-4.6c0.1-0.6,0.3-1,0.5-1.2c0.2-0.2,0.3-0.4,0.3-0.4s-0.1,0.1-0.2,0.4c-0.1,0.3-0.2,0.7-0.2,1.2
						c0,1.1,0.2,2.6,0.7,4.4c0.2,0.9,0.5,1.9,0.7,3c0.2,1.1,0.2,2.2,0.4,3.4c0.1,1.2,0.3,2.4,0.4,3.6c0,0.6,0.1,1.3,0.1,1.9
						c0,0.6,0,1.2,0.1,1.8c0.1,1.2,0.2,2.4,0.4,3.5c0.1,0.5,0.3,1.1,0.4,1.6l0.2,0.4l0.2,0.3c0.1,0.2,0.3,0.5,0.4,0.7
						c0.6,0.8,1.3,1.4,2.1,1.5c0.4,0,0.8,0,1.3-0.1c0.5-0.1,1-0.2,1.4-0.3c0.4-0.1,0.7-0.3,0.9-0.5c0.2-0.2,0.3-0.5,0.4-0.8
						c0.1-0.7-0.1-1.3-0.3-1.8c-0.2-0.5-0.4-0.8-0.6-1C97.4,185.3,97.3,185.2,97.3,185.2z"/>
					<path fill="#6A5C50" d="M112.7,195.3c0.4,0.8,1.1,1.5,1.7,2.2c0.6,0.7,1.2,1.5,1.5,2.6c0.1,0.3,0.1,0.5,0.1,0.8l0,0.1l0,0.2
						l0,0l0,0l0,0.1c0,0.1,0,0,0,0.2c0,0.1-0.1,0.2-0.2,0.4c-0.2,0.3-0.3,0.3-0.4,0.4c-0.2,0.1-0.2,0.1-0.4,0.1c-0.4,0.1-0.7,0-1,0
						c-0.3-0.1-0.5-0.2-0.7-0.2c-0.5-0.2-0.9-0.4-1.3-0.6l-0.3-0.2c-0.1,0-0.3-0.2-0.3-0.3c-0.2-0.2-0.4-0.3-0.5-0.5
						c-0.7-0.8-1-1.7-1.4-2.6c-0.2-0.4-0.3-0.9-0.4-1.4c-0.1-0.5-0.2-1-0.2-1.5c0-1,0-2,0.3-2.9c0.2-1,0.6-1.9,1.2-2.8l1.1-1.7
						l0.7,1.8c0.4,1.1,0.3,2.2,0.3,3.1c0,0.5-0.1,1,0,1.5C112.4,194.4,112.5,194.9,112.7,195.3z M112.6,195.4
						c-0.5-0.9-0.8-1.8-1.3-2.8c-0.4-0.9-0.7-1.8-1.1-2.5l1.8,0.1c-0.4,0.7-0.6,1.5-0.9,2.3c-0.3,0.8-0.4,1.6-0.5,2.5
						c0,0.4-0.1,0.9-0.1,1.3c0,0.4-0.1,0.9,0,1.3c0,0.9,0.2,1.8,0.8,2.4c0.1,0.2,0.3,0.3,0.5,0.4c0.1,0.1,0.1,0.1,0.2,0.1
						c0.1,0,0.2,0.1,0.3,0.1c0.4,0.1,0.9,0.1,1.3,0.2c0.2,0,0.4,0,0.6,0c0.2,0,0.4-0.1,0.4-0.1c0,0,0,0,0,0c0,0,0,0-0.2,0.1
						c0,0.1-0.1,0.1-0.1,0.2c0,0.1,0,0,0,0l0-0.1l0,0l0,0l0,0c0,0.4,0,0.1,0,0.2l0,0c0-0.2,0-0.4-0.1-0.5c-0.1-0.7-0.3-1.6-0.6-2.5
						C113.4,197,113,196.2,112.6,195.4z"/>
					<path fill="#6A5C50" d="M143.2,197.4c0,0,0,0.5,0.1,1.2c0.1,0.8,0.3,1.8,0.6,3.1c0.1,0.7,0.3,1.4,0.3,2.2
						c0.1,0.8,0.1,1.7,0,2.5c-0.1,0.9-0.2,1.8-0.6,2.7c-0.2,0.5-0.4,1-0.9,1.5c-0.1,0.1-0.3,0.3-0.5,0.4c-0.2,0.1-0.4,0.2-0.7,0.2
						c-0.2,0-0.5,0-0.7,0c-0.2-0.1-0.4-0.2-0.6-0.2c-0.3-0.2-0.5-0.4-0.7-0.6l-0.1-0.2l-0.1-0.1l-0.1-0.1l0,0l0,0l-0.2-0.3l-0.2-0.3
						l-0.2-0.4c-0.1-0.3-0.2-0.6-0.3-0.8c-0.3-1-0.2-2,0-2.9c0.2-0.9,0.5-1.7,0.8-2.4c0.3-0.7,0.7-1.4,1.1-2c0.7-1.2,1.5-2,2-2.6
						c0.3-0.3,0.5-0.5,0.6-0.7C143.1,197.5,143.2,197.4,143.2,197.4z M143.2,197.4c0,0-0.2,0.4-0.5,1.1c-0.3,0.7-0.8,1.7-1.3,2.9
						c-0.5,1.2-1,2.6-1.1,4.1c-0.1,0.7,0,1.5,0.2,2.2c0,0.2,0.1,0.3,0.2,0.4l0.1,0.2l0.2,0.3l0.2,0.3l0,0l0,0c0,0,0.1,0.1,0-0.1l0,0
						l0,0l0.1,0.1c0.1,0.1,0.2,0.2,0.3,0.3c0,0,0,0,0,0c0,0,0,0-0.1,0c0,0-0.1,0-0.1,0c0,0,0,0,0.1,0c0.1-0.1,0.3-0.5,0.5-0.8
						c0.3-0.7,0.5-1.5,0.6-2.3c0.3-1.5,0.3-3,0.3-4.3c0-1.3,0-2.5,0.2-3.3c0.1-0.4,0.1-0.7,0.2-0.9
						C143.1,197.5,143.2,197.4,143.2,197.4z"/>
					<path fill="#6A5C50" d="M150.3,194.4c0,0,0.1,0.1,0.2,0.3c0.1,0.2,0.3,0.5,0.4,0.9c0.3,0.8,0.5,1.9,0.6,3.3
						c0.1,1.4,0,3,0.2,4.5c0.1,0.8,0.3,1.5,0.6,2.2c0.1,0.2,0.2,0.3,0.3,0.5c0,0.1,0.1,0.2,0.1,0.2l0.2,0.3c0.3,0.4,0.5,0.6,0.7,0.9
						c0.5,0.6,1.2,1,1.8,1.2c0.6,0.2,1.1,0.2,1.4-0.2c0.3-0.4,0.5-1.1,0.5-1.8c0-0.3,0-0.7,0-1l0-0.1c0,0,0-0.1,0-0.1
						c0-0.1,0-0.2,0-0.2c0-0.1-0.1-0.3-0.1-0.4c-0.4-1.2-0.8-2.3-1-3.1c-0.1-0.4-0.2-0.7-0.2-0.9c0-0.2,0.1-0.3,0.1-0.3
						s-0.1,0.1,0,0.3c0.1,0.2,0.2,0.5,0.4,0.8c0.4,0.7,1.1,1.6,1.7,2.8c0.1,0.2,0.2,0.3,0.2,0.5c0,0.1,0.1,0.2,0.1,0.3
						c0,0.1,0,0,0.1,0.2l0,0.1c0.1,0.4,0.2,0.8,0.2,1.2c0.1,0.8,0.1,1.9-0.5,2.9c-0.1,0.3-0.4,0.5-0.7,0.7c-0.3,0.1-0.6,0.4-0.9,0.4
						c-0.6,0.2-1.2,0.1-1.8-0.1c-1.1-0.3-1.9-1-2.7-1.7c-0.3-0.4-0.7-0.9-0.9-1.2l-0.2-0.3c-0.1-0.2-0.1-0.2-0.2-0.4
						c-0.1-0.2-0.2-0.4-0.3-0.7c-0.4-0.9-0.5-1.9-0.6-2.8c-0.1-0.9,0-1.8,0.1-2.6c0.1-0.8,0.2-1.5,0.3-2.2c0.2-1.3,0.2-2.4,0.2-3.2
						c0-0.4-0.1-0.7-0.1-0.9C150.3,194.5,150.3,194.4,150.3,194.4z"/>
					<path fill="#6A5C50" d="M183.9,223.4c0.2,0.4,0.2,0.9,0.2,1.4c0,0.5,0,0.9,0.1,1.4c0,0.9,0,1.8,0,2.8c0,0.9,0,1.8,0.1,2.7
						c0,0.4,0.1,0.8,0.2,1.2c0,0.2,0.1,0.4,0.1,0.5c0,0.1,0,0.1,0.1,0.1c0,0,0,0,0,0c-0.1-0.1-0.3,0-0.2-0.1l0,0h0h0h0
						c0,0-0.3,0.1-0.1,0.1l0.1,0l0.1-0.1c0.1-0.1,0.2-0.1,0.2-0.2c0-0.1,0.2-0.2,0.3-0.6c0.1-0.3,0.1-0.7,0.2-1.1c0-0.4,0-0.8,0-1.3
						c0-0.4-0.1-0.9-0.1-1.3l-0.2-1.3c-0.1-0.9-0.3-1.8-0.4-2.7l0.2,0.2c0,0-0.2,0-0.3-0.1c-0.1-0.1-0.1-0.2-0.2-0.2
						c-0.1-0.1-0.1-0.3-0.1-0.4C183.9,223.9,183.9,223.6,183.9,223.4z M183.9,223.4c0.1,0.2,0.3,0.4,0.4,0.7
						c0.1,0.1,0.1,0.2,0.2,0.3c0,0,0.1,0.1,0.1,0.1c0,0,0,0,0.1,0l0.1,0l0.1,0.2c0.4,0.8,0.8,1.7,1.1,2.5c0.2,0.4,0.3,0.9,0.5,1.3
						c0.1,0.5,0.3,0.9,0.4,1.4c0.1,0.5,0.2,1,0.2,1.5c0,0.5,0,1-0.1,1.6l-0.1,0.4c-0.1,0.1-0.1,0.3-0.2,0.4
						c-0.1,0.3-0.4,0.6-0.7,0.9c-0.2,0.1-0.2,0.1-0.3,0.2l-0.1,0.1l-0.1,0l-0.1,0.1l0,0l0,0l0,0l-0.1,0c-0.3,0.1-1,0.2-1.5-0.1
						c-0.3-0.2-0.4-0.3-0.5-0.5c-0.1-0.2-0.2-0.3-0.3-0.5c-0.1-0.3-0.2-0.6-0.2-0.9c-0.1-0.5-0.1-1-0.1-1.5c0-1,0.1-1.9,0.3-2.8
						c0.1-0.9,0.3-1.8,0.6-2.7l0.3-1.3C183.7,224.3,183.8,223.8,183.9,223.4z"/>
					<path fill="#6A5C50" d="M190.3,213.2c0,0,0,0.1,0.1,0.4c0.1,0.2,0.2,0.6,0.2,1.1c0.1,0.5,0.1,1,0.1,1.7c0,0.7-0.1,1.4-0.3,2.2
						c-0.1,0.8-0.3,1.6-0.4,2.4c-0.1,0.8-0.1,1.8-0.1,2.7c0,0.9,0.2,1.8,0.5,2.6c0.1,0.2,0.2,0.4,0.3,0.5c0.2,0.3,0.2,0.3,0.3,0.4
						c0.2,0.2,0.3,0.2,0.5,0.1c0.2-0.1,0.5-0.3,0.7-0.6c0.2-0.3,0.4-0.7,0.5-1.1c0.2-0.8,0.3-1.8,0.3-2.7c0-0.9-0.1-1.8-0.2-2.7
						c-0.1-0.8-0.3-1.6-0.5-2.4c-0.5-1.5-0.9-2.7-1.4-3.4C190.7,213.6,190.3,213.2,190.3,213.2z M190.3,213.2c0,0,0.1,0.1,0.3,0.2
						c0.2,0.1,0.5,0.4,0.8,0.7c0.6,0.7,1.4,1.8,2.1,3.3c0.4,0.7,0.7,1.6,0.9,2.5c0.2,0.9,0.4,1.9,0.5,2.9c0.1,1,0.1,2.1-0.2,3.3
						c-0.2,0.6-0.4,1.2-0.8,1.7c-0.4,0.5-0.9,1.1-1.7,1.3c-0.4,0.1-0.9,0.2-1.3,0.1c-0.5-0.1-0.8-0.3-1.1-0.6
						c-0.2-0.1-0.3-0.3-0.4-0.4c-0.2-0.2-0.2-0.2-0.3-0.4c-0.2-0.3-0.3-0.6-0.5-0.9c-0.5-1.1-0.5-2.3-0.5-3.3c0-1,0.2-2,0.4-3
						c0.2-0.9,0.5-1.7,0.8-2.5c0.3-0.7,0.5-1.4,0.6-2c0.1-0.6,0.2-1.1,0.3-1.6C190.3,213.8,190.3,213.2,190.3,213.2z"/>
				</g>
			</g>
			<g id="water1_3_">
				<g opacity="0.8">
					<path fill="#A3907F" d="M125,97.8c-2.5,4.7,2.7,13.8,8.8,9.3c3.6-2.6,3.8-10.1,3.5-14.3c3.6,1.8,8.2,5.8,12.7,3.7
						c4.1-1.9,1.4-6.6,3.3-9.7c1.9-3.1,8.6-1.6,11.8-1.7c2.5-0.1,3.8,0.1,4.8-2.3c0.4-0.9,0.1-4.3-0.5-5.3c-2.3-3.7-10,0.9-9.2-3.7
						c0.7-4.5,7.7-8.4,11.1-10.1c1.5-0.8,4.9-2.3,4.4-4.7c-0.6-2.5-5.3-3-7.4-2.6c-6.4,1.3-9.4,7.6-13.4,11.8
						c-3.7,3.9-11.2,10.2-11.3,0.6c0-5.5,7.4-7.1,7-12c-3.4-1.6-6.7,2.7-10.1,3.3c-4.9,0.8-4.8-2-2.6-5.2c2.3-3.2,5.8-8.4-0.3-9
						c-7.3-0.8-9,8.9-11.5,14.1c-2.9,6.1-8.6,3.3-12.6-1c-1.6-1.6-4.7-4.9-7.5-4.2c-3,0.7-3.3,6.7-2.4,8.9
						c1.7,4.5,12.8,8.1,6.2,13.8c-4.7,4-12.3-2-15.4,6.2c-8,21.2,20.9,18.6,30.6,12.9c-1.2,4-0.5,5.5,1.7,9.5"/>
					<path fill="#A3907F" d="M198.2,23.7c4.4-5.3,13.4,7.8,6,8.3c-2.5,0.1-5.5-2.4-6.4-4.6C196.3,24,199.2,23.7,198.2,23.7z"/>
					
						<ellipse transform="matrix(0.798 0.6026 -0.6026 0.798 29.3545 -75.6596)" fill="#A3907F" cx="127.6" cy="6" rx="1.9" ry="3.6"/>
					<path fill="#A3907F" d="M46,114.2c0.7,6.1-8.3,9.4-10.1,14.4c-0.8,2.2-1.8,5.4,0.6,7.1c2.6,1.9,5.4-0.4,6.8-2.5
						c1.7-2.6,3.3-5.8,2.9-9c-5.5,1.5-1.7-5.2-1-7.6C45.7,116.5,46.1,116.6,46,114.2z"/>
					<path fill="#A3907F" d="M27.7,106.2c0,1.7-1.3,3.4-1.7,5.1c-0.4,1.9-1.2,3-1.3,4.9c-0.2,2.5-0.1,6.9,2.5,8.6
						c5.5,3.6,8.2-7.4,7.7-11C27.3,117.5,30.3,109.3,27.7,106.2z"/>
					<path fill="#A3907F" d="M10.7,95.1c-1.5,2.7-2.6,4.8-3.7,8c-1.2,3.5,0.5,7.8,3.8,4.2c1.9-2.1,4-13.1-1.2-11.7
						C9.8,95.4,10.1,95.2,10.7,95.1z"/>
					
						<ellipse transform="matrix(0.8634 0.5046 -0.5046 0.8634 33.373 -13.5961)" fill="#A3907F" cx="41.8" cy="54.8" rx="1.2" ry="3.4"/>
					<path fill="#A3907F" d="M233.7,76.7c5.9,0.7,10.2,9.6,11.8,14.5c0.6,1.8,2.4,12.7-0.8,13.5c-5.9,1.3-5.4-16.6-5.5-19.4
						C239.2,81.5,234.1,79.4,233.7,76.7z"/>
					
						<ellipse transform="matrix(0.8361 -0.5485 0.5485 0.8361 -7.0949 139.4772)" fill="#A3907F" cx="229.9" cy="81.6" rx="1.6" ry="3.6"/>
					<path fill="#A3907F" d="M218.5,118.2c0.9,2.4,7.4,4.2,9.7,5.3c4.5,2.1,10.2,5.6,12.7,10c2.3,4,4.3,8.9,3.4,13.6
						c-0.6,3.4-3.7,6.1-7.3,4.8c-3.3-1.2-4.4-5.7-7.8-6.7c-3.5-1.1-7,2.4-9.3,4.7c-3.5,3.7-3.1,9.5-4.5,14.2
						c-1.4,4.5-6.2,9.6-8.5,3.8c-1.9-4.8,1.2-10.9,0-15.6c-1-4.1-4.7-7.1-3.5-11.7c0.5,2,3.1,7.4,5.9,6.5c3.2-1.1,2.7-7,2.3-9.3
						c-0.2-1.2-1.8-5.7-0.8-6.8c1.6-1.8,3.9,4.2,5.2,5c2.1,1.4,3.9,1.5,4-1.3c0.1-2.4-1.9-4.2-4-5.1c1.3,0.2,8.4-0.9,9.3-2.8
						c1-2.3-6.5-6.1-8.1-8.1C217.5,118.6,217.9,118.4,218.5,118.2z"/>
					<path fill="#A3907F" d="M174.5,161.9c4.9,4.4-0.4,17.9,6.9,19.3c6.7,1.3,3.3-11.8,1.1-14.5c-1.3-1.5-4.8-5.6-6.9-5.5
						c-0.1,0.6-0.1,1.6,0,2.2C175.9,163.4,176.6,163.4,174.5,161.9z"/>
					<path fill="#A3907F" d="M128.5,178.4c-0.3,1.9,1.2,1.6,2.5,0.9c1.4-0.8,2.3-2.8,3.1-4.1c2.1-3.5,5.4-4.9,6.2,0.1
						c0.1,1-0.3,3,1.7,2.4c0.7-0.2,1-1.8,1.3-2.4c0.6-1.3,1.8-5.3,3.2-5.9c2.2-0.8,1.9,2.1,2.5,3.6c0.6,1.4,0.8,2.8,3,1.7
						c1.1-0.6,1.6-3.4,2.4-3.6c3.7-0.6,1.5,8.9,1,10.2c-0.8,2.4-4.4,9.6-5.9,4c-0.8-2.9-1.6-8.6-4.4-2.8c-1.2,2.4-2.8,10.9-6.1,11.1
						c-4.8,0.2-3.3-9.1-4-11.7c-2.2-0.4-2.6,3.2-5,2.7C128.1,184.3,127.6,180.8,128.5,178.4z"/>
					<path fill="#A3907F" d="M94,189.9c-2.5,5.3-6,10.7-7.4,16.7c-1.4,6,1.6,14.2-1.7,19.6c-2.3,3.7-6.8,6.5-9.9,1.9
						c-1.4-2.1-2.5-5.4-2.9-7.9c-0.5-2.5-1.7-5-1.7-7.5c0-1.4-0.1-3.3,0.6-4.7c0-0.1,3-2.9,2.8-0.7c-0.3,3.7,3.4,9.7,7.5,5.2
						c2.4-2.6,2.7-8.2,4-11.4c1.4-3.5,4.2-11.2,8.1-12.6c4.2-1.6-0.7,5-1.6,6.4"/>
					<path fill="#A3907F" d="M96.4,230.1c-0.5,1.6,0.8,4.9,2.5,6.1c2.7,1.9,4-1.8,4.3-3.5c0.3-2.2-1-12,1.4-12.9
						c2.3-0.9,1.6,10.9,5.3,4.4c2.4-4.3,2.1-9.2,1.6-13.9c-0.8,1.2-2,5-3.6,3.7c-1-0.9-0.5-5-0.7-6.2c-1.5,1.8-1.3,5.2-3.4,7
						c-3.9,3.5-1.7-2.8-3-4c-0.6,0.9-1.7,1.8-1.6,2.9C99.2,213.4,98.8,222.2,96.4,230.1z"/>
					<ellipse fill="#A3907F" cx="5.8" cy="193.2" rx="1.4" ry="2.3"/>
					<ellipse fill="#A3907F" cx="36.3" cy="228.5" rx="1.4" ry="2.1"/>
					
						<ellipse transform="matrix(0.9727 0.2319 -0.2319 0.9727 47.2 -5.703)" fill="#A3907F" cx="47.9" cy="197.9" rx="1.6" ry="4.8"/>
					
						<ellipse transform="matrix(0.9039 0.4277 -0.4277 0.9039 138.4552 -30.2309)" fill="#A3907F" cx="136.5" cy="293.1" rx="1" ry="3.6"/>
					<ellipse fill="#A3907F" cx="159.1" cy="287.5" rx="0.9" ry="2.3"/>
					<ellipse fill="#A3907F" cx="195.1" cy="269.8" rx="1.4" ry="2.9"/>
					
						<ellipse transform="matrix(0.9258 0.378 -0.378 0.9258 110.1552 -65.6301)" fill="#A3907F" cx="222.3" cy="247.8" rx="1.6" ry="3.1"/>
					<path fill="#A3907F" d="M242.7,242.7c1.8,4.2-2.5,3.7-4.2,5.5c-1.7,1.7-2,6.2,0.6,7c3.5,1.1,4.3-3.4,4.3-5.9c0-1.2,0-2.5,0-3.8
						C243.5,244.6,243.8,242.5,242.7,242.7z"/>
					<path fill="#A3907F" d="M251.1,239c-2.6,0.8-1.1,6.2,2.2,5.8c2.5-0.4,3.5-2.1,3.7-4.5c0.2-3.8-1.8-7.4-2-11
						c-0.9,2.2-0.7,4.5-1.6,6.6C252.6,237.6,249.7,239,251.1,239z"/>
				</g>
				<g opacity="0.7">
					<path fill="#6A5C50" d="M127.2,8.8c0.4,0,0.7,0.1,1.1,0.1l-0.2,0c0.6-0.9,1.1-1.8,1.5-2.7c0.1-0.2,0.1-0.5,0.2-0.7
						c0-0.2,0-0.4,0-0.6c-0.1-0.2-0.1-0.3-0.3-0.4c-0.1-0.1-0.3-0.2-0.5-0.2l-0.2,0l0,0c0.1,0,0,0,0,0l-0.1,0c-0.1,0-0.3,0-0.4,0
						c-0.2,0-0.4,0-0.6,0.1c-0.2,0.1-0.4,0.2-0.6,0.3c-0.2,0.1-0.4,0.3-0.5,0.5c-0.7,0.7-1.1,1.7-1.5,2.7c0-0.5,0.1-1.1,0.2-1.6
						c0.2-0.5,0.4-1.1,0.7-1.5c0.2-0.2,0.4-0.5,0.6-0.7c0.2-0.2,0.5-0.4,0.8-0.5c0.3-0.1,0.6-0.2,1-0.2c0.2,0,0.3,0,0.4,0l0.1,0
						l0.1,0l0.1,0l0.2,0.1c0.3,0.1,0.6,0.2,0.9,0.4c0.3,0.2,0.5,0.6,0.6,0.9c0.1,0.4,0.1,0.7,0,1c-0.1,0.3-0.2,0.6-0.3,0.9
						c-0.5,1.1-1.2,1.9-2,2.6l-0.1,0.1l-0.1,0C127.9,9.1,127.5,8.9,127.2,8.8z"/>
					<path fill="#6A5C50" d="M198.6,24.8c0,0,1-0.3,2.5-0.3c0.8,0,1.7,0.1,2.6,0.4c0.5,0.1,1,0.3,1.4,0.6c0.5,0.3,0.9,0.6,1.3,1.1
						l0.4,0.6c0.1,0.3,0.3,0.5,0.4,0.8c0.2,0.5,0.2,1.2-0.1,1.7c-0.3,0.5-0.7,0.9-1.2,1.1c-0.4,0.2-0.9,0.3-1.3,0.3
						c-0.8,0-1.4-0.1-1.9-0.3c-0.2-0.1-0.4-0.2-0.5-0.2c-0.1-0.1-0.2-0.1-0.2-0.1s0.3,0.1,0.7,0.1c0.2,0,0.5,0,0.8,0
						c0.3,0,0.6-0.1,1-0.1c0.3-0.1,0.7-0.2,1-0.4c0.3-0.2,0.6-0.5,0.7-0.8c0.1-0.3,0.1-0.7,0-1.1c0-0.2-0.2-0.4-0.3-0.6l-0.4-0.6
						c-0.2-0.3-0.6-0.6-1-0.8c-0.4-0.2-0.8-0.4-1.2-0.6c-0.8-0.3-1.7-0.5-2.4-0.6c-0.7-0.1-1.3-0.2-1.8-0.2
						C198.8,24.8,198.6,24.8,198.6,24.8z"/>
					<path fill="none" stroke="#6A5C50" stroke-miterlimit="10" d="M228.9,78.8c1.2,0.8,5.9,6.3,1.7,5.6c-1-1.5-1.9-3-1.7-4.9"/>
					<path fill="#6A5C50" d="M233.6,77.4c0,0,0.2,0,0.6,0.1c0.4,0.1,1,0.4,1.7,0.8c1.3,0.9,3.1,2.4,4.9,4.4c0.9,1,1.9,2.1,2.8,3.4
						c0.9,1.3,1.7,2.7,2.5,4.2c0.8,1.5,1.6,3.1,2.1,4.9c0.2,0.9,0.4,1.8,0.5,2.8c0,0.5,0,1-0.1,1.5c0,0.4-0.2,1-0.3,1.5
						c-0.3,0.9-0.7,1.8-1.3,2.6c-0.5,0.8-1.2,1.6-2.2,2.2c-0.5,0.3-1.2,0.4-1.9,0.3c-0.7-0.2-1.2-0.5-1.6-0.9l-0.3-0.3l-0.1-0.1l0,0
						l0,0l-0.1-0.1l-0.1-0.1c-0.1-0.1-0.1-0.2-0.2-0.3l-0.2-0.4c-0.2-0.5-0.3-0.9-0.4-1.4c-0.4-1.8-0.4-3.4-0.5-4.9
						c0-0.8-0.1-1.5-0.2-2.2c-0.1-0.6-0.2-1.4-0.4-2c-0.6-2.6-1.3-4.7-1.7-6.2c-0.2-0.7-0.4-1.3-0.5-1.7c0-0.1-0.1-0.2-0.1-0.3
						c0,0-0.1-0.1,0-0.1c0,0,0,0,0,0.1c0,0.1,0,0.2,0,0.2s0-0.1,0-0.2c0,0,0-0.1,0-0.1c0.1,0,0.1,0,0.1,0.1c0,0.1,0.1,0.1,0.1,0.2
						c0.2,0.4,0.5,0.9,0.8,1.6c0.6,1.4,1.6,3.5,2.4,6.1c0.2,0.7,0.4,1.3,0.6,2.1c0.2,0.7,0.2,1.5,0.3,2.3c0.2,1.5,0.3,3.1,0.7,4.6
						c0.1,0.4,0.2,0.7,0.4,1l0.1,0.2c0,0.1,0.1,0.2,0.2,0.3l0.1,0.1c0,0,0,0.1,0,0l0,0l0,0l0,0l0.2,0.2c0.5,0.4,0.7,0.5,1.3,0.2
						c0.5-0.3,1-0.9,1.5-1.5c0.4-0.7,0.8-1.4,1-2.2c0.1-0.4,0.2-0.6,0.3-1.1c0-0.3,0.1-0.8,0.1-1.1c0-0.8-0.2-1.6-0.4-2.4
						c-0.4-1.6-1.1-3.2-1.8-4.6c-0.7-1.4-1.5-2.9-2.2-4.2c-0.8-1.3-1.6-2.4-2.4-3.5c-1.6-2.1-3-3.8-4.2-4.8c-0.6-0.5-1.1-0.8-1.5-1
						C233.8,77.5,233.6,77.4,233.6,77.4z"/>
					<path fill="#6A5C50" d="M218.2,120.8c2.3,0.6,4.5,1.4,6.7,2.3c2.2,0.9,4.3,1.9,6.4,3.1c2,1.2,4,2.7,5.8,4.3
						c0.9,0.8,1.7,1.7,2.5,2.7c0.1,0.1,0.2,0.2,0.3,0.4l0.3,0.4c0.2,0.3,0.3,0.6,0.5,0.8c0.3,0.5,0.6,1.1,0.8,1.7
						c1,2.2,1.6,4.6,1.9,7c0.1,1.2,0.2,2.5,0,3.8c-0.2,1.3-0.6,2.6-1.6,3.7c-0.5,0.5-1.1,1-1.7,1.3l-0.2,0.1l-0.1,0l-0.1,0l-0.1,0
						l-0.4,0.1c-0.3,0.1-0.8,0.2-1.1,0.2c-1.5,0.1-2.9-0.5-3.9-1.3c-1-0.8-1.9-1.7-2.7-2.5c-0.8-0.8-1.6-1.6-2.5-2
						c-0.9-0.5-1.7-0.5-2.6-0.2c-0.9,0.3-1.8,1-2.6,1.7c-1.6,1.5-2.9,3.4-4,5.4l-0.8,1.5c-0.1,0.2-0.3,0.6-0.4,0.7
						c-0.1,0.3-0.3,0.6-0.3,0.8c-0.4,1-0.7,2.1-0.9,3.2c-0.6,2.3-1,4.6-2,6.9c-0.5,1.1-1.1,2.3-2.1,3.2c-0.2,0.2-0.5,0.4-0.8,0.6
						l-0.1,0l0,0c0,0-0.1,0.1-0.1,0.1l-0.1,0l-0.2,0.1l-0.4,0.2c-0.7,0.3-1.6,0.4-2.3,0.1c-0.7-0.3-1.3-0.9-1.6-1.4
						c-0.4-0.6-0.6-1.2-0.7-1.8c-0.3-1.2-0.4-2.5-0.3-3.7c0-0.6,0.1-1.2,0.3-1.9l0.6-1.7c0.4-1.1,0.8-2.2,1.1-3.3
						c0.3-1.1,0.5-2.3,0.6-3.4c0-1.1-0.2-2.3-0.9-3.3l0.1,0c-0.3,0.6-0.4,1.3-0.3,1.9c-0.1-0.7-0.1-1.4,0.2-2l0-0.1l0.1,0.1
						c0.8,0.9,1.1,2.2,1.2,3.4c0.1,1.2-0.1,2.4-0.4,3.6c-0.2,1.2-0.6,2.3-0.9,3.5l-0.5,1.7c-0.1,0.5-0.2,1.1-0.2,1.6
						c0,1.1,0.1,2.3,0.5,3.3c0.3,1,0.9,2.1,1.7,2.3c0.2,0.1,0.4,0.1,0.6,0.1c0.2,0,0.4-0.1,0.6-0.1l0.4-0.2l0.2-0.1l0.1-0.1
						c0,0-0.1,0.1,0,0l0,0l0,0c0.2-0.2,0.4-0.3,0.6-0.5c0.7-0.7,1.3-1.7,1.7-2.7c0.8-2.1,1.2-4.4,1.7-6.7c0.3-1.2,0.5-2.3,1-3.6
						c0.1-0.3,0.2-0.6,0.3-0.8c0.2-0.4,0.3-0.6,0.4-0.8c0.3-0.5,0.5-1.1,0.8-1.6c1.2-2.1,2.5-4.2,4.4-5.9c0.9-0.8,2-1.6,3.3-2.1
						c0.7-0.2,1.4-0.3,2.1-0.3c0.7,0,1.5,0.3,2.1,0.6c1.2,0.7,2.1,1.6,3,2.4c0.8,0.9,1.6,1.7,2.5,2.3c0.8,0.6,1.7,1,2.6,0.9
						c0.2,0,0.4-0.1,0.6-0.1l0.4-0.1l0.1,0c0,0,0.1,0,0,0l0,0l0.2-0.1c0.4-0.2,0.8-0.5,1.1-0.8c0.6-0.7,1-1.7,1.2-2.7
						c0.2-1.1,0.2-2.2,0.1-3.3c-0.2-2.2-0.8-4.5-1.6-6.6c-0.2-0.5-0.4-1-0.7-1.5c-0.1-0.3-0.3-0.5-0.4-0.7l-0.2-0.4l-0.2-0.3
						c-0.3-0.5-0.7-0.9-1.1-1.3c-0.4-0.4-0.7-0.9-1.2-1.3c-1.6-1.7-3.4-3.1-5.4-4.4c-1.9-1.3-4-2.5-6.1-3.5
						C222.6,122.5,220.4,121.6,218.2,120.8z"/>
					<path fill="none" stroke="#6A5C50" stroke-miterlimit="10" d="M205.6,142.4c-1.5,3.6,3.9,8.1,5.4,2.2c0.7-2.5,0.7-6.6-0.4-8.8"
						/>
					<path fill="none" stroke="#6A5C50" stroke-miterlimit="10" d="M211.9,132.1c0,2.8,5.9,6.1,8.3,4.3c3.5-2.7-0.9-6.3-3.6-6.9
						c1.3,0,7,0.1,7.8-0.7c2-2-0.6-3.9-2.3-4.9"/>
					<path fill="#6A5C50" d="M106.9,79.4c0,0,0.2,0,0.6,0.1c0.4,0,1-0.1,1.6-0.4c0.6-0.3,1.4-0.9,2-1.6c0.6-0.8,1.2-1.8,1.6-2.9
						c0.1-0.6,0.2-1.2,0.1-1.7c0-0.1-0.1-0.3-0.1-0.4l-0.1-0.2c0,0,0-0.1,0,0l0-0.1l-0.1-0.1l-0.1-0.2l-0.1-0.1
						c-0.1-0.1-0.2-0.2-0.3-0.3c-0.9-0.9-2.4-1.5-3.8-2.3c-0.7-0.4-1.5-0.8-2.2-1.3c-0.4-0.3-0.7-0.6-1.1-0.9l-0.4-0.5l-0.5-0.6
						c-1.1-1.5-1.7-3.5-1.6-5.5c0.1-1.9,1-3.9,2.7-5.2c0.8-0.6,1.9-0.9,2.9-0.9c1,0,2,0.3,2.8,0.7c1.6,0.8,2.8,2.1,3.7,3.3
						c1,1.2,1.6,2.5,2.3,3.6c0.7,1.1,1.4,1.9,2.2,2.5c0.8,0.6,1.7,0.8,2.4,1c0.7,0.1,1.3,0.2,1.7,0.3c0.4,0,0.6,0.1,0.6,0.1
						s-0.2,0-0.6,0.1c-0.4,0-1,0.1-1.8,0c-0.8-0.1-1.7-0.2-2.7-0.8c-1-0.5-1.9-1.4-2.7-2.5c-0.8-1-1.6-2.2-2.5-3.3
						c-1-1.1-2-2.1-3.3-2.7c-0.6-0.3-1.3-0.5-2-0.4c-0.7,0-1.3,0.2-1.8,0.6c-1.1,0.8-1.8,2.2-1.8,3.7c-0.1,1.5,0.3,3,1.2,4.2
						l0.3,0.4l0.4,0.5c0.2,0.2,0.5,0.5,0.8,0.7c0.6,0.5,1.3,0.9,2,1.2c1.4,0.8,2.8,1.5,4,2.8c0.3,0.3,0.6,0.8,0.7,1.1l0.1,0.1l0,0.1
						c0.1,0.1,0,0.1,0.1,0.1l0.1,0.3c0.1,0.2,0.1,0.4,0.1,0.6c0.1,0.8-0.1,1.6-0.3,2.3c-0.5,1.3-1.3,2.3-2.1,3.1
						c-0.8,0.7-1.7,1.2-2.4,1.5c-0.7,0.3-1.4,0.2-1.8,0.2C107.1,79.5,106.9,79.4,106.9,79.4z"/>
					<path fill="#6A5C50" d="M116.6,63.2l-0.3,0.4l0-0.2c1.8,1,3.9,0.9,5.7,0.4c0.9-0.3,1.8-0.7,2.6-1.2c0.4-0.3,0.8-0.6,1.1-0.9
						c0.1-0.1,0.3-0.4,0.5-0.5c0.1-0.2,0.2-0.3,0.4-0.5c0.5-0.8,0.7-1.6,0.9-2.6c0.2-1,0.2-2,0.4-3.1c0.2-1.1,0.4-2.2,1.1-3.2
						c0.6-1,1.4-1.7,2.3-2.4c0.9-0.7,1.8-1.2,2.7-1.7c1-0.5,2-0.9,3-1.1c1-0.2,2.2-0.3,3.3,0.4c0.5,0.4,0.8,1,0.9,1.5
						c0.1,0.6,0.1,1.1,0,1.7c-0.1,0.5-0.2,1.1-0.4,1.6c-0.2,0.5-0.4,1-0.6,1.5c-0.5,1-1,1.9-1.5,2.8c-1,1.8-1.9,3.5-2,5.4l-0.6-0.9
						c0.4,0.1,0.9,0.3,1.3,0.3c0.4,0.1,0.8,0.1,1.2,0c0.4-0.1,0.8-0.2,1.1-0.4c0.4-0.2,0.7-0.4,1.1-0.7c0.7-0.6,1.5-1.3,2.4-1.9
						c0.4-0.3,0.9-0.6,1.4-0.9c0.1-0.1,0.2-0.1,0.4-0.2l0.4-0.2c0.3-0.1,0.6-0.2,0.9-0.3c0.6-0.1,1.1-0.2,1.7-0.3
						c0.6,0,1.2,0,1.9,0.2c0.2,0.1,0.3,0.1,0.5,0.2c0.2,0.1,0.3,0.2,0.5,0.4c0.3,0.3,0.5,0.8,0.5,1.2c0,0.8-0.2,1.4-0.5,1.9
						c-0.4,0.7-1,1.1-1.5,1.3c-0.5,0.3-1,0.4-1.4,0.6c-0.4,0.2-0.6,0.4-0.7,0.7c-0.1,0.3-0.1,0.8-0.1,1.3l-0.3-0.4
						c0.7,0.3,1.5,0.5,2.3,0.5c0.8,0.1,1.6,0,2.5-0.1l0,0.2c-0.8,0.3-1.6,0.5-2.5,0.6c-0.9,0.1-1.8,0-2.6-0.2l-0.3-0.1l-0.1-0.3
						c-0.1-0.5-0.2-1.1-0.1-1.8c0.1-0.7,0.6-1.3,1.1-1.6c0.5-0.3,1-0.6,1.4-0.8c0.4-0.2,0.6-0.5,0.7-0.7c0.2-0.3,0.2-0.8,0.2-1
						c0,0,0-0.1,0-0.1c0,0,0,0,0-0.1c0,0,0,0-0.1-0.1c0,0-0.1,0-0.2-0.1c-0.3-0.1-0.7-0.1-1.1-0.1c-0.4,0.1-0.9,0.1-1.3,0.3
						c-0.2,0.1-0.4,0.1-0.6,0.2c-0.1,0-0.2,0.1-0.3,0.2l-0.3,0.2c-0.4,0.2-0.8,0.5-1.1,0.8c-0.8,0.6-1.5,1.2-2.4,1.9
						c-0.4,0.3-0.9,0.6-1.5,0.9c-0.5,0.3-1.1,0.4-1.8,0.5c-0.6,0.1-1.2,0-1.8-0.1c-0.6-0.1-1.1-0.3-1.7-0.5l-0.6-0.3l0.1-0.7
						c0.1-1.2,0.4-2.3,0.9-3.3c0.5-1,1.1-1.9,1.7-2.8c0.6-0.9,1.2-1.7,1.7-2.5c0.3-0.4,0.5-0.9,0.7-1.3c0.2-0.5,0.4-0.9,0.5-1.4
						c0.1-0.5,0.2-1,0.2-1.4c0-0.5-0.2-0.9-0.5-1.1c-0.7-0.6-1.8-0.6-2.7-0.4c-2,0.4-3.8,1.5-5.2,2.9c-0.7,0.7-1.3,1.5-1.7,2.3
						c-0.4,0.7-0.5,1.7-0.6,2.7c-0.1,1-0.2,2-0.3,3.1c-0.2,1.1-0.5,2.2-1.2,3.2c-0.1,0.3-0.4,0.5-0.6,0.7c-0.2,0.2-0.3,0.3-0.6,0.6
						c-0.4,0.4-0.9,0.7-1.4,1c-1,0.6-2,0.9-3.1,1.2c-1.1,0.2-2.2,0.2-3.3,0c-1.1-0.2-2.1-0.7-2.9-1.4l-0.1-0.1l0.1-0.1l0.4-0.3
						L116.6,63.2z"/>
					<path fill="#6A5C50" d="M143.9,67.8c0,1.4,0.1,2.8,0.4,4.2c0.2,0.7,0.4,1.4,0.7,1.9c0.3,0.6,0.8,1.1,1.4,1.3
						c0.6,0.2,1.2,0.1,1.8-0.2c0.6-0.3,1.2-0.7,1.7-1.1c1.1-0.9,1.9-2,2.7-3.1c1.6-2.3,2.7-5,4.6-7.3c0.2-0.3,0.5-0.6,0.8-0.8
						c0.3-0.3,0.5-0.5,0.8-0.8c0.5-0.5,1.1-1,1.7-1.4c1.2-0.9,2.4-1.7,3.8-2.3c1.4-0.6,2.9-0.9,4.4-1c1.5-0.1,2.9,0,4.5,0.3
						c0.7,0.2,1.7,0.5,2.4,1.4c0.3,0.5,0.4,1.2,0.3,1.7c-0.1,0.5-0.3,0.9-0.5,1.3l0,0.1l0,0l0,0l-0.1,0.1l-0.1,0.1
						c-0.1,0.1-0.1,0.1-0.2,0.2c-0.1,0.1-0.2,0.2-0.3,0.3c-0.1,0.1-0.2,0.1-0.3,0.2c-0.4,0.3-0.7,0.5-1.1,0.6
						c-0.7,0.3-1.5,0.5-2.1,0.7c-0.7,0.2-1.4,0.4-1.9,0.6l-0.1,0l0,0c0,0,0,0,0,0l0,0l-0.1,0l-0.2,0.1c-0.2,0.1-0.3,0.2-0.5,0.3
						c-0.3,0.2-0.5,0.3-0.8,0.5c-1.1,0.8-2.1,1.7-3.1,2.6c-0.9,1-1.8,2-2.4,3.2c-0.6,1.1-1.1,2.4-1.1,3.5l-0.8-1
						c1,0.2,2.2,0.2,3.4,0.3c1.2,0.1,2.6,0.2,3.9,0.9c0.7,0.4,1.2,1,1.6,1.6c0.4,0.6,0.6,1.2,0.8,1.9c0.1,0.3,0.1,0.5,0.2,0.9
						c0,0.4,0.1,0.7,0.1,1.1c0,0.7-0.3,1.5-0.7,2.2c-0.5,0.6-1.2,1.1-1.8,1.3c-0.7,0.2-1.3,0.4-1.9,0.5c-1.3,0.2-2.5,0.1-3.7,0.1
						c-1.2,0-2.4-0.1-3.6-0.1c-1.1,0-2.3,0-3.2,0.4c-0.9,0.3-1.6,1.1-1.9,2.1l-0.2,0.8l-0.2,0.9c-0.1,0.6-0.2,1.1-0.3,1.7
						c-0.1,0.6-0.1,1.2-0.3,1.8c-0.2,0.6-0.5,1.3-1.1,1.8c-0.6,0.5-1.2,0.7-1.8,0.9c-0.6,0.2-1.2,0.2-1.8,0.3
						c-0.6,0.1-1.2,0.1-1.8,0.1c-0.6,0-1.2-0.1-1.8-0.1c-1.2-0.2-2.4-0.5-3.5-1.1c-1.1-0.6-2-1.4-2.7-2.4c-0.7-1-1.2-2.1-1.6-3.2
						l0,0l0,0c0-0.2,0.1-0.3,0.2-0.4c0.1-0.1,0.3-0.1,0.4-0.2c-0.3,0-0.6,0.3-0.6,0.6l0,0c0.5,1.1,1.1,2.1,1.8,3
						c0.8,0.9,1.7,1.6,2.7,2.1c1,0.5,2.2,0.8,3.3,0.9c0.6,0,1.2,0,1.7,0c0.6,0,1.2-0.1,1.7-0.2c1.1-0.2,2.3-0.4,3-1
						c0.7-0.6,0.7-1.8,0.9-3c0.1-0.6,0.1-1.2,0.2-1.8l0.1-0.9l0.2-1c0.4-1.2,1.4-2.5,2.7-3c1.3-0.6,2.6-0.6,3.8-0.6l3.6,0
						c1.2,0,2.4,0,3.4-0.2c0.6-0.1,1.1-0.2,1.5-0.4c0.4-0.2,0.8-0.4,1-0.7c0.2-0.3,0.3-0.7,0.3-1.2c0-0.2,0-0.5,0-0.7
						c0-0.2-0.1-0.6-0.2-0.8c-0.1-0.5-0.3-1-0.6-1.4c-0.3-0.4-0.6-0.7-0.9-0.9c-0.8-0.5-1.8-0.6-3-0.6c-1.2-0.1-2.4-0.1-3.7-0.3
						l-0.8-0.2l0-0.8c0-1.7,0.6-3.2,1.3-4.5c0.8-1.3,1.7-2.5,2.7-3.6c1-1.1,2.2-2,3.4-2.9c0.3-0.2,0.6-0.4,1-0.6
						c0.2-0.1,0.3-0.2,0.5-0.3l0.2-0.1l0.1,0l0.1,0l0.1-0.1c0.8-0.4,1.5-0.5,2.2-0.7c0.7-0.2,1.3-0.4,1.9-0.6
						c0.3-0.1,0.5-0.3,0.7-0.4l0.1-0.1c0,0,0,0,0.1-0.1c0,0,0.1-0.1,0.1-0.2l0.1-0.1c0-0.1,0,0.1,0,0.1l0,0l0,0l0,0
						c0.1-0.3,0.2-0.5,0.3-0.7c0-0.2,0-0.3,0-0.4c-0.1-0.2-0.6-0.5-1.2-0.7c-1.2-0.3-2.7-0.4-4-0.3c-1.3,0.1-2.6,0.4-3.9,0.8
						c-1.2,0.5-2.4,1.2-3.5,2c-0.5,0.4-1.1,0.8-1.6,1.3c-0.3,0.2-0.5,0.5-0.8,0.7c-0.2,0.2-0.5,0.5-0.7,0.7c-1.8,2-3.1,4.6-4.8,6.9
						c-0.8,1.2-1.9,2.3-3,3.1c-0.6,0.4-1.2,0.8-1.9,1.1c-0.7,0.3-1.6,0.4-2.3,0.1c-0.8-0.3-1.2-1-1.6-1.6c-0.3-0.7-0.5-1.4-0.6-2.1
						C143.7,70.6,143.7,69.2,143.9,67.8z"/>
					<path fill="#6A5C50" d="M125.2,89.4c0,0,0,0.2,0.1,0.4c0.1,0.3,0.2,0.7,0.3,1.3c0.2,1.1,0.2,2.8,0.1,4.7
						c-0.1,1.9-0.4,4.2-0.3,6.4c0.1,1.1,0.3,2.2,0.8,3c0.3,0.4,0.6,0.7,1.1,0.9c0.5,0.2,1,0.4,1.5,0.4c0.6,0.1,1.1,0.1,1.7,0.1
						l0.9-0.1c0.3-0.1,0.5-0.1,0.8-0.1c0.5-0.1,1-0.3,1.4-0.6c0.4-0.3,0.7-0.6,1-1c0.5-0.8,0.7-1.9,0.8-2.9c0.1-1,0.1-2.1,0.1-3
						c0-1,0.1-1.9,0.2-2.7c0.1-0.8,0.4-1.5,0.7-2c0.4-0.5,0.8-0.7,1.1-0.8c0.3-0.1,0.4-0.1,0.4-0.1s-0.1,0.1-0.4,0.2
						c-0.2,0.2-0.6,0.5-0.8,0.9c-0.5,1-0.3,2.5-0.2,4.4c0.1,1,0.2,2,0.2,3.2c0,1.1-0.1,2.5-0.8,3.7c-0.4,0.6-0.9,1.2-1.5,1.6
						c-0.6,0.4-1.3,0.7-2,0.9c-0.3,0.1-0.7,0.1-1.1,0.2l-1,0.1c-0.7,0-1.4,0-2.1-0.1c-0.7-0.1-1.4-0.3-2.1-0.7
						c-0.7-0.4-1.3-0.9-1.7-1.6c-0.4-0.6-0.7-1.4-0.8-2.1c-0.1-0.7-0.2-1.4-0.2-2c0-1.3,0.2-2.5,0.3-3.6c0.2-1.1,0.4-2.1,0.6-3.1
						c0.4-1.9,0.6-3.4,0.6-4.5c0-0.6,0-1,0-1.3C125.2,89.6,125.2,89.4,125.2,89.4z"/>
					<path fill="#6A5C50" d="M119.6,81.1c0,0,0,0.3-0.2,0.8c-0.2,0.5-0.8,1.2-1.8,1.4c-1,0.2-2.3,0.1-3.6-0.3
						c-1.3-0.4-2.8-0.9-4.2-1.6c-0.7-0.3-1.5-0.7-2.3-1c-0.4-0.2-0.8-0.3-1.2-0.4c-0.4-0.1-0.8-0.2-1.2-0.3
						c-1.7-0.3-3.4-0.2-4.9,0.6c-0.8,0.4-1.5,0.9-2.1,1.5L97.9,82L97.8,82l0,0l0,0c-0.1,0.1,0.1-0.1,0-0.1l-0.2,0.3l-0.5,0.6
						c-0.3,0.4-0.7,0.8-0.9,1.2c-0.2,0.4-0.5,0.8-0.7,1.2l-0.6,1.3L94.5,88c-0.1,0.5-0.1,0.9-0.1,1.4c-0.1,1.8,0.5,3.7,1.5,5.2
						c1.1,1.5,2.5,2.8,4.1,3.7c1.6,0.9,3.4,1.5,5.1,1.7c1.7,0.3,3.4,0.2,5,0.2c3.2-0.2,5.9-0.7,7.7-0.9c1.9-0.3,3-0.4,3-0.4
						s-1,0.3-2.8,0.9c-0.9,0.3-2,0.7-3.3,1c-1.3,0.4-2.7,0.8-4.4,1c-1.6,0.3-3.5,0.5-5.5,0.4c-2-0.1-4.1-0.6-6.1-1.5
						c-2-1-3.9-2.4-5.3-4.4c-1.4-2-2.2-4.5-2.1-7c0.1-0.6,0.1-1.2,0.2-1.8c0.2-0.6,0.3-1.2,0.5-1.8l0.7-1.7c0.3-0.5,0.6-1,1-1.6
						c0.3-0.6,0.7-0.9,1-1.3l0.5-0.6l0.3-0.3l0.1-0.1l0,0l0,0l0.1-0.1l0.2-0.2c0.9-0.8,1.9-1.5,3-2c2.2-1,4.6-0.9,6.5-0.3
						c0.5,0.1,1,0.3,1.4,0.5c0.5,0.2,0.9,0.4,1.3,0.6c0.9,0.4,1.6,0.9,2.3,1.3c1.4,0.8,2.7,1.5,3.8,2.1c1.2,0.5,2.2,0.8,3.1,0.8
						c0.9-0.1,1.5-0.5,1.7-0.9C119.5,81.4,119.5,81.1,119.6,81.1z"/>
					<path fill="#6A5C50" d="M11.9,94.8c0,0-0.1,0-0.3,0.2c-0.2,0.1-0.5,0.4-0.7,0.7c-0.6,0.7-1.2,1.7-1.9,3.1
						c-0.6,1.3-1.3,3-1.7,4.7c-0.2,0.9-0.4,1.8-0.4,2.7c0,0.4,0,0.8,0.2,1.1c0.1,0.3,0.3,0.4,0.5,0.5c0.1,0,0.1,0,0.2,0.1l0,0
						c-0.1,0,0.1,0-0.1,0l0,0l0,0l0.1,0c0,0,0.2,0,0.1,0c-0.1,0,0,0,0.2-0.1c0.3-0.2,0.6-0.5,0.8-0.8c0.5-0.7,1.1-1.5,1.5-2.3
						c0.4-0.8,0.7-1.6,1-2.4c0.3-0.8,0.4-1.5,0.5-2.3c0.2-1.5,0.2-2.8,0.2-3.7C11.9,95.3,11.9,94.8,11.9,94.8z M11.9,94.8
						c0,0,0.2,0.5,0.4,1.4c0.2,0.9,0.4,2.2,0.5,3.7c0,0.4,0,0.8,0,1.3c0,0.5-0.1,0.9-0.2,1.4c-0.2,0.9-0.4,1.9-0.8,2.8
						c-0.4,0.9-0.9,1.9-1.5,2.8c-0.3,0.4-0.7,0.9-1.3,1.3c-0.3,0.2-0.6,0.4-1.2,0.5c-0.2,0-0.2,0-0.3,0l-0.1,0l0,0l0,0
						c-0.3,0-0.1,0-0.2,0l0,0c-0.2-0.1-0.4-0.1-0.5-0.2c-0.8-0.3-1.3-1.1-1.5-1.7c-0.2-0.7-0.2-1.3-0.2-1.8c0-1.2,0.3-2.2,0.6-3.1
						c0.6-1.9,1.5-3.5,2.4-4.8c0.9-1.3,1.8-2.3,2.6-2.8c0.4-0.3,0.7-0.4,1-0.5C11.8,94.8,11.9,94.8,11.9,94.8z"/>
					<path fill="#6A5C50" d="M27.9,105.4c0,0-0.1,0.5-0.4,1.5c-0.3,0.9-0.7,2.2-1.2,3.8c-0.2,0.8-0.5,1.6-0.7,2.5
						c-0.2,0.9-0.4,1.8-0.6,2.8c-0.1,1-0.3,2-0.2,3c0,1,0.2,2,0.5,2.9l0.3,0.7c0.1,0.2,0.2,0.4,0.3,0.6c0,0.1,0.1,0.2,0.2,0.3
						l0.2,0.3c0.2,0.2,0.3,0.4,0.5,0.5c0.3,0.3,0.6,0.6,0.9,0.7c0.3,0.1,0.6,0.2,0.9,0.1c0.6-0.2,1.3-0.9,1.8-1.6
						c0.5-0.7,1-1.4,1.4-2.1c0.8-1.4,1.4-2.6,1.8-3.5c0.4-0.9,0.7-1.3,0.7-1.3s-0.1,0.5-0.3,1.5c-0.2,0.9-0.5,2.3-1.1,3.8
						c-0.3,0.8-0.6,1.6-1.2,2.5c-0.5,0.8-1.1,1.8-2.4,2.4c-0.6,0.3-1.5,0.3-2.2,0c-0.7-0.2-1.2-0.7-1.7-1.1
						c-0.2-0.2-0.5-0.5-0.6-0.7l-0.3-0.3c-0.1-0.2-0.2-0.3-0.3-0.4c-0.2-0.3-0.3-0.5-0.5-0.8l-0.4-0.9c-0.4-1.2-0.6-2.4-0.5-3.5
						c0-1.2,0.2-2.3,0.4-3.3c0.5-2.1,1.3-3.9,2-5.4c0.7-1.5,1.4-2.7,1.9-3.5C27.6,105.9,27.9,105.4,27.9,105.4z"/>
					<path fill="#6A5C50" d="M27.9,107.8c0,0,0.1,0.1,0.2,0.4c0.1,0.3,0.3,0.7,0.4,1.2c0.3,1,0.5,2.4,0.9,3.7
						c0.2,0.6,0.4,1.3,0.6,1.8c0.3,0.5,0.6,0.9,1,0.9c0.2,0,0.4,0,0.6,0c0.2,0,0.4-0.1,0.5-0.2c0.3-0.1,0.4-0.2,0.4-0.2
						s-0.1,0.1-0.3,0.4c-0.1,0.1-0.3,0.2-0.5,0.3c-0.2,0.1-0.5,0.2-0.8,0.3c-0.3,0-0.7-0.1-1-0.3c-0.3-0.2-0.6-0.5-0.7-0.8
						c-0.4-0.6-0.6-1.3-0.8-2c-0.4-1.4-0.4-2.8-0.5-3.8c0-0.5,0-1,0-1.3C27.9,108,27.9,107.8,27.9,107.8z"/>
					<path fill="#6A5C50" d="M46.2,115.8c-0.2,0.9-0.8,1.7-1.3,2.4c-0.5,0.7-1.1,1.4-1.7,2.1c-1.2,1.4-2.4,2.7-3.6,4
						c-1.2,1.3-2.3,2.7-3.3,4.1c-0.5,0.7-0.9,1.5-1.1,2.2c-0.2,0.7-0.3,1.4,0,2c0.1,0.3,0.3,0.5,0.6,0.8l0.2,0.2l0,0l0,0l0,0
						c0.1,0.1-0.1-0.1-0.1-0.1l0.1,0l0.1,0.1l0.3,0.2c0.1,0,0.1,0,0.2,0.1c0.5,0.2,1.3,0.2,2,0c1.5-0.4,3-1.3,4.3-2.4
						c0.3-0.3,0.6-0.6,0.9-0.8l0.1-0.1l0,0c0,0.1,0,0,0,0l0-0.1l0.2-0.3c0.1-0.2,0.2-0.3,0.3-0.5c0.4-0.7,0.6-1.5,0.9-2.3
						c0.2-0.8,0.4-1.8,0.7-2.7c0.3-0.9,0.8-1.8,1.4-2.6l2.4-2.9l-1.5,3.4c-0.3,0.6-0.7,1.1-1.1,1.6c-0.2,0.2-0.5,0.4-0.7,0.6
						c-0.3,0.2-0.5,0.4-0.8,0.5c-0.3,0.1-0.6,0.2-0.9,0.3c-0.2,0-0.3,0-0.5,0c-0.2-0.1-0.3-0.1-0.5-0.2c-0.1-0.1-0.3-0.2-0.3-0.4
						c-0.1-0.1-0.2-0.3-0.2-0.4c-0.1-0.3-0.1-0.6-0.1-0.9c0.1,0.3,0.1,0.6,0.3,0.8c0.1,0.1,0.1,0.2,0.2,0.3c0.1,0.1,0.2,0.2,0.3,0.2
						c0.1,0.1,0.2,0.1,0.3,0.1c0.1,0,0.2,0,0.4-0.1c0.2-0.1,0.5-0.2,0.7-0.3c0.5-0.3,0.9-0.7,1.2-1.1c0.3-0.4,0.6-0.9,0.8-1.4
						l0.9,0.5c-0.9,1.4-1.1,3.1-1.5,4.9c-0.2,0.9-0.4,1.9-0.9,2.8c-0.1,0.2-0.3,0.5-0.4,0.7l-0.2,0.3l0,0.1l0,0.1l0,0l-0.1,0.2
						c-0.3,0.4-0.7,0.8-1,1.1c-0.7,0.7-1.5,1.2-2.3,1.7c-0.8,0.5-1.7,0.9-2.7,1.2c-1,0.2-2.1,0.4-3.3-0.1c-0.2-0.1-0.3-0.1-0.4-0.2
						l-0.3-0.2l-0.1-0.1l-0.1,0l-0.1-0.1l0,0l0,0l0,0l-0.3-0.3c-0.4-0.4-0.8-0.9-1-1.4c-0.5-1.1-0.3-2.4,0-3.3
						c0.4-1,0.9-1.8,1.4-2.6c1.1-1.6,2.4-2.9,3.7-4.1c1.3-1.3,2.7-2.5,4-3.7c0.7-0.6,1.3-1.2,2-1.8
						C45.2,117.2,45.8,116.6,46.2,115.8z"/>
					<path fill="#6A5C50" d="M95.2,189.4c0,0-0.2,0.2-0.4,0.7c-0.3,0.5-0.7,1.1-1.2,2c-1,1.7-2.4,4.2-3.7,7.3
						c-0.7,1.6-1.2,3.3-1.8,5.2c-0.5,1.9-0.9,3.9-1.2,5.9c-0.3,2.1-0.3,4.2-0.3,6.4c0,1.1,0.1,2.2,0.2,3.3c0,0.5,0.1,1.2,0.1,1.8
						c0,0.6,0,1.2-0.1,1.8c-0.2,1.2-0.5,2.4-1.1,3.6c-0.6,1.1-1.5,2.2-2.6,2.9c-1.1,0.7-2.4,1-3.6,1.1c-1.3,0.1-2.6-0.2-3.7-0.9
						c-1-0.7-1.8-1.7-2.3-2.7c-0.5-1-0.9-2-1.2-3c-0.5-2-0.9-3.7-1.3-5.4c-0.8-3.4-1.1-6.3-0.9-8.3c0.1-1,0.3-1.8,0.4-2.3
						c0.2-0.5,0.3-0.8,0.3-0.8s-0.1,0.3-0.2,0.8c0,0.3-0.1,0.6-0.1,1c0,0.4-0.1,0.8,0,1.3c0,1,0.1,2.2,0.4,3.5
						c0.3,1.3,0.7,2.8,1.2,4.5c0.5,1.6,1.1,3.4,1.7,5.2c0.6,1.8,1.5,3.6,3,4.6c0.7,0.5,1.7,0.6,2.5,0.6c1-0.1,1.9-0.4,2.7-0.9
						c1.6-1,2.5-3,2.7-5.1c0.1-0.5,0.1-1.1,0.1-1.6c0-0.5,0-1-0.1-1.6c-0.1-1.1-0.2-2.3-0.2-3.4c-0.1-2.3,0.1-4.6,0.5-6.7
						c0.3-2.2,0.8-4.2,1.5-6.1c0.6-1.9,1.4-3.6,2.1-5.2c0.8-1.6,1.6-2.9,2.3-4.1c0.8-1.2,1.5-2.2,2.1-3c0.6-0.8,1.1-1.4,1.5-1.8
						C95,189.7,95.2,189.4,95.2,189.4z"/>
					<path fill="#6A5C50" d="M73.9,208.4c0,0,0,0.6,0.1,1.5c0.2,0.9,0.5,2.3,1.3,3.6c0.4,0.7,1,1.3,1.8,1.6c0.2,0.1,0.4,0.1,0.6,0.1
						c0.1,0,0.5,0,0.6,0c0.3-0.1,0.8-0.3,1.1-0.6c0.7-0.6,1.2-1.5,1.6-2.5c0.4-1,0.8-2,1.2-3c0.8-2,1.6-4.1,2.4-6
						c0.8-1.9,1.6-3.6,2.2-5.2c0.6-1.5,1.2-2.7,1.6-3.6c0.4-0.9,0.6-1.4,0.6-1.4s-0.2,0.5-0.5,1.4c-0.3,0.9-0.7,2.2-1.3,3.8
						c-0.6,1.5-1.2,3.4-1.9,5.3c-0.7,1.9-1.5,4-2.3,6c-0.4,1-0.8,2-1.2,3.1c-0.5,1-1,2-1.9,2.8c-0.5,0.4-1,0.7-1.6,0.7
						c-0.2,0-0.3,0-0.4,0l-0.2,0c-0.1,0-0.2,0-0.2,0c-0.3,0-0.5-0.1-0.8-0.2c-1-0.4-1.6-1.2-2-2c-0.8-1.5-1-2.9-1-3.9
						c0-0.5,0-0.9,0-1.1C73.9,208.6,73.9,208.4,73.9,208.4z"/>
					<path fill="#6A5C50" d="M99.6,212.7c-0.3,0.9-0.4,1.8-0.5,2.8c-0.1,1,0,1.9,0,2.9c0,0.9,0,1.9-0.2,2.9c-0.2,1-0.4,1.9-0.7,2.8
						c-0.5,1.8-1.1,3.7-1.4,5.5c-0.1,0.9-0.2,1.9-0.2,2.8c0,0.9,0.2,1.8,0.8,2.4c0.5,0.6,1.4,0.9,2.2,0.9c0.9,0.1,1.5-0.3,1.9-1
						c0.4-0.7,0.5-1.6,0.6-2.5c0.1-0.9,0-1.9,0-2.8c-0.1-1.9-0.2-3.8,0.1-5.8c0.2-1,0.4-2.1,1.2-3c0.7-0.9,2-1.4,3.1-1.4l0.7,0
						l0,0.7c0,0.6,0,1.2,0,1.8c0,0.6,0,1.1,0,1.6c0,0.5,0.1,1,0.2,1.4c0.2,0.4,0.3,0.5,0.6,0.6l0.1,0l0,0l0,0l0,0c-0.2,0,0,0-0.1,0
						l0,0l0.2,0l0.2,0c0,0,0.1,0,0.1,0c0.1,0,0.1,0,0.2-0.1c0.1,0,0.2-0.1,0.2-0.1c0.3-0.2,0.6-0.5,0.8-1c0.5-0.9,0.7-1.9,1-3
						c0.4-2.2,0.8-4.4,0.8-6.6c0-1.1,0-2.2-0.2-3.2c-0.1-0.2-0.1-0.5-0.2-0.7c-0.1-0.2-0.1-0.5-0.2-0.7c-0.2-0.4-0.5-0.7-0.7-1
						l1.6-0.3c-0.5,0.9-0.7,2-1,3.2c-0.3,1.2-0.6,2.5-1.3,3.7l-0.3,0.5l-0.5-0.1c-0.2,0-0.4,0-0.6-0.1c-0.2-0.1-0.4-0.1-0.6-0.3
						c-0.2-0.1-0.3-0.2-0.5-0.4c-0.1-0.1-0.3-0.3-0.3-0.4c-0.4-0.6-0.5-1.2-0.6-1.7c-0.2-1.1-0.1-2.2-0.1-3.2l1.3,0.2
						c-0.6,1.4-1.3,2.7-2.2,3.9c-0.5,0.6-1,1.2-1.6,1.7c-0.3,0.2-0.6,0.5-1,0.7c-0.3,0.2-0.7,0.3-1.1,0.4l-0.3,0.1l-0.1-0.3
						c-0.4-1.8-0.2-3.6-0.6-5.3l0.2,0.1C100.3,211.5,99.8,212.1,99.6,212.7z M99.4,212.6c0.2-0.7,0.7-1.3,1.4-1.6l0.1,0l0,0.1
						c0.4,1.8,0.4,3.6,0.9,5.2l-0.3-0.2c0.3-0.1,0.6-0.2,0.9-0.4c0.3-0.2,0.5-0.4,0.8-0.6c0.5-0.5,0.9-1,1.3-1.6
						c0.7-1.2,1.3-2.5,1.8-3.8l1.1-3.1l0.3,3.4c0.1,1,0.1,2,0.4,2.9c0.1,0.4,0.3,0.8,0.4,1.1c0,0.1,0.1,0.1,0.1,0.2
						c0,0.1,0.1,0.1,0.1,0.1c0,0,0.1,0,0.1,0c0.1,0,0.1,0,0.2,0l-0.8,0.5c0.5-0.9,0.7-2,0.9-3.2c0.2-1.2,0.5-2.5,1.1-3.8l0.6-1.2
						l0.9,0.9c0.6,0.5,1,1.1,1.3,1.7c0.2,0.3,0.3,0.6,0.4,0.9c0.1,0.3,0.2,0.6,0.2,0.9c0.1,0.6,0.2,1.2,0.2,1.8c0,0.6,0,1.2,0,1.8
						c-0.1,2.4-0.5,4.7-1,7c-0.3,1.1-0.6,2.3-1.3,3.5c-0.3,0.6-0.8,1.1-1.5,1.5c-0.2,0.1-0.3,0.2-0.5,0.3c-0.2,0.1-0.4,0.1-0.6,0.1
						c-0.1,0-0.2,0-0.3,0l-0.2,0l-0.2,0l0,0l-0.1,0l0,0l0,0l-0.1,0l-0.2,0c-0.2,0-0.4-0.1-0.6-0.2c-0.2-0.1-0.4-0.2-0.5-0.4
						c-0.3-0.3-0.5-0.7-0.6-1c-0.2-0.7-0.3-1.3-0.3-1.9c0-1.2,0.1-2.4,0.1-3.4l0.8,0.7c-0.8,0-1.5,0.3-2,0.8
						c-0.5,0.6-0.8,1.4-0.9,2.3c-0.3,1.8-0.2,3.7-0.2,5.6c0,1,0,1.9-0.1,2.9c-0.1,1-0.2,2-0.8,3c-0.3,0.5-0.7,0.9-1.3,1.2
						c-0.3,0.1-0.5,0.2-0.8,0.2c-0.3,0-0.6,0.1-0.8,0c-1-0.1-2.2-0.4-2.9-1.3c-0.7-0.9-0.9-2-0.9-3c0-1,0.2-2,0.4-2.9
						c0.4-1.9,1.1-3.7,1.7-5.5c0.3-0.9,0.6-1.8,0.7-2.8c0.2-0.9,0.3-1.9,0.3-2.8c0-1,0-1.9,0-2.9C99,214.5,99.1,213.5,99.4,212.6z"
						/>
					<path fill="#6A5C50" d="M127.9,178.8c0.3,0.7,0.3,1.4,0.4,2.2c0.1,0.7,0.2,1.5,0.7,1.9c0.5,0.4,1.3,0.4,1.9,0.4
						c0.7-0.1,1.2-0.5,1.8-1c0.3-0.2,0.5-0.5,1-0.7c0.2-0.1,0.5-0.1,0.8,0.1c0.2,0.1,0.4,0.2,0.6,0.4c0.3,0.3,0.5,0.6,0.7,1
						c0.2,0.4,0.3,0.8,0.4,1.2c0.2,1.6,0,3-0.1,4.5c0,0.7-0.1,1.4,0,2.1c0,0.7,0.1,1.4,0.4,1.8c0.3,0.4,0.6,0.6,1.3,0.5
						c0.3,0,0.6-0.1,0.9-0.2l0.2-0.1l0,0c0.1,0-0.1,0,0,0l0,0l0.1,0l0.1-0.1l0.5-0.2c1.1-0.6,1.9-1.7,2.3-2.9
						c0.5-1.3,0.8-2.7,1.1-4.1c0.4-1.4,0.8-3,1.9-4.4c0.3-0.4,0.6-0.6,1-0.9l0.1-0.1l0,0l0.1,0l0.1,0l0.2-0.1
						c0.2-0.1,0.5-0.2,0.7-0.3c0.1,0,0.3-0.1,0.4-0.1c0.2,0,0.4,0,0.5,0c0.2,0.1,0.4,0.1,0.5,0.2c0.1,0.1,0.3,0.2,0.4,0.3
						c0.4,0.5,0.6,1,0.7,1.4c0.4,1.7,0.3,3.1,0.5,4.4c0.1,0.3,0.1,0.6,0.2,0.8c0.1,0.2,0.2,0.3,0.2,0.2c0,0,0.2,0,0.4-0.1
						c0.2-0.1,0.5-0.3,0.8-0.4l0.2-0.1l0,0l0,0c0,0-0.1,0.1-0.1,0l0.1,0l0.1-0.1l0.4-0.4c0.2-0.2,0.3-0.4,0.5-0.7
						c0.3-0.5,0.7-1.1,0.9-1.8c0.5-1.3,0.9-2.6,1.1-4c0.2-1.4,0.3-2.8,0.3-4.2c0-1.4-0.1-2.8-0.5-4l1.6,0.4c-0.4,0.4-0.8,1-1.2,1.5
						c-0.4,0.6-0.9,1.1-1.5,1.7c-0.6,0.5-1.3,1.1-2.2,1.3c-0.5,0.1-1,0.1-1.5-0.1c-0.5-0.2-0.8-0.3-1.3-0.8
						c-0.6-0.9-0.7-1.6-0.9-2.4c-0.1-0.7-0.2-1.4-0.4-1.9c-0.1-0.3-0.2-0.5-0.3-0.6c-0.1-0.1,0-0.1-0.2-0.1c-0.2,0-0.4,0.1-0.7,0.2
						l-0.2,0.1l0,0c0.2-0.1,0,0,0.1-0.1l0,0l0,0l0,0l-0.1,0.1l-0.2,0.2c0,0,0,0.1-0.1,0.1c-0.2,0.3-0.5,0.9-0.7,1.5
						c-0.2,0.6-0.3,1.3-0.5,2c-0.2,0.7-0.4,1.4-0.7,2.1c-0.4,0.7-1,1.4-1.8,1.7l-0.1,0.1c0,0,0,0-0.1,0.1l-0.1,0l-0.2,0.1
						c-0.2,0-0.3,0.1-0.6,0.1c-0.2,0-0.5,0.1-0.7,0c-0.1,0-0.3,0-0.4-0.1c-0.1-0.1-0.2-0.1-0.4-0.2c-0.2-0.1-0.4-0.4-0.5-0.6
						c-0.1-0.2-0.2-0.4-0.2-0.6c-0.1-0.4-0.2-0.8-0.2-1.1c-0.1-0.7-0.1-1.4-0.1-2.1c-0.1-0.7-0.2-1.3-0.4-1.8l0.6,0.2
						c-0.2,0.1-0.4,0.2-0.7,0.3c-0.2,0.1-0.4,0.3-0.6,0.4c-0.2,0.2-0.4,0.3-0.6,0.5c-0.2,0.2-0.4,0.4-0.5,0.6
						c-0.7,0.8-1.3,1.7-2,2.6c-0.4,0.4-0.7,0.9-1.1,1.3c-0.2,0.2-0.4,0.4-0.6,0.6c-0.2,0.2-0.5,0.3-0.7,0.5
						c-0.3,0.1-0.5,0.2-0.8,0.3c-0.3,0-0.6,0.1-0.9,0.1c-0.3,0-0.6,0-0.9-0.1l-0.8-0.3l0,0c-0.1,0.1-0.1,0.1-0.2,0.2l0,0.1
						c0,0,0,0.1-0.1,0c0-0.1,0-0.1-0.1-0.1C128.1,179.1,128,179,127.9,178.8z M127.9,178.8c0.1,0.2,0.2,0.3,0.3,0.5
						c0,0,0,0.1,0.1,0.1c0,0,0-0.1,0-0.1c0.1-0.1,0.1-0.2,0.2-0.2l0,0l0,0l0.8,0.2c0.3,0,0.5,0,0.8,0c0.3,0,0.5-0.1,0.8-0.2
						c0.2-0.1,0.5-0.2,0.7-0.4c0.2-0.2,0.4-0.3,0.6-0.5c0.2-0.2,0.4-0.4,0.6-0.6c0.4-0.4,0.7-0.8,1-1.3c0.6-0.9,1.2-1.9,1.9-2.8
						c0.2-0.2,0.4-0.4,0.5-0.7c0.2-0.2,0.4-0.4,0.6-0.6c0.2-0.2,0.5-0.4,0.7-0.6c0.3-0.2,0.5-0.3,0.8-0.4l0.3-0.2l0.2,0.4
						c0.5,0.7,0.6,1.5,0.7,2.2c0.1,0.7,0.1,1.4,0.2,2.1c0.1,0.6,0.3,1.3,0.5,1.4c0,0,0.1,0,0.1,0.1c0,0,0.1,0,0.1,0
						c0.1,0,0.2,0,0.3,0c0.1,0,0.3-0.1,0.4-0.1l0.2-0.1l0.1,0c-0.1,0,0,0,0,0l0.1,0c0.5-0.2,0.8-0.6,1.1-1.2
						c0.2-0.5,0.4-1.2,0.5-1.8c0.1-0.7,0.2-1.3,0.4-2.1c0.2-0.7,0.3-1.4,1-2.3c0.1-0.1,0.2-0.2,0.3-0.3l0.2-0.2l0.1-0.1l0,0l0,0
						l0.1-0.1l0.1,0l0.3-0.2c0.4-0.2,0.7-0.4,1.3-0.5c0.3,0,0.6,0,0.9,0.1c0.3,0.1,0.6,0.3,0.8,0.5c0.4,0.4,0.5,0.9,0.7,1.2
						c0.2,0.8,0.3,1.5,0.4,2.1c0.1,0.6,0.3,1.3,0.5,1.5c0,0,0.3,0.2,0.5,0.2c0.2,0,0.4,0.1,0.6,0c0.4-0.1,0.9-0.4,1.3-0.8
						c0.4-0.4,0.8-0.9,1.2-1.5c0.4-0.5,0.8-1.1,1.4-1.7l1.1-1.2l0.5,1.5c0.5,1.6,0.6,3.1,0.7,4.7c0,1.5-0.1,3-0.3,4.6
						c-0.2,1.5-0.6,3-1.2,4.5c-0.3,0.7-0.7,1.4-1.1,2.1c-0.2,0.3-0.6,0.7-0.9,1l-0.4,0.4l-0.1,0.1l-0.1,0l-0.1,0.1l0,0l0,0l-0.3,0.2
						c-0.3,0.2-0.7,0.5-1.1,0.6c-0.4,0.2-1,0.4-1.7,0.1c-0.7-0.2-1.1-0.9-1.3-1.3c-0.2-0.5-0.3-0.9-0.4-1.3
						c-0.2-1.6-0.2-3.1-0.4-4.3c-0.1-0.3-0.2-0.6-0.2-0.6c0,0,0,0,0,0c0,0,0,0,0,0c0,0-0.1,0-0.1,0c0,0-0.1,0-0.1,0
						c0,0-0.1,0-0.2,0.1l-0.2,0.1l-0.1,0c0,0-0.1,0,0,0l0,0l-0.1,0.1c-0.2,0.2-0.5,0.3-0.6,0.6c-0.8,0.9-1.2,2.2-1.6,3.6
						c-0.4,1.4-0.7,2.9-1.3,4.3c-0.3,0.7-0.7,1.4-1.2,2.1c-0.3,0.3-0.6,0.6-0.9,0.9l-0.6,0.4c-0.2,0.1-0.4,0.2-0.5,0.3l-0.5,0.2
						l-0.1,0.1l-0.1,0l-0.1,0l0,0l-0.3,0.1c-0.4,0.1-0.8,0.2-1.2,0.2c-0.4,0-0.9,0-1.4-0.2c-0.5-0.2-0.9-0.6-1.1-1
						c-0.4-0.8-0.5-1.7-0.5-2.4c0-0.8,0.1-1.5,0.1-2.3c0.1-1.5,0.4-2.9,0.3-4.3c0-0.3-0.1-0.7-0.2-0.9c-0.1-0.3-0.4-0.6-0.6-0.8
						c-0.2-0.2-0.4-0.4-0.6-0.3c-0.2,0-0.5,0.3-0.8,0.5c-0.6,0.5-1.3,0.9-2.1,1c-0.4,0-0.8,0-1.2-0.1c-0.4-0.1-0.8-0.2-1.1-0.5
						c-0.6-0.6-0.6-1.4-0.7-2.2C128.1,180.2,128.1,179.5,127.9,178.8z"/>
					<path fill="#6A5C50" d="M175.3,163c0,0,0.3,0.3,0.8,0.8c0.2,0.3,0.5,0.7,0.7,1.1c0.3,0.5,0.5,1,0.7,1.6c0.2,0.6,0.3,1.3,0.4,2
						c0.1,0.7,0.1,1.5,0.1,2.3c0,0.8,0,1.6-0.1,2.4c0,0.8,0,1.6,0.1,2.4c0.1,0.8,0.3,1.5,0.5,2.2c0.2,0.7,0.6,1.2,1,1.6
						c0.4,0.4,0.8,0.6,1.3,0.7c0.2,0,0.5,0,0.7,0c0.1,0,0.4-0.1,0.4-0.1c0.1,0,0.2-0.1,0.3-0.1c0.8-0.4,1.2-1.4,1.6-2
						c0.4-0.7,0.7-1,0.7-1l0.2,0.1c0,0-0.1,0.4-0.2,1.1c0,0.4-0.1,0.8-0.3,1.4c-0.2,0.5-0.5,1.2-1.1,1.7c-0.2,0.1-0.3,0.3-0.5,0.4
						c-0.2,0.1-0.3,0.2-0.5,0.2c-0.5,0.2-0.8,0.2-1.3,0.2c-1,0.1-2-0.4-2.7-1.2c-0.7-0.7-1.1-1.6-1.3-2.5c-0.2-0.9-0.3-1.8-0.3-2.7
						c0-0.9,0.1-1.7,0.1-2.6c0.1-0.8,0.2-1.6,0.3-2.4c0.1-0.8,0.1-1.5,0.1-2.2c0-0.7,0-1.3-0.1-1.9c-0.1-0.6-0.3-1.1-0.4-1.6
						c-0.2-0.5-0.4-0.8-0.6-1.1c-0.4-0.6-0.7-0.9-0.7-0.9L175.3,163z"/>
					<path fill="#6A5C50" d="M181.5,163.7c0,0,0,0.1,0.1,0.3c0.1,0.2,0.2,0.6,0.3,1c0.2,0.8,0.5,1.8,0.7,2.9
						c0.1,0.5,0.2,1.1,0.3,1.5c0,0.3,0.1,0.5,0.1,0.7c0,0.2,0,0.5,0,0.7c-0.1,0.4-0.1,0.7-0.1,0.9c0,0.1,0.1,0.1,0.1,0.1
						c0,0,0.1-0.1,0.1-0.1s0,0-0.1,0.1c0,0,0,0.1-0.1,0.1c-0.1,0-0.1-0.1-0.1-0.1c-0.1-0.2,0-0.6-0.1-1c0-0.2-0.1-0.4-0.1-0.6
						c0-0.2-0.1-0.4-0.2-0.6c-0.2-0.5-0.4-0.9-0.6-1.4c-0.4-1-0.9-1.9-1.3-2.5c-0.2-0.3-0.4-0.6-0.5-0.8c-0.1-0.2-0.2-0.3-0.2-0.3
						L181.5,163.7z"/>
					<path fill="#6A5C50" d="M249.3,238.3c0.3,0.5,0.6,1,1.1,1.1c0.5,0.1,1-0.3,1.3-0.7c0.6-0.9,1-1.9,1.4-3c0.4-1,0.7-2.1,1-3.2
						l0.4-1.6l0.4-1.6l0.5-2l0.2,2.1c0.1,0.7,0.2,1.5,0.3,2.2l0.3,2.3c0.2,1.5,0.4,3,0.4,4.6c0,0.8,0,1.5-0.1,2.3
						c-0.1,0.8-0.2,1.6-0.4,2.3c-0.1,0.4-0.3,0.8-0.6,1.1c-0.3,0.3-0.6,0.7-1.1,0.7c-0.5,0.1-0.9,0-1.2-0.2c-0.4-0.2-0.7-0.4-1-0.7
						l0.1-0.1c0.3,0.2,0.7,0.3,1,0.4c0.3,0.1,0.7,0.1,1,0c0.6-0.2,0.9-0.9,1-1.6c0.3-1.4,0.3-2.9,0.2-4.4c-0.1-1.5-0.1-3-0.3-4.5
						l-0.2-2.3c-0.1-0.8-0.2-1.5-0.2-2.3l0.7,0.1l-0.4,1.6l-0.5,1.6c-0.3,1.1-0.7,2.1-1.1,3.2c-0.4,1-0.9,2.1-1.6,3
						c-0.2,0.2-0.4,0.4-0.6,0.6c-0.2,0.2-0.6,0.3-0.9,0.2C249.8,239.3,249.4,238.8,249.3,238.3L249.3,238.3z"/>
					<path fill="#6A5C50" d="M238.9,247.4l0.5,0l0.5-0.1c0.1,0,0.3-0.1,0.4-0.1l0.4-0.2c0.2-0.2,0.5-0.3,0.7-0.5
						c0.2-0.2,0.4-0.4,0.5-0.7c0.3-0.5,0.5-1,0.6-1.6c0-0.3,0.1-0.5,0.1-0.8c0-0.3,0-0.5-0.1-0.8l1.7-0.1c0.1,1.4,0.1,2.9,0,4.3
						c-0.1,1.4-0.3,2.9-0.7,4.3c-0.1,0.4-0.2,0.7-0.4,1.1l-0.2,0.5c-0.1,0.2-0.2,0.4-0.3,0.5c-0.2,0.4-0.5,0.7-0.9,1
						c-0.4,0.3-1,0.5-1.5,0.3c-0.5-0.2-0.9-0.5-1.1-0.8c-0.2-0.4-0.4-0.7-0.5-1.1c-0.1-0.4-0.2-0.7-0.2-1.1c0-0.4,0-0.7,0-1.1
						c0.2,0.7,0.5,1.3,0.8,1.9c0.3,0.6,0.9,1,1.2,1c0.2,0,0.3-0.1,0.4-0.2c0.1-0.2,0.3-0.4,0.4-0.6c0.1-0.1,0.1-0.2,0.2-0.4l0.2-0.5
						c0.1-0.2,0.2-0.6,0.2-0.9c0.2-1.3,0.4-2.6,0.5-4c0.1-1.4,0.2-2.7,0.2-4.1l1.7-0.1c0,0.4,0,0.8,0,1.1c-0.1,0.4-0.1,0.7-0.3,1.1
						c-0.2,0.7-0.6,1.3-1.1,1.9c-0.2,0.3-0.5,0.5-0.8,0.7c-0.3,0.2-0.6,0.3-1,0.4c-0.4,0.1-0.7,0.1-1.1,0.1
						C239.5,247.7,239.2,247.6,238.9,247.4z"/>
				</g>
			</g>
		</g>
	</g>
</g>
<g id="POSE2_1_" opacity="0.5">
</g>
<g id="POSE3_1_" opacity="0.5">
</g>
<g id="ch06-12-1">
	<g id="water_off_hand4" opacity="0.5">
	</g>
	<g id="water_off_hand4_copy" opacity="0.5">
	</g>
</g>
<g id="Layer_12">
	<g id="basin">
		<g id="Layer_15">
		</g>
		<g id="Layer_20">
		</g>
		<g id="Layer_14">
		</g>
		<g id="Layer_17" opacity="0.49">
			<g id="Layer_16">
			</g>
		</g>
		<g id="Layer_17_copy_2" opacity="0.49">
			<g id="Layer_16_copy">
			</g>
		</g>
		<g id="Layer_17_copy" opacity="0.49">
		</g>
	</g>
</g>
<g id="Layer_22">
	<g id="Layer_23">
	</g>
	<g id="Layer_24">
	</g>
	<g id="Layer_24_copy">
	</g>
</g>
<g id="ch02A-09-4">
	<g id="dirtydrips_x5F_fromholes">
	</g>
	<g id="dirtydrips_x5F_fromholes_copy">
	</g>
</g>
<g id="muddy_x5F_water_x5F_pose1">
</g>
<g id="muddy_x5F_water_x5F_pose2" opacity="0.61">
</g>
<g id="muddy_x5F_water_x5F_pose2_copy">
</g>
</svg>
