<?xml version="1.0" encoding="utf-8"?>
<!-- Generator: Adobe Illustrator 18.1.1, SVG Export Plug-In . SVG Version: 6.00 Build 0)  -->
<!DOCTYPE svg PUBLIC "-//W3C//DTD SVG 1.1//EN" "http://www.w3.org/Graphics/SVG/1.1/DTD/svg11.dtd">
<svg version="1.1" xmlns="http://www.w3.org/2000/svg" xmlns:xlink="http://www.w3.org/1999/xlink" x="0px" y="0px"
	 viewBox="0 0 7.9 246.6" enable-background="new 0 0 7.9 246.6" xml:space="preserve">
<g id="water_pouring_instances_-_boards">
</g>
<g id="water_pour_cycle_x5F_main_comp">
	<g id="POSE2">
		<g id="Layer_6">
		</g>
	</g>
	<g id="POSE3">
	</g>
</g>
<g id="POSE1_2_" opacity="0.5">
</g>
<g id="POSE2_1_" opacity="0.5">
</g>
<g id="POSE3_1_" opacity="0.5">
</g>
<g id="ch06-12-1">
	<g id="water_off_hand4" opacity="0.5">
	</g>
	<g id="water_off_hand4_copy" opacity="0.5">
	</g>
</g>
<g id="Layer_12">
	<g id="basin">
		<g id="Layer_15">
		</g>
		<g id="Layer_20">
		</g>
		<g id="Layer_14">
		</g>
		<g id="Layer_17" opacity="0.49">
			<g id="Layer_16">
			</g>
		</g>
		<g id="Layer_17_copy_2" opacity="0.49">
			<g id="Layer_16_copy">
			</g>
		</g>
		<g id="Layer_17_copy" opacity="0.49">
		</g>
	</g>
</g>
<g id="Layer_22">
	<g id="Layer_23">
	</g>
	<g id="Layer_24">
	</g>
	<g id="Layer_24_copy">
	</g>
</g>
<g id="ch02A-09-4">
	<g id="dirtydrips_x5F_fromholes">
	</g>
	<g id="dirtydrips_x5F_fromholes_copy">
		<g id="_x33__6_" opacity="0.5">
			<g id="_x33__7_">
				<path fill="#6A5C50" d="M2.5,105.7c0,2.3,0,4.7,0,7c-0.1,0-0.2,0.1-0.3,0.1V105H1.8v8.1c-0.3,0.3-0.7,0.7-0.7,1c0,1,0,1.9,0,2.9
					c0,0.4,0.9-0.1,1-0.2c0.1-0.1,0.3-0.2,0.5-0.4c0,7.3,0,14.5,0,21.8c0,0.3,0.4,0.2,0.8,0v14.3h0.5V138c0.4-0.3,0.8-0.7,0.8-1.1
					c0-10.9,0-21.7,0-32.6C4.5,103.7,2.5,104.9,2.5,105.7z"/>
				<path fill="#6A5C50" d="M5.9,117c0,0.3,0,0.5,0,0.8H5.4v17.3h0.5c0,3,0,5.9,0,8.9H5.1v17.3h1v-6.6c0.6-0.1,1.7-0.9,1.7-1.5
					c0-12.5,0-25,0-37.5C7.9,115,5.9,116.3,5.9,117z"/>
				<rect x="6.4" y="101.9" fill="#6A5C50" width="1" height="5.4"/>
				<rect x="1.5" y="140.7" fill="#6A5C50" width="1" height="26.2"/>
				<rect x="0" y="121.3" fill="#6A5C50" width="1" height="3.4"/>
				<polygon fill="#6A5C50" points="6.1,110.2 5.9,110.2 5.9,103.6 5.4,103.6 5.4,110.2 5.1,110.2 5.1,116.4 6.1,116.4 				"/>
				<rect x="3" y="160.3" fill="#6A5C50" width="1" height="9.3"/>
				<rect x="3" y="175.3" fill="#6A5C50" width="1" height="10.1"/>
				<polygon fill="#6A5C50" points="6.1,178.6 5.9,178.6 5.9,177.1 6.1,177.1 6.1,165 5.9,165 5.9,163.2 5.4,163.2 5.4,165 5.1,165 
					5.1,177.1 5.4,177.1 5.4,178.6 5.1,178.6 5.1,193 6.1,193 				"/>
				<rect x="1.5" y="183.3" fill="#6A5C50" width="1" height="2.5"/>
				<rect x="5.1" y="210.1" fill="#6A5C50" width="1" height="12.2"/>
				<rect x="3" y="189.9" fill="#6A5C50" width="1" height="3.9"/>
				<rect x="1.5" y="200" fill="#6A5C50" width="1" height="1.6"/>
				<polygon fill="#6A5C50" points="6.6,168.5 6.6,181.3 6.4,181.3 6.4,185.4 6.6,185.4 6.6,186.2 7.1,186.2 7.1,185.4 7.4,185.4 
					7.4,181.3 7.1,181.3 7.1,168.5 				"/>
				<polygon fill="#6A5C50" points="5.4,230.9 5.4,238.4 5.4,246.6 5.9,246.6 5.9,238.4 5.9,230.9 5.9,225.2 5.4,225.2 				"/>
				<polygon fill="#6A5C50" points="3.8,206.3 3.8,204.6 3.8,197.8 3.3,197.8 3.3,204.6 3.3,206.3 3.3,208.1 3.8,208.1 				"/>
				<rect x="1.8" y="213.8" fill="#6A5C50" width="0.5" height="7.2"/>
				<rect x="3.3" y="209.9" fill="#6A5C50" width="0.5" height="3.9"/>
				<rect x="0.3" y="140.7" fill="#6A5C50" width="0.5" height="2.1"/>
				<rect x="0.3" y="130.2" fill="#6A5C50" width="0.5" height="1.2"/>
				<path fill="#6A5C50" d="M6.1,196.1v-1.4h-1v11.7h0.7c0,0.8,0,1.6,0,2.4c0,0.1,0.2,0.1,0.5,0v2.6h0.3v7h0.5v-7h0.3v-3.3
					c0.3-0.2,0.5-0.5,0.5-0.7c0-4.1,0-8.1,0-12.2C7.8,194.9,6.7,195.5,6.1,196.1z"/>
				<rect x="3" y="217.4" fill="#6A5C50" width="1" height="12.3"/>
				<rect x="3" y="238.4" fill="#6A5C50" width="1" height="7.4"/>
			</g>
			<g id="_x31__18_">
				<path fill="#6A5C50" d="M3.3,0v12.5h0.5V0C3.6,0,3.4,0,3.3,0z"/>
				<path fill="#6A5C50" d="M5.9,0.3v3.5H5.1v17.3h1v-6.6c0.6-0.1,1.7-0.9,1.7-1.5V0C7.2,0.4,6.5,0.5,5.9,0.3z"/>
				<rect x="1.5" y="0.6" fill="#6A5C50" width="1" height="26.2"/>
				<rect x="3" y="20.1" fill="#6A5C50" width="1" height="9.3"/>
				<rect x="3" y="35.2" fill="#6A5C50" width="1" height="10.1"/>
				<polygon fill="#6A5C50" points="6.1,38.5 5.9,38.5 5.9,37 6.1,37 6.1,24.9 5.9,24.9 5.9,23.1 5.4,23.1 5.4,24.9 5.1,24.9 
					5.1,37 5.4,37 5.4,38.5 5.1,38.5 5.1,52.9 6.1,52.9 				"/>
				<rect x="1.5" y="43.2" fill="#6A5C50" width="1" height="2.5"/>
				<rect x="5.1" y="70" fill="#6A5C50" width="1" height="12.2"/>
				<rect x="3" y="49.8" fill="#6A5C50" width="1" height="3.9"/>
				<rect x="1.5" y="59.9" fill="#6A5C50" width="1" height="1.6"/>
				<polygon fill="#6A5C50" points="6.6,28.4 6.6,41.2 6.4,41.2 6.4,45.3 6.6,45.3 6.6,46.1 7.1,46.1 7.1,45.3 7.4,45.3 7.4,41.2 
					7.1,41.2 7.1,28.4 				"/>
				<polygon fill="#6A5C50" points="5.4,90.8 5.4,98.2 5.4,106.5 5.9,106.5 5.9,98.2 5.9,90.8 5.9,85.1 5.4,85.1 				"/>
				<polygon fill="#6A5C50" points="3.8,66.2 3.8,64.5 3.8,57.6 3.3,57.6 3.3,64.5 3.3,66.2 3.3,67.9 3.8,67.9 				"/>
				<rect x="1.8" y="73.7" fill="#6A5C50" width="0.5" height="7.2"/>
				<rect x="3.3" y="69.8" fill="#6A5C50" width="0.5" height="3.9"/>
				<rect x="0.3" y="0.6" fill="#6A5C50" width="0.5" height="2.1"/>
				<path fill="#6A5C50" d="M6.1,56v-1.4h-1v11.7h0.7c0,0.8,0,1.6,0,2.4c0,0.1,0.2,0.1,0.5,0v2.6h0.3v7h0.5v-7h0.3V68
					c0.3-0.2,0.5-0.5,0.5-0.7c0-4.1,0-8.1,0-12.2C7.8,54.8,6.7,55.4,6.1,56z"/>
				<rect x="3" y="77.3" fill="#6A5C50" width="1" height="12.3"/>
				<rect x="3" y="98.2" fill="#6A5C50" width="1" height="7.4"/>
			</g>
		</g>
	</g>
</g>
</svg>
