<?xml version="1.0" encoding="utf-8"?>
<!-- Generator: Adobe Illustrator 18.1.1, SVG Export Plug-In . SVG Version: 6.00 Build 0)  -->
<!DOCTYPE svg PUBLIC "-//W3C//DTD SVG 1.1//EN" "http://www.w3.org/Graphics/SVG/1.1/DTD/svg11.dtd">
<svg version="1.1" xmlns="http://www.w3.org/2000/svg" xmlns:xlink="http://www.w3.org/1999/xlink" x="0px" y="0px"
	 viewBox="0 0 7.9 246.6" enable-background="new 0 0 7.9 246.6" xml:space="preserve">
<g id="water_pouring_instances_-_boards">
</g>
<g id="water_pour_cycle_x5F_main_comp">
	<g id="POSE2">
		<g id="Layer_6">
		</g>
	</g>
	<g id="POSE3">
	</g>
</g>
<g id="POSE1_2_" opacity="0.5">
</g>
<g id="POSE2_1_" opacity="0.5">
</g>
<g id="POSE3_1_" opacity="0.5">
</g>
<g id="ch06-12-1">
	<g id="water_off_hand4" opacity="0.5">
	</g>
	<g id="water_off_hand4_copy" opacity="0.5">
	</g>
</g>
<g id="Layer_12">
	<g id="basin">
		<g id="Layer_15">
		</g>
		<g id="Layer_20">
		</g>
		<g id="Layer_14">
		</g>
		<g id="Layer_17" opacity="0.49">
			<g id="Layer_16">
			</g>
		</g>
		<g id="Layer_17_copy_2" opacity="0.49">
			<g id="Layer_16_copy">
			</g>
		</g>
		<g id="Layer_17_copy" opacity="0.49">
		</g>
	</g>
</g>
<g id="Layer_22">
	<g id="Layer_23">
	</g>
	<g id="Layer_24">
	</g>
	<g id="Layer_24_copy">
	</g>
</g>
<g id="ch02A-09-4">
	<g id="dirtydrips_x5F_fromholes">
	</g>
	<g id="dirtydrips_x5F_fromholes_copy">
		<g id="_x32__4_" opacity="0.5">
			<g id="_x31__14_">
				<rect x="5.1" y="12" fill="#6A5C50" width="1" height="12.2"/>
				<rect x="1.5" y="1.9" fill="#6A5C50" width="1" height="1.6"/>
				<polygon fill="#6A5C50" points="5.4,32.8 5.4,40.2 5.4,48.4 5.9,48.4 5.9,40.2 5.9,32.8 5.9,27 5.4,27 				"/>
				<path fill="#6A5C50" d="M3.3,0.1v9.8h0.5V0.4C3.6,0.3,3.4,0.2,3.3,0.1z"/>
				<rect x="1.8" y="15.7" fill="#6A5C50" width="0.5" height="7.2"/>
				<rect x="3.3" y="11.8" fill="#6A5C50" width="0.5" height="3.9"/>
				<path fill="#6A5C50" d="M7.6,0.1C6.8,0.2,6,0.3,5.2,0.5c0,0,0,0-0.1,0v7.7h0.7v2.4c0,0.1,0.2,0.1,0.5,0v2.6h0.3v7h0.5v-7h0.3
					V9.9c0.3-0.2,0.5-0.5,0.5-0.7V0C7.7,0,7.7,0.1,7.6,0.1z"/>
				<rect x="3" y="19.3" fill="#6A5C50" width="1" height="12.3"/>
				<rect x="3" y="40.2" fill="#6A5C50" width="1" height="7.4"/>
			</g>
			<g id="_x32__5_">
				<path fill="#6A5C50" d="M2.5,52.7c0,2.3,0,4.7,0,7c-0.1,0-0.2,0.1-0.3,0.1V52H1.8v8.1c-0.3,0.3-0.7,0.7-0.7,1c0,1,0,1.9,0,2.9
					c0,0.4,0.9-0.1,1-0.2c0.1-0.1,0.3-0.2,0.5-0.4c0,7.3,0,14.5,0,21.8c0,0.3,0.4,0.2,0.8,0v14.3h0.5V84.9c0.4-0.3,0.8-0.7,0.8-1.1
					c0-10.9,0-21.7,0-32.6C4.5,50.6,2.5,51.8,2.5,52.7z"/>
				<path fill="#6A5C50" d="M5.9,64c0,0.3,0,0.5,0,0.8H5.4v17.3h0.5c0,3,0,5.9,0,8.9H5.1v17.3h1v-6.6c0.6-0.1,1.7-0.9,1.7-1.5
					c0-12.5,0-25,0-37.5C7.9,62,5.9,63.2,5.9,64z"/>
				<rect x="6.4" y="48.9" fill="#6A5C50" width="1" height="5.4"/>
				<rect x="1.5" y="87.6" fill="#6A5C50" width="1" height="26.2"/>
				<rect x="0" y="68.3" fill="#6A5C50" width="1" height="3.4"/>
				<polygon fill="#6A5C50" points="6.1,57.1 5.9,57.1 5.9,50.5 5.4,50.5 5.4,57.1 5.1,57.1 5.1,63.3 6.1,63.3 				"/>
				<rect x="3" y="107.2" fill="#6A5C50" width="1" height="9.3"/>
				<rect x="3" y="122.3" fill="#6A5C50" width="1" height="10.1"/>
				<polygon fill="#6A5C50" points="6.1,125.5 5.9,125.5 5.9,124.1 6.1,124.1 6.1,111.9 5.9,111.9 5.9,110.2 5.4,110.2 5.4,111.9 
					5.1,111.9 5.1,124.1 5.4,124.1 5.4,125.5 5.1,125.5 5.1,140 6.1,140 				"/>
				<rect x="1.5" y="130.3" fill="#6A5C50" width="1" height="2.5"/>
				<rect x="5.1" y="157.1" fill="#6A5C50" width="1" height="12.2"/>
				<rect x="3" y="136.9" fill="#6A5C50" width="1" height="3.9"/>
				<rect x="1.5" y="147" fill="#6A5C50" width="1" height="1.6"/>
				<polygon fill="#6A5C50" points="6.6,115.5 6.6,128.2 6.4,128.2 6.4,132.3 6.6,132.3 6.6,133.2 7.1,133.2 7.1,132.3 7.4,132.3 
					7.4,128.2 7.1,128.2 7.1,115.5 				"/>
				<polygon fill="#6A5C50" points="5.4,177.9 5.4,185.3 5.4,193.6 5.9,193.6 5.9,185.3 5.9,177.9 5.9,172.1 5.4,172.1 				"/>
				<polygon fill="#6A5C50" points="3.8,153.3 3.8,151.6 3.8,144.7 3.3,144.7 3.3,151.6 3.3,153.3 3.3,155 3.8,155 				"/>
				<rect x="1.8" y="160.8" fill="#6A5C50" width="0.5" height="7.2"/>
				<rect x="3.3" y="156.9" fill="#6A5C50" width="0.5" height="3.9"/>
				<rect x="0.3" y="87.6" fill="#6A5C50" width="0.5" height="2.1"/>
				<rect x="0.3" y="77.1" fill="#6A5C50" width="0.5" height="1.2"/>
				<path fill="#6A5C50" d="M6.1,143v-1.4h-1v11.7h0.7c0,0.8,0,1.6,0,2.4c0,0.1,0.2,0.1,0.5,0v2.6h0.3v7h0.5v-7h0.3V155
					c0.3-0.2,0.5-0.5,0.5-0.7c0-4.1,0-8.1,0-12.2C7.8,141.8,6.7,142.4,6.1,143z"/>
				<rect x="3" y="164.4" fill="#6A5C50" width="1" height="12.3"/>
				<rect x="3" y="185.3" fill="#6A5C50" width="1" height="7.4"/>
			</g>
			<g id="_x31__13_">
				<path fill="#6A5C50" d="M2,206.9c0.1-0.1,0.3-0.2,0.5-0.4v21.8c0,0.3,0.4,0.2,0.8,0v5.8c0.2-0.1,0.3-0.2,0.5-0.2V228
					c0.4-0.3,0.8-0.7,0.8-1.1v-32.6c0-0.7-2,0.5-2,1.4v7c-0.1,0-0.2,0.1-0.3,0.1v-7.8H1.8v8.1c-0.3,0.3-0.7,0.7-0.7,1v2.9
					C1,207.6,1.9,207,2,206.9z"/>
				<path fill="#6A5C50" d="M5.9,233c0.7-0.3,1.3-0.6,2-0.8v-26.4c0-0.6-2,0.6-2,1.4v0.8H5.4v17.3h0.5V233z"/>
				<rect x="6.4" y="192" fill="#6A5C50" width="1" height="5.4"/>
				<path fill="#6A5C50" d="M2.5,234.6v-3.8h-1v4.4C1.8,234.9,2.2,234.8,2.5,234.6z"/>
				<rect x="0" y="211.4" fill="#6A5C50" width="1" height="3.4"/>
				<polygon fill="#6A5C50" points="6.1,200.2 5.9,200.2 5.9,193.7 5.4,193.7 5.4,200.2 5.1,200.2 5.1,206.4 6.1,206.4 				"/>
				<rect x="0.3" y="230.7" fill="#6A5C50" width="0.5" height="2.1"/>
				<rect x="0.3" y="220.2" fill="#6A5C50" width="0.5" height="1.2"/>
			</g>
		</g>
	</g>
</g>
</svg>
