<?xml version="1.0" encoding="utf-8"?>
<!-- Generator: Adobe Illustrator 19.0.1, SVG Export Plug-In . SVG Version: 6.00 Build 0)  -->
<!DOCTYPE svg PUBLIC "-//W3C//DTD SVG 1.1//EN" "http://www.w3.org/Graphics/SVG/1.1/DTD/svg11.dtd">
<svg version="1.1" xmlns="http://www.w3.org/2000/svg" xmlns:xlink="http://www.w3.org/1999/xlink" x="0px" y="0px"
	 viewBox="0 0 79.6 70.3" enable-background="new 0 0 79.6 70.3" xml:space="preserve">
<g id="water_pouring_instances_-_boards">
</g>
<g id="water_pour_cycle_x5F_main_comp">
	<g id="POSE2" opacity="0.8">
		<g id="Layer_6">
		</g>
	</g>
	<g id="POSE2_copy">
		<g id="Layer_6_copy">
		</g>
	</g>
	<g id="POSE3">
	</g>
	<g id="POSE3_copy">
	</g>
</g>
<g id="dirty_pour_-_pose3" opacity="0.9">
</g>
<g id="dirty_pour_-_pose2" opacity="0.9">
</g>
<g id="dirty_pour_-_pose1" opacity="0.9">
</g>
<g id="ch04-06-1_x5F_comp">
	<g id="ch04-06-1_x5F_comp_1_">
		<g id="linked_files_for_comp">
		</g>
		<g id="comp">
		</g>
	</g>
</g>
<g id="ch04-06-1_x5F_water_splash_-_Geoff_x27_s">
	<g id="pose4">
	</g>
	<g id="pose3">
	</g>
	<g id="pose2">
	</g>
	<g id="pose1">
	</g>
</g>
<g id="ch04-06-1_x5F_water_splash_-_Stu_x27_s">
	<g id="water_x5F_alt_splash_x5F_1a_to_4a">
	</g>
	<g id="water_x5F_alt_splash_x5F_DIRTY">
	</g>
</g>
<g id="POSE2_1_" opacity="0.5">
</g>
<g id="POSE3_1_" opacity="0.5">
</g>
<g id="ch06-12-1">
	<g id="water_off_hand4" opacity="0.5">
	</g>
	<g id="water_off_hand4_copy" opacity="0.5">
	</g>
	<g id="muddy_drips" opacity="0.8">
	</g>
</g>
<g id="Layer_12">
	<g id="basin">
		<g id="Layer_15">
		</g>
		<g id="Layer_20">
		</g>
		<g id="Layer_14">
		</g>
		<g id="Layer_17" opacity="0.49">
			<g id="Layer_16">
			</g>
		</g>
		<g id="Layer_17_copy_2" opacity="0.49">
			<g id="Layer_16_copy">
			</g>
		</g>
		<g id="Layer_17_copy" opacity="0.49">
		</g>
	</g>
</g>
<g id="Layer_22">
	<g id="Layer_23">
	</g>
	<g id="Layer_24">
	</g>
	<g id="Layer_24_copy">
	</g>
</g>
<g id="ch02A-09-4">
	<g id="drips_x5F_1_1_" opacity="0.79">
		<path fill="#6A5C50" d="M1.1,4.7l-1,0.1c0.4,8,0.6,16.1,0.8,24c0.1,4.9,0.2,10,0.4,15l1,0c-0.2-5-0.3-10.1-0.4-15
			C1.7,20.9,1.6,12.7,1.1,4.7z"/>
		
			<rect x="4.2" y="5.5" transform="matrix(-0.9996 -2.733353e-002 2.733353e-002 -0.9996 8.8813 36.4056)" fill="#6A5C50" width="1" height="25.3"/>
		
			<rect x="-10.4" y="27.3" transform="matrix(-1.281946e-002 -0.9999 0.9999 -1.281946e-002 -18.5695 37.2393)" fill="#A38F7F" width="39" height="1"/>
		<path fill="#6A5C50" d="M18.3,43.8c0.2-5,0-10.1-0.2-15c-0.3-6.9-0.6-14,0.2-21l-1-0.1c-0.9,7.1-0.6,14.3-0.2,21.2
			c0.2,4.9,0.5,10,0.2,15L18.3,43.8z"/>
		
			<rect x="2.5" y="37" transform="matrix(-6.579121e-002 -0.9978 0.9978 -6.579121e-002 -10.4395 65.2985)" fill="#6A5C50" width="45.6" height="1"/>
		
			<rect x="11.6" y="31.5" transform="matrix(-2.665719e-002 -0.9996 0.9996 -2.665719e-002 -0.8681 63.227)" fill="#6A5C50" width="37.5" height="1"/>
		
			<rect x="15.8" y="27.3" transform="matrix(-2.563260e-002 -0.9997 0.9997 -2.563260e-002 8.4767 63.8344)" fill="#A38F7F" width="39" height="1"/>
		
			<rect x="23.8" y="41" transform="matrix(-1.333215e-002 -0.9999 0.9999 -1.333215e-002 1.6332 84.6838)" fill="#6A5C50" width="37.5" height="1"/>
		<path fill="#6A5C50" d="M46.7,11.8c0.1,17.7,1.1,36.1,2.1,55l1-0.1c-1-18.9-2-37.3-2.1-55L46.7,11.8z"/>
		
			<rect x="37" y="50.2" transform="matrix(-4.646140e-002 -0.9989 0.9989 -4.646140e-002 4.9583 106.0553)" fill="#6A5C50" width="32.3" height="1"/>
		<rect x="55.8" y="34.5" fill="#6A5C50" width="1" height="25.8"/>
		<polygon fill="#6A5C50" points="62.3,30.8 60.8,56.3 61.8,56.3 61.8,56.3 62.3,56.3 62.3,47.8 63.3,30.8 		"/>
		
			<rect x="65" y="17.7" transform="matrix(-0.9992 -3.903273e-002 3.903273e-002 -0.9992 129.5996 70.9795)" fill="#6A5C50" width="1" height="33.1"/>
		<rect x="68.3" y="34.5" fill="#A38F7F" width="1" height="32.3"/>
		<polygon fill="#6A5C50" points="73.1,56.3 73.1,52.3 73.1,43.1 73.1,23.1 72.6,23.1 72.6,28.7 71.8,28.7 71.8,60.3 72.1,60.3 
			71.8,63.3 72.3,63.3 72.3,68 72.8,68 72.8,63.3 72.9,62 73.1,62 73.1,59.8 73.3,56.3 		"/>
		<rect x="55.8" y="15.4" fill="#6A5C50" width="1" height="16.6"/>
		
			<rect x="16.7" y="53.1" transform="matrix(-3.955236e-002 -0.9992 0.9992 -3.955236e-002 -34.0035 74.4194)" fill="#A38F7F" width="4.2" height="1"/>
		<rect x="13.2" y="42" fill="#6A5C50" width="1" height="4.2"/>
		<rect x="26.3" y="15.4" fill="#6A5C50" width="1" height="4.5"/>
		
			<rect x="32" y="45" transform="matrix(-4.305480e-002 -0.9991 0.9991 -4.305480e-002 -10.0394 81.3312)" fill="#6A5C50" width="3.9" height="1"/>
		
			<rect x="5.9" y="36.8" transform="matrix(-0.9991 -4.292914e-002 4.292914e-002 -0.9991 11.1954 77.6252)" fill="#6A5C50" width="1" height="3.8"/>
		<rect x="64.3" y="63.3" fill="#6A5C50" width="1" height="6.2"/>
		<rect x="71.2" y="68" fill="#6A5C50" width="1" height="2.3"/>
		
			<rect x="36.6" y="51.9" transform="matrix(-8.666252e-002 -0.9962 0.9962 -8.666252e-002 -10.3231 95.2801)" fill="#6A5C50" width="3.8" height="1"/>
		
			<rect x="37.6" y="42.9" transform="matrix(-5.704503e-002 -0.9984 0.9984 -5.704503e-002 -0.4605 86.2779)" fill="#A38F7F" width="5.8" height="1"/>
		<rect x="35.3" y="53.6" fill="#A38F7F" width="1" height="1.9"/>
		<rect x="26.3" y="22.9" fill="#A38F7F" width="1" height="5.6"/>
		<polygon fill="#6A5C50" points="13.2,18.4 13.2,23.1 14.2,23.1 14.2,18.4 14.2,12.3 13.2,12.3 		"/>
		<rect x="51" y="21" fill="#A38F7F" width="1" height="2.1"/>
		<rect x="60.8" y="19.8" fill="#A38F7F" width="1" height="2.1"/>
		<rect x="68.3" y="21" fill="#A38F7F" width="1" height="3.2"/>
		
			<rect x="74.8" y="25" transform="matrix(0.999 4.496426e-002 -4.496426e-002 0.999 1.2822 -3.3571)" fill="#6A5C50" width="1" height="3.7"/>
		<rect x="74.8" y="41.5" fill="#6A5C50" width="1" height="3.3"/>
		
			<rect x="50.3" y="30.3" transform="matrix(0.9996 -2.733353e-002 2.733353e-002 0.9996 -0.8913 1.4)" fill="#6A5C50" width="1" height="6.1"/>
		<rect x="45" y="25" fill="#6A5C50" width="1" height="2.8"/>
		<rect x="38.2" y="16" fill="#6A5C50" width="1" height="3.5"/>
		<rect x="40.2" y="16" fill="#6A5C50" width="1" height="1.6"/>
		<rect x="39" y="24.2" fill="#6A5C50" width="1" height="2.6"/>
		<rect x="30.3" y="9.3" fill="#6A5C50" width="1" height="2"/>
		<rect x="70" y="25.5" fill="#6A5C50" width="1" height="3.8"/>
		<rect x="14.5" y="25.2" fill="#6A5C50" width="1" height="7.5"/>
		<rect x="18.3" y="19.5" fill="#6A5C50" width="1" height="3.6"/>
		<rect x="11.8" y="28.3" fill="#6A5C50" width="0.5" height="3.2"/>
		<polygon fill="#6A5C50" points="32.6,9.2 32.1,9.2 32.1,31.1 31.8,31.1 31.8,36.3 32.8,36.3 32.8,31.1 32.6,31.1 		"/>
		<rect x="43.6" y="10.3" fill="#6A5C50" width="0.5" height="21.8"/>
		<rect x="45.3" y="33.9" fill="#6A5C50" width="0.5" height="18.6"/>
		<rect x="53.6" y="14.8" fill="#6A5C50" width="0.5" height="13"/>
		<polygon fill="#6A5C50" points="59.3,38.5 59.3,56.3 59.8,56.3 59.8,38.5 59.8,25.9 59.3,25.9 		"/>
		<polygon fill="#6A5C50" points="22.3,14.1 21.8,14.1 21.8,30.4 21.5,33.1 21.8,33.1 21.8,42 21.8,43.5 21.8,50 21.8,56.2 
			22.3,56.2 22.3,50 22.3,43.5 22.3,42 22.3,33.2 22.5,33.2 22.8,29.6 22.3,29.5 		"/>
		<rect x="26.6" y="36.3" fill="#6A5C50" width="0.5" height="5.7"/>
		
			<rect x="23.2" y="36.5" transform="matrix(-2.380278e-002 -0.9997 0.9997 -2.380278e-002 -7.6253 66.1264)" fill="#6A5C50" width="10.5" height="0.5"/>
		<rect x="10.1" y="3.1" fill="#6A5C50" width="0.5" height="13.7"/>
		<rect x="11.8" y="5.8" fill="#A38F7F" width="0.5" height="12.7"/>
		<polygon fill="#6A5C50" points="78.1,34.5 77.6,34.5 77.6,43.1 77.3,43.1 77.3,69.5 78.3,69.5 78.3,43.1 78.1,43.1 		"/>
		<polygon fill="#A38F7F" points="66.1,56.7 66.1,67.5 66.6,67.5 66.6,56.7 66.6,39.3 66.1,39.3 		"/>
		<rect x="55.1" y="39.3" fill="#6A5C50" width="0.5" height="7.8"/>
		<rect x="51.3" y="40.4" fill="#6A5C50" width="0.5" height="14.6"/>
		<rect x="38.1" y="30.8" fill="#6A5C50" width="0.5" height="7.7"/>
		<rect x="20.3" y="14.8" fill="#6A5C50" width="0.5" height="6"/>
		<rect x="14.8" y="7.8" fill="#6A5C50" width="0.5" height="8.2"/>
		<rect x="3.1" y="7.8" fill="#6A5C50" width="0.5" height="12.1"/>
		<rect x="7.3" y="21.7" fill="#6A5C50" width="0.5" height="13.8"/>
		<rect x="10.1" y="34.5" fill="#6A5C50" width="0.5" height="4.7"/>
		<rect x="16.1" y="37.3" fill="#6A5C50" width="0.5" height="9"/>
		<rect x="62.6" y="16.6" fill="#6A5C50" width="0.5" height="11.9"/>
		<rect x="32.1" y="47.5" fill="#A38F7F" width="0.5" height="10"/>
		<rect x="33.6" y="55" fill="#6A5C50" width="0.5" height="6.5"/>
		<rect x="28.3" y="50.8" fill="#6A5C50" width="0.5" height="5.5"/>
		<rect x="20.3" y="44.3" fill="#6A5C50" width="0.5" height="4.5"/>
		<rect x="11.8" y="36.9" fill="#6A5C50" width="0.5" height="13.2"/>
		<rect x="7.3" y="43.2" fill="#6A5C50" width="0.5" height="5.5"/>
		<rect x="4.6" y="45.5" fill="#6A5C50" width="0.5" height="4"/>
		<rect x="57.8" y="54.5" fill="#6A5C50" width="0.5" height="9.6"/>
		<rect x="46.6" y="55" fill="#6A5C50" width="0.5" height="5.6"/>
		<rect x="45.3" y="57.4" fill="#6A5C50" width="0.5" height="3.6"/>
		<rect x="79.1" y="55.7" fill="#6A5C50" width="0.5" height="10.1"/>
	</g>
	<g id="dirtydrips_x5F_fromholes">
	</g>
	<g id="dirtydrips_x5F_fromholes_copy">
	</g>
</g>
<g id="muddy_x5F_water_x5F_pose1">
</g>
<g id="Layer_48" opacity="0.9">
</g>
<g id="muddy_x5F_water_x5F_pose2" opacity="0.9">
</g>
<g id="muddy_x5F_water_x5F_pose2_copy">
</g>
<g id="ch06-02-03_x5F_water-drips-fly">
</g>
<g id="Layer_52">
	<g id="ripples">
	</g>
</g>
</svg>
