<?xml version="1.0" encoding="utf-8"?>
<!-- Generator: Adobe Illustrator 19.0.1, SVG Export Plug-In . SVG Version: 6.00 Build 0)  -->
<!DOCTYPE svg PUBLIC "-//W3C//DTD SVG 1.1//EN" "http://www.w3.org/Graphics/SVG/1.1/DTD/svg11.dtd">
<svg version="1.1" xmlns="http://www.w3.org/2000/svg" xmlns:xlink="http://www.w3.org/1999/xlink" x="0px" y="0px"
	 viewBox="0 0 79.6 70.3" enable-background="new 0 0 79.6 70.3" xml:space="preserve">
<g id="water_pouring_instances_-_boards">
</g>
<g id="water_pour_cycle_x5F_main_comp">
	<g id="POSE2" opacity="0.8">
		<g id="Layer_6">
		</g>
	</g>
	<g id="POSE2_copy">
		<g id="Layer_6_copy">
		</g>
	</g>
	<g id="POSE3">
	</g>
	<g id="POSE3_copy">
	</g>
</g>
<g id="dirty_pour_-_pose3" opacity="0.9">
</g>
<g id="dirty_pour_-_pose2" opacity="0.9">
</g>
<g id="dirty_pour_-_pose1" opacity="0.9">
</g>
<g id="ch04-06-1_x5F_comp">
	<g id="ch04-06-1_x5F_comp_1_">
		<g id="linked_files_for_comp">
		</g>
		<g id="comp">
		</g>
	</g>
</g>
<g id="ch04-06-1_x5F_water_splash_-_Geoff_x27_s">
	<g id="pose4">
	</g>
	<g id="pose3">
	</g>
	<g id="pose2">
	</g>
	<g id="pose1">
	</g>
</g>
<g id="ch04-06-1_x5F_water_splash_-_Stu_x27_s">
	<g id="water_x5F_alt_splash_x5F_1a_to_4a">
	</g>
	<g id="water_x5F_alt_splash_x5F_DIRTY">
	</g>
</g>
<g id="POSE2_1_" opacity="0.5">
</g>
<g id="POSE3_1_" opacity="0.5">
</g>
<g id="ch06-12-1">
	<g id="water_off_hand4" opacity="0.5">
	</g>
	<g id="water_off_hand4_copy" opacity="0.5">
	</g>
	<g id="muddy_drips" opacity="0.8">
	</g>
</g>
<g id="Layer_12">
	<g id="basin">
		<g id="Layer_15">
		</g>
		<g id="Layer_20">
		</g>
		<g id="Layer_14">
		</g>
		<g id="Layer_17" opacity="0.49">
			<g id="Layer_16">
			</g>
		</g>
		<g id="Layer_17_copy_2" opacity="0.49">
			<g id="Layer_16_copy">
			</g>
		</g>
		<g id="Layer_17_copy" opacity="0.49">
		</g>
	</g>
</g>
<g id="Layer_22">
	<g id="Layer_23">
	</g>
	<g id="Layer_24">
	</g>
	<g id="Layer_24_copy">
	</g>
</g>
<g id="ch02A-09-4">
	<g id="drips_x5F_2_2_" opacity="0.8">
		<path fill="#6A5C50" d="M1.8,5.5l-1,0l0.1,4.1c0.1,5,0.2,10.1,0.4,15.1l1,0C2.2,19.7,2,14.6,1.9,9.6L1.8,5.5z"/>
		
			<rect x="3.9" y="5.6" transform="matrix(0.9996 2.733353e-002 -2.733353e-002 0.9996 0.2393 -0.1179)" fill="#A38F7F" width="1" height="6.2"/>
		
			<rect x="-5" y="13.6" transform="matrix(-1.281769e-002 -0.9999 0.9999 -1.281769e-002 -4.8534 23.4856)" fill="#6A5C50" width="28.3" height="1"/>
		<path fill="#6A5C50" d="M17.3,24.7l1,0c0.2-5,0-10.2-0.2-15.1c-0.1-2-0.2-4-0.2-6l-1,0c0.1,2,0.2,4,0.2,6
			C17.3,14.7,17.6,19.7,17.3,24.7z"/>
		<path fill="#6A5C50" d="M25.7,15.1c-0.2-2.7-0.4-5.4-0.6-8l-1,0.1c0.2,2.6,0.4,5.3,0.6,8c0.6,8.6,1.3,17.4,1.7,26.1v3.6h1v-4.5h0
			C26.9,32,26.3,23.4,25.7,15.1z"/>
		
			<rect x="19.7" y="20.4" transform="matrix(-2.666738e-002 -0.9996 0.9996 -2.666738e-002 10.4641 52.0215)" fill="#6A5C50" width="21.7" height="1"/>
		
			<rect x="25.1" y="17.3" transform="matrix(-2.565415e-002 -0.9997 0.9997 -2.565415e-002 18.6736 53.8498)" fill="#A38F7F" width="20.9" height="1"/>
		<path fill="#6A5C50" d="M42.9,10.1l-1,0c0,9.9,0,20.5,0.5,31.2l1,0C42.9,30.6,42.9,20,42.9,10.1z"/>
		<path fill="#6A5C50" d="M47.1,10.1c0.4,12.7,1.1,25.6,1.8,37.7l1-0.1c-0.7-12.1-1.4-25-1.8-37.6L47.1,10.1z"/>
		<polygon fill="#A38F7F" points="54.1,42.4 54.1,39.9 54,39.9 52.8,15.5 51.8,15.5 53.3,47.8 53.6,47.8 53.6,52.9 54.1,52.9 
			54.1,47.8 54.3,47.7 		"/>
		<polygon fill="#6A5C50" points="55.8,40.4 55.8,41.3 55.8,57.1 56.8,57.1 56.8,41.3 56.8,40.4 56.8,15.5 55.8,15.5 		"/>
		<polygon fill="#6A5C50" points="60.8,37.2 61.8,37.3 61.8,37.3 62.3,37.3 62.3,28.8 63.3,11.8 62.3,11.7 		"/>
		
			<rect x="64.7" y="14.5" transform="matrix(0.9992 3.903273e-002 -3.903273e-002 0.9992 0.9531 -2.5267)" fill="#6A5C50" width="1" height="17.3"/>
		<polygon fill="#6A5C50" points="68.3,46 68.3,47.8 68.3,49.2 69.3,49.2 69.3,47.8 69.3,46 69.3,15.5 68.3,15.5 		"/>
		<polygon fill="#A38F7F" points="73.1,37.3 73.1,33.3 73.1,24.1 73.1,16.9 72.8,16.9 72.8,16.6 71.8,16.6 71.8,41.3 72.1,41.3 
			71.8,44.2 72.3,44.3 72.3,49 72.6,49 72.6,53.7 71.8,53.7 71.8,66.8 72.8,66.8 72.8,66.7 73.1,66.7 73.1,48.1 72.8,48.1 
			72.8,44.3 72.9,43 73.1,43 73.1,40.8 73.3,37.3 		"/>
		<path fill="#A38F7F" d="M18.2,32.4l0,0.3l-0.8-0.1C16.5,39.8,16.8,47,17.1,54c0,1.1,0.1,2.2,0.1,3.2l1,0c0-1.1-0.1-2.2-0.1-3.2
			c-0.3-6.6-0.6-13.5,0.1-20.2l0.1,2.8l1,0l-0.2-4.2L18.2,32.4z"/>
		<rect x="13.2" y="23" fill="#6A5C50" width="1" height="4.2"/>
		
			<rect x="33.4" y="24.5" transform="matrix(0.9991 -4.292914e-002 4.292914e-002 0.9991 -1.1045 1.481)" fill="#6A5C50" width="1" height="3.9"/>
		
			<rect x="5.9" y="17.8" transform="matrix(-0.9991 -4.292914e-002 4.292914e-002 -0.9991 12.0118 39.6113)" fill="#6A5C50" width="1" height="3.8"/>
		<rect x="71.2" y="49" fill="#6A5C50" width="1" height="2.3"/>
		
			<rect x="36.6" y="32.9" transform="matrix(8.666252e-002 0.9962 -0.9962 8.666252e-002 68.4073 -7.9037)" fill="#A38F7F" width="3.8" height="1"/>
		
			<rect x="37.6" y="23.8" transform="matrix(5.704503e-002 0.9984 -0.9984 5.704503e-002 62.5042 -17.496)" fill="#6A5C50" width="5.8" height="1"/>
		<rect x="31.8" y="12.1" fill="#6A5C50" width="1" height="5.2"/>
		<rect x="74.8" y="22.5" fill="#A38F7F" width="1" height="3.3"/>
		
			<rect x="47.7" y="13.8" transform="matrix(2.739356e-002 0.9996 -0.9996 2.739356e-002 63.6543 -36.8504)" fill="#6A5C50" width="6.1" height="1"/>
		<rect x="14.5" y="6.2" fill="#6A5C50" width="1" height="7.5"/>
		<rect x="11.8" y="9.3" fill="#6A5C50" width="0.5" height="3.2"/>
		<rect x="45.3" y="14.9" fill="#6A5C50" width="0.5" height="18.6"/>
		<polygon fill="#6A5C50" points="59.3,19.4 59.3,37.3 59.8,37.3 59.8,19.4 59.8,11.4 59.3,11.4 		"/>
		<polygon fill="#6A5C50" points="22.3,7.2 21.8,7.2 21.8,11.4 21.5,14.1 21.8,14.1 21.8,23 21.8,24.5 21.8,31 21.8,37.2 22.3,37.2 
			22.3,31 22.3,24.5 22.3,23 22.3,14.1 22.5,14.2 22.8,10.6 22.3,10.5 		"/>
		<rect x="26.6" y="17.3" fill="#6A5C50" width="0.5" height="5.7"/>
		
			<rect x="23.2" y="17.5" transform="matrix(-2.380278e-002 -0.9997 0.9997 -2.380278e-002 11.385 46.658)" fill="#6A5C50" width="10.5" height="0.5"/>
		<polygon fill="#6A5C50" points="78.1,18.7 77.6,18.7 77.6,24.1 77.3,24.1 77.3,50.5 78.3,50.5 78.3,24.1 78.1,24.1 		"/>
		<rect x="55.1" y="20.3" fill="#6A5C50" width="0.5" height="7.8"/>
		<rect x="51.3" y="21.4" fill="#6A5C50" width="0.5" height="14.6"/>
		<rect x="38.1" y="11.8" fill="#6A5C50" width="0.5" height="7.7"/>
		<rect x="7.3" y="2.7" fill="#6A5C50" width="0.5" height="13.8"/>
		<rect x="10.1" y="15.5" fill="#6A5C50" width="0.5" height="4.7"/>
		<rect x="16.1" y="18.3" fill="#6A5C50" width="0.5" height="9"/>
		<rect x="33.6" y="36" fill="#6A5C50" width="0.5" height="6.5"/>
		<rect x="28.3" y="31.8" fill="#6A5C50" width="0.5" height="5.5"/>
		<rect x="20.3" y="25.2" fill="#A38F7F" width="0.5" height="4.5"/>
		<polygon fill="#6A5C50" points="11.8,30.8 11.8,31 11.8,43.5 12.3,43.5 12.3,31 12.3,30.8 12.3,17.8 11.8,17.8 		"/>
		<rect x="7.3" y="24.2" fill="#6A5C50" width="0.5" height="5.5"/>
		<polygon fill="#A38F7F" points="5.1,26.5 4.6,26.5 4.6,28.1 4,51 5,51 5.6,27.8 5.1,27.8 		"/>
		<rect x="57.8" y="35.5" fill="#6A5C50" width="0.5" height="9.6"/>
		<rect x="45.3" y="38.4" fill="#6A5C50" width="0.5" height="3.6"/>
		<rect x="79.1" y="36.6" fill="#6A5C50" width="0.5" height="10.1"/>
		<path fill="#6A5C50" d="M0,27.7C0.5,35.3,0.7,42.9,0.8,50l1,0C1.7,42.9,1.5,35.3,1,27.7L0,27.7z"/>
		
			<rect x="-0.3" y="42" transform="matrix(-1.280386e-002 -0.9999 0.9999 -1.280386e-002 -33.4495 52.0433)" fill="#6A5C50" width="18.5" height="1"/>
		
			<rect x="16.1" y="47.6" transform="matrix(-6.581569e-002 -0.9978 0.9978 -6.581569e-002 -21.9786 75.5872)" fill="#6A5C50" width="16.6" height="1"/>
		
			<rect x="20.6" y="47.3" transform="matrix(-2.666887e-002 -0.9996 0.9996 -2.666887e-002 -16.8481 79.1313)" fill="#6A5C50" width="18.9" height="1"/>
		<polygon fill="#6A5C50" points="35.3,33.3 34.3,33.3 35.1,61.3 36.1,61.2 35.4,36.4 36.3,36.4 36.3,34.5 35.4,34.5 		"/>
		
			<rect x="36.2" y="53.5" transform="matrix(-1.330800e-002 -0.9999 0.9999 -1.330800e-002 -11.0061 97.1509)" fill="#6A5C50" width="12.4" height="1"/>
		<path fill="#6A5C50" d="M47.1,36.8V36h-0.5v5.6h0.2c0.1,5.4,0.2,11,0.5,17.3l1,0c-0.3-8.1-0.5-15.3-0.5-22.1L47.1,36.8z"/>
		<rect x="55.8" y="59.6" fill="#6A5C50" width="1" height="3.3"/>
		
			<rect x="62.1" y="55.8" transform="matrix(-0.9983 -5.860750e-002 5.860750e-002 -0.9983 121.5551 123.8198)" fill="#6A5C50" width="1" height="8.7"/>
		<polygon fill="#6A5C50" points="66.6,42.7 66.6,37.7 66.6,20.3 66.1,20.3 66.1,37.7 66.1,42.7 65.6,42.7 65.3,50.1 65.3,44.3 
			64.3,44.3 64.3,50.5 65.3,50.5 64.7,66.1 65.7,66.2 66.4,48.5 66.6,48.5 66.6,43.7 66.6,42.7 		"/>
		<rect x="68.3" y="59.6" fill="#6A5C50" width="1" height="6.2"/>
		<rect x="26.3" y="48.1" fill="#6A5C50" width="1" height="5.6"/>
		<polygon fill="#6A5C50" points="13.2,43.5 13.2,48.1 14.2,48.1 14.2,43.5 14.2,37.3 13.2,37.3 		"/>
		<rect x="51" y="46" fill="#6A5C50" width="1" height="2.1"/>
		<rect x="60.8" y="44.9" fill="#6A5C50" width="1" height="2.1"/>
		
			<rect x="74.8" y="50" transform="matrix(-0.999 -4.496426e-002 4.496426e-002 -0.999 148.1212 107.0162)" fill="#6A5C50" width="1" height="3.7"/>
		
			<rect x="48.5" y="57" transform="matrix(-2.746098e-002 -0.9996 0.9996 -2.746098e-002 -5.3738 109.8351)" fill="#A38F7F" width="4.5" height="1"/>
		<rect x="45" y="50" fill="#6A5C50" width="1" height="2.8"/>
		<rect x="38.2" y="41.1" fill="#6A5C50" width="1" height="3.5"/>
		<rect x="40.2" y="41.1" fill="#6A5C50" width="1" height="1.6"/>
		<rect x="39" y="49.2" fill="#6A5C50" width="1" height="2.6"/>
		<rect x="30.3" y="34.3" fill="#6A5C50" width="1" height="2"/>
		<rect x="70" y="50.5" fill="#6A5C50" width="1" height="3.8"/>
		<rect x="14.5" y="50.2" fill="#6A5C50" width="1" height="5.9"/>
		<rect x="18.3" y="44.5" fill="#6A5C50" width="1" height="3.6"/>
		<polygon fill="#6A5C50" points="32.6,38.4 32.6,34.2 32.6,28.4 32.1,28.4 32.1,34.2 32.1,38.4 32.1,56.2 31.8,56.2 31.8,61.4 
			32.8,61.4 32.8,56.2 32.6,56.2 		"/>
		<rect x="43.6" y="35.3" fill="#6A5C50" width="0.5" height="21.8"/>
		<rect x="59.3" y="50.9" fill="#6A5C50" width="0.5" height="12.6"/>
		<rect x="21.8" y="39.1" fill="#A38F7F" width="0.5" height="14.6"/>
		<rect x="10.1" y="28.1" fill="#6A5C50" width="0.5" height="13.7"/>
		<rect x="77.6" y="59.6" fill="#6A5C50" width="0.5" height="7.3"/>
		<rect x="38.1" y="55.8" fill="#6A5C50" width="0.5" height="5"/>
		<rect x="20.3" y="39.8" fill="#6A5C50" width="0.5" height="6"/>
		<rect x="14.8" y="32.9" fill="#6A5C50" width="0.5" height="8.2"/>
		<rect x="3.1" y="32.9" fill="#6A5C50" width="0.5" height="12.1"/>
		<rect x="7.3" y="46.7" fill="#6A5C50" width="0.5" height="4.2"/>
		<rect x="62.6" y="41.7" fill="#6A5C50" width="0.5" height="11.9"/>
	</g>
	<g id="dirtydrips_x5F_fromholes">
	</g>
	<g id="dirtydrips_x5F_fromholes_copy">
	</g>
</g>
<g id="muddy_x5F_water_x5F_pose1">
</g>
<g id="Layer_48" opacity="0.9">
</g>
<g id="muddy_x5F_water_x5F_pose2" opacity="0.9">
</g>
<g id="muddy_x5F_water_x5F_pose2_copy">
</g>
<g id="ch06-02-03_x5F_water-drips-fly">
</g>
<g id="Layer_52">
	<g id="ripples">
	</g>
</g>
</svg>
