<?xml version="1.0" encoding="utf-8"?>
<!-- Generator: Adobe Illustrator 18.1.1, SVG Export Plug-In . SVG Version: 6.00 Build 0)  -->
<!DOCTYPE svg PUBLIC "-//W3C//DTD SVG 1.1//EN" "http://www.w3.org/Graphics/SVG/1.1/DTD/svg11.dtd">
<svg version="1.1" xmlns="http://www.w3.org/2000/svg" xmlns:xlink="http://www.w3.org/1999/xlink" x="0px" y="0px"
	 viewBox="0 0 141.8 495.9" enable-background="new 0 0 141.8 495.9" xml:space="preserve">
<g id="water_pouring_instances_-_boards">
</g>
<g id="water_pour_cycle_x5F_main_comp">
	<g id="POSE2">
		<g id="Layer_6">
		</g>
	</g>
	<g id="POSE3">
	</g>
</g>
<g id="POSE1_2_" opacity="0.5">
</g>
<g id="POSE2_1_" opacity="0.5">
</g>
<g id="POSE3_1_" opacity="0.5">
	<g>
		<path fill="none" d="M19.1,272.6c0-0.4,0-0.7,0-1.1c0-0.1,0-0.3,0-0.4c0,0.1,0,0.3,0,0.4C19.1,271.9,19.1,272.3,19.1,272.6z"/>
		<path fill="none" d="M123.9,13.5c-0.1,0-0.1-0.1-0.2-0.1c-0.7,0.1-1.4,0.1-2.1,0.1C122.4,13.6,123.2,13.6,123.9,13.5z"/>
		<path fill="none" d="M19.6,409.5l-0.8-0.3c0,0.7,0,1.5,0.1,2.2C19,410.8,19.3,410.1,19.6,409.5z"/>
		<path fill="#6BAFD3" d="M141.6,2.4C136.2,2.1,131,1.1,125.6,1c-2.6,0-5.1,0.1-7.7,0.4c-4.4,0.4-8.8,1.1-13.2,1.6
			C93.7,4.2,85.2,6.5,76,10c-0.1,0-0.1,0-0.2,0.1c-2.5,0.9-5,1.9-7.6,3c1.2,0,2.3,0,3.5-0.1c0.3,0,0.6,0,0.8,0
			c-7.3,6.5-15.8,20-13.4,27.8c1,3.3,3.1,3.2,2.6,6.1c3.4-5,5.8-11.3,9.4-16.2c1-1.3,2.7-2.8,4.1-4.2c0.9-0.9,1.7-1.9,2.1-2.8
			c0.8-1.7-0.8-3.1,0.1-4.9c2-3.8,7.2-6.1,12.8-7.5c5.4-0.7,10.9-1.2,16.3-1.2c-1.8,1-3.8,1.7-5.7,2.4c6.7,0.4,17.3-2.9,23,1
			c3.6-0.4,7-1.4,10.6-1.2c0.8,0,1.6,0.1,2.3,0.3c1.6,0.4,3.4,1.3,4.9,1.8c0-2,0.1-4.4,0.1-6.8C141.8,5.8,141.8,4.1,141.6,2.4z"/>
		<path fill="#95CDE9" d="M123.8,13.4c0.1,0,0.1,0.1,0.2,0.1c-0.8,0-1.5,0-2.3,0C122.4,13.5,123.1,13.5,123.8,13.4
			c-5.8-3.9-16.3-0.6-23-1c1.9-0.7,3.9-1.5,5.7-2.4c-5.4,0-10.8,0.6-16.3,1.2c-5.6,1.5-10.8,3.8-12.8,7.5c-0.9,1.8,0.6,3.2-0.1,4.9
			c-0.4,0.9-1.2,1.8-2.1,2.8c8.7-2.3,17.1-6.7,25.8-9.1c6.7-1.9,12.3-2,19.1-2.3c3.6-0.1,5.4-1,8.5-2c1.5-0.5,3.7-0.6,5.8-0.8
			C130.8,12,127.3,13.1,123.8,13.4z"/>
		<path fill="#95CDE9" d="M59.1,40.8C56.7,33,65.2,19.5,72.5,13c-0.3,0-0.6,0-0.8,0c-1.2,0-2.3,0.1-3.5,0.1c2.6-1.1,5.2-2.1,7.6-3
			V9.9C67.7,9.4,58.5,20.5,54,25.7C49,31.6,42.4,34,41.7,42c-1,11-8.4,21.3-11.9,32c-2.5,7.6-2.3,16.8-3.2,25l1.7,0.2
			c-0.3,2.1-0.6,4.5-0.7,6.8c0.1-1.3,0.3-2.5,0.4-3.7c1-8.3,3.9-17,6.3-25.3c2.3-8.1,5.8-16,10-23.2c0.4-0.6,0.9-1.3,1.4-2
			c-0.8,1.7-1.5,3.5-1.7,5.3c-0.3,2.7,1.2,5.1,1.6,7.7c1.3,9-7.5,16.1-7,25.3c0.3,5,2.3,9.6,2,14.9c-0.2,3.5-0.9,7.1-1.7,10.7
			c0.1,0.1,0.1,0.3,0.2,0.4c0.5,1.3,0.6,3,0.6,4.8c0.9-3.1,1.7-6.3,2.5-9.5c1.5-6.5,2.6-13,5-19.3c1.2-3.3,3.4-6.2,4-9.5
			c1.6-8.4-1.2-15.5,2.8-23.6c1.9-3.9,6.1-6.6,7.4-10.7c0.2-0.5,0.3-1,0.4-1.4C62.2,44,60.1,44.1,59.1,40.8z"/>
		<path fill="#95CDE9" d="M58,281.9c2.1-4-1.1-6.5-2.6-9.9C55.1,275.1,55.4,280.8,58,281.9z"/>
		<path fill="#6BAFD3" d="M44.9,293.9c1.1,1,1.8,1,2.5,0c0.3-5.4,0.6-11.4-1.3-16.3C44.3,282,44.1,288.8,44.9,293.9z"/>
		<path fill="#BDE5F4" d="M38.6,90c-0.5-9.2,8.3-16.3,7-25.3c-0.4-2.6-1.9-5-1.6-7.7c0.2-1.8,0.9-3.5,1.7-5.3c-0.5,0.7-1,1.4-1.4,2
			c-4.3,7.3-7.7,15.1-10,23.2c-2.4,8.3-5.3,17-6.3,25.3c-0.1,1.2-0.3,2.5-0.4,3.7c-0.3,6,0.3,11.7,4.2,11.5c3.8-0.2,4.4-8.3,7-2
			c0.8-3.6,1.5-7.2,1.7-10.7C40.9,99.7,38.9,95,38.6,90z"/>
		<path fill="#6BAFD3" d="M41.3,288.5c-0.8,3.6-3.7,8.4,0,10.8C43,295.4,40.9,292,41.3,288.5z"/>
		<path fill="#95CDE9" d="M31.9,117.5c-3.9,0.2-4.6-5.5-4.2-11.5c-1.1,9-2.2,18.1-2.6,27c-0.2,4.7-1.5,9.2-2.1,13.7
			c-0.3,2.1-0.5,4.1-0.4,6.2c0.2,4.3,2.4,8.7,1.5,13c-0.4,2.2-2.1,4.1-2.7,6.3c-0.8,3.4,0.3,6,0.6,9.3c0.1,0.7,0.1,1.5,0.2,2.2
			c0.7,9.7-0.4,18.6-1.1,28.1c-0.3,4.3-0.8,8.3-1,12.3c-0.2,4.4-0.1,8.8,1,13.4c0.9,3.8,2.2,7.2,3.1,10.7c0.1-1.8-0.1-3.5-0.6-5.4
			c-1.5-5.8-1.6-9.9-1-16.1c0.5-5.5,0.9-11.3,1.4-16.9c0.3-3.1,3.3-13.6,2.4-16.4c0.5-0.8,1-1.5,1.6-2c1.2,4.1,1.4,7.2,1.9,11.5
			c0.8,6.8,3.9,13.3,3.8,20.3c-0.1,9.6-9.1,17.5-5.8,27.3c2.2,6.6,3.1,11.7,3.1,19.2c0,0.9,0,1.8,0,2.6c-0.3,7.9-1.7,15.6-2,23.5
			c0,0.8-0.1,1.5-0.1,2.3c-0.2,2.2-0.5,4.3-0.8,6.3c-0.5,6.3,0,12.8,0.8,19.3c1-6.2,1.7-12.5,3-18.8c1.5-7.2,4-17.9,2.1-25.1
			c-0.7-2.8-2.8-4.3-2.9-7.2c0,0,0-0.1,0-0.1c0-2.2,1.4-3.8,2-5.9c1.6-5.5,0.8-12.2,1.5-18c0.6-5.4,2.5-10.7,2.5-16
			c-0.1-11-0.5-22.9-2-33.9c-1.4-10.1-1.5-20.2-1.5-30.5c0-1.2,0-2.3,0-3.5c-0.2,8.1-3.4,18-7.5,24.3c-0.8-1.7-1.2-3.4-1.3-5.2
			c-0.4-5.8,2.5-12,3.2-17.6c0.6-4.1-0.3-7.9,0.1-12.3c0.6-5.8,1.5-11.4,1.5-17.3c0.4,1.3,0.9-0.7,1.5-2.9c0.2,2.8,1.8,5.7,2,8.3
			c0,0,0,0.1,0,0.1c0.4,4.8-1.1,9.1-0.6,13.8c0,0,0,0,0,0c0.1,0.7,0.2,1.4,0.4,2.2c0.3,1,0.4,2.2,0.5,3.3c-0.1-4-0.2-8.1-0.1-12.2
			c0.1-3.4,0.2-6.7,0.7-10c0.4-2.6,0.9-5.2,1.6-7.8c0.1-0.9,0.3-1.8,0.4-2.6c0.7-4.4,1.9-8.8,2.9-13.3
			C36.2,109.3,35.6,117.3,31.9,117.5z"/>
		<path fill="#95CDE9" d="M27.6,342.6c0,8.2-1.7,13.9-4,21.6c-0.6,1.9-1.2,3.9-1.7,6c-0.9-7.6-5.2-15.6-4.6-23.6
			c0.1-1.8,0.3-3.5,0.6-5.2l-0.2,0c-0.6,4.1-3.4,7.9-3.4,12c0,4.1,2.3,7.8,2.1,12.1c-0.1,4.5,0.2,9,1.5,13.3
			c1.5,4.8,2.1,7.2,0.9,12.2c-0.8,3.2-1.1,5.9-1.1,8.5c0.2-0.3,0.4-0.7,0.6-1l0.5,0.3c0,3.4,0.1,6.8,0.2,10.2l0.8,0.3
			c-0.3,0.6-0.6,1.2-0.8,1.9c0.2,5.8,0.5,11.7,0.9,17.5c0.8,1.9,1.9,3.7,3.3,5.2c0.5,0.5,1,1.1,1.6,1.5c2.9,2.4,9.1,5.8,7.8,10.2
			l0.3,0.1c0.5-1.8,0.8-3.7,0.8-5.8c0.3-8.2-0.9-16.6-0.5-24.6c0.3-5.6,2.3-10.6,2-16.4c-0.1-2.3-0.1-4.4,0-6.5
			c0.2-3.5,0.6-6.9,1.1-10.7c1.6-10.3-2.8-20.8-3.7-31c-0.7-8.5-2.6-17.9-3.7-27.3c-0.3,2-0.7,4-1.1,6
			C27.9,333.9,27.6,338.3,27.6,342.6z M30.1,364.1c0.1-0.1,0.1-0.2,0-0.1c0.4-0.3,0.7-0.4,1.1-0.8c-0.3,9,1.9,17.2,1.9,25.8
			c0,1.2,0,2.4-0.1,3.6c-0.4,8.4-1.9,17-2.5,25.5c-0.2,2.5-2.2,18.5-6,15.6c-0.1,0-0.1-0.1-0.2-0.2c-1.5-1.9,0.5-10,0.8-11.6
			c1.8-8.9-0.9-17.2,1-25.9C28.4,385.3,30.1,375.4,30.1,364.1z"/>
		<path fill="#6BAFD3" d="M17.2,346.7c-0.6,8,3.7,16,4.6,23.6c0.5-2,1.2-4,1.7-6c2.3-7.7,4-13.5,4-21.6c0-4.3,0.3-8.7,0.2-13
			c-0.1-2.2-0.3-4.4-0.7-6.5c-1.4-6.6,0-12.5,1.1-18.8c0.3-2.1,0.7-4.1,0.8-6.3c0.1-0.7,0.1-1.5,0.1-2.3c0.3-7.9,1.7-15.5,2-23.5
			c0-0.9,0-1.7,0-2.6c0-7.5-0.9-12.7-3.1-19.2c-3.3-9.8,5.6-17.7,5.8-27.3c0.1-6.9-3-13.5-3.8-20.3c-0.5-4.3-0.7-7.4-1.9-11.5
			c-0.6,0.5-1.1,1.2-1.6,2c0.9,2.7-2.1,13.3-2.4,16.4c-0.5,5.6-0.9,11.4-1.4,16.9c-0.6,6.2-0.5,10.3,1,16.1c0.5,1.9,0.6,3.6,0.6,5.4
			c-0.8-3.5-2.1-6.9-3.1-10.7c-1.1-4.6-1.2-8.9-1-13.4c0.2-4,0.7-8,1-12.3c0.7-9.5,1.8-18.4,1.1-28.1c-0.1-0.7-0.1-1.5-0.2-2.2
			c-0.3-3.3-1.5-5.9-0.6-9.3c0.6-2.3,2.2-4.2,2.7-6.3c0.9-4.3-1.3-8.8-1.5-13c-0.1-2.1,0.1-4.2,0.4-6.2c0.7-4.6,1.9-9.1,2.1-13.7
			c0.4-8.9,1.5-18.1,2.6-27c0.1-2.3,0.4-4.7,0.7-6.8L26.6,99c0,0.3-0.1,0.6-0.1,1c-0.9,6.5-2,12.9-2.8,19.3
			c-0.6,5.5-2.9,11.6-2.6,17.2c0.1,1,0.2,2.1,0.3,3.1l-0.3,0c0.6,12.9-8,25.7-7.6,38c0.3,8.9,4.4,18.8,5.6,27.8
			c0.5,3.8-1.2,7.2-1,11c0,1.1,0.2,2.2,0.4,3.2c0.3,1.5,0.5,3,0.4,4.7c0,0.2,0,0.4-0.1,0.7c-0.7,7-0.3,13.3,0.6,20.5
			c1.1,8.7-0.3,17.6-0.4,25.8c0,0,0,0.1,0,0.1c0,0.1,0,0.3,0,0.4c0,0.4,0,0.7,0,1.1c0-0.4,0-0.8,0-1.1c-0.8-4.5-2.3-8.6-4.9-12.5
			c-1.4-2.2-2.9-3.3-3.4-5.3C8.9,261.3,7.7,269,8.3,277c1.4,16,6.1,31.5,8.7,47.4c0.8,5,0.9,11.3,0.6,16.3c0,0.3-0.1,0.5-0.1,0.8
			l0.2,0C17.5,343.2,17.3,345,17.2,346.7z"/>
		<path fill="#6BAFD3" d="M32.6,156C32.6,156,32.6,156,32.6,156c-0.5-4.7,0.9-9.1,0.6-13.9c0,0,0-0.1,0-0.1c-0.2-2.6-1.8-5.6-2-8.3
			c-0.6,2.2-1.1,4.1-1.5,2.9c0,5.9-0.9,11.5-1.5,17.3c-0.5,4.4,0.4,8.1-0.1,12.3c-0.8,5.6-3.6,11.8-3.2,17.6
			c0.1,1.8,0.5,3.5,1.3,5.2c4.1-6.2,7.3-16.1,7.5-24.3c0,0,0,0,0-0.1c0-1,0-2-0.1-3c0,0,0,0,0,0c-0.1-1.2-0.3-2.3-0.5-3.3
			C32.8,157.4,32.6,156.7,32.6,156z"/>
		<path fill="#BDE5F4" d="M25.1,421.9c-0.3,1.6-2.3,9.7-0.8,11.6c0.1,0.1,0.1,0.1,0.2,0.2c3.9,3,5.8-13,6-15.6
			c0.7-8.4,2.2-17,2.5-25.5c0.1-1.2,0.1-2.4,0.1-3.6c0-8.6-2.2-16.9-1.9-25.8c-0.3,0.3-0.7,0.4-1.1,0.8c0.1,0,0.1,0,0,0.1
			c0,11.3-1.7,21.2-4,31.9C24.2,404.7,26.9,413,25.1,421.9z"/>
		<path fill="#6BAFD3" d="M24.6,435.7c-0.6-0.5-1.1-1-1.6-1.5c-1.4-1.5-2.5-3.3-3.3-5.2c-0.4-5.8-0.7-11.7-0.9-17.5
			c0-0.7-0.1-1.5-0.1-2.2c-0.1-3.4-0.2-6.8-0.2-10.2l-0.5-0.3c-0.2,0.3-0.4,0.6-0.6,1v0c-2.7,5.5-1.3,15.9-1.5,21
			c-0.3,6.1-0.4,12.2-0.4,18.4c0,7.2,0.8,14.1,1.5,21c0.5,4.6,2.6,8.5,3.4,13c0.7,4,0.2,8,1.1,11.9l-1.5,1.1c1.1,1.4,1.2,4.5,1,5.6
			v1.3c3.8-0.2,8.1-0.5,11.3-0.8c-0.2-0.5-0.4-1-0.6-1.5l0.3-0.1c-0.1-0.4-0.3-0.8-0.4-1.2c-0.3-0.7-0.6-1.5-0.9-2.1
			c-0.1-0.1-0.1-0.2-0.2-0.3v0c0-0.2,0-0.4,0-0.6c0.1,0.2,0.1,0.4,0.2,0.6c0.6-9.2-3-18.5-1.7-28c0.1-0.9,0.3-1.8,0.5-2.7
			c1-3.8,2.2-6.7,3-10l-0.3-0.1C33.6,441.5,27.5,438,24.6,435.7z"/>
		<path fill="#BDE5F4" d="M28.1,304.4c-1.1,6.3-2.4,12.2-1.1,18.8c0.4,2.1,0.6,4.3,0.7,6.5c0.4-2,0.8-4,1.1-6
			C28.1,317.2,27.6,310.7,28.1,304.4z"/>
		<path fill="#95CDE9" d="M19.1,271.5c0-0.1,0-0.2,0-0.4c0,0,0-0.1,0-0.1c0.1-8.1,1.5-17.1,0.4-25.8c-0.9-7.2-1.3-13.5-0.6-20.5
			c0-0.2,0-0.4,0.1-0.7c0.1-1.7-0.2-3.2-0.4-4.7c-0.8,11.6-4.9,22.8-7.7,34.2c0.5,2,2,3.2,3.4,5.3C16.8,262.9,18.3,267,19.1,271.5z"
			/>
		<path fill="#6BAFD3" d="M0.7,248.6L0.7,248.6c-0.7,5.5-1.7,11.9,2,12c2.7-7.9,0.5-14.9-0.7-22.5C1.9,240.8,2.2,245.2,0.7,248.6z"
			/>
	</g>
</g>
</svg>
