<?xml version="1.0" encoding="utf-8"?>
<!-- Generator: Adobe Illustrator 18.1.1, SVG Export Plug-In . SVG Version: 6.00 Build 0)  -->
<svg version="1.1" xmlns="http://www.w3.org/2000/svg" xmlns:xlink="http://www.w3.org/1999/xlink" x="0px" y="0px"
	 viewBox="0 0 141.8 495.9" enable-background="new 0 0 141.8 495.9" xml:space="preserve">
<g id="water_pouring_instances_-_boards">
</g>
<g id="water_pour_cycle_x5F_main_comp">
	<g id="POSE2">
		<g id="Layer_6">
		</g>
	</g>
	<g id="POSE3">
	</g>
</g>
<g id="POSE1_2_" opacity="0.5">
	<g id="POSE1_3_">
		<g id="XMLID_33_">
			<g>
				<path fill="#4C3E33" d="M46,277.6c1.8,4.9,1.6,10.9,1.3,16.3c-0.7,1-1.3,1-2.5,0C44.1,288.8,44.3,282,46,277.6z"/>
				<path fill="#6A5C50" d="M10.8,253.7c2.8-11.4,6.9-22.6,7.7-34.2c0.2,1.5,0.5,3,0.4,4.7c0,0.2,0,0.4-0.1,0.6
					c-0.7,7-0.3,13.3,0.6,20.5c1.1,8.7-0.3,17.6-0.4,25.7c0,0,0,0.1,0,0.1c0,0.1,0,0.2,0,0.4c-0.8-4.5-2.2-8.6-4.9-12.5
					C12.8,256.9,11.3,255.7,10.8,253.7z"/>
				<path fill="#4C3E33" d="M55.4,272c1.5,3.4,4.6,5.9,2.6,9.9C55.4,280.8,55.1,275.1,55.4,272z"/>
				<path fill="#6A5C50" d="M17.2,346.7c-0.6,8,3.7,16,4.6,23.6c0.5-2,1.2-4,1.7-6c2.3-7.7,4-13.5,4-21.6c0-4.3,0.3-8.7,0.2-13
					c0.4-2,0.8-4,1.1-6c1.1,9.4,3,18.8,3.7,27.3c0.9,10.2,5.2,20.7,3.6,31c-0.6,3.8-1,7.2-1.1,10.7l-2.1-0.1c0-1.2,0.1-2.4,0.1-3.6
					c0-8.6-2.2-16.9-1.9-25.8c-0.3,0.3-0.7,0.4-1.1,0.8c0.2,0,0.1,0,0,0.1c0,11.3-1.7,21.2-4,31.9c-1.9,8.7,0.8,17-1,25.9
					c-0.3,1.6-2.3,9.7-0.8,11.6c0.1,0.1,0.1,0.1,0.2,0.2l-1.5,0.5c-1.4-1.5-2.5-3.2-3.3-5.2c-0.4-5.8-0.7-11.7-0.9-17.5
					c0.2-0.7,0.5-1.3,0.8-1.9l-0.8-0.3c-0.1-3.4-0.2-6.8-0.2-10.2l-0.5-0.3c-0.2,0.3-0.4,0.6-0.5,1c0-2.7,0.3-5.3,1.1-8.6
					c1.2-5,0.6-7.4-0.9-12.2c-1.3-4.2-1.7-8.8-1.5-13.2c0.1-4.3-2.1-8-2.1-12.1c0-4.1,2.8-7.9,3.4-12l0.2,0
					C17.5,343.2,17.3,345,17.2,346.7z"/>
				<path fill="#4C3E33" d="M1.9,238.1c1.2,7.7,3.4,14.6,0.7,22.5c-3.7-0.2-2.7-6.5-2-12h0C2.2,245.2,1.9,240.8,1.9,238.1z"/>
				<path fill="#4C3E33" d="M14.2,259c2.6,3.9,4.1,8,4.9,12.5c0,0.4,0,0.8,0,1.1c0-0.4,0-0.7,0-1.1c0-0.1,0-0.3,0-0.4
					c0,0,0-0.1,0-0.1c0.1-8.1,1.5-17.1,0.4-25.7c-1-7.2-1.3-13.5-0.6-20.5c0-0.2,0-0.4,0.1-0.6l1.2,0.1c-0.2,4.4-0.1,8.8,1,13.4
					c0.9,3.8,2.2,7.2,3.1,10.7c0.1-1.8-0.1-3.6-0.6-5.4c-1.5-5.8-1.6-9.9-1-16.1c0.5-5.5,0.9-11.3,1.4-16.9
					c0.3-3.1,3.3-13.6,2.4-16.4c0.5-0.8,1-1.5,1.6-2c1.2,4.1,1.4,7.1,1.9,11.5c0.8,6.8,3.9,13.3,3.8,20.3
					c-0.2,9.6-9.1,17.5-5.8,27.3c2.2,6.6,3.1,11.7,3.1,19.2c0,0.9,0,1.8,0,2.6c-0.3,7.9-1.7,15.6-2,23.5c0,0.8-0.1,1.5-0.1,2.2
					c-0.2,2.2-0.5,4.2-0.9,6.3c-1.1,6.3-2.4,12.2-1,18.8c0.4,2.1,0.6,4.3,0.7,6.5c0.2,4.2-0.2,8.7-0.2,13c0,8.2-1.7,13.9-4,21.6
					c-0.6,1.9-1.2,3.9-1.7,6c-0.9-7.6-5.2-15.6-4.6-23.6c0.1-1.8,0.3-3.5,0.6-5.2l-0.2,0c0-0.3,0.1-0.6,0.1-0.8
					c0.3-5,0.3-11.3-0.6-16.3C14.4,308.5,9.7,293,8.3,277c-0.7-8,0.6-15.7,2.5-23.3C11.3,255.7,12.8,256.9,14.2,259z"/>
				<path fill="#4C3E33" d="M71.7,13c-1.2,0-2.3,0.1-3.5,0.1c2.6-1.1,5.2-2.1,7.6-3C75.9,10,76,10,76,10c9.1-3.4,17.7-5.7,28.6-6.9
					c4.4-0.5,8.8-1.2,13.2-1.6c2.6-0.2,5.2-0.4,7.7-0.4c5.4,0,10.6,1.1,16.1,1.4c0.1,1.6,0.1,3.4,0.1,5.1c0,2.4-0.1,4.7-0.1,6.8
					c-1.6-0.5-3.3-1.4-4.9-1.8c-0.8-0.2-1.6-0.3-2.3-0.3c-3.6-0.2-7,0.9-10.6,1.2c-5.8-3.9-16.3-0.6-23-1c1.9-0.7,3.9-1.5,5.7-2.4
					c-5.4,0-10.8,0.6-16.3,1.2c-5.6,1.5-10.8,3.8-12.8,7.6c-0.9,1.8,0.6,3.2-0.1,4.9c-0.4,0.9-1.2,1.8-2.1,2.8
					c-1.4,1.5-3.1,2.9-4.1,4.2c-3.6,4.9-6,11.2-9.4,16.2c0.5-2.9-1.6-2.8-2.6-6.1C56.7,33,65.2,19.5,72.5,13C72.3,13,72,13,71.7,13z
					"/>
				<path fill="#4C3E33" d="M26.1,188.9c-0.8-1.7-1.2-3.4-1.3-5.2c-0.4-5.8,2.5-12,3.2-17.6c0.6-4.1-0.4-7.8,0.1-12.3
					c0.6-5.8,1.5-11.4,1.5-17.2c0.4,1.3,0.9-0.7,1.5-2.9c0.2,2.8,1.8,5.7,2,8.3c0,0,0,0.1,0,0.1c0.4,4.8-1.1,9.1-0.6,13.8
					c0,0,0,0,0,0c0.1,0.7,0.2,1.4,0.4,2.2c0.3,1,0.4,2.2,0.5,3.4c0,0,0,0,0,0c0.1,1,0.1,2,0.1,3c0,0,0,0,0,0.1
					C33.3,172.7,30.1,182.6,26.1,188.9z"/>
				<path fill="#4C3E33" d="M28.9,323.7c-0.3,2-0.7,4-1.1,6c-0.1-2.2-0.3-4.4-0.7-6.5c-1.4-6.6,0-12.5,1-18.8
					C27.6,310.7,28.1,317.2,28.9,323.7z"/>
				<path fill="#6A5C50" d="M28.1,102.3c-0.1,1.2-0.3,2.5-0.4,3.7c0.1-2.3,0.4-4.7,0.7-6.8L26.6,99c1-8.1,0.8-17.3,3.2-25
					c3.5-10.7,10.9-21,11.9-32C42.4,34,49,31.6,54,25.7c4.5-5.2,13.6-16.3,21.8-15.8V10c-2.5,0.9-5,1.9-7.6,3c1.2,0,2.3,0,3.5-0.1
					c0.3,0,0.6,0,0.8,0c-7.3,6.5-15.8,20-13.4,27.8c1,3.3,3.1,3.2,2.6,6.1c-0.1,0.4-0.2,0.8-0.4,1.4c-1.4,4-5.5,6.8-7.4,10.6
					c-4,8.1-1.2,15.3-2.8,23.6c-0.6,3.3-2.8,6.2-4,9.5c-2.3,6.3-3.5,12.8-5,19.3c-0.7,3.2-1.6,6.3-2.5,9.5c0.1-1.8-0.1-3.5-0.6-4.8
					c0-0.1-0.1-0.3-0.2-0.4c0.8-3.6,1.5-7.2,1.7-10.7c0.3-5.2-1.7-9.9-2-14.9c-0.5-9.2,8.3-16.3,7-25.3c-0.4-2.6-1.9-5-1.6-7.7
					c0.2-1.8,0.8-3.5,1.6-5.3c-0.5,0.7-1,1.4-1.4,2c-4.2,7.3-7.7,15.1-10,23.2C31.9,85.3,29.1,94,28.1,102.3z"/>
				<path fill="#6A5C50" d="M28.9,323.7c-0.8-6.5-1.2-13-0.8-19.3c0.4-2.1,0.7-4.2,0.9-6.3c0.1-0.7,0.1-1.5,0.1-2.2
					c0.3-7.9,1.7-15.6,2-23.5h0c0,0,0,0.1,0,0.1c0.1,2.9,2.2,4.4,2.9,7.2c1.9,7.3-0.7,17.9-2.1,25.1
					C30.6,311.2,29.9,317.5,28.9,323.7z"/>
				<path fill="#6A5C50" d="M100.8,12.4c6.7,0.4,17.2-2.9,23,1c-0.7,0.1-1.4,0.1-2.1,0.1c0.8,0,1.5,0,2.3,0c-0.1,0-0.1-0.1-0.2-0.1
					c3.6-0.4,7-1.4,10.6-1.2c-2.1,0.2-4.3,0.4-5.8,0.8c-3,0.9-4.9,1.8-8.5,2c-6.8,0.3-12.4,0.4-19.2,2.3c-8.7,2.4-17.1,6.8-25.8,9.1
					c0.9-0.9,1.7-1.9,2.1-2.8c0.8-1.7-0.8-3.1,0.1-4.9c2-3.8,7.2-6.1,12.8-7.6c5.4-0.7,10.9-1.2,16.3-1.2
					C104.7,11,102.6,11.7,100.8,12.4z"/>
				<path fill="#6A5C50" d="M22,181.6c-0.3-3.3-1.5-5.9-0.6-9.3c0.5-2.3,2.2-4.2,2.7-6.3c0.9-4.3-1.3-8.8-1.5-13
					c-0.1-2.1,0.1-4.2,0.4-6.2c0.7-4.6,1.9-9.1,2.1-13.7c0.4-8.9,1.5-18.1,2.6-27c-0.3,6,0.3,11.7,4.2,11.5c3.8-0.2,4.4-8.3,7-2
					c-1,4.5-2.2,8.9-2.9,13.3c-0.1,0.9-0.3,1.8-0.4,2.6c-0.7,2.5-1.2,5.1-1.6,7.8c-0.4,3.3-0.6,6.6-0.7,10
					c-0.1,4.1,0.1,8.2,0.2,12.2c-0.1-1.2-0.3-2.3-0.5-3.4c-0.2-0.7-0.3-1.5-0.4-2.2c0,0,0,0,0,0c-0.5-4.7,0.9-9,0.6-13.8
					c0,0,0-0.1,0-0.1c-0.2-2.7-1.8-5.6-2-8.3c-0.6,2.2-1.1,4.1-1.5,2.9c0,5.9-0.9,11.5-1.5,17.2c-0.5,4.4,0.4,8.1-0.1,12.3
					c-0.8,5.7-3.6,11.8-3.2,17.6l-2.5,0.2C22.1,183.1,22.1,182.4,22,181.6z"/>
				<path fill="#4C3E33" d="M17.5,399.7L17.5,399.7c0.2-0.3,0.4-0.7,0.5-1l0.5,0.3c0,3.4,0.1,6.8,0.2,10.2c0,0.7,0,1.5,0.1,2.2
					c0.2,5.8,0.5,11.7,0.9,17.5c0.8,1.9,1.9,3.7,3.3,5.2c0.5,0.5,1,1.1,1.6,1.5c3,2.4,9,5.8,7.8,10.2l0.3,0.1c-0.8,3.2-2.1,6.2-3,10
					c-0.2,0.9-0.4,1.8-0.5,2.7c-1.4,9.5,2.3,18.8,1.7,28c-0.1-0.2-0.1-0.4-0.2-0.6c0,0.2,0,0.4,0,0.6v0c0.1,0.1,0.1,0.2,0.2,0.4
					c0.4,0.7,0.7,1.4,0.9,2.1c0.1,0.4,0.3,0.8,0.4,1.2l-0.3,0.1c0.2,0.5,0.4,1,0.6,1.5c-3.2,0.3-7.5,0.6-11.3,0.8v-1.2
					c0.2-1.1,0.1-4.1-1-5.6l1.5-1.1c-1-3.9-0.5-8-1.1-11.9c-0.8-4.5-2.9-8.4-3.4-13c-0.7-6.9-1.5-13.8-1.5-21
					c0-6.1,0.1-12.3,0.4-18.3C16.2,415.6,14.9,405.1,17.5,399.7z"/>
				<path fill="#6A5C50" d="M23,434.1l1.5-0.5c3.9,3,5.8-13,6-15.6c0.7-8.5,2.2-17,2.5-25.5l2.1,0.1c-0.1,2.1-0.1,4.2,0,6.5
					c0.3,5.7-1.7,10.8-2,16.4c-0.4,8,0.7,16.4,0.5,24.6c-0.1,2.1-0.4,4-0.8,5.8l-0.3-0.1c1.3-4.4-4.8-7.8-7.8-10.2
					C24,435.2,23.5,434.7,23,434.1z"/>
				<path fill="#4C3E33" d="M41.3,288.5c-0.5,3.4,1.6,6.9,0,10.8C37.6,296.9,40.6,292.1,41.3,288.5z"/>
				<path fill="#A38F7F" d="M24.4,433.7c-0.1,0-0.1-0.1-0.2-0.2c-1.5-1.9,0.5-10,0.8-11.6c1.8-8.9-0.9-17.2,1-25.9
					c2.3-10.7,4-20.6,4-31.9c0.1-0.1,0.2-0.2,0-0.1c0.4-0.3,0.7-0.4,1.1-0.8c-0.2,9,1.9,17.2,1.9,25.8c0,1.2,0,2.4-0.1,3.6
					c-0.4,8.4-1.9,17-2.5,25.5C30.3,420.7,28.3,436.7,24.4,433.7z"/>
				<path fill="#4C3E33" d="M19.1,205.3c-1.2-9-5.2-18.9-5.6-27.8c-0.5-12.3,8.2-25.1,7.5-38l0.3-0.1c-0.2-1-0.3-2-0.3-3.1
					c-0.3-5.6,2-11.6,2.6-17.1c0.7-6.4,1.9-12.8,2.8-19.3c0-0.3,0.1-0.6,0.1-1l1.7,0.2c-0.3,2.1-0.5,4.5-0.7,6.8
					c-1.1,9-2.2,18.1-2.6,27c-0.2,4.7-1.5,9.2-2.1,13.7c-0.3,2.1-0.5,4.1-0.4,6.2c0.2,4.2,2.4,8.7,1.5,13c-0.5,2.2-2.1,4.1-2.7,6.3
					c-0.8,3.4,0.3,6,0.6,9.3c0.1,0.7,0.1,1.5,0.2,2.2c0.7,9.6-0.4,18.6-1.1,28.1c-0.3,4.3-0.8,8.3-1,12.3l-1.2-0.1
					c0.1-1.7-0.2-3.2-0.4-4.7c-0.2-1-0.3-2.1-0.4-3.2C17.9,212.5,19.6,209.1,19.1,205.3z"/>
				<path fill="#6A5C50" d="M21.1,237.6c-1.1-4.6-1.2-8.9-1-13.4c0.2-4,0.7-8,1-12.3c0.7-9.5,1.8-18.4,1.1-28.1l2.5-0.2
					c0.1,1.8,0.5,3.5,1.3,5.2c4.1-6.2,7.3-16.1,7.5-24.3c0,1.2,0,2.4,0,3.5c0,10.2,0.1,20.4,1.5,30.5c1.5,11,2,22.8,2,33.9
					c0,5.3-1.9,10.7-2.5,16c-0.7,5.8,0.1,12.5-1.5,18c-0.6,2-2,3.7-2,5.9h0c0-0.9,0-1.7,0-2.6c0-7.5-0.9-12.7-3.1-19.2
					c-3.3-9.8,5.6-17.7,5.8-27.3c0.1-6.9-3-13.5-3.8-20.3c-0.5-4.3-0.7-7.4-1.9-11.5c-0.6,0.5-1.1,1.2-1.6,2
					c0.9,2.7-2.1,13.3-2.4,16.4c-0.5,5.6-0.9,11.4-1.4,16.9c-0.6,6.2-0.5,10.3,1,16.1c0.5,1.8,0.6,3.6,0.6,5.4
					C23.3,244.7,22,241.4,21.1,237.6z"/>
				<path fill="#A38F7F" d="M31.9,117.6c-3.9,0.2-4.6-5.5-4.2-11.5c0.1-1.2,0.3-2.5,0.4-3.7c1-8.3,3.9-17,6.2-25.3
					c2.3-8.1,5.8-16,10-23.2c0.4-0.6,0.9-1.3,1.4-2c-0.8,1.7-1.4,3.5-1.6,5.3c-0.3,2.7,1.2,5.1,1.6,7.7c1.3,9-7.5,16.1-7,25.3
					c0.3,5,2.3,9.6,2,14.9c-0.2,3.5-0.9,7.1-1.7,10.7C36.2,109.3,35.6,117.4,31.9,117.6z"/>
			</g>
		</g>
	</g>
</g>
<g id="POSE2_1_" opacity="0.5">
</g>
<g id="POSE3_1_" opacity="0.5">
</g>
<g id="ch06-12-1">
	<g id="water_off_hand4" opacity="0.5">
	</g>
	<g id="water_off_hand4_copy" opacity="0.5">
	</g>
</g>
<g id="Layer_12">
	<g id="basin">
		<g id="Layer_15">
		</g>
		<g id="Layer_20">
		</g>
		<g id="Layer_14">
		</g>
		<g id="Layer_17" opacity="0.49">
			<g id="Layer_16">
			</g>
		</g>
		<g id="Layer_17_copy_2" opacity="0.49">
			<g id="Layer_16_copy">
			</g>
		</g>
		<g id="Layer_17_copy" opacity="0.49">
		</g>
	</g>
</g>
<g id="Layer_22">
	<g id="Layer_23">
	</g>
	<g id="Layer_24">
	</g>
	<g id="Layer_24_copy">
	</g>
</g>
<g id="ch02A-09-4">
	<g id="dirtydrips_x5F_fromholes">
	</g>
	<g id="dirtydrips_x5F_fromholes_copy">
	</g>
</g>
<g id="muddy_x5F_water_x5F_pose1">
</g>
<g id="muddy_x5F_water_x5F_pose2" opacity="0.61">
</g>
<g id="muddy_x5F_water_x5F_pose2_copy">
</g>
</svg>
